{"asset":{"version":"2.0","generator":"Open Asset Import Library (assimp v6.0.0)"},"extensionsUsed":["KHR_materials_specular","KHR_materials_volume","KHR_materials_ior","FB_ngon_encoding"],"accessors":[{"bufferView":0,"byteOffset":0,"componentType":5126,"count":9075,"type":"VEC3","max":[3.02899432182312,1.7136611938476562,0.9779883027076721],"min":[2.2250738585072014e-308,2.2250738585072014e-308,2.2250738585072014e-308]},{"bufferView":1,"byteOffset":0,"componentType":5126,"count":9075,"type":"VEC2","max":[0.99591064453125,0.8749656677246094],"min":[2.2250738585072014e-308,2.2250738585072014e-308]},{"bufferView":2,"byteOffset":0,"componentType":5125,"count":38679,"type":"SCALAR","max":[9074],"min":[0]},{"bufferView":3,"byteOffset":0,"componentType":5126,"count":996,"type":"VEC3","max":[2.7549469470977783,1.6785953044891357,0.9725764393806458],"min":[2.2250738585072014e-308,2.2250738585072014e-308,2.2250738585072014e-308]},{"bufferView":4,"byteOffset":0,"componentType":5126,"count":996,"type":"VEC2","max":[0.7227544784545898,0.9522171020507812],"min":[2.2250738585072014e-308,2.2250738585072014e-308]},{"bufferView":5,"byteOffset":0,"componentType":5125,"count":4959,"type":"SCALAR","max":[995],"min":[0]}],"buffers":[{"byteLength":375972,"uri":"tile_0593.bin"}],"bufferViews":[{"buffer":0,"byteOffset":0,"byteLength":108900,"target":34962},{"buffer":0,"byteOffset":108900,"byteLength":72600,"target":34962},{"buffer":0,"byteOffset":181500,"byteLength":154716,"target":34963},{"buffer":0,"byteOffset":336216,"byteLength":11952,"target":34962},{"buffer":0,"byteOffset":348168,"byteLength":7968,"target":34962},{"buffer":0,"byteOffset":356136,"byteLength":19836,"target":34963}],"images":[{"uri":"../textures/tile_0593_material_0.jpg"},{"uri":"../textures/tile_0593_material_1.jpg"}],"materials":[{"name":"DefaultMaterial","pbrMetallicRoughness":{"baseColorFactor":[0.6000000238418579,0.6000000238418579,0.6000000238418579,1.0],"metallicFactor":0.0},"extensions":{"KHR_materials_specular":{"specularFactor":1.0,"specularColorFactor":[0.0,0.0,0.0]},"KHR_materials_ior":{"ior":1.0}}},{"name":"material_0_material","pbrMetallicRoughness":{"baseColorTexture":{"index":0},"metallicFactor":0.0},"extensions":{"KHR_materials_specular":{"specularFactor":1.0,"specularColorFactor":[0.0,0.0,0.0]},"KHR_materials_ior":{"ior":1.0}}},{"name":"material_1_material","pbrMetallicRoughness":{"baseColorTexture":{"index":1},"metallicFactor":0.0},"extensions":{"KHR_materials_specular":{"specularFactor":1.0,"specularColorFactor":[0.0,0.0,0.0]},"KHR_materials_ior":{"ior":1.0}}}],"meshes":[{"name":"defaultobject","primitives":[{"mode":4,"material":1,"indices":2,"attributes":{"POSITION":0,"TEXCOORD_0":1}},{"mode":4,"material":2,"indices":5,"attributes":{"POSITION":3,"TEXCOORD_0":4}}]}],"nodes":[{"name":"tile_0593.obj","children":[1]},{"name":"defaultobject","mesh":0}],"samplers":[{},{}],"scenes":[{"nodes":[0]}],"textures":[{"source":0,"sampler":0},{"source":1,"sampler":1}],"scene":0}
