{"asset":{"version":"2.0","generator":"Open Asset Import Library (assimp v6.0.0)"},"extensionsUsed":["KHR_materials_specular","KHR_materials_volume","KHR_materials_ior","FB_ngon_encoding"],"accessors":[{"bufferView":0,"byteOffset":0,"componentType":5126,"count":3658,"type":"VEC3","max":[0.3141332268714905,-0.32839345932006836,2.830075979232788],"min":[-0.29867321252822876,-0.49118098616600037,2.2250738585072014e-308]},{"bufferView":1,"byteOffset":0,"componentType":5126,"count":3658,"type":"VEC2","max":[0.9887089729309082,0.4906902313232422],"min":[2.2250738585072014e-308,2.2250738585072014e-308]},{"bufferView":2,"byteOffset":0,"componentType":5125,"count":16764,"type":"SCALAR","max":[3657],"min":[0]},{"bufferView":3,"byteOffset":0,"componentType":5126,"count":1020,"type":"VEC3","max":[0.14923301339149475,-0.3335036635398865,2.830303907394409],"min":[-0.26736754179000854,-0.44154274463653564,2.2250738585072014e-308]},{"bufferView":4,"byteOffset":0,"componentType":5126,"count":1020,"type":"VEC2","max":[0.6651067733764648,0.5073280334472656],"min":[2.2250738585072014e-308,2.2250738585072014e-308]},{"bufferView":5,"byteOffset":0,"componentType":5125,"count":4986,"type":"SCALAR","max":[1019],"min":[0]}],"buffers":[{"byteLength":180560,"uri":"tile_0408.bin"}],"bufferViews":[{"buffer":0,"byteOffset":0,"byteLength":43896,"target":34962},{"buffer":0,"byteOffset":43896,"byteLength":29264,"target":34962},{"buffer":0,"byteOffset":73160,"byteLength":67056,"target":34963},{"buffer":0,"byteOffset":140216,"byteLength":12240,"target":34962},{"buffer":0,"byteOffset":152456,"byteLength":8160,"target":34962},{"buffer":0,"byteOffset":160616,"byteLength":19944,"target":34963}],"images":[{"uri":"../textures/tile_0408_material_0.jpg"},{"uri":"../textures/tile_0408_material_1.jpg"}],"materials":[{"name":"DefaultMaterial","pbrMetallicRoughness":{"baseColorFactor":[0.6000000238418579,0.6000000238418579,0.6000000238418579,1.0],"metallicFactor":0.0},"extensions":{"KHR_materials_specular":{"specularFactor":1.0,"specularColorFactor":[0.0,0.0,0.0]},"KHR_materials_ior":{"ior":1.0}}},{"name":"material_0_material","pbrMetallicRoughness":{"baseColorTexture":{"index":0},"metallicFactor":0.0},"extensions":{"KHR_materials_specular":{"specularFactor":1.0,"specularColorFactor":[0.0,0.0,0.0]},"KHR_materials_ior":{"ior":1.0}}},{"name":"material_1_material","pbrMetallicRoughness":{"baseColorTexture":{"index":1},"metallicFactor":0.0},"extensions":{"KHR_materials_specular":{"specularFactor":1.0,"specularColorFactor":[0.0,0.0,0.0]},"KHR_materials_ior":{"ior":1.0}}}],"meshes":[{"name":"defaultobject","primitives":[{"mode":4,"material":1,"indices":2,"attributes":{"POSITION":0,"TEXCOORD_0":1}},{"mode":4,"material":2,"indices":5,"attributes":{"POSITION":3,"TEXCOORD_0":4}}]}],"nodes":[{"name":"tile_0408.obj","children":[1]},{"name":"defaultobject","mesh":0}],"samplers":[{},{}],"scenes":[{"nodes":[0]}],"textures":[{"source":0,"sampler":0},{"source":1,"sampler":1}],"scene":0}
