{"asset":{"version":"2.0","generator":"Open Asset Import Library (assimp v6.0.0)"},"extensionsUsed":["KHR_materials_specular","KHR_materials_volume","KHR_materials_ior","FB_ngon_encoding"],"accessors":[{"bufferView":0,"byteOffset":0,"componentType":5126,"count":3615,"type":"VEC3","max":[3.052155017852783,3.359279155731201,1.0774801969528198],"min":[2.2250738585072014e-308,2.2250738585072014e-308,2.2250738585072014e-308]},{"bufferView":1,"byteOffset":0,"componentType":5126,"count":3615,"type":"VEC2","max":[0.994570255279541,0.5664005279541016],"min":[2.2250738585072014e-308,2.2250738585072014e-308]},{"bufferView":2,"byteOffset":0,"componentType":5125,"count":15096,"type":"SCALAR","max":[3614],"min":[0]},{"bufferView":3,"byteOffset":0,"componentType":5126,"count":438,"type":"VEC3","max":[3.0273122787475586,3.2749857902526855,1.0806376934051514],"min":[2.2250738585072014e-308,2.2250738585072014e-308,2.2250738585072014e-308]},{"bufferView":4,"byteOffset":0,"componentType":5126,"count":438,"type":"VEC2","max":[0.5989198684692383,0.952667236328125],"min":[2.2250738585072014e-308,2.2250738585072014e-308]},{"bufferView":5,"byteOffset":0,"componentType":5125,"count":1989,"type":"SCALAR","max":[437],"min":[0]}],"buffers":[{"byteLength":149400,"uri":"tile_0553.bin"}],"bufferViews":[{"buffer":0,"byteOffset":0,"byteLength":43380,"target":34962},{"buffer":0,"byteOffset":43380,"byteLength":28920,"target":34962},{"buffer":0,"byteOffset":72300,"byteLength":60384,"target":34963},{"buffer":0,"byteOffset":132684,"byteLength":5256,"target":34962},{"buffer":0,"byteOffset":137940,"byteLength":3504,"target":34962},{"buffer":0,"byteOffset":141444,"byteLength":7956,"target":34963}],"images":[{"uri":"../textures/tile_0553_material_0.jpg"},{"uri":"../textures/tile_0553_material_1.jpg"}],"materials":[{"name":"DefaultMaterial","pbrMetallicRoughness":{"baseColorFactor":[0.6000000238418579,0.6000000238418579,0.6000000238418579,1.0],"metallicFactor":0.0},"extensions":{"KHR_materials_specular":{"specularFactor":1.0,"specularColorFactor":[0.0,0.0,0.0]},"KHR_materials_ior":{"ior":1.0}}},{"name":"material_0_material","pbrMetallicRoughness":{"baseColorTexture":{"index":0},"metallicFactor":0.0},"extensions":{"KHR_materials_specular":{"specularFactor":1.0,"specularColorFactor":[0.0,0.0,0.0]},"KHR_materials_ior":{"ior":1.0}}},{"name":"material_1_material","pbrMetallicRoughness":{"baseColorTexture":{"index":1},"metallicFactor":0.0},"extensions":{"KHR_materials_specular":{"specularFactor":1.0,"specularColorFactor":[0.0,0.0,0.0]},"KHR_materials_ior":{"ior":1.0}}}],"meshes":[{"name":"defaultobject","primitives":[{"mode":4,"material":1,"indices":2,"attributes":{"POSITION":0,"TEXCOORD_0":1}},{"mode":4,"material":2,"indices":5,"attributes":{"POSITION":3,"TEXCOORD_0":4}}]}],"nodes":[{"name":"tile_0553.obj","children":[1]},{"name":"defaultobject","mesh":0}],"samplers":[{},{}],"scenes":[{"nodes":[0]}],"textures":[{"source":0,"sampler":0},{"source":1,"sampler":1}],"scene":0}
