{"asset":{"version":"2.0","generator":"Open Asset Import Library (assimp v6.0.0)"},"extensionsUsed":["KHR_materials_specular","KHR_materials_volume","KHR_materials_ior","FB_ngon_encoding"],"accessors":[{"bufferView":0,"byteOffset":0,"componentType":5126,"count":4169,"type":"VEC3","max":[3.4786505699157715,0.7097132205963135,0.2112950086593628],"min":[2.2250738585072014e-308,2.2250738585072014e-308,2.2250738585072014e-308]},{"bufferView":1,"byteOffset":0,"componentType":5126,"count":4169,"type":"VEC2","max":[0.991330623626709,0.7066097259521484],"min":[2.2250738585072014e-308,2.2250738585072014e-308]},{"bufferView":2,"byteOffset":0,"componentType":5125,"count":17472,"type":"SCALAR","max":[4168],"min":[0]},{"bufferView":3,"byteOffset":0,"componentType":5126,"count":933,"type":"VEC3","max":[3.174347162246704,0.7199060320854187,0.20779824256896973],"min":[2.2250738585072014e-308,2.2250738585072014e-308,2.2250738585072014e-308]},{"bufferView":4,"byteOffset":0,"componentType":5126,"count":933,"type":"VEC2","max":[0.6668436527252197,0.6003055572509766],"min":[2.2250738585072014e-308,2.2250738585072014e-308]},{"bufferView":5,"byteOffset":0,"componentType":5125,"count":5124,"type":"SCALAR","max":[932],"min":[0]}],"buffers":[{"byteLength":192424,"uri":"tile_0538.bin"}],"bufferViews":[{"buffer":0,"byteOffset":0,"byteLength":50028,"target":34962},{"buffer":0,"byteOffset":50028,"byteLength":33352,"target":34962},{"buffer":0,"byteOffset":83380,"byteLength":69888,"target":34963},{"buffer":0,"byteOffset":153268,"byteLength":11196,"target":34962},{"buffer":0,"byteOffset":164464,"byteLength":7464,"target":34962},{"buffer":0,"byteOffset":171928,"byteLength":20496,"target":34963}],"images":[{"uri":"../textures/tile_0538_material_0.jpg"},{"uri":"../textures/tile_0538_material_1.jpg"}],"materials":[{"name":"DefaultMaterial","pbrMetallicRoughness":{"baseColorFactor":[0.6000000238418579,0.6000000238418579,0.6000000238418579,1.0],"metallicFactor":0.0},"extensions":{"KHR_materials_specular":{"specularFactor":1.0,"specularColorFactor":[0.0,0.0,0.0]},"KHR_materials_ior":{"ior":1.0}}},{"name":"material_0_material","pbrMetallicRoughness":{"baseColorTexture":{"index":0},"metallicFactor":0.0},"extensions":{"KHR_materials_specular":{"specularFactor":1.0,"specularColorFactor":[0.0,0.0,0.0]},"KHR_materials_ior":{"ior":1.0}}},{"name":"material_1_material","pbrMetallicRoughness":{"baseColorTexture":{"index":1},"metallicFactor":0.0},"extensions":{"KHR_materials_specular":{"specularFactor":1.0,"specularColorFactor":[0.0,0.0,0.0]},"KHR_materials_ior":{"ior":1.0}}}],"meshes":[{"name":"defaultobject","primitives":[{"mode":4,"material":1,"indices":2,"attributes":{"POSITION":0,"TEXCOORD_0":1}},{"mode":4,"material":2,"indices":5,"attributes":{"POSITION":3,"TEXCOORD_0":4}}]}],"nodes":[{"name":"tile_0538.obj","children":[1]},{"name":"defaultobject","mesh":0}],"samplers":[{},{}],"scenes":[{"nodes":[0]}],"textures":[{"source":0,"sampler":0},{"source":1,"sampler":1}],"scene":0}
