{"asset":{"version":"2.0","generator":"Open Asset Import Library (assimp v6.0.0)"},"extensionsUsed":["KHR_materials_specular","KHR_materials_volume","KHR_materials_ior","FB_ngon_encoding"],"accessors":[{"bufferView":0,"byteOffset":0,"componentType":5126,"count":6080,"type":"VEC3","max":[3.520003318786621,0.041056692600250244,-0.0679318904876709],"min":[2.2250738585072014e-308,-0.07872716337442398,-0.1211070641875267]},{"bufferView":1,"byteOffset":0,"componentType":5126,"count":6080,"type":"VEC2","max":[0.9932656288146973,0.6445159912109375],"min":[2.2250738585072014e-308,2.2250738585072014e-308]},{"bufferView":2,"byteOffset":0,"componentType":5125,"count":23628,"type":"SCALAR","max":[6079],"min":[0]}],"buffers":[{"byteLength":216112,"uri":"tile_0638.bin"}],"bufferViews":[{"buffer":0,"byteOffset":0,"byteLength":72960,"target":34962},{"buffer":0,"byteOffset":72960,"byteLength":48640,"target":34962},{"buffer":0,"byteOffset":121600,"byteLength":94512,"target":34963}],"images":[{"uri":"../textures/tile_0638_material_0.jpg"}],"materials":[{"name":"DefaultMaterial","pbrMetallicRoughness":{"baseColorFactor":[0.6000000238418579,0.6000000238418579,0.6000000238418579,1.0],"metallicFactor":0.0},"extensions":{"KHR_materials_specular":{"specularFactor":1.0,"specularColorFactor":[0.0,0.0,0.0]},"KHR_materials_ior":{"ior":1.0}}},{"name":"material_0_material","pbrMetallicRoughness":{"baseColorTexture":{"index":0},"metallicFactor":0.0},"extensions":{"KHR_materials_specular":{"specularFactor":1.0,"specularColorFactor":[0.0,0.0,0.0]},"KHR_materials_ior":{"ior":1.0}}},{"name":"material_1_material","pbrMetallicRoughness":{"metallicFactor":0.0},"extensions":{"KHR_materials_specular":{"specularFactor":1.0,"specularColorFactor":[0.0,0.0,0.0]},"KHR_materials_ior":{"ior":1.0}}}],"meshes":[{"name":"defaultobject","primitives":[{"mode":4,"material":1,"indices":2,"attributes":{"POSITION":0,"TEXCOORD_0":1}}]}],"nodes":[{"name":"tile_0638.obj","children":[1]},{"name":"defaultobject","mesh":0}],"samplers":[{}],"scenes":[{"nodes":[0]}],"textures":[{"source":0,"sampler":0}],"scene":0}
