{"asset":{"version":"2.0","generator":"Open Asset Import Library (assimp v6.0.0)"},"extensionsUsed":["KHR_materials_specular","KHR_materials_volume","KHR_materials_ior","FB_ngon_encoding"],"accessors":[{"bufferView":0,"byteOffset":0,"componentType":5126,"count":7976,"type":"VEC3","max":[2.6580986976623535,-1.2424999475479126,1.183605670928955],"min":[-0.19499346613883972,-1.5247383117675781,2.2250738585072014e-308]},{"bufferView":1,"byteOffset":0,"componentType":5126,"count":7976,"type":"VEC2","max":[0.9917794466018677,0.5096502304077148],"min":[2.2250738585072014e-308,2.2250738585072014e-308]},{"bufferView":2,"byteOffset":0,"componentType":5125,"count":33384,"type":"SCALAR","max":[7975],"min":[0]},{"bufferView":3,"byteOffset":0,"componentType":5126,"count":858,"type":"VEC3","max":[-0.10372080653905869,-1.2546017169952393,1.1004561185836792],"min":[-0.1954069882631302,-1.4312686920166016,2.2250738585072014e-308]},{"bufferView":4,"byteOffset":0,"componentType":5126,"count":858,"type":"VEC2","max":[0.7077140808105469,0.9574356079101562],"min":[2.2250738585072014e-308,2.2250738585072014e-308]},{"bufferView":5,"byteOffset":0,"componentType":5125,"count":4353,"type":"SCALAR","max":[857],"min":[0]}],"buffers":[{"byteLength":327628,"uri":"tile_0217.bin"}],"bufferViews":[{"buffer":0,"byteOffset":0,"byteLength":95712,"target":34962},{"buffer":0,"byteOffset":95712,"byteLength":63808,"target":34962},{"buffer":0,"byteOffset":159520,"byteLength":133536,"target":34963},{"buffer":0,"byteOffset":293056,"byteLength":10296,"target":34962},{"buffer":0,"byteOffset":303352,"byteLength":6864,"target":34962},{"buffer":0,"byteOffset":310216,"byteLength":17412,"target":34963}],"images":[{"uri":"../textures/tile_0217_material_0.jpg"},{"uri":"../textures/tile_0217_material_1.jpg"}],"materials":[{"name":"DefaultMaterial","pbrMetallicRoughness":{"baseColorFactor":[0.6000000238418579,0.6000000238418579,0.6000000238418579,1.0],"metallicFactor":0.0},"extensions":{"KHR_materials_specular":{"specularFactor":1.0,"specularColorFactor":[0.0,0.0,0.0]},"KHR_materials_ior":{"ior":1.0}}},{"name":"material_0_material","pbrMetallicRoughness":{"baseColorTexture":{"index":0},"metallicFactor":0.0},"extensions":{"KHR_materials_specular":{"specularFactor":1.0,"specularColorFactor":[0.0,0.0,0.0]},"KHR_materials_ior":{"ior":1.0}}},{"name":"material_1_material","pbrMetallicRoughness":{"baseColorTexture":{"index":1},"metallicFactor":0.0},"extensions":{"KHR_materials_specular":{"specularFactor":1.0,"specularColorFactor":[0.0,0.0,0.0]},"KHR_materials_ior":{"ior":1.0}}}],"meshes":[{"name":"defaultobject","primitives":[{"mode":4,"material":1,"indices":2,"attributes":{"POSITION":0,"TEXCOORD_0":1}},{"mode":4,"material":2,"indices":5,"attributes":{"POSITION":3,"TEXCOORD_0":4}}]}],"nodes":[{"name":"tile_0217.obj","children":[1]},{"name":"defaultobject","mesh":0}],"samplers":[{},{}],"scenes":[{"nodes":[0]}],"textures":[{"source":0,"sampler":0},{"source":1,"sampler":1}],"scene":0}
