{"asset":{"version":"2.0","generator":"Open Asset Import Library (assimp v6.0.0)"},"extensionsUsed":["KHR_materials_specular","KHR_materials_volume","KHR_materials_ior","FB_ngon_encoding"],"accessors":[{"bufferView":0,"byteOffset":0,"componentType":5126,"count":4348,"type":"VEC3","max":[2.6221485137939453,2.376232624053955,1.4770153760910034],"min":[2.2250738585072014e-308,2.2250738585072014e-308,2.2250738585072014e-308]},{"bufferView":1,"byteOffset":0,"componentType":5126,"count":4348,"type":"VEC2","max":[0.9875531196594238,0.5477752685546875],"min":[2.2250738585072014e-308,2.2250738585072014e-308]},{"bufferView":2,"byteOffset":0,"componentType":5125,"count":18480,"type":"SCALAR","max":[4347],"min":[0]},{"bufferView":3,"byteOffset":0,"componentType":5126,"count":739,"type":"VEC3","max":[1.7633551359176636,2.0037782192230225,1.4730225801467896],"min":[2.2250738585072014e-308,2.2250738585072014e-308,2.2250738585072014e-308]},{"bufferView":4,"byteOffset":0,"componentType":5126,"count":739,"type":"VEC2","max":[0.6747713088989258,0.5100421905517578],"min":[2.2250738585072014e-308,2.2250738585072014e-308]},{"bufferView":5,"byteOffset":0,"componentType":5125,"count":3807,"type":"SCALAR","max":[738],"min":[0]}],"buffers":[{"byteLength":190888,"uri":"tile_0570.bin"}],"bufferViews":[{"buffer":0,"byteOffset":0,"byteLength":52176,"target":34962},{"buffer":0,"byteOffset":52176,"byteLength":34784,"target":34962},{"buffer":0,"byteOffset":86960,"byteLength":73920,"target":34963},{"buffer":0,"byteOffset":160880,"byteLength":8868,"target":34962},{"buffer":0,"byteOffset":169748,"byteLength":5912,"target":34962},{"buffer":0,"byteOffset":175660,"byteLength":15228,"target":34963}],"images":[{"uri":"../textures/tile_0570_material_0.jpg"},{"uri":"../textures/tile_0570_material_1.jpg"}],"materials":[{"name":"DefaultMaterial","pbrMetallicRoughness":{"baseColorFactor":[0.6000000238418579,0.6000000238418579,0.6000000238418579,1.0],"metallicFactor":0.0},"extensions":{"KHR_materials_specular":{"specularFactor":1.0,"specularColorFactor":[0.0,0.0,0.0]},"KHR_materials_ior":{"ior":1.0}}},{"name":"material_0_material","pbrMetallicRoughness":{"baseColorTexture":{"index":0},"metallicFactor":0.0},"extensions":{"KHR_materials_specular":{"specularFactor":1.0,"specularColorFactor":[0.0,0.0,0.0]},"KHR_materials_ior":{"ior":1.0}}},{"name":"material_1_material","pbrMetallicRoughness":{"baseColorTexture":{"index":1},"metallicFactor":0.0},"extensions":{"KHR_materials_specular":{"specularFactor":1.0,"specularColorFactor":[0.0,0.0,0.0]},"KHR_materials_ior":{"ior":1.0}}}],"meshes":[{"name":"defaultobject","primitives":[{"mode":4,"material":1,"indices":2,"attributes":{"POSITION":0,"TEXCOORD_0":1}},{"mode":4,"material":2,"indices":5,"attributes":{"POSITION":3,"TEXCOORD_0":4}}]}],"nodes":[{"name":"tile_0570.obj","children":[1]},{"name":"defaultobject","mesh":0}],"samplers":[{},{}],"scenes":[{"nodes":[0]}],"textures":[{"source":0,"sampler":0},{"source":1,"sampler":1}],"scene":0}
