{"asset":{"version":"2.0","generator":"Open Asset Import Library (assimp v6.0.0)"},"extensionsUsed":["KHR_materials_specular","KHR_materials_volume","KHR_materials_ior","FB_ngon_encoding"],"accessors":[{"bufferView":0,"byteOffset":0,"componentType":5126,"count":3465,"type":"VEC3","max":[2.754385471343994,1.8066240549087524,1.3577672243118286],"min":[2.2250738585072014e-308,2.2250738585072014e-308,2.2250738585072014e-308]},{"bufferView":1,"byteOffset":0,"componentType":5126,"count":3465,"type":"VEC2","max":[0.9872093200683594,0.5222434997558594],"min":[2.2250738585072014e-308,2.2250738585072014e-308]},{"bufferView":2,"byteOffset":0,"componentType":5125,"count":15450,"type":"SCALAR","max":[3464],"min":[0]},{"bufferView":3,"byteOffset":0,"componentType":5126,"count":429,"type":"VEC3","max":[2.474648952484131,1.8090875148773193,1.354943871498108],"min":[2.2250738585072014e-308,2.2250738585072014e-308,2.2250738585072014e-308]},{"bufferView":4,"byteOffset":0,"componentType":5126,"count":429,"type":"VEC2","max":[0.6902713775634766,0.6127815246582031],"min":[2.2250738585072014e-308,2.2250738585072014e-308]},{"bufferView":5,"byteOffset":0,"componentType":5125,"count":1827,"type":"SCALAR","max":[428],"min":[0]}],"buffers":[{"byteLength":146988,"uri":"tile_0127.bin"}],"bufferViews":[{"buffer":0,"byteOffset":0,"byteLength":41580,"target":34962},{"buffer":0,"byteOffset":41580,"byteLength":27720,"target":34962},{"buffer":0,"byteOffset":69300,"byteLength":61800,"target":34963},{"buffer":0,"byteOffset":131100,"byteLength":5148,"target":34962},{"buffer":0,"byteOffset":136248,"byteLength":3432,"target":34962},{"buffer":0,"byteOffset":139680,"byteLength":7308,"target":34963}],"images":[{"uri":"../textures/tile_0127_material_0.jpg"},{"uri":"../textures/tile_0127_material_1.jpg"}],"materials":[{"name":"DefaultMaterial","pbrMetallicRoughness":{"baseColorFactor":[0.6000000238418579,0.6000000238418579,0.6000000238418579,1.0],"metallicFactor":0.0},"extensions":{"KHR_materials_specular":{"specularFactor":1.0,"specularColorFactor":[0.0,0.0,0.0]},"KHR_materials_ior":{"ior":1.0}}},{"name":"material_0_material","pbrMetallicRoughness":{"baseColorTexture":{"index":0},"metallicFactor":0.0},"extensions":{"KHR_materials_specular":{"specularFactor":1.0,"specularColorFactor":[0.0,0.0,0.0]},"KHR_materials_ior":{"ior":1.0}}},{"name":"material_1_material","pbrMetallicRoughness":{"baseColorTexture":{"index":1},"metallicFactor":0.0},"extensions":{"KHR_materials_specular":{"specularFactor":1.0,"specularColorFactor":[0.0,0.0,0.0]},"KHR_materials_ior":{"ior":1.0}}}],"meshes":[{"name":"defaultobject","primitives":[{"mode":4,"material":1,"indices":2,"attributes":{"POSITION":0,"TEXCOORD_0":1}},{"mode":4,"material":2,"indices":5,"attributes":{"POSITION":3,"TEXCOORD_0":4}}]}],"nodes":[{"name":"tile_0127.obj","children":[1]},{"name":"defaultobject","mesh":0}],"samplers":[{},{}],"scenes":[{"nodes":[0]}],"textures":[{"source":0,"sampler":0},{"source":1,"sampler":1}],"scene":0}
