{"asset":{"version":"2.0","generator":"Open Asset Import Library (assimp v6.0.0)"},"extensionsUsed":["KHR_materials_specular","KHR_materials_volume","KHR_materials_ior","FB_ngon_encoding"],"accessors":[{"bufferView":0,"byteOffset":0,"componentType":5126,"count":1957,"type":"VEC3","max":[2.081606388092041,3.355783224105835,2.342789888381958],"min":[2.2250738585072014e-308,2.2250738585072014e-308,2.2250738585072014e-308]},{"bufferView":1,"byteOffset":0,"componentType":5126,"count":1957,"type":"VEC2","max":[0.9828500747680664,0.87353515625],"min":[2.2250738585072014e-308,2.2250738585072014e-308]},{"bufferView":2,"byteOffset":0,"componentType":5125,"count":8877,"type":"SCALAR","max":[1956],"min":[0]},{"bufferView":3,"byteOffset":0,"componentType":5126,"count":2097,"type":"VEC3","max":[2.094034433364868,3.35807728767395,2.349287986755371],"min":[2.2250738585072014e-308,2.2250738585072014e-308,2.2250738585072014e-308]},{"bufferView":4,"byteOffset":0,"componentType":5126,"count":2097,"type":"VEC2","max":[0.8415355682373047,0.7361984252929688],"min":[2.2250738585072014e-308,2.2250738585072014e-308]},{"bufferView":5,"byteOffset":0,"componentType":5125,"count":10803,"type":"SCALAR","max":[2096],"min":[0]}],"buffers":[{"byteLength":159800,"uri":"tile_0580.bin"}],"bufferViews":[{"buffer":0,"byteOffset":0,"byteLength":23484,"target":34962},{"buffer":0,"byteOffset":23484,"byteLength":15656,"target":34962},{"buffer":0,"byteOffset":39140,"byteLength":35508,"target":34963},{"buffer":0,"byteOffset":74648,"byteLength":25164,"target":34962},{"buffer":0,"byteOffset":99812,"byteLength":16776,"target":34962},{"buffer":0,"byteOffset":116588,"byteLength":43212,"target":34963}],"images":[{"uri":"../textures/tile_0580_material_0.jpg"},{"uri":"../textures/tile_0580_material_1.jpg"}],"materials":[{"name":"DefaultMaterial","pbrMetallicRoughness":{"baseColorFactor":[0.6000000238418579,0.6000000238418579,0.6000000238418579,1.0],"metallicFactor":0.0},"extensions":{"KHR_materials_specular":{"specularFactor":1.0,"specularColorFactor":[0.0,0.0,0.0]},"KHR_materials_ior":{"ior":1.0}}},{"name":"material_0_material","pbrMetallicRoughness":{"baseColorTexture":{"index":0},"metallicFactor":0.0},"extensions":{"KHR_materials_specular":{"specularFactor":1.0,"specularColorFactor":[0.0,0.0,0.0]},"KHR_materials_ior":{"ior":1.0}}},{"name":"material_1_material","pbrMetallicRoughness":{"baseColorTexture":{"index":1},"metallicFactor":0.0},"extensions":{"KHR_materials_specular":{"specularFactor":1.0,"specularColorFactor":[0.0,0.0,0.0]},"KHR_materials_ior":{"ior":1.0}}}],"meshes":[{"name":"defaultobject","primitives":[{"mode":4,"material":1,"indices":2,"attributes":{"POSITION":0,"TEXCOORD_0":1}},{"mode":4,"material":2,"indices":5,"attributes":{"POSITION":3,"TEXCOORD_0":4}}]}],"nodes":[{"name":"tile_0580.obj","children":[1]},{"name":"defaultobject","mesh":0}],"samplers":[{},{}],"scenes":[{"nodes":[0]}],"textures":[{"source":0,"sampler":0},{"source":1,"sampler":1}],"scene":0}
