{"asset":{"version":"2.0","generator":"Open Asset Import Library (assimp v6.0.0)"},"extensionsUsed":["KHR_materials_specular","KHR_materials_volume","KHR_materials_ior","FB_ngon_encoding"],"accessors":[{"bufferView":0,"byteOffset":0,"componentType":5126,"count":6839,"type":"VEC3","max":[3.1773555278778076,1.582801103591919,0.7195585370063782],"min":[2.2250738585072014e-308,2.2250738585072014e-308,2.2250738585072014e-308]},{"bufferView":1,"byteOffset":0,"componentType":5126,"count":6839,"type":"VEC2","max":[0.9929323196411133,0.7413406372070312],"min":[2.2250738585072014e-308,2.2250738585072014e-308]},{"bufferView":2,"byteOffset":0,"componentType":5125,"count":30342,"type":"SCALAR","max":[6838],"min":[0]},{"bufferView":3,"byteOffset":0,"componentType":5126,"count":800,"type":"VEC3","max":[2.926767587661743,1.5803335905075073,0.7195585370063782],"min":[2.2250738585072014e-308,2.2250738585072014e-308,2.2250738585072014e-308]},{"bufferView":4,"byteOffset":0,"componentType":5126,"count":800,"type":"VEC2","max":[0.6650896072387695,0.5776329040527344],"min":[2.2250738585072014e-308,2.2250738585072014e-308]},{"bufferView":5,"byteOffset":0,"componentType":5125,"count":3843,"type":"SCALAR","max":[799],"min":[0]}],"buffers":[{"byteLength":289520,"uri":"tile_0512.bin"}],"bufferViews":[{"buffer":0,"byteOffset":0,"byteLength":82068,"target":34962},{"buffer":0,"byteOffset":82068,"byteLength":54712,"target":34962},{"buffer":0,"byteOffset":136780,"byteLength":121368,"target":34963},{"buffer":0,"byteOffset":258148,"byteLength":9600,"target":34962},{"buffer":0,"byteOffset":267748,"byteLength":6400,"target":34962},{"buffer":0,"byteOffset":274148,"byteLength":15372,"target":34963}],"images":[{"uri":"../textures/tile_0512_material_0.jpg"},{"uri":"../textures/tile_0512_material_1.jpg"}],"materials":[{"name":"DefaultMaterial","pbrMetallicRoughness":{"baseColorFactor":[0.6000000238418579,0.6000000238418579,0.6000000238418579,1.0],"metallicFactor":0.0},"extensions":{"KHR_materials_specular":{"specularFactor":1.0,"specularColorFactor":[0.0,0.0,0.0]},"KHR_materials_ior":{"ior":1.0}}},{"name":"material_0_material","pbrMetallicRoughness":{"baseColorTexture":{"index":0},"metallicFactor":0.0},"extensions":{"KHR_materials_specular":{"specularFactor":1.0,"specularColorFactor":[0.0,0.0,0.0]},"KHR_materials_ior":{"ior":1.0}}},{"name":"material_1_material","pbrMetallicRoughness":{"baseColorTexture":{"index":1},"metallicFactor":0.0},"extensions":{"KHR_materials_specular":{"specularFactor":1.0,"specularColorFactor":[0.0,0.0,0.0]},"KHR_materials_ior":{"ior":1.0}}}],"meshes":[{"name":"defaultobject","primitives":[{"mode":4,"material":1,"indices":2,"attributes":{"POSITION":0,"TEXCOORD_0":1}},{"mode":4,"material":2,"indices":5,"attributes":{"POSITION":3,"TEXCOORD_0":4}}]}],"nodes":[{"name":"tile_0512.obj","children":[1]},{"name":"defaultobject","mesh":0}],"samplers":[{},{}],"scenes":[{"nodes":[0]}],"textures":[{"source":0,"sampler":0},{"source":1,"sampler":1}],"scene":0}
