{"asset":{"version":"2.0","generator":"Open Asset Import Library (assimp v6.0.0)"},"extensionsUsed":["KHR_materials_specular","KHR_materials_volume","KHR_materials_ior","FB_ngon_encoding"],"accessors":[{"bufferView":0,"byteOffset":0,"componentType":5126,"count":4197,"type":"VEC3","max":[2.86679744720459,1.8257519006729126,1.1550226211547852],"min":[2.2250738585072014e-308,2.2250738585072014e-308,2.2250738585072014e-308]},{"bufferView":1,"byteOffset":0,"componentType":5126,"count":4197,"type":"VEC2","max":[0.9885244369506836,0.4920063018798828],"min":[2.2250738585072014e-308,2.2250738585072014e-308]},{"bufferView":2,"byteOffset":0,"componentType":5125,"count":17823,"type":"SCALAR","max":[4196],"min":[0]},{"bufferView":3,"byteOffset":0,"componentType":5126,"count":547,"type":"VEC3","max":[1.4461296796798706,1.812493085861206,1.151168704032898],"min":[2.2250738585072014e-308,2.2250738585072014e-308,2.2250738585072014e-308]},{"bufferView":4,"byteOffset":0,"componentType":5126,"count":547,"type":"VEC2","max":[0.6647109985351562,0.6803245544433594],"min":[2.2250738585072014e-308,2.2250738585072014e-308]},{"bufferView":5,"byteOffset":0,"componentType":5125,"count":2769,"type":"SCALAR","max":[546],"min":[0]}],"buffers":[{"byteLength":177248,"uri":"tile_0560.bin"}],"bufferViews":[{"buffer":0,"byteOffset":0,"byteLength":50364,"target":34962},{"buffer":0,"byteOffset":50364,"byteLength":33576,"target":34962},{"buffer":0,"byteOffset":83940,"byteLength":71292,"target":34963},{"buffer":0,"byteOffset":155232,"byteLength":6564,"target":34962},{"buffer":0,"byteOffset":161796,"byteLength":4376,"target":34962},{"buffer":0,"byteOffset":166172,"byteLength":11076,"target":34963}],"images":[{"uri":"../textures/tile_0560_material_0.jpg"},{"uri":"../textures/tile_0560_material_1.jpg"}],"materials":[{"name":"DefaultMaterial","pbrMetallicRoughness":{"baseColorFactor":[0.6000000238418579,0.6000000238418579,0.6000000238418579,1.0],"metallicFactor":0.0},"extensions":{"KHR_materials_specular":{"specularFactor":1.0,"specularColorFactor":[0.0,0.0,0.0]},"KHR_materials_ior":{"ior":1.0}}},{"name":"material_0_material","pbrMetallicRoughness":{"baseColorTexture":{"index":0},"metallicFactor":0.0},"extensions":{"KHR_materials_specular":{"specularFactor":1.0,"specularColorFactor":[0.0,0.0,0.0]},"KHR_materials_ior":{"ior":1.0}}},{"name":"material_1_material","pbrMetallicRoughness":{"baseColorTexture":{"index":1},"metallicFactor":0.0},"extensions":{"KHR_materials_specular":{"specularFactor":1.0,"specularColorFactor":[0.0,0.0,0.0]},"KHR_materials_ior":{"ior":1.0}}}],"meshes":[{"name":"defaultobject","primitives":[{"mode":4,"material":1,"indices":2,"attributes":{"POSITION":0,"TEXCOORD_0":1}},{"mode":4,"material":2,"indices":5,"attributes":{"POSITION":3,"TEXCOORD_0":4}}]}],"nodes":[{"name":"tile_0560.obj","children":[1]},{"name":"defaultobject","mesh":0}],"samplers":[{},{}],"scenes":[{"nodes":[0]}],"textures":[{"source":0,"sampler":0},{"source":1,"sampler":1}],"scene":0}
