{"asset":{"version":"2.0","generator":"Open Asset Import Library (assimp v6.0.0)"},"extensionsUsed":["KHR_materials_specular","KHR_materials_volume","KHR_materials_ior","FB_ngon_encoding"],"accessors":[{"bufferView":0,"byteOffset":0,"componentType":5126,"count":3852,"type":"VEC3","max":[2.2910377979278564,-2.6523141860961914,1.1371840238571167],"min":[2.2250738585072014e-308,-2.9531009197235107,2.2250738585072014e-308]},{"bufferView":1,"byteOffset":0,"componentType":5126,"count":3852,"type":"VEC2","max":[0.9922212362289429,0.9530029296875],"min":[2.2250738585072014e-308,2.2250738585072014e-308]},{"bufferView":2,"byteOffset":0,"componentType":5125,"count":15015,"type":"SCALAR","max":[3851],"min":[0]},{"bufferView":3,"byteOffset":0,"componentType":5126,"count":646,"type":"VEC3","max":[0.9636453986167908,-2.652733087539673,1.1308070421218872],"min":[2.2250738585072014e-308,-2.9511072635650635,2.2250738585072014e-308]},{"bufferView":4,"byteOffset":0,"componentType":5126,"count":646,"type":"VEC2","max":[0.4882831573486328,0.5676651000976562],"min":[2.2250738585072014e-308,2.2250738585072014e-308]},{"bufferView":5,"byteOffset":0,"componentType":5125,"count":2964,"type":"SCALAR","max":[645],"min":[0]}],"buffers":[{"byteLength":161876,"uri":"tile_0247.bin"}],"bufferViews":[{"buffer":0,"byteOffset":0,"byteLength":46224,"target":34962},{"buffer":0,"byteOffset":46224,"byteLength":30816,"target":34962},{"buffer":0,"byteOffset":77040,"byteLength":60060,"target":34963},{"buffer":0,"byteOffset":137100,"byteLength":7752,"target":34962},{"buffer":0,"byteOffset":144852,"byteLength":5168,"target":34962},{"buffer":0,"byteOffset":150020,"byteLength":11856,"target":34963}],"images":[{"uri":"../textures/tile_0247_material_0.jpg"},{"uri":"../textures/tile_0247_material_1.jpg"}],"materials":[{"name":"DefaultMaterial","pbrMetallicRoughness":{"baseColorFactor":[0.6000000238418579,0.6000000238418579,0.6000000238418579,1.0],"metallicFactor":0.0},"extensions":{"KHR_materials_specular":{"specularFactor":1.0,"specularColorFactor":[0.0,0.0,0.0]},"KHR_materials_ior":{"ior":1.0}}},{"name":"material_0_material","pbrMetallicRoughness":{"baseColorTexture":{"index":0},"metallicFactor":0.0},"extensions":{"KHR_materials_specular":{"specularFactor":1.0,"specularColorFactor":[0.0,0.0,0.0]},"KHR_materials_ior":{"ior":1.0}}},{"name":"material_1_material","pbrMetallicRoughness":{"baseColorTexture":{"index":1},"metallicFactor":0.0},"extensions":{"KHR_materials_specular":{"specularFactor":1.0,"specularColorFactor":[0.0,0.0,0.0]},"KHR_materials_ior":{"ior":1.0}}}],"meshes":[{"name":"defaultobject","primitives":[{"mode":4,"material":1,"indices":2,"attributes":{"POSITION":0,"TEXCOORD_0":1}},{"mode":4,"material":2,"indices":5,"attributes":{"POSITION":3,"TEXCOORD_0":4}}]}],"nodes":[{"name":"tile_0247.obj","children":[1]},{"name":"defaultobject","mesh":0}],"samplers":[{},{}],"scenes":[{"nodes":[0]}],"textures":[{"source":0,"sampler":0},{"source":1,"sampler":1}],"scene":0}
