{"asset":{"version":"2.0","generator":"Open Asset Import Library (assimp v6.0.0)"},"extensionsUsed":["KHR_materials_specular","KHR_materials_volume","KHR_materials_ior","FB_ngon_encoding"],"accessors":[{"bufferView":0,"byteOffset":0,"componentType":5126,"count":3860,"type":"VEC3","max":[0.9287142157554626,0.04463338479399681,3.613377094268799],"min":[2.2250738585072014e-308,-0.10927941650152206,2.2250738585072014e-308]},{"bufferView":1,"byteOffset":0,"componentType":5126,"count":3860,"type":"VEC2","max":[0.992884635925293,0.7571220397949219],"min":[2.2250738585072014e-308,2.2250738585072014e-308]},{"bufferView":2,"byteOffset":0,"componentType":5125,"count":17574,"type":"SCALAR","max":[3859],"min":[0]},{"bufferView":3,"byteOffset":0,"componentType":5126,"count":149,"type":"VEC3","max":[0.7538602352142334,0.03981116786599159,3.578589916229248],"min":[2.2250738585072014e-308,-0.019541317597031593,2.2250738585072014e-308]},{"bufferView":4,"byteOffset":0,"componentType":5126,"count":149,"type":"VEC2","max":[0.9426918029785156,0.5398788452148438],"min":[2.2250738585072014e-308,2.2250738585072014e-308]},{"bufferView":5,"byteOffset":0,"componentType":5125,"count":687,"type":"SCALAR","max":[148],"min":[0]}],"buffers":[{"byteLength":153224,"uri":"tile_0427.bin"}],"bufferViews":[{"buffer":0,"byteOffset":0,"byteLength":46320,"target":34962},{"buffer":0,"byteOffset":46320,"byteLength":30880,"target":34962},{"buffer":0,"byteOffset":77200,"byteLength":70296,"target":34963},{"buffer":0,"byteOffset":147496,"byteLength":1788,"target":34962},{"buffer":0,"byteOffset":149284,"byteLength":1192,"target":34962},{"buffer":0,"byteOffset":150476,"byteLength":2748,"target":34963}],"images":[{"uri":"../textures/tile_0427_material_0.jpg"},{"uri":"../textures/tile_0427_material_1.jpg"}],"materials":[{"name":"DefaultMaterial","pbrMetallicRoughness":{"baseColorFactor":[0.6000000238418579,0.6000000238418579,0.6000000238418579,1.0],"metallicFactor":0.0},"extensions":{"KHR_materials_specular":{"specularFactor":1.0,"specularColorFactor":[0.0,0.0,0.0]},"KHR_materials_ior":{"ior":1.0}}},{"name":"material_0_material","pbrMetallicRoughness":{"baseColorTexture":{"index":0},"metallicFactor":0.0},"extensions":{"KHR_materials_specular":{"specularFactor":1.0,"specularColorFactor":[0.0,0.0,0.0]},"KHR_materials_ior":{"ior":1.0}}},{"name":"material_1_material","pbrMetallicRoughness":{"baseColorTexture":{"index":1},"metallicFactor":0.0},"extensions":{"KHR_materials_specular":{"specularFactor":1.0,"specularColorFactor":[0.0,0.0,0.0]},"KHR_materials_ior":{"ior":1.0}}}],"meshes":[{"name":"defaultobject","primitives":[{"mode":4,"material":1,"indices":2,"attributes":{"POSITION":0,"TEXCOORD_0":1}},{"mode":4,"material":2,"indices":5,"attributes":{"POSITION":3,"TEXCOORD_0":4}}]}],"nodes":[{"name":"tile_0427.obj","children":[1]},{"name":"defaultobject","mesh":0}],"samplers":[{},{}],"scenes":[{"nodes":[0]}],"textures":[{"source":0,"sampler":0},{"source":1,"sampler":1}],"scene":0}
