{"asset":{"version":"2.0","generator":"Open Asset Import Library (assimp v6.0.0)"},"extensionsUsed":["KHR_materials_specular","KHR_materials_volume","KHR_materials_ior","FB_ngon_encoding"],"accessors":[{"bufferView":0,"byteOffset":0,"componentType":5126,"count":7657,"type":"VEC3","max":[2.67592453956604,-0.6143038868904114,0.9170889854431152],"min":[-0.11715427786111832,-0.8497506380081177,2.2250738585072014e-308]},{"bufferView":1,"byteOffset":0,"componentType":5126,"count":7657,"type":"VEC2","max":[0.9915311336517334,0.49596691131591797],"min":[2.2250738585072014e-308,2.2250738585072014e-308]},{"bufferView":2,"byteOffset":0,"componentType":5125,"count":31986,"type":"SCALAR","max":[7656],"min":[0]},{"bufferView":3,"byteOffset":0,"componentType":5126,"count":1715,"type":"VEC3","max":[2.574108123779297,-0.6316903233528137,0.9069857597351074],"min":[-0.01634700782597065,-0.8489837646484375,2.2250738585072014e-308]},{"bufferView":4,"byteOffset":0,"componentType":5126,"count":1715,"type":"VEC2","max":[0.7752730846405029,0.5574207305908203],"min":[2.2250738585072014e-308,2.2250738585072014e-308]},{"bufferView":5,"byteOffset":0,"componentType":5125,"count":8892,"type":"SCALAR","max":[1714],"min":[0]}],"buffers":[{"byteLength":350952,"uri":"tile_0466.bin"}],"bufferViews":[{"buffer":0,"byteOffset":0,"byteLength":91884,"target":34962},{"buffer":0,"byteOffset":91884,"byteLength":61256,"target":34962},{"buffer":0,"byteOffset":153140,"byteLength":127944,"target":34963},{"buffer":0,"byteOffset":281084,"byteLength":20580,"target":34962},{"buffer":0,"byteOffset":301664,"byteLength":13720,"target":34962},{"buffer":0,"byteOffset":315384,"byteLength":35568,"target":34963}],"images":[{"uri":"../textures/tile_0466_material_0.jpg"},{"uri":"../textures/tile_0466_material_1.jpg"}],"materials":[{"name":"DefaultMaterial","pbrMetallicRoughness":{"baseColorFactor":[0.6000000238418579,0.6000000238418579,0.6000000238418579,1.0],"metallicFactor":0.0},"extensions":{"KHR_materials_specular":{"specularFactor":1.0,"specularColorFactor":[0.0,0.0,0.0]},"KHR_materials_ior":{"ior":1.0}}},{"name":"material_0_material","pbrMetallicRoughness":{"baseColorTexture":{"index":0},"metallicFactor":0.0},"extensions":{"KHR_materials_specular":{"specularFactor":1.0,"specularColorFactor":[0.0,0.0,0.0]},"KHR_materials_ior":{"ior":1.0}}},{"name":"material_1_material","pbrMetallicRoughness":{"baseColorTexture":{"index":1},"metallicFactor":0.0},"extensions":{"KHR_materials_specular":{"specularFactor":1.0,"specularColorFactor":[0.0,0.0,0.0]},"KHR_materials_ior":{"ior":1.0}}}],"meshes":[{"name":"defaultobject","primitives":[{"mode":4,"material":1,"indices":2,"attributes":{"POSITION":0,"TEXCOORD_0":1}},{"mode":4,"material":2,"indices":5,"attributes":{"POSITION":3,"TEXCOORD_0":4}}]}],"nodes":[{"name":"tile_0466.obj","children":[1]},{"name":"defaultobject","mesh":0}],"samplers":[{},{}],"scenes":[{"nodes":[0]}],"textures":[{"source":0,"sampler":0},{"source":1,"sampler":1}],"scene":0}
