{"asset":{"version":"2.0","generator":"Open Asset Import Library (assimp v6.0.0)"},"extensionsUsed":["KHR_materials_specular","KHR_materials_volume","KHR_materials_ior","FB_ngon_encoding"],"accessors":[{"bufferView":0,"byteOffset":0,"componentType":5126,"count":5092,"type":"VEC3","max":[2.104156732559204,-2.5249147415161133,1.3509907722473145],"min":[2.2250738585072014e-308,-2.6639456748962402,2.2250738585072014e-308]},{"bufferView":1,"byteOffset":0,"componentType":5126,"count":5092,"type":"VEC2","max":[0.9955723881721497,0.7257575988769531],"min":[2.2250738585072014e-308,2.2250738585072014e-308]},{"bufferView":2,"byteOffset":0,"componentType":5125,"count":21582,"type":"SCALAR","max":[5091],"min":[0]},{"bufferView":3,"byteOffset":0,"componentType":5126,"count":523,"type":"VEC3","max":[1.59267258644104,-2.5282657146453857,1.3498146533966064],"min":[2.2250738585072014e-308,-2.657010078430176,2.2250738585072014e-308]},{"bufferView":4,"byteOffset":0,"componentType":5126,"count":523,"type":"VEC2","max":[0.507800817489624,0.66094970703125],"min":[2.2250738585072014e-308,2.2250738585072014e-308]},{"bufferView":5,"byteOffset":0,"componentType":5125,"count":2469,"type":"SCALAR","max":[522],"min":[0]}],"buffers":[{"byteLength":208504,"uri":"tile_0252.bin"}],"bufferViews":[{"buffer":0,"byteOffset":0,"byteLength":61104,"target":34962},{"buffer":0,"byteOffset":61104,"byteLength":40736,"target":34962},{"buffer":0,"byteOffset":101840,"byteLength":86328,"target":34963},{"buffer":0,"byteOffset":188168,"byteLength":6276,"target":34962},{"buffer":0,"byteOffset":194444,"byteLength":4184,"target":34962},{"buffer":0,"byteOffset":198628,"byteLength":9876,"target":34963}],"images":[{"uri":"../textures/tile_0252_material_0.jpg"},{"uri":"../textures/tile_0252_material_1.jpg"}],"materials":[{"name":"DefaultMaterial","pbrMetallicRoughness":{"baseColorFactor":[0.6000000238418579,0.6000000238418579,0.6000000238418579,1.0],"metallicFactor":0.0},"extensions":{"KHR_materials_specular":{"specularFactor":1.0,"specularColorFactor":[0.0,0.0,0.0]},"KHR_materials_ior":{"ior":1.0}}},{"name":"material_0_material","pbrMetallicRoughness":{"baseColorTexture":{"index":0},"metallicFactor":0.0},"extensions":{"KHR_materials_specular":{"specularFactor":1.0,"specularColorFactor":[0.0,0.0,0.0]},"KHR_materials_ior":{"ior":1.0}}},{"name":"material_1_material","pbrMetallicRoughness":{"baseColorTexture":{"index":1},"metallicFactor":0.0},"extensions":{"KHR_materials_specular":{"specularFactor":1.0,"specularColorFactor":[0.0,0.0,0.0]},"KHR_materials_ior":{"ior":1.0}}}],"meshes":[{"name":"defaultobject","primitives":[{"mode":4,"material":1,"indices":2,"attributes":{"POSITION":0,"TEXCOORD_0":1}},{"mode":4,"material":2,"indices":5,"attributes":{"POSITION":3,"TEXCOORD_0":4}}]}],"nodes":[{"name":"tile_0252.obj","children":[1]},{"name":"defaultobject","mesh":0}],"samplers":[{},{}],"scenes":[{"nodes":[0]}],"textures":[{"source":0,"sampler":0},{"source":1,"sampler":1}],"scene":0}
