{"asset":{"version":"2.0","generator":"Open Asset Import Library (assimp v6.0.0)"},"extensionsUsed":["KHR_materials_specular","KHR_materials_volume","KHR_materials_ior","FB_ngon_encoding"],"accessors":[{"bufferView":0,"byteOffset":0,"componentType":5126,"count":4957,"type":"VEC3","max":[2.1526150703430176,-0.42682668566703796,1.4292871952056885],"min":[2.2250738585072014e-308,-0.5971783995628357,2.2250738585072014e-308]},{"bufferView":1,"byteOffset":0,"componentType":5126,"count":4957,"type":"VEC2","max":[0.9936270713806152,0.519500732421875],"min":[2.2250738585072014e-308,2.2250738585072014e-308]},{"bufferView":2,"byteOffset":0,"componentType":5125,"count":18366,"type":"SCALAR","max":[4956],"min":[0]},{"bufferView":3,"byteOffset":0,"componentType":5126,"count":800,"type":"VEC3","max":[0.26449206471443176,-0.4367486536502838,1.4093456268310547],"min":[2.2250738585072014e-308,-0.5738552808761597,2.2250738585072014e-308]},{"bufferView":4,"byteOffset":0,"componentType":5126,"count":800,"type":"VEC2","max":[0.5962958335876465,0.8347206115722656],"min":[2.2250738585072014e-308,2.2250738585072014e-308]},{"bufferView":5,"byteOffset":0,"componentType":5125,"count":3717,"type":"SCALAR","max":[799],"min":[0]}],"buffers":[{"byteLength":203472,"uri":"tile_0476.bin"}],"bufferViews":[{"buffer":0,"byteOffset":0,"byteLength":59484,"target":34962},{"buffer":0,"byteOffset":59484,"byteLength":39656,"target":34962},{"buffer":0,"byteOffset":99140,"byteLength":73464,"target":34963},{"buffer":0,"byteOffset":172604,"byteLength":9600,"target":34962},{"buffer":0,"byteOffset":182204,"byteLength":6400,"target":34962},{"buffer":0,"byteOffset":188604,"byteLength":14868,"target":34963}],"images":[{"uri":"../textures/tile_0476_material_0.jpg"},{"uri":"../textures/tile_0476_material_1.jpg"}],"materials":[{"name":"DefaultMaterial","pbrMetallicRoughness":{"baseColorFactor":[0.6000000238418579,0.6000000238418579,0.6000000238418579,1.0],"metallicFactor":0.0},"extensions":{"KHR_materials_specular":{"specularFactor":1.0,"specularColorFactor":[0.0,0.0,0.0]},"KHR_materials_ior":{"ior":1.0}}},{"name":"material_0_material","pbrMetallicRoughness":{"baseColorTexture":{"index":0},"metallicFactor":0.0},"extensions":{"KHR_materials_specular":{"specularFactor":1.0,"specularColorFactor":[0.0,0.0,0.0]},"KHR_materials_ior":{"ior":1.0}}},{"name":"material_1_material","pbrMetallicRoughness":{"baseColorTexture":{"index":1},"metallicFactor":0.0},"extensions":{"KHR_materials_specular":{"specularFactor":1.0,"specularColorFactor":[0.0,0.0,0.0]},"KHR_materials_ior":{"ior":1.0}}}],"meshes":[{"name":"defaultobject","primitives":[{"mode":4,"material":1,"indices":2,"attributes":{"POSITION":0,"TEXCOORD_0":1}},{"mode":4,"material":2,"indices":5,"attributes":{"POSITION":3,"TEXCOORD_0":4}}]}],"nodes":[{"name":"tile_0476.obj","children":[1]},{"name":"defaultobject","mesh":0}],"samplers":[{},{}],"scenes":[{"nodes":[0]}],"textures":[{"source":0,"sampler":0},{"source":1,"sampler":1}],"scene":0}
