{"asset":{"version":"2.0","generator":"Open Asset Import Library (assimp v6.0.0)"},"extensionsUsed":["KHR_materials_specular","KHR_materials_volume","KHR_materials_ior","FB_ngon_encoding"],"accessors":[{"bufferView":0,"byteOffset":0,"componentType":5126,"count":4041,"type":"VEC3","max":[-0.3682617247104645,-1.3655635118484497,2.055267810821533],"min":[-0.4390365481376648,-1.5791268348693848,2.2250738585072014e-308]},{"bufferView":1,"byteOffset":0,"componentType":5126,"count":4041,"type":"VEC2","max":[0.9901165962219238,0.9605827331542969],"min":[2.2250738585072014e-308,2.2250738585072014e-308]},{"bufferView":2,"byteOffset":0,"componentType":5125,"count":16986,"type":"SCALAR","max":[4040],"min":[0]},{"bufferView":3,"byteOffset":0,"componentType":5126,"count":282,"type":"VEC3","max":[-0.366279661655426,-1.4712879657745361,2.0545458793640137],"min":[-0.4304153621196747,-1.5787276029586792,2.2250738585072014e-308]},{"bufferView":4,"byteOffset":0,"componentType":5126,"count":282,"type":"VEC2","max":[0.5693912506103516,0.691314697265625],"min":[2.2250738585072014e-308,2.2250738585072014e-308]},{"bufferView":5,"byteOffset":0,"componentType":5125,"count":1128,"type":"SCALAR","max":[281],"min":[0]}],"buffers":[{"byteLength":158916,"uri":"tile_0388.bin"}],"bufferViews":[{"buffer":0,"byteOffset":0,"byteLength":48492,"target":34962},{"buffer":0,"byteOffset":48492,"byteLength":32328,"target":34962},{"buffer":0,"byteOffset":80820,"byteLength":67944,"target":34963},{"buffer":0,"byteOffset":148764,"byteLength":3384,"target":34962},{"buffer":0,"byteOffset":152148,"byteLength":2256,"target":34962},{"buffer":0,"byteOffset":154404,"byteLength":4512,"target":34963}],"images":[{"uri":"../textures/tile_0388_material_0.jpg"},{"uri":"../textures/tile_0388_material_1.jpg"}],"materials":[{"name":"DefaultMaterial","pbrMetallicRoughness":{"baseColorFactor":[0.6000000238418579,0.6000000238418579,0.6000000238418579,1.0],"metallicFactor":0.0},"extensions":{"KHR_materials_specular":{"specularFactor":1.0,"specularColorFactor":[0.0,0.0,0.0]},"KHR_materials_ior":{"ior":1.0}}},{"name":"material_0_material","pbrMetallicRoughness":{"baseColorTexture":{"index":0},"metallicFactor":0.0},"extensions":{"KHR_materials_specular":{"specularFactor":1.0,"specularColorFactor":[0.0,0.0,0.0]},"KHR_materials_ior":{"ior":1.0}}},{"name":"material_1_material","pbrMetallicRoughness":{"baseColorTexture":{"index":1},"metallicFactor":0.0},"extensions":{"KHR_materials_specular":{"specularFactor":1.0,"specularColorFactor":[0.0,0.0,0.0]},"KHR_materials_ior":{"ior":1.0}}}],"meshes":[{"name":"defaultobject","primitives":[{"mode":4,"material":1,"indices":2,"attributes":{"POSITION":0,"TEXCOORD_0":1}},{"mode":4,"material":2,"indices":5,"attributes":{"POSITION":3,"TEXCOORD_0":4}}]}],"nodes":[{"name":"tile_0388.obj","children":[1]},{"name":"defaultobject","mesh":0}],"samplers":[{},{}],"scenes":[{"nodes":[0]}],"textures":[{"source":0,"sampler":0},{"source":1,"sampler":1}],"scene":0}
