{"asset":{"version":"2.0","generator":"Open Asset Import Library (assimp v6.0.0)"},"extensionsUsed":["KHR_materials_specular","KHR_materials_volume","KHR_materials_ior","FB_ngon_encoding"],"accessors":[{"bufferView":0,"byteOffset":0,"componentType":5126,"count":5055,"type":"VEC3","max":[2.5936479568481445,1.9177647829055786,1.4798719882965088],"min":[2.2250738585072014e-308,2.2250738585072014e-308,2.2250738585072014e-308]},{"bufferView":1,"byteOffset":0,"componentType":5126,"count":5055,"type":"VEC2","max":[0.9931201934814453,0.5973911285400391],"min":[2.2250738585072014e-308,2.2250738585072014e-308]},{"bufferView":2,"byteOffset":0,"componentType":5125,"count":21852,"type":"SCALAR","max":[5054],"min":[0]},{"bufferView":3,"byteOffset":0,"componentType":5126,"count":832,"type":"VEC3","max":[1.9082459211349487,1.9139821529388428,1.479382038116455],"min":[2.2250738585072014e-308,2.2250738585072014e-308,2.2250738585072014e-308]},{"bufferView":4,"byteOffset":0,"componentType":5126,"count":832,"type":"VEC2","max":[0.7668819427490234,0.5196914672851562],"min":[2.2250738585072014e-308,2.2250738585072014e-308]},{"bufferView":5,"byteOffset":0,"componentType":5125,"count":3939,"type":"SCALAR","max":[831],"min":[0]}],"buffers":[{"byteLength":220904,"uri":"tile_0574.bin"}],"bufferViews":[{"buffer":0,"byteOffset":0,"byteLength":60660,"target":34962},{"buffer":0,"byteOffset":60660,"byteLength":40440,"target":34962},{"buffer":0,"byteOffset":101100,"byteLength":87408,"target":34963},{"buffer":0,"byteOffset":188508,"byteLength":9984,"target":34962},{"buffer":0,"byteOffset":198492,"byteLength":6656,"target":34962},{"buffer":0,"byteOffset":205148,"byteLength":15756,"target":34963}],"images":[{"uri":"../textures/tile_0574_material_0.jpg"},{"uri":"../textures/tile_0574_material_1.jpg"}],"materials":[{"name":"DefaultMaterial","pbrMetallicRoughness":{"baseColorFactor":[0.6000000238418579,0.6000000238418579,0.6000000238418579,1.0],"metallicFactor":0.0},"extensions":{"KHR_materials_specular":{"specularFactor":1.0,"specularColorFactor":[0.0,0.0,0.0]},"KHR_materials_ior":{"ior":1.0}}},{"name":"material_0_material","pbrMetallicRoughness":{"baseColorTexture":{"index":0},"metallicFactor":0.0},"extensions":{"KHR_materials_specular":{"specularFactor":1.0,"specularColorFactor":[0.0,0.0,0.0]},"KHR_materials_ior":{"ior":1.0}}},{"name":"material_1_material","pbrMetallicRoughness":{"baseColorTexture":{"index":1},"metallicFactor":0.0},"extensions":{"KHR_materials_specular":{"specularFactor":1.0,"specularColorFactor":[0.0,0.0,0.0]},"KHR_materials_ior":{"ior":1.0}}}],"meshes":[{"name":"defaultobject","primitives":[{"mode":4,"material":1,"indices":2,"attributes":{"POSITION":0,"TEXCOORD_0":1}},{"mode":4,"material":2,"indices":5,"attributes":{"POSITION":3,"TEXCOORD_0":4}}]}],"nodes":[{"name":"tile_0574.obj","children":[1]},{"name":"defaultobject","mesh":0}],"samplers":[{},{}],"scenes":[{"nodes":[0]}],"textures":[{"source":0,"sampler":0},{"source":1,"sampler":1}],"scene":0}
