{"asset":{"version":"2.0","generator":"Open Asset Import Library (assimp v6.0.0)"},"extensionsUsed":["KHR_materials_specular","KHR_materials_volume","KHR_materials_ior","FB_ngon_encoding"],"accessors":[{"bufferView":0,"byteOffset":0,"componentType":5126,"count":4761,"type":"VEC3","max":[0.6812328696250916,-2.7700955867767334,2.6897192001342773],"min":[2.2250738585072014e-308,-2.940434217453003,2.2250738585072014e-308]},{"bufferView":1,"byteOffset":0,"componentType":5126,"count":4761,"type":"VEC2","max":[0.9893779754638672,0.9763374328613281],"min":[2.2250738585072014e-308,2.2250738585072014e-308]},{"bufferView":2,"byteOffset":0,"componentType":5125,"count":20274,"type":"SCALAR","max":[4760],"min":[0]},{"bufferView":3,"byteOffset":0,"componentType":5126,"count":633,"type":"VEC3","max":[0.1503058671951294,-2.7720680236816406,2.6883108615875244],"min":[2.2250738585072014e-308,-2.9076478481292725,2.2250738585072014e-308]},{"bufferView":4,"byteOffset":0,"componentType":5126,"count":633,"type":"VEC2","max":[0.8607177734375,0.8787460327148438],"min":[2.2250738585072014e-308,2.2250738585072014e-308]},{"bufferView":5,"byteOffset":0,"componentType":5125,"count":2760,"type":"SCALAR","max":[632],"min":[0]}],"buffers":[{"byteLength":200016,"uri":"tile_0343.bin"}],"bufferViews":[{"buffer":0,"byteOffset":0,"byteLength":57132,"target":34962},{"buffer":0,"byteOffset":57132,"byteLength":38088,"target":34962},{"buffer":0,"byteOffset":95220,"byteLength":81096,"target":34963},{"buffer":0,"byteOffset":176316,"byteLength":7596,"target":34962},{"buffer":0,"byteOffset":183912,"byteLength":5064,"target":34962},{"buffer":0,"byteOffset":188976,"byteLength":11040,"target":34963}],"images":[{"uri":"../textures/tile_0343_material_0.jpg"},{"uri":"../textures/tile_0343_material_1.jpg"}],"materials":[{"name":"DefaultMaterial","pbrMetallicRoughness":{"baseColorFactor":[0.6000000238418579,0.6000000238418579,0.6000000238418579,1.0],"metallicFactor":0.0},"extensions":{"KHR_materials_specular":{"specularFactor":1.0,"specularColorFactor":[0.0,0.0,0.0]},"KHR_materials_ior":{"ior":1.0}}},{"name":"material_0_material","pbrMetallicRoughness":{"baseColorTexture":{"index":0},"metallicFactor":0.0},"extensions":{"KHR_materials_specular":{"specularFactor":1.0,"specularColorFactor":[0.0,0.0,0.0]},"KHR_materials_ior":{"ior":1.0}}},{"name":"material_1_material","pbrMetallicRoughness":{"baseColorTexture":{"index":1},"metallicFactor":0.0},"extensions":{"KHR_materials_specular":{"specularFactor":1.0,"specularColorFactor":[0.0,0.0,0.0]},"KHR_materials_ior":{"ior":1.0}}}],"meshes":[{"name":"defaultobject","primitives":[{"mode":4,"material":1,"indices":2,"attributes":{"POSITION":0,"TEXCOORD_0":1}},{"mode":4,"material":2,"indices":5,"attributes":{"POSITION":3,"TEXCOORD_0":4}}]}],"nodes":[{"name":"tile_0343.obj","children":[1]},{"name":"defaultobject","mesh":0}],"samplers":[{},{}],"scenes":[{"nodes":[0]}],"textures":[{"source":0,"sampler":0},{"source":1,"sampler":1}],"scene":0}
