{"asset":{"version":"2.0","generator":"Open Asset Import Library (assimp v6.0.0)"},"extensionsUsed":["KHR_materials_specular","KHR_materials_volume","KHR_materials_ior","FB_ngon_encoding"],"accessors":[{"bufferView":0,"byteOffset":0,"componentType":5126,"count":5079,"type":"VEC3","max":[2.294360399246216,1.4823182821273804,1.7636231184005737],"min":[2.2250738585072014e-308,2.2250738585072014e-308,2.2250738585072014e-308]},{"bufferView":1,"byteOffset":0,"componentType":5126,"count":5079,"type":"VEC2","max":[0.9936504364013672,0.6557064056396484],"min":[2.2250738585072014e-308,2.2250738585072014e-308]},{"bufferView":2,"byteOffset":0,"componentType":5125,"count":23526,"type":"SCALAR","max":[5078],"min":[0]},{"bufferView":3,"byteOffset":0,"componentType":5126,"count":427,"type":"VEC3","max":[2.249732255935669,1.4678404331207275,1.7645082473754883],"min":[2.2250738585072014e-308,2.2250738585072014e-308,2.2250738585072014e-308]},{"bufferView":4,"byteOffset":0,"componentType":5126,"count":427,"type":"VEC2","max":[0.8095779418945312,0.8253326416015625],"min":[2.2250738585072014e-308,2.2250738585072014e-308]},{"bufferView":5,"byteOffset":0,"componentType":5125,"count":2178,"type":"SCALAR","max":[426],"min":[0]}],"buffers":[{"byteLength":212936,"uri":"tile_0439.bin"}],"bufferViews":[{"buffer":0,"byteOffset":0,"byteLength":60948,"target":34962},{"buffer":0,"byteOffset":60948,"byteLength":40632,"target":34962},{"buffer":0,"byteOffset":101580,"byteLength":94104,"target":34963},{"buffer":0,"byteOffset":195684,"byteLength":5124,"target":34962},{"buffer":0,"byteOffset":200808,"byteLength":3416,"target":34962},{"buffer":0,"byteOffset":204224,"byteLength":8712,"target":34963}],"images":[{"uri":"../textures/tile_0439_material_0.jpg"},{"uri":"../textures/tile_0439_material_1.jpg"}],"materials":[{"name":"DefaultMaterial","pbrMetallicRoughness":{"baseColorFactor":[0.6000000238418579,0.6000000238418579,0.6000000238418579,1.0],"metallicFactor":0.0},"extensions":{"KHR_materials_specular":{"specularFactor":1.0,"specularColorFactor":[0.0,0.0,0.0]},"KHR_materials_ior":{"ior":1.0}}},{"name":"material_0_material","pbrMetallicRoughness":{"baseColorTexture":{"index":0},"metallicFactor":0.0},"extensions":{"KHR_materials_specular":{"specularFactor":1.0,"specularColorFactor":[0.0,0.0,0.0]},"KHR_materials_ior":{"ior":1.0}}},{"name":"material_1_material","pbrMetallicRoughness":{"baseColorTexture":{"index":1},"metallicFactor":0.0},"extensions":{"KHR_materials_specular":{"specularFactor":1.0,"specularColorFactor":[0.0,0.0,0.0]},"KHR_materials_ior":{"ior":1.0}}}],"meshes":[{"name":"defaultobject","primitives":[{"mode":4,"material":1,"indices":2,"attributes":{"POSITION":0,"TEXCOORD_0":1}},{"mode":4,"material":2,"indices":5,"attributes":{"POSITION":3,"TEXCOORD_0":4}}]}],"nodes":[{"name":"tile_0439.obj","children":[1]},{"name":"defaultobject","mesh":0}],"samplers":[{},{}],"scenes":[{"nodes":[0]}],"textures":[{"source":0,"sampler":0},{"source":1,"sampler":1}],"scene":0}
