{"asset":{"version":"2.0","generator":"Open Asset Import Library (assimp v6.0.0)"},"extensionsUsed":["KHR_materials_specular","KHR_materials_volume","KHR_materials_ior","FB_ngon_encoding"],"accessors":[{"bufferView":0,"byteOffset":0,"componentType":5126,"count":2585,"type":"VEC3","max":[0.6097901463508606,-0.06738293170928955,4.7125244140625],"min":[-0.5409480333328247,-0.23256947100162506,2.2250738585072014e-308]},{"bufferView":1,"byteOffset":0,"componentType":5126,"count":2585,"type":"VEC2","max":[0.9795041084289551,0.5468006134033203],"min":[2.2250738585072014e-308,2.2250738585072014e-308]},{"bufferView":2,"byteOffset":0,"componentType":5125,"count":11109,"type":"SCALAR","max":[2584],"min":[0]},{"bufferView":3,"byteOffset":0,"componentType":5126,"count":1496,"type":"VEC3","max":[0.49629178643226624,-0.08180676400661469,4.418522357940674],"min":[-0.08159194886684418,-0.22343121469020844,2.2250738585072014e-308]},{"bufferView":4,"byteOffset":0,"componentType":5126,"count":1496,"type":"VEC2","max":[0.6819734573364258,0.6503429412841797],"min":[2.2250738585072014e-308,2.2250738585072014e-308]},{"bufferView":5,"byteOffset":0,"componentType":5125,"count":7152,"type":"SCALAR","max":[1495],"min":[0]}],"buffers":[{"byteLength":154664,"uri":"tile_0415.bin"}],"bufferViews":[{"buffer":0,"byteOffset":0,"byteLength":31020,"target":34962},{"buffer":0,"byteOffset":31020,"byteLength":20680,"target":34962},{"buffer":0,"byteOffset":51700,"byteLength":44436,"target":34963},{"buffer":0,"byteOffset":96136,"byteLength":17952,"target":34962},{"buffer":0,"byteOffset":114088,"byteLength":11968,"target":34962},{"buffer":0,"byteOffset":126056,"byteLength":28608,"target":34963}],"images":[{"uri":"../textures/tile_0415_material_0.jpg"},{"uri":"../textures/tile_0415_material_1.jpg"}],"materials":[{"name":"DefaultMaterial","pbrMetallicRoughness":{"baseColorFactor":[0.6000000238418579,0.6000000238418579,0.6000000238418579,1.0],"metallicFactor":0.0},"extensions":{"KHR_materials_specular":{"specularFactor":1.0,"specularColorFactor":[0.0,0.0,0.0]},"KHR_materials_ior":{"ior":1.0}}},{"name":"material_0_material","pbrMetallicRoughness":{"baseColorTexture":{"index":0},"metallicFactor":0.0},"extensions":{"KHR_materials_specular":{"specularFactor":1.0,"specularColorFactor":[0.0,0.0,0.0]},"KHR_materials_ior":{"ior":1.0}}},{"name":"material_1_material","pbrMetallicRoughness":{"baseColorTexture":{"index":1},"metallicFactor":0.0},"extensions":{"KHR_materials_specular":{"specularFactor":1.0,"specularColorFactor":[0.0,0.0,0.0]},"KHR_materials_ior":{"ior":1.0}}}],"meshes":[{"name":"defaultobject","primitives":[{"mode":4,"material":1,"indices":2,"attributes":{"POSITION":0,"TEXCOORD_0":1}},{"mode":4,"material":2,"indices":5,"attributes":{"POSITION":3,"TEXCOORD_0":4}}]}],"nodes":[{"name":"tile_0415.obj","children":[1]},{"name":"defaultobject","mesh":0}],"samplers":[{},{}],"scenes":[{"nodes":[0]}],"textures":[{"source":0,"sampler":0},{"source":1,"sampler":1}],"scene":0}
