{"asset":{"version":"2.0","generator":"Open Asset Import Library (assimp v6.0.0)"},"extensionsUsed":["KHR_materials_specular","KHR_materials_volume","KHR_materials_ior","FB_ngon_encoding"],"accessors":[{"bufferView":0,"byteOffset":0,"componentType":5126,"count":5503,"type":"VEC3","max":[2.3116414546966553,-2.6524031162261963,1.0708177089691162],"min":[2.2250738585072014e-308,-2.9531009197235107,2.2250738585072014e-308]},{"bufferView":1,"byteOffset":0,"componentType":5126,"count":5503,"type":"VEC2","max":[0.9935736656188965,0.5193748474121094],"min":[2.2250738585072014e-308,2.2250738585072014e-308]},{"bufferView":2,"byteOffset":0,"componentType":5125,"count":22266,"type":"SCALAR","max":[5502],"min":[0]},{"bufferView":3,"byteOffset":0,"componentType":5126,"count":685,"type":"VEC3","max":[1.022210955619812,-2.6541433334350586,1.0648621320724487],"min":[2.2250738585072014e-308,-2.9253604412078857,2.2250738585072014e-308]},{"bufferView":4,"byteOffset":0,"componentType":5126,"count":685,"type":"VEC2","max":[0.6309394836425781,0.7588272094726562],"min":[2.2250738585072014e-308,2.2250738585072014e-308]},{"bufferView":5,"byteOffset":0,"componentType":5125,"count":3477,"type":"SCALAR","max":[684],"min":[0]}],"buffers":[{"byteLength":226732,"uri":"tile_0608.bin"}],"bufferViews":[{"buffer":0,"byteOffset":0,"byteLength":66036,"target":34962},{"buffer":0,"byteOffset":66036,"byteLength":44024,"target":34962},{"buffer":0,"byteOffset":110060,"byteLength":89064,"target":34963},{"buffer":0,"byteOffset":199124,"byteLength":8220,"target":34962},{"buffer":0,"byteOffset":207344,"byteLength":5480,"target":34962},{"buffer":0,"byteOffset":212824,"byteLength":13908,"target":34963}],"images":[{"uri":"../textures/tile_0608_material_0.jpg"},{"uri":"../textures/tile_0608_material_1.jpg"}],"materials":[{"name":"DefaultMaterial","pbrMetallicRoughness":{"baseColorFactor":[0.6000000238418579,0.6000000238418579,0.6000000238418579,1.0],"metallicFactor":0.0},"extensions":{"KHR_materials_specular":{"specularFactor":1.0,"specularColorFactor":[0.0,0.0,0.0]},"KHR_materials_ior":{"ior":1.0}}},{"name":"material_0_material","pbrMetallicRoughness":{"baseColorTexture":{"index":0},"metallicFactor":0.0},"extensions":{"KHR_materials_specular":{"specularFactor":1.0,"specularColorFactor":[0.0,0.0,0.0]},"KHR_materials_ior":{"ior":1.0}}},{"name":"material_1_material","pbrMetallicRoughness":{"baseColorTexture":{"index":1},"metallicFactor":0.0},"extensions":{"KHR_materials_specular":{"specularFactor":1.0,"specularColorFactor":[0.0,0.0,0.0]},"KHR_materials_ior":{"ior":1.0}}}],"meshes":[{"name":"defaultobject","primitives":[{"mode":4,"material":1,"indices":2,"attributes":{"POSITION":0,"TEXCOORD_0":1}},{"mode":4,"material":2,"indices":5,"attributes":{"POSITION":3,"TEXCOORD_0":4}}]}],"nodes":[{"name":"tile_0608.obj","children":[1]},{"name":"defaultobject","mesh":0}],"samplers":[{},{}],"scenes":[{"nodes":[0]}],"textures":[{"source":0,"sampler":0},{"source":1,"sampler":1}],"scene":0}
