{"asset":{"version":"2.0","generator":"Open Asset Import Library (assimp v6.0.0)"},"extensionsUsed":["KHR_materials_specular","KHR_materials_volume","KHR_materials_ior","FB_ngon_encoding"],"accessors":[{"bufferView":0,"byteOffset":0,"componentType":5126,"count":12998,"type":"VEC3","max":[2.836728572845459,-0.8366151452064514,0.9158048033714294],"min":[-0.12385964393615723,-1.239699125289917,2.2250738585072014e-308]},{"bufferView":1,"byteOffset":0,"componentType":5126,"count":12998,"type":"VEC2","max":[0.995842456817627,0.7246885299682617],"min":[2.2250738585072014e-308,2.2250738585072014e-308]},{"bufferView":2,"byteOffset":0,"componentType":5125,"count":56124,"type":"SCALAR","max":[12997],"min":[0]},{"bufferView":3,"byteOffset":0,"componentType":5126,"count":329,"type":"VEC3","max":[0.050232887268066406,-0.8393988013267517,0.778388500213623],"min":[-0.12369978427886963,-1.233760952949524,2.2250738585072014e-308]},{"bufferView":4,"byteOffset":0,"componentType":5126,"count":329,"type":"VEC2","max":[0.6285070180892944,0.5584754943847656],"min":[2.2250738585072014e-308,2.2250738585072014e-308]},{"bufferView":5,"byteOffset":0,"componentType":5125,"count":1605,"type":"SCALAR","max":[328],"min":[0]}],"buffers":[{"byteLength":497456,"uri":"tile_0010.bin"}],"bufferViews":[{"buffer":0,"byteOffset":0,"byteLength":155976,"target":34962},{"buffer":0,"byteOffset":155976,"byteLength":103984,"target":34962},{"buffer":0,"byteOffset":259960,"byteLength":224496,"target":34963},{"buffer":0,"byteOffset":484456,"byteLength":3948,"target":34962},{"buffer":0,"byteOffset":488404,"byteLength":2632,"target":34962},{"buffer":0,"byteOffset":491036,"byteLength":6420,"target":34963}],"images":[{"uri":"../textures/tile_0010_material_0.jpg"},{"uri":"../textures/tile_0010_material_1.jpg"}],"materials":[{"name":"DefaultMaterial","pbrMetallicRoughness":{"baseColorFactor":[0.6000000238418579,0.6000000238418579,0.6000000238418579,1.0],"metallicFactor":0.0},"extensions":{"KHR_materials_specular":{"specularFactor":1.0,"specularColorFactor":[0.0,0.0,0.0]},"KHR_materials_ior":{"ior":1.0}}},{"name":"material_0_material","pbrMetallicRoughness":{"baseColorTexture":{"index":0},"metallicFactor":0.0},"extensions":{"KHR_materials_specular":{"specularFactor":1.0,"specularColorFactor":[0.0,0.0,0.0]},"KHR_materials_ior":{"ior":1.0}}},{"name":"material_1_material","pbrMetallicRoughness":{"baseColorTexture":{"index":1},"metallicFactor":0.0},"extensions":{"KHR_materials_specular":{"specularFactor":1.0,"specularColorFactor":[0.0,0.0,0.0]},"KHR_materials_ior":{"ior":1.0}}}],"meshes":[{"name":"defaultobject","primitives":[{"mode":4,"material":1,"indices":2,"attributes":{"POSITION":0,"TEXCOORD_0":1}},{"mode":4,"material":2,"indices":5,"attributes":{"POSITION":3,"TEXCOORD_0":4}}]}],"nodes":[{"name":"tile_0010.obj","children":[1]},{"name":"defaultobject","mesh":0}],"samplers":[{},{}],"scenes":[{"nodes":[0]}],"textures":[{"source":0,"sampler":0},{"source":1,"sampler":1}],"scene":0}
