{"asset":{"version":"2.0","generator":"Open Asset Import Library (assimp v6.0.0)"},"extensionsUsed":["KHR_materials_specular","KHR_materials_volume","KHR_materials_ior","FB_ngon_encoding"],"accessors":[{"bufferView":0,"byteOffset":0,"componentType":5126,"count":5231,"type":"VEC3","max":[3.268559455871582,-0.9639599919319153,0.14992789924144745],"min":[2.2250738585072014e-308,-1.0826890468597412,2.2250738585072014e-308]},{"bufferView":1,"byteOffset":0,"componentType":5126,"count":5231,"type":"VEC2","max":[0.9924712181091309,0.5312271118164062],"min":[2.2250738585072014e-308,2.2250738585072014e-308]},{"bufferView":2,"byteOffset":0,"componentType":5125,"count":19779,"type":"SCALAR","max":[5230],"min":[0]},{"bufferView":3,"byteOffset":0,"componentType":5126,"count":970,"type":"VEC3","max":[0.3808056116104126,-0.9653604030609131,0.1460556536912918],"min":[2.2250738585072014e-308,-1.080044150352478,2.2250738585072014e-308]},{"bufferView":4,"byteOffset":0,"componentType":5126,"count":970,"type":"VEC2","max":[0.6736335754394531,0.8220939636230469],"min":[2.2250738585072014e-308,2.2250738585072014e-308]},{"bufferView":5,"byteOffset":0,"componentType":5125,"count":4536,"type":"SCALAR","max":[969],"min":[0]}],"buffers":[{"byteLength":221280,"uri":"tile_0219.bin"}],"bufferViews":[{"buffer":0,"byteOffset":0,"byteLength":62772,"target":34962},{"buffer":0,"byteOffset":62772,"byteLength":41848,"target":34962},{"buffer":0,"byteOffset":104620,"byteLength":79116,"target":34963},{"buffer":0,"byteOffset":183736,"byteLength":11640,"target":34962},{"buffer":0,"byteOffset":195376,"byteLength":7760,"target":34962},{"buffer":0,"byteOffset":203136,"byteLength":18144,"target":34963}],"images":[{"uri":"../textures/tile_0219_material_0.jpg"},{"uri":"../textures/tile_0219_material_1.jpg"}],"materials":[{"name":"DefaultMaterial","pbrMetallicRoughness":{"baseColorFactor":[0.6000000238418579,0.6000000238418579,0.6000000238418579,1.0],"metallicFactor":0.0},"extensions":{"KHR_materials_specular":{"specularFactor":1.0,"specularColorFactor":[0.0,0.0,0.0]},"KHR_materials_ior":{"ior":1.0}}},{"name":"material_0_material","pbrMetallicRoughness":{"baseColorTexture":{"index":0},"metallicFactor":0.0},"extensions":{"KHR_materials_specular":{"specularFactor":1.0,"specularColorFactor":[0.0,0.0,0.0]},"KHR_materials_ior":{"ior":1.0}}},{"name":"material_1_material","pbrMetallicRoughness":{"baseColorTexture":{"index":1},"metallicFactor":0.0},"extensions":{"KHR_materials_specular":{"specularFactor":1.0,"specularColorFactor":[0.0,0.0,0.0]},"KHR_materials_ior":{"ior":1.0}}}],"meshes":[{"name":"defaultobject","primitives":[{"mode":4,"material":1,"indices":2,"attributes":{"POSITION":0,"TEXCOORD_0":1}},{"mode":4,"material":2,"indices":5,"attributes":{"POSITION":3,"TEXCOORD_0":4}}]}],"nodes":[{"name":"tile_0219.obj","children":[1]},{"name":"defaultobject","mesh":0}],"samplers":[{},{}],"scenes":[{"nodes":[0]}],"textures":[{"source":0,"sampler":0},{"source":1,"sampler":1}],"scene":0}
