{"asset":{"version":"2.0","generator":"Open Asset Import Library (assimp v6.0.0)"},"extensionsUsed":["KHR_materials_specular","KHR_materials_volume","KHR_materials_ior","FB_ngon_encoding"],"accessors":[{"bufferView":0,"byteOffset":0,"componentType":5126,"count":5157,"type":"VEC3","max":[3.3571407794952393,1.3955552577972412,0.47617989778518677],"min":[2.2250738585072014e-308,2.2250738585072014e-308,2.2250738585072014e-308]},{"bufferView":1,"byteOffset":0,"componentType":5126,"count":5157,"type":"VEC2","max":[0.9949841499328613,0.6327133178710938],"min":[2.2250738585072014e-308,2.2250738585072014e-308]},{"bufferView":2,"byteOffset":0,"componentType":5125,"count":23031,"type":"SCALAR","max":[5156],"min":[0]},{"bufferView":3,"byteOffset":0,"componentType":5126,"count":1726,"type":"VEC3","max":[3.194896936416626,1.3936187028884888,0.47694456577301025],"min":[2.2250738585072014e-308,2.2250738585072014e-308,2.2250738585072014e-308]},{"bufferView":4,"byteOffset":0,"componentType":5126,"count":1726,"type":"VEC2","max":[0.6029365062713623,0.6084136962890625],"min":[2.2250738585072014e-308,2.2250738585072014e-308]},{"bufferView":5,"byteOffset":0,"componentType":5125,"count":9111,"type":"SCALAR","max":[1725],"min":[0]}],"buffers":[{"byteLength":266228,"uri":"tile_0098.bin"}],"bufferViews":[{"buffer":0,"byteOffset":0,"byteLength":61884,"target":34962},{"buffer":0,"byteOffset":61884,"byteLength":41256,"target":34962},{"buffer":0,"byteOffset":103140,"byteLength":92124,"target":34963},{"buffer":0,"byteOffset":195264,"byteLength":20712,"target":34962},{"buffer":0,"byteOffset":215976,"byteLength":13808,"target":34962},{"buffer":0,"byteOffset":229784,"byteLength":36444,"target":34963}],"images":[{"uri":"../textures/tile_0098_material_0.jpg"},{"uri":"../textures/tile_0098_material_1.jpg"}],"materials":[{"name":"DefaultMaterial","pbrMetallicRoughness":{"baseColorFactor":[0.6000000238418579,0.6000000238418579,0.6000000238418579,1.0],"metallicFactor":0.0},"extensions":{"KHR_materials_specular":{"specularFactor":1.0,"specularColorFactor":[0.0,0.0,0.0]},"KHR_materials_ior":{"ior":1.0}}},{"name":"material_0_material","pbrMetallicRoughness":{"baseColorTexture":{"index":0},"metallicFactor":0.0},"extensions":{"KHR_materials_specular":{"specularFactor":1.0,"specularColorFactor":[0.0,0.0,0.0]},"KHR_materials_ior":{"ior":1.0}}},{"name":"material_1_material","pbrMetallicRoughness":{"baseColorTexture":{"index":1},"metallicFactor":0.0},"extensions":{"KHR_materials_specular":{"specularFactor":1.0,"specularColorFactor":[0.0,0.0,0.0]},"KHR_materials_ior":{"ior":1.0}}}],"meshes":[{"name":"defaultobject","primitives":[{"mode":4,"material":1,"indices":2,"attributes":{"POSITION":0,"TEXCOORD_0":1}},{"mode":4,"material":2,"indices":5,"attributes":{"POSITION":3,"TEXCOORD_0":4}}]}],"nodes":[{"name":"tile_0098.obj","children":[1]},{"name":"defaultobject","mesh":0}],"samplers":[{},{}],"scenes":[{"nodes":[0]}],"textures":[{"source":0,"sampler":0},{"source":1,"sampler":1}],"scene":0}
