{"asset":{"version":"2.0","generator":"Open Asset Import Library (assimp v6.0.0)"},"extensionsUsed":["KHR_materials_specular","KHR_materials_volume","KHR_materials_ior","FB_ngon_encoding"],"accessors":[{"bufferView":0,"byteOffset":0,"componentType":5126,"count":14363,"type":"VEC3","max":[3.110053300857544,1.7774935960769653,0.8786793351173401],"min":[2.2250738585072014e-308,2.2250738585072014e-308,2.2250738585072014e-308]},{"bufferView":1,"byteOffset":0,"componentType":5126,"count":14363,"type":"VEC2","max":[0.9941816329956055,0.6854896545410156],"min":[2.2250738585072014e-308,2.2250738585072014e-308]},{"bufferView":2,"byteOffset":0,"componentType":5125,"count":62187,"type":"SCALAR","max":[14362],"min":[0]},{"bufferView":3,"byteOffset":0,"componentType":5126,"count":1258,"type":"VEC3","max":[2.8483593463897705,1.6977049112319946,0.8435324430465698],"min":[2.2250738585072014e-308,2.2250738585072014e-308,2.2250738585072014e-308]},{"bufferView":4,"byteOffset":0,"componentType":5126,"count":1258,"type":"VEC2","max":[0.5936686992645264,0.6404228210449219],"min":[2.2250738585072014e-308,2.2250738585072014e-308]},{"bufferView":5,"byteOffset":0,"componentType":5125,"count":5976,"type":"SCALAR","max":[1257],"min":[0]}],"buffers":[{"byteLength":585072,"uri":"tile_0517.bin"}],"bufferViews":[{"buffer":0,"byteOffset":0,"byteLength":172356,"target":34962},{"buffer":0,"byteOffset":172356,"byteLength":114904,"target":34962},{"buffer":0,"byteOffset":287260,"byteLength":248748,"target":34963},{"buffer":0,"byteOffset":536008,"byteLength":15096,"target":34962},{"buffer":0,"byteOffset":551104,"byteLength":10064,"target":34962},{"buffer":0,"byteOffset":561168,"byteLength":23904,"target":34963}],"images":[{"uri":"../textures/tile_0517_material_0.jpg"},{"uri":"../textures/tile_0517_material_1.jpg"}],"materials":[{"name":"DefaultMaterial","pbrMetallicRoughness":{"baseColorFactor":[0.6000000238418579,0.6000000238418579,0.6000000238418579,1.0],"metallicFactor":0.0},"extensions":{"KHR_materials_specular":{"specularFactor":1.0,"specularColorFactor":[0.0,0.0,0.0]},"KHR_materials_ior":{"ior":1.0}}},{"name":"material_0_material","pbrMetallicRoughness":{"baseColorTexture":{"index":0},"metallicFactor":0.0},"extensions":{"KHR_materials_specular":{"specularFactor":1.0,"specularColorFactor":[0.0,0.0,0.0]},"KHR_materials_ior":{"ior":1.0}}},{"name":"material_1_material","pbrMetallicRoughness":{"baseColorTexture":{"index":1},"metallicFactor":0.0},"extensions":{"KHR_materials_specular":{"specularFactor":1.0,"specularColorFactor":[0.0,0.0,0.0]},"KHR_materials_ior":{"ior":1.0}}}],"meshes":[{"name":"defaultobject","primitives":[{"mode":4,"material":1,"indices":2,"attributes":{"POSITION":0,"TEXCOORD_0":1}},{"mode":4,"material":2,"indices":5,"attributes":{"POSITION":3,"TEXCOORD_0":4}}]}],"nodes":[{"name":"tile_0517.obj","children":[1]},{"name":"defaultobject","mesh":0}],"samplers":[{},{}],"scenes":[{"nodes":[0]}],"textures":[{"source":0,"sampler":0},{"source":1,"sampler":1}],"scene":0}
