{"asset":{"version":"2.0","generator":"Open Asset Import Library (assimp v6.0.0)"},"extensionsUsed":["KHR_materials_specular","KHR_materials_volume","KHR_materials_ior","FB_ngon_encoding"],"accessors":[{"bufferView":0,"byteOffset":0,"componentType":5126,"count":5220,"type":"VEC3","max":[3.8265788555145264,0.3478250801563263,-0.13111111521720886],"min":[2.2250738585072014e-308,2.2250738585072014e-308,-0.7699090242385864]},{"bufferView":1,"byteOffset":0,"componentType":5126,"count":5220,"type":"VEC2","max":[0.9928441047668457,0.6244926452636719],"min":[2.2250738585072014e-308,2.2250738585072014e-308]},{"bufferView":2,"byteOffset":0,"componentType":5125,"count":21627,"type":"SCALAR","max":[5219],"min":[0]},{"bufferView":3,"byteOffset":0,"componentType":5126,"count":1183,"type":"VEC3","max":[3.8076670169830322,0.3398481607437134,-0.12980255484580994],"min":[2.2250738585072014e-308,2.2250738585072014e-308,-0.5019016861915588]},{"bufferView":4,"byteOffset":0,"componentType":5126,"count":1183,"type":"VEC2","max":[0.9597415924072266,0.6770668029785156],"min":[2.2250738585072014e-308,2.2250738585072014e-308]},{"bufferView":5,"byteOffset":0,"componentType":5125,"count":5964,"type":"SCALAR","max":[1182],"min":[0]}],"buffers":[{"byteLength":238424,"uri":"tile_0185.bin"}],"bufferViews":[{"buffer":0,"byteOffset":0,"byteLength":62640,"target":34962},{"buffer":0,"byteOffset":62640,"byteLength":41760,"target":34962},{"buffer":0,"byteOffset":104400,"byteLength":86508,"target":34963},{"buffer":0,"byteOffset":190908,"byteLength":14196,"target":34962},{"buffer":0,"byteOffset":205104,"byteLength":9464,"target":34962},{"buffer":0,"byteOffset":214568,"byteLength":23856,"target":34963}],"images":[{"uri":"../textures/tile_0185_material_0.jpg"},{"uri":"../textures/tile_0185_material_1.jpg"}],"materials":[{"name":"DefaultMaterial","pbrMetallicRoughness":{"baseColorFactor":[0.6000000238418579,0.6000000238418579,0.6000000238418579,1.0],"metallicFactor":0.0},"extensions":{"KHR_materials_specular":{"specularFactor":1.0,"specularColorFactor":[0.0,0.0,0.0]},"KHR_materials_ior":{"ior":1.0}}},{"name":"material_0_material","pbrMetallicRoughness":{"baseColorTexture":{"index":0},"metallicFactor":0.0},"extensions":{"KHR_materials_specular":{"specularFactor":1.0,"specularColorFactor":[0.0,0.0,0.0]},"KHR_materials_ior":{"ior":1.0}}},{"name":"material_1_material","pbrMetallicRoughness":{"baseColorTexture":{"index":1},"metallicFactor":0.0},"extensions":{"KHR_materials_specular":{"specularFactor":1.0,"specularColorFactor":[0.0,0.0,0.0]},"KHR_materials_ior":{"ior":1.0}}}],"meshes":[{"name":"defaultobject","primitives":[{"mode":4,"material":1,"indices":2,"attributes":{"POSITION":0,"TEXCOORD_0":1}},{"mode":4,"material":2,"indices":5,"attributes":{"POSITION":3,"TEXCOORD_0":4}}]}],"nodes":[{"name":"tile_0185.obj","children":[1]},{"name":"defaultobject","mesh":0}],"samplers":[{},{}],"scenes":[{"nodes":[0]}],"textures":[{"source":0,"sampler":0},{"source":1,"sampler":1}],"scene":0}
