{"asset":{"version":"2.0","generator":"Open Asset Import Library (assimp v6.0.0)"},"extensionsUsed":["KHR_materials_specular","KHR_materials_volume","KHR_materials_ior","FB_ngon_encoding"],"accessors":[{"bufferView":0,"byteOffset":0,"componentType":5126,"count":7168,"type":"VEC3","max":[3.8249852657318115,1.0216282606124878,-0.026443755254149437],"min":[2.2250738585072014e-308,2.2250738585072014e-308,-0.4551248848438263]},{"bufferView":1,"byteOffset":0,"componentType":5126,"count":7168,"type":"VEC2","max":[0.9945218563079834,0.7929477691650391],"min":[2.2250738585072014e-308,2.2250738585072014e-308]},{"bufferView":2,"byteOffset":0,"componentType":5125,"count":26847,"type":"SCALAR","max":[7167],"min":[0]},{"bufferView":3,"byteOffset":0,"componentType":5126,"count":472,"type":"VEC3","max":[3.828446865081787,1.040860652923584,-0.030227072536945343],"min":[2.2250738585072014e-308,2.2250738585072014e-308,-0.6494331955909729]},{"bufferView":4,"byteOffset":0,"componentType":5126,"count":472,"type":"VEC2","max":[0.6995906829833984,0.7526893615722656],"min":[2.2250738585072014e-308,2.2250738585072014e-308]},{"bufferView":5,"byteOffset":0,"componentType":5125,"count":2328,"type":"SCALAR","max":[471],"min":[0]}],"buffers":[{"byteLength":269500,"uri":"tile_0550.bin"}],"bufferViews":[{"buffer":0,"byteOffset":0,"byteLength":86016,"target":34962},{"buffer":0,"byteOffset":86016,"byteLength":57344,"target":34962},{"buffer":0,"byteOffset":143360,"byteLength":107388,"target":34963},{"buffer":0,"byteOffset":250748,"byteLength":5664,"target":34962},{"buffer":0,"byteOffset":256412,"byteLength":3776,"target":34962},{"buffer":0,"byteOffset":260188,"byteLength":9312,"target":34963}],"images":[{"uri":"../textures/tile_0550_material_0.jpg"},{"uri":"../textures/tile_0550_material_1.jpg"}],"materials":[{"name":"DefaultMaterial","pbrMetallicRoughness":{"baseColorFactor":[0.6000000238418579,0.6000000238418579,0.6000000238418579,1.0],"metallicFactor":0.0},"extensions":{"KHR_materials_specular":{"specularFactor":1.0,"specularColorFactor":[0.0,0.0,0.0]},"KHR_materials_ior":{"ior":1.0}}},{"name":"material_0_material","pbrMetallicRoughness":{"baseColorTexture":{"index":0},"metallicFactor":0.0},"extensions":{"KHR_materials_specular":{"specularFactor":1.0,"specularColorFactor":[0.0,0.0,0.0]},"KHR_materials_ior":{"ior":1.0}}},{"name":"material_1_material","pbrMetallicRoughness":{"baseColorTexture":{"index":1},"metallicFactor":0.0},"extensions":{"KHR_materials_specular":{"specularFactor":1.0,"specularColorFactor":[0.0,0.0,0.0]},"KHR_materials_ior":{"ior":1.0}}}],"meshes":[{"name":"defaultobject","primitives":[{"mode":4,"material":1,"indices":2,"attributes":{"POSITION":0,"TEXCOORD_0":1}},{"mode":4,"material":2,"indices":5,"attributes":{"POSITION":3,"TEXCOORD_0":4}}]}],"nodes":[{"name":"tile_0550.obj","children":[1]},{"name":"defaultobject","mesh":0}],"samplers":[{},{}],"scenes":[{"nodes":[0]}],"textures":[{"source":0,"sampler":0},{"source":1,"sampler":1}],"scene":0}
