{"asset":{"version":"2.0","generator":"Open Asset Import Library (assimp v6.0.0)"},"extensionsUsed":["KHR_materials_specular","KHR_materials_volume","KHR_materials_ior","FB_ngon_encoding"],"accessors":[{"bufferView":0,"byteOffset":0,"componentType":5126,"count":4886,"type":"VEC3","max":[2.6115217208862305,0.11717335134744644,1.291494369506836],"min":[2.2250738585072014e-308,-0.0611141100525856,2.2250738585072014e-308]},{"bufferView":1,"byteOffset":0,"componentType":5126,"count":4886,"type":"VEC2","max":[0.9960129261016846,0.6372222900390625],"min":[2.2250738585072014e-308,2.2250738585072014e-308]},{"bufferView":2,"byteOffset":0,"componentType":5125,"count":20820,"type":"SCALAR","max":[4885],"min":[0]},{"bufferView":3,"byteOffset":0,"componentType":5126,"count":12,"type":"VEC3","max":[0.3529212176799774,0.07746851444244385,1.1544522047042847],"min":[2.2250738585072014e-308,2.2250738585072014e-308,2.2250738585072014e-308]},{"bufferView":4,"byteOffset":0,"componentType":5126,"count":12,"type":"VEC2","max":[0.40849313139915466,0.6766355037689209],"min":[2.2250738585072014e-308,2.2250738585072014e-308]},{"bufferView":5,"byteOffset":0,"componentType":5125,"count":18,"type":"SCALAR","max":[11],"min":[0]}],"buffers":[{"byteLength":181312,"uri":"tile_0450.bin"}],"bufferViews":[{"buffer":0,"byteOffset":0,"byteLength":58632,"target":34962},{"buffer":0,"byteOffset":58632,"byteLength":39088,"target":34962},{"buffer":0,"byteOffset":97720,"byteLength":83280,"target":34963},{"buffer":0,"byteOffset":181000,"byteLength":144,"target":34962},{"buffer":0,"byteOffset":181144,"byteLength":96,"target":34962},{"buffer":0,"byteOffset":181240,"byteLength":72,"target":34963}],"images":[{"uri":"../textures/tile_0450_material_0.jpg"},{"uri":"../textures/tile_0450_material_1.jpg"}],"materials":[{"name":"DefaultMaterial","pbrMetallicRoughness":{"baseColorFactor":[0.6000000238418579,0.6000000238418579,0.6000000238418579,1.0],"metallicFactor":0.0},"extensions":{"KHR_materials_specular":{"specularFactor":1.0,"specularColorFactor":[0.0,0.0,0.0]},"KHR_materials_ior":{"ior":1.0}}},{"name":"material_0_material","pbrMetallicRoughness":{"baseColorTexture":{"index":0},"metallicFactor":0.0},"extensions":{"KHR_materials_specular":{"specularFactor":1.0,"specularColorFactor":[0.0,0.0,0.0]},"KHR_materials_ior":{"ior":1.0}}},{"name":"material_1_material","pbrMetallicRoughness":{"baseColorTexture":{"index":1},"metallicFactor":0.0},"extensions":{"KHR_materials_specular":{"specularFactor":1.0,"specularColorFactor":[0.0,0.0,0.0]},"KHR_materials_ior":{"ior":1.0}}}],"meshes":[{"name":"defaultobject","primitives":[{"mode":4,"material":1,"indices":2,"attributes":{"POSITION":0,"TEXCOORD_0":1}},{"mode":4,"material":2,"indices":5,"attributes":{"POSITION":3,"TEXCOORD_0":4}}]}],"nodes":[{"name":"tile_0450.obj","children":[1]},{"name":"defaultobject","mesh":0}],"samplers":[{},{}],"scenes":[{"nodes":[0]}],"textures":[{"source":0,"sampler":0},{"source":1,"sampler":1}],"scene":0}
