{"asset":{"version":"2.0","generator":"Open Asset Import Library (assimp v6.0.0)"},"extensionsUsed":["KHR_materials_specular","KHR_materials_volume","KHR_materials_ior","FB_ngon_encoding"],"accessors":[{"bufferView":0,"byteOffset":0,"componentType":5126,"count":6088,"type":"VEC3","max":[2.1909005641937256,-2.641716480255127,1.217987060546875],"min":[2.2250738585072014e-308,-3.067338228225708,2.2250738585072014e-308]},{"bufferView":1,"byteOffset":0,"componentType":5126,"count":6088,"type":"VEC2","max":[0.9955010414123535,0.7223606109619141],"min":[2.2250738585072014e-308,2.2250738585072014e-308]},{"bufferView":2,"byteOffset":0,"componentType":5125,"count":23688,"type":"SCALAR","max":[6087],"min":[0]},{"bufferView":3,"byteOffset":0,"componentType":5126,"count":250,"type":"VEC3","max":[1.7826404571533203,-2.6826601028442383,1.2305985689163208],"min":[2.2250738585072014e-308,-3.076721668243408,2.2250738585072014e-308]},{"bufferView":4,"byteOffset":0,"componentType":5126,"count":250,"type":"VEC2","max":[0.7525978088378906,0.5397682189941406],"min":[2.2250738585072014e-308,2.2250738585072014e-308]},{"bufferView":5,"byteOffset":0,"componentType":5125,"count":1074,"type":"SCALAR","max":[249],"min":[0]}],"buffers":[{"byteLength":225808,"uri":"tile_0246.bin"}],"bufferViews":[{"buffer":0,"byteOffset":0,"byteLength":73056,"target":34962},{"buffer":0,"byteOffset":73056,"byteLength":48704,"target":34962},{"buffer":0,"byteOffset":121760,"byteLength":94752,"target":34963},{"buffer":0,"byteOffset":216512,"byteLength":3000,"target":34962},{"buffer":0,"byteOffset":219512,"byteLength":2000,"target":34962},{"buffer":0,"byteOffset":221512,"byteLength":4296,"target":34963}],"images":[{"uri":"../textures/tile_0246_material_0.jpg"},{"uri":"../textures/tile_0246_material_1.jpg"}],"materials":[{"name":"DefaultMaterial","pbrMetallicRoughness":{"baseColorFactor":[0.6000000238418579,0.6000000238418579,0.6000000238418579,1.0],"metallicFactor":0.0},"extensions":{"KHR_materials_specular":{"specularFactor":1.0,"specularColorFactor":[0.0,0.0,0.0]},"KHR_materials_ior":{"ior":1.0}}},{"name":"material_0_material","pbrMetallicRoughness":{"baseColorTexture":{"index":0},"metallicFactor":0.0},"extensions":{"KHR_materials_specular":{"specularFactor":1.0,"specularColorFactor":[0.0,0.0,0.0]},"KHR_materials_ior":{"ior":1.0}}},{"name":"material_1_material","pbrMetallicRoughness":{"baseColorTexture":{"index":1},"metallicFactor":0.0},"extensions":{"KHR_materials_specular":{"specularFactor":1.0,"specularColorFactor":[0.0,0.0,0.0]},"KHR_materials_ior":{"ior":1.0}}}],"meshes":[{"name":"defaultobject","primitives":[{"mode":4,"material":1,"indices":2,"attributes":{"POSITION":0,"TEXCOORD_0":1}},{"mode":4,"material":2,"indices":5,"attributes":{"POSITION":3,"TEXCOORD_0":4}}]}],"nodes":[{"name":"tile_0246.obj","children":[1]},{"name":"defaultobject","mesh":0}],"samplers":[{},{}],"scenes":[{"nodes":[0]}],"textures":[{"source":0,"sampler":0},{"source":1,"sampler":1}],"scene":0}
