{"asset":{"version":"2.0","generator":"Open Asset Import Library (assimp v6.0.0)"},"extensionsUsed":["KHR_materials_specular","KHR_materials_volume","KHR_materials_ior","FB_ngon_encoding"],"accessors":[{"bufferView":0,"byteOffset":0,"componentType":5126,"count":3556,"type":"VEC3","max":[2.1147971153259277,-1.9771196842193604,1.5568182468414307],"min":[-0.08822524547576904,-2.3516604900360107,2.2250738585072014e-308]},{"bufferView":1,"byteOffset":0,"componentType":5126,"count":3556,"type":"VEC2","max":[0.9954937100410461,0.5309848785400391],"min":[2.2250738585072014e-308,2.2250738585072014e-308]},{"bufferView":2,"byteOffset":0,"componentType":5125,"count":13842,"type":"SCALAR","max":[3555],"min":[0]},{"bufferView":3,"byteOffset":0,"componentType":5126,"count":2509,"type":"VEC3","max":[2.1198017597198486,-1.9756728410720825,1.5462690591812134],"min":[-0.0880354717373848,-2.3525993824005127,2.2250738585072014e-308]},{"bufferView":4,"byteOffset":0,"componentType":5126,"count":2509,"type":"VEC2","max":[0.5261602401733398,0.9053325653076172],"min":[2.2250738585072014e-308,2.2250738585072014e-308]},{"bufferView":5,"byteOffset":0,"componentType":5125,"count":12933,"type":"SCALAR","max":[2508],"min":[0]}],"buffers":[{"byteLength":228400,"uri":"tile_0020.bin"}],"bufferViews":[{"buffer":0,"byteOffset":0,"byteLength":42672,"target":34962},{"buffer":0,"byteOffset":42672,"byteLength":28448,"target":34962},{"buffer":0,"byteOffset":71120,"byteLength":55368,"target":34963},{"buffer":0,"byteOffset":126488,"byteLength":30108,"target":34962},{"buffer":0,"byteOffset":156596,"byteLength":20072,"target":34962},{"buffer":0,"byteOffset":176668,"byteLength":51732,"target":34963}],"images":[{"uri":"../textures/tile_0020_material_0.jpg"},{"uri":"../textures/tile_0020_material_1.jpg"}],"materials":[{"name":"DefaultMaterial","pbrMetallicRoughness":{"baseColorFactor":[0.6000000238418579,0.6000000238418579,0.6000000238418579,1.0],"metallicFactor":0.0},"extensions":{"KHR_materials_specular":{"specularFactor":1.0,"specularColorFactor":[0.0,0.0,0.0]},"KHR_materials_ior":{"ior":1.0}}},{"name":"material_0_material","pbrMetallicRoughness":{"baseColorTexture":{"index":0},"metallicFactor":0.0},"extensions":{"KHR_materials_specular":{"specularFactor":1.0,"specularColorFactor":[0.0,0.0,0.0]},"KHR_materials_ior":{"ior":1.0}}},{"name":"material_1_material","pbrMetallicRoughness":{"baseColorTexture":{"index":1},"metallicFactor":0.0},"extensions":{"KHR_materials_specular":{"specularFactor":1.0,"specularColorFactor":[0.0,0.0,0.0]},"KHR_materials_ior":{"ior":1.0}}}],"meshes":[{"name":"defaultobject","primitives":[{"mode":4,"material":1,"indices":2,"attributes":{"POSITION":0,"TEXCOORD_0":1}},{"mode":4,"material":2,"indices":5,"attributes":{"POSITION":3,"TEXCOORD_0":4}}]}],"nodes":[{"name":"tile_0020.obj","children":[1]},{"name":"defaultobject","mesh":0}],"samplers":[{},{}],"scenes":[{"nodes":[0]}],"textures":[{"source":0,"sampler":0},{"source":1,"sampler":1}],"scene":0}
