{"asset":{"version":"2.0","generator":"Open Asset Import Library (assimp v6.0.0)"},"extensionsUsed":["KHR_materials_specular","KHR_materials_volume","KHR_materials_ior","FB_ngon_encoding"],"accessors":[{"bufferView":0,"byteOffset":0,"componentType":5126,"count":4738,"type":"VEC3","max":[0.599274754524231,-2.3642847537994385,3.651094913482666],"min":[2.2250738585072014e-308,-2.5801243782043457,2.2250738585072014e-308]},{"bufferView":1,"byteOffset":0,"componentType":5126,"count":4738,"type":"VEC2","max":[0.9930281639099121,0.7454566955566406],"min":[2.2250738585072014e-308,2.2250738585072014e-308]},{"bufferView":2,"byteOffset":0,"componentType":5125,"count":19806,"type":"SCALAR","max":[4737],"min":[0]},{"bufferView":3,"byteOffset":0,"componentType":5126,"count":1037,"type":"VEC3","max":[0.5920155048370361,-2.3576080799102783,3.6473734378814697],"min":[2.2250738585072014e-308,-2.5815725326538086,2.2250738585072014e-308]},{"bufferView":4,"byteOffset":0,"componentType":5126,"count":1037,"type":"VEC2","max":[0.7937860488891602,0.6280784606933594],"min":[2.2250738585072014e-308,2.2250738585072014e-308]},{"bufferView":5,"byteOffset":0,"componentType":5125,"count":4854,"type":"SCALAR","max":[1036],"min":[0]}],"buffers":[{"byteLength":214140,"uri":"tile_0028.bin"}],"bufferViews":[{"buffer":0,"byteOffset":0,"byteLength":56856,"target":34962},{"buffer":0,"byteOffset":56856,"byteLength":37904,"target":34962},{"buffer":0,"byteOffset":94760,"byteLength":79224,"target":34963},{"buffer":0,"byteOffset":173984,"byteLength":12444,"target":34962},{"buffer":0,"byteOffset":186428,"byteLength":8296,"target":34962},{"buffer":0,"byteOffset":194724,"byteLength":19416,"target":34963}],"images":[{"uri":"../textures/tile_0028_material_0.jpg"},{"uri":"../textures/tile_0028_material_1.jpg"}],"materials":[{"name":"DefaultMaterial","pbrMetallicRoughness":{"baseColorFactor":[0.6000000238418579,0.6000000238418579,0.6000000238418579,1.0],"metallicFactor":0.0},"extensions":{"KHR_materials_specular":{"specularFactor":1.0,"specularColorFactor":[0.0,0.0,0.0]},"KHR_materials_ior":{"ior":1.0}}},{"name":"material_0_material","pbrMetallicRoughness":{"baseColorTexture":{"index":0},"metallicFactor":0.0},"extensions":{"KHR_materials_specular":{"specularFactor":1.0,"specularColorFactor":[0.0,0.0,0.0]},"KHR_materials_ior":{"ior":1.0}}},{"name":"material_1_material","pbrMetallicRoughness":{"baseColorTexture":{"index":1},"metallicFactor":0.0},"extensions":{"KHR_materials_specular":{"specularFactor":1.0,"specularColorFactor":[0.0,0.0,0.0]},"KHR_materials_ior":{"ior":1.0}}}],"meshes":[{"name":"defaultobject","primitives":[{"mode":4,"material":1,"indices":2,"attributes":{"POSITION":0,"TEXCOORD_0":1}},{"mode":4,"material":2,"indices":5,"attributes":{"POSITION":3,"TEXCOORD_0":4}}]}],"nodes":[{"name":"tile_0028.obj","children":[1]},{"name":"defaultobject","mesh":0}],"samplers":[{},{}],"scenes":[{"nodes":[0]}],"textures":[{"source":0,"sampler":0},{"source":1,"sampler":1}],"scene":0}
