{"asset":{"version":"2.0","generator":"Open Asset Import Library (assimp v6.0.0)"},"extensionsUsed":["KHR_materials_specular","KHR_materials_volume","KHR_materials_ior","FB_ngon_encoding"],"accessors":[{"bufferView":0,"byteOffset":0,"componentType":5126,"count":4407,"type":"VEC3","max":[1.8245552778244019,0.44185885787010193,0.8124503493309021],"min":[2.2250738585072014e-308,2.2250738585072014e-308,2.2250738585072014e-308]},{"bufferView":1,"byteOffset":0,"componentType":5126,"count":4407,"type":"VEC2","max":[0.9889540672302246,0.6082649230957031],"min":[2.2250738585072014e-308,2.2250738585072014e-308]},{"bufferView":2,"byteOffset":0,"componentType":5125,"count":19668,"type":"SCALAR","max":[4406],"min":[0]},{"bufferView":3,"byteOffset":0,"componentType":5126,"count":89,"type":"VEC3","max":[1.8892110586166382,0.4157494008541107,0.7717763185501099],"min":[2.2250738585072014e-308,2.2250738585072014e-308,2.2250738585072014e-308]},{"bufferView":4,"byteOffset":0,"componentType":5126,"count":89,"type":"VEC2","max":[0.5973072052001953,0.518218994140625],"min":[2.2250738585072014e-308,2.2250738585072014e-308]},{"bufferView":5,"byteOffset":0,"componentType":5125,"count":219,"type":"SCALAR","max":[88],"min":[0]}],"buffers":[{"byteLength":169468,"uri":"tile_0483.bin"}],"bufferViews":[{"buffer":0,"byteOffset":0,"byteLength":52884,"target":34962},{"buffer":0,"byteOffset":52884,"byteLength":35256,"target":34962},{"buffer":0,"byteOffset":88140,"byteLength":78672,"target":34963},{"buffer":0,"byteOffset":166812,"byteLength":1068,"target":34962},{"buffer":0,"byteOffset":167880,"byteLength":712,"target":34962},{"buffer":0,"byteOffset":168592,"byteLength":876,"target":34963}],"images":[{"uri":"../textures/tile_0483_material_0.jpg"},{"uri":"../textures/tile_0483_material_1.jpg"}],"materials":[{"name":"DefaultMaterial","pbrMetallicRoughness":{"baseColorFactor":[0.6000000238418579,0.6000000238418579,0.6000000238418579,1.0],"metallicFactor":0.0},"extensions":{"KHR_materials_specular":{"specularFactor":1.0,"specularColorFactor":[0.0,0.0,0.0]},"KHR_materials_ior":{"ior":1.0}}},{"name":"material_0_material","pbrMetallicRoughness":{"baseColorTexture":{"index":0},"metallicFactor":0.0},"extensions":{"KHR_materials_specular":{"specularFactor":1.0,"specularColorFactor":[0.0,0.0,0.0]},"KHR_materials_ior":{"ior":1.0}}},{"name":"material_1_material","pbrMetallicRoughness":{"baseColorTexture":{"index":1},"metallicFactor":0.0},"extensions":{"KHR_materials_specular":{"specularFactor":1.0,"specularColorFactor":[0.0,0.0,0.0]},"KHR_materials_ior":{"ior":1.0}}}],"meshes":[{"name":"defaultobject","primitives":[{"mode":4,"material":1,"indices":2,"attributes":{"POSITION":0,"TEXCOORD_0":1}},{"mode":4,"material":2,"indices":5,"attributes":{"POSITION":3,"TEXCOORD_0":4}}]}],"nodes":[{"name":"tile_0483.obj","children":[1]},{"name":"defaultobject","mesh":0}],"samplers":[{},{}],"scenes":[{"nodes":[0]}],"textures":[{"source":0,"sampler":0},{"source":1,"sampler":1}],"scene":0}
