{"asset":{"version":"2.0","generator":"Open Asset Import Library (assimp v6.0.0)"},"extensionsUsed":["KHR_materials_specular","KHR_materials_volume","KHR_materials_ior","FB_ngon_encoding"],"accessors":[{"bufferView":0,"byteOffset":0,"componentType":5126,"count":3371,"type":"VEC3","max":[2.799527883529663,-0.3338435888290405,0.8832564353942871],"min":[2.2250738585072014e-308,-0.4439285695552826,2.2250738585072014e-308]},{"bufferView":1,"byteOffset":0,"componentType":5126,"count":3371,"type":"VEC2","max":[0.9939632415771484,0.8358840942382812],"min":[2.2250738585072014e-308,2.2250738585072014e-308]},{"bufferView":2,"byteOffset":0,"componentType":5125,"count":13014,"type":"SCALAR","max":[3370],"min":[0]},{"bufferView":3,"byteOffset":0,"componentType":5126,"count":2224,"type":"VEC3","max":[0.6234709024429321,-0.334296315908432,0.8819158673286438],"min":[2.2250738585072014e-308,-0.4464159607887268,2.2250738585072014e-308]},{"bufferView":4,"byteOffset":0,"componentType":5126,"count":2224,"type":"VEC2","max":[0.706159234046936,0.5925064086914062],"min":[2.2250738585072014e-308,2.2250738585072014e-308]},{"bufferView":5,"byteOffset":0,"componentType":5125,"count":11466,"type":"SCALAR","max":[2223],"min":[0]}],"buffers":[{"byteLength":209820,"uri":"tile_0594.bin"}],"bufferViews":[{"buffer":0,"byteOffset":0,"byteLength":40452,"target":34962},{"buffer":0,"byteOffset":40452,"byteLength":26968,"target":34962},{"buffer":0,"byteOffset":67420,"byteLength":52056,"target":34963},{"buffer":0,"byteOffset":119476,"byteLength":26688,"target":34962},{"buffer":0,"byteOffset":146164,"byteLength":17792,"target":34962},{"buffer":0,"byteOffset":163956,"byteLength":45864,"target":34963}],"images":[{"uri":"../textures/tile_0594_material_0.jpg"},{"uri":"../textures/tile_0594_material_1.jpg"}],"materials":[{"name":"DefaultMaterial","pbrMetallicRoughness":{"baseColorFactor":[0.6000000238418579,0.6000000238418579,0.6000000238418579,1.0],"metallicFactor":0.0},"extensions":{"KHR_materials_specular":{"specularFactor":1.0,"specularColorFactor":[0.0,0.0,0.0]},"KHR_materials_ior":{"ior":1.0}}},{"name":"material_0_material","pbrMetallicRoughness":{"baseColorTexture":{"index":0},"metallicFactor":0.0},"extensions":{"KHR_materials_specular":{"specularFactor":1.0,"specularColorFactor":[0.0,0.0,0.0]},"KHR_materials_ior":{"ior":1.0}}},{"name":"material_1_material","pbrMetallicRoughness":{"baseColorTexture":{"index":1},"metallicFactor":0.0},"extensions":{"KHR_materials_specular":{"specularFactor":1.0,"specularColorFactor":[0.0,0.0,0.0]},"KHR_materials_ior":{"ior":1.0}}}],"meshes":[{"name":"defaultobject","primitives":[{"mode":4,"material":1,"indices":2,"attributes":{"POSITION":0,"TEXCOORD_0":1}},{"mode":4,"material":2,"indices":5,"attributes":{"POSITION":3,"TEXCOORD_0":4}}]}],"nodes":[{"name":"tile_0594.obj","children":[1]},{"name":"defaultobject","mesh":0}],"samplers":[{},{}],"scenes":[{"nodes":[0]}],"textures":[{"source":0,"sampler":0},{"source":1,"sampler":1}],"scene":0}
