{"asset":{"version":"2.0","generator":"Open Asset Import Library (assimp v6.0.0)"},"extensionsUsed":["KHR_materials_specular","KHR_materials_volume","KHR_materials_ior","FB_ngon_encoding"],"accessors":[{"bufferView":0,"byteOffset":0,"componentType":5126,"count":4899,"type":"VEC3","max":[3.207418203353882,-1.1159201860427856,0.2743057906627655],"min":[2.2250738585072014e-308,-1.3048858642578125,2.2250738585072014e-308]},{"bufferView":1,"byteOffset":0,"componentType":5126,"count":4899,"type":"VEC2","max":[0.9934802055358887,0.608917236328125],"min":[2.2250738585072014e-308,2.2250738585072014e-308]},{"bufferView":2,"byteOffset":0,"componentType":5125,"count":19581,"type":"SCALAR","max":[4898],"min":[0]},{"bufferView":3,"byteOffset":0,"componentType":5126,"count":1183,"type":"VEC3","max":[0.3382566273212433,-1.121370792388916,0.23508580029010773],"min":[2.2250738585072014e-308,-1.2781789302825928,2.2250738585072014e-308]},{"bufferView":4,"byteOffset":0,"componentType":5126,"count":1183,"type":"VEC2","max":[0.6338953971862793,0.9465065002441406],"min":[2.2250738585072014e-308,2.2250738585072014e-308]},{"bufferView":5,"byteOffset":0,"componentType":5125,"count":6024,"type":"SCALAR","max":[1182],"min":[0]}],"buffers":[{"byteLength":224060,"uri":"tile_0225.bin"}],"bufferViews":[{"buffer":0,"byteOffset":0,"byteLength":58788,"target":34962},{"buffer":0,"byteOffset":58788,"byteLength":39192,"target":34962},{"buffer":0,"byteOffset":97980,"byteLength":78324,"target":34963},{"buffer":0,"byteOffset":176304,"byteLength":14196,"target":34962},{"buffer":0,"byteOffset":190500,"byteLength":9464,"target":34962},{"buffer":0,"byteOffset":199964,"byteLength":24096,"target":34963}],"images":[{"uri":"../textures/tile_0225_material_0.jpg"},{"uri":"../textures/tile_0225_material_1.jpg"}],"materials":[{"name":"DefaultMaterial","pbrMetallicRoughness":{"baseColorFactor":[0.6000000238418579,0.6000000238418579,0.6000000238418579,1.0],"metallicFactor":0.0},"extensions":{"KHR_materials_specular":{"specularFactor":1.0,"specularColorFactor":[0.0,0.0,0.0]},"KHR_materials_ior":{"ior":1.0}}},{"name":"material_0_material","pbrMetallicRoughness":{"baseColorTexture":{"index":0},"metallicFactor":0.0},"extensions":{"KHR_materials_specular":{"specularFactor":1.0,"specularColorFactor":[0.0,0.0,0.0]},"KHR_materials_ior":{"ior":1.0}}},{"name":"material_1_material","pbrMetallicRoughness":{"baseColorTexture":{"index":1},"metallicFactor":0.0},"extensions":{"KHR_materials_specular":{"specularFactor":1.0,"specularColorFactor":[0.0,0.0,0.0]},"KHR_materials_ior":{"ior":1.0}}}],"meshes":[{"name":"defaultobject","primitives":[{"mode":4,"material":1,"indices":2,"attributes":{"POSITION":0,"TEXCOORD_0":1}},{"mode":4,"material":2,"indices":5,"attributes":{"POSITION":3,"TEXCOORD_0":4}}]}],"nodes":[{"name":"tile_0225.obj","children":[1]},{"name":"defaultobject","mesh":0}],"samplers":[{},{}],"scenes":[{"nodes":[0]}],"textures":[{"source":0,"sampler":0},{"source":1,"sampler":1}],"scene":0}
