{"asset":{"version":"2.0","generator":"Open Asset Import Library (assimp v6.0.0)"},"extensionsUsed":["KHR_materials_specular","KHR_materials_volume","KHR_materials_ior","FB_ngon_encoding"],"accessors":[{"bufferView":0,"byteOffset":0,"componentType":5126,"count":4166,"type":"VEC3","max":[0.4308915138244629,-1.5522098541259766,2.464252233505249],"min":[-0.034529510885477066,-1.6890840530395508,2.2250738585072014e-308]},{"bufferView":1,"byteOffset":0,"componentType":5126,"count":4166,"type":"VEC2","max":[0.9958353042602539,0.6054534912109375],"min":[2.2250738585072014e-308,2.2250738585072014e-308]},{"bufferView":2,"byteOffset":0,"componentType":5125,"count":18744,"type":"SCALAR","max":[4165],"min":[0]},{"bufferView":3,"byteOffset":0,"componentType":5126,"count":329,"type":"VEC3","max":[0.4244936406612396,-1.5319576263427734,2.463439464569092],"min":[2.2250738585072014e-308,-1.687105655670166,2.2250738585072014e-308]},{"bufferView":4,"byteOffset":0,"componentType":5126,"count":329,"type":"VEC2","max":[0.9605648517608643,0.9589881896972656],"min":[2.2250738585072014e-308,2.2250738585072014e-308]},{"bufferView":5,"byteOffset":0,"componentType":5125,"count":1494,"type":"SCALAR","max":[328],"min":[0]}],"buffers":[{"byteLength":170852,"uri":"tile_0380.bin"}],"bufferViews":[{"buffer":0,"byteOffset":0,"byteLength":49992,"target":34962},{"buffer":0,"byteOffset":49992,"byteLength":33328,"target":34962},{"buffer":0,"byteOffset":83320,"byteLength":74976,"target":34963},{"buffer":0,"byteOffset":158296,"byteLength":3948,"target":34962},{"buffer":0,"byteOffset":162244,"byteLength":2632,"target":34962},{"buffer":0,"byteOffset":164876,"byteLength":5976,"target":34963}],"images":[{"uri":"../textures/tile_0380_material_0.jpg"},{"uri":"../textures/tile_0380_material_1.jpg"}],"materials":[{"name":"DefaultMaterial","pbrMetallicRoughness":{"baseColorFactor":[0.6000000238418579,0.6000000238418579,0.6000000238418579,1.0],"metallicFactor":0.0},"extensions":{"KHR_materials_specular":{"specularFactor":1.0,"specularColorFactor":[0.0,0.0,0.0]},"KHR_materials_ior":{"ior":1.0}}},{"name":"material_0_material","pbrMetallicRoughness":{"baseColorTexture":{"index":0},"metallicFactor":0.0},"extensions":{"KHR_materials_specular":{"specularFactor":1.0,"specularColorFactor":[0.0,0.0,0.0]},"KHR_materials_ior":{"ior":1.0}}},{"name":"material_1_material","pbrMetallicRoughness":{"baseColorTexture":{"index":1},"metallicFactor":0.0},"extensions":{"KHR_materials_specular":{"specularFactor":1.0,"specularColorFactor":[0.0,0.0,0.0]},"KHR_materials_ior":{"ior":1.0}}}],"meshes":[{"name":"defaultobject","primitives":[{"mode":4,"material":1,"indices":2,"attributes":{"POSITION":0,"TEXCOORD_0":1}},{"mode":4,"material":2,"indices":5,"attributes":{"POSITION":3,"TEXCOORD_0":4}}]}],"nodes":[{"name":"tile_0380.obj","children":[1]},{"name":"defaultobject","mesh":0}],"samplers":[{},{}],"scenes":[{"nodes":[0]}],"textures":[{"source":0,"sampler":0},{"source":1,"sampler":1}],"scene":0}
