{"asset":{"version":"2.0","generator":"Open Asset Import Library (assimp v6.0.0)"},"extensionsUsed":["KHR_materials_specular","KHR_materials_volume","KHR_materials_ior","FB_ngon_encoding"],"accessors":[{"bufferView":0,"byteOffset":0,"componentType":5126,"count":4087,"type":"VEC3","max":[1.9013140201568604,-3.2330448627471924,1.5276925563812256],"min":[2.2250738585072014e-308,-4.2151570320129395,2.2250738585072014e-308]},{"bufferView":1,"byteOffset":0,"componentType":5126,"count":4087,"type":"VEC2","max":[0.9937454462051392,0.6444168090820312],"min":[2.2250738585072014e-308,2.2250738585072014e-308]},{"bufferView":2,"byteOffset":0,"componentType":5125,"count":14913,"type":"SCALAR","max":[4086],"min":[0]},{"bufferView":3,"byteOffset":0,"componentType":5126,"count":1882,"type":"VEC3","max":[1.9427217245101929,-3.3627350330352783,1.5562162399291992],"min":[2.2250738585072014e-308,-4.018169403076172,2.2250738585072014e-308]},{"bufferView":4,"byteOffset":0,"componentType":5126,"count":1882,"type":"VEC2","max":[0.6766433715820312,0.7381839752197266],"min":[2.2250738585072014e-308,2.2250738585072014e-308]},{"bufferView":5,"byteOffset":0,"componentType":5125,"count":9189,"type":"SCALAR","max":[1881],"min":[0]}],"buffers":[{"byteLength":215788,"uri":"tile_0157.bin"}],"bufferViews":[{"buffer":0,"byteOffset":0,"byteLength":49044,"target":34962},{"buffer":0,"byteOffset":49044,"byteLength":32696,"target":34962},{"buffer":0,"byteOffset":81740,"byteLength":59652,"target":34963},{"buffer":0,"byteOffset":141392,"byteLength":22584,"target":34962},{"buffer":0,"byteOffset":163976,"byteLength":15056,"target":34962},{"buffer":0,"byteOffset":179032,"byteLength":36756,"target":34963}],"images":[{"uri":"../textures/tile_0157_material_0.jpg"},{"uri":"../textures/tile_0157_material_1.jpg"}],"materials":[{"name":"DefaultMaterial","pbrMetallicRoughness":{"baseColorFactor":[0.6000000238418579,0.6000000238418579,0.6000000238418579,1.0],"metallicFactor":0.0},"extensions":{"KHR_materials_specular":{"specularFactor":1.0,"specularColorFactor":[0.0,0.0,0.0]},"KHR_materials_ior":{"ior":1.0}}},{"name":"material_0_material","pbrMetallicRoughness":{"baseColorTexture":{"index":0},"metallicFactor":0.0},"extensions":{"KHR_materials_specular":{"specularFactor":1.0,"specularColorFactor":[0.0,0.0,0.0]},"KHR_materials_ior":{"ior":1.0}}},{"name":"material_1_material","pbrMetallicRoughness":{"baseColorTexture":{"index":1},"metallicFactor":0.0},"extensions":{"KHR_materials_specular":{"specularFactor":1.0,"specularColorFactor":[0.0,0.0,0.0]},"KHR_materials_ior":{"ior":1.0}}}],"meshes":[{"name":"defaultobject","primitives":[{"mode":4,"material":1,"indices":2,"attributes":{"POSITION":0,"TEXCOORD_0":1}},{"mode":4,"material":2,"indices":5,"attributes":{"POSITION":3,"TEXCOORD_0":4}}]}],"nodes":[{"name":"tile_0157.obj","children":[1]},{"name":"defaultobject","mesh":0}],"samplers":[{},{}],"scenes":[{"nodes":[0]}],"textures":[{"source":0,"sampler":0},{"source":1,"sampler":1}],"scene":0}
