{"asset":{"version":"2.0","generator":"Open Asset Import Library (assimp v6.0.0)"},"extensionsUsed":["KHR_materials_specular","KHR_materials_volume","KHR_materials_ior","FB_ngon_encoding"],"accessors":[{"bufferView":0,"byteOffset":0,"componentType":5126,"count":5512,"type":"VEC3","max":[3.1649720668792725,3.359203338623047,1.0064849853515625],"min":[2.2250738585072014e-308,2.2250738585072014e-308,2.2250738585072014e-308]},{"bufferView":1,"byteOffset":0,"componentType":5126,"count":5512,"type":"VEC2","max":[0.9958763122558594,0.6991825103759766],"min":[2.2250738585072014e-308,2.2250738585072014e-308]},{"bufferView":2,"byteOffset":0,"componentType":5125,"count":23223,"type":"SCALAR","max":[5511],"min":[0]},{"bufferView":3,"byteOffset":0,"componentType":5126,"count":961,"type":"VEC3","max":[3.1550612449645996,3.276824712753296,0.9907285571098328],"min":[2.2250738585072014e-308,2.2250738585072014e-308,2.2250738585072014e-308]},{"bufferView":4,"byteOffset":0,"componentType":5126,"count":961,"type":"VEC2","max":[0.9200420379638672,0.6166458129882812],"min":[2.2250738585072014e-308,2.2250738585072014e-308]},{"bufferView":5,"byteOffset":0,"componentType":5125,"count":4458,"type":"SCALAR","max":[960],"min":[0]}],"buffers":[{"byteLength":240184,"uri":"tile_0552.bin"}],"bufferViews":[{"buffer":0,"byteOffset":0,"byteLength":66144,"target":34962},{"buffer":0,"byteOffset":66144,"byteLength":44096,"target":34962},{"buffer":0,"byteOffset":110240,"byteLength":92892,"target":34963},{"buffer":0,"byteOffset":203132,"byteLength":11532,"target":34962},{"buffer":0,"byteOffset":214664,"byteLength":7688,"target":34962},{"buffer":0,"byteOffset":222352,"byteLength":17832,"target":34963}],"images":[{"uri":"../textures/tile_0552_material_0.jpg"},{"uri":"../textures/tile_0552_material_1.jpg"}],"materials":[{"name":"DefaultMaterial","pbrMetallicRoughness":{"baseColorFactor":[0.6000000238418579,0.6000000238418579,0.6000000238418579,1.0],"metallicFactor":0.0},"extensions":{"KHR_materials_specular":{"specularFactor":1.0,"specularColorFactor":[0.0,0.0,0.0]},"KHR_materials_ior":{"ior":1.0}}},{"name":"material_0_material","pbrMetallicRoughness":{"baseColorTexture":{"index":0},"metallicFactor":0.0},"extensions":{"KHR_materials_specular":{"specularFactor":1.0,"specularColorFactor":[0.0,0.0,0.0]},"KHR_materials_ior":{"ior":1.0}}},{"name":"material_1_material","pbrMetallicRoughness":{"baseColorTexture":{"index":1},"metallicFactor":0.0},"extensions":{"KHR_materials_specular":{"specularFactor":1.0,"specularColorFactor":[0.0,0.0,0.0]},"KHR_materials_ior":{"ior":1.0}}}],"meshes":[{"name":"defaultobject","primitives":[{"mode":4,"material":1,"indices":2,"attributes":{"POSITION":0,"TEXCOORD_0":1}},{"mode":4,"material":2,"indices":5,"attributes":{"POSITION":3,"TEXCOORD_0":4}}]}],"nodes":[{"name":"tile_0552.obj","children":[1]},{"name":"defaultobject","mesh":0}],"samplers":[{},{}],"scenes":[{"nodes":[0]}],"textures":[{"source":0,"sampler":0},{"source":1,"sampler":1}],"scene":0}
