{"asset":{"version":"2.0","generator":"Open Asset Import Library (assimp v6.0.0)"},"extensionsUsed":["KHR_materials_specular","KHR_materials_volume","KHR_materials_ior","FB_ngon_encoding"],"accessors":[{"bufferView":0,"byteOffset":0,"componentType":5126,"count":7946,"type":"VEC3","max":[3.6210238933563232,0.7110244035720825,-0.01335893478244543],"min":[2.2250738585072014e-308,2.2250738585072014e-308,-0.07858192920684814]},{"bufferView":1,"byteOffset":0,"componentType":5126,"count":7946,"type":"VEC2","max":[0.993873119354248,0.82403564453125],"min":[2.2250738585072014e-308,2.2250738585072014e-308]},{"bufferView":2,"byteOffset":0,"componentType":5125,"count":26976,"type":"SCALAR","max":[7945],"min":[0]},{"bufferView":3,"byteOffset":0,"componentType":5126,"count":802,"type":"VEC3","max":[3.0577402114868164,0.7093819975852966,-0.022749362513422966],"min":[2.2250738585072014e-308,2.2250738585072014e-308,-0.07249223440885544]},{"bufferView":4,"byteOffset":0,"componentType":5126,"count":802,"type":"VEC2","max":[0.8255863189697266,0.8130455017089844],"min":[2.2250738585072014e-308,2.2250738585072014e-308]},{"bufferView":5,"byteOffset":0,"componentType":5125,"count":3786,"type":"SCALAR","max":[801],"min":[0]}],"buffers":[{"byteLength":298008,"uri":"tile_0184.bin"}],"bufferViews":[{"buffer":0,"byteOffset":0,"byteLength":95352,"target":34962},{"buffer":0,"byteOffset":95352,"byteLength":63568,"target":34962},{"buffer":0,"byteOffset":158920,"byteLength":107904,"target":34963},{"buffer":0,"byteOffset":266824,"byteLength":9624,"target":34962},{"buffer":0,"byteOffset":276448,"byteLength":6416,"target":34962},{"buffer":0,"byteOffset":282864,"byteLength":15144,"target":34963}],"images":[{"uri":"../textures/tile_0184_material_0.jpg"},{"uri":"../textures/tile_0184_material_1.jpg"}],"materials":[{"name":"DefaultMaterial","pbrMetallicRoughness":{"baseColorFactor":[0.6000000238418579,0.6000000238418579,0.6000000238418579,1.0],"metallicFactor":0.0},"extensions":{"KHR_materials_specular":{"specularFactor":1.0,"specularColorFactor":[0.0,0.0,0.0]},"KHR_materials_ior":{"ior":1.0}}},{"name":"material_0_material","pbrMetallicRoughness":{"baseColorTexture":{"index":0},"metallicFactor":0.0},"extensions":{"KHR_materials_specular":{"specularFactor":1.0,"specularColorFactor":[0.0,0.0,0.0]},"KHR_materials_ior":{"ior":1.0}}},{"name":"material_1_material","pbrMetallicRoughness":{"baseColorTexture":{"index":1},"metallicFactor":0.0},"extensions":{"KHR_materials_specular":{"specularFactor":1.0,"specularColorFactor":[0.0,0.0,0.0]},"KHR_materials_ior":{"ior":1.0}}}],"meshes":[{"name":"defaultobject","primitives":[{"mode":4,"material":1,"indices":2,"attributes":{"POSITION":0,"TEXCOORD_0":1}},{"mode":4,"material":2,"indices":5,"attributes":{"POSITION":3,"TEXCOORD_0":4}}]}],"nodes":[{"name":"tile_0184.obj","children":[1]},{"name":"defaultobject","mesh":0}],"samplers":[{},{}],"scenes":[{"nodes":[0]}],"textures":[{"source":0,"sampler":0},{"source":1,"sampler":1}],"scene":0}
