{"asset":{"version":"2.0","generator":"Open Asset Import Library (assimp v6.0.0)"},"extensionsUsed":["KHR_materials_specular","KHR_materials_volume","KHR_materials_ior","FB_ngon_encoding"],"accessors":[{"bufferView":0,"byteOffset":0,"componentType":5126,"count":2865,"type":"VEC3","max":[1.702648639678955,0.1441405862569809,1.7514393329620361],"min":[-0.019330374896526337,-0.04237677901983261,2.2250738585072014e-308]},{"bufferView":1,"byteOffset":0,"componentType":5126,"count":2865,"type":"VEC2","max":[0.9882049560546875,0.5375537872314453],"min":[2.2250738585072014e-308,2.2250738585072014e-308]},{"bufferView":2,"byteOffset":0,"componentType":5125,"count":12228,"type":"SCALAR","max":[2864],"min":[0]},{"bufferView":3,"byteOffset":0,"componentType":5126,"count":208,"type":"VEC3","max":[1.2114835977554321,0.12948982417583466,1.7098170518875122],"min":[2.2250738585072014e-308,-0.03976994752883911,2.2250738585072014e-308]},{"bufferView":4,"byteOffset":0,"componentType":5126,"count":208,"type":"VEC2","max":[0.7382678985595703,0.6034927368164062],"min":[2.2250738585072014e-308,2.2250738585072014e-308]},{"bufferView":5,"byteOffset":0,"componentType":5125,"count":801,"type":"SCALAR","max":[207],"min":[0]}],"buffers":[{"byteLength":113576,"uri":"tile_0083.bin"}],"bufferViews":[{"buffer":0,"byteOffset":0,"byteLength":34380,"target":34962},{"buffer":0,"byteOffset":34380,"byteLength":22920,"target":34962},{"buffer":0,"byteOffset":57300,"byteLength":48912,"target":34963},{"buffer":0,"byteOffset":106212,"byteLength":2496,"target":34962},{"buffer":0,"byteOffset":108708,"byteLength":1664,"target":34962},{"buffer":0,"byteOffset":110372,"byteLength":3204,"target":34963}],"images":[{"uri":"../textures/tile_0083_material_0.jpg"},{"uri":"../textures/tile_0083_material_1.jpg"}],"materials":[{"name":"DefaultMaterial","pbrMetallicRoughness":{"baseColorFactor":[0.6000000238418579,0.6000000238418579,0.6000000238418579,1.0],"metallicFactor":0.0},"extensions":{"KHR_materials_specular":{"specularFactor":1.0,"specularColorFactor":[0.0,0.0,0.0]},"KHR_materials_ior":{"ior":1.0}}},{"name":"material_0_material","pbrMetallicRoughness":{"baseColorTexture":{"index":0},"metallicFactor":0.0},"extensions":{"KHR_materials_specular":{"specularFactor":1.0,"specularColorFactor":[0.0,0.0,0.0]},"KHR_materials_ior":{"ior":1.0}}},{"name":"material_1_material","pbrMetallicRoughness":{"baseColorTexture":{"index":1},"metallicFactor":0.0},"extensions":{"KHR_materials_specular":{"specularFactor":1.0,"specularColorFactor":[0.0,0.0,0.0]},"KHR_materials_ior":{"ior":1.0}}}],"meshes":[{"name":"defaultobject","primitives":[{"mode":4,"material":1,"indices":2,"attributes":{"POSITION":0,"TEXCOORD_0":1}},{"mode":4,"material":2,"indices":5,"attributes":{"POSITION":3,"TEXCOORD_0":4}}]}],"nodes":[{"name":"tile_0083.obj","children":[1]},{"name":"defaultobject","mesh":0}],"samplers":[{},{}],"scenes":[{"nodes":[0]}],"textures":[{"source":0,"sampler":0},{"source":1,"sampler":1}],"scene":0}
