{"asset":{"version":"2.0","generator":"Open Asset Import Library (assimp v6.0.0)"},"extensionsUsed":["KHR_materials_specular","KHR_materials_volume","KHR_materials_ior","FB_ngon_encoding"],"accessors":[{"bufferView":0,"byteOffset":0,"componentType":5126,"count":3803,"type":"VEC3","max":[3.100829839706421,-1.1271480321884155,0.5196255445480347],"min":[-0.040349967777729034,-1.3256962299346924,2.2250738585072014e-308]},{"bufferView":1,"byteOffset":0,"componentType":5126,"count":3803,"type":"VEC2","max":[0.9875359535217285,0.5663871765136719],"min":[2.2250738585072014e-308,2.2250738585072014e-308]},{"bufferView":2,"byteOffset":0,"componentType":5125,"count":15327,"type":"SCALAR","max":[3802],"min":[0]},{"bufferView":3,"byteOffset":0,"componentType":5126,"count":1150,"type":"VEC3","max":[1.0410079956054688,-1.1518619060516357,0.5013918280601501],"min":[-0.061442580074071884,-1.3167660236358643,2.2250738585072014e-308]},{"bufferView":4,"byteOffset":0,"componentType":5126,"count":1150,"type":"VEC2","max":[0.9219121932983398,0.546173095703125],"min":[2.2250738585072014e-308,2.2250738585072014e-308]},{"bufferView":5,"byteOffset":0,"componentType":5125,"count":5814,"type":"SCALAR","max":[1149],"min":[0]}],"buffers":[{"byteLength":183624,"uri":"tile_0216.bin"}],"bufferViews":[{"buffer":0,"byteOffset":0,"byteLength":45636,"target":34962},{"buffer":0,"byteOffset":45636,"byteLength":30424,"target":34962},{"buffer":0,"byteOffset":76060,"byteLength":61308,"target":34963},{"buffer":0,"byteOffset":137368,"byteLength":13800,"target":34962},{"buffer":0,"byteOffset":151168,"byteLength":9200,"target":34962},{"buffer":0,"byteOffset":160368,"byteLength":23256,"target":34963}],"images":[{"uri":"../textures/tile_0216_material_0.jpg"},{"uri":"../textures/tile_0216_material_1.jpg"}],"materials":[{"name":"DefaultMaterial","pbrMetallicRoughness":{"baseColorFactor":[0.6000000238418579,0.6000000238418579,0.6000000238418579,1.0],"metallicFactor":0.0},"extensions":{"KHR_materials_specular":{"specularFactor":1.0,"specularColorFactor":[0.0,0.0,0.0]},"KHR_materials_ior":{"ior":1.0}}},{"name":"material_0_material","pbrMetallicRoughness":{"baseColorTexture":{"index":0},"metallicFactor":0.0},"extensions":{"KHR_materials_specular":{"specularFactor":1.0,"specularColorFactor":[0.0,0.0,0.0]},"KHR_materials_ior":{"ior":1.0}}},{"name":"material_1_material","pbrMetallicRoughness":{"baseColorTexture":{"index":1},"metallicFactor":0.0},"extensions":{"KHR_materials_specular":{"specularFactor":1.0,"specularColorFactor":[0.0,0.0,0.0]},"KHR_materials_ior":{"ior":1.0}}}],"meshes":[{"name":"defaultobject","primitives":[{"mode":4,"material":1,"indices":2,"attributes":{"POSITION":0,"TEXCOORD_0":1}},{"mode":4,"material":2,"indices":5,"attributes":{"POSITION":3,"TEXCOORD_0":4}}]}],"nodes":[{"name":"tile_0216.obj","children":[1]},{"name":"defaultobject","mesh":0}],"samplers":[{},{}],"scenes":[{"nodes":[0]}],"textures":[{"source":0,"sampler":0},{"source":1,"sampler":1}],"scene":0}
