{"asset":{"version":"2.0","generator":"Open Asset Import Library (assimp v6.0.0)"},"extensionsUsed":["KHR_materials_specular","KHR_materials_volume","KHR_materials_ior","FB_ngon_encoding"],"accessors":[{"bufferView":0,"byteOffset":0,"componentType":5126,"count":7795,"type":"VEC3","max":[1.568596363067627,0.9439864158630371,2.050215721130371],"min":[2.2250738585072014e-308,2.2250738585072014e-308,2.2250738585072014e-308]},{"bufferView":1,"byteOffset":0,"componentType":5126,"count":7795,"type":"VEC2","max":[0.9884333610534668,0.7783279418945312],"min":[2.2250738585072014e-308,2.2250738585072014e-308]},{"bufferView":2,"byteOffset":0,"componentType":5125,"count":36885,"type":"SCALAR","max":[7794],"min":[0]},{"bufferView":3,"byteOffset":0,"componentType":5126,"count":243,"type":"VEC3","max":[1.2443726062774658,0.9312808513641357,2.050173282623291],"min":[2.2250738585072014e-308,2.2250738585072014e-308,2.2250738585072014e-308]},{"bufferView":4,"byteOffset":0,"componentType":5126,"count":243,"type":"VEC2","max":[0.8651313781738281,0.805488646030426],"min":[2.2250738585072014e-308,2.2250738585072014e-308]},{"bufferView":5,"byteOffset":0,"componentType":5125,"count":951,"type":"SCALAR","max":[242],"min":[0]}],"buffers":[{"byteLength":312104,"uri":"tile_0067.bin"}],"bufferViews":[{"buffer":0,"byteOffset":0,"byteLength":93540,"target":34962},{"buffer":0,"byteOffset":93540,"byteLength":62360,"target":34962},{"buffer":0,"byteOffset":155900,"byteLength":147540,"target":34963},{"buffer":0,"byteOffset":303440,"byteLength":2916,"target":34962},{"buffer":0,"byteOffset":306356,"byteLength":1944,"target":34962},{"buffer":0,"byteOffset":308300,"byteLength":3804,"target":34963}],"images":[{"uri":"../textures/tile_0067_material_0.jpg"},{"uri":"../textures/tile_0067_material_1.jpg"}],"materials":[{"name":"DefaultMaterial","pbrMetallicRoughness":{"baseColorFactor":[0.6000000238418579,0.6000000238418579,0.6000000238418579,1.0],"metallicFactor":0.0},"extensions":{"KHR_materials_specular":{"specularFactor":1.0,"specularColorFactor":[0.0,0.0,0.0]},"KHR_materials_ior":{"ior":1.0}}},{"name":"material_0_material","pbrMetallicRoughness":{"baseColorTexture":{"index":0},"metallicFactor":0.0},"extensions":{"KHR_materials_specular":{"specularFactor":1.0,"specularColorFactor":[0.0,0.0,0.0]},"KHR_materials_ior":{"ior":1.0}}},{"name":"material_1_material","pbrMetallicRoughness":{"baseColorTexture":{"index":1},"metallicFactor":0.0},"extensions":{"KHR_materials_specular":{"specularFactor":1.0,"specularColorFactor":[0.0,0.0,0.0]},"KHR_materials_ior":{"ior":1.0}}}],"meshes":[{"name":"defaultobject","primitives":[{"mode":4,"material":1,"indices":2,"attributes":{"POSITION":0,"TEXCOORD_0":1}},{"mode":4,"material":2,"indices":5,"attributes":{"POSITION":3,"TEXCOORD_0":4}}]}],"nodes":[{"name":"tile_0067.obj","children":[1]},{"name":"defaultobject","mesh":0}],"samplers":[{},{}],"scenes":[{"nodes":[0]}],"textures":[{"source":0,"sampler":0},{"source":1,"sampler":1}],"scene":0}
