{"asset":{"version":"2.0","generator":"Open Asset Import Library (assimp v6.0.0)"},"extensionsUsed":["KHR_materials_specular","KHR_materials_volume","KHR_materials_ior","FB_ngon_encoding"],"accessors":[{"bufferView":0,"byteOffset":0,"componentType":5126,"count":13155,"type":"VEC3","max":[2.5456418991088867,1.6418170928955078,1.5666662454605103],"min":[2.2250738585072014e-308,2.2250738585072014e-308,2.2250738585072014e-308]},{"bufferView":1,"byteOffset":0,"componentType":5126,"count":13155,"type":"VEC2","max":[0.9932475090026855,0.6483964920043945],"min":[2.2250738585072014e-308,2.2250738585072014e-308]},{"bufferView":2,"byteOffset":0,"componentType":5125,"count":61230,"type":"SCALAR","max":[13154],"min":[0]},{"bufferView":3,"byteOffset":0,"componentType":5126,"count":1399,"type":"VEC3","max":[2.0443949699401855,1.62887704372406,1.5629605054855347],"min":[2.2250738585072014e-308,2.2250738585072014e-308,2.2250738585072014e-308]},{"bufferView":4,"byteOffset":0,"componentType":5126,"count":1399,"type":"VEC2","max":[0.8936576843261719,0.7151012420654297],"min":[2.2250738585072014e-308,2.2250738585072014e-308]},{"bufferView":5,"byteOffset":0,"componentType":5125,"count":6948,"type":"SCALAR","max":[1398],"min":[0]}],"buffers":[{"byteLength":563792,"uri":"tile_0095.bin"}],"bufferViews":[{"buffer":0,"byteOffset":0,"byteLength":157860,"target":34962},{"buffer":0,"byteOffset":157860,"byteLength":105240,"target":34962},{"buffer":0,"byteOffset":263100,"byteLength":244920,"target":34963},{"buffer":0,"byteOffset":508020,"byteLength":16788,"target":34962},{"buffer":0,"byteOffset":524808,"byteLength":11192,"target":34962},{"buffer":0,"byteOffset":536000,"byteLength":27792,"target":34963}],"images":[{"uri":"../textures/tile_0095_material_0.jpg"},{"uri":"../textures/tile_0095_material_1.jpg"}],"materials":[{"name":"DefaultMaterial","pbrMetallicRoughness":{"baseColorFactor":[0.6000000238418579,0.6000000238418579,0.6000000238418579,1.0],"metallicFactor":0.0},"extensions":{"KHR_materials_specular":{"specularFactor":1.0,"specularColorFactor":[0.0,0.0,0.0]},"KHR_materials_ior":{"ior":1.0}}},{"name":"material_0_material","pbrMetallicRoughness":{"baseColorTexture":{"index":0},"metallicFactor":0.0},"extensions":{"KHR_materials_specular":{"specularFactor":1.0,"specularColorFactor":[0.0,0.0,0.0]},"KHR_materials_ior":{"ior":1.0}}},{"name":"material_1_material","pbrMetallicRoughness":{"baseColorTexture":{"index":1},"metallicFactor":0.0},"extensions":{"KHR_materials_specular":{"specularFactor":1.0,"specularColorFactor":[0.0,0.0,0.0]},"KHR_materials_ior":{"ior":1.0}}}],"meshes":[{"name":"defaultobject","primitives":[{"mode":4,"material":1,"indices":2,"attributes":{"POSITION":0,"TEXCOORD_0":1}},{"mode":4,"material":2,"indices":5,"attributes":{"POSITION":3,"TEXCOORD_0":4}}]}],"nodes":[{"name":"tile_0095.obj","children":[1]},{"name":"defaultobject","mesh":0}],"samplers":[{},{}],"scenes":[{"nodes":[0]}],"textures":[{"source":0,"sampler":0},{"source":1,"sampler":1}],"scene":0}
