{"asset":{"version":"2.0","generator":"Open Asset Import Library (assimp v6.0.0)"},"extensionsUsed":["KHR_materials_specular","KHR_materials_volume","KHR_materials_ior","FB_ngon_encoding"],"accessors":[{"bufferView":0,"byteOffset":0,"componentType":5126,"count":3339,"type":"VEC3","max":[2.2237281799316406,-0.5188221335411072,1.620740294456482],"min":[-0.13291974365711212,-0.7620571851730347,2.2250738585072014e-308]},{"bufferView":1,"byteOffset":0,"componentType":5126,"count":3339,"type":"VEC2","max":[0.9946198463439941,0.585784912109375],"min":[2.2250738585072014e-308,2.2250738585072014e-308]},{"bufferView":2,"byteOffset":0,"componentType":5125,"count":14049,"type":"SCALAR","max":[3338],"min":[0]},{"bufferView":3,"byteOffset":0,"componentType":5126,"count":518,"type":"VEC3","max":[0.11303047835826874,-0.5294424891471863,1.5906827449798584],"min":[-0.16388331353664398,-0.5851761698722839,2.2250738585072014e-308]},{"bufferView":4,"byteOffset":0,"componentType":5126,"count":518,"type":"VEC2","max":[0.9414944648742676,0.5483283996582031],"min":[2.2250738585072014e-308,2.2250738585072014e-308]},{"bufferView":5,"byteOffset":0,"componentType":5125,"count":2598,"type":"SCALAR","max":[517],"min":[0]}],"buffers":[{"byteLength":143728,"uri":"tile_0471.bin"}],"bufferViews":[{"buffer":0,"byteOffset":0,"byteLength":40068,"target":34962},{"buffer":0,"byteOffset":40068,"byteLength":26712,"target":34962},{"buffer":0,"byteOffset":66780,"byteLength":56196,"target":34963},{"buffer":0,"byteOffset":122976,"byteLength":6216,"target":34962},{"buffer":0,"byteOffset":129192,"byteLength":4144,"target":34962},{"buffer":0,"byteOffset":133336,"byteLength":10392,"target":34963}],"images":[{"uri":"../textures/tile_0471_material_0.jpg"},{"uri":"../textures/tile_0471_material_1.jpg"}],"materials":[{"name":"DefaultMaterial","pbrMetallicRoughness":{"baseColorFactor":[0.6000000238418579,0.6000000238418579,0.6000000238418579,1.0],"metallicFactor":0.0},"extensions":{"KHR_materials_specular":{"specularFactor":1.0,"specularColorFactor":[0.0,0.0,0.0]},"KHR_materials_ior":{"ior":1.0}}},{"name":"material_0_material","pbrMetallicRoughness":{"baseColorTexture":{"index":0},"metallicFactor":0.0},"extensions":{"KHR_materials_specular":{"specularFactor":1.0,"specularColorFactor":[0.0,0.0,0.0]},"KHR_materials_ior":{"ior":1.0}}},{"name":"material_1_material","pbrMetallicRoughness":{"baseColorTexture":{"index":1},"metallicFactor":0.0},"extensions":{"KHR_materials_specular":{"specularFactor":1.0,"specularColorFactor":[0.0,0.0,0.0]},"KHR_materials_ior":{"ior":1.0}}}],"meshes":[{"name":"defaultobject","primitives":[{"mode":4,"material":1,"indices":2,"attributes":{"POSITION":0,"TEXCOORD_0":1}},{"mode":4,"material":2,"indices":5,"attributes":{"POSITION":3,"TEXCOORD_0":4}}]}],"nodes":[{"name":"tile_0471.obj","children":[1]},{"name":"defaultobject","mesh":0}],"samplers":[{},{}],"scenes":[{"nodes":[0]}],"textures":[{"source":0,"sampler":0},{"source":1,"sampler":1}],"scene":0}
