{"asset":{"version":"2.0","generator":"Open Asset Import Library (assimp v6.0.0)"},"extensionsUsed":["KHR_materials_specular","KHR_materials_volume","KHR_materials_ior","FB_ngon_encoding"],"accessors":[{"bufferView":0,"byteOffset":0,"componentType":5126,"count":2150,"type":"VEC3","max":[1.913985013961792,-2.616370916366577,1.672015905380249],"min":[2.2250738585072014e-308,-2.7800655364990234,2.2250738585072014e-308]},{"bufferView":1,"byteOffset":0,"componentType":5126,"count":2150,"type":"VEC2","max":[0.9876251220703125,0.8359222412109375],"min":[2.2250738585072014e-308,2.2250738585072014e-308]},{"bufferView":2,"byteOffset":0,"componentType":5125,"count":8493,"type":"SCALAR","max":[2149],"min":[0]},{"bufferView":3,"byteOffset":0,"componentType":5126,"count":846,"type":"VEC3","max":[0.7354337573051453,-2.62204647064209,1.6313360929489136],"min":[2.2250738585072014e-308,-2.773301601409912,2.2250738585072014e-308]},{"bufferView":4,"byteOffset":0,"componentType":5126,"count":846,"type":"VEC2","max":[0.824376106262207,0.69073486328125],"min":[2.2250738585072014e-308,2.2250738585072014e-308]},{"bufferView":5,"byteOffset":0,"componentType":5125,"count":4428,"type":"SCALAR","max":[845],"min":[0]}],"buffers":[{"byteLength":111604,"uri":"tile_0601.bin"}],"bufferViews":[{"buffer":0,"byteOffset":0,"byteLength":25800,"target":34962},{"buffer":0,"byteOffset":25800,"byteLength":17200,"target":34962},{"buffer":0,"byteOffset":43000,"byteLength":33972,"target":34963},{"buffer":0,"byteOffset":76972,"byteLength":10152,"target":34962},{"buffer":0,"byteOffset":87124,"byteLength":6768,"target":34962},{"buffer":0,"byteOffset":93892,"byteLength":17712,"target":34963}],"images":[{"uri":"../textures/tile_0601_material_0.jpg"},{"uri":"../textures/tile_0601_material_1.jpg"}],"materials":[{"name":"DefaultMaterial","pbrMetallicRoughness":{"baseColorFactor":[0.6000000238418579,0.6000000238418579,0.6000000238418579,1.0],"metallicFactor":0.0},"extensions":{"KHR_materials_specular":{"specularFactor":1.0,"specularColorFactor":[0.0,0.0,0.0]},"KHR_materials_ior":{"ior":1.0}}},{"name":"material_0_material","pbrMetallicRoughness":{"baseColorTexture":{"index":0},"metallicFactor":0.0},"extensions":{"KHR_materials_specular":{"specularFactor":1.0,"specularColorFactor":[0.0,0.0,0.0]},"KHR_materials_ior":{"ior":1.0}}},{"name":"material_1_material","pbrMetallicRoughness":{"baseColorTexture":{"index":1},"metallicFactor":0.0},"extensions":{"KHR_materials_specular":{"specularFactor":1.0,"specularColorFactor":[0.0,0.0,0.0]},"KHR_materials_ior":{"ior":1.0}}}],"meshes":[{"name":"defaultobject","primitives":[{"mode":4,"material":1,"indices":2,"attributes":{"POSITION":0,"TEXCOORD_0":1}},{"mode":4,"material":2,"indices":5,"attributes":{"POSITION":3,"TEXCOORD_0":4}}]}],"nodes":[{"name":"tile_0601.obj","children":[1]},{"name":"defaultobject","mesh":0}],"samplers":[{},{}],"scenes":[{"nodes":[0]}],"textures":[{"source":0,"sampler":0},{"source":1,"sampler":1}],"scene":0}
