{"asset":{"version":"2.0","generator":"Open Asset Import Library (assimp v6.0.0)"},"extensionsUsed":["KHR_materials_specular","KHR_materials_volume","KHR_materials_ior","FB_ngon_encoding"],"accessors":[{"bufferView":0,"byteOffset":0,"componentType":5126,"count":14008,"type":"VEC3","max":[1.4432344436645508,1.4544442892074585,3.886706590652466],"min":[2.2250738585072014e-308,2.2250738585072014e-308,2.2250738585072014e-308]},{"bufferView":1,"byteOffset":0,"componentType":5126,"count":14008,"type":"VEC2","max":[0.9913668632507324,0.9277267456054688],"min":[2.2250738585072014e-308,2.2250738585072014e-308]},{"bufferView":2,"byteOffset":0,"componentType":5125,"count":61239,"type":"SCALAR","max":[14007],"min":[0]},{"bufferView":3,"byteOffset":0,"componentType":5126,"count":593,"type":"VEC3","max":[1.227914571762085,1.278571367263794,3.7191433906555176],"min":[2.2250738585072014e-308,2.2250738585072014e-308,2.2250738585072014e-308]},{"bufferView":4,"byteOffset":0,"componentType":5126,"count":593,"type":"VEC2","max":[0.6095572710037231,0.5692920684814453],"min":[2.2250738585072014e-308,2.2250738585072014e-308]},{"bufferView":5,"byteOffset":0,"componentType":5125,"count":2721,"type":"SCALAR","max":[592],"min":[0]}],"buffers":[{"byteLength":547860,"uri":"tile_0130.bin"}],"bufferViews":[{"buffer":0,"byteOffset":0,"byteLength":168096,"target":34962},{"buffer":0,"byteOffset":168096,"byteLength":112064,"target":34962},{"buffer":0,"byteOffset":280160,"byteLength":244956,"target":34963},{"buffer":0,"byteOffset":525116,"byteLength":7116,"target":34962},{"buffer":0,"byteOffset":532232,"byteLength":4744,"target":34962},{"buffer":0,"byteOffset":536976,"byteLength":10884,"target":34963}],"images":[{"uri":"../textures/tile_0130_material_0.jpg"},{"uri":"../textures/tile_0130_material_1.jpg"}],"materials":[{"name":"DefaultMaterial","pbrMetallicRoughness":{"baseColorFactor":[0.6000000238418579,0.6000000238418579,0.6000000238418579,1.0],"metallicFactor":0.0},"extensions":{"KHR_materials_specular":{"specularFactor":1.0,"specularColorFactor":[0.0,0.0,0.0]},"KHR_materials_ior":{"ior":1.0}}},{"name":"material_0_material","pbrMetallicRoughness":{"baseColorTexture":{"index":0},"metallicFactor":0.0},"extensions":{"KHR_materials_specular":{"specularFactor":1.0,"specularColorFactor":[0.0,0.0,0.0]},"KHR_materials_ior":{"ior":1.0}}},{"name":"material_1_material","pbrMetallicRoughness":{"baseColorTexture":{"index":1},"metallicFactor":0.0},"extensions":{"KHR_materials_specular":{"specularFactor":1.0,"specularColorFactor":[0.0,0.0,0.0]},"KHR_materials_ior":{"ior":1.0}}}],"meshes":[{"name":"defaultobject","primitives":[{"mode":4,"material":1,"indices":2,"attributes":{"POSITION":0,"TEXCOORD_0":1}},{"mode":4,"material":2,"indices":5,"attributes":{"POSITION":3,"TEXCOORD_0":4}}]}],"nodes":[{"name":"tile_0130.obj","children":[1]},{"name":"defaultobject","mesh":0}],"samplers":[{},{}],"scenes":[{"nodes":[0]}],"textures":[{"source":0,"sampler":0},{"source":1,"sampler":1}],"scene":0}
