{"asset":{"version":"2.0","generator":"Open Asset Import Library (assimp v6.0.0)"},"extensionsUsed":["KHR_materials_specular","KHR_materials_volume","KHR_materials_ior","FB_ngon_encoding"],"accessors":[{"bufferView":0,"byteOffset":0,"componentType":5126,"count":2753,"type":"VEC3","max":[0.4558923840522766,-3.095071792602539,3.8965537548065186],"min":[-0.09175413101911545,-3.439493179321289,2.2250738585072014e-308]},{"bufferView":1,"byteOffset":0,"componentType":5126,"count":2753,"type":"VEC2","max":[0.9864242076873779,0.7393894195556641],"min":[2.2250738585072014e-308,2.2250738585072014e-308]},{"bufferView":2,"byteOffset":0,"componentType":5125,"count":12876,"type":"SCALAR","max":[2752],"min":[0]},{"bufferView":3,"byteOffset":0,"componentType":5126,"count":1815,"type":"VEC3","max":[0.4829748272895813,-3.0982329845428467,3.897010087966919],"min":[-0.027566367760300636,-3.42021107673645,2.2250738585072014e-308]},{"bufferView":4,"byteOffset":0,"componentType":5126,"count":1815,"type":"VEC2","max":[0.985142707824707,0.5660400390625],"min":[2.2250738585072014e-308,2.2250738585072014e-308]},{"bufferView":5,"byteOffset":0,"componentType":5125,"count":9927,"type":"SCALAR","max":[1814],"min":[0]}],"buffers":[{"byteLength":182572,"uri":"tile_0336.bin"}],"bufferViews":[{"buffer":0,"byteOffset":0,"byteLength":33036,"target":34962},{"buffer":0,"byteOffset":33036,"byteLength":22024,"target":34962},{"buffer":0,"byteOffset":55060,"byteLength":51504,"target":34963},{"buffer":0,"byteOffset":106564,"byteLength":21780,"target":34962},{"buffer":0,"byteOffset":128344,"byteLength":14520,"target":34962},{"buffer":0,"byteOffset":142864,"byteLength":39708,"target":34963}],"images":[{"uri":"../textures/tile_0336_material_0.jpg"},{"uri":"../textures/tile_0336_material_1.jpg"}],"materials":[{"name":"DefaultMaterial","pbrMetallicRoughness":{"baseColorFactor":[0.6000000238418579,0.6000000238418579,0.6000000238418579,1.0],"metallicFactor":0.0},"extensions":{"KHR_materials_specular":{"specularFactor":1.0,"specularColorFactor":[0.0,0.0,0.0]},"KHR_materials_ior":{"ior":1.0}}},{"name":"material_0_material","pbrMetallicRoughness":{"baseColorTexture":{"index":0},"metallicFactor":0.0},"extensions":{"KHR_materials_specular":{"specularFactor":1.0,"specularColorFactor":[0.0,0.0,0.0]},"KHR_materials_ior":{"ior":1.0}}},{"name":"material_1_material","pbrMetallicRoughness":{"baseColorTexture":{"index":1},"metallicFactor":0.0},"extensions":{"KHR_materials_specular":{"specularFactor":1.0,"specularColorFactor":[0.0,0.0,0.0]},"KHR_materials_ior":{"ior":1.0}}}],"meshes":[{"name":"defaultobject","primitives":[{"mode":4,"material":1,"indices":2,"attributes":{"POSITION":0,"TEXCOORD_0":1}},{"mode":4,"material":2,"indices":5,"attributes":{"POSITION":3,"TEXCOORD_0":4}}]}],"nodes":[{"name":"tile_0336.obj","children":[1]},{"name":"defaultobject","mesh":0}],"samplers":[{},{}],"scenes":[{"nodes":[0]}],"textures":[{"source":0,"sampler":0},{"source":1,"sampler":1}],"scene":0}
