{"asset":{"version":"2.0","generator":"Open Asset Import Library (assimp v6.0.0)"},"extensionsUsed":["KHR_materials_specular","KHR_materials_volume","KHR_materials_ior","FB_ngon_encoding"],"accessors":[{"bufferView":0,"byteOffset":0,"componentType":5126,"count":5228,"type":"VEC3","max":[0.11142975091934204,-0.529967188835144,2.2742557525634766],"min":[-0.44774144887924194,-0.7429928183555603,2.2250738585072014e-308]},{"bufferView":1,"byteOffset":0,"componentType":5126,"count":5228,"type":"VEC2","max":[0.9929971694946289,0.5700817108154297],"min":[2.2250738585072014e-308,2.2250738585072014e-308]},{"bufferView":2,"byteOffset":0,"componentType":5125,"count":21612,"type":"SCALAR","max":[5227],"min":[0]},{"bufferView":3,"byteOffset":0,"componentType":5126,"count":103,"type":"VEC3","max":[-0.3922191560268402,-0.5328457951545715,2.2745447158813477],"min":[-0.44388347864151,-0.6796361207962036,2.2250738585072014e-308]},{"bufferView":4,"byteOffset":0,"componentType":5126,"count":103,"type":"VEC2","max":[0.7769374847412109,0.7007141709327698],"min":[2.2250738585072014e-308,2.2250738585072014e-308]},{"bufferView":5,"byteOffset":0,"componentType":5125,"count":405,"type":"SCALAR","max":[102],"min":[0]}],"buffers":[{"byteLength":194688,"uri":"tile_0392.bin"}],"bufferViews":[{"buffer":0,"byteOffset":0,"byteLength":62736,"target":34962},{"buffer":0,"byteOffset":62736,"byteLength":41824,"target":34962},{"buffer":0,"byteOffset":104560,"byteLength":86448,"target":34963},{"buffer":0,"byteOffset":191008,"byteLength":1236,"target":34962},{"buffer":0,"byteOffset":192244,"byteLength":824,"target":34962},{"buffer":0,"byteOffset":193068,"byteLength":1620,"target":34963}],"images":[{"uri":"../textures/tile_0392_material_0.jpg"},{"uri":"../textures/tile_0392_material_1.jpg"}],"materials":[{"name":"DefaultMaterial","pbrMetallicRoughness":{"baseColorFactor":[0.6000000238418579,0.6000000238418579,0.6000000238418579,1.0],"metallicFactor":0.0},"extensions":{"KHR_materials_specular":{"specularFactor":1.0,"specularColorFactor":[0.0,0.0,0.0]},"KHR_materials_ior":{"ior":1.0}}},{"name":"material_0_material","pbrMetallicRoughness":{"baseColorTexture":{"index":0},"metallicFactor":0.0},"extensions":{"KHR_materials_specular":{"specularFactor":1.0,"specularColorFactor":[0.0,0.0,0.0]},"KHR_materials_ior":{"ior":1.0}}},{"name":"material_1_material","pbrMetallicRoughness":{"baseColorTexture":{"index":1},"metallicFactor":0.0},"extensions":{"KHR_materials_specular":{"specularFactor":1.0,"specularColorFactor":[0.0,0.0,0.0]},"KHR_materials_ior":{"ior":1.0}}}],"meshes":[{"name":"defaultobject","primitives":[{"mode":4,"material":1,"indices":2,"attributes":{"POSITION":0,"TEXCOORD_0":1}},{"mode":4,"material":2,"indices":5,"attributes":{"POSITION":3,"TEXCOORD_0":4}}]}],"nodes":[{"name":"tile_0392.obj","children":[1]},{"name":"defaultobject","mesh":0}],"samplers":[{},{}],"scenes":[{"nodes":[0]}],"textures":[{"source":0,"sampler":0},{"source":1,"sampler":1}],"scene":0}
