{"asset":{"version":"2.0","generator":"Open Asset Import Library (assimp v6.0.0)"},"extensionsUsed":["KHR_materials_specular","KHR_materials_volume","KHR_materials_ior","FB_ngon_encoding"],"accessors":[{"bufferView":0,"byteOffset":0,"componentType":5126,"count":10743,"type":"VEC3","max":[2.1551945209503174,0.34428930282592773,0.9802844524383545],"min":[2.2250738585072014e-308,2.2250738585072014e-308,2.2250738585072014e-308]},{"bufferView":1,"byteOffset":0,"componentType":5126,"count":10743,"type":"VEC2","max":[0.9937701225280762,0.6288814544677734],"min":[2.2250738585072014e-308,2.2250738585072014e-308]},{"bufferView":2,"byteOffset":0,"componentType":5125,"count":46647,"type":"SCALAR","max":[10742],"min":[0]},{"bufferView":3,"byteOffset":0,"componentType":5126,"count":4655,"type":"VEC3","max":[1.985708475112915,0.3406277298927307,0.9798816442489624],"min":[2.2250738585072014e-308,2.2250738585072014e-308,2.2250738585072014e-308]},{"bufferView":4,"byteOffset":0,"componentType":5126,"count":4655,"type":"VEC2","max":[0.8365364074707031,0.5706005096435547],"min":[2.2250738585072014e-308,2.2250738585072014e-308]},{"bufferView":5,"byteOffset":0,"componentType":5125,"count":23688,"type":"SCALAR","max":[4654],"min":[0]}],"buffers":[{"byteLength":589300,"uri":"tile_0075.bin"}],"bufferViews":[{"buffer":0,"byteOffset":0,"byteLength":128916,"target":34962},{"buffer":0,"byteOffset":128916,"byteLength":85944,"target":34962},{"buffer":0,"byteOffset":214860,"byteLength":186588,"target":34963},{"buffer":0,"byteOffset":401448,"byteLength":55860,"target":34962},{"buffer":0,"byteOffset":457308,"byteLength":37240,"target":34962},{"buffer":0,"byteOffset":494548,"byteLength":94752,"target":34963}],"images":[{"uri":"../textures/tile_0075_material_0.jpg"},{"uri":"../textures/tile_0075_material_1.jpg"}],"materials":[{"name":"DefaultMaterial","pbrMetallicRoughness":{"baseColorFactor":[0.6000000238418579,0.6000000238418579,0.6000000238418579,1.0],"metallicFactor":0.0},"extensions":{"KHR_materials_specular":{"specularFactor":1.0,"specularColorFactor":[0.0,0.0,0.0]},"KHR_materials_ior":{"ior":1.0}}},{"name":"material_0_material","pbrMetallicRoughness":{"baseColorTexture":{"index":0},"metallicFactor":0.0},"extensions":{"KHR_materials_specular":{"specularFactor":1.0,"specularColorFactor":[0.0,0.0,0.0]},"KHR_materials_ior":{"ior":1.0}}},{"name":"material_1_material","pbrMetallicRoughness":{"baseColorTexture":{"index":1},"metallicFactor":0.0},"extensions":{"KHR_materials_specular":{"specularFactor":1.0,"specularColorFactor":[0.0,0.0,0.0]},"KHR_materials_ior":{"ior":1.0}}}],"meshes":[{"name":"defaultobject","primitives":[{"mode":4,"material":1,"indices":2,"attributes":{"POSITION":0,"TEXCOORD_0":1}},{"mode":4,"material":2,"indices":5,"attributes":{"POSITION":3,"TEXCOORD_0":4}}]}],"nodes":[{"name":"tile_0075.obj","children":[1]},{"name":"defaultobject","mesh":0}],"samplers":[{},{}],"scenes":[{"nodes":[0]}],"textures":[{"source":0,"sampler":0},{"source":1,"sampler":1}],"scene":0}
