{"asset":{"version":"2.0","generator":"Open Asset Import Library (assimp v6.0.0)"},"extensionsUsed":["KHR_materials_specular","KHR_materials_volume","KHR_materials_ior","FB_ngon_encoding"],"accessors":[{"bufferView":0,"byteOffset":0,"componentType":5126,"count":6743,"type":"VEC3","max":[3.175752639770508,0.43983808159828186,0.7102347612380981],"min":[2.2250738585072014e-308,2.2250738585072014e-308,2.2250738585072014e-308]},{"bufferView":1,"byteOffset":0,"componentType":5126,"count":6743,"type":"VEC2","max":[0.9957411885261536,0.7577667236328125],"min":[2.2250738585072014e-308,2.2250738585072014e-308]},{"bufferView":2,"byteOffset":0,"componentType":5125,"count":27369,"type":"SCALAR","max":[6742],"min":[0]},{"bufferView":3,"byteOffset":0,"componentType":5126,"count":672,"type":"VEC3","max":[3.1875956058502197,0.43999379873275757,0.6486815214157104],"min":[2.2250738585072014e-308,2.2250738585072014e-308,2.2250738585072014e-308]},{"bufferView":4,"byteOffset":0,"componentType":5126,"count":672,"type":"VEC2","max":[0.6246614456176758,0.6017951965332031],"min":[2.2250738585072014e-308,2.2250738585072014e-308]},{"bufferView":5,"byteOffset":0,"componentType":5125,"count":2889,"type":"SCALAR","max":[671],"min":[0]}],"buffers":[{"byteLength":269332,"uri":"tile_0099.bin"}],"bufferViews":[{"buffer":0,"byteOffset":0,"byteLength":80916,"target":34962},{"buffer":0,"byteOffset":80916,"byteLength":53944,"target":34962},{"buffer":0,"byteOffset":134860,"byteLength":109476,"target":34963},{"buffer":0,"byteOffset":244336,"byteLength":8064,"target":34962},{"buffer":0,"byteOffset":252400,"byteLength":5376,"target":34962},{"buffer":0,"byteOffset":257776,"byteLength":11556,"target":34963}],"images":[{"uri":"../textures/tile_0099_material_0.jpg"},{"uri":"../textures/tile_0099_material_1.jpg"}],"materials":[{"name":"DefaultMaterial","pbrMetallicRoughness":{"baseColorFactor":[0.6000000238418579,0.6000000238418579,0.6000000238418579,1.0],"metallicFactor":0.0},"extensions":{"KHR_materials_specular":{"specularFactor":1.0,"specularColorFactor":[0.0,0.0,0.0]},"KHR_materials_ior":{"ior":1.0}}},{"name":"material_0_material","pbrMetallicRoughness":{"baseColorTexture":{"index":0},"metallicFactor":0.0},"extensions":{"KHR_materials_specular":{"specularFactor":1.0,"specularColorFactor":[0.0,0.0,0.0]},"KHR_materials_ior":{"ior":1.0}}},{"name":"material_1_material","pbrMetallicRoughness":{"baseColorTexture":{"index":1},"metallicFactor":0.0},"extensions":{"KHR_materials_specular":{"specularFactor":1.0,"specularColorFactor":[0.0,0.0,0.0]},"KHR_materials_ior":{"ior":1.0}}}],"meshes":[{"name":"defaultobject","primitives":[{"mode":4,"material":1,"indices":2,"attributes":{"POSITION":0,"TEXCOORD_0":1}},{"mode":4,"material":2,"indices":5,"attributes":{"POSITION":3,"TEXCOORD_0":4}}]}],"nodes":[{"name":"tile_0099.obj","children":[1]},{"name":"defaultobject","mesh":0}],"samplers":[{},{}],"scenes":[{"nodes":[0]}],"textures":[{"source":0,"sampler":0},{"source":1,"sampler":1}],"scene":0}
