{"asset":{"version":"2.0","generator":"Open Asset Import Library (assimp v6.0.0)"},"extensionsUsed":["KHR_materials_specular","KHR_materials_volume","KHR_materials_ior","FB_ngon_encoding"],"accessors":[{"bufferView":0,"byteOffset":0,"componentType":5126,"count":3370,"type":"VEC3","max":[2.6787643432617188,1.8134671449661255,1.418454647064209],"min":[2.2250738585072014e-308,2.2250738585072014e-308,2.2250738585072014e-308]},{"bufferView":1,"byteOffset":0,"componentType":5126,"count":3370,"type":"VEC2","max":[0.9933013916015625,0.5789585113525391],"min":[2.2250738585072014e-308,2.2250738585072014e-308]},{"bufferView":2,"byteOffset":0,"componentType":5125,"count":15102,"type":"SCALAR","max":[3369],"min":[0]},{"bufferView":3,"byteOffset":0,"componentType":5126,"count":1119,"type":"VEC3","max":[2.478882074356079,1.8047367334365845,1.4215712547302246],"min":[2.2250738585072014e-308,2.2250738585072014e-308,2.2250738585072014e-308]},{"bufferView":4,"byteOffset":0,"componentType":5126,"count":1119,"type":"VEC2","max":[0.9028396606445312,0.5457191467285156],"min":[2.2250738585072014e-308,2.2250738585072014e-308]},{"bufferView":5,"byteOffset":0,"componentType":5125,"count":5658,"type":"SCALAR","max":[1118],"min":[0]}],"buffers":[{"byteLength":172820,"uri":"tile_0506.bin"}],"bufferViews":[{"buffer":0,"byteOffset":0,"byteLength":40440,"target":34962},{"buffer":0,"byteOffset":40440,"byteLength":26960,"target":34962},{"buffer":0,"byteOffset":67400,"byteLength":60408,"target":34963},{"buffer":0,"byteOffset":127808,"byteLength":13428,"target":34962},{"buffer":0,"byteOffset":141236,"byteLength":8952,"target":34962},{"buffer":0,"byteOffset":150188,"byteLength":22632,"target":34963}],"images":[{"uri":"../textures/tile_0506_material_0.jpg"},{"uri":"../textures/tile_0506_material_1.jpg"}],"materials":[{"name":"DefaultMaterial","pbrMetallicRoughness":{"baseColorFactor":[0.6000000238418579,0.6000000238418579,0.6000000238418579,1.0],"metallicFactor":0.0},"extensions":{"KHR_materials_specular":{"specularFactor":1.0,"specularColorFactor":[0.0,0.0,0.0]},"KHR_materials_ior":{"ior":1.0}}},{"name":"material_0_material","pbrMetallicRoughness":{"baseColorTexture":{"index":0},"metallicFactor":0.0},"extensions":{"KHR_materials_specular":{"specularFactor":1.0,"specularColorFactor":[0.0,0.0,0.0]},"KHR_materials_ior":{"ior":1.0}}},{"name":"material_1_material","pbrMetallicRoughness":{"baseColorTexture":{"index":1},"metallicFactor":0.0},"extensions":{"KHR_materials_specular":{"specularFactor":1.0,"specularColorFactor":[0.0,0.0,0.0]},"KHR_materials_ior":{"ior":1.0}}}],"meshes":[{"name":"defaultobject","primitives":[{"mode":4,"material":1,"indices":2,"attributes":{"POSITION":0,"TEXCOORD_0":1}},{"mode":4,"material":2,"indices":5,"attributes":{"POSITION":3,"TEXCOORD_0":4}}]}],"nodes":[{"name":"tile_0506.obj","children":[1]},{"name":"defaultobject","mesh":0}],"samplers":[{},{}],"scenes":[{"nodes":[0]}],"textures":[{"source":0,"sampler":0},{"source":1,"sampler":1}],"scene":0}
