{"asset":{"version":"2.0","generator":"Open Asset Import Library (assimp v6.0.0)"},"extensionsUsed":["KHR_materials_specular","KHR_materials_volume","KHR_materials_ior","FB_ngon_encoding"],"accessors":[{"bufferView":0,"byteOffset":0,"componentType":5126,"count":3319,"type":"VEC3","max":[1.0869009494781494,-1.3257391452789307,3.0185394287109375],"min":[-0.144831120967865,-1.577006220817566,2.2250738585072014e-308]},{"bufferView":1,"byteOffset":0,"componentType":5126,"count":3319,"type":"VEC2","max":[0.9624133110046387,0.6793060302734375],"min":[2.2250738585072014e-308,2.2250738585072014e-308]},{"bufferView":2,"byteOffset":0,"componentType":5125,"count":15849,"type":"SCALAR","max":[3318],"min":[0]},{"bufferView":3,"byteOffset":0,"componentType":5126,"count":335,"type":"VEC3","max":[0.9077359437942505,-1.3384286165237427,2.876652956008911],"min":[2.2250738585072014e-308,-1.5737669467926025,2.2250738585072014e-308]},{"bufferView":4,"byteOffset":0,"componentType":5126,"count":335,"type":"VEC2","max":[0.7548198699951172,0.7744407653808594],"min":[2.2250738585072014e-308,2.2250738585072014e-308]},{"bufferView":5,"byteOffset":0,"componentType":5125,"count":1512,"type":"SCALAR","max":[334],"min":[0]}],"buffers":[{"byteLength":142524,"uri":"tile_0037.bin"}],"bufferViews":[{"buffer":0,"byteOffset":0,"byteLength":39828,"target":34962},{"buffer":0,"byteOffset":39828,"byteLength":26552,"target":34962},{"buffer":0,"byteOffset":66380,"byteLength":63396,"target":34963},{"buffer":0,"byteOffset":129776,"byteLength":4020,"target":34962},{"buffer":0,"byteOffset":133796,"byteLength":2680,"target":34962},{"buffer":0,"byteOffset":136476,"byteLength":6048,"target":34963}],"images":[{"uri":"../textures/tile_0037_material_0.jpg"},{"uri":"../textures/tile_0037_material_1.jpg"}],"materials":[{"name":"DefaultMaterial","pbrMetallicRoughness":{"baseColorFactor":[0.6000000238418579,0.6000000238418579,0.6000000238418579,1.0],"metallicFactor":0.0},"extensions":{"KHR_materials_specular":{"specularFactor":1.0,"specularColorFactor":[0.0,0.0,0.0]},"KHR_materials_ior":{"ior":1.0}}},{"name":"material_0_material","pbrMetallicRoughness":{"baseColorTexture":{"index":0},"metallicFactor":0.0},"extensions":{"KHR_materials_specular":{"specularFactor":1.0,"specularColorFactor":[0.0,0.0,0.0]},"KHR_materials_ior":{"ior":1.0}}},{"name":"material_1_material","pbrMetallicRoughness":{"baseColorTexture":{"index":1},"metallicFactor":0.0},"extensions":{"KHR_materials_specular":{"specularFactor":1.0,"specularColorFactor":[0.0,0.0,0.0]},"KHR_materials_ior":{"ior":1.0}}}],"meshes":[{"name":"defaultobject","primitives":[{"mode":4,"material":1,"indices":2,"attributes":{"POSITION":0,"TEXCOORD_0":1}},{"mode":4,"material":2,"indices":5,"attributes":{"POSITION":3,"TEXCOORD_0":4}}]}],"nodes":[{"name":"tile_0037.obj","children":[1]},{"name":"defaultobject","mesh":0}],"samplers":[{},{}],"scenes":[{"nodes":[0]}],"textures":[{"source":0,"sampler":0},{"source":1,"sampler":1}],"scene":0}
