{"asset":{"version":"2.0","generator":"Open Asset Import Library (assimp v6.0.0)"},"extensionsUsed":["KHR_materials_specular","KHR_materials_volume","KHR_materials_ior","FB_ngon_encoding"],"accessors":[{"bufferView":0,"byteOffset":0,"componentType":5126,"count":4669,"type":"VEC3","max":[2.5304994583129883,-3.213996648788452,0.8398482799530029],"min":[2.2250738585072014e-308,-4.215733528137207,2.2250738585072014e-308]},{"bufferView":1,"byteOffset":0,"componentType":5126,"count":4669,"type":"VEC2","max":[0.9902660846710205,0.7265472412109375],"min":[2.2250738585072014e-308,2.2250738585072014e-308]},{"bufferView":2,"byteOffset":0,"componentType":5125,"count":18780,"type":"SCALAR","max":[4668],"min":[0]},{"bufferView":3,"byteOffset":0,"componentType":5126,"count":578,"type":"VEC3","max":[2.5251405239105225,-3.2178878784179688,0.8462637066841125],"min":[2.2250738585072014e-308,-3.5549159049987793,2.2250738585072014e-308]},{"bufferView":4,"byteOffset":0,"componentType":5126,"count":578,"type":"VEC2","max":[0.6235332489013672,0.9678535461425781],"min":[2.2250738585072014e-308,2.2250738585072014e-308]},{"bufferView":5,"byteOffset":0,"componentType":5125,"count":2709,"type":"SCALAR","max":[577],"min":[0]}],"buffers":[{"byteLength":190896,"uri":"tile_0618.bin"}],"bufferViews":[{"buffer":0,"byteOffset":0,"byteLength":56028,"target":34962},{"buffer":0,"byteOffset":56028,"byteLength":37352,"target":34962},{"buffer":0,"byteOffset":93380,"byteLength":75120,"target":34963},{"buffer":0,"byteOffset":168500,"byteLength":6936,"target":34962},{"buffer":0,"byteOffset":175436,"byteLength":4624,"target":34962},{"buffer":0,"byteOffset":180060,"byteLength":10836,"target":34963}],"images":[{"uri":"../textures/tile_0618_material_0.jpg"},{"uri":"../textures/tile_0618_material_1.jpg"}],"materials":[{"name":"DefaultMaterial","pbrMetallicRoughness":{"baseColorFactor":[0.6000000238418579,0.6000000238418579,0.6000000238418579,1.0],"metallicFactor":0.0},"extensions":{"KHR_materials_specular":{"specularFactor":1.0,"specularColorFactor":[0.0,0.0,0.0]},"KHR_materials_ior":{"ior":1.0}}},{"name":"material_0_material","pbrMetallicRoughness":{"baseColorTexture":{"index":0},"metallicFactor":0.0},"extensions":{"KHR_materials_specular":{"specularFactor":1.0,"specularColorFactor":[0.0,0.0,0.0]},"KHR_materials_ior":{"ior":1.0}}},{"name":"material_1_material","pbrMetallicRoughness":{"baseColorTexture":{"index":1},"metallicFactor":0.0},"extensions":{"KHR_materials_specular":{"specularFactor":1.0,"specularColorFactor":[0.0,0.0,0.0]},"KHR_materials_ior":{"ior":1.0}}}],"meshes":[{"name":"defaultobject","primitives":[{"mode":4,"material":1,"indices":2,"attributes":{"POSITION":0,"TEXCOORD_0":1}},{"mode":4,"material":2,"indices":5,"attributes":{"POSITION":3,"TEXCOORD_0":4}}]}],"nodes":[{"name":"tile_0618.obj","children":[1]},{"name":"defaultobject","mesh":0}],"samplers":[{},{}],"scenes":[{"nodes":[0]}],"textures":[{"source":0,"sampler":0},{"source":1,"sampler":1}],"scene":0}
