{"asset":{"version":"2.0","generator":"Open Asset Import Library (assimp v6.0.0)"},"extensionsUsed":["KHR_materials_specular","KHR_materials_volume","KHR_materials_ior","FB_ngon_encoding"],"accessors":[{"bufferView":0,"byteOffset":0,"componentType":5126,"count":2317,"type":"VEC3","max":[1.293064832687378,-3.065873384475708,1.728548288345337],"min":[2.2250738585072014e-308,-3.375178337097168,2.2250738585072014e-308]},{"bufferView":1,"byteOffset":0,"componentType":5126,"count":2317,"type":"VEC2","max":[0.9667472839355469,0.9072799682617188],"min":[2.2250738585072014e-308,2.2250738585072014e-308]},{"bufferView":2,"byteOffset":0,"componentType":5125,"count":9867,"type":"SCALAR","max":[2316],"min":[0]},{"bufferView":3,"byteOffset":0,"componentType":5126,"count":1665,"type":"VEC3","max":[1.2743237018585205,-3.073739528656006,1.7255544662475586],"min":[2.2250738585072014e-308,-3.3753294944763184,2.2250738585072014e-308]},{"bufferView":4,"byteOffset":0,"componentType":5126,"count":1665,"type":"VEC2","max":[0.642279863357544,0.7930259704589844],"min":[2.2250738585072014e-308,2.2250738585072014e-308]},{"bufferView":5,"byteOffset":0,"componentType":5125,"count":8769,"type":"SCALAR","max":[1664],"min":[0]}],"buffers":[{"byteLength":154184,"uri":"tile_0257.bin"}],"bufferViews":[{"buffer":0,"byteOffset":0,"byteLength":27804,"target":34962},{"buffer":0,"byteOffset":27804,"byteLength":18536,"target":34962},{"buffer":0,"byteOffset":46340,"byteLength":39468,"target":34963},{"buffer":0,"byteOffset":85808,"byteLength":19980,"target":34962},{"buffer":0,"byteOffset":105788,"byteLength":13320,"target":34962},{"buffer":0,"byteOffset":119108,"byteLength":35076,"target":34963}],"images":[{"uri":"../textures/tile_0257_material_0.jpg"},{"uri":"../textures/tile_0257_material_1.jpg"}],"materials":[{"name":"DefaultMaterial","pbrMetallicRoughness":{"baseColorFactor":[0.6000000238418579,0.6000000238418579,0.6000000238418579,1.0],"metallicFactor":0.0},"extensions":{"KHR_materials_specular":{"specularFactor":1.0,"specularColorFactor":[0.0,0.0,0.0]},"KHR_materials_ior":{"ior":1.0}}},{"name":"material_0_material","pbrMetallicRoughness":{"baseColorTexture":{"index":0},"metallicFactor":0.0},"extensions":{"KHR_materials_specular":{"specularFactor":1.0,"specularColorFactor":[0.0,0.0,0.0]},"KHR_materials_ior":{"ior":1.0}}},{"name":"material_1_material","pbrMetallicRoughness":{"baseColorTexture":{"index":1},"metallicFactor":0.0},"extensions":{"KHR_materials_specular":{"specularFactor":1.0,"specularColorFactor":[0.0,0.0,0.0]},"KHR_materials_ior":{"ior":1.0}}}],"meshes":[{"name":"defaultobject","primitives":[{"mode":4,"material":1,"indices":2,"attributes":{"POSITION":0,"TEXCOORD_0":1}},{"mode":4,"material":2,"indices":5,"attributes":{"POSITION":3,"TEXCOORD_0":4}}]}],"nodes":[{"name":"tile_0257.obj","children":[1]},{"name":"defaultobject","mesh":0}],"samplers":[{},{}],"scenes":[{"nodes":[0]}],"textures":[{"source":0,"sampler":0},{"source":1,"sampler":1}],"scene":0}
