{"asset":{"version":"2.0","generator":"Open Asset Import Library (assimp v6.0.0)"},"extensionsUsed":["KHR_materials_specular","KHR_materials_volume","KHR_materials_ior","FB_ngon_encoding"],"accessors":[{"bufferView":0,"byteOffset":0,"componentType":5126,"count":6147,"type":"VEC3","max":[2.900310754776001,-1.4948309659957886,0.6904299259185791],"min":[-0.10455229878425598,-1.684030294418335,2.2250738585072014e-308]},{"bufferView":1,"byteOffset":0,"componentType":5126,"count":6147,"type":"VEC2","max":[0.992530345916748,0.6054534912109375],"min":[2.2250738585072014e-308,2.2250738585072014e-308]},{"bufferView":2,"byteOffset":0,"componentType":5125,"count":24294,"type":"SCALAR","max":[6146],"min":[0]},{"bufferView":3,"byteOffset":0,"componentType":5126,"count":539,"type":"VEC3","max":[0.6559223532676697,-1.500627875328064,0.6253849864006042],"min":[-0.08867722004652023,-1.6833322048187256,2.2250738585072014e-308]},{"bufferView":4,"byteOffset":0,"componentType":5126,"count":539,"type":"VEC2","max":[0.5733203887939453,0.5504989624023438],"min":[2.2250738585072014e-308,2.2250738585072014e-308]},{"bufferView":5,"byteOffset":0,"componentType":5125,"count":2700,"type":"SCALAR","max":[538],"min":[0]}],"buffers":[{"byteLength":241696,"uri":"tile_0019.bin"}],"bufferViews":[{"buffer":0,"byteOffset":0,"byteLength":73764,"target":34962},{"buffer":0,"byteOffset":73764,"byteLength":49176,"target":34962},{"buffer":0,"byteOffset":122940,"byteLength":97176,"target":34963},{"buffer":0,"byteOffset":220116,"byteLength":6468,"target":34962},{"buffer":0,"byteOffset":226584,"byteLength":4312,"target":34962},{"buffer":0,"byteOffset":230896,"byteLength":10800,"target":34963}],"images":[{"uri":"../textures/tile_0019_material_0.jpg"},{"uri":"../textures/tile_0019_material_1.jpg"}],"materials":[{"name":"DefaultMaterial","pbrMetallicRoughness":{"baseColorFactor":[0.6000000238418579,0.6000000238418579,0.6000000238418579,1.0],"metallicFactor":0.0},"extensions":{"KHR_materials_specular":{"specularFactor":1.0,"specularColorFactor":[0.0,0.0,0.0]},"KHR_materials_ior":{"ior":1.0}}},{"name":"material_0_material","pbrMetallicRoughness":{"baseColorTexture":{"index":0},"metallicFactor":0.0},"extensions":{"KHR_materials_specular":{"specularFactor":1.0,"specularColorFactor":[0.0,0.0,0.0]},"KHR_materials_ior":{"ior":1.0}}},{"name":"material_1_material","pbrMetallicRoughness":{"baseColorTexture":{"index":1},"metallicFactor":0.0},"extensions":{"KHR_materials_specular":{"specularFactor":1.0,"specularColorFactor":[0.0,0.0,0.0]},"KHR_materials_ior":{"ior":1.0}}}],"meshes":[{"name":"defaultobject","primitives":[{"mode":4,"material":1,"indices":2,"attributes":{"POSITION":0,"TEXCOORD_0":1}},{"mode":4,"material":2,"indices":5,"attributes":{"POSITION":3,"TEXCOORD_0":4}}]}],"nodes":[{"name":"tile_0019.obj","children":[1]},{"name":"defaultobject","mesh":0}],"samplers":[{},{}],"scenes":[{"nodes":[0]}],"textures":[{"source":0,"sampler":0},{"source":1,"sampler":1}],"scene":0}
