{"asset":{"version":"2.0","generator":"Open Asset Import Library (assimp v6.0.0)"},"extensionsUsed":["KHR_materials_specular","KHR_materials_volume","KHR_materials_ior","FB_ngon_encoding"],"accessors":[{"bufferView":0,"byteOffset":0,"componentType":5126,"count":5660,"type":"VEC3","max":[3.8274102210998535,-1.2815370559692383,-0.047561850398778915],"min":[2.2250738585072014e-308,-1.5510530471801758,-1.0093348026275635]},{"bufferView":1,"byteOffset":0,"componentType":5126,"count":5660,"type":"VEC2","max":[0.9869985580444336,0.7494716644287109],"min":[2.2250738585072014e-308,2.2250738585072014e-308]},{"bufferView":2,"byteOffset":0,"componentType":5125,"count":24666,"type":"SCALAR","max":[5659],"min":[0]},{"bufferView":3,"byteOffset":0,"componentType":5126,"count":748,"type":"VEC3","max":[3.8238232135772705,-1.2992194890975952,-0.5483837127685547],"min":[2.2250738585072014e-308,-1.5156515836715698,-0.8023961186408997]},{"bufferView":4,"byteOffset":0,"componentType":5126,"count":748,"type":"VEC2","max":[0.665034294128418,0.7517166137695312],"min":[2.2250738585072014e-308,2.2250738585072014e-308]},{"bufferView":5,"byteOffset":0,"componentType":5125,"count":3741,"type":"SCALAR","max":[747],"min":[0]}],"buffers":[{"byteLength":241788,"uri":"tile_0641.bin"}],"bufferViews":[{"buffer":0,"byteOffset":0,"byteLength":67920,"target":34962},{"buffer":0,"byteOffset":67920,"byteLength":45280,"target":34962},{"buffer":0,"byteOffset":113200,"byteLength":98664,"target":34963},{"buffer":0,"byteOffset":211864,"byteLength":8976,"target":34962},{"buffer":0,"byteOffset":220840,"byteLength":5984,"target":34962},{"buffer":0,"byteOffset":226824,"byteLength":14964,"target":34963}],"images":[{"uri":"../textures/tile_0641_material_0.jpg"},{"uri":"../textures/tile_0641_material_1.jpg"}],"materials":[{"name":"DefaultMaterial","pbrMetallicRoughness":{"baseColorFactor":[0.6000000238418579,0.6000000238418579,0.6000000238418579,1.0],"metallicFactor":0.0},"extensions":{"KHR_materials_specular":{"specularFactor":1.0,"specularColorFactor":[0.0,0.0,0.0]},"KHR_materials_ior":{"ior":1.0}}},{"name":"material_0_material","pbrMetallicRoughness":{"baseColorTexture":{"index":0},"metallicFactor":0.0},"extensions":{"KHR_materials_specular":{"specularFactor":1.0,"specularColorFactor":[0.0,0.0,0.0]},"KHR_materials_ior":{"ior":1.0}}},{"name":"material_1_material","pbrMetallicRoughness":{"baseColorTexture":{"index":1},"metallicFactor":0.0},"extensions":{"KHR_materials_specular":{"specularFactor":1.0,"specularColorFactor":[0.0,0.0,0.0]},"KHR_materials_ior":{"ior":1.0}}}],"meshes":[{"name":"defaultobject","primitives":[{"mode":4,"material":1,"indices":2,"attributes":{"POSITION":0,"TEXCOORD_0":1}},{"mode":4,"material":2,"indices":5,"attributes":{"POSITION":3,"TEXCOORD_0":4}}]}],"nodes":[{"name":"tile_0641.obj","children":[1]},{"name":"defaultobject","mesh":0}],"samplers":[{},{}],"scenes":[{"nodes":[0]}],"textures":[{"source":0,"sampler":0},{"source":1,"sampler":1}],"scene":0}
