{"asset":{"version":"2.0","generator":"Open Asset Import Library (assimp v6.0.0)"},"extensionsUsed":["KHR_materials_specular","KHR_materials_volume","KHR_materials_ior","FB_ngon_encoding"],"accessors":[{"bufferView":0,"byteOffset":0,"componentType":5126,"count":8669,"type":"VEC3","max":[2.5272021293640137,-2.024437189102173,1.0349444150924683],"min":[2.2250738585072014e-308,-2.2810614109039307,2.2250738585072014e-308]},{"bufferView":1,"byteOffset":0,"componentType":5126,"count":8669,"type":"VEC2","max":[0.9919792413711548,0.8043098449707031],"min":[2.2250738585072014e-308,2.2250738585072014e-308]},{"bufferView":2,"byteOffset":0,"componentType":5125,"count":35130,"type":"SCALAR","max":[8668],"min":[0]},{"bufferView":3,"byteOffset":0,"componentType":5126,"count":3,"type":"VEC3","max":[1.8329261541366577,-2.200629472732544,1.0683205127716064],"min":[2.2250738585072014e-308,-2.3061792850494385,2.2250738585072014e-308]},{"bufferView":4,"byteOffset":0,"componentType":5126,"count":3,"type":"VEC2","max":[0.8323326110839844,0.5189895629882812],"min":[2.2250738585072014e-308,2.2250738585072014e-308]},{"bufferView":5,"byteOffset":0,"componentType":5125,"count":3,"type":"SCALAR","max":[2],"min":[0]}],"buffers":[{"byteLength":313972,"uri":"tile_0243.bin"}],"bufferViews":[{"buffer":0,"byteOffset":0,"byteLength":104028,"target":34962},{"buffer":0,"byteOffset":104028,"byteLength":69352,"target":34962},{"buffer":0,"byteOffset":173380,"byteLength":140520,"target":34963},{"buffer":0,"byteOffset":313900,"byteLength":36,"target":34962},{"buffer":0,"byteOffset":313936,"byteLength":24,"target":34962},{"buffer":0,"byteOffset":313960,"byteLength":12,"target":34963}],"images":[{"uri":"../textures/tile_0243_material_0.jpg"},{"uri":"../textures/tile_0243_material_1.jpg"}],"materials":[{"name":"DefaultMaterial","pbrMetallicRoughness":{"baseColorFactor":[0.6000000238418579,0.6000000238418579,0.6000000238418579,1.0],"metallicFactor":0.0},"extensions":{"KHR_materials_specular":{"specularFactor":1.0,"specularColorFactor":[0.0,0.0,0.0]},"KHR_materials_ior":{"ior":1.0}}},{"name":"material_0_material","pbrMetallicRoughness":{"baseColorTexture":{"index":0},"metallicFactor":0.0},"extensions":{"KHR_materials_specular":{"specularFactor":1.0,"specularColorFactor":[0.0,0.0,0.0]},"KHR_materials_ior":{"ior":1.0}}},{"name":"material_1_material","pbrMetallicRoughness":{"baseColorTexture":{"index":1},"metallicFactor":0.0},"extensions":{"KHR_materials_specular":{"specularFactor":1.0,"specularColorFactor":[0.0,0.0,0.0]},"KHR_materials_ior":{"ior":1.0}}}],"meshes":[{"name":"defaultobject","primitives":[{"mode":4,"material":1,"indices":2,"attributes":{"POSITION":0,"TEXCOORD_0":1}},{"mode":4,"material":2,"indices":5,"attributes":{"POSITION":3,"TEXCOORD_0":4}}]}],"nodes":[{"name":"tile_0243.obj","children":[1]},{"name":"defaultobject","mesh":0}],"samplers":[{},{}],"scenes":[{"nodes":[0]}],"textures":[{"source":0,"sampler":0},{"source":1,"sampler":1}],"scene":0}
