{"asset":{"version":"2.0","generator":"Open Asset Import Library (assimp v6.0.0)"},"extensionsUsed":["KHR_materials_specular","KHR_materials_volume","KHR_materials_ior","FB_ngon_encoding"],"accessors":[{"bufferView":0,"byteOffset":0,"componentType":5126,"count":4644,"type":"VEC3","max":[1.016554832458496,-3.142287492752075,2.155913829803467],"min":[2.2250738585072014e-308,-3.3734304904937744,2.2250738585072014e-308]},{"bufferView":1,"byteOffset":0,"componentType":5126,"count":4644,"type":"VEC2","max":[0.9932091236114502,0.5779075622558594],"min":[2.2250738585072014e-308,2.2250738585072014e-308]},{"bufferView":2,"byteOffset":0,"componentType":5125,"count":19221,"type":"SCALAR","max":[4643],"min":[0]},{"bufferView":3,"byteOffset":0,"componentType":5126,"count":23,"type":"VEC3","max":[1.0329598188400269,-3.1420891284942627,2.079318046569824],"min":[2.2250738585072014e-308,-3.1537022590637207,2.2250738585072014e-308]},{"bufferView":4,"byteOffset":0,"componentType":5126,"count":23,"type":"VEC2","max":[0.5782566070556641,0.6655426025390625],"min":[2.2250738585072014e-308,2.2250738585072014e-308]},{"bufferView":5,"byteOffset":0,"componentType":5125,"count":39,"type":"SCALAR","max":[22],"min":[0]}],"buffers":[{"byteLength":170380,"uri":"tile_0322.bin"}],"bufferViews":[{"buffer":0,"byteOffset":0,"byteLength":55728,"target":34962},{"buffer":0,"byteOffset":55728,"byteLength":37152,"target":34962},{"buffer":0,"byteOffset":92880,"byteLength":76884,"target":34963},{"buffer":0,"byteOffset":169764,"byteLength":276,"target":34962},{"buffer":0,"byteOffset":170040,"byteLength":184,"target":34962},{"buffer":0,"byteOffset":170224,"byteLength":156,"target":34963}],"images":[{"uri":"../textures/tile_0322_material_0.jpg"},{"uri":"../textures/tile_0322_material_1.jpg"}],"materials":[{"name":"DefaultMaterial","pbrMetallicRoughness":{"baseColorFactor":[0.6000000238418579,0.6000000238418579,0.6000000238418579,1.0],"metallicFactor":0.0},"extensions":{"KHR_materials_specular":{"specularFactor":1.0,"specularColorFactor":[0.0,0.0,0.0]},"KHR_materials_ior":{"ior":1.0}}},{"name":"material_0_material","pbrMetallicRoughness":{"baseColorTexture":{"index":0},"metallicFactor":0.0},"extensions":{"KHR_materials_specular":{"specularFactor":1.0,"specularColorFactor":[0.0,0.0,0.0]},"KHR_materials_ior":{"ior":1.0}}},{"name":"material_1_material","pbrMetallicRoughness":{"baseColorTexture":{"index":1},"metallicFactor":0.0},"extensions":{"KHR_materials_specular":{"specularFactor":1.0,"specularColorFactor":[0.0,0.0,0.0]},"KHR_materials_ior":{"ior":1.0}}}],"meshes":[{"name":"defaultobject","primitives":[{"mode":4,"material":1,"indices":2,"attributes":{"POSITION":0,"TEXCOORD_0":1}},{"mode":4,"material":2,"indices":5,"attributes":{"POSITION":3,"TEXCOORD_0":4}}]}],"nodes":[{"name":"tile_0322.obj","children":[1]},{"name":"defaultobject","mesh":0}],"samplers":[{},{}],"scenes":[{"nodes":[0]}],"textures":[{"source":0,"sampler":0},{"source":1,"sampler":1}],"scene":0}
