{"asset":{"version":"2.0","generator":"Open Asset Import Library (assimp v6.0.0)"},"extensionsUsed":["KHR_materials_specular","KHR_materials_volume","KHR_materials_ior","FB_ngon_encoding"],"accessors":[{"bufferView":0,"byteOffset":0,"componentType":5126,"count":8343,"type":"VEC3","max":[3.3239729404449463,-0.05165325477719307,0.28421783447265625],"min":[2.2250738585072014e-308,-0.2032374143600464,2.2250738585072014e-308]},{"bufferView":1,"byteOffset":0,"componentType":5126,"count":8343,"type":"VEC2","max":[0.9959070682525635,0.7851505279541016],"min":[2.2250738585072014e-308,2.2250738585072014e-308]},{"bufferView":2,"byteOffset":0,"componentType":5125,"count":26910,"type":"SCALAR","max":[8342],"min":[0]},{"bufferView":3,"byteOffset":0,"componentType":5126,"count":1341,"type":"VEC3","max":[3.2576100826263428,-0.05550094693899155,0.28421783447265625],"min":[2.2250738585072014e-308,-0.2118005007505417,2.2250738585072014e-308]},{"bufferView":4,"byteOffset":0,"componentType":5126,"count":1341,"type":"VEC2","max":[0.6498193740844727,0.7745246887207031],"min":[2.2250738585072014e-308,2.2250738585072014e-308]},{"bufferView":5,"byteOffset":0,"componentType":5125,"count":5196,"type":"SCALAR","max":[1340],"min":[0]}],"buffers":[{"byteLength":322104,"uri":"tile_0480.bin"}],"bufferViews":[{"buffer":0,"byteOffset":0,"byteLength":100116,"target":34962},{"buffer":0,"byteOffset":100116,"byteLength":66744,"target":34962},{"buffer":0,"byteOffset":166860,"byteLength":107640,"target":34963},{"buffer":0,"byteOffset":274500,"byteLength":16092,"target":34962},{"buffer":0,"byteOffset":290592,"byteLength":10728,"target":34962},{"buffer":0,"byteOffset":301320,"byteLength":20784,"target":34963}],"images":[{"uri":"../textures/tile_0480_material_0.jpg"},{"uri":"../textures/tile_0480_material_1.jpg"}],"materials":[{"name":"DefaultMaterial","pbrMetallicRoughness":{"baseColorFactor":[0.6000000238418579,0.6000000238418579,0.6000000238418579,1.0],"metallicFactor":0.0},"extensions":{"KHR_materials_specular":{"specularFactor":1.0,"specularColorFactor":[0.0,0.0,0.0]},"KHR_materials_ior":{"ior":1.0}}},{"name":"material_0_material","pbrMetallicRoughness":{"baseColorTexture":{"index":0},"metallicFactor":0.0},"extensions":{"KHR_materials_specular":{"specularFactor":1.0,"specularColorFactor":[0.0,0.0,0.0]},"KHR_materials_ior":{"ior":1.0}}},{"name":"material_1_material","pbrMetallicRoughness":{"baseColorTexture":{"index":1},"metallicFactor":0.0},"extensions":{"KHR_materials_specular":{"specularFactor":1.0,"specularColorFactor":[0.0,0.0,0.0]},"KHR_materials_ior":{"ior":1.0}}}],"meshes":[{"name":"defaultobject","primitives":[{"mode":4,"material":1,"indices":2,"attributes":{"POSITION":0,"TEXCOORD_0":1}},{"mode":4,"material":2,"indices":5,"attributes":{"POSITION":3,"TEXCOORD_0":4}}]}],"nodes":[{"name":"tile_0480.obj","children":[1]},{"name":"defaultobject","mesh":0}],"samplers":[{},{}],"scenes":[{"nodes":[0]}],"textures":[{"source":0,"sampler":0},{"source":1,"sampler":1}],"scene":0}
