{"asset":{"version":"2.0","generator":"Open Asset Import Library (assimp v6.0.0)"},"extensionsUsed":["KHR_materials_specular","KHR_materials_volume","KHR_materials_ior","FB_ngon_encoding"],"accessors":[{"bufferView":0,"byteOffset":0,"componentType":5126,"count":2407,"type":"VEC3","max":[1.36355459690094,0.37706777453422546,1.8487626314163208],"min":[2.2250738585072014e-308,2.2250738585072014e-308,2.2250738585072014e-308]},{"bufferView":1,"byteOffset":0,"componentType":5126,"count":2407,"type":"VEC2","max":[0.9942744374275208,0.6796150207519531],"min":[2.2250738585072014e-308,2.2250738585072014e-308]},{"bufferView":2,"byteOffset":0,"componentType":5125,"count":7470,"type":"SCALAR","max":[2406],"min":[0]},{"bufferView":3,"byteOffset":0,"componentType":5126,"count":2503,"type":"VEC3","max":[0.420554518699646,0.37680670619010925,1.8487262725830078],"min":[2.2250738585072014e-308,2.2250738585072014e-308,2.2250738585072014e-308]},{"bufferView":4,"byteOffset":0,"componentType":5126,"count":2503,"type":"VEC2","max":[0.7557764053344727,0.7910041809082031],"min":[2.2250738585072014e-308,2.2250738585072014e-308]},{"bufferView":5,"byteOffset":0,"componentType":5125,"count":12243,"type":"SCALAR","max":[2502],"min":[0]}],"buffers":[{"byteLength":177052,"uri":"tile_0443.bin"}],"bufferViews":[{"buffer":0,"byteOffset":0,"byteLength":28884,"target":34962},{"buffer":0,"byteOffset":28884,"byteLength":19256,"target":34962},{"buffer":0,"byteOffset":48140,"byteLength":29880,"target":34963},{"buffer":0,"byteOffset":78020,"byteLength":30036,"target":34962},{"buffer":0,"byteOffset":108056,"byteLength":20024,"target":34962},{"buffer":0,"byteOffset":128080,"byteLength":48972,"target":34963}],"images":[{"uri":"../textures/tile_0443_material_0.jpg"},{"uri":"../textures/tile_0443_material_1.jpg"}],"materials":[{"name":"DefaultMaterial","pbrMetallicRoughness":{"baseColorFactor":[0.6000000238418579,0.6000000238418579,0.6000000238418579,1.0],"metallicFactor":0.0},"extensions":{"KHR_materials_specular":{"specularFactor":1.0,"specularColorFactor":[0.0,0.0,0.0]},"KHR_materials_ior":{"ior":1.0}}},{"name":"material_0_material","pbrMetallicRoughness":{"baseColorTexture":{"index":0},"metallicFactor":0.0},"extensions":{"KHR_materials_specular":{"specularFactor":1.0,"specularColorFactor":[0.0,0.0,0.0]},"KHR_materials_ior":{"ior":1.0}}},{"name":"material_1_material","pbrMetallicRoughness":{"baseColorTexture":{"index":1},"metallicFactor":0.0},"extensions":{"KHR_materials_specular":{"specularFactor":1.0,"specularColorFactor":[0.0,0.0,0.0]},"KHR_materials_ior":{"ior":1.0}}}],"meshes":[{"name":"defaultobject","primitives":[{"mode":4,"material":1,"indices":2,"attributes":{"POSITION":0,"TEXCOORD_0":1}},{"mode":4,"material":2,"indices":5,"attributes":{"POSITION":3,"TEXCOORD_0":4}}]}],"nodes":[{"name":"tile_0443.obj","children":[1]},{"name":"defaultobject","mesh":0}],"samplers":[{},{}],"scenes":[{"nodes":[0]}],"textures":[{"source":0,"sampler":0},{"source":1,"sampler":1}],"scene":0}
