{"asset":{"version":"2.0","generator":"Open Asset Import Library (assimp v6.0.0)"},"extensionsUsed":["KHR_materials_specular","KHR_materials_volume","KHR_materials_ior","FB_ngon_encoding"],"accessors":[{"bufferView":0,"byteOffset":0,"componentType":5126,"count":7258,"type":"VEC3","max":[3.8282582759857178,0.6300890445709229,-0.1157640591263771],"min":[2.2250738585072014e-308,2.2250738585072014e-308,-0.656194806098938]},{"bufferView":1,"byteOffset":0,"componentType":5126,"count":7258,"type":"VEC2","max":[0.9935164451599121,0.7811851501464844],"min":[2.2250738585072014e-308,2.2250738585072014e-308]},{"bufferView":2,"byteOffset":0,"componentType":5125,"count":28032,"type":"SCALAR","max":[7257],"min":[0]},{"bufferView":3,"byteOffset":0,"componentType":5126,"count":274,"type":"VEC3","max":[3.825392484664917,0.5764216780662537,-0.3610535264015198],"min":[2.2250738585072014e-308,2.2250738585072014e-308,-0.5493742823600769]},{"bufferView":4,"byteOffset":0,"componentType":5126,"count":274,"type":"VEC2","max":[0.6327991485595703,0.5059127807617188],"min":[2.2250738585072014e-308,2.2250738585072014e-308]},{"bufferView":5,"byteOffset":0,"componentType":5125,"count":1191,"type":"SCALAR","max":[273],"min":[0]}],"buffers":[{"byteLength":267532,"uri":"tile_0115.bin"}],"bufferViews":[{"buffer":0,"byteOffset":0,"byteLength":87096,"target":34962},{"buffer":0,"byteOffset":87096,"byteLength":58064,"target":34962},{"buffer":0,"byteOffset":145160,"byteLength":112128,"target":34963},{"buffer":0,"byteOffset":257288,"byteLength":3288,"target":34962},{"buffer":0,"byteOffset":260576,"byteLength":2192,"target":34962},{"buffer":0,"byteOffset":262768,"byteLength":4764,"target":34963}],"images":[{"uri":"../textures/tile_0115_material_0.jpg"},{"uri":"../textures/tile_0115_material_1.jpg"}],"materials":[{"name":"DefaultMaterial","pbrMetallicRoughness":{"baseColorFactor":[0.6000000238418579,0.6000000238418579,0.6000000238418579,1.0],"metallicFactor":0.0},"extensions":{"KHR_materials_specular":{"specularFactor":1.0,"specularColorFactor":[0.0,0.0,0.0]},"KHR_materials_ior":{"ior":1.0}}},{"name":"material_0_material","pbrMetallicRoughness":{"baseColorTexture":{"index":0},"metallicFactor":0.0},"extensions":{"KHR_materials_specular":{"specularFactor":1.0,"specularColorFactor":[0.0,0.0,0.0]},"KHR_materials_ior":{"ior":1.0}}},{"name":"material_1_material","pbrMetallicRoughness":{"baseColorTexture":{"index":1},"metallicFactor":0.0},"extensions":{"KHR_materials_specular":{"specularFactor":1.0,"specularColorFactor":[0.0,0.0,0.0]},"KHR_materials_ior":{"ior":1.0}}}],"meshes":[{"name":"defaultobject","primitives":[{"mode":4,"material":1,"indices":2,"attributes":{"POSITION":0,"TEXCOORD_0":1}},{"mode":4,"material":2,"indices":5,"attributes":{"POSITION":3,"TEXCOORD_0":4}}]}],"nodes":[{"name":"tile_0115.obj","children":[1]},{"name":"defaultobject","mesh":0}],"samplers":[{},{}],"scenes":[{"nodes":[0]}],"textures":[{"source":0,"sampler":0},{"source":1,"sampler":1}],"scene":0}
