{"asset":{"version":"2.0","generator":"Open Asset Import Library (assimp v6.0.0)"},"extensionsUsed":["KHR_materials_specular","KHR_materials_volume","KHR_materials_ior","FB_ngon_encoding"],"accessors":[{"bufferView":0,"byteOffset":0,"componentType":5126,"count":8293,"type":"VEC3","max":[3.263472557067871,-0.7141508460044861,0.1871497929096222],"min":[2.2250738585072014e-308,-0.9725245237350464,2.2250738585072014e-308]},{"bufferView":1,"byteOffset":0,"componentType":5126,"count":8293,"type":"VEC2","max":[0.990513801574707,0.855438232421875],"min":[2.2250738585072014e-308,2.2250738585072014e-308]},{"bufferView":2,"byteOffset":0,"componentType":5125,"count":29232,"type":"SCALAR","max":[8292],"min":[0]},{"bufferView":3,"byteOffset":0,"componentType":5126,"count":547,"type":"VEC3","max":[0.7096911072731018,-0.7162347435951233,0.1837504804134369],"min":[2.2250738585072014e-308,-0.9690070152282715,2.2250738585072014e-308]},{"bufferView":4,"byteOffset":0,"componentType":5126,"count":547,"type":"VEC2","max":[0.7006740570068359,0.482330322265625],"min":[2.2250738585072014e-308,2.2250738585072014e-308]},{"bufferView":5,"byteOffset":0,"componentType":5125,"count":2328,"type":"SCALAR","max":[546],"min":[0]}],"buffers":[{"byteLength":303040,"uri":"tile_0177.bin"}],"bufferViews":[{"buffer":0,"byteOffset":0,"byteLength":99516,"target":34962},{"buffer":0,"byteOffset":99516,"byteLength":66344,"target":34962},{"buffer":0,"byteOffset":165860,"byteLength":116928,"target":34963},{"buffer":0,"byteOffset":282788,"byteLength":6564,"target":34962},{"buffer":0,"byteOffset":289352,"byteLength":4376,"target":34962},{"buffer":0,"byteOffset":293728,"byteLength":9312,"target":34963}],"images":[{"uri":"../textures/tile_0177_material_0.jpg"},{"uri":"../textures/tile_0177_material_1.jpg"}],"materials":[{"name":"DefaultMaterial","pbrMetallicRoughness":{"baseColorFactor":[0.6000000238418579,0.6000000238418579,0.6000000238418579,1.0],"metallicFactor":0.0},"extensions":{"KHR_materials_specular":{"specularFactor":1.0,"specularColorFactor":[0.0,0.0,0.0]},"KHR_materials_ior":{"ior":1.0}}},{"name":"material_0_material","pbrMetallicRoughness":{"baseColorTexture":{"index":0},"metallicFactor":0.0},"extensions":{"KHR_materials_specular":{"specularFactor":1.0,"specularColorFactor":[0.0,0.0,0.0]},"KHR_materials_ior":{"ior":1.0}}},{"name":"material_1_material","pbrMetallicRoughness":{"baseColorTexture":{"index":1},"metallicFactor":0.0},"extensions":{"KHR_materials_specular":{"specularFactor":1.0,"specularColorFactor":[0.0,0.0,0.0]},"KHR_materials_ior":{"ior":1.0}}}],"meshes":[{"name":"defaultobject","primitives":[{"mode":4,"material":1,"indices":2,"attributes":{"POSITION":0,"TEXCOORD_0":1}},{"mode":4,"material":2,"indices":5,"attributes":{"POSITION":3,"TEXCOORD_0":4}}]}],"nodes":[{"name":"tile_0177.obj","children":[1]},{"name":"defaultobject","mesh":0}],"samplers":[{},{}],"scenes":[{"nodes":[0]}],"textures":[{"source":0,"sampler":0},{"source":1,"sampler":1}],"scene":0}
