{"asset":{"version":"2.0","generator":"Open Asset Import Library (assimp v6.0.0)"},"extensionsUsed":["KHR_materials_specular","KHR_materials_volume","KHR_materials_ior","FB_ngon_encoding"],"accessors":[{"bufferView":0,"byteOffset":0,"componentType":5126,"count":10155,"type":"VEC3","max":[3.4293694496154785,1.3024767637252808,0.1995205283164978],"min":[2.2250738585072014e-308,2.2250738585072014e-308,2.2250738585072014e-308]},{"bufferView":1,"byteOffset":0,"componentType":5126,"count":10155,"type":"VEC2","max":[0.9950079917907715,0.9491653442382812],"min":[2.2250738585072014e-308,2.2250738585072014e-308]},{"bufferView":2,"byteOffset":0,"componentType":5125,"count":36837,"type":"SCALAR","max":[10154],"min":[0]},{"bufferView":3,"byteOffset":0,"componentType":5126,"count":78,"type":"VEC3","max":[2.8287885189056396,1.2981276512145996,0.18216626346111298],"min":[2.2250738585072014e-308,2.2250738585072014e-308,2.2250738585072014e-308]},{"bufferView":4,"byteOffset":0,"componentType":5126,"count":78,"type":"VEC2","max":[0.834785521030426,0.814666748046875],"min":[2.2250738585072014e-308,2.2250738585072014e-308]},{"bufferView":5,"byteOffset":0,"componentType":5125,"count":333,"type":"SCALAR","max":[77],"min":[0]}],"buffers":[{"byteLength":353340,"uri":"tile_0528.bin"}],"bufferViews":[{"buffer":0,"byteOffset":0,"byteLength":121860,"target":34962},{"buffer":0,"byteOffset":121860,"byteLength":81240,"target":34962},{"buffer":0,"byteOffset":203100,"byteLength":147348,"target":34963},{"buffer":0,"byteOffset":350448,"byteLength":936,"target":34962},{"buffer":0,"byteOffset":351384,"byteLength":624,"target":34962},{"buffer":0,"byteOffset":352008,"byteLength":1332,"target":34963}],"images":[{"uri":"../textures/tile_0528_material_0.jpg"},{"uri":"../textures/tile_0528_material_1.jpg"}],"materials":[{"name":"DefaultMaterial","pbrMetallicRoughness":{"baseColorFactor":[0.6000000238418579,0.6000000238418579,0.6000000238418579,1.0],"metallicFactor":0.0},"extensions":{"KHR_materials_specular":{"specularFactor":1.0,"specularColorFactor":[0.0,0.0,0.0]},"KHR_materials_ior":{"ior":1.0}}},{"name":"material_0_material","pbrMetallicRoughness":{"baseColorTexture":{"index":0},"metallicFactor":0.0},"extensions":{"KHR_materials_specular":{"specularFactor":1.0,"specularColorFactor":[0.0,0.0,0.0]},"KHR_materials_ior":{"ior":1.0}}},{"name":"material_1_material","pbrMetallicRoughness":{"baseColorTexture":{"index":1},"metallicFactor":0.0},"extensions":{"KHR_materials_specular":{"specularFactor":1.0,"specularColorFactor":[0.0,0.0,0.0]},"KHR_materials_ior":{"ior":1.0}}}],"meshes":[{"name":"defaultobject","primitives":[{"mode":4,"material":1,"indices":2,"attributes":{"POSITION":0,"TEXCOORD_0":1}},{"mode":4,"material":2,"indices":5,"attributes":{"POSITION":3,"TEXCOORD_0":4}}]}],"nodes":[{"name":"tile_0528.obj","children":[1]},{"name":"defaultobject","mesh":0}],"samplers":[{},{}],"scenes":[{"nodes":[0]}],"textures":[{"source":0,"sampler":0},{"source":1,"sampler":1}],"scene":0}
