{"asset":{"version":"2.0","generator":"Open Asset Import Library (assimp v6.0.0)"},"extensionsUsed":["KHR_materials_specular","KHR_materials_volume","KHR_materials_ior","FB_ngon_encoding"],"accessors":[{"bufferView":0,"byteOffset":0,"componentType":5126,"count":6883,"type":"VEC3","max":[3.475599527359009,-0.07014741003513336,0.00835870485752821],"min":[2.2250738585072014e-308,-0.18491379916667938,-0.07648526132106781]},{"bufferView":1,"byteOffset":0,"componentType":5126,"count":6883,"type":"VEC2","max":[0.9871282577514648,0.6052608489990234],"min":[2.2250738585072014e-308,2.2250738585072014e-308]},{"bufferView":2,"byteOffset":0,"componentType":5125,"count":28122,"type":"SCALAR","max":[6882],"min":[0]},{"bufferView":3,"byteOffset":0,"componentType":5126,"count":72,"type":"VEC3","max":[3.0934298038482666,-0.07315892726182938,-0.0008899394888430834],"min":[2.2250738585072014e-308,-0.14820106327533722,-0.020363636314868927]},{"bufferView":4,"byteOffset":0,"componentType":5126,"count":72,"type":"VEC2","max":[0.7095127105712891,0.696533203125],"min":[2.2250738585072014e-308,2.2250738585072014e-308]},{"bufferView":5,"byteOffset":0,"componentType":5125,"count":246,"type":"SCALAR","max":[71],"min":[0]}],"buffers":[{"byteLength":252572,"uri":"tile_0496.bin"}],"bufferViews":[{"buffer":0,"byteOffset":0,"byteLength":82596,"target":34962},{"buffer":0,"byteOffset":82596,"byteLength":55064,"target":34962},{"buffer":0,"byteOffset":137660,"byteLength":112488,"target":34963},{"buffer":0,"byteOffset":250148,"byteLength":864,"target":34962},{"buffer":0,"byteOffset":251012,"byteLength":576,"target":34962},{"buffer":0,"byteOffset":251588,"byteLength":984,"target":34963}],"images":[{"uri":"../textures/tile_0496_material_0.jpg"},{"uri":"../textures/tile_0496_material_1.jpg"}],"materials":[{"name":"DefaultMaterial","pbrMetallicRoughness":{"baseColorFactor":[0.6000000238418579,0.6000000238418579,0.6000000238418579,1.0],"metallicFactor":0.0},"extensions":{"KHR_materials_specular":{"specularFactor":1.0,"specularColorFactor":[0.0,0.0,0.0]},"KHR_materials_ior":{"ior":1.0}}},{"name":"material_0_material","pbrMetallicRoughness":{"baseColorTexture":{"index":0},"metallicFactor":0.0},"extensions":{"KHR_materials_specular":{"specularFactor":1.0,"specularColorFactor":[0.0,0.0,0.0]},"KHR_materials_ior":{"ior":1.0}}},{"name":"material_1_material","pbrMetallicRoughness":{"baseColorTexture":{"index":1},"metallicFactor":0.0},"extensions":{"KHR_materials_specular":{"specularFactor":1.0,"specularColorFactor":[0.0,0.0,0.0]},"KHR_materials_ior":{"ior":1.0}}}],"meshes":[{"name":"defaultobject","primitives":[{"mode":4,"material":1,"indices":2,"attributes":{"POSITION":0,"TEXCOORD_0":1}},{"mode":4,"material":2,"indices":5,"attributes":{"POSITION":3,"TEXCOORD_0":4}}]}],"nodes":[{"name":"tile_0496.obj","children":[1]},{"name":"defaultobject","mesh":0}],"samplers":[{},{}],"scenes":[{"nodes":[0]}],"textures":[{"source":0,"sampler":0},{"source":1,"sampler":1}],"scene":0}
