{"asset":{"version":"2.0","generator":"Open Asset Import Library (assimp v6.0.0)"},"extensionsUsed":["KHR_materials_specular","KHR_materials_volume","KHR_materials_ior","FB_ngon_encoding"],"accessors":[{"bufferView":0,"byteOffset":0,"componentType":5126,"count":3978,"type":"VEC3","max":[2.088137626647949,-0.7638959884643555,1.9446041584014893],"min":[-0.32200244069099426,-1.0065455436706543,2.2250738585072014e-308]},{"bufferView":1,"byteOffset":0,"componentType":5126,"count":3978,"type":"VEC2","max":[0.9932761192321777,0.7890281677246094],"min":[2.2250738585072014e-308,2.2250738585072014e-308]},{"bufferView":2,"byteOffset":0,"componentType":5125,"count":16200,"type":"SCALAR","max":[3977],"min":[0]},{"bufferView":3,"byteOffset":0,"componentType":5126,"count":649,"type":"VEC3","max":[0.22887729108333588,-0.758838951587677,1.9501935243606567],"min":[-0.32520195841789246,-0.9882956147193909,2.2250738585072014e-308]},{"bufferView":4,"byteOffset":0,"componentType":5126,"count":649,"type":"VEC2","max":[0.7093207836151123,0.6305389404296875],"min":[2.2250738585072014e-308,2.2250738585072014e-308]},{"bufferView":5,"byteOffset":0,"componentType":5125,"count":2898,"type":"SCALAR","max":[648],"min":[0]}],"buffers":[{"byteLength":168932,"uri":"tile_0149.bin"}],"bufferViews":[{"buffer":0,"byteOffset":0,"byteLength":47736,"target":34962},{"buffer":0,"byteOffset":47736,"byteLength":31824,"target":34962},{"buffer":0,"byteOffset":79560,"byteLength":64800,"target":34963},{"buffer":0,"byteOffset":144360,"byteLength":7788,"target":34962},{"buffer":0,"byteOffset":152148,"byteLength":5192,"target":34962},{"buffer":0,"byteOffset":157340,"byteLength":11592,"target":34963}],"images":[{"uri":"../textures/tile_0149_material_0.jpg"},{"uri":"../textures/tile_0149_material_1.jpg"}],"materials":[{"name":"DefaultMaterial","pbrMetallicRoughness":{"baseColorFactor":[0.6000000238418579,0.6000000238418579,0.6000000238418579,1.0],"metallicFactor":0.0},"extensions":{"KHR_materials_specular":{"specularFactor":1.0,"specularColorFactor":[0.0,0.0,0.0]},"KHR_materials_ior":{"ior":1.0}}},{"name":"material_0_material","pbrMetallicRoughness":{"baseColorTexture":{"index":0},"metallicFactor":0.0},"extensions":{"KHR_materials_specular":{"specularFactor":1.0,"specularColorFactor":[0.0,0.0,0.0]},"KHR_materials_ior":{"ior":1.0}}},{"name":"material_1_material","pbrMetallicRoughness":{"baseColorTexture":{"index":1},"metallicFactor":0.0},"extensions":{"KHR_materials_specular":{"specularFactor":1.0,"specularColorFactor":[0.0,0.0,0.0]},"KHR_materials_ior":{"ior":1.0}}}],"meshes":[{"name":"defaultobject","primitives":[{"mode":4,"material":1,"indices":2,"attributes":{"POSITION":0,"TEXCOORD_0":1}},{"mode":4,"material":2,"indices":5,"attributes":{"POSITION":3,"TEXCOORD_0":4}}]}],"nodes":[{"name":"tile_0149.obj","children":[1]},{"name":"defaultobject","mesh":0}],"samplers":[{},{}],"scenes":[{"nodes":[0]}],"textures":[{"source":0,"sampler":0},{"source":1,"sampler":1}],"scene":0}
