{"asset":{"version":"2.0","generator":"Open Asset Import Library (assimp v6.0.0)"},"extensionsUsed":["KHR_materials_specular","KHR_materials_volume","KHR_materials_ior","FB_ngon_encoding"],"accessors":[{"bufferView":0,"byteOffset":0,"componentType":5126,"count":4118,"type":"VEC3","max":[0.8587154746055603,-1.4078038930892944,2.8237497806549072],"min":[-0.16142848134040833,-1.5667707920074463,2.2250738585072014e-308]},{"bufferView":1,"byteOffset":0,"componentType":5126,"count":4118,"type":"VEC2","max":[0.9942045211791992,0.6102962493896484],"min":[2.2250738585072014e-308,2.2250738585072014e-308]},{"bufferView":2,"byteOffset":0,"componentType":5125,"count":19155,"type":"SCALAR","max":[4117],"min":[0]},{"bufferView":3,"byteOffset":0,"componentType":5126,"count":988,"type":"VEC3","max":[0.898424506187439,-1.3818893432617188,2.8178772926330566],"min":[2.2250738585072014e-308,-1.5699619054794312,2.2250738585072014e-308]},{"bufferView":4,"byteOffset":0,"componentType":5126,"count":988,"type":"VEC2","max":[0.7110471725463867,0.8758811950683594],"min":[2.2250738585072014e-308,2.2250738585072014e-308]},{"bufferView":5,"byteOffset":0,"componentType":5125,"count":4947,"type":"SCALAR","max":[987],"min":[0]}],"buffers":[{"byteLength":198528,"uri":"tile_0350.bin"}],"bufferViews":[{"buffer":0,"byteOffset":0,"byteLength":49416,"target":34962},{"buffer":0,"byteOffset":49416,"byteLength":32944,"target":34962},{"buffer":0,"byteOffset":82360,"byteLength":76620,"target":34963},{"buffer":0,"byteOffset":158980,"byteLength":11856,"target":34962},{"buffer":0,"byteOffset":170836,"byteLength":7904,"target":34962},{"buffer":0,"byteOffset":178740,"byteLength":19788,"target":34963}],"images":[{"uri":"../textures/tile_0350_material_0.jpg"},{"uri":"../textures/tile_0350_material_1.jpg"}],"materials":[{"name":"DefaultMaterial","pbrMetallicRoughness":{"baseColorFactor":[0.6000000238418579,0.6000000238418579,0.6000000238418579,1.0],"metallicFactor":0.0},"extensions":{"KHR_materials_specular":{"specularFactor":1.0,"specularColorFactor":[0.0,0.0,0.0]},"KHR_materials_ior":{"ior":1.0}}},{"name":"material_0_material","pbrMetallicRoughness":{"baseColorTexture":{"index":0},"metallicFactor":0.0},"extensions":{"KHR_materials_specular":{"specularFactor":1.0,"specularColorFactor":[0.0,0.0,0.0]},"KHR_materials_ior":{"ior":1.0}}},{"name":"material_1_material","pbrMetallicRoughness":{"baseColorTexture":{"index":1},"metallicFactor":0.0},"extensions":{"KHR_materials_specular":{"specularFactor":1.0,"specularColorFactor":[0.0,0.0,0.0]},"KHR_materials_ior":{"ior":1.0}}}],"meshes":[{"name":"defaultobject","primitives":[{"mode":4,"material":1,"indices":2,"attributes":{"POSITION":0,"TEXCOORD_0":1}},{"mode":4,"material":2,"indices":5,"attributes":{"POSITION":3,"TEXCOORD_0":4}}]}],"nodes":[{"name":"tile_0350.obj","children":[1]},{"name":"defaultobject","mesh":0}],"samplers":[{},{}],"scenes":[{"nodes":[0]}],"textures":[{"source":0,"sampler":0},{"source":1,"sampler":1}],"scene":0}
