{"asset":{"version":"2.0","generator":"Open Asset Import Library (assimp v6.0.0)"},"extensionsUsed":["KHR_materials_specular","KHR_materials_volume","KHR_materials_ior","FB_ngon_encoding"],"accessors":[{"bufferView":0,"byteOffset":0,"componentType":5126,"count":3141,"type":"VEC3","max":[0.6053617596626282,-0.7579272985458374,2.9913249015808105],"min":[-0.16471432149410248,-1.0228333473205566,2.2250738585072014e-308]},{"bufferView":1,"byteOffset":0,"componentType":5126,"count":3141,"type":"VEC2","max":[0.9882125854492188,0.7333526611328125],"min":[2.2250738585072014e-308,2.2250738585072014e-308]},{"bufferView":2,"byteOffset":0,"componentType":5125,"count":14073,"type":"SCALAR","max":[3140],"min":[0]},{"bufferView":3,"byteOffset":0,"componentType":5126,"count":1712,"type":"VEC3","max":[0.6240836977958679,-0.6884176731109619,2.9953691959381104],"min":[-0.06357835233211517,-1.0583844184875488,2.2250738585072014e-308]},{"bufferView":4,"byteOffset":0,"componentType":5126,"count":1712,"type":"VEC2","max":[0.7940282821655273,0.8416347503662109],"min":[2.2250738585072014e-308,2.2250738585072014e-308]},{"bufferView":5,"byteOffset":0,"componentType":5125,"count":8904,"type":"SCALAR","max":[1711],"min":[0]}],"buffers":[{"byteLength":188968,"uri":"tile_0354.bin"}],"bufferViews":[{"buffer":0,"byteOffset":0,"byteLength":37692,"target":34962},{"buffer":0,"byteOffset":37692,"byteLength":25128,"target":34962},{"buffer":0,"byteOffset":62820,"byteLength":56292,"target":34963},{"buffer":0,"byteOffset":119112,"byteLength":20544,"target":34962},{"buffer":0,"byteOffset":139656,"byteLength":13696,"target":34962},{"buffer":0,"byteOffset":153352,"byteLength":35616,"target":34963}],"images":[{"uri":"../textures/tile_0354_material_0.jpg"},{"uri":"../textures/tile_0354_material_1.jpg"}],"materials":[{"name":"DefaultMaterial","pbrMetallicRoughness":{"baseColorFactor":[0.6000000238418579,0.6000000238418579,0.6000000238418579,1.0],"metallicFactor":0.0},"extensions":{"KHR_materials_specular":{"specularFactor":1.0,"specularColorFactor":[0.0,0.0,0.0]},"KHR_materials_ior":{"ior":1.0}}},{"name":"material_0_material","pbrMetallicRoughness":{"baseColorTexture":{"index":0},"metallicFactor":0.0},"extensions":{"KHR_materials_specular":{"specularFactor":1.0,"specularColorFactor":[0.0,0.0,0.0]},"KHR_materials_ior":{"ior":1.0}}},{"name":"material_1_material","pbrMetallicRoughness":{"baseColorTexture":{"index":1},"metallicFactor":0.0},"extensions":{"KHR_materials_specular":{"specularFactor":1.0,"specularColorFactor":[0.0,0.0,0.0]},"KHR_materials_ior":{"ior":1.0}}}],"meshes":[{"name":"defaultobject","primitives":[{"mode":4,"material":1,"indices":2,"attributes":{"POSITION":0,"TEXCOORD_0":1}},{"mode":4,"material":2,"indices":5,"attributes":{"POSITION":3,"TEXCOORD_0":4}}]}],"nodes":[{"name":"tile_0354.obj","children":[1]},{"name":"defaultobject","mesh":0}],"samplers":[{},{}],"scenes":[{"nodes":[0]}],"textures":[{"source":0,"sampler":0},{"source":1,"sampler":1}],"scene":0}
