{"asset":{"version":"2.0","generator":"Open Asset Import Library (assimp v6.0.0)"},"extensionsUsed":["KHR_materials_specular","KHR_materials_volume","KHR_materials_ior","FB_ngon_encoding"],"accessors":[{"bufferView":0,"byteOffset":0,"componentType":5126,"count":11496,"type":"VEC3","max":[2.1099679470062256,-0.09011773020029068,1.5245636701583862],"min":[-0.10533527284860611,-0.2683267891407013,2.2250738585072014e-308]},{"bufferView":1,"byteOffset":0,"componentType":5126,"count":11496,"type":"VEC2","max":[0.9959526062011719,0.6327781677246094],"min":[2.2250738585072014e-308,2.2250738585072014e-308]},{"bufferView":2,"byteOffset":0,"componentType":5125,"count":48243,"type":"SCALAR","max":[11495],"min":[0]},{"bufferView":3,"byteOffset":0,"componentType":5126,"count":2942,"type":"VEC3","max":[1.1689366102218628,-0.08933365345001221,1.5105324983596802],"min":[-0.10290341824293137,-0.24900884926319122,2.2250738585072014e-308]},{"bufferView":4,"byteOffset":0,"componentType":5126,"count":2942,"type":"VEC2","max":[0.720888614654541,0.7177829742431641],"min":[2.2250738585072014e-308,2.2250738585072014e-308]},{"bufferView":5,"byteOffset":0,"componentType":5125,"count":14508,"type":"SCALAR","max":[2941],"min":[0]}],"buffers":[{"byteLength":539764,"uri":"tile_0073.bin"}],"bufferViews":[{"buffer":0,"byteOffset":0,"byteLength":137952,"target":34962},{"buffer":0,"byteOffset":137952,"byteLength":91968,"target":34962},{"buffer":0,"byteOffset":229920,"byteLength":192972,"target":34963},{"buffer":0,"byteOffset":422892,"byteLength":35304,"target":34962},{"buffer":0,"byteOffset":458196,"byteLength":23536,"target":34962},{"buffer":0,"byteOffset":481732,"byteLength":58032,"target":34963}],"images":[{"uri":"../textures/tile_0073_material_0.jpg"},{"uri":"../textures/tile_0073_material_1.jpg"}],"materials":[{"name":"DefaultMaterial","pbrMetallicRoughness":{"baseColorFactor":[0.6000000238418579,0.6000000238418579,0.6000000238418579,1.0],"metallicFactor":0.0},"extensions":{"KHR_materials_specular":{"specularFactor":1.0,"specularColorFactor":[0.0,0.0,0.0]},"KHR_materials_ior":{"ior":1.0}}},{"name":"material_0_material","pbrMetallicRoughness":{"baseColorTexture":{"index":0},"metallicFactor":0.0},"extensions":{"KHR_materials_specular":{"specularFactor":1.0,"specularColorFactor":[0.0,0.0,0.0]},"KHR_materials_ior":{"ior":1.0}}},{"name":"material_1_material","pbrMetallicRoughness":{"baseColorTexture":{"index":1},"metallicFactor":0.0},"extensions":{"KHR_materials_specular":{"specularFactor":1.0,"specularColorFactor":[0.0,0.0,0.0]},"KHR_materials_ior":{"ior":1.0}}}],"meshes":[{"name":"defaultobject","primitives":[{"mode":4,"material":1,"indices":2,"attributes":{"POSITION":0,"TEXCOORD_0":1}},{"mode":4,"material":2,"indices":5,"attributes":{"POSITION":3,"TEXCOORD_0":4}}]}],"nodes":[{"name":"tile_0073.obj","children":[1]},{"name":"defaultobject","mesh":0}],"samplers":[{},{}],"scenes":[{"nodes":[0]}],"textures":[{"source":0,"sampler":0},{"source":1,"sampler":1}],"scene":0}
