{"asset":{"version":"2.0","generator":"Open Asset Import Library (assimp v6.0.0)"},"extensionsUsed":["KHR_materials_specular","KHR_materials_volume","KHR_materials_ior","FB_ngon_encoding"],"accessors":[{"bufferView":0,"byteOffset":0,"componentType":5126,"count":4676,"type":"VEC3","max":[2.233555555343628,-0.5088553428649902,1.7448296546936035],"min":[-0.23413850367069244,-0.7622225284576416,2.2250738585072014e-308]},{"bufferView":1,"byteOffset":0,"componentType":5126,"count":4676,"type":"VEC2","max":[0.9929991364479065,0.6631355285644531],"min":[2.2250738585072014e-308,2.2250738585072014e-308]},{"bufferView":2,"byteOffset":0,"componentType":5125,"count":20205,"type":"SCALAR","max":[4675],"min":[0]},{"bufferView":3,"byteOffset":0,"componentType":5126,"count":858,"type":"VEC3","max":[2.169785261154175,-0.5089695453643799,1.7228690385818481],"min":[-0.21880671381950378,-0.730646550655365,2.2250738585072014e-308]},{"bufferView":4,"byteOffset":0,"componentType":5126,"count":858,"type":"VEC2","max":[0.8200778961181641,0.5489768981933594],"min":[2.2250738585072014e-308,2.2250738585072014e-308]},{"bufferView":5,"byteOffset":0,"componentType":5125,"count":4392,"type":"SCALAR","max":[857],"min":[0]}],"buffers":[{"byteLength":209068,"uri":"tile_0271.bin"}],"bufferViews":[{"buffer":0,"byteOffset":0,"byteLength":56112,"target":34962},{"buffer":0,"byteOffset":56112,"byteLength":37408,"target":34962},{"buffer":0,"byteOffset":93520,"byteLength":80820,"target":34963},{"buffer":0,"byteOffset":174340,"byteLength":10296,"target":34962},{"buffer":0,"byteOffset":184636,"byteLength":6864,"target":34962},{"buffer":0,"byteOffset":191500,"byteLength":17568,"target":34963}],"images":[{"uri":"../textures/tile_0271_material_0.jpg"},{"uri":"../textures/tile_0271_material_1.jpg"}],"materials":[{"name":"DefaultMaterial","pbrMetallicRoughness":{"baseColorFactor":[0.6000000238418579,0.6000000238418579,0.6000000238418579,1.0],"metallicFactor":0.0},"extensions":{"KHR_materials_specular":{"specularFactor":1.0,"specularColorFactor":[0.0,0.0,0.0]},"KHR_materials_ior":{"ior":1.0}}},{"name":"material_0_material","pbrMetallicRoughness":{"baseColorTexture":{"index":0},"metallicFactor":0.0},"extensions":{"KHR_materials_specular":{"specularFactor":1.0,"specularColorFactor":[0.0,0.0,0.0]},"KHR_materials_ior":{"ior":1.0}}},{"name":"material_1_material","pbrMetallicRoughness":{"baseColorTexture":{"index":1},"metallicFactor":0.0},"extensions":{"KHR_materials_specular":{"specularFactor":1.0,"specularColorFactor":[0.0,0.0,0.0]},"KHR_materials_ior":{"ior":1.0}}}],"meshes":[{"name":"defaultobject","primitives":[{"mode":4,"material":1,"indices":2,"attributes":{"POSITION":0,"TEXCOORD_0":1}},{"mode":4,"material":2,"indices":5,"attributes":{"POSITION":3,"TEXCOORD_0":4}}]}],"nodes":[{"name":"tile_0271.obj","children":[1]},{"name":"defaultobject","mesh":0}],"samplers":[{},{}],"scenes":[{"nodes":[0]}],"textures":[{"source":0,"sampler":0},{"source":1,"sampler":1}],"scene":0}
