{"asset":{"version":"2.0","generator":"Open Asset Import Library (assimp v6.0.0)"},"extensionsUsed":["KHR_materials_specular","KHR_materials_volume","KHR_materials_ior","FB_ngon_encoding"],"accessors":[{"bufferView":0,"byteOffset":0,"componentType":5126,"count":5813,"type":"VEC3","max":[3.3278377056121826,0.3158762454986572,0.32080185413360596],"min":[2.2250738585072014e-308,2.2250738585072014e-308,2.2250738585072014e-308]},{"bufferView":1,"byteOffset":0,"componentType":5126,"count":5813,"type":"VEC2","max":[0.9937210083007812,0.6366939544677734],"min":[2.2250738585072014e-308,2.2250738585072014e-308]},{"bufferView":2,"byteOffset":0,"componentType":5125,"count":23376,"type":"SCALAR","max":[5812],"min":[0]},{"bufferView":3,"byteOffset":0,"componentType":5126,"count":461,"type":"VEC3","max":[1.2337607145309448,0.3092312514781952,0.3066549301147461],"min":[2.2250738585072014e-308,2.2250738585072014e-308,2.2250738585072014e-308]},{"bufferView":4,"byteOffset":0,"componentType":5126,"count":461,"type":"VEC2","max":[0.7807202339172363,0.6164169311523438],"min":[2.2250738585072014e-308,2.2250738585072014e-308]},{"bufferView":5,"byteOffset":0,"componentType":5125,"count":2271,"type":"SCALAR","max":[460],"min":[0]}],"buffers":[{"byteLength":228068,"uri":"tile_0169.bin"}],"bufferViews":[{"buffer":0,"byteOffset":0,"byteLength":69756,"target":34962},{"buffer":0,"byteOffset":69756,"byteLength":46504,"target":34962},{"buffer":0,"byteOffset":116260,"byteLength":93504,"target":34963},{"buffer":0,"byteOffset":209764,"byteLength":5532,"target":34962},{"buffer":0,"byteOffset":215296,"byteLength":3688,"target":34962},{"buffer":0,"byteOffset":218984,"byteLength":9084,"target":34963}],"images":[{"uri":"../textures/tile_0169_material_0.jpg"},{"uri":"../textures/tile_0169_material_1.jpg"}],"materials":[{"name":"DefaultMaterial","pbrMetallicRoughness":{"baseColorFactor":[0.6000000238418579,0.6000000238418579,0.6000000238418579,1.0],"metallicFactor":0.0},"extensions":{"KHR_materials_specular":{"specularFactor":1.0,"specularColorFactor":[0.0,0.0,0.0]},"KHR_materials_ior":{"ior":1.0}}},{"name":"material_0_material","pbrMetallicRoughness":{"baseColorTexture":{"index":0},"metallicFactor":0.0},"extensions":{"KHR_materials_specular":{"specularFactor":1.0,"specularColorFactor":[0.0,0.0,0.0]},"KHR_materials_ior":{"ior":1.0}}},{"name":"material_1_material","pbrMetallicRoughness":{"baseColorTexture":{"index":1},"metallicFactor":0.0},"extensions":{"KHR_materials_specular":{"specularFactor":1.0,"specularColorFactor":[0.0,0.0,0.0]},"KHR_materials_ior":{"ior":1.0}}}],"meshes":[{"name":"defaultobject","primitives":[{"mode":4,"material":1,"indices":2,"attributes":{"POSITION":0,"TEXCOORD_0":1}},{"mode":4,"material":2,"indices":5,"attributes":{"POSITION":3,"TEXCOORD_0":4}}]}],"nodes":[{"name":"tile_0169.obj","children":[1]},{"name":"defaultobject","mesh":0}],"samplers":[{},{}],"scenes":[{"nodes":[0]}],"textures":[{"source":0,"sampler":0},{"source":1,"sampler":1}],"scene":0}
