{"asset":{"version":"2.0","generator":"Open Asset Import Library (assimp v6.0.0)"},"extensionsUsed":["KHR_materials_specular","KHR_materials_volume","KHR_materials_ior","FB_ngon_encoding"],"accessors":[{"bufferView":0,"byteOffset":0,"componentType":5126,"count":1906,"type":"VEC3","max":[0.842147946357727,-0.9372934103012085,3.872906446456909],"min":[2.2250738585072014e-308,-1.210282325744629,2.2250738585072014e-308]},{"bufferView":1,"byteOffset":0,"componentType":5126,"count":1906,"type":"VEC2","max":[0.9874536395072937,0.5038795471191406],"min":[2.2250738585072014e-308,2.2250738585072014e-308]},{"bufferView":2,"byteOffset":0,"componentType":5125,"count":8028,"type":"SCALAR","max":[1905],"min":[0]},{"bufferView":3,"byteOffset":0,"componentType":5126,"count":2267,"type":"VEC3","max":[0.773002564907074,-0.9314243793487549,3.866532564163208],"min":[2.2250738585072014e-308,-1.2131321430206299,2.2250738585072014e-308]},{"bufferView":4,"byteOffset":0,"componentType":5126,"count":2267,"type":"VEC2","max":[0.6239185333251953,0.83355712890625],"min":[2.2250738585072014e-308,2.2250738585072014e-308]},{"bufferView":5,"byteOffset":0,"componentType":5125,"count":11961,"type":"SCALAR","max":[2266],"min":[0]}],"buffers":[{"byteLength":163416,"uri":"tile_0367.bin"}],"bufferViews":[{"buffer":0,"byteOffset":0,"byteLength":22872,"target":34962},{"buffer":0,"byteOffset":22872,"byteLength":15248,"target":34962},{"buffer":0,"byteOffset":38120,"byteLength":32112,"target":34963},{"buffer":0,"byteOffset":70232,"byteLength":27204,"target":34962},{"buffer":0,"byteOffset":97436,"byteLength":18136,"target":34962},{"buffer":0,"byteOffset":115572,"byteLength":47844,"target":34963}],"images":[{"uri":"../textures/tile_0367_material_0.jpg"},{"uri":"../textures/tile_0367_material_1.jpg"}],"materials":[{"name":"DefaultMaterial","pbrMetallicRoughness":{"baseColorFactor":[0.6000000238418579,0.6000000238418579,0.6000000238418579,1.0],"metallicFactor":0.0},"extensions":{"KHR_materials_specular":{"specularFactor":1.0,"specularColorFactor":[0.0,0.0,0.0]},"KHR_materials_ior":{"ior":1.0}}},{"name":"material_0_material","pbrMetallicRoughness":{"baseColorTexture":{"index":0},"metallicFactor":0.0},"extensions":{"KHR_materials_specular":{"specularFactor":1.0,"specularColorFactor":[0.0,0.0,0.0]},"KHR_materials_ior":{"ior":1.0}}},{"name":"material_1_material","pbrMetallicRoughness":{"baseColorTexture":{"index":1},"metallicFactor":0.0},"extensions":{"KHR_materials_specular":{"specularFactor":1.0,"specularColorFactor":[0.0,0.0,0.0]},"KHR_materials_ior":{"ior":1.0}}}],"meshes":[{"name":"defaultobject","primitives":[{"mode":4,"material":1,"indices":2,"attributes":{"POSITION":0,"TEXCOORD_0":1}},{"mode":4,"material":2,"indices":5,"attributes":{"POSITION":3,"TEXCOORD_0":4}}]}],"nodes":[{"name":"tile_0367.obj","children":[1]},{"name":"defaultobject","mesh":0}],"samplers":[{},{}],"scenes":[{"nodes":[0]}],"textures":[{"source":0,"sampler":0},{"source":1,"sampler":1}],"scene":0}
