{"asset":{"version":"2.0","generator":"Open Asset Import Library (assimp v6.0.0)"},"extensionsUsed":["KHR_materials_specular","KHR_materials_volume","KHR_materials_ior","FB_ngon_encoding"],"accessors":[{"bufferView":0,"byteOffset":0,"componentType":5126,"count":3384,"type":"VEC3","max":[0.36598530411720276,0.37693530321121216,1.9260581731796265],"min":[2.2250738585072014e-308,2.2250738585072014e-308,2.2250738585072014e-308]},{"bufferView":1,"byteOffset":0,"componentType":5126,"count":3384,"type":"VEC2","max":[0.995293140411377,0.6950798034667969],"min":[2.2250738585072014e-308,2.2250738585072014e-308]},{"bufferView":2,"byteOffset":0,"componentType":5125,"count":13149,"type":"SCALAR","max":[3383],"min":[0]},{"bufferView":3,"byteOffset":0,"componentType":5126,"count":1325,"type":"VEC3","max":[0.35702604055404663,0.37680307030677795,1.9255635738372803],"min":[2.2250738585072014e-308,2.2250738585072014e-308,2.2250738585072014e-308]},{"bufferView":4,"byteOffset":0,"componentType":5126,"count":1325,"type":"VEC2","max":[0.6305027008056641,0.6241950988769531],"min":[2.2250738585072014e-308,2.2250738585072014e-308]},{"bufferView":5,"byteOffset":0,"componentType":5125,"count":6231,"type":"SCALAR","max":[1324],"min":[0]}],"buffers":[{"byteLength":171700,"uri":"tile_0446.bin"}],"bufferViews":[{"buffer":0,"byteOffset":0,"byteLength":40608,"target":34962},{"buffer":0,"byteOffset":40608,"byteLength":27072,"target":34962},{"buffer":0,"byteOffset":67680,"byteLength":52596,"target":34963},{"buffer":0,"byteOffset":120276,"byteLength":15900,"target":34962},{"buffer":0,"byteOffset":136176,"byteLength":10600,"target":34962},{"buffer":0,"byteOffset":146776,"byteLength":24924,"target":34963}],"images":[{"uri":"../textures/tile_0446_material_0.jpg"},{"uri":"../textures/tile_0446_material_1.jpg"}],"materials":[{"name":"DefaultMaterial","pbrMetallicRoughness":{"baseColorFactor":[0.6000000238418579,0.6000000238418579,0.6000000238418579,1.0],"metallicFactor":0.0},"extensions":{"KHR_materials_specular":{"specularFactor":1.0,"specularColorFactor":[0.0,0.0,0.0]},"KHR_materials_ior":{"ior":1.0}}},{"name":"material_0_material","pbrMetallicRoughness":{"baseColorTexture":{"index":0},"metallicFactor":0.0},"extensions":{"KHR_materials_specular":{"specularFactor":1.0,"specularColorFactor":[0.0,0.0,0.0]},"KHR_materials_ior":{"ior":1.0}}},{"name":"material_1_material","pbrMetallicRoughness":{"baseColorTexture":{"index":1},"metallicFactor":0.0},"extensions":{"KHR_materials_specular":{"specularFactor":1.0,"specularColorFactor":[0.0,0.0,0.0]},"KHR_materials_ior":{"ior":1.0}}}],"meshes":[{"name":"defaultobject","primitives":[{"mode":4,"material":1,"indices":2,"attributes":{"POSITION":0,"TEXCOORD_0":1}},{"mode":4,"material":2,"indices":5,"attributes":{"POSITION":3,"TEXCOORD_0":4}}]}],"nodes":[{"name":"tile_0446.obj","children":[1]},{"name":"defaultobject","mesh":0}],"samplers":[{},{}],"scenes":[{"nodes":[0]}],"textures":[{"source":0,"sampler":0},{"source":1,"sampler":1}],"scene":0}
