{"asset":{"version":"2.0","generator":"Open Asset Import Library (assimp v6.0.0)"},"extensionsUsed":["KHR_materials_specular","KHR_materials_volume","KHR_materials_ior","FB_ngon_encoding"],"accessors":[{"bufferView":0,"byteOffset":0,"componentType":5126,"count":7135,"type":"VEC3","max":[3.4985694885253906,0.48370760679244995,0.03977014869451523],"min":[2.2250738585072014e-308,2.2250738585072014e-308,-0.02550498954951763]},{"bufferView":1,"byteOffset":0,"componentType":5126,"count":7135,"type":"VEC2","max":[0.9941961765289307,0.7498664855957031],"min":[2.2250738585072014e-308,2.2250738585072014e-308]},{"bufferView":2,"byteOffset":0,"componentType":5125,"count":28548,"type":"SCALAR","max":[7134],"min":[0]},{"bufferView":3,"byteOffset":0,"componentType":5126,"count":95,"type":"VEC3","max":[3.1502912044525146,0.4336634874343872,0.0368727445602417],"min":[2.2250738585072014e-308,2.2250738585072014e-308,-0.02179369516670704]},{"bufferView":4,"byteOffset":0,"componentType":5126,"count":95,"type":"VEC2","max":[0.7577056884765625,0.486152708530426],"min":[2.2250738585072014e-308,2.2250738585072014e-308]},{"bufferView":5,"byteOffset":0,"componentType":5125,"count":375,"type":"SCALAR","max":[94],"min":[0]}],"buffers":[{"byteLength":260292,"uri":"tile_0548.bin"}],"bufferViews":[{"buffer":0,"byteOffset":0,"byteLength":85620,"target":34962},{"buffer":0,"byteOffset":85620,"byteLength":57080,"target":34962},{"buffer":0,"byteOffset":142700,"byteLength":114192,"target":34963},{"buffer":0,"byteOffset":256892,"byteLength":1140,"target":34962},{"buffer":0,"byteOffset":258032,"byteLength":760,"target":34962},{"buffer":0,"byteOffset":258792,"byteLength":1500,"target":34963}],"images":[{"uri":"../textures/tile_0548_material_0.jpg"},{"uri":"../textures/tile_0548_material_1.jpg"}],"materials":[{"name":"DefaultMaterial","pbrMetallicRoughness":{"baseColorFactor":[0.6000000238418579,0.6000000238418579,0.6000000238418579,1.0],"metallicFactor":0.0},"extensions":{"KHR_materials_specular":{"specularFactor":1.0,"specularColorFactor":[0.0,0.0,0.0]},"KHR_materials_ior":{"ior":1.0}}},{"name":"material_0_material","pbrMetallicRoughness":{"baseColorTexture":{"index":0},"metallicFactor":0.0},"extensions":{"KHR_materials_specular":{"specularFactor":1.0,"specularColorFactor":[0.0,0.0,0.0]},"KHR_materials_ior":{"ior":1.0}}},{"name":"material_1_material","pbrMetallicRoughness":{"baseColorTexture":{"index":1},"metallicFactor":0.0},"extensions":{"KHR_materials_specular":{"specularFactor":1.0,"specularColorFactor":[0.0,0.0,0.0]},"KHR_materials_ior":{"ior":1.0}}}],"meshes":[{"name":"defaultobject","primitives":[{"mode":4,"material":1,"indices":2,"attributes":{"POSITION":0,"TEXCOORD_0":1}},{"mode":4,"material":2,"indices":5,"attributes":{"POSITION":3,"TEXCOORD_0":4}}]}],"nodes":[{"name":"tile_0548.obj","children":[1]},{"name":"defaultobject","mesh":0}],"samplers":[{},{}],"scenes":[{"nodes":[0]}],"textures":[{"source":0,"sampler":0},{"source":1,"sampler":1}],"scene":0}
