{"asset":{"version":"2.0","generator":"Open Asset Import Library (assimp v6.0.0)"},"extensionsUsed":["KHR_materials_specular","KHR_materials_volume","KHR_materials_ior","FB_ngon_encoding"],"accessors":[{"bufferView":0,"byteOffset":0,"componentType":5126,"count":5864,"type":"VEC3","max":[2.6233651638031006,-2.026125192642212,0.9694126844406128],"min":[2.2250738585072014e-308,-2.3174829483032227,2.2250738585072014e-308]},{"bufferView":1,"byteOffset":0,"componentType":5126,"count":5864,"type":"VEC2","max":[0.9928126335144043,0.80072021484375],"min":[2.2250738585072014e-308,2.2250738585072014e-308]},{"bufferView":2,"byteOffset":0,"componentType":5125,"count":22800,"type":"SCALAR","max":[5863],"min":[0]},{"bufferView":3,"byteOffset":0,"componentType":5126,"count":5,"type":"VEC3","max":[1.877237319946289,-2.192295789718628,0.9466906189918518],"min":[2.2250738585072014e-308,-2.328864574432373,2.2250738585072014e-308]},{"bufferView":4,"byteOffset":0,"componentType":5126,"count":5,"type":"VEC2","max":[0.7441520690917969,0.5747069716453552],"min":[2.2250738585072014e-308,2.2250738585072014e-308]},{"bufferView":5,"byteOffset":0,"componentType":5125,"count":9,"type":"SCALAR","max":[4],"min":[0]}],"buffers":[{"byteLength":208616,"uri":"tile_0164.bin"}],"bufferViews":[{"buffer":0,"byteOffset":0,"byteLength":70368,"target":34962},{"buffer":0,"byteOffset":70368,"byteLength":46912,"target":34962},{"buffer":0,"byteOffset":117280,"byteLength":91200,"target":34963},{"buffer":0,"byteOffset":208480,"byteLength":60,"target":34962},{"buffer":0,"byteOffset":208540,"byteLength":40,"target":34962},{"buffer":0,"byteOffset":208580,"byteLength":36,"target":34963}],"images":[{"uri":"../textures/tile_0164_material_0.jpg"},{"uri":"../textures/tile_0164_material_1.jpg"}],"materials":[{"name":"DefaultMaterial","pbrMetallicRoughness":{"baseColorFactor":[0.6000000238418579,0.6000000238418579,0.6000000238418579,1.0],"metallicFactor":0.0},"extensions":{"KHR_materials_specular":{"specularFactor":1.0,"specularColorFactor":[0.0,0.0,0.0]},"KHR_materials_ior":{"ior":1.0}}},{"name":"material_0_material","pbrMetallicRoughness":{"baseColorTexture":{"index":0},"metallicFactor":0.0},"extensions":{"KHR_materials_specular":{"specularFactor":1.0,"specularColorFactor":[0.0,0.0,0.0]},"KHR_materials_ior":{"ior":1.0}}},{"name":"material_1_material","pbrMetallicRoughness":{"baseColorTexture":{"index":1},"metallicFactor":0.0},"extensions":{"KHR_materials_specular":{"specularFactor":1.0,"specularColorFactor":[0.0,0.0,0.0]},"KHR_materials_ior":{"ior":1.0}}}],"meshes":[{"name":"defaultobject","primitives":[{"mode":4,"material":1,"indices":2,"attributes":{"POSITION":0,"TEXCOORD_0":1}},{"mode":4,"material":2,"indices":5,"attributes":{"POSITION":3,"TEXCOORD_0":4}}]}],"nodes":[{"name":"tile_0164.obj","children":[1]},{"name":"defaultobject","mesh":0}],"samplers":[{},{}],"scenes":[{"nodes":[0]}],"textures":[{"source":0,"sampler":0},{"source":1,"sampler":1}],"scene":0}
