{"asset":{"version":"2.0","generator":"Open Asset Import Library (assimp v6.0.0)"},"extensionsUsed":["KHR_materials_specular","KHR_materials_volume","KHR_materials_ior","FB_ngon_encoding"],"accessors":[{"bufferView":0,"byteOffset":0,"componentType":5126,"count":5744,"type":"VEC3","max":[1.4719924926757812,-3.6024534702301025,2.1647636890411377],"min":[2.2250738585072014e-308,-4.214925289154053,2.2250738585072014e-308]},{"bufferView":1,"byteOffset":0,"componentType":5126,"count":5744,"type":"VEC2","max":[0.9913480281829834,0.8867073059082031],"min":[2.2250738585072014e-308,2.2250738585072014e-308]},{"bufferView":2,"byteOffset":0,"componentType":5125,"count":21999,"type":"SCALAR","max":[5743],"min":[0]},{"bufferView":3,"byteOffset":0,"componentType":5126,"count":399,"type":"VEC3","max":[1.5523861646652222,-3.5922775268554688,2.1790668964385986],"min":[2.2250738585072014e-308,-4.148085117340088,2.2250738585072014e-308]},{"bufferView":4,"byteOffset":0,"componentType":5126,"count":399,"type":"VEC2","max":[0.9739370346069336,0.8706474304199219],"min":[2.2250738585072014e-308,2.2250738585072014e-308]},{"bufferView":5,"byteOffset":0,"componentType":5125,"count":1596,"type":"SCALAR","max":[398],"min":[0]}],"buffers":[{"byteLength":217240,"uri":"tile_0318.bin"}],"bufferViews":[{"buffer":0,"byteOffset":0,"byteLength":68928,"target":34962},{"buffer":0,"byteOffset":68928,"byteLength":45952,"target":34962},{"buffer":0,"byteOffset":114880,"byteLength":87996,"target":34963},{"buffer":0,"byteOffset":202876,"byteLength":4788,"target":34962},{"buffer":0,"byteOffset":207664,"byteLength":3192,"target":34962},{"buffer":0,"byteOffset":210856,"byteLength":6384,"target":34963}],"images":[{"uri":"../textures/tile_0318_material_0.jpg"},{"uri":"../textures/tile_0318_material_1.jpg"}],"materials":[{"name":"DefaultMaterial","pbrMetallicRoughness":{"baseColorFactor":[0.6000000238418579,0.6000000238418579,0.6000000238418579,1.0],"metallicFactor":0.0},"extensions":{"KHR_materials_specular":{"specularFactor":1.0,"specularColorFactor":[0.0,0.0,0.0]},"KHR_materials_ior":{"ior":1.0}}},{"name":"material_0_material","pbrMetallicRoughness":{"baseColorTexture":{"index":0},"metallicFactor":0.0},"extensions":{"KHR_materials_specular":{"specularFactor":1.0,"specularColorFactor":[0.0,0.0,0.0]},"KHR_materials_ior":{"ior":1.0}}},{"name":"material_1_material","pbrMetallicRoughness":{"baseColorTexture":{"index":1},"metallicFactor":0.0},"extensions":{"KHR_materials_specular":{"specularFactor":1.0,"specularColorFactor":[0.0,0.0,0.0]},"KHR_materials_ior":{"ior":1.0}}}],"meshes":[{"name":"defaultobject","primitives":[{"mode":4,"material":1,"indices":2,"attributes":{"POSITION":0,"TEXCOORD_0":1}},{"mode":4,"material":2,"indices":5,"attributes":{"POSITION":3,"TEXCOORD_0":4}}]}],"nodes":[{"name":"tile_0318.obj","children":[1]},{"name":"defaultobject","mesh":0}],"samplers":[{},{}],"scenes":[{"nodes":[0]}],"textures":[{"source":0,"sampler":0},{"source":1,"sampler":1}],"scene":0}
