{"asset":{"version":"2.0","generator":"Open Asset Import Library (assimp v6.0.0)"},"extensionsUsed":["KHR_materials_specular","KHR_materials_volume","KHR_materials_ior","FB_ngon_encoding"],"accessors":[{"bufferView":0,"byteOffset":0,"componentType":5126,"count":3893,"type":"VEC3","max":[2.627312660217285,-3.2105987071990967,0.75496506690979],"min":[2.2250738585072014e-308,-4.2144083976745605,2.2250738585072014e-308]},{"bufferView":1,"byteOffset":0,"componentType":5126,"count":3893,"type":"VEC2","max":[0.9946357011795044,0.6411476135253906],"min":[2.2250738585072014e-308,2.2250738585072014e-308]},{"bufferView":2,"byteOffset":0,"componentType":5125,"count":16449,"type":"SCALAR","max":[3892],"min":[0]},{"bufferView":3,"byteOffset":0,"componentType":5126,"count":50,"type":"VEC3","max":[2.519334554672241,-3.2573232650756836,0.7298030853271484],"min":[2.2250738585072014e-308,-3.5262508392333984,2.2250738585072014e-308]},{"bufferView":4,"byteOffset":0,"componentType":5126,"count":50,"type":"VEC2","max":[0.6085805892944336,0.5690994262695312],"min":[2.2250738585072014e-308,2.2250738585072014e-308]},{"bufferView":5,"byteOffset":0,"componentType":5125,"count":141,"type":"SCALAR","max":[49],"min":[0]}],"buffers":[{"byteLength":145220,"uri":"tile_0617.bin"}],"bufferViews":[{"buffer":0,"byteOffset":0,"byteLength":46716,"target":34962},{"buffer":0,"byteOffset":46716,"byteLength":31144,"target":34962},{"buffer":0,"byteOffset":77860,"byteLength":65796,"target":34963},{"buffer":0,"byteOffset":143656,"byteLength":600,"target":34962},{"buffer":0,"byteOffset":144256,"byteLength":400,"target":34962},{"buffer":0,"byteOffset":144656,"byteLength":564,"target":34963}],"images":[{"uri":"../textures/tile_0617_material_0.jpg"},{"uri":"../textures/tile_0617_material_1.jpg"}],"materials":[{"name":"DefaultMaterial","pbrMetallicRoughness":{"baseColorFactor":[0.6000000238418579,0.6000000238418579,0.6000000238418579,1.0],"metallicFactor":0.0},"extensions":{"KHR_materials_specular":{"specularFactor":1.0,"specularColorFactor":[0.0,0.0,0.0]},"KHR_materials_ior":{"ior":1.0}}},{"name":"material_0_material","pbrMetallicRoughness":{"baseColorTexture":{"index":0},"metallicFactor":0.0},"extensions":{"KHR_materials_specular":{"specularFactor":1.0,"specularColorFactor":[0.0,0.0,0.0]},"KHR_materials_ior":{"ior":1.0}}},{"name":"material_1_material","pbrMetallicRoughness":{"baseColorTexture":{"index":1},"metallicFactor":0.0},"extensions":{"KHR_materials_specular":{"specularFactor":1.0,"specularColorFactor":[0.0,0.0,0.0]},"KHR_materials_ior":{"ior":1.0}}}],"meshes":[{"name":"defaultobject","primitives":[{"mode":4,"material":1,"indices":2,"attributes":{"POSITION":0,"TEXCOORD_0":1}},{"mode":4,"material":2,"indices":5,"attributes":{"POSITION":3,"TEXCOORD_0":4}}]}],"nodes":[{"name":"tile_0617.obj","children":[1]},{"name":"defaultobject","mesh":0}],"samplers":[{},{}],"scenes":[{"nodes":[0]}],"textures":[{"source":0,"sampler":0},{"source":1,"sampler":1}],"scene":0}
