{"asset":{"version":"2.0","generator":"Open Asset Import Library (assimp v6.0.0)"},"extensionsUsed":["KHR_materials_specular","KHR_materials_volume","KHR_materials_ior","FB_ngon_encoding"],"accessors":[{"bufferView":0,"byteOffset":0,"componentType":5126,"count":4638,"type":"VEC3","max":[3.6105313301086426,0.930804431438446,0.06504672020673752],"min":[2.2250738585072014e-308,2.2250738585072014e-308,2.2250738585072014e-308]},{"bufferView":1,"byteOffset":0,"componentType":5126,"count":4638,"type":"VEC2","max":[0.9911742210388184,0.952911376953125],"min":[2.2250738585072014e-308,2.2250738585072014e-308]},{"bufferView":2,"byteOffset":0,"componentType":5125,"count":19068,"type":"SCALAR","max":[4637],"min":[0]},{"bufferView":3,"byteOffset":0,"componentType":5126,"count":319,"type":"VEC3","max":[3.1082067489624023,0.9288386106491089,0.06151600182056427],"min":[2.2250738585072014e-308,2.2250738585072014e-308,2.2250738585072014e-308]},{"bufferView":4,"byteOffset":0,"componentType":5126,"count":319,"type":"VEC2","max":[0.5450849533081055,0.4911308288574219],"min":[2.2250738585072014e-308,2.2250738585072014e-308]},{"bufferView":5,"byteOffset":0,"componentType":5125,"count":1194,"type":"SCALAR","max":[318],"min":[0]}],"buffers":[{"byteLength":180188,"uri":"tile_0533.bin"}],"bufferViews":[{"buffer":0,"byteOffset":0,"byteLength":55656,"target":34962},{"buffer":0,"byteOffset":55656,"byteLength":37104,"target":34962},{"buffer":0,"byteOffset":92760,"byteLength":76272,"target":34963},{"buffer":0,"byteOffset":169032,"byteLength":3828,"target":34962},{"buffer":0,"byteOffset":172860,"byteLength":2552,"target":34962},{"buffer":0,"byteOffset":175412,"byteLength":4776,"target":34963}],"images":[{"uri":"../textures/tile_0533_material_0.jpg"},{"uri":"../textures/tile_0533_material_1.jpg"}],"materials":[{"name":"DefaultMaterial","pbrMetallicRoughness":{"baseColorFactor":[0.6000000238418579,0.6000000238418579,0.6000000238418579,1.0],"metallicFactor":0.0},"extensions":{"KHR_materials_specular":{"specularFactor":1.0,"specularColorFactor":[0.0,0.0,0.0]},"KHR_materials_ior":{"ior":1.0}}},{"name":"material_0_material","pbrMetallicRoughness":{"baseColorTexture":{"index":0},"metallicFactor":0.0},"extensions":{"KHR_materials_specular":{"specularFactor":1.0,"specularColorFactor":[0.0,0.0,0.0]},"KHR_materials_ior":{"ior":1.0}}},{"name":"material_1_material","pbrMetallicRoughness":{"baseColorTexture":{"index":1},"metallicFactor":0.0},"extensions":{"KHR_materials_specular":{"specularFactor":1.0,"specularColorFactor":[0.0,0.0,0.0]},"KHR_materials_ior":{"ior":1.0}}}],"meshes":[{"name":"defaultobject","primitives":[{"mode":4,"material":1,"indices":2,"attributes":{"POSITION":0,"TEXCOORD_0":1}},{"mode":4,"material":2,"indices":5,"attributes":{"POSITION":3,"TEXCOORD_0":4}}]}],"nodes":[{"name":"tile_0533.obj","children":[1]},{"name":"defaultobject","mesh":0}],"samplers":[{},{}],"scenes":[{"nodes":[0]}],"textures":[{"source":0,"sampler":0},{"source":1,"sampler":1}],"scene":0}
