{"asset":{"version":"2.0","generator":"Open Asset Import Library (assimp v6.0.0)"},"extensionsUsed":["KHR_materials_specular","KHR_materials_volume","KHR_materials_ior","FB_ngon_encoding"],"accessors":[{"bufferView":0,"byteOffset":0,"componentType":5126,"count":12618,"type":"VEC3","max":[1.7032793760299683,2.141547679901123,3.5301966667175293],"min":[2.2250738585072014e-308,2.2250738585072014e-308,2.2250738585072014e-308]},{"bufferView":1,"byteOffset":0,"componentType":5126,"count":12618,"type":"VEC2","max":[0.9930554628372192,0.8688268661499023],"min":[2.2250738585072014e-308,2.2250738585072014e-308]},{"bufferView":2,"byteOffset":0,"componentType":5125,"count":55266,"type":"SCALAR","max":[12617],"min":[0]},{"bufferView":3,"byteOffset":0,"componentType":5126,"count":1817,"type":"VEC3","max":[1.6608964204788208,2.15122127532959,3.2594542503356934],"min":[2.2250738585072014e-308,2.2250738585072014e-308,2.2250738585072014e-308]},{"bufferView":4,"byteOffset":0,"componentType":5126,"count":1817,"type":"VEC2","max":[0.6207981109619141,0.7078361511230469],"min":[2.2250738585072014e-308,2.2250738585072014e-308]},{"bufferView":5,"byteOffset":0,"componentType":5125,"count":8904,"type":"SCALAR","max":[1816],"min":[0]}],"buffers":[{"byteLength":545380,"uri":"tile_0577.bin"}],"bufferViews":[{"buffer":0,"byteOffset":0,"byteLength":151416,"target":34962},{"buffer":0,"byteOffset":151416,"byteLength":100944,"target":34962},{"buffer":0,"byteOffset":252360,"byteLength":221064,"target":34963},{"buffer":0,"byteOffset":473424,"byteLength":21804,"target":34962},{"buffer":0,"byteOffset":495228,"byteLength":14536,"target":34962},{"buffer":0,"byteOffset":509764,"byteLength":35616,"target":34963}],"images":[{"uri":"../textures/tile_0577_material_0.jpg"},{"uri":"../textures/tile_0577_material_1.jpg"}],"materials":[{"name":"DefaultMaterial","pbrMetallicRoughness":{"baseColorFactor":[0.6000000238418579,0.6000000238418579,0.6000000238418579,1.0],"metallicFactor":0.0},"extensions":{"KHR_materials_specular":{"specularFactor":1.0,"specularColorFactor":[0.0,0.0,0.0]},"KHR_materials_ior":{"ior":1.0}}},{"name":"material_0_material","pbrMetallicRoughness":{"baseColorTexture":{"index":0},"metallicFactor":0.0},"extensions":{"KHR_materials_specular":{"specularFactor":1.0,"specularColorFactor":[0.0,0.0,0.0]},"KHR_materials_ior":{"ior":1.0}}},{"name":"material_1_material","pbrMetallicRoughness":{"baseColorTexture":{"index":1},"metallicFactor":0.0},"extensions":{"KHR_materials_specular":{"specularFactor":1.0,"specularColorFactor":[0.0,0.0,0.0]},"KHR_materials_ior":{"ior":1.0}}}],"meshes":[{"name":"defaultobject","primitives":[{"mode":4,"material":1,"indices":2,"attributes":{"POSITION":0,"TEXCOORD_0":1}},{"mode":4,"material":2,"indices":5,"attributes":{"POSITION":3,"TEXCOORD_0":4}}]}],"nodes":[{"name":"tile_0577.obj","children":[1]},{"name":"defaultobject","mesh":0}],"samplers":[{},{}],"scenes":[{"nodes":[0]}],"textures":[{"source":0,"sampler":0},{"source":1,"sampler":1}],"scene":0}
