{"asset":{"version":"2.0","generator":"Open Asset Import Library (assimp v6.0.0)"},"extensionsUsed":["KHR_materials_specular","KHR_materials_volume","KHR_materials_ior","FB_ngon_encoding"],"accessors":[{"bufferView":0,"byteOffset":0,"componentType":5126,"count":3978,"type":"VEC3","max":[0.2899550795555115,-1.3908499479293823,2.4670727252960205],"min":[-0.29896068572998047,-1.5753508806228638,2.2250738585072014e-308]},{"bufferView":1,"byteOffset":0,"componentType":5126,"count":3978,"type":"VEC2","max":[0.9960269927978516,0.6869220733642578],"min":[2.2250738585072014e-308,2.2250738585072014e-308]},{"bufferView":2,"byteOffset":0,"componentType":5125,"count":17826,"type":"SCALAR","max":[3977],"min":[0]},{"bufferView":3,"byteOffset":0,"componentType":5126,"count":537,"type":"VEC3","max":[0.3188020884990692,-1.3901143074035645,2.4660465717315674],"min":[-0.015972990542650223,-1.5845580101013184,2.2250738585072014e-308]},{"bufferView":4,"byteOffset":0,"componentType":5126,"count":537,"type":"VEC2","max":[0.7936716079711914,0.850341796875],"min":[2.2250738585072014e-308,2.2250738585072014e-308]},{"bufferView":5,"byteOffset":0,"componentType":5125,"count":2502,"type":"SCALAR","max":[536],"min":[0]}],"buffers":[{"byteLength":171612,"uri":"tile_0377.bin"}],"bufferViews":[{"buffer":0,"byteOffset":0,"byteLength":47736,"target":34962},{"buffer":0,"byteOffset":47736,"byteLength":31824,"target":34962},{"buffer":0,"byteOffset":79560,"byteLength":71304,"target":34963},{"buffer":0,"byteOffset":150864,"byteLength":6444,"target":34962},{"buffer":0,"byteOffset":157308,"byteLength":4296,"target":34962},{"buffer":0,"byteOffset":161604,"byteLength":10008,"target":34963}],"images":[{"uri":"../textures/tile_0377_material_0.jpg"},{"uri":"../textures/tile_0377_material_1.jpg"}],"materials":[{"name":"DefaultMaterial","pbrMetallicRoughness":{"baseColorFactor":[0.6000000238418579,0.6000000238418579,0.6000000238418579,1.0],"metallicFactor":0.0},"extensions":{"KHR_materials_specular":{"specularFactor":1.0,"specularColorFactor":[0.0,0.0,0.0]},"KHR_materials_ior":{"ior":1.0}}},{"name":"material_0_material","pbrMetallicRoughness":{"baseColorTexture":{"index":0},"metallicFactor":0.0},"extensions":{"KHR_materials_specular":{"specularFactor":1.0,"specularColorFactor":[0.0,0.0,0.0]},"KHR_materials_ior":{"ior":1.0}}},{"name":"material_1_material","pbrMetallicRoughness":{"baseColorTexture":{"index":1},"metallicFactor":0.0},"extensions":{"KHR_materials_specular":{"specularFactor":1.0,"specularColorFactor":[0.0,0.0,0.0]},"KHR_materials_ior":{"ior":1.0}}}],"meshes":[{"name":"defaultobject","primitives":[{"mode":4,"material":1,"indices":2,"attributes":{"POSITION":0,"TEXCOORD_0":1}},{"mode":4,"material":2,"indices":5,"attributes":{"POSITION":3,"TEXCOORD_0":4}}]}],"nodes":[{"name":"tile_0377.obj","children":[1]},{"name":"defaultobject","mesh":0}],"samplers":[{},{}],"scenes":[{"nodes":[0]}],"textures":[{"source":0,"sampler":0},{"source":1,"sampler":1}],"scene":0}
