{"asset":{"version":"2.0","generator":"Open Asset Import Library (assimp v6.0.0)"},"extensionsUsed":["KHR_materials_specular","KHR_materials_volume","KHR_materials_ior","FB_ngon_encoding"],"accessors":[{"bufferView":0,"byteOffset":0,"componentType":5126,"count":3093,"type":"VEC3","max":[3.2109811305999756,-0.29995307326316833,0.38382282853126526],"min":[2.2250738585072014e-308,-0.4523106813430786,2.2250738585072014e-308]},{"bufferView":1,"byteOffset":0,"componentType":5126,"count":3093,"type":"VEC2","max":[0.9872579574584961,0.8202934265136719],"min":[2.2250738585072014e-308,2.2250738585072014e-308]},{"bufferView":2,"byteOffset":0,"componentType":5125,"count":11793,"type":"SCALAR","max":[3092],"min":[0]},{"bufferView":3,"byteOffset":0,"componentType":5126,"count":3402,"type":"VEC3","max":[0.6896697282791138,-0.30328649282455444,0.377013236284256],"min":[2.2250738585072014e-308,-0.44028255343437195,2.2250738585072014e-308]},{"bufferView":4,"byteOffset":0,"componentType":5126,"count":3402,"type":"VEC2","max":[0.6430864334106445,0.9066696166992188],"min":[2.2250738585072014e-308,2.2250738585072014e-308]},{"bufferView":5,"byteOffset":0,"componentType":5125,"count":17877,"type":"SCALAR","max":[3401],"min":[0]}],"buffers":[{"byteLength":248580,"uri":"tile_0482.bin"}],"bufferViews":[{"buffer":0,"byteOffset":0,"byteLength":37116,"target":34962},{"buffer":0,"byteOffset":37116,"byteLength":24744,"target":34962},{"buffer":0,"byteOffset":61860,"byteLength":47172,"target":34963},{"buffer":0,"byteOffset":109032,"byteLength":40824,"target":34962},{"buffer":0,"byteOffset":149856,"byteLength":27216,"target":34962},{"buffer":0,"byteOffset":177072,"byteLength":71508,"target":34963}],"images":[{"uri":"../textures/tile_0482_material_0.jpg"},{"uri":"../textures/tile_0482_material_1.jpg"}],"materials":[{"name":"DefaultMaterial","pbrMetallicRoughness":{"baseColorFactor":[0.6000000238418579,0.6000000238418579,0.6000000238418579,1.0],"metallicFactor":0.0},"extensions":{"KHR_materials_specular":{"specularFactor":1.0,"specularColorFactor":[0.0,0.0,0.0]},"KHR_materials_ior":{"ior":1.0}}},{"name":"material_0_material","pbrMetallicRoughness":{"baseColorTexture":{"index":0},"metallicFactor":0.0},"extensions":{"KHR_materials_specular":{"specularFactor":1.0,"specularColorFactor":[0.0,0.0,0.0]},"KHR_materials_ior":{"ior":1.0}}},{"name":"material_1_material","pbrMetallicRoughness":{"baseColorTexture":{"index":1},"metallicFactor":0.0},"extensions":{"KHR_materials_specular":{"specularFactor":1.0,"specularColorFactor":[0.0,0.0,0.0]},"KHR_materials_ior":{"ior":1.0}}}],"meshes":[{"name":"defaultobject","primitives":[{"mode":4,"material":1,"indices":2,"attributes":{"POSITION":0,"TEXCOORD_0":1}},{"mode":4,"material":2,"indices":5,"attributes":{"POSITION":3,"TEXCOORD_0":4}}]}],"nodes":[{"name":"tile_0482.obj","children":[1]},{"name":"defaultobject","mesh":0}],"samplers":[{},{}],"scenes":[{"nodes":[0]}],"textures":[{"source":0,"sampler":0},{"source":1,"sampler":1}],"scene":0}
