{"asset":{"version":"2.0","generator":"Open Asset Import Library (assimp v6.0.0)"},"extensionsUsed":["KHR_materials_specular","KHR_materials_volume","KHR_materials_ior","FB_ngon_encoding"],"accessors":[{"bufferView":0,"byteOffset":0,"componentType":5126,"count":4081,"type":"VEC3","max":[2.247870922088623,-1.1292766332626343,1.6302170753479004],"min":[-0.3968246579170227,-1.3334578275680542,2.2250738585072014e-308]},{"bufferView":1,"byteOffset":0,"componentType":5126,"count":4081,"type":"VEC2","max":[0.9934358596801758,0.5544681549072266],"min":[2.2250738585072014e-308,2.2250738585072014e-308]},{"bufferView":2,"byteOffset":0,"componentType":5125,"count":14859,"type":"SCALAR","max":[4080],"min":[0]},{"bufferView":3,"byteOffset":0,"componentType":5126,"count":1361,"type":"VEC3","max":[-0.31109488010406494,-1.1671020984649658,1.6168289184570312],"min":[-0.39849889278411865,-1.2962801456451416,2.2250738585072014e-308]},{"bufferView":4,"byteOffset":0,"componentType":5126,"count":1361,"type":"VEC2","max":[0.6790094375610352,0.49726104736328125],"min":[2.2250738585072014e-308,2.2250738585072014e-308]},{"bufferView":5,"byteOffset":0,"componentType":5125,"count":6117,"type":"SCALAR","max":[1360],"min":[0]}],"buffers":[{"byteLength":192744,"uri":"tile_0291.bin"}],"bufferViews":[{"buffer":0,"byteOffset":0,"byteLength":48972,"target":34962},{"buffer":0,"byteOffset":48972,"byteLength":32648,"target":34962},{"buffer":0,"byteOffset":81620,"byteLength":59436,"target":34963},{"buffer":0,"byteOffset":141056,"byteLength":16332,"target":34962},{"buffer":0,"byteOffset":157388,"byteLength":10888,"target":34962},{"buffer":0,"byteOffset":168276,"byteLength":24468,"target":34963}],"images":[{"uri":"../textures/tile_0291_material_0.jpg"},{"uri":"../textures/tile_0291_material_1.jpg"}],"materials":[{"name":"DefaultMaterial","pbrMetallicRoughness":{"baseColorFactor":[0.6000000238418579,0.6000000238418579,0.6000000238418579,1.0],"metallicFactor":0.0},"extensions":{"KHR_materials_specular":{"specularFactor":1.0,"specularColorFactor":[0.0,0.0,0.0]},"KHR_materials_ior":{"ior":1.0}}},{"name":"material_0_material","pbrMetallicRoughness":{"baseColorTexture":{"index":0},"metallicFactor":0.0},"extensions":{"KHR_materials_specular":{"specularFactor":1.0,"specularColorFactor":[0.0,0.0,0.0]},"KHR_materials_ior":{"ior":1.0}}},{"name":"material_1_material","pbrMetallicRoughness":{"baseColorTexture":{"index":1},"metallicFactor":0.0},"extensions":{"KHR_materials_specular":{"specularFactor":1.0,"specularColorFactor":[0.0,0.0,0.0]},"KHR_materials_ior":{"ior":1.0}}}],"meshes":[{"name":"defaultobject","primitives":[{"mode":4,"material":1,"indices":2,"attributes":{"POSITION":0,"TEXCOORD_0":1}},{"mode":4,"material":2,"indices":5,"attributes":{"POSITION":3,"TEXCOORD_0":4}}]}],"nodes":[{"name":"tile_0291.obj","children":[1]},{"name":"defaultobject","mesh":0}],"samplers":[{},{}],"scenes":[{"nodes":[0]}],"textures":[{"source":0,"sampler":0},{"source":1,"sampler":1}],"scene":0}
