{"asset":{"version":"2.0","generator":"Open Asset Import Library (assimp v6.0.0)"},"extensionsUsed":["KHR_materials_specular","KHR_materials_volume","KHR_materials_ior","FB_ngon_encoding"],"accessors":[{"bufferView":0,"byteOffset":0,"componentType":5126,"count":7749,"type":"VEC3","max":[2.9275121688842773,-0.4237394630908966,0.7392049431800842],"min":[2.2250738585072014e-308,-0.6386659741401672,2.2250738585072014e-308]},{"bufferView":1,"byteOffset":0,"componentType":5126,"count":7749,"type":"VEC2","max":[0.9952105283737183,0.5188770294189453],"min":[2.2250738585072014e-308,2.2250738585072014e-308]},{"bufferView":2,"byteOffset":0,"componentType":5125,"count":36225,"type":"SCALAR","max":[7748],"min":[0]},{"bufferView":3,"byteOffset":0,"componentType":5126,"count":889,"type":"VEC3","max":[0.7124541997909546,-0.4964783489704132,0.7392049431800842],"min":[2.2250738585072014e-308,-0.6386174559593201,2.2250738585072014e-308]},{"bufferView":4,"byteOffset":0,"componentType":5126,"count":889,"type":"VEC2","max":[0.9588127136230469,0.7508697509765625],"min":[2.2250738585072014e-308,2.2250738585072014e-308]},{"bufferView":5,"byteOffset":0,"componentType":5125,"count":4653,"type":"SCALAR","max":[888],"min":[0]}],"buffers":[{"byteLength":336272,"uri":"tile_0464.bin"}],"bufferViews":[{"buffer":0,"byteOffset":0,"byteLength":92988,"target":34962},{"buffer":0,"byteOffset":92988,"byteLength":61992,"target":34962},{"buffer":0,"byteOffset":154980,"byteLength":144900,"target":34963},{"buffer":0,"byteOffset":299880,"byteLength":10668,"target":34962},{"buffer":0,"byteOffset":310548,"byteLength":7112,"target":34962},{"buffer":0,"byteOffset":317660,"byteLength":18612,"target":34963}],"images":[{"uri":"../textures/tile_0464_material_0.jpg"},{"uri":"../textures/tile_0464_material_1.jpg"}],"materials":[{"name":"DefaultMaterial","pbrMetallicRoughness":{"baseColorFactor":[0.6000000238418579,0.6000000238418579,0.6000000238418579,1.0],"metallicFactor":0.0},"extensions":{"KHR_materials_specular":{"specularFactor":1.0,"specularColorFactor":[0.0,0.0,0.0]},"KHR_materials_ior":{"ior":1.0}}},{"name":"material_0_material","pbrMetallicRoughness":{"baseColorTexture":{"index":0},"metallicFactor":0.0},"extensions":{"KHR_materials_specular":{"specularFactor":1.0,"specularColorFactor":[0.0,0.0,0.0]},"KHR_materials_ior":{"ior":1.0}}},{"name":"material_1_material","pbrMetallicRoughness":{"baseColorTexture":{"index":1},"metallicFactor":0.0},"extensions":{"KHR_materials_specular":{"specularFactor":1.0,"specularColorFactor":[0.0,0.0,0.0]},"KHR_materials_ior":{"ior":1.0}}}],"meshes":[{"name":"defaultobject","primitives":[{"mode":4,"material":1,"indices":2,"attributes":{"POSITION":0,"TEXCOORD_0":1}},{"mode":4,"material":2,"indices":5,"attributes":{"POSITION":3,"TEXCOORD_0":4}}]}],"nodes":[{"name":"tile_0464.obj","children":[1]},{"name":"defaultobject","mesh":0}],"samplers":[{},{}],"scenes":[{"nodes":[0]}],"textures":[{"source":0,"sampler":0},{"source":1,"sampler":1}],"scene":0}
