{"asset":{"version":"2.0","generator":"Open Asset Import Library (assimp v6.0.0)"},"extensionsUsed":["KHR_materials_specular","KHR_materials_volume","KHR_materials_ior","FB_ngon_encoding"],"accessors":[{"bufferView":0,"byteOffset":0,"componentType":5126,"count":3605,"type":"VEC3","max":[2.03629207611084,-2.5230586528778076,1.4732892513275146],"min":[2.2250738585072014e-308,-2.6598472595214844,2.2250738585072014e-308]},{"bufferView":1,"byteOffset":0,"componentType":5126,"count":3605,"type":"VEC2","max":[0.994518518447876,0.5715751647949219],"min":[2.2250738585072014e-308,2.2250738585072014e-308]},{"bufferView":2,"byteOffset":0,"componentType":5125,"count":15291,"type":"SCALAR","max":[3604],"min":[0]},{"bufferView":3,"byteOffset":0,"componentType":5126,"count":1459,"type":"VEC3","max":[1.59267258644104,-2.520857095718384,1.4361847639083862],"min":[2.2250738585072014e-308,-2.6610522270202637,2.2250738585072014e-308]},{"bufferView":4,"byteOffset":0,"componentType":5126,"count":1459,"type":"VEC2","max":[0.5565290451049805,0.4962787628173828],"min":[2.2250738585072014e-308,2.2250738585072014e-308]},{"bufferView":5,"byteOffset":0,"componentType":5125,"count":7113,"type":"SCALAR","max":[1458],"min":[0]}],"buffers":[{"byteLength":190896,"uri":"tile_0154.bin"}],"bufferViews":[{"buffer":0,"byteOffset":0,"byteLength":43260,"target":34962},{"buffer":0,"byteOffset":43260,"byteLength":28840,"target":34962},{"buffer":0,"byteOffset":72100,"byteLength":61164,"target":34963},{"buffer":0,"byteOffset":133264,"byteLength":17508,"target":34962},{"buffer":0,"byteOffset":150772,"byteLength":11672,"target":34962},{"buffer":0,"byteOffset":162444,"byteLength":28452,"target":34963}],"images":[{"uri":"../textures/tile_0154_material_0.jpg"},{"uri":"../textures/tile_0154_material_1.jpg"}],"materials":[{"name":"DefaultMaterial","pbrMetallicRoughness":{"baseColorFactor":[0.6000000238418579,0.6000000238418579,0.6000000238418579,1.0],"metallicFactor":0.0},"extensions":{"KHR_materials_specular":{"specularFactor":1.0,"specularColorFactor":[0.0,0.0,0.0]},"KHR_materials_ior":{"ior":1.0}}},{"name":"material_0_material","pbrMetallicRoughness":{"baseColorTexture":{"index":0},"metallicFactor":0.0},"extensions":{"KHR_materials_specular":{"specularFactor":1.0,"specularColorFactor":[0.0,0.0,0.0]},"KHR_materials_ior":{"ior":1.0}}},{"name":"material_1_material","pbrMetallicRoughness":{"baseColorTexture":{"index":1},"metallicFactor":0.0},"extensions":{"KHR_materials_specular":{"specularFactor":1.0,"specularColorFactor":[0.0,0.0,0.0]},"KHR_materials_ior":{"ior":1.0}}}],"meshes":[{"name":"defaultobject","primitives":[{"mode":4,"material":1,"indices":2,"attributes":{"POSITION":0,"TEXCOORD_0":1}},{"mode":4,"material":2,"indices":5,"attributes":{"POSITION":3,"TEXCOORD_0":4}}]}],"nodes":[{"name":"tile_0154.obj","children":[1]},{"name":"defaultobject","mesh":0}],"samplers":[{},{}],"scenes":[{"nodes":[0]}],"textures":[{"source":0,"sampler":0},{"source":1,"sampler":1}],"scene":0}
