{"asset":{"version":"2.0","generator":"Open Asset Import Library (assimp v6.0.0)"},"extensionsUsed":["KHR_materials_specular","KHR_materials_volume","KHR_materials_ior","FB_ngon_encoding"],"accessors":[{"bufferView":0,"byteOffset":0,"componentType":5126,"count":3280,"type":"VEC3","max":[1.8620457649230957,3.3580586910247803,3.9438722133636475],"min":[2.2250738585072014e-308,2.2250738585072014e-308,2.2250738585072014e-308]},{"bufferView":1,"byteOffset":0,"componentType":5126,"count":3280,"type":"VEC2","max":[0.9946002960205078,0.6599197387695312],"min":[2.2250738585072014e-308,2.2250738585072014e-308]},{"bufferView":2,"byteOffset":0,"componentType":5125,"count":14901,"type":"SCALAR","max":[3279],"min":[0]},{"bufferView":3,"byteOffset":0,"componentType":5126,"count":5030,"type":"VEC3","max":[1.845602035522461,3.3577027320861816,3.945133686065674],"min":[2.2250738585072014e-308,2.2250738585072014e-308,2.2250738585072014e-308]},{"bufferView":4,"byteOffset":0,"componentType":5126,"count":5030,"type":"VEC2","max":[0.971379280090332,0.7380790710449219],"min":[2.2250738585072014e-308,2.2250738585072014e-308]},{"bufferView":5,"byteOffset":0,"componentType":5125,"count":27108,"type":"SCALAR","max":[5029],"min":[0]}],"buffers":[{"byteLength":334236,"uri":"tile_0576.bin"}],"bufferViews":[{"buffer":0,"byteOffset":0,"byteLength":39360,"target":34962},{"buffer":0,"byteOffset":39360,"byteLength":26240,"target":34962},{"buffer":0,"byteOffset":65600,"byteLength":59604,"target":34963},{"buffer":0,"byteOffset":125204,"byteLength":60360,"target":34962},{"buffer":0,"byteOffset":185564,"byteLength":40240,"target":34962},{"buffer":0,"byteOffset":225804,"byteLength":108432,"target":34963}],"images":[{"uri":"../textures/tile_0576_material_0.jpg"},{"uri":"../textures/tile_0576_material_1.jpg"}],"materials":[{"name":"DefaultMaterial","pbrMetallicRoughness":{"baseColorFactor":[0.6000000238418579,0.6000000238418579,0.6000000238418579,1.0],"metallicFactor":0.0},"extensions":{"KHR_materials_specular":{"specularFactor":1.0,"specularColorFactor":[0.0,0.0,0.0]},"KHR_materials_ior":{"ior":1.0}}},{"name":"material_0_material","pbrMetallicRoughness":{"baseColorTexture":{"index":0},"metallicFactor":0.0},"extensions":{"KHR_materials_specular":{"specularFactor":1.0,"specularColorFactor":[0.0,0.0,0.0]},"KHR_materials_ior":{"ior":1.0}}},{"name":"material_1_material","pbrMetallicRoughness":{"baseColorTexture":{"index":1},"metallicFactor":0.0},"extensions":{"KHR_materials_specular":{"specularFactor":1.0,"specularColorFactor":[0.0,0.0,0.0]},"KHR_materials_ior":{"ior":1.0}}}],"meshes":[{"name":"defaultobject","primitives":[{"mode":4,"material":1,"indices":2,"attributes":{"POSITION":0,"TEXCOORD_0":1}},{"mode":4,"material":2,"indices":5,"attributes":{"POSITION":3,"TEXCOORD_0":4}}]}],"nodes":[{"name":"tile_0576.obj","children":[1]},{"name":"defaultobject","mesh":0}],"samplers":[{},{}],"scenes":[{"nodes":[0]}],"textures":[{"source":0,"sampler":0},{"source":1,"sampler":1}],"scene":0}
