{"asset":{"version":"2.0","generator":"Open Asset Import Library (assimp v6.0.0)"},"extensionsUsed":["KHR_materials_specular","KHR_materials_volume","KHR_materials_ior","FB_ngon_encoding"],"accessors":[{"bufferView":0,"byteOffset":0,"componentType":5126,"count":12842,"type":"VEC3","max":[2.1086208820343018,-0.1990346610546112,1.6619035005569458],"min":[-0.23751656711101532,-0.4526110887527466,2.2250738585072014e-308]},{"bufferView":1,"byteOffset":0,"componentType":5126,"count":12842,"type":"VEC2","max":[0.9960403442382812,0.7441082000732422],"min":[2.2250738585072014e-308,2.2250738585072014e-308]},{"bufferView":2,"byteOffset":0,"componentType":5125,"count":49140,"type":"SCALAR","max":[12841],"min":[0]},{"bufferView":3,"byteOffset":0,"componentType":5126,"count":2858,"type":"VEC3","max":[1.3774915933609009,-0.2021390050649643,1.655711054801941],"min":[-0.23698247969150543,-0.4421454668045044,2.2250738585072014e-308]},{"bufferView":4,"byteOffset":0,"componentType":5126,"count":2858,"type":"VEC2","max":[0.9886527061462402,0.8410148620605469],"min":[2.2250738585072014e-308,2.2250738585072014e-308]},{"bufferView":5,"byteOffset":0,"componentType":5125,"count":13611,"type":"SCALAR","max":[2857],"min":[0]}],"buffers":[{"byteLength":565004,"uri":"tile_0080.bin"}],"bufferViews":[{"buffer":0,"byteOffset":0,"byteLength":154104,"target":34962},{"buffer":0,"byteOffset":154104,"byteLength":102736,"target":34962},{"buffer":0,"byteOffset":256840,"byteLength":196560,"target":34963},{"buffer":0,"byteOffset":453400,"byteLength":34296,"target":34962},{"buffer":0,"byteOffset":487696,"byteLength":22864,"target":34962},{"buffer":0,"byteOffset":510560,"byteLength":54444,"target":34963}],"images":[{"uri":"../textures/tile_0080_material_0.jpg"},{"uri":"../textures/tile_0080_material_1.jpg"}],"materials":[{"name":"DefaultMaterial","pbrMetallicRoughness":{"baseColorFactor":[0.6000000238418579,0.6000000238418579,0.6000000238418579,1.0],"metallicFactor":0.0},"extensions":{"KHR_materials_specular":{"specularFactor":1.0,"specularColorFactor":[0.0,0.0,0.0]},"KHR_materials_ior":{"ior":1.0}}},{"name":"material_0_material","pbrMetallicRoughness":{"baseColorTexture":{"index":0},"metallicFactor":0.0},"extensions":{"KHR_materials_specular":{"specularFactor":1.0,"specularColorFactor":[0.0,0.0,0.0]},"KHR_materials_ior":{"ior":1.0}}},{"name":"material_1_material","pbrMetallicRoughness":{"baseColorTexture":{"index":1},"metallicFactor":0.0},"extensions":{"KHR_materials_specular":{"specularFactor":1.0,"specularColorFactor":[0.0,0.0,0.0]},"KHR_materials_ior":{"ior":1.0}}}],"meshes":[{"name":"defaultobject","primitives":[{"mode":4,"material":1,"indices":2,"attributes":{"POSITION":0,"TEXCOORD_0":1}},{"mode":4,"material":2,"indices":5,"attributes":{"POSITION":3,"TEXCOORD_0":4}}]}],"nodes":[{"name":"tile_0080.obj","children":[1]},{"name":"defaultobject","mesh":0}],"samplers":[{},{}],"scenes":[{"nodes":[0]}],"textures":[{"source":0,"sampler":0},{"source":1,"sampler":1}],"scene":0}
