{"asset":{"version":"2.0","generator":"Open Asset Import Library (assimp v6.0.0)"},"extensionsUsed":["KHR_materials_specular","KHR_materials_volume","KHR_materials_ior","FB_ngon_encoding"],"accessors":[{"bufferView":0,"byteOffset":0,"componentType":5126,"count":4336,"type":"VEC3","max":[0.9536367654800415,-0.9818928241729736,3.404153347015381],"min":[2.2250738585072014e-308,-1.2137266397476196,2.2250738585072014e-308]},{"bufferView":1,"byteOffset":0,"componentType":5126,"count":4336,"type":"VEC2","max":[0.9957785606384277,0.7159805297851562],"min":[2.2250738585072014e-308,2.2250738585072014e-308]},{"bufferView":2,"byteOffset":0,"componentType":5125,"count":19833,"type":"SCALAR","max":[4335],"min":[0]},{"bufferView":3,"byteOffset":0,"componentType":5126,"count":681,"type":"VEC3","max":[0.9536367654800415,-0.9540950655937195,3.4051575660705566],"min":[2.2250738585072014e-308,-1.2072198390960693,2.2250738585072014e-308]},{"bufferView":4,"byteOffset":0,"componentType":5126,"count":681,"type":"VEC2","max":[0.7677383422851562,0.6306419372558594],"min":[2.2250738585072014e-308,2.2250738585072014e-308]},{"bufferView":5,"byteOffset":0,"componentType":5125,"count":3144,"type":"SCALAR","max":[680],"min":[0]}],"buffers":[{"byteLength":192248,"uri":"tile_0375.bin"}],"bufferViews":[{"buffer":0,"byteOffset":0,"byteLength":52032,"target":34962},{"buffer":0,"byteOffset":52032,"byteLength":34688,"target":34962},{"buffer":0,"byteOffset":86720,"byteLength":79332,"target":34963},{"buffer":0,"byteOffset":166052,"byteLength":8172,"target":34962},{"buffer":0,"byteOffset":174224,"byteLength":5448,"target":34962},{"buffer":0,"byteOffset":179672,"byteLength":12576,"target":34963}],"images":[{"uri":"../textures/tile_0375_material_0.jpg"},{"uri":"../textures/tile_0375_material_1.jpg"}],"materials":[{"name":"DefaultMaterial","pbrMetallicRoughness":{"baseColorFactor":[0.6000000238418579,0.6000000238418579,0.6000000238418579,1.0],"metallicFactor":0.0},"extensions":{"KHR_materials_specular":{"specularFactor":1.0,"specularColorFactor":[0.0,0.0,0.0]},"KHR_materials_ior":{"ior":1.0}}},{"name":"material_0_material","pbrMetallicRoughness":{"baseColorTexture":{"index":0},"metallicFactor":0.0},"extensions":{"KHR_materials_specular":{"specularFactor":1.0,"specularColorFactor":[0.0,0.0,0.0]},"KHR_materials_ior":{"ior":1.0}}},{"name":"material_1_material","pbrMetallicRoughness":{"baseColorTexture":{"index":1},"metallicFactor":0.0},"extensions":{"KHR_materials_specular":{"specularFactor":1.0,"specularColorFactor":[0.0,0.0,0.0]},"KHR_materials_ior":{"ior":1.0}}}],"meshes":[{"name":"defaultobject","primitives":[{"mode":4,"material":1,"indices":2,"attributes":{"POSITION":0,"TEXCOORD_0":1}},{"mode":4,"material":2,"indices":5,"attributes":{"POSITION":3,"TEXCOORD_0":4}}]}],"nodes":[{"name":"tile_0375.obj","children":[1]},{"name":"defaultobject","mesh":0}],"samplers":[{},{}],"scenes":[{"nodes":[0]}],"textures":[{"source":0,"sampler":0},{"source":1,"sampler":1}],"scene":0}
