{"asset":{"version":"2.0","generator":"Open Asset Import Library (assimp v6.0.0)"},"extensionsUsed":["KHR_materials_specular","KHR_materials_volume","KHR_materials_ior","FB_ngon_encoding"],"accessors":[{"bufferView":0,"byteOffset":0,"componentType":5126,"count":3969,"type":"VEC3","max":[1.1039379835128784,-3.3681747913360596,1.9340676069259644],"min":[2.2250738585072014e-308,-3.5111069679260254,2.2250738585072014e-308]},{"bufferView":1,"byteOffset":0,"componentType":5126,"count":3969,"type":"VEC2","max":[0.9917130470275879,0.7550010681152344],"min":[2.2250738585072014e-308,2.2250738585072014e-308]},{"bufferView":2,"byteOffset":0,"componentType":5125,"count":14952,"type":"SCALAR","max":[3968],"min":[0]},{"bufferView":3,"byteOffset":0,"componentType":5126,"count":15,"type":"VEC3","max":[1.2621076107025146,-3.497913360595703,1.820807933807373],"min":[2.2250738585072014e-308,-3.5098822116851807,2.2250738585072014e-308]},{"bufferView":4,"byteOffset":0,"componentType":5126,"count":15,"type":"VEC2","max":[0.5845946073532104,0.4086760878562927],"min":[2.2250738585072014e-308,2.2250738585072014e-308]},{"bufferView":5,"byteOffset":0,"componentType":5125,"count":48,"type":"SCALAR","max":[14],"min":[0]}],"buffers":[{"byteLength":139680,"uri":"tile_0604.bin"}],"bufferViews":[{"buffer":0,"byteOffset":0,"byteLength":47628,"target":34962},{"buffer":0,"byteOffset":47628,"byteLength":31752,"target":34962},{"buffer":0,"byteOffset":79380,"byteLength":59808,"target":34963},{"buffer":0,"byteOffset":139188,"byteLength":180,"target":34962},{"buffer":0,"byteOffset":139368,"byteLength":120,"target":34962},{"buffer":0,"byteOffset":139488,"byteLength":192,"target":34963}],"images":[{"uri":"../textures/tile_0604_material_0.jpg"},{"uri":"../textures/tile_0604_material_1.jpg"}],"materials":[{"name":"DefaultMaterial","pbrMetallicRoughness":{"baseColorFactor":[0.6000000238418579,0.6000000238418579,0.6000000238418579,1.0],"metallicFactor":0.0},"extensions":{"KHR_materials_specular":{"specularFactor":1.0,"specularColorFactor":[0.0,0.0,0.0]},"KHR_materials_ior":{"ior":1.0}}},{"name":"material_0_material","pbrMetallicRoughness":{"baseColorTexture":{"index":0},"metallicFactor":0.0},"extensions":{"KHR_materials_specular":{"specularFactor":1.0,"specularColorFactor":[0.0,0.0,0.0]},"KHR_materials_ior":{"ior":1.0}}},{"name":"material_1_material","pbrMetallicRoughness":{"baseColorTexture":{"index":1},"metallicFactor":0.0},"extensions":{"KHR_materials_specular":{"specularFactor":1.0,"specularColorFactor":[0.0,0.0,0.0]},"KHR_materials_ior":{"ior":1.0}}}],"meshes":[{"name":"defaultobject","primitives":[{"mode":4,"material":1,"indices":2,"attributes":{"POSITION":0,"TEXCOORD_0":1}},{"mode":4,"material":2,"indices":5,"attributes":{"POSITION":3,"TEXCOORD_0":4}}]}],"nodes":[{"name":"tile_0604.obj","children":[1]},{"name":"defaultobject","mesh":0}],"samplers":[{},{}],"scenes":[{"nodes":[0]}],"textures":[{"source":0,"sampler":0},{"source":1,"sampler":1}],"scene":0}
