{"asset":{"version":"2.0","generator":"Open Asset Import Library (assimp v6.0.0)"},"extensionsUsed":["KHR_materials_specular","KHR_materials_volume","KHR_materials_ior","FB_ngon_encoding"],"accessors":[{"bufferView":0,"byteOffset":0,"componentType":5126,"count":11238,"type":"VEC3","max":[1.0741163492202759,1.1206719875335693,1.5676805973052979],"min":[2.2250738585072014e-308,2.2250738585072014e-308,2.2250738585072014e-308]},{"bufferView":1,"byteOffset":0,"componentType":5126,"count":11238,"type":"VEC2","max":[0.9886239767074585,0.5779809951782227],"min":[2.2250738585072014e-308,2.2250738585072014e-308]},{"bufferView":2,"byteOffset":0,"componentType":5125,"count":52392,"type":"SCALAR","max":[11237],"min":[0]},{"bufferView":3,"byteOffset":0,"componentType":5126,"count":258,"type":"VEC3","max":[1.0881483554840088,1.1196446418762207,1.5621424913406372],"min":[2.2250738585072014e-308,2.2250738585072014e-308,2.2250738585072014e-308]},{"bufferView":4,"byteOffset":0,"componentType":5126,"count":258,"type":"VEC2","max":[0.6274175643920898,0.630035400390625],"min":[2.2250738585072014e-308,2.2250738585072014e-308]},{"bufferView":5,"byteOffset":0,"componentType":5125,"count":1092,"type":"SCALAR","max":[257],"min":[0]}],"buffers":[{"byteLength":443856,"uri":"tile_0086.bin"}],"bufferViews":[{"buffer":0,"byteOffset":0,"byteLength":134856,"target":34962},{"buffer":0,"byteOffset":134856,"byteLength":89904,"target":34962},{"buffer":0,"byteOffset":224760,"byteLength":209568,"target":34963},{"buffer":0,"byteOffset":434328,"byteLength":3096,"target":34962},{"buffer":0,"byteOffset":437424,"byteLength":2064,"target":34962},{"buffer":0,"byteOffset":439488,"byteLength":4368,"target":34963}],"images":[{"uri":"../textures/tile_0086_material_0.jpg"},{"uri":"../textures/tile_0086_material_1.jpg"}],"materials":[{"name":"DefaultMaterial","pbrMetallicRoughness":{"baseColorFactor":[0.6000000238418579,0.6000000238418579,0.6000000238418579,1.0],"metallicFactor":0.0},"extensions":{"KHR_materials_specular":{"specularFactor":1.0,"specularColorFactor":[0.0,0.0,0.0]},"KHR_materials_ior":{"ior":1.0}}},{"name":"material_0_material","pbrMetallicRoughness":{"baseColorTexture":{"index":0},"metallicFactor":0.0},"extensions":{"KHR_materials_specular":{"specularFactor":1.0,"specularColorFactor":[0.0,0.0,0.0]},"KHR_materials_ior":{"ior":1.0}}},{"name":"material_1_material","pbrMetallicRoughness":{"baseColorTexture":{"index":1},"metallicFactor":0.0},"extensions":{"KHR_materials_specular":{"specularFactor":1.0,"specularColorFactor":[0.0,0.0,0.0]},"KHR_materials_ior":{"ior":1.0}}}],"meshes":[{"name":"defaultobject","primitives":[{"mode":4,"material":1,"indices":2,"attributes":{"POSITION":0,"TEXCOORD_0":1}},{"mode":4,"material":2,"indices":5,"attributes":{"POSITION":3,"TEXCOORD_0":4}}]}],"nodes":[{"name":"tile_0086.obj","children":[1]},{"name":"defaultobject","mesh":0}],"samplers":[{},{}],"scenes":[{"nodes":[0]}],"textures":[{"source":0,"sampler":0},{"source":1,"sampler":1}],"scene":0}
