{"asset":{"version":"2.0","generator":"Open Asset Import Library (assimp v6.0.0)"},"extensionsUsed":["KHR_materials_specular","KHR_materials_volume","KHR_materials_ior","FB_ngon_encoding"],"accessors":[{"bufferView":0,"byteOffset":0,"componentType":5126,"count":8536,"type":"VEC3","max":[2.599961519241333,-0.8380193114280701,1.2664240598678589],"min":[-0.1965690404176712,-1.2618941068649292,2.2250738585072014e-308]},{"bufferView":1,"byteOffset":0,"componentType":5126,"count":8536,"type":"VEC2","max":[0.9903597831726074,0.8749656677246094],"min":[2.2250738585072014e-308,2.2250738585072014e-308]},{"bufferView":2,"byteOffset":0,"componentType":5125,"count":37176,"type":"SCALAR","max":[8535],"min":[0]},{"bufferView":3,"byteOffset":0,"componentType":5126,"count":145,"type":"VEC3","max":[-0.1203688383102417,-0.8419482111930847,1.2625954151153564],"min":[-0.15768708288669586,-1.2596043348312378,2.2250738585072014e-308]},{"bufferView":4,"byteOffset":0,"componentType":5126,"count":145,"type":"VEC2","max":[0.6380176544189453,0.7991485595703125],"min":[2.2250738585072014e-308,2.2250738585072014e-308]},{"bufferView":5,"byteOffset":0,"componentType":5125,"count":561,"type":"SCALAR","max":[144],"min":[0]}],"buffers":[{"byteLength":324568,"uri":"tile_0017.bin"}],"bufferViews":[{"buffer":0,"byteOffset":0,"byteLength":102432,"target":34962},{"buffer":0,"byteOffset":102432,"byteLength":68288,"target":34962},{"buffer":0,"byteOffset":170720,"byteLength":148704,"target":34963},{"buffer":0,"byteOffset":319424,"byteLength":1740,"target":34962},{"buffer":0,"byteOffset":321164,"byteLength":1160,"target":34962},{"buffer":0,"byteOffset":322324,"byteLength":2244,"target":34963}],"images":[{"uri":"../textures/tile_0017_material_0.jpg"},{"uri":"../textures/tile_0017_material_1.jpg"}],"materials":[{"name":"DefaultMaterial","pbrMetallicRoughness":{"baseColorFactor":[0.6000000238418579,0.6000000238418579,0.6000000238418579,1.0],"metallicFactor":0.0},"extensions":{"KHR_materials_specular":{"specularFactor":1.0,"specularColorFactor":[0.0,0.0,0.0]},"KHR_materials_ior":{"ior":1.0}}},{"name":"material_0_material","pbrMetallicRoughness":{"baseColorTexture":{"index":0},"metallicFactor":0.0},"extensions":{"KHR_materials_specular":{"specularFactor":1.0,"specularColorFactor":[0.0,0.0,0.0]},"KHR_materials_ior":{"ior":1.0}}},{"name":"material_1_material","pbrMetallicRoughness":{"baseColorTexture":{"index":1},"metallicFactor":0.0},"extensions":{"KHR_materials_specular":{"specularFactor":1.0,"specularColorFactor":[0.0,0.0,0.0]},"KHR_materials_ior":{"ior":1.0}}}],"meshes":[{"name":"defaultobject","primitives":[{"mode":4,"material":1,"indices":2,"attributes":{"POSITION":0,"TEXCOORD_0":1}},{"mode":4,"material":2,"indices":5,"attributes":{"POSITION":3,"TEXCOORD_0":4}}]}],"nodes":[{"name":"tile_0017.obj","children":[1]},{"name":"defaultobject","mesh":0}],"samplers":[{},{}],"scenes":[{"nodes":[0]}],"textures":[{"source":0,"sampler":0},{"source":1,"sampler":1}],"scene":0}
