{"asset":{"version":"2.0","generator":"Open Asset Import Library (assimp v6.0.0)"},"extensionsUsed":["KHR_materials_specular","KHR_materials_volume","KHR_materials_ior","FB_ngon_encoding"],"accessors":[{"bufferView":0,"byteOffset":0,"componentType":5126,"count":11338,"type":"VEC3","max":[1.0576790571212769,0.2831684350967407,4.705231666564941],"min":[-0.5340917110443115,2.2250738585072014e-308,2.2250738585072014e-308]},{"bufferView":1,"byteOffset":0,"componentType":5126,"count":11338,"type":"VEC2","max":[0.9922268390655518,0.96282958984375],"min":[2.2250738585072014e-308,2.2250738585072014e-308]},{"bufferView":2,"byteOffset":0,"componentType":5125,"count":49449,"type":"SCALAR","max":[11337],"min":[0]},{"bufferView":3,"byteOffset":0,"componentType":5126,"count":4121,"type":"VEC3","max":[0.967551052570343,0.2783638834953308,4.223644256591797],"min":[-0.045021191239356995,2.2250738585072014e-308,2.2250738585072014e-308]},{"bufferView":4,"byteOffset":0,"componentType":5126,"count":4121,"type":"VEC2","max":[0.9742412567138672,0.5953598022460938],"min":[2.2250738585072014e-308,2.2250738585072014e-308]},{"bufferView":5,"byteOffset":0,"componentType":5125,"count":20460,"type":"SCALAR","max":[4120],"min":[0]}],"buffers":[{"byteLength":588816,"uri":"tile_0413.bin"}],"bufferViews":[{"buffer":0,"byteOffset":0,"byteLength":136056,"target":34962},{"buffer":0,"byteOffset":136056,"byteLength":90704,"target":34962},{"buffer":0,"byteOffset":226760,"byteLength":197796,"target":34963},{"buffer":0,"byteOffset":424556,"byteLength":49452,"target":34962},{"buffer":0,"byteOffset":474008,"byteLength":32968,"target":34962},{"buffer":0,"byteOffset":506976,"byteLength":81840,"target":34963}],"images":[{"uri":"../textures/tile_0413_material_0.jpg"},{"uri":"../textures/tile_0413_material_1.jpg"}],"materials":[{"name":"DefaultMaterial","pbrMetallicRoughness":{"baseColorFactor":[0.6000000238418579,0.6000000238418579,0.6000000238418579,1.0],"metallicFactor":0.0},"extensions":{"KHR_materials_specular":{"specularFactor":1.0,"specularColorFactor":[0.0,0.0,0.0]},"KHR_materials_ior":{"ior":1.0}}},{"name":"material_0_material","pbrMetallicRoughness":{"baseColorTexture":{"index":0},"metallicFactor":0.0},"extensions":{"KHR_materials_specular":{"specularFactor":1.0,"specularColorFactor":[0.0,0.0,0.0]},"KHR_materials_ior":{"ior":1.0}}},{"name":"material_1_material","pbrMetallicRoughness":{"baseColorTexture":{"index":1},"metallicFactor":0.0},"extensions":{"KHR_materials_specular":{"specularFactor":1.0,"specularColorFactor":[0.0,0.0,0.0]},"KHR_materials_ior":{"ior":1.0}}}],"meshes":[{"name":"defaultobject","primitives":[{"mode":4,"material":1,"indices":2,"attributes":{"POSITION":0,"TEXCOORD_0":1}},{"mode":4,"material":2,"indices":5,"attributes":{"POSITION":3,"TEXCOORD_0":4}}]}],"nodes":[{"name":"tile_0413.obj","children":[1]},{"name":"defaultobject","mesh":0}],"samplers":[{},{}],"scenes":[{"nodes":[0]}],"textures":[{"source":0,"sampler":0},{"source":1,"sampler":1}],"scene":0}
