{"asset":{"version":"2.0","generator":"Open Asset Import Library (assimp v6.0.0)"},"extensionsUsed":["KHR_materials_specular","KHR_materials_volume","KHR_materials_ior","FB_ngon_encoding"],"accessors":[{"bufferView":0,"byteOffset":0,"componentType":5126,"count":3391,"type":"VEC3","max":[2.046196937561035,-3.06274151802063,1.2232991456985474],"min":[2.2250738585072014e-308,-4.219366550445557,2.2250738585072014e-308]},{"bufferView":1,"byteOffset":0,"componentType":5126,"count":3391,"type":"VEC2","max":[0.9920098781585693,0.6326484680175781],"min":[2.2250738585072014e-308,2.2250738585072014e-308]},{"bufferView":2,"byteOffset":0,"componentType":5125,"count":14739,"type":"SCALAR","max":[3390],"min":[0]},{"bufferView":3,"byteOffset":0,"componentType":5126,"count":2062,"type":"VEC3","max":[2.0616421699523926,-3.0490214824676514,1.2250694036483765],"min":[2.2250738585072014e-308,-3.8911049365997314,2.2250738585072014e-308]},{"bufferView":4,"byteOffset":0,"componentType":5126,"count":2062,"type":"VEC2","max":[0.6598016619682312,0.5190391540527344],"min":[2.2250738585072014e-308,2.2250738585072014e-308]},{"bufferView":5,"byteOffset":0,"componentType":5125,"count":10596,"type":"SCALAR","max":[2061],"min":[0]}],"buffers":[{"byteLength":210400,"uri":"tile_0158.bin"}],"bufferViews":[{"buffer":0,"byteOffset":0,"byteLength":40692,"target":34962},{"buffer":0,"byteOffset":40692,"byteLength":27128,"target":34962},{"buffer":0,"byteOffset":67820,"byteLength":58956,"target":34963},{"buffer":0,"byteOffset":126776,"byteLength":24744,"target":34962},{"buffer":0,"byteOffset":151520,"byteLength":16496,"target":34962},{"buffer":0,"byteOffset":168016,"byteLength":42384,"target":34963}],"images":[{"uri":"../textures/tile_0158_material_0.jpg"},{"uri":"../textures/tile_0158_material_1.jpg"}],"materials":[{"name":"DefaultMaterial","pbrMetallicRoughness":{"baseColorFactor":[0.6000000238418579,0.6000000238418579,0.6000000238418579,1.0],"metallicFactor":0.0},"extensions":{"KHR_materials_specular":{"specularFactor":1.0,"specularColorFactor":[0.0,0.0,0.0]},"KHR_materials_ior":{"ior":1.0}}},{"name":"material_0_material","pbrMetallicRoughness":{"baseColorTexture":{"index":0},"metallicFactor":0.0},"extensions":{"KHR_materials_specular":{"specularFactor":1.0,"specularColorFactor":[0.0,0.0,0.0]},"KHR_materials_ior":{"ior":1.0}}},{"name":"material_1_material","pbrMetallicRoughness":{"baseColorTexture":{"index":1},"metallicFactor":0.0},"extensions":{"KHR_materials_specular":{"specularFactor":1.0,"specularColorFactor":[0.0,0.0,0.0]},"KHR_materials_ior":{"ior":1.0}}}],"meshes":[{"name":"defaultobject","primitives":[{"mode":4,"material":1,"indices":2,"attributes":{"POSITION":0,"TEXCOORD_0":1}},{"mode":4,"material":2,"indices":5,"attributes":{"POSITION":3,"TEXCOORD_0":4}}]}],"nodes":[{"name":"tile_0158.obj","children":[1]},{"name":"defaultobject","mesh":0}],"samplers":[{},{}],"scenes":[{"nodes":[0]}],"textures":[{"source":0,"sampler":0},{"source":1,"sampler":1}],"scene":0}
