{"asset":{"version":"2.0","generator":"Open Asset Import Library (assimp v6.0.0)"},"extensionsUsed":["KHR_materials_specular","KHR_materials_volume","KHR_materials_ior","FB_ngon_encoding"],"accessors":[{"bufferView":0,"byteOffset":0,"componentType":5126,"count":3704,"type":"VEC3","max":[2.1063973903656006,-1.1413719654083252,1.8438552618026733],"min":[-0.4758129417896271,-1.3617784976959229,2.2250738585072014e-308]},{"bufferView":1,"byteOffset":0,"componentType":5126,"count":3704,"type":"VEC2","max":[0.9907052516937256,0.690704345703125],"min":[2.2250738585072014e-308,2.2250738585072014e-308]},{"bufferView":2,"byteOffset":0,"componentType":5125,"count":13578,"type":"SCALAR","max":[3703],"min":[0]},{"bufferView":3,"byteOffset":0,"componentType":5126,"count":2209,"type":"VEC3","max":[-0.39567044377326965,-1.1462708711624146,1.843520998954773],"min":[-0.47586682438850403,-1.345615267753601,2.2250738585072014e-308]},{"bufferView":4,"byteOffset":0,"componentType":5126,"count":2209,"type":"VEC2","max":[0.5483236312866211,0.8762130737304688],"min":[2.2250738585072014e-308,2.2250738585072014e-308]},{"bufferView":5,"byteOffset":0,"componentType":5125,"count":10416,"type":"SCALAR","max":[2208],"min":[0]}],"buffers":[{"byteLength":214236,"uri":"tile_0288.bin"}],"bufferViews":[{"buffer":0,"byteOffset":0,"byteLength":44448,"target":34962},{"buffer":0,"byteOffset":44448,"byteLength":29632,"target":34962},{"buffer":0,"byteOffset":74080,"byteLength":54312,"target":34963},{"buffer":0,"byteOffset":128392,"byteLength":26508,"target":34962},{"buffer":0,"byteOffset":154900,"byteLength":17672,"target":34962},{"buffer":0,"byteOffset":172572,"byteLength":41664,"target":34963}],"images":[{"uri":"../textures/tile_0288_material_0.jpg"},{"uri":"../textures/tile_0288_material_1.jpg"}],"materials":[{"name":"DefaultMaterial","pbrMetallicRoughness":{"baseColorFactor":[0.6000000238418579,0.6000000238418579,0.6000000238418579,1.0],"metallicFactor":0.0},"extensions":{"KHR_materials_specular":{"specularFactor":1.0,"specularColorFactor":[0.0,0.0,0.0]},"KHR_materials_ior":{"ior":1.0}}},{"name":"material_0_material","pbrMetallicRoughness":{"baseColorTexture":{"index":0},"metallicFactor":0.0},"extensions":{"KHR_materials_specular":{"specularFactor":1.0,"specularColorFactor":[0.0,0.0,0.0]},"KHR_materials_ior":{"ior":1.0}}},{"name":"material_1_material","pbrMetallicRoughness":{"baseColorTexture":{"index":1},"metallicFactor":0.0},"extensions":{"KHR_materials_specular":{"specularFactor":1.0,"specularColorFactor":[0.0,0.0,0.0]},"KHR_materials_ior":{"ior":1.0}}}],"meshes":[{"name":"defaultobject","primitives":[{"mode":4,"material":1,"indices":2,"attributes":{"POSITION":0,"TEXCOORD_0":1}},{"mode":4,"material":2,"indices":5,"attributes":{"POSITION":3,"TEXCOORD_0":4}}]}],"nodes":[{"name":"tile_0288.obj","children":[1]},{"name":"defaultobject","mesh":0}],"samplers":[{},{}],"scenes":[{"nodes":[0]}],"textures":[{"source":0,"sampler":0},{"source":1,"sampler":1}],"scene":0}
