{"asset":{"version":"2.0","generator":"Open Asset Import Library (assimp v6.0.0)"},"extensionsUsed":["KHR_materials_specular","KHR_materials_volume","KHR_materials_ior","FB_ngon_encoding"],"accessors":[{"bufferView":0,"byteOffset":0,"componentType":5126,"count":3494,"type":"VEC3","max":[2.0560860633850098,-2.265521764755249,1.438537359237671],"min":[-0.030634436756372452,-2.5405468940734863,2.2250738585072014e-308]},{"bufferView":1,"byteOffset":0,"componentType":5126,"count":3494,"type":"VEC2","max":[0.9950079917907715,0.8477706909179688],"min":[2.2250738585072014e-308,2.2250738585072014e-308]},{"bufferView":2,"byteOffset":0,"componentType":5125,"count":14775,"type":"SCALAR","max":[3493],"min":[0]},{"bufferView":3,"byteOffset":0,"componentType":5126,"count":554,"type":"VEC3","max":[1.3651776313781738,-2.311802625656128,1.438537359237671],"min":[2.2250738585072014e-308,-2.5362188816070557,2.2250738585072014e-308]},{"bufferView":4,"byteOffset":0,"componentType":5126,"count":554,"type":"VEC2","max":[0.9802207946777344,0.65386962890625],"min":[2.2250738585072014e-308,2.2250738585072014e-308]},{"bufferView":5,"byteOffset":0,"componentType":5125,"count":2607,"type":"SCALAR","max":[553],"min":[0]}],"buffers":[{"byteLength":150488,"uri":"tile_0278.bin"}],"bufferViews":[{"buffer":0,"byteOffset":0,"byteLength":41928,"target":34962},{"buffer":0,"byteOffset":41928,"byteLength":27952,"target":34962},{"buffer":0,"byteOffset":69880,"byteLength":59100,"target":34963},{"buffer":0,"byteOffset":128980,"byteLength":6648,"target":34962},{"buffer":0,"byteOffset":135628,"byteLength":4432,"target":34962},{"buffer":0,"byteOffset":140060,"byteLength":10428,"target":34963}],"images":[{"uri":"../textures/tile_0278_material_0.jpg"},{"uri":"../textures/tile_0278_material_1.jpg"}],"materials":[{"name":"DefaultMaterial","pbrMetallicRoughness":{"baseColorFactor":[0.6000000238418579,0.6000000238418579,0.6000000238418579,1.0],"metallicFactor":0.0},"extensions":{"KHR_materials_specular":{"specularFactor":1.0,"specularColorFactor":[0.0,0.0,0.0]},"KHR_materials_ior":{"ior":1.0}}},{"name":"material_0_material","pbrMetallicRoughness":{"baseColorTexture":{"index":0},"metallicFactor":0.0},"extensions":{"KHR_materials_specular":{"specularFactor":1.0,"specularColorFactor":[0.0,0.0,0.0]},"KHR_materials_ior":{"ior":1.0}}},{"name":"material_1_material","pbrMetallicRoughness":{"baseColorTexture":{"index":1},"metallicFactor":0.0},"extensions":{"KHR_materials_specular":{"specularFactor":1.0,"specularColorFactor":[0.0,0.0,0.0]},"KHR_materials_ior":{"ior":1.0}}}],"meshes":[{"name":"defaultobject","primitives":[{"mode":4,"material":1,"indices":2,"attributes":{"POSITION":0,"TEXCOORD_0":1}},{"mode":4,"material":2,"indices":5,"attributes":{"POSITION":3,"TEXCOORD_0":4}}]}],"nodes":[{"name":"tile_0278.obj","children":[1]},{"name":"defaultobject","mesh":0}],"samplers":[{},{}],"scenes":[{"nodes":[0]}],"textures":[{"source":0,"sampler":0},{"source":1,"sampler":1}],"scene":0}
