{"asset":{"version":"2.0","generator":"Open Asset Import Library (assimp v6.0.0)"},"extensionsUsed":["KHR_materials_specular","KHR_materials_volume","KHR_materials_ior","FB_ngon_encoding"],"accessors":[{"bufferView":0,"byteOffset":0,"componentType":5126,"count":3195,"type":"VEC3","max":[1.792810320854187,-3.5001795291900635,1.827107548713684],"min":[2.2250738585072014e-308,-4.218131065368652,2.2250738585072014e-308]},{"bufferView":1,"byteOffset":0,"componentType":5126,"count":3195,"type":"VEC2","max":[0.9955315589904785,0.6132678985595703],"min":[2.2250738585072014e-308,2.2250738585072014e-308]},{"bufferView":2,"byteOffset":0,"componentType":5125,"count":11106,"type":"SCALAR","max":[3194],"min":[0]},{"bufferView":3,"byteOffset":0,"componentType":5126,"count":923,"type":"VEC3","max":[1.810322642326355,-3.5038328170776367,1.8949514627456665],"min":[2.2250738585072014e-308,-4.160210609436035,2.2250738585072014e-308]},{"bufferView":4,"byteOffset":0,"componentType":5126,"count":923,"type":"VEC2","max":[0.8680038452148438,0.5465583801269531],"min":[2.2250738585072014e-308,2.2250738585072014e-308]},{"bufferView":5,"byteOffset":0,"componentType":5125,"count":3894,"type":"SCALAR","max":[922],"min":[0]}],"buffers":[{"byteLength":142360,"uri":"tile_0600.bin"}],"bufferViews":[{"buffer":0,"byteOffset":0,"byteLength":38340,"target":34962},{"buffer":0,"byteOffset":38340,"byteLength":25560,"target":34962},{"buffer":0,"byteOffset":63900,"byteLength":44424,"target":34963},{"buffer":0,"byteOffset":108324,"byteLength":11076,"target":34962},{"buffer":0,"byteOffset":119400,"byteLength":7384,"target":34962},{"buffer":0,"byteOffset":126784,"byteLength":15576,"target":34963}],"images":[{"uri":"../textures/tile_0600_material_0.jpg"},{"uri":"../textures/tile_0600_material_1.jpg"}],"materials":[{"name":"DefaultMaterial","pbrMetallicRoughness":{"baseColorFactor":[0.6000000238418579,0.6000000238418579,0.6000000238418579,1.0],"metallicFactor":0.0},"extensions":{"KHR_materials_specular":{"specularFactor":1.0,"specularColorFactor":[0.0,0.0,0.0]},"KHR_materials_ior":{"ior":1.0}}},{"name":"material_0_material","pbrMetallicRoughness":{"baseColorTexture":{"index":0},"metallicFactor":0.0},"extensions":{"KHR_materials_specular":{"specularFactor":1.0,"specularColorFactor":[0.0,0.0,0.0]},"KHR_materials_ior":{"ior":1.0}}},{"name":"material_1_material","pbrMetallicRoughness":{"baseColorTexture":{"index":1},"metallicFactor":0.0},"extensions":{"KHR_materials_specular":{"specularFactor":1.0,"specularColorFactor":[0.0,0.0,0.0]},"KHR_materials_ior":{"ior":1.0}}}],"meshes":[{"name":"defaultobject","primitives":[{"mode":4,"material":1,"indices":2,"attributes":{"POSITION":0,"TEXCOORD_0":1}},{"mode":4,"material":2,"indices":5,"attributes":{"POSITION":3,"TEXCOORD_0":4}}]}],"nodes":[{"name":"tile_0600.obj","children":[1]},{"name":"defaultobject","mesh":0}],"samplers":[{},{}],"scenes":[{"nodes":[0]}],"textures":[{"source":0,"sampler":0},{"source":1,"sampler":1}],"scene":0}
