{"asset":{"version":"2.0","generator":"Open Asset Import Library (assimp v6.0.0)"},"extensionsUsed":["KHR_materials_specular","KHR_materials_volume","KHR_materials_ior","FB_ngon_encoding"],"accessors":[{"bufferView":0,"byteOffset":0,"componentType":5126,"count":3226,"type":"VEC3","max":[0.910833477973938,-0.7584967017173767,3.867788791656494],"min":[2.2250738585072014e-308,-0.9618228673934937,2.2250738585072014e-308]},{"bufferView":1,"byteOffset":0,"componentType":5126,"count":3226,"type":"VEC2","max":[0.9936888217926025,0.5780258178710938],"min":[2.2250738585072014e-308,2.2250738585072014e-308]},{"bufferView":2,"byteOffset":0,"componentType":5125,"count":14346,"type":"SCALAR","max":[3225],"min":[0]},{"bufferView":3,"byteOffset":0,"componentType":5126,"count":1116,"type":"VEC3","max":[0.7905938029289246,-0.7689708471298218,3.8715693950653076],"min":[2.2250738585072014e-308,-0.9555558562278748,2.2250738585072014e-308]},{"bufferView":4,"byteOffset":0,"componentType":5126,"count":1116,"type":"VEC2","max":[0.8584928512573242,0.5535354614257812],"min":[2.2250738585072014e-308,2.2250738585072014e-308]},{"bufferView":5,"byteOffset":0,"componentType":5125,"count":5508,"type":"SCALAR","max":[1115],"min":[0]}],"buffers":[{"byteLength":166256,"uri":"tile_0373.bin"}],"bufferViews":[{"buffer":0,"byteOffset":0,"byteLength":38712,"target":34962},{"buffer":0,"byteOffset":38712,"byteLength":25808,"target":34962},{"buffer":0,"byteOffset":64520,"byteLength":57384,"target":34963},{"buffer":0,"byteOffset":121904,"byteLength":13392,"target":34962},{"buffer":0,"byteOffset":135296,"byteLength":8928,"target":34962},{"buffer":0,"byteOffset":144224,"byteLength":22032,"target":34963}],"images":[{"uri":"../textures/tile_0373_material_0.jpg"},{"uri":"../textures/tile_0373_material_1.jpg"}],"materials":[{"name":"DefaultMaterial","pbrMetallicRoughness":{"baseColorFactor":[0.6000000238418579,0.6000000238418579,0.6000000238418579,1.0],"metallicFactor":0.0},"extensions":{"KHR_materials_specular":{"specularFactor":1.0,"specularColorFactor":[0.0,0.0,0.0]},"KHR_materials_ior":{"ior":1.0}}},{"name":"material_0_material","pbrMetallicRoughness":{"baseColorTexture":{"index":0},"metallicFactor":0.0},"extensions":{"KHR_materials_specular":{"specularFactor":1.0,"specularColorFactor":[0.0,0.0,0.0]},"KHR_materials_ior":{"ior":1.0}}},{"name":"material_1_material","pbrMetallicRoughness":{"baseColorTexture":{"index":1},"metallicFactor":0.0},"extensions":{"KHR_materials_specular":{"specularFactor":1.0,"specularColorFactor":[0.0,0.0,0.0]},"KHR_materials_ior":{"ior":1.0}}}],"meshes":[{"name":"defaultobject","primitives":[{"mode":4,"material":1,"indices":2,"attributes":{"POSITION":0,"TEXCOORD_0":1}},{"mode":4,"material":2,"indices":5,"attributes":{"POSITION":3,"TEXCOORD_0":4}}]}],"nodes":[{"name":"tile_0373.obj","children":[1]},{"name":"defaultobject","mesh":0}],"samplers":[{},{}],"scenes":[{"nodes":[0]}],"textures":[{"source":0,"sampler":0},{"source":1,"sampler":1}],"scene":0}
