{"asset":{"version":"2.0","generator":"Open Asset Import Library (assimp v6.0.0)"},"extensionsUsed":["KHR_materials_specular","KHR_materials_volume","KHR_materials_ior","FB_ngon_encoding"],"accessors":[{"bufferView":0,"byteOffset":0,"componentType":5126,"count":5186,"type":"VEC3","max":[1.0869009494781494,-1.3479764461517334,3.458953380584717],"min":[2.2250738585072014e-308,-1.5741832256317139,2.2250738585072014e-308]},{"bufferView":1,"byteOffset":0,"componentType":5126,"count":5186,"type":"VEC2","max":[0.9833239316940308,0.6084194183349609],"min":[2.2250738585072014e-308,2.2250738585072014e-308]},{"bufferView":2,"byteOffset":0,"componentType":5125,"count":22854,"type":"SCALAR","max":[5185],"min":[0]},{"bufferView":3,"byteOffset":0,"componentType":5126,"count":90,"type":"VEC3","max":[1.080141544342041,-1.506458044052124,3.2655410766601562],"min":[2.2250738585072014e-308,-1.5747570991516113,2.2250738585072014e-308]},{"bufferView":4,"byteOffset":0,"componentType":5126,"count":90,"type":"VEC2","max":[0.6836585998535156,0.6431884765625],"min":[2.2250738585072014e-308,2.2250738585072014e-308]},{"bufferView":5,"byteOffset":0,"componentType":5125,"count":363,"type":"SCALAR","max":[89],"min":[0]}],"buffers":[{"byteLength":198388,"uri":"tile_0370.bin"}],"bufferViews":[{"buffer":0,"byteOffset":0,"byteLength":62232,"target":34962},{"buffer":0,"byteOffset":62232,"byteLength":41488,"target":34962},{"buffer":0,"byteOffset":103720,"byteLength":91416,"target":34963},{"buffer":0,"byteOffset":195136,"byteLength":1080,"target":34962},{"buffer":0,"byteOffset":196216,"byteLength":720,"target":34962},{"buffer":0,"byteOffset":196936,"byteLength":1452,"target":34963}],"images":[{"uri":"../textures/tile_0370_material_0.jpg"},{"uri":"../textures/tile_0370_material_1.jpg"}],"materials":[{"name":"DefaultMaterial","pbrMetallicRoughness":{"baseColorFactor":[0.6000000238418579,0.6000000238418579,0.6000000238418579,1.0],"metallicFactor":0.0},"extensions":{"KHR_materials_specular":{"specularFactor":1.0,"specularColorFactor":[0.0,0.0,0.0]},"KHR_materials_ior":{"ior":1.0}}},{"name":"material_0_material","pbrMetallicRoughness":{"baseColorTexture":{"index":0},"metallicFactor":0.0},"extensions":{"KHR_materials_specular":{"specularFactor":1.0,"specularColorFactor":[0.0,0.0,0.0]},"KHR_materials_ior":{"ior":1.0}}},{"name":"material_1_material","pbrMetallicRoughness":{"baseColorTexture":{"index":1},"metallicFactor":0.0},"extensions":{"KHR_materials_specular":{"specularFactor":1.0,"specularColorFactor":[0.0,0.0,0.0]},"KHR_materials_ior":{"ior":1.0}}}],"meshes":[{"name":"defaultobject","primitives":[{"mode":4,"material":1,"indices":2,"attributes":{"POSITION":0,"TEXCOORD_0":1}},{"mode":4,"material":2,"indices":5,"attributes":{"POSITION":3,"TEXCOORD_0":4}}]}],"nodes":[{"name":"tile_0370.obj","children":[1]},{"name":"defaultobject","mesh":0}],"samplers":[{},{}],"scenes":[{"nodes":[0]}],"textures":[{"source":0,"sampler":0},{"source":1,"sampler":1}],"scene":0}
