{"asset":{"version":"2.0","generator":"Open Asset Import Library (assimp v6.0.0)"},"extensionsUsed":["KHR_materials_specular","KHR_materials_volume","KHR_materials_ior","FB_ngon_encoding"],"accessors":[{"bufferView":0,"byteOffset":0,"componentType":5126,"count":10101,"type":"VEC3","max":[2.363197088241577,-0.5102506279945374,2.074493169784546],"min":[-1.0473616123199463,-0.8829554915428162,2.2250738585072014e-308]},{"bufferView":1,"byteOffset":0,"componentType":5126,"count":10101,"type":"VEC2","max":[0.9914813041687012,0.6111488342285156],"min":[2.2250738585072014e-308,2.2250738585072014e-308]},{"bufferView":2,"byteOffset":0,"componentType":5125,"count":46395,"type":"SCALAR","max":[10100],"min":[0]}],"buffers":[{"byteLength":387600,"uri":"tile_0106.bin"}],"bufferViews":[{"buffer":0,"byteOffset":0,"byteLength":121212,"target":34962},{"buffer":0,"byteOffset":121212,"byteLength":80808,"target":34962},{"buffer":0,"byteOffset":202020,"byteLength":185580,"target":34963}],"images":[{"uri":"../textures/tile_0106_material_0.jpg"}],"materials":[{"name":"DefaultMaterial","pbrMetallicRoughness":{"baseColorFactor":[0.6000000238418579,0.6000000238418579,0.6000000238418579,1.0],"metallicFactor":0.0},"extensions":{"KHR_materials_specular":{"specularFactor":1.0,"specularColorFactor":[0.0,0.0,0.0]},"KHR_materials_ior":{"ior":1.0}}},{"name":"material_0_material","pbrMetallicRoughness":{"baseColorTexture":{"index":0},"metallicFactor":0.0},"extensions":{"KHR_materials_specular":{"specularFactor":1.0,"specularColorFactor":[0.0,0.0,0.0]},"KHR_materials_ior":{"ior":1.0}}},{"name":"material_1_material","pbrMetallicRoughness":{"metallicFactor":0.0},"extensions":{"KHR_materials_specular":{"specularFactor":1.0,"specularColorFactor":[0.0,0.0,0.0]},"KHR_materials_ior":{"ior":1.0}}}],"meshes":[{"name":"defaultobject","primitives":[{"mode":4,"material":1,"indices":2,"attributes":{"POSITION":0,"TEXCOORD_0":1}}]}],"nodes":[{"name":"tile_0106.obj","children":[1]},{"name":"defaultobject","mesh":0}],"samplers":[{}],"scenes":[{"nodes":[0]}],"textures":[{"source":0,"sampler":0}],"scene":0}
