{"asset":{"version":"2.0","generator":"Open Asset Import Library (assimp v6.0.0)"},"extensionsUsed":["KHR_materials_specular","KHR_materials_volume","KHR_materials_ior","FB_ngon_encoding"],"accessors":[{"bufferView":0,"byteOffset":0,"componentType":5126,"count":2468,"type":"VEC3","max":[1.3329870700836182,-2.7654876708984375,2.0602121353149414],"min":[2.2250738585072014e-308,-3.1487464904785156,2.2250738585072014e-308]},{"bufferView":1,"byteOffset":0,"componentType":5126,"count":2468,"type":"VEC2","max":[0.9960203170776367,0.5663414001464844],"min":[2.2250738585072014e-308,2.2250738585072014e-308]},{"bufferView":2,"byteOffset":0,"componentType":5125,"count":10335,"type":"SCALAR","max":[2467],"min":[0]},{"bufferView":3,"byteOffset":0,"componentType":5126,"count":1720,"type":"VEC3","max":[1.3277567625045776,-2.749368190765381,2.083322048187256],"min":[2.2250738585072014e-308,-3.147643804550171,2.2250738585072014e-308]},{"bufferView":4,"byteOffset":0,"componentType":5126,"count":1720,"type":"VEC2","max":[0.6555802226066589,0.7354507446289062],"min":[2.2250738585072014e-308,2.2250738585072014e-308]},{"bufferView":5,"byteOffset":0,"componentType":5125,"count":8925,"type":"SCALAR","max":[1719],"min":[0]}],"buffers":[{"byteLength":160800,"uri":"tile_0320.bin"}],"bufferViews":[{"buffer":0,"byteOffset":0,"byteLength":29616,"target":34962},{"buffer":0,"byteOffset":29616,"byteLength":19744,"target":34962},{"buffer":0,"byteOffset":49360,"byteLength":41340,"target":34963},{"buffer":0,"byteOffset":90700,"byteLength":20640,"target":34962},{"buffer":0,"byteOffset":111340,"byteLength":13760,"target":34962},{"buffer":0,"byteOffset":125100,"byteLength":35700,"target":34963}],"images":[{"uri":"../textures/tile_0320_material_0.jpg"},{"uri":"../textures/tile_0320_material_1.jpg"}],"materials":[{"name":"DefaultMaterial","pbrMetallicRoughness":{"baseColorFactor":[0.6000000238418579,0.6000000238418579,0.6000000238418579,1.0],"metallicFactor":0.0},"extensions":{"KHR_materials_specular":{"specularFactor":1.0,"specularColorFactor":[0.0,0.0,0.0]},"KHR_materials_ior":{"ior":1.0}}},{"name":"material_0_material","pbrMetallicRoughness":{"baseColorTexture":{"index":0},"metallicFactor":0.0},"extensions":{"KHR_materials_specular":{"specularFactor":1.0,"specularColorFactor":[0.0,0.0,0.0]},"KHR_materials_ior":{"ior":1.0}}},{"name":"material_1_material","pbrMetallicRoughness":{"baseColorTexture":{"index":1},"metallicFactor":0.0},"extensions":{"KHR_materials_specular":{"specularFactor":1.0,"specularColorFactor":[0.0,0.0,0.0]},"KHR_materials_ior":{"ior":1.0}}}],"meshes":[{"name":"defaultobject","primitives":[{"mode":4,"material":1,"indices":2,"attributes":{"POSITION":0,"TEXCOORD_0":1}},{"mode":4,"material":2,"indices":5,"attributes":{"POSITION":3,"TEXCOORD_0":4}}]}],"nodes":[{"name":"tile_0320.obj","children":[1]},{"name":"defaultobject","mesh":0}],"samplers":[{},{}],"scenes":[{"nodes":[0]}],"textures":[{"source":0,"sampler":0},{"source":1,"sampler":1}],"scene":0}
