{"asset":{"version":"2.0","generator":"Open Asset Import Library (assimp v6.0.0)"},"extensionsUsed":["KHR_materials_specular","KHR_materials_volume","KHR_materials_ior","FB_ngon_encoding"],"accessors":[{"bufferView":0,"byteOffset":0,"componentType":5126,"count":7064,"type":"VEC3","max":[3.424081563949585,-0.17695114016532898,0.042790189385414124],"min":[2.2250738585072014e-308,-0.4423191547393799,-0.006791095715016127]},{"bufferView":1,"byteOffset":0,"componentType":5126,"count":7064,"type":"VEC2","max":[0.9921178817749023,0.7381801605224609],"min":[2.2250738585072014e-308,2.2250738585072014e-308]},{"bufferView":2,"byteOffset":0,"componentType":5125,"count":28359,"type":"SCALAR","max":[7063],"min":[0]},{"bufferView":3,"byteOffset":0,"componentType":5126,"count":9,"type":"VEC3","max":[2.746720552444458,-0.2211848795413971,0.034269630908966064],"min":[2.2250738585072014e-308,-0.2626149654388428,2.2250738585072014e-308]},{"bufferView":4,"byteOffset":0,"componentType":5126,"count":9,"type":"VEC2","max":[0.4844208359718323,0.4779662489891052],"min":[2.2250738585072014e-308,2.2250738585072014e-308]},{"bufferView":5,"byteOffset":0,"componentType":5125,"count":9,"type":"SCALAR","max":[8],"min":[0]}],"buffers":[{"byteLength":254932,"uri":"tile_0179.bin"}],"bufferViews":[{"buffer":0,"byteOffset":0,"byteLength":84768,"target":34962},{"buffer":0,"byteOffset":84768,"byteLength":56512,"target":34962},{"buffer":0,"byteOffset":141280,"byteLength":113436,"target":34963},{"buffer":0,"byteOffset":254716,"byteLength":108,"target":34962},{"buffer":0,"byteOffset":254824,"byteLength":72,"target":34962},{"buffer":0,"byteOffset":254896,"byteLength":36,"target":34963}],"images":[{"uri":"../textures/tile_0179_material_0.jpg"},{"uri":"../textures/tile_0179_material_1.jpg"}],"materials":[{"name":"DefaultMaterial","pbrMetallicRoughness":{"baseColorFactor":[0.6000000238418579,0.6000000238418579,0.6000000238418579,1.0],"metallicFactor":0.0},"extensions":{"KHR_materials_specular":{"specularFactor":1.0,"specularColorFactor":[0.0,0.0,0.0]},"KHR_materials_ior":{"ior":1.0}}},{"name":"material_0_material","pbrMetallicRoughness":{"baseColorTexture":{"index":0},"metallicFactor":0.0},"extensions":{"KHR_materials_specular":{"specularFactor":1.0,"specularColorFactor":[0.0,0.0,0.0]},"KHR_materials_ior":{"ior":1.0}}},{"name":"material_1_material","pbrMetallicRoughness":{"baseColorTexture":{"index":1},"metallicFactor":0.0},"extensions":{"KHR_materials_specular":{"specularFactor":1.0,"specularColorFactor":[0.0,0.0,0.0]},"KHR_materials_ior":{"ior":1.0}}}],"meshes":[{"name":"defaultobject","primitives":[{"mode":4,"material":1,"indices":2,"attributes":{"POSITION":0,"TEXCOORD_0":1}},{"mode":4,"material":2,"indices":5,"attributes":{"POSITION":3,"TEXCOORD_0":4}}]}],"nodes":[{"name":"tile_0179.obj","children":[1]},{"name":"defaultobject","mesh":0}],"samplers":[{},{}],"scenes":[{"nodes":[0]}],"textures":[{"source":0,"sampler":0},{"source":1,"sampler":1}],"scene":0}
