{"asset":{"version":"2.0","generator":"Open Asset Import Library (assimp v6.0.0)"},"extensionsUsed":["KHR_materials_specular","KHR_materials_volume","KHR_materials_ior","FB_ngon_encoding"],"accessors":[{"bufferView":0,"byteOffset":0,"componentType":5126,"count":4753,"type":"VEC3","max":[2.40970516204834,-3.068963050842285,1.0289459228515625],"min":[2.2250738585072014e-308,-4.218294620513916,2.2250738585072014e-308]},{"bufferView":1,"byteOffset":0,"componentType":5126,"count":4753,"type":"VEC2","max":[0.9913139343261719,0.7607631683349609],"min":[2.2250738585072014e-308,2.2250738585072014e-308]},{"bufferView":2,"byteOffset":0,"componentType":5125,"count":20220,"type":"SCALAR","max":[4752],"min":[0]},{"bufferView":3,"byteOffset":0,"componentType":5126,"count":155,"type":"VEC3","max":[2.3965723514556885,-3.1447715759277344,1.0236623287200928],"min":[2.2250738585072014e-308,-3.629379987716675,2.2250738585072014e-308]},{"bufferView":4,"byteOffset":0,"componentType":5126,"count":155,"type":"VEC2","max":[0.6477775573730469,0.7413749694824219],"min":[2.2250738585072014e-308,2.2250738585072014e-308]},{"bufferView":5,"byteOffset":0,"componentType":5125,"count":528,"type":"SCALAR","max":[154],"min":[0]}],"buffers":[{"byteLength":181152,"uri":"tile_0606.bin"}],"bufferViews":[{"buffer":0,"byteOffset":0,"byteLength":57036,"target":34962},{"buffer":0,"byteOffset":57036,"byteLength":38024,"target":34962},{"buffer":0,"byteOffset":95060,"byteLength":80880,"target":34963},{"buffer":0,"byteOffset":175940,"byteLength":1860,"target":34962},{"buffer":0,"byteOffset":177800,"byteLength":1240,"target":34962},{"buffer":0,"byteOffset":179040,"byteLength":2112,"target":34963}],"images":[{"uri":"../textures/tile_0606_material_0.jpg"},{"uri":"../textures/tile_0606_material_1.jpg"}],"materials":[{"name":"DefaultMaterial","pbrMetallicRoughness":{"baseColorFactor":[0.6000000238418579,0.6000000238418579,0.6000000238418579,1.0],"metallicFactor":0.0},"extensions":{"KHR_materials_specular":{"specularFactor":1.0,"specularColorFactor":[0.0,0.0,0.0]},"KHR_materials_ior":{"ior":1.0}}},{"name":"material_0_material","pbrMetallicRoughness":{"baseColorTexture":{"index":0},"metallicFactor":0.0},"extensions":{"KHR_materials_specular":{"specularFactor":1.0,"specularColorFactor":[0.0,0.0,0.0]},"KHR_materials_ior":{"ior":1.0}}},{"name":"material_1_material","pbrMetallicRoughness":{"baseColorTexture":{"index":1},"metallicFactor":0.0},"extensions":{"KHR_materials_specular":{"specularFactor":1.0,"specularColorFactor":[0.0,0.0,0.0]},"KHR_materials_ior":{"ior":1.0}}}],"meshes":[{"name":"defaultobject","primitives":[{"mode":4,"material":1,"indices":2,"attributes":{"POSITION":0,"TEXCOORD_0":1}},{"mode":4,"material":2,"indices":5,"attributes":{"POSITION":3,"TEXCOORD_0":4}}]}],"nodes":[{"name":"tile_0606.obj","children":[1]},{"name":"defaultobject","mesh":0}],"samplers":[{},{}],"scenes":[{"nodes":[0]}],"textures":[{"source":0,"sampler":0},{"source":1,"sampler":1}],"scene":0}
