{"asset":{"version":"2.0","generator":"Open Asset Import Library (assimp v6.0.0)"},"extensionsUsed":["KHR_materials_specular","KHR_materials_volume","KHR_materials_ior","FB_ngon_encoding"],"accessors":[{"bufferView":0,"byteOffset":0,"componentType":5126,"count":2615,"type":"VEC3","max":[1.7931312322616577,-3.0299510955810547,1.350256085395813],"min":[2.2250738585072014e-308,-3.1522576808929443,2.2250738585072014e-308]},{"bufferView":1,"byteOffset":0,"componentType":5126,"count":2615,"type":"VEC2","max":[0.9937748908996582,0.7496528625488281],"min":[2.2250738585072014e-308,2.2250738585072014e-308]},{"bufferView":2,"byteOffset":0,"componentType":5125,"count":10524,"type":"SCALAR","max":[2614],"min":[0]},{"bufferView":3,"byteOffset":0,"componentType":5126,"count":2008,"type":"VEC3","max":[1.7922464609146118,-3.010319709777832,1.3614633083343506],"min":[2.2250738585072014e-308,-3.156604290008545,2.2250738585072014e-308]},{"bufferView":4,"byteOffset":0,"componentType":5126,"count":2008,"type":"VEC2","max":[0.9429876804351807,0.921539306640625],"min":[2.2250738585072014e-308,2.2250738585072014e-308]},{"bufferView":5,"byteOffset":0,"componentType":5125,"count":10713,"type":"SCALAR","max":[2007],"min":[0]}],"buffers":[{"byteLength":177408,"uri":"tile_0249.bin"}],"bufferViews":[{"buffer":0,"byteOffset":0,"byteLength":31380,"target":34962},{"buffer":0,"byteOffset":31380,"byteLength":20920,"target":34962},{"buffer":0,"byteOffset":52300,"byteLength":42096,"target":34963},{"buffer":0,"byteOffset":94396,"byteLength":24096,"target":34962},{"buffer":0,"byteOffset":118492,"byteLength":16064,"target":34962},{"buffer":0,"byteOffset":134556,"byteLength":42852,"target":34963}],"images":[{"uri":"../textures/tile_0249_material_0.jpg"},{"uri":"../textures/tile_0249_material_1.jpg"}],"materials":[{"name":"DefaultMaterial","pbrMetallicRoughness":{"baseColorFactor":[0.6000000238418579,0.6000000238418579,0.6000000238418579,1.0],"metallicFactor":0.0},"extensions":{"KHR_materials_specular":{"specularFactor":1.0,"specularColorFactor":[0.0,0.0,0.0]},"KHR_materials_ior":{"ior":1.0}}},{"name":"material_0_material","pbrMetallicRoughness":{"baseColorTexture":{"index":0},"metallicFactor":0.0},"extensions":{"KHR_materials_specular":{"specularFactor":1.0,"specularColorFactor":[0.0,0.0,0.0]},"KHR_materials_ior":{"ior":1.0}}},{"name":"material_1_material","pbrMetallicRoughness":{"baseColorTexture":{"index":1},"metallicFactor":0.0},"extensions":{"KHR_materials_specular":{"specularFactor":1.0,"specularColorFactor":[0.0,0.0,0.0]},"KHR_materials_ior":{"ior":1.0}}}],"meshes":[{"name":"defaultobject","primitives":[{"mode":4,"material":1,"indices":2,"attributes":{"POSITION":0,"TEXCOORD_0":1}},{"mode":4,"material":2,"indices":5,"attributes":{"POSITION":3,"TEXCOORD_0":4}}]}],"nodes":[{"name":"tile_0249.obj","children":[1]},{"name":"defaultobject","mesh":0}],"samplers":[{},{}],"scenes":[{"nodes":[0]}],"textures":[{"source":0,"sampler":0},{"source":1,"sampler":1}],"scene":0}
