{"asset":{"version":"2.0","generator":"Open Asset Import Library (assimp v6.0.0)"},"extensionsUsed":["KHR_materials_specular","KHR_materials_volume","KHR_materials_ior","FB_ngon_encoding"],"accessors":[{"bufferView":0,"byteOffset":0,"componentType":5126,"count":3431,"type":"VEC3","max":[1.2415094375610352,0.29849424958229065,2.2626965045928955],"min":[2.2250738585072014e-308,2.2250738585072014e-308,2.2250738585072014e-308]},{"bufferView":1,"byteOffset":0,"componentType":5126,"count":3431,"type":"VEC2","max":[0.9900121688842773,0.8117332458496094],"min":[2.2250738585072014e-308,2.2250738585072014e-308]},{"bufferView":2,"byteOffset":0,"componentType":5125,"count":16818,"type":"SCALAR","max":[3430],"min":[0]},{"bufferView":3,"byteOffset":0,"componentType":5126,"count":383,"type":"VEC3","max":[1.207808256149292,0.297334760427475,2.2679617404937744],"min":[2.2250738585072014e-308,2.2250738585072014e-308,2.2250738585072014e-308]},{"bufferView":4,"byteOffset":0,"componentType":5126,"count":383,"type":"VEC2","max":[0.8238162994384766,0.7279624938964844],"min":[2.2250738585072014e-308,2.2250738585072014e-308]},{"bufferView":5,"byteOffset":0,"componentType":5125,"count":1752,"type":"SCALAR","max":[382],"min":[0]}],"buffers":[{"byteLength":150560,"uri":"tile_0421.bin"}],"bufferViews":[{"buffer":0,"byteOffset":0,"byteLength":41172,"target":34962},{"buffer":0,"byteOffset":41172,"byteLength":27448,"target":34962},{"buffer":0,"byteOffset":68620,"byteLength":67272,"target":34963},{"buffer":0,"byteOffset":135892,"byteLength":4596,"target":34962},{"buffer":0,"byteOffset":140488,"byteLength":3064,"target":34962},{"buffer":0,"byteOffset":143552,"byteLength":7008,"target":34963}],"images":[{"uri":"../textures/tile_0421_material_0.jpg"},{"uri":"../textures/tile_0421_material_1.jpg"}],"materials":[{"name":"DefaultMaterial","pbrMetallicRoughness":{"baseColorFactor":[0.6000000238418579,0.6000000238418579,0.6000000238418579,1.0],"metallicFactor":0.0},"extensions":{"KHR_materials_specular":{"specularFactor":1.0,"specularColorFactor":[0.0,0.0,0.0]},"KHR_materials_ior":{"ior":1.0}}},{"name":"material_0_material","pbrMetallicRoughness":{"baseColorTexture":{"index":0},"metallicFactor":0.0},"extensions":{"KHR_materials_specular":{"specularFactor":1.0,"specularColorFactor":[0.0,0.0,0.0]},"KHR_materials_ior":{"ior":1.0}}},{"name":"material_1_material","pbrMetallicRoughness":{"baseColorTexture":{"index":1},"metallicFactor":0.0},"extensions":{"KHR_materials_specular":{"specularFactor":1.0,"specularColorFactor":[0.0,0.0,0.0]},"KHR_materials_ior":{"ior":1.0}}}],"meshes":[{"name":"defaultobject","primitives":[{"mode":4,"material":1,"indices":2,"attributes":{"POSITION":0,"TEXCOORD_0":1}},{"mode":4,"material":2,"indices":5,"attributes":{"POSITION":3,"TEXCOORD_0":4}}]}],"nodes":[{"name":"tile_0421.obj","children":[1]},{"name":"defaultobject","mesh":0}],"samplers":[{},{}],"scenes":[{"nodes":[0]}],"textures":[{"source":0,"sampler":0},{"source":1,"sampler":1}],"scene":0}
