{"asset":{"version":"2.0","generator":"Open Asset Import Library (assimp v6.0.0)"},"extensionsUsed":["KHR_materials_specular","KHR_materials_volume","KHR_materials_ior","FB_ngon_encoding"],"accessors":[{"bufferView":0,"byteOffset":0,"componentType":5126,"count":5271,"type":"VEC3","max":[3.0883498191833496,-1.4997570514678955,0.2455279678106308],"min":[2.2250738585072014e-308,-1.5698480606079102,2.2250738585072014e-308]},{"bufferView":1,"byteOffset":0,"componentType":5126,"count":5271,"type":"VEC2","max":[0.993340015411377,0.5697097778320312],"min":[2.2250738585072014e-308,2.2250738585072014e-308]},{"bufferView":2,"byteOffset":0,"componentType":5125,"count":22638,"type":"SCALAR","max":[5270],"min":[0]},{"bufferView":3,"byteOffset":0,"componentType":5126,"count":499,"type":"VEC3","max":[0.37579038739204407,-1.5032238960266113,0.2441491335630417],"min":[2.2250738585072014e-308,-1.5682636499404907,2.2250738585072014e-308]},{"bufferView":4,"byteOffset":0,"componentType":5126,"count":499,"type":"VEC2","max":[0.9438514709472656,0.8322486877441406],"min":[2.2250738585072014e-308,2.2250738585072014e-308]},{"bufferView":5,"byteOffset":0,"componentType":5125,"count":2535,"type":"SCALAR","max":[498],"min":[0]}],"buffers":[{"byteLength":216092,"uri":"tile_0009.bin"}],"bufferViews":[{"buffer":0,"byteOffset":0,"byteLength":63252,"target":34962},{"buffer":0,"byteOffset":63252,"byteLength":42168,"target":34962},{"buffer":0,"byteOffset":105420,"byteLength":90552,"target":34963},{"buffer":0,"byteOffset":195972,"byteLength":5988,"target":34962},{"buffer":0,"byteOffset":201960,"byteLength":3992,"target":34962},{"buffer":0,"byteOffset":205952,"byteLength":10140,"target":34963}],"images":[{"uri":"../textures/tile_0009_material_0.jpg"},{"uri":"../textures/tile_0009_material_1.jpg"}],"materials":[{"name":"DefaultMaterial","pbrMetallicRoughness":{"baseColorFactor":[0.6000000238418579,0.6000000238418579,0.6000000238418579,1.0],"metallicFactor":0.0},"extensions":{"KHR_materials_specular":{"specularFactor":1.0,"specularColorFactor":[0.0,0.0,0.0]},"KHR_materials_ior":{"ior":1.0}}},{"name":"material_0_material","pbrMetallicRoughness":{"baseColorTexture":{"index":0},"metallicFactor":0.0},"extensions":{"KHR_materials_specular":{"specularFactor":1.0,"specularColorFactor":[0.0,0.0,0.0]},"KHR_materials_ior":{"ior":1.0}}},{"name":"material_1_material","pbrMetallicRoughness":{"baseColorTexture":{"index":1},"metallicFactor":0.0},"extensions":{"KHR_materials_specular":{"specularFactor":1.0,"specularColorFactor":[0.0,0.0,0.0]},"KHR_materials_ior":{"ior":1.0}}}],"meshes":[{"name":"defaultobject","primitives":[{"mode":4,"material":1,"indices":2,"attributes":{"POSITION":0,"TEXCOORD_0":1}},{"mode":4,"material":2,"indices":5,"attributes":{"POSITION":3,"TEXCOORD_0":4}}]}],"nodes":[{"name":"tile_0009.obj","children":[1]},{"name":"defaultobject","mesh":0}],"samplers":[{},{}],"scenes":[{"nodes":[0]}],"textures":[{"source":0,"sampler":0},{"source":1,"sampler":1}],"scene":0}
