{"asset":{"version":"2.0","generator":"Open Asset Import Library (assimp v6.0.0)"},"extensionsUsed":["KHR_materials_specular","KHR_materials_volume","KHR_materials_ior","FB_ngon_encoding"],"accessors":[{"bufferView":0,"byteOffset":0,"componentType":5126,"count":4157,"type":"VEC3","max":[2.598510980606079,-2.857968807220459,0.8394865989685059],"min":[2.2250738585072014e-308,-3.2266910076141357,2.2250738585072014e-308]},{"bufferView":1,"byteOffset":0,"componentType":5126,"count":4157,"type":"VEC2","max":[0.9914731979370117,0.4959449768066406],"min":[2.2250738585072014e-308,2.2250738585072014e-308]},{"bufferView":2,"byteOffset":0,"componentType":5125,"count":16104,"type":"SCALAR","max":[4156],"min":[0]},{"bufferView":3,"byteOffset":0,"componentType":5126,"count":115,"type":"VEC3","max":[2.4829869270324707,-3.0745904445648193,0.832157552242279],"min":[2.2250738585072014e-308,-3.2229158878326416,2.2250738585072014e-308]},{"bufferView":4,"byteOffset":0,"componentType":5126,"count":115,"type":"VEC2","max":[0.6829109191894531,0.6709213256835938],"min":[2.2250738585072014e-308,2.2250738585072014e-308]},{"bufferView":5,"byteOffset":0,"componentType":5125,"count":489,"type":"SCALAR","max":[114],"min":[0]}],"buffers":[{"byteLength":151812,"uri":"tile_0160.bin"}],"bufferViews":[{"buffer":0,"byteOffset":0,"byteLength":49884,"target":34962},{"buffer":0,"byteOffset":49884,"byteLength":33256,"target":34962},{"buffer":0,"byteOffset":83140,"byteLength":64416,"target":34963},{"buffer":0,"byteOffset":147556,"byteLength":1380,"target":34962},{"buffer":0,"byteOffset":148936,"byteLength":920,"target":34962},{"buffer":0,"byteOffset":149856,"byteLength":1956,"target":34963}],"images":[{"uri":"../textures/tile_0160_material_0.jpg"},{"uri":"../textures/tile_0160_material_1.jpg"}],"materials":[{"name":"DefaultMaterial","pbrMetallicRoughness":{"baseColorFactor":[0.6000000238418579,0.6000000238418579,0.6000000238418579,1.0],"metallicFactor":0.0},"extensions":{"KHR_materials_specular":{"specularFactor":1.0,"specularColorFactor":[0.0,0.0,0.0]},"KHR_materials_ior":{"ior":1.0}}},{"name":"material_0_material","pbrMetallicRoughness":{"baseColorTexture":{"index":0},"metallicFactor":0.0},"extensions":{"KHR_materials_specular":{"specularFactor":1.0,"specularColorFactor":[0.0,0.0,0.0]},"KHR_materials_ior":{"ior":1.0}}},{"name":"material_1_material","pbrMetallicRoughness":{"baseColorTexture":{"index":1},"metallicFactor":0.0},"extensions":{"KHR_materials_specular":{"specularFactor":1.0,"specularColorFactor":[0.0,0.0,0.0]},"KHR_materials_ior":{"ior":1.0}}}],"meshes":[{"name":"defaultobject","primitives":[{"mode":4,"material":1,"indices":2,"attributes":{"POSITION":0,"TEXCOORD_0":1}},{"mode":4,"material":2,"indices":5,"attributes":{"POSITION":3,"TEXCOORD_0":4}}]}],"nodes":[{"name":"tile_0160.obj","children":[1]},{"name":"defaultobject","mesh":0}],"samplers":[{},{}],"scenes":[{"nodes":[0]}],"textures":[{"source":0,"sampler":0},{"source":1,"sampler":1}],"scene":0}
