{"asset":{"version":"2.0","generator":"Open Asset Import Library (assimp v6.0.0)"},"extensionsUsed":["KHR_materials_specular","KHR_materials_volume","KHR_materials_ior","FB_ngon_encoding"],"accessors":[{"bufferView":0,"byteOffset":0,"componentType":5126,"count":5521,"type":"VEC3","max":[3.409416675567627,-0.8907184600830078,0.07387292385101318],"min":[2.2250738585072014e-308,-0.9732031226158142,2.2250738585072014e-308]},{"bufferView":1,"byteOffset":0,"componentType":5126,"count":5521,"type":"VEC2","max":[0.9950671195983887,0.5545578002929688],"min":[2.2250738585072014e-308,2.2250738585072014e-308]},{"bufferView":2,"byteOffset":0,"componentType":5125,"count":19716,"type":"SCALAR","max":[5520],"min":[0]},{"bufferView":3,"byteOffset":0,"componentType":5126,"count":433,"type":"VEC3","max":[0.4924848675727844,-0.9128130674362183,0.0697367936372757],"min":[2.2250738585072014e-308,-0.9688930511474609,2.2250738585072014e-308]},{"bufferView":4,"byteOffset":0,"componentType":5126,"count":433,"type":"VEC2","max":[0.6525859236717224,0.5940704345703125],"min":[2.2250738585072014e-308,2.2250738585072014e-308]},{"bufferView":5,"byteOffset":0,"componentType":5125,"count":2085,"type":"SCALAR","max":[432],"min":[0]}],"buffers":[{"byteLength":206284,"uri":"tile_0239.bin"}],"bufferViews":[{"buffer":0,"byteOffset":0,"byteLength":66252,"target":34962},{"buffer":0,"byteOffset":66252,"byteLength":44168,"target":34962},{"buffer":0,"byteOffset":110420,"byteLength":78864,"target":34963},{"buffer":0,"byteOffset":189284,"byteLength":5196,"target":34962},{"buffer":0,"byteOffset":194480,"byteLength":3464,"target":34962},{"buffer":0,"byteOffset":197944,"byteLength":8340,"target":34963}],"images":[{"uri":"../textures/tile_0239_material_0.jpg"},{"uri":"../textures/tile_0239_material_1.jpg"}],"materials":[{"name":"DefaultMaterial","pbrMetallicRoughness":{"baseColorFactor":[0.6000000238418579,0.6000000238418579,0.6000000238418579,1.0],"metallicFactor":0.0},"extensions":{"KHR_materials_specular":{"specularFactor":1.0,"specularColorFactor":[0.0,0.0,0.0]},"KHR_materials_ior":{"ior":1.0}}},{"name":"material_0_material","pbrMetallicRoughness":{"baseColorTexture":{"index":0},"metallicFactor":0.0},"extensions":{"KHR_materials_specular":{"specularFactor":1.0,"specularColorFactor":[0.0,0.0,0.0]},"KHR_materials_ior":{"ior":1.0}}},{"name":"material_1_material","pbrMetallicRoughness":{"baseColorTexture":{"index":1},"metallicFactor":0.0},"extensions":{"KHR_materials_specular":{"specularFactor":1.0,"specularColorFactor":[0.0,0.0,0.0]},"KHR_materials_ior":{"ior":1.0}}}],"meshes":[{"name":"defaultobject","primitives":[{"mode":4,"material":1,"indices":2,"attributes":{"POSITION":0,"TEXCOORD_0":1}},{"mode":4,"material":2,"indices":5,"attributes":{"POSITION":3,"TEXCOORD_0":4}}]}],"nodes":[{"name":"tile_0239.obj","children":[1]},{"name":"defaultobject","mesh":0}],"samplers":[{},{}],"scenes":[{"nodes":[0]}],"textures":[{"source":0,"sampler":0},{"source":1,"sampler":1}],"scene":0}
