{"asset":{"version":"2.0","generator":"Open Asset Import Library (assimp v6.0.0)"},"extensionsUsed":["KHR_materials_specular","KHR_materials_volume","KHR_materials_ior","FB_ngon_encoding"],"accessors":[{"bufferView":0,"byteOffset":0,"componentType":5126,"count":5108,"type":"VEC3","max":[3.1574389934539795,-0.5576655864715576,0.5077953934669495],"min":[2.2250738585072014e-308,-0.6688557267189026,2.2250738585072014e-308]},{"bufferView":1,"byteOffset":0,"componentType":5126,"count":5108,"type":"VEC2","max":[0.9900133609771729,0.6990585327148438],"min":[2.2250738585072014e-308,2.2250738585072014e-308]},{"bufferView":2,"byteOffset":0,"componentType":5125,"count":19713,"type":"SCALAR","max":[5107],"min":[0]},{"bufferView":3,"byteOffset":0,"componentType":5126,"count":1326,"type":"VEC3","max":[1.039152979850769,-0.5536081194877625,0.4974547028541565],"min":[2.2250738585072014e-308,-0.6520910263061523,2.2250738585072014e-308]},{"bufferView":4,"byteOffset":0,"componentType":5126,"count":1326,"type":"VEC2","max":[0.74325031042099,0.5554618835449219],"min":[2.2250738585072014e-308,2.2250738585072014e-308]},{"bufferView":5,"byteOffset":0,"componentType":5125,"count":6918,"type":"SCALAR","max":[1325],"min":[0]}],"buffers":[{"byteLength":235204,"uri":"tile_0490.bin"}],"bufferViews":[{"buffer":0,"byteOffset":0,"byteLength":61296,"target":34962},{"buffer":0,"byteOffset":61296,"byteLength":40864,"target":34962},{"buffer":0,"byteOffset":102160,"byteLength":78852,"target":34963},{"buffer":0,"byteOffset":181012,"byteLength":15912,"target":34962},{"buffer":0,"byteOffset":196924,"byteLength":10608,"target":34962},{"buffer":0,"byteOffset":207532,"byteLength":27672,"target":34963}],"images":[{"uri":"../textures/tile_0490_material_0.jpg"},{"uri":"../textures/tile_0490_material_1.jpg"}],"materials":[{"name":"DefaultMaterial","pbrMetallicRoughness":{"baseColorFactor":[0.6000000238418579,0.6000000238418579,0.6000000238418579,1.0],"metallicFactor":0.0},"extensions":{"KHR_materials_specular":{"specularFactor":1.0,"specularColorFactor":[0.0,0.0,0.0]},"KHR_materials_ior":{"ior":1.0}}},{"name":"material_0_material","pbrMetallicRoughness":{"baseColorTexture":{"index":0},"metallicFactor":0.0},"extensions":{"KHR_materials_specular":{"specularFactor":1.0,"specularColorFactor":[0.0,0.0,0.0]},"KHR_materials_ior":{"ior":1.0}}},{"name":"material_1_material","pbrMetallicRoughness":{"baseColorTexture":{"index":1},"metallicFactor":0.0},"extensions":{"KHR_materials_specular":{"specularFactor":1.0,"specularColorFactor":[0.0,0.0,0.0]},"KHR_materials_ior":{"ior":1.0}}}],"meshes":[{"name":"defaultobject","primitives":[{"mode":4,"material":1,"indices":2,"attributes":{"POSITION":0,"TEXCOORD_0":1}},{"mode":4,"material":2,"indices":5,"attributes":{"POSITION":3,"TEXCOORD_0":4}}]}],"nodes":[{"name":"tile_0490.obj","children":[1]},{"name":"defaultobject","mesh":0}],"samplers":[{},{}],"scenes":[{"nodes":[0]}],"textures":[{"source":0,"sampler":0},{"source":1,"sampler":1}],"scene":0}
