{"asset":{"version":"2.0","generator":"Open Asset Import Library (assimp v6.0.0)"},"extensionsUsed":["KHR_materials_specular","KHR_materials_volume","KHR_materials_ior","FB_ngon_encoding"],"accessors":[{"bufferView":0,"byteOffset":0,"componentType":5126,"count":5228,"type":"VEC3","max":[2.862401008605957,-0.6264846324920654,0.7265538573265076],"min":[2.2250738585072014e-308,-0.8528850078582764,2.2250738585072014e-308]},{"bufferView":1,"byteOffset":0,"componentType":5126,"count":5228,"type":"VEC2","max":[0.9930124282836914,0.6794605255126953],"min":[2.2250738585072014e-308,2.2250738585072014e-308]},{"bufferView":2,"byteOffset":0,"componentType":5125,"count":21816,"type":"SCALAR","max":[5227],"min":[0]},{"bufferView":3,"byteOffset":0,"componentType":5126,"count":2329,"type":"VEC3","max":[0.6569246053695679,-0.6330726742744446,0.7231435775756836],"min":[2.2250738585072014e-308,-0.8524592518806458,2.2250738585072014e-308]},{"bufferView":4,"byteOffset":0,"componentType":5126,"count":2329,"type":"VEC2","max":[0.6374788284301758,0.6470432281494141],"min":[2.2250738585072014e-308,2.2250738585072014e-308]},{"bufferView":5,"byteOffset":0,"componentType":5125,"count":11565,"type":"SCALAR","max":[2328],"min":[0]}],"buffers":[{"byteLength":284664,"uri":"tile_0144.bin"}],"bufferViews":[{"buffer":0,"byteOffset":0,"byteLength":62736,"target":34962},{"buffer":0,"byteOffset":62736,"byteLength":41824,"target":34962},{"buffer":0,"byteOffset":104560,"byteLength":87264,"target":34963},{"buffer":0,"byteOffset":191824,"byteLength":27948,"target":34962},{"buffer":0,"byteOffset":219772,"byteLength":18632,"target":34962},{"buffer":0,"byteOffset":238404,"byteLength":46260,"target":34963}],"images":[{"uri":"../textures/tile_0144_material_0.jpg"},{"uri":"../textures/tile_0144_material_1.jpg"}],"materials":[{"name":"DefaultMaterial","pbrMetallicRoughness":{"baseColorFactor":[0.6000000238418579,0.6000000238418579,0.6000000238418579,1.0],"metallicFactor":0.0},"extensions":{"KHR_materials_specular":{"specularFactor":1.0,"specularColorFactor":[0.0,0.0,0.0]},"KHR_materials_ior":{"ior":1.0}}},{"name":"material_0_material","pbrMetallicRoughness":{"baseColorTexture":{"index":0},"metallicFactor":0.0},"extensions":{"KHR_materials_specular":{"specularFactor":1.0,"specularColorFactor":[0.0,0.0,0.0]},"KHR_materials_ior":{"ior":1.0}}},{"name":"material_1_material","pbrMetallicRoughness":{"baseColorTexture":{"index":1},"metallicFactor":0.0},"extensions":{"KHR_materials_specular":{"specularFactor":1.0,"specularColorFactor":[0.0,0.0,0.0]},"KHR_materials_ior":{"ior":1.0}}}],"meshes":[{"name":"defaultobject","primitives":[{"mode":4,"material":1,"indices":2,"attributes":{"POSITION":0,"TEXCOORD_0":1}},{"mode":4,"material":2,"indices":5,"attributes":{"POSITION":3,"TEXCOORD_0":4}}]}],"nodes":[{"name":"tile_0144.obj","children":[1]},{"name":"defaultobject","mesh":0}],"samplers":[{},{}],"scenes":[{"nodes":[0]}],"textures":[{"source":0,"sampler":0},{"source":1,"sampler":1}],"scene":0}
