{"asset":{"version":"2.0","generator":"Open Asset Import Library (assimp v6.0.0)"},"extensionsUsed":["KHR_materials_specular","KHR_materials_volume","KHR_materials_ior","FB_ngon_encoding"],"accessors":[{"bufferView":0,"byteOffset":0,"componentType":5126,"count":5223,"type":"VEC3","max":[1.2565956115722656,0.9299342632293701,1.8595534563064575],"min":[2.2250738585072014e-308,2.2250738585072014e-308,2.2250738585072014e-308]},{"bufferView":1,"byteOffset":0,"componentType":5126,"count":5223,"type":"VEC2","max":[0.9894003868103027,0.6792430877685547],"min":[2.2250738585072014e-308,2.2250738585072014e-308]},{"bufferView":2,"byteOffset":0,"componentType":5125,"count":23397,"type":"SCALAR","max":[5222],"min":[0]},{"bufferView":3,"byteOffset":0,"componentType":5126,"count":953,"type":"VEC3","max":[1.177968978881836,0.9562784433364868,1.8661788702011108],"min":[2.2250738585072014e-308,2.2250738585072014e-308,2.2250738585072014e-308]},{"bufferView":4,"byteOffset":0,"componentType":5126,"count":953,"type":"VEC2","max":[0.5390381813049316,0.5984668731689453],"min":[2.2250738585072014e-308,2.2250738585072014e-308]},{"bufferView":5,"byteOffset":0,"componentType":5125,"count":4440,"type":"SCALAR","max":[952],"min":[0]}],"buffers":[{"byteLength":234868,"uri":"tile_0436.bin"}],"bufferViews":[{"buffer":0,"byteOffset":0,"byteLength":62676,"target":34962},{"buffer":0,"byteOffset":62676,"byteLength":41784,"target":34962},{"buffer":0,"byteOffset":104460,"byteLength":93588,"target":34963},{"buffer":0,"byteOffset":198048,"byteLength":11436,"target":34962},{"buffer":0,"byteOffset":209484,"byteLength":7624,"target":34962},{"buffer":0,"byteOffset":217108,"byteLength":17760,"target":34963}],"images":[{"uri":"../textures/tile_0436_material_0.jpg"},{"uri":"../textures/tile_0436_material_1.jpg"}],"materials":[{"name":"DefaultMaterial","pbrMetallicRoughness":{"baseColorFactor":[0.6000000238418579,0.6000000238418579,0.6000000238418579,1.0],"metallicFactor":0.0},"extensions":{"KHR_materials_specular":{"specularFactor":1.0,"specularColorFactor":[0.0,0.0,0.0]},"KHR_materials_ior":{"ior":1.0}}},{"name":"material_0_material","pbrMetallicRoughness":{"baseColorTexture":{"index":0},"metallicFactor":0.0},"extensions":{"KHR_materials_specular":{"specularFactor":1.0,"specularColorFactor":[0.0,0.0,0.0]},"KHR_materials_ior":{"ior":1.0}}},{"name":"material_1_material","pbrMetallicRoughness":{"baseColorTexture":{"index":1},"metallicFactor":0.0},"extensions":{"KHR_materials_specular":{"specularFactor":1.0,"specularColorFactor":[0.0,0.0,0.0]},"KHR_materials_ior":{"ior":1.0}}}],"meshes":[{"name":"defaultobject","primitives":[{"mode":4,"material":1,"indices":2,"attributes":{"POSITION":0,"TEXCOORD_0":1}},{"mode":4,"material":2,"indices":5,"attributes":{"POSITION":3,"TEXCOORD_0":4}}]}],"nodes":[{"name":"tile_0436.obj","children":[1]},{"name":"defaultobject","mesh":0}],"samplers":[{},{}],"scenes":[{"nodes":[0]}],"textures":[{"source":0,"sampler":0},{"source":1,"sampler":1}],"scene":0}
