{"asset":{"version":"2.0","generator":"Open Asset Import Library (assimp v6.0.0)"},"extensionsUsed":["KHR_materials_specular","KHR_materials_volume","KHR_materials_ior","FB_ngon_encoding"],"accessors":[{"bufferView":0,"byteOffset":0,"componentType":5126,"count":3975,"type":"VEC3","max":[3.2857139110565186,-0.4186924993991852,0.26267009973526],"min":[2.2250738585072014e-308,-0.608878493309021,2.2250738585072014e-308]},{"bufferView":1,"byteOffset":0,"componentType":5126,"count":3975,"type":"VEC2","max":[0.9953634142875671,0.5115375518798828],"min":[2.2250738585072014e-308,2.2250738585072014e-308]},{"bufferView":2,"byteOffset":0,"componentType":5125,"count":14100,"type":"SCALAR","max":[3974],"min":[0]},{"bufferView":3,"byteOffset":0,"componentType":5126,"count":1674,"type":"VEC3","max":[0.7931603789329529,-0.4362419545650482,0.24713373184204102],"min":[2.2250738585072014e-308,-0.6069612503051758,2.2250738585072014e-308]},{"bufferView":4,"byteOffset":0,"componentType":5126,"count":1674,"type":"VEC2","max":[0.6247897148132324,0.8313674926757812],"min":[2.2250738585072014e-308,2.2250738585072014e-308]},{"bufferView":5,"byteOffset":0,"componentType":5125,"count":7962,"type":"SCALAR","max":[1673],"min":[0]}],"buffers":[{"byteLength":201228,"uri":"tile_0492.bin"}],"bufferViews":[{"buffer":0,"byteOffset":0,"byteLength":47700,"target":34962},{"buffer":0,"byteOffset":47700,"byteLength":31800,"target":34962},{"buffer":0,"byteOffset":79500,"byteLength":56400,"target":34963},{"buffer":0,"byteOffset":135900,"byteLength":20088,"target":34962},{"buffer":0,"byteOffset":155988,"byteLength":13392,"target":34962},{"buffer":0,"byteOffset":169380,"byteLength":31848,"target":34963}],"images":[{"uri":"../textures/tile_0492_material_0.jpg"},{"uri":"../textures/tile_0492_material_1.jpg"}],"materials":[{"name":"DefaultMaterial","pbrMetallicRoughness":{"baseColorFactor":[0.6000000238418579,0.6000000238418579,0.6000000238418579,1.0],"metallicFactor":0.0},"extensions":{"KHR_materials_specular":{"specularFactor":1.0,"specularColorFactor":[0.0,0.0,0.0]},"KHR_materials_ior":{"ior":1.0}}},{"name":"material_0_material","pbrMetallicRoughness":{"baseColorTexture":{"index":0},"metallicFactor":0.0},"extensions":{"KHR_materials_specular":{"specularFactor":1.0,"specularColorFactor":[0.0,0.0,0.0]},"KHR_materials_ior":{"ior":1.0}}},{"name":"material_1_material","pbrMetallicRoughness":{"baseColorTexture":{"index":1},"metallicFactor":0.0},"extensions":{"KHR_materials_specular":{"specularFactor":1.0,"specularColorFactor":[0.0,0.0,0.0]},"KHR_materials_ior":{"ior":1.0}}}],"meshes":[{"name":"defaultobject","primitives":[{"mode":4,"material":1,"indices":2,"attributes":{"POSITION":0,"TEXCOORD_0":1}},{"mode":4,"material":2,"indices":5,"attributes":{"POSITION":3,"TEXCOORD_0":4}}]}],"nodes":[{"name":"tile_0492.obj","children":[1]},{"name":"defaultobject","mesh":0}],"samplers":[{},{}],"scenes":[{"nodes":[0]}],"textures":[{"source":0,"sampler":0},{"source":1,"sampler":1}],"scene":0}
