{"asset":{"version":"2.0","generator":"Open Asset Import Library (assimp v6.0.0)"},"extensionsUsed":["KHR_materials_specular","KHR_materials_volume","KHR_materials_ior","FB_ngon_encoding"],"accessors":[{"bufferView":0,"byteOffset":0,"componentType":5126,"count":3670,"type":"VEC3","max":[3.080965280532837,-1.3748317956924438,0.3292434811592102],"min":[2.2250738585072014e-308,-1.512812852859497,2.2250738585072014e-308]},{"bufferView":1,"byteOffset":0,"componentType":5126,"count":3670,"type":"VEC2","max":[0.9898653030395508,0.83428955078125],"min":[2.2250738585072014e-308,2.2250738585072014e-308]},{"bufferView":2,"byteOffset":0,"componentType":5125,"count":17070,"type":"SCALAR","max":[3669],"min":[0]},{"bufferView":3,"byteOffset":0,"componentType":5126,"count":865,"type":"VEC3","max":[0.2514079809188843,-1.3998609781265259,0.3217471241950989],"min":[2.2250738585072014e-308,-1.5071914196014404,2.2250738585072014e-308]},{"bufferView":4,"byteOffset":0,"componentType":5126,"count":865,"type":"VEC2","max":[0.8275032043457031,0.8299331665039062],"min":[2.2250738585072014e-308,2.2250738585072014e-308]},{"bufferView":5,"byteOffset":0,"componentType":5125,"count":4542,"type":"SCALAR","max":[864],"min":[0]}],"buffers":[{"byteLength":177148,"uri":"tile_0215.bin"}],"bufferViews":[{"buffer":0,"byteOffset":0,"byteLength":44040,"target":34962},{"buffer":0,"byteOffset":44040,"byteLength":29360,"target":34962},{"buffer":0,"byteOffset":73400,"byteLength":68280,"target":34963},{"buffer":0,"byteOffset":141680,"byteLength":10380,"target":34962},{"buffer":0,"byteOffset":152060,"byteLength":6920,"target":34962},{"buffer":0,"byteOffset":158980,"byteLength":18168,"target":34963}],"images":[{"uri":"../textures/tile_0215_material_0.jpg"},{"uri":"../textures/tile_0215_material_1.jpg"}],"materials":[{"name":"DefaultMaterial","pbrMetallicRoughness":{"baseColorFactor":[0.6000000238418579,0.6000000238418579,0.6000000238418579,1.0],"metallicFactor":0.0},"extensions":{"KHR_materials_specular":{"specularFactor":1.0,"specularColorFactor":[0.0,0.0,0.0]},"KHR_materials_ior":{"ior":1.0}}},{"name":"material_0_material","pbrMetallicRoughness":{"baseColorTexture":{"index":0},"metallicFactor":0.0},"extensions":{"KHR_materials_specular":{"specularFactor":1.0,"specularColorFactor":[0.0,0.0,0.0]},"KHR_materials_ior":{"ior":1.0}}},{"name":"material_1_material","pbrMetallicRoughness":{"baseColorTexture":{"index":1},"metallicFactor":0.0},"extensions":{"KHR_materials_specular":{"specularFactor":1.0,"specularColorFactor":[0.0,0.0,0.0]},"KHR_materials_ior":{"ior":1.0}}}],"meshes":[{"name":"defaultobject","primitives":[{"mode":4,"material":1,"indices":2,"attributes":{"POSITION":0,"TEXCOORD_0":1}},{"mode":4,"material":2,"indices":5,"attributes":{"POSITION":3,"TEXCOORD_0":4}}]}],"nodes":[{"name":"tile_0215.obj","children":[1]},{"name":"defaultobject","mesh":0}],"samplers":[{},{}],"scenes":[{"nodes":[0]}],"textures":[{"source":0,"sampler":0},{"source":1,"sampler":1}],"scene":0}
