{"asset":{"version":"2.0","generator":"Open Asset Import Library (assimp v6.0.0)"},"extensionsUsed":["KHR_materials_specular","KHR_materials_volume","KHR_materials_ior","FB_ngon_encoding"],"accessors":[{"bufferView":0,"byteOffset":0,"componentType":5126,"count":3827,"type":"VEC3","max":[3.1952431201934814,-1.1504262685775757,0.3468247950077057],"min":[2.2250738585072014e-308,-1.3000739812850952,2.2250738585072014e-308]},{"bufferView":1,"byteOffset":0,"componentType":5126,"count":3827,"type":"VEC2","max":[0.9953713417053223,0.4958324432373047],"min":[2.2250738585072014e-308,2.2250738585072014e-308]},{"bufferView":2,"byteOffset":0,"componentType":5125,"count":15948,"type":"SCALAR","max":[3826],"min":[0]},{"bufferView":3,"byteOffset":0,"componentType":5126,"count":879,"type":"VEC3","max":[0.9349272847175598,-1.1542519330978394,0.3433198034763336],"min":[2.2250738585072014e-308,-1.3056086301803589,2.2250738585072014e-308]},{"bufferView":4,"byteOffset":0,"componentType":5126,"count":879,"type":"VEC2","max":[0.7326765060424805,0.8231124877929688],"min":[2.2250738585072014e-308,2.2250738585072014e-308]},{"bufferView":5,"byteOffset":0,"componentType":5125,"count":4296,"type":"SCALAR","max":[878],"min":[0]}],"buffers":[{"byteLength":175096,"uri":"tile_0214.bin"}],"bufferViews":[{"buffer":0,"byteOffset":0,"byteLength":45924,"target":34962},{"buffer":0,"byteOffset":45924,"byteLength":30616,"target":34962},{"buffer":0,"byteOffset":76540,"byteLength":63792,"target":34963},{"buffer":0,"byteOffset":140332,"byteLength":10548,"target":34962},{"buffer":0,"byteOffset":150880,"byteLength":7032,"target":34962},{"buffer":0,"byteOffset":157912,"byteLength":17184,"target":34963}],"images":[{"uri":"../textures/tile_0214_material_0.jpg"},{"uri":"../textures/tile_0214_material_1.jpg"}],"materials":[{"name":"DefaultMaterial","pbrMetallicRoughness":{"baseColorFactor":[0.6000000238418579,0.6000000238418579,0.6000000238418579,1.0],"metallicFactor":0.0},"extensions":{"KHR_materials_specular":{"specularFactor":1.0,"specularColorFactor":[0.0,0.0,0.0]},"KHR_materials_ior":{"ior":1.0}}},{"name":"material_0_material","pbrMetallicRoughness":{"baseColorTexture":{"index":0},"metallicFactor":0.0},"extensions":{"KHR_materials_specular":{"specularFactor":1.0,"specularColorFactor":[0.0,0.0,0.0]},"KHR_materials_ior":{"ior":1.0}}},{"name":"material_1_material","pbrMetallicRoughness":{"baseColorTexture":{"index":1},"metallicFactor":0.0},"extensions":{"KHR_materials_specular":{"specularFactor":1.0,"specularColorFactor":[0.0,0.0,0.0]},"KHR_materials_ior":{"ior":1.0}}}],"meshes":[{"name":"defaultobject","primitives":[{"mode":4,"material":1,"indices":2,"attributes":{"POSITION":0,"TEXCOORD_0":1}},{"mode":4,"material":2,"indices":5,"attributes":{"POSITION":3,"TEXCOORD_0":4}}]}],"nodes":[{"name":"tile_0214.obj","children":[1]},{"name":"defaultobject","mesh":0}],"samplers":[{},{}],"scenes":[{"nodes":[0]}],"textures":[{"source":0,"sampler":0},{"source":1,"sampler":1}],"scene":0}
