{"asset":{"version":"2.0","generator":"Open Asset Import Library (assimp v6.0.0)"},"extensionsUsed":["KHR_materials_specular","KHR_materials_volume","KHR_materials_ior","FB_ngon_encoding"],"accessors":[{"bufferView":0,"byteOffset":0,"componentType":5126,"count":3841,"type":"VEC3","max":[0.33075857162475586,-0.22517181932926178,2.405508279800415],"min":[-0.30359071493148804,-0.3375338017940521,2.2250738585072014e-308]},{"bufferView":1,"byteOffset":0,"componentType":5126,"count":3841,"type":"VEC2","max":[0.9890437126159668,0.5423202514648438],"min":[2.2250738585072014e-308,2.2250738585072014e-308]},{"bufferView":2,"byteOffset":0,"componentType":5125,"count":17313,"type":"SCALAR","max":[3840],"min":[0]},{"bufferView":3,"byteOffset":0,"componentType":5126,"count":1204,"type":"VEC3","max":[0.3179474174976349,-0.22520233690738678,2.3964452743530273],"min":[-0.3035864531993866,-0.3338647484779358,2.2250738585072014e-308]},{"bufferView":4,"byteOffset":0,"componentType":5126,"count":1204,"type":"VEC2","max":[0.7076869010925293,0.4955368638038635],"min":[2.2250738585072014e-308,2.2250738585072014e-308]},{"bufferView":5,"byteOffset":0,"componentType":5125,"count":6015,"type":"SCALAR","max":[1203],"min":[0]}],"buffers":[{"byteLength":194212,"uri":"tile_0395.bin"}],"bufferViews":[{"buffer":0,"byteOffset":0,"byteLength":46092,"target":34962},{"buffer":0,"byteOffset":46092,"byteLength":30728,"target":34962},{"buffer":0,"byteOffset":76820,"byteLength":69252,"target":34963},{"buffer":0,"byteOffset":146072,"byteLength":14448,"target":34962},{"buffer":0,"byteOffset":160520,"byteLength":9632,"target":34962},{"buffer":0,"byteOffset":170152,"byteLength":24060,"target":34963}],"images":[{"uri":"../textures/tile_0395_material_0.jpg"},{"uri":"../textures/tile_0395_material_1.jpg"}],"materials":[{"name":"DefaultMaterial","pbrMetallicRoughness":{"baseColorFactor":[0.6000000238418579,0.6000000238418579,0.6000000238418579,1.0],"metallicFactor":0.0},"extensions":{"KHR_materials_specular":{"specularFactor":1.0,"specularColorFactor":[0.0,0.0,0.0]},"KHR_materials_ior":{"ior":1.0}}},{"name":"material_0_material","pbrMetallicRoughness":{"baseColorTexture":{"index":0},"metallicFactor":0.0},"extensions":{"KHR_materials_specular":{"specularFactor":1.0,"specularColorFactor":[0.0,0.0,0.0]},"KHR_materials_ior":{"ior":1.0}}},{"name":"material_1_material","pbrMetallicRoughness":{"baseColorTexture":{"index":1},"metallicFactor":0.0},"extensions":{"KHR_materials_specular":{"specularFactor":1.0,"specularColorFactor":[0.0,0.0,0.0]},"KHR_materials_ior":{"ior":1.0}}}],"meshes":[{"name":"defaultobject","primitives":[{"mode":4,"material":1,"indices":2,"attributes":{"POSITION":0,"TEXCOORD_0":1}},{"mode":4,"material":2,"indices":5,"attributes":{"POSITION":3,"TEXCOORD_0":4}}]}],"nodes":[{"name":"tile_0395.obj","children":[1]},{"name":"defaultobject","mesh":0}],"samplers":[{},{}],"scenes":[{"nodes":[0]}],"textures":[{"source":0,"sampler":0},{"source":1,"sampler":1}],"scene":0}
