{"asset":{"version":"2.0","generator":"Open Asset Import Library (assimp v6.0.0)"},"extensionsUsed":["KHR_materials_specular","KHR_materials_volume","KHR_materials_ior","FB_ngon_encoding"],"accessors":[{"bufferView":0,"byteOffset":0,"componentType":5126,"count":2069,"type":"VEC3","max":[0.6995419263839722,0.5866445899009705,4.303309440612793],"min":[-0.23031042516231537,2.2250738585072014e-308,2.2250738585072014e-308]},{"bufferView":1,"byteOffset":0,"componentType":5126,"count":2069,"type":"VEC2","max":[0.9896149635314941,0.9526405334472656],"min":[2.2250738585072014e-308,2.2250738585072014e-308]},{"bufferView":2,"byteOffset":0,"componentType":5125,"count":8991,"type":"SCALAR","max":[2068],"min":[0]},{"bufferView":3,"byteOffset":0,"componentType":5126,"count":1938,"type":"VEC3","max":[0.6112063527107239,0.5938693881034851,4.274068355560303],"min":[2.2250738585072014e-308,2.2250738585072014e-308,2.2250738585072014e-308]},{"bufferView":4,"byteOffset":0,"componentType":5126,"count":1938,"type":"VEC2","max":[0.5033836364746094,0.5062999725341797],"min":[2.2250738585072014e-308,2.2250738585072014e-308]},{"bufferView":5,"byteOffset":0,"componentType":5125,"count":9999,"type":"SCALAR","max":[1937],"min":[0]}],"buffers":[{"byteLength":156100,"uri":"tile_0424.bin"}],"bufferViews":[{"buffer":0,"byteOffset":0,"byteLength":24828,"target":34962},{"buffer":0,"byteOffset":24828,"byteLength":16552,"target":34962},{"buffer":0,"byteOffset":41380,"byteLength":35964,"target":34963},{"buffer":0,"byteOffset":77344,"byteLength":23256,"target":34962},{"buffer":0,"byteOffset":100600,"byteLength":15504,"target":34962},{"buffer":0,"byteOffset":116104,"byteLength":39996,"target":34963}],"images":[{"uri":"../textures/tile_0424_material_0.jpg"},{"uri":"../textures/tile_0424_material_1.jpg"}],"materials":[{"name":"DefaultMaterial","pbrMetallicRoughness":{"baseColorFactor":[0.6000000238418579,0.6000000238418579,0.6000000238418579,1.0],"metallicFactor":0.0},"extensions":{"KHR_materials_specular":{"specularFactor":1.0,"specularColorFactor":[0.0,0.0,0.0]},"KHR_materials_ior":{"ior":1.0}}},{"name":"material_0_material","pbrMetallicRoughness":{"baseColorTexture":{"index":0},"metallicFactor":0.0},"extensions":{"KHR_materials_specular":{"specularFactor":1.0,"specularColorFactor":[0.0,0.0,0.0]},"KHR_materials_ior":{"ior":1.0}}},{"name":"material_1_material","pbrMetallicRoughness":{"baseColorTexture":{"index":1},"metallicFactor":0.0},"extensions":{"KHR_materials_specular":{"specularFactor":1.0,"specularColorFactor":[0.0,0.0,0.0]},"KHR_materials_ior":{"ior":1.0}}}],"meshes":[{"name":"defaultobject","primitives":[{"mode":4,"material":1,"indices":2,"attributes":{"POSITION":0,"TEXCOORD_0":1}},{"mode":4,"material":2,"indices":5,"attributes":{"POSITION":3,"TEXCOORD_0":4}}]}],"nodes":[{"name":"tile_0424.obj","children":[1]},{"name":"defaultobject","mesh":0}],"samplers":[{},{}],"scenes":[{"nodes":[0]}],"textures":[{"source":0,"sampler":0},{"source":1,"sampler":1}],"scene":0}
