{"asset":{"version":"2.0","generator":"Open Asset Import Library (assimp v6.0.0)"},"extensionsUsed":["KHR_materials_specular","KHR_materials_volume","KHR_materials_ior","FB_ngon_encoding"],"accessors":[{"bufferView":0,"byteOffset":0,"componentType":5126,"count":8273,"type":"VEC3","max":[3.435041904449463,0.14308901131153107,0.09622176736593246],"min":[2.2250738585072014e-308,-0.05616233870387077,2.2250738585072014e-308]},{"bufferView":1,"byteOffset":0,"componentType":5126,"count":8273,"type":"VEC2","max":[0.9960451126098633,0.8277740478515625],"min":[2.2250738585072014e-308,2.2250738585072014e-308]},{"bufferView":2,"byteOffset":0,"componentType":5125,"count":28452,"type":"SCALAR","max":[8272],"min":[0]},{"bufferView":3,"byteOffset":0,"componentType":5126,"count":26,"type":"VEC3","max":[3.130138635635376,-0.003582259174436331,0.0787123590707779],"min":[2.2250738585072014e-308,-0.052159134298563004,2.2250738585072014e-308]},{"bufferView":4,"byteOffset":0,"componentType":5126,"count":26,"type":"VEC2","max":[0.9071636199951172,0.5944976806640625],"min":[2.2250738585072014e-308,2.2250738585072014e-308]},{"bufferView":5,"byteOffset":0,"componentType":5125,"count":96,"type":"SCALAR","max":[25],"min":[0]}],"buffers":[{"byteLength":280172,"uri":"tile_0497.bin"}],"bufferViews":[{"buffer":0,"byteOffset":0,"byteLength":99276,"target":34962},{"buffer":0,"byteOffset":99276,"byteLength":66184,"target":34962},{"buffer":0,"byteOffset":165460,"byteLength":113808,"target":34963},{"buffer":0,"byteOffset":279268,"byteLength":312,"target":34962},{"buffer":0,"byteOffset":279580,"byteLength":208,"target":34962},{"buffer":0,"byteOffset":279788,"byteLength":384,"target":34963}],"images":[{"uri":"../textures/tile_0497_material_0.jpg"},{"uri":"../textures/tile_0497_material_1.jpg"}],"materials":[{"name":"DefaultMaterial","pbrMetallicRoughness":{"baseColorFactor":[0.6000000238418579,0.6000000238418579,0.6000000238418579,1.0],"metallicFactor":0.0},"extensions":{"KHR_materials_specular":{"specularFactor":1.0,"specularColorFactor":[0.0,0.0,0.0]},"KHR_materials_ior":{"ior":1.0}}},{"name":"material_0_material","pbrMetallicRoughness":{"baseColorTexture":{"index":0},"metallicFactor":0.0},"extensions":{"KHR_materials_specular":{"specularFactor":1.0,"specularColorFactor":[0.0,0.0,0.0]},"KHR_materials_ior":{"ior":1.0}}},{"name":"material_1_material","pbrMetallicRoughness":{"baseColorTexture":{"index":1},"metallicFactor":0.0},"extensions":{"KHR_materials_specular":{"specularFactor":1.0,"specularColorFactor":[0.0,0.0,0.0]},"KHR_materials_ior":{"ior":1.0}}}],"meshes":[{"name":"defaultobject","primitives":[{"mode":4,"material":1,"indices":2,"attributes":{"POSITION":0,"TEXCOORD_0":1}},{"mode":4,"material":2,"indices":5,"attributes":{"POSITION":3,"TEXCOORD_0":4}}]}],"nodes":[{"name":"tile_0497.obj","children":[1]},{"name":"defaultobject","mesh":0}],"samplers":[{},{}],"scenes":[{"nodes":[0]}],"textures":[{"source":0,"sampler":0},{"source":1,"sampler":1}],"scene":0}
