{"asset":{"version":"2.0","generator":"Open Asset Import Library (assimp v6.0.0)"},"extensionsUsed":["KHR_materials_specular","KHR_materials_volume","KHR_materials_ior","FB_ngon_encoding"],"accessors":[{"bufferView":0,"byteOffset":0,"componentType":5126,"count":4532,"type":"VEC3","max":[3.0897035598754883,-1.2735127210617065,0.5118029117584229],"min":[-0.07126736640930176,-1.4447989463806152,2.2250738585072014e-308]},{"bufferView":1,"byteOffset":0,"componentType":5126,"count":4532,"type":"VEC2","max":[0.9934654235839844,0.6131019592285156],"min":[2.2250738585072014e-308,2.2250738585072014e-308]},{"bufferView":2,"byteOffset":0,"componentType":5125,"count":18765,"type":"SCALAR","max":[4531],"min":[0]},{"bufferView":3,"byteOffset":0,"componentType":5126,"count":592,"type":"VEC3","max":[1.291282296180725,-1.2706414461135864,0.5118029117584229],"min":[-0.07525679469108582,-1.4480887651443481,2.2250738585072014e-308]},{"bufferView":4,"byteOffset":0,"componentType":5126,"count":592,"type":"VEC2","max":[0.8871736526489258,0.6484718322753906],"min":[2.2250738585072014e-308,2.2250738585072014e-308]},{"bufferView":5,"byteOffset":0,"componentType":5125,"count":2847,"type":"SCALAR","max":[591],"min":[0]}],"buffers":[{"byteLength":188928,"uri":"tile_0210.bin"}],"bufferViews":[{"buffer":0,"byteOffset":0,"byteLength":54384,"target":34962},{"buffer":0,"byteOffset":54384,"byteLength":36256,"target":34962},{"buffer":0,"byteOffset":90640,"byteLength":75060,"target":34963},{"buffer":0,"byteOffset":165700,"byteLength":7104,"target":34962},{"buffer":0,"byteOffset":172804,"byteLength":4736,"target":34962},{"buffer":0,"byteOffset":177540,"byteLength":11388,"target":34963}],"images":[{"uri":"../textures/tile_0210_material_0.jpg"},{"uri":"../textures/tile_0210_material_1.jpg"}],"materials":[{"name":"DefaultMaterial","pbrMetallicRoughness":{"baseColorFactor":[0.6000000238418579,0.6000000238418579,0.6000000238418579,1.0],"metallicFactor":0.0},"extensions":{"KHR_materials_specular":{"specularFactor":1.0,"specularColorFactor":[0.0,0.0,0.0]},"KHR_materials_ior":{"ior":1.0}}},{"name":"material_0_material","pbrMetallicRoughness":{"baseColorTexture":{"index":0},"metallicFactor":0.0},"extensions":{"KHR_materials_specular":{"specularFactor":1.0,"specularColorFactor":[0.0,0.0,0.0]},"KHR_materials_ior":{"ior":1.0}}},{"name":"material_1_material","pbrMetallicRoughness":{"baseColorTexture":{"index":1},"metallicFactor":0.0},"extensions":{"KHR_materials_specular":{"specularFactor":1.0,"specularColorFactor":[0.0,0.0,0.0]},"KHR_materials_ior":{"ior":1.0}}}],"meshes":[{"name":"defaultobject","primitives":[{"mode":4,"material":1,"indices":2,"attributes":{"POSITION":0,"TEXCOORD_0":1}},{"mode":4,"material":2,"indices":5,"attributes":{"POSITION":3,"TEXCOORD_0":4}}]}],"nodes":[{"name":"tile_0210.obj","children":[1]},{"name":"defaultobject","mesh":0}],"samplers":[{},{}],"scenes":[{"nodes":[0]}],"textures":[{"source":0,"sampler":0},{"source":1,"sampler":1}],"scene":0}
