{"asset":{"version":"2.0","generator":"Open Asset Import Library (assimp v6.0.0)"},"extensionsUsed":["KHR_materials_specular","KHR_materials_volume","KHR_materials_ior","FB_ngon_encoding"],"accessors":[{"bufferView":0,"byteOffset":0,"componentType":5126,"count":5339,"type":"VEC3","max":[3.82846999168396,-1.0431795120239258,0.03851056471467018],"min":[2.2250738585072014e-308,-1.1931352615356445,-0.9422553181648254]},{"bufferView":1,"byteOffset":0,"componentType":5126,"count":5339,"type":"VEC2","max":[0.9894826412200928,0.6315822601318359],"min":[2.2250738585072014e-308,2.2250738585072014e-308]},{"bufferView":2,"byteOffset":0,"componentType":5125,"count":21243,"type":"SCALAR","max":[5338],"min":[0]},{"bufferView":3,"byteOffset":0,"componentType":5126,"count":1164,"type":"VEC3","max":[3.8288121223449707,-1.0432665348052979,0.03331196680665016],"min":[2.2250738585072014e-308,-1.1931352615356445,-0.9418632984161377]},{"bufferView":4,"byteOffset":0,"componentType":5126,"count":1164,"type":"VEC2","max":[0.8677637577056885,0.8946609497070312],"min":[2.2250738585072014e-308,2.2250738585072014e-308]},{"bufferView":5,"byteOffset":0,"componentType":5125,"count":6003,"type":"SCALAR","max":[1163],"min":[0]}],"buffers":[{"byteLength":239044,"uri":"tile_0238.bin"}],"bufferViews":[{"buffer":0,"byteOffset":0,"byteLength":64068,"target":34962},{"buffer":0,"byteOffset":64068,"byteLength":42712,"target":34962},{"buffer":0,"byteOffset":106780,"byteLength":84972,"target":34963},{"buffer":0,"byteOffset":191752,"byteLength":13968,"target":34962},{"buffer":0,"byteOffset":205720,"byteLength":9312,"target":34962},{"buffer":0,"byteOffset":215032,"byteLength":24012,"target":34963}],"images":[{"uri":"../textures/tile_0238_material_0.jpg"},{"uri":"../textures/tile_0238_material_1.jpg"}],"materials":[{"name":"DefaultMaterial","pbrMetallicRoughness":{"baseColorFactor":[0.6000000238418579,0.6000000238418579,0.6000000238418579,1.0],"metallicFactor":0.0},"extensions":{"KHR_materials_specular":{"specularFactor":1.0,"specularColorFactor":[0.0,0.0,0.0]},"KHR_materials_ior":{"ior":1.0}}},{"name":"material_0_material","pbrMetallicRoughness":{"baseColorTexture":{"index":0},"metallicFactor":0.0},"extensions":{"KHR_materials_specular":{"specularFactor":1.0,"specularColorFactor":[0.0,0.0,0.0]},"KHR_materials_ior":{"ior":1.0}}},{"name":"material_1_material","pbrMetallicRoughness":{"baseColorTexture":{"index":1},"metallicFactor":0.0},"extensions":{"KHR_materials_specular":{"specularFactor":1.0,"specularColorFactor":[0.0,0.0,0.0]},"KHR_materials_ior":{"ior":1.0}}}],"meshes":[{"name":"defaultobject","primitives":[{"mode":4,"material":1,"indices":2,"attributes":{"POSITION":0,"TEXCOORD_0":1}},{"mode":4,"material":2,"indices":5,"attributes":{"POSITION":3,"TEXCOORD_0":4}}]}],"nodes":[{"name":"tile_0238.obj","children":[1]},{"name":"defaultobject","mesh":0}],"samplers":[{},{}],"scenes":[{"nodes":[0]}],"textures":[{"source":0,"sampler":0},{"source":1,"sampler":1}],"scene":0}
