{"asset":{"version":"2.0","generator":"Open Asset Import Library (assimp v6.0.0)"},"extensionsUsed":["KHR_materials_specular","KHR_materials_volume","KHR_materials_ior","FB_ngon_encoding"],"accessors":[{"bufferView":0,"byteOffset":0,"componentType":5126,"count":7048,"type":"VEC3","max":[0.6975469589233398,-1.1889458894729614,4.7203450202941895],"min":[-0.42407694458961487,-1.5751309394836426,2.2250738585072014e-308]},{"bufferView":1,"byteOffset":0,"componentType":5126,"count":7048,"type":"VEC2","max":[0.9957985877990723,0.6132125854492188],"min":[2.2250738585072014e-308,2.2250738585072014e-308]},{"bufferView":2,"byteOffset":0,"componentType":5125,"count":31035,"type":"SCALAR","max":[7047],"min":[0]},{"bufferView":3,"byteOffset":0,"componentType":5126,"count":7233,"type":"VEC3","max":[0.6877965927124023,-1.1869926452636719,4.724980354309082],"min":[-0.46412336826324463,-1.5920767784118652,2.2250738585072014e-308]},{"bufferView":4,"byteOffset":0,"componentType":5126,"count":7233,"type":"VEC2","max":[0.9797847270965576,0.6253194808959961],"min":[2.2250738585072014e-308,2.2250738585072014e-308]},{"bufferView":5,"byteOffset":0,"componentType":5125,"count":38691,"type":"SCALAR","max":[7232],"min":[0]}],"buffers":[{"byteLength":564524,"uri":"tile_0352.bin"}],"bufferViews":[{"buffer":0,"byteOffset":0,"byteLength":84576,"target":34962},{"buffer":0,"byteOffset":84576,"byteLength":56384,"target":34962},{"buffer":0,"byteOffset":140960,"byteLength":124140,"target":34963},{"buffer":0,"byteOffset":265100,"byteLength":86796,"target":34962},{"buffer":0,"byteOffset":351896,"byteLength":57864,"target":34962},{"buffer":0,"byteOffset":409760,"byteLength":154764,"target":34963}],"images":[{"uri":"../textures/tile_0352_material_0.jpg"},{"uri":"../textures/tile_0352_material_1.jpg"}],"materials":[{"name":"DefaultMaterial","pbrMetallicRoughness":{"baseColorFactor":[0.6000000238418579,0.6000000238418579,0.6000000238418579,1.0],"metallicFactor":0.0},"extensions":{"KHR_materials_specular":{"specularFactor":1.0,"specularColorFactor":[0.0,0.0,0.0]},"KHR_materials_ior":{"ior":1.0}}},{"name":"material_0_material","pbrMetallicRoughness":{"baseColorTexture":{"index":0},"metallicFactor":0.0},"extensions":{"KHR_materials_specular":{"specularFactor":1.0,"specularColorFactor":[0.0,0.0,0.0]},"KHR_materials_ior":{"ior":1.0}}},{"name":"material_1_material","pbrMetallicRoughness":{"baseColorTexture":{"index":1},"metallicFactor":0.0},"extensions":{"KHR_materials_specular":{"specularFactor":1.0,"specularColorFactor":[0.0,0.0,0.0]},"KHR_materials_ior":{"ior":1.0}}}],"meshes":[{"name":"defaultobject","primitives":[{"mode":4,"material":1,"indices":2,"attributes":{"POSITION":0,"TEXCOORD_0":1}},{"mode":4,"material":2,"indices":5,"attributes":{"POSITION":3,"TEXCOORD_0":4}}]}],"nodes":[{"name":"tile_0352.obj","children":[1]},{"name":"defaultobject","mesh":0}],"samplers":[{},{}],"scenes":[{"nodes":[0]}],"textures":[{"source":0,"sampler":0},{"source":1,"sampler":1}],"scene":0}
