{"asset":{"version":"2.0","generator":"Open Asset Import Library (assimp v6.0.0)"},"extensionsUsed":["KHR_materials_specular","KHR_materials_volume","KHR_materials_ior","FB_ngon_encoding"],"accessors":[{"bufferView":0,"byteOffset":0,"componentType":5126,"count":2190,"type":"VEC3","max":[1.252575397491455,0.5711897015571594,1.9278432130813599],"min":[2.2250738585072014e-308,2.2250738585072014e-308,2.2250738585072014e-308]},{"bufferView":1,"byteOffset":0,"componentType":5126,"count":2190,"type":"VEC2","max":[0.9927783608436584,0.56243896484375],"min":[2.2250738585072014e-308,2.2250738585072014e-308]},{"bufferView":2,"byteOffset":0,"componentType":5125,"count":7857,"type":"SCALAR","max":[2189],"min":[0]},{"bufferView":3,"byteOffset":0,"componentType":5126,"count":2391,"type":"VEC3","max":[1.236808180809021,0.5717868208885193,1.9284745454788208],"min":[2.2250738585072014e-308,2.2250738585072014e-308,2.2250738585072014e-308]},{"bufferView":4,"byteOffset":0,"componentType":5126,"count":2391,"type":"VEC2","max":[0.7741107940673828,0.5907039642333984],"min":[2.2250738585072014e-308,2.2250738585072014e-308]},{"bufferView":5,"byteOffset":0,"componentType":5125,"count":11856,"type":"SCALAR","max":[2390],"min":[0]}],"buffers":[{"byteLength":170472,"uri":"tile_0444.bin"}],"bufferViews":[{"buffer":0,"byteOffset":0,"byteLength":26280,"target":34962},{"buffer":0,"byteOffset":26280,"byteLength":17520,"target":34962},{"buffer":0,"byteOffset":43800,"byteLength":31428,"target":34963},{"buffer":0,"byteOffset":75228,"byteLength":28692,"target":34962},{"buffer":0,"byteOffset":103920,"byteLength":19128,"target":34962},{"buffer":0,"byteOffset":123048,"byteLength":47424,"target":34963}],"images":[{"uri":"../textures/tile_0444_material_0.jpg"},{"uri":"../textures/tile_0444_material_1.jpg"}],"materials":[{"name":"DefaultMaterial","pbrMetallicRoughness":{"baseColorFactor":[0.6000000238418579,0.6000000238418579,0.6000000238418579,1.0],"metallicFactor":0.0},"extensions":{"KHR_materials_specular":{"specularFactor":1.0,"specularColorFactor":[0.0,0.0,0.0]},"KHR_materials_ior":{"ior":1.0}}},{"name":"material_0_material","pbrMetallicRoughness":{"baseColorTexture":{"index":0},"metallicFactor":0.0},"extensions":{"KHR_materials_specular":{"specularFactor":1.0,"specularColorFactor":[0.0,0.0,0.0]},"KHR_materials_ior":{"ior":1.0}}},{"name":"material_1_material","pbrMetallicRoughness":{"baseColorTexture":{"index":1},"metallicFactor":0.0},"extensions":{"KHR_materials_specular":{"specularFactor":1.0,"specularColorFactor":[0.0,0.0,0.0]},"KHR_materials_ior":{"ior":1.0}}}],"meshes":[{"name":"defaultobject","primitives":[{"mode":4,"material":1,"indices":2,"attributes":{"POSITION":0,"TEXCOORD_0":1}},{"mode":4,"material":2,"indices":5,"attributes":{"POSITION":3,"TEXCOORD_0":4}}]}],"nodes":[{"name":"tile_0444.obj","children":[1]},{"name":"defaultobject","mesh":0}],"samplers":[{},{}],"scenes":[{"nodes":[0]}],"textures":[{"source":0,"sampler":0},{"source":1,"sampler":1}],"scene":0}
