{"asset":{"version":"2.0","generator":"Open Asset Import Library (assimp v6.0.0)"},"extensionsUsed":["KHR_materials_specular","KHR_materials_volume","KHR_materials_ior","FB_ngon_encoding"],"accessors":[{"bufferView":0,"byteOffset":0,"componentType":5126,"count":3968,"type":"VEC3","max":[2.719632863998413,3.356168270111084,1.5711963176727295],"min":[2.2250738585072014e-308,2.2250738585072014e-308,2.2250738585072014e-308]},{"bufferView":1,"byteOffset":0,"componentType":5126,"count":3968,"type":"VEC2","max":[0.9936895370483398,0.7146472930908203],"min":[2.2250738585072014e-308,2.2250738585072014e-308]},{"bufferView":2,"byteOffset":0,"componentType":5125,"count":17541,"type":"SCALAR","max":[3967],"min":[0]},{"bufferView":3,"byteOffset":0,"componentType":5126,"count":917,"type":"VEC3","max":[2.6982226371765137,3.360231876373291,1.604388952255249],"min":[2.2250738585072014e-308,2.2250738585072014e-308,2.2250738585072014e-308]},{"bufferView":4,"byteOffset":0,"componentType":5126,"count":917,"type":"VEC2","max":[0.5759096145629883,0.8238105773925781],"min":[2.2250738585072014e-308,2.2250738585072014e-308]},{"bufferView":5,"byteOffset":0,"componentType":5125,"count":4746,"type":"SCALAR","max":[916],"min":[0]}],"buffers":[{"byteLength":186848,"uri":"tile_0582.bin"}],"bufferViews":[{"buffer":0,"byteOffset":0,"byteLength":47616,"target":34962},{"buffer":0,"byteOffset":47616,"byteLength":31744,"target":34962},{"buffer":0,"byteOffset":79360,"byteLength":70164,"target":34963},{"buffer":0,"byteOffset":149524,"byteLength":11004,"target":34962},{"buffer":0,"byteOffset":160528,"byteLength":7336,"target":34962},{"buffer":0,"byteOffset":167864,"byteLength":18984,"target":34963}],"images":[{"uri":"../textures/tile_0582_material_0.jpg"},{"uri":"../textures/tile_0582_material_1.jpg"}],"materials":[{"name":"DefaultMaterial","pbrMetallicRoughness":{"baseColorFactor":[0.6000000238418579,0.6000000238418579,0.6000000238418579,1.0],"metallicFactor":0.0},"extensions":{"KHR_materials_specular":{"specularFactor":1.0,"specularColorFactor":[0.0,0.0,0.0]},"KHR_materials_ior":{"ior":1.0}}},{"name":"material_0_material","pbrMetallicRoughness":{"baseColorTexture":{"index":0},"metallicFactor":0.0},"extensions":{"KHR_materials_specular":{"specularFactor":1.0,"specularColorFactor":[0.0,0.0,0.0]},"KHR_materials_ior":{"ior":1.0}}},{"name":"material_1_material","pbrMetallicRoughness":{"baseColorTexture":{"index":1},"metallicFactor":0.0},"extensions":{"KHR_materials_specular":{"specularFactor":1.0,"specularColorFactor":[0.0,0.0,0.0]},"KHR_materials_ior":{"ior":1.0}}}],"meshes":[{"name":"defaultobject","primitives":[{"mode":4,"material":1,"indices":2,"attributes":{"POSITION":0,"TEXCOORD_0":1}},{"mode":4,"material":2,"indices":5,"attributes":{"POSITION":3,"TEXCOORD_0":4}}]}],"nodes":[{"name":"tile_0582.obj","children":[1]},{"name":"defaultobject","mesh":0}],"samplers":[{},{}],"scenes":[{"nodes":[0]}],"textures":[{"source":0,"sampler":0},{"source":1,"sampler":1}],"scene":0}
