{"asset":{"version":"2.0","generator":"Open Asset Import Library (assimp v6.0.0)"},"extensionsUsed":["KHR_materials_specular","KHR_materials_volume","KHR_materials_ior","FB_ngon_encoding"],"accessors":[{"bufferView":0,"byteOffset":0,"componentType":5126,"count":17050,"type":"VEC3","max":[2.4481728076934814,-1.1439051628112793,1.5138870477676392],"min":[-0.33531561493873596,-1.5296076536178589,2.2250738585072014e-308]},{"bufferView":1,"byteOffset":0,"componentType":5126,"count":17050,"type":"VEC2","max":[0.9958086013793945,0.7575855255126953],"min":[2.2250738585072014e-308,2.2250738585072014e-308]},{"bufferView":2,"byteOffset":0,"componentType":5125,"count":70728,"type":"SCALAR","max":[17049],"min":[0]},{"bufferView":3,"byteOffset":0,"componentType":5126,"count":463,"type":"VEC3","max":[-0.22365020215511322,-1.2111936807632446,1.4914873838424683],"min":[-0.32869502902030945,-1.3721004724502563,2.2250738585072014e-308]},{"bufferView":4,"byteOffset":0,"componentType":5126,"count":463,"type":"VEC2","max":[0.49654340744018555,0.5407943725585938],"min":[2.2250738585072014e-308,2.2250738585072014e-308]},{"bufferView":5,"byteOffset":0,"componentType":5125,"count":1914,"type":"SCALAR","max":[462],"min":[0]}],"buffers":[{"byteLength":640828,"uri":"tile_0283.bin"}],"bufferViews":[{"buffer":0,"byteOffset":0,"byteLength":204600,"target":34962},{"buffer":0,"byteOffset":204600,"byteLength":136400,"target":34962},{"buffer":0,"byteOffset":341000,"byteLength":282912,"target":34963},{"buffer":0,"byteOffset":623912,"byteLength":5556,"target":34962},{"buffer":0,"byteOffset":629468,"byteLength":3704,"target":34962},{"buffer":0,"byteOffset":633172,"byteLength":7656,"target":34963}],"images":[{"uri":"../textures/tile_0283_material_0.jpg"},{"uri":"../textures/tile_0283_material_1.jpg"}],"materials":[{"name":"DefaultMaterial","pbrMetallicRoughness":{"baseColorFactor":[0.6000000238418579,0.6000000238418579,0.6000000238418579,1.0],"metallicFactor":0.0},"extensions":{"KHR_materials_specular":{"specularFactor":1.0,"specularColorFactor":[0.0,0.0,0.0]},"KHR_materials_ior":{"ior":1.0}}},{"name":"material_0_material","pbrMetallicRoughness":{"baseColorTexture":{"index":0},"metallicFactor":0.0},"extensions":{"KHR_materials_specular":{"specularFactor":1.0,"specularColorFactor":[0.0,0.0,0.0]},"KHR_materials_ior":{"ior":1.0}}},{"name":"material_1_material","pbrMetallicRoughness":{"baseColorTexture":{"index":1},"metallicFactor":0.0},"extensions":{"KHR_materials_specular":{"specularFactor":1.0,"specularColorFactor":[0.0,0.0,0.0]},"KHR_materials_ior":{"ior":1.0}}}],"meshes":[{"name":"defaultobject","primitives":[{"mode":4,"material":1,"indices":2,"attributes":{"POSITION":0,"TEXCOORD_0":1}},{"mode":4,"material":2,"indices":5,"attributes":{"POSITION":3,"TEXCOORD_0":4}}]}],"nodes":[{"name":"tile_0283.obj","children":[1]},{"name":"defaultobject","mesh":0}],"samplers":[{},{}],"scenes":[{"nodes":[0]}],"textures":[{"source":0,"sampler":0},{"source":1,"sampler":1}],"scene":0}
