{"asset":{"version":"2.0","generator":"Open Asset Import Library (assimp v6.0.0)"},"extensionsUsed":["KHR_materials_specular","KHR_materials_volume","KHR_materials_ior","FB_ngon_encoding"],"accessors":[{"bufferView":0,"byteOffset":0,"componentType":5126,"count":4389,"type":"VEC3","max":[3.2523608207702637,-0.6478967666625977,0.24882809817790985],"min":[2.2250738585072014e-308,-0.7201659083366394,2.2250738585072014e-308]},{"bufferView":1,"byteOffset":0,"componentType":5126,"count":4389,"type":"VEC2","max":[0.9897007942199707,0.9452896118164062],"min":[2.2250738585072014e-308,2.2250738585072014e-308]},{"bufferView":2,"byteOffset":0,"componentType":5125,"count":15783,"type":"SCALAR","max":[4388],"min":[0]},{"bufferView":3,"byteOffset":0,"componentType":5126,"count":2986,"type":"VEC3","max":[0.8840222358703613,-0.64934903383255,0.24715563654899597],"min":[2.2250738585072014e-308,-0.7196640968322754,2.2250738585072014e-308]},{"bufferView":4,"byteOffset":0,"componentType":5126,"count":2986,"type":"VEC2","max":[0.7100796699523926,0.6056575775146484],"min":[2.2250738585072014e-308,2.2250738585072014e-308]},{"bufferView":5,"byteOffset":0,"componentType":5125,"count":15780,"type":"SCALAR","max":[2985],"min":[0]}],"buffers":[{"byteLength":273752,"uri":"tile_0487.bin"}],"bufferViews":[{"buffer":0,"byteOffset":0,"byteLength":52668,"target":34962},{"buffer":0,"byteOffset":52668,"byteLength":35112,"target":34962},{"buffer":0,"byteOffset":87780,"byteLength":63132,"target":34963},{"buffer":0,"byteOffset":150912,"byteLength":35832,"target":34962},{"buffer":0,"byteOffset":186744,"byteLength":23888,"target":34962},{"buffer":0,"byteOffset":210632,"byteLength":63120,"target":34963}],"images":[{"uri":"../textures/tile_0487_material_0.jpg"},{"uri":"../textures/tile_0487_material_1.jpg"}],"materials":[{"name":"DefaultMaterial","pbrMetallicRoughness":{"baseColorFactor":[0.6000000238418579,0.6000000238418579,0.6000000238418579,1.0],"metallicFactor":0.0},"extensions":{"KHR_materials_specular":{"specularFactor":1.0,"specularColorFactor":[0.0,0.0,0.0]},"KHR_materials_ior":{"ior":1.0}}},{"name":"material_0_material","pbrMetallicRoughness":{"baseColorTexture":{"index":0},"metallicFactor":0.0},"extensions":{"KHR_materials_specular":{"specularFactor":1.0,"specularColorFactor":[0.0,0.0,0.0]},"KHR_materials_ior":{"ior":1.0}}},{"name":"material_1_material","pbrMetallicRoughness":{"baseColorTexture":{"index":1},"metallicFactor":0.0},"extensions":{"KHR_materials_specular":{"specularFactor":1.0,"specularColorFactor":[0.0,0.0,0.0]},"KHR_materials_ior":{"ior":1.0}}}],"meshes":[{"name":"defaultobject","primitives":[{"mode":4,"material":1,"indices":2,"attributes":{"POSITION":0,"TEXCOORD_0":1}},{"mode":4,"material":2,"indices":5,"attributes":{"POSITION":3,"TEXCOORD_0":4}}]}],"nodes":[{"name":"tile_0487.obj","children":[1]},{"name":"defaultobject","mesh":0}],"samplers":[{},{}],"scenes":[{"nodes":[0]}],"textures":[{"source":0,"sampler":0},{"source":1,"sampler":1}],"scene":0}
