{"asset":{"version":"2.0","generator":"Open Asset Import Library (assimp v6.0.0)"},"extensionsUsed":["KHR_materials_specular","KHR_materials_volume","KHR_materials_ior","FB_ngon_encoding"],"accessors":[{"bufferView":0,"byteOffset":0,"componentType":5126,"count":3700,"type":"VEC3","max":[2.10180926322937,-0.33085963129997253,1.4696139097213745],"min":[-0.039458658546209335,-0.45096880197525024,2.2250738585072014e-308]},{"bufferView":1,"byteOffset":0,"componentType":5126,"count":3700,"type":"VEC2","max":[0.9946691989898682,0.9444046020507812],"min":[2.2250738585072014e-308,2.2250738585072014e-308]},{"bufferView":2,"byteOffset":0,"componentType":5125,"count":14676,"type":"SCALAR","max":[3699],"min":[0]},{"bufferView":3,"byteOffset":0,"componentType":5126,"count":604,"type":"VEC3","max":[0.2773098647594452,-0.34119099378585815,1.4620883464813232],"min":[2.2250738585072014e-308,-0.4394418001174927,2.2250738585072014e-308]},{"bufferView":4,"byteOffset":0,"componentType":5126,"count":604,"type":"VEC2","max":[0.9275083541870117,0.5394554138183594],"min":[2.2250738585072014e-308,2.2250738585072014e-308]},{"bufferView":5,"byteOffset":0,"componentType":5125,"count":2553,"type":"SCALAR","max":[603],"min":[0]}],"buffers":[{"byteLength":154996,"uri":"tile_0477.bin"}],"bufferViews":[{"buffer":0,"byteOffset":0,"byteLength":44400,"target":34962},{"buffer":0,"byteOffset":44400,"byteLength":29600,"target":34962},{"buffer":0,"byteOffset":74000,"byteLength":58704,"target":34963},{"buffer":0,"byteOffset":132704,"byteLength":7248,"target":34962},{"buffer":0,"byteOffset":139952,"byteLength":4832,"target":34962},{"buffer":0,"byteOffset":144784,"byteLength":10212,"target":34963}],"images":[{"uri":"../textures/tile_0477_material_0.jpg"},{"uri":"../textures/tile_0477_material_1.jpg"}],"materials":[{"name":"DefaultMaterial","pbrMetallicRoughness":{"baseColorFactor":[0.6000000238418579,0.6000000238418579,0.6000000238418579,1.0],"metallicFactor":0.0},"extensions":{"KHR_materials_specular":{"specularFactor":1.0,"specularColorFactor":[0.0,0.0,0.0]},"KHR_materials_ior":{"ior":1.0}}},{"name":"material_0_material","pbrMetallicRoughness":{"baseColorTexture":{"index":0},"metallicFactor":0.0},"extensions":{"KHR_materials_specular":{"specularFactor":1.0,"specularColorFactor":[0.0,0.0,0.0]},"KHR_materials_ior":{"ior":1.0}}},{"name":"material_1_material","pbrMetallicRoughness":{"baseColorTexture":{"index":1},"metallicFactor":0.0},"extensions":{"KHR_materials_specular":{"specularFactor":1.0,"specularColorFactor":[0.0,0.0,0.0]},"KHR_materials_ior":{"ior":1.0}}}],"meshes":[{"name":"defaultobject","primitives":[{"mode":4,"material":1,"indices":2,"attributes":{"POSITION":0,"TEXCOORD_0":1}},{"mode":4,"material":2,"indices":5,"attributes":{"POSITION":3,"TEXCOORD_0":4}}]}],"nodes":[{"name":"tile_0477.obj","children":[1]},{"name":"defaultobject","mesh":0}],"samplers":[{},{}],"scenes":[{"nodes":[0]}],"textures":[{"source":0,"sampler":0},{"source":1,"sampler":1}],"scene":0}
