{"asset":{"version":"2.0","generator":"Open Asset Import Library (assimp v6.0.0)"},"extensionsUsed":["KHR_materials_specular","KHR_materials_volume","KHR_materials_ior","FB_ngon_encoding"],"accessors":[{"bufferView":0,"byteOffset":0,"componentType":5126,"count":5382,"type":"VEC3","max":[3.147177219390869,-1.2910805940628052,0.32839134335517883],"min":[2.2250738585072014e-308,-1.4266464710235596,2.2250738585072014e-308]},{"bufferView":1,"byteOffset":0,"componentType":5126,"count":5382,"type":"VEC2","max":[0.9943561553955078,0.597259521484375],"min":[2.2250738585072014e-308,2.2250738585072014e-308]},{"bufferView":2,"byteOffset":0,"componentType":5125,"count":23157,"type":"SCALAR","max":[5381],"min":[0]},{"bufferView":3,"byteOffset":0,"componentType":5126,"count":136,"type":"VEC3","max":[0.924620509147644,-1.2905032634735107,0.3217960298061371],"min":[2.2250738585072014e-308,-1.4021798372268677,2.2250738585072014e-308]},{"bufferView":4,"byteOffset":0,"componentType":5126,"count":136,"type":"VEC2","max":[0.9668998718261719,0.5421447157859802],"min":[2.2250738585072014e-308,2.2250738585072014e-308]},{"bufferView":5,"byteOffset":0,"componentType":5125,"count":525,"type":"SCALAR","max":[135],"min":[0]}],"buffers":[{"byteLength":205088,"uri":"tile_0228.bin"}],"bufferViews":[{"buffer":0,"byteOffset":0,"byteLength":64584,"target":34962},{"buffer":0,"byteOffset":64584,"byteLength":43056,"target":34962},{"buffer":0,"byteOffset":107640,"byteLength":92628,"target":34963},{"buffer":0,"byteOffset":200268,"byteLength":1632,"target":34962},{"buffer":0,"byteOffset":201900,"byteLength":1088,"target":34962},{"buffer":0,"byteOffset":202988,"byteLength":2100,"target":34963}],"images":[{"uri":"../textures/tile_0228_material_0.jpg"},{"uri":"../textures/tile_0228_material_1.jpg"}],"materials":[{"name":"DefaultMaterial","pbrMetallicRoughness":{"baseColorFactor":[0.6000000238418579,0.6000000238418579,0.6000000238418579,1.0],"metallicFactor":0.0},"extensions":{"KHR_materials_specular":{"specularFactor":1.0,"specularColorFactor":[0.0,0.0,0.0]},"KHR_materials_ior":{"ior":1.0}}},{"name":"material_0_material","pbrMetallicRoughness":{"baseColorTexture":{"index":0},"metallicFactor":0.0},"extensions":{"KHR_materials_specular":{"specularFactor":1.0,"specularColorFactor":[0.0,0.0,0.0]},"KHR_materials_ior":{"ior":1.0}}},{"name":"material_1_material","pbrMetallicRoughness":{"baseColorTexture":{"index":1},"metallicFactor":0.0},"extensions":{"KHR_materials_specular":{"specularFactor":1.0,"specularColorFactor":[0.0,0.0,0.0]},"KHR_materials_ior":{"ior":1.0}}}],"meshes":[{"name":"defaultobject","primitives":[{"mode":4,"material":1,"indices":2,"attributes":{"POSITION":0,"TEXCOORD_0":1}},{"mode":4,"material":2,"indices":5,"attributes":{"POSITION":3,"TEXCOORD_0":4}}]}],"nodes":[{"name":"tile_0228.obj","children":[1]},{"name":"defaultobject","mesh":0}],"samplers":[{},{}],"scenes":[{"nodes":[0]}],"textures":[{"source":0,"sampler":0},{"source":1,"sampler":1}],"scene":0}
