{"asset":{"version":"2.0","generator":"Open Asset Import Library (assimp v6.0.0)"},"extensionsUsed":["KHR_materials_specular","KHR_materials_volume","KHR_materials_ior","FB_ngon_encoding"],"accessors":[{"bufferView":0,"byteOffset":0,"componentType":5126,"count":6330,"type":"VEC3","max":[3.6423938274383545,1.0157582759857178,0.022931689396500587],"min":[2.2250738585072014e-308,2.2250738585072014e-308,-0.035202864557504654]},{"bufferView":1,"byteOffset":0,"componentType":5126,"count":6330,"type":"VEC2","max":[0.9945216178894043,0.7576789855957031],"min":[2.2250738585072014e-308,2.2250738585072014e-308]},{"bufferView":2,"byteOffset":0,"componentType":5125,"count":23058,"type":"SCALAR","max":[6329],"min":[0]},{"bufferView":3,"byteOffset":0,"componentType":5126,"count":621,"type":"VEC3","max":[3.0049333572387695,1.0130949020385742,0.021252160891890526],"min":[2.2250738585072014e-308,2.2250738585072014e-308,-0.0316312275826931]},{"bufferView":4,"byteOffset":0,"componentType":5126,"count":621,"type":"VEC2","max":[0.7244300842285156,0.8132209777832031],"min":[2.2250738585072014e-308,2.2250738585072014e-308]},{"bufferView":5,"byteOffset":0,"componentType":5125,"count":3225,"type":"SCALAR","max":[620],"min":[0]}],"buffers":[{"byteLength":244152,"uri":"tile_0534.bin"}],"bufferViews":[{"buffer":0,"byteOffset":0,"byteLength":75960,"target":34962},{"buffer":0,"byteOffset":75960,"byteLength":50640,"target":34962},{"buffer":0,"byteOffset":126600,"byteLength":92232,"target":34963},{"buffer":0,"byteOffset":218832,"byteLength":7452,"target":34962},{"buffer":0,"byteOffset":226284,"byteLength":4968,"target":34962},{"buffer":0,"byteOffset":231252,"byteLength":12900,"target":34963}],"images":[{"uri":"../textures/tile_0534_material_0.jpg"},{"uri":"../textures/tile_0534_material_1.jpg"}],"materials":[{"name":"DefaultMaterial","pbrMetallicRoughness":{"baseColorFactor":[0.6000000238418579,0.6000000238418579,0.6000000238418579,1.0],"metallicFactor":0.0},"extensions":{"KHR_materials_specular":{"specularFactor":1.0,"specularColorFactor":[0.0,0.0,0.0]},"KHR_materials_ior":{"ior":1.0}}},{"name":"material_0_material","pbrMetallicRoughness":{"baseColorTexture":{"index":0},"metallicFactor":0.0},"extensions":{"KHR_materials_specular":{"specularFactor":1.0,"specularColorFactor":[0.0,0.0,0.0]},"KHR_materials_ior":{"ior":1.0}}},{"name":"material_1_material","pbrMetallicRoughness":{"baseColorTexture":{"index":1},"metallicFactor":0.0},"extensions":{"KHR_materials_specular":{"specularFactor":1.0,"specularColorFactor":[0.0,0.0,0.0]},"KHR_materials_ior":{"ior":1.0}}}],"meshes":[{"name":"defaultobject","primitives":[{"mode":4,"material":1,"indices":2,"attributes":{"POSITION":0,"TEXCOORD_0":1}},{"mode":4,"material":2,"indices":5,"attributes":{"POSITION":3,"TEXCOORD_0":4}}]}],"nodes":[{"name":"tile_0534.obj","children":[1]},{"name":"defaultobject","mesh":0}],"samplers":[{},{}],"scenes":[{"nodes":[0]}],"textures":[{"source":0,"sampler":0},{"source":1,"sampler":1}],"scene":0}
