{"asset":{"version":"2.0","generator":"Open Asset Import Library (assimp v6.0.0)"},"extensionsUsed":["KHR_materials_specular","KHR_materials_volume","KHR_materials_ior","FB_ngon_encoding"],"accessors":[{"bufferView":0,"byteOffset":0,"componentType":5126,"count":7653,"type":"VEC3","max":[2.3058645725250244,-2.4708337783813477,1.1385626792907715],"min":[2.2250738585072014e-308,-2.6600751876831055,2.2250738585072014e-308]},{"bufferView":1,"byteOffset":0,"componentType":5126,"count":7653,"type":"VEC2","max":[0.9960107803344727,0.7460250854492188],"min":[2.2250738585072014e-308,2.2250738585072014e-308]},{"bufferView":2,"byteOffset":0,"componentType":5125,"count":31026,"type":"SCALAR","max":[7652],"min":[0]},{"bufferView":3,"byteOffset":0,"componentType":5126,"count":32,"type":"VEC3","max":[0.9646564722061157,-2.5364010334014893,1.0875648260116577],"min":[2.2250738585072014e-308,-2.6592366695404053,2.2250738585072014e-308]},{"bufferView":4,"byteOffset":0,"componentType":5126,"count":32,"type":"VEC2","max":[0.7232207655906677,0.527023196220398],"min":[2.2250738585072014e-308,2.2250738585072014e-308]},{"bufferView":5,"byteOffset":0,"componentType":5125,"count":99,"type":"SCALAR","max":[31],"min":[0]}],"buffers":[{"byteLength":278200,"uri":"tile_0200.bin"}],"bufferViews":[{"buffer":0,"byteOffset":0,"byteLength":91836,"target":34962},{"buffer":0,"byteOffset":91836,"byteLength":61224,"target":34962},{"buffer":0,"byteOffset":153060,"byteLength":124104,"target":34963},{"buffer":0,"byteOffset":277164,"byteLength":384,"target":34962},{"buffer":0,"byteOffset":277548,"byteLength":256,"target":34962},{"buffer":0,"byteOffset":277804,"byteLength":396,"target":34963}],"images":[{"uri":"../textures/tile_0200_material_0.jpg"},{"uri":"../textures/tile_0200_material_1.jpg"}],"materials":[{"name":"DefaultMaterial","pbrMetallicRoughness":{"baseColorFactor":[0.6000000238418579,0.6000000238418579,0.6000000238418579,1.0],"metallicFactor":0.0},"extensions":{"KHR_materials_specular":{"specularFactor":1.0,"specularColorFactor":[0.0,0.0,0.0]},"KHR_materials_ior":{"ior":1.0}}},{"name":"material_0_material","pbrMetallicRoughness":{"baseColorTexture":{"index":0},"metallicFactor":0.0},"extensions":{"KHR_materials_specular":{"specularFactor":1.0,"specularColorFactor":[0.0,0.0,0.0]},"KHR_materials_ior":{"ior":1.0}}},{"name":"material_1_material","pbrMetallicRoughness":{"baseColorTexture":{"index":1},"metallicFactor":0.0},"extensions":{"KHR_materials_specular":{"specularFactor":1.0,"specularColorFactor":[0.0,0.0,0.0]},"KHR_materials_ior":{"ior":1.0}}}],"meshes":[{"name":"defaultobject","primitives":[{"mode":4,"material":1,"indices":2,"attributes":{"POSITION":0,"TEXCOORD_0":1}},{"mode":4,"material":2,"indices":5,"attributes":{"POSITION":3,"TEXCOORD_0":4}}]}],"nodes":[{"name":"tile_0200.obj","children":[1]},{"name":"defaultobject","mesh":0}],"samplers":[{},{}],"scenes":[{"nodes":[0]}],"textures":[{"source":0,"sampler":0},{"source":1,"sampler":1}],"scene":0}
