{"asset":{"version":"2.0","generator":"Open Asset Import Library (assimp v6.0.0)"},"extensionsUsed":["KHR_materials_specular","KHR_materials_volume","KHR_materials_ior","FB_ngon_encoding"],"accessors":[{"bufferView":0,"byteOffset":0,"componentType":5126,"count":3866,"type":"VEC3","max":[3.2651848793029785,-0.6023451685905457,0.19678828120231628],"min":[2.2250738585072014e-308,-0.6546851992607117,2.2250738585072014e-308]},{"bufferView":1,"byteOffset":0,"componentType":5126,"count":3866,"type":"VEC2","max":[0.9932937622070312,0.9609336853027344],"min":[2.2250738585072014e-308,2.2250738585072014e-308]},{"bufferView":2,"byteOffset":0,"componentType":5125,"count":12723,"type":"SCALAR","max":[3865],"min":[0]},{"bufferView":3,"byteOffset":0,"componentType":5126,"count":1818,"type":"VEC3","max":[0.7080482244491577,-0.6048737168312073,0.19348366558551788],"min":[2.2250738585072014e-308,-0.6521517634391785,2.2250738585072014e-308]},{"bufferView":4,"byteOffset":0,"componentType":5126,"count":1818,"type":"VEC2","max":[0.638392448425293,0.7312469482421875],"min":[2.2250738585072014e-308,2.2250738585072014e-308]},{"bufferView":5,"byteOffset":0,"componentType":5125,"count":9339,"type":"SCALAR","max":[1817],"min":[0]}],"buffers":[{"byteLength":201928,"uri":"tile_0491.bin"}],"bufferViews":[{"buffer":0,"byteOffset":0,"byteLength":46392,"target":34962},{"buffer":0,"byteOffset":46392,"byteLength":30928,"target":34962},{"buffer":0,"byteOffset":77320,"byteLength":50892,"target":34963},{"buffer":0,"byteOffset":128212,"byteLength":21816,"target":34962},{"buffer":0,"byteOffset":150028,"byteLength":14544,"target":34962},{"buffer":0,"byteOffset":164572,"byteLength":37356,"target":34963}],"images":[{"uri":"../textures/tile_0491_material_0.jpg"},{"uri":"../textures/tile_0491_material_1.jpg"}],"materials":[{"name":"DefaultMaterial","pbrMetallicRoughness":{"baseColorFactor":[0.6000000238418579,0.6000000238418579,0.6000000238418579,1.0],"metallicFactor":0.0},"extensions":{"KHR_materials_specular":{"specularFactor":1.0,"specularColorFactor":[0.0,0.0,0.0]},"KHR_materials_ior":{"ior":1.0}}},{"name":"material_0_material","pbrMetallicRoughness":{"baseColorTexture":{"index":0},"metallicFactor":0.0},"extensions":{"KHR_materials_specular":{"specularFactor":1.0,"specularColorFactor":[0.0,0.0,0.0]},"KHR_materials_ior":{"ior":1.0}}},{"name":"material_1_material","pbrMetallicRoughness":{"baseColorTexture":{"index":1},"metallicFactor":0.0},"extensions":{"KHR_materials_specular":{"specularFactor":1.0,"specularColorFactor":[0.0,0.0,0.0]},"KHR_materials_ior":{"ior":1.0}}}],"meshes":[{"name":"defaultobject","primitives":[{"mode":4,"material":1,"indices":2,"attributes":{"POSITION":0,"TEXCOORD_0":1}},{"mode":4,"material":2,"indices":5,"attributes":{"POSITION":3,"TEXCOORD_0":4}}]}],"nodes":[{"name":"tile_0491.obj","children":[1]},{"name":"defaultobject","mesh":0}],"samplers":[{},{}],"scenes":[{"nodes":[0]}],"textures":[{"source":0,"sampler":0},{"source":1,"sampler":1}],"scene":0}
