{"asset":{"version":"2.0","generator":"Open Asset Import Library (assimp v6.0.0)"},"extensionsUsed":["KHR_materials_specular","KHR_materials_volume","KHR_materials_ior","FB_ngon_encoding"],"accessors":[{"bufferView":0,"byteOffset":0,"componentType":5126,"count":3770,"type":"VEC3","max":[1.1033153533935547,-0.3709999918937683,3.404174327850342],"min":[2.2250738585072014e-308,-0.7358834147453308,2.2250738585072014e-308]},{"bufferView":1,"byteOffset":0,"componentType":5126,"count":3770,"type":"VEC2","max":[0.9864997863769531,0.4990558624267578],"min":[2.2250738585072014e-308,2.2250738585072014e-308]},{"bufferView":2,"byteOffset":0,"componentType":5125,"count":18054,"type":"SCALAR","max":[3769],"min":[0]},{"bufferView":3,"byteOffset":0,"componentType":5126,"count":317,"type":"VEC3","max":[0.4642599821090698,-0.4354129433631897,3.403287649154663],"min":[2.2250738585072014e-308,-0.6062478423118591,2.2250738585072014e-308]},{"bufferView":4,"byteOffset":0,"componentType":5126,"count":317,"type":"VEC2","max":[0.802490234375,0.6467132568359375],"min":[2.2250738585072014e-308,2.2250738585072014e-308]},{"bufferView":5,"byteOffset":0,"componentType":5125,"count":1494,"type":"SCALAR","max":[316],"min":[0]}],"buffers":[{"byteLength":159932,"uri":"tile_0406.bin"}],"bufferViews":[{"buffer":0,"byteOffset":0,"byteLength":45240,"target":34962},{"buffer":0,"byteOffset":45240,"byteLength":30160,"target":34962},{"buffer":0,"byteOffset":75400,"byteLength":72216,"target":34963},{"buffer":0,"byteOffset":147616,"byteLength":3804,"target":34962},{"buffer":0,"byteOffset":151420,"byteLength":2536,"target":34962},{"buffer":0,"byteOffset":153956,"byteLength":5976,"target":34963}],"images":[{"uri":"../textures/tile_0406_material_0.jpg"},{"uri":"../textures/tile_0406_material_1.jpg"}],"materials":[{"name":"DefaultMaterial","pbrMetallicRoughness":{"baseColorFactor":[0.6000000238418579,0.6000000238418579,0.6000000238418579,1.0],"metallicFactor":0.0},"extensions":{"KHR_materials_specular":{"specularFactor":1.0,"specularColorFactor":[0.0,0.0,0.0]},"KHR_materials_ior":{"ior":1.0}}},{"name":"material_0_material","pbrMetallicRoughness":{"baseColorTexture":{"index":0},"metallicFactor":0.0},"extensions":{"KHR_materials_specular":{"specularFactor":1.0,"specularColorFactor":[0.0,0.0,0.0]},"KHR_materials_ior":{"ior":1.0}}},{"name":"material_1_material","pbrMetallicRoughness":{"baseColorTexture":{"index":1},"metallicFactor":0.0},"extensions":{"KHR_materials_specular":{"specularFactor":1.0,"specularColorFactor":[0.0,0.0,0.0]},"KHR_materials_ior":{"ior":1.0}}}],"meshes":[{"name":"defaultobject","primitives":[{"mode":4,"material":1,"indices":2,"attributes":{"POSITION":0,"TEXCOORD_0":1}},{"mode":4,"material":2,"indices":5,"attributes":{"POSITION":3,"TEXCOORD_0":4}}]}],"nodes":[{"name":"tile_0406.obj","children":[1]},{"name":"defaultobject","mesh":0}],"samplers":[{},{}],"scenes":[{"nodes":[0]}],"textures":[{"source":0,"sampler":0},{"source":1,"sampler":1}],"scene":0}
