{"asset":{"version":"2.0","generator":"Open Asset Import Library (assimp v6.0.0)"},"extensionsUsed":["KHR_materials_specular","KHR_materials_volume","KHR_materials_ior","FB_ngon_encoding"],"accessors":[{"bufferView":0,"byteOffset":0,"componentType":5126,"count":3943,"type":"VEC3","max":[0.7790483236312866,-2.6517510414123535,2.0245425701141357],"min":[2.2250738585072014e-308,-2.770230770111084,2.2250738585072014e-308]},{"bufferView":1,"byteOffset":0,"componentType":5126,"count":3943,"type":"VEC2","max":[0.9891564846038818,0.5661296844482422],"min":[2.2250738585072014e-308,2.2250738585072014e-308]},{"bufferView":2,"byteOffset":0,"componentType":5125,"count":14973,"type":"SCALAR","max":[3942],"min":[0]},{"bufferView":3,"byteOffset":0,"componentType":5126,"count":660,"type":"VEC3","max":[0.8337963819503784,-2.65030837059021,2.03473162651062],"min":[2.2250738585072014e-308,-2.7760701179504395,2.2250738585072014e-308]},{"bufferView":4,"byteOffset":0,"componentType":5126,"count":660,"type":"VEC2","max":[0.7578830718994141,0.6718826293945312],"min":[2.2250738585072014e-308,2.2250738585072014e-308]},{"bufferView":5,"byteOffset":0,"componentType":5125,"count":3285,"type":"SCALAR","max":[659],"min":[0]}],"buffers":[{"byteLength":165092,"uri":"tile_0321.bin"}],"bufferViews":[{"buffer":0,"byteOffset":0,"byteLength":47316,"target":34962},{"buffer":0,"byteOffset":47316,"byteLength":31544,"target":34962},{"buffer":0,"byteOffset":78860,"byteLength":59892,"target":34963},{"buffer":0,"byteOffset":138752,"byteLength":7920,"target":34962},{"buffer":0,"byteOffset":146672,"byteLength":5280,"target":34962},{"buffer":0,"byteOffset":151952,"byteLength":13140,"target":34963}],"images":[{"uri":"../textures/tile_0321_material_0.jpg"},{"uri":"../textures/tile_0321_material_1.jpg"}],"materials":[{"name":"DefaultMaterial","pbrMetallicRoughness":{"baseColorFactor":[0.6000000238418579,0.6000000238418579,0.6000000238418579,1.0],"metallicFactor":0.0},"extensions":{"KHR_materials_specular":{"specularFactor":1.0,"specularColorFactor":[0.0,0.0,0.0]},"KHR_materials_ior":{"ior":1.0}}},{"name":"material_0_material","pbrMetallicRoughness":{"baseColorTexture":{"index":0},"metallicFactor":0.0},"extensions":{"KHR_materials_specular":{"specularFactor":1.0,"specularColorFactor":[0.0,0.0,0.0]},"KHR_materials_ior":{"ior":1.0}}},{"name":"material_1_material","pbrMetallicRoughness":{"baseColorTexture":{"index":1},"metallicFactor":0.0},"extensions":{"KHR_materials_specular":{"specularFactor":1.0,"specularColorFactor":[0.0,0.0,0.0]},"KHR_materials_ior":{"ior":1.0}}}],"meshes":[{"name":"defaultobject","primitives":[{"mode":4,"material":1,"indices":2,"attributes":{"POSITION":0,"TEXCOORD_0":1}},{"mode":4,"material":2,"indices":5,"attributes":{"POSITION":3,"TEXCOORD_0":4}}]}],"nodes":[{"name":"tile_0321.obj","children":[1]},{"name":"defaultobject","mesh":0}],"samplers":[{},{}],"scenes":[{"nodes":[0]}],"textures":[{"source":0,"sampler":0},{"source":1,"sampler":1}],"scene":0}
