{"asset":{"version":"2.0","generator":"Open Asset Import Library (assimp v6.0.0)"},"extensionsUsed":["KHR_materials_specular","KHR_materials_volume","KHR_materials_ior","FB_ngon_encoding"],"accessors":[{"bufferView":0,"byteOffset":0,"componentType":5126,"count":4549,"type":"VEC3","max":[3.3546552658081055,-0.18202078342437744,0.1887793242931366],"min":[2.2250738585072014e-308,-0.3017825782299042,2.2250738585072014e-308]},{"bufferView":1,"byteOffset":0,"componentType":5126,"count":4549,"type":"VEC2","max":[0.9924192428588867,0.6054458618164062],"min":[2.2250738585072014e-308,2.2250738585072014e-308]},{"bufferView":2,"byteOffset":0,"componentType":5125,"count":13971,"type":"SCALAR","max":[4548],"min":[0]},{"bufferView":3,"byteOffset":0,"componentType":5126,"count":3367,"type":"VEC3","max":[3.1129837036132812,-0.18202078342437744,0.19795119762420654],"min":[2.2250738585072014e-308,-0.29875558614730835,2.2250738585072014e-308]},{"bufferView":4,"byteOffset":0,"componentType":5126,"count":3367,"type":"VEC2","max":[0.9225316047668457,0.9053192138671875],"min":[2.2250738585072014e-308,2.2250738585072014e-308]},{"bufferView":5,"byteOffset":0,"componentType":5125,"count":16122,"type":"SCALAR","max":[3366],"min":[0]}],"buffers":[{"byteLength":278692,"uri":"tile_0501.bin"}],"bufferViews":[{"buffer":0,"byteOffset":0,"byteLength":54588,"target":34962},{"buffer":0,"byteOffset":54588,"byteLength":36392,"target":34962},{"buffer":0,"byteOffset":90980,"byteLength":55884,"target":34963},{"buffer":0,"byteOffset":146864,"byteLength":40404,"target":34962},{"buffer":0,"byteOffset":187268,"byteLength":26936,"target":34962},{"buffer":0,"byteOffset":214204,"byteLength":64488,"target":34963}],"images":[{"uri":"../textures/tile_0501_material_0.jpg"},{"uri":"../textures/tile_0501_material_1.jpg"}],"materials":[{"name":"DefaultMaterial","pbrMetallicRoughness":{"baseColorFactor":[0.6000000238418579,0.6000000238418579,0.6000000238418579,1.0],"metallicFactor":0.0},"extensions":{"KHR_materials_specular":{"specularFactor":1.0,"specularColorFactor":[0.0,0.0,0.0]},"KHR_materials_ior":{"ior":1.0}}},{"name":"material_0_material","pbrMetallicRoughness":{"baseColorTexture":{"index":0},"metallicFactor":0.0},"extensions":{"KHR_materials_specular":{"specularFactor":1.0,"specularColorFactor":[0.0,0.0,0.0]},"KHR_materials_ior":{"ior":1.0}}},{"name":"material_1_material","pbrMetallicRoughness":{"baseColorTexture":{"index":1},"metallicFactor":0.0},"extensions":{"KHR_materials_specular":{"specularFactor":1.0,"specularColorFactor":[0.0,0.0,0.0]},"KHR_materials_ior":{"ior":1.0}}}],"meshes":[{"name":"defaultobject","primitives":[{"mode":4,"material":1,"indices":2,"attributes":{"POSITION":0,"TEXCOORD_0":1}},{"mode":4,"material":2,"indices":5,"attributes":{"POSITION":3,"TEXCOORD_0":4}}]}],"nodes":[{"name":"tile_0501.obj","children":[1]},{"name":"defaultobject","mesh":0}],"samplers":[{},{}],"scenes":[{"nodes":[0]}],"textures":[{"source":0,"sampler":0},{"source":1,"sampler":1}],"scene":0}
