{"asset":{"version":"2.0","generator":"Open Asset Import Library (assimp v6.0.0)"},"extensionsUsed":["KHR_materials_specular","KHR_materials_volume","KHR_materials_ior","FB_ngon_encoding"],"accessors":[{"bufferView":0,"byteOffset":0,"componentType":5126,"count":4290,"type":"VEC3","max":[1.1284540891647339,0.9360838532447815,1.7781168222427368],"min":[2.2250738585072014e-308,2.2250738585072014e-308,2.2250738585072014e-308]},{"bufferView":1,"byteOffset":0,"componentType":5126,"count":4290,"type":"VEC2","max":[0.9956655502319336,0.6912212371826172],"min":[2.2250738585072014e-308,2.2250738585072014e-308]},{"bufferView":2,"byteOffset":0,"componentType":5125,"count":18867,"type":"SCALAR","max":[4289],"min":[0]},{"bufferView":3,"byteOffset":0,"componentType":5126,"count":309,"type":"VEC3","max":[1.1238945722579956,0.938485860824585,1.79347825050354],"min":[2.2250738585072014e-308,2.2250738585072014e-308,2.2250738585072014e-308]},{"bufferView":4,"byteOffset":0,"componentType":5126,"count":309,"type":"VEC2","max":[0.9522571563720703,0.5036563873291016],"min":[2.2250738585072014e-308,2.2250738585072014e-308]},{"bufferView":5,"byteOffset":0,"componentType":5125,"count":1224,"type":"SCALAR","max":[308],"min":[0]}],"buffers":[{"byteLength":172344,"uri":"tile_0437.bin"}],"bufferViews":[{"buffer":0,"byteOffset":0,"byteLength":51480,"target":34962},{"buffer":0,"byteOffset":51480,"byteLength":34320,"target":34962},{"buffer":0,"byteOffset":85800,"byteLength":75468,"target":34963},{"buffer":0,"byteOffset":161268,"byteLength":3708,"target":34962},{"buffer":0,"byteOffset":164976,"byteLength":2472,"target":34962},{"buffer":0,"byteOffset":167448,"byteLength":4896,"target":34963}],"images":[{"uri":"../textures/tile_0437_material_0.jpg"},{"uri":"../textures/tile_0437_material_1.jpg"}],"materials":[{"name":"DefaultMaterial","pbrMetallicRoughness":{"baseColorFactor":[0.6000000238418579,0.6000000238418579,0.6000000238418579,1.0],"metallicFactor":0.0},"extensions":{"KHR_materials_specular":{"specularFactor":1.0,"specularColorFactor":[0.0,0.0,0.0]},"KHR_materials_ior":{"ior":1.0}}},{"name":"material_0_material","pbrMetallicRoughness":{"baseColorTexture":{"index":0},"metallicFactor":0.0},"extensions":{"KHR_materials_specular":{"specularFactor":1.0,"specularColorFactor":[0.0,0.0,0.0]},"KHR_materials_ior":{"ior":1.0}}},{"name":"material_1_material","pbrMetallicRoughness":{"baseColorTexture":{"index":1},"metallicFactor":0.0},"extensions":{"KHR_materials_specular":{"specularFactor":1.0,"specularColorFactor":[0.0,0.0,0.0]},"KHR_materials_ior":{"ior":1.0}}}],"meshes":[{"name":"defaultobject","primitives":[{"mode":4,"material":1,"indices":2,"attributes":{"POSITION":0,"TEXCOORD_0":1}},{"mode":4,"material":2,"indices":5,"attributes":{"POSITION":3,"TEXCOORD_0":4}}]}],"nodes":[{"name":"tile_0437.obj","children":[1]},{"name":"defaultobject","mesh":0}],"samplers":[{},{}],"scenes":[{"nodes":[0]}],"textures":[{"source":0,"sampler":0},{"source":1,"sampler":1}],"scene":0}
