{"asset":{"version":"2.0","generator":"Open Asset Import Library (assimp v6.0.0)"},"extensionsUsed":["KHR_materials_specular","KHR_materials_volume","KHR_materials_ior","FB_ngon_encoding"],"accessors":[{"bufferView":0,"byteOffset":0,"componentType":5126,"count":9323,"type":"VEC3","max":[2.9456329345703125,-2.1547598838806152,0.5067071914672852],"min":[2.2250738585072014e-308,-2.4859728813171387,2.2250738585072014e-308]},{"bufferView":1,"byteOffset":0,"componentType":5126,"count":9323,"type":"VEC2","max":[0.9954309463500977,0.9650402069091797],"min":[2.2250738585072014e-308,2.2250738585072014e-308]},{"bufferView":2,"byteOffset":0,"componentType":5125,"count":39726,"type":"SCALAR","max":[9322],"min":[0]},{"bufferView":3,"byteOffset":0,"componentType":5126,"count":14,"type":"VEC3","max":[1.7822943925857544,-2.45015811920166,0.5011711716651917],"min":[2.2250738585072014e-308,-2.4678256511688232,2.2250738585072014e-308]},{"bufferView":4,"byteOffset":0,"componentType":5126,"count":14,"type":"VEC2","max":[0.591911256313324,0.775390625],"min":[2.2250738585072014e-308,2.2250738585072014e-308]},{"bufferView":5,"byteOffset":0,"componentType":5125,"count":24,"type":"SCALAR","max":[13],"min":[0]}],"buffers":[{"byteLength":345740,"uri":"tile_0625.bin"}],"bufferViews":[{"buffer":0,"byteOffset":0,"byteLength":111876,"target":34962},{"buffer":0,"byteOffset":111876,"byteLength":74584,"target":34962},{"buffer":0,"byteOffset":186460,"byteLength":158904,"target":34963},{"buffer":0,"byteOffset":345364,"byteLength":168,"target":34962},{"buffer":0,"byteOffset":345532,"byteLength":112,"target":34962},{"buffer":0,"byteOffset":345644,"byteLength":96,"target":34963}],"images":[{"uri":"../textures/tile_0625_material_0.jpg"},{"uri":"../textures/tile_0625_material_1.jpg"}],"materials":[{"name":"DefaultMaterial","pbrMetallicRoughness":{"baseColorFactor":[0.6000000238418579,0.6000000238418579,0.6000000238418579,1.0],"metallicFactor":0.0},"extensions":{"KHR_materials_specular":{"specularFactor":1.0,"specularColorFactor":[0.0,0.0,0.0]},"KHR_materials_ior":{"ior":1.0}}},{"name":"material_0_material","pbrMetallicRoughness":{"baseColorTexture":{"index":0},"metallicFactor":0.0},"extensions":{"KHR_materials_specular":{"specularFactor":1.0,"specularColorFactor":[0.0,0.0,0.0]},"KHR_materials_ior":{"ior":1.0}}},{"name":"material_1_material","pbrMetallicRoughness":{"baseColorTexture":{"index":1},"metallicFactor":0.0},"extensions":{"KHR_materials_specular":{"specularFactor":1.0,"specularColorFactor":[0.0,0.0,0.0]},"KHR_materials_ior":{"ior":1.0}}}],"meshes":[{"name":"defaultobject","primitives":[{"mode":4,"material":1,"indices":2,"attributes":{"POSITION":0,"TEXCOORD_0":1}},{"mode":4,"material":2,"indices":5,"attributes":{"POSITION":3,"TEXCOORD_0":4}}]}],"nodes":[{"name":"tile_0625.obj","children":[1]},{"name":"defaultobject","mesh":0}],"samplers":[{},{}],"scenes":[{"nodes":[0]}],"textures":[{"source":0,"sampler":0},{"source":1,"sampler":1}],"scene":0}
