{"asset":{"version":"2.0","generator":"Open Asset Import Library (assimp v6.0.0)"},"extensionsUsed":["KHR_materials_specular","KHR_materials_volume","KHR_materials_ior","FB_ngon_encoding"],"accessors":[{"bufferView":0,"byteOffset":0,"componentType":5126,"count":5365,"type":"VEC3","max":[2.828253984451294,-2.484363079071045,0.6495345830917358],"min":[2.2250738585072014e-308,-2.8692052364349365,2.2250738585072014e-308]},{"bufferView":1,"byteOffset":0,"componentType":5126,"count":5365,"type":"VEC2","max":[0.9899396896362305,0.6954517364501953],"min":[2.2250738585072014e-308,2.2250738585072014e-308]},{"bufferView":2,"byteOffset":0,"componentType":5125,"count":24057,"type":"SCALAR","max":[5364],"min":[0]},{"bufferView":3,"byteOffset":0,"componentType":5126,"count":32,"type":"VEC3","max":[1.752083420753479,-2.499441146850586,0.6423004865646362],"min":[2.2250738585072014e-308,-2.638195037841797,2.2250738585072014e-308]},{"bufferView":4,"byteOffset":0,"componentType":5126,"count":32,"type":"VEC2","max":[0.5252723693847656,0.49167633056640625],"min":[2.2250738585072014e-308,2.2250738585072014e-308]},{"bufferView":5,"byteOffset":0,"componentType":5125,"count":105,"type":"SCALAR","max":[31],"min":[0]}],"buffers":[{"byteLength":204588,"uri":"tile_0613.bin"}],"bufferViews":[{"buffer":0,"byteOffset":0,"byteLength":64380,"target":34962},{"buffer":0,"byteOffset":64380,"byteLength":42920,"target":34962},{"buffer":0,"byteOffset":107300,"byteLength":96228,"target":34963},{"buffer":0,"byteOffset":203528,"byteLength":384,"target":34962},{"buffer":0,"byteOffset":203912,"byteLength":256,"target":34962},{"buffer":0,"byteOffset":204168,"byteLength":420,"target":34963}],"images":[{"uri":"../textures/tile_0613_material_0.jpg"},{"uri":"../textures/tile_0613_material_1.jpg"}],"materials":[{"name":"DefaultMaterial","pbrMetallicRoughness":{"baseColorFactor":[0.6000000238418579,0.6000000238418579,0.6000000238418579,1.0],"metallicFactor":0.0},"extensions":{"KHR_materials_specular":{"specularFactor":1.0,"specularColorFactor":[0.0,0.0,0.0]},"KHR_materials_ior":{"ior":1.0}}},{"name":"material_0_material","pbrMetallicRoughness":{"baseColorTexture":{"index":0},"metallicFactor":0.0},"extensions":{"KHR_materials_specular":{"specularFactor":1.0,"specularColorFactor":[0.0,0.0,0.0]},"KHR_materials_ior":{"ior":1.0}}},{"name":"material_1_material","pbrMetallicRoughness":{"baseColorTexture":{"index":1},"metallicFactor":0.0},"extensions":{"KHR_materials_specular":{"specularFactor":1.0,"specularColorFactor":[0.0,0.0,0.0]},"KHR_materials_ior":{"ior":1.0}}}],"meshes":[{"name":"defaultobject","primitives":[{"mode":4,"material":1,"indices":2,"attributes":{"POSITION":0,"TEXCOORD_0":1}},{"mode":4,"material":2,"indices":5,"attributes":{"POSITION":3,"TEXCOORD_0":4}}]}],"nodes":[{"name":"tile_0613.obj","children":[1]},{"name":"defaultobject","mesh":0}],"samplers":[{},{}],"scenes":[{"nodes":[0]}],"textures":[{"source":0,"sampler":0},{"source":1,"sampler":1}],"scene":0}
