{"asset":{"version":"2.0","generator":"Open Asset Import Library (assimp v6.0.0)"},"extensionsUsed":["KHR_materials_specular","KHR_materials_volume","KHR_materials_ior","FB_ngon_encoding"],"accessors":[{"bufferView":0,"byteOffset":0,"componentType":5126,"count":3298,"type":"VEC3","max":[3.147976875305176,-1.5631505250930786,0.24724124372005463],"min":[2.2250738585072014e-308,-1.6792688369750977,2.2250738585072014e-308]},{"bufferView":1,"byteOffset":0,"componentType":5126,"count":3298,"type":"VEC2","max":[0.9948568344116211,0.7632980346679688],"min":[2.2250738585072014e-308,2.2250738585072014e-308]},{"bufferView":2,"byteOffset":0,"componentType":5125,"count":13308,"type":"SCALAR","max":[3297],"min":[0]},{"bufferView":3,"byteOffset":0,"componentType":5126,"count":114,"type":"VEC3","max":[0.3740274906158447,-1.5636277198791504,0.2439822405576706],"min":[2.2250738585072014e-308,-1.5994192361831665,2.2250738585072014e-308]},{"bufferView":4,"byteOffset":0,"componentType":5126,"count":114,"type":"VEC2","max":[0.6742134094238281,0.6041183471679688],"min":[2.2250738585072014e-308,2.2250738585072014e-308]},{"bufferView":5,"byteOffset":0,"componentType":5125,"count":408,"type":"SCALAR","max":[113],"min":[0]}],"buffers":[{"byteLength":123104,"uri":"tile_0211.bin"}],"bufferViews":[{"buffer":0,"byteOffset":0,"byteLength":39576,"target":34962},{"buffer":0,"byteOffset":39576,"byteLength":26384,"target":34962},{"buffer":0,"byteOffset":65960,"byteLength":53232,"target":34963},{"buffer":0,"byteOffset":119192,"byteLength":1368,"target":34962},{"buffer":0,"byteOffset":120560,"byteLength":912,"target":34962},{"buffer":0,"byteOffset":121472,"byteLength":1632,"target":34963}],"images":[{"uri":"../textures/tile_0211_material_0.jpg"},{"uri":"../textures/tile_0211_material_1.jpg"}],"materials":[{"name":"DefaultMaterial","pbrMetallicRoughness":{"baseColorFactor":[0.6000000238418579,0.6000000238418579,0.6000000238418579,1.0],"metallicFactor":0.0},"extensions":{"KHR_materials_specular":{"specularFactor":1.0,"specularColorFactor":[0.0,0.0,0.0]},"KHR_materials_ior":{"ior":1.0}}},{"name":"material_0_material","pbrMetallicRoughness":{"baseColorTexture":{"index":0},"metallicFactor":0.0},"extensions":{"KHR_materials_specular":{"specularFactor":1.0,"specularColorFactor":[0.0,0.0,0.0]},"KHR_materials_ior":{"ior":1.0}}},{"name":"material_1_material","pbrMetallicRoughness":{"baseColorTexture":{"index":1},"metallicFactor":0.0},"extensions":{"KHR_materials_specular":{"specularFactor":1.0,"specularColorFactor":[0.0,0.0,0.0]},"KHR_materials_ior":{"ior":1.0}}}],"meshes":[{"name":"defaultobject","primitives":[{"mode":4,"material":1,"indices":2,"attributes":{"POSITION":0,"TEXCOORD_0":1}},{"mode":4,"material":2,"indices":5,"attributes":{"POSITION":3,"TEXCOORD_0":4}}]}],"nodes":[{"name":"tile_0211.obj","children":[1]},{"name":"defaultobject","mesh":0}],"samplers":[{},{}],"scenes":[{"nodes":[0]}],"textures":[{"source":0,"sampler":0},{"source":1,"sampler":1}],"scene":0}
