{"asset":{"version":"2.0","generator":"Open Asset Import Library (assimp v6.0.0)"},"extensionsUsed":["KHR_materials_specular","KHR_materials_volume","KHR_materials_ior","FB_ngon_encoding"],"accessors":[{"bufferView":0,"byteOffset":0,"componentType":5126,"count":6775,"type":"VEC3","max":[3.827277660369873,0.9267479777336121,-0.02702305279672146],"min":[2.2250738585072014e-308,2.2250738585072014e-308,-0.6052722334861755]},{"bufferView":1,"byteOffset":0,"componentType":5126,"count":6775,"type":"VEC2","max":[0.9934234619140625,0.7694873809814453],"min":[2.2250738585072014e-308,2.2250738585072014e-308]},{"bufferView":2,"byteOffset":0,"componentType":5125,"count":25395,"type":"SCALAR","max":[6774],"min":[0]},{"bufferView":3,"byteOffset":0,"componentType":5126,"count":202,"type":"VEC3","max":[3.827277660369873,0.9649919271469116,-0.29948750138282776],"min":[2.2250738585072014e-308,2.2250738585072014e-308,-0.652029812335968]},{"bufferView":4,"byteOffset":0,"componentType":5126,"count":202,"type":"VEC2","max":[0.5599579811096191,0.5236587524414062],"min":[2.2250738585072014e-308,2.2250738585072014e-308]},{"bufferView":5,"byteOffset":0,"componentType":5125,"count":885,"type":"SCALAR","max":[201],"min":[0]}],"buffers":[{"byteLength":244660,"uri":"tile_0545.bin"}],"bufferViews":[{"buffer":0,"byteOffset":0,"byteLength":81300,"target":34962},{"buffer":0,"byteOffset":81300,"byteLength":54200,"target":34962},{"buffer":0,"byteOffset":135500,"byteLength":101580,"target":34963},{"buffer":0,"byteOffset":237080,"byteLength":2424,"target":34962},{"buffer":0,"byteOffset":239504,"byteLength":1616,"target":34962},{"buffer":0,"byteOffset":241120,"byteLength":3540,"target":34963}],"images":[{"uri":"../textures/tile_0545_material_0.jpg"},{"uri":"../textures/tile_0545_material_1.jpg"}],"materials":[{"name":"DefaultMaterial","pbrMetallicRoughness":{"baseColorFactor":[0.6000000238418579,0.6000000238418579,0.6000000238418579,1.0],"metallicFactor":0.0},"extensions":{"KHR_materials_specular":{"specularFactor":1.0,"specularColorFactor":[0.0,0.0,0.0]},"KHR_materials_ior":{"ior":1.0}}},{"name":"material_0_material","pbrMetallicRoughness":{"baseColorTexture":{"index":0},"metallicFactor":0.0},"extensions":{"KHR_materials_specular":{"specularFactor":1.0,"specularColorFactor":[0.0,0.0,0.0]},"KHR_materials_ior":{"ior":1.0}}},{"name":"material_1_material","pbrMetallicRoughness":{"baseColorTexture":{"index":1},"metallicFactor":0.0},"extensions":{"KHR_materials_specular":{"specularFactor":1.0,"specularColorFactor":[0.0,0.0,0.0]},"KHR_materials_ior":{"ior":1.0}}}],"meshes":[{"name":"defaultobject","primitives":[{"mode":4,"material":1,"indices":2,"attributes":{"POSITION":0,"TEXCOORD_0":1}},{"mode":4,"material":2,"indices":5,"attributes":{"POSITION":3,"TEXCOORD_0":4}}]}],"nodes":[{"name":"tile_0545.obj","children":[1]},{"name":"defaultobject","mesh":0}],"samplers":[{},{}],"scenes":[{"nodes":[0]}],"textures":[{"source":0,"sampler":0},{"source":1,"sampler":1}],"scene":0}
