{"asset":{"version":"2.0","generator":"Open Asset Import Library (assimp v6.0.0)"},"extensionsUsed":["KHR_materials_specular","KHR_materials_volume","KHR_materials_ior","FB_ngon_encoding"],"accessors":[{"bufferView":0,"byteOffset":0,"componentType":5126,"count":2139,"type":"VEC3","max":[1.4045273065567017,-3.143293619155884,1.5128612518310547],"min":[2.2250738585072014e-308,-3.2405900955200195,2.2250738585072014e-308]},{"bufferView":1,"byteOffset":0,"componentType":5126,"count":2139,"type":"VEC2","max":[0.9898157119750977,0.5465545654296875],"min":[2.2250738585072014e-308,2.2250738585072014e-308]},{"bufferView":2,"byteOffset":0,"componentType":5125,"count":9138,"type":"SCALAR","max":[2138],"min":[0]},{"bufferView":3,"byteOffset":0,"componentType":5126,"count":1647,"type":"VEC3","max":[1.1622228622436523,-3.146620512008667,1.5115056037902832],"min":[2.2250738585072014e-308,-3.2267372608184814,2.2250738585072014e-308]},{"bufferView":4,"byteOffset":0,"componentType":5126,"count":1647,"type":"VEC2","max":[0.7050075531005859,0.6480674743652344],"min":[2.2250738585072014e-308,2.2250738585072014e-308]},{"bufferView":5,"byteOffset":0,"componentType":5125,"count":8541,"type":"SCALAR","max":[1646],"min":[0]}],"buffers":[{"byteLength":146436,"uri":"tile_0644.bin"}],"bufferViews":[{"buffer":0,"byteOffset":0,"byteLength":25668,"target":34962},{"buffer":0,"byteOffset":25668,"byteLength":17112,"target":34962},{"buffer":0,"byteOffset":42780,"byteLength":36552,"target":34963},{"buffer":0,"byteOffset":79332,"byteLength":19764,"target":34962},{"buffer":0,"byteOffset":99096,"byteLength":13176,"target":34962},{"buffer":0,"byteOffset":112272,"byteLength":34164,"target":34963}],"images":[{"uri":"../textures/tile_0644_material_0.jpg"},{"uri":"../textures/tile_0644_material_1.jpg"}],"materials":[{"name":"DefaultMaterial","pbrMetallicRoughness":{"baseColorFactor":[0.6000000238418579,0.6000000238418579,0.6000000238418579,1.0],"metallicFactor":0.0},"extensions":{"KHR_materials_specular":{"specularFactor":1.0,"specularColorFactor":[0.0,0.0,0.0]},"KHR_materials_ior":{"ior":1.0}}},{"name":"material_0_material","pbrMetallicRoughness":{"baseColorTexture":{"index":0},"metallicFactor":0.0},"extensions":{"KHR_materials_specular":{"specularFactor":1.0,"specularColorFactor":[0.0,0.0,0.0]},"KHR_materials_ior":{"ior":1.0}}},{"name":"material_1_material","pbrMetallicRoughness":{"baseColorTexture":{"index":1},"metallicFactor":0.0},"extensions":{"KHR_materials_specular":{"specularFactor":1.0,"specularColorFactor":[0.0,0.0,0.0]},"KHR_materials_ior":{"ior":1.0}}}],"meshes":[{"name":"defaultobject","primitives":[{"mode":4,"material":1,"indices":2,"attributes":{"POSITION":0,"TEXCOORD_0":1}},{"mode":4,"material":2,"indices":5,"attributes":{"POSITION":3,"TEXCOORD_0":4}}]}],"nodes":[{"name":"tile_0644.obj","children":[1]},{"name":"defaultobject","mesh":0}],"samplers":[{},{}],"scenes":[{"nodes":[0]}],"textures":[{"source":0,"sampler":0},{"source":1,"sampler":1}],"scene":0}
