{"asset":{"version":"2.0","generator":"Open Asset Import Library (assimp v6.0.0)"},"extensionsUsed":["KHR_materials_specular","KHR_materials_volume","KHR_materials_ior","FB_ngon_encoding"],"accessors":[{"bufferView":0,"byteOffset":0,"componentType":5126,"count":6394,"type":"VEC3","max":[2.49806809425354,-2.8599395751953125,1.0115821361541748],"min":[2.2250738585072014e-308,-3.0818445682525635,2.2250738585072014e-308]},{"bufferView":1,"byteOffset":0,"componentType":5126,"count":6394,"type":"VEC2","max":[0.9940457344055176,0.5895576477050781],"min":[2.2250738585072014e-308,2.2250738585072014e-308]},{"bufferView":2,"byteOffset":0,"componentType":5125,"count":26433,"type":"SCALAR","max":[6393],"min":[0]},{"bufferView":3,"byteOffset":0,"componentType":5126,"count":388,"type":"VEC3","max":[1.1730773448944092,-2.8612911701202393,0.9937381744384766],"min":[2.2250738585072014e-308,-2.9315271377563477,2.2250738585072014e-308]},{"bufferView":4,"byteOffset":0,"componentType":5126,"count":388,"type":"VEC2","max":[0.7077064514160156,0.89678955078125],"min":[2.2250738585072014e-308,2.2250738585072014e-308]},{"bufferView":5,"byteOffset":0,"componentType":5125,"count":1950,"type":"SCALAR","max":[387],"min":[0]}],"buffers":[{"byteLength":249172,"uri":"tile_0609.bin"}],"bufferViews":[{"buffer":0,"byteOffset":0,"byteLength":76728,"target":34962},{"buffer":0,"byteOffset":76728,"byteLength":51152,"target":34962},{"buffer":0,"byteOffset":127880,"byteLength":105732,"target":34963},{"buffer":0,"byteOffset":233612,"byteLength":4656,"target":34962},{"buffer":0,"byteOffset":238268,"byteLength":3104,"target":34962},{"buffer":0,"byteOffset":241372,"byteLength":7800,"target":34963}],"images":[{"uri":"../textures/tile_0609_material_0.jpg"},{"uri":"../textures/tile_0609_material_1.jpg"}],"materials":[{"name":"DefaultMaterial","pbrMetallicRoughness":{"baseColorFactor":[0.6000000238418579,0.6000000238418579,0.6000000238418579,1.0],"metallicFactor":0.0},"extensions":{"KHR_materials_specular":{"specularFactor":1.0,"specularColorFactor":[0.0,0.0,0.0]},"KHR_materials_ior":{"ior":1.0}}},{"name":"material_0_material","pbrMetallicRoughness":{"baseColorTexture":{"index":0},"metallicFactor":0.0},"extensions":{"KHR_materials_specular":{"specularFactor":1.0,"specularColorFactor":[0.0,0.0,0.0]},"KHR_materials_ior":{"ior":1.0}}},{"name":"material_1_material","pbrMetallicRoughness":{"baseColorTexture":{"index":1},"metallicFactor":0.0},"extensions":{"KHR_materials_specular":{"specularFactor":1.0,"specularColorFactor":[0.0,0.0,0.0]},"KHR_materials_ior":{"ior":1.0}}}],"meshes":[{"name":"defaultobject","primitives":[{"mode":4,"material":1,"indices":2,"attributes":{"POSITION":0,"TEXCOORD_0":1}},{"mode":4,"material":2,"indices":5,"attributes":{"POSITION":3,"TEXCOORD_0":4}}]}],"nodes":[{"name":"tile_0609.obj","children":[1]},{"name":"defaultobject","mesh":0}],"samplers":[{},{}],"scenes":[{"nodes":[0]}],"textures":[{"source":0,"sampler":0},{"source":1,"sampler":1}],"scene":0}
