{"asset":{"version":"2.0","generator":"Open Asset Import Library (assimp v6.0.0)"},"extensionsUsed":["KHR_materials_specular","KHR_materials_volume","KHR_materials_ior","FB_ngon_encoding"],"accessors":[{"bufferView":0,"byteOffset":0,"componentType":5126,"count":4098,"type":"VEC3","max":[3.647496461868286,1.0886956453323364,0.021601863205432892],"min":[2.2250738585072014e-308,2.2250738585072014e-308,-0.023554904386401176]},{"bufferView":1,"byteOffset":0,"componentType":5126,"count":4098,"type":"VEC2","max":[0.986577033996582,0.7951583862304688],"min":[2.2250738585072014e-308,2.2250738585072014e-308]},{"bufferView":2,"byteOffset":0,"componentType":5125,"count":15081,"type":"SCALAR","max":[4097],"min":[0]},{"bufferView":3,"byteOffset":0,"componentType":5126,"count":1107,"type":"VEC3","max":[2.9979708194732666,1.0860422849655151,0.019255628809332848],"min":[2.2250738585072014e-308,2.2250738585072014e-308,-0.02071395516395569]},{"bufferView":4,"byteOffset":0,"componentType":5126,"count":1107,"type":"VEC2","max":[0.5695972442626953,0.7921142578125],"min":[2.2250738585072014e-308,2.2250738585072014e-308]},{"bufferView":5,"byteOffset":0,"componentType":5125,"count":5319,"type":"SCALAR","max":[1106],"min":[0]}],"buffers":[{"byteLength":185700,"uri":"tile_0106.bin"}],"bufferViews":[{"buffer":0,"byteOffset":0,"byteLength":49176,"target":34962},{"buffer":0,"byteOffset":49176,"byteLength":32784,"target":34962},{"buffer":0,"byteOffset":81960,"byteLength":60324,"target":34963},{"buffer":0,"byteOffset":142284,"byteLength":13284,"target":34962},{"buffer":0,"byteOffset":155568,"byteLength":8856,"target":34962},{"buffer":0,"byteOffset":164424,"byteLength":21276,"target":34963}],"images":[{"uri":"../textures/tile_0106_material_0.jpg"},{"uri":"../textures/tile_0106_material_1.jpg"}],"materials":[{"name":"DefaultMaterial","pbrMetallicRoughness":{"baseColorFactor":[0.6000000238418579,0.6000000238418579,0.6000000238418579,1.0],"metallicFactor":0.0},"extensions":{"KHR_materials_specular":{"specularFactor":1.0,"specularColorFactor":[0.0,0.0,0.0]},"KHR_materials_ior":{"ior":1.0}}},{"name":"material_0_material","pbrMetallicRoughness":{"baseColorTexture":{"index":0},"metallicFactor":0.0},"extensions":{"KHR_materials_specular":{"specularFactor":1.0,"specularColorFactor":[0.0,0.0,0.0]},"KHR_materials_ior":{"ior":1.0}}},{"name":"material_1_material","pbrMetallicRoughness":{"baseColorTexture":{"index":1},"metallicFactor":0.0},"extensions":{"KHR_materials_specular":{"specularFactor":1.0,"specularColorFactor":[0.0,0.0,0.0]},"KHR_materials_ior":{"ior":1.0}}}],"meshes":[{"name":"defaultobject","primitives":[{"mode":4,"material":1,"indices":2,"attributes":{"POSITION":0,"TEXCOORD_0":1}},{"mode":4,"material":2,"indices":5,"attributes":{"POSITION":3,"TEXCOORD_0":4}}]}],"nodes":[{"name":"tile_0106.obj","children":[1]},{"name":"defaultobject","mesh":0}],"samplers":[{},{}],"scenes":[{"nodes":[0]}],"textures":[{"source":0,"sampler":0},{"source":1,"sampler":1}],"scene":0}
