{"asset":{"version":"2.0","generator":"Open Asset Import Library (assimp v6.0.0)"},"extensionsUsed":["KHR_materials_specular","KHR_materials_volume","KHR_materials_ior","FB_ngon_encoding"],"accessors":[{"bufferView":0,"byteOffset":0,"componentType":5126,"count":4020,"type":"VEC3","max":[3.043361186981201,-1.3610254526138306,0.5054520964622498],"min":[-0.07317450642585754,-1.514094352722168,2.2250738585072014e-308]},{"bufferView":1,"byteOffset":0,"componentType":5126,"count":4020,"type":"VEC2","max":[0.9885411262512207,0.5305957794189453],"min":[2.2250738585072014e-308,2.2250738585072014e-308]},{"bufferView":2,"byteOffset":0,"componentType":5125,"count":16938,"type":"SCALAR","max":[4019],"min":[0]},{"bufferView":3,"byteOffset":0,"componentType":5126,"count":1327,"type":"VEC3","max":[1.291282296180725,-1.3627607822418213,0.5012609958648682],"min":[-0.06224668025970459,-1.5166809558868408,2.2250738585072014e-308]},{"bufferView":4,"byteOffset":0,"componentType":5126,"count":1327,"type":"VEC2","max":[0.5148544311523438,0.5088291168212891],"min":[2.2250738585072014e-308,2.2250738585072014e-308]},{"bufferView":5,"byteOffset":0,"componentType":5125,"count":6744,"type":"SCALAR","max":[1326],"min":[0]}],"buffers":[{"byteLength":201668,"uri":"tile_0143.bin"}],"bufferViews":[{"buffer":0,"byteOffset":0,"byteLength":48240,"target":34962},{"buffer":0,"byteOffset":48240,"byteLength":32160,"target":34962},{"buffer":0,"byteOffset":80400,"byteLength":67752,"target":34963},{"buffer":0,"byteOffset":148152,"byteLength":15924,"target":34962},{"buffer":0,"byteOffset":164076,"byteLength":10616,"target":34962},{"buffer":0,"byteOffset":174692,"byteLength":26976,"target":34963}],"images":[{"uri":"../textures/tile_0143_material_0.jpg"},{"uri":"../textures/tile_0143_material_1.jpg"}],"materials":[{"name":"DefaultMaterial","pbrMetallicRoughness":{"baseColorFactor":[0.6000000238418579,0.6000000238418579,0.6000000238418579,1.0],"metallicFactor":0.0},"extensions":{"KHR_materials_specular":{"specularFactor":1.0,"specularColorFactor":[0.0,0.0,0.0]},"KHR_materials_ior":{"ior":1.0}}},{"name":"material_0_material","pbrMetallicRoughness":{"baseColorTexture":{"index":0},"metallicFactor":0.0},"extensions":{"KHR_materials_specular":{"specularFactor":1.0,"specularColorFactor":[0.0,0.0,0.0]},"KHR_materials_ior":{"ior":1.0}}},{"name":"material_1_material","pbrMetallicRoughness":{"baseColorTexture":{"index":1},"metallicFactor":0.0},"extensions":{"KHR_materials_specular":{"specularFactor":1.0,"specularColorFactor":[0.0,0.0,0.0]},"KHR_materials_ior":{"ior":1.0}}}],"meshes":[{"name":"defaultobject","primitives":[{"mode":4,"material":1,"indices":2,"attributes":{"POSITION":0,"TEXCOORD_0":1}},{"mode":4,"material":2,"indices":5,"attributes":{"POSITION":3,"TEXCOORD_0":4}}]}],"nodes":[{"name":"tile_0143.obj","children":[1]},{"name":"defaultobject","mesh":0}],"samplers":[{},{}],"scenes":[{"nodes":[0]}],"textures":[{"source":0,"sampler":0},{"source":1,"sampler":1}],"scene":0}
