{"asset":{"version":"2.0","generator":"Open Asset Import Library (assimp v6.0.0)"},"extensionsUsed":["KHR_materials_specular","KHR_materials_volume","KHR_materials_ior","FB_ngon_encoding"],"accessors":[{"bufferView":0,"byteOffset":0,"componentType":5126,"count":3969,"type":"VEC3","max":[0.39926937222480774,0.1650894433259964,2.112833023071289],"min":[2.2250738585072014e-308,2.2250738585072014e-308,2.2250738585072014e-308]},{"bufferView":1,"byteOffset":0,"componentType":5126,"count":3969,"type":"VEC2","max":[0.9941325187683105,0.5931968688964844],"min":[2.2250738585072014e-308,2.2250738585072014e-308]},{"bufferView":2,"byteOffset":0,"componentType":5125,"count":17187,"type":"SCALAR","max":[3968],"min":[0]},{"bufferView":3,"byteOffset":0,"componentType":5126,"count":315,"type":"VEC3","max":[0.2531210780143738,0.16533946990966797,2.111358165740967],"min":[2.2250738585072014e-308,2.2250738585072014e-308,2.2250738585072014e-308]},{"bufferView":4,"byteOffset":0,"componentType":5126,"count":315,"type":"VEC2","max":[0.9562721252441406,0.5956954956054688],"min":[2.2250738585072014e-308,2.2250738585072014e-308]},{"bufferView":5,"byteOffset":0,"componentType":5125,"count":1383,"type":"SCALAR","max":[314],"min":[0]}],"buffers":[{"byteLength":159960,"uri":"tile_0422.bin"}],"bufferViews":[{"buffer":0,"byteOffset":0,"byteLength":47628,"target":34962},{"buffer":0,"byteOffset":47628,"byteLength":31752,"target":34962},{"buffer":0,"byteOffset":79380,"byteLength":68748,"target":34963},{"buffer":0,"byteOffset":148128,"byteLength":3780,"target":34962},{"buffer":0,"byteOffset":151908,"byteLength":2520,"target":34962},{"buffer":0,"byteOffset":154428,"byteLength":5532,"target":34963}],"images":[{"uri":"../textures/tile_0422_material_0.jpg"},{"uri":"../textures/tile_0422_material_1.jpg"}],"materials":[{"name":"DefaultMaterial","pbrMetallicRoughness":{"baseColorFactor":[0.6000000238418579,0.6000000238418579,0.6000000238418579,1.0],"metallicFactor":0.0},"extensions":{"KHR_materials_specular":{"specularFactor":1.0,"specularColorFactor":[0.0,0.0,0.0]},"KHR_materials_ior":{"ior":1.0}}},{"name":"material_0_material","pbrMetallicRoughness":{"baseColorTexture":{"index":0},"metallicFactor":0.0},"extensions":{"KHR_materials_specular":{"specularFactor":1.0,"specularColorFactor":[0.0,0.0,0.0]},"KHR_materials_ior":{"ior":1.0}}},{"name":"material_1_material","pbrMetallicRoughness":{"baseColorTexture":{"index":1},"metallicFactor":0.0},"extensions":{"KHR_materials_specular":{"specularFactor":1.0,"specularColorFactor":[0.0,0.0,0.0]},"KHR_materials_ior":{"ior":1.0}}}],"meshes":[{"name":"defaultobject","primitives":[{"mode":4,"material":1,"indices":2,"attributes":{"POSITION":0,"TEXCOORD_0":1}},{"mode":4,"material":2,"indices":5,"attributes":{"POSITION":3,"TEXCOORD_0":4}}]}],"nodes":[{"name":"tile_0422.obj","children":[1]},{"name":"defaultobject","mesh":0}],"samplers":[{},{}],"scenes":[{"nodes":[0]}],"textures":[{"source":0,"sampler":0},{"source":1,"sampler":1}],"scene":0}
