{"asset":{"version":"2.0","generator":"Open Asset Import Library (assimp v6.0.0)"},"extensionsUsed":["KHR_materials_specular","KHR_materials_volume","KHR_materials_ior","FB_ngon_encoding"],"accessors":[{"bufferView":0,"byteOffset":0,"componentType":5126,"count":4674,"type":"VEC3","max":[1.945863127708435,-2.7634949684143066,1.3638032674789429],"min":[2.2250738585072014e-308,-3.036153554916382,2.2250738585072014e-308]},{"bufferView":1,"byteOffset":0,"componentType":5126,"count":4674,"type":"VEC2","max":[0.9884287118911743,0.6482334136962891],"min":[2.2250738585072014e-308,2.2250738585072014e-308]},{"bufferView":2,"byteOffset":0,"componentType":5125,"count":18813,"type":"SCALAR","max":[4673],"min":[0]},{"bufferView":3,"byteOffset":0,"componentType":5126,"count":351,"type":"VEC3","max":[1.3059678077697754,-2.8431429862976074,1.3527846336364746],"min":[2.2250738585072014e-308,-3.034719228744507,2.2250738585072014e-308]},{"bufferView":4,"byteOffset":0,"componentType":5126,"count":351,"type":"VEC2","max":[0.528019905090332,0.5136184692382812],"min":[2.2250738585072014e-308,2.2250738585072014e-308]},{"bufferView":5,"byteOffset":0,"componentType":5125,"count":1731,"type":"SCALAR","max":[350],"min":[0]}],"buffers":[{"byteLength":182676,"uri":"tile_0248.bin"}],"bufferViews":[{"buffer":0,"byteOffset":0,"byteLength":56088,"target":34962},{"buffer":0,"byteOffset":56088,"byteLength":37392,"target":34962},{"buffer":0,"byteOffset":93480,"byteLength":75252,"target":34963},{"buffer":0,"byteOffset":168732,"byteLength":4212,"target":34962},{"buffer":0,"byteOffset":172944,"byteLength":2808,"target":34962},{"buffer":0,"byteOffset":175752,"byteLength":6924,"target":34963}],"images":[{"uri":"../textures/tile_0248_material_0.jpg"},{"uri":"../textures/tile_0248_material_1.jpg"}],"materials":[{"name":"DefaultMaterial","pbrMetallicRoughness":{"baseColorFactor":[0.6000000238418579,0.6000000238418579,0.6000000238418579,1.0],"metallicFactor":0.0},"extensions":{"KHR_materials_specular":{"specularFactor":1.0,"specularColorFactor":[0.0,0.0,0.0]},"KHR_materials_ior":{"ior":1.0}}},{"name":"material_0_material","pbrMetallicRoughness":{"baseColorTexture":{"index":0},"metallicFactor":0.0},"extensions":{"KHR_materials_specular":{"specularFactor":1.0,"specularColorFactor":[0.0,0.0,0.0]},"KHR_materials_ior":{"ior":1.0}}},{"name":"material_1_material","pbrMetallicRoughness":{"baseColorTexture":{"index":1},"metallicFactor":0.0},"extensions":{"KHR_materials_specular":{"specularFactor":1.0,"specularColorFactor":[0.0,0.0,0.0]},"KHR_materials_ior":{"ior":1.0}}}],"meshes":[{"name":"defaultobject","primitives":[{"mode":4,"material":1,"indices":2,"attributes":{"POSITION":0,"TEXCOORD_0":1}},{"mode":4,"material":2,"indices":5,"attributes":{"POSITION":3,"TEXCOORD_0":4}}]}],"nodes":[{"name":"tile_0248.obj","children":[1]},{"name":"defaultobject","mesh":0}],"samplers":[{},{}],"scenes":[{"nodes":[0]}],"textures":[{"source":0,"sampler":0},{"source":1,"sampler":1}],"scene":0}
