{"asset":{"version":"2.0","generator":"Open Asset Import Library (assimp v6.0.0)"},"extensionsUsed":["KHR_materials_specular","KHR_materials_volume","KHR_materials_ior","FB_ngon_encoding"],"accessors":[{"bufferView":0,"byteOffset":0,"componentType":5126,"count":5267,"type":"VEC3","max":[3.8219733238220215,-0.9606135487556458,0.03631732240319252],"min":[2.2250738585072014e-308,-1.0635987520217896,-0.8662389516830444]},{"bufferView":1,"byteOffset":0,"componentType":5126,"count":5267,"type":"VEC2","max":[0.996066689491272,0.5702552795410156],"min":[2.2250738585072014e-308,2.2250738585072014e-308]},{"bufferView":2,"byteOffset":0,"componentType":5125,"count":19215,"type":"SCALAR","max":[5266],"min":[0]},{"bufferView":3,"byteOffset":0,"componentType":5126,"count":1124,"type":"VEC3","max":[3.8267173767089844,-0.9318298697471619,0.030113087967038155],"min":[2.2250738585072014e-308,-1.0695093870162964,-1.001760721206665]},{"bufferView":4,"byteOffset":0,"componentType":5126,"count":1124,"type":"VEC2","max":[0.6572885513305664,0.7956447601318359],"min":[2.2250738585072014e-308,2.2250738585072014e-308]},{"bufferView":5,"byteOffset":0,"componentType":5125,"count":5670,"type":"SCALAR","max":[1123],"min":[0]}],"buffers":[{"byteLength":227360,"uri":"tile_0237.bin"}],"bufferViews":[{"buffer":0,"byteOffset":0,"byteLength":63204,"target":34962},{"buffer":0,"byteOffset":63204,"byteLength":42136,"target":34962},{"buffer":0,"byteOffset":105340,"byteLength":76860,"target":34963},{"buffer":0,"byteOffset":182200,"byteLength":13488,"target":34962},{"buffer":0,"byteOffset":195688,"byteLength":8992,"target":34962},{"buffer":0,"byteOffset":204680,"byteLength":22680,"target":34963}],"images":[{"uri":"../textures/tile_0237_material_0.jpg"},{"uri":"../textures/tile_0237_material_1.jpg"}],"materials":[{"name":"DefaultMaterial","pbrMetallicRoughness":{"baseColorFactor":[0.6000000238418579,0.6000000238418579,0.6000000238418579,1.0],"metallicFactor":0.0},"extensions":{"KHR_materials_specular":{"specularFactor":1.0,"specularColorFactor":[0.0,0.0,0.0]},"KHR_materials_ior":{"ior":1.0}}},{"name":"material_0_material","pbrMetallicRoughness":{"baseColorTexture":{"index":0},"metallicFactor":0.0},"extensions":{"KHR_materials_specular":{"specularFactor":1.0,"specularColorFactor":[0.0,0.0,0.0]},"KHR_materials_ior":{"ior":1.0}}},{"name":"material_1_material","pbrMetallicRoughness":{"baseColorTexture":{"index":1},"metallicFactor":0.0},"extensions":{"KHR_materials_specular":{"specularFactor":1.0,"specularColorFactor":[0.0,0.0,0.0]},"KHR_materials_ior":{"ior":1.0}}}],"meshes":[{"name":"defaultobject","primitives":[{"mode":4,"material":1,"indices":2,"attributes":{"POSITION":0,"TEXCOORD_0":1}},{"mode":4,"material":2,"indices":5,"attributes":{"POSITION":3,"TEXCOORD_0":4}}]}],"nodes":[{"name":"tile_0237.obj","children":[1]},{"name":"defaultobject","mesh":0}],"samplers":[{},{}],"scenes":[{"nodes":[0]}],"textures":[{"source":0,"sampler":0},{"source":1,"sampler":1}],"scene":0}
