{"asset":{"version":"2.0","generator":"Open Asset Import Library (assimp v6.0.0)"},"extensionsUsed":["KHR_materials_specular","KHR_materials_volume","KHR_materials_ior","FB_ngon_encoding"],"accessors":[{"bufferView":0,"byteOffset":0,"componentType":5126,"count":3557,"type":"VEC3","max":[2.037018060684204,-2.646787166595459,1.4489057064056396],"min":[2.2250738585072014e-308,-2.7730865478515625,2.2250738585072014e-308]},{"bufferView":1,"byteOffset":0,"componentType":5126,"count":3557,"type":"VEC2","max":[0.9956943988800049,0.49988365173339844],"min":[2.2250738585072014e-308,2.2250738585072014e-308]},{"bufferView":2,"byteOffset":0,"componentType":5125,"count":14799,"type":"SCALAR","max":[3556],"min":[0]},{"bufferView":3,"byteOffset":0,"componentType":5126,"count":1771,"type":"VEC3","max":[1.552042841911316,-2.646787166595459,1.4321166276931763],"min":[2.2250738585072014e-308,-2.7744133472442627,2.2250738585072014e-308]},{"bufferView":4,"byteOffset":0,"componentType":5126,"count":1771,"type":"VEC2","max":[0.6848735809326172,0.5122814178466797],"min":[2.2250738585072014e-308,2.2250738585072014e-308]},{"bufferView":5,"byteOffset":0,"componentType":5125,"count":9252,"type":"SCALAR","max":[1770],"min":[0]}],"buffers":[{"byteLength":202764,"uri":"tile_0013.bin"}],"bufferViews":[{"buffer":0,"byteOffset":0,"byteLength":42684,"target":34962},{"buffer":0,"byteOffset":42684,"byteLength":28456,"target":34962},{"buffer":0,"byteOffset":71140,"byteLength":59196,"target":34963},{"buffer":0,"byteOffset":130336,"byteLength":21252,"target":34962},{"buffer":0,"byteOffset":151588,"byteLength":14168,"target":34962},{"buffer":0,"byteOffset":165756,"byteLength":37008,"target":34963}],"images":[{"uri":"../textures/tile_0013_material_0.jpg"},{"uri":"../textures/tile_0013_material_1.jpg"}],"materials":[{"name":"DefaultMaterial","pbrMetallicRoughness":{"baseColorFactor":[0.6000000238418579,0.6000000238418579,0.6000000238418579,1.0],"metallicFactor":0.0},"extensions":{"KHR_materials_specular":{"specularFactor":1.0,"specularColorFactor":[0.0,0.0,0.0]},"KHR_materials_ior":{"ior":1.0}}},{"name":"material_0_material","pbrMetallicRoughness":{"baseColorTexture":{"index":0},"metallicFactor":0.0},"extensions":{"KHR_materials_specular":{"specularFactor":1.0,"specularColorFactor":[0.0,0.0,0.0]},"KHR_materials_ior":{"ior":1.0}}},{"name":"material_1_material","pbrMetallicRoughness":{"baseColorTexture":{"index":1},"metallicFactor":0.0},"extensions":{"KHR_materials_specular":{"specularFactor":1.0,"specularColorFactor":[0.0,0.0,0.0]},"KHR_materials_ior":{"ior":1.0}}}],"meshes":[{"name":"defaultobject","primitives":[{"mode":4,"material":1,"indices":2,"attributes":{"POSITION":0,"TEXCOORD_0":1}},{"mode":4,"material":2,"indices":5,"attributes":{"POSITION":3,"TEXCOORD_0":4}}]}],"nodes":[{"name":"tile_0013.obj","children":[1]},{"name":"defaultobject","mesh":0}],"samplers":[{},{}],"scenes":[{"nodes":[0]}],"textures":[{"source":0,"sampler":0},{"source":1,"sampler":1}],"scene":0}
