{"asset":{"version":"2.0","generator":"Open Asset Import Library (assimp v6.0.0)"},"extensionsUsed":["KHR_materials_specular","KHR_materials_volume","KHR_materials_ior","FB_ngon_encoding"],"accessors":[{"bufferView":0,"byteOffset":0,"componentType":5126,"count":3489,"type":"VEC3","max":[3.2778120040893555,-0.300314337015152,0.2638551592826843],"min":[2.2250738585072014e-308,-0.45802295207977295,2.2250738585072014e-308]},{"bufferView":1,"byteOffset":0,"componentType":5126,"count":3489,"type":"VEC2","max":[0.9954390525817871,0.8749847412109375],"min":[2.2250738585072014e-308,2.2250738585072014e-308]},{"bufferView":2,"byteOffset":0,"componentType":5125,"count":10683,"type":"SCALAR","max":[3488],"min":[0]},{"bufferView":3,"byteOffset":0,"componentType":5126,"count":2733,"type":"VEC3","max":[0.7145808935165405,-0.3025304675102234,0.259328693151474],"min":[2.2250738585072014e-308,-0.440087229013443,2.2250738585072014e-308]},{"bufferView":4,"byteOffset":0,"componentType":5126,"count":2733,"type":"VEC2","max":[0.5325217247009277,0.7908477783203125],"min":[2.2250738585072014e-308,2.2250738585072014e-308]},{"bufferView":5,"byteOffset":0,"componentType":5125,"count":13251,"type":"SCALAR","max":[2732],"min":[0]}],"buffers":[{"byteLength":220176,"uri":"tile_0486.bin"}],"bufferViews":[{"buffer":0,"byteOffset":0,"byteLength":41868,"target":34962},{"buffer":0,"byteOffset":41868,"byteLength":27912,"target":34962},{"buffer":0,"byteOffset":69780,"byteLength":42732,"target":34963},{"buffer":0,"byteOffset":112512,"byteLength":32796,"target":34962},{"buffer":0,"byteOffset":145308,"byteLength":21864,"target":34962},{"buffer":0,"byteOffset":167172,"byteLength":53004,"target":34963}],"images":[{"uri":"../textures/tile_0486_material_0.jpg"},{"uri":"../textures/tile_0486_material_1.jpg"}],"materials":[{"name":"DefaultMaterial","pbrMetallicRoughness":{"baseColorFactor":[0.6000000238418579,0.6000000238418579,0.6000000238418579,1.0],"metallicFactor":0.0},"extensions":{"KHR_materials_specular":{"specularFactor":1.0,"specularColorFactor":[0.0,0.0,0.0]},"KHR_materials_ior":{"ior":1.0}}},{"name":"material_0_material","pbrMetallicRoughness":{"baseColorTexture":{"index":0},"metallicFactor":0.0},"extensions":{"KHR_materials_specular":{"specularFactor":1.0,"specularColorFactor":[0.0,0.0,0.0]},"KHR_materials_ior":{"ior":1.0}}},{"name":"material_1_material","pbrMetallicRoughness":{"baseColorTexture":{"index":1},"metallicFactor":0.0},"extensions":{"KHR_materials_specular":{"specularFactor":1.0,"specularColorFactor":[0.0,0.0,0.0]},"KHR_materials_ior":{"ior":1.0}}}],"meshes":[{"name":"defaultobject","primitives":[{"mode":4,"material":1,"indices":2,"attributes":{"POSITION":0,"TEXCOORD_0":1}},{"mode":4,"material":2,"indices":5,"attributes":{"POSITION":3,"TEXCOORD_0":4}}]}],"nodes":[{"name":"tile_0486.obj","children":[1]},{"name":"defaultobject","mesh":0}],"samplers":[{},{}],"scenes":[{"nodes":[0]}],"textures":[{"source":0,"sampler":0},{"source":1,"sampler":1}],"scene":0}
