{"asset":{"version":"2.0","generator":"Open Asset Import Library (assimp v6.0.0)"},"extensionsUsed":["KHR_materials_specular","KHR_materials_volume","KHR_materials_ior","FB_ngon_encoding"],"accessors":[{"bufferView":0,"byteOffset":0,"componentType":5126,"count":9107,"type":"VEC3","max":[3.0743448734283447,0.12550660967826843,0.8052903413772583],"min":[2.2250738585072014e-308,-0.13956326246261597,2.2250738585072014e-308]},{"bufferView":1,"byteOffset":0,"componentType":5126,"count":9107,"type":"VEC2","max":[0.994704008102417,0.6425409317016602],"min":[2.2250738585072014e-308,2.2250738585072014e-308]},{"bufferView":2,"byteOffset":0,"componentType":5125,"count":35703,"type":"SCALAR","max":[9106],"min":[0]},{"bufferView":3,"byteOffset":0,"componentType":5126,"count":4304,"type":"VEC3","max":[3.0859665870666504,0.12216286361217499,0.7949504852294922],"min":[2.2250738585072014e-308,-0.12885135412216187,2.2250738585072014e-308]},{"bufferView":4,"byteOffset":0,"componentType":5126,"count":4304,"type":"VEC2","max":[0.9672760963439941,0.8675403594970703],"min":[2.2250738585072014e-308,2.2250738585072014e-308]},{"bufferView":5,"byteOffset":0,"componentType":5125,"count":21330,"type":"SCALAR","max":[4303],"min":[0]}],"buffers":[{"byteLength":496352,"uri":"tile_0455.bin"}],"bufferViews":[{"buffer":0,"byteOffset":0,"byteLength":109284,"target":34962},{"buffer":0,"byteOffset":109284,"byteLength":72856,"target":34962},{"buffer":0,"byteOffset":182140,"byteLength":142812,"target":34963},{"buffer":0,"byteOffset":324952,"byteLength":51648,"target":34962},{"buffer":0,"byteOffset":376600,"byteLength":34432,"target":34962},{"buffer":0,"byteOffset":411032,"byteLength":85320,"target":34963}],"images":[{"uri":"../textures/tile_0455_material_0.jpg"},{"uri":"../textures/tile_0455_material_1.jpg"}],"materials":[{"name":"DefaultMaterial","pbrMetallicRoughness":{"baseColorFactor":[0.6000000238418579,0.6000000238418579,0.6000000238418579,1.0],"metallicFactor":0.0},"extensions":{"KHR_materials_specular":{"specularFactor":1.0,"specularColorFactor":[0.0,0.0,0.0]},"KHR_materials_ior":{"ior":1.0}}},{"name":"material_0_material","pbrMetallicRoughness":{"baseColorTexture":{"index":0},"metallicFactor":0.0},"extensions":{"KHR_materials_specular":{"specularFactor":1.0,"specularColorFactor":[0.0,0.0,0.0]},"KHR_materials_ior":{"ior":1.0}}},{"name":"material_1_material","pbrMetallicRoughness":{"baseColorTexture":{"index":1},"metallicFactor":0.0},"extensions":{"KHR_materials_specular":{"specularFactor":1.0,"specularColorFactor":[0.0,0.0,0.0]},"KHR_materials_ior":{"ior":1.0}}}],"meshes":[{"name":"defaultobject","primitives":[{"mode":4,"material":1,"indices":2,"attributes":{"POSITION":0,"TEXCOORD_0":1}},{"mode":4,"material":2,"indices":5,"attributes":{"POSITION":3,"TEXCOORD_0":4}}]}],"nodes":[{"name":"tile_0455.obj","children":[1]},{"name":"defaultobject","mesh":0}],"samplers":[{},{}],"scenes":[{"nodes":[0]}],"textures":[{"source":0,"sampler":0},{"source":1,"sampler":1}],"scene":0}
