{"asset":{"version":"2.0","generator":"Open Asset Import Library (assimp v6.0.0)"},"extensionsUsed":["KHR_materials_specular","KHR_materials_volume","KHR_materials_ior","FB_ngon_encoding"],"accessors":[{"bufferView":0,"byteOffset":0,"componentType":5126,"count":12497,"type":"VEC3","max":[3.828282117843628,-0.06371618807315826,-0.06013767048716545],"min":[2.2250738585072014e-308,-0.46837133169174194,-0.8592036962509155]},{"bufferView":1,"byteOffset":0,"componentType":5126,"count":12497,"type":"VEC2","max":[0.9952335357666016,0.6738214492797852],"min":[2.2250738585072014e-308,2.2250738585072014e-308]},{"bufferView":2,"byteOffset":0,"componentType":5125,"count":54216,"type":"SCALAR","max":[12496],"min":[0]},{"bufferView":3,"byteOffset":0,"componentType":5126,"count":1167,"type":"VEC3","max":[3.765645980834961,-0.15152770280838013,-0.26816555857658386],"min":[2.2250738585072014e-308,-0.4427151381969452,-0.5687053203582764]},{"bufferView":4,"byteOffset":0,"componentType":5126,"count":1167,"type":"VEC2","max":[0.5299301147460938,0.5198917388916016],"min":[2.2250738585072014e-308,2.2250738585072014e-308]},{"bufferView":5,"byteOffset":0,"componentType":5125,"count":6030,"type":"SCALAR","max":[1166],"min":[0]}],"buffers":[{"byteLength":514264,"uri":"tile_0631.bin"}],"bufferViews":[{"buffer":0,"byteOffset":0,"byteLength":149964,"target":34962},{"buffer":0,"byteOffset":149964,"byteLength":99976,"target":34962},{"buffer":0,"byteOffset":249940,"byteLength":216864,"target":34963},{"buffer":0,"byteOffset":466804,"byteLength":14004,"target":34962},{"buffer":0,"byteOffset":480808,"byteLength":9336,"target":34962},{"buffer":0,"byteOffset":490144,"byteLength":24120,"target":34963}],"images":[{"uri":"../textures/tile_0631_material_0.jpg"},{"uri":"../textures/tile_0631_material_1.jpg"}],"materials":[{"name":"DefaultMaterial","pbrMetallicRoughness":{"baseColorFactor":[0.6000000238418579,0.6000000238418579,0.6000000238418579,1.0],"metallicFactor":0.0},"extensions":{"KHR_materials_specular":{"specularFactor":1.0,"specularColorFactor":[0.0,0.0,0.0]},"KHR_materials_ior":{"ior":1.0}}},{"name":"material_0_material","pbrMetallicRoughness":{"baseColorTexture":{"index":0},"metallicFactor":0.0},"extensions":{"KHR_materials_specular":{"specularFactor":1.0,"specularColorFactor":[0.0,0.0,0.0]},"KHR_materials_ior":{"ior":1.0}}},{"name":"material_1_material","pbrMetallicRoughness":{"baseColorTexture":{"index":1},"metallicFactor":0.0},"extensions":{"KHR_materials_specular":{"specularFactor":1.0,"specularColorFactor":[0.0,0.0,0.0]},"KHR_materials_ior":{"ior":1.0}}}],"meshes":[{"name":"defaultobject","primitives":[{"mode":4,"material":1,"indices":2,"attributes":{"POSITION":0,"TEXCOORD_0":1}},{"mode":4,"material":2,"indices":5,"attributes":{"POSITION":3,"TEXCOORD_0":4}}]}],"nodes":[{"name":"tile_0631.obj","children":[1]},{"name":"defaultobject","mesh":0}],"samplers":[{},{}],"scenes":[{"nodes":[0]}],"textures":[{"source":0,"sampler":0},{"source":1,"sampler":1}],"scene":0}
