{"asset":{"version":"2.0","generator":"Open Asset Import Library (assimp v6.0.0)"},"extensionsUsed":["KHR_materials_specular","KHR_materials_volume","KHR_materials_ior","FB_ngon_encoding"],"accessors":[{"bufferView":0,"byteOffset":0,"componentType":5126,"count":2149,"type":"VEC3","max":[1.2564212083816528,0.5739616751670837,1.8618229627609253],"min":[2.2250738585072014e-308,2.2250738585072014e-308,2.2250738585072014e-308]},{"bufferView":1,"byteOffset":0,"componentType":5126,"count":2149,"type":"VEC2","max":[0.9910421371459961,0.6071510314941406],"min":[2.2250738585072014e-308,2.2250738585072014e-308]},{"bufferView":2,"byteOffset":0,"componentType":5125,"count":7644,"type":"SCALAR","max":[2148],"min":[0]},{"bufferView":3,"byteOffset":0,"componentType":5126,"count":2373,"type":"VEC3","max":[1.1746318340301514,0.5690277814865112,1.881440281867981],"min":[2.2250738585072014e-308,2.2250738585072014e-308,2.2250738585072014e-308]},{"bufferView":4,"byteOffset":0,"componentType":5126,"count":2373,"type":"VEC2","max":[0.5133829116821289,0.9153976440429688],"min":[2.2250738585072014e-308,2.2250738585072014e-308]},{"bufferView":5,"byteOffset":0,"componentType":5125,"count":11736,"type":"SCALAR","max":[2372],"min":[0]}],"buffers":[{"byteLength":167960,"uri":"tile_0435.bin"}],"bufferViews":[{"buffer":0,"byteOffset":0,"byteLength":25788,"target":34962},{"buffer":0,"byteOffset":25788,"byteLength":17192,"target":34962},{"buffer":0,"byteOffset":42980,"byteLength":30576,"target":34963},{"buffer":0,"byteOffset":73556,"byteLength":28476,"target":34962},{"buffer":0,"byteOffset":102032,"byteLength":18984,"target":34962},{"buffer":0,"byteOffset":121016,"byteLength":46944,"target":34963}],"images":[{"uri":"../textures/tile_0435_material_0.jpg"},{"uri":"../textures/tile_0435_material_1.jpg"}],"materials":[{"name":"DefaultMaterial","pbrMetallicRoughness":{"baseColorFactor":[0.6000000238418579,0.6000000238418579,0.6000000238418579,1.0],"metallicFactor":0.0},"extensions":{"KHR_materials_specular":{"specularFactor":1.0,"specularColorFactor":[0.0,0.0,0.0]},"KHR_materials_ior":{"ior":1.0}}},{"name":"material_0_material","pbrMetallicRoughness":{"baseColorTexture":{"index":0},"metallicFactor":0.0},"extensions":{"KHR_materials_specular":{"specularFactor":1.0,"specularColorFactor":[0.0,0.0,0.0]},"KHR_materials_ior":{"ior":1.0}}},{"name":"material_1_material","pbrMetallicRoughness":{"baseColorTexture":{"index":1},"metallicFactor":0.0},"extensions":{"KHR_materials_specular":{"specularFactor":1.0,"specularColorFactor":[0.0,0.0,0.0]},"KHR_materials_ior":{"ior":1.0}}}],"meshes":[{"name":"defaultobject","primitives":[{"mode":4,"material":1,"indices":2,"attributes":{"POSITION":0,"TEXCOORD_0":1}},{"mode":4,"material":2,"indices":5,"attributes":{"POSITION":3,"TEXCOORD_0":4}}]}],"nodes":[{"name":"tile_0435.obj","children":[1]},{"name":"defaultobject","mesh":0}],"samplers":[{},{}],"scenes":[{"nodes":[0]}],"textures":[{"source":0,"sampler":0},{"source":1,"sampler":1}],"scene":0}
