{"asset":{"version":"2.0","generator":"Open Asset Import Library (assimp v6.0.0)"},"extensionsUsed":["KHR_materials_specular","KHR_materials_volume","KHR_materials_ior","FB_ngon_encoding"],"accessors":[{"bufferView":0,"byteOffset":0,"componentType":5126,"count":1266,"type":"VEC3","max":[2.132176637649536,-0.42585137486457825,1.6057711839675903],"min":[-0.19567632675170898,-0.5457209944725037,2.2250738585072014e-308]},{"bufferView":1,"byteOffset":0,"componentType":5126,"count":1266,"type":"VEC2","max":[0.9852943420410156,0.6462554931640625],"min":[2.2250738585072014e-308,2.2250738585072014e-308]},{"bufferView":2,"byteOffset":0,"componentType":5125,"count":4695,"type":"SCALAR","max":[1265],"min":[0]},{"bufferView":3,"byteOffset":0,"componentType":5126,"count":3710,"type":"VEC3","max":[0.16441823542118073,-0.43434175848960876,1.6058084964752197],"min":[-0.19792865216732025,-0.5333631634712219,2.2250738585072014e-308]},{"bufferView":4,"byteOffset":0,"componentType":5126,"count":3710,"type":"VEC2","max":[0.8091449737548828,0.7276668548583984],"min":[2.2250738585072014e-308,2.2250738585072014e-308]},{"bufferView":5,"byteOffset":0,"componentType":5125,"count":19902,"type":"SCALAR","max":[3709],"min":[0]}],"buffers":[{"byteLength":197908,"uri":"tile_0595.bin"}],"bufferViews":[{"buffer":0,"byteOffset":0,"byteLength":15192,"target":34962},{"buffer":0,"byteOffset":15192,"byteLength":10128,"target":34962},{"buffer":0,"byteOffset":25320,"byteLength":18780,"target":34963},{"buffer":0,"byteOffset":44100,"byteLength":44520,"target":34962},{"buffer":0,"byteOffset":88620,"byteLength":29680,"target":34962},{"buffer":0,"byteOffset":118300,"byteLength":79608,"target":34963}],"images":[{"uri":"../textures/tile_0595_material_0.jpg"},{"uri":"../textures/tile_0595_material_1.jpg"}],"materials":[{"name":"DefaultMaterial","pbrMetallicRoughness":{"baseColorFactor":[0.6000000238418579,0.6000000238418579,0.6000000238418579,1.0],"metallicFactor":0.0},"extensions":{"KHR_materials_specular":{"specularFactor":1.0,"specularColorFactor":[0.0,0.0,0.0]},"KHR_materials_ior":{"ior":1.0}}},{"name":"material_0_material","pbrMetallicRoughness":{"baseColorTexture":{"index":0},"metallicFactor":0.0},"extensions":{"KHR_materials_specular":{"specularFactor":1.0,"specularColorFactor":[0.0,0.0,0.0]},"KHR_materials_ior":{"ior":1.0}}},{"name":"material_1_material","pbrMetallicRoughness":{"baseColorTexture":{"index":1},"metallicFactor":0.0},"extensions":{"KHR_materials_specular":{"specularFactor":1.0,"specularColorFactor":[0.0,0.0,0.0]},"KHR_materials_ior":{"ior":1.0}}}],"meshes":[{"name":"defaultobject","primitives":[{"mode":4,"material":1,"indices":2,"attributes":{"POSITION":0,"TEXCOORD_0":1}},{"mode":4,"material":2,"indices":5,"attributes":{"POSITION":3,"TEXCOORD_0":4}}]}],"nodes":[{"name":"tile_0595.obj","children":[1]},{"name":"defaultobject","mesh":0}],"samplers":[{},{}],"scenes":[{"nodes":[0]}],"textures":[{"source":0,"sampler":0},{"source":1,"sampler":1}],"scene":0}
