{"asset":{"version":"2.0","generator":"Open Asset Import Library (assimp v6.0.0)"},"extensionsUsed":["KHR_materials_specular","KHR_materials_volume","KHR_materials_ior","FB_ngon_encoding"],"accessors":[{"bufferView":0,"byteOffset":0,"componentType":5126,"count":5820,"type":"VEC3","max":[2.1589181423187256,-0.7690449357032776,1.8636521100997925],"min":[-0.33352190256118774,-0.9924742579460144,2.2250738585072014e-308]},{"bufferView":1,"byteOffset":0,"componentType":5126,"count":5820,"type":"VEC2","max":[0.9950752258300781,0.838409423828125],"min":[2.2250738585072014e-308,2.2250738585072014e-308]},{"bufferView":2,"byteOffset":0,"componentType":5125,"count":24501,"type":"SCALAR","max":[5819],"min":[0]},{"bufferView":3,"byteOffset":0,"componentType":5126,"count":127,"type":"VEC3","max":[0.23197416961193085,-0.7714430093765259,1.8357805013656616],"min":[-0.3291071057319641,-0.9891586899757385,2.2250738585072014e-308]},{"bufferView":4,"byteOffset":0,"componentType":5126,"count":127,"type":"VEC2","max":[0.8280763626098633,0.8037986755371094],"min":[2.2250738585072014e-308,2.2250738585072014e-308]},{"bufferView":5,"byteOffset":0,"componentType":5125,"count":501,"type":"SCALAR","max":[126],"min":[0]}],"buffers":[{"byteLength":218948,"uri":"tile_0081.bin"}],"bufferViews":[{"buffer":0,"byteOffset":0,"byteLength":69840,"target":34962},{"buffer":0,"byteOffset":69840,"byteLength":46560,"target":34962},{"buffer":0,"byteOffset":116400,"byteLength":98004,"target":34963},{"buffer":0,"byteOffset":214404,"byteLength":1524,"target":34962},{"buffer":0,"byteOffset":215928,"byteLength":1016,"target":34962},{"buffer":0,"byteOffset":216944,"byteLength":2004,"target":34963}],"images":[{"uri":"../textures/tile_0081_material_0.jpg"},{"uri":"../textures/tile_0081_material_1.jpg"}],"materials":[{"name":"DefaultMaterial","pbrMetallicRoughness":{"baseColorFactor":[0.6000000238418579,0.6000000238418579,0.6000000238418579,1.0],"metallicFactor":0.0},"extensions":{"KHR_materials_specular":{"specularFactor":1.0,"specularColorFactor":[0.0,0.0,0.0]},"KHR_materials_ior":{"ior":1.0}}},{"name":"material_0_material","pbrMetallicRoughness":{"baseColorTexture":{"index":0},"metallicFactor":0.0},"extensions":{"KHR_materials_specular":{"specularFactor":1.0,"specularColorFactor":[0.0,0.0,0.0]},"KHR_materials_ior":{"ior":1.0}}},{"name":"material_1_material","pbrMetallicRoughness":{"baseColorTexture":{"index":1},"metallicFactor":0.0},"extensions":{"KHR_materials_specular":{"specularFactor":1.0,"specularColorFactor":[0.0,0.0,0.0]},"KHR_materials_ior":{"ior":1.0}}}],"meshes":[{"name":"defaultobject","primitives":[{"mode":4,"material":1,"indices":2,"attributes":{"POSITION":0,"TEXCOORD_0":1}},{"mode":4,"material":2,"indices":5,"attributes":{"POSITION":3,"TEXCOORD_0":4}}]}],"nodes":[{"name":"tile_0081.obj","children":[1]},{"name":"defaultobject","mesh":0}],"samplers":[{},{}],"scenes":[{"nodes":[0]}],"textures":[{"source":0,"sampler":0},{"source":1,"sampler":1}],"scene":0}
