{"asset":{"version":"2.0","generator":"Open Asset Import Library (assimp v6.0.0)"},"extensionsUsed":["KHR_materials_specular","KHR_materials_volume","KHR_materials_ior","FB_ngon_encoding"],"accessors":[{"bufferView":0,"byteOffset":0,"componentType":5126,"count":4048,"type":"VEC3","max":[0.6302182674407959,-1.7328306436538696,2.147562026977539],"min":[-0.23136171698570251,-1.9826503992080688,2.2250738585072014e-308]},{"bufferView":1,"byteOffset":0,"componentType":5126,"count":4048,"type":"VEC2","max":[0.9931230545043945,0.557830810546875],"min":[2.2250738585072014e-308,2.2250738585072014e-308]},{"bufferView":2,"byteOffset":0,"componentType":5125,"count":18156,"type":"SCALAR","max":[4047],"min":[0]},{"bufferView":3,"byteOffset":0,"componentType":5126,"count":817,"type":"VEC3","max":[0.6179476976394653,-1.7351369857788086,2.1471757888793945],"min":[-0.227230042219162,-1.9314779043197632,2.2250738585072014e-308]},{"bufferView":4,"byteOffset":0,"componentType":5126,"count":817,"type":"VEC2","max":[0.7775249481201172,0.6224479675292969],"min":[2.2250738585072014e-308,2.2250738585072014e-308]},{"bufferView":5,"byteOffset":0,"componentType":5125,"count":4038,"type":"SCALAR","max":[816],"min":[0]}],"buffers":[{"byteLength":186076,"uri":"tile_0040.bin"}],"bufferViews":[{"buffer":0,"byteOffset":0,"byteLength":48576,"target":34962},{"buffer":0,"byteOffset":48576,"byteLength":32384,"target":34962},{"buffer":0,"byteOffset":80960,"byteLength":72624,"target":34963},{"buffer":0,"byteOffset":153584,"byteLength":9804,"target":34962},{"buffer":0,"byteOffset":163388,"byteLength":6536,"target":34962},{"buffer":0,"byteOffset":169924,"byteLength":16152,"target":34963}],"images":[{"uri":"../textures/tile_0040_material_0.jpg"},{"uri":"../textures/tile_0040_material_1.jpg"}],"materials":[{"name":"DefaultMaterial","pbrMetallicRoughness":{"baseColorFactor":[0.6000000238418579,0.6000000238418579,0.6000000238418579,1.0],"metallicFactor":0.0},"extensions":{"KHR_materials_specular":{"specularFactor":1.0,"specularColorFactor":[0.0,0.0,0.0]},"KHR_materials_ior":{"ior":1.0}}},{"name":"material_0_material","pbrMetallicRoughness":{"baseColorTexture":{"index":0},"metallicFactor":0.0},"extensions":{"KHR_materials_specular":{"specularFactor":1.0,"specularColorFactor":[0.0,0.0,0.0]},"KHR_materials_ior":{"ior":1.0}}},{"name":"material_1_material","pbrMetallicRoughness":{"baseColorTexture":{"index":1},"metallicFactor":0.0},"extensions":{"KHR_materials_specular":{"specularFactor":1.0,"specularColorFactor":[0.0,0.0,0.0]},"KHR_materials_ior":{"ior":1.0}}}],"meshes":[{"name":"defaultobject","primitives":[{"mode":4,"material":1,"indices":2,"attributes":{"POSITION":0,"TEXCOORD_0":1}},{"mode":4,"material":2,"indices":5,"attributes":{"POSITION":3,"TEXCOORD_0":4}}]}],"nodes":[{"name":"tile_0040.obj","children":[1]},{"name":"defaultobject","mesh":0}],"samplers":[{},{}],"scenes":[{"nodes":[0]}],"textures":[{"source":0,"sampler":0},{"source":1,"sampler":1}],"scene":0}
