{"asset":{"version":"2.0","generator":"Open Asset Import Library (assimp v6.0.0)"},"extensionsUsed":["KHR_materials_specular","KHR_materials_volume","KHR_materials_ior","FB_ngon_encoding"],"accessors":[{"bufferView":0,"byteOffset":0,"componentType":5126,"count":6095,"type":"VEC3","max":[2.449310064315796,-1.6809666156768799,1.2060610055923462],"min":[-0.08624369651079178,-1.9000294208526611,2.2250738585072014e-308]},{"bufferView":1,"byteOffset":0,"componentType":5126,"count":6095,"type":"VEC2","max":[0.9939142465591431,0.7499008178710938],"min":[2.2250738585072014e-308,2.2250738585072014e-308]},{"bufferView":2,"byteOffset":0,"componentType":5125,"count":23493,"type":"SCALAR","max":[6094],"min":[0]},{"bufferView":3,"byteOffset":0,"componentType":5126,"count":86,"type":"VEC3","max":[1.964301586151123,-1.6889106035232544,1.1838228702545166],"min":[2.2250738585072014e-308,-1.7564233541488647,2.2250738585072014e-308]},{"bufferView":4,"byteOffset":0,"componentType":5126,"count":86,"type":"VEC2","max":[0.5168952941894531,0.721473753452301],"min":[2.2250738585072014e-308,2.2250738585072014e-308]},{"bufferView":5,"byteOffset":0,"componentType":5125,"count":273,"type":"SCALAR","max":[85],"min":[0]}],"buffers":[{"byteLength":218684,"uri":"tile_0151.bin"}],"bufferViews":[{"buffer":0,"byteOffset":0,"byteLength":73140,"target":34962},{"buffer":0,"byteOffset":73140,"byteLength":48760,"target":34962},{"buffer":0,"byteOffset":121900,"byteLength":93972,"target":34963},{"buffer":0,"byteOffset":215872,"byteLength":1032,"target":34962},{"buffer":0,"byteOffset":216904,"byteLength":688,"target":34962},{"buffer":0,"byteOffset":217592,"byteLength":1092,"target":34963}],"images":[{"uri":"../textures/tile_0151_material_0.jpg"},{"uri":"../textures/tile_0151_material_1.jpg"}],"materials":[{"name":"DefaultMaterial","pbrMetallicRoughness":{"baseColorFactor":[0.6000000238418579,0.6000000238418579,0.6000000238418579,1.0],"metallicFactor":0.0},"extensions":{"KHR_materials_specular":{"specularFactor":1.0,"specularColorFactor":[0.0,0.0,0.0]},"KHR_materials_ior":{"ior":1.0}}},{"name":"material_0_material","pbrMetallicRoughness":{"baseColorTexture":{"index":0},"metallicFactor":0.0},"extensions":{"KHR_materials_specular":{"specularFactor":1.0,"specularColorFactor":[0.0,0.0,0.0]},"KHR_materials_ior":{"ior":1.0}}},{"name":"material_1_material","pbrMetallicRoughness":{"baseColorTexture":{"index":1},"metallicFactor":0.0},"extensions":{"KHR_materials_specular":{"specularFactor":1.0,"specularColorFactor":[0.0,0.0,0.0]},"KHR_materials_ior":{"ior":1.0}}}],"meshes":[{"name":"defaultobject","primitives":[{"mode":4,"material":1,"indices":2,"attributes":{"POSITION":0,"TEXCOORD_0":1}},{"mode":4,"material":2,"indices":5,"attributes":{"POSITION":3,"TEXCOORD_0":4}}]}],"nodes":[{"name":"tile_0151.obj","children":[1]},{"name":"defaultobject","mesh":0}],"samplers":[{},{}],"scenes":[{"nodes":[0]}],"textures":[{"source":0,"sampler":0},{"source":1,"sampler":1}],"scene":0}
