{"asset":{"version":"2.0","generator":"Open Asset Import Library (assimp v6.0.0)"},"extensionsUsed":["KHR_materials_specular","KHR_materials_volume","KHR_materials_ior","FB_ngon_encoding"],"accessors":[{"bufferView":0,"byteOffset":0,"componentType":5126,"count":10855,"type":"VEC3","max":[2.717343807220459,1.6358885765075684,1.432464599609375],"min":[2.2250738585072014e-308,2.2250738585072014e-308,2.2250738585072014e-308]},{"bufferView":1,"byteOffset":0,"componentType":5126,"count":10855,"type":"VEC2","max":[0.9932520389556885,0.5351428985595703],"min":[2.2250738585072014e-308,2.2250738585072014e-308]},{"bufferView":2,"byteOffset":0,"componentType":5125,"count":50484,"type":"SCALAR","max":[10854],"min":[0]},{"bufferView":3,"byteOffset":0,"componentType":5126,"count":621,"type":"VEC3","max":[2.478882074356079,1.64934504032135,1.432464599609375],"min":[2.2250738585072014e-308,2.2250738585072014e-308,2.2250738585072014e-308]},{"bufferView":4,"byteOffset":0,"componentType":5126,"count":621,"type":"VEC2","max":[0.9671897888183594,0.5600357055664062],"min":[2.2250738585072014e-308,2.2250738585072014e-308]},{"bufferView":5,"byteOffset":0,"componentType":5125,"count":3000,"type":"SCALAR","max":[620],"min":[0]}],"buffers":[{"byteLength":443456,"uri":"tile_0504.bin"}],"bufferViews":[{"buffer":0,"byteOffset":0,"byteLength":130260,"target":34962},{"buffer":0,"byteOffset":130260,"byteLength":86840,"target":34962},{"buffer":0,"byteOffset":217100,"byteLength":201936,"target":34963},{"buffer":0,"byteOffset":419036,"byteLength":7452,"target":34962},{"buffer":0,"byteOffset":426488,"byteLength":4968,"target":34962},{"buffer":0,"byteOffset":431456,"byteLength":12000,"target":34963}],"images":[{"uri":"../textures/tile_0504_material_0.jpg"},{"uri":"../textures/tile_0504_material_1.jpg"}],"materials":[{"name":"DefaultMaterial","pbrMetallicRoughness":{"baseColorFactor":[0.6000000238418579,0.6000000238418579,0.6000000238418579,1.0],"metallicFactor":0.0},"extensions":{"KHR_materials_specular":{"specularFactor":1.0,"specularColorFactor":[0.0,0.0,0.0]},"KHR_materials_ior":{"ior":1.0}}},{"name":"material_0_material","pbrMetallicRoughness":{"baseColorTexture":{"index":0},"metallicFactor":0.0},"extensions":{"KHR_materials_specular":{"specularFactor":1.0,"specularColorFactor":[0.0,0.0,0.0]},"KHR_materials_ior":{"ior":1.0}}},{"name":"material_1_material","pbrMetallicRoughness":{"baseColorTexture":{"index":1},"metallicFactor":0.0},"extensions":{"KHR_materials_specular":{"specularFactor":1.0,"specularColorFactor":[0.0,0.0,0.0]},"KHR_materials_ior":{"ior":1.0}}}],"meshes":[{"name":"defaultobject","primitives":[{"mode":4,"material":1,"indices":2,"attributes":{"POSITION":0,"TEXCOORD_0":1}},{"mode":4,"material":2,"indices":5,"attributes":{"POSITION":3,"TEXCOORD_0":4}}]}],"nodes":[{"name":"tile_0504.obj","children":[1]},{"name":"defaultobject","mesh":0}],"samplers":[{},{}],"scenes":[{"nodes":[0]}],"textures":[{"source":0,"sampler":0},{"source":1,"sampler":1}],"scene":0}
