{"asset":{"version":"2.0","generator":"Open Asset Import Library (assimp v6.0.0)"},"extensionsUsed":["KHR_materials_specular","KHR_materials_volume","KHR_materials_ior","FB_ngon_encoding"],"accessors":[{"bufferView":0,"byteOffset":0,"componentType":5126,"count":4134,"type":"VEC3","max":[2.108670473098755,-0.20922088623046875,1.4657797813415527],"min":[-0.05286594107747078,-0.35371044278144836,2.2250738585072014e-308]},{"bufferView":1,"byteOffset":0,"componentType":5126,"count":4134,"type":"VEC2","max":[0.9878687858581543,0.5779323577880859],"min":[2.2250738585072014e-308,2.2250738585072014e-308]},{"bufferView":2,"byteOffset":0,"componentType":5125,"count":17262,"type":"SCALAR","max":[4133],"min":[0]},{"bufferView":3,"byteOffset":0,"componentType":5126,"count":2086,"type":"VEC3","max":[1.25885009765625,-0.22784587740898132,1.4757862091064453],"min":[-0.05665504187345505,-0.34387922286987305,2.2250738585072014e-308]},{"bufferView":4,"byteOffset":0,"componentType":5126,"count":2086,"type":"VEC2","max":[0.5101480484008789,0.7430152893066406],"min":[2.2250738585072014e-308,2.2250738585072014e-308]},{"bufferView":5,"byteOffset":0,"componentType":5125,"count":10704,"type":"SCALAR","max":[2085],"min":[0]}],"buffers":[{"byteLength":236264,"uri":"tile_0475.bin"}],"bufferViews":[{"buffer":0,"byteOffset":0,"byteLength":49608,"target":34962},{"buffer":0,"byteOffset":49608,"byteLength":33072,"target":34962},{"buffer":0,"byteOffset":82680,"byteLength":69048,"target":34963},{"buffer":0,"byteOffset":151728,"byteLength":25032,"target":34962},{"buffer":0,"byteOffset":176760,"byteLength":16688,"target":34962},{"buffer":0,"byteOffset":193448,"byteLength":42816,"target":34963}],"images":[{"uri":"../textures/tile_0475_material_0.jpg"},{"uri":"../textures/tile_0475_material_1.jpg"}],"materials":[{"name":"DefaultMaterial","pbrMetallicRoughness":{"baseColorFactor":[0.6000000238418579,0.6000000238418579,0.6000000238418579,1.0],"metallicFactor":0.0},"extensions":{"KHR_materials_specular":{"specularFactor":1.0,"specularColorFactor":[0.0,0.0,0.0]},"KHR_materials_ior":{"ior":1.0}}},{"name":"material_0_material","pbrMetallicRoughness":{"baseColorTexture":{"index":0},"metallicFactor":0.0},"extensions":{"KHR_materials_specular":{"specularFactor":1.0,"specularColorFactor":[0.0,0.0,0.0]},"KHR_materials_ior":{"ior":1.0}}},{"name":"material_1_material","pbrMetallicRoughness":{"baseColorTexture":{"index":1},"metallicFactor":0.0},"extensions":{"KHR_materials_specular":{"specularFactor":1.0,"specularColorFactor":[0.0,0.0,0.0]},"KHR_materials_ior":{"ior":1.0}}}],"meshes":[{"name":"defaultobject","primitives":[{"mode":4,"material":1,"indices":2,"attributes":{"POSITION":0,"TEXCOORD_0":1}},{"mode":4,"material":2,"indices":5,"attributes":{"POSITION":3,"TEXCOORD_0":4}}]}],"nodes":[{"name":"tile_0475.obj","children":[1]},{"name":"defaultobject","mesh":0}],"samplers":[{},{}],"scenes":[{"nodes":[0]}],"textures":[{"source":0,"sampler":0},{"source":1,"sampler":1}],"scene":0}
