{"asset":{"version":"2.0","generator":"Open Asset Import Library (assimp v6.0.0)"},"extensionsUsed":["KHR_materials_specular","KHR_materials_volume","KHR_materials_ior","FB_ngon_encoding"],"accessors":[{"bufferView":0,"byteOffset":0,"componentType":5126,"count":6161,"type":"VEC3","max":[3.5686943531036377,1.2097156047821045,0.13150598108768463],"min":[2.2250738585072014e-308,2.2250738585072014e-308,2.2250738585072014e-308]},{"bufferView":1,"byteOffset":0,"componentType":5126,"count":6161,"type":"VEC2","max":[0.9891061782836914,0.6522789001464844],"min":[2.2250738585072014e-308,2.2250738585072014e-308]},{"bufferView":2,"byteOffset":0,"componentType":5125,"count":25455,"type":"SCALAR","max":[6160],"min":[0]},{"bufferView":3,"byteOffset":0,"componentType":5126,"count":434,"type":"VEC3","max":[2.9923808574676514,1.2052552700042725,0.12938134372234344],"min":[2.2250738585072014e-308,2.2250738585072014e-308,2.2250738585072014e-308]},{"bufferView":4,"byteOffset":0,"componentType":5126,"count":434,"type":"VEC2","max":[0.6830921173095703,0.5979423522949219],"min":[2.2250738585072014e-308,2.2250738585072014e-308]},{"bufferView":5,"byteOffset":0,"componentType":5125,"count":2166,"type":"SCALAR","max":[433],"min":[0]}],"buffers":[{"byteLength":242384,"uri":"tile_0103.bin"}],"bufferViews":[{"buffer":0,"byteOffset":0,"byteLength":73932,"target":34962},{"buffer":0,"byteOffset":73932,"byteLength":49288,"target":34962},{"buffer":0,"byteOffset":123220,"byteLength":101820,"target":34963},{"buffer":0,"byteOffset":225040,"byteLength":5208,"target":34962},{"buffer":0,"byteOffset":230248,"byteLength":3472,"target":34962},{"buffer":0,"byteOffset":233720,"byteLength":8664,"target":34963}],"images":[{"uri":"../textures/tile_0103_material_0.jpg"},{"uri":"../textures/tile_0103_material_1.jpg"}],"materials":[{"name":"DefaultMaterial","pbrMetallicRoughness":{"baseColorFactor":[0.6000000238418579,0.6000000238418579,0.6000000238418579,1.0],"metallicFactor":0.0},"extensions":{"KHR_materials_specular":{"specularFactor":1.0,"specularColorFactor":[0.0,0.0,0.0]},"KHR_materials_ior":{"ior":1.0}}},{"name":"material_0_material","pbrMetallicRoughness":{"baseColorTexture":{"index":0},"metallicFactor":0.0},"extensions":{"KHR_materials_specular":{"specularFactor":1.0,"specularColorFactor":[0.0,0.0,0.0]},"KHR_materials_ior":{"ior":1.0}}},{"name":"material_1_material","pbrMetallicRoughness":{"baseColorTexture":{"index":1},"metallicFactor":0.0},"extensions":{"KHR_materials_specular":{"specularFactor":1.0,"specularColorFactor":[0.0,0.0,0.0]},"KHR_materials_ior":{"ior":1.0}}}],"meshes":[{"name":"defaultobject","primitives":[{"mode":4,"material":1,"indices":2,"attributes":{"POSITION":0,"TEXCOORD_0":1}},{"mode":4,"material":2,"indices":5,"attributes":{"POSITION":3,"TEXCOORD_0":4}}]}],"nodes":[{"name":"tile_0103.obj","children":[1]},{"name":"defaultobject","mesh":0}],"samplers":[{},{}],"scenes":[{"nodes":[0]}],"textures":[{"source":0,"sampler":0},{"source":1,"sampler":1}],"scene":0}
