{"asset":{"version":"2.0","generator":"Open Asset Import Library (assimp v6.0.0)"},"extensionsUsed":["KHR_materials_specular","KHR_materials_volume","KHR_materials_ior","FB_ngon_encoding"],"accessors":[{"bufferView":0,"byteOffset":0,"componentType":5126,"count":8778,"type":"VEC3","max":[2.8988919258117676,1.8234293460845947,1.0705584287643433],"min":[2.2250738585072014e-308,2.2250738585072014e-308,2.2250738585072014e-308]},{"bufferView":1,"byteOffset":0,"componentType":5126,"count":8778,"type":"VEC2","max":[0.9950075149536133,0.8272590637207031],"min":[2.2250738585072014e-308,2.2250738585072014e-308]},{"bufferView":2,"byteOffset":0,"componentType":5125,"count":38871,"type":"SCALAR","max":[8777],"min":[0]},{"bufferView":3,"byteOffset":0,"componentType":5126,"count":940,"type":"VEC3","max":[1.5346273183822632,1.799781322479248,1.0687403678894043],"min":[2.2250738585072014e-308,2.2250738585072014e-308,2.2250738585072014e-308]},{"bufferView":4,"byteOffset":0,"componentType":5126,"count":940,"type":"VEC2","max":[0.7024421691894531,0.8191719055175781],"min":[2.2250738585072014e-308,2.2250738585072014e-308]},{"bufferView":5,"byteOffset":0,"componentType":5125,"count":4770,"type":"SCALAR","max":[939],"min":[0]}],"buffers":[{"byteLength":368924,"uri":"tile_0126.bin"}],"bufferViews":[{"buffer":0,"byteOffset":0,"byteLength":105336,"target":34962},{"buffer":0,"byteOffset":105336,"byteLength":70224,"target":34962},{"buffer":0,"byteOffset":175560,"byteLength":155484,"target":34963},{"buffer":0,"byteOffset":331044,"byteLength":11280,"target":34962},{"buffer":0,"byteOffset":342324,"byteLength":7520,"target":34962},{"buffer":0,"byteOffset":349844,"byteLength":19080,"target":34963}],"images":[{"uri":"../textures/tile_0126_material_0.jpg"},{"uri":"../textures/tile_0126_material_1.jpg"}],"materials":[{"name":"DefaultMaterial","pbrMetallicRoughness":{"baseColorFactor":[0.6000000238418579,0.6000000238418579,0.6000000238418579,1.0],"metallicFactor":0.0},"extensions":{"KHR_materials_specular":{"specularFactor":1.0,"specularColorFactor":[0.0,0.0,0.0]},"KHR_materials_ior":{"ior":1.0}}},{"name":"material_0_material","pbrMetallicRoughness":{"baseColorTexture":{"index":0},"metallicFactor":0.0},"extensions":{"KHR_materials_specular":{"specularFactor":1.0,"specularColorFactor":[0.0,0.0,0.0]},"KHR_materials_ior":{"ior":1.0}}},{"name":"material_1_material","pbrMetallicRoughness":{"baseColorTexture":{"index":1},"metallicFactor":0.0},"extensions":{"KHR_materials_specular":{"specularFactor":1.0,"specularColorFactor":[0.0,0.0,0.0]},"KHR_materials_ior":{"ior":1.0}}}],"meshes":[{"name":"defaultobject","primitives":[{"mode":4,"material":1,"indices":2,"attributes":{"POSITION":0,"TEXCOORD_0":1}},{"mode":4,"material":2,"indices":5,"attributes":{"POSITION":3,"TEXCOORD_0":4}}]}],"nodes":[{"name":"tile_0126.obj","children":[1]},{"name":"defaultobject","mesh":0}],"samplers":[{},{}],"scenes":[{"nodes":[0]}],"textures":[{"source":0,"sampler":0},{"source":1,"sampler":1}],"scene":0}
