{"asset":{"version":"2.0","generator":"Open Asset Import Library (assimp v6.0.0)"},"extensionsUsed":["KHR_materials_specular","KHR_materials_volume","KHR_materials_ior","FB_ngon_encoding"],"accessors":[{"bufferView":0,"byteOffset":0,"componentType":5126,"count":4205,"type":"VEC3","max":[0.39263179898262024,-1.7445106506347656,4.7229719161987305],"min":[-0.4890110492706299,-2.0170845985412598,2.2250738585072014e-308]},{"bufferView":1,"byteOffset":0,"componentType":5126,"count":4205,"type":"VEC2","max":[0.993441104888916,0.7966480255126953],"min":[2.2250738585072014e-308,2.2250738585072014e-308]},{"bufferView":2,"byteOffset":0,"componentType":5125,"count":18681,"type":"SCALAR","max":[4204],"min":[0]},{"bufferView":3,"byteOffset":0,"componentType":5126,"count":16,"type":"VEC3","max":[0.055667974054813385,-1.7809109687805176,4.1458234786987305],"min":[2.2250738585072014e-308,-1.8173208236694336,2.2250738585072014e-308]},{"bufferView":4,"byteOffset":0,"componentType":5126,"count":16,"type":"VEC2","max":[0.6308364272117615,0.6285171508789062],"min":[2.2250738585072014e-308,2.2250738585072014e-308]},{"bufferView":5,"byteOffset":0,"componentType":5125,"count":42,"type":"SCALAR","max":[15],"min":[0]}],"buffers":[{"byteLength":159312,"uri":"tile_0349.bin"}],"bufferViews":[{"buffer":0,"byteOffset":0,"byteLength":50460,"target":34962},{"buffer":0,"byteOffset":50460,"byteLength":33640,"target":34962},{"buffer":0,"byteOffset":84100,"byteLength":74724,"target":34963},{"buffer":0,"byteOffset":158824,"byteLength":192,"target":34962},{"buffer":0,"byteOffset":159016,"byteLength":128,"target":34962},{"buffer":0,"byteOffset":159144,"byteLength":168,"target":34963}],"images":[{"uri":"../textures/tile_0349_material_0.jpg"},{"uri":"../textures/tile_0349_material_1.jpg"}],"materials":[{"name":"DefaultMaterial","pbrMetallicRoughness":{"baseColorFactor":[0.6000000238418579,0.6000000238418579,0.6000000238418579,1.0],"metallicFactor":0.0},"extensions":{"KHR_materials_specular":{"specularFactor":1.0,"specularColorFactor":[0.0,0.0,0.0]},"KHR_materials_ior":{"ior":1.0}}},{"name":"material_0_material","pbrMetallicRoughness":{"baseColorTexture":{"index":0},"metallicFactor":0.0},"extensions":{"KHR_materials_specular":{"specularFactor":1.0,"specularColorFactor":[0.0,0.0,0.0]},"KHR_materials_ior":{"ior":1.0}}},{"name":"material_1_material","pbrMetallicRoughness":{"baseColorTexture":{"index":1},"metallicFactor":0.0},"extensions":{"KHR_materials_specular":{"specularFactor":1.0,"specularColorFactor":[0.0,0.0,0.0]},"KHR_materials_ior":{"ior":1.0}}}],"meshes":[{"name":"defaultobject","primitives":[{"mode":4,"material":1,"indices":2,"attributes":{"POSITION":0,"TEXCOORD_0":1}},{"mode":4,"material":2,"indices":5,"attributes":{"POSITION":3,"TEXCOORD_0":4}}]}],"nodes":[{"name":"tile_0349.obj","children":[1]},{"name":"defaultobject","mesh":0}],"samplers":[{},{}],"scenes":[{"nodes":[0]}],"textures":[{"source":0,"sampler":0},{"source":1,"sampler":1}],"scene":0}
