{"asset":{"version":"2.0","generator":"Open Asset Import Library (assimp v6.0.0)"},"extensionsUsed":["KHR_materials_specular","KHR_materials_volume","KHR_materials_ior","FB_ngon_encoding"],"accessors":[{"bufferView":0,"byteOffset":0,"componentType":5126,"count":4697,"type":"VEC3","max":[3.3502790927886963,1.5813955068588257,0.4753407835960388],"min":[2.2250738585072014e-308,2.2250738585072014e-308,2.2250738585072014e-308]},{"bufferView":1,"byteOffset":0,"componentType":5126,"count":4697,"type":"VEC2","max":[0.9948410987854004,0.5547714233398438],"min":[2.2250738585072014e-308,2.2250738585072014e-308]},{"bufferView":2,"byteOffset":0,"componentType":5125,"count":17499,"type":"SCALAR","max":[4696],"min":[0]},{"bufferView":3,"byteOffset":0,"componentType":5126,"count":1822,"type":"VEC3","max":[2.934734344482422,1.5803279876708984,0.4756022095680237],"min":[2.2250738585072014e-308,2.2250738585072014e-308,2.2250738585072014e-308]},{"bufferView":4,"byteOffset":0,"componentType":5126,"count":1822,"type":"VEC2","max":[0.7555446624755859,0.5580387115478516],"min":[2.2250738585072014e-308,2.2250738585072014e-308]},{"bufferView":5,"byteOffset":0,"componentType":5125,"count":8640,"type":"SCALAR","max":[1821],"min":[0]}],"buffers":[{"byteLength":234936,"uri":"tile_0096.bin"}],"bufferViews":[{"buffer":0,"byteOffset":0,"byteLength":56364,"target":34962},{"buffer":0,"byteOffset":56364,"byteLength":37576,"target":34962},{"buffer":0,"byteOffset":93940,"byteLength":69996,"target":34963},{"buffer":0,"byteOffset":163936,"byteLength":21864,"target":34962},{"buffer":0,"byteOffset":185800,"byteLength":14576,"target":34962},{"buffer":0,"byteOffset":200376,"byteLength":34560,"target":34963}],"images":[{"uri":"../textures/tile_0096_material_0.jpg"},{"uri":"../textures/tile_0096_material_1.jpg"}],"materials":[{"name":"DefaultMaterial","pbrMetallicRoughness":{"baseColorFactor":[0.6000000238418579,0.6000000238418579,0.6000000238418579,1.0],"metallicFactor":0.0},"extensions":{"KHR_materials_specular":{"specularFactor":1.0,"specularColorFactor":[0.0,0.0,0.0]},"KHR_materials_ior":{"ior":1.0}}},{"name":"material_0_material","pbrMetallicRoughness":{"baseColorTexture":{"index":0},"metallicFactor":0.0},"extensions":{"KHR_materials_specular":{"specularFactor":1.0,"specularColorFactor":[0.0,0.0,0.0]},"KHR_materials_ior":{"ior":1.0}}},{"name":"material_1_material","pbrMetallicRoughness":{"baseColorTexture":{"index":1},"metallicFactor":0.0},"extensions":{"KHR_materials_specular":{"specularFactor":1.0,"specularColorFactor":[0.0,0.0,0.0]},"KHR_materials_ior":{"ior":1.0}}}],"meshes":[{"name":"defaultobject","primitives":[{"mode":4,"material":1,"indices":2,"attributes":{"POSITION":0,"TEXCOORD_0":1}},{"mode":4,"material":2,"indices":5,"attributes":{"POSITION":3,"TEXCOORD_0":4}}]}],"nodes":[{"name":"tile_0096.obj","children":[1]},{"name":"defaultobject","mesh":0}],"samplers":[{},{}],"scenes":[{"nodes":[0]}],"textures":[{"source":0,"sampler":0},{"source":1,"sampler":1}],"scene":0}
