{"asset":{"version":"2.0","generator":"Open Asset Import Library (assimp v6.0.0)"},"extensionsUsed":["KHR_materials_specular","KHR_materials_volume","KHR_materials_ior","FB_ngon_encoding"],"accessors":[{"bufferView":0,"byteOffset":0,"componentType":5126,"count":7322,"type":"VEC3","max":[3.3748269081115723,-1.1725044250488281,0.06921248137950897],"min":[2.2250738585072014e-308,-1.3182414770126343,-0.05262933298945427]},{"bufferView":1,"byteOffset":0,"componentType":5126,"count":7322,"type":"VEC2","max":[0.9946408271789551,0.7109317779541016],"min":[2.2250738585072014e-308,2.2250738585072014e-308]},{"bufferView":2,"byteOffset":0,"componentType":5125,"count":28104,"type":"SCALAR","max":[7321],"min":[0]},{"bufferView":3,"byteOffset":0,"componentType":5126,"count":79,"type":"VEC3","max":[3.37899112701416,-1.2006157636642456,-0.04392949119210243],"min":[2.2250738585072014e-308,-1.2970969676971436,-0.0521220825612545]},{"bufferView":4,"byteOffset":0,"componentType":5126,"count":79,"type":"VEC2","max":[0.6443024277687073,0.5412979125976562],"min":[2.2250738585072014e-308,2.2250738585072014e-308]},{"bufferView":5,"byteOffset":0,"componentType":5125,"count":306,"type":"SCALAR","max":[78],"min":[0]}],"buffers":[{"byteLength":261660,"uri":"tile_0634.bin"}],"bufferViews":[{"buffer":0,"byteOffset":0,"byteLength":87864,"target":34962},{"buffer":0,"byteOffset":87864,"byteLength":58576,"target":34962},{"buffer":0,"byteOffset":146440,"byteLength":112416,"target":34963},{"buffer":0,"byteOffset":258856,"byteLength":948,"target":34962},{"buffer":0,"byteOffset":259804,"byteLength":632,"target":34962},{"buffer":0,"byteOffset":260436,"byteLength":1224,"target":34963}],"images":[{"uri":"../textures/tile_0634_material_0.jpg"},{"uri":"../textures/tile_0634_material_1.jpg"}],"materials":[{"name":"DefaultMaterial","pbrMetallicRoughness":{"baseColorFactor":[0.6000000238418579,0.6000000238418579,0.6000000238418579,1.0],"metallicFactor":0.0},"extensions":{"KHR_materials_specular":{"specularFactor":1.0,"specularColorFactor":[0.0,0.0,0.0]},"KHR_materials_ior":{"ior":1.0}}},{"name":"material_0_material","pbrMetallicRoughness":{"baseColorTexture":{"index":0},"metallicFactor":0.0},"extensions":{"KHR_materials_specular":{"specularFactor":1.0,"specularColorFactor":[0.0,0.0,0.0]},"KHR_materials_ior":{"ior":1.0}}},{"name":"material_1_material","pbrMetallicRoughness":{"baseColorTexture":{"index":1},"metallicFactor":0.0},"extensions":{"KHR_materials_specular":{"specularFactor":1.0,"specularColorFactor":[0.0,0.0,0.0]},"KHR_materials_ior":{"ior":1.0}}}],"meshes":[{"name":"defaultobject","primitives":[{"mode":4,"material":1,"indices":2,"attributes":{"POSITION":0,"TEXCOORD_0":1}},{"mode":4,"material":2,"indices":5,"attributes":{"POSITION":3,"TEXCOORD_0":4}}]}],"nodes":[{"name":"tile_0634.obj","children":[1]},{"name":"defaultobject","mesh":0}],"samplers":[{},{}],"scenes":[{"nodes":[0]}],"textures":[{"source":0,"sampler":0},{"source":1,"sampler":1}],"scene":0}
