{"asset":{"version":"2.0","generator":"Open Asset Import Library (assimp v6.0.0)"},"extensionsUsed":["KHR_materials_specular","KHR_materials_volume","KHR_materials_ior","FB_ngon_encoding"],"accessors":[{"bufferView":0,"byteOffset":0,"componentType":5126,"count":10497,"type":"VEC3","max":[2.023007392883301,2.3839497566223145,2.3392553329467773],"min":[2.2250738585072014e-308,2.2250738585072014e-308,2.2250738585072014e-308]},{"bufferView":1,"byteOffset":0,"componentType":5126,"count":10497,"type":"VEC2","max":[0.9929852485656738,0.5799732208251953],"min":[2.2250738585072014e-308,2.2250738585072014e-308]},{"bufferView":2,"byteOffset":0,"componentType":5125,"count":46422,"type":"SCALAR","max":[10496],"min":[0]},{"bufferView":3,"byteOffset":0,"componentType":5126,"count":3362,"type":"VEC3","max":[1.9903556108474731,2.3836231231689453,2.3372225761413574],"min":[2.2250738585072014e-308,2.2250738585072014e-308,2.2250738585072014e-308]},{"bufferView":4,"byteOffset":0,"componentType":5126,"count":3362,"type":"VEC2","max":[0.6742448806762695,0.6738319396972656],"min":[2.2250738585072014e-308,2.2250738585072014e-308]},{"bufferView":5,"byteOffset":0,"componentType":5125,"count":17013,"type":"SCALAR","max":[3361],"min":[0]}],"buffers":[{"byteLength":530920,"uri":"tile_0569.bin"}],"bufferViews":[{"buffer":0,"byteOffset":0,"byteLength":125964,"target":34962},{"buffer":0,"byteOffset":125964,"byteLength":83976,"target":34962},{"buffer":0,"byteOffset":209940,"byteLength":185688,"target":34963},{"buffer":0,"byteOffset":395628,"byteLength":40344,"target":34962},{"buffer":0,"byteOffset":435972,"byteLength":26896,"target":34962},{"buffer":0,"byteOffset":462868,"byteLength":68052,"target":34963}],"images":[{"uri":"../textures/tile_0569_material_0.jpg"},{"uri":"../textures/tile_0569_material_1.jpg"}],"materials":[{"name":"DefaultMaterial","pbrMetallicRoughness":{"baseColorFactor":[0.6000000238418579,0.6000000238418579,0.6000000238418579,1.0],"metallicFactor":0.0},"extensions":{"KHR_materials_specular":{"specularFactor":1.0,"specularColorFactor":[0.0,0.0,0.0]},"KHR_materials_ior":{"ior":1.0}}},{"name":"material_0_material","pbrMetallicRoughness":{"baseColorTexture":{"index":0},"metallicFactor":0.0},"extensions":{"KHR_materials_specular":{"specularFactor":1.0,"specularColorFactor":[0.0,0.0,0.0]},"KHR_materials_ior":{"ior":1.0}}},{"name":"material_1_material","pbrMetallicRoughness":{"baseColorTexture":{"index":1},"metallicFactor":0.0},"extensions":{"KHR_materials_specular":{"specularFactor":1.0,"specularColorFactor":[0.0,0.0,0.0]},"KHR_materials_ior":{"ior":1.0}}}],"meshes":[{"name":"defaultobject","primitives":[{"mode":4,"material":1,"indices":2,"attributes":{"POSITION":0,"TEXCOORD_0":1}},{"mode":4,"material":2,"indices":5,"attributes":{"POSITION":3,"TEXCOORD_0":4}}]}],"nodes":[{"name":"tile_0569.obj","children":[1]},{"name":"defaultobject","mesh":0}],"samplers":[{},{}],"scenes":[{"nodes":[0]}],"textures":[{"source":0,"sampler":0},{"source":1,"sampler":1}],"scene":0}
