{"asset":{"version":"2.0","generator":"Open Asset Import Library (assimp v6.0.0)"},"extensionsUsed":["KHR_materials_specular","KHR_materials_volume","KHR_materials_ior","FB_ngon_encoding"],"accessors":[{"bufferView":0,"byteOffset":0,"componentType":5126,"count":3735,"type":"VEC3","max":[3.3366684913635254,1.230629563331604,0.49937373399734497],"min":[2.2250738585072014e-308,2.2250738585072014e-308,2.2250738585072014e-308]},{"bufferView":1,"byteOffset":0,"componentType":5126,"count":3735,"type":"VEC2","max":[0.9870696067810059,0.6632041931152344],"min":[2.2250738585072014e-308,2.2250738585072014e-308]},{"bufferView":2,"byteOffset":0,"componentType":5125,"count":16146,"type":"SCALAR","max":[3734],"min":[0]},{"bufferView":3,"byteOffset":0,"componentType":5126,"count":1504,"type":"VEC3","max":[3.264988899230957,1.2578266859054565,0.5119719505310059],"min":[2.2250738585072014e-308,2.2250738585072014e-308,2.2250738585072014e-308]},{"bufferView":4,"byteOffset":0,"componentType":5126,"count":1504,"type":"VEC2","max":[0.7148438692092896,0.6081371307373047],"min":[2.2250738585072014e-308,2.2250738585072014e-308]},{"bufferView":5,"byteOffset":0,"componentType":5125,"count":7878,"type":"SCALAR","max":[1503],"min":[0]}],"buffers":[{"byteLength":200876,"uri":"tile_0520.bin"}],"bufferViews":[{"buffer":0,"byteOffset":0,"byteLength":44820,"target":34962},{"buffer":0,"byteOffset":44820,"byteLength":29880,"target":34962},{"buffer":0,"byteOffset":74700,"byteLength":64584,"target":34963},{"buffer":0,"byteOffset":139284,"byteLength":18048,"target":34962},{"buffer":0,"byteOffset":157332,"byteLength":12032,"target":34962},{"buffer":0,"byteOffset":169364,"byteLength":31512,"target":34963}],"images":[{"uri":"../textures/tile_0520_material_0.jpg"},{"uri":"../textures/tile_0520_material_1.jpg"}],"materials":[{"name":"DefaultMaterial","pbrMetallicRoughness":{"baseColorFactor":[0.6000000238418579,0.6000000238418579,0.6000000238418579,1.0],"metallicFactor":0.0},"extensions":{"KHR_materials_specular":{"specularFactor":1.0,"specularColorFactor":[0.0,0.0,0.0]},"KHR_materials_ior":{"ior":1.0}}},{"name":"material_0_material","pbrMetallicRoughness":{"baseColorTexture":{"index":0},"metallicFactor":0.0},"extensions":{"KHR_materials_specular":{"specularFactor":1.0,"specularColorFactor":[0.0,0.0,0.0]},"KHR_materials_ior":{"ior":1.0}}},{"name":"material_1_material","pbrMetallicRoughness":{"baseColorTexture":{"index":1},"metallicFactor":0.0},"extensions":{"KHR_materials_specular":{"specularFactor":1.0,"specularColorFactor":[0.0,0.0,0.0]},"KHR_materials_ior":{"ior":1.0}}}],"meshes":[{"name":"defaultobject","primitives":[{"mode":4,"material":1,"indices":2,"attributes":{"POSITION":0,"TEXCOORD_0":1}},{"mode":4,"material":2,"indices":5,"attributes":{"POSITION":3,"TEXCOORD_0":4}}]}],"nodes":[{"name":"tile_0520.obj","children":[1]},{"name":"defaultobject","mesh":0}],"samplers":[{},{}],"scenes":[{"nodes":[0]}],"textures":[{"source":0,"sampler":0},{"source":1,"sampler":1}],"scene":0}
