{"asset":{"version":"2.0","generator":"Open Asset Import Library (assimp v6.0.0)"},"extensionsUsed":["KHR_materials_specular","KHR_materials_volume","KHR_materials_ior","FB_ngon_encoding"],"accessors":[{"bufferView":0,"byteOffset":0,"componentType":5126,"count":5288,"type":"VEC3","max":[3.2450783252716064,-0.6471105217933655,0.18796929717063904],"min":[2.2250738585072014e-308,-0.7204230427742004,2.2250738585072014e-308]},{"bufferView":1,"byteOffset":0,"componentType":5126,"count":5288,"type":"VEC2","max":[0.9960489273071289,0.5154571533203125],"min":[2.2250738585072014e-308,2.2250738585072014e-308]},{"bufferView":2,"byteOffset":0,"componentType":5125,"count":16581,"type":"SCALAR","max":[5287],"min":[0]},{"bufferView":3,"byteOffset":0,"componentType":5126,"count":1255,"type":"VEC3","max":[0.7900192737579346,-0.649673581123352,0.18314316868782043],"min":[2.2250738585072014e-308,-0.7188826203346252,2.2250738585072014e-308]},{"bufferView":4,"byteOffset":0,"componentType":5126,"count":1255,"type":"VEC2","max":[0.7776980400085449,0.751983642578125],"min":[2.2250738585072014e-308,2.2250738585072014e-308]},{"bufferView":5,"byteOffset":0,"componentType":5125,"count":6243,"type":"SCALAR","max":[1254],"min":[0]}],"buffers":[{"byteLength":222156,"uri":"tile_0488.bin"}],"bufferViews":[{"buffer":0,"byteOffset":0,"byteLength":63456,"target":34962},{"buffer":0,"byteOffset":63456,"byteLength":42304,"target":34962},{"buffer":0,"byteOffset":105760,"byteLength":66324,"target":34963},{"buffer":0,"byteOffset":172084,"byteLength":15060,"target":34962},{"buffer":0,"byteOffset":187144,"byteLength":10040,"target":34962},{"buffer":0,"byteOffset":197184,"byteLength":24972,"target":34963}],"images":[{"uri":"../textures/tile_0488_material_0.jpg"},{"uri":"../textures/tile_0488_material_1.jpg"}],"materials":[{"name":"DefaultMaterial","pbrMetallicRoughness":{"baseColorFactor":[0.6000000238418579,0.6000000238418579,0.6000000238418579,1.0],"metallicFactor":0.0},"extensions":{"KHR_materials_specular":{"specularFactor":1.0,"specularColorFactor":[0.0,0.0,0.0]},"KHR_materials_ior":{"ior":1.0}}},{"name":"material_0_material","pbrMetallicRoughness":{"baseColorTexture":{"index":0},"metallicFactor":0.0},"extensions":{"KHR_materials_specular":{"specularFactor":1.0,"specularColorFactor":[0.0,0.0,0.0]},"KHR_materials_ior":{"ior":1.0}}},{"name":"material_1_material","pbrMetallicRoughness":{"baseColorTexture":{"index":1},"metallicFactor":0.0},"extensions":{"KHR_materials_specular":{"specularFactor":1.0,"specularColorFactor":[0.0,0.0,0.0]},"KHR_materials_ior":{"ior":1.0}}}],"meshes":[{"name":"defaultobject","primitives":[{"mode":4,"material":1,"indices":2,"attributes":{"POSITION":0,"TEXCOORD_0":1}},{"mode":4,"material":2,"indices":5,"attributes":{"POSITION":3,"TEXCOORD_0":4}}]}],"nodes":[{"name":"tile_0488.obj","children":[1]},{"name":"defaultobject","mesh":0}],"samplers":[{},{}],"scenes":[{"nodes":[0]}],"textures":[{"source":0,"sampler":0},{"source":1,"sampler":1}],"scene":0}
