{"asset":{"version":"2.0","generator":"Open Asset Import Library (assimp v6.0.0)"},"extensionsUsed":["KHR_materials_specular","KHR_materials_volume","KHR_materials_ior","FB_ngon_encoding"],"accessors":[{"bufferView":0,"byteOffset":0,"componentType":5126,"count":4538,"type":"VEC3","max":[2.215740442276001,-1.6859835386276245,1.5153752565383911],"min":[-0.16905447840690613,-1.9935104846954346,2.2250738585072014e-308]},{"bufferView":1,"byteOffset":0,"componentType":5126,"count":4538,"type":"VEC2","max":[0.9916291236877441,0.6572837829589844],"min":[2.2250738585072014e-308,2.2250738585072014e-308]},{"bufferView":2,"byteOffset":0,"componentType":5125,"count":19437,"type":"SCALAR","max":[4537],"min":[0]},{"bufferView":3,"byteOffset":0,"componentType":5126,"count":402,"type":"VEC3","max":[2.16079044342041,-1.710253119468689,1.5253368616104126],"min":[-0.13550744950771332,-1.9862033128738403,2.2250738585072014e-308]},{"bufferView":4,"byteOffset":0,"componentType":5126,"count":402,"type":"VEC2","max":[0.7072086334228516,0.5655708312988281],"min":[2.2250738585072014e-308,2.2250738585072014e-308]},{"bufferView":5,"byteOffset":0,"componentType":5125,"count":1863,"type":"SCALAR","max":[401],"min":[0]}],"buffers":[{"byteLength":184000,"uri":"tile_0273.bin"}],"bufferViews":[{"buffer":0,"byteOffset":0,"byteLength":54456,"target":34962},{"buffer":0,"byteOffset":54456,"byteLength":36304,"target":34962},{"buffer":0,"byteOffset":90760,"byteLength":77748,"target":34963},{"buffer":0,"byteOffset":168508,"byteLength":4824,"target":34962},{"buffer":0,"byteOffset":173332,"byteLength":3216,"target":34962},{"buffer":0,"byteOffset":176548,"byteLength":7452,"target":34963}],"images":[{"uri":"../textures/tile_0273_material_0.jpg"},{"uri":"../textures/tile_0273_material_1.jpg"}],"materials":[{"name":"DefaultMaterial","pbrMetallicRoughness":{"baseColorFactor":[0.6000000238418579,0.6000000238418579,0.6000000238418579,1.0],"metallicFactor":0.0},"extensions":{"KHR_materials_specular":{"specularFactor":1.0,"specularColorFactor":[0.0,0.0,0.0]},"KHR_materials_ior":{"ior":1.0}}},{"name":"material_0_material","pbrMetallicRoughness":{"baseColorTexture":{"index":0},"metallicFactor":0.0},"extensions":{"KHR_materials_specular":{"specularFactor":1.0,"specularColorFactor":[0.0,0.0,0.0]},"KHR_materials_ior":{"ior":1.0}}},{"name":"material_1_material","pbrMetallicRoughness":{"baseColorTexture":{"index":1},"metallicFactor":0.0},"extensions":{"KHR_materials_specular":{"specularFactor":1.0,"specularColorFactor":[0.0,0.0,0.0]},"KHR_materials_ior":{"ior":1.0}}}],"meshes":[{"name":"defaultobject","primitives":[{"mode":4,"material":1,"indices":2,"attributes":{"POSITION":0,"TEXCOORD_0":1}},{"mode":4,"material":2,"indices":5,"attributes":{"POSITION":3,"TEXCOORD_0":4}}]}],"nodes":[{"name":"tile_0273.obj","children":[1]},{"name":"defaultobject","mesh":0}],"samplers":[{},{}],"scenes":[{"nodes":[0]}],"textures":[{"source":0,"sampler":0},{"source":1,"sampler":1}],"scene":0}
