{"asset":{"version":"2.0","generator":"Open Asset Import Library (assimp v6.0.0)"},"extensionsUsed":["KHR_materials_specular","KHR_materials_volume","KHR_materials_ior","FB_ngon_encoding"],"accessors":[{"bufferView":0,"byteOffset":0,"componentType":5126,"count":5126,"type":"VEC3","max":[1.629893183708191,0.03967873379588127,2.0492374897003174],"min":[-0.16199542582035065,-0.13876917958259583,2.2250738585072014e-308]},{"bufferView":1,"byteOffset":0,"componentType":5126,"count":5126,"type":"VEC2","max":[0.9930963516235352,0.5896072387695312],"min":[2.2250738585072014e-308,2.2250738585072014e-308]},{"bufferView":2,"byteOffset":0,"componentType":5125,"count":22224,"type":"SCALAR","max":[5125],"min":[0]},{"bufferView":3,"byteOffset":0,"componentType":5126,"count":439,"type":"VEC3","max":[0.6697527766227722,-0.08889485150575638,1.9935988187789917],"min":[-0.11305191367864609,-0.13054826855659485,2.2250738585072014e-308]},{"bufferView":4,"byteOffset":0,"componentType":5126,"count":439,"type":"VEC2","max":[0.5621547698974609,0.8026047348976135],"min":[2.2250738585072014e-308,2.2250738585072014e-308]},{"bufferView":5,"byteOffset":0,"componentType":5125,"count":2244,"type":"SCALAR","max":[438],"min":[0]}],"buffers":[{"byteLength":209172,"uri":"tile_0402.bin"}],"bufferViews":[{"buffer":0,"byteOffset":0,"byteLength":61512,"target":34962},{"buffer":0,"byteOffset":61512,"byteLength":41008,"target":34962},{"buffer":0,"byteOffset":102520,"byteLength":88896,"target":34963},{"buffer":0,"byteOffset":191416,"byteLength":5268,"target":34962},{"buffer":0,"byteOffset":196684,"byteLength":3512,"target":34962},{"buffer":0,"byteOffset":200196,"byteLength":8976,"target":34963}],"images":[{"uri":"../textures/tile_0402_material_0.jpg"},{"uri":"../textures/tile_0402_material_1.jpg"}],"materials":[{"name":"DefaultMaterial","pbrMetallicRoughness":{"baseColorFactor":[0.6000000238418579,0.6000000238418579,0.6000000238418579,1.0],"metallicFactor":0.0},"extensions":{"KHR_materials_specular":{"specularFactor":1.0,"specularColorFactor":[0.0,0.0,0.0]},"KHR_materials_ior":{"ior":1.0}}},{"name":"material_0_material","pbrMetallicRoughness":{"baseColorTexture":{"index":0},"metallicFactor":0.0},"extensions":{"KHR_materials_specular":{"specularFactor":1.0,"specularColorFactor":[0.0,0.0,0.0]},"KHR_materials_ior":{"ior":1.0}}},{"name":"material_1_material","pbrMetallicRoughness":{"baseColorTexture":{"index":1},"metallicFactor":0.0},"extensions":{"KHR_materials_specular":{"specularFactor":1.0,"specularColorFactor":[0.0,0.0,0.0]},"KHR_materials_ior":{"ior":1.0}}}],"meshes":[{"name":"defaultobject","primitives":[{"mode":4,"material":1,"indices":2,"attributes":{"POSITION":0,"TEXCOORD_0":1}},{"mode":4,"material":2,"indices":5,"attributes":{"POSITION":3,"TEXCOORD_0":4}}]}],"nodes":[{"name":"tile_0402.obj","children":[1]},{"name":"defaultobject","mesh":0}],"samplers":[{},{}],"scenes":[{"nodes":[0]}],"textures":[{"source":0,"sampler":0},{"source":1,"sampler":1}],"scene":0}
