{"asset":{"version":"2.0","generator":"Open Asset Import Library (assimp v6.0.0)"},"extensionsUsed":["KHR_materials_specular","KHR_materials_volume","KHR_materials_ior","FB_ngon_encoding"],"accessors":[{"bufferView":0,"byteOffset":0,"componentType":5126,"count":10649,"type":"VEC3","max":[1.4553472995758057,-0.05712181329727173,1.8077144622802734],"min":[-0.23602928221225739,-0.23851025104522705,2.2250738585072014e-308]},{"bufferView":1,"byteOffset":0,"componentType":5126,"count":10649,"type":"VEC2","max":[0.9955441951751709,0.5643911361694336],"min":[2.2250738585072014e-308,2.2250738585072014e-308]},{"bufferView":2,"byteOffset":0,"componentType":5125,"count":41445,"type":"SCALAR","max":[10648],"min":[0]},{"bufferView":3,"byteOffset":0,"componentType":5126,"count":987,"type":"VEC3","max":[1.2457295656204224,-0.09436504542827606,1.7782984972000122],"min":[-0.22858211398124695,-0.22269205749034882,2.2250738585072014e-308]},{"bufferView":4,"byteOffset":0,"componentType":5126,"count":987,"type":"VEC2","max":[0.6853632926940918,0.5452957153320312],"min":[2.2250738585072014e-308,2.2250738585072014e-308]},{"bufferView":5,"byteOffset":0,"componentType":5125,"count":4701,"type":"SCALAR","max":[986],"min":[0]}],"buffers":[{"byteLength":417304,"uri":"tile_0046.bin"}],"bufferViews":[{"buffer":0,"byteOffset":0,"byteLength":127788,"target":34962},{"buffer":0,"byteOffset":127788,"byteLength":85192,"target":34962},{"buffer":0,"byteOffset":212980,"byteLength":165780,"target":34963},{"buffer":0,"byteOffset":378760,"byteLength":11844,"target":34962},{"buffer":0,"byteOffset":390604,"byteLength":7896,"target":34962},{"buffer":0,"byteOffset":398500,"byteLength":18804,"target":34963}],"images":[{"uri":"../textures/tile_0046_material_0.jpg"},{"uri":"../textures/tile_0046_material_1.jpg"}],"materials":[{"name":"DefaultMaterial","pbrMetallicRoughness":{"baseColorFactor":[0.6000000238418579,0.6000000238418579,0.6000000238418579,1.0],"metallicFactor":0.0},"extensions":{"KHR_materials_specular":{"specularFactor":1.0,"specularColorFactor":[0.0,0.0,0.0]},"KHR_materials_ior":{"ior":1.0}}},{"name":"material_0_material","pbrMetallicRoughness":{"baseColorTexture":{"index":0},"metallicFactor":0.0},"extensions":{"KHR_materials_specular":{"specularFactor":1.0,"specularColorFactor":[0.0,0.0,0.0]},"KHR_materials_ior":{"ior":1.0}}},{"name":"material_1_material","pbrMetallicRoughness":{"baseColorTexture":{"index":1},"metallicFactor":0.0},"extensions":{"KHR_materials_specular":{"specularFactor":1.0,"specularColorFactor":[0.0,0.0,0.0]},"KHR_materials_ior":{"ior":1.0}}}],"meshes":[{"name":"defaultobject","primitives":[{"mode":4,"material":1,"indices":2,"attributes":{"POSITION":0,"TEXCOORD_0":1}},{"mode":4,"material":2,"indices":5,"attributes":{"POSITION":3,"TEXCOORD_0":4}}]}],"nodes":[{"name":"tile_0046.obj","children":[1]},{"name":"defaultobject","mesh":0}],"samplers":[{},{}],"scenes":[{"nodes":[0]}],"textures":[{"source":0,"sampler":0},{"source":1,"sampler":1}],"scene":0}
