{"asset":{"version":"2.0","generator":"Open Asset Import Library (assimp v6.0.0)"},"extensionsUsed":["KHR_materials_specular","KHR_materials_volume","KHR_materials_ior","FB_ngon_encoding"],"accessors":[{"bufferView":0,"byteOffset":0,"componentType":5126,"count":4603,"type":"VEC3","max":[1.7114243507385254,-0.02071884647011757,1.7196201086044312],"min":[-0.13709039986133575,-0.11797703057527542,2.2250738585072014e-308]},{"bufferView":1,"byteOffset":0,"componentType":5126,"count":4603,"type":"VEC2","max":[0.995415210723877,0.6668834686279297],"min":[2.2250738585072014e-308,2.2250738585072014e-308]},{"bufferView":2,"byteOffset":0,"componentType":5125,"count":19116,"type":"SCALAR","max":[4602],"min":[0]},{"bufferView":3,"byteOffset":0,"componentType":5126,"count":1450,"type":"VEC3","max":[1.2403579950332642,-0.02960367314517498,1.707938313484192],"min":[-0.10600065439939499,-0.09878178685903549,2.2250738585072014e-308]},{"bufferView":4,"byteOffset":0,"componentType":5126,"count":1450,"type":"VEC2","max":[0.6716604232788086,0.5080966949462891],"min":[2.2250738585072014e-308,2.2250738585072014e-308]},{"bufferView":5,"byteOffset":0,"componentType":5125,"count":6948,"type":"SCALAR","max":[1449],"min":[0]}],"buffers":[{"byteLength":225316,"uri":"tile_0398.bin"}],"bufferViews":[{"buffer":0,"byteOffset":0,"byteLength":55236,"target":34962},{"buffer":0,"byteOffset":55236,"byteLength":36824,"target":34962},{"buffer":0,"byteOffset":92060,"byteLength":76464,"target":34963},{"buffer":0,"byteOffset":168524,"byteLength":17400,"target":34962},{"buffer":0,"byteOffset":185924,"byteLength":11600,"target":34962},{"buffer":0,"byteOffset":197524,"byteLength":27792,"target":34963}],"images":[{"uri":"../textures/tile_0398_material_0.jpg"},{"uri":"../textures/tile_0398_material_1.jpg"}],"materials":[{"name":"DefaultMaterial","pbrMetallicRoughness":{"baseColorFactor":[0.6000000238418579,0.6000000238418579,0.6000000238418579,1.0],"metallicFactor":0.0},"extensions":{"KHR_materials_specular":{"specularFactor":1.0,"specularColorFactor":[0.0,0.0,0.0]},"KHR_materials_ior":{"ior":1.0}}},{"name":"material_0_material","pbrMetallicRoughness":{"baseColorTexture":{"index":0},"metallicFactor":0.0},"extensions":{"KHR_materials_specular":{"specularFactor":1.0,"specularColorFactor":[0.0,0.0,0.0]},"KHR_materials_ior":{"ior":1.0}}},{"name":"material_1_material","pbrMetallicRoughness":{"baseColorTexture":{"index":1},"metallicFactor":0.0},"extensions":{"KHR_materials_specular":{"specularFactor":1.0,"specularColorFactor":[0.0,0.0,0.0]},"KHR_materials_ior":{"ior":1.0}}}],"meshes":[{"name":"defaultobject","primitives":[{"mode":4,"material":1,"indices":2,"attributes":{"POSITION":0,"TEXCOORD_0":1}},{"mode":4,"material":2,"indices":5,"attributes":{"POSITION":3,"TEXCOORD_0":4}}]}],"nodes":[{"name":"tile_0398.obj","children":[1]},{"name":"defaultobject","mesh":0}],"samplers":[{},{}],"scenes":[{"nodes":[0]}],"textures":[{"source":0,"sampler":0},{"source":1,"sampler":1}],"scene":0}
