{"asset":{"version":"2.0","generator":"Open Asset Import Library (assimp v6.0.0)"},"extensionsUsed":["KHR_materials_specular","KHR_materials_volume","KHR_materials_ior","FB_ngon_encoding"],"accessors":[{"bufferView":0,"byteOffset":0,"componentType":5126,"count":8074,"type":"VEC3","max":[0.8845440149307251,-2.9855995178222656,2.225759267807007],"min":[2.2250738585072014e-308,-3.2077829837799072,2.2250738585072014e-308]},{"bufferView":1,"byteOffset":0,"componentType":5126,"count":8074,"type":"VEC2","max":[0.9910988807678223,0.7890033721923828],"min":[2.2250738585072014e-308,2.2250738585072014e-308]},{"bufferView":2,"byteOffset":0,"componentType":5125,"count":30480,"type":"SCALAR","max":[8073],"min":[0]},{"bufferView":3,"byteOffset":0,"componentType":5126,"count":368,"type":"VEC3","max":[0.9754633903503418,-2.9753856658935547,2.2200450897216797],"min":[2.2250738585072014e-308,-3.1004819869995117,2.2250738585072014e-308]},{"bufferView":4,"byteOffset":0,"componentType":5126,"count":368,"type":"VEC2","max":[0.6169242858886719,0.7301177978515625],"min":[2.2250738585072014e-308,2.2250738585072014e-308]},{"bufferView":5,"byteOffset":0,"componentType":5125,"count":1911,"type":"SCALAR","max":[367],"min":[0]}],"buffers":[{"byteLength":298404,"uri":"tile_0304.bin"}],"bufferViews":[{"buffer":0,"byteOffset":0,"byteLength":96888,"target":34962},{"buffer":0,"byteOffset":96888,"byteLength":64592,"target":34962},{"buffer":0,"byteOffset":161480,"byteLength":121920,"target":34963},{"buffer":0,"byteOffset":283400,"byteLength":4416,"target":34962},{"buffer":0,"byteOffset":287816,"byteLength":2944,"target":34962},{"buffer":0,"byteOffset":290760,"byteLength":7644,"target":34963}],"images":[{"uri":"../textures/tile_0304_material_0.jpg"},{"uri":"../textures/tile_0304_material_1.jpg"}],"materials":[{"name":"DefaultMaterial","pbrMetallicRoughness":{"baseColorFactor":[0.6000000238418579,0.6000000238418579,0.6000000238418579,1.0],"metallicFactor":0.0},"extensions":{"KHR_materials_specular":{"specularFactor":1.0,"specularColorFactor":[0.0,0.0,0.0]},"KHR_materials_ior":{"ior":1.0}}},{"name":"material_0_material","pbrMetallicRoughness":{"baseColorTexture":{"index":0},"metallicFactor":0.0},"extensions":{"KHR_materials_specular":{"specularFactor":1.0,"specularColorFactor":[0.0,0.0,0.0]},"KHR_materials_ior":{"ior":1.0}}},{"name":"material_1_material","pbrMetallicRoughness":{"baseColorTexture":{"index":1},"metallicFactor":0.0},"extensions":{"KHR_materials_specular":{"specularFactor":1.0,"specularColorFactor":[0.0,0.0,0.0]},"KHR_materials_ior":{"ior":1.0}}}],"meshes":[{"name":"defaultobject","primitives":[{"mode":4,"material":1,"indices":2,"attributes":{"POSITION":0,"TEXCOORD_0":1}},{"mode":4,"material":2,"indices":5,"attributes":{"POSITION":3,"TEXCOORD_0":4}}]}],"nodes":[{"name":"tile_0304.obj","children":[1]},{"name":"defaultobject","mesh":0}],"samplers":[{},{}],"scenes":[{"nodes":[0]}],"textures":[{"source":0,"sampler":0},{"source":1,"sampler":1}],"scene":0}
