{"asset":{"version":"2.0","generator":"Open Asset Import Library (assimp v6.0.0)"},"extensionsUsed":["KHR_materials_specular","KHR_materials_volume","KHR_materials_ior","FB_ngon_encoding"],"accessors":[{"bufferView":0,"byteOffset":0,"componentType":5126,"count":11105,"type":"VEC3","max":[1.0698007345199585,-1.5624719858169556,3.4597837924957275],"min":[2.2250738585072014e-308,-1.984947681427002,2.2250738585072014e-308]},{"bufferView":1,"byteOffset":0,"componentType":5126,"count":11105,"type":"VEC2","max":[0.9937546253204346,0.6579771041870117],"min":[2.2250738585072014e-308,2.2250738585072014e-308]},{"bufferView":2,"byteOffset":0,"componentType":5125,"count":47142,"type":"SCALAR","max":[11104],"min":[0]},{"bufferView":3,"byteOffset":0,"componentType":5126,"count":4406,"type":"VEC3","max":[1.0563733577728271,-1.5575308799743652,3.4581551551818848],"min":[2.2250738585072014e-308,-1.9854387044906616,2.2250738585072014e-308]},{"bufferView":4,"byteOffset":0,"componentType":5126,"count":4406,"type":"VEC2","max":[0.9923291206359863,0.8076419830322266],"min":[2.2250738585072014e-308,2.2250738585072014e-308]},{"bufferView":5,"byteOffset":0,"componentType":5125,"count":22584,"type":"SCALAR","max":[4405],"min":[0]}],"buffers":[{"byteLength":589124,"uri":"tile_0371.bin"}],"bufferViews":[{"buffer":0,"byteOffset":0,"byteLength":133260,"target":34962},{"buffer":0,"byteOffset":133260,"byteLength":88840,"target":34962},{"buffer":0,"byteOffset":222100,"byteLength":188568,"target":34963},{"buffer":0,"byteOffset":410668,"byteLength":52872,"target":34962},{"buffer":0,"byteOffset":463540,"byteLength":35248,"target":34962},{"buffer":0,"byteOffset":498788,"byteLength":90336,"target":34963}],"images":[{"uri":"../textures/tile_0371_material_0.jpg"},{"uri":"../textures/tile_0371_material_1.jpg"}],"materials":[{"name":"DefaultMaterial","pbrMetallicRoughness":{"baseColorFactor":[0.6000000238418579,0.6000000238418579,0.6000000238418579,1.0],"metallicFactor":0.0},"extensions":{"KHR_materials_specular":{"specularFactor":1.0,"specularColorFactor":[0.0,0.0,0.0]},"KHR_materials_ior":{"ior":1.0}}},{"name":"material_0_material","pbrMetallicRoughness":{"baseColorTexture":{"index":0},"metallicFactor":0.0},"extensions":{"KHR_materials_specular":{"specularFactor":1.0,"specularColorFactor":[0.0,0.0,0.0]},"KHR_materials_ior":{"ior":1.0}}},{"name":"material_1_material","pbrMetallicRoughness":{"baseColorTexture":{"index":1},"metallicFactor":0.0},"extensions":{"KHR_materials_specular":{"specularFactor":1.0,"specularColorFactor":[0.0,0.0,0.0]},"KHR_materials_ior":{"ior":1.0}}}],"meshes":[{"name":"defaultobject","primitives":[{"mode":4,"material":1,"indices":2,"attributes":{"POSITION":0,"TEXCOORD_0":1}},{"mode":4,"material":2,"indices":5,"attributes":{"POSITION":3,"TEXCOORD_0":4}}]}],"nodes":[{"name":"tile_0371.obj","children":[1]},{"name":"defaultobject","mesh":0}],"samplers":[{},{}],"scenes":[{"nodes":[0]}],"textures":[{"source":0,"sampler":0},{"source":1,"sampler":1}],"scene":0}
