{"asset":{"version":"2.0","generator":"Open Asset Import Library (assimp v6.0.0)"},"extensionsUsed":["KHR_materials_specular","KHR_materials_volume","KHR_materials_ior","FB_ngon_encoding"],"accessors":[{"bufferView":0,"byteOffset":0,"componentType":5126,"count":14658,"type":"VEC3","max":[1.7553268671035767,0.3123061954975128,2.6053977012634277],"min":[-0.04520097374916077,2.2250738585072014e-308,2.2250738585072014e-308]},{"bufferView":1,"byteOffset":0,"componentType":5126,"count":14658,"type":"VEC2","max":[0.9949631690979004,0.7028865814208984],"min":[2.2250738585072014e-308,2.2250738585072014e-308]},{"bufferView":2,"byteOffset":0,"componentType":5125,"count":70596,"type":"SCALAR","max":[14657],"min":[0]},{"bufferView":3,"byteOffset":0,"componentType":5126,"count":173,"type":"VEC3","max":[1.1114249229431152,0.3154081404209137,2.5380468368530273],"min":[2.2250738585072014e-308,2.2250738585072014e-308,2.2250738585072014e-308]},{"bufferView":4,"byteOffset":0,"componentType":5126,"count":173,"type":"VEC2","max":[0.5802230834960938,0.9656143188476562],"min":[2.2250738585072014e-308,2.2250738585072014e-308]},{"bufferView":5,"byteOffset":0,"componentType":5125,"count":924,"type":"SCALAR","max":[172],"min":[0]}],"buffers":[{"byteLength":582700,"uri":"tile_0006.bin"}],"bufferViews":[{"buffer":0,"byteOffset":0,"byteLength":175896,"target":34962},{"buffer":0,"byteOffset":175896,"byteLength":117264,"target":34962},{"buffer":0,"byteOffset":293160,"byteLength":282384,"target":34963},{"buffer":0,"byteOffset":575544,"byteLength":2076,"target":34962},{"buffer":0,"byteOffset":577620,"byteLength":1384,"target":34962},{"buffer":0,"byteOffset":579004,"byteLength":3696,"target":34963}],"images":[{"uri":"../textures/tile_0006_material_0.jpg"},{"uri":"../textures/tile_0006_material_1.jpg"}],"materials":[{"name":"DefaultMaterial","pbrMetallicRoughness":{"baseColorFactor":[0.6000000238418579,0.6000000238418579,0.6000000238418579,1.0],"metallicFactor":0.0},"extensions":{"KHR_materials_specular":{"specularFactor":1.0,"specularColorFactor":[0.0,0.0,0.0]},"KHR_materials_ior":{"ior":1.0}}},{"name":"material_0_material","pbrMetallicRoughness":{"baseColorTexture":{"index":0},"metallicFactor":0.0},"extensions":{"KHR_materials_specular":{"specularFactor":1.0,"specularColorFactor":[0.0,0.0,0.0]},"KHR_materials_ior":{"ior":1.0}}},{"name":"material_1_material","pbrMetallicRoughness":{"baseColorTexture":{"index":1},"metallicFactor":0.0},"extensions":{"KHR_materials_specular":{"specularFactor":1.0,"specularColorFactor":[0.0,0.0,0.0]},"KHR_materials_ior":{"ior":1.0}}}],"meshes":[{"name":"defaultobject","primitives":[{"mode":4,"material":1,"indices":2,"attributes":{"POSITION":0,"TEXCOORD_0":1}},{"mode":4,"material":2,"indices":5,"attributes":{"POSITION":3,"TEXCOORD_0":4}}]}],"nodes":[{"name":"tile_0006.obj","children":[1]},{"name":"defaultobject","mesh":0}],"samplers":[{},{}],"scenes":[{"nodes":[0]}],"textures":[{"source":0,"sampler":0},{"source":1,"sampler":1}],"scene":0}
