{"asset":{"version":"2.0","generator":"Open Asset Import Library (assimp v6.0.0)"},"extensionsUsed":["KHR_materials_specular","KHR_materials_volume","KHR_materials_ior","FB_ngon_encoding"],"accessors":[{"bufferView":0,"byteOffset":0,"componentType":5126,"count":6244,"type":"VEC3","max":[2.482248544692993,-3.0692925453186035,0.908454179763794],"min":[2.2250738585072014e-308,-4.21633243560791,2.2250738585072014e-308]},{"bufferView":1,"byteOffset":0,"componentType":5126,"count":6244,"type":"VEC2","max":[0.9923057556152344,0.6635169982910156],"min":[2.2250738585072014e-308,2.2250738585072014e-308]},{"bufferView":2,"byteOffset":0,"componentType":5125,"count":26544,"type":"SCALAR","max":[6243],"min":[0]},{"bufferView":3,"byteOffset":0,"componentType":5126,"count":385,"type":"VEC3","max":[2.4793481826782227,-3.0692191123962402,0.9313284158706665],"min":[2.2250738585072014e-308,-3.593261480331421,2.2250738585072014e-308]},{"bufferView":4,"byteOffset":0,"componentType":5126,"count":385,"type":"VEC2","max":[0.6368303298950195,0.6267166137695312],"min":[2.2250738585072014e-308,2.2250738585072014e-308]},{"bufferView":5,"byteOffset":0,"componentType":5125,"count":1836,"type":"SCALAR","max":[384],"min":[0]}],"buffers":[{"byteLength":246100,"uri":"tile_0612.bin"}],"bufferViews":[{"buffer":0,"byteOffset":0,"byteLength":74928,"target":34962},{"buffer":0,"byteOffset":74928,"byteLength":49952,"target":34962},{"buffer":0,"byteOffset":124880,"byteLength":106176,"target":34963},{"buffer":0,"byteOffset":231056,"byteLength":4620,"target":34962},{"buffer":0,"byteOffset":235676,"byteLength":3080,"target":34962},{"buffer":0,"byteOffset":238756,"byteLength":7344,"target":34963}],"images":[{"uri":"../textures/tile_0612_material_0.jpg"},{"uri":"../textures/tile_0612_material_1.jpg"}],"materials":[{"name":"DefaultMaterial","pbrMetallicRoughness":{"baseColorFactor":[0.6000000238418579,0.6000000238418579,0.6000000238418579,1.0],"metallicFactor":0.0},"extensions":{"KHR_materials_specular":{"specularFactor":1.0,"specularColorFactor":[0.0,0.0,0.0]},"KHR_materials_ior":{"ior":1.0}}},{"name":"material_0_material","pbrMetallicRoughness":{"baseColorTexture":{"index":0},"metallicFactor":0.0},"extensions":{"KHR_materials_specular":{"specularFactor":1.0,"specularColorFactor":[0.0,0.0,0.0]},"KHR_materials_ior":{"ior":1.0}}},{"name":"material_1_material","pbrMetallicRoughness":{"baseColorTexture":{"index":1},"metallicFactor":0.0},"extensions":{"KHR_materials_specular":{"specularFactor":1.0,"specularColorFactor":[0.0,0.0,0.0]},"KHR_materials_ior":{"ior":1.0}}}],"meshes":[{"name":"defaultobject","primitives":[{"mode":4,"material":1,"indices":2,"attributes":{"POSITION":0,"TEXCOORD_0":1}},{"mode":4,"material":2,"indices":5,"attributes":{"POSITION":3,"TEXCOORD_0":4}}]}],"nodes":[{"name":"tile_0612.obj","children":[1]},{"name":"defaultobject","mesh":0}],"samplers":[{},{}],"scenes":[{"nodes":[0]}],"textures":[{"source":0,"sampler":0},{"source":1,"sampler":1}],"scene":0}
