{"asset":{"version":"2.0","generator":"Open Asset Import Library (assimp v6.0.0)"},"extensionsUsed":["KHR_materials_specular","KHR_materials_volume","KHR_materials_ior","FB_ngon_encoding"],"accessors":[{"bufferView":0,"byteOffset":0,"componentType":5126,"count":9999,"type":"VEC3","max":[1.656354546546936,-0.05712181329727173,1.9370994567871094],"min":[-0.23598170280456543,-0.23908135294914246,2.2250738585072014e-308]},{"bufferView":1,"byteOffset":0,"componentType":5126,"count":9999,"type":"VEC2","max":[0.9953951835632324,0.9452915191650391],"min":[2.2250738585072014e-308,2.2250738585072014e-308]},{"bufferView":2,"byteOffset":0,"componentType":5125,"count":41760,"type":"SCALAR","max":[9998],"min":[0]},{"bufferView":3,"byteOffset":0,"componentType":5126,"count":1099,"type":"VEC3","max":[0.7238630056381226,-0.11467450112104416,1.9255846738815308],"min":[-0.22783899307250977,-0.22088825702667236,2.2250738585072014e-308]},{"bufferView":4,"byteOffset":0,"componentType":5126,"count":1099,"type":"VEC2","max":[0.566864013671875,0.5397529602050781],"min":[2.2250738585072014e-308,2.2250738585072014e-308]},{"bufferView":5,"byteOffset":0,"componentType":5125,"count":5457,"type":"SCALAR","max":[1098],"min":[0]}],"buffers":[{"byteLength":410828,"uri":"tile_0070.bin"}],"bufferViews":[{"buffer":0,"byteOffset":0,"byteLength":119988,"target":34962},{"buffer":0,"byteOffset":119988,"byteLength":79992,"target":34962},{"buffer":0,"byteOffset":199980,"byteLength":167040,"target":34963},{"buffer":0,"byteOffset":367020,"byteLength":13188,"target":34962},{"buffer":0,"byteOffset":380208,"byteLength":8792,"target":34962},{"buffer":0,"byteOffset":389000,"byteLength":21828,"target":34963}],"images":[{"uri":"../textures/tile_0070_material_0.jpg"},{"uri":"../textures/tile_0070_material_1.jpg"}],"materials":[{"name":"DefaultMaterial","pbrMetallicRoughness":{"baseColorFactor":[0.6000000238418579,0.6000000238418579,0.6000000238418579,1.0],"metallicFactor":0.0},"extensions":{"KHR_materials_specular":{"specularFactor":1.0,"specularColorFactor":[0.0,0.0,0.0]},"KHR_materials_ior":{"ior":1.0}}},{"name":"material_0_material","pbrMetallicRoughness":{"baseColorTexture":{"index":0},"metallicFactor":0.0},"extensions":{"KHR_materials_specular":{"specularFactor":1.0,"specularColorFactor":[0.0,0.0,0.0]},"KHR_materials_ior":{"ior":1.0}}},{"name":"material_1_material","pbrMetallicRoughness":{"baseColorTexture":{"index":1},"metallicFactor":0.0},"extensions":{"KHR_materials_specular":{"specularFactor":1.0,"specularColorFactor":[0.0,0.0,0.0]},"KHR_materials_ior":{"ior":1.0}}}],"meshes":[{"name":"defaultobject","primitives":[{"mode":4,"material":1,"indices":2,"attributes":{"POSITION":0,"TEXCOORD_0":1}},{"mode":4,"material":2,"indices":5,"attributes":{"POSITION":3,"TEXCOORD_0":4}}]}],"nodes":[{"name":"tile_0070.obj","children":[1]},{"name":"defaultobject","mesh":0}],"samplers":[{},{}],"scenes":[{"nodes":[0]}],"textures":[{"source":0,"sampler":0},{"source":1,"sampler":1}],"scene":0}
