{"asset":{"version":"2.0","generator":"Open Asset Import Library (assimp v6.0.0)"},"extensionsUsed":["KHR_materials_specular","KHR_materials_volume","KHR_materials_ior","FB_ngon_encoding"],"accessors":[{"bufferView":0,"byteOffset":0,"componentType":5126,"count":4323,"type":"VEC3","max":[1.1033000946044922,0.5867320895195007,3.6460537910461426],"min":[2.2250738585072014e-308,2.2250738585072014e-308,2.2250738585072014e-308]},{"bufferView":1,"byteOffset":0,"componentType":5126,"count":4323,"type":"VEC2","max":[0.9944353103637695,0.7300148010253906],"min":[2.2250738585072014e-308,2.2250738585072014e-308]},{"bufferView":2,"byteOffset":0,"componentType":5125,"count":18090,"type":"SCALAR","max":[4322],"min":[0]},{"bufferView":3,"byteOffset":0,"componentType":5126,"count":303,"type":"VEC3","max":[1.0950284004211426,0.5709925889968872,3.4169373512268066],"min":[2.2250738585072014e-308,2.2250738585072014e-308,2.2250738585072014e-308]},{"bufferView":4,"byteOffset":0,"componentType":5126,"count":303,"type":"VEC2","max":[0.49448585510253906,0.6671218872070312],"min":[2.2250738585072014e-308,2.2250738585072014e-308]},{"bufferView":5,"byteOffset":0,"componentType":5125,"count":1299,"type":"SCALAR","max":[302],"min":[0]}],"buffers":[{"byteLength":170076,"uri":"tile_0430.bin"}],"bufferViews":[{"buffer":0,"byteOffset":0,"byteLength":51876,"target":34962},{"buffer":0,"byteOffset":51876,"byteLength":34584,"target":34962},{"buffer":0,"byteOffset":86460,"byteLength":72360,"target":34963},{"buffer":0,"byteOffset":158820,"byteLength":3636,"target":34962},{"buffer":0,"byteOffset":162456,"byteLength":2424,"target":34962},{"buffer":0,"byteOffset":164880,"byteLength":5196,"target":34963}],"images":[{"uri":"../textures/tile_0430_material_0.jpg"},{"uri":"../textures/tile_0430_material_1.jpg"}],"materials":[{"name":"DefaultMaterial","pbrMetallicRoughness":{"baseColorFactor":[0.6000000238418579,0.6000000238418579,0.6000000238418579,1.0],"metallicFactor":0.0},"extensions":{"KHR_materials_specular":{"specularFactor":1.0,"specularColorFactor":[0.0,0.0,0.0]},"KHR_materials_ior":{"ior":1.0}}},{"name":"material_0_material","pbrMetallicRoughness":{"baseColorTexture":{"index":0},"metallicFactor":0.0},"extensions":{"KHR_materials_specular":{"specularFactor":1.0,"specularColorFactor":[0.0,0.0,0.0]},"KHR_materials_ior":{"ior":1.0}}},{"name":"material_1_material","pbrMetallicRoughness":{"baseColorTexture":{"index":1},"metallicFactor":0.0},"extensions":{"KHR_materials_specular":{"specularFactor":1.0,"specularColorFactor":[0.0,0.0,0.0]},"KHR_materials_ior":{"ior":1.0}}}],"meshes":[{"name":"defaultobject","primitives":[{"mode":4,"material":1,"indices":2,"attributes":{"POSITION":0,"TEXCOORD_0":1}},{"mode":4,"material":2,"indices":5,"attributes":{"POSITION":3,"TEXCOORD_0":4}}]}],"nodes":[{"name":"tile_0430.obj","children":[1]},{"name":"defaultobject","mesh":0}],"samplers":[{},{}],"scenes":[{"nodes":[0]}],"textures":[{"source":0,"sampler":0},{"source":1,"sampler":1}],"scene":0}
