{"asset":{"version":"2.0","generator":"Open Asset Import Library (assimp v6.0.0)"},"extensionsUsed":["KHR_materials_specular","KHR_materials_volume","KHR_materials_ior","FB_ngon_encoding"],"accessors":[{"bufferView":0,"byteOffset":0,"componentType":5126,"count":5489,"type":"VEC3","max":[1.3228344917297363,-3.579993963241577,2.4763593673706055],"min":[2.2250738585072014e-308,-4.216423034667969,2.2250738585072014e-308]},{"bufferView":1,"byteOffset":0,"componentType":5126,"count":5489,"type":"VEC2","max":[0.9941926002502441,0.7655315399169922],"min":[2.2250738585072014e-308,2.2250738585072014e-308]},{"bufferView":2,"byteOffset":0,"componentType":5125,"count":23694,"type":"SCALAR","max":[5488],"min":[0]},{"bufferView":3,"byteOffset":0,"componentType":5126,"count":1155,"type":"VEC3","max":[1.3182578086853027,-3.651444911956787,2.481628894805908],"min":[2.2250738585072014e-308,-4.187379837036133,2.2250738585072014e-308]},{"bufferView":4,"byteOffset":0,"componentType":5126,"count":1155,"type":"VEC2","max":[0.6160974502563477,0.49805450439453125],"min":[2.2250738585072014e-308,2.2250738585072014e-308]},{"bufferView":5,"byteOffset":0,"componentType":5125,"count":5574,"type":"SCALAR","max":[1154],"min":[0]}],"buffers":[{"byteLength":249952,"uri":"tile_0326.bin"}],"bufferViews":[{"buffer":0,"byteOffset":0,"byteLength":65868,"target":34962},{"buffer":0,"byteOffset":65868,"byteLength":43912,"target":34962},{"buffer":0,"byteOffset":109780,"byteLength":94776,"target":34963},{"buffer":0,"byteOffset":204556,"byteLength":13860,"target":34962},{"buffer":0,"byteOffset":218416,"byteLength":9240,"target":34962},{"buffer":0,"byteOffset":227656,"byteLength":22296,"target":34963}],"images":[{"uri":"../textures/tile_0326_material_0.jpg"},{"uri":"../textures/tile_0326_material_1.jpg"}],"materials":[{"name":"DefaultMaterial","pbrMetallicRoughness":{"baseColorFactor":[0.6000000238418579,0.6000000238418579,0.6000000238418579,1.0],"metallicFactor":0.0},"extensions":{"KHR_materials_specular":{"specularFactor":1.0,"specularColorFactor":[0.0,0.0,0.0]},"KHR_materials_ior":{"ior":1.0}}},{"name":"material_0_material","pbrMetallicRoughness":{"baseColorTexture":{"index":0},"metallicFactor":0.0},"extensions":{"KHR_materials_specular":{"specularFactor":1.0,"specularColorFactor":[0.0,0.0,0.0]},"KHR_materials_ior":{"ior":1.0}}},{"name":"material_1_material","pbrMetallicRoughness":{"baseColorTexture":{"index":1},"metallicFactor":0.0},"extensions":{"KHR_materials_specular":{"specularFactor":1.0,"specularColorFactor":[0.0,0.0,0.0]},"KHR_materials_ior":{"ior":1.0}}}],"meshes":[{"name":"defaultobject","primitives":[{"mode":4,"material":1,"indices":2,"attributes":{"POSITION":0,"TEXCOORD_0":1}},{"mode":4,"material":2,"indices":5,"attributes":{"POSITION":3,"TEXCOORD_0":4}}]}],"nodes":[{"name":"tile_0326.obj","children":[1]},{"name":"defaultobject","mesh":0}],"samplers":[{},{}],"scenes":[{"nodes":[0]}],"textures":[{"source":0,"sampler":0},{"source":1,"sampler":1}],"scene":0}
