{"asset":{"version":"2.0","generator":"Open Asset Import Library (assimp v6.0.0)"},"extensionsUsed":["KHR_materials_specular","KHR_materials_volume","KHR_materials_ior","FB_ngon_encoding"],"accessors":[{"bufferView":0,"byteOffset":0,"componentType":5126,"count":11827,"type":"VEC3","max":[1.980089783668518,-0.7638959884643555,2.1473748683929443],"min":[-0.40728944540023804,-1.1488679647445679,2.2250738585072014e-308]},{"bufferView":1,"byteOffset":0,"componentType":5126,"count":11827,"type":"VEC2","max":[0.9927434921264648,0.6092805862426758],"min":[2.2250738585072014e-308,2.2250738585072014e-308]},{"bufferView":2,"byteOffset":0,"componentType":5125,"count":48195,"type":"SCALAR","max":[11826],"min":[0]},{"bufferView":3,"byteOffset":0,"componentType":5126,"count":4370,"type":"VEC3","max":[0.04724844545125961,-0.7741054892539978,2.1468214988708496],"min":[-0.4051801860332489,-1.1489616632461548,2.2250738585072014e-308]},{"bufferView":4,"byteOffset":0,"componentType":5126,"count":4370,"type":"VEC2","max":[0.992943286895752,0.984344482421875],"min":[2.2250738585072014e-308,2.2250738585072014e-308]},{"bufferView":5,"byteOffset":0,"componentType":5125,"count":21459,"type":"SCALAR","max":[4369],"min":[0]}],"buffers":[{"byteLength":602556,"uri":"tile_0287.bin"}],"bufferViews":[{"buffer":0,"byteOffset":0,"byteLength":141924,"target":34962},{"buffer":0,"byteOffset":141924,"byteLength":94616,"target":34962},{"buffer":0,"byteOffset":236540,"byteLength":192780,"target":34963},{"buffer":0,"byteOffset":429320,"byteLength":52440,"target":34962},{"buffer":0,"byteOffset":481760,"byteLength":34960,"target":34962},{"buffer":0,"byteOffset":516720,"byteLength":85836,"target":34963}],"images":[{"uri":"../textures/tile_0287_material_0.jpg"},{"uri":"../textures/tile_0287_material_1.jpg"}],"materials":[{"name":"DefaultMaterial","pbrMetallicRoughness":{"baseColorFactor":[0.6000000238418579,0.6000000238418579,0.6000000238418579,1.0],"metallicFactor":0.0},"extensions":{"KHR_materials_specular":{"specularFactor":1.0,"specularColorFactor":[0.0,0.0,0.0]},"KHR_materials_ior":{"ior":1.0}}},{"name":"material_0_material","pbrMetallicRoughness":{"baseColorTexture":{"index":0},"metallicFactor":0.0},"extensions":{"KHR_materials_specular":{"specularFactor":1.0,"specularColorFactor":[0.0,0.0,0.0]},"KHR_materials_ior":{"ior":1.0}}},{"name":"material_1_material","pbrMetallicRoughness":{"baseColorTexture":{"index":1},"metallicFactor":0.0},"extensions":{"KHR_materials_specular":{"specularFactor":1.0,"specularColorFactor":[0.0,0.0,0.0]},"KHR_materials_ior":{"ior":1.0}}}],"meshes":[{"name":"defaultobject","primitives":[{"mode":4,"material":1,"indices":2,"attributes":{"POSITION":0,"TEXCOORD_0":1}},{"mode":4,"material":2,"indices":5,"attributes":{"POSITION":3,"TEXCOORD_0":4}}]}],"nodes":[{"name":"tile_0287.obj","children":[1]},{"name":"defaultobject","mesh":0}],"samplers":[{},{}],"scenes":[{"nodes":[0]}],"textures":[{"source":0,"sampler":0},{"source":1,"sampler":1}],"scene":0}
