{"asset":{"version":"2.0","generator":"Open Asset Import Library (assimp v6.0.0)"},"extensionsUsed":["KHR_materials_specular","KHR_materials_volume","KHR_materials_ior","FB_ngon_encoding"],"accessors":[{"bufferView":0,"byteOffset":0,"componentType":5126,"count":3451,"type":"VEC3","max":[0.9587830901145935,-1.1923713684082031,3.457792043685913],"min":[2.2250738585072014e-308,-1.3579853773117065,2.2250738585072014e-308]},{"bufferView":1,"byteOffset":0,"componentType":5126,"count":3451,"type":"VEC2","max":[0.9896130561828613,0.5257797241210938],"min":[2.2250738585072014e-308,2.2250738585072014e-308]},{"bufferView":2,"byteOffset":0,"componentType":5125,"count":15765,"type":"SCALAR","max":[3450],"min":[0]},{"bufferView":3,"byteOffset":0,"componentType":5126,"count":340,"type":"VEC3","max":[0.8359051942825317,-1.1928340196609497,3.4592344760894775],"min":[2.2250738585072014e-308,-1.3358911275863647,2.2250738585072014e-308]},{"bufferView":4,"byteOffset":0,"componentType":5126,"count":340,"type":"VEC2","max":[0.8563117980957031,0.7956962585449219],"min":[2.2250738585072014e-308,2.2250738585072014e-308]},{"bufferView":5,"byteOffset":0,"componentType":5125,"count":1596,"type":"SCALAR","max":[339],"min":[0]}],"buffers":[{"byteLength":145264,"uri":"tile_0051.bin"}],"bufferViews":[{"buffer":0,"byteOffset":0,"byteLength":41412,"target":34962},{"buffer":0,"byteOffset":41412,"byteLength":27608,"target":34962},{"buffer":0,"byteOffset":69020,"byteLength":63060,"target":34963},{"buffer":0,"byteOffset":132080,"byteLength":4080,"target":34962},{"buffer":0,"byteOffset":136160,"byteLength":2720,"target":34962},{"buffer":0,"byteOffset":138880,"byteLength":6384,"target":34963}],"images":[{"uri":"../textures/tile_0051_material_0.jpg"},{"uri":"../textures/tile_0051_material_1.jpg"}],"materials":[{"name":"DefaultMaterial","pbrMetallicRoughness":{"baseColorFactor":[0.6000000238418579,0.6000000238418579,0.6000000238418579,1.0],"metallicFactor":0.0},"extensions":{"KHR_materials_specular":{"specularFactor":1.0,"specularColorFactor":[0.0,0.0,0.0]},"KHR_materials_ior":{"ior":1.0}}},{"name":"material_0_material","pbrMetallicRoughness":{"baseColorTexture":{"index":0},"metallicFactor":0.0},"extensions":{"KHR_materials_specular":{"specularFactor":1.0,"specularColorFactor":[0.0,0.0,0.0]},"KHR_materials_ior":{"ior":1.0}}},{"name":"material_1_material","pbrMetallicRoughness":{"baseColorTexture":{"index":1},"metallicFactor":0.0},"extensions":{"KHR_materials_specular":{"specularFactor":1.0,"specularColorFactor":[0.0,0.0,0.0]},"KHR_materials_ior":{"ior":1.0}}}],"meshes":[{"name":"defaultobject","primitives":[{"mode":4,"material":1,"indices":2,"attributes":{"POSITION":0,"TEXCOORD_0":1}},{"mode":4,"material":2,"indices":5,"attributes":{"POSITION":3,"TEXCOORD_0":4}}]}],"nodes":[{"name":"tile_0051.obj","children":[1]},{"name":"defaultobject","mesh":0}],"samplers":[{},{}],"scenes":[{"nodes":[0]}],"textures":[{"source":0,"sampler":0},{"source":1,"sampler":1}],"scene":0}
