{"asset":{"version":"2.0","generator":"Open Asset Import Library (assimp v6.0.0)"},"extensionsUsed":["KHR_materials_specular","KHR_materials_volume","KHR_materials_ior","FB_ngon_encoding"],"accessors":[{"bufferView":0,"byteOffset":0,"componentType":5126,"count":4673,"type":"VEC3","max":[2.723363161087036,-0.015501488000154495,1.119279146194458],"min":[2.2250738585072014e-308,-0.1966480016708374,2.2250738585072014e-308]},{"bufferView":1,"byteOffset":0,"componentType":5126,"count":4673,"type":"VEC2","max":[0.9921368360519409,0.6834144592285156],"min":[2.2250738585072014e-308,2.2250738585072014e-308]},{"bufferView":2,"byteOffset":0,"componentType":5125,"count":20670,"type":"SCALAR","max":[4672],"min":[0]},{"bufferView":3,"byteOffset":0,"componentType":5126,"count":48,"type":"VEC3","max":[0.6462307572364807,-0.04066549241542816,1.0057003498077393],"min":[2.2250738585072014e-308,-0.08403261005878448,2.2250738585072014e-308]},{"bufferView":4,"byteOffset":0,"componentType":5126,"count":48,"type":"VEC2","max":[0.5773239135742188,0.7929534912109375],"min":[2.2250738585072014e-308,2.2250738585072014e-308]},{"bufferView":5,"byteOffset":0,"componentType":5125,"count":165,"type":"SCALAR","max":[47],"min":[0]}],"buffers":[{"byteLength":177760,"uri":"tile_0453.bin"}],"bufferViews":[{"buffer":0,"byteOffset":0,"byteLength":56076,"target":34962},{"buffer":0,"byteOffset":56076,"byteLength":37384,"target":34962},{"buffer":0,"byteOffset":93460,"byteLength":82680,"target":34963},{"buffer":0,"byteOffset":176140,"byteLength":576,"target":34962},{"buffer":0,"byteOffset":176716,"byteLength":384,"target":34962},{"buffer":0,"byteOffset":177100,"byteLength":660,"target":34963}],"images":[{"uri":"../textures/tile_0453_material_0.jpg"},{"uri":"../textures/tile_0453_material_1.jpg"}],"materials":[{"name":"DefaultMaterial","pbrMetallicRoughness":{"baseColorFactor":[0.6000000238418579,0.6000000238418579,0.6000000238418579,1.0],"metallicFactor":0.0},"extensions":{"KHR_materials_specular":{"specularFactor":1.0,"specularColorFactor":[0.0,0.0,0.0]},"KHR_materials_ior":{"ior":1.0}}},{"name":"material_0_material","pbrMetallicRoughness":{"baseColorTexture":{"index":0},"metallicFactor":0.0},"extensions":{"KHR_materials_specular":{"specularFactor":1.0,"specularColorFactor":[0.0,0.0,0.0]},"KHR_materials_ior":{"ior":1.0}}},{"name":"material_1_material","pbrMetallicRoughness":{"baseColorTexture":{"index":1},"metallicFactor":0.0},"extensions":{"KHR_materials_specular":{"specularFactor":1.0,"specularColorFactor":[0.0,0.0,0.0]},"KHR_materials_ior":{"ior":1.0}}}],"meshes":[{"name":"defaultobject","primitives":[{"mode":4,"material":1,"indices":2,"attributes":{"POSITION":0,"TEXCOORD_0":1}},{"mode":4,"material":2,"indices":5,"attributes":{"POSITION":3,"TEXCOORD_0":4}}]}],"nodes":[{"name":"tile_0453.obj","children":[1]},{"name":"defaultobject","mesh":0}],"samplers":[{},{}],"scenes":[{"nodes":[0]}],"textures":[{"source":0,"sampler":0},{"source":1,"sampler":1}],"scene":0}
