{"asset":{"version":"2.0","generator":"Open Asset Import Library (assimp v6.0.0)"},"extensionsUsed":["KHR_materials_specular","KHR_materials_volume","KHR_materials_ior","FB_ngon_encoding"],"accessors":[{"bufferView":0,"byteOffset":0,"componentType":5126,"count":7393,"type":"VEC3","max":[3.09267520904541,1.4026798009872437,0.8800898194313049],"min":[2.2250738585072014e-308,2.2250738585072014e-308,2.2250738585072014e-308]},{"bufferView":1,"byteOffset":0,"componentType":5126,"count":7393,"type":"VEC2","max":[0.9959969520568848,0.5368881225585938],"min":[2.2250738585072014e-308,2.2250738585072014e-308]},{"bufferView":2,"byteOffset":0,"componentType":5125,"count":33294,"type":"SCALAR","max":[7392],"min":[0]},{"bufferView":3,"byteOffset":0,"componentType":5126,"count":1070,"type":"VEC3","max":[3.030426025390625,1.4026798009872437,0.9582349061965942],"min":[2.2250738585072014e-308,2.2250738585072014e-308,2.2250738585072014e-308]},{"bufferView":4,"byteOffset":0,"componentType":5126,"count":1070,"type":"VEC2","max":[0.9261980056762695,0.5008735656738281],"min":[2.2250738585072014e-308,2.2250738585072014e-308]},{"bufferView":5,"byteOffset":0,"componentType":5125,"count":5172,"type":"SCALAR","max":[1069],"min":[0]}],"buffers":[{"byteLength":323124,"uri":"tile_0513.bin"}],"bufferViews":[{"buffer":0,"byteOffset":0,"byteLength":88716,"target":34962},{"buffer":0,"byteOffset":88716,"byteLength":59144,"target":34962},{"buffer":0,"byteOffset":147860,"byteLength":133176,"target":34963},{"buffer":0,"byteOffset":281036,"byteLength":12840,"target":34962},{"buffer":0,"byteOffset":293876,"byteLength":8560,"target":34962},{"buffer":0,"byteOffset":302436,"byteLength":20688,"target":34963}],"images":[{"uri":"../textures/tile_0513_material_0.jpg"},{"uri":"../textures/tile_0513_material_1.jpg"}],"materials":[{"name":"DefaultMaterial","pbrMetallicRoughness":{"baseColorFactor":[0.6000000238418579,0.6000000238418579,0.6000000238418579,1.0],"metallicFactor":0.0},"extensions":{"KHR_materials_specular":{"specularFactor":1.0,"specularColorFactor":[0.0,0.0,0.0]},"KHR_materials_ior":{"ior":1.0}}},{"name":"material_0_material","pbrMetallicRoughness":{"baseColorTexture":{"index":0},"metallicFactor":0.0},"extensions":{"KHR_materials_specular":{"specularFactor":1.0,"specularColorFactor":[0.0,0.0,0.0]},"KHR_materials_ior":{"ior":1.0}}},{"name":"material_1_material","pbrMetallicRoughness":{"baseColorTexture":{"index":1},"metallicFactor":0.0},"extensions":{"KHR_materials_specular":{"specularFactor":1.0,"specularColorFactor":[0.0,0.0,0.0]},"KHR_materials_ior":{"ior":1.0}}}],"meshes":[{"name":"defaultobject","primitives":[{"mode":4,"material":1,"indices":2,"attributes":{"POSITION":0,"TEXCOORD_0":1}},{"mode":4,"material":2,"indices":5,"attributes":{"POSITION":3,"TEXCOORD_0":4}}]}],"nodes":[{"name":"tile_0513.obj","children":[1]},{"name":"defaultobject","mesh":0}],"samplers":[{},{}],"scenes":[{"nodes":[0]}],"textures":[{"source":0,"sampler":0},{"source":1,"sampler":1}],"scene":0}
