{"asset":{"version":"2.0","generator":"Open Asset Import Library (assimp v6.0.0)"},"extensionsUsed":["KHR_materials_specular","KHR_materials_volume","KHR_materials_ior","FB_ngon_encoding"],"accessors":[{"bufferView":0,"byteOffset":0,"componentType":5126,"count":5320,"type":"VEC3","max":[2.5343196392059326,-2.861220598220825,0.8913191556930542],"min":[2.2250738585072014e-308,-3.0809905529022217,2.2250738585072014e-308]},{"bufferView":1,"byteOffset":0,"componentType":5126,"count":5320,"type":"VEC2","max":[0.9916123151779175,0.6445178985595703],"min":[2.2250738585072014e-308,2.2250738585072014e-308]},{"bufferView":2,"byteOffset":0,"componentType":5125,"count":20718,"type":"SCALAR","max":[5319],"min":[0]},{"bufferView":3,"byteOffset":0,"componentType":5126,"count":10,"type":"VEC3","max":[2.4252569675445557,-3.0630388259887695,0.8484225869178772],"min":[2.2250738585072014e-308,-3.0831198692321777,2.2250738585072014e-308]},{"bufferView":4,"byteOffset":0,"componentType":5126,"count":10,"type":"VEC2","max":[0.6736600399017334,0.6101531982421875],"min":[2.2250738585072014e-308,2.2250738585072014e-308]},{"bufferView":5,"byteOffset":0,"componentType":5125,"count":30,"type":"SCALAR","max":[9],"min":[0]}],"buffers":[{"byteLength":189592,"uri":"tile_0611.bin"}],"bufferViews":[{"buffer":0,"byteOffset":0,"byteLength":63840,"target":34962},{"buffer":0,"byteOffset":63840,"byteLength":42560,"target":34962},{"buffer":0,"byteOffset":106400,"byteLength":82872,"target":34963},{"buffer":0,"byteOffset":189272,"byteLength":120,"target":34962},{"buffer":0,"byteOffset":189392,"byteLength":80,"target":34962},{"buffer":0,"byteOffset":189472,"byteLength":120,"target":34963}],"images":[{"uri":"../textures/tile_0611_material_0.jpg"},{"uri":"../textures/tile_0611_material_1.jpg"}],"materials":[{"name":"DefaultMaterial","pbrMetallicRoughness":{"baseColorFactor":[0.6000000238418579,0.6000000238418579,0.6000000238418579,1.0],"metallicFactor":0.0},"extensions":{"KHR_materials_specular":{"specularFactor":1.0,"specularColorFactor":[0.0,0.0,0.0]},"KHR_materials_ior":{"ior":1.0}}},{"name":"material_0_material","pbrMetallicRoughness":{"baseColorTexture":{"index":0},"metallicFactor":0.0},"extensions":{"KHR_materials_specular":{"specularFactor":1.0,"specularColorFactor":[0.0,0.0,0.0]},"KHR_materials_ior":{"ior":1.0}}},{"name":"material_1_material","pbrMetallicRoughness":{"baseColorTexture":{"index":1},"metallicFactor":0.0},"extensions":{"KHR_materials_specular":{"specularFactor":1.0,"specularColorFactor":[0.0,0.0,0.0]},"KHR_materials_ior":{"ior":1.0}}}],"meshes":[{"name":"defaultobject","primitives":[{"mode":4,"material":1,"indices":2,"attributes":{"POSITION":0,"TEXCOORD_0":1}},{"mode":4,"material":2,"indices":5,"attributes":{"POSITION":3,"TEXCOORD_0":4}}]}],"nodes":[{"name":"tile_0611.obj","children":[1]},{"name":"defaultobject","mesh":0}],"samplers":[{},{}],"scenes":[{"nodes":[0]}],"textures":[{"source":0,"sampler":0},{"source":1,"sampler":1}],"scene":0}
