{"asset":{"version":"2.0","generator":"Open Asset Import Library (assimp v6.0.0)"},"extensionsUsed":["KHR_materials_specular","KHR_materials_volume","KHR_materials_ior","FB_ngon_encoding"],"accessors":[{"bufferView":0,"byteOffset":0,"componentType":5126,"count":5136,"type":"VEC3","max":[0.28382766246795654,-1.390382170677185,2.2277817726135254],"min":[-0.38576817512512207,-1.5629829168319702,2.2250738585072014e-308]},{"bufferView":1,"byteOffset":0,"componentType":5126,"count":5136,"type":"VEC2","max":[0.991112232208252,0.6640472412109375],"min":[2.2250738585072014e-308,2.2250738585072014e-308]},{"bufferView":2,"byteOffset":0,"componentType":5125,"count":22539,"type":"SCALAR","max":[5135],"min":[0]},{"bufferView":3,"byteOffset":0,"componentType":5126,"count":741,"type":"VEC3","max":[0.28382766246795654,-1.3981659412384033,2.226097583770752],"min":[-0.3175179064273834,-1.579443335533142,2.2250738585072014e-308]},{"bufferView":4,"byteOffset":0,"componentType":5126,"count":741,"type":"VEC2","max":[0.8287515640258789,0.9061679840087891],"min":[2.2250738585072014e-308,2.2250738585072014e-308]},{"bufferView":5,"byteOffset":0,"componentType":5125,"count":3753,"type":"SCALAR","max":[740],"min":[0]}],"buffers":[{"byteLength":222708,"uri":"tile_0381.bin"}],"bufferViews":[{"buffer":0,"byteOffset":0,"byteLength":61632,"target":34962},{"buffer":0,"byteOffset":61632,"byteLength":41088,"target":34962},{"buffer":0,"byteOffset":102720,"byteLength":90156,"target":34963},{"buffer":0,"byteOffset":192876,"byteLength":8892,"target":34962},{"buffer":0,"byteOffset":201768,"byteLength":5928,"target":34962},{"buffer":0,"byteOffset":207696,"byteLength":15012,"target":34963}],"images":[{"uri":"../textures/tile_0381_material_0.jpg"},{"uri":"../textures/tile_0381_material_1.jpg"}],"materials":[{"name":"DefaultMaterial","pbrMetallicRoughness":{"baseColorFactor":[0.6000000238418579,0.6000000238418579,0.6000000238418579,1.0],"metallicFactor":0.0},"extensions":{"KHR_materials_specular":{"specularFactor":1.0,"specularColorFactor":[0.0,0.0,0.0]},"KHR_materials_ior":{"ior":1.0}}},{"name":"material_0_material","pbrMetallicRoughness":{"baseColorTexture":{"index":0},"metallicFactor":0.0},"extensions":{"KHR_materials_specular":{"specularFactor":1.0,"specularColorFactor":[0.0,0.0,0.0]},"KHR_materials_ior":{"ior":1.0}}},{"name":"material_1_material","pbrMetallicRoughness":{"baseColorTexture":{"index":1},"metallicFactor":0.0},"extensions":{"KHR_materials_specular":{"specularFactor":1.0,"specularColorFactor":[0.0,0.0,0.0]},"KHR_materials_ior":{"ior":1.0}}}],"meshes":[{"name":"defaultobject","primitives":[{"mode":4,"material":1,"indices":2,"attributes":{"POSITION":0,"TEXCOORD_0":1}},{"mode":4,"material":2,"indices":5,"attributes":{"POSITION":3,"TEXCOORD_0":4}}]}],"nodes":[{"name":"tile_0381.obj","children":[1]},{"name":"defaultobject","mesh":0}],"samplers":[{},{}],"scenes":[{"nodes":[0]}],"textures":[{"source":0,"sampler":0},{"source":1,"sampler":1}],"scene":0}
