{"asset":{"version":"2.0","generator":"Open Asset Import Library (assimp v6.0.0)"},"extensionsUsed":["KHR_materials_specular","KHR_materials_volume","KHR_materials_ior","FB_ngon_encoding"],"accessors":[{"bufferView":0,"byteOffset":0,"componentType":5126,"count":16978,"type":"VEC3","max":[2.7067346572875977,-1.4722249507904053,1.0385075807571411],"min":[-0.18063198029994965,-1.8278485536575317,2.2250738585072014e-308]},{"bufferView":1,"byteOffset":0,"componentType":5126,"count":16978,"type":"VEC2","max":[0.9952836036682129,0.9492120742797852],"min":[2.2250738585072014e-308,2.2250738585072014e-308]},{"bufferView":2,"byteOffset":0,"componentType":5125,"count":69606,"type":"SCALAR","max":[16977],"min":[0]},{"bufferView":3,"byteOffset":0,"componentType":5126,"count":413,"type":"VEC3","max":[0.20481403172016144,-1.7461727857589722,1.0097050666809082],"min":[2.2250738585072014e-308,-1.829371690750122,2.2250738585072014e-308]},{"bufferView":4,"byteOffset":0,"componentType":5126,"count":413,"type":"VEC2","max":[0.6231575012207031,0.5080070495605469],"min":[2.2250738585072014e-308,2.2250738585072014e-308]},{"bufferView":5,"byteOffset":0,"componentType":5125,"count":2151,"type":"SCALAR","max":[412],"min":[0]}],"buffers":[{"byteLength":634848,"uri":"tile_0202.bin"}],"bufferViews":[{"buffer":0,"byteOffset":0,"byteLength":203736,"target":34962},{"buffer":0,"byteOffset":203736,"byteLength":135824,"target":34962},{"buffer":0,"byteOffset":339560,"byteLength":278424,"target":34963},{"buffer":0,"byteOffset":617984,"byteLength":4956,"target":34962},{"buffer":0,"byteOffset":622940,"byteLength":3304,"target":34962},{"buffer":0,"byteOffset":626244,"byteLength":8604,"target":34963}],"images":[{"uri":"../textures/tile_0202_material_0.jpg"},{"uri":"../textures/tile_0202_material_1.jpg"}],"materials":[{"name":"DefaultMaterial","pbrMetallicRoughness":{"baseColorFactor":[0.6000000238418579,0.6000000238418579,0.6000000238418579,1.0],"metallicFactor":0.0},"extensions":{"KHR_materials_specular":{"specularFactor":1.0,"specularColorFactor":[0.0,0.0,0.0]},"KHR_materials_ior":{"ior":1.0}}},{"name":"material_0_material","pbrMetallicRoughness":{"baseColorTexture":{"index":0},"metallicFactor":0.0},"extensions":{"KHR_materials_specular":{"specularFactor":1.0,"specularColorFactor":[0.0,0.0,0.0]},"KHR_materials_ior":{"ior":1.0}}},{"name":"material_1_material","pbrMetallicRoughness":{"baseColorTexture":{"index":1},"metallicFactor":0.0},"extensions":{"KHR_materials_specular":{"specularFactor":1.0,"specularColorFactor":[0.0,0.0,0.0]},"KHR_materials_ior":{"ior":1.0}}}],"meshes":[{"name":"defaultobject","primitives":[{"mode":4,"material":1,"indices":2,"attributes":{"POSITION":0,"TEXCOORD_0":1}},{"mode":4,"material":2,"indices":5,"attributes":{"POSITION":3,"TEXCOORD_0":4}}]}],"nodes":[{"name":"tile_0202.obj","children":[1]},{"name":"defaultobject","mesh":0}],"samplers":[{},{}],"scenes":[{"nodes":[0]}],"textures":[{"source":0,"sampler":0},{"source":1,"sampler":1}],"scene":0}
