{"asset":{"version":"2.0","generator":"Open Asset Import Library (assimp v6.0.0)"},"extensionsUsed":["KHR_materials_specular","KHR_materials_volume","KHR_materials_ior","FB_ngon_encoding"],"accessors":[{"bufferView":0,"byteOffset":0,"componentType":5126,"count":3319,"type":"VEC3","max":[1.0621380805969238,-0.46448230743408203,3.448880195617676],"min":[2.2250738585072014e-308,-0.8074216842651367,2.2250738585072014e-308]},{"bufferView":1,"byteOffset":0,"componentType":5126,"count":3319,"type":"VEC2","max":[0.9750194549560547,0.5399761199951172],"min":[2.2250738585072014e-308,2.2250738585072014e-308]},{"bufferView":2,"byteOffset":0,"componentType":5125,"count":15855,"type":"SCALAR","max":[3318],"min":[0]},{"bufferView":3,"byteOffset":0,"componentType":5126,"count":848,"type":"VEC3","max":[1.071568489074707,-0.5825112462043762,3.353639841079712],"min":[2.2250738585072014e-308,-0.8599990010261536,2.2250738585072014e-308]},{"bufferView":4,"byteOffset":0,"componentType":5126,"count":848,"type":"VEC2","max":[0.6601047515869141,0.5181350708007812],"min":[2.2250738585072014e-308,2.2250738585072014e-308]},{"bufferView":5,"byteOffset":0,"componentType":5125,"count":4443,"type":"SCALAR","max":[847],"min":[0]}],"buffers":[{"byteLength":164532,"uri":"tile_0405.bin"}],"bufferViews":[{"buffer":0,"byteOffset":0,"byteLength":39828,"target":34962},{"buffer":0,"byteOffset":39828,"byteLength":26552,"target":34962},{"buffer":0,"byteOffset":66380,"byteLength":63420,"target":34963},{"buffer":0,"byteOffset":129800,"byteLength":10176,"target":34962},{"buffer":0,"byteOffset":139976,"byteLength":6784,"target":34962},{"buffer":0,"byteOffset":146760,"byteLength":17772,"target":34963}],"images":[{"uri":"../textures/tile_0405_material_0.jpg"},{"uri":"../textures/tile_0405_material_1.jpg"}],"materials":[{"name":"DefaultMaterial","pbrMetallicRoughness":{"baseColorFactor":[0.6000000238418579,0.6000000238418579,0.6000000238418579,1.0],"metallicFactor":0.0},"extensions":{"KHR_materials_specular":{"specularFactor":1.0,"specularColorFactor":[0.0,0.0,0.0]},"KHR_materials_ior":{"ior":1.0}}},{"name":"material_0_material","pbrMetallicRoughness":{"baseColorTexture":{"index":0},"metallicFactor":0.0},"extensions":{"KHR_materials_specular":{"specularFactor":1.0,"specularColorFactor":[0.0,0.0,0.0]},"KHR_materials_ior":{"ior":1.0}}},{"name":"material_1_material","pbrMetallicRoughness":{"baseColorTexture":{"index":1},"metallicFactor":0.0},"extensions":{"KHR_materials_specular":{"specularFactor":1.0,"specularColorFactor":[0.0,0.0,0.0]},"KHR_materials_ior":{"ior":1.0}}}],"meshes":[{"name":"defaultobject","primitives":[{"mode":4,"material":1,"indices":2,"attributes":{"POSITION":0,"TEXCOORD_0":1}},{"mode":4,"material":2,"indices":5,"attributes":{"POSITION":3,"TEXCOORD_0":4}}]}],"nodes":[{"name":"tile_0405.obj","children":[1]},{"name":"defaultobject","mesh":0}],"samplers":[{},{}],"scenes":[{"nodes":[0]}],"textures":[{"source":0,"sampler":0},{"source":1,"sampler":1}],"scene":0}
