{"asset":{"version":"2.0","generator":"Open Asset Import Library (assimp v6.0.0)"},"extensionsUsed":["KHR_materials_specular","KHR_materials_volume","KHR_materials_ior","FB_ngon_encoding"],"accessors":[{"bufferView":0,"byteOffset":0,"componentType":5126,"count":3362,"type":"VEC3","max":[0.7620311379432678,-1.677772879600525,2.30410099029541],"min":[-0.1868809163570404,-1.9865760803222656,2.2250738585072014e-308]},{"bufferView":1,"byteOffset":0,"componentType":5126,"count":3362,"type":"VEC2","max":[0.9904749989509583,0.818634033203125],"min":[2.2250738585072014e-308,2.2250738585072014e-308]},{"bufferView":2,"byteOffset":0,"componentType":5125,"count":13902,"type":"SCALAR","max":[3361],"min":[0]},{"bufferView":3,"byteOffset":0,"componentType":5126,"count":1308,"type":"VEC3","max":[0.7007855176925659,-1.6797384023666382,2.3001744747161865],"min":[-0.12532396614551544,-1.9296048879623413,2.2250738585072014e-308]},{"bufferView":4,"byteOffset":0,"componentType":5126,"count":1308,"type":"VEC2","max":[0.5073809623718262,0.5022926330566406],"min":[2.2250738585072014e-308,2.2250738585072014e-308]},{"bufferView":5,"byteOffset":0,"componentType":5125,"count":6336,"type":"SCALAR","max":[1307],"min":[0]}],"buffers":[{"byteLength":174352,"uri":"tile_0379.bin"}],"bufferViews":[{"buffer":0,"byteOffset":0,"byteLength":40344,"target":34962},{"buffer":0,"byteOffset":40344,"byteLength":26896,"target":34962},{"buffer":0,"byteOffset":67240,"byteLength":55608,"target":34963},{"buffer":0,"byteOffset":122848,"byteLength":15696,"target":34962},{"buffer":0,"byteOffset":138544,"byteLength":10464,"target":34962},{"buffer":0,"byteOffset":149008,"byteLength":25344,"target":34963}],"images":[{"uri":"../textures/tile_0379_material_0.jpg"},{"uri":"../textures/tile_0379_material_1.jpg"}],"materials":[{"name":"DefaultMaterial","pbrMetallicRoughness":{"baseColorFactor":[0.6000000238418579,0.6000000238418579,0.6000000238418579,1.0],"metallicFactor":0.0},"extensions":{"KHR_materials_specular":{"specularFactor":1.0,"specularColorFactor":[0.0,0.0,0.0]},"KHR_materials_ior":{"ior":1.0}}},{"name":"material_0_material","pbrMetallicRoughness":{"baseColorTexture":{"index":0},"metallicFactor":0.0},"extensions":{"KHR_materials_specular":{"specularFactor":1.0,"specularColorFactor":[0.0,0.0,0.0]},"KHR_materials_ior":{"ior":1.0}}},{"name":"material_1_material","pbrMetallicRoughness":{"baseColorTexture":{"index":1},"metallicFactor":0.0},"extensions":{"KHR_materials_specular":{"specularFactor":1.0,"specularColorFactor":[0.0,0.0,0.0]},"KHR_materials_ior":{"ior":1.0}}}],"meshes":[{"name":"defaultobject","primitives":[{"mode":4,"material":1,"indices":2,"attributes":{"POSITION":0,"TEXCOORD_0":1}},{"mode":4,"material":2,"indices":5,"attributes":{"POSITION":3,"TEXCOORD_0":4}}]}],"nodes":[{"name":"tile_0379.obj","children":[1]},{"name":"defaultobject","mesh":0}],"samplers":[{},{}],"scenes":[{"nodes":[0]}],"textures":[{"source":0,"sampler":0},{"source":1,"sampler":1}],"scene":0}
