{"asset":{"version":"2.0","generator":"Open Asset Import Library (assimp v6.0.0)"},"extensionsUsed":["KHR_materials_specular","KHR_materials_volume","KHR_materials_ior","FB_ngon_encoding"],"accessors":[{"bufferView":0,"byteOffset":0,"componentType":5126,"count":11363,"type":"VEC3","max":[3.0181069374084473,1.5942262411117554,1.1004524230957031],"min":[2.2250738585072014e-308,2.2250738585072014e-308,2.2250738585072014e-308]},{"bufferView":1,"byteOffset":0,"componentType":5126,"count":11363,"type":"VEC2","max":[0.9939413070678711,0.7204227447509766],"min":[2.2250738585072014e-308,2.2250738585072014e-308]},{"bufferView":2,"byteOffset":0,"componentType":5125,"count":51033,"type":"SCALAR","max":[11362],"min":[0]},{"bufferView":3,"byteOffset":0,"componentType":5126,"count":2913,"type":"VEC3","max":[2.9908576011657715,1.5904568433761597,1.1238634586334229],"min":[2.2250738585072014e-308,2.2250738585072014e-308,2.2250738585072014e-308]},{"bufferView":4,"byteOffset":0,"componentType":5126,"count":2913,"type":"VEC2","max":[0.8350114822387695,0.7183113098144531],"min":[2.2250738585072014e-308,2.2250738585072014e-308]},{"bufferView":5,"byteOffset":0,"componentType":5125,"count":15183,"type":"SCALAR","max":[2912],"min":[0]}],"buffers":[{"byteLength":550384,"uri":"tile_0503.bin"}],"bufferViews":[{"buffer":0,"byteOffset":0,"byteLength":136356,"target":34962},{"buffer":0,"byteOffset":136356,"byteLength":90904,"target":34962},{"buffer":0,"byteOffset":227260,"byteLength":204132,"target":34963},{"buffer":0,"byteOffset":431392,"byteLength":34956,"target":34962},{"buffer":0,"byteOffset":466348,"byteLength":23304,"target":34962},{"buffer":0,"byteOffset":489652,"byteLength":60732,"target":34963}],"images":[{"uri":"../textures/tile_0503_material_0.jpg"},{"uri":"../textures/tile_0503_material_1.jpg"}],"materials":[{"name":"DefaultMaterial","pbrMetallicRoughness":{"baseColorFactor":[0.6000000238418579,0.6000000238418579,0.6000000238418579,1.0],"metallicFactor":0.0},"extensions":{"KHR_materials_specular":{"specularFactor":1.0,"specularColorFactor":[0.0,0.0,0.0]},"KHR_materials_ior":{"ior":1.0}}},{"name":"material_0_material","pbrMetallicRoughness":{"baseColorTexture":{"index":0},"metallicFactor":0.0},"extensions":{"KHR_materials_specular":{"specularFactor":1.0,"specularColorFactor":[0.0,0.0,0.0]},"KHR_materials_ior":{"ior":1.0}}},{"name":"material_1_material","pbrMetallicRoughness":{"baseColorTexture":{"index":1},"metallicFactor":0.0},"extensions":{"KHR_materials_specular":{"specularFactor":1.0,"specularColorFactor":[0.0,0.0,0.0]},"KHR_materials_ior":{"ior":1.0}}}],"meshes":[{"name":"defaultobject","primitives":[{"mode":4,"material":1,"indices":2,"attributes":{"POSITION":0,"TEXCOORD_0":1}},{"mode":4,"material":2,"indices":5,"attributes":{"POSITION":3,"TEXCOORD_0":4}}]}],"nodes":[{"name":"tile_0503.obj","children":[1]},{"name":"defaultobject","mesh":0}],"samplers":[{},{}],"scenes":[{"nodes":[0]}],"textures":[{"source":0,"sampler":0},{"source":1,"sampler":1}],"scene":0}
