{"asset":{"version":"2.0","generator":"Open Asset Import Library (assimp v6.0.0)"},"extensionsUsed":["KHR_materials_specular","KHR_materials_volume","KHR_materials_ior","FB_ngon_encoding"],"accessors":[{"bufferView":0,"byteOffset":0,"componentType":5126,"count":4574,"type":"VEC3","max":[0.1900729238986969,-1.1988317966461182,2.2530367374420166],"min":[-0.3850196301937103,-1.4190754890441895,2.2250738585072014e-308]},{"bufferView":1,"byteOffset":0,"componentType":5126,"count":4574,"type":"VEC2","max":[0.9897394180297852,0.6366920471191406],"min":[2.2250738585072014e-308,2.2250738585072014e-308]},{"bufferView":2,"byteOffset":0,"componentType":5125,"count":18765,"type":"SCALAR","max":[4573],"min":[0]},{"bufferView":3,"byteOffset":0,"componentType":5126,"count":311,"type":"VEC3","max":[0.1887594312429428,-1.283254623413086,2.2530367374420166],"min":[-0.04198065400123596,-1.4112768173217773,2.2250738585072014e-308]},{"bufferView":4,"byteOffset":0,"componentType":5126,"count":311,"type":"VEC2","max":[0.6557607650756836,0.5224418640136719],"min":[2.2250738585072014e-308,2.2250738585072014e-308]},{"bufferView":5,"byteOffset":0,"componentType":5125,"count":1563,"type":"SCALAR","max":[310],"min":[0]}],"buffers":[{"byteLength":179012,"uri":"tile_0042.bin"}],"bufferViews":[{"buffer":0,"byteOffset":0,"byteLength":54888,"target":34962},{"buffer":0,"byteOffset":54888,"byteLength":36592,"target":34962},{"buffer":0,"byteOffset":91480,"byteLength":75060,"target":34963},{"buffer":0,"byteOffset":166540,"byteLength":3732,"target":34962},{"buffer":0,"byteOffset":170272,"byteLength":2488,"target":34962},{"buffer":0,"byteOffset":172760,"byteLength":6252,"target":34963}],"images":[{"uri":"../textures/tile_0042_material_0.jpg"},{"uri":"../textures/tile_0042_material_1.jpg"}],"materials":[{"name":"DefaultMaterial","pbrMetallicRoughness":{"baseColorFactor":[0.6000000238418579,0.6000000238418579,0.6000000238418579,1.0],"metallicFactor":0.0},"extensions":{"KHR_materials_specular":{"specularFactor":1.0,"specularColorFactor":[0.0,0.0,0.0]},"KHR_materials_ior":{"ior":1.0}}},{"name":"material_0_material","pbrMetallicRoughness":{"baseColorTexture":{"index":0},"metallicFactor":0.0},"extensions":{"KHR_materials_specular":{"specularFactor":1.0,"specularColorFactor":[0.0,0.0,0.0]},"KHR_materials_ior":{"ior":1.0}}},{"name":"material_1_material","pbrMetallicRoughness":{"baseColorTexture":{"index":1},"metallicFactor":0.0},"extensions":{"KHR_materials_specular":{"specularFactor":1.0,"specularColorFactor":[0.0,0.0,0.0]},"KHR_materials_ior":{"ior":1.0}}}],"meshes":[{"name":"defaultobject","primitives":[{"mode":4,"material":1,"indices":2,"attributes":{"POSITION":0,"TEXCOORD_0":1}},{"mode":4,"material":2,"indices":5,"attributes":{"POSITION":3,"TEXCOORD_0":4}}]}],"nodes":[{"name":"tile_0042.obj","children":[1]},{"name":"defaultobject","mesh":0}],"samplers":[{},{}],"scenes":[{"nodes":[0]}],"textures":[{"source":0,"sampler":0},{"source":1,"sampler":1}],"scene":0}
