{"asset":{"version":"2.0","generator":"Open Asset Import Library (assimp v6.0.0)"},"extensionsUsed":["KHR_materials_specular","KHR_materials_volume","KHR_materials_ior","FB_ngon_encoding"],"accessors":[{"bufferView":0,"byteOffset":0,"componentType":5126,"count":15247,"type":"VEC3","max":[2.3370702266693115,0.8479122519493103,0.7744101285934448],"min":[2.2250738585072014e-308,2.2250738585072014e-308,2.2250738585072014e-308]},{"bufferView":1,"byteOffset":0,"componentType":5126,"count":15247,"type":"VEC2","max":[0.9949212074279785,0.7909860610961914],"min":[2.2250738585072014e-308,2.2250738585072014e-308]},{"bufferView":2,"byteOffset":0,"componentType":5125,"count":60924,"type":"SCALAR","max":[15246],"min":[0]},{"bufferView":3,"byteOffset":0,"componentType":5126,"count":1062,"type":"VEC3","max":[1.8426982164382935,0.8602592945098877,0.729236900806427],"min":[2.2250738585072014e-308,2.2250738585072014e-308,2.2250738585072014e-308]},{"bufferView":4,"byteOffset":0,"componentType":5126,"count":1062,"type":"VEC2","max":[0.6700401306152344,0.6188011169433594],"min":[2.2250738585072014e-308,2.2250738585072014e-308]},{"bufferView":5,"byteOffset":0,"componentType":5125,"count":4773,"type":"SCALAR","max":[1061],"min":[0]}],"buffers":[{"byteLength":588968,"uri":"tile_0109.bin"}],"bufferViews":[{"buffer":0,"byteOffset":0,"byteLength":182964,"target":34962},{"buffer":0,"byteOffset":182964,"byteLength":121976,"target":34962},{"buffer":0,"byteOffset":304940,"byteLength":243696,"target":34963},{"buffer":0,"byteOffset":548636,"byteLength":12744,"target":34962},{"buffer":0,"byteOffset":561380,"byteLength":8496,"target":34962},{"buffer":0,"byteOffset":569876,"byteLength":19092,"target":34963}],"images":[{"uri":"../textures/tile_0109_material_0.jpg"},{"uri":"../textures/tile_0109_material_1.jpg"}],"materials":[{"name":"DefaultMaterial","pbrMetallicRoughness":{"baseColorFactor":[0.6000000238418579,0.6000000238418579,0.6000000238418579,1.0],"metallicFactor":0.0},"extensions":{"KHR_materials_specular":{"specularFactor":1.0,"specularColorFactor":[0.0,0.0,0.0]},"KHR_materials_ior":{"ior":1.0}}},{"name":"material_0_material","pbrMetallicRoughness":{"baseColorTexture":{"index":0},"metallicFactor":0.0},"extensions":{"KHR_materials_specular":{"specularFactor":1.0,"specularColorFactor":[0.0,0.0,0.0]},"KHR_materials_ior":{"ior":1.0}}},{"name":"material_1_material","pbrMetallicRoughness":{"baseColorTexture":{"index":1},"metallicFactor":0.0},"extensions":{"KHR_materials_specular":{"specularFactor":1.0,"specularColorFactor":[0.0,0.0,0.0]},"KHR_materials_ior":{"ior":1.0}}}],"meshes":[{"name":"defaultobject","primitives":[{"mode":4,"material":1,"indices":2,"attributes":{"POSITION":0,"TEXCOORD_0":1}},{"mode":4,"material":2,"indices":5,"attributes":{"POSITION":3,"TEXCOORD_0":4}}]}],"nodes":[{"name":"tile_0109.obj","children":[1]},{"name":"defaultobject","mesh":0}],"samplers":[{},{}],"scenes":[{"nodes":[0]}],"textures":[{"source":0,"sampler":0},{"source":1,"sampler":1}],"scene":0}
