{"asset":{"version":"2.0","generator":"Open Asset Import Library (assimp v6.0.0)"},"extensionsUsed":["KHR_materials_specular","KHR_materials_volume","KHR_materials_ior","FB_ngon_encoding"],"accessors":[{"bufferView":0,"byteOffset":0,"componentType":5126,"count":4349,"type":"VEC3","max":[1.0672717094421387,-0.7358834147453308,3.412428855895996],"min":[-0.0033374009653925896,-1.030707836151123,2.2250738585072014e-308]},{"bufferView":1,"byteOffset":0,"componentType":5126,"count":4349,"type":"VEC2","max":[0.9868731498718262,0.9085750579833984],"min":[2.2250738585072014e-308,2.2250738585072014e-308]},{"bufferView":2,"byteOffset":0,"componentType":5125,"count":20475,"type":"SCALAR","max":[4348],"min":[0]},{"bufferView":3,"byteOffset":0,"componentType":5126,"count":1046,"type":"VEC3","max":[1.0691941976547241,-0.6727591753005981,3.359945297241211],"min":[-0.002674967749044299,-1.0262073278427124,2.2250738585072014e-308]},{"bufferView":4,"byteOffset":0,"componentType":5126,"count":1046,"type":"VEC2","max":[0.6581329703330994,0.6645545959472656],"min":[2.2250738585072014e-308,2.2250738585072014e-308]},{"bufferView":5,"byteOffset":0,"componentType":5125,"count":5163,"type":"SCALAR","max":[1045],"min":[0]}],"buffers":[{"byteLength":210452,"uri":"tile_0374.bin"}],"bufferViews":[{"buffer":0,"byteOffset":0,"byteLength":52188,"target":34962},{"buffer":0,"byteOffset":52188,"byteLength":34792,"target":34962},{"buffer":0,"byteOffset":86980,"byteLength":81900,"target":34963},{"buffer":0,"byteOffset":168880,"byteLength":12552,"target":34962},{"buffer":0,"byteOffset":181432,"byteLength":8368,"target":34962},{"buffer":0,"byteOffset":189800,"byteLength":20652,"target":34963}],"images":[{"uri":"../textures/tile_0374_material_0.jpg"},{"uri":"../textures/tile_0374_material_1.jpg"}],"materials":[{"name":"DefaultMaterial","pbrMetallicRoughness":{"baseColorFactor":[0.6000000238418579,0.6000000238418579,0.6000000238418579,1.0],"metallicFactor":0.0},"extensions":{"KHR_materials_specular":{"specularFactor":1.0,"specularColorFactor":[0.0,0.0,0.0]},"KHR_materials_ior":{"ior":1.0}}},{"name":"material_0_material","pbrMetallicRoughness":{"baseColorTexture":{"index":0},"metallicFactor":0.0},"extensions":{"KHR_materials_specular":{"specularFactor":1.0,"specularColorFactor":[0.0,0.0,0.0]},"KHR_materials_ior":{"ior":1.0}}},{"name":"material_1_material","pbrMetallicRoughness":{"baseColorTexture":{"index":1},"metallicFactor":0.0},"extensions":{"KHR_materials_specular":{"specularFactor":1.0,"specularColorFactor":[0.0,0.0,0.0]},"KHR_materials_ior":{"ior":1.0}}}],"meshes":[{"name":"defaultobject","primitives":[{"mode":4,"material":1,"indices":2,"attributes":{"POSITION":0,"TEXCOORD_0":1}},{"mode":4,"material":2,"indices":5,"attributes":{"POSITION":3,"TEXCOORD_0":4}}]}],"nodes":[{"name":"tile_0374.obj","children":[1]},{"name":"defaultobject","mesh":0}],"samplers":[{},{}],"scenes":[{"nodes":[0]}],"textures":[{"source":0,"sampler":0},{"source":1,"sampler":1}],"scene":0}
