{"asset":{"version":"2.0","generator":"Open Asset Import Library (assimp v6.0.0)"},"extensionsUsed":["KHR_materials_specular","KHR_materials_volume","KHR_materials_ior","FB_ngon_encoding"],"accessors":[{"bufferView":0,"byteOffset":0,"componentType":5126,"count":2652,"type":"VEC3","max":[2.18532657623291,-0.43011724948883057,1.7350850105285645],"min":[-0.2717379033565521,-0.540024995803833,2.2250738585072014e-308]},{"bufferView":1,"byteOffset":0,"componentType":5126,"count":2652,"type":"VEC2","max":[0.9921836853027344,0.5037326812744141],"min":[2.2250738585072014e-308,2.2250738585072014e-308]},{"bufferView":2,"byteOffset":0,"componentType":5125,"count":9903,"type":"SCALAR","max":[2651],"min":[0]},{"bufferView":3,"byteOffset":0,"componentType":5126,"count":1371,"type":"VEC3","max":[0.10364314913749695,-0.4361725449562073,1.7209270000457764],"min":[-0.25739580392837524,-0.5510843396186829,2.2250738585072014e-308]},{"bufferView":4,"byteOffset":0,"componentType":5126,"count":1371,"type":"VEC2","max":[0.5415501594543457,0.9131736755371094],"min":[2.2250738585072014e-308,2.2250738585072014e-308]},{"bufferView":5,"byteOffset":0,"componentType":5125,"count":6744,"type":"SCALAR","max":[1370],"min":[0]}],"buffers":[{"byteLength":147048,"uri":"tile_0473.bin"}],"bufferViews":[{"buffer":0,"byteOffset":0,"byteLength":31824,"target":34962},{"buffer":0,"byteOffset":31824,"byteLength":21216,"target":34962},{"buffer":0,"byteOffset":53040,"byteLength":39612,"target":34963},{"buffer":0,"byteOffset":92652,"byteLength":16452,"target":34962},{"buffer":0,"byteOffset":109104,"byteLength":10968,"target":34962},{"buffer":0,"byteOffset":120072,"byteLength":26976,"target":34963}],"images":[{"uri":"../textures/tile_0473_material_0.jpg"},{"uri":"../textures/tile_0473_material_1.jpg"}],"materials":[{"name":"DefaultMaterial","pbrMetallicRoughness":{"baseColorFactor":[0.6000000238418579,0.6000000238418579,0.6000000238418579,1.0],"metallicFactor":0.0},"extensions":{"KHR_materials_specular":{"specularFactor":1.0,"specularColorFactor":[0.0,0.0,0.0]},"KHR_materials_ior":{"ior":1.0}}},{"name":"material_0_material","pbrMetallicRoughness":{"baseColorTexture":{"index":0},"metallicFactor":0.0},"extensions":{"KHR_materials_specular":{"specularFactor":1.0,"specularColorFactor":[0.0,0.0,0.0]},"KHR_materials_ior":{"ior":1.0}}},{"name":"material_1_material","pbrMetallicRoughness":{"baseColorTexture":{"index":1},"metallicFactor":0.0},"extensions":{"KHR_materials_specular":{"specularFactor":1.0,"specularColorFactor":[0.0,0.0,0.0]},"KHR_materials_ior":{"ior":1.0}}}],"meshes":[{"name":"defaultobject","primitives":[{"mode":4,"material":1,"indices":2,"attributes":{"POSITION":0,"TEXCOORD_0":1}},{"mode":4,"material":2,"indices":5,"attributes":{"POSITION":3,"TEXCOORD_0":4}}]}],"nodes":[{"name":"tile_0473.obj","children":[1]},{"name":"defaultobject","mesh":0}],"samplers":[{},{}],"scenes":[{"nodes":[0]}],"textures":[{"source":0,"sampler":0},{"source":1,"sampler":1}],"scene":0}
