{"asset":{"version":"2.0","generator":"Open Asset Import Library (assimp v6.0.0)"},"extensionsUsed":["KHR_materials_specular","KHR_materials_volume","KHR_materials_ior","FB_ngon_encoding"],"accessors":[{"bufferView":0,"byteOffset":0,"componentType":5126,"count":5360,"type":"VEC3","max":[2.4744765758514404,-0.7447105646133423,1.3993059396743774],"min":[-0.14577840268611908,-0.9449247717857361,2.2250738585072014e-308]},{"bufferView":1,"byteOffset":0,"componentType":5126,"count":5360,"type":"VEC2","max":[0.9918642044067383,0.7107963562011719],"min":[2.2250738585072014e-308,2.2250738585072014e-308]},{"bufferView":2,"byteOffset":0,"componentType":5125,"count":23034,"type":"SCALAR","max":[5359],"min":[0]},{"bufferView":3,"byteOffset":0,"componentType":5126,"count":252,"type":"VEC3","max":[-0.07094576954841614,-0.785400390625,1.3225582838058472],"min":[-0.13070082664489746,-0.8616724014282227,2.2250738585072014e-308]},{"bufferView":4,"byteOffset":0,"componentType":5126,"count":252,"type":"VEC2","max":[0.9049987196922302,0.5529327392578125],"min":[2.2250738585072014e-308,2.2250738585072014e-308]},{"bufferView":5,"byteOffset":0,"componentType":5125,"count":1059,"type":"SCALAR","max":[251],"min":[0]}],"buffers":[{"byteLength":208612,"uri":"tile_0286.bin"}],"bufferViews":[{"buffer":0,"byteOffset":0,"byteLength":64320,"target":34962},{"buffer":0,"byteOffset":64320,"byteLength":42880,"target":34962},{"buffer":0,"byteOffset":107200,"byteLength":92136,"target":34963},{"buffer":0,"byteOffset":199336,"byteLength":3024,"target":34962},{"buffer":0,"byteOffset":202360,"byteLength":2016,"target":34962},{"buffer":0,"byteOffset":204376,"byteLength":4236,"target":34963}],"images":[{"uri":"../textures/tile_0286_material_0.jpg"},{"uri":"../textures/tile_0286_material_1.jpg"}],"materials":[{"name":"DefaultMaterial","pbrMetallicRoughness":{"baseColorFactor":[0.6000000238418579,0.6000000238418579,0.6000000238418579,1.0],"metallicFactor":0.0},"extensions":{"KHR_materials_specular":{"specularFactor":1.0,"specularColorFactor":[0.0,0.0,0.0]},"KHR_materials_ior":{"ior":1.0}}},{"name":"material_0_material","pbrMetallicRoughness":{"baseColorTexture":{"index":0},"metallicFactor":0.0},"extensions":{"KHR_materials_specular":{"specularFactor":1.0,"specularColorFactor":[0.0,0.0,0.0]},"KHR_materials_ior":{"ior":1.0}}},{"name":"material_1_material","pbrMetallicRoughness":{"baseColorTexture":{"index":1},"metallicFactor":0.0},"extensions":{"KHR_materials_specular":{"specularFactor":1.0,"specularColorFactor":[0.0,0.0,0.0]},"KHR_materials_ior":{"ior":1.0}}}],"meshes":[{"name":"defaultobject","primitives":[{"mode":4,"material":1,"indices":2,"attributes":{"POSITION":0,"TEXCOORD_0":1}},{"mode":4,"material":2,"indices":5,"attributes":{"POSITION":3,"TEXCOORD_0":4}}]}],"nodes":[{"name":"tile_0286.obj","children":[1]},{"name":"defaultobject","mesh":0}],"samplers":[{},{}],"scenes":[{"nodes":[0]}],"textures":[{"source":0,"sampler":0},{"source":1,"sampler":1}],"scene":0}
