{"asset":{"version":"2.0","generator":"Open Asset Import Library (assimp v6.0.0)"},"extensionsUsed":["KHR_materials_specular","KHR_materials_volume","KHR_materials_ior","FB_ngon_encoding"],"accessors":[{"bufferView":0,"byteOffset":0,"componentType":5126,"count":6914,"type":"VEC3","max":[3.218038558959961,0.15056154131889343,0.377896249294281],"min":[2.2250738585072014e-308,-0.06477342545986176,2.2250738585072014e-308]},{"bufferView":1,"byteOffset":0,"componentType":5126,"count":6914,"type":"VEC2","max":[0.9953370094299316,0.7962074279785156],"min":[2.2250738585072014e-308,2.2250738585072014e-308]},{"bufferView":2,"byteOffset":0,"componentType":5125,"count":27900,"type":"SCALAR","max":[6913],"min":[0]},{"bufferView":3,"byteOffset":0,"componentType":5126,"count":945,"type":"VEC3","max":[1.3054016828536987,0.1503446102142334,0.3798083961009979],"min":[2.2250738585072014e-308,-0.06347756832838058,2.2250738585072014e-308]},{"bufferView":4,"byteOffset":0,"componentType":5126,"count":945,"type":"VEC2","max":[0.9907083511352539,0.8659744262695312],"min":[2.2250738585072014e-308,2.2250738585072014e-308]},{"bufferView":5,"byteOffset":0,"componentType":5125,"count":4209,"type":"SCALAR","max":[944],"min":[0]}],"buffers":[{"byteLength":285616,"uri":"tile_0085.bin"}],"bufferViews":[{"buffer":0,"byteOffset":0,"byteLength":82968,"target":34962},{"buffer":0,"byteOffset":82968,"byteLength":55312,"target":34962},{"buffer":0,"byteOffset":138280,"byteLength":111600,"target":34963},{"buffer":0,"byteOffset":249880,"byteLength":11340,"target":34962},{"buffer":0,"byteOffset":261220,"byteLength":7560,"target":34962},{"buffer":0,"byteOffset":268780,"byteLength":16836,"target":34963}],"images":[{"uri":"../textures/tile_0085_material_0.jpg"},{"uri":"../textures/tile_0085_material_1.jpg"}],"materials":[{"name":"DefaultMaterial","pbrMetallicRoughness":{"baseColorFactor":[0.6000000238418579,0.6000000238418579,0.6000000238418579,1.0],"metallicFactor":0.0},"extensions":{"KHR_materials_specular":{"specularFactor":1.0,"specularColorFactor":[0.0,0.0,0.0]},"KHR_materials_ior":{"ior":1.0}}},{"name":"material_0_material","pbrMetallicRoughness":{"baseColorTexture":{"index":0},"metallicFactor":0.0},"extensions":{"KHR_materials_specular":{"specularFactor":1.0,"specularColorFactor":[0.0,0.0,0.0]},"KHR_materials_ior":{"ior":1.0}}},{"name":"material_1_material","pbrMetallicRoughness":{"baseColorTexture":{"index":1},"metallicFactor":0.0},"extensions":{"KHR_materials_specular":{"specularFactor":1.0,"specularColorFactor":[0.0,0.0,0.0]},"KHR_materials_ior":{"ior":1.0}}}],"meshes":[{"name":"defaultobject","primitives":[{"mode":4,"material":1,"indices":2,"attributes":{"POSITION":0,"TEXCOORD_0":1}},{"mode":4,"material":2,"indices":5,"attributes":{"POSITION":3,"TEXCOORD_0":4}}]}],"nodes":[{"name":"tile_0085.obj","children":[1]},{"name":"defaultobject","mesh":0}],"samplers":[{},{}],"scenes":[{"nodes":[0]}],"textures":[{"source":0,"sampler":0},{"source":1,"sampler":1}],"scene":0}
