{"asset":{"version":"2.0","generator":"Open Asset Import Library (assimp v6.0.0)"},"extensionsUsed":["KHR_materials_specular","KHR_materials_volume","KHR_materials_ior","FB_ngon_encoding"],"accessors":[{"bufferView":0,"byteOffset":0,"componentType":5126,"count":4581,"type":"VEC3","max":[1.8190326690673828,0.5988200306892395,2.455796241760254],"min":[2.2250738585072014e-308,2.2250738585072014e-308,2.2250738585072014e-308]},{"bufferView":1,"byteOffset":0,"componentType":5126,"count":4581,"type":"VEC2","max":[0.9909934997558594,0.6828765869140625],"min":[2.2250738585072014e-308,2.2250738585072014e-308]},{"bufferView":2,"byteOffset":0,"componentType":5125,"count":20121,"type":"SCALAR","max":[4580],"min":[0]},{"bufferView":3,"byteOffset":0,"componentType":5126,"count":5,"type":"VEC3","max":[0.980036199092865,0.6093929409980774,2.345632314682007],"min":[2.2250738585072014e-308,2.2250738585072014e-308,2.2250738585072014e-308]},{"bufferView":4,"byteOffset":0,"componentType":5126,"count":5,"type":"VEC2","max":[0.9459228515625,0.9294509887695312],"min":[2.2250738585072014e-308,2.2250738585072014e-308]},{"bufferView":5,"byteOffset":0,"componentType":5125,"count":9,"type":"SCALAR","max":[4],"min":[0]}],"buffers":[{"byteLength":172240,"uri":"tile_0066.bin"}],"bufferViews":[{"buffer":0,"byteOffset":0,"byteLength":54972,"target":34962},{"buffer":0,"byteOffset":54972,"byteLength":36648,"target":34962},{"buffer":0,"byteOffset":91620,"byteLength":80484,"target":34963},{"buffer":0,"byteOffset":172104,"byteLength":60,"target":34962},{"buffer":0,"byteOffset":172164,"byteLength":40,"target":34962},{"buffer":0,"byteOffset":172204,"byteLength":36,"target":34963}],"images":[{"uri":"../textures/tile_0066_material_0.jpg"},{"uri":"../textures/tile_0066_material_1.jpg"}],"materials":[{"name":"DefaultMaterial","pbrMetallicRoughness":{"baseColorFactor":[0.6000000238418579,0.6000000238418579,0.6000000238418579,1.0],"metallicFactor":0.0},"extensions":{"KHR_materials_specular":{"specularFactor":1.0,"specularColorFactor":[0.0,0.0,0.0]},"KHR_materials_ior":{"ior":1.0}}},{"name":"material_0_material","pbrMetallicRoughness":{"baseColorTexture":{"index":0},"metallicFactor":0.0},"extensions":{"KHR_materials_specular":{"specularFactor":1.0,"specularColorFactor":[0.0,0.0,0.0]},"KHR_materials_ior":{"ior":1.0}}},{"name":"material_1_material","pbrMetallicRoughness":{"baseColorTexture":{"index":1},"metallicFactor":0.0},"extensions":{"KHR_materials_specular":{"specularFactor":1.0,"specularColorFactor":[0.0,0.0,0.0]},"KHR_materials_ior":{"ior":1.0}}}],"meshes":[{"name":"defaultobject","primitives":[{"mode":4,"material":1,"indices":2,"attributes":{"POSITION":0,"TEXCOORD_0":1}},{"mode":4,"material":2,"indices":5,"attributes":{"POSITION":3,"TEXCOORD_0":4}}]}],"nodes":[{"name":"tile_0066.obj","children":[1]},{"name":"defaultobject","mesh":0}],"samplers":[{},{}],"scenes":[{"nodes":[0]}],"textures":[{"source":0,"sampler":0},{"source":1,"sampler":1}],"scene":0}
