{"asset":{"version":"2.0","generator":"Open Asset Import Library (assimp v6.0.0)"},"extensionsUsed":["KHR_materials_specular","KHR_materials_volume","KHR_materials_ior","FB_ngon_encoding"],"accessors":[{"bufferView":0,"byteOffset":0,"componentType":5126,"count":5940,"type":"VEC3","max":[3.8241007328033447,-1.831853985786438,-0.254461407661438],"min":[2.2250738585072014e-308,-2.2704691886901855,-1.0725805759429932]},{"bufferView":1,"byteOffset":0,"componentType":5126,"count":5940,"type":"VEC2","max":[0.9948816299438477,0.9804573059082031],"min":[2.2250738585072014e-308,2.2250738585072014e-308]},{"bufferView":2,"byteOffset":0,"componentType":5125,"count":25503,"type":"SCALAR","max":[5939],"min":[0]},{"bufferView":3,"byteOffset":0,"componentType":5126,"count":2171,"type":"VEC3","max":[3.8251912593841553,-1.8348462581634521,-0.25599798560142517],"min":[2.2250738585072014e-308,-2.1869609355926514,-0.9140933156013489]},{"bufferView":4,"byteOffset":0,"componentType":5126,"count":2171,"type":"VEC2","max":[0.9410510063171387,0.5901908874511719],"min":[2.2250738585072014e-308,2.2250738585072014e-308]},{"bufferView":5,"byteOffset":0,"componentType":5125,"count":11223,"type":"SCALAR","max":[2170],"min":[0]}],"buffers":[{"byteLength":309124,"uri":"tile_0635.bin"}],"bufferViews":[{"buffer":0,"byteOffset":0,"byteLength":71280,"target":34962},{"buffer":0,"byteOffset":71280,"byteLength":47520,"target":34962},{"buffer":0,"byteOffset":118800,"byteLength":102012,"target":34963},{"buffer":0,"byteOffset":220812,"byteLength":26052,"target":34962},{"buffer":0,"byteOffset":246864,"byteLength":17368,"target":34962},{"buffer":0,"byteOffset":264232,"byteLength":44892,"target":34963}],"images":[{"uri":"../textures/tile_0635_material_0.jpg"},{"uri":"../textures/tile_0635_material_1.jpg"}],"materials":[{"name":"DefaultMaterial","pbrMetallicRoughness":{"baseColorFactor":[0.6000000238418579,0.6000000238418579,0.6000000238418579,1.0],"metallicFactor":0.0},"extensions":{"KHR_materials_specular":{"specularFactor":1.0,"specularColorFactor":[0.0,0.0,0.0]},"KHR_materials_ior":{"ior":1.0}}},{"name":"material_0_material","pbrMetallicRoughness":{"baseColorTexture":{"index":0},"metallicFactor":0.0},"extensions":{"KHR_materials_specular":{"specularFactor":1.0,"specularColorFactor":[0.0,0.0,0.0]},"KHR_materials_ior":{"ior":1.0}}},{"name":"material_1_material","pbrMetallicRoughness":{"baseColorTexture":{"index":1},"metallicFactor":0.0},"extensions":{"KHR_materials_specular":{"specularFactor":1.0,"specularColorFactor":[0.0,0.0,0.0]},"KHR_materials_ior":{"ior":1.0}}}],"meshes":[{"name":"defaultobject","primitives":[{"mode":4,"material":1,"indices":2,"attributes":{"POSITION":0,"TEXCOORD_0":1}},{"mode":4,"material":2,"indices":5,"attributes":{"POSITION":3,"TEXCOORD_0":4}}]}],"nodes":[{"name":"tile_0635.obj","children":[1]},{"name":"defaultobject","mesh":0}],"samplers":[{},{}],"scenes":[{"nodes":[0]}],"textures":[{"source":0,"sampler":0},{"source":1,"sampler":1}],"scene":0}
