{"asset":{"version":"2.0","generator":"Open Asset Import Library (assimp v6.0.0)"},"extensionsUsed":["KHR_materials_specular","KHR_materials_volume","KHR_materials_ior","FB_ngon_encoding"],"accessors":[{"bufferView":0,"byteOffset":0,"componentType":5126,"count":5349,"type":"VEC3","max":[-0.3804820775985718,-1.1451724767684937,1.9514648914337158],"min":[-0.4727567136287689,-1.3464066982269287,2.2250738585072014e-308]},{"bufferView":1,"byteOffset":0,"componentType":5126,"count":5349,"type":"VEC2","max":[0.9952428340911865,0.7929592132568359],"min":[2.2250738585072014e-308,2.2250738585072014e-308]},{"bufferView":2,"byteOffset":0,"componentType":5125,"count":20160,"type":"SCALAR","max":[5348],"min":[0]},{"bufferView":3,"byteOffset":0,"componentType":5126,"count":1067,"type":"VEC3","max":[-0.3804938793182373,-1.1457568407058716,1.950644612312317],"min":[-0.47267597913742065,-1.3452130556106567,2.2250738585072014e-308]},{"bufferView":4,"byteOffset":0,"componentType":5126,"count":1067,"type":"VEC2","max":[0.9726991653442383,0.9301681518554688],"min":[2.2250738585072014e-308,2.2250738585072014e-308]},{"bufferView":5,"byteOffset":0,"componentType":5125,"count":4455,"type":"SCALAR","max":[1066],"min":[0]}],"buffers":[{"byteLength":226780,"uri":"tile_0290.bin"}],"bufferViews":[{"buffer":0,"byteOffset":0,"byteLength":64188,"target":34962},{"buffer":0,"byteOffset":64188,"byteLength":42792,"target":34962},{"buffer":0,"byteOffset":106980,"byteLength":80640,"target":34963},{"buffer":0,"byteOffset":187620,"byteLength":12804,"target":34962},{"buffer":0,"byteOffset":200424,"byteLength":8536,"target":34962},{"buffer":0,"byteOffset":208960,"byteLength":17820,"target":34963}],"images":[{"uri":"../textures/tile_0290_material_0.jpg"},{"uri":"../textures/tile_0290_material_1.jpg"}],"materials":[{"name":"DefaultMaterial","pbrMetallicRoughness":{"baseColorFactor":[0.6000000238418579,0.6000000238418579,0.6000000238418579,1.0],"metallicFactor":0.0},"extensions":{"KHR_materials_specular":{"specularFactor":1.0,"specularColorFactor":[0.0,0.0,0.0]},"KHR_materials_ior":{"ior":1.0}}},{"name":"material_0_material","pbrMetallicRoughness":{"baseColorTexture":{"index":0},"metallicFactor":0.0},"extensions":{"KHR_materials_specular":{"specularFactor":1.0,"specularColorFactor":[0.0,0.0,0.0]},"KHR_materials_ior":{"ior":1.0}}},{"name":"material_1_material","pbrMetallicRoughness":{"baseColorTexture":{"index":1},"metallicFactor":0.0},"extensions":{"KHR_materials_specular":{"specularFactor":1.0,"specularColorFactor":[0.0,0.0,0.0]},"KHR_materials_ior":{"ior":1.0}}}],"meshes":[{"name":"defaultobject","primitives":[{"mode":4,"material":1,"indices":2,"attributes":{"POSITION":0,"TEXCOORD_0":1}},{"mode":4,"material":2,"indices":5,"attributes":{"POSITION":3,"TEXCOORD_0":4}}]}],"nodes":[{"name":"tile_0290.obj","children":[1]},{"name":"defaultobject","mesh":0}],"samplers":[{},{}],"scenes":[{"nodes":[0]}],"textures":[{"source":0,"sampler":0},{"source":1,"sampler":1}],"scene":0}
