{"asset":{"version":"2.0","generator":"Open Asset Import Library (assimp v6.0.0)"},"extensionsUsed":["KHR_materials_specular","KHR_materials_volume","KHR_materials_ior","FB_ngon_encoding"],"accessors":[{"bufferView":0,"byteOffset":0,"componentType":5126,"count":3214,"type":"VEC3","max":[-0.412868469953537,-0.53180330991745,2.4447522163391113],"min":[-0.44774144887924194,-0.7436679005622864,2.2250738585072014e-308]},{"bufferView":1,"byteOffset":0,"componentType":5126,"count":3214,"type":"VEC2","max":[0.9914693832397461,0.7589759826660156],"min":[2.2250738585072014e-308,2.2250738585072014e-308]},{"bufferView":2,"byteOffset":0,"componentType":5125,"count":14523,"type":"SCALAR","max":[3213],"min":[0]},{"bufferView":3,"byteOffset":0,"componentType":5126,"count":808,"type":"VEC3","max":[-0.41272780299186707,-0.5319916605949402,2.445152997970581],"min":[-0.44345712661743164,-0.7011671662330627,2.2250738585072014e-308]},{"bufferView":4,"byteOffset":0,"componentType":5126,"count":808,"type":"VEC2","max":[0.7202587127685547,0.6311683654785156],"min":[2.2250738585072014e-308,2.2250738585072014e-308]},{"bufferView":5,"byteOffset":0,"componentType":5125,"count":4008,"type":"SCALAR","max":[807],"min":[0]}],"buffers":[{"byteLength":154564,"uri":"tile_0056.bin"}],"bufferViews":[{"buffer":0,"byteOffset":0,"byteLength":38568,"target":34962},{"buffer":0,"byteOffset":38568,"byteLength":25712,"target":34962},{"buffer":0,"byteOffset":64280,"byteLength":58092,"target":34963},{"buffer":0,"byteOffset":122372,"byteLength":9696,"target":34962},{"buffer":0,"byteOffset":132068,"byteLength":6464,"target":34962},{"buffer":0,"byteOffset":138532,"byteLength":16032,"target":34963}],"images":[{"uri":"../textures/tile_0056_material_0.jpg"},{"uri":"../textures/tile_0056_material_1.jpg"}],"materials":[{"name":"DefaultMaterial","pbrMetallicRoughness":{"baseColorFactor":[0.6000000238418579,0.6000000238418579,0.6000000238418579,1.0],"metallicFactor":0.0},"extensions":{"KHR_materials_specular":{"specularFactor":1.0,"specularColorFactor":[0.0,0.0,0.0]},"KHR_materials_ior":{"ior":1.0}}},{"name":"material_0_material","pbrMetallicRoughness":{"baseColorTexture":{"index":0},"metallicFactor":0.0},"extensions":{"KHR_materials_specular":{"specularFactor":1.0,"specularColorFactor":[0.0,0.0,0.0]},"KHR_materials_ior":{"ior":1.0}}},{"name":"material_1_material","pbrMetallicRoughness":{"baseColorTexture":{"index":1},"metallicFactor":0.0},"extensions":{"KHR_materials_specular":{"specularFactor":1.0,"specularColorFactor":[0.0,0.0,0.0]},"KHR_materials_ior":{"ior":1.0}}}],"meshes":[{"name":"defaultobject","primitives":[{"mode":4,"material":1,"indices":2,"attributes":{"POSITION":0,"TEXCOORD_0":1}},{"mode":4,"material":2,"indices":5,"attributes":{"POSITION":3,"TEXCOORD_0":4}}]}],"nodes":[{"name":"tile_0056.obj","children":[1]},{"name":"defaultobject","mesh":0}],"samplers":[{},{}],"scenes":[{"nodes":[0]}],"textures":[{"source":0,"sampler":0},{"source":1,"sampler":1}],"scene":0}
