{"asset":{"version":"2.0","generator":"Open Asset Import Library (assimp v6.0.0)"},"extensionsUsed":["KHR_materials_specular","KHR_materials_volume","KHR_materials_ior","FB_ngon_encoding"],"accessors":[{"bufferView":0,"byteOffset":0,"componentType":5126,"count":5970,"type":"VEC3","max":[3.597372531890869,0.7127484679222107,0.05259310081601143],"min":[2.2250738585072014e-308,2.2250738585072014e-308,-0.03169483691453934]},{"bufferView":1,"byteOffset":0,"componentType":5126,"count":5970,"type":"VEC2","max":[0.9954395294189453,0.5976123809814453],"min":[2.2250738585072014e-308,2.2250738585072014e-308]},{"bufferView":2,"byteOffset":0,"componentType":5125,"count":21606,"type":"SCALAR","max":[5969],"min":[0]},{"bufferView":3,"byteOffset":0,"componentType":5126,"count":787,"type":"VEC3","max":[3.1023356914520264,0.7093855142593384,0.03834062069654465],"min":[2.2250738585072014e-308,2.2250738585072014e-308,-0.025439202785491943]},{"bufferView":4,"byteOffset":0,"componentType":5126,"count":787,"type":"VEC2","max":[0.8603935241699219,0.7741508483886719],"min":[2.2250738585072014e-308,2.2250738585072014e-308]},{"bufferView":5,"byteOffset":0,"componentType":5125,"count":3840,"type":"SCALAR","max":[786],"min":[0]}],"buffers":[{"byteLength":236924,"uri":"tile_0112.bin"}],"bufferViews":[{"buffer":0,"byteOffset":0,"byteLength":71640,"target":34962},{"buffer":0,"byteOffset":71640,"byteLength":47760,"target":34962},{"buffer":0,"byteOffset":119400,"byteLength":86424,"target":34963},{"buffer":0,"byteOffset":205824,"byteLength":9444,"target":34962},{"buffer":0,"byteOffset":215268,"byteLength":6296,"target":34962},{"buffer":0,"byteOffset":221564,"byteLength":15360,"target":34963}],"images":[{"uri":"../textures/tile_0112_material_0.jpg"},{"uri":"../textures/tile_0112_material_1.jpg"}],"materials":[{"name":"DefaultMaterial","pbrMetallicRoughness":{"baseColorFactor":[0.6000000238418579,0.6000000238418579,0.6000000238418579,1.0],"metallicFactor":0.0},"extensions":{"KHR_materials_specular":{"specularFactor":1.0,"specularColorFactor":[0.0,0.0,0.0]},"KHR_materials_ior":{"ior":1.0}}},{"name":"material_0_material","pbrMetallicRoughness":{"baseColorTexture":{"index":0},"metallicFactor":0.0},"extensions":{"KHR_materials_specular":{"specularFactor":1.0,"specularColorFactor":[0.0,0.0,0.0]},"KHR_materials_ior":{"ior":1.0}}},{"name":"material_1_material","pbrMetallicRoughness":{"baseColorTexture":{"index":1},"metallicFactor":0.0},"extensions":{"KHR_materials_specular":{"specularFactor":1.0,"specularColorFactor":[0.0,0.0,0.0]},"KHR_materials_ior":{"ior":1.0}}}],"meshes":[{"name":"defaultobject","primitives":[{"mode":4,"material":1,"indices":2,"attributes":{"POSITION":0,"TEXCOORD_0":1}},{"mode":4,"material":2,"indices":5,"attributes":{"POSITION":3,"TEXCOORD_0":4}}]}],"nodes":[{"name":"tile_0112.obj","children":[1]},{"name":"defaultobject","mesh":0}],"samplers":[{},{}],"scenes":[{"nodes":[0]}],"textures":[{"source":0,"sampler":0},{"source":1,"sampler":1}],"scene":0}
