{"asset":{"version":"2.0","generator":"Open Asset Import Library (assimp v6.0.0)"},"extensionsUsed":["KHR_materials_specular","KHR_materials_volume","KHR_materials_ior","FB_ngon_encoding"],"accessors":[{"bufferView":0,"byteOffset":0,"componentType":5126,"count":8297,"type":"VEC3","max":[3.0287961959838867,-0.1109367236495018,0.8098423480987549],"min":[2.2250738585072014e-308,-0.44192153215408325,2.2250738585072014e-308]},{"bufferView":1,"byteOffset":0,"componentType":5126,"count":8297,"type":"VEC2","max":[0.9955995082855225,0.9140243530273438],"min":[2.2250738585072014e-308,2.2250738585072014e-308]},{"bufferView":2,"byteOffset":0,"componentType":5125,"count":30651,"type":"SCALAR","max":[8296],"min":[0]},{"bufferView":3,"byteOffset":0,"componentType":5126,"count":6154,"type":"VEC3","max":[1.2922923564910889,-0.12197761237621307,0.8024892210960388],"min":[2.2250738585072014e-308,-0.44192153215408325,2.2250738585072014e-308]},{"bufferView":4,"byteOffset":0,"componentType":5126,"count":6154,"type":"VEC2","max":[0.9751925468444824,0.6140012741088867],"min":[2.2250738585072014e-308,2.2250738585072014e-308]},{"bufferView":5,"byteOffset":0,"componentType":5125,"count":31650,"type":"SCALAR","max":[6153],"min":[0]}],"buffers":[{"byteLength":538224,"uri":"tile_0074.bin"}],"bufferViews":[{"buffer":0,"byteOffset":0,"byteLength":99564,"target":34962},{"buffer":0,"byteOffset":99564,"byteLength":66376,"target":34962},{"buffer":0,"byteOffset":165940,"byteLength":122604,"target":34963},{"buffer":0,"byteOffset":288544,"byteLength":73848,"target":34962},{"buffer":0,"byteOffset":362392,"byteLength":49232,"target":34962},{"buffer":0,"byteOffset":411624,"byteLength":126600,"target":34963}],"images":[{"uri":"../textures/tile_0074_material_0.jpg"},{"uri":"../textures/tile_0074_material_1.jpg"}],"materials":[{"name":"DefaultMaterial","pbrMetallicRoughness":{"baseColorFactor":[0.6000000238418579,0.6000000238418579,0.6000000238418579,1.0],"metallicFactor":0.0},"extensions":{"KHR_materials_specular":{"specularFactor":1.0,"specularColorFactor":[0.0,0.0,0.0]},"KHR_materials_ior":{"ior":1.0}}},{"name":"material_0_material","pbrMetallicRoughness":{"baseColorTexture":{"index":0},"metallicFactor":0.0},"extensions":{"KHR_materials_specular":{"specularFactor":1.0,"specularColorFactor":[0.0,0.0,0.0]},"KHR_materials_ior":{"ior":1.0}}},{"name":"material_1_material","pbrMetallicRoughness":{"baseColorTexture":{"index":1},"metallicFactor":0.0},"extensions":{"KHR_materials_specular":{"specularFactor":1.0,"specularColorFactor":[0.0,0.0,0.0]},"KHR_materials_ior":{"ior":1.0}}}],"meshes":[{"name":"defaultobject","primitives":[{"mode":4,"material":1,"indices":2,"attributes":{"POSITION":0,"TEXCOORD_0":1}},{"mode":4,"material":2,"indices":5,"attributes":{"POSITION":3,"TEXCOORD_0":4}}]}],"nodes":[{"name":"tile_0074.obj","children":[1]},{"name":"defaultobject","mesh":0}],"samplers":[{},{}],"scenes":[{"nodes":[0]}],"textures":[{"source":0,"sampler":0},{"source":1,"sampler":1}],"scene":0}
