{"asset":{"version":"2.0","generator":"Open Asset Import Library (assimp v6.0.0)"},"extensionsUsed":["KHR_materials_specular","KHR_materials_volume","KHR_materials_ior","FB_ngon_encoding"],"accessors":[{"bufferView":0,"byteOffset":0,"componentType":5126,"count":6661,"type":"VEC3","max":[1.087878704071045,-2.903229236602783,2.150524139404297],"min":[2.2250738585072014e-308,-3.148378610610962,2.2250738585072014e-308]},{"bufferView":1,"byteOffset":0,"componentType":5126,"count":6661,"type":"VEC2","max":[0.9945969581604004,0.6210136413574219],"min":[2.2250738585072014e-308,2.2250738585072014e-308]},{"bufferView":2,"byteOffset":0,"componentType":5125,"count":24030,"type":"SCALAR","max":[6660],"min":[0]},{"bufferView":3,"byteOffset":0,"componentType":5126,"count":707,"type":"VEC3","max":[1.106821060180664,-2.981196880340576,2.1742284297943115],"min":[2.2250738585072014e-308,-3.1489293575286865,2.2250738585072014e-308]},{"bufferView":4,"byteOffset":0,"componentType":5126,"count":707,"type":"VEC2","max":[0.6504631042480469,0.5477371215820312],"min":[2.2250738585072014e-308,2.2250738585072014e-308]},{"bufferView":5,"byteOffset":0,"componentType":5125,"count":3648,"type":"SCALAR","max":[706],"min":[0]}],"buffers":[{"byteLength":258072,"uri":"tile_0254.bin"}],"bufferViews":[{"buffer":0,"byteOffset":0,"byteLength":79932,"target":34962},{"buffer":0,"byteOffset":79932,"byteLength":53288,"target":34962},{"buffer":0,"byteOffset":133220,"byteLength":96120,"target":34963},{"buffer":0,"byteOffset":229340,"byteLength":8484,"target":34962},{"buffer":0,"byteOffset":237824,"byteLength":5656,"target":34962},{"buffer":0,"byteOffset":243480,"byteLength":14592,"target":34963}],"images":[{"uri":"../textures/tile_0254_material_0.jpg"},{"uri":"../textures/tile_0254_material_1.jpg"}],"materials":[{"name":"DefaultMaterial","pbrMetallicRoughness":{"baseColorFactor":[0.6000000238418579,0.6000000238418579,0.6000000238418579,1.0],"metallicFactor":0.0},"extensions":{"KHR_materials_specular":{"specularFactor":1.0,"specularColorFactor":[0.0,0.0,0.0]},"KHR_materials_ior":{"ior":1.0}}},{"name":"material_0_material","pbrMetallicRoughness":{"baseColorTexture":{"index":0},"metallicFactor":0.0},"extensions":{"KHR_materials_specular":{"specularFactor":1.0,"specularColorFactor":[0.0,0.0,0.0]},"KHR_materials_ior":{"ior":1.0}}},{"name":"material_1_material","pbrMetallicRoughness":{"baseColorTexture":{"index":1},"metallicFactor":0.0},"extensions":{"KHR_materials_specular":{"specularFactor":1.0,"specularColorFactor":[0.0,0.0,0.0]},"KHR_materials_ior":{"ior":1.0}}}],"meshes":[{"name":"defaultobject","primitives":[{"mode":4,"material":1,"indices":2,"attributes":{"POSITION":0,"TEXCOORD_0":1}},{"mode":4,"material":2,"indices":5,"attributes":{"POSITION":3,"TEXCOORD_0":4}}]}],"nodes":[{"name":"tile_0254.obj","children":[1]},{"name":"defaultobject","mesh":0}],"samplers":[{},{}],"scenes":[{"nodes":[0]}],"textures":[{"source":0,"sampler":0},{"source":1,"sampler":1}],"scene":0}
