{"asset":{"version":"2.0","generator":"Open Asset Import Library (assimp v6.0.0)"},"extensionsUsed":["KHR_materials_specular","KHR_materials_volume","KHR_materials_ior","FB_ngon_encoding"],"accessors":[{"bufferView":0,"byteOffset":0,"componentType":5126,"count":13874,"type":"VEC3","max":[3.4087212085723877,1.3766472339630127,0.3784315586090088],"min":[2.2250738585072014e-308,2.2250738585072014e-308,2.2250738585072014e-308]},{"bufferView":1,"byteOffset":0,"componentType":5126,"count":13874,"type":"VEC2","max":[0.9950690269470215,0.6366634368896484],"min":[2.2250738585072014e-308,2.2250738585072014e-308]},{"bufferView":2,"byteOffset":0,"componentType":5125,"count":60465,"type":"SCALAR","max":[13873],"min":[0]},{"bufferView":3,"byteOffset":0,"componentType":5126,"count":1463,"type":"VEC3","max":[3.2084901332855225,1.371719241142273,0.37767183780670166],"min":[2.2250738585072014e-308,2.2250738585072014e-308,2.2250738585072014e-308]},{"bufferView":4,"byteOffset":0,"componentType":5126,"count":1463,"type":"VEC2","max":[0.5487565994262695,0.5079364776611328],"min":[2.2250738585072014e-308,2.2250738585072014e-308]},{"bufferView":5,"byteOffset":0,"componentType":5125,"count":7284,"type":"SCALAR","max":[1462],"min":[0]}],"buffers":[{"byteLength":577736,"uri":"tile_0102.bin"}],"bufferViews":[{"buffer":0,"byteOffset":0,"byteLength":166488,"target":34962},{"buffer":0,"byteOffset":166488,"byteLength":110992,"target":34962},{"buffer":0,"byteOffset":277480,"byteLength":241860,"target":34963},{"buffer":0,"byteOffset":519340,"byteLength":17556,"target":34962},{"buffer":0,"byteOffset":536896,"byteLength":11704,"target":34962},{"buffer":0,"byteOffset":548600,"byteLength":29136,"target":34963}],"images":[{"uri":"../textures/tile_0102_material_0.jpg"},{"uri":"../textures/tile_0102_material_1.jpg"}],"materials":[{"name":"DefaultMaterial","pbrMetallicRoughness":{"baseColorFactor":[0.6000000238418579,0.6000000238418579,0.6000000238418579,1.0],"metallicFactor":0.0},"extensions":{"KHR_materials_specular":{"specularFactor":1.0,"specularColorFactor":[0.0,0.0,0.0]},"KHR_materials_ior":{"ior":1.0}}},{"name":"material_0_material","pbrMetallicRoughness":{"baseColorTexture":{"index":0},"metallicFactor":0.0},"extensions":{"KHR_materials_specular":{"specularFactor":1.0,"specularColorFactor":[0.0,0.0,0.0]},"KHR_materials_ior":{"ior":1.0}}},{"name":"material_1_material","pbrMetallicRoughness":{"baseColorTexture":{"index":1},"metallicFactor":0.0},"extensions":{"KHR_materials_specular":{"specularFactor":1.0,"specularColorFactor":[0.0,0.0,0.0]},"KHR_materials_ior":{"ior":1.0}}}],"meshes":[{"name":"defaultobject","primitives":[{"mode":4,"material":1,"indices":2,"attributes":{"POSITION":0,"TEXCOORD_0":1}},{"mode":4,"material":2,"indices":5,"attributes":{"POSITION":3,"TEXCOORD_0":4}}]}],"nodes":[{"name":"tile_0102.obj","children":[1]},{"name":"defaultobject","mesh":0}],"samplers":[{},{}],"scenes":[{"nodes":[0]}],"textures":[{"source":0,"sampler":0},{"source":1,"sampler":1}],"scene":0}
