{"asset":{"version":"2.0","generator":"Open Asset Import Library (assimp v6.0.0)"},"extensionsUsed":["KHR_materials_specular","KHR_materials_volume","KHR_materials_ior","FB_ngon_encoding"],"accessors":[{"bufferView":0,"byteOffset":0,"componentType":5126,"count":4963,"type":"VEC3","max":[0.9447548985481262,-2.112797498703003,3.3194282054901123],"min":[2.2250738585072014e-308,-2.38576340675354,2.2250738585072014e-308]},{"bufferView":1,"byteOffset":0,"componentType":5126,"count":4963,"type":"VEC2","max":[0.9896841049194336,0.8188304901123047],"min":[2.2250738585072014e-308,2.2250738585072014e-308]},{"bufferView":2,"byteOffset":0,"componentType":5125,"count":21606,"type":"SCALAR","max":[4962],"min":[0]},{"bufferView":3,"byteOffset":0,"componentType":5126,"count":743,"type":"VEC3","max":[0.9516209959983826,-2.1421499252319336,3.3166403770446777],"min":[2.2250738585072014e-308,-2.387302875518799,2.2250738585072014e-308]},{"bufferView":4,"byteOffset":0,"componentType":5126,"count":743,"type":"VEC2","max":[0.6247124671936035,0.5862255096435547],"min":[2.2250738585072014e-308,2.2250738585072014e-308]},{"bufferView":5,"byteOffset":0,"componentType":5125,"count":3831,"type":"SCALAR","max":[742],"min":[0]}],"buffers":[{"byteLength":215868,"uri":"tile_0335.bin"}],"bufferViews":[{"buffer":0,"byteOffset":0,"byteLength":59556,"target":34962},{"buffer":0,"byteOffset":59556,"byteLength":39704,"target":34962},{"buffer":0,"byteOffset":99260,"byteLength":86424,"target":34963},{"buffer":0,"byteOffset":185684,"byteLength":8916,"target":34962},{"buffer":0,"byteOffset":194600,"byteLength":5944,"target":34962},{"buffer":0,"byteOffset":200544,"byteLength":15324,"target":34963}],"images":[{"uri":"../textures/tile_0335_material_0.jpg"},{"uri":"../textures/tile_0335_material_1.jpg"}],"materials":[{"name":"DefaultMaterial","pbrMetallicRoughness":{"baseColorFactor":[0.6000000238418579,0.6000000238418579,0.6000000238418579,1.0],"metallicFactor":0.0},"extensions":{"KHR_materials_specular":{"specularFactor":1.0,"specularColorFactor":[0.0,0.0,0.0]},"KHR_materials_ior":{"ior":1.0}}},{"name":"material_0_material","pbrMetallicRoughness":{"baseColorTexture":{"index":0},"metallicFactor":0.0},"extensions":{"KHR_materials_specular":{"specularFactor":1.0,"specularColorFactor":[0.0,0.0,0.0]},"KHR_materials_ior":{"ior":1.0}}},{"name":"material_1_material","pbrMetallicRoughness":{"baseColorTexture":{"index":1},"metallicFactor":0.0},"extensions":{"KHR_materials_specular":{"specularFactor":1.0,"specularColorFactor":[0.0,0.0,0.0]},"KHR_materials_ior":{"ior":1.0}}}],"meshes":[{"name":"defaultobject","primitives":[{"mode":4,"material":1,"indices":2,"attributes":{"POSITION":0,"TEXCOORD_0":1}},{"mode":4,"material":2,"indices":5,"attributes":{"POSITION":3,"TEXCOORD_0":4}}]}],"nodes":[{"name":"tile_0335.obj","children":[1]},{"name":"defaultobject","mesh":0}],"samplers":[{},{}],"scenes":[{"nodes":[0]}],"textures":[{"source":0,"sampler":0},{"source":1,"sampler":1}],"scene":0}
