{"asset":{"version":"2.0","generator":"Open Asset Import Library (assimp v6.0.0)"},"extensionsUsed":["KHR_materials_specular","KHR_materials_volume","KHR_materials_ior","FB_ngon_encoding"],"accessors":[{"bufferView":0,"byteOffset":0,"componentType":5126,"count":2891,"type":"VEC3","max":[1.9967093467712402,-0.3914731442928314,2.163241386413574],"min":[-0.4019743800163269,-0.5894995331764221,2.2250738585072014e-308]},{"bufferView":1,"byteOffset":0,"componentType":5126,"count":2891,"type":"VEC2","max":[0.9927096366882324,0.51422119140625],"min":[2.2250738585072014e-308,2.2250738585072014e-308]},{"bufferView":2,"byteOffset":0,"componentType":5125,"count":12192,"type":"SCALAR","max":[2890],"min":[0]},{"bufferView":3,"byteOffset":0,"componentType":5126,"count":2133,"type":"VEC3","max":[-0.26916828751564026,-0.438855916261673,2.147087574005127],"min":[-0.394288033246994,-0.5868334770202637,2.2250738585072014e-308]},{"bufferView":4,"byteOffset":0,"componentType":5126,"count":2133,"type":"VEC2","max":[0.5327578783035278,0.6853771209716797],"min":[2.2250738585072014e-308,2.2250738585072014e-308]},{"bufferView":5,"byteOffset":0,"componentType":5125,"count":10821,"type":"SCALAR","max":[2132],"min":[0]}],"buffers":[{"byteLength":192532,"uri":"tile_0391.bin"}],"bufferViews":[{"buffer":0,"byteOffset":0,"byteLength":34692,"target":34962},{"buffer":0,"byteOffset":34692,"byteLength":23128,"target":34962},{"buffer":0,"byteOffset":57820,"byteLength":48768,"target":34963},{"buffer":0,"byteOffset":106588,"byteLength":25596,"target":34962},{"buffer":0,"byteOffset":132184,"byteLength":17064,"target":34962},{"buffer":0,"byteOffset":149248,"byteLength":43284,"target":34963}],"images":[{"uri":"../textures/tile_0391_material_0.jpg"},{"uri":"../textures/tile_0391_material_1.jpg"}],"materials":[{"name":"DefaultMaterial","pbrMetallicRoughness":{"baseColorFactor":[0.6000000238418579,0.6000000238418579,0.6000000238418579,1.0],"metallicFactor":0.0},"extensions":{"KHR_materials_specular":{"specularFactor":1.0,"specularColorFactor":[0.0,0.0,0.0]},"KHR_materials_ior":{"ior":1.0}}},{"name":"material_0_material","pbrMetallicRoughness":{"baseColorTexture":{"index":0},"metallicFactor":0.0},"extensions":{"KHR_materials_specular":{"specularFactor":1.0,"specularColorFactor":[0.0,0.0,0.0]},"KHR_materials_ior":{"ior":1.0}}},{"name":"material_1_material","pbrMetallicRoughness":{"baseColorTexture":{"index":1},"metallicFactor":0.0},"extensions":{"KHR_materials_specular":{"specularFactor":1.0,"specularColorFactor":[0.0,0.0,0.0]},"KHR_materials_ior":{"ior":1.0}}}],"meshes":[{"name":"defaultobject","primitives":[{"mode":4,"material":1,"indices":2,"attributes":{"POSITION":0,"TEXCOORD_0":1}},{"mode":4,"material":2,"indices":5,"attributes":{"POSITION":3,"TEXCOORD_0":4}}]}],"nodes":[{"name":"tile_0391.obj","children":[1]},{"name":"defaultobject","mesh":0}],"samplers":[{},{}],"scenes":[{"nodes":[0]}],"textures":[{"source":0,"sampler":0},{"source":1,"sampler":1}],"scene":0}
