{"asset":{"version":"2.0","generator":"Open Asset Import Library (assimp v6.0.0)"},"extensionsUsed":["KHR_materials_specular","KHR_materials_volume","KHR_materials_ior","FB_ngon_encoding"],"accessors":[{"bufferView":0,"byteOffset":0,"componentType":5126,"count":3858,"type":"VEC3","max":[1.3705077171325684,-3.0505623817443848,1.9377436637878418],"min":[2.2250738585072014e-308,-3.372793197631836,2.2250738585072014e-308]},{"bufferView":1,"byteOffset":0,"componentType":5126,"count":3858,"type":"VEC2","max":[0.9958081245422363,0.5429191589355469],"min":[2.2250738585072014e-308,2.2250738585072014e-308]},{"bufferView":2,"byteOffset":0,"componentType":5125,"count":15702,"type":"SCALAR","max":[3857],"min":[0]},{"bufferView":3,"byteOffset":0,"componentType":5126,"count":828,"type":"VEC3","max":[1.2646636962890625,-3.105721950531006,1.935694932937622],"min":[2.2250738585072014e-308,-3.3714473247528076,2.2250738585072014e-308]},{"bufferView":4,"byteOffset":0,"componentType":5126,"count":828,"type":"VEC2","max":[0.7755918502807617,0.8106460571289062],"min":[2.2250738585072014e-308,2.2250738585072014e-308]},{"bufferView":5,"byteOffset":0,"componentType":5125,"count":3771,"type":"SCALAR","max":[827],"min":[0]}],"buffers":[{"byteLength":171612,"uri":"tile_0155.bin"}],"bufferViews":[{"buffer":0,"byteOffset":0,"byteLength":46296,"target":34962},{"buffer":0,"byteOffset":46296,"byteLength":30864,"target":34962},{"buffer":0,"byteOffset":77160,"byteLength":62808,"target":34963},{"buffer":0,"byteOffset":139968,"byteLength":9936,"target":34962},{"buffer":0,"byteOffset":149904,"byteLength":6624,"target":34962},{"buffer":0,"byteOffset":156528,"byteLength":15084,"target":34963}],"images":[{"uri":"../textures/tile_0155_material_0.jpg"},{"uri":"../textures/tile_0155_material_1.jpg"}],"materials":[{"name":"DefaultMaterial","pbrMetallicRoughness":{"baseColorFactor":[0.6000000238418579,0.6000000238418579,0.6000000238418579,1.0],"metallicFactor":0.0},"extensions":{"KHR_materials_specular":{"specularFactor":1.0,"specularColorFactor":[0.0,0.0,0.0]},"KHR_materials_ior":{"ior":1.0}}},{"name":"material_0_material","pbrMetallicRoughness":{"baseColorTexture":{"index":0},"metallicFactor":0.0},"extensions":{"KHR_materials_specular":{"specularFactor":1.0,"specularColorFactor":[0.0,0.0,0.0]},"KHR_materials_ior":{"ior":1.0}}},{"name":"material_1_material","pbrMetallicRoughness":{"baseColorTexture":{"index":1},"metallicFactor":0.0},"extensions":{"KHR_materials_specular":{"specularFactor":1.0,"specularColorFactor":[0.0,0.0,0.0]},"KHR_materials_ior":{"ior":1.0}}}],"meshes":[{"name":"defaultobject","primitives":[{"mode":4,"material":1,"indices":2,"attributes":{"POSITION":0,"TEXCOORD_0":1}},{"mode":4,"material":2,"indices":5,"attributes":{"POSITION":3,"TEXCOORD_0":4}}]}],"nodes":[{"name":"tile_0155.obj","children":[1]},{"name":"defaultobject","mesh":0}],"samplers":[{},{}],"scenes":[{"nodes":[0]}],"textures":[{"source":0,"sampler":0},{"source":1,"sampler":1}],"scene":0}
