{"asset":{"version":"2.0","generator":"Open Asset Import Library (assimp v6.0.0)"},"extensionsUsed":["KHR_materials_specular","KHR_materials_volume","KHR_materials_ior","FB_ngon_encoding"],"accessors":[{"bufferView":0,"byteOffset":0,"componentType":5126,"count":5727,"type":"VEC3","max":[3.510794162750244,0.14026685059070587,-0.06608385592699051],"min":[2.2250738585072014e-308,2.2250738585072014e-308,-0.12143504619598389]},{"bufferView":1,"byteOffset":0,"componentType":5126,"count":5727,"type":"VEC2","max":[0.9917511940002441,0.6953105926513672],"min":[2.2250738585072014e-308,2.2250738585072014e-308]},{"bufferView":2,"byteOffset":0,"componentType":5125,"count":21753,"type":"SCALAR","max":[5726],"min":[0]},{"bufferView":3,"byteOffset":0,"componentType":5126,"count":35,"type":"VEC3","max":[2.6348888874053955,0.13783849775791168,-0.09976080060005188],"min":[2.2250738585072014e-308,2.2250738585072014e-308,-0.11799078434705734]},{"bufferView":4,"byteOffset":0,"componentType":5126,"count":35,"type":"VEC2","max":[0.9121322631835938,0.7847594022750854],"min":[2.2250738585072014e-308,2.2250738585072014e-308]},{"bufferView":5,"byteOffset":0,"componentType":5125,"count":90,"type":"SCALAR","max":[34],"min":[0]}],"buffers":[{"byteLength":202612,"uri":"tile_0186.bin"}],"bufferViews":[{"buffer":0,"byteOffset":0,"byteLength":68724,"target":34962},{"buffer":0,"byteOffset":68724,"byteLength":45816,"target":34962},{"buffer":0,"byteOffset":114540,"byteLength":87012,"target":34963},{"buffer":0,"byteOffset":201552,"byteLength":420,"target":34962},{"buffer":0,"byteOffset":201972,"byteLength":280,"target":34962},{"buffer":0,"byteOffset":202252,"byteLength":360,"target":34963}],"images":[{"uri":"../textures/tile_0186_material_0.jpg"},{"uri":"../textures/tile_0186_material_1.jpg"}],"materials":[{"name":"DefaultMaterial","pbrMetallicRoughness":{"baseColorFactor":[0.6000000238418579,0.6000000238418579,0.6000000238418579,1.0],"metallicFactor":0.0},"extensions":{"KHR_materials_specular":{"specularFactor":1.0,"specularColorFactor":[0.0,0.0,0.0]},"KHR_materials_ior":{"ior":1.0}}},{"name":"material_0_material","pbrMetallicRoughness":{"baseColorTexture":{"index":0},"metallicFactor":0.0},"extensions":{"KHR_materials_specular":{"specularFactor":1.0,"specularColorFactor":[0.0,0.0,0.0]},"KHR_materials_ior":{"ior":1.0}}},{"name":"material_1_material","pbrMetallicRoughness":{"baseColorTexture":{"index":1},"metallicFactor":0.0},"extensions":{"KHR_materials_specular":{"specularFactor":1.0,"specularColorFactor":[0.0,0.0,0.0]},"KHR_materials_ior":{"ior":1.0}}}],"meshes":[{"name":"defaultobject","primitives":[{"mode":4,"material":1,"indices":2,"attributes":{"POSITION":0,"TEXCOORD_0":1}},{"mode":4,"material":2,"indices":5,"attributes":{"POSITION":3,"TEXCOORD_0":4}}]}],"nodes":[{"name":"tile_0186.obj","children":[1]},{"name":"defaultobject","mesh":0}],"samplers":[{},{}],"scenes":[{"nodes":[0]}],"textures":[{"source":0,"sampler":0},{"source":1,"sampler":1}],"scene":0}
