{"asset":{"version":"2.0","generator":"Open Asset Import Library (assimp v6.0.0)"},"extensionsUsed":["KHR_materials_specular","KHR_materials_volume","KHR_materials_ior","FB_ngon_encoding"],"accessors":[{"bufferView":0,"byteOffset":0,"componentType":5126,"count":17157,"type":"VEC3","max":[2.5284159183502197,-1.4997851848602295,1.1428776979446411],"min":[-0.17173507809638977,-1.8989436626434326,2.2250738585072014e-308]},{"bufferView":1,"byteOffset":0,"componentType":5126,"count":17157,"type":"VEC2","max":[0.9960269927978516,0.9413881301879883],"min":[2.2250738585072014e-308,2.2250738585072014e-308]},{"bufferView":2,"byteOffset":0,"componentType":5125,"count":67074,"type":"SCALAR","max":[17156],"min":[0]},{"bufferView":3,"byteOffset":0,"componentType":5126,"count":443,"type":"VEC3","max":[0.1425321400165558,-1.6889106035232544,1.1251282691955566],"min":[-0.01756027713418007,-1.7883074283599854,2.2250738585072014e-308]},{"bufferView":4,"byteOffset":0,"componentType":5126,"count":443,"type":"VEC2","max":[0.5022602081298828,0.5171680450439453],"min":[2.2250738585072014e-308,2.2250738585072014e-308]},{"bufferView":5,"byteOffset":0,"componentType":5125,"count":2208,"type":"SCALAR","max":[442],"min":[0]}],"buffers":[{"byteLength":629128,"uri":"tile_0206.bin"}],"bufferViews":[{"buffer":0,"byteOffset":0,"byteLength":205884,"target":34962},{"buffer":0,"byteOffset":205884,"byteLength":137256,"target":34962},{"buffer":0,"byteOffset":343140,"byteLength":268296,"target":34963},{"buffer":0,"byteOffset":611436,"byteLength":5316,"target":34962},{"buffer":0,"byteOffset":616752,"byteLength":3544,"target":34962},{"buffer":0,"byteOffset":620296,"byteLength":8832,"target":34963}],"images":[{"uri":"../textures/tile_0206_material_0.jpg"},{"uri":"../textures/tile_0206_material_1.jpg"}],"materials":[{"name":"DefaultMaterial","pbrMetallicRoughness":{"baseColorFactor":[0.6000000238418579,0.6000000238418579,0.6000000238418579,1.0],"metallicFactor":0.0},"extensions":{"KHR_materials_specular":{"specularFactor":1.0,"specularColorFactor":[0.0,0.0,0.0]},"KHR_materials_ior":{"ior":1.0}}},{"name":"material_0_material","pbrMetallicRoughness":{"baseColorTexture":{"index":0},"metallicFactor":0.0},"extensions":{"KHR_materials_specular":{"specularFactor":1.0,"specularColorFactor":[0.0,0.0,0.0]},"KHR_materials_ior":{"ior":1.0}}},{"name":"material_1_material","pbrMetallicRoughness":{"baseColorTexture":{"index":1},"metallicFactor":0.0},"extensions":{"KHR_materials_specular":{"specularFactor":1.0,"specularColorFactor":[0.0,0.0,0.0]},"KHR_materials_ior":{"ior":1.0}}}],"meshes":[{"name":"defaultobject","primitives":[{"mode":4,"material":1,"indices":2,"attributes":{"POSITION":0,"TEXCOORD_0":1}},{"mode":4,"material":2,"indices":5,"attributes":{"POSITION":3,"TEXCOORD_0":4}}]}],"nodes":[{"name":"tile_0206.obj","children":[1]},{"name":"defaultobject","mesh":0}],"samplers":[{},{}],"scenes":[{"nodes":[0]}],"textures":[{"source":0,"sampler":0},{"source":1,"sampler":1}],"scene":0}
