{"asset":{"version":"2.0","generator":"Open Asset Import Library (assimp v6.0.0)"},"extensionsUsed":["KHR_materials_specular","KHR_materials_volume","KHR_materials_ior","FB_ngon_encoding"],"accessors":[{"bufferView":0,"byteOffset":0,"componentType":5126,"count":10279,"type":"VEC3","max":[3.2169668674468994,0.12694156169891357,0.6463221311569214],"min":[2.2250738585072014e-308,-0.15908092260360718,2.2250738585072014e-308]},{"bufferView":1,"byteOffset":0,"componentType":5126,"count":10279,"type":"VEC2","max":[0.9957821369171143,0.6660137176513672],"min":[2.2250738585072014e-308,2.2250738585072014e-308]},{"bufferView":2,"byteOffset":0,"componentType":5125,"count":39165,"type":"SCALAR","max":[10278],"min":[0]},{"bufferView":3,"byteOffset":0,"componentType":5126,"count":4484,"type":"VEC3","max":[3.1072051525115967,0.13837075233459473,0.6286882758140564],"min":[2.2250738585072014e-308,-0.13220129907131195,2.2250738585072014e-308]},{"bufferView":4,"byteOffset":0,"componentType":5126,"count":4484,"type":"VEC2","max":[0.9751609563827515,0.83306884765625],"min":[2.2250738585072014e-308,2.2250738585072014e-308]},{"bufferView":5,"byteOffset":0,"componentType":5125,"count":23136,"type":"SCALAR","max":[4483],"min":[0]}],"buffers":[{"byteLength":544464,"uri":"tile_0457.bin"}],"bufferViews":[{"buffer":0,"byteOffset":0,"byteLength":123348,"target":34962},{"buffer":0,"byteOffset":123348,"byteLength":82232,"target":34962},{"buffer":0,"byteOffset":205580,"byteLength":156660,"target":34963},{"buffer":0,"byteOffset":362240,"byteLength":53808,"target":34962},{"buffer":0,"byteOffset":416048,"byteLength":35872,"target":34962},{"buffer":0,"byteOffset":451920,"byteLength":92544,"target":34963}],"images":[{"uri":"../textures/tile_0457_material_0.jpg"},{"uri":"../textures/tile_0457_material_1.jpg"}],"materials":[{"name":"DefaultMaterial","pbrMetallicRoughness":{"baseColorFactor":[0.6000000238418579,0.6000000238418579,0.6000000238418579,1.0],"metallicFactor":0.0},"extensions":{"KHR_materials_specular":{"specularFactor":1.0,"specularColorFactor":[0.0,0.0,0.0]},"KHR_materials_ior":{"ior":1.0}}},{"name":"material_0_material","pbrMetallicRoughness":{"baseColorTexture":{"index":0},"metallicFactor":0.0},"extensions":{"KHR_materials_specular":{"specularFactor":1.0,"specularColorFactor":[0.0,0.0,0.0]},"KHR_materials_ior":{"ior":1.0}}},{"name":"material_1_material","pbrMetallicRoughness":{"baseColorTexture":{"index":1},"metallicFactor":0.0},"extensions":{"KHR_materials_specular":{"specularFactor":1.0,"specularColorFactor":[0.0,0.0,0.0]},"KHR_materials_ior":{"ior":1.0}}}],"meshes":[{"name":"defaultobject","primitives":[{"mode":4,"material":1,"indices":2,"attributes":{"POSITION":0,"TEXCOORD_0":1}},{"mode":4,"material":2,"indices":5,"attributes":{"POSITION":3,"TEXCOORD_0":4}}]}],"nodes":[{"name":"tile_0457.obj","children":[1]},{"name":"defaultobject","mesh":0}],"samplers":[{},{}],"scenes":[{"nodes":[0]}],"textures":[{"source":0,"sampler":0},{"source":1,"sampler":1}],"scene":0}
