{"asset":{"version":"2.0","generator":"Open Asset Import Library (assimp v6.0.0)"},"extensionsUsed":["KHR_materials_specular","KHR_materials_volume","KHR_materials_ior","FB_ngon_encoding"],"accessors":[{"bufferView":0,"byteOffset":0,"componentType":5126,"count":4997,"type":"VEC3","max":[3.828267812728882,1.0954854488372803,-0.015364154241979122],"min":[2.2250738585072014e-308,2.2250738585072014e-308,-0.41806527972221375]},{"bufferView":1,"byteOffset":0,"componentType":5126,"count":4997,"type":"VEC2","max":[0.9925410747528076,0.60528564453125],"min":[2.2250738585072014e-308,2.2250738585072014e-308]},{"bufferView":2,"byteOffset":0,"componentType":5125,"count":18063,"type":"SCALAR","max":[4996],"min":[0]},{"bufferView":3,"byteOffset":0,"componentType":5126,"count":342,"type":"VEC3","max":[3.828815221786499,1.0948675870895386,-0.019196292385458946],"min":[2.2250738585072014e-308,2.2250738585072014e-308,-0.6494331955909729]},{"bufferView":4,"byteOffset":0,"componentType":5126,"count":342,"type":"VEC2","max":[0.8721036911010742,0.95037841796875],"min":[2.2250738585072014e-308,2.2250738585072014e-308]},{"bufferView":5,"byteOffset":0,"componentType":5125,"count":1458,"type":"SCALAR","max":[341],"min":[0]}],"buffers":[{"byteLength":184864,"uri":"tile_0543.bin"}],"bufferViews":[{"buffer":0,"byteOffset":0,"byteLength":59964,"target":34962},{"buffer":0,"byteOffset":59964,"byteLength":39976,"target":34962},{"buffer":0,"byteOffset":99940,"byteLength":72252,"target":34963},{"buffer":0,"byteOffset":172192,"byteLength":4104,"target":34962},{"buffer":0,"byteOffset":176296,"byteLength":2736,"target":34962},{"buffer":0,"byteOffset":179032,"byteLength":5832,"target":34963}],"images":[{"uri":"../textures/tile_0543_material_0.jpg"},{"uri":"../textures/tile_0543_material_1.jpg"}],"materials":[{"name":"DefaultMaterial","pbrMetallicRoughness":{"baseColorFactor":[0.6000000238418579,0.6000000238418579,0.6000000238418579,1.0],"metallicFactor":0.0},"extensions":{"KHR_materials_specular":{"specularFactor":1.0,"specularColorFactor":[0.0,0.0,0.0]},"KHR_materials_ior":{"ior":1.0}}},{"name":"material_0_material","pbrMetallicRoughness":{"baseColorTexture":{"index":0},"metallicFactor":0.0},"extensions":{"KHR_materials_specular":{"specularFactor":1.0,"specularColorFactor":[0.0,0.0,0.0]},"KHR_materials_ior":{"ior":1.0}}},{"name":"material_1_material","pbrMetallicRoughness":{"baseColorTexture":{"index":1},"metallicFactor":0.0},"extensions":{"KHR_materials_specular":{"specularFactor":1.0,"specularColorFactor":[0.0,0.0,0.0]},"KHR_materials_ior":{"ior":1.0}}}],"meshes":[{"name":"defaultobject","primitives":[{"mode":4,"material":1,"indices":2,"attributes":{"POSITION":0,"TEXCOORD_0":1}},{"mode":4,"material":2,"indices":5,"attributes":{"POSITION":3,"TEXCOORD_0":4}}]}],"nodes":[{"name":"tile_0543.obj","children":[1]},{"name":"defaultobject","mesh":0}],"samplers":[{},{}],"scenes":[{"nodes":[0]}],"textures":[{"source":0,"sampler":0},{"source":1,"sampler":1}],"scene":0}
