{"asset":{"version":"2.0","generator":"Open Asset Import Library (assimp v6.0.0)"},"extensionsUsed":["KHR_materials_specular","KHR_materials_volume","KHR_materials_ior","FB_ngon_encoding"],"accessors":[{"bufferView":0,"byteOffset":0,"componentType":5126,"count":3820,"type":"VEC3","max":[1.0893505811691284,0.39832359552383423,3.6506025791168213],"min":[2.2250738585072014e-308,2.2250738585072014e-308,2.2250738585072014e-308]},{"bufferView":1,"byteOffset":0,"componentType":5126,"count":3820,"type":"VEC2","max":[0.9959592819213867,0.7692489624023438],"min":[2.2250738585072014e-308,2.2250738585072014e-308]},{"bufferView":2,"byteOffset":0,"componentType":5125,"count":16173,"type":"SCALAR","max":[3819],"min":[0]},{"bufferView":3,"byteOffset":0,"componentType":5126,"count":595,"type":"VEC3","max":[1.02626633644104,0.39832359552383423,3.6426587104797363],"min":[2.2250738585072014e-308,2.2250738585072014e-308,2.2250738585072014e-308]},{"bufferView":4,"byteOffset":0,"componentType":5126,"count":595,"type":"VEC2","max":[0.5936517715454102,0.6992835998535156],"min":[2.2250738585072014e-308,2.2250738585072014e-308]},{"bufferView":5,"byteOffset":0,"componentType":5125,"count":2817,"type":"SCALAR","max":[594],"min":[0]}],"buffers":[{"byteLength":164260,"uri":"tile_0426.bin"}],"bufferViews":[{"buffer":0,"byteOffset":0,"byteLength":45840,"target":34962},{"buffer":0,"byteOffset":45840,"byteLength":30560,"target":34962},{"buffer":0,"byteOffset":76400,"byteLength":64692,"target":34963},{"buffer":0,"byteOffset":141092,"byteLength":7140,"target":34962},{"buffer":0,"byteOffset":148232,"byteLength":4760,"target":34962},{"buffer":0,"byteOffset":152992,"byteLength":11268,"target":34963}],"images":[{"uri":"../textures/tile_0426_material_0.jpg"},{"uri":"../textures/tile_0426_material_1.jpg"}],"materials":[{"name":"DefaultMaterial","pbrMetallicRoughness":{"baseColorFactor":[0.6000000238418579,0.6000000238418579,0.6000000238418579,1.0],"metallicFactor":0.0},"extensions":{"KHR_materials_specular":{"specularFactor":1.0,"specularColorFactor":[0.0,0.0,0.0]},"KHR_materials_ior":{"ior":1.0}}},{"name":"material_0_material","pbrMetallicRoughness":{"baseColorTexture":{"index":0},"metallicFactor":0.0},"extensions":{"KHR_materials_specular":{"specularFactor":1.0,"specularColorFactor":[0.0,0.0,0.0]},"KHR_materials_ior":{"ior":1.0}}},{"name":"material_1_material","pbrMetallicRoughness":{"baseColorTexture":{"index":1},"metallicFactor":0.0},"extensions":{"KHR_materials_specular":{"specularFactor":1.0,"specularColorFactor":[0.0,0.0,0.0]},"KHR_materials_ior":{"ior":1.0}}}],"meshes":[{"name":"defaultobject","primitives":[{"mode":4,"material":1,"indices":2,"attributes":{"POSITION":0,"TEXCOORD_0":1}},{"mode":4,"material":2,"indices":5,"attributes":{"POSITION":3,"TEXCOORD_0":4}}]}],"nodes":[{"name":"tile_0426.obj","children":[1]},{"name":"defaultobject","mesh":0}],"samplers":[{},{}],"scenes":[{"nodes":[0]}],"textures":[{"source":0,"sampler":0},{"source":1,"sampler":1}],"scene":0}
