{"asset":{"version":"2.0","generator":"Open Asset Import Library (assimp v6.0.0)"},"extensionsUsed":["KHR_materials_specular","KHR_materials_volume","KHR_materials_ior","FB_ngon_encoding"],"accessors":[{"bufferView":0,"byteOffset":0,"componentType":5126,"count":7181,"type":"VEC3","max":[2.9589781761169434,3.359279155731201,1.2064900398254395],"min":[2.2250738585072014e-308,2.2250738585072014e-308,2.2250738585072014e-308]},{"bufferView":1,"byteOffset":0,"componentType":5126,"count":7181,"type":"VEC2","max":[0.995368480682373,0.5112991333007812],"min":[2.2250738585072014e-308,2.2250738585072014e-308]},{"bufferView":2,"byteOffset":0,"componentType":5125,"count":29229,"type":"SCALAR","max":[7180],"min":[0]},{"bufferView":3,"byteOffset":0,"componentType":5126,"count":1185,"type":"VEC3","max":[2.960005283355713,3.359279155731201,1.1784183979034424],"min":[2.2250738585072014e-308,2.2250738585072014e-308,2.2250738585072014e-308]},{"bufferView":4,"byteOffset":0,"componentType":5126,"count":1185,"type":"VEC2","max":[0.715072512626648,0.6129093170166016],"min":[2.2250738585072014e-308,2.2250738585072014e-308]},{"bufferView":5,"byteOffset":0,"componentType":5125,"count":6315,"type":"SCALAR","max":[1184],"min":[0]}],"buffers":[{"byteLength":309496,"uri":"tile_0556.bin"}],"bufferViews":[{"buffer":0,"byteOffset":0,"byteLength":86172,"target":34962},{"buffer":0,"byteOffset":86172,"byteLength":57448,"target":34962},{"buffer":0,"byteOffset":143620,"byteLength":116916,"target":34963},{"buffer":0,"byteOffset":260536,"byteLength":14220,"target":34962},{"buffer":0,"byteOffset":274756,"byteLength":9480,"target":34962},{"buffer":0,"byteOffset":284236,"byteLength":25260,"target":34963}],"images":[{"uri":"../textures/tile_0556_material_0.jpg"},{"uri":"../textures/tile_0556_material_1.jpg"}],"materials":[{"name":"DefaultMaterial","pbrMetallicRoughness":{"baseColorFactor":[0.6000000238418579,0.6000000238418579,0.6000000238418579,1.0],"metallicFactor":0.0},"extensions":{"KHR_materials_specular":{"specularFactor":1.0,"specularColorFactor":[0.0,0.0,0.0]},"KHR_materials_ior":{"ior":1.0}}},{"name":"material_0_material","pbrMetallicRoughness":{"baseColorTexture":{"index":0},"metallicFactor":0.0},"extensions":{"KHR_materials_specular":{"specularFactor":1.0,"specularColorFactor":[0.0,0.0,0.0]},"KHR_materials_ior":{"ior":1.0}}},{"name":"material_1_material","pbrMetallicRoughness":{"baseColorTexture":{"index":1},"metallicFactor":0.0},"extensions":{"KHR_materials_specular":{"specularFactor":1.0,"specularColorFactor":[0.0,0.0,0.0]},"KHR_materials_ior":{"ior":1.0}}}],"meshes":[{"name":"defaultobject","primitives":[{"mode":4,"material":1,"indices":2,"attributes":{"POSITION":0,"TEXCOORD_0":1}},{"mode":4,"material":2,"indices":5,"attributes":{"POSITION":3,"TEXCOORD_0":4}}]}],"nodes":[{"name":"tile_0556.obj","children":[1]},{"name":"defaultobject","mesh":0}],"samplers":[{},{}],"scenes":[{"nodes":[0]}],"textures":[{"source":0,"sampler":0},{"source":1,"sampler":1}],"scene":0}
