{"asset":{"version":"2.0","generator":"Open Asset Import Library (assimp v6.0.0)"},"extensionsUsed":["KHR_materials_specular","KHR_materials_volume","KHR_materials_ior","FB_ngon_encoding"],"accessors":[{"bufferView":0,"byteOffset":0,"componentType":5126,"count":3900,"type":"VEC3","max":[3.2364118099212646,-0.6474782228469849,0.3769127428531647],"min":[2.2250738585072014e-308,-0.7748769521713257,2.2250738585072014e-308]},{"bufferView":1,"byteOffset":0,"componentType":5126,"count":3900,"type":"VEC2","max":[0.9919484853744507,0.5077114105224609],"min":[2.2250738585072014e-308,2.2250738585072014e-308]},{"bufferView":2,"byteOffset":0,"componentType":5125,"count":16218,"type":"SCALAR","max":[3899],"min":[0]},{"bufferView":3,"byteOffset":0,"componentType":5126,"count":865,"type":"VEC3","max":[0.8802085518836975,-0.6491630673408508,0.37473931908607483],"min":[2.2250738585072014e-308,-0.7727482914924622,2.2250738585072014e-308]},{"bufferView":4,"byteOffset":0,"componentType":5126,"count":865,"type":"VEC2","max":[0.7362651824951172,0.908721923828125],"min":[2.2250738585072014e-308,2.2250738585072014e-308]},{"bufferView":5,"byteOffset":0,"componentType":5125,"count":4575,"type":"SCALAR","max":[864],"min":[0]}],"buffers":[{"byteLength":178472,"uri":"tile_0470.bin"}],"bufferViews":[{"buffer":0,"byteOffset":0,"byteLength":46800,"target":34962},{"buffer":0,"byteOffset":46800,"byteLength":31200,"target":34962},{"buffer":0,"byteOffset":78000,"byteLength":64872,"target":34963},{"buffer":0,"byteOffset":142872,"byteLength":10380,"target":34962},{"buffer":0,"byteOffset":153252,"byteLength":6920,"target":34962},{"buffer":0,"byteOffset":160172,"byteLength":18300,"target":34963}],"images":[{"uri":"../textures/tile_0470_material_0.jpg"},{"uri":"../textures/tile_0470_material_1.jpg"}],"materials":[{"name":"DefaultMaterial","pbrMetallicRoughness":{"baseColorFactor":[0.6000000238418579,0.6000000238418579,0.6000000238418579,1.0],"metallicFactor":0.0},"extensions":{"KHR_materials_specular":{"specularFactor":1.0,"specularColorFactor":[0.0,0.0,0.0]},"KHR_materials_ior":{"ior":1.0}}},{"name":"material_0_material","pbrMetallicRoughness":{"baseColorTexture":{"index":0},"metallicFactor":0.0},"extensions":{"KHR_materials_specular":{"specularFactor":1.0,"specularColorFactor":[0.0,0.0,0.0]},"KHR_materials_ior":{"ior":1.0}}},{"name":"material_1_material","pbrMetallicRoughness":{"baseColorTexture":{"index":1},"metallicFactor":0.0},"extensions":{"KHR_materials_specular":{"specularFactor":1.0,"specularColorFactor":[0.0,0.0,0.0]},"KHR_materials_ior":{"ior":1.0}}}],"meshes":[{"name":"defaultobject","primitives":[{"mode":4,"material":1,"indices":2,"attributes":{"POSITION":0,"TEXCOORD_0":1}},{"mode":4,"material":2,"indices":5,"attributes":{"POSITION":3,"TEXCOORD_0":4}}]}],"nodes":[{"name":"tile_0470.obj","children":[1]},{"name":"defaultobject","mesh":0}],"samplers":[{},{}],"scenes":[{"nodes":[0]}],"textures":[{"source":0,"sampler":0},{"source":1,"sampler":1}],"scene":0}
