{"asset":{"version":"2.0","generator":"Open Asset Import Library (assimp v6.0.0)"},"extensionsUsed":["KHR_materials_specular","KHR_materials_volume","KHR_materials_ior","FB_ngon_encoding"],"accessors":[{"bufferView":0,"byteOffset":0,"componentType":5126,"count":8037,"type":"VEC3","max":[2.8731884956359863,3.3585476875305176,1.2650902271270752],"min":[2.2250738585072014e-308,2.2250738585072014e-308,2.2250738585072014e-308]},{"bufferView":1,"byteOffset":0,"componentType":5126,"count":8037,"type":"VEC2","max":[0.9940042495727539,0.8749809265136719],"min":[2.2250738585072014e-308,2.2250738585072014e-308]},{"bufferView":2,"byteOffset":0,"componentType":5125,"count":33978,"type":"SCALAR","max":[8036],"min":[0]},{"bufferView":3,"byteOffset":0,"componentType":5126,"count":1312,"type":"VEC3","max":[2.866668701171875,3.3585476875305176,1.3098444938659668],"min":[2.2250738585072014e-308,2.2250738585072014e-308,2.2250738585072014e-308]},{"bufferView":4,"byteOffset":0,"componentType":5126,"count":1312,"type":"VEC2","max":[0.5448770523071289,0.6416854858398438],"min":[2.2250738585072014e-308,2.2250738585072014e-308]},{"bufferView":5,"byteOffset":0,"componentType":5125,"count":6621,"type":"SCALAR","max":[1311],"min":[0]}],"buffers":[{"byteLength":349376,"uri":"tile_0554.bin"}],"bufferViews":[{"buffer":0,"byteOffset":0,"byteLength":96444,"target":34962},{"buffer":0,"byteOffset":96444,"byteLength":64296,"target":34962},{"buffer":0,"byteOffset":160740,"byteLength":135912,"target":34963},{"buffer":0,"byteOffset":296652,"byteLength":15744,"target":34962},{"buffer":0,"byteOffset":312396,"byteLength":10496,"target":34962},{"buffer":0,"byteOffset":322892,"byteLength":26484,"target":34963}],"images":[{"uri":"../textures/tile_0554_material_0.jpg"},{"uri":"../textures/tile_0554_material_1.jpg"}],"materials":[{"name":"DefaultMaterial","pbrMetallicRoughness":{"baseColorFactor":[0.6000000238418579,0.6000000238418579,0.6000000238418579,1.0],"metallicFactor":0.0},"extensions":{"KHR_materials_specular":{"specularFactor":1.0,"specularColorFactor":[0.0,0.0,0.0]},"KHR_materials_ior":{"ior":1.0}}},{"name":"material_0_material","pbrMetallicRoughness":{"baseColorTexture":{"index":0},"metallicFactor":0.0},"extensions":{"KHR_materials_specular":{"specularFactor":1.0,"specularColorFactor":[0.0,0.0,0.0]},"KHR_materials_ior":{"ior":1.0}}},{"name":"material_1_material","pbrMetallicRoughness":{"baseColorTexture":{"index":1},"metallicFactor":0.0},"extensions":{"KHR_materials_specular":{"specularFactor":1.0,"specularColorFactor":[0.0,0.0,0.0]},"KHR_materials_ior":{"ior":1.0}}}],"meshes":[{"name":"defaultobject","primitives":[{"mode":4,"material":1,"indices":2,"attributes":{"POSITION":0,"TEXCOORD_0":1}},{"mode":4,"material":2,"indices":5,"attributes":{"POSITION":3,"TEXCOORD_0":4}}]}],"nodes":[{"name":"tile_0554.obj","children":[1]},{"name":"defaultobject","mesh":0}],"samplers":[{},{}],"scenes":[{"nodes":[0]}],"textures":[{"source":0,"sampler":0},{"source":1,"sampler":1}],"scene":0}
