{"asset":{"version":"2.0","generator":"Open Asset Import Library (assimp v6.0.0)"},"extensionsUsed":["KHR_materials_specular","KHR_materials_volume","KHR_materials_ior","FB_ngon_encoding"],"accessors":[{"bufferView":0,"byteOffset":0,"componentType":5126,"count":3504,"type":"VEC3","max":[1.3318476676940918,-1.6612474918365479,2.648773431777954],"min":[-0.03505297750234604,-1.9958796501159668,2.2250738585072014e-308]},{"bufferView":1,"byteOffset":0,"componentType":5126,"count":3504,"type":"VEC2","max":[0.9844861030578613,0.5670833587646484],"min":[2.2250738585072014e-308,2.2250738585072014e-308]},{"bufferView":2,"byteOffset":0,"componentType":5125,"count":16350,"type":"SCALAR","max":[3503],"min":[0]},{"bufferView":3,"byteOffset":0,"componentType":5126,"count":1966,"type":"VEC3","max":[0.7613714933395386,-1.6610379219055176,2.613304615020752],"min":[-0.03386877104640007,-1.8044921159744263,2.2250738585072014e-308]},{"bufferView":4,"byteOffset":0,"componentType":5126,"count":1966,"type":"VEC2","max":[0.5697951316833496,0.5230255126953125],"min":[2.2250738585072014e-308,2.2250738585072014e-308]},{"bufferView":5,"byteOffset":0,"componentType":5125,"count":9987,"type":"SCALAR","max":[1965],"min":[0]}],"buffers":[{"byteLength":214748,"uri":"tile_0356.bin"}],"bufferViews":[{"buffer":0,"byteOffset":0,"byteLength":42048,"target":34962},{"buffer":0,"byteOffset":42048,"byteLength":28032,"target":34962},{"buffer":0,"byteOffset":70080,"byteLength":65400,"target":34963},{"buffer":0,"byteOffset":135480,"byteLength":23592,"target":34962},{"buffer":0,"byteOffset":159072,"byteLength":15728,"target":34962},{"buffer":0,"byteOffset":174800,"byteLength":39948,"target":34963}],"images":[{"uri":"../textures/tile_0356_material_0.jpg"},{"uri":"../textures/tile_0356_material_1.jpg"}],"materials":[{"name":"DefaultMaterial","pbrMetallicRoughness":{"baseColorFactor":[0.6000000238418579,0.6000000238418579,0.6000000238418579,1.0],"metallicFactor":0.0},"extensions":{"KHR_materials_specular":{"specularFactor":1.0,"specularColorFactor":[0.0,0.0,0.0]},"KHR_materials_ior":{"ior":1.0}}},{"name":"material_0_material","pbrMetallicRoughness":{"baseColorTexture":{"index":0},"metallicFactor":0.0},"extensions":{"KHR_materials_specular":{"specularFactor":1.0,"specularColorFactor":[0.0,0.0,0.0]},"KHR_materials_ior":{"ior":1.0}}},{"name":"material_1_material","pbrMetallicRoughness":{"baseColorTexture":{"index":1},"metallicFactor":0.0},"extensions":{"KHR_materials_specular":{"specularFactor":1.0,"specularColorFactor":[0.0,0.0,0.0]},"KHR_materials_ior":{"ior":1.0}}}],"meshes":[{"name":"defaultobject","primitives":[{"mode":4,"material":1,"indices":2,"attributes":{"POSITION":0,"TEXCOORD_0":1}},{"mode":4,"material":2,"indices":5,"attributes":{"POSITION":3,"TEXCOORD_0":4}}]}],"nodes":[{"name":"tile_0356.obj","children":[1]},{"name":"defaultobject","mesh":0}],"samplers":[{},{}],"scenes":[{"nodes":[0]}],"textures":[{"source":0,"sampler":0},{"source":1,"sampler":1}],"scene":0}
