{"asset":{"version":"2.0","generator":"Open Asset Import Library (assimp v6.0.0)"},"extensionsUsed":["KHR_materials_specular","KHR_materials_volume","KHR_materials_ior","FB_ngon_encoding"],"accessors":[{"bufferView":0,"byteOffset":0,"componentType":5126,"count":5050,"type":"VEC3","max":[2.087367057800293,2.3786280155181885,2.1299355030059814],"min":[2.2250738585072014e-308,2.2250738585072014e-308,2.2250738585072014e-308]},{"bufferView":1,"byteOffset":0,"componentType":5126,"count":5050,"type":"VEC2","max":[0.9882421493530273,0.6437969207763672],"min":[2.2250738585072014e-308,2.2250738585072014e-308]},{"bufferView":2,"byteOffset":0,"componentType":5125,"count":22116,"type":"SCALAR","max":[5049],"min":[0]},{"bufferView":3,"byteOffset":0,"componentType":5126,"count":206,"type":"VEC3","max":[2.037780284881592,2.3792905807495117,2.127028703689575],"min":[2.2250738585072014e-308,2.2250738585072014e-308,2.2250738585072014e-308]},{"bufferView":4,"byteOffset":0,"componentType":5126,"count":206,"type":"VEC2","max":[0.8102226257324219,0.722442626953125],"min":[2.2250738585072014e-308,2.2250738585072014e-308]},{"bufferView":5,"byteOffset":0,"componentType":5125,"count":882,"type":"SCALAR","max":[205],"min":[0]}],"buffers":[{"byteLength":197112,"uri":"tile_0131.bin"}],"bufferViews":[{"buffer":0,"byteOffset":0,"byteLength":60600,"target":34962},{"buffer":0,"byteOffset":60600,"byteLength":40400,"target":34962},{"buffer":0,"byteOffset":101000,"byteLength":88464,"target":34963},{"buffer":0,"byteOffset":189464,"byteLength":2472,"target":34962},{"buffer":0,"byteOffset":191936,"byteLength":1648,"target":34962},{"buffer":0,"byteOffset":193584,"byteLength":3528,"target":34963}],"images":[{"uri":"../textures/tile_0131_material_0.jpg"},{"uri":"../textures/tile_0131_material_1.jpg"}],"materials":[{"name":"DefaultMaterial","pbrMetallicRoughness":{"baseColorFactor":[0.6000000238418579,0.6000000238418579,0.6000000238418579,1.0],"metallicFactor":0.0},"extensions":{"KHR_materials_specular":{"specularFactor":1.0,"specularColorFactor":[0.0,0.0,0.0]},"KHR_materials_ior":{"ior":1.0}}},{"name":"material_0_material","pbrMetallicRoughness":{"baseColorTexture":{"index":0},"metallicFactor":0.0},"extensions":{"KHR_materials_specular":{"specularFactor":1.0,"specularColorFactor":[0.0,0.0,0.0]},"KHR_materials_ior":{"ior":1.0}}},{"name":"material_1_material","pbrMetallicRoughness":{"baseColorTexture":{"index":1},"metallicFactor":0.0},"extensions":{"KHR_materials_specular":{"specularFactor":1.0,"specularColorFactor":[0.0,0.0,0.0]},"KHR_materials_ior":{"ior":1.0}}}],"meshes":[{"name":"defaultobject","primitives":[{"mode":4,"material":1,"indices":2,"attributes":{"POSITION":0,"TEXCOORD_0":1}},{"mode":4,"material":2,"indices":5,"attributes":{"POSITION":3,"TEXCOORD_0":4}}]}],"nodes":[{"name":"tile_0131.obj","children":[1]},{"name":"defaultobject","mesh":0}],"samplers":[{},{}],"scenes":[{"nodes":[0]}],"textures":[{"source":0,"sampler":0},{"source":1,"sampler":1}],"scene":0}
