{"asset":{"version":"2.0","generator":"Open Asset Import Library (assimp v6.0.0)"},"extensionsUsed":["KHR_materials_specular","KHR_materials_volume","KHR_materials_ior","FB_ngon_encoding"],"accessors":[{"bufferView":0,"byteOffset":0,"componentType":5126,"count":2648,"type":"VEC3","max":[3.82853364944458,-1.1673340797424316,-0.04505745694041252],"min":[2.2250738585072014e-308,-1.3377735614776611,-0.9836705923080444]},{"bufferView":1,"byteOffset":0,"componentType":5126,"count":2648,"type":"VEC2","max":[0.9904541969299316,0.49201202392578125],"min":[2.2250738585072014e-308,2.2250738585072014e-308]},{"bufferView":2,"byteOffset":0,"componentType":5125,"count":10704,"type":"SCALAR","max":[2647],"min":[0]},{"bufferView":3,"byteOffset":0,"componentType":5126,"count":629,"type":"VEC3","max":[3.82853364944458,-1.1708800792694092,-0.04834463447332382],"min":[2.2250738585072014e-308,-1.3133513927459717,-0.9536152482032776]},{"bufferView":4,"byteOffset":0,"componentType":5126,"count":629,"type":"VEC2","max":[0.6085891723632812,0.6937141418457031],"min":[2.2250738585072014e-308,2.2250738585072014e-308]},{"bufferView":5,"byteOffset":0,"componentType":5125,"count":3105,"type":"SCALAR","max":[628],"min":[0]}],"buffers":[{"byteLength":120776,"uri":"tile_0643.bin"}],"bufferViews":[{"buffer":0,"byteOffset":0,"byteLength":31776,"target":34962},{"buffer":0,"byteOffset":31776,"byteLength":21184,"target":34962},{"buffer":0,"byteOffset":52960,"byteLength":42816,"target":34963},{"buffer":0,"byteOffset":95776,"byteLength":7548,"target":34962},{"buffer":0,"byteOffset":103324,"byteLength":5032,"target":34962},{"buffer":0,"byteOffset":108356,"byteLength":12420,"target":34963}],"images":[{"uri":"../textures/tile_0643_material_0.jpg"},{"uri":"../textures/tile_0643_material_1.jpg"}],"materials":[{"name":"DefaultMaterial","pbrMetallicRoughness":{"baseColorFactor":[0.6000000238418579,0.6000000238418579,0.6000000238418579,1.0],"metallicFactor":0.0},"extensions":{"KHR_materials_specular":{"specularFactor":1.0,"specularColorFactor":[0.0,0.0,0.0]},"KHR_materials_ior":{"ior":1.0}}},{"name":"material_0_material","pbrMetallicRoughness":{"baseColorTexture":{"index":0},"metallicFactor":0.0},"extensions":{"KHR_materials_specular":{"specularFactor":1.0,"specularColorFactor":[0.0,0.0,0.0]},"KHR_materials_ior":{"ior":1.0}}},{"name":"material_1_material","pbrMetallicRoughness":{"baseColorTexture":{"index":1},"metallicFactor":0.0},"extensions":{"KHR_materials_specular":{"specularFactor":1.0,"specularColorFactor":[0.0,0.0,0.0]},"KHR_materials_ior":{"ior":1.0}}}],"meshes":[{"name":"defaultobject","primitives":[{"mode":4,"material":1,"indices":2,"attributes":{"POSITION":0,"TEXCOORD_0":1}},{"mode":4,"material":2,"indices":5,"attributes":{"POSITION":3,"TEXCOORD_0":4}}]}],"nodes":[{"name":"tile_0643.obj","children":[1]},{"name":"defaultobject","mesh":0}],"samplers":[{},{}],"scenes":[{"nodes":[0]}],"textures":[{"source":0,"sampler":0},{"source":1,"sampler":1}],"scene":0}
