{"asset":{"version":"2.0","generator":"Open Asset Import Library (assimp v6.0.0)"},"extensionsUsed":["KHR_materials_specular","KHR_materials_volume","KHR_materials_ior","FB_ngon_encoding"],"accessors":[{"bufferView":0,"byteOffset":0,"componentType":5126,"count":6250,"type":"VEC3","max":[3.4995968341827393,0.30492210388183594,0.045956727117300034],"min":[2.2250738585072014e-308,2.2250738585072014e-308,-0.028468230739235878]},{"bufferView":1,"byteOffset":0,"componentType":5126,"count":6250,"type":"VEC2","max":[0.9926948547363281,0.8900604248046875],"min":[2.2250738585072014e-308,2.2250738585072014e-308]},{"bufferView":2,"byteOffset":0,"componentType":5125,"count":24969,"type":"SCALAR","max":[6249],"min":[0]},{"bufferView":3,"byteOffset":0,"componentType":5126,"count":358,"type":"VEC3","max":[3.3993051052093506,0.3013916611671448,0.04689418524503708],"min":[2.2250738585072014e-308,2.2250738585072014e-308,-0.022880103439092636]},{"bufferView":4,"byteOffset":0,"componentType":5126,"count":358,"type":"VEC2","max":[0.9060115814208984,0.7116928100585938],"min":[2.2250738585072014e-308,2.2250738585072014e-308]},{"bufferView":5,"byteOffset":0,"componentType":5125,"count":1647,"type":"SCALAR","max":[357],"min":[0]}],"buffers":[{"byteLength":238624,"uri":"tile_0180.bin"}],"bufferViews":[{"buffer":0,"byteOffset":0,"byteLength":75000,"target":34962},{"buffer":0,"byteOffset":75000,"byteLength":50000,"target":34962},{"buffer":0,"byteOffset":125000,"byteLength":99876,"target":34963},{"buffer":0,"byteOffset":224876,"byteLength":4296,"target":34962},{"buffer":0,"byteOffset":229172,"byteLength":2864,"target":34962},{"buffer":0,"byteOffset":232036,"byteLength":6588,"target":34963}],"images":[{"uri":"../textures/tile_0180_material_0.jpg"},{"uri":"../textures/tile_0180_material_1.jpg"}],"materials":[{"name":"DefaultMaterial","pbrMetallicRoughness":{"baseColorFactor":[0.6000000238418579,0.6000000238418579,0.6000000238418579,1.0],"metallicFactor":0.0},"extensions":{"KHR_materials_specular":{"specularFactor":1.0,"specularColorFactor":[0.0,0.0,0.0]},"KHR_materials_ior":{"ior":1.0}}},{"name":"material_0_material","pbrMetallicRoughness":{"baseColorTexture":{"index":0},"metallicFactor":0.0},"extensions":{"KHR_materials_specular":{"specularFactor":1.0,"specularColorFactor":[0.0,0.0,0.0]},"KHR_materials_ior":{"ior":1.0}}},{"name":"material_1_material","pbrMetallicRoughness":{"baseColorTexture":{"index":1},"metallicFactor":0.0},"extensions":{"KHR_materials_specular":{"specularFactor":1.0,"specularColorFactor":[0.0,0.0,0.0]},"KHR_materials_ior":{"ior":1.0}}}],"meshes":[{"name":"defaultobject","primitives":[{"mode":4,"material":1,"indices":2,"attributes":{"POSITION":0,"TEXCOORD_0":1}},{"mode":4,"material":2,"indices":5,"attributes":{"POSITION":3,"TEXCOORD_0":4}}]}],"nodes":[{"name":"tile_0180.obj","children":[1]},{"name":"defaultobject","mesh":0}],"samplers":[{},{}],"scenes":[{"nodes":[0]}],"textures":[{"source":0,"sampler":0},{"source":1,"sampler":1}],"scene":0}
