{"asset":{"version":"2.0","generator":"Open Asset Import Library (assimp v6.0.0)"},"extensionsUsed":["KHR_materials_specular","KHR_materials_volume","KHR_materials_ior","FB_ngon_encoding"],"accessors":[{"bufferView":0,"byteOffset":0,"componentType":5126,"count":10740,"type":"VEC3","max":[1.8896613121032715,0.07832950353622437,2.646165132522583],"min":[-0.21634215116500854,-0.25351473689079285,2.2250738585072014e-308]},{"bufferView":1,"byteOffset":0,"componentType":5126,"count":10740,"type":"VEC2","max":[0.9927709102630615,0.6854991912841797],"min":[2.2250738585072014e-308,2.2250738585072014e-308]},{"bufferView":2,"byteOffset":0,"componentType":5125,"count":49443,"type":"SCALAR","max":[10739],"min":[0]},{"bufferView":3,"byteOffset":0,"componentType":5126,"count":1410,"type":"VEC3","max":[1.888693928718567,0.01025018934160471,2.6188950538635254],"min":[-0.009462261572480202,-0.23043836653232574,2.2250738585072014e-308]},{"bufferView":4,"byteOffset":0,"componentType":5126,"count":1410,"type":"VEC2","max":[0.7681534290313721,0.9394912719726562],"min":[2.2250738585072014e-308,2.2250738585072014e-308]},{"bufferView":5,"byteOffset":0,"componentType":5125,"count":7095,"type":"SCALAR","max":[1409],"min":[0]}],"buffers":[{"byteLength":469152,"uri":"tile_0055.bin"}],"bufferViews":[{"buffer":0,"byteOffset":0,"byteLength":128880,"target":34962},{"buffer":0,"byteOffset":128880,"byteLength":85920,"target":34962},{"buffer":0,"byteOffset":214800,"byteLength":197772,"target":34963},{"buffer":0,"byteOffset":412572,"byteLength":16920,"target":34962},{"buffer":0,"byteOffset":429492,"byteLength":11280,"target":34962},{"buffer":0,"byteOffset":440772,"byteLength":28380,"target":34963}],"images":[{"uri":"../textures/tile_0055_material_0.jpg"},{"uri":"../textures/tile_0055_material_1.jpg"}],"materials":[{"name":"DefaultMaterial","pbrMetallicRoughness":{"baseColorFactor":[0.6000000238418579,0.6000000238418579,0.6000000238418579,1.0],"metallicFactor":0.0},"extensions":{"KHR_materials_specular":{"specularFactor":1.0,"specularColorFactor":[0.0,0.0,0.0]},"KHR_materials_ior":{"ior":1.0}}},{"name":"material_0_material","pbrMetallicRoughness":{"baseColorTexture":{"index":0},"metallicFactor":0.0},"extensions":{"KHR_materials_specular":{"specularFactor":1.0,"specularColorFactor":[0.0,0.0,0.0]},"KHR_materials_ior":{"ior":1.0}}},{"name":"material_1_material","pbrMetallicRoughness":{"baseColorTexture":{"index":1},"metallicFactor":0.0},"extensions":{"KHR_materials_specular":{"specularFactor":1.0,"specularColorFactor":[0.0,0.0,0.0]},"KHR_materials_ior":{"ior":1.0}}}],"meshes":[{"name":"defaultobject","primitives":[{"mode":4,"material":1,"indices":2,"attributes":{"POSITION":0,"TEXCOORD_0":1}},{"mode":4,"material":2,"indices":5,"attributes":{"POSITION":3,"TEXCOORD_0":4}}]}],"nodes":[{"name":"tile_0055.obj","children":[1]},{"name":"defaultobject","mesh":0}],"samplers":[{},{}],"scenes":[{"nodes":[0]}],"textures":[{"source":0,"sampler":0},{"source":1,"sampler":1}],"scene":0}
