{"asset":{"version":"2.0","generator":"Open Asset Import Library (assimp v6.0.0)"},"extensionsUsed":["KHR_materials_specular","KHR_materials_volume","KHR_materials_ior","FB_ngon_encoding"],"accessors":[{"bufferView":0,"byteOffset":0,"componentType":5126,"count":15581,"type":"VEC3","max":[3.825147867202759,-0.42893555760383606,0.0743129774928093],"min":[2.2250738585072014e-308,-0.8044319748878479,-0.8719162344932556]},{"bufferView":1,"byteOffset":0,"componentType":5126,"count":15581,"type":"VEC2","max":[0.9960083961486816,0.7597637176513672],"min":[2.2250738585072014e-308,2.2250738585072014e-308]},{"bufferView":2,"byteOffset":0,"componentType":5125,"count":69312,"type":"SCALAR","max":[15580],"min":[0]},{"bufferView":3,"byteOffset":0,"componentType":5126,"count":573,"type":"VEC3","max":[3.7595555782318115,-0.4346824884414673,-0.22838927805423737],"min":[2.2250738585072014e-308,-0.7937288284301758,-0.7509331107139587]},{"bufferView":4,"byteOffset":0,"componentType":5126,"count":573,"type":"VEC2","max":[0.5751724243164062,0.8060989379882812],"min":[2.2250738585072014e-308,2.2250738585072014e-308]},{"bufferView":5,"byteOffset":0,"componentType":5125,"count":2712,"type":"SCALAR","max":[572],"min":[0]}],"buffers":[{"byteLength":611176,"uri":"tile_0188.bin"}],"bufferViews":[{"buffer":0,"byteOffset":0,"byteLength":186972,"target":34962},{"buffer":0,"byteOffset":186972,"byteLength":124648,"target":34962},{"buffer":0,"byteOffset":311620,"byteLength":277248,"target":34963},{"buffer":0,"byteOffset":588868,"byteLength":6876,"target":34962},{"buffer":0,"byteOffset":595744,"byteLength":4584,"target":34962},{"buffer":0,"byteOffset":600328,"byteLength":10848,"target":34963}],"images":[{"uri":"../textures/tile_0188_material_0.jpg"},{"uri":"../textures/tile_0188_material_1.jpg"}],"materials":[{"name":"DefaultMaterial","pbrMetallicRoughness":{"baseColorFactor":[0.6000000238418579,0.6000000238418579,0.6000000238418579,1.0],"metallicFactor":0.0},"extensions":{"KHR_materials_specular":{"specularFactor":1.0,"specularColorFactor":[0.0,0.0,0.0]},"KHR_materials_ior":{"ior":1.0}}},{"name":"material_0_material","pbrMetallicRoughness":{"baseColorTexture":{"index":0},"metallicFactor":0.0},"extensions":{"KHR_materials_specular":{"specularFactor":1.0,"specularColorFactor":[0.0,0.0,0.0]},"KHR_materials_ior":{"ior":1.0}}},{"name":"material_1_material","pbrMetallicRoughness":{"baseColorTexture":{"index":1},"metallicFactor":0.0},"extensions":{"KHR_materials_specular":{"specularFactor":1.0,"specularColorFactor":[0.0,0.0,0.0]},"KHR_materials_ior":{"ior":1.0}}}],"meshes":[{"name":"defaultobject","primitives":[{"mode":4,"material":1,"indices":2,"attributes":{"POSITION":0,"TEXCOORD_0":1}},{"mode":4,"material":2,"indices":5,"attributes":{"POSITION":3,"TEXCOORD_0":4}}]}],"nodes":[{"name":"tile_0188.obj","children":[1]},{"name":"defaultobject","mesh":0}],"samplers":[{},{}],"scenes":[{"nodes":[0]}],"textures":[{"source":0,"sampler":0},{"source":1,"sampler":1}],"scene":0}
