{"asset":{"version":"2.0","generator":"Open Asset Import Library (assimp v6.0.0)"},"extensionsUsed":["KHR_materials_specular","KHR_materials_volume","KHR_materials_ior","FB_ngon_encoding"],"accessors":[{"bufferView":0,"byteOffset":0,"componentType":5126,"count":3555,"type":"VEC3","max":[0.3700036406517029,-2.950340747833252,3.2547008991241455],"min":[-0.17722178995609283,-3.125124216079712,2.2250738585072014e-308]},{"bufferView":1,"byteOffset":0,"componentType":5126,"count":3555,"type":"VEC2","max":[0.9917392730712891,0.59344482421875],"min":[2.2250738585072014e-308,2.2250738585072014e-308]},{"bufferView":2,"byteOffset":0,"componentType":5125,"count":15471,"type":"SCALAR","max":[3554],"min":[0]},{"bufferView":3,"byteOffset":0,"componentType":5126,"count":104,"type":"VEC3","max":[0.31700319051742554,-2.99340558052063,3.2434732913970947],"min":[2.2250738585072014e-308,-3.1115520000457764,2.2250738585072014e-308]},{"bufferView":4,"byteOffset":0,"componentType":5126,"count":104,"type":"VEC2","max":[0.5332546234130859,0.6372146606445312],"min":[2.2250738585072014e-308,2.2250738585072014e-308]},{"bufferView":5,"byteOffset":0,"componentType":5125,"count":420,"type":"SCALAR","max":[103],"min":[0]}],"buffers":[{"byteLength":136744,"uri":"tile_0339.bin"}],"bufferViews":[{"buffer":0,"byteOffset":0,"byteLength":42660,"target":34962},{"buffer":0,"byteOffset":42660,"byteLength":28440,"target":34962},{"buffer":0,"byteOffset":71100,"byteLength":61884,"target":34963},{"buffer":0,"byteOffset":132984,"byteLength":1248,"target":34962},{"buffer":0,"byteOffset":134232,"byteLength":832,"target":34962},{"buffer":0,"byteOffset":135064,"byteLength":1680,"target":34963}],"images":[{"uri":"../textures/tile_0339_material_0.jpg"},{"uri":"../textures/tile_0339_material_1.jpg"}],"materials":[{"name":"DefaultMaterial","pbrMetallicRoughness":{"baseColorFactor":[0.6000000238418579,0.6000000238418579,0.6000000238418579,1.0],"metallicFactor":0.0},"extensions":{"KHR_materials_specular":{"specularFactor":1.0,"specularColorFactor":[0.0,0.0,0.0]},"KHR_materials_ior":{"ior":1.0}}},{"name":"material_0_material","pbrMetallicRoughness":{"baseColorTexture":{"index":0},"metallicFactor":0.0},"extensions":{"KHR_materials_specular":{"specularFactor":1.0,"specularColorFactor":[0.0,0.0,0.0]},"KHR_materials_ior":{"ior":1.0}}},{"name":"material_1_material","pbrMetallicRoughness":{"baseColorTexture":{"index":1},"metallicFactor":0.0},"extensions":{"KHR_materials_specular":{"specularFactor":1.0,"specularColorFactor":[0.0,0.0,0.0]},"KHR_materials_ior":{"ior":1.0}}}],"meshes":[{"name":"defaultobject","primitives":[{"mode":4,"material":1,"indices":2,"attributes":{"POSITION":0,"TEXCOORD_0":1}},{"mode":4,"material":2,"indices":5,"attributes":{"POSITION":3,"TEXCOORD_0":4}}]}],"nodes":[{"name":"tile_0339.obj","children":[1]},{"name":"defaultobject","mesh":0}],"samplers":[{},{}],"scenes":[{"nodes":[0]}],"textures":[{"source":0,"sampler":0},{"source":1,"sampler":1}],"scene":0}
