{"asset":{"version":"2.0","generator":"Open Asset Import Library (assimp v6.0.0)"},"extensionsUsed":["KHR_materials_specular","KHR_materials_volume","KHR_materials_ior","FB_ngon_encoding"],"accessors":[{"bufferView":0,"byteOffset":0,"componentType":5126,"count":3473,"type":"VEC3","max":[2.8004579544067383,3.356335401535034,1.4153800010681152],"min":[2.2250738585072014e-308,2.2250738585072014e-308,2.2250738585072014e-308]},{"bufferView":1,"byteOffset":0,"componentType":5126,"count":3473,"type":"VEC2","max":[0.9906959533691406,0.933441162109375],"min":[2.2250738585072014e-308,2.2250738585072014e-308]},{"bufferView":2,"byteOffset":0,"componentType":5125,"count":14472,"type":"SCALAR","max":[3472],"min":[0]},{"bufferView":3,"byteOffset":0,"componentType":5126,"count":1961,"type":"VEC3","max":[2.7873682975769043,3.3593082427978516,1.4477945566177368],"min":[2.2250738585072014e-308,2.2250738585072014e-308,2.2250738585072014e-308]},{"bufferView":4,"byteOffset":0,"componentType":5126,"count":1961,"type":"VEC2","max":[0.6570286750793457,0.7041358947753906],"min":[2.2250738585072014e-308,2.2250738585072014e-308]},{"bufferView":5,"byteOffset":0,"componentType":5125,"count":10110,"type":"SCALAR","max":[1960],"min":[0]}],"buffers":[{"byteLength":207008,"uri":"tile_0555.bin"}],"bufferViews":[{"buffer":0,"byteOffset":0,"byteLength":41676,"target":34962},{"buffer":0,"byteOffset":41676,"byteLength":27784,"target":34962},{"buffer":0,"byteOffset":69460,"byteLength":57888,"target":34963},{"buffer":0,"byteOffset":127348,"byteLength":23532,"target":34962},{"buffer":0,"byteOffset":150880,"byteLength":15688,"target":34962},{"buffer":0,"byteOffset":166568,"byteLength":40440,"target":34963}],"images":[{"uri":"../textures/tile_0555_material_0.jpg"},{"uri":"../textures/tile_0555_material_1.jpg"}],"materials":[{"name":"DefaultMaterial","pbrMetallicRoughness":{"baseColorFactor":[0.6000000238418579,0.6000000238418579,0.6000000238418579,1.0],"metallicFactor":0.0},"extensions":{"KHR_materials_specular":{"specularFactor":1.0,"specularColorFactor":[0.0,0.0,0.0]},"KHR_materials_ior":{"ior":1.0}}},{"name":"material_0_material","pbrMetallicRoughness":{"baseColorTexture":{"index":0},"metallicFactor":0.0},"extensions":{"KHR_materials_specular":{"specularFactor":1.0,"specularColorFactor":[0.0,0.0,0.0]},"KHR_materials_ior":{"ior":1.0}}},{"name":"material_1_material","pbrMetallicRoughness":{"baseColorTexture":{"index":1},"metallicFactor":0.0},"extensions":{"KHR_materials_specular":{"specularFactor":1.0,"specularColorFactor":[0.0,0.0,0.0]},"KHR_materials_ior":{"ior":1.0}}}],"meshes":[{"name":"defaultobject","primitives":[{"mode":4,"material":1,"indices":2,"attributes":{"POSITION":0,"TEXCOORD_0":1}},{"mode":4,"material":2,"indices":5,"attributes":{"POSITION":3,"TEXCOORD_0":4}}]}],"nodes":[{"name":"tile_0555.obj","children":[1]},{"name":"defaultobject","mesh":0}],"samplers":[{},{}],"scenes":[{"nodes":[0]}],"textures":[{"source":0,"sampler":0},{"source":1,"sampler":1}],"scene":0}
