{"asset":{"version":"2.0","generator":"Open Asset Import Library (assimp v6.0.0)"},"extensionsUsed":["KHR_materials_specular","KHR_materials_volume","KHR_materials_ior","FB_ngon_encoding"],"accessors":[{"bufferView":0,"byteOffset":0,"componentType":5126,"count":3058,"type":"VEC3","max":[1.460264801979065,0.0018278197385370731,1.8077144622802734],"min":[-0.15263116359710693,-0.10771889984607697,2.2250738585072014e-308]},{"bufferView":1,"byteOffset":0,"componentType":5126,"count":3058,"type":"VEC2","max":[0.9919285774230957,0.7573165893554688],"min":[2.2250738585072014e-308,2.2250738585072014e-308]},{"bufferView":2,"byteOffset":0,"componentType":5125,"count":12711,"type":"SCALAR","max":[3057],"min":[0]},{"bufferView":3,"byteOffset":0,"componentType":5126,"count":112,"type":"VEC3","max":[0.7833214402198792,-0.031887687742710114,1.7440327405929565],"min":[2.2250738585072014e-308,-0.05586393177509308,2.2250738585072014e-308]},{"bufferView":4,"byteOffset":0,"componentType":5126,"count":112,"type":"VEC2","max":[0.7004776000976562,0.9049225449562073],"min":[2.2250738585072014e-308,2.2250738585072014e-308]},{"bufferView":5,"byteOffset":0,"componentType":5125,"count":318,"type":"SCALAR","max":[111],"min":[0]}],"buffers":[{"byteLength":115516,"uri":"tile_0069.bin"}],"bufferViews":[{"buffer":0,"byteOffset":0,"byteLength":36696,"target":34962},{"buffer":0,"byteOffset":36696,"byteLength":24464,"target":34962},{"buffer":0,"byteOffset":61160,"byteLength":50844,"target":34963},{"buffer":0,"byteOffset":112004,"byteLength":1344,"target":34962},{"buffer":0,"byteOffset":113348,"byteLength":896,"target":34962},{"buffer":0,"byteOffset":114244,"byteLength":1272,"target":34963}],"images":[{"uri":"../textures/tile_0069_material_0.jpg"},{"uri":"../textures/tile_0069_material_1.jpg"}],"materials":[{"name":"DefaultMaterial","pbrMetallicRoughness":{"baseColorFactor":[0.6000000238418579,0.6000000238418579,0.6000000238418579,1.0],"metallicFactor":0.0},"extensions":{"KHR_materials_specular":{"specularFactor":1.0,"specularColorFactor":[0.0,0.0,0.0]},"KHR_materials_ior":{"ior":1.0}}},{"name":"material_0_material","pbrMetallicRoughness":{"baseColorTexture":{"index":0},"metallicFactor":0.0},"extensions":{"KHR_materials_specular":{"specularFactor":1.0,"specularColorFactor":[0.0,0.0,0.0]},"KHR_materials_ior":{"ior":1.0}}},{"name":"material_1_material","pbrMetallicRoughness":{"baseColorTexture":{"index":1},"metallicFactor":0.0},"extensions":{"KHR_materials_specular":{"specularFactor":1.0,"specularColorFactor":[0.0,0.0,0.0]},"KHR_materials_ior":{"ior":1.0}}}],"meshes":[{"name":"defaultobject","primitives":[{"mode":4,"material":1,"indices":2,"attributes":{"POSITION":0,"TEXCOORD_0":1}},{"mode":4,"material":2,"indices":5,"attributes":{"POSITION":3,"TEXCOORD_0":4}}]}],"nodes":[{"name":"tile_0069.obj","children":[1]},{"name":"defaultobject","mesh":0}],"samplers":[{},{}],"scenes":[{"nodes":[0]}],"textures":[{"source":0,"sampler":0},{"source":1,"sampler":1}],"scene":0}
