{"asset":{"version":"2.0","generator":"Open Asset Import Library (assimp v6.0.0)"},"extensionsUsed":["KHR_materials_specular","KHR_materials_volume","KHR_materials_ior","FB_ngon_encoding"],"accessors":[{"bufferView":0,"byteOffset":0,"componentType":5126,"count":12370,"type":"VEC3","max":[2.2399332523345947,-0.43152937293052673,1.9455335140228271],"min":[-0.2788621187210083,-0.787352979183197,2.2250738585072014e-308]},{"bufferView":1,"byteOffset":0,"componentType":5126,"count":12370,"type":"VEC2","max":[0.9949312210083008,0.7147331237792969],"min":[2.2250738585072014e-308,2.2250738585072014e-308]},{"bufferView":2,"byteOffset":0,"componentType":5125,"count":54390,"type":"SCALAR","max":[12369],"min":[0]},{"bufferView":3,"byteOffset":0,"componentType":5126,"count":3180,"type":"VEC3","max":[2.1587204933166504,-0.4371517300605774,1.9382905960083008],"min":[-0.2768789231777191,-0.787352979183197,2.2250738585072014e-308]},{"bufferView":4,"byteOffset":0,"componentType":5126,"count":3180,"type":"VEC2","max":[0.9923324584960938,0.5262165069580078],"min":[2.2250738585072014e-308,2.2250738585072014e-308]},{"bufferView":5,"byteOffset":0,"componentType":5125,"count":15264,"type":"SCALAR","max":[3179],"min":[0]}],"buffers":[{"byteLength":589616,"uri":"tile_0394.bin"}],"bufferViews":[{"buffer":0,"byteOffset":0,"byteLength":148440,"target":34962},{"buffer":0,"byteOffset":148440,"byteLength":98960,"target":34962},{"buffer":0,"byteOffset":247400,"byteLength":217560,"target":34963},{"buffer":0,"byteOffset":464960,"byteLength":38160,"target":34962},{"buffer":0,"byteOffset":503120,"byteLength":25440,"target":34962},{"buffer":0,"byteOffset":528560,"byteLength":61056,"target":34963}],"images":[{"uri":"../textures/tile_0394_material_0.jpg"},{"uri":"../textures/tile_0394_material_1.jpg"}],"materials":[{"name":"DefaultMaterial","pbrMetallicRoughness":{"baseColorFactor":[0.6000000238418579,0.6000000238418579,0.6000000238418579,1.0],"metallicFactor":0.0},"extensions":{"KHR_materials_specular":{"specularFactor":1.0,"specularColorFactor":[0.0,0.0,0.0]},"KHR_materials_ior":{"ior":1.0}}},{"name":"material_0_material","pbrMetallicRoughness":{"baseColorTexture":{"index":0},"metallicFactor":0.0},"extensions":{"KHR_materials_specular":{"specularFactor":1.0,"specularColorFactor":[0.0,0.0,0.0]},"KHR_materials_ior":{"ior":1.0}}},{"name":"material_1_material","pbrMetallicRoughness":{"baseColorTexture":{"index":1},"metallicFactor":0.0},"extensions":{"KHR_materials_specular":{"specularFactor":1.0,"specularColorFactor":[0.0,0.0,0.0]},"KHR_materials_ior":{"ior":1.0}}}],"meshes":[{"name":"defaultobject","primitives":[{"mode":4,"material":1,"indices":2,"attributes":{"POSITION":0,"TEXCOORD_0":1}},{"mode":4,"material":2,"indices":5,"attributes":{"POSITION":3,"TEXCOORD_0":4}}]}],"nodes":[{"name":"tile_0394.obj","children":[1]},{"name":"defaultobject","mesh":0}],"samplers":[{},{}],"scenes":[{"nodes":[0]}],"textures":[{"source":0,"sampler":0},{"source":1,"sampler":1}],"scene":0}
