{"asset":{"version":"2.0","generator":"Open Asset Import Library (assimp v6.0.0)"},"extensionsUsed":["KHR_materials_specular","KHR_materials_volume","KHR_materials_ior","FB_ngon_encoding"],"accessors":[{"bufferView":0,"byteOffset":0,"componentType":5126,"count":5098,"type":"VEC3","max":[2.5654783248901367,2.067667245864868,1.4111276865005493],"min":[2.2250738585072014e-308,2.2250738585072014e-308,2.2250738585072014e-308]},{"bufferView":1,"byteOffset":0,"componentType":5126,"count":5098,"type":"VEC2","max":[0.9928205013275146,0.6040287017822266],"min":[2.2250738585072014e-308,2.2250738585072014e-308]},{"bufferView":2,"byteOffset":0,"componentType":5125,"count":23220,"type":"SCALAR","max":[5097],"min":[0]},{"bufferView":3,"byteOffset":0,"componentType":5126,"count":180,"type":"VEC3","max":[1.7670392990112305,1.9944738149642944,1.4100368022918701],"min":[2.2250738585072014e-308,2.2250738585072014e-308,2.2250738585072014e-308]},{"bufferView":4,"byteOffset":0,"componentType":5126,"count":180,"type":"VEC2","max":[0.5331325531005859,0.6912841796875],"min":[2.2250738585072014e-308,2.2250738585072014e-308]},{"bufferView":5,"byteOffset":0,"componentType":5125,"count":744,"type":"SCALAR","max":[179],"min":[0]}],"buffers":[{"byteLength":201416,"uri":"tile_0563.bin"}],"bufferViews":[{"buffer":0,"byteOffset":0,"byteLength":61176,"target":34962},{"buffer":0,"byteOffset":61176,"byteLength":40784,"target":34962},{"buffer":0,"byteOffset":101960,"byteLength":92880,"target":34963},{"buffer":0,"byteOffset":194840,"byteLength":2160,"target":34962},{"buffer":0,"byteOffset":197000,"byteLength":1440,"target":34962},{"buffer":0,"byteOffset":198440,"byteLength":2976,"target":34963}],"images":[{"uri":"../textures/tile_0563_material_0.jpg"},{"uri":"../textures/tile_0563_material_1.jpg"}],"materials":[{"name":"DefaultMaterial","pbrMetallicRoughness":{"baseColorFactor":[0.6000000238418579,0.6000000238418579,0.6000000238418579,1.0],"metallicFactor":0.0},"extensions":{"KHR_materials_specular":{"specularFactor":1.0,"specularColorFactor":[0.0,0.0,0.0]},"KHR_materials_ior":{"ior":1.0}}},{"name":"material_0_material","pbrMetallicRoughness":{"baseColorTexture":{"index":0},"metallicFactor":0.0},"extensions":{"KHR_materials_specular":{"specularFactor":1.0,"specularColorFactor":[0.0,0.0,0.0]},"KHR_materials_ior":{"ior":1.0}}},{"name":"material_1_material","pbrMetallicRoughness":{"baseColorTexture":{"index":1},"metallicFactor":0.0},"extensions":{"KHR_materials_specular":{"specularFactor":1.0,"specularColorFactor":[0.0,0.0,0.0]},"KHR_materials_ior":{"ior":1.0}}}],"meshes":[{"name":"defaultobject","primitives":[{"mode":4,"material":1,"indices":2,"attributes":{"POSITION":0,"TEXCOORD_0":1}},{"mode":4,"material":2,"indices":5,"attributes":{"POSITION":3,"TEXCOORD_0":4}}]}],"nodes":[{"name":"tile_0563.obj","children":[1]},{"name":"defaultobject","mesh":0}],"samplers":[{},{}],"scenes":[{"nodes":[0]}],"textures":[{"source":0,"sampler":0},{"source":1,"sampler":1}],"scene":0}
