{"asset":{"version":"2.0","generator":"Open Asset Import Library (assimp v6.0.0)"},"extensionsUsed":["KHR_materials_specular","KHR_materials_volume","KHR_materials_ior","FB_ngon_encoding"],"accessors":[{"bufferView":0,"byteOffset":0,"componentType":5126,"count":3758,"type":"VEC3","max":[1.2179303169250488,1.0320768356323242,3.8960466384887695],"min":[2.2250738585072014e-308,2.2250738585072014e-308,2.2250738585072014e-308]},{"bufferView":1,"byteOffset":0,"componentType":5126,"count":3758,"type":"VEC2","max":[0.9897935390472412,0.8342227935791016],"min":[2.2250738585072014e-308,2.2250738585072014e-308]},{"bufferView":2,"byteOffset":0,"componentType":5125,"count":16224,"type":"SCALAR","max":[3757],"min":[0]},{"bufferView":3,"byteOffset":0,"componentType":5126,"count":127,"type":"VEC3","max":[1.0592442750930786,1.0320768356323242,3.7789859771728516],"min":[2.2250738585072014e-308,2.2250738585072014e-308,2.2250738585072014e-308]},{"bufferView":4,"byteOffset":0,"componentType":5126,"count":127,"type":"VEC2","max":[0.6368780136108398,0.6013946533203125],"min":[2.2250738585072014e-308,2.2250738585072014e-308]},{"bufferView":5,"byteOffset":0,"componentType":5125,"count":522,"type":"SCALAR","max":[126],"min":[0]}],"buffers":[{"byteLength":144684,"uri":"tile_0060.bin"}],"bufferViews":[{"buffer":0,"byteOffset":0,"byteLength":45096,"target":34962},{"buffer":0,"byteOffset":45096,"byteLength":30064,"target":34962},{"buffer":0,"byteOffset":75160,"byteLength":64896,"target":34963},{"buffer":0,"byteOffset":140056,"byteLength":1524,"target":34962},{"buffer":0,"byteOffset":141580,"byteLength":1016,"target":34962},{"buffer":0,"byteOffset":142596,"byteLength":2088,"target":34963}],"images":[{"uri":"../textures/tile_0060_material_0.jpg"},{"uri":"../textures/tile_0060_material_1.jpg"}],"materials":[{"name":"DefaultMaterial","pbrMetallicRoughness":{"baseColorFactor":[0.6000000238418579,0.6000000238418579,0.6000000238418579,1.0],"metallicFactor":0.0},"extensions":{"KHR_materials_specular":{"specularFactor":1.0,"specularColorFactor":[0.0,0.0,0.0]},"KHR_materials_ior":{"ior":1.0}}},{"name":"material_0_material","pbrMetallicRoughness":{"baseColorTexture":{"index":0},"metallicFactor":0.0},"extensions":{"KHR_materials_specular":{"specularFactor":1.0,"specularColorFactor":[0.0,0.0,0.0]},"KHR_materials_ior":{"ior":1.0}}},{"name":"material_1_material","pbrMetallicRoughness":{"baseColorTexture":{"index":1},"metallicFactor":0.0},"extensions":{"KHR_materials_specular":{"specularFactor":1.0,"specularColorFactor":[0.0,0.0,0.0]},"KHR_materials_ior":{"ior":1.0}}}],"meshes":[{"name":"defaultobject","primitives":[{"mode":4,"material":1,"indices":2,"attributes":{"POSITION":0,"TEXCOORD_0":1}},{"mode":4,"material":2,"indices":5,"attributes":{"POSITION":3,"TEXCOORD_0":4}}]}],"nodes":[{"name":"tile_0060.obj","children":[1]},{"name":"defaultobject","mesh":0}],"samplers":[{},{}],"scenes":[{"nodes":[0]}],"textures":[{"source":0,"sampler":0},{"source":1,"sampler":1}],"scene":0}
