{"asset":{"version":"2.0","generator":"Open Asset Import Library (assimp v6.0.0)"},"extensionsUsed":["KHR_materials_specular","KHR_materials_volume","KHR_materials_ior","FB_ngon_encoding"],"accessors":[{"bufferView":0,"byteOffset":0,"componentType":5126,"count":12229,"type":"VEC3","max":[3.5016591548919678,3.3532333374023438,0.6687951683998108],"min":[2.2250738585072014e-308,2.2250738585072014e-308,2.2250738585072014e-308]},{"bufferView":1,"byteOffset":0,"componentType":5126,"count":12229,"type":"VEC2","max":[0.9942097663879395,0.7167434692382812],"min":[2.2250738585072014e-308,2.2250738585072014e-308]},{"bufferView":2,"byteOffset":0,"componentType":5125,"count":53670,"type":"SCALAR","max":[12228],"min":[0]},{"bufferView":3,"byteOffset":0,"componentType":5126,"count":2783,"type":"VEC3","max":[3.5005319118499756,3.3532333374023438,0.6876777410507202],"min":[2.2250738585072014e-308,2.2250738585072014e-308,2.2250738585072014e-308]},{"bufferView":4,"byteOffset":0,"componentType":5126,"count":2783,"type":"VEC2","max":[0.6327519416809082,0.5642528533935547],"min":[2.2250738585072014e-308,2.2250738585072014e-308]},{"bufferView":5,"byteOffset":0,"componentType":5125,"count":14493,"type":"SCALAR","max":[2782],"min":[0]}],"buffers":[{"byteLength":572892,"uri":"tile_0124.bin"}],"bufferViews":[{"buffer":0,"byteOffset":0,"byteLength":146748,"target":34962},{"buffer":0,"byteOffset":146748,"byteLength":97832,"target":34962},{"buffer":0,"byteOffset":244580,"byteLength":214680,"target":34963},{"buffer":0,"byteOffset":459260,"byteLength":33396,"target":34962},{"buffer":0,"byteOffset":492656,"byteLength":22264,"target":34962},{"buffer":0,"byteOffset":514920,"byteLength":57972,"target":34963}],"images":[{"uri":"../textures/tile_0124_material_0.jpg"},{"uri":"../textures/tile_0124_material_1.jpg"}],"materials":[{"name":"DefaultMaterial","pbrMetallicRoughness":{"baseColorFactor":[0.6000000238418579,0.6000000238418579,0.6000000238418579,1.0],"metallicFactor":0.0},"extensions":{"KHR_materials_specular":{"specularFactor":1.0,"specularColorFactor":[0.0,0.0,0.0]},"KHR_materials_ior":{"ior":1.0}}},{"name":"material_0_material","pbrMetallicRoughness":{"baseColorTexture":{"index":0},"metallicFactor":0.0},"extensions":{"KHR_materials_specular":{"specularFactor":1.0,"specularColorFactor":[0.0,0.0,0.0]},"KHR_materials_ior":{"ior":1.0}}},{"name":"material_1_material","pbrMetallicRoughness":{"baseColorTexture":{"index":1},"metallicFactor":0.0},"extensions":{"KHR_materials_specular":{"specularFactor":1.0,"specularColorFactor":[0.0,0.0,0.0]},"KHR_materials_ior":{"ior":1.0}}}],"meshes":[{"name":"defaultobject","primitives":[{"mode":4,"material":1,"indices":2,"attributes":{"POSITION":0,"TEXCOORD_0":1}},{"mode":4,"material":2,"indices":5,"attributes":{"POSITION":3,"TEXCOORD_0":4}}]}],"nodes":[{"name":"tile_0124.obj","children":[1]},{"name":"defaultobject","mesh":0}],"samplers":[{},{}],"scenes":[{"nodes":[0]}],"textures":[{"source":0,"sampler":0},{"source":1,"sampler":1}],"scene":0}
