{"asset":{"version":"2.0","generator":"Open Asset Import Library (assimp v6.0.0)"},"extensionsUsed":["KHR_materials_specular","KHR_materials_volume","KHR_materials_ior","FB_ngon_encoding"],"accessors":[{"bufferView":0,"byteOffset":0,"componentType":5126,"count":6295,"type":"VEC3","max":[3.0641024112701416,-1.501377820968628,0.5071632266044617],"min":[-0.026473216712474823,-1.6803098917007446,2.2250738585072014e-308]},{"bufferView":1,"byteOffset":0,"componentType":5126,"count":6295,"type":"VEC2","max":[0.9952960014343262,0.5976066589355469],"min":[2.2250738585072014e-308,2.2250738585072014e-308]},{"bufferView":2,"byteOffset":0,"componentType":5125,"count":26907,"type":"SCALAR","max":[6294],"min":[0]},{"bufferView":3,"byteOffset":0,"componentType":5126,"count":2451,"type":"VEC3","max":[1.2790826559066772,-1.4887996912002563,0.5024459958076477],"min":[-0.05120561271905899,-1.6833322048187256,2.2250738585072014e-308]},{"bufferView":4,"byteOffset":0,"componentType":5126,"count":2451,"type":"VEC2","max":[0.5717654228210449,0.7826213836669922],"min":[2.2250738585072014e-308,2.2250738585072014e-308]},{"bufferView":5,"byteOffset":0,"componentType":5125,"count":12969,"type":"SCALAR","max":[2450],"min":[0]}],"buffers":[{"byteLength":334424,"uri":"tile_0213.bin"}],"bufferViews":[{"buffer":0,"byteOffset":0,"byteLength":75540,"target":34962},{"buffer":0,"byteOffset":75540,"byteLength":50360,"target":34962},{"buffer":0,"byteOffset":125900,"byteLength":107628,"target":34963},{"buffer":0,"byteOffset":233528,"byteLength":29412,"target":34962},{"buffer":0,"byteOffset":262940,"byteLength":19608,"target":34962},{"buffer":0,"byteOffset":282548,"byteLength":51876,"target":34963}],"images":[{"uri":"../textures/tile_0213_material_0.jpg"},{"uri":"../textures/tile_0213_material_1.jpg"}],"materials":[{"name":"DefaultMaterial","pbrMetallicRoughness":{"baseColorFactor":[0.6000000238418579,0.6000000238418579,0.6000000238418579,1.0],"metallicFactor":0.0},"extensions":{"KHR_materials_specular":{"specularFactor":1.0,"specularColorFactor":[0.0,0.0,0.0]},"KHR_materials_ior":{"ior":1.0}}},{"name":"material_0_material","pbrMetallicRoughness":{"baseColorTexture":{"index":0},"metallicFactor":0.0},"extensions":{"KHR_materials_specular":{"specularFactor":1.0,"specularColorFactor":[0.0,0.0,0.0]},"KHR_materials_ior":{"ior":1.0}}},{"name":"material_1_material","pbrMetallicRoughness":{"baseColorTexture":{"index":1},"metallicFactor":0.0},"extensions":{"KHR_materials_specular":{"specularFactor":1.0,"specularColorFactor":[0.0,0.0,0.0]},"KHR_materials_ior":{"ior":1.0}}}],"meshes":[{"name":"defaultobject","primitives":[{"mode":4,"material":1,"indices":2,"attributes":{"POSITION":0,"TEXCOORD_0":1}},{"mode":4,"material":2,"indices":5,"attributes":{"POSITION":3,"TEXCOORD_0":4}}]}],"nodes":[{"name":"tile_0213.obj","children":[1]},{"name":"defaultobject","mesh":0}],"samplers":[{},{}],"scenes":[{"nodes":[0]}],"textures":[{"source":0,"sampler":0},{"source":1,"sampler":1}],"scene":0}
