{"asset":{"version":"2.0","generator":"Open Asset Import Library (assimp v6.0.0)"},"extensionsUsed":["KHR_materials_specular","KHR_materials_volume","KHR_materials_ior","FB_ngon_encoding"],"accessors":[{"bufferView":0,"byteOffset":0,"componentType":5126,"count":4254,"type":"VEC3","max":[1.1164644956588745,-0.4360367953777313,3.123979330062866],"min":[2.2250738585072014e-308,-0.6108941435813904,2.2250738585072014e-308]},{"bufferView":1,"byteOffset":0,"componentType":5126,"count":4254,"type":"VEC2","max":[0.9935660362243652,0.5628566741943359],"min":[2.2250738585072014e-308,2.2250738585072014e-308]},{"bufferView":2,"byteOffset":0,"componentType":5125,"count":19410,"type":"SCALAR","max":[4253],"min":[0]},{"bufferView":3,"byteOffset":0,"componentType":5126,"count":202,"type":"VEC3","max":[0.340803325176239,-0.4365690350532532,3.122103691101074],"min":[2.2250738585072014e-308,-0.6054527163505554,2.2250738585072014e-308]},{"bufferView":4,"byteOffset":0,"componentType":5126,"count":202,"type":"VEC2","max":[0.7482872009277344,0.5224838256835938],"min":[2.2250738585072014e-308,2.2250738585072014e-308]},{"bufferView":5,"byteOffset":0,"componentType":5125,"count":888,"type":"SCALAR","max":[201],"min":[0]}],"buffers":[{"byteLength":170312,"uri":"tile_0053.bin"}],"bufferViews":[{"buffer":0,"byteOffset":0,"byteLength":51048,"target":34962},{"buffer":0,"byteOffset":51048,"byteLength":34032,"target":34962},{"buffer":0,"byteOffset":85080,"byteLength":77640,"target":34963},{"buffer":0,"byteOffset":162720,"byteLength":2424,"target":34962},{"buffer":0,"byteOffset":165144,"byteLength":1616,"target":34962},{"buffer":0,"byteOffset":166760,"byteLength":3552,"target":34963}],"images":[{"uri":"../textures/tile_0053_material_0.jpg"},{"uri":"../textures/tile_0053_material_1.jpg"}],"materials":[{"name":"DefaultMaterial","pbrMetallicRoughness":{"baseColorFactor":[0.6000000238418579,0.6000000238418579,0.6000000238418579,1.0],"metallicFactor":0.0},"extensions":{"KHR_materials_specular":{"specularFactor":1.0,"specularColorFactor":[0.0,0.0,0.0]},"KHR_materials_ior":{"ior":1.0}}},{"name":"material_0_material","pbrMetallicRoughness":{"baseColorTexture":{"index":0},"metallicFactor":0.0},"extensions":{"KHR_materials_specular":{"specularFactor":1.0,"specularColorFactor":[0.0,0.0,0.0]},"KHR_materials_ior":{"ior":1.0}}},{"name":"material_1_material","pbrMetallicRoughness":{"baseColorTexture":{"index":1},"metallicFactor":0.0},"extensions":{"KHR_materials_specular":{"specularFactor":1.0,"specularColorFactor":[0.0,0.0,0.0]},"KHR_materials_ior":{"ior":1.0}}}],"meshes":[{"name":"defaultobject","primitives":[{"mode":4,"material":1,"indices":2,"attributes":{"POSITION":0,"TEXCOORD_0":1}},{"mode":4,"material":2,"indices":5,"attributes":{"POSITION":3,"TEXCOORD_0":4}}]}],"nodes":[{"name":"tile_0053.obj","children":[1]},{"name":"defaultobject","mesh":0}],"samplers":[{},{}],"scenes":[{"nodes":[0]}],"textures":[{"source":0,"sampler":0},{"source":1,"sampler":1}],"scene":0}
