{"asset":{"version":"2.0","generator":"Open Asset Import Library (assimp v6.0.0)"},"extensionsUsed":["KHR_materials_specular","KHR_materials_volume","KHR_materials_ior","FB_ngon_encoding"],"accessors":[{"bufferView":0,"byteOffset":0,"componentType":5126,"count":5426,"type":"VEC3","max":[0.3185361921787262,-2.364349365234375,4.725014686584473],"min":[-0.49057549238204956,-2.5864109992980957,2.2250738585072014e-308]},{"bufferView":1,"byteOffset":0,"componentType":5126,"count":5426,"type":"VEC2","max":[0.9930776357650757,0.49995994567871094],"min":[2.2250738585072014e-308,2.2250738585072014e-308]},{"bufferView":2,"byteOffset":0,"componentType":5125,"count":22785,"type":"SCALAR","max":[5425],"min":[0]},{"bufferView":3,"byteOffset":0,"componentType":5126,"count":1014,"type":"VEC3","max":[0.18359041213989258,-2.368497371673584,4.17733097076416],"min":[-0.06279149651527405,-2.583310127258301,2.2250738585072014e-308]},{"bufferView":4,"byteOffset":0,"componentType":5126,"count":1014,"type":"VEC2","max":[0.8424553871154785,0.6455154418945312],"min":[2.2250738585072014e-308,2.2250738585072014e-308]},{"bufferView":5,"byteOffset":0,"componentType":5125,"count":4941,"type":"SCALAR","max":[1013],"min":[0]}],"buffers":[{"byteLength":239704,"uri":"tile_0345.bin"}],"bufferViews":[{"buffer":0,"byteOffset":0,"byteLength":65112,"target":34962},{"buffer":0,"byteOffset":65112,"byteLength":43408,"target":34962},{"buffer":0,"byteOffset":108520,"byteLength":91140,"target":34963},{"buffer":0,"byteOffset":199660,"byteLength":12168,"target":34962},{"buffer":0,"byteOffset":211828,"byteLength":8112,"target":34962},{"buffer":0,"byteOffset":219940,"byteLength":19764,"target":34963}],"images":[{"uri":"../textures/tile_0345_material_0.jpg"},{"uri":"../textures/tile_0345_material_1.jpg"}],"materials":[{"name":"DefaultMaterial","pbrMetallicRoughness":{"baseColorFactor":[0.6000000238418579,0.6000000238418579,0.6000000238418579,1.0],"metallicFactor":0.0},"extensions":{"KHR_materials_specular":{"specularFactor":1.0,"specularColorFactor":[0.0,0.0,0.0]},"KHR_materials_ior":{"ior":1.0}}},{"name":"material_0_material","pbrMetallicRoughness":{"baseColorTexture":{"index":0},"metallicFactor":0.0},"extensions":{"KHR_materials_specular":{"specularFactor":1.0,"specularColorFactor":[0.0,0.0,0.0]},"KHR_materials_ior":{"ior":1.0}}},{"name":"material_1_material","pbrMetallicRoughness":{"baseColorTexture":{"index":1},"metallicFactor":0.0},"extensions":{"KHR_materials_specular":{"specularFactor":1.0,"specularColorFactor":[0.0,0.0,0.0]},"KHR_materials_ior":{"ior":1.0}}}],"meshes":[{"name":"defaultobject","primitives":[{"mode":4,"material":1,"indices":2,"attributes":{"POSITION":0,"TEXCOORD_0":1}},{"mode":4,"material":2,"indices":5,"attributes":{"POSITION":3,"TEXCOORD_0":4}}]}],"nodes":[{"name":"tile_0345.obj","children":[1]},{"name":"defaultobject","mesh":0}],"samplers":[{},{}],"scenes":[{"nodes":[0]}],"textures":[{"source":0,"sampler":0},{"source":1,"sampler":1}],"scene":0}
