{"asset":{"version":"2.0","generator":"Open Asset Import Library (assimp v6.0.0)"},"extensionsUsed":["KHR_materials_specular","KHR_materials_volume","KHR_materials_ior","FB_ngon_encoding"],"accessors":[{"bufferView":0,"byteOffset":0,"componentType":5126,"count":4954,"type":"VEC3","max":[3.301891565322876,-0.17606160044670105,0.26574790477752686],"min":[2.2250738585072014e-308,-0.3081655502319336,2.2250738585072014e-308]},{"bufferView":1,"byteOffset":0,"componentType":5126,"count":4954,"type":"VEC2","max":[0.9934353828430176,0.6210594177246094],"min":[2.2250738585072014e-308,2.2250738585072014e-308]},{"bufferView":2,"byteOffset":0,"componentType":5125,"count":12822,"type":"SCALAR","max":[4953],"min":[0]},{"bufferView":3,"byteOffset":0,"componentType":5126,"count":3721,"type":"VEC3","max":[3.0501723289489746,-0.17606160044670105,0.26425233483314514],"min":[2.2250738585072014e-308,-0.3068852126598358,2.2250738585072014e-308]},{"bufferView":4,"byteOffset":0,"componentType":5126,"count":3721,"type":"VEC2","max":[0.8904623985290527,0.5064430236816406],"min":[2.2250738585072014e-308,2.2250738585072014e-308]},{"bufferView":5,"byteOffset":0,"componentType":5125,"count":16848,"type":"SCALAR","max":[3720],"min":[0]}],"buffers":[{"byteLength":292180,"uri":"tile_0082.bin"}],"bufferViews":[{"buffer":0,"byteOffset":0,"byteLength":59448,"target":34962},{"buffer":0,"byteOffset":59448,"byteLength":39632,"target":34962},{"buffer":0,"byteOffset":99080,"byteLength":51288,"target":34963},{"buffer":0,"byteOffset":150368,"byteLength":44652,"target":34962},{"buffer":0,"byteOffset":195020,"byteLength":29768,"target":34962},{"buffer":0,"byteOffset":224788,"byteLength":67392,"target":34963}],"images":[{"uri":"../textures/tile_0082_material_0.jpg"},{"uri":"../textures/tile_0082_material_1.jpg"}],"materials":[{"name":"DefaultMaterial","pbrMetallicRoughness":{"baseColorFactor":[0.6000000238418579,0.6000000238418579,0.6000000238418579,1.0],"metallicFactor":0.0},"extensions":{"KHR_materials_specular":{"specularFactor":1.0,"specularColorFactor":[0.0,0.0,0.0]},"KHR_materials_ior":{"ior":1.0}}},{"name":"material_0_material","pbrMetallicRoughness":{"baseColorTexture":{"index":0},"metallicFactor":0.0},"extensions":{"KHR_materials_specular":{"specularFactor":1.0,"specularColorFactor":[0.0,0.0,0.0]},"KHR_materials_ior":{"ior":1.0}}},{"name":"material_1_material","pbrMetallicRoughness":{"baseColorTexture":{"index":1},"metallicFactor":0.0},"extensions":{"KHR_materials_specular":{"specularFactor":1.0,"specularColorFactor":[0.0,0.0,0.0]},"KHR_materials_ior":{"ior":1.0}}}],"meshes":[{"name":"defaultobject","primitives":[{"mode":4,"material":1,"indices":2,"attributes":{"POSITION":0,"TEXCOORD_0":1}},{"mode":4,"material":2,"indices":5,"attributes":{"POSITION":3,"TEXCOORD_0":4}}]}],"nodes":[{"name":"tile_0082.obj","children":[1]},{"name":"defaultobject","mesh":0}],"samplers":[{},{}],"scenes":[{"nodes":[0]}],"textures":[{"source":0,"sampler":0},{"source":1,"sampler":1}],"scene":0}
