{"asset":{"version":"2.0","generator":"Open Asset Import Library (assimp v6.0.0)"},"extensionsUsed":["KHR_materials_specular","KHR_materials_volume","KHR_materials_ior","FB_ngon_encoding"],"accessors":[{"bufferView":0,"byteOffset":0,"componentType":5126,"count":3223,"type":"VEC3","max":[1.945816993713379,-1.9750205278396606,1.7706612348556519],"min":[-0.10378558188676834,-2.2911016941070557,2.2250738585072014e-308]},{"bufferView":1,"byteOffset":0,"componentType":5126,"count":3223,"type":"VEC2","max":[0.9792568683624268,0.80767822265625],"min":[2.2250738585072014e-308,2.2250738585072014e-308]},{"bufferView":2,"byteOffset":0,"componentType":5125,"count":14124,"type":"SCALAR","max":[3222],"min":[0]},{"bufferView":3,"byteOffset":0,"componentType":5126,"count":1713,"type":"VEC3","max":[1.9438413381576538,-1.9770170450210571,1.7839843034744263],"min":[-0.08358827978372574,-2.29384708404541,2.2250738585072014e-308]},{"bufferView":4,"byteOffset":0,"componentType":5126,"count":1713,"type":"VEC2","max":[0.5057387351989746,0.5559005737304688],"min":[2.2250738585072014e-308,2.2250738585072014e-308]},{"bufferView":5,"byteOffset":0,"componentType":5125,"count":8328,"type":"SCALAR","max":[1712],"min":[0]}],"buffers":[{"byteLength":188528,"uri":"tile_0300.bin"}],"bufferViews":[{"buffer":0,"byteOffset":0,"byteLength":38676,"target":34962},{"buffer":0,"byteOffset":38676,"byteLength":25784,"target":34962},{"buffer":0,"byteOffset":64460,"byteLength":56496,"target":34963},{"buffer":0,"byteOffset":120956,"byteLength":20556,"target":34962},{"buffer":0,"byteOffset":141512,"byteLength":13704,"target":34962},{"buffer":0,"byteOffset":155216,"byteLength":33312,"target":34963}],"images":[{"uri":"../textures/tile_0300_material_0.jpg"},{"uri":"../textures/tile_0300_material_1.jpg"}],"materials":[{"name":"DefaultMaterial","pbrMetallicRoughness":{"baseColorFactor":[0.6000000238418579,0.6000000238418579,0.6000000238418579,1.0],"metallicFactor":0.0},"extensions":{"KHR_materials_specular":{"specularFactor":1.0,"specularColorFactor":[0.0,0.0,0.0]},"KHR_materials_ior":{"ior":1.0}}},{"name":"material_0_material","pbrMetallicRoughness":{"baseColorTexture":{"index":0},"metallicFactor":0.0},"extensions":{"KHR_materials_specular":{"specularFactor":1.0,"specularColorFactor":[0.0,0.0,0.0]},"KHR_materials_ior":{"ior":1.0}}},{"name":"material_1_material","pbrMetallicRoughness":{"baseColorTexture":{"index":1},"metallicFactor":0.0},"extensions":{"KHR_materials_specular":{"specularFactor":1.0,"specularColorFactor":[0.0,0.0,0.0]},"KHR_materials_ior":{"ior":1.0}}}],"meshes":[{"name":"defaultobject","primitives":[{"mode":4,"material":1,"indices":2,"attributes":{"POSITION":0,"TEXCOORD_0":1}},{"mode":4,"material":2,"indices":5,"attributes":{"POSITION":3,"TEXCOORD_0":4}}]}],"nodes":[{"name":"tile_0300.obj","children":[1]},{"name":"defaultobject","mesh":0}],"samplers":[{},{}],"scenes":[{"nodes":[0]}],"textures":[{"source":0,"sampler":0},{"source":1,"sampler":1}],"scene":0}
