{"asset":{"version":"2.0","generator":"Open Asset Import Library (assimp v6.0.0)"},"extensionsUsed":["KHR_materials_specular","KHR_materials_volume","KHR_materials_ior","FB_ngon_encoding"],"accessors":[{"bufferView":0,"byteOffset":0,"componentType":5126,"count":5101,"type":"VEC3","max":[2.179009437561035,-1.9694359302520752,1.4673444032669067],"min":[-0.034726474434137344,-2.27396821975708,2.2250738585072014e-308]},{"bufferView":1,"byteOffset":0,"componentType":5126,"count":5101,"type":"VEC2","max":[0.989192545413971,0.5776157379150391],"min":[2.2250738585072014e-308,2.2250738585072014e-308]},{"bufferView":2,"byteOffset":0,"componentType":5125,"count":20520,"type":"SCALAR","max":[5100],"min":[0]},{"bufferView":3,"byteOffset":0,"componentType":5126,"count":184,"type":"VEC3","max":[2.1293013095855713,-1.9799058437347412,1.4538869857788086],"min":[-0.029652008786797523,-2.259438991546631,2.2250738585072014e-308]},{"bufferView":4,"byteOffset":0,"componentType":5126,"count":184,"type":"VEC2","max":[0.6017160415649414,0.5469284057617188],"min":[2.2250738585072014e-308,2.2250738585072014e-308]},{"bufferView":5,"byteOffset":0,"componentType":5125,"count":693,"type":"SCALAR","max":[183],"min":[0]}],"buffers":[{"byteLength":190552,"uri":"tile_0274.bin"}],"bufferViews":[{"buffer":0,"byteOffset":0,"byteLength":61212,"target":34962},{"buffer":0,"byteOffset":61212,"byteLength":40808,"target":34962},{"buffer":0,"byteOffset":102020,"byteLength":82080,"target":34963},{"buffer":0,"byteOffset":184100,"byteLength":2208,"target":34962},{"buffer":0,"byteOffset":186308,"byteLength":1472,"target":34962},{"buffer":0,"byteOffset":187780,"byteLength":2772,"target":34963}],"images":[{"uri":"../textures/tile_0274_material_0.jpg"},{"uri":"../textures/tile_0274_material_1.jpg"}],"materials":[{"name":"DefaultMaterial","pbrMetallicRoughness":{"baseColorFactor":[0.6000000238418579,0.6000000238418579,0.6000000238418579,1.0],"metallicFactor":0.0},"extensions":{"KHR_materials_specular":{"specularFactor":1.0,"specularColorFactor":[0.0,0.0,0.0]},"KHR_materials_ior":{"ior":1.0}}},{"name":"material_0_material","pbrMetallicRoughness":{"baseColorTexture":{"index":0},"metallicFactor":0.0},"extensions":{"KHR_materials_specular":{"specularFactor":1.0,"specularColorFactor":[0.0,0.0,0.0]},"KHR_materials_ior":{"ior":1.0}}},{"name":"material_1_material","pbrMetallicRoughness":{"baseColorTexture":{"index":1},"metallicFactor":0.0},"extensions":{"KHR_materials_specular":{"specularFactor":1.0,"specularColorFactor":[0.0,0.0,0.0]},"KHR_materials_ior":{"ior":1.0}}}],"meshes":[{"name":"defaultobject","primitives":[{"mode":4,"material":1,"indices":2,"attributes":{"POSITION":0,"TEXCOORD_0":1}},{"mode":4,"material":2,"indices":5,"attributes":{"POSITION":3,"TEXCOORD_0":4}}]}],"nodes":[{"name":"tile_0274.obj","children":[1]},{"name":"defaultobject","mesh":0}],"samplers":[{},{}],"scenes":[{"nodes":[0]}],"textures":[{"source":0,"sampler":0},{"source":1,"sampler":1}],"scene":0}
