{"asset":{"version":"2.0","generator":"Open Asset Import Library (assimp v6.0.0)"},"extensionsUsed":["KHR_materials_specular","KHR_materials_volume","KHR_materials_ior","FB_ngon_encoding"],"accessors":[{"bufferView":0,"byteOffset":0,"componentType":5126,"count":13162,"type":"VEC3","max":[1.8853583335876465,0.9542659521102905,2.7852814197540283],"min":[2.2250738585072014e-308,2.2250738585072014e-308,2.2250738585072014e-308]},{"bufferView":1,"byteOffset":0,"componentType":5126,"count":13162,"type":"VEC2","max":[0.9919750690460205,0.7340984344482422],"min":[2.2250738585072014e-308,2.2250738585072014e-308]},{"bufferView":2,"byteOffset":0,"componentType":5125,"count":59169,"type":"SCALAR","max":[13161],"min":[0]},{"bufferView":3,"byteOffset":0,"componentType":5126,"count":1000,"type":"VEC3","max":[1.4907721281051636,0.9490209817886353,2.782843589782715],"min":[2.2250738585072014e-308,2.2250738585072014e-308,2.2250738585072014e-308]},{"bufferView":4,"byteOffset":0,"componentType":5126,"count":1000,"type":"VEC2","max":[0.5014467239379883,0.6052169799804688],"min":[2.2250738585072014e-308,2.2250738585072014e-308]},{"bufferView":5,"byteOffset":0,"componentType":5125,"count":4788,"type":"SCALAR","max":[999],"min":[0]}],"buffers":[{"byteLength":539068,"uri":"tile_0431.bin"}],"bufferViews":[{"buffer":0,"byteOffset":0,"byteLength":157944,"target":34962},{"buffer":0,"byteOffset":157944,"byteLength":105296,"target":34962},{"buffer":0,"byteOffset":263240,"byteLength":236676,"target":34963},{"buffer":0,"byteOffset":499916,"byteLength":12000,"target":34962},{"buffer":0,"byteOffset":511916,"byteLength":8000,"target":34962},{"buffer":0,"byteOffset":519916,"byteLength":19152,"target":34963}],"images":[{"uri":"../textures/tile_0431_material_0.jpg"},{"uri":"../textures/tile_0431_material_1.jpg"}],"materials":[{"name":"DefaultMaterial","pbrMetallicRoughness":{"baseColorFactor":[0.6000000238418579,0.6000000238418579,0.6000000238418579,1.0],"metallicFactor":0.0},"extensions":{"KHR_materials_specular":{"specularFactor":1.0,"specularColorFactor":[0.0,0.0,0.0]},"KHR_materials_ior":{"ior":1.0}}},{"name":"material_0_material","pbrMetallicRoughness":{"baseColorTexture":{"index":0},"metallicFactor":0.0},"extensions":{"KHR_materials_specular":{"specularFactor":1.0,"specularColorFactor":[0.0,0.0,0.0]},"KHR_materials_ior":{"ior":1.0}}},{"name":"material_1_material","pbrMetallicRoughness":{"baseColorTexture":{"index":1},"metallicFactor":0.0},"extensions":{"KHR_materials_specular":{"specularFactor":1.0,"specularColorFactor":[0.0,0.0,0.0]},"KHR_materials_ior":{"ior":1.0}}}],"meshes":[{"name":"defaultobject","primitives":[{"mode":4,"material":1,"indices":2,"attributes":{"POSITION":0,"TEXCOORD_0":1}},{"mode":4,"material":2,"indices":5,"attributes":{"POSITION":3,"TEXCOORD_0":4}}]}],"nodes":[{"name":"tile_0431.obj","children":[1]},{"name":"defaultobject","mesh":0}],"samplers":[{},{}],"scenes":[{"nodes":[0]}],"textures":[{"source":0,"sampler":0},{"source":1,"sampler":1}],"scene":0}
