{"asset":{"version":"2.0","generator":"Open Asset Import Library (assimp v6.0.0)"},"extensionsUsed":["KHR_materials_specular","KHR_materials_volume","KHR_materials_ior","FB_ngon_encoding"],"accessors":[{"bufferView":0,"byteOffset":0,"componentType":5126,"count":10533,"type":"VEC3","max":[2.3323233127593994,2.119257926940918,1.9310765266418457],"min":[2.2250738585072014e-308,2.2250738585072014e-308,2.2250738585072014e-308]},{"bufferView":1,"byteOffset":0,"componentType":5126,"count":10533,"type":"VEC2","max":[0.9924435615539551,0.5174465179443359],"min":[2.2250738585072014e-308,2.2250738585072014e-308]},{"bufferView":2,"byteOffset":0,"componentType":5125,"count":50091,"type":"SCALAR","max":[10532],"min":[0]},{"bufferView":3,"byteOffset":0,"componentType":5126,"count":582,"type":"VEC3","max":[2.2835257053375244,1.777945876121521,1.9260717630386353],"min":[2.2250738585072014e-308,2.2250738585072014e-308,2.2250738585072014e-308]},{"bufferView":4,"byteOffset":0,"componentType":5126,"count":582,"type":"VEC2","max":[0.9653291702270508,0.6572113037109375],"min":[2.2250738585072014e-308,2.2250738585072014e-308]},{"bufferView":5,"byteOffset":0,"componentType":5125,"count":2838,"type":"SCALAR","max":[581],"min":[0]}],"buffers":[{"byteLength":434016,"uri":"tile_0005.bin"}],"bufferViews":[{"buffer":0,"byteOffset":0,"byteLength":126396,"target":34962},{"buffer":0,"byteOffset":126396,"byteLength":84264,"target":34962},{"buffer":0,"byteOffset":210660,"byteLength":200364,"target":34963},{"buffer":0,"byteOffset":411024,"byteLength":6984,"target":34962},{"buffer":0,"byteOffset":418008,"byteLength":4656,"target":34962},{"buffer":0,"byteOffset":422664,"byteLength":11352,"target":34963}],"images":[{"uri":"../textures/tile_0005_material_0.jpg"},{"uri":"../textures/tile_0005_material_1.jpg"}],"materials":[{"name":"DefaultMaterial","pbrMetallicRoughness":{"baseColorFactor":[0.6000000238418579,0.6000000238418579,0.6000000238418579,1.0],"metallicFactor":0.0},"extensions":{"KHR_materials_specular":{"specularFactor":1.0,"specularColorFactor":[0.0,0.0,0.0]},"KHR_materials_ior":{"ior":1.0}}},{"name":"material_0_material","pbrMetallicRoughness":{"baseColorTexture":{"index":0},"metallicFactor":0.0},"extensions":{"KHR_materials_specular":{"specularFactor":1.0,"specularColorFactor":[0.0,0.0,0.0]},"KHR_materials_ior":{"ior":1.0}}},{"name":"material_1_material","pbrMetallicRoughness":{"baseColorTexture":{"index":1},"metallicFactor":0.0},"extensions":{"KHR_materials_specular":{"specularFactor":1.0,"specularColorFactor":[0.0,0.0,0.0]},"KHR_materials_ior":{"ior":1.0}}}],"meshes":[{"name":"defaultobject","primitives":[{"mode":4,"material":1,"indices":2,"attributes":{"POSITION":0,"TEXCOORD_0":1}},{"mode":4,"material":2,"indices":5,"attributes":{"POSITION":3,"TEXCOORD_0":4}}]}],"nodes":[{"name":"tile_0005.obj","children":[1]},{"name":"defaultobject","mesh":0}],"samplers":[{},{}],"scenes":[{"nodes":[0]}],"textures":[{"source":0,"sampler":0},{"source":1,"sampler":1}],"scene":0}
