{"asset":{"version":"2.0","generator":"Open Asset Import Library (assimp v6.0.0)"},"extensionsUsed":["KHR_materials_specular","KHR_materials_volume","KHR_materials_ior","FB_ngon_encoding"],"accessors":[{"bufferView":0,"byteOffset":0,"componentType":5126,"count":5595,"type":"VEC3","max":[1.367152214050293,-3.365729331970215,1.8202062845230103],"min":[2.2250738585072014e-308,-3.5158252716064453,2.2250738585072014e-308]},{"bufferView":1,"byteOffset":0,"componentType":5126,"count":5595,"type":"VEC2","max":[0.9958176612854004,0.6685619354248047],"min":[2.2250738585072014e-308,2.2250738585072014e-308]},{"bufferView":2,"byteOffset":0,"componentType":5125,"count":22353,"type":"SCALAR","max":[5594],"min":[0]},{"bufferView":3,"byteOffset":0,"componentType":5126,"count":1862,"type":"VEC3","max":[1.3245927095413208,-3.3662662506103516,1.8194876909255981],"min":[2.2250738585072014e-308,-3.513145685195923,2.2250738585072014e-308]},{"bufferView":4,"byteOffset":0,"componentType":5126,"count":1862,"type":"VEC2","max":[0.6324062347412109,0.7258396148681641],"min":[2.2250738585072014e-308,2.2250738585072014e-308]},{"bufferView":5,"byteOffset":0,"componentType":5125,"count":9585,"type":"SCALAR","max":[1861],"min":[0]}],"buffers":[{"byteLength":276892,"uri":"tile_0602.bin"}],"bufferViews":[{"buffer":0,"byteOffset":0,"byteLength":67140,"target":34962},{"buffer":0,"byteOffset":67140,"byteLength":44760,"target":34962},{"buffer":0,"byteOffset":111900,"byteLength":89412,"target":34963},{"buffer":0,"byteOffset":201312,"byteLength":22344,"target":34962},{"buffer":0,"byteOffset":223656,"byteLength":14896,"target":34962},{"buffer":0,"byteOffset":238552,"byteLength":38340,"target":34963}],"images":[{"uri":"../textures/tile_0602_material_0.jpg"},{"uri":"../textures/tile_0602_material_1.jpg"}],"materials":[{"name":"DefaultMaterial","pbrMetallicRoughness":{"baseColorFactor":[0.6000000238418579,0.6000000238418579,0.6000000238418579,1.0],"metallicFactor":0.0},"extensions":{"KHR_materials_specular":{"specularFactor":1.0,"specularColorFactor":[0.0,0.0,0.0]},"KHR_materials_ior":{"ior":1.0}}},{"name":"material_0_material","pbrMetallicRoughness":{"baseColorTexture":{"index":0},"metallicFactor":0.0},"extensions":{"KHR_materials_specular":{"specularFactor":1.0,"specularColorFactor":[0.0,0.0,0.0]},"KHR_materials_ior":{"ior":1.0}}},{"name":"material_1_material","pbrMetallicRoughness":{"baseColorTexture":{"index":1},"metallicFactor":0.0},"extensions":{"KHR_materials_specular":{"specularFactor":1.0,"specularColorFactor":[0.0,0.0,0.0]},"KHR_materials_ior":{"ior":1.0}}}],"meshes":[{"name":"defaultobject","primitives":[{"mode":4,"material":1,"indices":2,"attributes":{"POSITION":0,"TEXCOORD_0":1}},{"mode":4,"material":2,"indices":5,"attributes":{"POSITION":3,"TEXCOORD_0":4}}]}],"nodes":[{"name":"tile_0602.obj","children":[1]},{"name":"defaultobject","mesh":0}],"samplers":[{},{}],"scenes":[{"nodes":[0]}],"textures":[{"source":0,"sampler":0},{"source":1,"sampler":1}],"scene":0}
