{"asset":{"version":"2.0","generator":"Open Asset Import Library (assimp v6.0.0)"},"extensionsUsed":["KHR_materials_specular","KHR_materials_volume","KHR_materials_ior","FB_ngon_encoding"],"accessors":[{"bufferView":0,"byteOffset":0,"componentType":5126,"count":4345,"type":"VEC3","max":[0.4840375483036041,-0.7368476390838623,2.819485664367676],"min":[-0.2987000048160553,-1.0094327926635742,2.2250738585072014e-308]},{"bufferView":1,"byteOffset":0,"componentType":5126,"count":4345,"type":"VEC2","max":[0.9929490089416504,0.6075420379638672],"min":[2.2250738585072014e-308,2.2250738585072014e-308]},{"bufferView":2,"byteOffset":0,"componentType":5125,"count":20454,"type":"SCALAR","max":[4344],"min":[0]},{"bufferView":3,"byteOffset":0,"componentType":5126,"count":12,"type":"VEC3","max":[0.5318365693092346,-0.8643659949302673,2.8250315189361572],"min":[2.2250738585072014e-308,-1.0336835384368896,2.2250738585072014e-308]},{"bufferView":4,"byteOffset":0,"componentType":5126,"count":12,"type":"VEC2","max":[0.5007781982421875,0.7229766845703125],"min":[2.2250738585072014e-308,2.2250738585072014e-308]},{"bufferView":5,"byteOffset":0,"componentType":5125,"count":27,"type":"SCALAR","max":[11],"min":[0]}],"buffers":[{"byteLength":169064,"uri":"tile_0363.bin"}],"bufferViews":[{"buffer":0,"byteOffset":0,"byteLength":52140,"target":34962},{"buffer":0,"byteOffset":52140,"byteLength":34760,"target":34962},{"buffer":0,"byteOffset":86900,"byteLength":81816,"target":34963},{"buffer":0,"byteOffset":168716,"byteLength":144,"target":34962},{"buffer":0,"byteOffset":168860,"byteLength":96,"target":34962},{"buffer":0,"byteOffset":168956,"byteLength":108,"target":34963}],"images":[{"uri":"../textures/tile_0363_material_0.jpg"},{"uri":"../textures/tile_0363_material_1.jpg"}],"materials":[{"name":"DefaultMaterial","pbrMetallicRoughness":{"baseColorFactor":[0.6000000238418579,0.6000000238418579,0.6000000238418579,1.0],"metallicFactor":0.0},"extensions":{"KHR_materials_specular":{"specularFactor":1.0,"specularColorFactor":[0.0,0.0,0.0]},"KHR_materials_ior":{"ior":1.0}}},{"name":"material_0_material","pbrMetallicRoughness":{"baseColorTexture":{"index":0},"metallicFactor":0.0},"extensions":{"KHR_materials_specular":{"specularFactor":1.0,"specularColorFactor":[0.0,0.0,0.0]},"KHR_materials_ior":{"ior":1.0}}},{"name":"material_1_material","pbrMetallicRoughness":{"baseColorTexture":{"index":1},"metallicFactor":0.0},"extensions":{"KHR_materials_specular":{"specularFactor":1.0,"specularColorFactor":[0.0,0.0,0.0]},"KHR_materials_ior":{"ior":1.0}}}],"meshes":[{"name":"defaultobject","primitives":[{"mode":4,"material":1,"indices":2,"attributes":{"POSITION":0,"TEXCOORD_0":1}},{"mode":4,"material":2,"indices":5,"attributes":{"POSITION":3,"TEXCOORD_0":4}}]}],"nodes":[{"name":"tile_0363.obj","children":[1]},{"name":"defaultobject","mesh":0}],"samplers":[{},{}],"scenes":[{"nodes":[0]}],"textures":[{"source":0,"sampler":0},{"source":1,"sampler":1}],"scene":0}
