{"asset":{"version":"2.0","generator":"Open Asset Import Library (assimp v6.0.0)"},"extensionsUsed":["KHR_materials_specular","KHR_materials_volume","KHR_materials_ior","FB_ngon_encoding"],"accessors":[{"bufferView":0,"byteOffset":0,"componentType":5126,"count":6574,"type":"VEC3","max":[3.8287155628204346,0.8480280637741089,-0.1144770160317421],"min":[2.2250738585072014e-308,2.2250738585072014e-308,-0.6561709046363831]},{"bufferView":1,"byteOffset":0,"componentType":5126,"count":6574,"type":"VEC2","max":[0.9920905828475952,0.7147178649902344],"min":[2.2250738585072014e-308,2.2250738585072014e-308]},{"bufferView":2,"byteOffset":0,"componentType":5125,"count":26160,"type":"SCALAR","max":[6573],"min":[0]},{"bufferView":3,"byteOffset":0,"componentType":5126,"count":44,"type":"VEC3","max":[3.8266165256500244,0.8530762195587158,-0.342359334230423],"min":[2.2250738585072014e-308,2.2250738585072014e-308,-0.652029812335968]},{"bufferView":4,"byteOffset":0,"componentType":5126,"count":44,"type":"VEC2","max":[0.7619323134422302,0.6576766967773438],"min":[2.2250738585072014e-308,2.2250738585072014e-308]},{"bufferView":5,"byteOffset":0,"componentType":5125,"count":153,"type":"SCALAR","max":[43],"min":[0]}],"buffers":[{"byteLength":237612,"uri":"tile_0119.bin"}],"bufferViews":[{"buffer":0,"byteOffset":0,"byteLength":78888,"target":34962},{"buffer":0,"byteOffset":78888,"byteLength":52592,"target":34962},{"buffer":0,"byteOffset":131480,"byteLength":104640,"target":34963},{"buffer":0,"byteOffset":236120,"byteLength":528,"target":34962},{"buffer":0,"byteOffset":236648,"byteLength":352,"target":34962},{"buffer":0,"byteOffset":237000,"byteLength":612,"target":34963}],"images":[{"uri":"../textures/tile_0119_material_0.jpg"},{"uri":"../textures/tile_0119_material_1.jpg"}],"materials":[{"name":"DefaultMaterial","pbrMetallicRoughness":{"baseColorFactor":[0.6000000238418579,0.6000000238418579,0.6000000238418579,1.0],"metallicFactor":0.0},"extensions":{"KHR_materials_specular":{"specularFactor":1.0,"specularColorFactor":[0.0,0.0,0.0]},"KHR_materials_ior":{"ior":1.0}}},{"name":"material_0_material","pbrMetallicRoughness":{"baseColorTexture":{"index":0},"metallicFactor":0.0},"extensions":{"KHR_materials_specular":{"specularFactor":1.0,"specularColorFactor":[0.0,0.0,0.0]},"KHR_materials_ior":{"ior":1.0}}},{"name":"material_1_material","pbrMetallicRoughness":{"baseColorTexture":{"index":1},"metallicFactor":0.0},"extensions":{"KHR_materials_specular":{"specularFactor":1.0,"specularColorFactor":[0.0,0.0,0.0]},"KHR_materials_ior":{"ior":1.0}}}],"meshes":[{"name":"defaultobject","primitives":[{"mode":4,"material":1,"indices":2,"attributes":{"POSITION":0,"TEXCOORD_0":1}},{"mode":4,"material":2,"indices":5,"attributes":{"POSITION":3,"TEXCOORD_0":4}}]}],"nodes":[{"name":"tile_0119.obj","children":[1]},{"name":"defaultobject","mesh":0}],"samplers":[{},{}],"scenes":[{"nodes":[0]}],"textures":[{"source":0,"sampler":0},{"source":1,"sampler":1}],"scene":0}
