{"asset":{"version":"2.0","generator":"Open Asset Import Library (assimp v6.0.0)"},"extensionsUsed":["KHR_materials_specular","KHR_materials_volume","KHR_materials_ior","FB_ngon_encoding"],"accessors":[{"bufferView":0,"byteOffset":0,"componentType":5126,"count":13724,"type":"VEC3","max":[1.8816949129104614,-2.760861396789551,1.6896981000900269],"min":[2.2250738585072014e-308,-3.161144971847534,2.2250738585072014e-308]},{"bufferView":1,"byteOffset":0,"componentType":5126,"count":13724,"type":"VEC2","max":[0.9952735900878906,0.7109355926513672],"min":[2.2250738585072014e-308,2.2250738585072014e-308]},{"bufferView":2,"byteOffset":0,"componentType":5125,"count":56274,"type":"SCALAR","max":[13723],"min":[0]},{"bufferView":3,"byteOffset":0,"componentType":5126,"count":3572,"type":"VEC3","max":[1.3599234819412231,-2.764669895172119,1.6890255212783813],"min":[2.2250738585072014e-308,-3.158306360244751,2.2250738585072014e-308]},{"bufferView":4,"byteOffset":0,"componentType":5126,"count":3572,"type":"VEC2","max":[0.9909595251083374,0.8222217559814453],"min":[2.2250738585072014e-308,2.2250738585072014e-308]},{"bufferView":5,"byteOffset":0,"componentType":5125,"count":17865,"type":"SCALAR","max":[3571],"min":[0]}],"buffers":[{"byteLength":642476,"uri":"tile_0007.bin"}],"bufferViews":[{"buffer":0,"byteOffset":0,"byteLength":164688,"target":34962},{"buffer":0,"byteOffset":164688,"byteLength":109792,"target":34962},{"buffer":0,"byteOffset":274480,"byteLength":225096,"target":34963},{"buffer":0,"byteOffset":499576,"byteLength":42864,"target":34962},{"buffer":0,"byteOffset":542440,"byteLength":28576,"target":34962},{"buffer":0,"byteOffset":571016,"byteLength":71460,"target":34963}],"images":[{"uri":"../textures/tile_0007_material_0.jpg"},{"uri":"../textures/tile_0007_material_1.jpg"}],"materials":[{"name":"DefaultMaterial","pbrMetallicRoughness":{"baseColorFactor":[0.6000000238418579,0.6000000238418579,0.6000000238418579,1.0],"metallicFactor":0.0},"extensions":{"KHR_materials_specular":{"specularFactor":1.0,"specularColorFactor":[0.0,0.0,0.0]},"KHR_materials_ior":{"ior":1.0}}},{"name":"material_0_material","pbrMetallicRoughness":{"baseColorTexture":{"index":0},"metallicFactor":0.0},"extensions":{"KHR_materials_specular":{"specularFactor":1.0,"specularColorFactor":[0.0,0.0,0.0]},"KHR_materials_ior":{"ior":1.0}}},{"name":"material_1_material","pbrMetallicRoughness":{"baseColorTexture":{"index":1},"metallicFactor":0.0},"extensions":{"KHR_materials_specular":{"specularFactor":1.0,"specularColorFactor":[0.0,0.0,0.0]},"KHR_materials_ior":{"ior":1.0}}}],"meshes":[{"name":"defaultobject","primitives":[{"mode":4,"material":1,"indices":2,"attributes":{"POSITION":0,"TEXCOORD_0":1}},{"mode":4,"material":2,"indices":5,"attributes":{"POSITION":3,"TEXCOORD_0":4}}]}],"nodes":[{"name":"tile_0007.obj","children":[1]},{"name":"defaultobject","mesh":0}],"samplers":[{},{}],"scenes":[{"nodes":[0]}],"textures":[{"source":0,"sampler":0},{"source":1,"sampler":1}],"scene":0}
