{"asset":{"version":"2.0","generator":"Open Asset Import Library (assimp v6.0.0)"},"extensionsUsed":["KHR_materials_specular","KHR_materials_volume","KHR_materials_ior","FB_ngon_encoding"],"accessors":[{"bufferView":0,"byteOffset":0,"componentType":5126,"count":5010,"type":"VEC3","max":[2.2175869941711426,-2.513406276702881,1.2218642234802246],"min":[2.2250738585072014e-308,-2.6626741886138916,2.2250738585072014e-308]},{"bufferView":1,"byteOffset":0,"componentType":5126,"count":5010,"type":"VEC2","max":[0.9902453422546387,0.6054229736328125],"min":[2.2250738585072014e-308,2.2250738585072014e-308]},{"bufferView":2,"byteOffset":0,"componentType":5125,"count":20499,"type":"SCALAR","max":[5009],"min":[0]},{"bufferView":3,"byteOffset":0,"componentType":5126,"count":175,"type":"VEC3","max":[0.7936147451400757,-2.5726797580718994,1.1969661712646484],"min":[2.2250738585072014e-308,-2.646977424621582,2.2250738585072014e-308]},{"bufferView":4,"byteOffset":0,"componentType":5126,"count":175,"type":"VEC2","max":[0.5323829650878906,0.8671111464500427],"min":[2.2250738585072014e-308,2.2250738585072014e-308]},{"bufferView":5,"byteOffset":0,"componentType":5125,"count":765,"type":"SCALAR","max":[174],"min":[0]}],"buffers":[{"byteLength":188756,"uri":"tile_0244.bin"}],"bufferViews":[{"buffer":0,"byteOffset":0,"byteLength":60120,"target":34962},{"buffer":0,"byteOffset":60120,"byteLength":40080,"target":34962},{"buffer":0,"byteOffset":100200,"byteLength":81996,"target":34963},{"buffer":0,"byteOffset":182196,"byteLength":2100,"target":34962},{"buffer":0,"byteOffset":184296,"byteLength":1400,"target":34962},{"buffer":0,"byteOffset":185696,"byteLength":3060,"target":34963}],"images":[{"uri":"../textures/tile_0244_material_0.jpg"},{"uri":"../textures/tile_0244_material_1.jpg"}],"materials":[{"name":"DefaultMaterial","pbrMetallicRoughness":{"baseColorFactor":[0.6000000238418579,0.6000000238418579,0.6000000238418579,1.0],"metallicFactor":0.0},"extensions":{"KHR_materials_specular":{"specularFactor":1.0,"specularColorFactor":[0.0,0.0,0.0]},"KHR_materials_ior":{"ior":1.0}}},{"name":"material_0_material","pbrMetallicRoughness":{"baseColorTexture":{"index":0},"metallicFactor":0.0},"extensions":{"KHR_materials_specular":{"specularFactor":1.0,"specularColorFactor":[0.0,0.0,0.0]},"KHR_materials_ior":{"ior":1.0}}},{"name":"material_1_material","pbrMetallicRoughness":{"baseColorTexture":{"index":1},"metallicFactor":0.0},"extensions":{"KHR_materials_specular":{"specularFactor":1.0,"specularColorFactor":[0.0,0.0,0.0]},"KHR_materials_ior":{"ior":1.0}}}],"meshes":[{"name":"defaultobject","primitives":[{"mode":4,"material":1,"indices":2,"attributes":{"POSITION":0,"TEXCOORD_0":1}},{"mode":4,"material":2,"indices":5,"attributes":{"POSITION":3,"TEXCOORD_0":4}}]}],"nodes":[{"name":"tile_0244.obj","children":[1]},{"name":"defaultobject","mesh":0}],"samplers":[{},{}],"scenes":[{"nodes":[0]}],"textures":[{"source":0,"sampler":0},{"source":1,"sampler":1}],"scene":0}
