{"asset":{"version":"2.0","generator":"Open Asset Import Library (assimp v6.0.0)"},"extensionsUsed":["KHR_materials_specular","KHR_materials_volume","KHR_materials_ior","FB_ngon_encoding"],"accessors":[{"bufferView":0,"byteOffset":0,"componentType":5126,"count":7055,"type":"VEC3","max":[3.3808088302612305,-0.04074764996767044,0.1997436285018921],"min":[2.2250738585072014e-308,-0.1921926885843277,2.2250738585072014e-308]},{"bufferView":1,"byteOffset":0,"componentType":5126,"count":7055,"type":"VEC2","max":[0.9955363273620605,0.71875],"min":[2.2250738585072014e-308,2.2250738585072014e-308]},{"bufferView":2,"byteOffset":0,"componentType":5125,"count":21972,"type":"SCALAR","max":[7054],"min":[0]},{"bufferView":3,"byteOffset":0,"componentType":5126,"count":1534,"type":"VEC3","max":[3.1707067489624023,-0.048579372465610504,0.1983785182237625],"min":[2.2250738585072014e-308,-0.18979112803936005,2.2250738585072014e-308]},{"bufferView":4,"byteOffset":0,"componentType":5126,"count":1534,"type":"VEC2","max":[0.5515785217285156,0.6821517944335938],"min":[2.2250738585072014e-308,2.2250738585072014e-308]},{"bufferView":5,"byteOffset":0,"componentType":5125,"count":6576,"type":"SCALAR","max":[1533],"min":[0]}],"buffers":[{"byteLength":285972,"uri":"tile_0189.bin"}],"bufferViews":[{"buffer":0,"byteOffset":0,"byteLength":84660,"target":34962},{"buffer":0,"byteOffset":84660,"byteLength":56440,"target":34962},{"buffer":0,"byteOffset":141100,"byteLength":87888,"target":34963},{"buffer":0,"byteOffset":228988,"byteLength":18408,"target":34962},{"buffer":0,"byteOffset":247396,"byteLength":12272,"target":34962},{"buffer":0,"byteOffset":259668,"byteLength":26304,"target":34963}],"images":[{"uri":"../textures/tile_0189_material_0.jpg"},{"uri":"../textures/tile_0189_material_1.jpg"}],"materials":[{"name":"DefaultMaterial","pbrMetallicRoughness":{"baseColorFactor":[0.6000000238418579,0.6000000238418579,0.6000000238418579,1.0],"metallicFactor":0.0},"extensions":{"KHR_materials_specular":{"specularFactor":1.0,"specularColorFactor":[0.0,0.0,0.0]},"KHR_materials_ior":{"ior":1.0}}},{"name":"material_0_material","pbrMetallicRoughness":{"baseColorTexture":{"index":0},"metallicFactor":0.0},"extensions":{"KHR_materials_specular":{"specularFactor":1.0,"specularColorFactor":[0.0,0.0,0.0]},"KHR_materials_ior":{"ior":1.0}}},{"name":"material_1_material","pbrMetallicRoughness":{"baseColorTexture":{"index":1},"metallicFactor":0.0},"extensions":{"KHR_materials_specular":{"specularFactor":1.0,"specularColorFactor":[0.0,0.0,0.0]},"KHR_materials_ior":{"ior":1.0}}}],"meshes":[{"name":"defaultobject","primitives":[{"mode":4,"material":1,"indices":2,"attributes":{"POSITION":0,"TEXCOORD_0":1}},{"mode":4,"material":2,"indices":5,"attributes":{"POSITION":3,"TEXCOORD_0":4}}]}],"nodes":[{"name":"tile_0189.obj","children":[1]},{"name":"defaultobject","mesh":0}],"samplers":[{},{}],"scenes":[{"nodes":[0]}],"textures":[{"source":0,"sampler":0},{"source":1,"sampler":1}],"scene":0}
