{"asset":{"version":"2.0","generator":"Open Asset Import Library (assimp v6.0.0)"},"extensionsUsed":["KHR_materials_specular","KHR_materials_volume","KHR_materials_ior","FB_ngon_encoding"],"accessors":[{"bufferView":0,"byteOffset":0,"componentType":5126,"count":9577,"type":"VEC3","max":[2.3011107444763184,3.357947826385498,2.136695146560669],"min":[2.2250738585072014e-308,2.2250738585072014e-308,2.2250738585072014e-308]},{"bufferView":1,"byteOffset":0,"componentType":5126,"count":9577,"type":"VEC2","max":[0.9923715591430664,0.5839757919311523],"min":[2.2250738585072014e-308,2.2250738585072014e-308]},{"bufferView":2,"byteOffset":0,"componentType":5125,"count":45285,"type":"SCALAR","max":[9576],"min":[0]},{"bufferView":3,"byteOffset":0,"componentType":5126,"count":3549,"type":"VEC3","max":[2.2844507694244385,3.357947826385498,2.129298686981201],"min":[2.2250738585072014e-308,2.2250738585072014e-308,2.2250738585072014e-308]},{"bufferView":4,"byteOffset":0,"componentType":5126,"count":3549,"type":"VEC2","max":[0.8710904121398926,0.6838560104370117],"min":[2.2250738585072014e-308,2.2250738585072014e-308]},{"bufferView":5,"byteOffset":0,"componentType":5125,"count":18150,"type":"SCALAR","max":[3548],"min":[0]}],"buffers":[{"byteLength":516260,"uri":"tile_0579.bin"}],"bufferViews":[{"buffer":0,"byteOffset":0,"byteLength":114924,"target":34962},{"buffer":0,"byteOffset":114924,"byteLength":76616,"target":34962},{"buffer":0,"byteOffset":191540,"byteLength":181140,"target":34963},{"buffer":0,"byteOffset":372680,"byteLength":42588,"target":34962},{"buffer":0,"byteOffset":415268,"byteLength":28392,"target":34962},{"buffer":0,"byteOffset":443660,"byteLength":72600,"target":34963}],"images":[{"uri":"../textures/tile_0579_material_0.jpg"},{"uri":"../textures/tile_0579_material_1.jpg"}],"materials":[{"name":"DefaultMaterial","pbrMetallicRoughness":{"baseColorFactor":[0.6000000238418579,0.6000000238418579,0.6000000238418579,1.0],"metallicFactor":0.0},"extensions":{"KHR_materials_specular":{"specularFactor":1.0,"specularColorFactor":[0.0,0.0,0.0]},"KHR_materials_ior":{"ior":1.0}}},{"name":"material_0_material","pbrMetallicRoughness":{"baseColorTexture":{"index":0},"metallicFactor":0.0},"extensions":{"KHR_materials_specular":{"specularFactor":1.0,"specularColorFactor":[0.0,0.0,0.0]},"KHR_materials_ior":{"ior":1.0}}},{"name":"material_1_material","pbrMetallicRoughness":{"baseColorTexture":{"index":1},"metallicFactor":0.0},"extensions":{"KHR_materials_specular":{"specularFactor":1.0,"specularColorFactor":[0.0,0.0,0.0]},"KHR_materials_ior":{"ior":1.0}}}],"meshes":[{"name":"defaultobject","primitives":[{"mode":4,"material":1,"indices":2,"attributes":{"POSITION":0,"TEXCOORD_0":1}},{"mode":4,"material":2,"indices":5,"attributes":{"POSITION":3,"TEXCOORD_0":4}}]}],"nodes":[{"name":"tile_0579.obj","children":[1]},{"name":"defaultobject","mesh":0}],"samplers":[{},{}],"scenes":[{"nodes":[0]}],"textures":[{"source":0,"sampler":0},{"source":1,"sampler":1}],"scene":0}
