{"asset":{"version":"2.0","generator":"Open Asset Import Library (assimp v6.0.0)"},"extensionsUsed":["KHR_materials_specular","KHR_materials_volume","KHR_materials_ior","FB_ngon_encoding"],"accessors":[{"bufferView":0,"byteOffset":0,"componentType":5126,"count":3064,"type":"VEC3","max":[1.7660936117172241,-1.3228511810302734,1.8650010824203491],"min":[-0.47248661518096924,-1.6024014949798584,2.2250738585072014e-308]},{"bufferView":1,"byteOffset":0,"componentType":5126,"count":3064,"type":"VEC2","max":[0.9956779479980469,0.5153903961181641],"min":[2.2250738585072014e-308,2.2250738585072014e-308]},{"bufferView":2,"byteOffset":0,"componentType":5125,"count":11220,"type":"SCALAR","max":[3063],"min":[0]},{"bufferView":3,"byteOffset":0,"componentType":5126,"count":2675,"type":"VEC3","max":[-0.4012943506240845,-1.343222737312317,1.843759298324585],"min":[-0.474122017621994,-1.5797812938690186,2.2250738585072014e-308]},{"bufferView":4,"byteOffset":0,"componentType":5126,"count":2675,"type":"VEC2","max":[0.8647165298461914,0.773345947265625],"min":[2.2250738585072014e-308,2.2250738585072014e-308]},{"bufferView":5,"byteOffset":0,"componentType":5125,"count":13395,"type":"SCALAR","max":[2674],"min":[0]}],"buffers":[{"byteLength":213240,"uri":"tile_0294.bin"}],"bufferViews":[{"buffer":0,"byteOffset":0,"byteLength":36768,"target":34962},{"buffer":0,"byteOffset":36768,"byteLength":24512,"target":34962},{"buffer":0,"byteOffset":61280,"byteLength":44880,"target":34963},{"buffer":0,"byteOffset":106160,"byteLength":32100,"target":34962},{"buffer":0,"byteOffset":138260,"byteLength":21400,"target":34962},{"buffer":0,"byteOffset":159660,"byteLength":53580,"target":34963}],"images":[{"uri":"../textures/tile_0294_material_0.jpg"},{"uri":"../textures/tile_0294_material_1.jpg"}],"materials":[{"name":"DefaultMaterial","pbrMetallicRoughness":{"baseColorFactor":[0.6000000238418579,0.6000000238418579,0.6000000238418579,1.0],"metallicFactor":0.0},"extensions":{"KHR_materials_specular":{"specularFactor":1.0,"specularColorFactor":[0.0,0.0,0.0]},"KHR_materials_ior":{"ior":1.0}}},{"name":"material_0_material","pbrMetallicRoughness":{"baseColorTexture":{"index":0},"metallicFactor":0.0},"extensions":{"KHR_materials_specular":{"specularFactor":1.0,"specularColorFactor":[0.0,0.0,0.0]},"KHR_materials_ior":{"ior":1.0}}},{"name":"material_1_material","pbrMetallicRoughness":{"baseColorTexture":{"index":1},"metallicFactor":0.0},"extensions":{"KHR_materials_specular":{"specularFactor":1.0,"specularColorFactor":[0.0,0.0,0.0]},"KHR_materials_ior":{"ior":1.0}}}],"meshes":[{"name":"defaultobject","primitives":[{"mode":4,"material":1,"indices":2,"attributes":{"POSITION":0,"TEXCOORD_0":1}},{"mode":4,"material":2,"indices":5,"attributes":{"POSITION":3,"TEXCOORD_0":4}}]}],"nodes":[{"name":"tile_0294.obj","children":[1]},{"name":"defaultobject","mesh":0}],"samplers":[{},{}],"scenes":[{"nodes":[0]}],"textures":[{"source":0,"sampler":0},{"source":1,"sampler":1}],"scene":0}
