{"asset":{"version":"2.0","generator":"Open Asset Import Library (assimp v6.0.0)"},"extensionsUsed":["KHR_materials_specular","KHR_materials_volume","KHR_materials_ior","FB_ngon_encoding"],"accessors":[{"bufferView":0,"byteOffset":0,"componentType":5126,"count":5852,"type":"VEC3","max":[3.237879991531372,-0.053818441927433014,0.3881523013114929],"min":[2.2250738585072014e-308,-0.1976039558649063,2.2250738585072014e-308]},{"bufferView":1,"byteOffset":0,"componentType":5126,"count":5852,"type":"VEC2","max":[0.9960479736328125,0.6055450439453125],"min":[2.2250738585072014e-308,2.2250738585072014e-308]},{"bufferView":2,"byteOffset":0,"componentType":5125,"count":21942,"type":"SCALAR","max":[5851],"min":[0]},{"bufferView":3,"byteOffset":0,"componentType":5126,"count":907,"type":"VEC3","max":[3.230173349380493,-0.05449493229389191,0.3881523013114929],"min":[2.2250738585072014e-308,-0.1976039558649063,2.2250738585072014e-308]},{"bufferView":4,"byteOffset":0,"componentType":5126,"count":907,"type":"VEC2","max":[0.8765392303466797,0.72723388671875],"min":[2.2250738585072014e-308,2.2250738585072014e-308]},{"bufferView":5,"byteOffset":0,"componentType":5125,"count":4092,"type":"SCALAR","max":[906],"min":[0]}],"buffers":[{"byteLength":239316,"uri":"tile_0170.bin"}],"bufferViews":[{"buffer":0,"byteOffset":0,"byteLength":70224,"target":34962},{"buffer":0,"byteOffset":70224,"byteLength":46816,"target":34962},{"buffer":0,"byteOffset":117040,"byteLength":87768,"target":34963},{"buffer":0,"byteOffset":204808,"byteLength":10884,"target":34962},{"buffer":0,"byteOffset":215692,"byteLength":7256,"target":34962},{"buffer":0,"byteOffset":222948,"byteLength":16368,"target":34963}],"images":[{"uri":"../textures/tile_0170_material_0.jpg"},{"uri":"../textures/tile_0170_material_1.jpg"}],"materials":[{"name":"DefaultMaterial","pbrMetallicRoughness":{"baseColorFactor":[0.6000000238418579,0.6000000238418579,0.6000000238418579,1.0],"metallicFactor":0.0},"extensions":{"KHR_materials_specular":{"specularFactor":1.0,"specularColorFactor":[0.0,0.0,0.0]},"KHR_materials_ior":{"ior":1.0}}},{"name":"material_0_material","pbrMetallicRoughness":{"baseColorTexture":{"index":0},"metallicFactor":0.0},"extensions":{"KHR_materials_specular":{"specularFactor":1.0,"specularColorFactor":[0.0,0.0,0.0]},"KHR_materials_ior":{"ior":1.0}}},{"name":"material_1_material","pbrMetallicRoughness":{"baseColorTexture":{"index":1},"metallicFactor":0.0},"extensions":{"KHR_materials_specular":{"specularFactor":1.0,"specularColorFactor":[0.0,0.0,0.0]},"KHR_materials_ior":{"ior":1.0}}}],"meshes":[{"name":"defaultobject","primitives":[{"mode":4,"material":1,"indices":2,"attributes":{"POSITION":0,"TEXCOORD_0":1}},{"mode":4,"material":2,"indices":5,"attributes":{"POSITION":3,"TEXCOORD_0":4}}]}],"nodes":[{"name":"tile_0170.obj","children":[1]},{"name":"defaultobject","mesh":0}],"samplers":[{},{}],"scenes":[{"nodes":[0]}],"textures":[{"source":0,"sampler":0},{"source":1,"sampler":1}],"scene":0}
