{"asset":{"version":"2.0","generator":"Open Asset Import Library (assimp v6.0.0)"},"extensionsUsed":["KHR_materials_specular","KHR_materials_volume","KHR_materials_ior","FB_ngon_encoding"],"accessors":[{"bufferView":0,"byteOffset":0,"componentType":5126,"count":5116,"type":"VEC3","max":[3.8258180618286133,-0.7744787931442261,0.05050640180706978],"min":[2.2250738585072014e-308,-0.9010144472122192,-0.8719162344932556]},{"bufferView":1,"byteOffset":0,"componentType":5126,"count":5116,"type":"VEC2","max":[0.991663932800293,0.6444683074951172],"min":[2.2250738585072014e-308,2.2250738585072014e-308]},{"bufferView":2,"byteOffset":0,"componentType":5125,"count":21120,"type":"SCALAR","max":[5115],"min":[0]},{"bufferView":3,"byteOffset":0,"componentType":5126,"count":168,"type":"VEC3","max":[3.8276500701904297,-0.7744787931442261,-0.2678682208061218],"min":[2.2250738585072014e-308,-0.9370741248130798,-1.0535321235656738]},{"bufferView":4,"byteOffset":0,"componentType":5126,"count":168,"type":"VEC2","max":[0.49366068840026855,0.7518463134765625],"min":[2.2250738585072014e-308,2.2250738585072014e-308]},{"bufferView":5,"byteOffset":0,"componentType":5125,"count":681,"type":"SCALAR","max":[167],"min":[0]}],"buffers":[{"byteLength":192884,"uri":"tile_0640.bin"}],"bufferViews":[{"buffer":0,"byteOffset":0,"byteLength":61392,"target":34962},{"buffer":0,"byteOffset":61392,"byteLength":40928,"target":34962},{"buffer":0,"byteOffset":102320,"byteLength":84480,"target":34963},{"buffer":0,"byteOffset":186800,"byteLength":2016,"target":34962},{"buffer":0,"byteOffset":188816,"byteLength":1344,"target":34962},{"buffer":0,"byteOffset":190160,"byteLength":2724,"target":34963}],"images":[{"uri":"../textures/tile_0640_material_0.jpg"},{"uri":"../textures/tile_0640_material_1.jpg"}],"materials":[{"name":"DefaultMaterial","pbrMetallicRoughness":{"baseColorFactor":[0.6000000238418579,0.6000000238418579,0.6000000238418579,1.0],"metallicFactor":0.0},"extensions":{"KHR_materials_specular":{"specularFactor":1.0,"specularColorFactor":[0.0,0.0,0.0]},"KHR_materials_ior":{"ior":1.0}}},{"name":"material_0_material","pbrMetallicRoughness":{"baseColorTexture":{"index":0},"metallicFactor":0.0},"extensions":{"KHR_materials_specular":{"specularFactor":1.0,"specularColorFactor":[0.0,0.0,0.0]},"KHR_materials_ior":{"ior":1.0}}},{"name":"material_1_material","pbrMetallicRoughness":{"baseColorTexture":{"index":1},"metallicFactor":0.0},"extensions":{"KHR_materials_specular":{"specularFactor":1.0,"specularColorFactor":[0.0,0.0,0.0]},"KHR_materials_ior":{"ior":1.0}}}],"meshes":[{"name":"defaultobject","primitives":[{"mode":4,"material":1,"indices":2,"attributes":{"POSITION":0,"TEXCOORD_0":1}},{"mode":4,"material":2,"indices":5,"attributes":{"POSITION":3,"TEXCOORD_0":4}}]}],"nodes":[{"name":"tile_0640.obj","children":[1]},{"name":"defaultobject","mesh":0}],"samplers":[{},{}],"scenes":[{"nodes":[0]}],"textures":[{"source":0,"sampler":0},{"source":1,"sampler":1}],"scene":0}
