{"asset":{"version":"2.0","generator":"Open Asset Import Library (assimp v6.0.0)"},"extensionsUsed":["KHR_materials_specular","KHR_materials_volume","KHR_materials_ior","FB_ngon_encoding"],"accessors":[{"bufferView":0,"byteOffset":0,"componentType":5126,"count":3663,"type":"VEC3","max":[1.0844236612319946,-0.1666203886270523,3.239861488342285],"min":[2.2250738585072014e-308,-0.3709999918937683,2.2250738585072014e-308]},{"bufferView":1,"byteOffset":0,"componentType":5126,"count":3663,"type":"VEC2","max":[0.9845716953277588,0.8486404418945312],"min":[2.2250738585072014e-308,2.2250738585072014e-308]},{"bufferView":2,"byteOffset":0,"componentType":5125,"count":16707,"type":"SCALAR","max":[3662],"min":[0]},{"bufferView":3,"byteOffset":0,"componentType":5126,"count":933,"type":"VEC3","max":[0.9997202754020691,-0.19251929223537445,3.076239824295044],"min":[2.2250738585072014e-308,-0.33885374665260315,2.2250738585072014e-308]},{"bufferView":4,"byteOffset":0,"componentType":5126,"count":933,"type":"VEC2","max":[0.5757942199707031,0.5355796813964844],"min":[2.2250738585072014e-308,2.2250738585072014e-308]},{"bufferView":5,"byteOffset":0,"componentType":5125,"count":5043,"type":"SCALAR","max":[932],"min":[0]}],"buffers":[{"byteLength":178920,"uri":"tile_0410.bin"}],"bufferViews":[{"buffer":0,"byteOffset":0,"byteLength":43956,"target":34962},{"buffer":0,"byteOffset":43956,"byteLength":29304,"target":34962},{"buffer":0,"byteOffset":73260,"byteLength":66828,"target":34963},{"buffer":0,"byteOffset":140088,"byteLength":11196,"target":34962},{"buffer":0,"byteOffset":151284,"byteLength":7464,"target":34962},{"buffer":0,"byteOffset":158748,"byteLength":20172,"target":34963}],"images":[{"uri":"../textures/tile_0410_material_0.jpg"},{"uri":"../textures/tile_0410_material_1.jpg"}],"materials":[{"name":"DefaultMaterial","pbrMetallicRoughness":{"baseColorFactor":[0.6000000238418579,0.6000000238418579,0.6000000238418579,1.0],"metallicFactor":0.0},"extensions":{"KHR_materials_specular":{"specularFactor":1.0,"specularColorFactor":[0.0,0.0,0.0]},"KHR_materials_ior":{"ior":1.0}}},{"name":"material_0_material","pbrMetallicRoughness":{"baseColorTexture":{"index":0},"metallicFactor":0.0},"extensions":{"KHR_materials_specular":{"specularFactor":1.0,"specularColorFactor":[0.0,0.0,0.0]},"KHR_materials_ior":{"ior":1.0}}},{"name":"material_1_material","pbrMetallicRoughness":{"baseColorTexture":{"index":1},"metallicFactor":0.0},"extensions":{"KHR_materials_specular":{"specularFactor":1.0,"specularColorFactor":[0.0,0.0,0.0]},"KHR_materials_ior":{"ior":1.0}}}],"meshes":[{"name":"defaultobject","primitives":[{"mode":4,"material":1,"indices":2,"attributes":{"POSITION":0,"TEXCOORD_0":1}},{"mode":4,"material":2,"indices":5,"attributes":{"POSITION":3,"TEXCOORD_0":4}}]}],"nodes":[{"name":"tile_0410.obj","children":[1]},{"name":"defaultobject","mesh":0}],"samplers":[{},{}],"scenes":[{"nodes":[0]}],"textures":[{"source":0,"sampler":0},{"source":1,"sampler":1}],"scene":0}
