{"asset":{"version":"2.0","generator":"Open Asset Import Library (assimp v6.0.0)"},"extensionsUsed":["KHR_materials_specular","KHR_materials_volume","KHR_materials_ior","FB_ngon_encoding"],"accessors":[{"bufferView":0,"byteOffset":0,"componentType":5126,"count":15444,"type":"VEC3","max":[3.8285696506500244,2.919567346572876,0.06973443180322647],"min":[2.2250738585072014e-308,2.2250738585072014e-308,-0.5519150495529175]},{"bufferView":1,"byteOffset":0,"componentType":5126,"count":15444,"type":"VEC2","max":[0.995110273361206,0.5312418937683105],"min":[2.2250738585072014e-308,2.2250738585072014e-308]},{"bufferView":2,"byteOffset":0,"componentType":5125,"count":70407,"type":"SCALAR","max":[15443],"min":[0]},{"bufferView":3,"byteOffset":0,"componentType":5126,"count":199,"type":"VEC3","max":[3.8283448219299316,2.1845452785491943,-0.2011021226644516],"min":[2.2250738585072014e-308,2.2250738585072014e-308,-0.39365559816360474]},{"bufferView":4,"byteOffset":0,"componentType":5126,"count":199,"type":"VEC2","max":[0.5841617584228516,0.5287094116210938],"min":[2.2250738585072014e-308,2.2250738585072014e-308]},{"bufferView":5,"byteOffset":0,"componentType":5125,"count":1038,"type":"SCALAR","max":[198],"min":[0]}],"buffers":[{"byteLength":598640,"uri":"tile_0120.bin"}],"bufferViews":[{"buffer":0,"byteOffset":0,"byteLength":185328,"target":34962},{"buffer":0,"byteOffset":185328,"byteLength":123552,"target":34962},{"buffer":0,"byteOffset":308880,"byteLength":281628,"target":34963},{"buffer":0,"byteOffset":590508,"byteLength":2388,"target":34962},{"buffer":0,"byteOffset":592896,"byteLength":1592,"target":34962},{"buffer":0,"byteOffset":594488,"byteLength":4152,"target":34963}],"images":[{"uri":"../textures/tile_0120_material_0.jpg"},{"uri":"../textures/tile_0120_material_1.jpg"}],"materials":[{"name":"DefaultMaterial","pbrMetallicRoughness":{"baseColorFactor":[0.6000000238418579,0.6000000238418579,0.6000000238418579,1.0],"metallicFactor":0.0},"extensions":{"KHR_materials_specular":{"specularFactor":1.0,"specularColorFactor":[0.0,0.0,0.0]},"KHR_materials_ior":{"ior":1.0}}},{"name":"material_0_material","pbrMetallicRoughness":{"baseColorTexture":{"index":0},"metallicFactor":0.0},"extensions":{"KHR_materials_specular":{"specularFactor":1.0,"specularColorFactor":[0.0,0.0,0.0]},"KHR_materials_ior":{"ior":1.0}}},{"name":"material_1_material","pbrMetallicRoughness":{"baseColorTexture":{"index":1},"metallicFactor":0.0},"extensions":{"KHR_materials_specular":{"specularFactor":1.0,"specularColorFactor":[0.0,0.0,0.0]},"KHR_materials_ior":{"ior":1.0}}}],"meshes":[{"name":"defaultobject","primitives":[{"mode":4,"material":1,"indices":2,"attributes":{"POSITION":0,"TEXCOORD_0":1}},{"mode":4,"material":2,"indices":5,"attributes":{"POSITION":3,"TEXCOORD_0":4}}]}],"nodes":[{"name":"tile_0120.obj","children":[1]},{"name":"defaultobject","mesh":0}],"samplers":[{},{}],"scenes":[{"nodes":[0]}],"textures":[{"source":0,"sampler":0},{"source":1,"sampler":1}],"scene":0}
