{"asset":{"version":"2.0","generator":"Open Asset Import Library (assimp v6.0.0)"},"extensionsUsed":["KHR_materials_specular","KHR_materials_volume","KHR_materials_ior","FB_ngon_encoding"],"accessors":[{"bufferView":0,"byteOffset":0,"componentType":5126,"count":5662,"type":"VEC3","max":[3.5106148719787598,-1.836638331413269,0.1742640733718872],"min":[2.2250738585072014e-308,-2.1673619747161865,-0.27608150243759155]},{"bufferView":1,"byteOffset":0,"componentType":5126,"count":5662,"type":"VEC2","max":[0.9952267408370972,0.7692661285400391],"min":[2.2250738585072014e-308,2.2250738585072014e-308]},{"bufferView":2,"byteOffset":0,"componentType":5125,"count":22548,"type":"SCALAR","max":[5661],"min":[0]},{"bufferView":3,"byteOffset":0,"componentType":5126,"count":525,"type":"VEC3","max":[3.4242615699768066,-1.8417166471481323,0.09121588617563248],"min":[2.2250738585072014e-308,-2.1678640842437744,-0.2747303545475006]},{"bufferView":4,"byteOffset":0,"componentType":5126,"count":525,"type":"VEC2","max":[0.8251028060913086,0.5711441040039062],"min":[2.2250738585072014e-308,2.2250738585072014e-308]},{"bufferView":5,"byteOffset":0,"componentType":5125,"count":2346,"type":"SCALAR","max":[524],"min":[0]}],"buffers":[{"byteLength":223316,"uri":"tile_0621.bin"}],"bufferViews":[{"buffer":0,"byteOffset":0,"byteLength":67944,"target":34962},{"buffer":0,"byteOffset":67944,"byteLength":45296,"target":34962},{"buffer":0,"byteOffset":113240,"byteLength":90192,"target":34963},{"buffer":0,"byteOffset":203432,"byteLength":6300,"target":34962},{"buffer":0,"byteOffset":209732,"byteLength":4200,"target":34962},{"buffer":0,"byteOffset":213932,"byteLength":9384,"target":34963}],"images":[{"uri":"../textures/tile_0621_material_0.jpg"},{"uri":"../textures/tile_0621_material_1.jpg"}],"materials":[{"name":"DefaultMaterial","pbrMetallicRoughness":{"baseColorFactor":[0.6000000238418579,0.6000000238418579,0.6000000238418579,1.0],"metallicFactor":0.0},"extensions":{"KHR_materials_specular":{"specularFactor":1.0,"specularColorFactor":[0.0,0.0,0.0]},"KHR_materials_ior":{"ior":1.0}}},{"name":"material_0_material","pbrMetallicRoughness":{"baseColorTexture":{"index":0},"metallicFactor":0.0},"extensions":{"KHR_materials_specular":{"specularFactor":1.0,"specularColorFactor":[0.0,0.0,0.0]},"KHR_materials_ior":{"ior":1.0}}},{"name":"material_1_material","pbrMetallicRoughness":{"baseColorTexture":{"index":1},"metallicFactor":0.0},"extensions":{"KHR_materials_specular":{"specularFactor":1.0,"specularColorFactor":[0.0,0.0,0.0]},"KHR_materials_ior":{"ior":1.0}}}],"meshes":[{"name":"defaultobject","primitives":[{"mode":4,"material":1,"indices":2,"attributes":{"POSITION":0,"TEXCOORD_0":1}},{"mode":4,"material":2,"indices":5,"attributes":{"POSITION":3,"TEXCOORD_0":4}}]}],"nodes":[{"name":"tile_0621.obj","children":[1]},{"name":"defaultobject","mesh":0}],"samplers":[{},{}],"scenes":[{"nodes":[0]}],"textures":[{"source":0,"sampler":0},{"source":1,"sampler":1}],"scene":0}
