{"asset":{"version":"2.0","generator":"Open Asset Import Library (assimp v6.0.0)"},"extensionsUsed":["KHR_materials_specular","KHR_materials_volume","KHR_materials_ior","FB_ngon_encoding"],"accessors":[{"bufferView":0,"byteOffset":0,"componentType":5126,"count":8357,"type":"VEC3","max":[3.5184850692749023,-2.1514317989349365,0.18610459566116333],"min":[2.2250738585072014e-308,-2.963207721710205,-0.44862160086631775]},{"bufferView":1,"byteOffset":0,"componentType":5126,"count":8357,"type":"VEC2","max":[0.9890196323394775,0.599604606628418],"min":[2.2250738585072014e-308,2.2250738585072014e-308]},{"bufferView":2,"byteOffset":0,"componentType":5125,"count":35892,"type":"SCALAR","max":[8356],"min":[0]},{"bufferView":3,"byteOffset":0,"componentType":5126,"count":1800,"type":"VEC3","max":[3.420027256011963,-2.14457631111145,0.1707497239112854],"min":[2.2250738585072014e-308,-2.658045768737793,-0.4357928931713104]},{"bufferView":4,"byteOffset":0,"componentType":5126,"count":1800,"type":"VEC2","max":[0.6872239112854004,0.5159549713134766],"min":[2.2250738585072014e-308,2.2250738585072014e-308]},{"bufferView":5,"byteOffset":0,"componentType":5125,"count":8781,"type":"SCALAR","max":[1799],"min":[0]}],"buffers":[{"byteLength":381832,"uri":"tile_0620.bin"}],"bufferViews":[{"buffer":0,"byteOffset":0,"byteLength":100284,"target":34962},{"buffer":0,"byteOffset":100284,"byteLength":66856,"target":34962},{"buffer":0,"byteOffset":167140,"byteLength":143568,"target":34963},{"buffer":0,"byteOffset":310708,"byteLength":21600,"target":34962},{"buffer":0,"byteOffset":332308,"byteLength":14400,"target":34962},{"buffer":0,"byteOffset":346708,"byteLength":35124,"target":34963}],"images":[{"uri":"../textures/tile_0620_material_0.jpg"},{"uri":"../textures/tile_0620_material_1.jpg"}],"materials":[{"name":"DefaultMaterial","pbrMetallicRoughness":{"baseColorFactor":[0.6000000238418579,0.6000000238418579,0.6000000238418579,1.0],"metallicFactor":0.0},"extensions":{"KHR_materials_specular":{"specularFactor":1.0,"specularColorFactor":[0.0,0.0,0.0]},"KHR_materials_ior":{"ior":1.0}}},{"name":"material_0_material","pbrMetallicRoughness":{"baseColorTexture":{"index":0},"metallicFactor":0.0},"extensions":{"KHR_materials_specular":{"specularFactor":1.0,"specularColorFactor":[0.0,0.0,0.0]},"KHR_materials_ior":{"ior":1.0}}},{"name":"material_1_material","pbrMetallicRoughness":{"baseColorTexture":{"index":1},"metallicFactor":0.0},"extensions":{"KHR_materials_specular":{"specularFactor":1.0,"specularColorFactor":[0.0,0.0,0.0]},"KHR_materials_ior":{"ior":1.0}}}],"meshes":[{"name":"defaultobject","primitives":[{"mode":4,"material":1,"indices":2,"attributes":{"POSITION":0,"TEXCOORD_0":1}},{"mode":4,"material":2,"indices":5,"attributes":{"POSITION":3,"TEXCOORD_0":4}}]}],"nodes":[{"name":"tile_0620.obj","children":[1]},{"name":"defaultobject","mesh":0}],"samplers":[{},{}],"scenes":[{"nodes":[0]}],"textures":[{"source":0,"sampler":0},{"source":1,"sampler":1}],"scene":0}
