{"asset":{"version":"2.0","generator":"Open Asset Import Library (assimp v6.0.0)"},"extensionsUsed":["KHR_materials_specular","KHR_materials_volume","KHR_materials_ior","FB_ngon_encoding"],"accessors":[{"bufferView":0,"byteOffset":0,"componentType":5126,"count":7516,"type":"VEC3","max":[3.202634572982788,-1.1728595495224,0.11055614799261093],"min":[2.2250738585072014e-308,-1.2952861785888672,2.2250738585072014e-308]},{"bufferView":1,"byteOffset":0,"componentType":5126,"count":7516,"type":"VEC2","max":[0.9960041046142578,0.7031173706054688],"min":[2.2250738585072014e-308,2.2250738585072014e-308]},{"bufferView":2,"byteOffset":0,"componentType":5125,"count":28737,"type":"SCALAR","max":[7515],"min":[0]},{"bufferView":3,"byteOffset":0,"componentType":5126,"count":42,"type":"VEC3","max":[0.3649214804172516,-1.1759753227233887,0.1067446917295456],"min":[2.2250738585072014e-308,-1.1991204023361206,2.2250738585072014e-308]},{"bufferView":4,"byteOffset":0,"componentType":5126,"count":42,"type":"VEC2","max":[0.807098388671875,0.4918822646141052],"min":[2.2250738585072014e-308,2.2250738585072014e-308]},{"bufferView":5,"byteOffset":0,"componentType":5125,"count":156,"type":"SCALAR","max":[41],"min":[0]}],"buffers":[{"byteLength":266732,"uri":"tile_0232.bin"}],"bufferViews":[{"buffer":0,"byteOffset":0,"byteLength":90192,"target":34962},{"buffer":0,"byteOffset":90192,"byteLength":60128,"target":34962},{"buffer":0,"byteOffset":150320,"byteLength":114948,"target":34963},{"buffer":0,"byteOffset":265268,"byteLength":504,"target":34962},{"buffer":0,"byteOffset":265772,"byteLength":336,"target":34962},{"buffer":0,"byteOffset":266108,"byteLength":624,"target":34963}],"images":[{"uri":"../textures/tile_0232_material_0.jpg"},{"uri":"../textures/tile_0232_material_1.jpg"}],"materials":[{"name":"DefaultMaterial","pbrMetallicRoughness":{"baseColorFactor":[0.6000000238418579,0.6000000238418579,0.6000000238418579,1.0],"metallicFactor":0.0},"extensions":{"KHR_materials_specular":{"specularFactor":1.0,"specularColorFactor":[0.0,0.0,0.0]},"KHR_materials_ior":{"ior":1.0}}},{"name":"material_0_material","pbrMetallicRoughness":{"baseColorTexture":{"index":0},"metallicFactor":0.0},"extensions":{"KHR_materials_specular":{"specularFactor":1.0,"specularColorFactor":[0.0,0.0,0.0]},"KHR_materials_ior":{"ior":1.0}}},{"name":"material_1_material","pbrMetallicRoughness":{"baseColorTexture":{"index":1},"metallicFactor":0.0},"extensions":{"KHR_materials_specular":{"specularFactor":1.0,"specularColorFactor":[0.0,0.0,0.0]},"KHR_materials_ior":{"ior":1.0}}}],"meshes":[{"name":"defaultobject","primitives":[{"mode":4,"material":1,"indices":2,"attributes":{"POSITION":0,"TEXCOORD_0":1}},{"mode":4,"material":2,"indices":5,"attributes":{"POSITION":3,"TEXCOORD_0":4}}]}],"nodes":[{"name":"tile_0232.obj","children":[1]},{"name":"defaultobject","mesh":0}],"samplers":[{},{}],"scenes":[{"nodes":[0]}],"textures":[{"source":0,"sampler":0},{"source":1,"sampler":1}],"scene":0}
