{"asset":{"version":"2.0","generator":"Open Asset Import Library (assimp v6.0.0)"},"extensionsUsed":["KHR_materials_specular","KHR_materials_volume","KHR_materials_ior","FB_ngon_encoding"],"accessors":[{"bufferView":0,"byteOffset":0,"componentType":5126,"count":7891,"type":"VEC3","max":[2.7597644329071045,1.943699836730957,1.2642097473144531],"min":[2.2250738585072014e-308,2.2250738585072014e-308,2.2250738585072014e-308]},{"bufferView":1,"byteOffset":0,"componentType":5126,"count":7891,"type":"VEC2","max":[0.9941339492797852,0.7325706481933594],"min":[2.2250738585072014e-308,2.2250738585072014e-308]},{"bufferView":2,"byteOffset":0,"componentType":5125,"count":35199,"type":"SCALAR","max":[7890],"min":[0]},{"bufferView":3,"byteOffset":0,"componentType":5126,"count":93,"type":"VEC3","max":[1.8386926651000977,1.8346205949783325,1.2602816820144653],"min":[2.2250738585072014e-308,2.2250738585072014e-308,2.2250738585072014e-308]},{"bufferView":4,"byteOffset":0,"componentType":5126,"count":93,"type":"VEC2","max":[0.5354080200195312,0.7169036865234375],"min":[2.2250738585072014e-308,2.2250738585072014e-308]},{"bufferView":5,"byteOffset":0,"componentType":5125,"count":345,"type":"SCALAR","max":[92],"min":[0]}],"buffers":[{"byteLength":301856,"uri":"tile_0565.bin"}],"bufferViews":[{"buffer":0,"byteOffset":0,"byteLength":94692,"target":34962},{"buffer":0,"byteOffset":94692,"byteLength":63128,"target":34962},{"buffer":0,"byteOffset":157820,"byteLength":140796,"target":34963},{"buffer":0,"byteOffset":298616,"byteLength":1116,"target":34962},{"buffer":0,"byteOffset":299732,"byteLength":744,"target":34962},{"buffer":0,"byteOffset":300476,"byteLength":1380,"target":34963}],"images":[{"uri":"../textures/tile_0565_material_0.jpg"},{"uri":"../textures/tile_0565_material_1.jpg"}],"materials":[{"name":"DefaultMaterial","pbrMetallicRoughness":{"baseColorFactor":[0.6000000238418579,0.6000000238418579,0.6000000238418579,1.0],"metallicFactor":0.0},"extensions":{"KHR_materials_specular":{"specularFactor":1.0,"specularColorFactor":[0.0,0.0,0.0]},"KHR_materials_ior":{"ior":1.0}}},{"name":"material_0_material","pbrMetallicRoughness":{"baseColorTexture":{"index":0},"metallicFactor":0.0},"extensions":{"KHR_materials_specular":{"specularFactor":1.0,"specularColorFactor":[0.0,0.0,0.0]},"KHR_materials_ior":{"ior":1.0}}},{"name":"material_1_material","pbrMetallicRoughness":{"baseColorTexture":{"index":1},"metallicFactor":0.0},"extensions":{"KHR_materials_specular":{"specularFactor":1.0,"specularColorFactor":[0.0,0.0,0.0]},"KHR_materials_ior":{"ior":1.0}}}],"meshes":[{"name":"defaultobject","primitives":[{"mode":4,"material":1,"indices":2,"attributes":{"POSITION":0,"TEXCOORD_0":1}},{"mode":4,"material":2,"indices":5,"attributes":{"POSITION":3,"TEXCOORD_0":4}}]}],"nodes":[{"name":"tile_0565.obj","children":[1]},{"name":"defaultobject","mesh":0}],"samplers":[{},{}],"scenes":[{"nodes":[0]}],"textures":[{"source":0,"sampler":0},{"source":1,"sampler":1}],"scene":0}
