{"asset":{"version":"2.0","generator":"Open Asset Import Library (assimp v6.0.0)"},"extensionsUsed":["KHR_materials_specular","KHR_materials_volume","KHR_materials_ior","FB_ngon_encoding"],"accessors":[{"bufferView":0,"byteOffset":0,"componentType":5126,"count":4644,"type":"VEC3","max":[0.932445228099823,-1.538851261138916,2.8036210536956787],"min":[-0.1164342537522316,-1.6835417747497559,2.2250738585072014e-308]},{"bufferView":1,"byteOffset":0,"componentType":5126,"count":4644,"type":"VEC2","max":[0.9938596487045288,0.6991367340087891],"min":[2.2250738585072014e-308,2.2250738585072014e-308]},{"bufferView":2,"byteOffset":0,"componentType":5125,"count":20940,"type":"SCALAR","max":[4643],"min":[0]},{"bufferView":3,"byteOffset":0,"componentType":5126,"count":1105,"type":"VEC3","max":[0.9453731179237366,-1.5213122367858887,2.8110780715942383],"min":[2.2250738585072014e-308,-1.6871048212051392,2.2250738585072014e-308]},{"bufferView":4,"byteOffset":0,"componentType":5126,"count":1105,"type":"VEC2","max":[0.4985814094543457,0.7494163513183594],"min":[2.2250738585072014e-308,2.2250738585072014e-308]},{"bufferView":5,"byteOffset":0,"componentType":5125,"count":5397,"type":"SCALAR","max":[1104],"min":[0]}],"buffers":[{"byteLength":220328,"uri":"tile_0353.bin"}],"bufferViews":[{"buffer":0,"byteOffset":0,"byteLength":55728,"target":34962},{"buffer":0,"byteOffset":55728,"byteLength":37152,"target":34962},{"buffer":0,"byteOffset":92880,"byteLength":83760,"target":34963},{"buffer":0,"byteOffset":176640,"byteLength":13260,"target":34962},{"buffer":0,"byteOffset":189900,"byteLength":8840,"target":34962},{"buffer":0,"byteOffset":198740,"byteLength":21588,"target":34963}],"images":[{"uri":"../textures/tile_0353_material_0.jpg"},{"uri":"../textures/tile_0353_material_1.jpg"}],"materials":[{"name":"DefaultMaterial","pbrMetallicRoughness":{"baseColorFactor":[0.6000000238418579,0.6000000238418579,0.6000000238418579,1.0],"metallicFactor":0.0},"extensions":{"KHR_materials_specular":{"specularFactor":1.0,"specularColorFactor":[0.0,0.0,0.0]},"KHR_materials_ior":{"ior":1.0}}},{"name":"material_0_material","pbrMetallicRoughness":{"baseColorTexture":{"index":0},"metallicFactor":0.0},"extensions":{"KHR_materials_specular":{"specularFactor":1.0,"specularColorFactor":[0.0,0.0,0.0]},"KHR_materials_ior":{"ior":1.0}}},{"name":"material_1_material","pbrMetallicRoughness":{"baseColorTexture":{"index":1},"metallicFactor":0.0},"extensions":{"KHR_materials_specular":{"specularFactor":1.0,"specularColorFactor":[0.0,0.0,0.0]},"KHR_materials_ior":{"ior":1.0}}}],"meshes":[{"name":"defaultobject","primitives":[{"mode":4,"material":1,"indices":2,"attributes":{"POSITION":0,"TEXCOORD_0":1}},{"mode":4,"material":2,"indices":5,"attributes":{"POSITION":3,"TEXCOORD_0":4}}]}],"nodes":[{"name":"tile_0353.obj","children":[1]},{"name":"defaultobject","mesh":0}],"samplers":[{},{}],"scenes":[{"nodes":[0]}],"textures":[{"source":0,"sampler":0},{"source":1,"sampler":1}],"scene":0}
