{"asset":{"version":"2.0","generator":"Open Asset Import Library (assimp v6.0.0)"},"extensionsUsed":["KHR_materials_specular","KHR_materials_volume","KHR_materials_ior","FB_ngon_encoding"],"accessors":[{"bufferView":0,"byteOffset":0,"componentType":5126,"count":8750,"type":"VEC3","max":[2.731205940246582,-1.8095957040786743,0.9631020426750183],"min":[-0.04459327086806297,-2.034424066543579,2.2250738585072014e-308]},{"bufferView":1,"byteOffset":0,"componentType":5126,"count":8750,"type":"VEC2","max":[0.9955902099609375,0.9843006134033203],"min":[2.2250738585072014e-308,2.2250738585072014e-308]},{"bufferView":2,"byteOffset":0,"componentType":5125,"count":33510,"type":"SCALAR","max":[8749],"min":[0]},{"bufferView":3,"byteOffset":0,"componentType":5126,"count":321,"type":"VEC3","max":[0.17517168819904327,-1.8130567073822021,0.9441116452217102],"min":[2.2250738585072014e-308,-1.877281904220581,2.2250738585072014e-308]},{"bufferView":4,"byteOffset":0,"componentType":5126,"count":321,"type":"VEC2","max":[0.4923286437988281,0.8902130126953125],"min":[2.2250738585072014e-308,2.2250738585072014e-308]},{"bufferView":5,"byteOffset":0,"componentType":5125,"count":1623,"type":"SCALAR","max":[320],"min":[0]}],"buffers":[{"byteLength":321952,"uri":"tile_0011.bin"}],"bufferViews":[{"buffer":0,"byteOffset":0,"byteLength":105000,"target":34962},{"buffer":0,"byteOffset":105000,"byteLength":70000,"target":34962},{"buffer":0,"byteOffset":175000,"byteLength":134040,"target":34963},{"buffer":0,"byteOffset":309040,"byteLength":3852,"target":34962},{"buffer":0,"byteOffset":312892,"byteLength":2568,"target":34962},{"buffer":0,"byteOffset":315460,"byteLength":6492,"target":34963}],"images":[{"uri":"../textures/tile_0011_material_0.jpg"},{"uri":"../textures/tile_0011_material_1.jpg"}],"materials":[{"name":"DefaultMaterial","pbrMetallicRoughness":{"baseColorFactor":[0.6000000238418579,0.6000000238418579,0.6000000238418579,1.0],"metallicFactor":0.0},"extensions":{"KHR_materials_specular":{"specularFactor":1.0,"specularColorFactor":[0.0,0.0,0.0]},"KHR_materials_ior":{"ior":1.0}}},{"name":"material_0_material","pbrMetallicRoughness":{"baseColorTexture":{"index":0},"metallicFactor":0.0},"extensions":{"KHR_materials_specular":{"specularFactor":1.0,"specularColorFactor":[0.0,0.0,0.0]},"KHR_materials_ior":{"ior":1.0}}},{"name":"material_1_material","pbrMetallicRoughness":{"baseColorTexture":{"index":1},"metallicFactor":0.0},"extensions":{"KHR_materials_specular":{"specularFactor":1.0,"specularColorFactor":[0.0,0.0,0.0]},"KHR_materials_ior":{"ior":1.0}}}],"meshes":[{"name":"defaultobject","primitives":[{"mode":4,"material":1,"indices":2,"attributes":{"POSITION":0,"TEXCOORD_0":1}},{"mode":4,"material":2,"indices":5,"attributes":{"POSITION":3,"TEXCOORD_0":4}}]}],"nodes":[{"name":"tile_0011.obj","children":[1]},{"name":"defaultobject","mesh":0}],"samplers":[{},{}],"scenes":[{"nodes":[0]}],"textures":[{"source":0,"sampler":0},{"source":1,"sampler":1}],"scene":0}
