{"asset":{"version":"2.0","generator":"Open Asset Import Library (assimp v6.0.0)"},"extensionsUsed":["KHR_materials_specular","KHR_materials_volume","KHR_materials_ior","FB_ngon_encoding"],"accessors":[{"bufferView":0,"byteOffset":0,"componentType":5126,"count":5370,"type":"VEC3","max":[0.7806811928749084,-3.1992852687835693,2.225863456726074],"min":[2.2250738585072014e-308,-3.645509719848633,2.2250738585072014e-308]},{"bufferView":1,"byteOffset":0,"componentType":5126,"count":5370,"type":"VEC2","max":[0.9932384490966797,0.7998867034912109],"min":[2.2250738585072014e-308,2.2250738585072014e-308]},{"bufferView":2,"byteOffset":0,"componentType":5125,"count":20445,"type":"SCALAR","max":[5369],"min":[0]},{"bufferView":3,"byteOffset":0,"componentType":5126,"count":582,"type":"VEC3","max":[1.5564347505569458,-3.4110894203186035,2.2187998294830322],"min":[2.2250738585072014e-308,-3.647946834564209,2.2250738585072014e-308]},{"bufferView":4,"byteOffset":0,"componentType":5126,"count":582,"type":"VEC2","max":[0.5826311111450195,0.9682540893554688],"min":[2.2250738585072014e-308,2.2250738585072014e-308]},{"bufferView":5,"byteOffset":0,"componentType":5125,"count":2619,"type":"SCALAR","max":[581],"min":[0]}],"buffers":[{"byteLength":211296,"uri":"tile_0305.bin"}],"bufferViews":[{"buffer":0,"byteOffset":0,"byteLength":64440,"target":34962},{"buffer":0,"byteOffset":64440,"byteLength":42960,"target":34962},{"buffer":0,"byteOffset":107400,"byteLength":81780,"target":34963},{"buffer":0,"byteOffset":189180,"byteLength":6984,"target":34962},{"buffer":0,"byteOffset":196164,"byteLength":4656,"target":34962},{"buffer":0,"byteOffset":200820,"byteLength":10476,"target":34963}],"images":[{"uri":"../textures/tile_0305_material_0.jpg"},{"uri":"../textures/tile_0305_material_1.jpg"}],"materials":[{"name":"DefaultMaterial","pbrMetallicRoughness":{"baseColorFactor":[0.6000000238418579,0.6000000238418579,0.6000000238418579,1.0],"metallicFactor":0.0},"extensions":{"KHR_materials_specular":{"specularFactor":1.0,"specularColorFactor":[0.0,0.0,0.0]},"KHR_materials_ior":{"ior":1.0}}},{"name":"material_0_material","pbrMetallicRoughness":{"baseColorTexture":{"index":0},"metallicFactor":0.0},"extensions":{"KHR_materials_specular":{"specularFactor":1.0,"specularColorFactor":[0.0,0.0,0.0]},"KHR_materials_ior":{"ior":1.0}}},{"name":"material_1_material","pbrMetallicRoughness":{"baseColorTexture":{"index":1},"metallicFactor":0.0},"extensions":{"KHR_materials_specular":{"specularFactor":1.0,"specularColorFactor":[0.0,0.0,0.0]},"KHR_materials_ior":{"ior":1.0}}}],"meshes":[{"name":"defaultobject","primitives":[{"mode":4,"material":1,"indices":2,"attributes":{"POSITION":0,"TEXCOORD_0":1}},{"mode":4,"material":2,"indices":5,"attributes":{"POSITION":3,"TEXCOORD_0":4}}]}],"nodes":[{"name":"tile_0305.obj","children":[1]},{"name":"defaultobject","mesh":0}],"samplers":[{},{}],"scenes":[{"nodes":[0]}],"textures":[{"source":0,"sampler":0},{"source":1,"sampler":1}],"scene":0}
