{"asset":{"version":"2.0","generator":"Open Asset Import Library (assimp v6.0.0)"},"extensionsUsed":["KHR_materials_specular","KHR_materials_volume","KHR_materials_ior","FB_ngon_encoding"],"accessors":[{"bufferView":0,"byteOffset":0,"componentType":5126,"count":4361,"type":"VEC3","max":[2.8218793869018555,1.8228803873062134,1.2842577695846558],"min":[2.2250738585072014e-308,2.2250738585072014e-308,2.2250738585072014e-308]},{"bufferView":1,"byteOffset":0,"componentType":5126,"count":4361,"type":"VEC2","max":[0.9889144897460938,0.6050872802734375],"min":[2.2250738585072014e-308,2.2250738585072014e-308]},{"bufferView":2,"byteOffset":0,"componentType":5125,"count":19398,"type":"SCALAR","max":[4360],"min":[0]},{"bufferView":3,"byteOffset":0,"componentType":5126,"count":956,"type":"VEC3","max":[2.422680616378784,1.826160192489624,1.2655038833618164],"min":[2.2250738585072014e-308,2.2250738585072014e-308,2.2250738585072014e-308]},{"bufferView":4,"byteOffset":0,"componentType":5126,"count":956,"type":"VEC2","max":[0.6583251953125,0.6775588989257812],"min":[2.2250738585072014e-308,2.2250738585072014e-308]},{"bufferView":5,"byteOffset":0,"componentType":5125,"count":4776,"type":"SCALAR","max":[955],"min":[0]}],"buffers":[{"byteLength":203036,"uri":"tile_0128.bin"}],"bufferViews":[{"buffer":0,"byteOffset":0,"byteLength":52332,"target":34962},{"buffer":0,"byteOffset":52332,"byteLength":34888,"target":34962},{"buffer":0,"byteOffset":87220,"byteLength":77592,"target":34963},{"buffer":0,"byteOffset":164812,"byteLength":11472,"target":34962},{"buffer":0,"byteOffset":176284,"byteLength":7648,"target":34962},{"buffer":0,"byteOffset":183932,"byteLength":19104,"target":34963}],"images":[{"uri":"../textures/tile_0128_material_0.jpg"},{"uri":"../textures/tile_0128_material_1.jpg"}],"materials":[{"name":"DefaultMaterial","pbrMetallicRoughness":{"baseColorFactor":[0.6000000238418579,0.6000000238418579,0.6000000238418579,1.0],"metallicFactor":0.0},"extensions":{"KHR_materials_specular":{"specularFactor":1.0,"specularColorFactor":[0.0,0.0,0.0]},"KHR_materials_ior":{"ior":1.0}}},{"name":"material_0_material","pbrMetallicRoughness":{"baseColorTexture":{"index":0},"metallicFactor":0.0},"extensions":{"KHR_materials_specular":{"specularFactor":1.0,"specularColorFactor":[0.0,0.0,0.0]},"KHR_materials_ior":{"ior":1.0}}},{"name":"material_1_material","pbrMetallicRoughness":{"baseColorTexture":{"index":1},"metallicFactor":0.0},"extensions":{"KHR_materials_specular":{"specularFactor":1.0,"specularColorFactor":[0.0,0.0,0.0]},"KHR_materials_ior":{"ior":1.0}}}],"meshes":[{"name":"defaultobject","primitives":[{"mode":4,"material":1,"indices":2,"attributes":{"POSITION":0,"TEXCOORD_0":1}},{"mode":4,"material":2,"indices":5,"attributes":{"POSITION":3,"TEXCOORD_0":4}}]}],"nodes":[{"name":"tile_0128.obj","children":[1]},{"name":"defaultobject","mesh":0}],"samplers":[{},{}],"scenes":[{"nodes":[0]}],"textures":[{"source":0,"sampler":0},{"source":1,"sampler":1}],"scene":0}
