{"asset":{"version":"2.0","generator":"Open Asset Import Library (assimp v6.0.0)"},"extensionsUsed":["KHR_materials_specular","KHR_materials_volume","KHR_materials_ior","FB_ngon_encoding"],"accessors":[{"bufferView":0,"byteOffset":0,"componentType":5126,"count":7145,"type":"VEC3","max":[3.405755043029785,-0.9590871334075928,0.06632335484027863],"min":[2.2250738585072014e-308,-1.0616503953933716,2.2250738585072014e-308]},{"bufferView":1,"byteOffset":0,"componentType":5126,"count":7145,"type":"VEC2","max":[0.9932041168212891,0.6327953338623047],"min":[2.2250738585072014e-308,2.2250738585072014e-308]},{"bufferView":2,"byteOffset":0,"componentType":5125,"count":24114,"type":"SCALAR","max":[7144],"min":[0]},{"bufferView":3,"byteOffset":0,"componentType":5126,"count":639,"type":"VEC3","max":[0.4925948977470398,-0.9659990072250366,0.0652875080704689],"min":[2.2250738585072014e-308,-1.0595310926437378,2.2250738585072014e-308]},{"bufferView":4,"byteOffset":0,"componentType":5126,"count":639,"type":"VEC2","max":[0.548102855682373,0.6242103576660156],"min":[2.2250738585072014e-308,2.2250738585072014e-308]},{"bufferView":5,"byteOffset":0,"componentType":5125,"count":3135,"type":"SCALAR","max":[638],"min":[0]}],"buffers":[{"byteLength":264676,"uri":"tile_0221.bin"}],"bufferViews":[{"buffer":0,"byteOffset":0,"byteLength":85740,"target":34962},{"buffer":0,"byteOffset":85740,"byteLength":57160,"target":34962},{"buffer":0,"byteOffset":142900,"byteLength":96456,"target":34963},{"buffer":0,"byteOffset":239356,"byteLength":7668,"target":34962},{"buffer":0,"byteOffset":247024,"byteLength":5112,"target":34962},{"buffer":0,"byteOffset":252136,"byteLength":12540,"target":34963}],"images":[{"uri":"../textures/tile_0221_material_0.jpg"},{"uri":"../textures/tile_0221_material_1.jpg"}],"materials":[{"name":"DefaultMaterial","pbrMetallicRoughness":{"baseColorFactor":[0.6000000238418579,0.6000000238418579,0.6000000238418579,1.0],"metallicFactor":0.0},"extensions":{"KHR_materials_specular":{"specularFactor":1.0,"specularColorFactor":[0.0,0.0,0.0]},"KHR_materials_ior":{"ior":1.0}}},{"name":"material_0_material","pbrMetallicRoughness":{"baseColorTexture":{"index":0},"metallicFactor":0.0},"extensions":{"KHR_materials_specular":{"specularFactor":1.0,"specularColorFactor":[0.0,0.0,0.0]},"KHR_materials_ior":{"ior":1.0}}},{"name":"material_1_material","pbrMetallicRoughness":{"baseColorTexture":{"index":1},"metallicFactor":0.0},"extensions":{"KHR_materials_specular":{"specularFactor":1.0,"specularColorFactor":[0.0,0.0,0.0]},"KHR_materials_ior":{"ior":1.0}}}],"meshes":[{"name":"defaultobject","primitives":[{"mode":4,"material":1,"indices":2,"attributes":{"POSITION":0,"TEXCOORD_0":1}},{"mode":4,"material":2,"indices":5,"attributes":{"POSITION":3,"TEXCOORD_0":4}}]}],"nodes":[{"name":"tile_0221.obj","children":[1]},{"name":"defaultobject","mesh":0}],"samplers":[{},{}],"scenes":[{"nodes":[0]}],"textures":[{"source":0,"sampler":0},{"source":1,"sampler":1}],"scene":0}
