{"asset":{"version":"2.0","generator":"Open Asset Import Library (assimp v6.0.0)"},"extensionsUsed":["KHR_materials_specular","KHR_materials_volume","KHR_materials_ior","FB_ngon_encoding"],"accessors":[{"bufferView":0,"byteOffset":0,"componentType":5126,"count":4700,"type":"VEC3","max":[2.0950722694396973,-2.2632787227630615,1.3511459827423096],"min":[2.2250738585072014e-308,-2.546433210372925,2.2250738585072014e-308]},{"bufferView":1,"byteOffset":0,"componentType":5126,"count":4700,"type":"VEC2","max":[0.9863801002502441,0.5585918426513672],"min":[2.2250738585072014e-308,2.2250738585072014e-308]},{"bufferView":2,"byteOffset":0,"componentType":5125,"count":19332,"type":"SCALAR","max":[4699],"min":[0]},{"bufferView":3,"byteOffset":0,"componentType":5126,"count":390,"type":"VEC3","max":[1.4267510175704956,-2.442904233932495,1.345263957977295],"min":[2.2250738585072014e-308,-2.534895658493042,2.2250738585072014e-308]},{"bufferView":4,"byteOffset":0,"componentType":5126,"count":390,"type":"VEC2","max":[0.8846588134765625,0.5589866638183594],"min":[2.2250738585072014e-308,2.2250738585072014e-308]},{"bufferView":5,"byteOffset":0,"componentType":5125,"count":1881,"type":"SCALAR","max":[389],"min":[0]}],"buffers":[{"byteLength":186652,"uri":"tile_0268.bin"}],"bufferViews":[{"buffer":0,"byteOffset":0,"byteLength":56400,"target":34962},{"buffer":0,"byteOffset":56400,"byteLength":37600,"target":34962},{"buffer":0,"byteOffset":94000,"byteLength":77328,"target":34963},{"buffer":0,"byteOffset":171328,"byteLength":4680,"target":34962},{"buffer":0,"byteOffset":176008,"byteLength":3120,"target":34962},{"buffer":0,"byteOffset":179128,"byteLength":7524,"target":34963}],"images":[{"uri":"../textures/tile_0268_material_0.jpg"},{"uri":"../textures/tile_0268_material_1.jpg"}],"materials":[{"name":"DefaultMaterial","pbrMetallicRoughness":{"baseColorFactor":[0.6000000238418579,0.6000000238418579,0.6000000238418579,1.0],"metallicFactor":0.0},"extensions":{"KHR_materials_specular":{"specularFactor":1.0,"specularColorFactor":[0.0,0.0,0.0]},"KHR_materials_ior":{"ior":1.0}}},{"name":"material_0_material","pbrMetallicRoughness":{"baseColorTexture":{"index":0},"metallicFactor":0.0},"extensions":{"KHR_materials_specular":{"specularFactor":1.0,"specularColorFactor":[0.0,0.0,0.0]},"KHR_materials_ior":{"ior":1.0}}},{"name":"material_1_material","pbrMetallicRoughness":{"baseColorTexture":{"index":1},"metallicFactor":0.0},"extensions":{"KHR_materials_specular":{"specularFactor":1.0,"specularColorFactor":[0.0,0.0,0.0]},"KHR_materials_ior":{"ior":1.0}}}],"meshes":[{"name":"defaultobject","primitives":[{"mode":4,"material":1,"indices":2,"attributes":{"POSITION":0,"TEXCOORD_0":1}},{"mode":4,"material":2,"indices":5,"attributes":{"POSITION":3,"TEXCOORD_0":4}}]}],"nodes":[{"name":"tile_0268.obj","children":[1]},{"name":"defaultobject","mesh":0}],"samplers":[{},{}],"scenes":[{"nodes":[0]}],"textures":[{"source":0,"sampler":0},{"source":1,"sampler":1}],"scene":0}
