{"asset":{"version":"2.0","generator":"Open Asset Import Library (assimp v6.0.0)"},"extensionsUsed":["KHR_materials_specular","KHR_materials_volume","KHR_materials_ior","FB_ngon_encoding"],"accessors":[{"bufferView":0,"byteOffset":0,"componentType":5126,"count":7449,"type":"VEC3","max":[3.4144914150238037,1.4872347116470337,0.32850584387779236],"min":[2.2250738585072014e-308,2.2250738585072014e-308,2.2250738585072014e-308]},{"bufferView":1,"byteOffset":0,"componentType":5126,"count":7449,"type":"VEC2","max":[0.9951915740966797,0.8356246948242188],"min":[2.2250738585072014e-308,2.2250738585072014e-308]},{"bufferView":2,"byteOffset":0,"componentType":5125,"count":29943,"type":"SCALAR","max":[7448],"min":[0]},{"bufferView":3,"byteOffset":0,"componentType":5126,"count":734,"type":"VEC3","max":[2.935328722000122,1.46583890914917,0.32352501153945923],"min":[2.2250738585072014e-308,2.2250738585072014e-308,2.2250738585072014e-308]},{"bufferView":4,"byteOffset":0,"componentType":5126,"count":734,"type":"VEC2","max":[0.7866830825805664,0.7167167663574219],"min":[2.2250738585072014e-308,2.2250738585072014e-308]},{"bufferView":5,"byteOffset":0,"componentType":5125,"count":3390,"type":"SCALAR","max":[733],"min":[0]}],"buffers":[{"byteLength":296992,"uri":"tile_0118.bin"}],"bufferViews":[{"buffer":0,"byteOffset":0,"byteLength":89388,"target":34962},{"buffer":0,"byteOffset":89388,"byteLength":59592,"target":34962},{"buffer":0,"byteOffset":148980,"byteLength":119772,"target":34963},{"buffer":0,"byteOffset":268752,"byteLength":8808,"target":34962},{"buffer":0,"byteOffset":277560,"byteLength":5872,"target":34962},{"buffer":0,"byteOffset":283432,"byteLength":13560,"target":34963}],"images":[{"uri":"../textures/tile_0118_material_0.jpg"},{"uri":"../textures/tile_0118_material_1.jpg"}],"materials":[{"name":"DefaultMaterial","pbrMetallicRoughness":{"baseColorFactor":[0.6000000238418579,0.6000000238418579,0.6000000238418579,1.0],"metallicFactor":0.0},"extensions":{"KHR_materials_specular":{"specularFactor":1.0,"specularColorFactor":[0.0,0.0,0.0]},"KHR_materials_ior":{"ior":1.0}}},{"name":"material_0_material","pbrMetallicRoughness":{"baseColorTexture":{"index":0},"metallicFactor":0.0},"extensions":{"KHR_materials_specular":{"specularFactor":1.0,"specularColorFactor":[0.0,0.0,0.0]},"KHR_materials_ior":{"ior":1.0}}},{"name":"material_1_material","pbrMetallicRoughness":{"baseColorTexture":{"index":1},"metallicFactor":0.0},"extensions":{"KHR_materials_specular":{"specularFactor":1.0,"specularColorFactor":[0.0,0.0,0.0]},"KHR_materials_ior":{"ior":1.0}}}],"meshes":[{"name":"defaultobject","primitives":[{"mode":4,"material":1,"indices":2,"attributes":{"POSITION":0,"TEXCOORD_0":1}},{"mode":4,"material":2,"indices":5,"attributes":{"POSITION":3,"TEXCOORD_0":4}}]}],"nodes":[{"name":"tile_0118.obj","children":[1]},{"name":"defaultobject","mesh":0}],"samplers":[{},{}],"scenes":[{"nodes":[0]}],"textures":[{"source":0,"sampler":0},{"source":1,"sampler":1}],"scene":0}
