{"asset":{"version":"2.0","generator":"Open Asset Import Library (assimp v6.0.0)"},"extensionsUsed":["KHR_materials_specular","KHR_materials_volume","KHR_materials_ior","FB_ngon_encoding"],"accessors":[{"bufferView":0,"byteOffset":0,"componentType":5126,"count":6711,"type":"VEC3","max":[3.3681952953338623,-0.2935190796852112,0.1087341457605362],"min":[2.2250738585072014e-308,-0.4429132640361786,2.2250738585072014e-308]},{"bufferView":1,"byteOffset":0,"componentType":5126,"count":6711,"type":"VEC2","max":[0.9932150840759277,0.6405258178710938],"min":[2.2250738585072014e-308,2.2250738585072014e-308]},{"bufferView":2,"byteOffset":0,"componentType":5125,"count":23781,"type":"SCALAR","max":[6710],"min":[0]},{"bufferView":3,"byteOffset":0,"componentType":5126,"count":1343,"type":"VEC3","max":[2.7122271060943604,-0.29544776678085327,0.10737351328134537],"min":[2.2250738585072014e-308,-0.43941769003868103,2.2250738585072014e-308]},{"bufferView":4,"byteOffset":0,"componentType":5126,"count":1343,"type":"VEC2","max":[0.5045828819274902,0.7521076202392578],"min":[2.2250738585072014e-308,2.2250738585072014e-308]},{"bufferView":5,"byteOffset":0,"componentType":5125,"count":6312,"type":"SCALAR","max":[1342],"min":[0]}],"buffers":[{"byteLength":281452,"uri":"tile_0088.bin"}],"bufferViews":[{"buffer":0,"byteOffset":0,"byteLength":80532,"target":34962},{"buffer":0,"byteOffset":80532,"byteLength":53688,"target":34962},{"buffer":0,"byteOffset":134220,"byteLength":95124,"target":34963},{"buffer":0,"byteOffset":229344,"byteLength":16116,"target":34962},{"buffer":0,"byteOffset":245460,"byteLength":10744,"target":34962},{"buffer":0,"byteOffset":256204,"byteLength":25248,"target":34963}],"images":[{"uri":"../textures/tile_0088_material_0.jpg"},{"uri":"../textures/tile_0088_material_1.jpg"}],"materials":[{"name":"DefaultMaterial","pbrMetallicRoughness":{"baseColorFactor":[0.6000000238418579,0.6000000238418579,0.6000000238418579,1.0],"metallicFactor":0.0},"extensions":{"KHR_materials_specular":{"specularFactor":1.0,"specularColorFactor":[0.0,0.0,0.0]},"KHR_materials_ior":{"ior":1.0}}},{"name":"material_0_material","pbrMetallicRoughness":{"baseColorTexture":{"index":0},"metallicFactor":0.0},"extensions":{"KHR_materials_specular":{"specularFactor":1.0,"specularColorFactor":[0.0,0.0,0.0]},"KHR_materials_ior":{"ior":1.0}}},{"name":"material_1_material","pbrMetallicRoughness":{"baseColorTexture":{"index":1},"metallicFactor":0.0},"extensions":{"KHR_materials_specular":{"specularFactor":1.0,"specularColorFactor":[0.0,0.0,0.0]},"KHR_materials_ior":{"ior":1.0}}}],"meshes":[{"name":"defaultobject","primitives":[{"mode":4,"material":1,"indices":2,"attributes":{"POSITION":0,"TEXCOORD_0":1}},{"mode":4,"material":2,"indices":5,"attributes":{"POSITION":3,"TEXCOORD_0":4}}]}],"nodes":[{"name":"tile_0088.obj","children":[1]},{"name":"defaultobject","mesh":0}],"samplers":[{},{}],"scenes":[{"nodes":[0]}],"textures":[{"source":0,"sampler":0},{"source":1,"sampler":1}],"scene":0}
