{"asset":{"version":"2.0","generator":"Open Asset Import Library (assimp v6.0.0)"},"extensionsUsed":["KHR_materials_specular","KHR_materials_volume","KHR_materials_ior","FB_ngon_encoding"],"accessors":[{"bufferView":0,"byteOffset":0,"componentType":5126,"count":7249,"type":"VEC3","max":[3.3318750858306885,-0.7158870100975037,0.12439823150634766],"min":[2.2250738585072014e-308,-0.7969728112220764,2.2250738585072014e-308]},{"bufferView":1,"byteOffset":0,"componentType":5126,"count":7249,"type":"VEC2","max":[0.9939827919006348,0.7499980926513672],"min":[2.2250738585072014e-308,2.2250738585072014e-308]},{"bufferView":2,"byteOffset":0,"componentType":5125,"count":22938,"type":"SCALAR","max":[7248],"min":[0]},{"bufferView":3,"byteOffset":0,"componentType":5126,"count":1432,"type":"VEC3","max":[0.7671971917152405,-0.7176912426948547,0.12309995293617249],"min":[2.2250738585072014e-308,-0.7894364595413208,2.2250738585072014e-308]},{"bufferView":4,"byteOffset":0,"componentType":5126,"count":1432,"type":"VEC2","max":[0.9583480358123779,0.6586723327636719],"min":[2.2250738585072014e-308,2.2250738585072014e-308]},{"bufferView":5,"byteOffset":0,"componentType":5125,"count":7035,"type":"SCALAR","max":[1431],"min":[0]}],"buffers":[{"byteLength":293512,"uri":"tile_0242.bin"}],"bufferViews":[{"buffer":0,"byteOffset":0,"byteLength":86988,"target":34962},{"buffer":0,"byteOffset":86988,"byteLength":57992,"target":34962},{"buffer":0,"byteOffset":144980,"byteLength":91752,"target":34963},{"buffer":0,"byteOffset":236732,"byteLength":17184,"target":34962},{"buffer":0,"byteOffset":253916,"byteLength":11456,"target":34962},{"buffer":0,"byteOffset":265372,"byteLength":28140,"target":34963}],"images":[{"uri":"../textures/tile_0242_material_0.jpg"},{"uri":"../textures/tile_0242_material_1.jpg"}],"materials":[{"name":"DefaultMaterial","pbrMetallicRoughness":{"baseColorFactor":[0.6000000238418579,0.6000000238418579,0.6000000238418579,1.0],"metallicFactor":0.0},"extensions":{"KHR_materials_specular":{"specularFactor":1.0,"specularColorFactor":[0.0,0.0,0.0]},"KHR_materials_ior":{"ior":1.0}}},{"name":"material_0_material","pbrMetallicRoughness":{"baseColorTexture":{"index":0},"metallicFactor":0.0},"extensions":{"KHR_materials_specular":{"specularFactor":1.0,"specularColorFactor":[0.0,0.0,0.0]},"KHR_materials_ior":{"ior":1.0}}},{"name":"material_1_material","pbrMetallicRoughness":{"baseColorTexture":{"index":1},"metallicFactor":0.0},"extensions":{"KHR_materials_specular":{"specularFactor":1.0,"specularColorFactor":[0.0,0.0,0.0]},"KHR_materials_ior":{"ior":1.0}}}],"meshes":[{"name":"defaultobject","primitives":[{"mode":4,"material":1,"indices":2,"attributes":{"POSITION":0,"TEXCOORD_0":1}},{"mode":4,"material":2,"indices":5,"attributes":{"POSITION":3,"TEXCOORD_0":4}}]}],"nodes":[{"name":"tile_0242.obj","children":[1]},{"name":"defaultobject","mesh":0}],"samplers":[{},{}],"scenes":[{"nodes":[0]}],"textures":[{"source":0,"sampler":0},{"source":1,"sampler":1}],"scene":0}
