{"asset":{"version":"2.0","generator":"Open Asset Import Library (assimp v6.0.0)"},"extensionsUsed":["KHR_materials_specular","KHR_materials_volume","KHR_materials_ior","FB_ngon_encoding"],"accessors":[{"bufferView":0,"byteOffset":0,"componentType":5126,"count":8548,"type":"VEC3","max":[2.1598005294799805,0.2313993275165558,1.531074047088623],"min":[2.2250738585072014e-308,-0.11965238302946091,2.2250738585072014e-308]},{"bufferView":1,"byteOffset":0,"componentType":5126,"count":8548,"type":"VEC2","max":[0.99493408203125,0.6288089752197266],"min":[2.2250738585072014e-308,2.2250738585072014e-308]},{"bufferView":2,"byteOffset":0,"componentType":5125,"count":36312,"type":"SCALAR","max":[8547],"min":[0]},{"bufferView":3,"byteOffset":0,"componentType":5126,"count":960,"type":"VEC3","max":[0.9580969214439392,0.010205617174506187,1.5015873908996582],"min":[2.2250738585072014e-308,-0.12644629180431366,2.2250738585072014e-308]},{"bufferView":4,"byteOffset":0,"componentType":5126,"count":960,"type":"VEC2","max":[0.5030851364135742,0.8835067749023438],"min":[2.2250738585072014e-308,2.2250738585072014e-308]},{"bufferView":5,"byteOffset":0,"componentType":5125,"count":4785,"type":"SCALAR","max":[959],"min":[0]}],"buffers":[{"byteLength":354548,"uri":"tile_0448.bin"}],"bufferViews":[{"buffer":0,"byteOffset":0,"byteLength":102576,"target":34962},{"buffer":0,"byteOffset":102576,"byteLength":68384,"target":34962},{"buffer":0,"byteOffset":170960,"byteLength":145248,"target":34963},{"buffer":0,"byteOffset":316208,"byteLength":11520,"target":34962},{"buffer":0,"byteOffset":327728,"byteLength":7680,"target":34962},{"buffer":0,"byteOffset":335408,"byteLength":19140,"target":34963}],"images":[{"uri":"../textures/tile_0448_material_0.jpg"},{"uri":"../textures/tile_0448_material_1.jpg"}],"materials":[{"name":"DefaultMaterial","pbrMetallicRoughness":{"baseColorFactor":[0.6000000238418579,0.6000000238418579,0.6000000238418579,1.0],"metallicFactor":0.0},"extensions":{"KHR_materials_specular":{"specularFactor":1.0,"specularColorFactor":[0.0,0.0,0.0]},"KHR_materials_ior":{"ior":1.0}}},{"name":"material_0_material","pbrMetallicRoughness":{"baseColorTexture":{"index":0},"metallicFactor":0.0},"extensions":{"KHR_materials_specular":{"specularFactor":1.0,"specularColorFactor":[0.0,0.0,0.0]},"KHR_materials_ior":{"ior":1.0}}},{"name":"material_1_material","pbrMetallicRoughness":{"baseColorTexture":{"index":1},"metallicFactor":0.0},"extensions":{"KHR_materials_specular":{"specularFactor":1.0,"specularColorFactor":[0.0,0.0,0.0]},"KHR_materials_ior":{"ior":1.0}}}],"meshes":[{"name":"defaultobject","primitives":[{"mode":4,"material":1,"indices":2,"attributes":{"POSITION":0,"TEXCOORD_0":1}},{"mode":4,"material":2,"indices":5,"attributes":{"POSITION":3,"TEXCOORD_0":4}}]}],"nodes":[{"name":"tile_0448.obj","children":[1]},{"name":"defaultobject","mesh":0}],"samplers":[{},{}],"scenes":[{"nodes":[0]}],"textures":[{"source":0,"sampler":0},{"source":1,"sampler":1}],"scene":0}
