{"asset":{"version":"2.0","generator":"Open Asset Import Library (assimp v6.0.0)"},"extensionsUsed":["KHR_materials_specular","KHR_materials_volume","KHR_materials_ior","FB_ngon_encoding"],"accessors":[{"bufferView":0,"byteOffset":0,"componentType":5126,"count":5468,"type":"VEC3","max":[1.3166152238845825,-2.36855149269104,2.021947145462036],"min":[2.2250738585072014e-308,-2.6616275310516357,2.2250738585072014e-308]},{"bufferView":1,"byteOffset":0,"componentType":5126,"count":5468,"type":"VEC2","max":[0.9927928447723389,0.7453289031982422],"min":[2.2250738585072014e-308,2.2250738585072014e-308]},{"bufferView":2,"byteOffset":0,"componentType":5125,"count":23865,"type":"SCALAR","max":[5467],"min":[0]},{"bufferView":3,"byteOffset":0,"componentType":5126,"count":10,"type":"VEC3","max":[0.8337963819503784,-2.6463141441345215,2.0083298683166504],"min":[2.2250738585072014e-308,-2.6601855754852295,2.2250738585072014e-308]},{"bufferView":4,"byteOffset":0,"componentType":5126,"count":10,"type":"VEC2","max":[0.5909328460693359,0.574554443359375],"min":[2.2250738585072014e-308,2.2250738585072014e-308]},{"bufferView":5,"byteOffset":0,"componentType":5125,"count":21,"type":"SCALAR","max":[9],"min":[0]}],"buffers":[{"byteLength":205104,"uri":"tile_0153.bin"}],"bufferViews":[{"buffer":0,"byteOffset":0,"byteLength":65616,"target":34962},{"buffer":0,"byteOffset":65616,"byteLength":43744,"target":34962},{"buffer":0,"byteOffset":109360,"byteLength":95460,"target":34963},{"buffer":0,"byteOffset":204820,"byteLength":120,"target":34962},{"buffer":0,"byteOffset":204940,"byteLength":80,"target":34962},{"buffer":0,"byteOffset":205020,"byteLength":84,"target":34963}],"images":[{"uri":"../textures/tile_0153_material_0.jpg"},{"uri":"../textures/tile_0153_material_1.jpg"}],"materials":[{"name":"DefaultMaterial","pbrMetallicRoughness":{"baseColorFactor":[0.6000000238418579,0.6000000238418579,0.6000000238418579,1.0],"metallicFactor":0.0},"extensions":{"KHR_materials_specular":{"specularFactor":1.0,"specularColorFactor":[0.0,0.0,0.0]},"KHR_materials_ior":{"ior":1.0}}},{"name":"material_0_material","pbrMetallicRoughness":{"baseColorTexture":{"index":0},"metallicFactor":0.0},"extensions":{"KHR_materials_specular":{"specularFactor":1.0,"specularColorFactor":[0.0,0.0,0.0]},"KHR_materials_ior":{"ior":1.0}}},{"name":"material_1_material","pbrMetallicRoughness":{"baseColorTexture":{"index":1},"metallicFactor":0.0},"extensions":{"KHR_materials_specular":{"specularFactor":1.0,"specularColorFactor":[0.0,0.0,0.0]},"KHR_materials_ior":{"ior":1.0}}}],"meshes":[{"name":"defaultobject","primitives":[{"mode":4,"material":1,"indices":2,"attributes":{"POSITION":0,"TEXCOORD_0":1}},{"mode":4,"material":2,"indices":5,"attributes":{"POSITION":3,"TEXCOORD_0":4}}]}],"nodes":[{"name":"tile_0153.obj","children":[1]},{"name":"defaultobject","mesh":0}],"samplers":[{},{}],"scenes":[{"nodes":[0]}],"textures":[{"source":0,"sampler":0},{"source":1,"sampler":1}],"scene":0}
