{"asset":{"version":"2.0","generator":"Open Asset Import Library (assimp v6.0.0)"},"extensionsUsed":["KHR_materials_specular","KHR_materials_volume","KHR_materials_ior","FB_ngon_encoding"],"accessors":[{"bufferView":0,"byteOffset":0,"componentType":5126,"count":1829,"type":"VEC3","max":[1.1944091320037842,-3.1438510417938232,1.648626685142517],"min":[2.2250738585072014e-308,-3.2409496307373047,2.2250738585072014e-308]},{"bufferView":1,"byteOffset":0,"componentType":5126,"count":1829,"type":"VEC2","max":[0.9888310432434082,0.6870040893554688],"min":[2.2250738585072014e-308,2.2250738585072014e-308]},{"bufferView":2,"byteOffset":0,"componentType":5125,"count":7731,"type":"SCALAR","max":[1828],"min":[0]},{"bufferView":3,"byteOffset":0,"componentType":5126,"count":3021,"type":"VEC3","max":[1.1570812463760376,-3.141572952270508,1.6451252698898315],"min":[2.2250738585072014e-308,-3.2329750061035156,2.2250738585072014e-308]},{"bufferView":4,"byteOffset":0,"componentType":5126,"count":3021,"type":"VEC2","max":[0.6654348373413086,0.9780120849609375],"min":[2.2250738585072014e-308,2.2250738585072014e-308]},{"bufferView":5,"byteOffset":0,"componentType":5125,"count":16371,"type":"SCALAR","max":[3020],"min":[0]}],"buffers":[{"byteLength":193408,"uri":"tile_0256.bin"}],"bufferViews":[{"buffer":0,"byteOffset":0,"byteLength":21948,"target":34962},{"buffer":0,"byteOffset":21948,"byteLength":14632,"target":34962},{"buffer":0,"byteOffset":36580,"byteLength":30924,"target":34963},{"buffer":0,"byteOffset":67504,"byteLength":36252,"target":34962},{"buffer":0,"byteOffset":103756,"byteLength":24168,"target":34962},{"buffer":0,"byteOffset":127924,"byteLength":65484,"target":34963}],"images":[{"uri":"../textures/tile_0256_material_0.jpg"},{"uri":"../textures/tile_0256_material_1.jpg"}],"materials":[{"name":"DefaultMaterial","pbrMetallicRoughness":{"baseColorFactor":[0.6000000238418579,0.6000000238418579,0.6000000238418579,1.0],"metallicFactor":0.0},"extensions":{"KHR_materials_specular":{"specularFactor":1.0,"specularColorFactor":[0.0,0.0,0.0]},"KHR_materials_ior":{"ior":1.0}}},{"name":"material_0_material","pbrMetallicRoughness":{"baseColorTexture":{"index":0},"metallicFactor":0.0},"extensions":{"KHR_materials_specular":{"specularFactor":1.0,"specularColorFactor":[0.0,0.0,0.0]},"KHR_materials_ior":{"ior":1.0}}},{"name":"material_1_material","pbrMetallicRoughness":{"baseColorTexture":{"index":1},"metallicFactor":0.0},"extensions":{"KHR_materials_specular":{"specularFactor":1.0,"specularColorFactor":[0.0,0.0,0.0]},"KHR_materials_ior":{"ior":1.0}}}],"meshes":[{"name":"defaultobject","primitives":[{"mode":4,"material":1,"indices":2,"attributes":{"POSITION":0,"TEXCOORD_0":1}},{"mode":4,"material":2,"indices":5,"attributes":{"POSITION":3,"TEXCOORD_0":4}}]}],"nodes":[{"name":"tile_0256.obj","children":[1]},{"name":"defaultobject","mesh":0}],"samplers":[{},{}],"scenes":[{"nodes":[0]}],"textures":[{"source":0,"sampler":0},{"source":1,"sampler":1}],"scene":0}
