{"asset":{"version":"2.0","generator":"Open Asset Import Library (assimp v6.0.0)"},"extensionsUsed":["KHR_materials_specular","KHR_materials_volume","KHR_materials_ior","FB_ngon_encoding"],"accessors":[{"bufferView":0,"byteOffset":0,"componentType":5126,"count":4627,"type":"VEC3","max":[2.2929139137268066,1.4709441661834717,1.6776219606399536],"min":[2.2250738585072014e-308,2.2250738585072014e-308,2.2250738585072014e-308]},{"bufferView":1,"byteOffset":0,"componentType":5126,"count":4627,"type":"VEC2","max":[0.9891352653503418,0.5883274078369141],"min":[2.2250738585072014e-308,2.2250738585072014e-308]},{"bufferView":2,"byteOffset":0,"componentType":5125,"count":21285,"type":"SCALAR","max":[4626],"min":[0]},{"bufferView":3,"byteOffset":0,"componentType":5126,"count":370,"type":"VEC3","max":[1.8859639167785645,1.4686486721038818,1.6680258512496948],"min":[2.2250738585072014e-308,2.2250738585072014e-308,2.2250738585072014e-308]},{"bufferView":4,"byteOffset":0,"componentType":5126,"count":370,"type":"VEC2","max":[0.7722415924072266,0.6838340759277344],"min":[2.2250738585072014e-308,2.2250738585072014e-308]},{"bufferView":5,"byteOffset":0,"componentType":5125,"count":1863,"type":"SCALAR","max":[369],"min":[0]}],"buffers":[{"byteLength":192532,"uri":"tile_0442.bin"}],"bufferViews":[{"buffer":0,"byteOffset":0,"byteLength":55524,"target":34962},{"buffer":0,"byteOffset":55524,"byteLength":37016,"target":34962},{"buffer":0,"byteOffset":92540,"byteLength":85140,"target":34963},{"buffer":0,"byteOffset":177680,"byteLength":4440,"target":34962},{"buffer":0,"byteOffset":182120,"byteLength":2960,"target":34962},{"buffer":0,"byteOffset":185080,"byteLength":7452,"target":34963}],"images":[{"uri":"../textures/tile_0442_material_0.jpg"},{"uri":"../textures/tile_0442_material_1.jpg"}],"materials":[{"name":"DefaultMaterial","pbrMetallicRoughness":{"baseColorFactor":[0.6000000238418579,0.6000000238418579,0.6000000238418579,1.0],"metallicFactor":0.0},"extensions":{"KHR_materials_specular":{"specularFactor":1.0,"specularColorFactor":[0.0,0.0,0.0]},"KHR_materials_ior":{"ior":1.0}}},{"name":"material_0_material","pbrMetallicRoughness":{"baseColorTexture":{"index":0},"metallicFactor":0.0},"extensions":{"KHR_materials_specular":{"specularFactor":1.0,"specularColorFactor":[0.0,0.0,0.0]},"KHR_materials_ior":{"ior":1.0}}},{"name":"material_1_material","pbrMetallicRoughness":{"baseColorTexture":{"index":1},"metallicFactor":0.0},"extensions":{"KHR_materials_specular":{"specularFactor":1.0,"specularColorFactor":[0.0,0.0,0.0]},"KHR_materials_ior":{"ior":1.0}}}],"meshes":[{"name":"defaultobject","primitives":[{"mode":4,"material":1,"indices":2,"attributes":{"POSITION":0,"TEXCOORD_0":1}},{"mode":4,"material":2,"indices":5,"attributes":{"POSITION":3,"TEXCOORD_0":4}}]}],"nodes":[{"name":"tile_0442.obj","children":[1]},{"name":"defaultobject","mesh":0}],"samplers":[{},{}],"scenes":[{"nodes":[0]}],"textures":[{"source":0,"sampler":0},{"source":1,"sampler":1}],"scene":0}
