{"asset":{"version":"2.0","generator":"Open Asset Import Library (assimp v6.0.0)"},"extensionsUsed":["KHR_materials_specular","KHR_materials_volume","KHR_materials_ior","FB_ngon_encoding"],"accessors":[{"bufferView":0,"byteOffset":0,"componentType":5126,"count":1849,"type":"VEC3","max":[2.0849995613098145,2.845637559890747,2.2291085720062256],"min":[2.2250738585072014e-308,2.2250738585072014e-308,2.2250738585072014e-308]},{"bufferView":1,"byteOffset":0,"componentType":5126,"count":1849,"type":"VEC2","max":[0.9956879615783691,0.6165695190429688],"min":[2.2250738585072014e-308,2.2250738585072014e-308]},{"bufferView":2,"byteOffset":0,"componentType":5125,"count":8214,"type":"SCALAR","max":[1848],"min":[0]},{"bufferView":3,"byteOffset":0,"componentType":5126,"count":2209,"type":"VEC3","max":[2.1103482246398926,2.8505871295928955,2.2241320610046387],"min":[2.2250738585072014e-308,2.2250738585072014e-308,2.2250738585072014e-308]},{"bufferView":4,"byteOffset":0,"componentType":5126,"count":2209,"type":"VEC2","max":[0.5879850387573242,0.5217075347900391],"min":[2.2250738585072014e-308,2.2250738585072014e-308]},{"bufferView":5,"byteOffset":0,"componentType":5125,"count":11463,"type":"SCALAR","max":[2208],"min":[0]}],"buffers":[{"byteLength":159868,"uri":"tile_0568.bin"}],"bufferViews":[{"buffer":0,"byteOffset":0,"byteLength":22188,"target":34962},{"buffer":0,"byteOffset":22188,"byteLength":14792,"target":34962},{"buffer":0,"byteOffset":36980,"byteLength":32856,"target":34963},{"buffer":0,"byteOffset":69836,"byteLength":26508,"target":34962},{"buffer":0,"byteOffset":96344,"byteLength":17672,"target":34962},{"buffer":0,"byteOffset":114016,"byteLength":45852,"target":34963}],"images":[{"uri":"../textures/tile_0568_material_0.jpg"},{"uri":"../textures/tile_0568_material_1.jpg"}],"materials":[{"name":"DefaultMaterial","pbrMetallicRoughness":{"baseColorFactor":[0.6000000238418579,0.6000000238418579,0.6000000238418579,1.0],"metallicFactor":0.0},"extensions":{"KHR_materials_specular":{"specularFactor":1.0,"specularColorFactor":[0.0,0.0,0.0]},"KHR_materials_ior":{"ior":1.0}}},{"name":"material_0_material","pbrMetallicRoughness":{"baseColorTexture":{"index":0},"metallicFactor":0.0},"extensions":{"KHR_materials_specular":{"specularFactor":1.0,"specularColorFactor":[0.0,0.0,0.0]},"KHR_materials_ior":{"ior":1.0}}},{"name":"material_1_material","pbrMetallicRoughness":{"baseColorTexture":{"index":1},"metallicFactor":0.0},"extensions":{"KHR_materials_specular":{"specularFactor":1.0,"specularColorFactor":[0.0,0.0,0.0]},"KHR_materials_ior":{"ior":1.0}}}],"meshes":[{"name":"defaultobject","primitives":[{"mode":4,"material":1,"indices":2,"attributes":{"POSITION":0,"TEXCOORD_0":1}},{"mode":4,"material":2,"indices":5,"attributes":{"POSITION":3,"TEXCOORD_0":4}}]}],"nodes":[{"name":"tile_0568.obj","children":[1]},{"name":"defaultobject","mesh":0}],"samplers":[{},{}],"scenes":[{"nodes":[0]}],"textures":[{"source":0,"sampler":0},{"source":1,"sampler":1}],"scene":0}
