{"asset":{"version":"2.0","generator":"Open Asset Import Library (assimp v6.0.0)"},"extensionsUsed":["KHR_materials_specular","KHR_materials_volume","KHR_materials_ior","FB_ngon_encoding"],"accessors":[{"bufferView":0,"byteOffset":0,"componentType":5126,"count":6833,"type":"VEC3","max":[1.7254714965820312,0.22739465534687042,1.669688105583191],"min":[-0.0973462462425232,-0.11797703057527542,2.2250738585072014e-308]},{"bufferView":1,"byteOffset":0,"componentType":5126,"count":6833,"type":"VEC2","max":[0.9935104846954346,0.9843063354492188],"min":[2.2250738585072014e-308,2.2250738585072014e-308]},{"bufferView":2,"byteOffset":0,"componentType":5125,"count":25896,"type":"SCALAR","max":[6832],"min":[0]},{"bufferView":3,"byteOffset":0,"componentType":5126,"count":5316,"type":"VEC3","max":[1.1952768564224243,0.2246755212545395,1.6784563064575195],"min":[-0.10279013216495514,-0.12644629180431366,2.2250738585072014e-308]},{"bufferView":4,"byteOffset":0,"componentType":5126,"count":5316,"type":"VEC2","max":[0.9948263168334961,0.6691303253173828],"min":[2.2250738585072014e-308,2.2250738585072014e-308]},{"bufferView":5,"byteOffset":0,"componentType":5125,"count":26370,"type":"SCALAR","max":[5315],"min":[0]}],"buffers":[{"byteLength":452044,"uri":"tile_0397.bin"}],"bufferViews":[{"buffer":0,"byteOffset":0,"byteLength":81996,"target":34962},{"buffer":0,"byteOffset":81996,"byteLength":54664,"target":34962},{"buffer":0,"byteOffset":136660,"byteLength":103584,"target":34963},{"buffer":0,"byteOffset":240244,"byteLength":63792,"target":34962},{"buffer":0,"byteOffset":304036,"byteLength":42528,"target":34962},{"buffer":0,"byteOffset":346564,"byteLength":105480,"target":34963}],"images":[{"uri":"../textures/tile_0397_material_0.jpg"},{"uri":"../textures/tile_0397_material_1.jpg"}],"materials":[{"name":"DefaultMaterial","pbrMetallicRoughness":{"baseColorFactor":[0.6000000238418579,0.6000000238418579,0.6000000238418579,1.0],"metallicFactor":0.0},"extensions":{"KHR_materials_specular":{"specularFactor":1.0,"specularColorFactor":[0.0,0.0,0.0]},"KHR_materials_ior":{"ior":1.0}}},{"name":"material_0_material","pbrMetallicRoughness":{"baseColorTexture":{"index":0},"metallicFactor":0.0},"extensions":{"KHR_materials_specular":{"specularFactor":1.0,"specularColorFactor":[0.0,0.0,0.0]},"KHR_materials_ior":{"ior":1.0}}},{"name":"material_1_material","pbrMetallicRoughness":{"baseColorTexture":{"index":1},"metallicFactor":0.0},"extensions":{"KHR_materials_specular":{"specularFactor":1.0,"specularColorFactor":[0.0,0.0,0.0]},"KHR_materials_ior":{"ior":1.0}}}],"meshes":[{"name":"defaultobject","primitives":[{"mode":4,"material":1,"indices":2,"attributes":{"POSITION":0,"TEXCOORD_0":1}},{"mode":4,"material":2,"indices":5,"attributes":{"POSITION":3,"TEXCOORD_0":4}}]}],"nodes":[{"name":"tile_0397.obj","children":[1]},{"name":"defaultobject","mesh":0}],"samplers":[{},{}],"scenes":[{"nodes":[0]}],"textures":[{"source":0,"sampler":0},{"source":1,"sampler":1}],"scene":0}
