{"asset":{"version":"2.0","generator":"Open Asset Import Library (assimp v6.0.0)"},"extensionsUsed":["KHR_materials_specular","KHR_materials_volume","KHR_materials_ior","FB_ngon_encoding"],"accessors":[{"bufferView":0,"byteOffset":0,"componentType":5126,"count":3753,"type":"VEC3","max":[0.4862299859523773,-0.9563599228858948,2.8122029304504395],"min":[-0.25453659892082214,-1.2033271789550781,2.2250738585072014e-308]},{"bufferView":1,"byteOffset":0,"componentType":5126,"count":3753,"type":"VEC2","max":[0.9842021465301514,0.5217781066894531],"min":[2.2250738585072014e-308,2.2250738585072014e-308]},{"bufferView":2,"byteOffset":0,"componentType":5125,"count":17901,"type":"SCALAR","max":[3752],"min":[0]},{"bufferView":3,"byteOffset":0,"componentType":5126,"count":404,"type":"VEC3","max":[0.5251533389091492,-0.9687435030937195,2.829697370529175],"min":[2.2250738585072014e-308,-1.2053585052490234,2.2250738585072014e-308]},{"bufferView":4,"byteOffset":0,"componentType":5126,"count":404,"type":"VEC2","max":[0.6148891448974609,0.6552772521972656],"min":[2.2250738585072014e-308,2.2250738585072014e-308]},{"bufferView":5,"byteOffset":0,"componentType":5125,"count":2166,"type":"SCALAR","max":[403],"min":[0]}],"buffers":[{"byteLength":163408,"uri":"tile_0361.bin"}],"bufferViews":[{"buffer":0,"byteOffset":0,"byteLength":45036,"target":34962},{"buffer":0,"byteOffset":45036,"byteLength":30024,"target":34962},{"buffer":0,"byteOffset":75060,"byteLength":71604,"target":34963},{"buffer":0,"byteOffset":146664,"byteLength":4848,"target":34962},{"buffer":0,"byteOffset":151512,"byteLength":3232,"target":34962},{"buffer":0,"byteOffset":154744,"byteLength":8664,"target":34963}],"images":[{"uri":"../textures/tile_0361_material_0.jpg"},{"uri":"../textures/tile_0361_material_1.jpg"}],"materials":[{"name":"DefaultMaterial","pbrMetallicRoughness":{"baseColorFactor":[0.6000000238418579,0.6000000238418579,0.6000000238418579,1.0],"metallicFactor":0.0},"extensions":{"KHR_materials_specular":{"specularFactor":1.0,"specularColorFactor":[0.0,0.0,0.0]},"KHR_materials_ior":{"ior":1.0}}},{"name":"material_0_material","pbrMetallicRoughness":{"baseColorTexture":{"index":0},"metallicFactor":0.0},"extensions":{"KHR_materials_specular":{"specularFactor":1.0,"specularColorFactor":[0.0,0.0,0.0]},"KHR_materials_ior":{"ior":1.0}}},{"name":"material_1_material","pbrMetallicRoughness":{"baseColorTexture":{"index":1},"metallicFactor":0.0},"extensions":{"KHR_materials_specular":{"specularFactor":1.0,"specularColorFactor":[0.0,0.0,0.0]},"KHR_materials_ior":{"ior":1.0}}}],"meshes":[{"name":"defaultobject","primitives":[{"mode":4,"material":1,"indices":2,"attributes":{"POSITION":0,"TEXCOORD_0":1}},{"mode":4,"material":2,"indices":5,"attributes":{"POSITION":3,"TEXCOORD_0":4}}]}],"nodes":[{"name":"tile_0361.obj","children":[1]},{"name":"defaultobject","mesh":0}],"samplers":[{},{}],"scenes":[{"nodes":[0]}],"textures":[{"source":0,"sampler":0},{"source":1,"sampler":1}],"scene":0}
