{"asset":{"version":"2.0","generator":"Open Asset Import Library (assimp v6.0.0)"},"extensionsUsed":["KHR_materials_specular","KHR_materials_volume","KHR_materials_ior","FB_ngon_encoding"],"accessors":[{"bufferView":0,"byteOffset":0,"componentType":5126,"count":4762,"type":"VEC3","max":[0.5747881531715393,-1.552341341972351,2.299687147140503],"min":[-0.3461657166481018,-1.6952717304229736,2.2250738585072014e-308]},{"bufferView":1,"byteOffset":0,"componentType":5126,"count":4762,"type":"VEC2","max":[0.9912595748901367,0.7733211517333984],"min":[2.2250738585072014e-308,2.2250738585072014e-308]},{"bufferView":2,"byteOffset":0,"componentType":5125,"count":20490,"type":"SCALAR","max":[4761],"min":[0]},{"bufferView":3,"byteOffset":0,"componentType":5126,"count":266,"type":"VEC3","max":[0.5750254988670349,-1.5528030395507812,2.232576847076416],"min":[-0.3362695872783661,-1.6900962591171265,2.2250738585072014e-308]},{"bufferView":4,"byteOffset":0,"componentType":5126,"count":266,"type":"VEC2","max":[0.8230876922607422,0.589874267578125],"min":[2.2250738585072014e-308,2.2250738585072014e-308]},{"bufferView":5,"byteOffset":0,"componentType":5125,"count":1110,"type":"SCALAR","max":[265],"min":[0]}],"buffers":[{"byteLength":186960,"uri":"tile_0378.bin"}],"bufferViews":[{"buffer":0,"byteOffset":0,"byteLength":57144,"target":34962},{"buffer":0,"byteOffset":57144,"byteLength":38096,"target":34962},{"buffer":0,"byteOffset":95240,"byteLength":81960,"target":34963},{"buffer":0,"byteOffset":177200,"byteLength":3192,"target":34962},{"buffer":0,"byteOffset":180392,"byteLength":2128,"target":34962},{"buffer":0,"byteOffset":182520,"byteLength":4440,"target":34963}],"images":[{"uri":"../textures/tile_0378_material_0.jpg"},{"uri":"../textures/tile_0378_material_1.jpg"}],"materials":[{"name":"DefaultMaterial","pbrMetallicRoughness":{"baseColorFactor":[0.6000000238418579,0.6000000238418579,0.6000000238418579,1.0],"metallicFactor":0.0},"extensions":{"KHR_materials_specular":{"specularFactor":1.0,"specularColorFactor":[0.0,0.0,0.0]},"KHR_materials_ior":{"ior":1.0}}},{"name":"material_0_material","pbrMetallicRoughness":{"baseColorTexture":{"index":0},"metallicFactor":0.0},"extensions":{"KHR_materials_specular":{"specularFactor":1.0,"specularColorFactor":[0.0,0.0,0.0]},"KHR_materials_ior":{"ior":1.0}}},{"name":"material_1_material","pbrMetallicRoughness":{"baseColorTexture":{"index":1},"metallicFactor":0.0},"extensions":{"KHR_materials_specular":{"specularFactor":1.0,"specularColorFactor":[0.0,0.0,0.0]},"KHR_materials_ior":{"ior":1.0}}}],"meshes":[{"name":"defaultobject","primitives":[{"mode":4,"material":1,"indices":2,"attributes":{"POSITION":0,"TEXCOORD_0":1}},{"mode":4,"material":2,"indices":5,"attributes":{"POSITION":3,"TEXCOORD_0":4}}]}],"nodes":[{"name":"tile_0378.obj","children":[1]},{"name":"defaultobject","mesh":0}],"samplers":[{},{}],"scenes":[{"nodes":[0]}],"textures":[{"source":0,"sampler":0},{"source":1,"sampler":1}],"scene":0}
