{"asset":{"version":"2.0","generator":"Open Asset Import Library (assimp v6.0.0)"},"extensionsUsed":["KHR_materials_specular","KHR_materials_volume","KHR_materials_ior","FB_ngon_encoding"],"accessors":[{"bufferView":0,"byteOffset":0,"componentType":5126,"count":3608,"type":"VEC3","max":[1.2522118091583252,0.27075543999671936,3.1564407348632812],"min":[2.2250738585072014e-308,2.2250738585072014e-308,2.2250738585072014e-308]},{"bufferView":1,"byteOffset":0,"componentType":5126,"count":3608,"type":"VEC2","max":[0.9914741516113281,0.628814697265625],"min":[2.2250738585072014e-308,2.2250738585072014e-308]},{"bufferView":2,"byteOffset":0,"componentType":5125,"count":15315,"type":"SCALAR","max":[3607],"min":[0]},{"bufferView":3,"byteOffset":0,"componentType":5126,"count":9,"type":"VEC3","max":[0.9667797088623047,0.20325703918933868,3.143263339996338],"min":[2.2250738585072014e-308,2.2250738585072014e-308,2.2250738585072014e-308]},{"bufferView":4,"byteOffset":0,"componentType":5126,"count":9,"type":"VEC2","max":[0.7772865295410156,0.6181334257125854],"min":[2.2250738585072014e-308,2.2250738585072014e-308]},{"bufferView":5,"byteOffset":0,"componentType":5125,"count":9,"type":"SCALAR","max":[8],"min":[0]}],"buffers":[{"byteLength":133636,"uri":"tile_0428.bin"}],"bufferViews":[{"buffer":0,"byteOffset":0,"byteLength":43296,"target":34962},{"buffer":0,"byteOffset":43296,"byteLength":28864,"target":34962},{"buffer":0,"byteOffset":72160,"byteLength":61260,"target":34963},{"buffer":0,"byteOffset":133420,"byteLength":108,"target":34962},{"buffer":0,"byteOffset":133528,"byteLength":72,"target":34962},{"buffer":0,"byteOffset":133600,"byteLength":36,"target":34963}],"images":[{"uri":"../textures/tile_0428_material_0.jpg"},{"uri":"../textures/tile_0428_material_1.jpg"}],"materials":[{"name":"DefaultMaterial","pbrMetallicRoughness":{"baseColorFactor":[0.6000000238418579,0.6000000238418579,0.6000000238418579,1.0],"metallicFactor":0.0},"extensions":{"KHR_materials_specular":{"specularFactor":1.0,"specularColorFactor":[0.0,0.0,0.0]},"KHR_materials_ior":{"ior":1.0}}},{"name":"material_0_material","pbrMetallicRoughness":{"baseColorTexture":{"index":0},"metallicFactor":0.0},"extensions":{"KHR_materials_specular":{"specularFactor":1.0,"specularColorFactor":[0.0,0.0,0.0]},"KHR_materials_ior":{"ior":1.0}}},{"name":"material_1_material","pbrMetallicRoughness":{"baseColorTexture":{"index":1},"metallicFactor":0.0},"extensions":{"KHR_materials_specular":{"specularFactor":1.0,"specularColorFactor":[0.0,0.0,0.0]},"KHR_materials_ior":{"ior":1.0}}}],"meshes":[{"name":"defaultobject","primitives":[{"mode":4,"material":1,"indices":2,"attributes":{"POSITION":0,"TEXCOORD_0":1}},{"mode":4,"material":2,"indices":5,"attributes":{"POSITION":3,"TEXCOORD_0":4}}]}],"nodes":[{"name":"tile_0428.obj","children":[1]},{"name":"defaultobject","mesh":0}],"samplers":[{},{}],"scenes":[{"nodes":[0]}],"textures":[{"source":0,"sampler":0},{"source":1,"sampler":1}],"scene":0}
