{"asset":{"version":"2.0","generator":"Open Asset Import Library (assimp v6.0.0)"},"extensionsUsed":["KHR_materials_specular","KHR_materials_volume","KHR_materials_ior","FB_ngon_encoding"],"accessors":[{"bufferView":0,"byteOffset":0,"componentType":5126,"count":6448,"type":"VEC3","max":[0.9398676156997681,-2.140605926513672,2.9251792430877686],"min":[2.2250738585072014e-308,-2.3770666122436523,2.2250738585072014e-308]},{"bufferView":1,"byteOffset":0,"componentType":5126,"count":6448,"type":"VEC2","max":[0.9932060241699219,0.8041610717773438],"min":[2.2250738585072014e-308,2.2250738585072014e-308]},{"bufferView":2,"byteOffset":0,"componentType":5125,"count":26685,"type":"SCALAR","max":[6447],"min":[0]},{"bufferView":3,"byteOffset":0,"componentType":5126,"count":65,"type":"VEC3","max":[0.949819028377533,-2.112797498703003,2.9557955265045166],"min":[2.2250738585072014e-308,-2.2386395931243896,2.2250738585072014e-308]},{"bufferView":4,"byteOffset":0,"componentType":5126,"count":65,"type":"VEC2","max":[0.9581108093261719,0.8346481323242188],"min":[2.2250738585072014e-308,2.2250738585072014e-308]},{"bufferView":5,"byteOffset":0,"componentType":5125,"count":261,"type":"SCALAR","max":[64],"min":[0]}],"buffers":[{"byteLength":238044,"uri":"tile_0026.bin"}],"bufferViews":[{"buffer":0,"byteOffset":0,"byteLength":77376,"target":34962},{"buffer":0,"byteOffset":77376,"byteLength":51584,"target":34962},{"buffer":0,"byteOffset":128960,"byteLength":106740,"target":34963},{"buffer":0,"byteOffset":235700,"byteLength":780,"target":34962},{"buffer":0,"byteOffset":236480,"byteLength":520,"target":34962},{"buffer":0,"byteOffset":237000,"byteLength":1044,"target":34963}],"images":[{"uri":"../textures/tile_0026_material_0.jpg"},{"uri":"../textures/tile_0026_material_1.jpg"}],"materials":[{"name":"DefaultMaterial","pbrMetallicRoughness":{"baseColorFactor":[0.6000000238418579,0.6000000238418579,0.6000000238418579,1.0],"metallicFactor":0.0},"extensions":{"KHR_materials_specular":{"specularFactor":1.0,"specularColorFactor":[0.0,0.0,0.0]},"KHR_materials_ior":{"ior":1.0}}},{"name":"material_0_material","pbrMetallicRoughness":{"baseColorTexture":{"index":0},"metallicFactor":0.0},"extensions":{"KHR_materials_specular":{"specularFactor":1.0,"specularColorFactor":[0.0,0.0,0.0]},"KHR_materials_ior":{"ior":1.0}}},{"name":"material_1_material","pbrMetallicRoughness":{"baseColorTexture":{"index":1},"metallicFactor":0.0},"extensions":{"KHR_materials_specular":{"specularFactor":1.0,"specularColorFactor":[0.0,0.0,0.0]},"KHR_materials_ior":{"ior":1.0}}}],"meshes":[{"name":"defaultobject","primitives":[{"mode":4,"material":1,"indices":2,"attributes":{"POSITION":0,"TEXCOORD_0":1}},{"mode":4,"material":2,"indices":5,"attributes":{"POSITION":3,"TEXCOORD_0":4}}]}],"nodes":[{"name":"tile_0026.obj","children":[1]},{"name":"defaultobject","mesh":0}],"samplers":[{},{}],"scenes":[{"nodes":[0]}],"textures":[{"source":0,"sampler":0},{"source":1,"sampler":1}],"scene":0}
