{"asset":{"version":"2.0","generator":"Open Asset Import Library (assimp v6.0.0)"},"extensionsUsed":["KHR_materials_specular","KHR_materials_volume","KHR_materials_ior","FB_ngon_encoding"],"accessors":[{"bufferView":0,"byteOffset":0,"componentType":5126,"count":4614,"type":"VEC3","max":[-0.34318116307258606,-1.1446442604064941,2.0558271408081055],"min":[-0.4351344108581543,-1.3688801527023315,2.2250738585072014e-308]},{"bufferView":1,"byteOffset":0,"componentType":5126,"count":4614,"type":"VEC2","max":[0.9920845031738281,0.6327095031738281],"min":[2.2250738585072014e-308,2.2250738585072014e-308]},{"bufferView":2,"byteOffset":0,"componentType":5125,"count":18429,"type":"SCALAR","max":[4613],"min":[0]},{"bufferView":3,"byteOffset":0,"componentType":5126,"count":416,"type":"VEC3","max":[-0.3439597189426422,-1.145281195640564,1.9999771118164062],"min":[-0.4126313030719757,-1.2131785154342651,2.2250738585072014e-308]},{"bufferView":4,"byteOffset":0,"componentType":5126,"count":416,"type":"VEC2","max":[0.8286533355712891,0.5501327514648438],"min":[2.2250738585072014e-308,2.2250738585072014e-308]},{"bufferView":5,"byteOffset":0,"componentType":5125,"count":2022,"type":"SCALAR","max":[415],"min":[0]}],"buffers":[{"byteLength":182404,"uri":"tile_0387.bin"}],"bufferViews":[{"buffer":0,"byteOffset":0,"byteLength":55368,"target":34962},{"buffer":0,"byteOffset":55368,"byteLength":36912,"target":34962},{"buffer":0,"byteOffset":92280,"byteLength":73716,"target":34963},{"buffer":0,"byteOffset":165996,"byteLength":4992,"target":34962},{"buffer":0,"byteOffset":170988,"byteLength":3328,"target":34962},{"buffer":0,"byteOffset":174316,"byteLength":8088,"target":34963}],"images":[{"uri":"../textures/tile_0387_material_0.jpg"},{"uri":"../textures/tile_0387_material_1.jpg"}],"materials":[{"name":"DefaultMaterial","pbrMetallicRoughness":{"baseColorFactor":[0.6000000238418579,0.6000000238418579,0.6000000238418579,1.0],"metallicFactor":0.0},"extensions":{"KHR_materials_specular":{"specularFactor":1.0,"specularColorFactor":[0.0,0.0,0.0]},"KHR_materials_ior":{"ior":1.0}}},{"name":"material_0_material","pbrMetallicRoughness":{"baseColorTexture":{"index":0},"metallicFactor":0.0},"extensions":{"KHR_materials_specular":{"specularFactor":1.0,"specularColorFactor":[0.0,0.0,0.0]},"KHR_materials_ior":{"ior":1.0}}},{"name":"material_1_material","pbrMetallicRoughness":{"baseColorTexture":{"index":1},"metallicFactor":0.0},"extensions":{"KHR_materials_specular":{"specularFactor":1.0,"specularColorFactor":[0.0,0.0,0.0]},"KHR_materials_ior":{"ior":1.0}}}],"meshes":[{"name":"defaultobject","primitives":[{"mode":4,"material":1,"indices":2,"attributes":{"POSITION":0,"TEXCOORD_0":1}},{"mode":4,"material":2,"indices":5,"attributes":{"POSITION":3,"TEXCOORD_0":4}}]}],"nodes":[{"name":"tile_0387.obj","children":[1]},{"name":"defaultobject","mesh":0}],"samplers":[{},{}],"scenes":[{"nodes":[0]}],"textures":[{"source":0,"sampler":0},{"source":1,"sampler":1}],"scene":0}
