{"asset":{"version":"2.0","generator":"Open Asset Import Library (assimp v6.0.0)"},"extensionsUsed":["KHR_materials_specular","KHR_materials_volume","KHR_materials_ior","FB_ngon_encoding"],"accessors":[{"bufferView":0,"byteOffset":0,"componentType":5126,"count":13030,"type":"VEC3","max":[3.2869417667388916,0.4572699964046478,0.5708994269371033],"min":[2.2250738585072014e-308,2.2250738585072014e-308,2.2250738585072014e-308]},{"bufferView":1,"byteOffset":0,"componentType":5126,"count":13030,"type":"VEC2","max":[0.991847038269043,0.7089824676513672],"min":[2.2250738585072014e-308,2.2250738585072014e-308]},{"bufferView":2,"byteOffset":0,"componentType":5125,"count":55362,"type":"SCALAR","max":[13029],"min":[0]},{"bufferView":3,"byteOffset":0,"componentType":5126,"count":2000,"type":"VEC3","max":[3.256998062133789,0.4388432800769806,0.5296928286552429],"min":[2.2250738585072014e-308,2.2250738585072014e-308,2.2250738585072014e-308]},{"bufferView":4,"byteOffset":0,"componentType":5126,"count":2000,"type":"VEC2","max":[0.566502571105957,0.5450325012207031],"min":[2.2250738585072014e-308,2.2250738585072014e-308]},{"bufferView":5,"byteOffset":0,"componentType":5125,"count":10332,"type":"SCALAR","max":[1999],"min":[0]}],"buffers":[{"byteLength":563376,"uri":"tile_0108.bin"}],"bufferViews":[{"buffer":0,"byteOffset":0,"byteLength":156360,"target":34962},{"buffer":0,"byteOffset":156360,"byteLength":104240,"target":34962},{"buffer":0,"byteOffset":260600,"byteLength":221448,"target":34963},{"buffer":0,"byteOffset":482048,"byteLength":24000,"target":34962},{"buffer":0,"byteOffset":506048,"byteLength":16000,"target":34962},{"buffer":0,"byteOffset":522048,"byteLength":41328,"target":34963}],"images":[{"uri":"../textures/tile_0108_material_0.jpg"},{"uri":"../textures/tile_0108_material_1.jpg"}],"materials":[{"name":"DefaultMaterial","pbrMetallicRoughness":{"baseColorFactor":[0.6000000238418579,0.6000000238418579,0.6000000238418579,1.0],"metallicFactor":0.0},"extensions":{"KHR_materials_specular":{"specularFactor":1.0,"specularColorFactor":[0.0,0.0,0.0]},"KHR_materials_ior":{"ior":1.0}}},{"name":"material_0_material","pbrMetallicRoughness":{"baseColorTexture":{"index":0},"metallicFactor":0.0},"extensions":{"KHR_materials_specular":{"specularFactor":1.0,"specularColorFactor":[0.0,0.0,0.0]},"KHR_materials_ior":{"ior":1.0}}},{"name":"material_1_material","pbrMetallicRoughness":{"baseColorTexture":{"index":1},"metallicFactor":0.0},"extensions":{"KHR_materials_specular":{"specularFactor":1.0,"specularColorFactor":[0.0,0.0,0.0]},"KHR_materials_ior":{"ior":1.0}}}],"meshes":[{"name":"defaultobject","primitives":[{"mode":4,"material":1,"indices":2,"attributes":{"POSITION":0,"TEXCOORD_0":1}},{"mode":4,"material":2,"indices":5,"attributes":{"POSITION":3,"TEXCOORD_0":4}}]}],"nodes":[{"name":"tile_0108.obj","children":[1]},{"name":"defaultobject","mesh":0}],"samplers":[{},{}],"scenes":[{"nodes":[0]}],"textures":[{"source":0,"sampler":0},{"source":1,"sampler":1}],"scene":0}
