{"asset":{"version":"2.0","generator":"Open Asset Import Library (assimp v6.0.0)"},"extensionsUsed":["KHR_materials_specular","KHR_materials_volume","KHR_materials_ior","FB_ngon_encoding"],"accessors":[{"bufferView":0,"byteOffset":0,"componentType":5126,"count":4080,"type":"VEC3","max":[1.9269795417785645,-2.7634775638580322,1.4958794116973877],"min":[2.2250738585072014e-308,-3.0371460914611816,2.2250738585072014e-308]},{"bufferView":1,"byteOffset":0,"componentType":5126,"count":4080,"type":"VEC2","max":[0.9953597784042358,0.5074577331542969],"min":[2.2250738585072014e-308,2.2250738585072014e-308]},{"bufferView":2,"byteOffset":0,"componentType":5125,"count":16080,"type":"SCALAR","max":[4079],"min":[0]},{"bufferView":3,"byteOffset":0,"componentType":5126,"count":1004,"type":"VEC3","max":[1.3540014028549194,-2.7634968757629395,1.5048907995224],"min":[2.2250738585072014e-308,-3.0613653659820557,2.2250738585072014e-308]},{"bufferView":4,"byteOffset":0,"componentType":5126,"count":1004,"type":"VEC2","max":[0.7750694751739502,0.6358108520507812],"min":[2.2250738585072014e-308,2.2250738585072014e-308]},{"bufferView":5,"byteOffset":0,"componentType":5125,"count":5157,"type":"SCALAR","max":[1003],"min":[0]}],"buffers":[{"byteLength":186628,"uri":"tile_0250.bin"}],"bufferViews":[{"buffer":0,"byteOffset":0,"byteLength":48960,"target":34962},{"buffer":0,"byteOffset":48960,"byteLength":32640,"target":34962},{"buffer":0,"byteOffset":81600,"byteLength":64320,"target":34963},{"buffer":0,"byteOffset":145920,"byteLength":12048,"target":34962},{"buffer":0,"byteOffset":157968,"byteLength":8032,"target":34962},{"buffer":0,"byteOffset":166000,"byteLength":20628,"target":34963}],"images":[{"uri":"../textures/tile_0250_material_0.jpg"},{"uri":"../textures/tile_0250_material_1.jpg"}],"materials":[{"name":"DefaultMaterial","pbrMetallicRoughness":{"baseColorFactor":[0.6000000238418579,0.6000000238418579,0.6000000238418579,1.0],"metallicFactor":0.0},"extensions":{"KHR_materials_specular":{"specularFactor":1.0,"specularColorFactor":[0.0,0.0,0.0]},"KHR_materials_ior":{"ior":1.0}}},{"name":"material_0_material","pbrMetallicRoughness":{"baseColorTexture":{"index":0},"metallicFactor":0.0},"extensions":{"KHR_materials_specular":{"specularFactor":1.0,"specularColorFactor":[0.0,0.0,0.0]},"KHR_materials_ior":{"ior":1.0}}},{"name":"material_1_material","pbrMetallicRoughness":{"baseColorTexture":{"index":1},"metallicFactor":0.0},"extensions":{"KHR_materials_specular":{"specularFactor":1.0,"specularColorFactor":[0.0,0.0,0.0]},"KHR_materials_ior":{"ior":1.0}}}],"meshes":[{"name":"defaultobject","primitives":[{"mode":4,"material":1,"indices":2,"attributes":{"POSITION":0,"TEXCOORD_0":1}},{"mode":4,"material":2,"indices":5,"attributes":{"POSITION":3,"TEXCOORD_0":4}}]}],"nodes":[{"name":"tile_0250.obj","children":[1]},{"name":"defaultobject","mesh":0}],"samplers":[{},{}],"scenes":[{"nodes":[0]}],"textures":[{"source":0,"sampler":0},{"source":1,"sampler":1}],"scene":0}
