{"asset":{"version":"2.0","generator":"Open Asset Import Library (assimp v6.0.0)"},"extensionsUsed":["KHR_materials_specular","KHR_materials_volume","KHR_materials_ior","FB_ngon_encoding"],"accessors":[{"bufferView":0,"byteOffset":0,"componentType":5126,"count":3256,"type":"VEC3","max":[1.3270295858383179,-2.2779653072357178,1.782151222229004],"min":[-0.1035793349146843,-2.410161256790161,2.2250738585072014e-308]},{"bufferView":1,"byteOffset":0,"componentType":5126,"count":3256,"type":"VEC2","max":[0.9874167442321777,0.9354705810546875],"min":[2.2250738585072014e-308,2.2250738585072014e-308]},{"bufferView":2,"byteOffset":0,"componentType":5125,"count":14619,"type":"SCALAR","max":[3255],"min":[0]},{"bufferView":3,"byteOffset":0,"componentType":5126,"count":957,"type":"VEC3","max":[1.276624321937561,-2.279343605041504,1.7694218158721924],"min":[2.2250738585072014e-308,-2.410161256790161,2.2250738585072014e-308]},{"bufferView":4,"byteOffset":0,"componentType":5126,"count":957,"type":"VEC2","max":[0.6119012832641602,0.5898094177246094],"min":[2.2250738585072014e-308,2.2250738585072014e-308]},{"bufferView":5,"byteOffset":0,"componentType":5125,"count":5073,"type":"SCALAR","max":[956],"min":[0]}],"buffers":[{"byteLength":163028,"uri":"tile_0266.bin"}],"bufferViews":[{"buffer":0,"byteOffset":0,"byteLength":39072,"target":34962},{"buffer":0,"byteOffset":39072,"byteLength":26048,"target":34962},{"buffer":0,"byteOffset":65120,"byteLength":58476,"target":34963},{"buffer":0,"byteOffset":123596,"byteLength":11484,"target":34962},{"buffer":0,"byteOffset":135080,"byteLength":7656,"target":34962},{"buffer":0,"byteOffset":142736,"byteLength":20292,"target":34963}],"images":[{"uri":"../textures/tile_0266_material_0.jpg"},{"uri":"../textures/tile_0266_material_1.jpg"}],"materials":[{"name":"DefaultMaterial","pbrMetallicRoughness":{"baseColorFactor":[0.6000000238418579,0.6000000238418579,0.6000000238418579,1.0],"metallicFactor":0.0},"extensions":{"KHR_materials_specular":{"specularFactor":1.0,"specularColorFactor":[0.0,0.0,0.0]},"KHR_materials_ior":{"ior":1.0}}},{"name":"material_0_material","pbrMetallicRoughness":{"baseColorTexture":{"index":0},"metallicFactor":0.0},"extensions":{"KHR_materials_specular":{"specularFactor":1.0,"specularColorFactor":[0.0,0.0,0.0]},"KHR_materials_ior":{"ior":1.0}}},{"name":"material_1_material","pbrMetallicRoughness":{"baseColorTexture":{"index":1},"metallicFactor":0.0},"extensions":{"KHR_materials_specular":{"specularFactor":1.0,"specularColorFactor":[0.0,0.0,0.0]},"KHR_materials_ior":{"ior":1.0}}}],"meshes":[{"name":"defaultobject","primitives":[{"mode":4,"material":1,"indices":2,"attributes":{"POSITION":0,"TEXCOORD_0":1}},{"mode":4,"material":2,"indices":5,"attributes":{"POSITION":3,"TEXCOORD_0":4}}]}],"nodes":[{"name":"tile_0266.obj","children":[1]},{"name":"defaultobject","mesh":0}],"samplers":[{},{}],"scenes":[{"nodes":[0]}],"textures":[{"source":0,"sampler":0},{"source":1,"sampler":1}],"scene":0}
