{"asset":{"version":"2.0","generator":"Open Asset Import Library (assimp v6.0.0)"},"extensionsUsed":["KHR_materials_specular","KHR_materials_volume","KHR_materials_ior","FB_ngon_encoding"],"accessors":[{"bufferView":0,"byteOffset":0,"componentType":5126,"count":6171,"type":"VEC3","max":[3.5533578395843506,0.34050384163856506,-0.06661844998598099],"min":[2.2250738585072014e-308,2.2250738585072014e-308,-0.14013323187828064]},{"bufferView":1,"byteOffset":0,"componentType":5126,"count":6171,"type":"VEC2","max":[0.9929189682006836,0.7421817779541016],"min":[2.2250738585072014e-308,2.2250738585072014e-308]},{"bufferView":2,"byteOffset":0,"componentType":5125,"count":24057,"type":"SCALAR","max":[6170],"min":[0]},{"bufferView":3,"byteOffset":0,"componentType":5126,"count":928,"type":"VEC3","max":[2.6484060287475586,0.33928266167640686,-0.06979701668024063],"min":[2.2250738585072014e-308,2.2250738585072014e-308,-0.13953132927417755]},{"bufferView":4,"byteOffset":0,"componentType":5126,"count":928,"type":"VEC2","max":[0.5484485626220703,0.9186210632324219],"min":[2.2250738585072014e-308,2.2250738585072014e-308]},{"bufferView":5,"byteOffset":0,"componentType":5125,"count":4557,"type":"SCALAR","max":[927],"min":[0]}],"buffers":[{"byteLength":256436,"uri":"tile_0182.bin"}],"bufferViews":[{"buffer":0,"byteOffset":0,"byteLength":74052,"target":34962},{"buffer":0,"byteOffset":74052,"byteLength":49368,"target":34962},{"buffer":0,"byteOffset":123420,"byteLength":96228,"target":34963},{"buffer":0,"byteOffset":219648,"byteLength":11136,"target":34962},{"buffer":0,"byteOffset":230784,"byteLength":7424,"target":34962},{"buffer":0,"byteOffset":238208,"byteLength":18228,"target":34963}],"images":[{"uri":"../textures/tile_0182_material_0.jpg"},{"uri":"../textures/tile_0182_material_1.jpg"}],"materials":[{"name":"DefaultMaterial","pbrMetallicRoughness":{"baseColorFactor":[0.6000000238418579,0.6000000238418579,0.6000000238418579,1.0],"metallicFactor":0.0},"extensions":{"KHR_materials_specular":{"specularFactor":1.0,"specularColorFactor":[0.0,0.0,0.0]},"KHR_materials_ior":{"ior":1.0}}},{"name":"material_0_material","pbrMetallicRoughness":{"baseColorTexture":{"index":0},"metallicFactor":0.0},"extensions":{"KHR_materials_specular":{"specularFactor":1.0,"specularColorFactor":[0.0,0.0,0.0]},"KHR_materials_ior":{"ior":1.0}}},{"name":"material_1_material","pbrMetallicRoughness":{"baseColorTexture":{"index":1},"metallicFactor":0.0},"extensions":{"KHR_materials_specular":{"specularFactor":1.0,"specularColorFactor":[0.0,0.0,0.0]},"KHR_materials_ior":{"ior":1.0}}}],"meshes":[{"name":"defaultobject","primitives":[{"mode":4,"material":1,"indices":2,"attributes":{"POSITION":0,"TEXCOORD_0":1}},{"mode":4,"material":2,"indices":5,"attributes":{"POSITION":3,"TEXCOORD_0":4}}]}],"nodes":[{"name":"tile_0182.obj","children":[1]},{"name":"defaultobject","mesh":0}],"samplers":[{},{}],"scenes":[{"nodes":[0]}],"textures":[{"source":0,"sampler":0},{"source":1,"sampler":1}],"scene":0}
