{"asset":{"version":"2.0","generator":"Open Asset Import Library (assimp v6.0.0)"},"extensionsUsed":["KHR_materials_specular","KHR_materials_volume","KHR_materials_ior","FB_ngon_encoding"],"accessors":[{"bufferView":0,"byteOffset":0,"componentType":5126,"count":12314,"type":"VEC3","max":[1.6131452322006226,-2.3707079887390137,1.885819911956787],"min":[-0.0808580219745636,-2.7800655364990234,2.2250738585072014e-308]},{"bufferView":1,"byteOffset":0,"componentType":5126,"count":12314,"type":"VEC2","max":[0.9959368705749512,0.7378473281860352],"min":[2.2250738585072014e-308,2.2250738585072014e-308]},{"bufferView":2,"byteOffset":0,"componentType":5125,"count":53442,"type":"SCALAR","max":[12313],"min":[0]},{"bufferView":3,"byteOffset":0,"componentType":5126,"count":3768,"type":"VEC3","max":[0.8186737298965454,-2.379021406173706,1.8550984859466553],"min":[-0.057883985340595245,-2.780564546585083,2.2250738585072014e-308]},{"bufferView":4,"byteOffset":0,"componentType":5126,"count":3768,"type":"VEC2","max":[0.8618826866149902,0.9138221740722656],"min":[2.2250738585072014e-308,2.2250738585072014e-308]},{"bufferView":5,"byteOffset":0,"componentType":5125,"count":19968,"type":"SCALAR","max":[3767],"min":[0]}],"buffers":[{"byteLength":615280,"uri":"tile_0014.bin"}],"bufferViews":[{"buffer":0,"byteOffset":0,"byteLength":147768,"target":34962},{"buffer":0,"byteOffset":147768,"byteLength":98512,"target":34962},{"buffer":0,"byteOffset":246280,"byteLength":213768,"target":34963},{"buffer":0,"byteOffset":460048,"byteLength":45216,"target":34962},{"buffer":0,"byteOffset":505264,"byteLength":30144,"target":34962},{"buffer":0,"byteOffset":535408,"byteLength":79872,"target":34963}],"images":[{"uri":"../textures/tile_0014_material_0.jpg"},{"uri":"../textures/tile_0014_material_1.jpg"}],"materials":[{"name":"DefaultMaterial","pbrMetallicRoughness":{"baseColorFactor":[0.6000000238418579,0.6000000238418579,0.6000000238418579,1.0],"metallicFactor":0.0},"extensions":{"KHR_materials_specular":{"specularFactor":1.0,"specularColorFactor":[0.0,0.0,0.0]},"KHR_materials_ior":{"ior":1.0}}},{"name":"material_0_material","pbrMetallicRoughness":{"baseColorTexture":{"index":0},"metallicFactor":0.0},"extensions":{"KHR_materials_specular":{"specularFactor":1.0,"specularColorFactor":[0.0,0.0,0.0]},"KHR_materials_ior":{"ior":1.0}}},{"name":"material_1_material","pbrMetallicRoughness":{"baseColorTexture":{"index":1},"metallicFactor":0.0},"extensions":{"KHR_materials_specular":{"specularFactor":1.0,"specularColorFactor":[0.0,0.0,0.0]},"KHR_materials_ior":{"ior":1.0}}}],"meshes":[{"name":"defaultobject","primitives":[{"mode":4,"material":1,"indices":2,"attributes":{"POSITION":0,"TEXCOORD_0":1}},{"mode":4,"material":2,"indices":5,"attributes":{"POSITION":3,"TEXCOORD_0":4}}]}],"nodes":[{"name":"tile_0014.obj","children":[1]},{"name":"defaultobject","mesh":0}],"samplers":[{},{}],"scenes":[{"nodes":[0]}],"textures":[{"source":0,"sampler":0},{"source":1,"sampler":1}],"scene":0}
