{"asset":{"version":"2.0","generator":"Open Asset Import Library (assimp v6.0.0)"},"extensionsUsed":["KHR_materials_specular","KHR_materials_volume","KHR_materials_ior","FB_ngon_encoding"],"accessors":[{"bufferView":0,"byteOffset":0,"componentType":5126,"count":4623,"type":"VEC3","max":[2.074855327606201,-2.945622205734253,1.1701208353042603],"min":[2.2250738585072014e-308,-4.219366550445557,2.2250738585072014e-308]},{"bufferView":1,"byteOffset":0,"componentType":5126,"count":4623,"type":"VEC2","max":[0.993559718132019,0.55413818359375],"min":[2.2250738585072014e-308,2.2250738585072014e-308]},{"bufferView":2,"byteOffset":0,"componentType":5125,"count":18651,"type":"SCALAR","max":[4622],"min":[0]},{"bufferView":3,"byteOffset":0,"componentType":5126,"count":1429,"type":"VEC3","max":[2.0385727882385254,-2.948033094406128,1.1439300775527954],"min":[2.2250738585072014e-308,-3.868288516998291,2.2250738585072014e-308]},{"bufferView":4,"byteOffset":0,"componentType":5126,"count":1429,"type":"VEC2","max":[0.5551061630249023,0.4923133850097656],"min":[2.2250738585072014e-308,2.2250738585072014e-308]},{"bufferView":5,"byteOffset":0,"componentType":5125,"count":7092,"type":"SCALAR","max":[1428],"min":[0]}],"buffers":[{"byteLength":224012,"uri":"tile_0597.bin"}],"bufferViews":[{"buffer":0,"byteOffset":0,"byteLength":55476,"target":34962},{"buffer":0,"byteOffset":55476,"byteLength":36984,"target":34962},{"buffer":0,"byteOffset":92460,"byteLength":74604,"target":34963},{"buffer":0,"byteOffset":167064,"byteLength":17148,"target":34962},{"buffer":0,"byteOffset":184212,"byteLength":11432,"target":34962},{"buffer":0,"byteOffset":195644,"byteLength":28368,"target":34963}],"images":[{"uri":"../textures/tile_0597_material_0.jpg"},{"uri":"../textures/tile_0597_material_1.jpg"}],"materials":[{"name":"DefaultMaterial","pbrMetallicRoughness":{"baseColorFactor":[0.6000000238418579,0.6000000238418579,0.6000000238418579,1.0],"metallicFactor":0.0},"extensions":{"KHR_materials_specular":{"specularFactor":1.0,"specularColorFactor":[0.0,0.0,0.0]},"KHR_materials_ior":{"ior":1.0}}},{"name":"material_0_material","pbrMetallicRoughness":{"baseColorTexture":{"index":0},"metallicFactor":0.0},"extensions":{"KHR_materials_specular":{"specularFactor":1.0,"specularColorFactor":[0.0,0.0,0.0]},"KHR_materials_ior":{"ior":1.0}}},{"name":"material_1_material","pbrMetallicRoughness":{"baseColorTexture":{"index":1},"metallicFactor":0.0},"extensions":{"KHR_materials_specular":{"specularFactor":1.0,"specularColorFactor":[0.0,0.0,0.0]},"KHR_materials_ior":{"ior":1.0}}}],"meshes":[{"name":"defaultobject","primitives":[{"mode":4,"material":1,"indices":2,"attributes":{"POSITION":0,"TEXCOORD_0":1}},{"mode":4,"material":2,"indices":5,"attributes":{"POSITION":3,"TEXCOORD_0":4}}]}],"nodes":[{"name":"tile_0597.obj","children":[1]},{"name":"defaultobject","mesh":0}],"samplers":[{},{}],"scenes":[{"nodes":[0]}],"textures":[{"source":0,"sampler":0},{"source":1,"sampler":1}],"scene":0}
