{"asset":{"version":"2.0","generator":"Open Asset Import Library (assimp v6.0.0)"},"extensionsUsed":["KHR_materials_specular","KHR_materials_volume","KHR_materials_ior","FB_ngon_encoding"],"accessors":[{"bufferView":0,"byteOffset":0,"componentType":5126,"count":5829,"type":"VEC3","max":[3.6242470741271973,1.1115164756774902,0.06531724333763123],"min":[2.2250738585072014e-308,2.2250738585072014e-308,2.2250738585072014e-308]},{"bufferView":1,"byteOffset":0,"componentType":5126,"count":5829,"type":"VEC2","max":[0.9927818775177002,0.6249771118164062],"min":[2.2250738585072014e-308,2.2250738585072014e-308]},{"bufferView":2,"byteOffset":0,"componentType":5125,"count":21459,"type":"SCALAR","max":[5828],"min":[0]},{"bufferView":3,"byteOffset":0,"componentType":5126,"count":1282,"type":"VEC3","max":[3.0769436359405518,1.1090768575668335,0.06402445584535599],"min":[2.2250738585072014e-308,2.2250738585072014e-308,2.2250738585072014e-308]},{"bufferView":4,"byteOffset":0,"componentType":5126,"count":1282,"type":"VEC2","max":[0.6247463226318359,0.5185070037841797],"min":[2.2250738585072014e-308,2.2250738585072014e-308]},{"bufferView":5,"byteOffset":0,"componentType":5125,"count":6159,"type":"SCALAR","max":[1281],"min":[0]}],"buffers":[{"byteLength":252692,"uri":"tile_0531.bin"}],"bufferViews":[{"buffer":0,"byteOffset":0,"byteLength":69948,"target":34962},{"buffer":0,"byteOffset":69948,"byteLength":46632,"target":34962},{"buffer":0,"byteOffset":116580,"byteLength":85836,"target":34963},{"buffer":0,"byteOffset":202416,"byteLength":15384,"target":34962},{"buffer":0,"byteOffset":217800,"byteLength":10256,"target":34962},{"buffer":0,"byteOffset":228056,"byteLength":24636,"target":34963}],"images":[{"uri":"../textures/tile_0531_material_0.jpg"},{"uri":"../textures/tile_0531_material_1.jpg"}],"materials":[{"name":"DefaultMaterial","pbrMetallicRoughness":{"baseColorFactor":[0.6000000238418579,0.6000000238418579,0.6000000238418579,1.0],"metallicFactor":0.0},"extensions":{"KHR_materials_specular":{"specularFactor":1.0,"specularColorFactor":[0.0,0.0,0.0]},"KHR_materials_ior":{"ior":1.0}}},{"name":"material_0_material","pbrMetallicRoughness":{"baseColorTexture":{"index":0},"metallicFactor":0.0},"extensions":{"KHR_materials_specular":{"specularFactor":1.0,"specularColorFactor":[0.0,0.0,0.0]},"KHR_materials_ior":{"ior":1.0}}},{"name":"material_1_material","pbrMetallicRoughness":{"baseColorTexture":{"index":1},"metallicFactor":0.0},"extensions":{"KHR_materials_specular":{"specularFactor":1.0,"specularColorFactor":[0.0,0.0,0.0]},"KHR_materials_ior":{"ior":1.0}}}],"meshes":[{"name":"defaultobject","primitives":[{"mode":4,"material":1,"indices":2,"attributes":{"POSITION":0,"TEXCOORD_0":1}},{"mode":4,"material":2,"indices":5,"attributes":{"POSITION":3,"TEXCOORD_0":4}}]}],"nodes":[{"name":"tile_0531.obj","children":[1]},{"name":"defaultobject","mesh":0}],"samplers":[{},{}],"scenes":[{"nodes":[0]}],"textures":[{"source":0,"sampler":0},{"source":1,"sampler":1}],"scene":0}
