{"asset":{"version":"2.0","generator":"Open Asset Import Library (assimp v6.0.0)"},"extensionsUsed":["KHR_materials_specular","KHR_materials_volume","KHR_materials_ior","FB_ngon_encoding"],"accessors":[{"bufferView":0,"byteOffset":0,"componentType":5126,"count":5369,"type":"VEC3","max":[3.0856752395629883,-0.39992982149124146,0.534263014793396],"min":[2.2250738585072014e-308,-0.5718283653259277,2.2250738585072014e-308]},{"bufferView":1,"byteOffset":0,"componentType":5126,"count":5369,"type":"VEC2","max":[0.9936408996582031,0.8163528442382812],"min":[2.2250738585072014e-308,2.2250738585072014e-308]},{"bufferView":2,"byteOffset":0,"componentType":5125,"count":22521,"type":"SCALAR","max":[5368],"min":[0]},{"bufferView":3,"byteOffset":0,"componentType":5126,"count":1017,"type":"VEC3","max":[1.035404920578003,-0.4373769760131836,0.4985201358795166],"min":[2.2250738585072014e-308,-0.5811047554016113,2.2250738585072014e-308]},{"bufferView":4,"byteOffset":0,"componentType":5126,"count":1017,"type":"VEC2","max":[0.8153977394104004,0.5625820159912109],"min":[2.2250738585072014e-308,2.2250738585072014e-308]},{"bufferView":5,"byteOffset":0,"componentType":5125,"count":5235,"type":"SCALAR","max":[1016],"min":[0]}],"buffers":[{"byteLength":238744,"uri":"tile_0077.bin"}],"bufferViews":[{"buffer":0,"byteOffset":0,"byteLength":64428,"target":34962},{"buffer":0,"byteOffset":64428,"byteLength":42952,"target":34962},{"buffer":0,"byteOffset":107380,"byteLength":90084,"target":34963},{"buffer":0,"byteOffset":197464,"byteLength":12204,"target":34962},{"buffer":0,"byteOffset":209668,"byteLength":8136,"target":34962},{"buffer":0,"byteOffset":217804,"byteLength":20940,"target":34963}],"images":[{"uri":"../textures/tile_0077_material_0.jpg"},{"uri":"../textures/tile_0077_material_1.jpg"}],"materials":[{"name":"DefaultMaterial","pbrMetallicRoughness":{"baseColorFactor":[0.6000000238418579,0.6000000238418579,0.6000000238418579,1.0],"metallicFactor":0.0},"extensions":{"KHR_materials_specular":{"specularFactor":1.0,"specularColorFactor":[0.0,0.0,0.0]},"KHR_materials_ior":{"ior":1.0}}},{"name":"material_0_material","pbrMetallicRoughness":{"baseColorTexture":{"index":0},"metallicFactor":0.0},"extensions":{"KHR_materials_specular":{"specularFactor":1.0,"specularColorFactor":[0.0,0.0,0.0]},"KHR_materials_ior":{"ior":1.0}}},{"name":"material_1_material","pbrMetallicRoughness":{"baseColorTexture":{"index":1},"metallicFactor":0.0},"extensions":{"KHR_materials_specular":{"specularFactor":1.0,"specularColorFactor":[0.0,0.0,0.0]},"KHR_materials_ior":{"ior":1.0}}}],"meshes":[{"name":"defaultobject","primitives":[{"mode":4,"material":1,"indices":2,"attributes":{"POSITION":0,"TEXCOORD_0":1}},{"mode":4,"material":2,"indices":5,"attributes":{"POSITION":3,"TEXCOORD_0":4}}]}],"nodes":[{"name":"tile_0077.obj","children":[1]},{"name":"defaultobject","mesh":0}],"samplers":[{},{}],"scenes":[{"nodes":[0]}],"textures":[{"source":0,"sampler":0},{"source":1,"sampler":1}],"scene":0}
