{"asset":{"version":"2.0","generator":"Open Asset Import Library (assimp v6.0.0)"},"extensionsUsed":["KHR_materials_specular","KHR_materials_volume","KHR_materials_ior","FB_ngon_encoding"],"accessors":[{"bufferView":0,"byteOffset":0,"componentType":5126,"count":3622,"type":"VEC3","max":[2.0191659927368164,1.3157843351364136,1.8785959482192993],"min":[2.2250738585072014e-308,2.2250738585072014e-308,2.2250738585072014e-308]},{"bufferView":1,"byteOffset":0,"componentType":5126,"count":3622,"type":"VEC2","max":[0.9871659278869629,0.4927978515625],"min":[2.2250738585072014e-308,2.2250738585072014e-308]},{"bufferView":2,"byteOffset":0,"componentType":5125,"count":16296,"type":"SCALAR","max":[3621],"min":[0]},{"bufferView":3,"byteOffset":0,"componentType":5126,"count":922,"type":"VEC3","max":[1.5370427370071411,1.2920118570327759,1.8698104619979858],"min":[2.2250738585072014e-308,2.2250738585072014e-308,2.2250738585072014e-308]},{"bufferView":4,"byteOffset":0,"componentType":5126,"count":922,"type":"VEC2","max":[0.889409065246582,0.5721015930175781],"min":[2.2250738585072014e-308,2.2250738585072014e-308]},{"bufferView":5,"byteOffset":0,"componentType":5125,"count":4719,"type":"SCALAR","max":[921],"min":[0]}],"buffers":[{"byteLength":174940,"uri":"tile_0434.bin"}],"bufferViews":[{"buffer":0,"byteOffset":0,"byteLength":43464,"target":34962},{"buffer":0,"byteOffset":43464,"byteLength":28976,"target":34962},{"buffer":0,"byteOffset":72440,"byteLength":65184,"target":34963},{"buffer":0,"byteOffset":137624,"byteLength":11064,"target":34962},{"buffer":0,"byteOffset":148688,"byteLength":7376,"target":34962},{"buffer":0,"byteOffset":156064,"byteLength":18876,"target":34963}],"images":[{"uri":"../textures/tile_0434_material_0.jpg"},{"uri":"../textures/tile_0434_material_1.jpg"}],"materials":[{"name":"DefaultMaterial","pbrMetallicRoughness":{"baseColorFactor":[0.6000000238418579,0.6000000238418579,0.6000000238418579,1.0],"metallicFactor":0.0},"extensions":{"KHR_materials_specular":{"specularFactor":1.0,"specularColorFactor":[0.0,0.0,0.0]},"KHR_materials_ior":{"ior":1.0}}},{"name":"material_0_material","pbrMetallicRoughness":{"baseColorTexture":{"index":0},"metallicFactor":0.0},"extensions":{"KHR_materials_specular":{"specularFactor":1.0,"specularColorFactor":[0.0,0.0,0.0]},"KHR_materials_ior":{"ior":1.0}}},{"name":"material_1_material","pbrMetallicRoughness":{"baseColorTexture":{"index":1},"metallicFactor":0.0},"extensions":{"KHR_materials_specular":{"specularFactor":1.0,"specularColorFactor":[0.0,0.0,0.0]},"KHR_materials_ior":{"ior":1.0}}}],"meshes":[{"name":"defaultobject","primitives":[{"mode":4,"material":1,"indices":2,"attributes":{"POSITION":0,"TEXCOORD_0":1}},{"mode":4,"material":2,"indices":5,"attributes":{"POSITION":3,"TEXCOORD_0":4}}]}],"nodes":[{"name":"tile_0434.obj","children":[1]},{"name":"defaultobject","mesh":0}],"samplers":[{},{}],"scenes":[{"nodes":[0]}],"textures":[{"source":0,"sampler":0},{"source":1,"sampler":1}],"scene":0}
