{"asset":{"version":"2.0","generator":"Open Asset Import Library (assimp v6.0.0)"},"extensionsUsed":["KHR_materials_specular","KHR_materials_volume","KHR_materials_ior","FB_ngon_encoding"],"accessors":[{"bufferView":0,"byteOffset":0,"componentType":5126,"count":5289,"type":"VEC3","max":[0.30244484543800354,-1.3428635597229004,1.958021879196167],"min":[-0.47128650546073914,-1.5874478816986084,2.2250738585072014e-308]},{"bufferView":1,"byteOffset":0,"componentType":5126,"count":5289,"type":"VEC2","max":[0.9906054735183716,0.5701236724853516],"min":[2.2250738585072014e-308,2.2250738585072014e-308]},{"bufferView":2,"byteOffset":0,"componentType":5125,"count":20289,"type":"SCALAR","max":[5288],"min":[0]},{"bufferView":3,"byteOffset":0,"componentType":5126,"count":896,"type":"VEC3","max":[-0.40508174896240234,-1.3550409078598022,1.9367272853851318],"min":[-0.4648929238319397,-1.579955816268921,2.2250738585072014e-308]},{"bufferView":4,"byteOffset":0,"componentType":5126,"count":896,"type":"VEC2","max":[0.9341163635253906,0.9470405578613281],"min":[2.2250738585072014e-308,2.2250738585072014e-308]},{"bufferView":5,"byteOffset":0,"componentType":5125,"count":3705,"type":"SCALAR","max":[895],"min":[0]}],"buffers":[{"byteLength":219676,"uri":"tile_0296.bin"}],"bufferViews":[{"buffer":0,"byteOffset":0,"byteLength":63468,"target":34962},{"buffer":0,"byteOffset":63468,"byteLength":42312,"target":34962},{"buffer":0,"byteOffset":105780,"byteLength":81156,"target":34963},{"buffer":0,"byteOffset":186936,"byteLength":10752,"target":34962},{"buffer":0,"byteOffset":197688,"byteLength":7168,"target":34962},{"buffer":0,"byteOffset":204856,"byteLength":14820,"target":34963}],"images":[{"uri":"../textures/tile_0296_material_0.jpg"},{"uri":"../textures/tile_0296_material_1.jpg"}],"materials":[{"name":"DefaultMaterial","pbrMetallicRoughness":{"baseColorFactor":[0.6000000238418579,0.6000000238418579,0.6000000238418579,1.0],"metallicFactor":0.0},"extensions":{"KHR_materials_specular":{"specularFactor":1.0,"specularColorFactor":[0.0,0.0,0.0]},"KHR_materials_ior":{"ior":1.0}}},{"name":"material_0_material","pbrMetallicRoughness":{"baseColorTexture":{"index":0},"metallicFactor":0.0},"extensions":{"KHR_materials_specular":{"specularFactor":1.0,"specularColorFactor":[0.0,0.0,0.0]},"KHR_materials_ior":{"ior":1.0}}},{"name":"material_1_material","pbrMetallicRoughness":{"baseColorTexture":{"index":1},"metallicFactor":0.0},"extensions":{"KHR_materials_specular":{"specularFactor":1.0,"specularColorFactor":[0.0,0.0,0.0]},"KHR_materials_ior":{"ior":1.0}}}],"meshes":[{"name":"defaultobject","primitives":[{"mode":4,"material":1,"indices":2,"attributes":{"POSITION":0,"TEXCOORD_0":1}},{"mode":4,"material":2,"indices":5,"attributes":{"POSITION":3,"TEXCOORD_0":4}}]}],"nodes":[{"name":"tile_0296.obj","children":[1]},{"name":"defaultobject","mesh":0}],"samplers":[{},{}],"scenes":[{"nodes":[0]}],"textures":[{"source":0,"sampler":0},{"source":1,"sampler":1}],"scene":0}
