{"asset":{"version":"2.0","generator":"Open Asset Import Library (assimp v6.0.0)"},"extensionsUsed":["KHR_materials_specular","KHR_materials_volume","KHR_materials_ior","FB_ngon_encoding"],"accessors":[{"bufferView":0,"byteOffset":0,"componentType":5126,"count":4307,"type":"VEC3","max":[3.3387675285339355,-0.4330178201198578,0.1253291368484497],"min":[2.2250738585072014e-308,-0.721750795841217,2.2250738585072014e-308]},{"bufferView":1,"byteOffset":0,"componentType":5126,"count":4307,"type":"VEC2","max":[0.9940969944000244,0.8437385559082031],"min":[2.2250738585072014e-308,2.2250738585072014e-308]},{"bufferView":2,"byteOffset":0,"componentType":5125,"count":15390,"type":"SCALAR","max":[4306],"min":[0]},{"bufferView":3,"byteOffset":0,"componentType":5126,"count":1118,"type":"VEC3","max":[0.8815233111381531,-0.4376104772090912,0.12441108375787735],"min":[2.2250738585072014e-308,-0.720144510269165,2.2250738585072014e-308]},{"bufferView":4,"byteOffset":0,"componentType":5126,"count":1118,"type":"VEC2","max":[0.6821497678756714,0.6794700622558594],"min":[2.2250738585072014e-308,2.2250738585072014e-308]},{"bufferView":5,"byteOffset":0,"componentType":5125,"count":5304,"type":"SCALAR","max":[1117],"min":[0]}],"buffers":[{"byteLength":191276,"uri":"tile_0172.bin"}],"bufferViews":[{"buffer":0,"byteOffset":0,"byteLength":51684,"target":34962},{"buffer":0,"byteOffset":51684,"byteLength":34456,"target":34962},{"buffer":0,"byteOffset":86140,"byteLength":61560,"target":34963},{"buffer":0,"byteOffset":147700,"byteLength":13416,"target":34962},{"buffer":0,"byteOffset":161116,"byteLength":8944,"target":34962},{"buffer":0,"byteOffset":170060,"byteLength":21216,"target":34963}],"images":[{"uri":"../textures/tile_0172_material_0.jpg"},{"uri":"../textures/tile_0172_material_1.jpg"}],"materials":[{"name":"DefaultMaterial","pbrMetallicRoughness":{"baseColorFactor":[0.6000000238418579,0.6000000238418579,0.6000000238418579,1.0],"metallicFactor":0.0},"extensions":{"KHR_materials_specular":{"specularFactor":1.0,"specularColorFactor":[0.0,0.0,0.0]},"KHR_materials_ior":{"ior":1.0}}},{"name":"material_0_material","pbrMetallicRoughness":{"baseColorTexture":{"index":0},"metallicFactor":0.0},"extensions":{"KHR_materials_specular":{"specularFactor":1.0,"specularColorFactor":[0.0,0.0,0.0]},"KHR_materials_ior":{"ior":1.0}}},{"name":"material_1_material","pbrMetallicRoughness":{"baseColorTexture":{"index":1},"metallicFactor":0.0},"extensions":{"KHR_materials_specular":{"specularFactor":1.0,"specularColorFactor":[0.0,0.0,0.0]},"KHR_materials_ior":{"ior":1.0}}}],"meshes":[{"name":"defaultobject","primitives":[{"mode":4,"material":1,"indices":2,"attributes":{"POSITION":0,"TEXCOORD_0":1}},{"mode":4,"material":2,"indices":5,"attributes":{"POSITION":3,"TEXCOORD_0":4}}]}],"nodes":[{"name":"tile_0172.obj","children":[1]},{"name":"defaultobject","mesh":0}],"samplers":[{},{}],"scenes":[{"nodes":[0]}],"textures":[{"source":0,"sampler":0},{"source":1,"sampler":1}],"scene":0}
