{"asset":{"version":"2.0","generator":"Open Asset Import Library (assimp v6.0.0)"},"extensionsUsed":["KHR_materials_specular","KHR_materials_volume","KHR_materials_ior","FB_ngon_encoding"],"accessors":[{"bufferView":0,"byteOffset":0,"componentType":5126,"count":11918,"type":"VEC3","max":[2.0389647483825684,-0.22089125216007233,2.247509241104126],"min":[-0.37813854217529297,-0.48563510179519653,2.2250738585072014e-308]},{"bufferView":1,"byteOffset":0,"componentType":5126,"count":11918,"type":"VEC2","max":[0.9953165054321289,0.6893911361694336],"min":[2.2250738585072014e-308,2.2250738585072014e-308]},{"bufferView":2,"byteOffset":0,"componentType":5125,"count":54096,"type":"SCALAR","max":[11917],"min":[0]},{"bufferView":3,"byteOffset":0,"componentType":5126,"count":519,"type":"VEC3","max":[0.3118147552013397,-0.2918531596660614,2.192876100540161],"min":[-0.24667790532112122,-0.44731172919273376,2.2250738585072014e-308]},{"bufferView":4,"byteOffset":0,"componentType":5126,"count":519,"type":"VEC2","max":[0.8128261566162109,0.6718559265136719],"min":[2.2250738585072014e-308,2.2250738585072014e-308]},{"bufferView":5,"byteOffset":0,"componentType":5125,"count":2439,"type":"SCALAR","max":[518],"min":[0]}],"buffers":[{"byteLength":474880,"uri":"tile_0057.bin"}],"bufferViews":[{"buffer":0,"byteOffset":0,"byteLength":143016,"target":34962},{"buffer":0,"byteOffset":143016,"byteLength":95344,"target":34962},{"buffer":0,"byteOffset":238360,"byteLength":216384,"target":34963},{"buffer":0,"byteOffset":454744,"byteLength":6228,"target":34962},{"buffer":0,"byteOffset":460972,"byteLength":4152,"target":34962},{"buffer":0,"byteOffset":465124,"byteLength":9756,"target":34963}],"images":[{"uri":"../textures/tile_0057_material_0.jpg"},{"uri":"../textures/tile_0057_material_1.jpg"}],"materials":[{"name":"DefaultMaterial","pbrMetallicRoughness":{"baseColorFactor":[0.6000000238418579,0.6000000238418579,0.6000000238418579,1.0],"metallicFactor":0.0},"extensions":{"KHR_materials_specular":{"specularFactor":1.0,"specularColorFactor":[0.0,0.0,0.0]},"KHR_materials_ior":{"ior":1.0}}},{"name":"material_0_material","pbrMetallicRoughness":{"baseColorTexture":{"index":0},"metallicFactor":0.0},"extensions":{"KHR_materials_specular":{"specularFactor":1.0,"specularColorFactor":[0.0,0.0,0.0]},"KHR_materials_ior":{"ior":1.0}}},{"name":"material_1_material","pbrMetallicRoughness":{"baseColorTexture":{"index":1},"metallicFactor":0.0},"extensions":{"KHR_materials_specular":{"specularFactor":1.0,"specularColorFactor":[0.0,0.0,0.0]},"KHR_materials_ior":{"ior":1.0}}}],"meshes":[{"name":"defaultobject","primitives":[{"mode":4,"material":1,"indices":2,"attributes":{"POSITION":0,"TEXCOORD_0":1}},{"mode":4,"material":2,"indices":5,"attributes":{"POSITION":3,"TEXCOORD_0":4}}]}],"nodes":[{"name":"tile_0057.obj","children":[1]},{"name":"defaultobject","mesh":0}],"samplers":[{},{}],"scenes":[{"nodes":[0]}],"textures":[{"source":0,"sampler":0},{"source":1,"sampler":1}],"scene":0}
