{"asset":{"version":"2.0","generator":"Open Asset Import Library (assimp v6.0.0)"},"extensionsUsed":["KHR_materials_specular","KHR_materials_volume","KHR_materials_ior","FB_ngon_encoding"],"accessors":[{"bufferView":0,"byteOffset":0,"componentType":5126,"count":6030,"type":"VEC3","max":[0.9674063920974731,-1.9667348861694336,2.925042152404785],"min":[2.2250738585072014e-308,-2.162203550338745,2.2250738585072014e-308]},{"bufferView":1,"byteOffset":0,"componentType":5126,"count":6030,"type":"VEC2","max":[0.993593692779541,0.769439697265625],"min":[2.2250738585072014e-308,2.2250738585072014e-308]},{"bufferView":2,"byteOffset":0,"componentType":5125,"count":25395,"type":"SCALAR","max":[6029],"min":[0]},{"bufferView":3,"byteOffset":0,"componentType":5126,"count":26,"type":"VEC3","max":[0.9264088869094849,-1.9583011865615845,2.9557955265045166],"min":[2.2250738585072014e-308,-2.162203550338745,2.2250738585072014e-308]},{"bufferView":4,"byteOffset":0,"componentType":5126,"count":26,"type":"VEC2","max":[0.5822563171386719,0.5306053161621094],"min":[2.2250738585072014e-308,2.2250738585072014e-308]},{"bufferView":5,"byteOffset":0,"componentType":5125,"count":42,"type":"SCALAR","max":[25],"min":[0]}],"buffers":[{"byteLength":222868,"uri":"tile_0347.bin"}],"bufferViews":[{"buffer":0,"byteOffset":0,"byteLength":72360,"target":34962},{"buffer":0,"byteOffset":72360,"byteLength":48240,"target":34962},{"buffer":0,"byteOffset":120600,"byteLength":101580,"target":34963},{"buffer":0,"byteOffset":222180,"byteLength":312,"target":34962},{"buffer":0,"byteOffset":222492,"byteLength":208,"target":34962},{"buffer":0,"byteOffset":222700,"byteLength":168,"target":34963}],"images":[{"uri":"../textures/tile_0347_material_0.jpg"},{"uri":"../textures/tile_0347_material_1.jpg"}],"materials":[{"name":"DefaultMaterial","pbrMetallicRoughness":{"baseColorFactor":[0.6000000238418579,0.6000000238418579,0.6000000238418579,1.0],"metallicFactor":0.0},"extensions":{"KHR_materials_specular":{"specularFactor":1.0,"specularColorFactor":[0.0,0.0,0.0]},"KHR_materials_ior":{"ior":1.0}}},{"name":"material_0_material","pbrMetallicRoughness":{"baseColorTexture":{"index":0},"metallicFactor":0.0},"extensions":{"KHR_materials_specular":{"specularFactor":1.0,"specularColorFactor":[0.0,0.0,0.0]},"KHR_materials_ior":{"ior":1.0}}},{"name":"material_1_material","pbrMetallicRoughness":{"baseColorTexture":{"index":1},"metallicFactor":0.0},"extensions":{"KHR_materials_specular":{"specularFactor":1.0,"specularColorFactor":[0.0,0.0,0.0]},"KHR_materials_ior":{"ior":1.0}}}],"meshes":[{"name":"defaultobject","primitives":[{"mode":4,"material":1,"indices":2,"attributes":{"POSITION":0,"TEXCOORD_0":1}},{"mode":4,"material":2,"indices":5,"attributes":{"POSITION":3,"TEXCOORD_0":4}}]}],"nodes":[{"name":"tile_0347.obj","children":[1]},{"name":"defaultobject","mesh":0}],"samplers":[{},{}],"scenes":[{"nodes":[0]}],"textures":[{"source":0,"sampler":0},{"source":1,"sampler":1}],"scene":0}
