{"asset":{"version":"2.0","generator":"Open Asset Import Library (assimp v6.0.0)"},"extensionsUsed":["KHR_materials_specular","KHR_materials_volume","KHR_materials_ior","FB_ngon_encoding"],"accessors":[{"bufferView":0,"byteOffset":0,"componentType":5126,"count":2884,"type":"VEC3","max":[3.07757568359375,-1.501373052597046,0.33140021562576294],"min":[2.2250738585072014e-308,-1.5709320306777954,2.2250738585072014e-308]},{"bufferView":1,"byteOffset":0,"componentType":5126,"count":2884,"type":"VEC2","max":[0.9952449798583984,0.8515090942382812],"min":[2.2250738585072014e-308,2.2250738585072014e-308]},{"bufferView":2,"byteOffset":0,"componentType":5125,"count":12012,"type":"SCALAR","max":[2883],"min":[0]},{"bufferView":3,"byteOffset":0,"componentType":5126,"count":365,"type":"VEC3","max":[1.3016424179077148,-1.5033445358276367,0.3529180586338043],"min":[2.2250738585072014e-308,-1.567753553390503,2.2250738585072014e-308]},{"bufferView":4,"byteOffset":0,"componentType":5126,"count":365,"type":"VEC2","max":[0.666961669921875,0.59002685546875],"min":[2.2250738585072014e-308,2.2250738585072014e-308]},{"bufferView":5,"byteOffset":0,"componentType":5125,"count":1707,"type":"SCALAR","max":[364],"min":[0]}],"buffers":[{"byteLength":119856,"uri":"tile_0212.bin"}],"bufferViews":[{"buffer":0,"byteOffset":0,"byteLength":34608,"target":34962},{"buffer":0,"byteOffset":34608,"byteLength":23072,"target":34962},{"buffer":0,"byteOffset":57680,"byteLength":48048,"target":34963},{"buffer":0,"byteOffset":105728,"byteLength":4380,"target":34962},{"buffer":0,"byteOffset":110108,"byteLength":2920,"target":34962},{"buffer":0,"byteOffset":113028,"byteLength":6828,"target":34963}],"images":[{"uri":"../textures/tile_0212_material_0.jpg"},{"uri":"../textures/tile_0212_material_1.jpg"}],"materials":[{"name":"DefaultMaterial","pbrMetallicRoughness":{"baseColorFactor":[0.6000000238418579,0.6000000238418579,0.6000000238418579,1.0],"metallicFactor":0.0},"extensions":{"KHR_materials_specular":{"specularFactor":1.0,"specularColorFactor":[0.0,0.0,0.0]},"KHR_materials_ior":{"ior":1.0}}},{"name":"material_0_material","pbrMetallicRoughness":{"baseColorTexture":{"index":0},"metallicFactor":0.0},"extensions":{"KHR_materials_specular":{"specularFactor":1.0,"specularColorFactor":[0.0,0.0,0.0]},"KHR_materials_ior":{"ior":1.0}}},{"name":"material_1_material","pbrMetallicRoughness":{"baseColorTexture":{"index":1},"metallicFactor":0.0},"extensions":{"KHR_materials_specular":{"specularFactor":1.0,"specularColorFactor":[0.0,0.0,0.0]},"KHR_materials_ior":{"ior":1.0}}}],"meshes":[{"name":"defaultobject","primitives":[{"mode":4,"material":1,"indices":2,"attributes":{"POSITION":0,"TEXCOORD_0":1}},{"mode":4,"material":2,"indices":5,"attributes":{"POSITION":3,"TEXCOORD_0":4}}]}],"nodes":[{"name":"tile_0212.obj","children":[1]},{"name":"defaultobject","mesh":0}],"samplers":[{},{}],"scenes":[{"nodes":[0]}],"textures":[{"source":0,"sampler":0},{"source":1,"sampler":1}],"scene":0}
