{"asset":{"version":"2.0","generator":"Open Asset Import Library (assimp v6.0.0)"},"extensionsUsed":["KHR_materials_specular","KHR_materials_volume","KHR_materials_ior","FB_ngon_encoding"],"accessors":[{"bufferView":0,"byteOffset":0,"componentType":5126,"count":4264,"type":"VEC3","max":[3.558763265609741,0.9317280054092407,0.13255499303340912],"min":[2.2250738585072014e-308,2.2250738585072014e-308,2.2250738585072014e-308]},{"bufferView":1,"byteOffset":0,"componentType":5126,"count":4264,"type":"VEC2","max":[0.9960365295410156,0.8973159790039062],"min":[2.2250738585072014e-308,2.2250738585072014e-308]},{"bufferView":2,"byteOffset":0,"componentType":5125,"count":17319,"type":"SCALAR","max":[4263],"min":[0]},{"bufferView":3,"byteOffset":0,"componentType":5126,"count":468,"type":"VEC3","max":[3.1361119747161865,0.9289069771766663,0.1295931488275528],"min":[2.2250738585072014e-308,2.2250738585072014e-308,2.2250738585072014e-308]},{"bufferView":4,"byteOffset":0,"componentType":5126,"count":468,"type":"VEC2","max":[0.6906757354736328,0.6193962097167969],"min":[2.2250738585072014e-308,2.2250738585072014e-308]},{"bufferView":5,"byteOffset":0,"componentType":5125,"count":2340,"type":"SCALAR","max":[467],"min":[0]}],"buffers":[{"byteLength":173276,"uri":"tile_0532.bin"}],"bufferViews":[{"buffer":0,"byteOffset":0,"byteLength":51168,"target":34962},{"buffer":0,"byteOffset":51168,"byteLength":34112,"target":34962},{"buffer":0,"byteOffset":85280,"byteLength":69276,"target":34963},{"buffer":0,"byteOffset":154556,"byteLength":5616,"target":34962},{"buffer":0,"byteOffset":160172,"byteLength":3744,"target":34962},{"buffer":0,"byteOffset":163916,"byteLength":9360,"target":34963}],"images":[{"uri":"../textures/tile_0532_material_0.jpg"},{"uri":"../textures/tile_0532_material_1.jpg"}],"materials":[{"name":"DefaultMaterial","pbrMetallicRoughness":{"baseColorFactor":[0.6000000238418579,0.6000000238418579,0.6000000238418579,1.0],"metallicFactor":0.0},"extensions":{"KHR_materials_specular":{"specularFactor":1.0,"specularColorFactor":[0.0,0.0,0.0]},"KHR_materials_ior":{"ior":1.0}}},{"name":"material_0_material","pbrMetallicRoughness":{"baseColorTexture":{"index":0},"metallicFactor":0.0},"extensions":{"KHR_materials_specular":{"specularFactor":1.0,"specularColorFactor":[0.0,0.0,0.0]},"KHR_materials_ior":{"ior":1.0}}},{"name":"material_1_material","pbrMetallicRoughness":{"baseColorTexture":{"index":1},"metallicFactor":0.0},"extensions":{"KHR_materials_specular":{"specularFactor":1.0,"specularColorFactor":[0.0,0.0,0.0]},"KHR_materials_ior":{"ior":1.0}}}],"meshes":[{"name":"defaultobject","primitives":[{"mode":4,"material":1,"indices":2,"attributes":{"POSITION":0,"TEXCOORD_0":1}},{"mode":4,"material":2,"indices":5,"attributes":{"POSITION":3,"TEXCOORD_0":4}}]}],"nodes":[{"name":"tile_0532.obj","children":[1]},{"name":"defaultobject","mesh":0}],"samplers":[{},{}],"scenes":[{"nodes":[0]}],"textures":[{"source":0,"sampler":0},{"source":1,"sampler":1}],"scene":0}
