{"asset":{"version":"2.0","generator":"Open Asset Import Library (assimp v6.0.0)"},"extensionsUsed":["KHR_materials_specular","KHR_materials_volume","KHR_materials_ior","FB_ngon_encoding"],"accessors":[{"bufferView":0,"byteOffset":0,"componentType":5126,"count":14550,"type":"VEC3","max":[1.7428243160247803,0.5845887660980225,2.269366502761841],"min":[2.2250738585072014e-308,2.2250738585072014e-308,2.2250738585072014e-308]},{"bufferView":1,"byteOffset":0,"componentType":5126,"count":14550,"type":"VEC2","max":[0.9951696395874023,0.6191377639770508],"min":[2.2250738585072014e-308,2.2250738585072014e-308]},{"bufferView":2,"byteOffset":0,"componentType":5125,"count":63678,"type":"SCALAR","max":[14549],"min":[0]},{"bufferView":3,"byteOffset":0,"componentType":5126,"count":1571,"type":"VEC3","max":[1.2347276210784912,0.5961456894874573,2.306154251098633],"min":[2.2250738585072014e-308,2.2250738585072014e-308,2.2250738585072014e-308]},{"bufferView":4,"byteOffset":0,"componentType":5126,"count":1571,"type":"VEC2","max":[0.585669994354248,0.7934036254882812],"min":[2.2250738585072014e-308,2.2250738585072014e-308]},{"bufferView":5,"byteOffset":0,"componentType":5125,"count":7842,"type":"SCALAR","max":[1570],"min":[0]}],"buffers":[{"byteLength":608500,"uri":"tile_0001.bin"}],"bufferViews":[{"buffer":0,"byteOffset":0,"byteLength":174600,"target":34962},{"buffer":0,"byteOffset":174600,"byteLength":116400,"target":34962},{"buffer":0,"byteOffset":291000,"byteLength":254712,"target":34963},{"buffer":0,"byteOffset":545712,"byteLength":18852,"target":34962},{"buffer":0,"byteOffset":564564,"byteLength":12568,"target":34962},{"buffer":0,"byteOffset":577132,"byteLength":31368,"target":34963}],"images":[{"uri":"../textures/tile_0001_material_0.jpg"},{"uri":"../textures/tile_0001_material_1.jpg"}],"materials":[{"name":"DefaultMaterial","pbrMetallicRoughness":{"baseColorFactor":[0.6000000238418579,0.6000000238418579,0.6000000238418579,1.0],"metallicFactor":0.0},"extensions":{"KHR_materials_specular":{"specularFactor":1.0,"specularColorFactor":[0.0,0.0,0.0]},"KHR_materials_ior":{"ior":1.0}}},{"name":"material_0_material","pbrMetallicRoughness":{"baseColorTexture":{"index":0},"metallicFactor":0.0},"extensions":{"KHR_materials_specular":{"specularFactor":1.0,"specularColorFactor":[0.0,0.0,0.0]},"KHR_materials_ior":{"ior":1.0}}},{"name":"material_1_material","pbrMetallicRoughness":{"baseColorTexture":{"index":1},"metallicFactor":0.0},"extensions":{"KHR_materials_specular":{"specularFactor":1.0,"specularColorFactor":[0.0,0.0,0.0]},"KHR_materials_ior":{"ior":1.0}}}],"meshes":[{"name":"defaultobject","primitives":[{"mode":4,"material":1,"indices":2,"attributes":{"POSITION":0,"TEXCOORD_0":1}},{"mode":4,"material":2,"indices":5,"attributes":{"POSITION":3,"TEXCOORD_0":4}}]}],"nodes":[{"name":"tile_0001.obj","children":[1]},{"name":"defaultobject","mesh":0}],"samplers":[{},{}],"scenes":[{"nodes":[0]}],"textures":[{"source":0,"sampler":0},{"source":1,"sampler":1}],"scene":0}
