{"asset":{"version":"2.0","generator":"Open Asset Import Library (assimp v6.0.0)"},"extensionsUsed":["KHR_materials_specular","KHR_materials_volume","KHR_materials_ior","FB_ngon_encoding"],"accessors":[{"bufferView":0,"byteOffset":0,"componentType":5126,"count":4979,"type":"VEC3","max":[3.5550849437713623,0.7098152041435242,0.11173022538423538],"min":[2.2250738585072014e-308,2.2250738585072014e-308,2.2250738585072014e-308]},{"bufferView":1,"byteOffset":0,"componentType":5126,"count":4979,"type":"VEC2","max":[0.9957762956619263,0.6284942626953125],"min":[2.2250738585072014e-308,2.2250738585072014e-308]},{"bufferView":2,"byteOffset":0,"componentType":5125,"count":21582,"type":"SCALAR","max":[4978],"min":[0]},{"bufferView":3,"byteOffset":0,"componentType":5126,"count":696,"type":"VEC3","max":[3.150150775909424,0.7081230878829956,0.11065902560949326],"min":[2.2250738585072014e-308,2.2250738585072014e-308,2.2250738585072014e-308]},{"bufferView":4,"byteOffset":0,"componentType":5126,"count":696,"type":"VEC2","max":[0.6635632514953613,0.8469467163085938],"min":[2.2250738585072014e-308,2.2250738585072014e-308]},{"bufferView":5,"byteOffset":0,"componentType":5125,"count":3507,"type":"SCALAR","max":[695],"min":[0]}],"buffers":[{"byteLength":213856,"uri":"tile_0536.bin"}],"bufferViews":[{"buffer":0,"byteOffset":0,"byteLength":59748,"target":34962},{"buffer":0,"byteOffset":59748,"byteLength":39832,"target":34962},{"buffer":0,"byteOffset":99580,"byteLength":86328,"target":34963},{"buffer":0,"byteOffset":185908,"byteLength":8352,"target":34962},{"buffer":0,"byteOffset":194260,"byteLength":5568,"target":34962},{"buffer":0,"byteOffset":199828,"byteLength":14028,"target":34963}],"images":[{"uri":"../textures/tile_0536_material_0.jpg"},{"uri":"../textures/tile_0536_material_1.jpg"}],"materials":[{"name":"DefaultMaterial","pbrMetallicRoughness":{"baseColorFactor":[0.6000000238418579,0.6000000238418579,0.6000000238418579,1.0],"metallicFactor":0.0},"extensions":{"KHR_materials_specular":{"specularFactor":1.0,"specularColorFactor":[0.0,0.0,0.0]},"KHR_materials_ior":{"ior":1.0}}},{"name":"material_0_material","pbrMetallicRoughness":{"baseColorTexture":{"index":0},"metallicFactor":0.0},"extensions":{"KHR_materials_specular":{"specularFactor":1.0,"specularColorFactor":[0.0,0.0,0.0]},"KHR_materials_ior":{"ior":1.0}}},{"name":"material_1_material","pbrMetallicRoughness":{"baseColorTexture":{"index":1},"metallicFactor":0.0},"extensions":{"KHR_materials_specular":{"specularFactor":1.0,"specularColorFactor":[0.0,0.0,0.0]},"KHR_materials_ior":{"ior":1.0}}}],"meshes":[{"name":"defaultobject","primitives":[{"mode":4,"material":1,"indices":2,"attributes":{"POSITION":0,"TEXCOORD_0":1}},{"mode":4,"material":2,"indices":5,"attributes":{"POSITION":3,"TEXCOORD_0":4}}]}],"nodes":[{"name":"tile_0536.obj","children":[1]},{"name":"defaultobject","mesh":0}],"samplers":[{},{}],"scenes":[{"nodes":[0]}],"textures":[{"source":0,"sampler":0},{"source":1,"sampler":1}],"scene":0}
