{"asset":{"version":"2.0","generator":"Open Asset Import Library (assimp v6.0.0)"},"extensionsUsed":["KHR_materials_specular","KHR_materials_volume","KHR_materials_ior","FB_ngon_encoding"],"accessors":[{"bufferView":0,"byteOffset":0,"componentType":5126,"count":3718,"type":"VEC3","max":[0.5676581859588623,-1.1984740495681763,2.810431480407715],"min":[-0.16538399457931519,-1.4116109609603882,2.2250738585072014e-308]},{"bufferView":1,"byteOffset":0,"componentType":5126,"count":3718,"type":"VEC2","max":[0.9864497184753418,0.8583984375],"min":[2.2250738585072014e-308,2.2250738585072014e-308]},{"bufferView":2,"byteOffset":0,"componentType":5125,"count":16437,"type":"SCALAR","max":[3717],"min":[0]},{"bufferView":3,"byteOffset":0,"componentType":5126,"count":297,"type":"VEC3","max":[0.6051322221755981,-1.1985844373703003,2.820192575454712],"min":[2.2250738585072014e-308,-1.4317870140075684,2.2250738585072014e-308]},{"bufferView":4,"byteOffset":0,"componentType":5126,"count":297,"type":"VEC2","max":[0.8449783325195312,0.5606918334960938],"min":[2.2250738585072014e-308,2.2250738585072014e-308]},{"bufferView":5,"byteOffset":0,"componentType":5125,"count":1299,"type":"SCALAR","max":[296],"min":[0]}],"buffers":[{"byteLength":151244,"uri":"tile_0036.bin"}],"bufferViews":[{"buffer":0,"byteOffset":0,"byteLength":44616,"target":34962},{"buffer":0,"byteOffset":44616,"byteLength":29744,"target":34962},{"buffer":0,"byteOffset":74360,"byteLength":65748,"target":34963},{"buffer":0,"byteOffset":140108,"byteLength":3564,"target":34962},{"buffer":0,"byteOffset":143672,"byteLength":2376,"target":34962},{"buffer":0,"byteOffset":146048,"byteLength":5196,"target":34963}],"images":[{"uri":"../textures/tile_0036_material_0.jpg"},{"uri":"../textures/tile_0036_material_1.jpg"}],"materials":[{"name":"DefaultMaterial","pbrMetallicRoughness":{"baseColorFactor":[0.6000000238418579,0.6000000238418579,0.6000000238418579,1.0],"metallicFactor":0.0},"extensions":{"KHR_materials_specular":{"specularFactor":1.0,"specularColorFactor":[0.0,0.0,0.0]},"KHR_materials_ior":{"ior":1.0}}},{"name":"material_0_material","pbrMetallicRoughness":{"baseColorTexture":{"index":0},"metallicFactor":0.0},"extensions":{"KHR_materials_specular":{"specularFactor":1.0,"specularColorFactor":[0.0,0.0,0.0]},"KHR_materials_ior":{"ior":1.0}}},{"name":"material_1_material","pbrMetallicRoughness":{"baseColorTexture":{"index":1},"metallicFactor":0.0},"extensions":{"KHR_materials_specular":{"specularFactor":1.0,"specularColorFactor":[0.0,0.0,0.0]},"KHR_materials_ior":{"ior":1.0}}}],"meshes":[{"name":"defaultobject","primitives":[{"mode":4,"material":1,"indices":2,"attributes":{"POSITION":0,"TEXCOORD_0":1}},{"mode":4,"material":2,"indices":5,"attributes":{"POSITION":3,"TEXCOORD_0":4}}]}],"nodes":[{"name":"tile_0036.obj","children":[1]},{"name":"defaultobject","mesh":0}],"samplers":[{},{}],"scenes":[{"nodes":[0]}],"textures":[{"source":0,"sampler":0},{"source":1,"sampler":1}],"scene":0}
