{"asset":{"version":"2.0","generator":"Open Asset Import Library (assimp v6.0.0)"},"extensionsUsed":["KHR_materials_specular","KHR_materials_volume","KHR_materials_ior","FB_ngon_encoding"],"accessors":[{"bufferView":0,"byteOffset":0,"componentType":5126,"count":4346,"type":"VEC3","max":[1.8118619918823242,-0.135598823428154,1.6116620302200317],"min":[-0.17419634759426117,-0.26649704575538635,2.2250738585072014e-308]},{"bufferView":1,"byteOffset":0,"componentType":5126,"count":4346,"type":"VEC2","max":[0.9942753314971924,0.5700817108154297],"min":[2.2250738585072014e-308,2.2250738585072014e-308]},{"bufferView":2,"byteOffset":0,"componentType":5125,"count":17298,"type":"SCALAR","max":[4345],"min":[0]},{"bufferView":3,"byteOffset":0,"componentType":5126,"count":546,"type":"VEC3","max":[1.2985155582427979,-0.14099089801311493,1.5966882705688477],"min":[-0.08119723200798035,-0.27619990706443787,2.2250738585072014e-308]},{"bufferView":4,"byteOffset":0,"componentType":5126,"count":546,"type":"VEC2","max":[0.7947733402252197,0.7697296142578125],"min":[2.2250738585072014e-308,2.2250738585072014e-308]},{"bufferView":5,"byteOffset":0,"componentType":5125,"count":2433,"type":"SCALAR","max":[545],"min":[0]}],"buffers":[{"byteLength":176764,"uri":"tile_0072.bin"}],"bufferViews":[{"buffer":0,"byteOffset":0,"byteLength":52152,"target":34962},{"buffer":0,"byteOffset":52152,"byteLength":34768,"target":34962},{"buffer":0,"byteOffset":86920,"byteLength":69192,"target":34963},{"buffer":0,"byteOffset":156112,"byteLength":6552,"target":34962},{"buffer":0,"byteOffset":162664,"byteLength":4368,"target":34962},{"buffer":0,"byteOffset":167032,"byteLength":9732,"target":34963}],"images":[{"uri":"../textures/tile_0072_material_0.jpg"},{"uri":"../textures/tile_0072_material_1.jpg"}],"materials":[{"name":"DefaultMaterial","pbrMetallicRoughness":{"baseColorFactor":[0.6000000238418579,0.6000000238418579,0.6000000238418579,1.0],"metallicFactor":0.0},"extensions":{"KHR_materials_specular":{"specularFactor":1.0,"specularColorFactor":[0.0,0.0,0.0]},"KHR_materials_ior":{"ior":1.0}}},{"name":"material_0_material","pbrMetallicRoughness":{"baseColorTexture":{"index":0},"metallicFactor":0.0},"extensions":{"KHR_materials_specular":{"specularFactor":1.0,"specularColorFactor":[0.0,0.0,0.0]},"KHR_materials_ior":{"ior":1.0}}},{"name":"material_1_material","pbrMetallicRoughness":{"baseColorTexture":{"index":1},"metallicFactor":0.0},"extensions":{"KHR_materials_specular":{"specularFactor":1.0,"specularColorFactor":[0.0,0.0,0.0]},"KHR_materials_ior":{"ior":1.0}}}],"meshes":[{"name":"defaultobject","primitives":[{"mode":4,"material":1,"indices":2,"attributes":{"POSITION":0,"TEXCOORD_0":1}},{"mode":4,"material":2,"indices":5,"attributes":{"POSITION":3,"TEXCOORD_0":4}}]}],"nodes":[{"name":"tile_0072.obj","children":[1]},{"name":"defaultobject","mesh":0}],"samplers":[{},{}],"scenes":[{"nodes":[0]}],"textures":[{"source":0,"sampler":0},{"source":1,"sampler":1}],"scene":0}
