{"asset":{"version":"2.0","generator":"Open Asset Import Library (assimp v6.0.0)"},"extensionsUsed":["KHR_materials_specular","KHR_materials_volume","KHR_materials_ior","FB_ngon_encoding"],"accessors":[{"bufferView":0,"byteOffset":0,"componentType":5126,"count":5864,"type":"VEC3","max":[0.7002455592155457,-3.198711633682251,2.322190761566162],"min":[2.2250738585072014e-308,-3.6428208351135254,2.2250738585072014e-308]},{"bufferView":1,"byteOffset":0,"componentType":5126,"count":5864,"type":"VEC2","max":[0.9957914352416992,0.6171398162841797],"min":[2.2250738585072014e-308,2.2250738585072014e-308]},{"bufferView":2,"byteOffset":0,"componentType":5125,"count":23331,"type":"SCALAR","max":[5863],"min":[0]},{"bufferView":3,"byteOffset":0,"componentType":5126,"count":723,"type":"VEC3","max":[0.30037543177604675,-3.4608817100524902,2.3071610927581787],"min":[2.2250738585072014e-308,-3.644514560699463,2.2250738585072014e-308]},{"bufferView":4,"byteOffset":0,"componentType":5126,"count":723,"type":"VEC2","max":[0.6111960411071777,0.9138526916503906],"min":[2.2250738585072014e-308,2.2250738585072014e-308]},{"bufferView":5,"byteOffset":0,"componentType":5125,"count":3540,"type":"SCALAR","max":[722],"min":[0]}],"buffers":[{"byteLength":239224,"uri":"tile_0301.bin"}],"bufferViews":[{"buffer":0,"byteOffset":0,"byteLength":70368,"target":34962},{"buffer":0,"byteOffset":70368,"byteLength":46912,"target":34962},{"buffer":0,"byteOffset":117280,"byteLength":93324,"target":34963},{"buffer":0,"byteOffset":210604,"byteLength":8676,"target":34962},{"buffer":0,"byteOffset":219280,"byteLength":5784,"target":34962},{"buffer":0,"byteOffset":225064,"byteLength":14160,"target":34963}],"images":[{"uri":"../textures/tile_0301_material_0.jpg"},{"uri":"../textures/tile_0301_material_1.jpg"}],"materials":[{"name":"DefaultMaterial","pbrMetallicRoughness":{"baseColorFactor":[0.6000000238418579,0.6000000238418579,0.6000000238418579,1.0],"metallicFactor":0.0},"extensions":{"KHR_materials_specular":{"specularFactor":1.0,"specularColorFactor":[0.0,0.0,0.0]},"KHR_materials_ior":{"ior":1.0}}},{"name":"material_0_material","pbrMetallicRoughness":{"baseColorTexture":{"index":0},"metallicFactor":0.0},"extensions":{"KHR_materials_specular":{"specularFactor":1.0,"specularColorFactor":[0.0,0.0,0.0]},"KHR_materials_ior":{"ior":1.0}}},{"name":"material_1_material","pbrMetallicRoughness":{"baseColorTexture":{"index":1},"metallicFactor":0.0},"extensions":{"KHR_materials_specular":{"specularFactor":1.0,"specularColorFactor":[0.0,0.0,0.0]},"KHR_materials_ior":{"ior":1.0}}}],"meshes":[{"name":"defaultobject","primitives":[{"mode":4,"material":1,"indices":2,"attributes":{"POSITION":0,"TEXCOORD_0":1}},{"mode":4,"material":2,"indices":5,"attributes":{"POSITION":3,"TEXCOORD_0":4}}]}],"nodes":[{"name":"tile_0301.obj","children":[1]},{"name":"defaultobject","mesh":0}],"samplers":[{},{}],"scenes":[{"nodes":[0]}],"textures":[{"source":0,"sampler":0},{"source":1,"sampler":1}],"scene":0}
