{"asset":{"version":"2.0","generator":"Open Asset Import Library (assimp v6.0.0)"},"extensionsUsed":["KHR_materials_specular","KHR_materials_volume","KHR_materials_ior","FB_ngon_encoding"],"accessors":[{"bufferView":0,"byteOffset":0,"componentType":5126,"count":2542,"type":"VEC3","max":[0.6048151254653931,-2.584784984588623,2.3733561038970947],"min":[2.2250738585072014e-308,-2.69576096534729,2.2250738585072014e-308]},{"bufferView":1,"byteOffset":0,"componentType":5126,"count":2542,"type":"VEC2","max":[0.9881548881530762,0.7719497680664062],"min":[2.2250738585072014e-308,2.2250738585072014e-308]},{"bufferView":2,"byteOffset":0,"componentType":5125,"count":12267,"type":"SCALAR","max":[2541],"min":[0]},{"bufferView":3,"byteOffset":0,"componentType":5126,"count":1796,"type":"VEC3","max":[0.6380582451820374,-2.618077039718628,2.339641571044922],"min":[2.2250738585072014e-308,-2.6846611499786377,2.2250738585072014e-308]},{"bufferView":4,"byteOffset":0,"componentType":5126,"count":1796,"type":"VEC2","max":[0.5068642497062683,0.5696620941162109],"min":[2.2250738585072014e-308,2.2250738585072014e-308]},{"bufferView":5,"byteOffset":0,"componentType":5125,"count":10083,"type":"SCALAR","max":[1795],"min":[0]}],"buffers":[{"byteLength":176160,"uri":"tile_0023.bin"}],"bufferViews":[{"buffer":0,"byteOffset":0,"byteLength":30504,"target":34962},{"buffer":0,"byteOffset":30504,"byteLength":20336,"target":34962},{"buffer":0,"byteOffset":50840,"byteLength":49068,"target":34963},{"buffer":0,"byteOffset":99908,"byteLength":21552,"target":34962},{"buffer":0,"byteOffset":121460,"byteLength":14368,"target":34962},{"buffer":0,"byteOffset":135828,"byteLength":40332,"target":34963}],"images":[{"uri":"../textures/tile_0023_material_0.jpg"},{"uri":"../textures/tile_0023_material_1.jpg"}],"materials":[{"name":"DefaultMaterial","pbrMetallicRoughness":{"baseColorFactor":[0.6000000238418579,0.6000000238418579,0.6000000238418579,1.0],"metallicFactor":0.0},"extensions":{"KHR_materials_specular":{"specularFactor":1.0,"specularColorFactor":[0.0,0.0,0.0]},"KHR_materials_ior":{"ior":1.0}}},{"name":"material_0_material","pbrMetallicRoughness":{"baseColorTexture":{"index":0},"metallicFactor":0.0},"extensions":{"KHR_materials_specular":{"specularFactor":1.0,"specularColorFactor":[0.0,0.0,0.0]},"KHR_materials_ior":{"ior":1.0}}},{"name":"material_1_material","pbrMetallicRoughness":{"baseColorTexture":{"index":1},"metallicFactor":0.0},"extensions":{"KHR_materials_specular":{"specularFactor":1.0,"specularColorFactor":[0.0,0.0,0.0]},"KHR_materials_ior":{"ior":1.0}}}],"meshes":[{"name":"defaultobject","primitives":[{"mode":4,"material":1,"indices":2,"attributes":{"POSITION":0,"TEXCOORD_0":1}},{"mode":4,"material":2,"indices":5,"attributes":{"POSITION":3,"TEXCOORD_0":4}}]}],"nodes":[{"name":"tile_0023.obj","children":[1]},{"name":"defaultobject","mesh":0}],"samplers":[{},{}],"scenes":[{"nodes":[0]}],"textures":[{"source":0,"sampler":0},{"source":1,"sampler":1}],"scene":0}
