{"asset":{"version":"2.0","generator":"Open Asset Import Library (assimp v6.0.0)"},"extensionsUsed":["KHR_materials_specular","KHR_materials_volume","KHR_materials_ior","FB_ngon_encoding"],"accessors":[{"bufferView":0,"byteOffset":0,"componentType":5126,"count":4259,"type":"VEC3","max":[2.3251519203186035,1.6293975114822388,1.7629919052124023],"min":[2.2250738585072014e-308,2.2250738585072014e-308,2.2250738585072014e-308]},{"bufferView":1,"byteOffset":0,"componentType":5126,"count":4259,"type":"VEC2","max":[0.990023136138916,0.65179443359375],"min":[2.2250738585072014e-308,2.2250738585072014e-308]},{"bufferView":2,"byteOffset":0,"componentType":5125,"count":20259,"type":"SCALAR","max":[4258],"min":[0]},{"bufferView":3,"byteOffset":0,"componentType":5126,"count":555,"type":"VEC3","max":[2.1341466903686523,1.5861741304397583,1.760770559310913],"min":[2.2250738585072014e-308,2.2250738585072014e-308,2.2250738585072014e-308]},{"bufferView":4,"byteOffset":0,"componentType":5126,"count":555,"type":"VEC2","max":[0.7520523071289062,0.4895133972167969],"min":[2.2250738585072014e-308,2.2250738585072014e-308]},{"bufferView":5,"byteOffset":0,"componentType":5125,"count":2889,"type":"SCALAR","max":[554],"min":[0]}],"buffers":[{"byteLength":188872,"uri":"tile_0441.bin"}],"bufferViews":[{"buffer":0,"byteOffset":0,"byteLength":51108,"target":34962},{"buffer":0,"byteOffset":51108,"byteLength":34072,"target":34962},{"buffer":0,"byteOffset":85180,"byteLength":81036,"target":34963},{"buffer":0,"byteOffset":166216,"byteLength":6660,"target":34962},{"buffer":0,"byteOffset":172876,"byteLength":4440,"target":34962},{"buffer":0,"byteOffset":177316,"byteLength":11556,"target":34963}],"images":[{"uri":"../textures/tile_0441_material_0.jpg"},{"uri":"../textures/tile_0441_material_1.jpg"}],"materials":[{"name":"DefaultMaterial","pbrMetallicRoughness":{"baseColorFactor":[0.6000000238418579,0.6000000238418579,0.6000000238418579,1.0],"metallicFactor":0.0},"extensions":{"KHR_materials_specular":{"specularFactor":1.0,"specularColorFactor":[0.0,0.0,0.0]},"KHR_materials_ior":{"ior":1.0}}},{"name":"material_0_material","pbrMetallicRoughness":{"baseColorTexture":{"index":0},"metallicFactor":0.0},"extensions":{"KHR_materials_specular":{"specularFactor":1.0,"specularColorFactor":[0.0,0.0,0.0]},"KHR_materials_ior":{"ior":1.0}}},{"name":"material_1_material","pbrMetallicRoughness":{"baseColorTexture":{"index":1},"metallicFactor":0.0},"extensions":{"KHR_materials_specular":{"specularFactor":1.0,"specularColorFactor":[0.0,0.0,0.0]},"KHR_materials_ior":{"ior":1.0}}}],"meshes":[{"name":"defaultobject","primitives":[{"mode":4,"material":1,"indices":2,"attributes":{"POSITION":0,"TEXCOORD_0":1}},{"mode":4,"material":2,"indices":5,"attributes":{"POSITION":3,"TEXCOORD_0":4}}]}],"nodes":[{"name":"tile_0441.obj","children":[1]},{"name":"defaultobject","mesh":0}],"samplers":[{},{}],"scenes":[{"nodes":[0]}],"textures":[{"source":0,"sampler":0},{"source":1,"sampler":1}],"scene":0}
