{"asset":{"version":"2.0","generator":"Open Asset Import Library (assimp v6.0.0)"},"extensionsUsed":["KHR_materials_specular","KHR_materials_volume","KHR_materials_ior","FB_ngon_encoding"],"accessors":[{"bufferView":0,"byteOffset":0,"componentType":5126,"count":2762,"type":"VEC3","max":[1.5925729274749756,-3.028938055038452,1.4470747709274292],"min":[2.2250738585072014e-308,-3.1526341438293457,2.2250738585072014e-308]},{"bufferView":1,"byteOffset":0,"componentType":5126,"count":2762,"type":"VEC2","max":[0.987518310546875,0.5425338745117188],"min":[2.2250738585072014e-308,2.2250738585072014e-308]},{"bufferView":2,"byteOffset":0,"componentType":5125,"count":11670,"type":"SCALAR","max":[2761],"min":[0]},{"bufferView":3,"byteOffset":0,"componentType":5126,"count":1701,"type":"VEC3","max":[1.208065152168274,-3.010319709777832,1.4443737268447876],"min":[2.2250738585072014e-308,-3.149857759475708,2.2250738585072014e-308]},{"bufferView":4,"byteOffset":0,"componentType":5126,"count":1701,"type":"VEC2","max":[0.9768705368041992,0.9131546020507812],"min":[2.2250738585072014e-308,2.2250738585072014e-308]},{"bufferView":5,"byteOffset":0,"componentType":5125,"count":8874,"type":"SCALAR","max":[1700],"min":[0]}],"buffers":[{"byteLength":171436,"uri":"tile_0159.bin"}],"bufferViews":[{"buffer":0,"byteOffset":0,"byteLength":33144,"target":34962},{"buffer":0,"byteOffset":33144,"byteLength":22096,"target":34962},{"buffer":0,"byteOffset":55240,"byteLength":46680,"target":34963},{"buffer":0,"byteOffset":101920,"byteLength":20412,"target":34962},{"buffer":0,"byteOffset":122332,"byteLength":13608,"target":34962},{"buffer":0,"byteOffset":135940,"byteLength":35496,"target":34963}],"images":[{"uri":"../textures/tile_0159_material_0.jpg"},{"uri":"../textures/tile_0159_material_1.jpg"}],"materials":[{"name":"DefaultMaterial","pbrMetallicRoughness":{"baseColorFactor":[0.6000000238418579,0.6000000238418579,0.6000000238418579,1.0],"metallicFactor":0.0},"extensions":{"KHR_materials_specular":{"specularFactor":1.0,"specularColorFactor":[0.0,0.0,0.0]},"KHR_materials_ior":{"ior":1.0}}},{"name":"material_0_material","pbrMetallicRoughness":{"baseColorTexture":{"index":0},"metallicFactor":0.0},"extensions":{"KHR_materials_specular":{"specularFactor":1.0,"specularColorFactor":[0.0,0.0,0.0]},"KHR_materials_ior":{"ior":1.0}}},{"name":"material_1_material","pbrMetallicRoughness":{"baseColorTexture":{"index":1},"metallicFactor":0.0},"extensions":{"KHR_materials_specular":{"specularFactor":1.0,"specularColorFactor":[0.0,0.0,0.0]},"KHR_materials_ior":{"ior":1.0}}}],"meshes":[{"name":"defaultobject","primitives":[{"mode":4,"material":1,"indices":2,"attributes":{"POSITION":0,"TEXCOORD_0":1}},{"mode":4,"material":2,"indices":5,"attributes":{"POSITION":3,"TEXCOORD_0":4}}]}],"nodes":[{"name":"tile_0159.obj","children":[1]},{"name":"defaultobject","mesh":0}],"samplers":[{},{}],"scenes":[{"nodes":[0]}],"textures":[{"source":0,"sampler":0},{"source":1,"sampler":1}],"scene":0}
