{"asset":{"version":"2.0","generator":"Open Asset Import Library (assimp v6.0.0)"},"extensionsUsed":["KHR_materials_specular","KHR_materials_volume","KHR_materials_ior","FB_ngon_encoding"],"accessors":[{"bufferView":0,"byteOffset":0,"componentType":5126,"count":3781,"type":"VEC3","max":[3.2022695541381836,-0.9623855948448181,0.3562111556529999],"min":[2.2250738585072014e-308,-1.1591076850891113,2.2250738585072014e-308]},{"bufferView":1,"byteOffset":0,"componentType":5126,"count":3781,"type":"VEC2","max":[0.9925589561462402,0.6910018920898438],"min":[2.2250738585072014e-308,2.2250738585072014e-308]},{"bufferView":2,"byteOffset":0,"componentType":5125,"count":14643,"type":"SCALAR","max":[3780],"min":[0]},{"bufferView":3,"byteOffset":0,"componentType":5126,"count":1348,"type":"VEC3","max":[0.25148048996925354,-0.965061366558075,0.3431156873703003],"min":[2.2250738585072014e-308,-1.157072901725769,2.2250738585072014e-308]},{"bufferView":4,"byteOffset":0,"componentType":5126,"count":1348,"type":"VEC2","max":[0.8968172073364258,0.6053123474121094],"min":[2.2250738585072014e-308,2.2250738585072014e-308]},{"bufferView":5,"byteOffset":0,"componentType":5125,"count":6498,"type":"SCALAR","max":[1347],"min":[0]}],"buffers":[{"byteLength":187144,"uri":"tile_0630.bin"}],"bufferViews":[{"buffer":0,"byteOffset":0,"byteLength":45372,"target":34962},{"buffer":0,"byteOffset":45372,"byteLength":30248,"target":34962},{"buffer":0,"byteOffset":75620,"byteLength":58572,"target":34963},{"buffer":0,"byteOffset":134192,"byteLength":16176,"target":34962},{"buffer":0,"byteOffset":150368,"byteLength":10784,"target":34962},{"buffer":0,"byteOffset":161152,"byteLength":25992,"target":34963}],"images":[{"uri":"../textures/tile_0630_material_0.jpg"},{"uri":"../textures/tile_0630_material_1.jpg"}],"materials":[{"name":"DefaultMaterial","pbrMetallicRoughness":{"baseColorFactor":[0.6000000238418579,0.6000000238418579,0.6000000238418579,1.0],"metallicFactor":0.0},"extensions":{"KHR_materials_specular":{"specularFactor":1.0,"specularColorFactor":[0.0,0.0,0.0]},"KHR_materials_ior":{"ior":1.0}}},{"name":"material_0_material","pbrMetallicRoughness":{"baseColorTexture":{"index":0},"metallicFactor":0.0},"extensions":{"KHR_materials_specular":{"specularFactor":1.0,"specularColorFactor":[0.0,0.0,0.0]},"KHR_materials_ior":{"ior":1.0}}},{"name":"material_1_material","pbrMetallicRoughness":{"baseColorTexture":{"index":1},"metallicFactor":0.0},"extensions":{"KHR_materials_specular":{"specularFactor":1.0,"specularColorFactor":[0.0,0.0,0.0]},"KHR_materials_ior":{"ior":1.0}}}],"meshes":[{"name":"defaultobject","primitives":[{"mode":4,"material":1,"indices":2,"attributes":{"POSITION":0,"TEXCOORD_0":1}},{"mode":4,"material":2,"indices":5,"attributes":{"POSITION":3,"TEXCOORD_0":4}}]}],"nodes":[{"name":"tile_0630.obj","children":[1]},{"name":"defaultobject","mesh":0}],"samplers":[{},{}],"scenes":[{"nodes":[0]}],"textures":[{"source":0,"sampler":0},{"source":1,"sampler":1}],"scene":0}
