{"asset":{"version":"2.0","generator":"Open Asset Import Library (assimp v6.0.0)"},"extensionsUsed":["KHR_materials_specular","KHR_materials_volume","KHR_materials_ior","FB_ngon_encoding"],"accessors":[{"bufferView":0,"byteOffset":0,"componentType":5126,"count":4050,"type":"VEC3","max":[3.2236034870147705,-0.17769072949886322,0.3844657242298126],"min":[2.2250738585072014e-308,-0.31069740653038025,2.2250738585072014e-308]},{"bufferView":1,"byteOffset":0,"componentType":5126,"count":4050,"type":"VEC2","max":[0.9953789710998535,0.9373207092285156],"min":[2.2250738585072014e-308,2.2250738585072014e-308]},{"bufferView":2,"byteOffset":0,"componentType":5125,"count":14118,"type":"SCALAR","max":[4049],"min":[0]},{"bufferView":3,"byteOffset":0,"componentType":5126,"count":2050,"type":"VEC3","max":[2.9840824604034424,-0.18399697542190552,0.3484916388988495],"min":[2.2250738585072014e-308,-0.3058260679244995,2.2250738585072014e-308]},{"bufferView":4,"byteOffset":0,"componentType":5126,"count":2050,"type":"VEC2","max":[0.8279714584350586,0.6854782104492188],"min":[2.2250738585072014e-308,2.2250738585072014e-308]},{"bufferView":5,"byteOffset":0,"componentType":5125,"count":9816,"type":"SCALAR","max":[2049],"min":[0]}],"buffers":[{"byteLength":217736,"uri":"tile_0458.bin"}],"bufferViews":[{"buffer":0,"byteOffset":0,"byteLength":48600,"target":34962},{"buffer":0,"byteOffset":48600,"byteLength":32400,"target":34962},{"buffer":0,"byteOffset":81000,"byteLength":56472,"target":34963},{"buffer":0,"byteOffset":137472,"byteLength":24600,"target":34962},{"buffer":0,"byteOffset":162072,"byteLength":16400,"target":34962},{"buffer":0,"byteOffset":178472,"byteLength":39264,"target":34963}],"images":[{"uri":"../textures/tile_0458_material_0.jpg"},{"uri":"../textures/tile_0458_material_1.jpg"}],"materials":[{"name":"DefaultMaterial","pbrMetallicRoughness":{"baseColorFactor":[0.6000000238418579,0.6000000238418579,0.6000000238418579,1.0],"metallicFactor":0.0},"extensions":{"KHR_materials_specular":{"specularFactor":1.0,"specularColorFactor":[0.0,0.0,0.0]},"KHR_materials_ior":{"ior":1.0}}},{"name":"material_0_material","pbrMetallicRoughness":{"baseColorTexture":{"index":0},"metallicFactor":0.0},"extensions":{"KHR_materials_specular":{"specularFactor":1.0,"specularColorFactor":[0.0,0.0,0.0]},"KHR_materials_ior":{"ior":1.0}}},{"name":"material_1_material","pbrMetallicRoughness":{"baseColorTexture":{"index":1},"metallicFactor":0.0},"extensions":{"KHR_materials_specular":{"specularFactor":1.0,"specularColorFactor":[0.0,0.0,0.0]},"KHR_materials_ior":{"ior":1.0}}}],"meshes":[{"name":"defaultobject","primitives":[{"mode":4,"material":1,"indices":2,"attributes":{"POSITION":0,"TEXCOORD_0":1}},{"mode":4,"material":2,"indices":5,"attributes":{"POSITION":3,"TEXCOORD_0":4}}]}],"nodes":[{"name":"tile_0458.obj","children":[1]},{"name":"defaultobject","mesh":0}],"samplers":[{},{}],"scenes":[{"nodes":[0]}],"textures":[{"source":0,"sampler":0},{"source":1,"sampler":1}],"scene":0}
