{"asset":{"version":"2.0","generator":"Open Asset Import Library (assimp v6.0.0)"},"extensionsUsed":["KHR_materials_specular","KHR_materials_volume","KHR_materials_ior","FB_ngon_encoding"],"accessors":[{"bufferView":0,"byteOffset":0,"componentType":5126,"count":8170,"type":"VEC3","max":[2.0899126529693604,1.4364737272262573,2.3378214836120605],"min":[2.2250738585072014e-308,2.2250738585072014e-308,2.2250738585072014e-308]},{"bufferView":1,"byteOffset":0,"componentType":5126,"count":8170,"type":"VEC2","max":[0.9931890964508057,0.8889598846435547],"min":[2.2250738585072014e-308,2.2250738585072014e-308]},{"bufferView":2,"byteOffset":0,"componentType":5125,"count":36420,"type":"SCALAR","max":[8169],"min":[0]},{"bufferView":3,"byteOffset":0,"componentType":5126,"count":300,"type":"VEC3","max":[1.276599407196045,1.4002197980880737,2.081822156906128],"min":[2.2250738585072014e-308,2.2250738585072014e-308,2.2250738585072014e-308]},{"bufferView":4,"byteOffset":0,"componentType":5126,"count":300,"type":"VEC2","max":[0.685460090637207,0.8303832411766052],"min":[2.2250738585072014e-308,2.2250738585072014e-308]},{"bufferView":5,"byteOffset":0,"componentType":5125,"count":1416,"type":"SCALAR","max":[299],"min":[0]}],"buffers":[{"byteLength":320744,"uri":"tile_0588.bin"}],"bufferViews":[{"buffer":0,"byteOffset":0,"byteLength":98040,"target":34962},{"buffer":0,"byteOffset":98040,"byteLength":65360,"target":34962},{"buffer":0,"byteOffset":163400,"byteLength":145680,"target":34963},{"buffer":0,"byteOffset":309080,"byteLength":3600,"target":34962},{"buffer":0,"byteOffset":312680,"byteLength":2400,"target":34962},{"buffer":0,"byteOffset":315080,"byteLength":5664,"target":34963}],"images":[{"uri":"../textures/tile_0588_material_0.jpg"},{"uri":"../textures/tile_0588_material_1.jpg"}],"materials":[{"name":"DefaultMaterial","pbrMetallicRoughness":{"baseColorFactor":[0.6000000238418579,0.6000000238418579,0.6000000238418579,1.0],"metallicFactor":0.0},"extensions":{"KHR_materials_specular":{"specularFactor":1.0,"specularColorFactor":[0.0,0.0,0.0]},"KHR_materials_ior":{"ior":1.0}}},{"name":"material_0_material","pbrMetallicRoughness":{"baseColorTexture":{"index":0},"metallicFactor":0.0},"extensions":{"KHR_materials_specular":{"specularFactor":1.0,"specularColorFactor":[0.0,0.0,0.0]},"KHR_materials_ior":{"ior":1.0}}},{"name":"material_1_material","pbrMetallicRoughness":{"baseColorTexture":{"index":1},"metallicFactor":0.0},"extensions":{"KHR_materials_specular":{"specularFactor":1.0,"specularColorFactor":[0.0,0.0,0.0]},"KHR_materials_ior":{"ior":1.0}}}],"meshes":[{"name":"defaultobject","primitives":[{"mode":4,"material":1,"indices":2,"attributes":{"POSITION":0,"TEXCOORD_0":1}},{"mode":4,"material":2,"indices":5,"attributes":{"POSITION":3,"TEXCOORD_0":4}}]}],"nodes":[{"name":"tile_0588.obj","children":[1]},{"name":"defaultobject","mesh":0}],"samplers":[{},{}],"scenes":[{"nodes":[0]}],"textures":[{"source":0,"sampler":0},{"source":1,"sampler":1}],"scene":0}
