{"asset":{"version":"2.0","generator":"Open Asset Import Library (assimp v6.0.0)"},"extensionsUsed":["KHR_materials_specular","KHR_materials_volume","KHR_materials_ior","FB_ngon_encoding"],"accessors":[{"bufferView":0,"byteOffset":0,"componentType":5126,"count":5635,"type":"VEC3","max":[3.485308885574341,1.3740887641906738,0.1990949958562851],"min":[2.2250738585072014e-308,2.2250738585072014e-308,2.2250738585072014e-308]},{"bufferView":1,"byteOffset":0,"componentType":5126,"count":5635,"type":"VEC2","max":[0.9939451217651367,0.5701351165771484],"min":[2.2250738585072014e-308,2.2250738585072014e-308]},{"bufferView":2,"byteOffset":0,"componentType":5125,"count":23115,"type":"SCALAR","max":[5634],"min":[0]},{"bufferView":3,"byteOffset":0,"componentType":5126,"count":240,"type":"VEC3","max":[2.8186609745025635,1.3316402435302734,0.17908546328544617],"min":[2.2250738585072014e-308,2.2250738585072014e-308,2.2250738585072014e-308]},{"bufferView":4,"byteOffset":0,"componentType":5126,"count":240,"type":"VEC2","max":[0.6088218688964844,0.5770530700683594],"min":[2.2250738585072014e-308,2.2250738585072014e-308]},{"bufferView":5,"byteOffset":0,"componentType":5125,"count":1218,"type":"SCALAR","max":[239],"min":[0]}],"buffers":[{"byteLength":214832,"uri":"tile_0527.bin"}],"bufferViews":[{"buffer":0,"byteOffset":0,"byteLength":67620,"target":34962},{"buffer":0,"byteOffset":67620,"byteLength":45080,"target":34962},{"buffer":0,"byteOffset":112700,"byteLength":92460,"target":34963},{"buffer":0,"byteOffset":205160,"byteLength":2880,"target":34962},{"buffer":0,"byteOffset":208040,"byteLength":1920,"target":34962},{"buffer":0,"byteOffset":209960,"byteLength":4872,"target":34963}],"images":[{"uri":"../textures/tile_0527_material_0.jpg"},{"uri":"../textures/tile_0527_material_1.jpg"}],"materials":[{"name":"DefaultMaterial","pbrMetallicRoughness":{"baseColorFactor":[0.6000000238418579,0.6000000238418579,0.6000000238418579,1.0],"metallicFactor":0.0},"extensions":{"KHR_materials_specular":{"specularFactor":1.0,"specularColorFactor":[0.0,0.0,0.0]},"KHR_materials_ior":{"ior":1.0}}},{"name":"material_0_material","pbrMetallicRoughness":{"baseColorTexture":{"index":0},"metallicFactor":0.0},"extensions":{"KHR_materials_specular":{"specularFactor":1.0,"specularColorFactor":[0.0,0.0,0.0]},"KHR_materials_ior":{"ior":1.0}}},{"name":"material_1_material","pbrMetallicRoughness":{"baseColorTexture":{"index":1},"metallicFactor":0.0},"extensions":{"KHR_materials_specular":{"specularFactor":1.0,"specularColorFactor":[0.0,0.0,0.0]},"KHR_materials_ior":{"ior":1.0}}}],"meshes":[{"name":"defaultobject","primitives":[{"mode":4,"material":1,"indices":2,"attributes":{"POSITION":0,"TEXCOORD_0":1}},{"mode":4,"material":2,"indices":5,"attributes":{"POSITION":3,"TEXCOORD_0":4}}]}],"nodes":[{"name":"tile_0527.obj","children":[1]},{"name":"defaultobject","mesh":0}],"samplers":[{},{}],"scenes":[{"nodes":[0]}],"textures":[{"source":0,"sampler":0},{"source":1,"sampler":1}],"scene":0}
