{"asset":{"version":"2.0","generator":"Open Asset Import Library (assimp v6.0.0)"},"extensionsUsed":["KHR_materials_specular","KHR_materials_volume","KHR_materials_ior","FB_ngon_encoding"],"accessors":[{"bufferView":0,"byteOffset":0,"componentType":5126,"count":3665,"type":"VEC3","max":[1.8851797580718994,-3.2338061332702637,1.663922667503357],"min":[2.2250738585072014e-308,-4.212235450744629,2.2250738585072014e-308]},{"bufferView":1,"byteOffset":0,"componentType":5126,"count":3665,"type":"VEC2","max":[0.9959011077880859,0.5887641906738281],"min":[2.2250738585072014e-308,2.2250738585072014e-308]},{"bufferView":2,"byteOffset":0,"componentType":5125,"count":15504,"type":"SCALAR","max":[3664],"min":[0]},{"bufferView":3,"byteOffset":0,"componentType":5126,"count":496,"type":"VEC3","max":[1.9119926691055298,-3.3881661891937256,1.7149680852890015],"min":[2.2250738585072014e-308,-4.078172206878662,2.2250738585072014e-308]},{"bufferView":4,"byteOffset":0,"componentType":5126,"count":496,"type":"VEC2","max":[0.9345149993896484,0.8118667602539062],"min":[2.2250738585072014e-308,2.2250738585072014e-308]},{"bufferView":5,"byteOffset":0,"componentType":5125,"count":2175,"type":"SCALAR","max":[495],"min":[0]}],"buffers":[{"byteLength":153936,"uri":"tile_0599.bin"}],"bufferViews":[{"buffer":0,"byteOffset":0,"byteLength":43980,"target":34962},{"buffer":0,"byteOffset":43980,"byteLength":29320,"target":34962},{"buffer":0,"byteOffset":73300,"byteLength":62016,"target":34963},{"buffer":0,"byteOffset":135316,"byteLength":5952,"target":34962},{"buffer":0,"byteOffset":141268,"byteLength":3968,"target":34962},{"buffer":0,"byteOffset":145236,"byteLength":8700,"target":34963}],"images":[{"uri":"../textures/tile_0599_material_0.jpg"},{"uri":"../textures/tile_0599_material_1.jpg"}],"materials":[{"name":"DefaultMaterial","pbrMetallicRoughness":{"baseColorFactor":[0.6000000238418579,0.6000000238418579,0.6000000238418579,1.0],"metallicFactor":0.0},"extensions":{"KHR_materials_specular":{"specularFactor":1.0,"specularColorFactor":[0.0,0.0,0.0]},"KHR_materials_ior":{"ior":1.0}}},{"name":"material_0_material","pbrMetallicRoughness":{"baseColorTexture":{"index":0},"metallicFactor":0.0},"extensions":{"KHR_materials_specular":{"specularFactor":1.0,"specularColorFactor":[0.0,0.0,0.0]},"KHR_materials_ior":{"ior":1.0}}},{"name":"material_1_material","pbrMetallicRoughness":{"baseColorTexture":{"index":1},"metallicFactor":0.0},"extensions":{"KHR_materials_specular":{"specularFactor":1.0,"specularColorFactor":[0.0,0.0,0.0]},"KHR_materials_ior":{"ior":1.0}}}],"meshes":[{"name":"defaultobject","primitives":[{"mode":4,"material":1,"indices":2,"attributes":{"POSITION":0,"TEXCOORD_0":1}},{"mode":4,"material":2,"indices":5,"attributes":{"POSITION":3,"TEXCOORD_0":4}}]}],"nodes":[{"name":"tile_0599.obj","children":[1]},{"name":"defaultobject","mesh":0}],"samplers":[{},{}],"scenes":[{"nodes":[0]}],"textures":[{"source":0,"sampler":0},{"source":1,"sampler":1}],"scene":0}
