{"asset":{"version":"2.0","generator":"Open Asset Import Library (assimp v6.0.0)"},"extensionsUsed":["KHR_materials_specular","KHR_materials_volume","KHR_materials_ior","FB_ngon_encoding"],"accessors":[{"bufferView":0,"byteOffset":0,"componentType":5126,"count":2472,"type":"VEC3","max":[2.7683451175689697,3.356509208679199,1.4845298528671265],"min":[2.2250738585072014e-308,2.2250738585072014e-308,2.2250738585072014e-308]},{"bufferView":1,"byteOffset":0,"componentType":5126,"count":2472,"type":"VEC2","max":[0.9833557605743408,0.7402114868164062],"min":[2.2250738585072014e-308,2.2250738585072014e-308]},{"bufferView":2,"byteOffset":0,"componentType":5125,"count":11172,"type":"SCALAR","max":[2471],"min":[0]},{"bufferView":3,"byteOffset":0,"componentType":5126,"count":948,"type":"VEC3","max":[2.718705892562866,3.3593082427978516,1.4777079820632935],"min":[2.2250738585072014e-308,2.2250738585072014e-308,2.2250738585072014e-308]},{"bufferView":4,"byteOffset":0,"componentType":5126,"count":948,"type":"VEC2","max":[0.8501777648925781,0.6347198486328125],"min":[2.2250738585072014e-308,2.2250738585072014e-308]},{"bufferView":5,"byteOffset":0,"componentType":5125,"count":4581,"type":"SCALAR","max":[947],"min":[0]}],"buffers":[{"byteLength":131412,"uri":"tile_0584.bin"}],"bufferViews":[{"buffer":0,"byteOffset":0,"byteLength":29664,"target":34962},{"buffer":0,"byteOffset":29664,"byteLength":19776,"target":34962},{"buffer":0,"byteOffset":49440,"byteLength":44688,"target":34963},{"buffer":0,"byteOffset":94128,"byteLength":11376,"target":34962},{"buffer":0,"byteOffset":105504,"byteLength":7584,"target":34962},{"buffer":0,"byteOffset":113088,"byteLength":18324,"target":34963}],"images":[{"uri":"../textures/tile_0584_material_0.jpg"},{"uri":"../textures/tile_0584_material_1.jpg"}],"materials":[{"name":"DefaultMaterial","pbrMetallicRoughness":{"baseColorFactor":[0.6000000238418579,0.6000000238418579,0.6000000238418579,1.0],"metallicFactor":0.0},"extensions":{"KHR_materials_specular":{"specularFactor":1.0,"specularColorFactor":[0.0,0.0,0.0]},"KHR_materials_ior":{"ior":1.0}}},{"name":"material_0_material","pbrMetallicRoughness":{"baseColorTexture":{"index":0},"metallicFactor":0.0},"extensions":{"KHR_materials_specular":{"specularFactor":1.0,"specularColorFactor":[0.0,0.0,0.0]},"KHR_materials_ior":{"ior":1.0}}},{"name":"material_1_material","pbrMetallicRoughness":{"baseColorTexture":{"index":1},"metallicFactor":0.0},"extensions":{"KHR_materials_specular":{"specularFactor":1.0,"specularColorFactor":[0.0,0.0,0.0]},"KHR_materials_ior":{"ior":1.0}}}],"meshes":[{"name":"defaultobject","primitives":[{"mode":4,"material":1,"indices":2,"attributes":{"POSITION":0,"TEXCOORD_0":1}},{"mode":4,"material":2,"indices":5,"attributes":{"POSITION":3,"TEXCOORD_0":4}}]}],"nodes":[{"name":"tile_0584.obj","children":[1]},{"name":"defaultobject","mesh":0}],"samplers":[{},{}],"scenes":[{"nodes":[0]}],"textures":[{"source":0,"sampler":0},{"source":1,"sampler":1}],"scene":0}
