{"asset":{"version":"2.0","generator":"Open Asset Import Library (assimp v6.0.0)"},"extensionsUsed":["KHR_materials_specular","KHR_materials_volume","KHR_materials_ior","FB_ngon_encoding"],"accessors":[{"bufferView":0,"byteOffset":0,"componentType":5126,"count":3635,"type":"VEC3","max":[0.3315508961677551,-0.30768850445747375,2.4063572883605957],"min":[-0.39661550521850586,-0.49456724524497986,2.2250738585072014e-308]},{"bufferView":1,"byteOffset":0,"componentType":5126,"count":3635,"type":"VEC2","max":[0.9959366321563721,0.9334449768066406],"min":[2.2250738585072014e-308,2.2250738585072014e-308]},{"bufferView":2,"byteOffset":0,"componentType":5125,"count":15786,"type":"SCALAR","max":[3634],"min":[0]},{"bufferView":3,"byteOffset":0,"componentType":5126,"count":1248,"type":"VEC3","max":[0.30929800868034363,-0.3289048373699188,2.396191120147705],"min":[-0.3924812078475952,-0.44216659665107727,2.2250738585072014e-308]},{"bufferView":4,"byteOffset":0,"componentType":5126,"count":1248,"type":"VEC2","max":[0.9616200923919678,0.9509506225585938],"min":[2.2250738585072014e-308,2.2250738585072014e-308]},{"bufferView":5,"byteOffset":0,"componentType":5125,"count":5949,"type":"SCALAR","max":[1247],"min":[0]}],"buffers":[{"byteLength":184600,"uri":"tile_0396.bin"}],"bufferViews":[{"buffer":0,"byteOffset":0,"byteLength":43620,"target":34962},{"buffer":0,"byteOffset":43620,"byteLength":29080,"target":34962},{"buffer":0,"byteOffset":72700,"byteLength":63144,"target":34963},{"buffer":0,"byteOffset":135844,"byteLength":14976,"target":34962},{"buffer":0,"byteOffset":150820,"byteLength":9984,"target":34962},{"buffer":0,"byteOffset":160804,"byteLength":23796,"target":34963}],"images":[{"uri":"../textures/tile_0396_material_0.jpg"},{"uri":"../textures/tile_0396_material_1.jpg"}],"materials":[{"name":"DefaultMaterial","pbrMetallicRoughness":{"baseColorFactor":[0.6000000238418579,0.6000000238418579,0.6000000238418579,1.0],"metallicFactor":0.0},"extensions":{"KHR_materials_specular":{"specularFactor":1.0,"specularColorFactor":[0.0,0.0,0.0]},"KHR_materials_ior":{"ior":1.0}}},{"name":"material_0_material","pbrMetallicRoughness":{"baseColorTexture":{"index":0},"metallicFactor":0.0},"extensions":{"KHR_materials_specular":{"specularFactor":1.0,"specularColorFactor":[0.0,0.0,0.0]},"KHR_materials_ior":{"ior":1.0}}},{"name":"material_1_material","pbrMetallicRoughness":{"baseColorTexture":{"index":1},"metallicFactor":0.0},"extensions":{"KHR_materials_specular":{"specularFactor":1.0,"specularColorFactor":[0.0,0.0,0.0]},"KHR_materials_ior":{"ior":1.0}}}],"meshes":[{"name":"defaultobject","primitives":[{"mode":4,"material":1,"indices":2,"attributes":{"POSITION":0,"TEXCOORD_0":1}},{"mode":4,"material":2,"indices":5,"attributes":{"POSITION":3,"TEXCOORD_0":4}}]}],"nodes":[{"name":"tile_0396.obj","children":[1]},{"name":"defaultobject","mesh":0}],"samplers":[{},{}],"scenes":[{"nodes":[0]}],"textures":[{"source":0,"sampler":0},{"source":1,"sampler":1}],"scene":0}
