{"asset":{"version":"2.0","generator":"Open Asset Import Library (assimp v6.0.0)"},"extensionsUsed":["KHR_materials_specular","KHR_materials_volume","KHR_materials_ior","FB_ngon_encoding"],"accessors":[{"bufferView":0,"byteOffset":0,"componentType":5126,"count":12954,"type":"VEC3","max":[3.4761691093444824,0.4768054485321045,0.2298613041639328],"min":[2.2250738585072014e-308,2.2250738585072014e-308,2.2250738585072014e-308]},{"bufferView":1,"byteOffset":0,"componentType":5126,"count":12954,"type":"VEC2","max":[0.9934340715408325,0.6620702743530273],"min":[2.2250738585072014e-308,2.2250738585072014e-308]},{"bufferView":2,"byteOffset":0,"componentType":5125,"count":53730,"type":"SCALAR","max":[12953],"min":[0]},{"bufferView":3,"byteOffset":0,"componentType":5126,"count":420,"type":"VEC3","max":[3.326228618621826,0.47694632411003113,0.22806620597839355],"min":[2.2250738585072014e-308,2.2250738585072014e-308,2.2250738585072014e-308]},{"bufferView":4,"byteOffset":0,"componentType":5126,"count":420,"type":"VEC2","max":[0.7862865924835205,0.5417938232421875],"min":[2.2250738585072014e-308,2.2250738585072014e-308]},{"bufferView":5,"byteOffset":0,"componentType":5125,"count":2085,"type":"SCALAR","max":[419],"min":[0]}],"buffers":[{"byteLength":490740,"uri":"tile_0498.bin"}],"bufferViews":[{"buffer":0,"byteOffset":0,"byteLength":155448,"target":34962},{"buffer":0,"byteOffset":155448,"byteLength":103632,"target":34962},{"buffer":0,"byteOffset":259080,"byteLength":214920,"target":34963},{"buffer":0,"byteOffset":474000,"byteLength":5040,"target":34962},{"buffer":0,"byteOffset":479040,"byteLength":3360,"target":34962},{"buffer":0,"byteOffset":482400,"byteLength":8340,"target":34963}],"images":[{"uri":"../textures/tile_0498_material_0.jpg"},{"uri":"../textures/tile_0498_material_1.jpg"}],"materials":[{"name":"DefaultMaterial","pbrMetallicRoughness":{"baseColorFactor":[0.6000000238418579,0.6000000238418579,0.6000000238418579,1.0],"metallicFactor":0.0},"extensions":{"KHR_materials_specular":{"specularFactor":1.0,"specularColorFactor":[0.0,0.0,0.0]},"KHR_materials_ior":{"ior":1.0}}},{"name":"material_0_material","pbrMetallicRoughness":{"baseColorTexture":{"index":0},"metallicFactor":0.0},"extensions":{"KHR_materials_specular":{"specularFactor":1.0,"specularColorFactor":[0.0,0.0,0.0]},"KHR_materials_ior":{"ior":1.0}}},{"name":"material_1_material","pbrMetallicRoughness":{"baseColorTexture":{"index":1},"metallicFactor":0.0},"extensions":{"KHR_materials_specular":{"specularFactor":1.0,"specularColorFactor":[0.0,0.0,0.0]},"KHR_materials_ior":{"ior":1.0}}}],"meshes":[{"name":"defaultobject","primitives":[{"mode":4,"material":1,"indices":2,"attributes":{"POSITION":0,"TEXCOORD_0":1}},{"mode":4,"material":2,"indices":5,"attributes":{"POSITION":3,"TEXCOORD_0":4}}]}],"nodes":[{"name":"tile_0498.obj","children":[1]},{"name":"defaultobject","mesh":0}],"samplers":[{},{}],"scenes":[{"nodes":[0]}],"textures":[{"source":0,"sampler":0},{"source":1,"sampler":1}],"scene":0}
