{"asset":{"version":"2.0","generator":"Open Asset Import Library (assimp v6.0.0)"},"extensionsUsed":["KHR_materials_specular","KHR_materials_volume","KHR_materials_ior","FB_ngon_encoding"],"accessors":[{"bufferView":0,"byteOffset":0,"componentType":5126,"count":4499,"type":"VEC3","max":[3.421260118484497,-0.0723155066370964,0.043568242341279984],"min":[2.2250738585072014e-308,-0.1844143271446228,-0.012186460196971893]},{"bufferView":1,"byteOffset":0,"componentType":5126,"count":4499,"type":"VEC2","max":[0.9930466413497925,0.5351524353027344],"min":[2.2250738585072014e-308,2.2250738585072014e-308]},{"bufferView":2,"byteOffset":0,"componentType":5125,"count":16095,"type":"SCALAR","max":[4498],"min":[0]},{"bufferView":3,"byteOffset":0,"componentType":5126,"count":217,"type":"VEC3","max":[3.1094038486480713,-0.07066661864519119,0.03972350060939789],"min":[2.2250738585072014e-308,-0.15119285881519318,-0.0033806152641773224]},{"bufferView":4,"byteOffset":0,"componentType":5126,"count":217,"type":"VEC2","max":[0.4759674072265625,0.6297225952148438],"min":[2.2250738585072014e-308,2.2250738585072014e-308]},{"bufferView":5,"byteOffset":0,"componentType":5125,"count":1008,"type":"SCALAR","max":[216],"min":[0]}],"buffers":[{"byteLength":162732,"uri":"tile_0495.bin"}],"bufferViews":[{"buffer":0,"byteOffset":0,"byteLength":53988,"target":34962},{"buffer":0,"byteOffset":53988,"byteLength":35992,"target":34962},{"buffer":0,"byteOffset":89980,"byteLength":64380,"target":34963},{"buffer":0,"byteOffset":154360,"byteLength":2604,"target":34962},{"buffer":0,"byteOffset":156964,"byteLength":1736,"target":34962},{"buffer":0,"byteOffset":158700,"byteLength":4032,"target":34963}],"images":[{"uri":"../textures/tile_0495_material_0.jpg"},{"uri":"../textures/tile_0495_material_1.jpg"}],"materials":[{"name":"DefaultMaterial","pbrMetallicRoughness":{"baseColorFactor":[0.6000000238418579,0.6000000238418579,0.6000000238418579,1.0],"metallicFactor":0.0},"extensions":{"KHR_materials_specular":{"specularFactor":1.0,"specularColorFactor":[0.0,0.0,0.0]},"KHR_materials_ior":{"ior":1.0}}},{"name":"material_0_material","pbrMetallicRoughness":{"baseColorTexture":{"index":0},"metallicFactor":0.0},"extensions":{"KHR_materials_specular":{"specularFactor":1.0,"specularColorFactor":[0.0,0.0,0.0]},"KHR_materials_ior":{"ior":1.0}}},{"name":"material_1_material","pbrMetallicRoughness":{"baseColorTexture":{"index":1},"metallicFactor":0.0},"extensions":{"KHR_materials_specular":{"specularFactor":1.0,"specularColorFactor":[0.0,0.0,0.0]},"KHR_materials_ior":{"ior":1.0}}}],"meshes":[{"name":"defaultobject","primitives":[{"mode":4,"material":1,"indices":2,"attributes":{"POSITION":0,"TEXCOORD_0":1}},{"mode":4,"material":2,"indices":5,"attributes":{"POSITION":3,"TEXCOORD_0":4}}]}],"nodes":[{"name":"tile_0495.obj","children":[1]},{"name":"defaultobject","mesh":0}],"samplers":[{},{}],"scenes":[{"nodes":[0]}],"textures":[{"source":0,"sampler":0},{"source":1,"sampler":1}],"scene":0}
