{"asset":{"version":"2.0","generator":"Open Asset Import Library (assimp v6.0.0)"},"extensionsUsed":["KHR_materials_specular","KHR_materials_volume","KHR_materials_ior","FB_ngon_encoding"],"accessors":[{"bufferView":0,"byteOffset":0,"componentType":5126,"count":9328,"type":"VEC3","max":[2.9214859008789062,-1.5812678337097168,2.0382957458496094],"min":[-0.046194132417440414,-1.7379705905914307,2.2250738585072014e-308]},{"bufferView":1,"byteOffset":0,"componentType":5126,"count":9328,"type":"VEC2","max":[0.9948554039001465,0.5390310287475586],"min":[2.2250738585072014e-308,2.2250738585072014e-308]},{"bufferView":2,"byteOffset":0,"componentType":5125,"count":43248,"type":"SCALAR","max":[9327],"min":[0]}],"buffers":[{"byteLength":359552,"uri":"tile_0029.bin"}],"bufferViews":[{"buffer":0,"byteOffset":0,"byteLength":111936,"target":34962},{"buffer":0,"byteOffset":111936,"byteLength":74624,"target":34962},{"buffer":0,"byteOffset":186560,"byteLength":172992,"target":34963}],"images":[{"uri":"../textures/tile_0029_material_0.jpg"}],"materials":[{"name":"DefaultMaterial","pbrMetallicRoughness":{"baseColorFactor":[0.6000000238418579,0.6000000238418579,0.6000000238418579,1.0],"metallicFactor":0.0},"extensions":{"KHR_materials_specular":{"specularFactor":1.0,"specularColorFactor":[0.0,0.0,0.0]},"KHR_materials_ior":{"ior":1.0}}},{"name":"material_0_material","pbrMetallicRoughness":{"baseColorTexture":{"index":0},"metallicFactor":0.0},"extensions":{"KHR_materials_specular":{"specularFactor":1.0,"specularColorFactor":[0.0,0.0,0.0]},"KHR_materials_ior":{"ior":1.0}}},{"name":"material_1_material","pbrMetallicRoughness":{"metallicFactor":0.0},"extensions":{"KHR_materials_specular":{"specularFactor":1.0,"specularColorFactor":[0.0,0.0,0.0]},"KHR_materials_ior":{"ior":1.0}}}],"meshes":[{"name":"defaultobject","primitives":[{"mode":4,"material":1,"indices":2,"attributes":{"POSITION":0,"TEXCOORD_0":1}}]}],"nodes":[{"name":"tile_0029.obj","children":[1]},{"name":"defaultobject","mesh":0}],"samplers":[{}],"scenes":[{"nodes":[0]}],"textures":[{"source":0,"sampler":0}],"scene":0}
