{"asset":{"version":"2.0","generator":"Open Asset Import Library (assimp v6.0.0)"},"extensionsUsed":["KHR_materials_specular","KHR_materials_volume","KHR_materials_ior","FB_ngon_encoding"],"accessors":[{"bufferView":0,"byteOffset":0,"componentType":5126,"count":15494,"type":"VEC3","max":[3.4482038021087646,-0.7431125640869141,0.2847197353839874],"min":[2.2250738585072014e-308,-1.4575202465057373,-1.828307867050171]},{"bufferView":1,"byteOffset":0,"componentType":5126,"count":15494,"type":"VEC2","max":[0.9921762943267822,0.9432668685913086],"min":[2.2250738585072014e-308,2.2250738585072014e-308]},{"bufferView":2,"byteOffset":0,"componentType":5125,"count":74682,"type":"SCALAR","max":[15493],"min":[0]}],"buffers":[{"byteLength":608608,"uri":"tile_0011.bin"}],"bufferViews":[{"buffer":0,"byteOffset":0,"byteLength":185928,"target":34962},{"buffer":0,"byteOffset":185928,"byteLength":123952,"target":34962},{"buffer":0,"byteOffset":309880,"byteLength":298728,"target":34963}],"images":[{"uri":"../textures/tile_0011_material_0.jpg"}],"materials":[{"name":"DefaultMaterial","pbrMetallicRoughness":{"baseColorFactor":[0.6000000238418579,0.6000000238418579,0.6000000238418579,1.0],"metallicFactor":0.0},"extensions":{"KHR_materials_specular":{"specularFactor":1.0,"specularColorFactor":[0.0,0.0,0.0]},"KHR_materials_ior":{"ior":1.0}}},{"name":"material_0_material","pbrMetallicRoughness":{"baseColorTexture":{"index":0},"metallicFactor":0.0},"extensions":{"KHR_materials_specular":{"specularFactor":1.0,"specularColorFactor":[0.0,0.0,0.0]},"KHR_materials_ior":{"ior":1.0}}},{"name":"material_1_material","pbrMetallicRoughness":{"metallicFactor":0.0},"extensions":{"KHR_materials_specular":{"specularFactor":1.0,"specularColorFactor":[0.0,0.0,0.0]},"KHR_materials_ior":{"ior":1.0}}}],"meshes":[{"name":"defaultobject","primitives":[{"mode":4,"material":1,"indices":2,"attributes":{"POSITION":0,"TEXCOORD_0":1}}]}],"nodes":[{"name":"tile_0011.obj","children":[1]},{"name":"defaultobject","mesh":0}],"samplers":[{}],"scenes":[{"nodes":[0]}],"textures":[{"source":0,"sampler":0}],"scene":0}
