{"asset":{"version":"2.0","generator":"Open Asset Import Library (assimp v6.0.0)"},"extensionsUsed":["KHR_materials_specular","KHR_materials_volume","KHR_materials_ior","FB_ngon_encoding"],"accessors":[{"bufferView":0,"byteOffset":0,"componentType":5126,"count":12231,"type":"VEC3","max":[2.0206236839294434,7.827228546142578,1.4055938720703125],"min":[2.2250738585072014e-308,2.2250738585072014e-308,2.2250738585072014e-308]},{"bufferView":1,"byteOffset":0,"componentType":5126,"count":12231,"type":"VEC2","max":[0.993596076965332,0.5215964317321777],"min":[2.2250738585072014e-308,2.2250738585072014e-308]},{"bufferView":2,"byteOffset":0,"componentType":5125,"count":56205,"type":"SCALAR","max":[12230],"min":[0]},{"bufferView":3,"byteOffset":0,"componentType":5126,"count":34,"type":"VEC3","max":[1.0821468830108643,3.4089102745056152,1.3528063297271729],"min":[2.2250738585072014e-308,2.2250738585072014e-308,2.2250738585072014e-308]},{"bufferView":4,"byteOffset":0,"componentType":5126,"count":34,"type":"VEC2","max":[0.7848504781723022,0.5707263946533203],"min":[2.2250738585072014e-308,2.2250738585072014e-308]},{"bufferView":5,"byteOffset":0,"componentType":5125,"count":132,"type":"SCALAR","max":[33],"min":[0]}],"buffers":[{"byteLength":470648,"uri":"tile_0083.bin"}],"bufferViews":[{"buffer":0,"byteOffset":0,"byteLength":146772,"target":34962},{"buffer":0,"byteOffset":146772,"byteLength":97848,"target":34962},{"buffer":0,"byteOffset":244620,"byteLength":224820,"target":34963},{"buffer":0,"byteOffset":469440,"byteLength":408,"target":34962},{"buffer":0,"byteOffset":469848,"byteLength":272,"target":34962},{"buffer":0,"byteOffset":470120,"byteLength":528,"target":34963}],"images":[{"uri":"../textures/tile_0083_material_0.jpg"},{"uri":"../textures/tile_0083_material_1.jpg"}],"materials":[{"name":"DefaultMaterial","pbrMetallicRoughness":{"baseColorFactor":[0.6000000238418579,0.6000000238418579,0.6000000238418579,1.0],"metallicFactor":0.0},"extensions":{"KHR_materials_specular":{"specularFactor":1.0,"specularColorFactor":[0.0,0.0,0.0]},"KHR_materials_ior":{"ior":1.0}}},{"name":"material_0_material","pbrMetallicRoughness":{"baseColorTexture":{"index":0},"metallicFactor":0.0},"extensions":{"KHR_materials_specular":{"specularFactor":1.0,"specularColorFactor":[0.0,0.0,0.0]},"KHR_materials_ior":{"ior":1.0}}},{"name":"material_1_material","pbrMetallicRoughness":{"baseColorTexture":{"index":1},"metallicFactor":0.0},"extensions":{"KHR_materials_specular":{"specularFactor":1.0,"specularColorFactor":[0.0,0.0,0.0]},"KHR_materials_ior":{"ior":1.0}}}],"meshes":[{"name":"defaultobject","primitives":[{"mode":4,"material":1,"indices":2,"attributes":{"POSITION":0,"TEXCOORD_0":1}},{"mode":4,"material":2,"indices":5,"attributes":{"POSITION":3,"TEXCOORD_0":4}}]}],"nodes":[{"name":"tile_0083.obj","children":[1]},{"name":"defaultobject","mesh":0}],"samplers":[{},{}],"scenes":[{"nodes":[0]}],"textures":[{"source":0,"sampler":0},{"source":1,"sampler":1}],"scene":0}
