{"asset":{"version":"2.0","generator":"Open Asset Import Library (assimp v6.0.0)"},"extensionsUsed":["KHR_materials_specular","KHR_materials_volume","KHR_materials_ior","FB_ngon_encoding"],"accessors":[{"bufferView":0,"byteOffset":0,"componentType":5126,"count":11155,"type":"VEC3","max":[2.694972276687622,-1.1961324214935303,1.7448865175247192],"min":[-0.7201529741287231,-1.5037004947662354,2.2250738585072014e-308]},{"bufferView":1,"byteOffset":0,"componentType":5126,"count":11155,"type":"VEC2","max":[0.9874300956726074,0.8885593414306641],"min":[2.2250738585072014e-308,2.2250738585072014e-308]},{"bufferView":2,"byteOffset":0,"componentType":5125,"count":52014,"type":"SCALAR","max":[11154],"min":[0]}],"buffers":[{"byteLength":431156,"uri":"tile_0174.bin"}],"bufferViews":[{"buffer":0,"byteOffset":0,"byteLength":133860,"target":34962},{"buffer":0,"byteOffset":133860,"byteLength":89240,"target":34962},{"buffer":0,"byteOffset":223100,"byteLength":208056,"target":34963}],"images":[{"uri":"../textures/tile_0174_material_0.jpg"}],"materials":[{"name":"DefaultMaterial","pbrMetallicRoughness":{"baseColorFactor":[0.6000000238418579,0.6000000238418579,0.6000000238418579,1.0],"metallicFactor":0.0},"extensions":{"KHR_materials_specular":{"specularFactor":1.0,"specularColorFactor":[0.0,0.0,0.0]},"KHR_materials_ior":{"ior":1.0}}},{"name":"material_0_material","pbrMetallicRoughness":{"baseColorTexture":{"index":0},"metallicFactor":0.0},"extensions":{"KHR_materials_specular":{"specularFactor":1.0,"specularColorFactor":[0.0,0.0,0.0]},"KHR_materials_ior":{"ior":1.0}}},{"name":"material_1_material","pbrMetallicRoughness":{"metallicFactor":0.0},"extensions":{"KHR_materials_specular":{"specularFactor":1.0,"specularColorFactor":[0.0,0.0,0.0]},"KHR_materials_ior":{"ior":1.0}}}],"meshes":[{"name":"defaultobject","primitives":[{"mode":4,"material":1,"indices":2,"attributes":{"POSITION":0,"TEXCOORD_0":1}}]}],"nodes":[{"name":"tile_0174.obj","children":[1]},{"name":"defaultobject","mesh":0}],"samplers":[{}],"scenes":[{"nodes":[0]}],"textures":[{"source":0,"sampler":0}],"scene":0}
