{"asset":{"version":"2.0","generator":"Open Asset Import Library (assimp v6.0.0)"},"extensionsUsed":["KHR_materials_specular","KHR_materials_volume","KHR_materials_ior","FB_ngon_encoding"],"accessors":[{"bufferView":0,"byteOffset":0,"componentType":5126,"count":9585,"type":"VEC3","max":[2.8274176120758057,-0.6035370230674744,0.9618820548057556],"min":[-0.7152337431907654,-0.8203843235969543,2.2250738585072014e-308]},{"bufferView":1,"byteOffset":0,"componentType":5126,"count":9585,"type":"VEC2","max":[0.9893226623535156,0.5174846649169922],"min":[2.2250738585072014e-308,2.2250738585072014e-308]},{"bufferView":2,"byteOffset":0,"componentType":5125,"count":42447,"type":"SCALAR","max":[9584],"min":[0]}],"buffers":[{"byteLength":361488,"uri":"tile_0123.bin"}],"bufferViews":[{"buffer":0,"byteOffset":0,"byteLength":115020,"target":34962},{"buffer":0,"byteOffset":115020,"byteLength":76680,"target":34962},{"buffer":0,"byteOffset":191700,"byteLength":169788,"target":34963}],"images":[{"uri":"../textures/tile_0123_material_0.jpg"}],"materials":[{"name":"DefaultMaterial","pbrMetallicRoughness":{"baseColorFactor":[0.6000000238418579,0.6000000238418579,0.6000000238418579,1.0],"metallicFactor":0.0},"extensions":{"KHR_materials_specular":{"specularFactor":1.0,"specularColorFactor":[0.0,0.0,0.0]},"KHR_materials_ior":{"ior":1.0}}},{"name":"material_0_material","pbrMetallicRoughness":{"baseColorTexture":{"index":0},"metallicFactor":0.0},"extensions":{"KHR_materials_specular":{"specularFactor":1.0,"specularColorFactor":[0.0,0.0,0.0]},"KHR_materials_ior":{"ior":1.0}}},{"name":"material_1_material","pbrMetallicRoughness":{"metallicFactor":0.0},"extensions":{"KHR_materials_specular":{"specularFactor":1.0,"specularColorFactor":[0.0,0.0,0.0]},"KHR_materials_ior":{"ior":1.0}}}],"meshes":[{"name":"defaultobject","primitives":[{"mode":4,"material":1,"indices":2,"attributes":{"POSITION":0,"TEXCOORD_0":1}}]}],"nodes":[{"name":"tile_0123.obj","children":[1]},{"name":"defaultobject","mesh":0}],"samplers":[{}],"scenes":[{"nodes":[0]}],"textures":[{"source":0,"sampler":0}],"scene":0}
