{"asset":{"version":"2.0","generator":"Open Asset Import Library (assimp v6.0.0)"},"extensionsUsed":["KHR_materials_specular","KHR_materials_volume","KHR_materials_ior","FB_ngon_encoding"],"accessors":[{"bufferView":0,"byteOffset":0,"componentType":5126,"count":9085,"type":"VEC3","max":[2.8936073780059814,-0.7937936782836914,1.5397001504898071],"min":[-0.8979476690292358,-1.1200822591781616,2.2250738585072014e-308]},{"bufferView":1,"byteOffset":0,"componentType":5126,"count":9085,"type":"VEC2","max":[0.9956173896789551,0.7791872024536133],"min":[2.2250738585072014e-308,2.2250738585072014e-308]},{"bufferView":2,"byteOffset":0,"componentType":5125,"count":40629,"type":"SCALAR","max":[9084],"min":[0]}],"buffers":[{"byteLength":344216,"uri":"tile_0169.bin"}],"bufferViews":[{"buffer":0,"byteOffset":0,"byteLength":109020,"target":34962},{"buffer":0,"byteOffset":109020,"byteLength":72680,"target":34962},{"buffer":0,"byteOffset":181700,"byteLength":162516,"target":34963}],"images":[{"uri":"../textures/tile_0169_material_0.jpg"}],"materials":[{"name":"DefaultMaterial","pbrMetallicRoughness":{"baseColorFactor":[0.6000000238418579,0.6000000238418579,0.6000000238418579,1.0],"metallicFactor":0.0},"extensions":{"KHR_materials_specular":{"specularFactor":1.0,"specularColorFactor":[0.0,0.0,0.0]},"KHR_materials_ior":{"ior":1.0}}},{"name":"material_0_material","pbrMetallicRoughness":{"baseColorTexture":{"index":0},"metallicFactor":0.0},"extensions":{"KHR_materials_specular":{"specularFactor":1.0,"specularColorFactor":[0.0,0.0,0.0]},"KHR_materials_ior":{"ior":1.0}}},{"name":"material_1_material","pbrMetallicRoughness":{"metallicFactor":0.0},"extensions":{"KHR_materials_specular":{"specularFactor":1.0,"specularColorFactor":[0.0,0.0,0.0]},"KHR_materials_ior":{"ior":1.0}}}],"meshes":[{"name":"defaultobject","primitives":[{"mode":4,"material":1,"indices":2,"attributes":{"POSITION":0,"TEXCOORD_0":1}}]}],"nodes":[{"name":"tile_0169.obj","children":[1]},{"name":"defaultobject","mesh":0}],"samplers":[{}],"scenes":[{"nodes":[0]}],"textures":[{"source":0,"sampler":0}],"scene":0}
