{"asset":{"version":"2.0","generator":"Open Asset Import Library (assimp v6.0.0)"},"extensionsUsed":["KHR_materials_specular","KHR_materials_volume","KHR_materials_ior","FB_ngon_encoding"],"accessors":[{"bufferView":0,"byteOffset":0,"componentType":5126,"count":7090,"type":"VEC3","max":[2.9737112522125244,-0.23465146124362946,0.9783416390419006],"min":[-0.8248252272605896,-0.6380387544631958,2.2250738585072014e-308]},{"bufferView":1,"byteOffset":0,"componentType":5126,"count":7090,"type":"VEC2","max":[0.9950757026672363,0.6132469177246094],"min":[2.2250738585072014e-308,2.2250738585072014e-308]},{"bufferView":2,"byteOffset":0,"componentType":5125,"count":31278,"type":"SCALAR","max":[7089],"min":[0]}],"buffers":[{"byteLength":266912,"uri":"tile_0167.bin"}],"bufferViews":[{"buffer":0,"byteOffset":0,"byteLength":85080,"target":34962},{"buffer":0,"byteOffset":85080,"byteLength":56720,"target":34962},{"buffer":0,"byteOffset":141800,"byteLength":125112,"target":34963}],"images":[{"uri":"../textures/tile_0167_material_0.jpg"}],"materials":[{"name":"DefaultMaterial","pbrMetallicRoughness":{"baseColorFactor":[0.6000000238418579,0.6000000238418579,0.6000000238418579,1.0],"metallicFactor":0.0},"extensions":{"KHR_materials_specular":{"specularFactor":1.0,"specularColorFactor":[0.0,0.0,0.0]},"KHR_materials_ior":{"ior":1.0}}},{"name":"material_0_material","pbrMetallicRoughness":{"baseColorTexture":{"index":0},"metallicFactor":0.0},"extensions":{"KHR_materials_specular":{"specularFactor":1.0,"specularColorFactor":[0.0,0.0,0.0]},"KHR_materials_ior":{"ior":1.0}}},{"name":"material_1_material","pbrMetallicRoughness":{"metallicFactor":0.0},"extensions":{"KHR_materials_specular":{"specularFactor":1.0,"specularColorFactor":[0.0,0.0,0.0]},"KHR_materials_ior":{"ior":1.0}}}],"meshes":[{"name":"defaultobject","primitives":[{"mode":4,"material":1,"indices":2,"attributes":{"POSITION":0,"TEXCOORD_0":1}}]}],"nodes":[{"name":"tile_0167.obj","children":[1]},{"name":"defaultobject","mesh":0}],"samplers":[{}],"scenes":[{"nodes":[0]}],"textures":[{"source":0,"sampler":0}],"scene":0}
