{"asset":{"version":"2.0","generator":"Open Asset Import Library (assimp v6.0.0)"},"extensionsUsed":["KHR_materials_specular","KHR_materials_volume","KHR_materials_ior","FB_ngon_encoding"],"accessors":[{"bufferView":0,"byteOffset":0,"componentType":5126,"count":11710,"type":"VEC3","max":[3.396548271179199,-3.4626665115356445,2.657825231552124],"min":[2.2250738585072014e-308,-5.5127458572387695,2.2250738585072014e-308]},{"bufferView":1,"byteOffset":0,"componentType":5126,"count":11710,"type":"VEC2","max":[0.9949607849121094,0.894434928894043],"min":[2.2250738585072014e-308,2.2250738585072014e-308]},{"bufferView":2,"byteOffset":0,"componentType":5125,"count":52896,"type":"SCALAR","max":[11709],"min":[0]}],"buffers":[{"byteLength":445784,"uri":"tile_0296.bin"}],"bufferViews":[{"buffer":0,"byteOffset":0,"byteLength":140520,"target":34962},{"buffer":0,"byteOffset":140520,"byteLength":93680,"target":34962},{"buffer":0,"byteOffset":234200,"byteLength":211584,"target":34963}],"images":[{"uri":"../textures/tile_0296_material_0.jpg"}],"materials":[{"name":"DefaultMaterial","pbrMetallicRoughness":{"baseColorFactor":[0.6000000238418579,0.6000000238418579,0.6000000238418579,1.0],"metallicFactor":0.0},"extensions":{"KHR_materials_specular":{"specularFactor":1.0,"specularColorFactor":[0.0,0.0,0.0]},"KHR_materials_ior":{"ior":1.0}}},{"name":"material_0_material","pbrMetallicRoughness":{"baseColorTexture":{"index":0},"metallicFactor":0.0},"extensions":{"KHR_materials_specular":{"specularFactor":1.0,"specularColorFactor":[0.0,0.0,0.0]},"KHR_materials_ior":{"ior":1.0}}},{"name":"material_1_material","pbrMetallicRoughness":{"metallicFactor":0.0},"extensions":{"KHR_materials_specular":{"specularFactor":1.0,"specularColorFactor":[0.0,0.0,0.0]},"KHR_materials_ior":{"ior":1.0}}}],"meshes":[{"name":"defaultobject","primitives":[{"mode":4,"material":1,"indices":2,"attributes":{"POSITION":0,"TEXCOORD_0":1}}]}],"nodes":[{"name":"tile_0296.obj","children":[1]},{"name":"defaultobject","mesh":0}],"samplers":[{}],"scenes":[{"nodes":[0]}],"textures":[{"source":0,"sampler":0}],"scene":0}
