{"asset":{"version":"2.0","generator":"Open Asset Import Library (assimp v6.0.0)"},"extensionsUsed":["KHR_materials_specular","KHR_materials_volume","KHR_materials_ior","FB_ngon_encoding"],"accessors":[{"bufferView":0,"byteOffset":0,"componentType":5126,"count":10632,"type":"VEC3","max":[0.23446966707706451,-0.40053877234458923,2.8106114864349365],"min":[-0.42633017897605896,-0.7436763048171997,2.2250738585072014e-308]},{"bufferView":1,"byteOffset":0,"componentType":5126,"count":10632,"type":"VEC2","max":[0.9954156875610352,0.5741291046142578],"min":[2.2250738585072014e-308,2.2250738585072014e-308]},{"bufferView":2,"byteOffset":0,"componentType":5125,"count":48975,"type":"SCALAR","max":[10631],"min":[0]},{"bufferView":3,"byteOffset":0,"componentType":5126,"count":4004,"type":"VEC3","max":[0.23739542067050934,-0.4354557394981384,2.8092005252838135],"min":[-0.42581266164779663,-0.7197345495223999,2.2250738585072014e-308]},{"bufferView":4,"byteOffset":0,"componentType":5126,"count":4004,"type":"VEC2","max":[0.8375086784362793,0.5541191101074219],"min":[2.2250738585072014e-308,2.2250738585072014e-308]},{"bufferView":5,"byteOffset":0,"componentType":5125,"count":20811,"type":"SCALAR","max":[4003],"min":[0]}],"buffers":[{"byteLength":571864,"uri":"tile_0047.bin"}],"bufferViews":[{"buffer":0,"byteOffset":0,"byteLength":127584,"target":34962},{"buffer":0,"byteOffset":127584,"byteLength":85056,"target":34962},{"buffer":0,"byteOffset":212640,"byteLength":195900,"target":34963},{"buffer":0,"byteOffset":408540,"byteLength":48048,"target":34962},{"buffer":0,"byteOffset":456588,"byteLength":32032,"target":34962},{"buffer":0,"byteOffset":488620,"byteLength":83244,"target":34963}],"images":[{"uri":"../textures/tile_0047_material_0.jpg"},{"uri":"../textures/tile_0047_material_1.jpg"}],"materials":[{"name":"DefaultMaterial","pbrMetallicRoughness":{"baseColorFactor":[0.6000000238418579,0.6000000238418579,0.6000000238418579,1.0],"metallicFactor":0.0},"extensions":{"KHR_materials_specular":{"specularFactor":1.0,"specularColorFactor":[0.0,0.0,0.0]},"KHR_materials_ior":{"ior":1.0}}},{"name":"material_0_material","pbrMetallicRoughness":{"baseColorTexture":{"index":0},"metallicFactor":0.0},"extensions":{"KHR_materials_specular":{"specularFactor":1.0,"specularColorFactor":[0.0,0.0,0.0]},"KHR_materials_ior":{"ior":1.0}}},{"name":"material_1_material","pbrMetallicRoughness":{"baseColorTexture":{"index":1},"metallicFactor":0.0},"extensions":{"KHR_materials_specular":{"specularFactor":1.0,"specularColorFactor":[0.0,0.0,0.0]},"KHR_materials_ior":{"ior":1.0}}}],"meshes":[{"name":"defaultobject","primitives":[{"mode":4,"material":1,"indices":2,"attributes":{"POSITION":0,"TEXCOORD_0":1}},{"mode":4,"material":2,"indices":5,"attributes":{"POSITION":3,"TEXCOORD_0":4}}]}],"nodes":[{"name":"tile_0047.obj","children":[1]},{"name":"defaultobject","mesh":0}],"samplers":[{},{}],"scenes":[{"nodes":[0]}],"textures":[{"source":0,"sampler":0},{"source":1,"sampler":1}],"scene":0}
