{"asset":{"version":"2.0","generator":"Open Asset Import Library (assimp v6.0.0)"},"extensionsUsed":["KHR_materials_specular","KHR_materials_volume","KHR_materials_ior","FB_ngon_encoding"],"accessors":[{"bufferView":0,"byteOffset":0,"componentType":5126,"count":4163,"type":"VEC3","max":[2.3217718601226807,-2.947812795639038,1.0703665018081665],"min":[2.2250738585072014e-308,-4.218294620513916,2.2250738585072014e-308]},{"bufferView":1,"byteOffset":0,"componentType":5126,"count":4163,"type":"VEC2","max":[0.9938199520111084,0.6352596282958984],"min":[2.2250738585072014e-308,2.2250738585072014e-308]},{"bufferView":2,"byteOffset":0,"componentType":5125,"count":17490,"type":"SCALAR","max":[4162],"min":[0]},{"bufferView":3,"byteOffset":0,"componentType":5126,"count":154,"type":"VEC3","max":[2.0776617527008057,-2.9487571716308594,1.09819495677948],"min":[2.2250738585072014e-308,-3.8588433265686035,2.2250738585072014e-308]},{"bufferView":4,"byteOffset":0,"componentType":5126,"count":154,"type":"VEC2","max":[0.599329948425293,0.8419570326805115],"min":[2.2250738585072014e-308,2.2250738585072014e-308]},{"bufferView":5,"byteOffset":0,"componentType":5125,"count":486,"type":"SCALAR","max":[153],"min":[0]}],"buffers":[{"byteLength":158244,"uri":"tile_0605.bin"}],"bufferViews":[{"buffer":0,"byteOffset":0,"byteLength":49956,"target":34962},{"buffer":0,"byteOffset":49956,"byteLength":33304,"target":34962},{"buffer":0,"byteOffset":83260,"byteLength":69960,"target":34963},{"buffer":0,"byteOffset":153220,"byteLength":1848,"target":34962},{"buffer":0,"byteOffset":155068,"byteLength":1232,"target":34962},{"buffer":0,"byteOffset":156300,"byteLength":1944,"target":34963}],"images":[{"uri":"../textures/tile_0605_material_0.jpg"},{"uri":"../textures/tile_0605_material_1.jpg"}],"materials":[{"name":"DefaultMaterial","pbrMetallicRoughness":{"baseColorFactor":[0.6000000238418579,0.6000000238418579,0.6000000238418579,1.0],"metallicFactor":0.0},"extensions":{"KHR_materials_specular":{"specularFactor":1.0,"specularColorFactor":[0.0,0.0,0.0]},"KHR_materials_ior":{"ior":1.0}}},{"name":"material_0_material","pbrMetallicRoughness":{"baseColorTexture":{"index":0},"metallicFactor":0.0},"extensions":{"KHR_materials_specular":{"specularFactor":1.0,"specularColorFactor":[0.0,0.0,0.0]},"KHR_materials_ior":{"ior":1.0}}},{"name":"material_1_material","pbrMetallicRoughness":{"baseColorTexture":{"index":1},"metallicFactor":0.0},"extensions":{"KHR_materials_specular":{"specularFactor":1.0,"specularColorFactor":[0.0,0.0,0.0]},"KHR_materials_ior":{"ior":1.0}}}],"meshes":[{"name":"defaultobject","primitives":[{"mode":4,"material":1,"indices":2,"attributes":{"POSITION":0,"TEXCOORD_0":1}},{"mode":4,"material":2,"indices":5,"attributes":{"POSITION":3,"TEXCOORD_0":4}}]}],"nodes":[{"name":"tile_0605.obj","children":[1]},{"name":"defaultobject","mesh":0}],"samplers":[{},{}],"scenes":[{"nodes":[0]}],"textures":[{"source":0,"sampler":0},{"source":1,"sampler":1}],"scene":0}
