{"asset":{"version":"2.0","generator":"Open Asset Import Library (assimp v6.0.0)"},"extensionsUsed":["KHR_materials_specular","KHR_materials_volume","KHR_materials_ior","FB_ngon_encoding"],"accessors":[{"bufferView":0,"byteOffset":0,"componentType":5126,"count":3753,"type":"VEC3","max":[3.1753056049346924,0.32021579146385193,0.6925046443939209],"min":[2.2250738585072014e-308,2.2250738585072014e-308,2.2250738585072014e-308]},{"bufferView":1,"byteOffset":0,"componentType":5126,"count":3753,"type":"VEC2","max":[0.9894952774047852,0.929656982421875],"min":[2.2250738585072014e-308,2.2250738585072014e-308]},{"bufferView":2,"byteOffset":0,"componentType":5125,"count":15420,"type":"SCALAR","max":[3752],"min":[0]},{"bufferView":3,"byteOffset":0,"componentType":5126,"count":920,"type":"VEC3","max":[3.1557693481445312,0.2682349383831024,0.6813642978668213],"min":[2.2250738585072014e-308,2.2250738585072014e-308,2.2250738585072014e-308]},{"bufferView":4,"byteOffset":0,"componentType":5126,"count":920,"type":"VEC2","max":[0.5003719329833984,0.6953163146972656],"min":[2.2250738585072014e-308,2.2250738585072014e-308]},{"bufferView":5,"byteOffset":0,"componentType":5125,"count":4467,"type":"SCALAR","max":[919],"min":[0]}],"buffers":[{"byteLength":173008,"uri":"tile_0084.bin"}],"bufferViews":[{"buffer":0,"byteOffset":0,"byteLength":45036,"target":34962},{"buffer":0,"byteOffset":45036,"byteLength":30024,"target":34962},{"buffer":0,"byteOffset":75060,"byteLength":61680,"target":34963},{"buffer":0,"byteOffset":136740,"byteLength":11040,"target":34962},{"buffer":0,"byteOffset":147780,"byteLength":7360,"target":34962},{"buffer":0,"byteOffset":155140,"byteLength":17868,"target":34963}],"images":[{"uri":"../textures/tile_0084_material_0.jpg"},{"uri":"../textures/tile_0084_material_1.jpg"}],"materials":[{"name":"DefaultMaterial","pbrMetallicRoughness":{"baseColorFactor":[0.6000000238418579,0.6000000238418579,0.6000000238418579,1.0],"metallicFactor":0.0},"extensions":{"KHR_materials_specular":{"specularFactor":1.0,"specularColorFactor":[0.0,0.0,0.0]},"KHR_materials_ior":{"ior":1.0}}},{"name":"material_0_material","pbrMetallicRoughness":{"baseColorTexture":{"index":0},"metallicFactor":0.0},"extensions":{"KHR_materials_specular":{"specularFactor":1.0,"specularColorFactor":[0.0,0.0,0.0]},"KHR_materials_ior":{"ior":1.0}}},{"name":"material_1_material","pbrMetallicRoughness":{"baseColorTexture":{"index":1},"metallicFactor":0.0},"extensions":{"KHR_materials_specular":{"specularFactor":1.0,"specularColorFactor":[0.0,0.0,0.0]},"KHR_materials_ior":{"ior":1.0}}}],"meshes":[{"name":"defaultobject","primitives":[{"mode":4,"material":1,"indices":2,"attributes":{"POSITION":0,"TEXCOORD_0":1}},{"mode":4,"material":2,"indices":5,"attributes":{"POSITION":3,"TEXCOORD_0":4}}]}],"nodes":[{"name":"tile_0084.obj","children":[1]},{"name":"defaultobject","mesh":0}],"samplers":[{},{}],"scenes":[{"nodes":[0]}],"textures":[{"source":0,"sampler":0},{"source":1,"sampler":1}],"scene":0}
