{"asset":{"version":"2.0","generator":"Open Asset Import Library (assimp v6.0.0)"},"extensionsUsed":["KHR_materials_specular","KHR_materials_volume","KHR_materials_ior","FB_ngon_encoding"],"accessors":[{"bufferView":0,"byteOffset":0,"componentType":5126,"count":9680,"type":"VEC3","max":[0.6209213733673096,-0.19204194843769073,4.724201679229736],"min":[-0.5168113708496094,-0.46237871050834656,2.2250738585072014e-308]},{"bufferView":1,"byteOffset":0,"componentType":5126,"count":9680,"type":"VEC2","max":[0.9890451431274414,0.6267509460449219],"min":[2.2250738585072014e-308,2.2250738585072014e-308]},{"bufferView":2,"byteOffset":0,"componentType":5125,"count":45354,"type":"SCALAR","max":[9679],"min":[0]},{"bufferView":3,"byteOffset":0,"componentType":5126,"count":5040,"type":"VEC3","max":[0.6082621812820435,-0.19266122579574585,4.650589942932129],"min":[-0.16172778606414795,-0.4600127935409546,2.2250738585072014e-308]},{"bufferView":4,"byteOffset":0,"componentType":5126,"count":5040,"type":"VEC2","max":[0.8527274131774902,0.7395124435424805],"min":[2.2250738585072014e-308,2.2250738585072014e-308]},{"bufferView":5,"byteOffset":0,"componentType":5125,"count":26652,"type":"SCALAR","max":[5039],"min":[0]}],"buffers":[{"byteLength":582424,"uri":"tile_0052.bin"}],"bufferViews":[{"buffer":0,"byteOffset":0,"byteLength":116160,"target":34962},{"buffer":0,"byteOffset":116160,"byteLength":77440,"target":34962},{"buffer":0,"byteOffset":193600,"byteLength":181416,"target":34963},{"buffer":0,"byteOffset":375016,"byteLength":60480,"target":34962},{"buffer":0,"byteOffset":435496,"byteLength":40320,"target":34962},{"buffer":0,"byteOffset":475816,"byteLength":106608,"target":34963}],"images":[{"uri":"../textures/tile_0052_material_0.jpg"},{"uri":"../textures/tile_0052_material_1.jpg"}],"materials":[{"name":"DefaultMaterial","pbrMetallicRoughness":{"baseColorFactor":[0.6000000238418579,0.6000000238418579,0.6000000238418579,1.0],"metallicFactor":0.0},"extensions":{"KHR_materials_specular":{"specularFactor":1.0,"specularColorFactor":[0.0,0.0,0.0]},"KHR_materials_ior":{"ior":1.0}}},{"name":"material_0_material","pbrMetallicRoughness":{"baseColorTexture":{"index":0},"metallicFactor":0.0},"extensions":{"KHR_materials_specular":{"specularFactor":1.0,"specularColorFactor":[0.0,0.0,0.0]},"KHR_materials_ior":{"ior":1.0}}},{"name":"material_1_material","pbrMetallicRoughness":{"baseColorTexture":{"index":1},"metallicFactor":0.0},"extensions":{"KHR_materials_specular":{"specularFactor":1.0,"specularColorFactor":[0.0,0.0,0.0]},"KHR_materials_ior":{"ior":1.0}}}],"meshes":[{"name":"defaultobject","primitives":[{"mode":4,"material":1,"indices":2,"attributes":{"POSITION":0,"TEXCOORD_0":1}},{"mode":4,"material":2,"indices":5,"attributes":{"POSITION":3,"TEXCOORD_0":4}}]}],"nodes":[{"name":"tile_0052.obj","children":[1]},{"name":"defaultobject","mesh":0}],"samplers":[{},{}],"scenes":[{"nodes":[0]}],"textures":[{"source":0,"sampler":0},{"source":1,"sampler":1}],"scene":0}
