{"asset":{"version":"2.0","generator":"Open Asset Import Library (assimp v6.0.0)"},"extensionsUsed":["KHR_materials_specular","KHR_materials_volume","KHR_materials_ior","FB_ngon_encoding"],"accessors":[{"bufferView":0,"byteOffset":0,"componentType":5126,"count":4544,"type":"VEC3","max":[1.257424235343933,0.7769027352333069,4.316915988922119],"min":[-0.06973302364349365,2.2250738585072014e-308,2.2250738585072014e-308]},{"bufferView":1,"byteOffset":0,"componentType":5126,"count":4544,"type":"VEC2","max":[0.9949030876159668,0.7735710144042969],"min":[2.2250738585072014e-308,2.2250738585072014e-308]},{"bufferView":2,"byteOffset":0,"componentType":5125,"count":19293,"type":"SCALAR","max":[4543],"min":[0]},{"bufferView":3,"byteOffset":0,"componentType":5126,"count":490,"type":"VEC3","max":[1.0929557085037231,0.7138901352882385,3.9989137649536133],"min":[2.2250738585072014e-308,2.2250738585072014e-308,2.2250738585072014e-308]},{"bufferView":4,"byteOffset":0,"componentType":5126,"count":490,"type":"VEC2","max":[0.6353950500488281,0.5571880340576172],"min":[2.2250738585072014e-308,2.2250738585072014e-308]},{"bufferView":5,"byteOffset":0,"componentType":5125,"count":2148,"type":"SCALAR","max":[489],"min":[0]}],"buffers":[{"byteLength":186444,"uri":"tile_0429.bin"}],"bufferViews":[{"buffer":0,"byteOffset":0,"byteLength":54528,"target":34962},{"buffer":0,"byteOffset":54528,"byteLength":36352,"target":34962},{"buffer":0,"byteOffset":90880,"byteLength":77172,"target":34963},{"buffer":0,"byteOffset":168052,"byteLength":5880,"target":34962},{"buffer":0,"byteOffset":173932,"byteLength":3920,"target":34962},{"buffer":0,"byteOffset":177852,"byteLength":8592,"target":34963}],"images":[{"uri":"../textures/tile_0429_material_0.jpg"},{"uri":"../textures/tile_0429_material_1.jpg"}],"materials":[{"name":"DefaultMaterial","pbrMetallicRoughness":{"baseColorFactor":[0.6000000238418579,0.6000000238418579,0.6000000238418579,1.0],"metallicFactor":0.0},"extensions":{"KHR_materials_specular":{"specularFactor":1.0,"specularColorFactor":[0.0,0.0,0.0]},"KHR_materials_ior":{"ior":1.0}}},{"name":"material_0_material","pbrMetallicRoughness":{"baseColorTexture":{"index":0},"metallicFactor":0.0},"extensions":{"KHR_materials_specular":{"specularFactor":1.0,"specularColorFactor":[0.0,0.0,0.0]},"KHR_materials_ior":{"ior":1.0}}},{"name":"material_1_material","pbrMetallicRoughness":{"baseColorTexture":{"index":1},"metallicFactor":0.0},"extensions":{"KHR_materials_specular":{"specularFactor":1.0,"specularColorFactor":[0.0,0.0,0.0]},"KHR_materials_ior":{"ior":1.0}}}],"meshes":[{"name":"defaultobject","primitives":[{"mode":4,"material":1,"indices":2,"attributes":{"POSITION":0,"TEXCOORD_0":1}},{"mode":4,"material":2,"indices":5,"attributes":{"POSITION":3,"TEXCOORD_0":4}}]}],"nodes":[{"name":"tile_0429.obj","children":[1]},{"name":"defaultobject","mesh":0}],"samplers":[{},{}],"scenes":[{"nodes":[0]}],"textures":[{"source":0,"sampler":0},{"source":1,"sampler":1}],"scene":0}
