{"asset":{"version":"2.0","generator":"Open Asset Import Library (assimp v6.0.0)"},"extensionsUsed":["KHR_materials_specular","KHR_materials_volume","KHR_materials_ior","FB_ngon_encoding"],"accessors":[{"bufferView":0,"byteOffset":0,"componentType":5126,"count":5928,"type":"VEC3","max":[2.142540454864502,-0.022775612771511078,1.291494369506836],"min":[2.2250738585072014e-308,-0.19141153991222382,2.2250738585072014e-308]},{"bufferView":1,"byteOffset":0,"componentType":5126,"count":5928,"type":"VEC2","max":[0.9880280494689941,0.6248779296875],"min":[2.2250738585072014e-308,2.2250738585072014e-308]},{"bufferView":2,"byteOffset":0,"componentType":5125,"count":25869,"type":"SCALAR","max":[5927],"min":[0]},{"bufferView":3,"byteOffset":0,"componentType":5126,"count":813,"type":"VEC3","max":[0.22666390240192413,-0.059204813092947006,1.261875867843628],"min":[2.2250738585072014e-308,-0.17957188189029694,2.2250738585072014e-308]},{"bufferView":4,"byteOffset":0,"componentType":5126,"count":813,"type":"VEC2","max":[0.7597637176513672,0.7264862060546875],"min":[2.2250738585072014e-308,2.2250738585072014e-308]},{"bufferView":5,"byteOffset":0,"componentType":5125,"count":3993,"type":"SCALAR","max":[812],"min":[0]}],"buffers":[{"byteLength":254268,"uri":"tile_0449.bin"}],"bufferViews":[{"buffer":0,"byteOffset":0,"byteLength":71136,"target":34962},{"buffer":0,"byteOffset":71136,"byteLength":47424,"target":34962},{"buffer":0,"byteOffset":118560,"byteLength":103476,"target":34963},{"buffer":0,"byteOffset":222036,"byteLength":9756,"target":34962},{"buffer":0,"byteOffset":231792,"byteLength":6504,"target":34962},{"buffer":0,"byteOffset":238296,"byteLength":15972,"target":34963}],"images":[{"uri":"../textures/tile_0449_material_0.jpg"},{"uri":"../textures/tile_0449_material_1.jpg"}],"materials":[{"name":"DefaultMaterial","pbrMetallicRoughness":{"baseColorFactor":[0.6000000238418579,0.6000000238418579,0.6000000238418579,1.0],"metallicFactor":0.0},"extensions":{"KHR_materials_specular":{"specularFactor":1.0,"specularColorFactor":[0.0,0.0,0.0]},"KHR_materials_ior":{"ior":1.0}}},{"name":"material_0_material","pbrMetallicRoughness":{"baseColorTexture":{"index":0},"metallicFactor":0.0},"extensions":{"KHR_materials_specular":{"specularFactor":1.0,"specularColorFactor":[0.0,0.0,0.0]},"KHR_materials_ior":{"ior":1.0}}},{"name":"material_1_material","pbrMetallicRoughness":{"baseColorTexture":{"index":1},"metallicFactor":0.0},"extensions":{"KHR_materials_specular":{"specularFactor":1.0,"specularColorFactor":[0.0,0.0,0.0]},"KHR_materials_ior":{"ior":1.0}}}],"meshes":[{"name":"defaultobject","primitives":[{"mode":4,"material":1,"indices":2,"attributes":{"POSITION":0,"TEXCOORD_0":1}},{"mode":4,"material":2,"indices":5,"attributes":{"POSITION":3,"TEXCOORD_0":4}}]}],"nodes":[{"name":"tile_0449.obj","children":[1]},{"name":"defaultobject","mesh":0}],"samplers":[{},{}],"scenes":[{"nodes":[0]}],"textures":[{"source":0,"sampler":0},{"source":1,"sampler":1}],"scene":0}
