{"asset":{"version":"2.0","generator":"Open Asset Import Library (assimp v6.0.0)"},"extensionsUsed":["KHR_materials_specular","KHR_materials_volume","KHR_materials_ior","FB_ngon_encoding"],"accessors":[{"bufferView":0,"byteOffset":0,"componentType":5126,"count":5731,"type":"VEC3","max":[3.8275327682495117,0.19856584072113037,-0.11266522854566574],"min":[2.2250738585072014e-308,2.2250738585072014e-308,-0.826555073261261]},{"bufferView":1,"byteOffset":0,"componentType":5126,"count":5731,"type":"VEC2","max":[0.9951920509338379,0.6051979064941406],"min":[2.2250738585072014e-308,2.2250738585072014e-308]},{"bufferView":2,"byteOffset":0,"componentType":5125,"count":23619,"type":"SCALAR","max":[5730],"min":[0]},{"bufferView":3,"byteOffset":0,"componentType":5126,"count":9,"type":"VEC3","max":[2.5831236839294434,0.13347798585891724,-0.11803609877824783],"min":[2.2250738585072014e-308,2.2250738585072014e-308,-0.13397784531116486]},{"bufferView":4,"byteOffset":0,"componentType":5126,"count":9,"type":"VEC2","max":[0.550002932548523,0.6695252656936646],"min":[2.2250738585072014e-308,2.2250738585072014e-308]},{"bufferView":5,"byteOffset":0,"componentType":5125,"count":9,"type":"SCALAR","max":[8],"min":[0]}],"buffers":[{"byteLength":209312,"uri":"tile_0183.bin"}],"bufferViews":[{"buffer":0,"byteOffset":0,"byteLength":68772,"target":34962},{"buffer":0,"byteOffset":68772,"byteLength":45848,"target":34962},{"buffer":0,"byteOffset":114620,"byteLength":94476,"target":34963},{"buffer":0,"byteOffset":209096,"byteLength":108,"target":34962},{"buffer":0,"byteOffset":209204,"byteLength":72,"target":34962},{"buffer":0,"byteOffset":209276,"byteLength":36,"target":34963}],"images":[{"uri":"../textures/tile_0183_material_0.jpg"},{"uri":"../textures/tile_0183_material_1.jpg"}],"materials":[{"name":"DefaultMaterial","pbrMetallicRoughness":{"baseColorFactor":[0.6000000238418579,0.6000000238418579,0.6000000238418579,1.0],"metallicFactor":0.0},"extensions":{"KHR_materials_specular":{"specularFactor":1.0,"specularColorFactor":[0.0,0.0,0.0]},"KHR_materials_ior":{"ior":1.0}}},{"name":"material_0_material","pbrMetallicRoughness":{"baseColorTexture":{"index":0},"metallicFactor":0.0},"extensions":{"KHR_materials_specular":{"specularFactor":1.0,"specularColorFactor":[0.0,0.0,0.0]},"KHR_materials_ior":{"ior":1.0}}},{"name":"material_1_material","pbrMetallicRoughness":{"baseColorTexture":{"index":1},"metallicFactor":0.0},"extensions":{"KHR_materials_specular":{"specularFactor":1.0,"specularColorFactor":[0.0,0.0,0.0]},"KHR_materials_ior":{"ior":1.0}}}],"meshes":[{"name":"defaultobject","primitives":[{"mode":4,"material":1,"indices":2,"attributes":{"POSITION":0,"TEXCOORD_0":1}},{"mode":4,"material":2,"indices":5,"attributes":{"POSITION":3,"TEXCOORD_0":4}}]}],"nodes":[{"name":"tile_0183.obj","children":[1]},{"name":"defaultobject","mesh":0}],"samplers":[{},{}],"scenes":[{"nodes":[0]}],"textures":[{"source":0,"sampler":0},{"source":1,"sampler":1}],"scene":0}
