{"asset":{"version":"2.0","generator":"Open Asset Import Library (assimp v6.0.0)"},"extensionsUsed":["KHR_materials_specular","KHR_materials_volume","KHR_materials_ior","FB_ngon_encoding"],"accessors":[{"bufferView":0,"byteOffset":0,"componentType":5126,"count":3381,"type":"VEC3","max":[0.32788917422294617,-2.769402503967285,2.9733712673187256],"min":[2.2250738585072014e-308,-2.973661422729492,2.2250738585072014e-308]},{"bufferView":1,"byteOffset":0,"componentType":5126,"count":3381,"type":"VEC2","max":[0.9934701919555664,0.6171360015869141],"min":[2.2250738585072014e-308,2.2250738585072014e-308]},{"bufferView":2,"byteOffset":0,"componentType":5125,"count":14970,"type":"SCALAR","max":[3380],"min":[0]},{"bufferView":3,"byteOffset":0,"componentType":5126,"count":192,"type":"VEC3","max":[0.1331871747970581,-2.7716922760009766,2.734902858734131],"min":[2.2250738585072014e-308,-2.846202850341797,2.2250738585072014e-308]},{"bufferView":4,"byteOffset":0,"componentType":5126,"count":192,"type":"VEC2","max":[0.6167716979980469,0.9476776719093323],"min":[2.2250738585072014e-308,2.2250738585072014e-308]},{"bufferView":5,"byteOffset":0,"componentType":5125,"count":921,"type":"SCALAR","max":[191],"min":[0]}],"buffers":[{"byteLength":135024,"uri":"tile_0030.bin"}],"bufferViews":[{"buffer":0,"byteOffset":0,"byteLength":40572,"target":34962},{"buffer":0,"byteOffset":40572,"byteLength":27048,"target":34962},{"buffer":0,"byteOffset":67620,"byteLength":59880,"target":34963},{"buffer":0,"byteOffset":127500,"byteLength":2304,"target":34962},{"buffer":0,"byteOffset":129804,"byteLength":1536,"target":34962},{"buffer":0,"byteOffset":131340,"byteLength":3684,"target":34963}],"images":[{"uri":"../textures/tile_0030_material_0.jpg"},{"uri":"../textures/tile_0030_material_1.jpg"}],"materials":[{"name":"DefaultMaterial","pbrMetallicRoughness":{"baseColorFactor":[0.6000000238418579,0.6000000238418579,0.6000000238418579,1.0],"metallicFactor":0.0},"extensions":{"KHR_materials_specular":{"specularFactor":1.0,"specularColorFactor":[0.0,0.0,0.0]},"KHR_materials_ior":{"ior":1.0}}},{"name":"material_0_material","pbrMetallicRoughness":{"baseColorTexture":{"index":0},"metallicFactor":0.0},"extensions":{"KHR_materials_specular":{"specularFactor":1.0,"specularColorFactor":[0.0,0.0,0.0]},"KHR_materials_ior":{"ior":1.0}}},{"name":"material_1_material","pbrMetallicRoughness":{"baseColorTexture":{"index":1},"metallicFactor":0.0},"extensions":{"KHR_materials_specular":{"specularFactor":1.0,"specularColorFactor":[0.0,0.0,0.0]},"KHR_materials_ior":{"ior":1.0}}}],"meshes":[{"name":"defaultobject","primitives":[{"mode":4,"material":1,"indices":2,"attributes":{"POSITION":0,"TEXCOORD_0":1}},{"mode":4,"material":2,"indices":5,"attributes":{"POSITION":3,"TEXCOORD_0":4}}]}],"nodes":[{"name":"tile_0030.obj","children":[1]},{"name":"defaultobject","mesh":0}],"samplers":[{},{}],"scenes":[{"nodes":[0]}],"textures":[{"source":0,"sampler":0},{"source":1,"sampler":1}],"scene":0}
