{"asset":{"version":"2.0","generator":"Open Asset Import Library (assimp v6.0.0)"},"extensionsUsed":["KHR_materials_specular","KHR_materials_volume","KHR_materials_ior","FB_ngon_encoding"],"accessors":[{"bufferView":0,"byteOffset":0,"componentType":5126,"count":3095,"type":"VEC3","max":[2.2543489933013916,1.6294094324111938,1.9274243116378784],"min":[2.2250738585072014e-308,2.2250738585072014e-308,2.2250738585072014e-308]},{"bufferView":1,"byteOffset":0,"componentType":5126,"count":3095,"type":"VEC2","max":[0.9792294502258301,0.8826522827148438],"min":[2.2250738585072014e-308,2.2250738585072014e-308]},{"bufferView":2,"byteOffset":0,"componentType":5125,"count":14340,"type":"SCALAR","max":[3094],"min":[0]},{"bufferView":3,"byteOffset":0,"componentType":5126,"count":1271,"type":"VEC3","max":[2.2642338275909424,1.6295713186264038,1.9273980855941772],"min":[2.2250738585072014e-308,2.2250738585072014e-308,2.2250738585072014e-308]},{"bufferView":4,"byteOffset":0,"componentType":5126,"count":1271,"type":"VEC2","max":[0.6115288734436035,0.709259033203125],"min":[2.2250738585072014e-308,2.2250738585072014e-308]},{"bufferView":5,"byteOffset":0,"componentType":5125,"count":6648,"type":"SCALAR","max":[1270],"min":[0]}],"buffers":[{"byteLength":171272,"uri":"tile_0592.bin"}],"bufferViews":[{"buffer":0,"byteOffset":0,"byteLength":37140,"target":34962},{"buffer":0,"byteOffset":37140,"byteLength":24760,"target":34962},{"buffer":0,"byteOffset":61900,"byteLength":57360,"target":34963},{"buffer":0,"byteOffset":119260,"byteLength":15252,"target":34962},{"buffer":0,"byteOffset":134512,"byteLength":10168,"target":34962},{"buffer":0,"byteOffset":144680,"byteLength":26592,"target":34963}],"images":[{"uri":"../textures/tile_0592_material_0.jpg"},{"uri":"../textures/tile_0592_material_1.jpg"}],"materials":[{"name":"DefaultMaterial","pbrMetallicRoughness":{"baseColorFactor":[0.6000000238418579,0.6000000238418579,0.6000000238418579,1.0],"metallicFactor":0.0},"extensions":{"KHR_materials_specular":{"specularFactor":1.0,"specularColorFactor":[0.0,0.0,0.0]},"KHR_materials_ior":{"ior":1.0}}},{"name":"material_0_material","pbrMetallicRoughness":{"baseColorTexture":{"index":0},"metallicFactor":0.0},"extensions":{"KHR_materials_specular":{"specularFactor":1.0,"specularColorFactor":[0.0,0.0,0.0]},"KHR_materials_ior":{"ior":1.0}}},{"name":"material_1_material","pbrMetallicRoughness":{"baseColorTexture":{"index":1},"metallicFactor":0.0},"extensions":{"KHR_materials_specular":{"specularFactor":1.0,"specularColorFactor":[0.0,0.0,0.0]},"KHR_materials_ior":{"ior":1.0}}}],"meshes":[{"name":"defaultobject","primitives":[{"mode":4,"material":1,"indices":2,"attributes":{"POSITION":0,"TEXCOORD_0":1}},{"mode":4,"material":2,"indices":5,"attributes":{"POSITION":3,"TEXCOORD_0":4}}]}],"nodes":[{"name":"tile_0592.obj","children":[1]},{"name":"defaultobject","mesh":0}],"samplers":[{},{}],"scenes":[{"nodes":[0]}],"textures":[{"source":0,"sampler":0},{"source":1,"sampler":1}],"scene":0}
