{"asset":{"version":"2.0","generator":"Open Asset Import Library (assimp v6.0.0)"},"extensionsUsed":["KHR_materials_specular","KHR_materials_volume","KHR_materials_ior","FB_ngon_encoding"],"accessors":[{"bufferView":0,"byteOffset":0,"componentType":5126,"count":5692,"type":"VEC3","max":[3.0812935829162598,-1.560422658920288,0.3340074419975281],"min":[2.2250738585072014e-308,-1.6771495342254639,2.2250738585072014e-308]},{"bufferView":1,"byteOffset":0,"componentType":5126,"count":5692,"type":"VEC2","max":[0.9936208724975586,0.5889453887939453],"min":[2.2250738585072014e-308,2.2250738585072014e-308]},{"bufferView":2,"byteOffset":0,"componentType":5125,"count":23709,"type":"SCALAR","max":[5691],"min":[0]},{"bufferView":3,"byteOffset":0,"componentType":5126,"count":337,"type":"VEC3","max":[1.2861669063568115,-1.5636006593704224,0.3317391276359558],"min":[2.2250738585072014e-308,-1.6730589866638184,2.2250738585072014e-308]},{"bufferView":4,"byteOffset":0,"componentType":5126,"count":337,"type":"VEC2","max":[0.9608078002929688,0.932861328125],"min":[2.2250738585072014e-308,2.2250738585072014e-308]},{"bufferView":5,"byteOffset":0,"componentType":5125,"count":1464,"type":"SCALAR","max":[336],"min":[0]}],"buffers":[{"byteLength":221272,"uri":"tile_0209.bin"}],"bufferViews":[{"buffer":0,"byteOffset":0,"byteLength":68304,"target":34962},{"buffer":0,"byteOffset":68304,"byteLength":45536,"target":34962},{"buffer":0,"byteOffset":113840,"byteLength":94836,"target":34963},{"buffer":0,"byteOffset":208676,"byteLength":4044,"target":34962},{"buffer":0,"byteOffset":212720,"byteLength":2696,"target":34962},{"buffer":0,"byteOffset":215416,"byteLength":5856,"target":34963}],"images":[{"uri":"../textures/tile_0209_material_0.jpg"},{"uri":"../textures/tile_0209_material_1.jpg"}],"materials":[{"name":"DefaultMaterial","pbrMetallicRoughness":{"baseColorFactor":[0.6000000238418579,0.6000000238418579,0.6000000238418579,1.0],"metallicFactor":0.0},"extensions":{"KHR_materials_specular":{"specularFactor":1.0,"specularColorFactor":[0.0,0.0,0.0]},"KHR_materials_ior":{"ior":1.0}}},{"name":"material_0_material","pbrMetallicRoughness":{"baseColorTexture":{"index":0},"metallicFactor":0.0},"extensions":{"KHR_materials_specular":{"specularFactor":1.0,"specularColorFactor":[0.0,0.0,0.0]},"KHR_materials_ior":{"ior":1.0}}},{"name":"material_1_material","pbrMetallicRoughness":{"baseColorTexture":{"index":1},"metallicFactor":0.0},"extensions":{"KHR_materials_specular":{"specularFactor":1.0,"specularColorFactor":[0.0,0.0,0.0]},"KHR_materials_ior":{"ior":1.0}}}],"meshes":[{"name":"defaultobject","primitives":[{"mode":4,"material":1,"indices":2,"attributes":{"POSITION":0,"TEXCOORD_0":1}},{"mode":4,"material":2,"indices":5,"attributes":{"POSITION":3,"TEXCOORD_0":4}}]}],"nodes":[{"name":"tile_0209.obj","children":[1]},{"name":"defaultobject","mesh":0}],"samplers":[{},{}],"scenes":[{"nodes":[0]}],"textures":[{"source":0,"sampler":0},{"source":1,"sampler":1}],"scene":0}
