{"asset":{"version":"2.0","generator":"Open Asset Import Library (assimp v6.0.0)"},"extensionsUsed":["KHR_materials_specular","KHR_materials_volume","KHR_materials_ior","FB_ngon_encoding"],"accessors":[{"bufferView":0,"byteOffset":0,"componentType":5126,"count":4975,"type":"VEC3","max":[2.282296657562256,-1.7057057619094849,1.3802390098571777],"min":[-0.14869093894958496,-1.9844692945480347,2.2250738585072014e-308]},{"bufferView":1,"byteOffset":0,"componentType":5126,"count":4975,"type":"VEC2","max":[0.9932588338851929,0.7497234344482422],"min":[2.2250738585072014e-308,2.2250738585072014e-308]},{"bufferView":2,"byteOffset":0,"componentType":5125,"count":19539,"type":"SCALAR","max":[4974],"min":[0]},{"bufferView":3,"byteOffset":0,"componentType":5126,"count":379,"type":"VEC3","max":[2.037963390350342,-1.7080388069152832,1.3599286079406738],"min":[-0.12219047546386719,-1.8085339069366455,2.2250738585072014e-308]},{"bufferView":4,"byteOffset":0,"componentType":5126,"count":379,"type":"VEC2","max":[0.7022323608398438,0.895751953125],"min":[2.2250738585072014e-308,2.2250738585072014e-308]},{"bufferView":5,"byteOffset":0,"componentType":5125,"count":1764,"type":"SCALAR","max":[378],"min":[0]}],"buffers":[{"byteLength":192292,"uri":"tile_0276.bin"}],"bufferViews":[{"buffer":0,"byteOffset":0,"byteLength":59700,"target":34962},{"buffer":0,"byteOffset":59700,"byteLength":39800,"target":34962},{"buffer":0,"byteOffset":99500,"byteLength":78156,"target":34963},{"buffer":0,"byteOffset":177656,"byteLength":4548,"target":34962},{"buffer":0,"byteOffset":182204,"byteLength":3032,"target":34962},{"buffer":0,"byteOffset":185236,"byteLength":7056,"target":34963}],"images":[{"uri":"../textures/tile_0276_material_0.jpg"},{"uri":"../textures/tile_0276_material_1.jpg"}],"materials":[{"name":"DefaultMaterial","pbrMetallicRoughness":{"baseColorFactor":[0.6000000238418579,0.6000000238418579,0.6000000238418579,1.0],"metallicFactor":0.0},"extensions":{"KHR_materials_specular":{"specularFactor":1.0,"specularColorFactor":[0.0,0.0,0.0]},"KHR_materials_ior":{"ior":1.0}}},{"name":"material_0_material","pbrMetallicRoughness":{"baseColorTexture":{"index":0},"metallicFactor":0.0},"extensions":{"KHR_materials_specular":{"specularFactor":1.0,"specularColorFactor":[0.0,0.0,0.0]},"KHR_materials_ior":{"ior":1.0}}},{"name":"material_1_material","pbrMetallicRoughness":{"baseColorTexture":{"index":1},"metallicFactor":0.0},"extensions":{"KHR_materials_specular":{"specularFactor":1.0,"specularColorFactor":[0.0,0.0,0.0]},"KHR_materials_ior":{"ior":1.0}}}],"meshes":[{"name":"defaultobject","primitives":[{"mode":4,"material":1,"indices":2,"attributes":{"POSITION":0,"TEXCOORD_0":1}},{"mode":4,"material":2,"indices":5,"attributes":{"POSITION":3,"TEXCOORD_0":4}}]}],"nodes":[{"name":"tile_0276.obj","children":[1]},{"name":"defaultobject","mesh":0}],"samplers":[{},{}],"scenes":[{"nodes":[0]}],"textures":[{"source":0,"sampler":0},{"source":1,"sampler":1}],"scene":0}
