{"asset":{"version":"2.0","generator":"Open Asset Import Library (assimp v6.0.0)"},"extensionsUsed":["KHR_materials_specular","KHR_materials_volume","KHR_materials_ior","FB_ngon_encoding"],"accessors":[{"bufferView":0,"byteOffset":0,"componentType":5126,"count":4089,"type":"VEC3","max":[1.28461754322052,-1.977386474609375,1.8639299869537354],"min":[-0.07121088355779648,-2.297895669937134,2.2250738585072014e-308]},{"bufferView":1,"byteOffset":0,"componentType":5126,"count":4089,"type":"VEC2","max":[0.9815158843994141,0.6754341125488281],"min":[2.2250738585072014e-308,2.2250738585072014e-308]},{"bufferView":2,"byteOffset":0,"componentType":5125,"count":18879,"type":"SCALAR","max":[4088],"min":[0]},{"bufferView":3,"byteOffset":0,"componentType":5126,"count":207,"type":"VEC3","max":[1.2404905557632446,-1.9880057573318481,1.8550630807876587],"min":[-0.05574239045381546,-2.28975248336792,2.2250738585072014e-308]},{"bufferView":4,"byteOffset":0,"componentType":5126,"count":207,"type":"VEC2","max":[0.8125009536743164,0.76251220703125],"min":[2.2250738585072014e-308,2.2250738585072014e-308]},{"bufferView":5,"byteOffset":0,"componentType":5125,"count":816,"type":"SCALAR","max":[206],"min":[0]}],"buffers":[{"byteLength":164700,"uri":"tile_0016.bin"}],"bufferViews":[{"buffer":0,"byteOffset":0,"byteLength":49068,"target":34962},{"buffer":0,"byteOffset":49068,"byteLength":32712,"target":34962},{"buffer":0,"byteOffset":81780,"byteLength":75516,"target":34963},{"buffer":0,"byteOffset":157296,"byteLength":2484,"target":34962},{"buffer":0,"byteOffset":159780,"byteLength":1656,"target":34962},{"buffer":0,"byteOffset":161436,"byteLength":3264,"target":34963}],"images":[{"uri":"../textures/tile_0016_material_0.jpg"},{"uri":"../textures/tile_0016_material_1.jpg"}],"materials":[{"name":"DefaultMaterial","pbrMetallicRoughness":{"baseColorFactor":[0.6000000238418579,0.6000000238418579,0.6000000238418579,1.0],"metallicFactor":0.0},"extensions":{"KHR_materials_specular":{"specularFactor":1.0,"specularColorFactor":[0.0,0.0,0.0]},"KHR_materials_ior":{"ior":1.0}}},{"name":"material_0_material","pbrMetallicRoughness":{"baseColorTexture":{"index":0},"metallicFactor":0.0},"extensions":{"KHR_materials_specular":{"specularFactor":1.0,"specularColorFactor":[0.0,0.0,0.0]},"KHR_materials_ior":{"ior":1.0}}},{"name":"material_1_material","pbrMetallicRoughness":{"baseColorTexture":{"index":1},"metallicFactor":0.0},"extensions":{"KHR_materials_specular":{"specularFactor":1.0,"specularColorFactor":[0.0,0.0,0.0]},"KHR_materials_ior":{"ior":1.0}}}],"meshes":[{"name":"defaultobject","primitives":[{"mode":4,"material":1,"indices":2,"attributes":{"POSITION":0,"TEXCOORD_0":1}},{"mode":4,"material":2,"indices":5,"attributes":{"POSITION":3,"TEXCOORD_0":4}}]}],"nodes":[{"name":"tile_0016.obj","children":[1]},{"name":"defaultobject","mesh":0}],"samplers":[{},{}],"scenes":[{"nodes":[0]}],"textures":[{"source":0,"sampler":0},{"source":1,"sampler":1}],"scene":0}
