{"asset":{"version":"2.0","generator":"Open Asset Import Library (assimp v6.0.0)"},"extensionsUsed":["KHR_materials_specular","KHR_materials_volume","KHR_materials_ior","FB_ngon_encoding"],"accessors":[{"bufferView":0,"byteOffset":0,"componentType":5126,"count":15043,"type":"VEC3","max":[1.6224507093429565,0.07154551148414612,3.2415144443511963],"min":[2.2250738585072014e-308,-0.263249009847641,2.2250738585072014e-308]},{"bufferView":1,"byteOffset":0,"componentType":5126,"count":15043,"type":"VEC2","max":[0.9949979782104492,0.7850742340087891],"min":[2.2250738585072014e-308,2.2250738585072014e-308]},{"bufferView":2,"byteOffset":0,"componentType":5125,"count":70461,"type":"SCALAR","max":[15042],"min":[0]},{"bufferView":3,"byteOffset":0,"componentType":5126,"count":353,"type":"VEC3","max":[0.9734582304954529,0.05104880779981613,3.240302801132202],"min":[2.2250738585072014e-308,-0.20883426070213318,2.2250738585072014e-308]},{"bufferView":4,"byteOffset":0,"componentType":5126,"count":353,"type":"VEC2","max":[0.5815916061401367,0.9557952880859375],"min":[2.2250738585072014e-308,2.2250738585072014e-308]},{"bufferView":5,"byteOffset":0,"componentType":5125,"count":1545,"type":"SCALAR","max":[352],"min":[0]}],"buffers":[{"byteLength":595944,"uri":"tile_0062.bin"}],"bufferViews":[{"buffer":0,"byteOffset":0,"byteLength":180516,"target":34962},{"buffer":0,"byteOffset":180516,"byteLength":120344,"target":34962},{"buffer":0,"byteOffset":300860,"byteLength":281844,"target":34963},{"buffer":0,"byteOffset":582704,"byteLength":4236,"target":34962},{"buffer":0,"byteOffset":586940,"byteLength":2824,"target":34962},{"buffer":0,"byteOffset":589764,"byteLength":6180,"target":34963}],"images":[{"uri":"../textures/tile_0062_material_0.jpg"},{"uri":"../textures/tile_0062_material_1.jpg"}],"materials":[{"name":"DefaultMaterial","pbrMetallicRoughness":{"baseColorFactor":[0.6000000238418579,0.6000000238418579,0.6000000238418579,1.0],"metallicFactor":0.0},"extensions":{"KHR_materials_specular":{"specularFactor":1.0,"specularColorFactor":[0.0,0.0,0.0]},"KHR_materials_ior":{"ior":1.0}}},{"name":"material_0_material","pbrMetallicRoughness":{"baseColorTexture":{"index":0},"metallicFactor":0.0},"extensions":{"KHR_materials_specular":{"specularFactor":1.0,"specularColorFactor":[0.0,0.0,0.0]},"KHR_materials_ior":{"ior":1.0}}},{"name":"material_1_material","pbrMetallicRoughness":{"baseColorTexture":{"index":1},"metallicFactor":0.0},"extensions":{"KHR_materials_specular":{"specularFactor":1.0,"specularColorFactor":[0.0,0.0,0.0]},"KHR_materials_ior":{"ior":1.0}}}],"meshes":[{"name":"defaultobject","primitives":[{"mode":4,"material":1,"indices":2,"attributes":{"POSITION":0,"TEXCOORD_0":1}},{"mode":4,"material":2,"indices":5,"attributes":{"POSITION":3,"TEXCOORD_0":4}}]}],"nodes":[{"name":"tile_0062.obj","children":[1]},{"name":"defaultobject","mesh":0}],"samplers":[{},{}],"scenes":[{"nodes":[0]}],"textures":[{"source":0,"sampler":0},{"source":1,"sampler":1}],"scene":0}
