{"asset":{"version":"2.0","generator":"Open Asset Import Library (assimp v6.0.0)"},"extensionsUsed":["KHR_materials_specular","KHR_materials_volume","KHR_materials_ior","FB_ngon_encoding"],"accessors":[{"bufferView":0,"byteOffset":0,"componentType":5126,"count":4973,"type":"VEC3","max":[2.142176389694214,-2.46606707572937,1.2773795127868652],"min":[2.2250738585072014e-308,-2.6639456748962402,2.2250738585072014e-308]},{"bufferView":1,"byteOffset":0,"componentType":5126,"count":4973,"type":"VEC2","max":[0.9950809478759766,0.7455482482910156],"min":[2.2250738585072014e-308,2.2250738585072014e-308]},{"bufferView":2,"byteOffset":0,"componentType":5125,"count":21051,"type":"SCALAR","max":[4972],"min":[0]},{"bufferView":3,"byteOffset":0,"componentType":5126,"count":286,"type":"VEC3","max":[1.4414732456207275,-2.515902280807495,1.262848138809204],"min":[2.2250738585072014e-308,-2.6575591564178467,2.2250738585072014e-308]},{"bufferView":4,"byteOffset":0,"componentType":5126,"count":286,"type":"VEC2","max":[0.8349723815917969,0.5804023742675781],"min":[2.2250738585072014e-308,2.2250738585072014e-308]},{"bufferView":5,"byteOffset":0,"componentType":5125,"count":1407,"type":"SCALAR","max":[285],"min":[0]}],"buffers":[{"byteLength":195012,"uri":"tile_0262.bin"}],"bufferViews":[{"buffer":0,"byteOffset":0,"byteLength":59676,"target":34962},{"buffer":0,"byteOffset":59676,"byteLength":39784,"target":34962},{"buffer":0,"byteOffset":99460,"byteLength":84204,"target":34963},{"buffer":0,"byteOffset":183664,"byteLength":3432,"target":34962},{"buffer":0,"byteOffset":187096,"byteLength":2288,"target":34962},{"buffer":0,"byteOffset":189384,"byteLength":5628,"target":34963}],"images":[{"uri":"../textures/tile_0262_material_0.jpg"},{"uri":"../textures/tile_0262_material_1.jpg"}],"materials":[{"name":"DefaultMaterial","pbrMetallicRoughness":{"baseColorFactor":[0.6000000238418579,0.6000000238418579,0.6000000238418579,1.0],"metallicFactor":0.0},"extensions":{"KHR_materials_specular":{"specularFactor":1.0,"specularColorFactor":[0.0,0.0,0.0]},"KHR_materials_ior":{"ior":1.0}}},{"name":"material_0_material","pbrMetallicRoughness":{"baseColorTexture":{"index":0},"metallicFactor":0.0},"extensions":{"KHR_materials_specular":{"specularFactor":1.0,"specularColorFactor":[0.0,0.0,0.0]},"KHR_materials_ior":{"ior":1.0}}},{"name":"material_1_material","pbrMetallicRoughness":{"baseColorTexture":{"index":1},"metallicFactor":0.0},"extensions":{"KHR_materials_specular":{"specularFactor":1.0,"specularColorFactor":[0.0,0.0,0.0]},"KHR_materials_ior":{"ior":1.0}}}],"meshes":[{"name":"defaultobject","primitives":[{"mode":4,"material":1,"indices":2,"attributes":{"POSITION":0,"TEXCOORD_0":1}},{"mode":4,"material":2,"indices":5,"attributes":{"POSITION":3,"TEXCOORD_0":4}}]}],"nodes":[{"name":"tile_0262.obj","children":[1]},{"name":"defaultobject","mesh":0}],"samplers":[{},{}],"scenes":[{"nodes":[0]}],"textures":[{"source":0,"sampler":0},{"source":1,"sampler":1}],"scene":0}
