{"asset":{"version":"2.0","generator":"Open Asset Import Library (assimp v6.0.0)"},"extensionsUsed":["KHR_materials_specular","KHR_materials_volume","KHR_materials_ior","FB_ngon_encoding"],"accessors":[{"bufferView":0,"byteOffset":0,"componentType":5126,"count":5576,"type":"VEC3","max":[0.7079821825027466,-2.1647133827209473,3.727654457092285],"min":[2.2250738585072014e-308,-2.3819003105163574,2.2250738585072014e-308]},{"bufferView":1,"byteOffset":0,"componentType":5126,"count":5576,"type":"VEC2","max":[0.9905104637145996,0.7771511077880859],"min":[2.2250738585072014e-308,2.2250738585072014e-308]},{"bufferView":2,"byteOffset":0,"componentType":5125,"count":24753,"type":"SCALAR","max":[5575],"min":[0]},{"bufferView":3,"byteOffset":0,"componentType":5126,"count":65,"type":"VEC3","max":[0.6994553804397583,-2.1675305366516113,3.4984586238861084],"min":[2.2250738585072014e-308,-2.3884503841400146,2.2250738585072014e-308]},{"bufferView":4,"byteOffset":0,"componentType":5126,"count":65,"type":"VEC2","max":[0.5149421691894531,0.583984375],"min":[2.2250738585072014e-308,2.2250738585072014e-308]},{"bufferView":5,"byteOffset":0,"componentType":5125,"count":195,"type":"SCALAR","max":[64],"min":[0]}],"buffers":[{"byteLength":212612,"uri":"tile_0337.bin"}],"bufferViews":[{"buffer":0,"byteOffset":0,"byteLength":66912,"target":34962},{"buffer":0,"byteOffset":66912,"byteLength":44608,"target":34962},{"buffer":0,"byteOffset":111520,"byteLength":99012,"target":34963},{"buffer":0,"byteOffset":210532,"byteLength":780,"target":34962},{"buffer":0,"byteOffset":211312,"byteLength":520,"target":34962},{"buffer":0,"byteOffset":211832,"byteLength":780,"target":34963}],"images":[{"uri":"../textures/tile_0337_material_0.jpg"},{"uri":"../textures/tile_0337_material_1.jpg"}],"materials":[{"name":"DefaultMaterial","pbrMetallicRoughness":{"baseColorFactor":[0.6000000238418579,0.6000000238418579,0.6000000238418579,1.0],"metallicFactor":0.0},"extensions":{"KHR_materials_specular":{"specularFactor":1.0,"specularColorFactor":[0.0,0.0,0.0]},"KHR_materials_ior":{"ior":1.0}}},{"name":"material_0_material","pbrMetallicRoughness":{"baseColorTexture":{"index":0},"metallicFactor":0.0},"extensions":{"KHR_materials_specular":{"specularFactor":1.0,"specularColorFactor":[0.0,0.0,0.0]},"KHR_materials_ior":{"ior":1.0}}},{"name":"material_1_material","pbrMetallicRoughness":{"baseColorTexture":{"index":1},"metallicFactor":0.0},"extensions":{"KHR_materials_specular":{"specularFactor":1.0,"specularColorFactor":[0.0,0.0,0.0]},"KHR_materials_ior":{"ior":1.0}}}],"meshes":[{"name":"defaultobject","primitives":[{"mode":4,"material":1,"indices":2,"attributes":{"POSITION":0,"TEXCOORD_0":1}},{"mode":4,"material":2,"indices":5,"attributes":{"POSITION":3,"TEXCOORD_0":4}}]}],"nodes":[{"name":"tile_0337.obj","children":[1]},{"name":"defaultobject","mesh":0}],"samplers":[{},{}],"scenes":[{"nodes":[0]}],"textures":[{"source":0,"sampler":0},{"source":1,"sampler":1}],"scene":0}
