{"asset":{"version":"2.0","generator":"Open Asset Import Library (assimp v6.0.0)"},"extensionsUsed":["KHR_materials_specular","KHR_materials_volume","KHR_materials_ior","FB_ngon_encoding"],"accessors":[{"bufferView":0,"byteOffset":0,"componentType":5126,"count":1131,"type":"VEC3","max":[2.0555548667907715,2.847001314163208,2.3346540927886963],"min":[2.2250738585072014e-308,2.2250738585072014e-308,2.2250738585072014e-308]},{"bufferView":1,"byteOffset":0,"componentType":5126,"count":1131,"type":"VEC2","max":[0.7320461273193359,0.8821220397949219],"min":[2.2250738585072014e-308,2.2250738585072014e-308]},{"bufferView":2,"byteOffset":0,"componentType":5125,"count":5319,"type":"SCALAR","max":[1130],"min":[0]},{"bufferView":3,"byteOffset":0,"componentType":5126,"count":2575,"type":"VEC3","max":[2.053720235824585,2.8492698669433594,2.337308883666992],"min":[2.2250738585072014e-308,2.2250738585072014e-308,2.2250738585072014e-308]},{"bufferView":4,"byteOffset":0,"componentType":5126,"count":2575,"type":"VEC2","max":[0.6729669570922852,0.6019420623779297],"min":[2.2250738585072014e-308,2.2250738585072014e-308]},{"bufferView":5,"byteOffset":0,"componentType":5125,"count":13452,"type":"SCALAR","max":[2574],"min":[0]}],"buffers":[{"byteLength":149204,"uri":"tile_0567.bin"}],"bufferViews":[{"buffer":0,"byteOffset":0,"byteLength":13572,"target":34962},{"buffer":0,"byteOffset":13572,"byteLength":9048,"target":34962},{"buffer":0,"byteOffset":22620,"byteLength":21276,"target":34963},{"buffer":0,"byteOffset":43896,"byteLength":30900,"target":34962},{"buffer":0,"byteOffset":74796,"byteLength":20600,"target":34962},{"buffer":0,"byteOffset":95396,"byteLength":53808,"target":34963}],"images":[{"uri":"../textures/tile_0567_material_0.jpg"},{"uri":"../textures/tile_0567_material_1.jpg"}],"materials":[{"name":"DefaultMaterial","pbrMetallicRoughness":{"baseColorFactor":[0.6000000238418579,0.6000000238418579,0.6000000238418579,1.0],"metallicFactor":0.0},"extensions":{"KHR_materials_specular":{"specularFactor":1.0,"specularColorFactor":[0.0,0.0,0.0]},"KHR_materials_ior":{"ior":1.0}}},{"name":"material_0_material","pbrMetallicRoughness":{"baseColorTexture":{"index":0},"metallicFactor":0.0},"extensions":{"KHR_materials_specular":{"specularFactor":1.0,"specularColorFactor":[0.0,0.0,0.0]},"KHR_materials_ior":{"ior":1.0}}},{"name":"material_1_material","pbrMetallicRoughness":{"baseColorTexture":{"index":1},"metallicFactor":0.0},"extensions":{"KHR_materials_specular":{"specularFactor":1.0,"specularColorFactor":[0.0,0.0,0.0]},"KHR_materials_ior":{"ior":1.0}}}],"meshes":[{"name":"defaultobject","primitives":[{"mode":4,"material":1,"indices":2,"attributes":{"POSITION":0,"TEXCOORD_0":1}},{"mode":4,"material":2,"indices":5,"attributes":{"POSITION":3,"TEXCOORD_0":4}}]}],"nodes":[{"name":"tile_0567.obj","children":[1]},{"name":"defaultobject","mesh":0}],"samplers":[{},{}],"scenes":[{"nodes":[0]}],"textures":[{"source":0,"sampler":0},{"source":1,"sampler":1}],"scene":0}
