{"asset":{"version":"2.0","generator":"Open Asset Import Library (assimp v6.0.0)"},"extensionsUsed":["KHR_materials_specular","KHR_materials_volume","KHR_materials_ior","FB_ngon_encoding"],"accessors":[{"bufferView":0,"byteOffset":0,"componentType":5126,"count":6414,"type":"VEC3","max":[3.5748891830444336,0.8371974229812622,0.04200422391295433],"min":[2.2250738585072014e-308,2.2250738585072014e-308,-0.03236193582415581]},{"bufferView":1,"byteOffset":0,"componentType":5126,"count":6414,"type":"VEC2","max":[0.9947900772094727,0.7398357391357422],"min":[2.2250738585072014e-308,2.2250738585072014e-308]},{"bufferView":2,"byteOffset":0,"componentType":5125,"count":25542,"type":"SCALAR","max":[6413],"min":[0]},{"bufferView":3,"byteOffset":0,"componentType":5126,"count":1023,"type":"VEC3","max":[3.100111961364746,0.8131576776504517,0.037877343595027924],"min":[2.2250738585072014e-308,2.2250738585072014e-308,-0.02634820155799389]},{"bufferView":4,"byteOffset":0,"componentType":5126,"count":1023,"type":"VEC2","max":[0.6837806701660156,0.7839927673339844],"min":[2.2250738585072014e-308,2.2250738585072014e-308]},{"bufferView":5,"byteOffset":0,"componentType":5125,"count":5220,"type":"SCALAR","max":[1022],"min":[0]}],"buffers":[{"byteLength":271788,"uri":"tile_0541.bin"}],"bufferViews":[{"buffer":0,"byteOffset":0,"byteLength":76968,"target":34962},{"buffer":0,"byteOffset":76968,"byteLength":51312,"target":34962},{"buffer":0,"byteOffset":128280,"byteLength":102168,"target":34963},{"buffer":0,"byteOffset":230448,"byteLength":12276,"target":34962},{"buffer":0,"byteOffset":242724,"byteLength":8184,"target":34962},{"buffer":0,"byteOffset":250908,"byteLength":20880,"target":34963}],"images":[{"uri":"../textures/tile_0541_material_0.jpg"},{"uri":"../textures/tile_0541_material_1.jpg"}],"materials":[{"name":"DefaultMaterial","pbrMetallicRoughness":{"baseColorFactor":[0.6000000238418579,0.6000000238418579,0.6000000238418579,1.0],"metallicFactor":0.0},"extensions":{"KHR_materials_specular":{"specularFactor":1.0,"specularColorFactor":[0.0,0.0,0.0]},"KHR_materials_ior":{"ior":1.0}}},{"name":"material_0_material","pbrMetallicRoughness":{"baseColorTexture":{"index":0},"metallicFactor":0.0},"extensions":{"KHR_materials_specular":{"specularFactor":1.0,"specularColorFactor":[0.0,0.0,0.0]},"KHR_materials_ior":{"ior":1.0}}},{"name":"material_1_material","pbrMetallicRoughness":{"baseColorTexture":{"index":1},"metallicFactor":0.0},"extensions":{"KHR_materials_specular":{"specularFactor":1.0,"specularColorFactor":[0.0,0.0,0.0]},"KHR_materials_ior":{"ior":1.0}}}],"meshes":[{"name":"defaultobject","primitives":[{"mode":4,"material":1,"indices":2,"attributes":{"POSITION":0,"TEXCOORD_0":1}},{"mode":4,"material":2,"indices":5,"attributes":{"POSITION":3,"TEXCOORD_0":4}}]}],"nodes":[{"name":"tile_0541.obj","children":[1]},{"name":"defaultobject","mesh":0}],"samplers":[{},{}],"scenes":[{"nodes":[0]}],"textures":[{"source":0,"sampler":0},{"source":1,"sampler":1}],"scene":0}
