{"asset":{"version":"2.0","generator":"Open Asset Import Library (assimp v6.0.0)"},"extensionsUsed":["KHR_materials_specular","KHR_materials_volume","KHR_materials_ior","FB_ngon_encoding"],"accessors":[{"bufferView":0,"byteOffset":0,"componentType":5126,"count":5888,"type":"VEC3","max":[3.345694065093994,0.49104607105255127,0.3921945095062256],"min":[2.2250738585072014e-308,2.2250738585072014e-308,2.2250738585072014e-308]},{"bufferView":1,"byteOffset":0,"componentType":5126,"count":5888,"type":"VEC2","max":[0.9941873550415039,0.6562232971191406],"min":[2.2250738585072014e-308,2.2250738585072014e-308]},{"bufferView":2,"byteOffset":0,"componentType":5125,"count":24459,"type":"SCALAR","max":[5887],"min":[0]},{"bufferView":3,"byteOffset":0,"componentType":5126,"count":246,"type":"VEC3","max":[0.7859748005867004,0.3897925615310669,0.3767467737197876],"min":[2.2250738585072014e-308,2.2250738585072014e-308,2.2250738585072014e-308]},{"bufferView":4,"byteOffset":0,"componentType":5126,"count":246,"type":"VEC2","max":[0.6394615173339844,0.8530731201171875],"min":[2.2250738585072014e-308,2.2250738585072014e-308]},{"bufferView":5,"byteOffset":0,"componentType":5125,"count":1191,"type":"SCALAR","max":[245],"min":[0]}],"buffers":[{"byteLength":225280,"uri":"tile_0502.bin"}],"bufferViews":[{"buffer":0,"byteOffset":0,"byteLength":70656,"target":34962},{"buffer":0,"byteOffset":70656,"byteLength":47104,"target":34962},{"buffer":0,"byteOffset":117760,"byteLength":97836,"target":34963},{"buffer":0,"byteOffset":215596,"byteLength":2952,"target":34962},{"buffer":0,"byteOffset":218548,"byteLength":1968,"target":34962},{"buffer":0,"byteOffset":220516,"byteLength":4764,"target":34963}],"images":[{"uri":"../textures/tile_0502_material_0.jpg"},{"uri":"../textures/tile_0502_material_1.jpg"}],"materials":[{"name":"DefaultMaterial","pbrMetallicRoughness":{"baseColorFactor":[0.6000000238418579,0.6000000238418579,0.6000000238418579,1.0],"metallicFactor":0.0},"extensions":{"KHR_materials_specular":{"specularFactor":1.0,"specularColorFactor":[0.0,0.0,0.0]},"KHR_materials_ior":{"ior":1.0}}},{"name":"material_0_material","pbrMetallicRoughness":{"baseColorTexture":{"index":0},"metallicFactor":0.0},"extensions":{"KHR_materials_specular":{"specularFactor":1.0,"specularColorFactor":[0.0,0.0,0.0]},"KHR_materials_ior":{"ior":1.0}}},{"name":"material_1_material","pbrMetallicRoughness":{"baseColorTexture":{"index":1},"metallicFactor":0.0},"extensions":{"KHR_materials_specular":{"specularFactor":1.0,"specularColorFactor":[0.0,0.0,0.0]},"KHR_materials_ior":{"ior":1.0}}}],"meshes":[{"name":"defaultobject","primitives":[{"mode":4,"material":1,"indices":2,"attributes":{"POSITION":0,"TEXCOORD_0":1}},{"mode":4,"material":2,"indices":5,"attributes":{"POSITION":3,"TEXCOORD_0":4}}]}],"nodes":[{"name":"tile_0502.obj","children":[1]},{"name":"defaultobject","mesh":0}],"samplers":[{},{}],"scenes":[{"nodes":[0]}],"textures":[{"source":0,"sampler":0},{"source":1,"sampler":1}],"scene":0}
