{"asset":{"version":"2.0","generator":"Open Asset Import Library (assimp v6.0.0)"},"extensionsUsed":["KHR_materials_specular","KHR_materials_volume","KHR_materials_ior","FB_ngon_encoding"],"accessors":[{"bufferView":0,"byteOffset":0,"componentType":5126,"count":3453,"type":"VEC3","max":[0.37945401668548584,-1.4076688289642334,2.647843360900879],"min":[-0.15670166909694672,-1.574481725692749,2.2250738585072014e-308]},{"bufferView":1,"byteOffset":0,"componentType":5126,"count":3453,"type":"VEC2","max":[0.986607551574707,0.9111061096191406],"min":[2.2250738585072014e-308,2.2250738585072014e-308]},{"bufferView":2,"byteOffset":0,"componentType":5125,"count":15480,"type":"SCALAR","max":[3452],"min":[0]},{"bufferView":3,"byteOffset":0,"componentType":5126,"count":433,"type":"VEC3","max":[0.318765252828598,-1.5034343004226685,2.59409236907959],"min":[2.2250738585072014e-308,-1.5921920537948608,2.2250738585072014e-308]},{"bufferView":4,"byteOffset":0,"componentType":5126,"count":433,"type":"VEC2","max":[0.7909374237060547,0.7507896423339844],"min":[2.2250738585072014e-308,2.2250738585072014e-308]},{"bufferView":5,"byteOffset":0,"componentType":5125,"count":2256,"type":"SCALAR","max":[432],"min":[0]}],"buffers":[{"byteLength":148664,"uri":"tile_0355.bin"}],"bufferViews":[{"buffer":0,"byteOffset":0,"byteLength":41436,"target":34962},{"buffer":0,"byteOffset":41436,"byteLength":27624,"target":34962},{"buffer":0,"byteOffset":69060,"byteLength":61920,"target":34963},{"buffer":0,"byteOffset":130980,"byteLength":5196,"target":34962},{"buffer":0,"byteOffset":136176,"byteLength":3464,"target":34962},{"buffer":0,"byteOffset":139640,"byteLength":9024,"target":34963}],"images":[{"uri":"../textures/tile_0355_material_0.jpg"},{"uri":"../textures/tile_0355_material_1.jpg"}],"materials":[{"name":"DefaultMaterial","pbrMetallicRoughness":{"baseColorFactor":[0.6000000238418579,0.6000000238418579,0.6000000238418579,1.0],"metallicFactor":0.0},"extensions":{"KHR_materials_specular":{"specularFactor":1.0,"specularColorFactor":[0.0,0.0,0.0]},"KHR_materials_ior":{"ior":1.0}}},{"name":"material_0_material","pbrMetallicRoughness":{"baseColorTexture":{"index":0},"metallicFactor":0.0},"extensions":{"KHR_materials_specular":{"specularFactor":1.0,"specularColorFactor":[0.0,0.0,0.0]},"KHR_materials_ior":{"ior":1.0}}},{"name":"material_1_material","pbrMetallicRoughness":{"baseColorTexture":{"index":1},"metallicFactor":0.0},"extensions":{"KHR_materials_specular":{"specularFactor":1.0,"specularColorFactor":[0.0,0.0,0.0]},"KHR_materials_ior":{"ior":1.0}}}],"meshes":[{"name":"defaultobject","primitives":[{"mode":4,"material":1,"indices":2,"attributes":{"POSITION":0,"TEXCOORD_0":1}},{"mode":4,"material":2,"indices":5,"attributes":{"POSITION":3,"TEXCOORD_0":4}}]}],"nodes":[{"name":"tile_0355.obj","children":[1]},{"name":"defaultobject","mesh":0}],"samplers":[{},{}],"scenes":[{"nodes":[0]}],"textures":[{"source":0,"sampler":0},{"source":1,"sampler":1}],"scene":0}
