{"asset":{"version":"2.0","generator":"Open Asset Import Library (assimp v6.0.0)"},"extensionsUsed":["KHR_materials_specular","KHR_materials_volume","KHR_materials_ior","FB_ngon_encoding"],"accessors":[{"bufferView":0,"byteOffset":0,"componentType":5126,"count":7015,"type":"VEC3","max":[3.5253303050994873,3.075777530670166,0.3991326093673706],"min":[2.2250738585072014e-308,2.2250738585072014e-308,2.2250738585072014e-308]},{"bufferView":1,"byteOffset":0,"componentType":5126,"count":7015,"type":"VEC2","max":[0.9923920631408691,0.9608383178710938],"min":[2.2250738585072014e-308,2.2250738585072014e-308]},{"bufferView":2,"byteOffset":0,"componentType":5125,"count":28758,"type":"SCALAR","max":[7014],"min":[0]},{"bufferView":3,"byteOffset":0,"componentType":5126,"count":1042,"type":"VEC3","max":[3.504516839981079,2.9345903396606445,0.38018351793289185],"min":[2.2250738585072014e-308,2.2250738585072014e-308,2.2250738585072014e-308]},{"bufferView":4,"byteOffset":0,"componentType":5126,"count":1042,"type":"VEC2","max":[0.7029333114624023,0.8068084716796875],"min":[2.2250738585072014e-308,2.2250738585072014e-308]},{"bufferView":5,"byteOffset":0,"componentType":5125,"count":4578,"type":"SCALAR","max":[1041],"min":[0]}],"buffers":[{"byteLength":294484,"uri":"tile_0519.bin"}],"bufferViews":[{"buffer":0,"byteOffset":0,"byteLength":84180,"target":34962},{"buffer":0,"byteOffset":84180,"byteLength":56120,"target":34962},{"buffer":0,"byteOffset":140300,"byteLength":115032,"target":34963},{"buffer":0,"byteOffset":255332,"byteLength":12504,"target":34962},{"buffer":0,"byteOffset":267836,"byteLength":8336,"target":34962},{"buffer":0,"byteOffset":276172,"byteLength":18312,"target":34963}],"images":[{"uri":"../textures/tile_0519_material_0.jpg"},{"uri":"../textures/tile_0519_material_1.jpg"}],"materials":[{"name":"DefaultMaterial","pbrMetallicRoughness":{"baseColorFactor":[0.6000000238418579,0.6000000238418579,0.6000000238418579,1.0],"metallicFactor":0.0},"extensions":{"KHR_materials_specular":{"specularFactor":1.0,"specularColorFactor":[0.0,0.0,0.0]},"KHR_materials_ior":{"ior":1.0}}},{"name":"material_0_material","pbrMetallicRoughness":{"baseColorTexture":{"index":0},"metallicFactor":0.0},"extensions":{"KHR_materials_specular":{"specularFactor":1.0,"specularColorFactor":[0.0,0.0,0.0]},"KHR_materials_ior":{"ior":1.0}}},{"name":"material_1_material","pbrMetallicRoughness":{"baseColorTexture":{"index":1},"metallicFactor":0.0},"extensions":{"KHR_materials_specular":{"specularFactor":1.0,"specularColorFactor":[0.0,0.0,0.0]},"KHR_materials_ior":{"ior":1.0}}}],"meshes":[{"name":"defaultobject","primitives":[{"mode":4,"material":1,"indices":2,"attributes":{"POSITION":0,"TEXCOORD_0":1}},{"mode":4,"material":2,"indices":5,"attributes":{"POSITION":3,"TEXCOORD_0":4}}]}],"nodes":[{"name":"tile_0519.obj","children":[1]},{"name":"defaultobject","mesh":0}],"samplers":[{},{}],"scenes":[{"nodes":[0]}],"textures":[{"source":0,"sampler":0},{"source":1,"sampler":1}],"scene":0}
