{"asset":{"version":"2.0","generator":"Open Asset Import Library (assimp v6.0.0)"},"extensionsUsed":["KHR_materials_specular","KHR_materials_volume","KHR_materials_ior","FB_ngon_encoding"],"accessors":[{"bufferView":0,"byteOffset":0,"componentType":5126,"count":4194,"type":"VEC3","max":[0.8923493027687073,-0.07181493937969208,3.610341787338257],"min":[2.2250738585072014e-308,-0.2143343985080719,2.2250738585072014e-308]},{"bufferView":1,"byteOffset":0,"componentType":5126,"count":4194,"type":"VEC2","max":[0.9925556182861328,0.6080799102783203],"min":[2.2250738585072014e-308,2.2250738585072014e-308]},{"bufferView":2,"byteOffset":0,"componentType":5125,"count":19284,"type":"SCALAR","max":[4193],"min":[0]},{"bufferView":3,"byteOffset":0,"componentType":5126,"count":119,"type":"VEC3","max":[0.5076385140419006,-0.17244639992713928,3.3818156719207764],"min":[2.2250738585072014e-308,-0.21158142387866974,2.2250738585072014e-308]},{"bufferView":4,"byteOffset":0,"componentType":5126,"count":119,"type":"VEC2","max":[0.6324767470359802,0.5528640747070312],"min":[2.2250738585072014e-308,2.2250738585072014e-308]},{"bufferView":5,"byteOffset":0,"componentType":5125,"count":534,"type":"SCALAR","max":[118],"min":[0]}],"buffers":[{"byteLength":165532,"uri":"tile_0412.bin"}],"bufferViews":[{"buffer":0,"byteOffset":0,"byteLength":50328,"target":34962},{"buffer":0,"byteOffset":50328,"byteLength":33552,"target":34962},{"buffer":0,"byteOffset":83880,"byteLength":77136,"target":34963},{"buffer":0,"byteOffset":161016,"byteLength":1428,"target":34962},{"buffer":0,"byteOffset":162444,"byteLength":952,"target":34962},{"buffer":0,"byteOffset":163396,"byteLength":2136,"target":34963}],"images":[{"uri":"../textures/tile_0412_material_0.jpg"},{"uri":"../textures/tile_0412_material_1.jpg"}],"materials":[{"name":"DefaultMaterial","pbrMetallicRoughness":{"baseColorFactor":[0.6000000238418579,0.6000000238418579,0.6000000238418579,1.0],"metallicFactor":0.0},"extensions":{"KHR_materials_specular":{"specularFactor":1.0,"specularColorFactor":[0.0,0.0,0.0]},"KHR_materials_ior":{"ior":1.0}}},{"name":"material_0_material","pbrMetallicRoughness":{"baseColorTexture":{"index":0},"metallicFactor":0.0},"extensions":{"KHR_materials_specular":{"specularFactor":1.0,"specularColorFactor":[0.0,0.0,0.0]},"KHR_materials_ior":{"ior":1.0}}},{"name":"material_1_material","pbrMetallicRoughness":{"baseColorTexture":{"index":1},"metallicFactor":0.0},"extensions":{"KHR_materials_specular":{"specularFactor":1.0,"specularColorFactor":[0.0,0.0,0.0]},"KHR_materials_ior":{"ior":1.0}}}],"meshes":[{"name":"defaultobject","primitives":[{"mode":4,"material":1,"indices":2,"attributes":{"POSITION":0,"TEXCOORD_0":1}},{"mode":4,"material":2,"indices":5,"attributes":{"POSITION":3,"TEXCOORD_0":4}}]}],"nodes":[{"name":"tile_0412.obj","children":[1]},{"name":"defaultobject","mesh":0}],"samplers":[{},{}],"scenes":[{"nodes":[0]}],"textures":[{"source":0,"sampler":0},{"source":1,"sampler":1}],"scene":0}
