{"asset":{"version":"2.0","generator":"Open Asset Import Library (assimp v6.0.0)"},"extensionsUsed":["KHR_materials_specular","KHR_materials_volume","KHR_materials_ior","FB_ngon_encoding"],"accessors":[{"bufferView":0,"byteOffset":0,"componentType":5126,"count":3922,"type":"VEC3","max":[2.2430098056793213,-1.2673711776733398,1.6302170753479004],"min":[-0.40443235635757446,-1.525956153869629,2.2250738585072014e-308]},{"bufferView":1,"byteOffset":0,"componentType":5126,"count":3922,"type":"VEC2","max":[0.9893169403076172,0.5897140502929688],"min":[2.2250738585072014e-308,2.2250738585072014e-308]},{"bufferView":2,"byteOffset":0,"componentType":5125,"count":15267,"type":"SCALAR","max":[3921],"min":[0]},{"bufferView":3,"byteOffset":0,"componentType":5126,"count":1338,"type":"VEC3","max":[-0.32089120149612427,-1.2931599617004395,1.6177494525909424],"min":[-0.4063666760921478,-1.5201776027679443,2.2250738585072014e-308]},{"bufferView":4,"byteOffset":0,"componentType":5126,"count":1338,"type":"VEC2","max":[0.5357885360717773,0.89849853515625],"min":[2.2250738585072014e-308,2.2250738585072014e-308]},{"bufferView":5,"byteOffset":0,"componentType":5125,"count":6360,"type":"SCALAR","max":[1337],"min":[0]}],"buffers":[{"byteLength":191708,"uri":"tile_0293.bin"}],"bufferViews":[{"buffer":0,"byteOffset":0,"byteLength":47064,"target":34962},{"buffer":0,"byteOffset":47064,"byteLength":31376,"target":34962},{"buffer":0,"byteOffset":78440,"byteLength":61068,"target":34963},{"buffer":0,"byteOffset":139508,"byteLength":16056,"target":34962},{"buffer":0,"byteOffset":155564,"byteLength":10704,"target":34962},{"buffer":0,"byteOffset":166268,"byteLength":25440,"target":34963}],"images":[{"uri":"../textures/tile_0293_material_0.jpg"},{"uri":"../textures/tile_0293_material_1.jpg"}],"materials":[{"name":"DefaultMaterial","pbrMetallicRoughness":{"baseColorFactor":[0.6000000238418579,0.6000000238418579,0.6000000238418579,1.0],"metallicFactor":0.0},"extensions":{"KHR_materials_specular":{"specularFactor":1.0,"specularColorFactor":[0.0,0.0,0.0]},"KHR_materials_ior":{"ior":1.0}}},{"name":"material_0_material","pbrMetallicRoughness":{"baseColorTexture":{"index":0},"metallicFactor":0.0},"extensions":{"KHR_materials_specular":{"specularFactor":1.0,"specularColorFactor":[0.0,0.0,0.0]},"KHR_materials_ior":{"ior":1.0}}},{"name":"material_1_material","pbrMetallicRoughness":{"baseColorTexture":{"index":1},"metallicFactor":0.0},"extensions":{"KHR_materials_specular":{"specularFactor":1.0,"specularColorFactor":[0.0,0.0,0.0]},"KHR_materials_ior":{"ior":1.0}}}],"meshes":[{"name":"defaultobject","primitives":[{"mode":4,"material":1,"indices":2,"attributes":{"POSITION":0,"TEXCOORD_0":1}},{"mode":4,"material":2,"indices":5,"attributes":{"POSITION":3,"TEXCOORD_0":4}}]}],"nodes":[{"name":"tile_0293.obj","children":[1]},{"name":"defaultobject","mesh":0}],"samplers":[{},{}],"scenes":[{"nodes":[0]}],"textures":[{"source":0,"sampler":0},{"source":1,"sampler":1}],"scene":0}
