{"asset":{"version":"2.0","generator":"Open Asset Import Library (assimp v6.0.0)"},"extensionsUsed":["KHR_materials_specular","KHR_materials_volume","KHR_materials_ior","FB_ngon_encoding"],"accessors":[{"bufferView":0,"byteOffset":0,"componentType":5126,"count":15178,"type":"VEC3","max":[3.507438898086548,0.14415261149406433,0.04839488863945007],"min":[2.2250738585072014e-308,-0.07944949716329575,-0.07665135711431503]},{"bufferView":1,"byteOffset":0,"componentType":5126,"count":15178,"type":"VEC2","max":[0.9929666519165039,0.6542911529541016],"min":[2.2250738585072014e-308,2.2250738585072014e-308]},{"bufferView":2,"byteOffset":0,"componentType":5125,"count":59124,"type":"SCALAR","max":[15177],"min":[0]},{"bufferView":3,"byteOffset":0,"componentType":5126,"count":249,"type":"VEC3","max":[3.1199748516082764,0.01000465452671051,0.042387910187244415],"min":[2.2250738585072014e-308,-0.07776404917240143,-0.04819069430232048]},{"bufferView":4,"byteOffset":0,"componentType":5126,"count":249,"type":"VEC2","max":[0.6151609420776367,0.6800613403320312],"min":[2.2250738585072014e-308,2.2250738585072014e-308]},{"bufferView":5,"byteOffset":0,"componentType":5125,"count":1125,"type":"SCALAR","max":[248],"min":[0]}],"buffers":[{"byteLength":549536,"uri":"tile_0499.bin"}],"bufferViews":[{"buffer":0,"byteOffset":0,"byteLength":182136,"target":34962},{"buffer":0,"byteOffset":182136,"byteLength":121424,"target":34962},{"buffer":0,"byteOffset":303560,"byteLength":236496,"target":34963},{"buffer":0,"byteOffset":540056,"byteLength":2988,"target":34962},{"buffer":0,"byteOffset":543044,"byteLength":1992,"target":34962},{"buffer":0,"byteOffset":545036,"byteLength":4500,"target":34963}],"images":[{"uri":"../textures/tile_0499_material_0.jpg"},{"uri":"../textures/tile_0499_material_1.jpg"}],"materials":[{"name":"DefaultMaterial","pbrMetallicRoughness":{"baseColorFactor":[0.6000000238418579,0.6000000238418579,0.6000000238418579,1.0],"metallicFactor":0.0},"extensions":{"KHR_materials_specular":{"specularFactor":1.0,"specularColorFactor":[0.0,0.0,0.0]},"KHR_materials_ior":{"ior":1.0}}},{"name":"material_0_material","pbrMetallicRoughness":{"baseColorTexture":{"index":0},"metallicFactor":0.0},"extensions":{"KHR_materials_specular":{"specularFactor":1.0,"specularColorFactor":[0.0,0.0,0.0]},"KHR_materials_ior":{"ior":1.0}}},{"name":"material_1_material","pbrMetallicRoughness":{"baseColorTexture":{"index":1},"metallicFactor":0.0},"extensions":{"KHR_materials_specular":{"specularFactor":1.0,"specularColorFactor":[0.0,0.0,0.0]},"KHR_materials_ior":{"ior":1.0}}}],"meshes":[{"name":"defaultobject","primitives":[{"mode":4,"material":1,"indices":2,"attributes":{"POSITION":0,"TEXCOORD_0":1}},{"mode":4,"material":2,"indices":5,"attributes":{"POSITION":3,"TEXCOORD_0":4}}]}],"nodes":[{"name":"tile_0499.obj","children":[1]},{"name":"defaultobject","mesh":0}],"samplers":[{},{}],"scenes":[{"nodes":[0]}],"textures":[{"source":0,"sampler":0},{"source":1,"sampler":1}],"scene":0}
