{"asset":{"version":"2.0","generator":"Open Asset Import Library (assimp v6.0.0)"},"extensionsUsed":["KHR_materials_specular","KHR_materials_volume","KHR_materials_ior","FB_ngon_encoding"],"accessors":[{"bufferView":0,"byteOffset":0,"componentType":5126,"count":4257,"type":"VEC3","max":[3.097273588180542,-1.3825234174728394,0.23686358332633972],"min":[2.2250738585072014e-308,-1.509522557258606,2.2250738585072014e-308]},{"bufferView":1,"byteOffset":0,"componentType":5126,"count":4257,"type":"VEC2","max":[0.9885950088500977,0.9056396484375],"min":[2.2250738585072014e-308,2.2250738585072014e-308]},{"bufferView":2,"byteOffset":0,"componentType":5125,"count":17655,"type":"SCALAR","max":[4256],"min":[0]},{"bufferView":3,"byteOffset":0,"componentType":5126,"count":348,"type":"VEC3","max":[0.3143964111804962,-1.400230884552002,0.23212774097919464],"min":[2.2250738585072014e-308,-1.5084221363067627,2.2250738585072014e-308]},{"bufferView":4,"byteOffset":0,"componentType":5126,"count":348,"type":"VEC2","max":[0.6881656646728516,0.5120391845703125],"min":[2.2250738585072014e-308,2.2250738585072014e-308]},{"bufferView":5,"byteOffset":0,"componentType":5125,"count":1515,"type":"SCALAR","max":[347],"min":[0]}],"buffers":[{"byteLength":168780,"uri":"tile_0230.bin"}],"bufferViews":[{"buffer":0,"byteOffset":0,"byteLength":51084,"target":34962},{"buffer":0,"byteOffset":51084,"byteLength":34056,"target":34962},{"buffer":0,"byteOffset":85140,"byteLength":70620,"target":34963},{"buffer":0,"byteOffset":155760,"byteLength":4176,"target":34962},{"buffer":0,"byteOffset":159936,"byteLength":2784,"target":34962},{"buffer":0,"byteOffset":162720,"byteLength":6060,"target":34963}],"images":[{"uri":"../textures/tile_0230_material_0.jpg"},{"uri":"../textures/tile_0230_material_1.jpg"}],"materials":[{"name":"DefaultMaterial","pbrMetallicRoughness":{"baseColorFactor":[0.6000000238418579,0.6000000238418579,0.6000000238418579,1.0],"metallicFactor":0.0},"extensions":{"KHR_materials_specular":{"specularFactor":1.0,"specularColorFactor":[0.0,0.0,0.0]},"KHR_materials_ior":{"ior":1.0}}},{"name":"material_0_material","pbrMetallicRoughness":{"baseColorTexture":{"index":0},"metallicFactor":0.0},"extensions":{"KHR_materials_specular":{"specularFactor":1.0,"specularColorFactor":[0.0,0.0,0.0]},"KHR_materials_ior":{"ior":1.0}}},{"name":"material_1_material","pbrMetallicRoughness":{"baseColorTexture":{"index":1},"metallicFactor":0.0},"extensions":{"KHR_materials_specular":{"specularFactor":1.0,"specularColorFactor":[0.0,0.0,0.0]},"KHR_materials_ior":{"ior":1.0}}}],"meshes":[{"name":"defaultobject","primitives":[{"mode":4,"material":1,"indices":2,"attributes":{"POSITION":0,"TEXCOORD_0":1}},{"mode":4,"material":2,"indices":5,"attributes":{"POSITION":3,"TEXCOORD_0":4}}]}],"nodes":[{"name":"tile_0230.obj","children":[1]},{"name":"defaultobject","mesh":0}],"samplers":[{},{}],"scenes":[{"nodes":[0]}],"textures":[{"source":0,"sampler":0},{"source":1,"sampler":1}],"scene":0}
