{"asset":{"version":"2.0","generator":"Open Asset Import Library (assimp v6.0.0)"},"extensionsUsed":["KHR_materials_specular","KHR_materials_volume","KHR_materials_ior","FB_ngon_encoding"],"accessors":[{"bufferView":0,"byteOffset":0,"componentType":5126,"count":5536,"type":"VEC3","max":[3.5667104721069336,1.1111050844192505,0.131151020526886],"min":[2.2250738585072014e-308,2.2250738585072014e-308,2.2250738585072014e-308]},{"bufferView":1,"byteOffset":0,"componentType":5126,"count":5536,"type":"VEC2","max":[0.9949183464050293,0.5116539001464844],"min":[2.2250738585072014e-308,2.2250738585072014e-308]},{"bufferView":2,"byteOffset":0,"componentType":5125,"count":22578,"type":"SCALAR","max":[5535],"min":[0]},{"bufferView":3,"byteOffset":0,"componentType":5126,"count":1021,"type":"VEC3","max":[3.1123499870300293,1.1089946031570435,0.12975522875785828],"min":[2.2250738585072014e-308,2.2250738585072014e-308,2.2250738585072014e-308]},{"bufferView":4,"byteOffset":0,"componentType":5126,"count":1021,"type":"VEC2","max":[0.6772632598876953,0.757232666015625],"min":[2.2250738585072014e-308,2.2250738585072014e-308]},{"bufferView":5,"byteOffset":0,"componentType":5125,"count":5259,"type":"SCALAR","max":[1020],"min":[0]}],"buffers":[{"byteLength":242488,"uri":"tile_0530.bin"}],"bufferViews":[{"buffer":0,"byteOffset":0,"byteLength":66432,"target":34962},{"buffer":0,"byteOffset":66432,"byteLength":44288,"target":34962},{"buffer":0,"byteOffset":110720,"byteLength":90312,"target":34963},{"buffer":0,"byteOffset":201032,"byteLength":12252,"target":34962},{"buffer":0,"byteOffset":213284,"byteLength":8168,"target":34962},{"buffer":0,"byteOffset":221452,"byteLength":21036,"target":34963}],"images":[{"uri":"../textures/tile_0530_material_0.jpg"},{"uri":"../textures/tile_0530_material_1.jpg"}],"materials":[{"name":"DefaultMaterial","pbrMetallicRoughness":{"baseColorFactor":[0.6000000238418579,0.6000000238418579,0.6000000238418579,1.0],"metallicFactor":0.0},"extensions":{"KHR_materials_specular":{"specularFactor":1.0,"specularColorFactor":[0.0,0.0,0.0]},"KHR_materials_ior":{"ior":1.0}}},{"name":"material_0_material","pbrMetallicRoughness":{"baseColorTexture":{"index":0},"metallicFactor":0.0},"extensions":{"KHR_materials_specular":{"specularFactor":1.0,"specularColorFactor":[0.0,0.0,0.0]},"KHR_materials_ior":{"ior":1.0}}},{"name":"material_1_material","pbrMetallicRoughness":{"baseColorTexture":{"index":1},"metallicFactor":0.0},"extensions":{"KHR_materials_specular":{"specularFactor":1.0,"specularColorFactor":[0.0,0.0,0.0]},"KHR_materials_ior":{"ior":1.0}}}],"meshes":[{"name":"defaultobject","primitives":[{"mode":4,"material":1,"indices":2,"attributes":{"POSITION":0,"TEXCOORD_0":1}},{"mode":4,"material":2,"indices":5,"attributes":{"POSITION":3,"TEXCOORD_0":4}}]}],"nodes":[{"name":"tile_0530.obj","children":[1]},{"name":"defaultobject","mesh":0}],"samplers":[{},{}],"scenes":[{"nodes":[0]}],"textures":[{"source":0,"sampler":0},{"source":1,"sampler":1}],"scene":0}
