{"asset":{"version":"2.0","generator":"Open Asset Import Library (assimp v6.0.0)"},"extensionsUsed":["KHR_materials_specular","KHR_materials_volume","KHR_materials_ior","FB_ngon_encoding"],"accessors":[{"bufferView":0,"byteOffset":0,"componentType":5126,"count":14040,"type":"VEC3","max":[1.9568934440612793,-3.1445412635803223,1.4454658031463623],"min":[2.2250738585072014e-308,-4.2184953689575195,2.2250738585072014e-308]},{"bufferView":1,"byteOffset":0,"componentType":5126,"count":14040,"type":"VEC2","max":[0.9956202507019043,0.7479820251464844],"min":[2.2250738585072014e-308,2.2250738585072014e-308]},{"bufferView":2,"byteOffset":0,"componentType":5125,"count":57777,"type":"SCALAR","max":[14039],"min":[0]},{"bufferView":3,"byteOffset":0,"componentType":5126,"count":3177,"type":"VEC3","max":[2.038609504699707,-3.143099546432495,1.4897143840789795],"min":[2.2250738585072014e-308,-3.9985461235046387,2.2250738585072014e-308]},{"bufferView":4,"byteOffset":0,"componentType":5126,"count":3177,"type":"VEC2","max":[0.9664783477783203,0.8336677551269531],"min":[2.2250738585072014e-308,2.2250738585072014e-308]},{"bufferView":5,"byteOffset":0,"componentType":5125,"count":16359,"type":"SCALAR","max":[3176],"min":[0]}],"buffers":[{"byteLength":640884,"uri":"tile_0195.bin"}],"bufferViews":[{"buffer":0,"byteOffset":0,"byteLength":168480,"target":34962},{"buffer":0,"byteOffset":168480,"byteLength":112320,"target":34962},{"buffer":0,"byteOffset":280800,"byteLength":231108,"target":34963},{"buffer":0,"byteOffset":511908,"byteLength":38124,"target":34962},{"buffer":0,"byteOffset":550032,"byteLength":25416,"target":34962},{"buffer":0,"byteOffset":575448,"byteLength":65436,"target":34963}],"images":[{"uri":"../textures/tile_0195_material_0.jpg"},{"uri":"../textures/tile_0195_material_1.jpg"}],"materials":[{"name":"DefaultMaterial","pbrMetallicRoughness":{"baseColorFactor":[0.6000000238418579,0.6000000238418579,0.6000000238418579,1.0],"metallicFactor":0.0},"extensions":{"KHR_materials_specular":{"specularFactor":1.0,"specularColorFactor":[0.0,0.0,0.0]},"KHR_materials_ior":{"ior":1.0}}},{"name":"material_0_material","pbrMetallicRoughness":{"baseColorTexture":{"index":0},"metallicFactor":0.0},"extensions":{"KHR_materials_specular":{"specularFactor":1.0,"specularColorFactor":[0.0,0.0,0.0]},"KHR_materials_ior":{"ior":1.0}}},{"name":"material_1_material","pbrMetallicRoughness":{"baseColorTexture":{"index":1},"metallicFactor":0.0},"extensions":{"KHR_materials_specular":{"specularFactor":1.0,"specularColorFactor":[0.0,0.0,0.0]},"KHR_materials_ior":{"ior":1.0}}}],"meshes":[{"name":"defaultobject","primitives":[{"mode":4,"material":1,"indices":2,"attributes":{"POSITION":0,"TEXCOORD_0":1}},{"mode":4,"material":2,"indices":5,"attributes":{"POSITION":3,"TEXCOORD_0":4}}]}],"nodes":[{"name":"tile_0195.obj","children":[1]},{"name":"defaultobject","mesh":0}],"samplers":[{},{}],"scenes":[{"nodes":[0]}],"textures":[{"source":0,"sampler":0},{"source":1,"sampler":1}],"scene":0}
