{"asset":{"version":"2.0","generator":"Open Asset Import Library (assimp v6.0.0)"},"extensionsUsed":["KHR_materials_specular","KHR_materials_volume","KHR_materials_ior","FB_ngon_encoding"],"accessors":[{"bufferView":0,"byteOffset":0,"componentType":5126,"count":12091,"type":"VEC3","max":[2.2300381660461426,-1.5173836946487427,1.8042160272598267],"min":[-0.41567283868789673,-1.9921845197677612,2.2250738585072014e-308]},{"bufferView":1,"byteOffset":0,"componentType":5126,"count":12091,"type":"VEC2","max":[0.9941065311431885,0.6835613250732422],"min":[2.2250738585072014e-308,2.2250738585072014e-308]},{"bufferView":2,"byteOffset":0,"componentType":5125,"count":50862,"type":"SCALAR","max":[12090],"min":[0]},{"bufferView":3,"byteOffset":0,"componentType":5126,"count":4249,"type":"VEC3","max":[2.157360076904297,-1.5203176736831665,1.724155068397522],"min":[-0.41363492608070374,-1.982780933380127,2.2250738585072014e-308]},{"bufferView":4,"byteOffset":0,"componentType":5126,"count":4249,"type":"VEC2","max":[0.9556112289428711,0.9760704040527344],"min":[2.2250738585072014e-308,2.2250738585072014e-308]},{"bufferView":5,"byteOffset":0,"componentType":5125,"count":21780,"type":"SCALAR","max":[4248],"min":[0]}],"buffers":[{"byteLength":617368,"uri":"tile_0269.bin"}],"bufferViews":[{"buffer":0,"byteOffset":0,"byteLength":145092,"target":34962},{"buffer":0,"byteOffset":145092,"byteLength":96728,"target":34962},{"buffer":0,"byteOffset":241820,"byteLength":203448,"target":34963},{"buffer":0,"byteOffset":445268,"byteLength":50988,"target":34962},{"buffer":0,"byteOffset":496256,"byteLength":33992,"target":34962},{"buffer":0,"byteOffset":530248,"byteLength":87120,"target":34963}],"images":[{"uri":"../textures/tile_0269_material_0.jpg"},{"uri":"../textures/tile_0269_material_1.jpg"}],"materials":[{"name":"DefaultMaterial","pbrMetallicRoughness":{"baseColorFactor":[0.6000000238418579,0.6000000238418579,0.6000000238418579,1.0],"metallicFactor":0.0},"extensions":{"KHR_materials_specular":{"specularFactor":1.0,"specularColorFactor":[0.0,0.0,0.0]},"KHR_materials_ior":{"ior":1.0}}},{"name":"material_0_material","pbrMetallicRoughness":{"baseColorTexture":{"index":0},"metallicFactor":0.0},"extensions":{"KHR_materials_specular":{"specularFactor":1.0,"specularColorFactor":[0.0,0.0,0.0]},"KHR_materials_ior":{"ior":1.0}}},{"name":"material_1_material","pbrMetallicRoughness":{"baseColorTexture":{"index":1},"metallicFactor":0.0},"extensions":{"KHR_materials_specular":{"specularFactor":1.0,"specularColorFactor":[0.0,0.0,0.0]},"KHR_materials_ior":{"ior":1.0}}}],"meshes":[{"name":"defaultobject","primitives":[{"mode":4,"material":1,"indices":2,"attributes":{"POSITION":0,"TEXCOORD_0":1}},{"mode":4,"material":2,"indices":5,"attributes":{"POSITION":3,"TEXCOORD_0":4}}]}],"nodes":[{"name":"tile_0269.obj","children":[1]},{"name":"defaultobject","mesh":0}],"samplers":[{},{}],"scenes":[{"nodes":[0]}],"textures":[{"source":0,"sampler":0},{"source":1,"sampler":1}],"scene":0}
