{"asset":{"version":"2.0","generator":"Open Asset Import Library (assimp v6.0.0)"},"extensionsUsed":["KHR_materials_specular","KHR_materials_volume","KHR_materials_ior","FB_ngon_encoding"],"accessors":[{"bufferView":0,"byteOffset":0,"componentType":5126,"count":3644,"type":"VEC3","max":[0.9545750617980957,-2.6747615337371826,2.2469425201416016],"min":[2.2250738585072014e-308,-2.7787554264068604,2.2250738585072014e-308]},{"bufferView":1,"byteOffset":0,"componentType":5126,"count":3644,"type":"VEC2","max":[0.9925657510757446,0.7257499694824219],"min":[2.2250738585072014e-308,2.2250738585072014e-308]},{"bufferView":2,"byteOffset":0,"componentType":5125,"count":14943,"type":"SCALAR","max":[3643],"min":[0]},{"bufferView":3,"byteOffset":0,"componentType":5126,"count":1504,"type":"VEC3","max":[0.822287917137146,-2.679270029067993,2.242713212966919],"min":[2.2250738585072014e-308,-2.7742466926574707,2.2250738585072014e-308]},{"bufferView":4,"byteOffset":0,"componentType":5126,"count":1504,"type":"VEC2","max":[0.5314181447029114,0.567047119140625],"min":[2.2250738585072014e-308,2.2250738585072014e-308]},{"bufferView":5,"byteOffset":0,"componentType":5125,"count":7407,"type":"SCALAR","max":[1503],"min":[0]}],"buffers":[{"byteLength":192360,"uri":"tile_0311.bin"}],"bufferViews":[{"buffer":0,"byteOffset":0,"byteLength":43728,"target":34962},{"buffer":0,"byteOffset":43728,"byteLength":29152,"target":34962},{"buffer":0,"byteOffset":72880,"byteLength":59772,"target":34963},{"buffer":0,"byteOffset":132652,"byteLength":18048,"target":34962},{"buffer":0,"byteOffset":150700,"byteLength":12032,"target":34962},{"buffer":0,"byteOffset":162732,"byteLength":29628,"target":34963}],"images":[{"uri":"../textures/tile_0311_material_0.jpg"},{"uri":"../textures/tile_0311_material_1.jpg"}],"materials":[{"name":"DefaultMaterial","pbrMetallicRoughness":{"baseColorFactor":[0.6000000238418579,0.6000000238418579,0.6000000238418579,1.0],"metallicFactor":0.0},"extensions":{"KHR_materials_specular":{"specularFactor":1.0,"specularColorFactor":[0.0,0.0,0.0]},"KHR_materials_ior":{"ior":1.0}}},{"name":"material_0_material","pbrMetallicRoughness":{"baseColorTexture":{"index":0},"metallicFactor":0.0},"extensions":{"KHR_materials_specular":{"specularFactor":1.0,"specularColorFactor":[0.0,0.0,0.0]},"KHR_materials_ior":{"ior":1.0}}},{"name":"material_1_material","pbrMetallicRoughness":{"baseColorTexture":{"index":1},"metallicFactor":0.0},"extensions":{"KHR_materials_specular":{"specularFactor":1.0,"specularColorFactor":[0.0,0.0,0.0]},"KHR_materials_ior":{"ior":1.0}}}],"meshes":[{"name":"defaultobject","primitives":[{"mode":4,"material":1,"indices":2,"attributes":{"POSITION":0,"TEXCOORD_0":1}},{"mode":4,"material":2,"indices":5,"attributes":{"POSITION":3,"TEXCOORD_0":4}}]}],"nodes":[{"name":"tile_0311.obj","children":[1]},{"name":"defaultobject","mesh":0}],"samplers":[{},{}],"scenes":[{"nodes":[0]}],"textures":[{"source":0,"sampler":0},{"source":1,"sampler":1}],"scene":0}
