{"asset":{"version":"2.0","generator":"Open Asset Import Library (assimp v6.0.0)"},"extensionsUsed":["KHR_materials_specular","KHR_materials_volume","KHR_materials_ior","FB_ngon_encoding"],"accessors":[{"bufferView":0,"byteOffset":0,"componentType":5126,"count":3392,"type":"VEC3","max":[0.36258772015571594,-0.4127607047557831,2.286545753479004],"min":[-0.4245022237300873,-0.5473924875259399,2.2250738585072014e-308]},{"bufferView":1,"byteOffset":0,"componentType":5126,"count":3392,"type":"VEC2","max":[0.9943680763244629,0.5349845886230469],"min":[2.2250738585072014e-308,2.2250738585072014e-308]},{"bufferView":2,"byteOffset":0,"componentType":5125,"count":15033,"type":"SCALAR","max":[3391],"min":[0]},{"bufferView":3,"byteOffset":0,"componentType":5126,"count":689,"type":"VEC3","max":[0.3478683531284332,-0.4292278587818146,2.2766873836517334],"min":[-0.39457032084465027,-0.5350139141082764,2.2250738585072014e-308]},{"bufferView":4,"byteOffset":0,"componentType":5126,"count":689,"type":"VEC2","max":[0.5529594421386719,0.7347297668457031],"min":[2.2250738585072014e-308,2.2250738585072014e-308]},{"bufferView":5,"byteOffset":0,"componentType":5125,"count":3498,"type":"SCALAR","max":[688],"min":[0]}],"buffers":[{"byteLength":155744,"uri":"tile_0393.bin"}],"bufferViews":[{"buffer":0,"byteOffset":0,"byteLength":40704,"target":34962},{"buffer":0,"byteOffset":40704,"byteLength":27136,"target":34962},{"buffer":0,"byteOffset":67840,"byteLength":60132,"target":34963},{"buffer":0,"byteOffset":127972,"byteLength":8268,"target":34962},{"buffer":0,"byteOffset":136240,"byteLength":5512,"target":34962},{"buffer":0,"byteOffset":141752,"byteLength":13992,"target":34963}],"images":[{"uri":"../textures/tile_0393_material_0.jpg"},{"uri":"../textures/tile_0393_material_1.jpg"}],"materials":[{"name":"DefaultMaterial","pbrMetallicRoughness":{"baseColorFactor":[0.6000000238418579,0.6000000238418579,0.6000000238418579,1.0],"metallicFactor":0.0},"extensions":{"KHR_materials_specular":{"specularFactor":1.0,"specularColorFactor":[0.0,0.0,0.0]},"KHR_materials_ior":{"ior":1.0}}},{"name":"material_0_material","pbrMetallicRoughness":{"baseColorTexture":{"index":0},"metallicFactor":0.0},"extensions":{"KHR_materials_specular":{"specularFactor":1.0,"specularColorFactor":[0.0,0.0,0.0]},"KHR_materials_ior":{"ior":1.0}}},{"name":"material_1_material","pbrMetallicRoughness":{"baseColorTexture":{"index":1},"metallicFactor":0.0},"extensions":{"KHR_materials_specular":{"specularFactor":1.0,"specularColorFactor":[0.0,0.0,0.0]},"KHR_materials_ior":{"ior":1.0}}}],"meshes":[{"name":"defaultobject","primitives":[{"mode":4,"material":1,"indices":2,"attributes":{"POSITION":0,"TEXCOORD_0":1}},{"mode":4,"material":2,"indices":5,"attributes":{"POSITION":3,"TEXCOORD_0":4}}]}],"nodes":[{"name":"tile_0393.obj","children":[1]},{"name":"defaultobject","mesh":0}],"samplers":[{},{}],"scenes":[{"nodes":[0]}],"textures":[{"source":0,"sampler":0},{"source":1,"sampler":1}],"scene":0}
