{"asset":{"version":"2.0","generator":"Open Asset Import Library (assimp v6.0.0)"},"extensionsUsed":["KHR_materials_specular","KHR_materials_volume","KHR_materials_ior","FB_ngon_encoding"],"accessors":[{"bufferView":0,"byteOffset":0,"componentType":5126,"count":6757,"type":"VEC3","max":[3.368731737136841,0.14327019453048706,0.18911531567573547],"min":[2.2250738585072014e-308,-0.059978749603033066,2.2250738585072014e-308]},{"bufferView":1,"byteOffset":0,"componentType":5126,"count":6757,"type":"VEC2","max":[0.9960050582885742,0.7890510559082031],"min":[2.2250738585072014e-308,2.2250738585072014e-308]},{"bufferView":2,"byteOffset":0,"componentType":5125,"count":25044,"type":"SCALAR","max":[6756],"min":[0]},{"bufferView":3,"byteOffset":0,"componentType":5126,"count":10,"type":"VEC3","max":[0.5835276246070862,-0.03884859383106232,0.17740043997764587],"min":[2.2250738585072014e-308,-0.04853719100356102,2.2250738585072014e-308]},{"bufferView":4,"byteOffset":0,"componentType":5126,"count":10,"type":"VEC2","max":[0.6759034395217896,0.4483335614204407],"min":[2.2250738585072014e-308,2.2250738585072014e-308]},{"bufferView":5,"byteOffset":0,"componentType":5125,"count":12,"type":"SCALAR","max":[9],"min":[0]}],"buffers":[{"byteLength":235564,"uri":"tile_0181.bin"}],"bufferViews":[{"buffer":0,"byteOffset":0,"byteLength":81084,"target":34962},{"buffer":0,"byteOffset":81084,"byteLength":54056,"target":34962},{"buffer":0,"byteOffset":135140,"byteLength":100176,"target":34963},{"buffer":0,"byteOffset":235316,"byteLength":120,"target":34962},{"buffer":0,"byteOffset":235436,"byteLength":80,"target":34962},{"buffer":0,"byteOffset":235516,"byteLength":48,"target":34963}],"images":[{"uri":"../textures/tile_0181_material_0.jpg"},{"uri":"../textures/tile_0181_material_1.jpg"}],"materials":[{"name":"DefaultMaterial","pbrMetallicRoughness":{"baseColorFactor":[0.6000000238418579,0.6000000238418579,0.6000000238418579,1.0],"metallicFactor":0.0},"extensions":{"KHR_materials_specular":{"specularFactor":1.0,"specularColorFactor":[0.0,0.0,0.0]},"KHR_materials_ior":{"ior":1.0}}},{"name":"material_0_material","pbrMetallicRoughness":{"baseColorTexture":{"index":0},"metallicFactor":0.0},"extensions":{"KHR_materials_specular":{"specularFactor":1.0,"specularColorFactor":[0.0,0.0,0.0]},"KHR_materials_ior":{"ior":1.0}}},{"name":"material_1_material","pbrMetallicRoughness":{"baseColorTexture":{"index":1},"metallicFactor":0.0},"extensions":{"KHR_materials_specular":{"specularFactor":1.0,"specularColorFactor":[0.0,0.0,0.0]},"KHR_materials_ior":{"ior":1.0}}}],"meshes":[{"name":"defaultobject","primitives":[{"mode":4,"material":1,"indices":2,"attributes":{"POSITION":0,"TEXCOORD_0":1}},{"mode":4,"material":2,"indices":5,"attributes":{"POSITION":3,"TEXCOORD_0":4}}]}],"nodes":[{"name":"tile_0181.obj","children":[1]},{"name":"defaultobject","mesh":0}],"samplers":[{},{}],"scenes":[{"nodes":[0]}],"textures":[{"source":0,"sampler":0},{"source":1,"sampler":1}],"scene":0}
