{"asset":{"version":"2.0","generator":"Open Asset Import Library (assimp v6.0.0)"},"extensionsUsed":["KHR_materials_specular","KHR_materials_volume","KHR_materials_ior","FB_ngon_encoding"],"accessors":[{"bufferView":0,"byteOffset":0,"componentType":5126,"count":5605,"type":"VEC3","max":[3.1984825134277344,-1.1704277992248535,0.14975258708000183],"min":[2.2250738585072014e-308,-1.2958167791366577,2.2250738585072014e-308]},{"bufferView":1,"byteOffset":0,"componentType":5126,"count":5605,"type":"VEC2","max":[0.9929201602935791,0.5701560974121094],"min":[2.2250738585072014e-308,2.2250738585072014e-308]},{"bufferView":2,"byteOffset":0,"componentType":5125,"count":20703,"type":"SCALAR","max":[5604],"min":[0]},{"bufferView":3,"byteOffset":0,"componentType":5126,"count":506,"type":"VEC3","max":[0.35994774103164673,-1.1737785339355469,0.14691072702407837],"min":[2.2250738585072014e-308,-1.2488986253738403,2.2250738585072014e-308]},{"bufferView":4,"byteOffset":0,"componentType":5126,"count":506,"type":"VEC2","max":[0.645263671875,0.765174925327301],"min":[2.2250738585072014e-308,2.2250738585072014e-308]},{"bufferView":5,"byteOffset":0,"componentType":5125,"count":2538,"type":"SCALAR","max":[505],"min":[0]}],"buffers":[{"byteLength":215184,"uri":"tile_0227.bin"}],"bufferViews":[{"buffer":0,"byteOffset":0,"byteLength":67260,"target":34962},{"buffer":0,"byteOffset":67260,"byteLength":44840,"target":34962},{"buffer":0,"byteOffset":112100,"byteLength":82812,"target":34963},{"buffer":0,"byteOffset":194912,"byteLength":6072,"target":34962},{"buffer":0,"byteOffset":200984,"byteLength":4048,"target":34962},{"buffer":0,"byteOffset":205032,"byteLength":10152,"target":34963}],"images":[{"uri":"../textures/tile_0227_material_0.jpg"},{"uri":"../textures/tile_0227_material_1.jpg"}],"materials":[{"name":"DefaultMaterial","pbrMetallicRoughness":{"baseColorFactor":[0.6000000238418579,0.6000000238418579,0.6000000238418579,1.0],"metallicFactor":0.0},"extensions":{"KHR_materials_specular":{"specularFactor":1.0,"specularColorFactor":[0.0,0.0,0.0]},"KHR_materials_ior":{"ior":1.0}}},{"name":"material_0_material","pbrMetallicRoughness":{"baseColorTexture":{"index":0},"metallicFactor":0.0},"extensions":{"KHR_materials_specular":{"specularFactor":1.0,"specularColorFactor":[0.0,0.0,0.0]},"KHR_materials_ior":{"ior":1.0}}},{"name":"material_1_material","pbrMetallicRoughness":{"baseColorTexture":{"index":1},"metallicFactor":0.0},"extensions":{"KHR_materials_specular":{"specularFactor":1.0,"specularColorFactor":[0.0,0.0,0.0]},"KHR_materials_ior":{"ior":1.0}}}],"meshes":[{"name":"defaultobject","primitives":[{"mode":4,"material":1,"indices":2,"attributes":{"POSITION":0,"TEXCOORD_0":1}},{"mode":4,"material":2,"indices":5,"attributes":{"POSITION":3,"TEXCOORD_0":4}}]}],"nodes":[{"name":"tile_0227.obj","children":[1]},{"name":"defaultobject","mesh":0}],"samplers":[{},{}],"scenes":[{"nodes":[0]}],"textures":[{"source":0,"sampler":0},{"source":1,"sampler":1}],"scene":0}
