{"asset":{"version":"2.0","generator":"Open Asset Import Library (assimp v6.0.0)"},"extensionsUsed":["KHR_materials_specular","KHR_materials_volume","KHR_materials_ior","FB_ngon_encoding"],"accessors":[{"bufferView":0,"byteOffset":0,"componentType":5126,"count":3357,"type":"VEC3","max":[1.366239070892334,-1.684299349784851,2.4952175617218018],"min":[2.2250738585072014e-308,-2.0120160579681396,2.2250738585072014e-308]},{"bufferView":1,"byteOffset":0,"componentType":5126,"count":3357,"type":"VEC2","max":[0.9938592910766602,0.5308551788330078],"min":[2.2250738585072014e-308,2.2250738585072014e-308]},{"bufferView":2,"byteOffset":0,"componentType":5125,"count":14922,"type":"SCALAR","max":[3356],"min":[0]},{"bufferView":3,"byteOffset":0,"componentType":5126,"count":1336,"type":"VEC3","max":[0.7039092183113098,-1.6856492757797241,2.465857744216919],"min":[2.2250738585072014e-308,-1.8436143398284912,2.2250738585072014e-308]},{"bufferView":4,"byteOffset":0,"componentType":5126,"count":1336,"type":"VEC2","max":[0.5309457778930664,0.918182373046875],"min":[2.2250738585072014e-308,2.2250738585072014e-308]},{"bufferView":5,"byteOffset":0,"componentType":5125,"count":6678,"type":"SCALAR","max":[1335],"min":[0]}],"buffers":[{"byteLength":180260,"uri":"tile_0376.bin"}],"bufferViews":[{"buffer":0,"byteOffset":0,"byteLength":40284,"target":34962},{"buffer":0,"byteOffset":40284,"byteLength":26856,"target":34962},{"buffer":0,"byteOffset":67140,"byteLength":59688,"target":34963},{"buffer":0,"byteOffset":126828,"byteLength":16032,"target":34962},{"buffer":0,"byteOffset":142860,"byteLength":10688,"target":34962},{"buffer":0,"byteOffset":153548,"byteLength":26712,"target":34963}],"images":[{"uri":"../textures/tile_0376_material_0.jpg"},{"uri":"../textures/tile_0376_material_1.jpg"}],"materials":[{"name":"DefaultMaterial","pbrMetallicRoughness":{"baseColorFactor":[0.6000000238418579,0.6000000238418579,0.6000000238418579,1.0],"metallicFactor":0.0},"extensions":{"KHR_materials_specular":{"specularFactor":1.0,"specularColorFactor":[0.0,0.0,0.0]},"KHR_materials_ior":{"ior":1.0}}},{"name":"material_0_material","pbrMetallicRoughness":{"baseColorTexture":{"index":0},"metallicFactor":0.0},"extensions":{"KHR_materials_specular":{"specularFactor":1.0,"specularColorFactor":[0.0,0.0,0.0]},"KHR_materials_ior":{"ior":1.0}}},{"name":"material_1_material","pbrMetallicRoughness":{"baseColorTexture":{"index":1},"metallicFactor":0.0},"extensions":{"KHR_materials_specular":{"specularFactor":1.0,"specularColorFactor":[0.0,0.0,0.0]},"KHR_materials_ior":{"ior":1.0}}}],"meshes":[{"name":"defaultobject","primitives":[{"mode":4,"material":1,"indices":2,"attributes":{"POSITION":0,"TEXCOORD_0":1}},{"mode":4,"material":2,"indices":5,"attributes":{"POSITION":3,"TEXCOORD_0":4}}]}],"nodes":[{"name":"tile_0376.obj","children":[1]},{"name":"defaultobject","mesh":0}],"samplers":[{},{}],"scenes":[{"nodes":[0]}],"textures":[{"source":0,"sampler":0},{"source":1,"sampler":1}],"scene":0}
