{"asset":{"version":"2.0","generator":"Open Asset Import Library (assimp v6.0.0)"},"extensionsUsed":["KHR_materials_specular","KHR_materials_volume","KHR_materials_ior","FB_ngon_encoding"],"accessors":[{"bufferView":0,"byteOffset":0,"componentType":5126,"count":4094,"type":"VEC3","max":[3.2642667293548584,-1.0746773481369019,0.1542716771364212],"min":[2.2250738585072014e-308,-1.1824082136154175,2.2250738585072014e-308]},{"bufferView":1,"byteOffset":0,"componentType":5126,"count":4094,"type":"VEC2","max":[0.9951519966125488,0.9686241149902344],"min":[2.2250738585072014e-308,2.2250738585072014e-308]},{"bufferView":2,"byteOffset":0,"componentType":5125,"count":14361,"type":"SCALAR","max":[4093],"min":[0]},{"bufferView":3,"byteOffset":0,"componentType":5126,"count":738,"type":"VEC3","max":[0.3748989403247833,-1.0778002738952637,0.14624881744384766],"min":[2.2250738585072014e-308,-1.1808713674545288,2.2250738585072014e-308]},{"bufferView":4,"byteOffset":0,"componentType":5126,"count":738,"type":"VEC2","max":[0.6001701354980469,0.47911834716796875],"min":[2.2250738585072014e-308,2.2250738585072014e-308]},{"bufferView":5,"byteOffset":0,"componentType":5125,"count":3543,"type":"SCALAR","max":[737],"min":[0]}],"buffers":[{"byteLength":168256,"uri":"tile_0178.bin"}],"bufferViews":[{"buffer":0,"byteOffset":0,"byteLength":49128,"target":34962},{"buffer":0,"byteOffset":49128,"byteLength":32752,"target":34962},{"buffer":0,"byteOffset":81880,"byteLength":57444,"target":34963},{"buffer":0,"byteOffset":139324,"byteLength":8856,"target":34962},{"buffer":0,"byteOffset":148180,"byteLength":5904,"target":34962},{"buffer":0,"byteOffset":154084,"byteLength":14172,"target":34963}],"images":[{"uri":"../textures/tile_0178_material_0.jpg"},{"uri":"../textures/tile_0178_material_1.jpg"}],"materials":[{"name":"DefaultMaterial","pbrMetallicRoughness":{"baseColorFactor":[0.6000000238418579,0.6000000238418579,0.6000000238418579,1.0],"metallicFactor":0.0},"extensions":{"KHR_materials_specular":{"specularFactor":1.0,"specularColorFactor":[0.0,0.0,0.0]},"KHR_materials_ior":{"ior":1.0}}},{"name":"material_0_material","pbrMetallicRoughness":{"baseColorTexture":{"index":0},"metallicFactor":0.0},"extensions":{"KHR_materials_specular":{"specularFactor":1.0,"specularColorFactor":[0.0,0.0,0.0]},"KHR_materials_ior":{"ior":1.0}}},{"name":"material_1_material","pbrMetallicRoughness":{"baseColorTexture":{"index":1},"metallicFactor":0.0},"extensions":{"KHR_materials_specular":{"specularFactor":1.0,"specularColorFactor":[0.0,0.0,0.0]},"KHR_materials_ior":{"ior":1.0}}}],"meshes":[{"name":"defaultobject","primitives":[{"mode":4,"material":1,"indices":2,"attributes":{"POSITION":0,"TEXCOORD_0":1}},{"mode":4,"material":2,"indices":5,"attributes":{"POSITION":3,"TEXCOORD_0":4}}]}],"nodes":[{"name":"tile_0178.obj","children":[1]},{"name":"defaultobject","mesh":0}],"samplers":[{},{}],"scenes":[{"nodes":[0]}],"textures":[{"source":0,"sampler":0},{"source":1,"sampler":1}],"scene":0}
