{"asset":{"version":"2.0","generator":"Open Asset Import Library (assimp v6.0.0)"},"extensionsUsed":["KHR_materials_specular","KHR_materials_volume","KHR_materials_ior","FB_ngon_encoding"],"accessors":[{"bufferView":0,"byteOffset":0,"componentType":5126,"count":6529,"type":"VEC3","max":[2.7416791915893555,0.12310169637203217,1.135477066040039],"min":[2.2250738585072014e-308,-0.06430334597826004,2.2250738585072014e-308]},{"bufferView":1,"byteOffset":0,"componentType":5126,"count":6529,"type":"VEC2","max":[0.9925498962402344,0.8593616485595703],"min":[2.2250738585072014e-308,2.2250738585072014e-308]},{"bufferView":2,"byteOffset":0,"componentType":5125,"count":28512,"type":"SCALAR","max":[6528],"min":[0]},{"bufferView":3,"byteOffset":0,"componentType":5126,"count":291,"type":"VEC3","max":[0.650220513343811,0.10849438607692719,1.0374467372894287],"min":[2.2250738585072014e-308,-0.04435709863901138,2.2250738585072014e-308]},{"bufferView":4,"byteOffset":0,"componentType":5126,"count":291,"type":"VEC2","max":[0.7315759658813477,0.5574188232421875],"min":[2.2250738585072014e-308,2.2250738585072014e-308]},{"bufferView":5,"byteOffset":0,"componentType":5125,"count":1350,"type":"SCALAR","max":[290],"min":[0]}],"buffers":[{"byteLength":255848,"uri":"tile_0451.bin"}],"bufferViews":[{"buffer":0,"byteOffset":0,"byteLength":78348,"target":34962},{"buffer":0,"byteOffset":78348,"byteLength":52232,"target":34962},{"buffer":0,"byteOffset":130580,"byteLength":114048,"target":34963},{"buffer":0,"byteOffset":244628,"byteLength":3492,"target":34962},{"buffer":0,"byteOffset":248120,"byteLength":2328,"target":34962},{"buffer":0,"byteOffset":250448,"byteLength":5400,"target":34963}],"images":[{"uri":"../textures/tile_0451_material_0.jpg"},{"uri":"../textures/tile_0451_material_1.jpg"}],"materials":[{"name":"DefaultMaterial","pbrMetallicRoughness":{"baseColorFactor":[0.6000000238418579,0.6000000238418579,0.6000000238418579,1.0],"metallicFactor":0.0},"extensions":{"KHR_materials_specular":{"specularFactor":1.0,"specularColorFactor":[0.0,0.0,0.0]},"KHR_materials_ior":{"ior":1.0}}},{"name":"material_0_material","pbrMetallicRoughness":{"baseColorTexture":{"index":0},"metallicFactor":0.0},"extensions":{"KHR_materials_specular":{"specularFactor":1.0,"specularColorFactor":[0.0,0.0,0.0]},"KHR_materials_ior":{"ior":1.0}}},{"name":"material_1_material","pbrMetallicRoughness":{"baseColorTexture":{"index":1},"metallicFactor":0.0},"extensions":{"KHR_materials_specular":{"specularFactor":1.0,"specularColorFactor":[0.0,0.0,0.0]},"KHR_materials_ior":{"ior":1.0}}}],"meshes":[{"name":"defaultobject","primitives":[{"mode":4,"material":1,"indices":2,"attributes":{"POSITION":0,"TEXCOORD_0":1}},{"mode":4,"material":2,"indices":5,"attributes":{"POSITION":3,"TEXCOORD_0":4}}]}],"nodes":[{"name":"tile_0451.obj","children":[1]},{"name":"defaultobject","mesh":0}],"samplers":[{},{}],"scenes":[{"nodes":[0]}],"textures":[{"source":0,"sampler":0},{"source":1,"sampler":1}],"scene":0}
