{"asset":{"version":"2.0","generator":"Open Asset Import Library (assimp v6.0.0)"},"extensionsUsed":["KHR_materials_specular","KHR_materials_volume","KHR_materials_ior","FB_ngon_encoding"],"accessors":[{"bufferView":0,"byteOffset":0,"componentType":5126,"count":3553,"type":"VEC3","max":[2.0540759563446045,1.442458987236023,1.9268189668655396],"min":[2.2250738585072014e-308,2.2250738585072014e-308,2.2250738585072014e-308]},{"bufferView":1,"byteOffset":0,"componentType":5126,"count":3553,"type":"VEC2","max":[0.9857280254364014,0.5462551116943359],"min":[2.2250738585072014e-308,2.2250738585072014e-308]},{"bufferView":2,"byteOffset":0,"componentType":5125,"count":15279,"type":"SCALAR","max":[3552],"min":[0]},{"bufferView":3,"byteOffset":0,"componentType":5126,"count":306,"type":"VEC3","max":[1.7447987794876099,1.4417126178741455,1.9355943202972412],"min":[2.2250738585072014e-308,2.2250738585072014e-308,2.2250738585072014e-308]},{"bufferView":4,"byteOffset":0,"componentType":5126,"count":306,"type":"VEC2","max":[0.7903261184692383,0.7772445678710938],"min":[2.2250738585072014e-308,2.2250738585072014e-308]},{"bufferView":5,"byteOffset":0,"componentType":5125,"count":1467,"type":"SCALAR","max":[305],"min":[0]}],"buffers":[{"byteLength":144164,"uri":"tile_0438.bin"}],"bufferViews":[{"buffer":0,"byteOffset":0,"byteLength":42636,"target":34962},{"buffer":0,"byteOffset":42636,"byteLength":28424,"target":34962},{"buffer":0,"byteOffset":71060,"byteLength":61116,"target":34963},{"buffer":0,"byteOffset":132176,"byteLength":3672,"target":34962},{"buffer":0,"byteOffset":135848,"byteLength":2448,"target":34962},{"buffer":0,"byteOffset":138296,"byteLength":5868,"target":34963}],"images":[{"uri":"../textures/tile_0438_material_0.jpg"},{"uri":"../textures/tile_0438_material_1.jpg"}],"materials":[{"name":"DefaultMaterial","pbrMetallicRoughness":{"baseColorFactor":[0.6000000238418579,0.6000000238418579,0.6000000238418579,1.0],"metallicFactor":0.0},"extensions":{"KHR_materials_specular":{"specularFactor":1.0,"specularColorFactor":[0.0,0.0,0.0]},"KHR_materials_ior":{"ior":1.0}}},{"name":"material_0_material","pbrMetallicRoughness":{"baseColorTexture":{"index":0},"metallicFactor":0.0},"extensions":{"KHR_materials_specular":{"specularFactor":1.0,"specularColorFactor":[0.0,0.0,0.0]},"KHR_materials_ior":{"ior":1.0}}},{"name":"material_1_material","pbrMetallicRoughness":{"baseColorTexture":{"index":1},"metallicFactor":0.0},"extensions":{"KHR_materials_specular":{"specularFactor":1.0,"specularColorFactor":[0.0,0.0,0.0]},"KHR_materials_ior":{"ior":1.0}}}],"meshes":[{"name":"defaultobject","primitives":[{"mode":4,"material":1,"indices":2,"attributes":{"POSITION":0,"TEXCOORD_0":1}},{"mode":4,"material":2,"indices":5,"attributes":{"POSITION":3,"TEXCOORD_0":4}}]}],"nodes":[{"name":"tile_0438.obj","children":[1]},{"name":"defaultobject","mesh":0}],"samplers":[{},{}],"scenes":[{"nodes":[0]}],"textures":[{"source":0,"sampler":0},{"source":1,"sampler":1}],"scene":0}
