{"asset":{"version":"2.0","generator":"Open Asset Import Library (assimp v6.0.0)"},"extensionsUsed":["KHR_materials_specular","KHR_materials_volume","KHR_materials_ior","FB_ngon_encoding"],"accessors":[{"bufferView":0,"byteOffset":0,"componentType":5126,"count":6631,"type":"VEC3","max":[3.8280506134033203,0.48536965250968933,-0.13215507566928864],"min":[2.2250738585072014e-308,2.2250738585072014e-308,-0.6793465614318848]},{"bufferView":1,"byteOffset":0,"componentType":5126,"count":6631,"type":"VEC2","max":[0.9930925369262695,0.6991825103759766],"min":[2.2250738585072014e-308,2.2250738585072014e-308]},{"bufferView":2,"byteOffset":0,"componentType":5125,"count":23751,"type":"SCALAR","max":[6630],"min":[0]},{"bufferView":3,"byteOffset":0,"componentType":5126,"count":972,"type":"VEC3","max":[3.825392484664917,0.4844948947429657,-0.1355040818452835],"min":[2.2250738585072014e-308,2.2250738585072014e-308,-0.5416378378868103]},{"bufferView":4,"byteOffset":0,"componentType":5126,"count":972,"type":"VEC2","max":[0.783416748046875,0.6285820007324219],"min":[2.2250738585072014e-308,2.2250738585072014e-308]},{"bufferView":5,"byteOffset":0,"componentType":5125,"count":4863,"type":"SCALAR","max":[971],"min":[0]}],"buffers":[{"byteLength":266516,"uri":"tile_0549.bin"}],"bufferViews":[{"buffer":0,"byteOffset":0,"byteLength":79572,"target":34962},{"buffer":0,"byteOffset":79572,"byteLength":53048,"target":34962},{"buffer":0,"byteOffset":132620,"byteLength":95004,"target":34963},{"buffer":0,"byteOffset":227624,"byteLength":11664,"target":34962},{"buffer":0,"byteOffset":239288,"byteLength":7776,"target":34962},{"buffer":0,"byteOffset":247064,"byteLength":19452,"target":34963}],"images":[{"uri":"../textures/tile_0549_material_0.jpg"},{"uri":"../textures/tile_0549_material_1.jpg"}],"materials":[{"name":"DefaultMaterial","pbrMetallicRoughness":{"baseColorFactor":[0.6000000238418579,0.6000000238418579,0.6000000238418579,1.0],"metallicFactor":0.0},"extensions":{"KHR_materials_specular":{"specularFactor":1.0,"specularColorFactor":[0.0,0.0,0.0]},"KHR_materials_ior":{"ior":1.0}}},{"name":"material_0_material","pbrMetallicRoughness":{"baseColorTexture":{"index":0},"metallicFactor":0.0},"extensions":{"KHR_materials_specular":{"specularFactor":1.0,"specularColorFactor":[0.0,0.0,0.0]},"KHR_materials_ior":{"ior":1.0}}},{"name":"material_1_material","pbrMetallicRoughness":{"baseColorTexture":{"index":1},"metallicFactor":0.0},"extensions":{"KHR_materials_specular":{"specularFactor":1.0,"specularColorFactor":[0.0,0.0,0.0]},"KHR_materials_ior":{"ior":1.0}}}],"meshes":[{"name":"defaultobject","primitives":[{"mode":4,"material":1,"indices":2,"attributes":{"POSITION":0,"TEXCOORD_0":1}},{"mode":4,"material":2,"indices":5,"attributes":{"POSITION":3,"TEXCOORD_0":4}}]}],"nodes":[{"name":"tile_0549.obj","children":[1]},{"name":"defaultobject","mesh":0}],"samplers":[{},{}],"scenes":[{"nodes":[0]}],"textures":[{"source":0,"sampler":0},{"source":1,"sampler":1}],"scene":0}
