{"asset":{"version":"2.0","generator":"Open Asset Import Library (assimp v6.0.0)"},"extensionsUsed":["KHR_materials_specular","KHR_materials_volume","KHR_materials_ior","FB_ngon_encoding"],"accessors":[{"bufferView":0,"byteOffset":0,"componentType":5126,"count":4788,"type":"VEC3","max":[0.8900285363197327,-0.5925989747047424,3.813615322113037],"min":[2.2250738585072014e-308,-0.7781004905700684,2.2250738585072014e-308]},{"bufferView":1,"byteOffset":0,"componentType":5126,"count":4788,"type":"VEC2","max":[0.9959582090377808,0.7059211730957031],"min":[2.2250738585072014e-308,2.2250738585072014e-308]},{"bufferView":2,"byteOffset":0,"componentType":5125,"count":21705,"type":"SCALAR","max":[4787],"min":[0]},{"bufferView":3,"byteOffset":0,"componentType":5126,"count":723,"type":"VEC3","max":[0.6539697647094727,-0.5926323533058167,3.813800573348999],"min":[2.2250738585072014e-308,-0.780539333820343,2.2250738585072014e-308]},{"bufferView":4,"byteOffset":0,"componentType":5126,"count":723,"type":"VEC2","max":[0.5520825386047363,0.911529541015625],"min":[2.2250738585072014e-308,2.2250738585072014e-308]},{"bufferView":5,"byteOffset":0,"componentType":5125,"count":3558,"type":"SCALAR","max":[722],"min":[0]}],"buffers":[{"byteLength":211272,"uri":"tile_0050.bin"}],"bufferViews":[{"buffer":0,"byteOffset":0,"byteLength":57456,"target":34962},{"buffer":0,"byteOffset":57456,"byteLength":38304,"target":34962},{"buffer":0,"byteOffset":95760,"byteLength":86820,"target":34963},{"buffer":0,"byteOffset":182580,"byteLength":8676,"target":34962},{"buffer":0,"byteOffset":191256,"byteLength":5784,"target":34962},{"buffer":0,"byteOffset":197040,"byteLength":14232,"target":34963}],"images":[{"uri":"../textures/tile_0050_material_0.jpg"},{"uri":"../textures/tile_0050_material_1.jpg"}],"materials":[{"name":"DefaultMaterial","pbrMetallicRoughness":{"baseColorFactor":[0.6000000238418579,0.6000000238418579,0.6000000238418579,1.0],"metallicFactor":0.0},"extensions":{"KHR_materials_specular":{"specularFactor":1.0,"specularColorFactor":[0.0,0.0,0.0]},"KHR_materials_ior":{"ior":1.0}}},{"name":"material_0_material","pbrMetallicRoughness":{"baseColorTexture":{"index":0},"metallicFactor":0.0},"extensions":{"KHR_materials_specular":{"specularFactor":1.0,"specularColorFactor":[0.0,0.0,0.0]},"KHR_materials_ior":{"ior":1.0}}},{"name":"material_1_material","pbrMetallicRoughness":{"baseColorTexture":{"index":1},"metallicFactor":0.0},"extensions":{"KHR_materials_specular":{"specularFactor":1.0,"specularColorFactor":[0.0,0.0,0.0]},"KHR_materials_ior":{"ior":1.0}}}],"meshes":[{"name":"defaultobject","primitives":[{"mode":4,"material":1,"indices":2,"attributes":{"POSITION":0,"TEXCOORD_0":1}},{"mode":4,"material":2,"indices":5,"attributes":{"POSITION":3,"TEXCOORD_0":4}}]}],"nodes":[{"name":"tile_0050.obj","children":[1]},{"name":"defaultobject","mesh":0}],"samplers":[{},{}],"scenes":[{"nodes":[0]}],"textures":[{"source":0,"sampler":0},{"source":1,"sampler":1}],"scene":0}
