{"asset":{"version":"2.0","generator":"Open Asset Import Library (assimp v6.0.0)"},"extensionsUsed":["KHR_materials_specular","KHR_materials_volume","KHR_materials_ior","FB_ngon_encoding"],"accessors":[{"bufferView":0,"byteOffset":0,"componentType":5126,"count":6358,"type":"VEC3","max":[3.5450055599212646,2.7665436267852783,0.32945775985717773],"min":[2.2250738585072014e-308,2.2250738585072014e-308,2.2250738585072014e-308]},{"bufferView":1,"byteOffset":0,"componentType":5126,"count":6358,"type":"VEC2","max":[0.9946556091308594,0.8240013122558594],"min":[2.2250738585072014e-308,2.2250738585072014e-308]},{"bufferView":2,"byteOffset":0,"componentType":5125,"count":27456,"type":"SCALAR","max":[6357],"min":[0]},{"bufferView":3,"byteOffset":0,"componentType":5126,"count":159,"type":"VEC3","max":[3.5437428951263428,3.023820638656616,0.33792844414711],"min":[2.2250738585072014e-308,2.2250738585072014e-308,2.2250738585072014e-308]},{"bufferView":4,"byteOffset":0,"componentType":5126,"count":159,"type":"VEC2","max":[0.7437820434570312,0.5005664825439453],"min":[2.2250738585072014e-308,2.2250738585072014e-308]},{"bufferView":5,"byteOffset":0,"componentType":5125,"count":714,"type":"SCALAR","max":[158],"min":[0]}],"buffers":[{"byteLength":243020,"uri":"tile_0523.bin"}],"bufferViews":[{"buffer":0,"byteOffset":0,"byteLength":76296,"target":34962},{"buffer":0,"byteOffset":76296,"byteLength":50864,"target":34962},{"buffer":0,"byteOffset":127160,"byteLength":109824,"target":34963},{"buffer":0,"byteOffset":236984,"byteLength":1908,"target":34962},{"buffer":0,"byteOffset":238892,"byteLength":1272,"target":34962},{"buffer":0,"byteOffset":240164,"byteLength":2856,"target":34963}],"images":[{"uri":"../textures/tile_0523_material_0.jpg"},{"uri":"../textures/tile_0523_material_1.jpg"}],"materials":[{"name":"DefaultMaterial","pbrMetallicRoughness":{"baseColorFactor":[0.6000000238418579,0.6000000238418579,0.6000000238418579,1.0],"metallicFactor":0.0},"extensions":{"KHR_materials_specular":{"specularFactor":1.0,"specularColorFactor":[0.0,0.0,0.0]},"KHR_materials_ior":{"ior":1.0}}},{"name":"material_0_material","pbrMetallicRoughness":{"baseColorTexture":{"index":0},"metallicFactor":0.0},"extensions":{"KHR_materials_specular":{"specularFactor":1.0,"specularColorFactor":[0.0,0.0,0.0]},"KHR_materials_ior":{"ior":1.0}}},{"name":"material_1_material","pbrMetallicRoughness":{"baseColorTexture":{"index":1},"metallicFactor":0.0},"extensions":{"KHR_materials_specular":{"specularFactor":1.0,"specularColorFactor":[0.0,0.0,0.0]},"KHR_materials_ior":{"ior":1.0}}}],"meshes":[{"name":"defaultobject","primitives":[{"mode":4,"material":1,"indices":2,"attributes":{"POSITION":0,"TEXCOORD_0":1}},{"mode":4,"material":2,"indices":5,"attributes":{"POSITION":3,"TEXCOORD_0":4}}]}],"nodes":[{"name":"tile_0523.obj","children":[1]},{"name":"defaultobject","mesh":0}],"samplers":[{},{}],"scenes":[{"nodes":[0]}],"textures":[{"source":0,"sampler":0},{"source":1,"sampler":1}],"scene":0}
