{"asset":{"version":"2.0","generator":"Open Asset Import Library (assimp v6.0.0)"},"extensionsUsed":["KHR_materials_specular","KHR_materials_volume","KHR_materials_ior","FB_ngon_encoding"],"accessors":[{"bufferView":0,"byteOffset":0,"componentType":5126,"count":3444,"type":"VEC3","max":[2.817776679992676,1.7637746334075928,1.2842577695846558],"min":[2.2250738585072014e-308,2.2250738585072014e-308,2.2250738585072014e-308]},{"bufferView":1,"byteOffset":0,"componentType":5126,"count":3444,"type":"VEC2","max":[0.9960294961929321,0.7140960693359375],"min":[2.2250738585072014e-308,2.2250738585072014e-308]},{"bufferView":2,"byteOffset":0,"componentType":5125,"count":14943,"type":"SCALAR","max":[3443],"min":[0]},{"bufferView":3,"byteOffset":0,"componentType":5126,"count":1147,"type":"VEC3","max":[2.4748387336730957,1.7629505395889282,1.263144850730896],"min":[2.2250738585072014e-308,2.2250738585072014e-308,2.2250738585072014e-308]},{"bufferView":4,"byteOffset":0,"componentType":5126,"count":1147,"type":"VEC2","max":[0.5916652679443359,0.6480255126953125],"min":[2.2250738585072014e-308,2.2250738585072014e-308]},{"bufferView":5,"byteOffset":0,"componentType":5125,"count":5649,"type":"SCALAR","max":[1146],"min":[0]}],"buffers":[{"byteLength":174188,"uri":"tile_0558.bin"}],"bufferViews":[{"buffer":0,"byteOffset":0,"byteLength":41328,"target":34962},{"buffer":0,"byteOffset":41328,"byteLength":27552,"target":34962},{"buffer":0,"byteOffset":68880,"byteLength":59772,"target":34963},{"buffer":0,"byteOffset":128652,"byteLength":13764,"target":34962},{"buffer":0,"byteOffset":142416,"byteLength":9176,"target":34962},{"buffer":0,"byteOffset":151592,"byteLength":22596,"target":34963}],"images":[{"uri":"../textures/tile_0558_material_0.jpg"},{"uri":"../textures/tile_0558_material_1.jpg"}],"materials":[{"name":"DefaultMaterial","pbrMetallicRoughness":{"baseColorFactor":[0.6000000238418579,0.6000000238418579,0.6000000238418579,1.0],"metallicFactor":0.0},"extensions":{"KHR_materials_specular":{"specularFactor":1.0,"specularColorFactor":[0.0,0.0,0.0]},"KHR_materials_ior":{"ior":1.0}}},{"name":"material_0_material","pbrMetallicRoughness":{"baseColorTexture":{"index":0},"metallicFactor":0.0},"extensions":{"KHR_materials_specular":{"specularFactor":1.0,"specularColorFactor":[0.0,0.0,0.0]},"KHR_materials_ior":{"ior":1.0}}},{"name":"material_1_material","pbrMetallicRoughness":{"baseColorTexture":{"index":1},"metallicFactor":0.0},"extensions":{"KHR_materials_specular":{"specularFactor":1.0,"specularColorFactor":[0.0,0.0,0.0]},"KHR_materials_ior":{"ior":1.0}}}],"meshes":[{"name":"defaultobject","primitives":[{"mode":4,"material":1,"indices":2,"attributes":{"POSITION":0,"TEXCOORD_0":1}},{"mode":4,"material":2,"indices":5,"attributes":{"POSITION":3,"TEXCOORD_0":4}}]}],"nodes":[{"name":"tile_0558.obj","children":[1]},{"name":"defaultobject","mesh":0}],"samplers":[{},{}],"scenes":[{"nodes":[0]}],"textures":[{"source":0,"sampler":0},{"source":1,"sampler":1}],"scene":0}
