{"asset":{"version":"2.0","generator":"Open Asset Import Library (assimp v6.0.0)"},"extensionsUsed":["KHR_materials_specular","KHR_materials_volume","KHR_materials_ior","FB_ngon_encoding"],"accessors":[{"bufferView":0,"byteOffset":0,"componentType":5126,"count":11776,"type":"VEC3","max":[3.2150094509124756,-0.10475140810012817,0.6546398401260376],"min":[2.2250738585072014e-308,-0.49288082122802734,2.2250738585072014e-308]},{"bufferView":1,"byteOffset":0,"componentType":5126,"count":11776,"type":"VEC2","max":[0.9956369400024414,0.6777286529541016],"min":[2.2250738585072014e-308,2.2250738585072014e-308]},{"bufferView":2,"byteOffset":0,"componentType":5125,"count":49806,"type":"SCALAR","max":[11775],"min":[0]},{"bufferView":3,"byteOffset":0,"componentType":5126,"count":1445,"type":"VEC3","max":[2.929126739501953,-0.12043867260217667,0.6164097189903259],"min":[2.2250738585072014e-308,-0.4410610795021057,2.2250738585072014e-308]},{"bufferView":4,"byteOffset":0,"componentType":5126,"count":1445,"type":"VEC2","max":[0.5270214080810547,0.939208984375],"min":[2.2250738585072014e-308,2.2250738585072014e-308]},{"bufferView":5,"byteOffset":0,"componentType":5125,"count":7224,"type":"SCALAR","max":[1444],"min":[0]}],"buffers":[{"byteLength":492540,"uri":"tile_0456.bin"}],"bufferViews":[{"buffer":0,"byteOffset":0,"byteLength":141312,"target":34962},{"buffer":0,"byteOffset":141312,"byteLength":94208,"target":34962},{"buffer":0,"byteOffset":235520,"byteLength":199224,"target":34963},{"buffer":0,"byteOffset":434744,"byteLength":17340,"target":34962},{"buffer":0,"byteOffset":452084,"byteLength":11560,"target":34962},{"buffer":0,"byteOffset":463644,"byteLength":28896,"target":34963}],"images":[{"uri":"../textures/tile_0456_material_0.jpg"},{"uri":"../textures/tile_0456_material_1.jpg"}],"materials":[{"name":"DefaultMaterial","pbrMetallicRoughness":{"baseColorFactor":[0.6000000238418579,0.6000000238418579,0.6000000238418579,1.0],"metallicFactor":0.0},"extensions":{"KHR_materials_specular":{"specularFactor":1.0,"specularColorFactor":[0.0,0.0,0.0]},"KHR_materials_ior":{"ior":1.0}}},{"name":"material_0_material","pbrMetallicRoughness":{"baseColorTexture":{"index":0},"metallicFactor":0.0},"extensions":{"KHR_materials_specular":{"specularFactor":1.0,"specularColorFactor":[0.0,0.0,0.0]},"KHR_materials_ior":{"ior":1.0}}},{"name":"material_1_material","pbrMetallicRoughness":{"baseColorTexture":{"index":1},"metallicFactor":0.0},"extensions":{"KHR_materials_specular":{"specularFactor":1.0,"specularColorFactor":[0.0,0.0,0.0]},"KHR_materials_ior":{"ior":1.0}}}],"meshes":[{"name":"defaultobject","primitives":[{"mode":4,"material":1,"indices":2,"attributes":{"POSITION":0,"TEXCOORD_0":1}},{"mode":4,"material":2,"indices":5,"attributes":{"POSITION":3,"TEXCOORD_0":4}}]}],"nodes":[{"name":"tile_0456.obj","children":[1]},{"name":"defaultobject","mesh":0}],"samplers":[{},{}],"scenes":[{"nodes":[0]}],"textures":[{"source":0,"sampler":0},{"source":1,"sampler":1}],"scene":0}
