{"asset":{"version":"2.0","generator":"Open Asset Import Library (assimp v6.0.0)"},"extensionsUsed":["KHR_materials_specular","KHR_materials_volume","KHR_materials_ior","FB_ngon_encoding"],"accessors":[{"bufferView":0,"byteOffset":0,"componentType":5126,"count":12004,"type":"VEC3","max":[2.8972043991088867,0.12422303855419159,1.0162352323532104],"min":[2.2250738585072014e-308,-0.1823013573884964,2.2250738585072014e-308]},{"bufferView":1,"byteOffset":0,"componentType":5126,"count":12004,"type":"VEC2","max":[0.992546796798706,0.5994224548339844],"min":[2.2250738585072014e-308,2.2250738585072014e-308]},{"bufferView":2,"byteOffset":0,"componentType":5125,"count":52272,"type":"SCALAR","max":[12003],"min":[0]},{"bufferView":3,"byteOffset":0,"componentType":5126,"count":2492,"type":"VEC3","max":[1.1389096975326538,0.12425975501537323,0.9907293915748596],"min":[2.2250738585072014e-308,-0.1544887274503708,2.2250738585072014e-308]},{"bufferView":4,"byteOffset":0,"componentType":5126,"count":2492,"type":"VEC2","max":[0.6645388603210449,0.60357666015625],"min":[2.2250738585072014e-308,2.2250738585072014e-308]},{"bufferView":5,"byteOffset":0,"componentType":5125,"count":12318,"type":"SCALAR","max":[2491],"min":[0]}],"buffers":[{"byteLength":548280,"uri":"tile_0452.bin"}],"bufferViews":[{"buffer":0,"byteOffset":0,"byteLength":144048,"target":34962},{"buffer":0,"byteOffset":144048,"byteLength":96032,"target":34962},{"buffer":0,"byteOffset":240080,"byteLength":209088,"target":34963},{"buffer":0,"byteOffset":449168,"byteLength":29904,"target":34962},{"buffer":0,"byteOffset":479072,"byteLength":19936,"target":34962},{"buffer":0,"byteOffset":499008,"byteLength":49272,"target":34963}],"images":[{"uri":"../textures/tile_0452_material_0.jpg"},{"uri":"../textures/tile_0452_material_1.jpg"}],"materials":[{"name":"DefaultMaterial","pbrMetallicRoughness":{"baseColorFactor":[0.6000000238418579,0.6000000238418579,0.6000000238418579,1.0],"metallicFactor":0.0},"extensions":{"KHR_materials_specular":{"specularFactor":1.0,"specularColorFactor":[0.0,0.0,0.0]},"KHR_materials_ior":{"ior":1.0}}},{"name":"material_0_material","pbrMetallicRoughness":{"baseColorTexture":{"index":0},"metallicFactor":0.0},"extensions":{"KHR_materials_specular":{"specularFactor":1.0,"specularColorFactor":[0.0,0.0,0.0]},"KHR_materials_ior":{"ior":1.0}}},{"name":"material_1_material","pbrMetallicRoughness":{"baseColorTexture":{"index":1},"metallicFactor":0.0},"extensions":{"KHR_materials_specular":{"specularFactor":1.0,"specularColorFactor":[0.0,0.0,0.0]},"KHR_materials_ior":{"ior":1.0}}}],"meshes":[{"name":"defaultobject","primitives":[{"mode":4,"material":1,"indices":2,"attributes":{"POSITION":0,"TEXCOORD_0":1}},{"mode":4,"material":2,"indices":5,"attributes":{"POSITION":3,"TEXCOORD_0":4}}]}],"nodes":[{"name":"tile_0452.obj","children":[1]},{"name":"defaultobject","mesh":0}],"samplers":[{},{}],"scenes":[{"nodes":[0]}],"textures":[{"source":0,"sampler":0},{"source":1,"sampler":1}],"scene":0}
