{"asset":{"version":"2.0","generator":"Open Asset Import Library (assimp v6.0.0)"},"extensionsUsed":["KHR_materials_specular","KHR_materials_volume","KHR_materials_ior","FB_ngon_encoding"],"accessors":[{"bufferView":0,"byteOffset":0,"componentType":5126,"count":4337,"type":"VEC3","max":[3.295297145843506,1.3953635692596436,0.5921978950500488],"min":[2.2250738585072014e-308,2.2250738585072014e-308,2.2250738585072014e-308]},{"bufferView":1,"byteOffset":0,"componentType":5126,"count":4337,"type":"VEC2","max":[0.9952297210693359,0.5211391448974609],"min":[2.2250738585072014e-308,2.2250738585072014e-308]},{"bufferView":2,"byteOffset":0,"componentType":5125,"count":18969,"type":"SCALAR","max":[4336],"min":[0]},{"bufferView":3,"byteOffset":0,"componentType":5126,"count":971,"type":"VEC3","max":[3.1745622158050537,1.392903447151184,0.6497147083282471],"min":[2.2250738585072014e-308,2.2250738585072014e-308,2.2250738585072014e-308]},{"bufferView":4,"byteOffset":0,"componentType":5126,"count":971,"type":"VEC2","max":[0.6453940868377686,0.4984931945800781],"min":[2.2250738585072014e-308,2.2250738585072014e-308]},{"bufferView":5,"byteOffset":0,"componentType":5125,"count":5058,"type":"SCALAR","max":[970],"min":[0]}],"buffers":[{"byteLength":202268,"uri":"tile_0121.bin"}],"bufferViews":[{"buffer":0,"byteOffset":0,"byteLength":52044,"target":34962},{"buffer":0,"byteOffset":52044,"byteLength":34696,"target":34962},{"buffer":0,"byteOffset":86740,"byteLength":75876,"target":34963},{"buffer":0,"byteOffset":162616,"byteLength":11652,"target":34962},{"buffer":0,"byteOffset":174268,"byteLength":7768,"target":34962},{"buffer":0,"byteOffset":182036,"byteLength":20232,"target":34963}],"images":[{"uri":"../textures/tile_0121_material_0.jpg"},{"uri":"../textures/tile_0121_material_1.jpg"}],"materials":[{"name":"DefaultMaterial","pbrMetallicRoughness":{"baseColorFactor":[0.6000000238418579,0.6000000238418579,0.6000000238418579,1.0],"metallicFactor":0.0},"extensions":{"KHR_materials_specular":{"specularFactor":1.0,"specularColorFactor":[0.0,0.0,0.0]},"KHR_materials_ior":{"ior":1.0}}},{"name":"material_0_material","pbrMetallicRoughness":{"baseColorTexture":{"index":0},"metallicFactor":0.0},"extensions":{"KHR_materials_specular":{"specularFactor":1.0,"specularColorFactor":[0.0,0.0,0.0]},"KHR_materials_ior":{"ior":1.0}}},{"name":"material_1_material","pbrMetallicRoughness":{"baseColorTexture":{"index":1},"metallicFactor":0.0},"extensions":{"KHR_materials_specular":{"specularFactor":1.0,"specularColorFactor":[0.0,0.0,0.0]},"KHR_materials_ior":{"ior":1.0}}}],"meshes":[{"name":"defaultobject","primitives":[{"mode":4,"material":1,"indices":2,"attributes":{"POSITION":0,"TEXCOORD_0":1}},{"mode":4,"material":2,"indices":5,"attributes":{"POSITION":3,"TEXCOORD_0":4}}]}],"nodes":[{"name":"tile_0121.obj","children":[1]},{"name":"defaultobject","mesh":0}],"samplers":[{},{}],"scenes":[{"nodes":[0]}],"textures":[{"source":0,"sampler":0},{"source":1,"sampler":1}],"scene":0}
