{"asset":{"version":"2.0","generator":"Open Asset Import Library (assimp v6.0.0)"},"extensionsUsed":["KHR_materials_specular","KHR_materials_volume","KHR_materials_ior","FB_ngon_encoding"],"accessors":[{"bufferView":0,"byteOffset":0,"componentType":5126,"count":7139,"type":"VEC3","max":[3.653834819793701,0.6186414361000061,-0.06915275752544403],"min":[2.2250738585072014e-308,2.2250738585072014e-308,-0.12238562852144241]},{"bufferView":1,"byteOffset":0,"componentType":5126,"count":7139,"type":"VEC2","max":[0.9958882331848145,0.8046531677246094],"min":[2.2250738585072014e-308,2.2250738585072014e-308]},{"bufferView":2,"byteOffset":0,"componentType":5125,"count":26310,"type":"SCALAR","max":[7138],"min":[0]},{"bufferView":3,"byteOffset":0,"componentType":5126,"count":3,"type":"VEC3","max":[2.9132890701293945,0.6123883724212646,-0.10771633684635162],"min":[2.2250738585072014e-308,2.2250738585072014e-308,-0.10875468701124191]},{"bufferView":4,"byteOffset":0,"componentType":5126,"count":3,"type":"VEC2","max":[0.4120175540447235,0.37805187702178955],"min":[2.2250738585072014e-308,2.2250738585072014e-308]},{"bufferView":5,"byteOffset":0,"componentType":5125,"count":3,"type":"SCALAR","max":[2],"min":[0]}],"buffers":[{"byteLength":248092,"uri":"tile_0547.bin"}],"bufferViews":[{"buffer":0,"byteOffset":0,"byteLength":85668,"target":34962},{"buffer":0,"byteOffset":85668,"byteLength":57112,"target":34962},{"buffer":0,"byteOffset":142780,"byteLength":105240,"target":34963},{"buffer":0,"byteOffset":248020,"byteLength":36,"target":34962},{"buffer":0,"byteOffset":248056,"byteLength":24,"target":34962},{"buffer":0,"byteOffset":248080,"byteLength":12,"target":34963}],"images":[{"uri":"../textures/tile_0547_material_0.jpg"},{"uri":"../textures/tile_0547_material_1.jpg"}],"materials":[{"name":"DefaultMaterial","pbrMetallicRoughness":{"baseColorFactor":[0.6000000238418579,0.6000000238418579,0.6000000238418579,1.0],"metallicFactor":0.0},"extensions":{"KHR_materials_specular":{"specularFactor":1.0,"specularColorFactor":[0.0,0.0,0.0]},"KHR_materials_ior":{"ior":1.0}}},{"name":"material_0_material","pbrMetallicRoughness":{"baseColorTexture":{"index":0},"metallicFactor":0.0},"extensions":{"KHR_materials_specular":{"specularFactor":1.0,"specularColorFactor":[0.0,0.0,0.0]},"KHR_materials_ior":{"ior":1.0}}},{"name":"material_1_material","pbrMetallicRoughness":{"baseColorTexture":{"index":1},"metallicFactor":0.0},"extensions":{"KHR_materials_specular":{"specularFactor":1.0,"specularColorFactor":[0.0,0.0,0.0]},"KHR_materials_ior":{"ior":1.0}}}],"meshes":[{"name":"defaultobject","primitives":[{"mode":4,"material":1,"indices":2,"attributes":{"POSITION":0,"TEXCOORD_0":1}},{"mode":4,"material":2,"indices":5,"attributes":{"POSITION":3,"TEXCOORD_0":4}}]}],"nodes":[{"name":"tile_0547.obj","children":[1]},{"name":"defaultobject","mesh":0}],"samplers":[{},{}],"scenes":[{"nodes":[0]}],"textures":[{"source":0,"sampler":0},{"source":1,"sampler":1}],"scene":0}
