{"asset":{"version":"2.0","generator":"Open Asset Import Library (assimp v6.0.0)"},"extensionsUsed":["KHR_materials_specular","KHR_materials_volume","KHR_materials_ior","FB_ngon_encoding"],"accessors":[{"bufferView":0,"byteOffset":0,"componentType":5126,"count":7021,"type":"VEC3","max":[3.489989995956421,0.4834701418876648,-0.012031271122395992],"min":[2.2250738585072014e-308,2.2250738585072014e-308,-0.07826010137796402]},{"bufferView":1,"byteOffset":0,"componentType":5126,"count":7021,"type":"VEC2","max":[0.9944577217102051,0.6874771118164062],"min":[2.2250738585072014e-308,2.2250738585072014e-308]},{"bufferView":2,"byteOffset":0,"componentType":5125,"count":26544,"type":"SCALAR","max":[7020],"min":[0]},{"bufferView":3,"byteOffset":0,"componentType":5126,"count":26,"type":"VEC3","max":[2.3974967002868652,0.3259918987751007,-0.019107023254036903],"min":[2.2250738585072014e-308,2.2250738585072014e-308,-0.05911779776215553]},{"bufferView":4,"byteOffset":0,"componentType":5126,"count":26,"type":"VEC2","max":[0.6079254746437073,0.6651917695999146],"min":[2.2250738585072014e-308,2.2250738585072014e-308]},{"bufferView":5,"byteOffset":0,"componentType":5125,"count":72,"type":"SCALAR","max":[25],"min":[0]}],"buffers":[{"byteLength":247404,"uri":"tile_0187.bin"}],"bufferViews":[{"buffer":0,"byteOffset":0,"byteLength":84252,"target":34962},{"buffer":0,"byteOffset":84252,"byteLength":56168,"target":34962},{"buffer":0,"byteOffset":140420,"byteLength":106176,"target":34963},{"buffer":0,"byteOffset":246596,"byteLength":312,"target":34962},{"buffer":0,"byteOffset":246908,"byteLength":208,"target":34962},{"buffer":0,"byteOffset":247116,"byteLength":288,"target":34963}],"images":[{"uri":"../textures/tile_0187_material_0.jpg"},{"uri":"../textures/tile_0187_material_1.jpg"}],"materials":[{"name":"DefaultMaterial","pbrMetallicRoughness":{"baseColorFactor":[0.6000000238418579,0.6000000238418579,0.6000000238418579,1.0],"metallicFactor":0.0},"extensions":{"KHR_materials_specular":{"specularFactor":1.0,"specularColorFactor":[0.0,0.0,0.0]},"KHR_materials_ior":{"ior":1.0}}},{"name":"material_0_material","pbrMetallicRoughness":{"baseColorTexture":{"index":0},"metallicFactor":0.0},"extensions":{"KHR_materials_specular":{"specularFactor":1.0,"specularColorFactor":[0.0,0.0,0.0]},"KHR_materials_ior":{"ior":1.0}}},{"name":"material_1_material","pbrMetallicRoughness":{"baseColorTexture":{"index":1},"metallicFactor":0.0},"extensions":{"KHR_materials_specular":{"specularFactor":1.0,"specularColorFactor":[0.0,0.0,0.0]},"KHR_materials_ior":{"ior":1.0}}}],"meshes":[{"name":"defaultobject","primitives":[{"mode":4,"material":1,"indices":2,"attributes":{"POSITION":0,"TEXCOORD_0":1}},{"mode":4,"material":2,"indices":5,"attributes":{"POSITION":3,"TEXCOORD_0":4}}]}],"nodes":[{"name":"tile_0187.obj","children":[1]},{"name":"defaultobject","mesh":0}],"samplers":[{},{}],"scenes":[{"nodes":[0]}],"textures":[{"source":0,"sampler":0},{"source":1,"sampler":1}],"scene":0}
