{"asset":{"version":"2.0","generator":"Open Asset Import Library (assimp v6.0.0)"},"extensionsUsed":["KHR_materials_specular","KHR_materials_volume","KHR_materials_ior","FB_ngon_encoding"],"accessors":[{"bufferView":0,"byteOffset":0,"componentType":5126,"count":5161,"type":"VEC3","max":[3.1960129737854004,1.3957018852233887,0.7516899108886719],"min":[2.2250738585072014e-308,2.2250738585072014e-308,2.2250738585072014e-308]},{"bufferView":1,"byteOffset":0,"componentType":5126,"count":5161,"type":"VEC2","max":[0.9933366775512695,0.6992168426513672],"min":[2.2250738585072014e-308,2.2250738585072014e-308]},{"bufferView":2,"byteOffset":0,"componentType":5125,"count":22836,"type":"SCALAR","max":[5160],"min":[0]},{"bufferView":3,"byteOffset":0,"componentType":5126,"count":654,"type":"VEC3","max":[3.1024820804595947,1.3882195949554443,0.7781880497932434],"min":[2.2250738585072014e-308,2.2250738585072014e-308,2.2250738585072014e-308]},{"bufferView":4,"byteOffset":0,"componentType":5126,"count":654,"type":"VEC2","max":[0.7311820983886719,0.8346481323242188],"min":[2.2250738585072014e-308,2.2250738585072014e-308]},{"bufferView":5,"byteOffset":0,"componentType":5125,"count":3438,"type":"SCALAR","max":[653],"min":[0]}],"buffers":[{"byteLength":221396,"uri":"tile_0122.bin"}],"bufferViews":[{"buffer":0,"byteOffset":0,"byteLength":61932,"target":34962},{"buffer":0,"byteOffset":61932,"byteLength":41288,"target":34962},{"buffer":0,"byteOffset":103220,"byteLength":91344,"target":34963},{"buffer":0,"byteOffset":194564,"byteLength":7848,"target":34962},{"buffer":0,"byteOffset":202412,"byteLength":5232,"target":34962},{"buffer":0,"byteOffset":207644,"byteLength":13752,"target":34963}],"images":[{"uri":"../textures/tile_0122_material_0.jpg"},{"uri":"../textures/tile_0122_material_1.jpg"}],"materials":[{"name":"DefaultMaterial","pbrMetallicRoughness":{"baseColorFactor":[0.6000000238418579,0.6000000238418579,0.6000000238418579,1.0],"metallicFactor":0.0},"extensions":{"KHR_materials_specular":{"specularFactor":1.0,"specularColorFactor":[0.0,0.0,0.0]},"KHR_materials_ior":{"ior":1.0}}},{"name":"material_0_material","pbrMetallicRoughness":{"baseColorTexture":{"index":0},"metallicFactor":0.0},"extensions":{"KHR_materials_specular":{"specularFactor":1.0,"specularColorFactor":[0.0,0.0,0.0]},"KHR_materials_ior":{"ior":1.0}}},{"name":"material_1_material","pbrMetallicRoughness":{"baseColorTexture":{"index":1},"metallicFactor":0.0},"extensions":{"KHR_materials_specular":{"specularFactor":1.0,"specularColorFactor":[0.0,0.0,0.0]},"KHR_materials_ior":{"ior":1.0}}}],"meshes":[{"name":"defaultobject","primitives":[{"mode":4,"material":1,"indices":2,"attributes":{"POSITION":0,"TEXCOORD_0":1}},{"mode":4,"material":2,"indices":5,"attributes":{"POSITION":3,"TEXCOORD_0":4}}]}],"nodes":[{"name":"tile_0122.obj","children":[1]},{"name":"defaultobject","mesh":0}],"samplers":[{},{}],"scenes":[{"nodes":[0]}],"textures":[{"source":0,"sampler":0},{"source":1,"sampler":1}],"scene":0}
