{"asset":{"version":"2.0","generator":"Open Asset Import Library (assimp v6.0.0)"},"extensionsUsed":["KHR_materials_specular","KHR_materials_volume","KHR_materials_ior","FB_ngon_encoding"],"accessors":[{"bufferView":0,"byteOffset":0,"componentType":5126,"count":5403,"type":"VEC3","max":[3.8269026279449463,1.4109236001968384,0.04544014483690262],"min":[2.2250738585072014e-308,2.2250738585072014e-308,-0.5336744785308838]},{"bufferView":1,"byteOffset":0,"componentType":5126,"count":5403,"type":"VEC2","max":[0.9899253845214844,0.6793556213378906],"min":[2.2250738585072014e-308,2.2250738585072014e-308]},{"bufferView":2,"byteOffset":0,"componentType":5125,"count":21885,"type":"SCALAR","max":[5402],"min":[0]},{"bufferView":3,"byteOffset":0,"componentType":5126,"count":317,"type":"VEC3","max":[3.8196322917938232,1.344956398010254,0.04223126173019409],"min":[2.2250738585072014e-308,2.2250738585072014e-308,-0.5948601961135864]},{"bufferView":4,"byteOffset":0,"componentType":5126,"count":317,"type":"VEC2","max":[0.8815727233886719,0.6039962768554688],"min":[2.2250738585072014e-308,2.2250738585072014e-308]},{"bufferView":5,"byteOffset":0,"componentType":5125,"count":1233,"type":"SCALAR","max":[316],"min":[0]}],"buffers":[{"byteLength":206872,"uri":"tile_0518.bin"}],"bufferViews":[{"buffer":0,"byteOffset":0,"byteLength":64836,"target":34962},{"buffer":0,"byteOffset":64836,"byteLength":43224,"target":34962},{"buffer":0,"byteOffset":108060,"byteLength":87540,"target":34963},{"buffer":0,"byteOffset":195600,"byteLength":3804,"target":34962},{"buffer":0,"byteOffset":199404,"byteLength":2536,"target":34962},{"buffer":0,"byteOffset":201940,"byteLength":4932,"target":34963}],"images":[{"uri":"../textures/tile_0518_material_0.jpg"},{"uri":"../textures/tile_0518_material_1.jpg"}],"materials":[{"name":"DefaultMaterial","pbrMetallicRoughness":{"baseColorFactor":[0.6000000238418579,0.6000000238418579,0.6000000238418579,1.0],"metallicFactor":0.0},"extensions":{"KHR_materials_specular":{"specularFactor":1.0,"specularColorFactor":[0.0,0.0,0.0]},"KHR_materials_ior":{"ior":1.0}}},{"name":"material_0_material","pbrMetallicRoughness":{"baseColorTexture":{"index":0},"metallicFactor":0.0},"extensions":{"KHR_materials_specular":{"specularFactor":1.0,"specularColorFactor":[0.0,0.0,0.0]},"KHR_materials_ior":{"ior":1.0}}},{"name":"material_1_material","pbrMetallicRoughness":{"baseColorTexture":{"index":1},"metallicFactor":0.0},"extensions":{"KHR_materials_specular":{"specularFactor":1.0,"specularColorFactor":[0.0,0.0,0.0]},"KHR_materials_ior":{"ior":1.0}}}],"meshes":[{"name":"defaultobject","primitives":[{"mode":4,"material":1,"indices":2,"attributes":{"POSITION":0,"TEXCOORD_0":1}},{"mode":4,"material":2,"indices":5,"attributes":{"POSITION":3,"TEXCOORD_0":4}}]}],"nodes":[{"name":"tile_0518.obj","children":[1]},{"name":"defaultobject","mesh":0}],"samplers":[{},{}],"scenes":[{"nodes":[0]}],"textures":[{"source":0,"sampler":0},{"source":1,"sampler":1}],"scene":0}
