{"asset":{"version":"2.0","generator":"Open Asset Import Library (assimp v6.0.0)"},"extensionsUsed":["KHR_materials_specular","KHR_materials_volume","KHR_materials_ior","FB_ngon_encoding"],"accessors":[{"bufferView":0,"byteOffset":0,"componentType":5126,"count":4447,"type":"VEC3","max":[2.1334850788116455,-0.40794843435287476,1.5482969284057617],"min":[-0.058312103152275085,-0.6074957847595215,2.2250738585072014e-308]},{"bufferView":1,"byteOffset":0,"componentType":5126,"count":4447,"type":"VEC2","max":[0.9886713027954102,0.64447021484375],"min":[2.2250738585072014e-308,2.2250738585072014e-308]},{"bufferView":2,"byteOffset":0,"componentType":5125,"count":18294,"type":"SCALAR","max":[4446],"min":[0]},{"bufferView":3,"byteOffset":0,"componentType":5126,"count":1162,"type":"VEC3","max":[0.307369202375412,-0.4372398853302002,1.522436499595642],"min":[-0.10523288697004318,-0.5769752264022827,2.2250738585072014e-308]},{"bufferView":4,"byteOffset":0,"componentType":5126,"count":1162,"type":"VEC2","max":[0.5420248508453369,0.5890121459960938],"min":[2.2250738585072014e-308,2.2250738585072014e-308]},{"bufferView":5,"byteOffset":0,"componentType":5125,"count":5556,"type":"SCALAR","max":[1161],"min":[0]}],"buffers":[{"byteLength":207580,"uri":"tile_0478.bin"}],"bufferViews":[{"buffer":0,"byteOffset":0,"byteLength":53364,"target":34962},{"buffer":0,"byteOffset":53364,"byteLength":35576,"target":34962},{"buffer":0,"byteOffset":88940,"byteLength":73176,"target":34963},{"buffer":0,"byteOffset":162116,"byteLength":13944,"target":34962},{"buffer":0,"byteOffset":176060,"byteLength":9296,"target":34962},{"buffer":0,"byteOffset":185356,"byteLength":22224,"target":34963}],"images":[{"uri":"../textures/tile_0478_material_0.jpg"},{"uri":"../textures/tile_0478_material_1.jpg"}],"materials":[{"name":"DefaultMaterial","pbrMetallicRoughness":{"baseColorFactor":[0.6000000238418579,0.6000000238418579,0.6000000238418579,1.0],"metallicFactor":0.0},"extensions":{"KHR_materials_specular":{"specularFactor":1.0,"specularColorFactor":[0.0,0.0,0.0]},"KHR_materials_ior":{"ior":1.0}}},{"name":"material_0_material","pbrMetallicRoughness":{"baseColorTexture":{"index":0},"metallicFactor":0.0},"extensions":{"KHR_materials_specular":{"specularFactor":1.0,"specularColorFactor":[0.0,0.0,0.0]},"KHR_materials_ior":{"ior":1.0}}},{"name":"material_1_material","pbrMetallicRoughness":{"baseColorTexture":{"index":1},"metallicFactor":0.0},"extensions":{"KHR_materials_specular":{"specularFactor":1.0,"specularColorFactor":[0.0,0.0,0.0]},"KHR_materials_ior":{"ior":1.0}}}],"meshes":[{"name":"defaultobject","primitives":[{"mode":4,"material":1,"indices":2,"attributes":{"POSITION":0,"TEXCOORD_0":1}},{"mode":4,"material":2,"indices":5,"attributes":{"POSITION":3,"TEXCOORD_0":4}}]}],"nodes":[{"name":"tile_0478.obj","children":[1]},{"name":"defaultobject","mesh":0}],"samplers":[{},{}],"scenes":[{"nodes":[0]}],"textures":[{"source":0,"sampler":0},{"source":1,"sampler":1}],"scene":0}
