{"asset":{"version":"2.0","generator":"Open Asset Import Library (assimp v6.0.0)"},"extensionsUsed":["KHR_materials_specular","KHR_materials_volume","KHR_materials_ior","FB_ngon_encoding"],"accessors":[{"bufferView":0,"byteOffset":0,"componentType":5126,"count":6710,"type":"VEC3","max":[2.4900364875793457,-2.1279194355010986,1.0752589702606201],"min":[2.2250738585072014e-308,-2.3080759048461914,2.2250738585072014e-308]},{"bufferView":1,"byteOffset":0,"componentType":5126,"count":6710,"type":"VEC2","max":[0.9931387901306152,0.6991996765136719],"min":[2.2250738585072014e-308,2.2250738585072014e-308]},{"bufferView":2,"byteOffset":0,"componentType":5125,"count":26052,"type":"SCALAR","max":[6709],"min":[0]}],"buffers":[{"byteLength":238408,"uri":"tile_0197.bin"}],"bufferViews":[{"buffer":0,"byteOffset":0,"byteLength":80520,"target":34962},{"buffer":0,"byteOffset":80520,"byteLength":53680,"target":34962},{"buffer":0,"byteOffset":134200,"byteLength":104208,"target":34963}],"images":[{"uri":"../textures/tile_0197_material_0.jpg"}],"materials":[{"name":"DefaultMaterial","pbrMetallicRoughness":{"baseColorFactor":[0.6000000238418579,0.6000000238418579,0.6000000238418579,1.0],"metallicFactor":0.0},"extensions":{"KHR_materials_specular":{"specularFactor":1.0,"specularColorFactor":[0.0,0.0,0.0]},"KHR_materials_ior":{"ior":1.0}}},{"name":"material_0_material","pbrMetallicRoughness":{"baseColorTexture":{"index":0},"metallicFactor":0.0},"extensions":{"KHR_materials_specular":{"specularFactor":1.0,"specularColorFactor":[0.0,0.0,0.0]},"KHR_materials_ior":{"ior":1.0}}},{"name":"material_1_material","pbrMetallicRoughness":{"metallicFactor":0.0},"extensions":{"KHR_materials_specular":{"specularFactor":1.0,"specularColorFactor":[0.0,0.0,0.0]},"KHR_materials_ior":{"ior":1.0}}}],"meshes":[{"name":"defaultobject","primitives":[{"mode":4,"material":1,"indices":2,"attributes":{"POSITION":0,"TEXCOORD_0":1}}]}],"nodes":[{"name":"tile_0197.obj","children":[1]},{"name":"defaultobject","mesh":0}],"samplers":[{}],"scenes":[{"nodes":[0]}],"textures":[{"source":0,"sampler":0}],"scene":0}
