{"asset":{"version":"2.0","generator":"Open Asset Import Library (assimp v6.0.0)"},"extensionsUsed":["KHR_materials_specular","KHR_materials_volume","KHR_materials_ior","FB_ngon_encoding"],"accessors":[{"bufferView":0,"byteOffset":0,"componentType":5126,"count":14214,"type":"VEC3","max":[2.1151418685913086,0.9472402334213257,2.343104839324951],"min":[2.2250738585072014e-308,2.2250738585072014e-308,2.2250738585072014e-308]},{"bufferView":1,"byteOffset":0,"componentType":5126,"count":14214,"type":"VEC2","max":[0.9947452545166016,0.8162565231323242],"min":[2.2250738585072014e-308,2.2250738585072014e-308]},{"bufferView":2,"byteOffset":0,"componentType":5125,"count":64986,"type":"SCALAR","max":[14213],"min":[0]},{"bufferView":3,"byteOffset":0,"componentType":5126,"count":678,"type":"VEC3","max":[1.802002191543579,0.8219142556190491,2.2426846027374268],"min":[2.2250738585072014e-308,2.2250738585072014e-308,2.2250738585072014e-308]},{"bufferView":4,"byteOffset":0,"componentType":5126,"count":678,"type":"VEC2","max":[0.5119762420654297,0.6624202728271484],"min":[2.2250738585072014e-308,2.2250738585072014e-308]},{"bufferView":5,"byteOffset":0,"componentType":5125,"count":3354,"type":"SCALAR","max":[677],"min":[0]}],"buffers":[{"byteLength":571200,"uri":"tile_0064.bin"}],"bufferViews":[{"buffer":0,"byteOffset":0,"byteLength":170568,"target":34962},{"buffer":0,"byteOffset":170568,"byteLength":113712,"target":34962},{"buffer":0,"byteOffset":284280,"byteLength":259944,"target":34963},{"buffer":0,"byteOffset":544224,"byteLength":8136,"target":34962},{"buffer":0,"byteOffset":552360,"byteLength":5424,"target":34962},{"buffer":0,"byteOffset":557784,"byteLength":13416,"target":34963}],"images":[{"uri":"../textures/tile_0064_material_0.jpg"},{"uri":"../textures/tile_0064_material_1.jpg"}],"materials":[{"name":"DefaultMaterial","pbrMetallicRoughness":{"baseColorFactor":[0.6000000238418579,0.6000000238418579,0.6000000238418579,1.0],"metallicFactor":0.0},"extensions":{"KHR_materials_specular":{"specularFactor":1.0,"specularColorFactor":[0.0,0.0,0.0]},"KHR_materials_ior":{"ior":1.0}}},{"name":"material_0_material","pbrMetallicRoughness":{"baseColorTexture":{"index":0},"metallicFactor":0.0},"extensions":{"KHR_materials_specular":{"specularFactor":1.0,"specularColorFactor":[0.0,0.0,0.0]},"KHR_materials_ior":{"ior":1.0}}},{"name":"material_1_material","pbrMetallicRoughness":{"baseColorTexture":{"index":1},"metallicFactor":0.0},"extensions":{"KHR_materials_specular":{"specularFactor":1.0,"specularColorFactor":[0.0,0.0,0.0]},"KHR_materials_ior":{"ior":1.0}}}],"meshes":[{"name":"defaultobject","primitives":[{"mode":4,"material":1,"indices":2,"attributes":{"POSITION":0,"TEXCOORD_0":1}},{"mode":4,"material":2,"indices":5,"attributes":{"POSITION":3,"TEXCOORD_0":4}}]}],"nodes":[{"name":"tile_0064.obj","children":[1]},{"name":"defaultobject","mesh":0}],"samplers":[{},{}],"scenes":[{"nodes":[0]}],"textures":[{"source":0,"sampler":0},{"source":1,"sampler":1}],"scene":0}
