{"asset":{"version":"2.0","generator":"Open Asset Import Library (assimp v6.0.0)"},"extensionsUsed":["KHR_materials_specular","KHR_materials_volume","KHR_materials_ior","FB_ngon_encoding"],"accessors":[{"bufferView":0,"byteOffset":0,"componentType":5126,"count":5207,"type":"VEC3","max":[0.9419500231742859,-1.9754709005355835,3.3201379776000977],"min":[2.2250738585072014e-308,-2.1596500873565674,2.2250738585072014e-308]},{"bufferView":1,"byteOffset":0,"componentType":5126,"count":5207,"type":"VEC2","max":[0.9940533638000488,0.5780868530273438],"min":[2.2250738585072014e-308,2.2250738585072014e-308]},{"bufferView":2,"byteOffset":0,"componentType":5125,"count":23286,"type":"SCALAR","max":[5206],"min":[0]},{"bufferView":3,"byteOffset":0,"componentType":5126,"count":815,"type":"VEC3","max":[0.9201600551605225,-1.9583011865615845,3.3114678859710693],"min":[2.2250738585072014e-308,-2.1545748710632324,2.2250738585072014e-308]},{"bufferView":4,"byteOffset":0,"componentType":5126,"count":815,"type":"VEC2","max":[0.8783683776855469,0.679443359375],"min":[2.2250738585072014e-308,2.2250738585072014e-308]},{"bufferView":5,"byteOffset":0,"componentType":5125,"count":3663,"type":"SCALAR","max":[814],"min":[0]}],"buffers":[{"byteLength":228236,"uri":"tile_0372.bin"}],"bufferViews":[{"buffer":0,"byteOffset":0,"byteLength":62484,"target":34962},{"buffer":0,"byteOffset":62484,"byteLength":41656,"target":34962},{"buffer":0,"byteOffset":104140,"byteLength":93144,"target":34963},{"buffer":0,"byteOffset":197284,"byteLength":9780,"target":34962},{"buffer":0,"byteOffset":207064,"byteLength":6520,"target":34962},{"buffer":0,"byteOffset":213584,"byteLength":14652,"target":34963}],"images":[{"uri":"../textures/tile_0372_material_0.jpg"},{"uri":"../textures/tile_0372_material_1.jpg"}],"materials":[{"name":"DefaultMaterial","pbrMetallicRoughness":{"baseColorFactor":[0.6000000238418579,0.6000000238418579,0.6000000238418579,1.0],"metallicFactor":0.0},"extensions":{"KHR_materials_specular":{"specularFactor":1.0,"specularColorFactor":[0.0,0.0,0.0]},"KHR_materials_ior":{"ior":1.0}}},{"name":"material_0_material","pbrMetallicRoughness":{"baseColorTexture":{"index":0},"metallicFactor":0.0},"extensions":{"KHR_materials_specular":{"specularFactor":1.0,"specularColorFactor":[0.0,0.0,0.0]},"KHR_materials_ior":{"ior":1.0}}},{"name":"material_1_material","pbrMetallicRoughness":{"baseColorTexture":{"index":1},"metallicFactor":0.0},"extensions":{"KHR_materials_specular":{"specularFactor":1.0,"specularColorFactor":[0.0,0.0,0.0]},"KHR_materials_ior":{"ior":1.0}}}],"meshes":[{"name":"defaultobject","primitives":[{"mode":4,"material":1,"indices":2,"attributes":{"POSITION":0,"TEXCOORD_0":1}},{"mode":4,"material":2,"indices":5,"attributes":{"POSITION":3,"TEXCOORD_0":4}}]}],"nodes":[{"name":"tile_0372.obj","children":[1]},{"name":"defaultobject","mesh":0}],"samplers":[{},{}],"scenes":[{"nodes":[0]}],"textures":[{"source":0,"sampler":0},{"source":1,"sampler":1}],"scene":0}
