{"asset":{"version":"2.0","generator":"Open Asset Import Library (assimp v6.0.0)"},"extensionsUsed":["KHR_materials_specular","KHR_materials_volume","KHR_materials_ior","FB_ngon_encoding"],"accessors":[{"bufferView":0,"byteOffset":0,"componentType":5126,"count":13219,"type":"VEC3","max":[2.186306953430176,1.292137861251831,1.265356183052063],"min":[2.2250738585072014e-308,2.2250738585072014e-308,2.2250738585072014e-308]},{"bufferView":1,"byteOffset":0,"componentType":5126,"count":13219,"type":"VEC2","max":[0.9949734210968018,0.736323356628418],"min":[2.2250738585072014e-308,2.2250738585072014e-308]},{"bufferView":2,"byteOffset":0,"componentType":5125,"count":59187,"type":"SCALAR","max":[13218],"min":[0]},{"bufferView":3,"byteOffset":0,"componentType":5126,"count":1418,"type":"VEC3","max":[2.159205436706543,1.292137861251831,1.2533682584762573],"min":[2.2250738585072014e-308,2.2250738585072014e-308,2.2250738585072014e-308]},{"bufferView":4,"byteOffset":0,"componentType":5126,"count":1418,"type":"VEC2","max":[0.5726785659790039,0.5123977661132812],"min":[2.2250738585072014e-308,2.2250738585072014e-308]},{"bufferView":5,"byteOffset":0,"componentType":5125,"count":7029,"type":"SCALAR","max":[1417],"min":[0]}],"buffers":[{"byteLength":557604,"uri":"tile_0093.bin"}],"bufferViews":[{"buffer":0,"byteOffset":0,"byteLength":158628,"target":34962},{"buffer":0,"byteOffset":158628,"byteLength":105752,"target":34962},{"buffer":0,"byteOffset":264380,"byteLength":236748,"target":34963},{"buffer":0,"byteOffset":501128,"byteLength":17016,"target":34962},{"buffer":0,"byteOffset":518144,"byteLength":11344,"target":34962},{"buffer":0,"byteOffset":529488,"byteLength":28116,"target":34963}],"images":[{"uri":"../textures/tile_0093_material_0.jpg"},{"uri":"../textures/tile_0093_material_1.jpg"}],"materials":[{"name":"DefaultMaterial","pbrMetallicRoughness":{"baseColorFactor":[0.6000000238418579,0.6000000238418579,0.6000000238418579,1.0],"metallicFactor":0.0},"extensions":{"KHR_materials_specular":{"specularFactor":1.0,"specularColorFactor":[0.0,0.0,0.0]},"KHR_materials_ior":{"ior":1.0}}},{"name":"material_0_material","pbrMetallicRoughness":{"baseColorTexture":{"index":0},"metallicFactor":0.0},"extensions":{"KHR_materials_specular":{"specularFactor":1.0,"specularColorFactor":[0.0,0.0,0.0]},"KHR_materials_ior":{"ior":1.0}}},{"name":"material_1_material","pbrMetallicRoughness":{"baseColorTexture":{"index":1},"metallicFactor":0.0},"extensions":{"KHR_materials_specular":{"specularFactor":1.0,"specularColorFactor":[0.0,0.0,0.0]},"KHR_materials_ior":{"ior":1.0}}}],"meshes":[{"name":"defaultobject","primitives":[{"mode":4,"material":1,"indices":2,"attributes":{"POSITION":0,"TEXCOORD_0":1}},{"mode":4,"material":2,"indices":5,"attributes":{"POSITION":3,"TEXCOORD_0":4}}]}],"nodes":[{"name":"tile_0093.obj","children":[1]},{"name":"defaultobject","mesh":0}],"samplers":[{},{}],"scenes":[{"nodes":[0]}],"textures":[{"source":0,"sampler":0},{"source":1,"sampler":1}],"scene":0}
