{"asset":{"version":"2.0","generator":"Open Asset Import Library (assimp v6.0.0)"},"extensionsUsed":["KHR_materials_specular","KHR_materials_volume","KHR_materials_ior","FB_ngon_encoding"],"accessors":[{"bufferView":0,"byteOffset":0,"componentType":5126,"count":4910,"type":"VEC3","max":[3.102684259414673,1.5836085081100464,0.8742780685424805],"min":[2.2250738585072014e-308,2.2250738585072014e-308,2.2250738585072014e-308]},{"bufferView":1,"byteOffset":0,"componentType":5126,"count":4910,"type":"VEC2","max":[0.992774248123169,0.5856475830078125],"min":[2.2250738585072014e-308,2.2250738585072014e-308]},{"bufferView":2,"byteOffset":0,"componentType":5125,"count":20673,"type":"SCALAR","max":[4909],"min":[0]},{"bufferView":3,"byteOffset":0,"componentType":5126,"count":273,"type":"VEC3","max":[2.901707887649536,1.5817077159881592,0.8839956521987915],"min":[2.2250738585072014e-308,2.2250738585072014e-308,2.2250738585072014e-308]},{"bufferView":4,"byteOffset":0,"componentType":5126,"count":273,"type":"VEC2","max":[0.5480537414550781,0.6457748413085938],"min":[2.2250738585072014e-308,2.2250738585072014e-308]},{"bufferView":5,"byteOffset":0,"componentType":5125,"count":1311,"type":"SCALAR","max":[272],"min":[0]}],"buffers":[{"byteLength":191596,"uri":"tile_0140.bin"}],"bufferViews":[{"buffer":0,"byteOffset":0,"byteLength":58920,"target":34962},{"buffer":0,"byteOffset":58920,"byteLength":39280,"target":34962},{"buffer":0,"byteOffset":98200,"byteLength":82692,"target":34963},{"buffer":0,"byteOffset":180892,"byteLength":3276,"target":34962},{"buffer":0,"byteOffset":184168,"byteLength":2184,"target":34962},{"buffer":0,"byteOffset":186352,"byteLength":5244,"target":34963}],"images":[{"uri":"../textures/tile_0140_material_0.jpg"},{"uri":"../textures/tile_0140_material_1.jpg"}],"materials":[{"name":"DefaultMaterial","pbrMetallicRoughness":{"baseColorFactor":[0.6000000238418579,0.6000000238418579,0.6000000238418579,1.0],"metallicFactor":0.0},"extensions":{"KHR_materials_specular":{"specularFactor":1.0,"specularColorFactor":[0.0,0.0,0.0]},"KHR_materials_ior":{"ior":1.0}}},{"name":"material_0_material","pbrMetallicRoughness":{"baseColorTexture":{"index":0},"metallicFactor":0.0},"extensions":{"KHR_materials_specular":{"specularFactor":1.0,"specularColorFactor":[0.0,0.0,0.0]},"KHR_materials_ior":{"ior":1.0}}},{"name":"material_1_material","pbrMetallicRoughness":{"baseColorTexture":{"index":1},"metallicFactor":0.0},"extensions":{"KHR_materials_specular":{"specularFactor":1.0,"specularColorFactor":[0.0,0.0,0.0]},"KHR_materials_ior":{"ior":1.0}}}],"meshes":[{"name":"defaultobject","primitives":[{"mode":4,"material":1,"indices":2,"attributes":{"POSITION":0,"TEXCOORD_0":1}},{"mode":4,"material":2,"indices":5,"attributes":{"POSITION":3,"TEXCOORD_0":4}}]}],"nodes":[{"name":"tile_0140.obj","children":[1]},{"name":"defaultobject","mesh":0}],"samplers":[{},{}],"scenes":[{"nodes":[0]}],"textures":[{"source":0,"sampler":0},{"source":1,"sampler":1}],"scene":0}
