{"asset":{"version":"2.0","generator":"Open Asset Import Library (assimp v6.0.0)"},"extensionsUsed":["KHR_materials_specular","KHR_materials_volume","KHR_materials_ior","FB_ngon_encoding"],"accessors":[{"bufferView":0,"byteOffset":0,"componentType":5126,"count":11126,"type":"VEC3","max":[2.7579779624938965,-1.2179195880889893,0.9275654554367065],"min":[-0.17936651408672333,-1.5563817024230957,2.2250738585072014e-308]},{"bufferView":1,"byteOffset":0,"componentType":5126,"count":11126,"type":"VEC2","max":[0.9952731132507324,0.6269426345825195],"min":[2.2250738585072014e-308,2.2250738585072014e-308]},{"bufferView":2,"byteOffset":0,"componentType":5125,"count":47259,"type":"SCALAR","max":[11125],"min":[0]},{"bufferView":3,"byteOffset":0,"componentType":5126,"count":23,"type":"VEC3","max":[-0.11624083667993546,-1.2647838592529297,0.9080177545547485],"min":[-0.17821425199508667,-1.363869309425354,2.2250738585072014e-308]},{"bufferView":4,"byteOffset":0,"componentType":5126,"count":23,"type":"VEC2","max":[0.5676459670066833,0.6102906465530396],"min":[2.2250738585072014e-308,2.2250738585072014e-308]},{"bufferView":5,"byteOffset":0,"componentType":5125,"count":33,"type":"SCALAR","max":[22],"min":[0]}],"buffers":[{"byteLength":412148,"uri":"tile_0208.bin"}],"bufferViews":[{"buffer":0,"byteOffset":0,"byteLength":133512,"target":34962},{"buffer":0,"byteOffset":133512,"byteLength":89008,"target":34962},{"buffer":0,"byteOffset":222520,"byteLength":189036,"target":34963},{"buffer":0,"byteOffset":411556,"byteLength":276,"target":34962},{"buffer":0,"byteOffset":411832,"byteLength":184,"target":34962},{"buffer":0,"byteOffset":412016,"byteLength":132,"target":34963}],"images":[{"uri":"../textures/tile_0208_material_0.jpg"},{"uri":"../textures/tile_0208_material_1.jpg"}],"materials":[{"name":"DefaultMaterial","pbrMetallicRoughness":{"baseColorFactor":[0.6000000238418579,0.6000000238418579,0.6000000238418579,1.0],"metallicFactor":0.0},"extensions":{"KHR_materials_specular":{"specularFactor":1.0,"specularColorFactor":[0.0,0.0,0.0]},"KHR_materials_ior":{"ior":1.0}}},{"name":"material_0_material","pbrMetallicRoughness":{"baseColorTexture":{"index":0},"metallicFactor":0.0},"extensions":{"KHR_materials_specular":{"specularFactor":1.0,"specularColorFactor":[0.0,0.0,0.0]},"KHR_materials_ior":{"ior":1.0}}},{"name":"material_1_material","pbrMetallicRoughness":{"baseColorTexture":{"index":1},"metallicFactor":0.0},"extensions":{"KHR_materials_specular":{"specularFactor":1.0,"specularColorFactor":[0.0,0.0,0.0]},"KHR_materials_ior":{"ior":1.0}}}],"meshes":[{"name":"defaultobject","primitives":[{"mode":4,"material":1,"indices":2,"attributes":{"POSITION":0,"TEXCOORD_0":1}},{"mode":4,"material":2,"indices":5,"attributes":{"POSITION":3,"TEXCOORD_0":4}}]}],"nodes":[{"name":"tile_0208.obj","children":[1]},{"name":"defaultobject","mesh":0}],"samplers":[{},{}],"scenes":[{"nodes":[0]}],"textures":[{"source":0,"sampler":0},{"source":1,"sampler":1}],"scene":0}
