{"asset":{"version":"2.0","generator":"Open Asset Import Library (assimp v6.0.0)"},"extensionsUsed":["KHR_materials_specular","KHR_materials_volume","KHR_materials_ior","FB_ngon_encoding"],"accessors":[{"bufferView":0,"byteOffset":0,"componentType":5126,"count":2983,"type":"VEC3","max":[1.3465099334716797,-2.282287120819092,1.8656187057495117],"min":[-0.07952488213777542,-2.4431262016296387,2.2250738585072014e-308]},{"bufferView":1,"byteOffset":0,"componentType":5126,"count":2983,"type":"VEC2","max":[0.982243537902832,0.5987434387207031],"min":[2.2250738585072014e-308,2.2250738585072014e-308]},{"bufferView":2,"byteOffset":0,"componentType":5125,"count":13515,"type":"SCALAR","max":[2982],"min":[0]},{"bufferView":3,"byteOffset":0,"componentType":5126,"count":1678,"type":"VEC3","max":[0.36044514179229736,-2.2860162258148193,1.8551591634750366],"min":[2.2250738585072014e-308,-2.396193265914917,2.2250738585072014e-308]},{"bufferView":4,"byteOffset":0,"componentType":5126,"count":1678,"type":"VEC2","max":[0.6182327270507812,0.7668399810791016],"min":[2.2250738585072014e-308,2.2250738585072014e-308]},{"bufferView":5,"byteOffset":0,"componentType":5125,"count":8937,"type":"SCALAR","max":[1677],"min":[0]}],"buffers":[{"byteLength":183028,"uri":"tile_0267.bin"}],"bufferViews":[{"buffer":0,"byteOffset":0,"byteLength":35796,"target":34962},{"buffer":0,"byteOffset":35796,"byteLength":23864,"target":34962},{"buffer":0,"byteOffset":59660,"byteLength":54060,"target":34963},{"buffer":0,"byteOffset":113720,"byteLength":20136,"target":34962},{"buffer":0,"byteOffset":133856,"byteLength":13424,"target":34962},{"buffer":0,"byteOffset":147280,"byteLength":35748,"target":34963}],"images":[{"uri":"../textures/tile_0267_material_0.jpg"},{"uri":"../textures/tile_0267_material_1.jpg"}],"materials":[{"name":"DefaultMaterial","pbrMetallicRoughness":{"baseColorFactor":[0.6000000238418579,0.6000000238418579,0.6000000238418579,1.0],"metallicFactor":0.0},"extensions":{"KHR_materials_specular":{"specularFactor":1.0,"specularColorFactor":[0.0,0.0,0.0]},"KHR_materials_ior":{"ior":1.0}}},{"name":"material_0_material","pbrMetallicRoughness":{"baseColorTexture":{"index":0},"metallicFactor":0.0},"extensions":{"KHR_materials_specular":{"specularFactor":1.0,"specularColorFactor":[0.0,0.0,0.0]},"KHR_materials_ior":{"ior":1.0}}},{"name":"material_1_material","pbrMetallicRoughness":{"baseColorTexture":{"index":1},"metallicFactor":0.0},"extensions":{"KHR_materials_specular":{"specularFactor":1.0,"specularColorFactor":[0.0,0.0,0.0]},"KHR_materials_ior":{"ior":1.0}}}],"meshes":[{"name":"defaultobject","primitives":[{"mode":4,"material":1,"indices":2,"attributes":{"POSITION":0,"TEXCOORD_0":1}},{"mode":4,"material":2,"indices":5,"attributes":{"POSITION":3,"TEXCOORD_0":4}}]}],"nodes":[{"name":"tile_0267.obj","children":[1]},{"name":"defaultobject","mesh":0}],"samplers":[{},{}],"scenes":[{"nodes":[0]}],"textures":[{"source":0,"sampler":0},{"source":1,"sampler":1}],"scene":0}
