{"asset":{"version":"2.0","generator":"Open Asset Import Library (assimp v6.0.0)"},"extensionsUsed":["KHR_materials_specular","KHR_materials_volume","KHR_materials_ior","FB_ngon_encoding"],"accessors":[{"bufferView":0,"byteOffset":0,"componentType":5126,"count":5232,"type":"VEC3","max":[3.166013479232788,-1.2864655256271362,0.23828263580799103],"min":[2.2250738585072014e-308,-1.4266464710235596,2.2250738585072014e-308]},{"bufferView":1,"byteOffset":0,"componentType":5126,"count":5232,"type":"VEC2","max":[0.9920144081115723,0.6718292236328125],"min":[2.2250738585072014e-308,2.2250738585072014e-308]},{"bufferView":2,"byteOffset":0,"componentType":5125,"count":22185,"type":"SCALAR","max":[5231],"min":[0]},{"bufferView":3,"byteOffset":0,"componentType":5126,"count":11,"type":"VEC3","max":[0.23545849323272705,-1.3944796323776245,0.22738109529018402],"min":[2.2250738585072014e-308,-1.4018521308898926,2.2250738585072014e-308]},{"bufferView":4,"byteOffset":0,"componentType":5126,"count":11,"type":"VEC2","max":[0.6675413250923157,0.7883607745170593],"min":[2.2250738585072014e-308,2.2250738585072014e-308]},{"bufferView":5,"byteOffset":0,"componentType":5125,"count":30,"type":"SCALAR","max":[10],"min":[0]}],"buffers":[{"byteLength":193720,"uri":"tile_0226.bin"}],"bufferViews":[{"buffer":0,"byteOffset":0,"byteLength":62784,"target":34962},{"buffer":0,"byteOffset":62784,"byteLength":41856,"target":34962},{"buffer":0,"byteOffset":104640,"byteLength":88740,"target":34963},{"buffer":0,"byteOffset":193380,"byteLength":132,"target":34962},{"buffer":0,"byteOffset":193512,"byteLength":88,"target":34962},{"buffer":0,"byteOffset":193600,"byteLength":120,"target":34963}],"images":[{"uri":"../textures/tile_0226_material_0.jpg"},{"uri":"../textures/tile_0226_material_1.jpg"}],"materials":[{"name":"DefaultMaterial","pbrMetallicRoughness":{"baseColorFactor":[0.6000000238418579,0.6000000238418579,0.6000000238418579,1.0],"metallicFactor":0.0},"extensions":{"KHR_materials_specular":{"specularFactor":1.0,"specularColorFactor":[0.0,0.0,0.0]},"KHR_materials_ior":{"ior":1.0}}},{"name":"material_0_material","pbrMetallicRoughness":{"baseColorTexture":{"index":0},"metallicFactor":0.0},"extensions":{"KHR_materials_specular":{"specularFactor":1.0,"specularColorFactor":[0.0,0.0,0.0]},"KHR_materials_ior":{"ior":1.0}}},{"name":"material_1_material","pbrMetallicRoughness":{"baseColorTexture":{"index":1},"metallicFactor":0.0},"extensions":{"KHR_materials_specular":{"specularFactor":1.0,"specularColorFactor":[0.0,0.0,0.0]},"KHR_materials_ior":{"ior":1.0}}}],"meshes":[{"name":"defaultobject","primitives":[{"mode":4,"material":1,"indices":2,"attributes":{"POSITION":0,"TEXCOORD_0":1}},{"mode":4,"material":2,"indices":5,"attributes":{"POSITION":3,"TEXCOORD_0":4}}]}],"nodes":[{"name":"tile_0226.obj","children":[1]},{"name":"defaultobject","mesh":0}],"samplers":[{},{}],"scenes":[{"nodes":[0]}],"textures":[{"source":0,"sampler":0},{"source":1,"sampler":1}],"scene":0}
