{"asset":{"version":"2.0","generator":"Open Asset Import Library (assimp v6.0.0)"},"extensionsUsed":["KHR_materials_specular","KHR_materials_volume","KHR_materials_ior","FB_ngon_encoding"],"accessors":[{"bufferView":0,"byteOffset":0,"componentType":5126,"count":13625,"type":"VEC3","max":[3.8251054286956787,-2.092834234237671,-0.41192132234573364],"min":[2.2250738585072014e-308,-2.9581143856048584,-1.0723378658294678]},{"bufferView":1,"byteOffset":0,"componentType":5126,"count":13625,"type":"VEC2","max":[0.9956846237182617,0.862640380859375],"min":[2.2250738585072014e-308,2.2250738585072014e-308]},{"bufferView":2,"byteOffset":0,"componentType":5125,"count":61425,"type":"SCALAR","max":[13624],"min":[0]},{"bufferView":3,"byteOffset":0,"componentType":5126,"count":2245,"type":"VEC3","max":[3.8262879848480225,-2.1518046855926514,-0.4237566888332367],"min":[2.2250738585072014e-308,-2.9906935691833496,-0.9349852204322815]},{"bufferView":4,"byteOffset":0,"componentType":5126,"count":2245,"type":"VEC2","max":[0.6591894626617432,0.6159038543701172],"min":[2.2250738585072014e-308,2.2250738585072014e-308]},{"bufferView":5,"byteOffset":0,"componentType":5125,"count":11559,"type":"SCALAR","max":[2244],"min":[0]}],"buffers":[{"byteLength":609336,"uri":"tile_0626.bin"}],"bufferViews":[{"buffer":0,"byteOffset":0,"byteLength":163500,"target":34962},{"buffer":0,"byteOffset":163500,"byteLength":109000,"target":34962},{"buffer":0,"byteOffset":272500,"byteLength":245700,"target":34963},{"buffer":0,"byteOffset":518200,"byteLength":26940,"target":34962},{"buffer":0,"byteOffset":545140,"byteLength":17960,"target":34962},{"buffer":0,"byteOffset":563100,"byteLength":46236,"target":34963}],"images":[{"uri":"../textures/tile_0626_material_0.jpg"},{"uri":"../textures/tile_0626_material_1.jpg"}],"materials":[{"name":"DefaultMaterial","pbrMetallicRoughness":{"baseColorFactor":[0.6000000238418579,0.6000000238418579,0.6000000238418579,1.0],"metallicFactor":0.0},"extensions":{"KHR_materials_specular":{"specularFactor":1.0,"specularColorFactor":[0.0,0.0,0.0]},"KHR_materials_ior":{"ior":1.0}}},{"name":"material_0_material","pbrMetallicRoughness":{"baseColorTexture":{"index":0},"metallicFactor":0.0},"extensions":{"KHR_materials_specular":{"specularFactor":1.0,"specularColorFactor":[0.0,0.0,0.0]},"KHR_materials_ior":{"ior":1.0}}},{"name":"material_1_material","pbrMetallicRoughness":{"baseColorTexture":{"index":1},"metallicFactor":0.0},"extensions":{"KHR_materials_specular":{"specularFactor":1.0,"specularColorFactor":[0.0,0.0,0.0]},"KHR_materials_ior":{"ior":1.0}}}],"meshes":[{"name":"defaultobject","primitives":[{"mode":4,"material":1,"indices":2,"attributes":{"POSITION":0,"TEXCOORD_0":1}},{"mode":4,"material":2,"indices":5,"attributes":{"POSITION":3,"TEXCOORD_0":4}}]}],"nodes":[{"name":"tile_0626.obj","children":[1]},{"name":"defaultobject","mesh":0}],"samplers":[{},{}],"scenes":[{"nodes":[0]}],"textures":[{"source":0,"sampler":0},{"source":1,"sampler":1}],"scene":0}
