{"asset":{"version":"2.0","generator":"Open Asset Import Library (assimp v6.0.0)"},"extensionsUsed":["KHR_materials_specular","KHR_materials_volume","KHR_materials_ior","FB_ngon_encoding"],"accessors":[{"bufferView":0,"byteOffset":0,"componentType":5126,"count":12510,"type":"VEC3","max":[2.9005374908447266,1.601722002029419,1.2842657566070557],"min":[2.2250738585072014e-308,2.2250738585072014e-308,2.2250738585072014e-308]},{"bufferView":1,"byteOffset":0,"componentType":5126,"count":12510,"type":"VEC2","max":[0.9932715892791748,0.6753339767456055],"min":[2.2250738585072014e-308,2.2250738585072014e-308]},{"bufferView":2,"byteOffset":0,"componentType":5125,"count":55905,"type":"SCALAR","max":[12509],"min":[0]},{"bufferView":3,"byteOffset":0,"componentType":5126,"count":2070,"type":"VEC3","max":[2.9005374908447266,1.5802533626556396,1.2681183815002441],"min":[2.2250738585072014e-308,2.2250738585072014e-308,2.2250738585072014e-308]},{"bufferView":4,"byteOffset":0,"componentType":5126,"count":2070,"type":"VEC2","max":[0.9096574783325195,0.7396926879882812],"min":[2.2250738585072014e-308,2.2250738585072014e-308]},{"bufferView":5,"byteOffset":0,"componentType":5125,"count":10743,"type":"SCALAR","max":[2069],"min":[0]}],"buffers":[{"byteLength":558192,"uri":"tile_0092.bin"}],"bufferViews":[{"buffer":0,"byteOffset":0,"byteLength":150120,"target":34962},{"buffer":0,"byteOffset":150120,"byteLength":100080,"target":34962},{"buffer":0,"byteOffset":250200,"byteLength":223620,"target":34963},{"buffer":0,"byteOffset":473820,"byteLength":24840,"target":34962},{"buffer":0,"byteOffset":498660,"byteLength":16560,"target":34962},{"buffer":0,"byteOffset":515220,"byteLength":42972,"target":34963}],"images":[{"uri":"../textures/tile_0092_material_0.jpg"},{"uri":"../textures/tile_0092_material_1.jpg"}],"materials":[{"name":"DefaultMaterial","pbrMetallicRoughness":{"baseColorFactor":[0.6000000238418579,0.6000000238418579,0.6000000238418579,1.0],"metallicFactor":0.0},"extensions":{"KHR_materials_specular":{"specularFactor":1.0,"specularColorFactor":[0.0,0.0,0.0]},"KHR_materials_ior":{"ior":1.0}}},{"name":"material_0_material","pbrMetallicRoughness":{"baseColorTexture":{"index":0},"metallicFactor":0.0},"extensions":{"KHR_materials_specular":{"specularFactor":1.0,"specularColorFactor":[0.0,0.0,0.0]},"KHR_materials_ior":{"ior":1.0}}},{"name":"material_1_material","pbrMetallicRoughness":{"baseColorTexture":{"index":1},"metallicFactor":0.0},"extensions":{"KHR_materials_specular":{"specularFactor":1.0,"specularColorFactor":[0.0,0.0,0.0]},"KHR_materials_ior":{"ior":1.0}}}],"meshes":[{"name":"defaultobject","primitives":[{"mode":4,"material":1,"indices":2,"attributes":{"POSITION":0,"TEXCOORD_0":1}},{"mode":4,"material":2,"indices":5,"attributes":{"POSITION":3,"TEXCOORD_0":4}}]}],"nodes":[{"name":"tile_0092.obj","children":[1]},{"name":"defaultobject","mesh":0}],"samplers":[{},{}],"scenes":[{"nodes":[0]}],"textures":[{"source":0,"sampler":0},{"source":1,"sampler":1}],"scene":0}
