{"asset":{"version":"2.0","generator":"Open Asset Import Library (assimp v6.0.0)"},"extensionsUsed":["KHR_materials_specular","KHR_materials_volume","KHR_materials_ior","FB_ngon_encoding"],"accessors":[{"bufferView":0,"byteOffset":0,"componentType":5126,"count":8868,"type":"VEC3","max":[2.5566163063049316,-1.252092957496643,1.3028823137283325],"min":[-0.20460987091064453,-1.5210907459259033,2.2250738585072014e-308]},{"bufferView":1,"byteOffset":0,"componentType":5126,"count":8868,"type":"VEC2","max":[0.9957318305969238,0.9061965942382812],"min":[2.2250738585072014e-308,2.2250738585072014e-308]},{"bufferView":2,"byteOffset":0,"componentType":5125,"count":35907,"type":"SCALAR","max":[8867],"min":[0]},{"bufferView":3,"byteOffset":0,"componentType":5126,"count":144,"type":"VEC3","max":[-0.12447236478328705,-1.2552039623260498,1.1272865533828735],"min":[-0.15984825789928436,-1.4350268840789795,2.2250738585072014e-308]},{"bufferView":4,"byteOffset":0,"componentType":5126,"count":144,"type":"VEC2","max":[0.6402263641357422,0.9055938720703125],"min":[2.2250738585072014e-308,2.2250738585072014e-308]},{"bufferView":5,"byteOffset":0,"componentType":5125,"count":615,"type":"SCALAR","max":[143],"min":[0]}],"buffers":[{"byteLength":326328,"uri":"tile_0207.bin"}],"bufferViews":[{"buffer":0,"byteOffset":0,"byteLength":106416,"target":34962},{"buffer":0,"byteOffset":106416,"byteLength":70944,"target":34962},{"buffer":0,"byteOffset":177360,"byteLength":143628,"target":34963},{"buffer":0,"byteOffset":320988,"byteLength":1728,"target":34962},{"buffer":0,"byteOffset":322716,"byteLength":1152,"target":34962},{"buffer":0,"byteOffset":323868,"byteLength":2460,"target":34963}],"images":[{"uri":"../textures/tile_0207_material_0.jpg"},{"uri":"../textures/tile_0207_material_1.jpg"}],"materials":[{"name":"DefaultMaterial","pbrMetallicRoughness":{"baseColorFactor":[0.6000000238418579,0.6000000238418579,0.6000000238418579,1.0],"metallicFactor":0.0},"extensions":{"KHR_materials_specular":{"specularFactor":1.0,"specularColorFactor":[0.0,0.0,0.0]},"KHR_materials_ior":{"ior":1.0}}},{"name":"material_0_material","pbrMetallicRoughness":{"baseColorTexture":{"index":0},"metallicFactor":0.0},"extensions":{"KHR_materials_specular":{"specularFactor":1.0,"specularColorFactor":[0.0,0.0,0.0]},"KHR_materials_ior":{"ior":1.0}}},{"name":"material_1_material","pbrMetallicRoughness":{"baseColorTexture":{"index":1},"metallicFactor":0.0},"extensions":{"KHR_materials_specular":{"specularFactor":1.0,"specularColorFactor":[0.0,0.0,0.0]},"KHR_materials_ior":{"ior":1.0}}}],"meshes":[{"name":"defaultobject","primitives":[{"mode":4,"material":1,"indices":2,"attributes":{"POSITION":0,"TEXCOORD_0":1}},{"mode":4,"material":2,"indices":5,"attributes":{"POSITION":3,"TEXCOORD_0":4}}]}],"nodes":[{"name":"tile_0207.obj","children":[1]},{"name":"defaultobject","mesh":0}],"samplers":[{},{}],"scenes":[{"nodes":[0]}],"textures":[{"source":0,"sampler":0},{"source":1,"sampler":1}],"scene":0}
