{"asset":{"version":"2.0","generator":"Open Asset Import Library (assimp v6.0.0)"},"extensionsUsed":["KHR_materials_specular","KHR_materials_volume","KHR_materials_ior","FB_ngon_encoding"],"accessors":[{"bufferView":0,"byteOffset":0,"componentType":5126,"count":6733,"type":"VEC3","max":[2.9185476303100586,-1.6662721633911133,0.6722429990768433],"min":[-0.06511984765529633,-1.8267825841903687,2.2250738585072014e-308]},{"bufferView":1,"byteOffset":0,"componentType":5126,"count":6733,"type":"VEC2","max":[0.9887709617614746,0.8085441589355469],"min":[2.2250738585072014e-308,2.2250738585072014e-308]},{"bufferView":2,"byteOffset":0,"componentType":5125,"count":29772,"type":"SCALAR","max":[6732],"min":[0]},{"bufferView":3,"byteOffset":0,"componentType":5126,"count":252,"type":"VEC3","max":[0.6046635508537292,-1.6744776964187622,0.6253849864006042],"min":[-0.03285796940326691,-1.7821589708328247,2.2250738585072014e-308]},{"bufferView":4,"byteOffset":0,"componentType":5126,"count":252,"type":"VEC2","max":[0.6515979766845703,0.532829225063324],"min":[2.2250738585072014e-308,2.2250738585072014e-308]},{"bufferView":5,"byteOffset":0,"componentType":5125,"count":1176,"type":"SCALAR","max":[251],"min":[0]}],"buffers":[{"byteLength":263492,"uri":"tile_0194.bin"}],"bufferViews":[{"buffer":0,"byteOffset":0,"byteLength":80796,"target":34962},{"buffer":0,"byteOffset":80796,"byteLength":53864,"target":34962},{"buffer":0,"byteOffset":134660,"byteLength":119088,"target":34963},{"buffer":0,"byteOffset":253748,"byteLength":3024,"target":34962},{"buffer":0,"byteOffset":256772,"byteLength":2016,"target":34962},{"buffer":0,"byteOffset":258788,"byteLength":4704,"target":34963}],"images":[{"uri":"../textures/tile_0194_material_0.jpg"},{"uri":"../textures/tile_0194_material_1.jpg"}],"materials":[{"name":"DefaultMaterial","pbrMetallicRoughness":{"baseColorFactor":[0.6000000238418579,0.6000000238418579,0.6000000238418579,1.0],"metallicFactor":0.0},"extensions":{"KHR_materials_specular":{"specularFactor":1.0,"specularColorFactor":[0.0,0.0,0.0]},"KHR_materials_ior":{"ior":1.0}}},{"name":"material_0_material","pbrMetallicRoughness":{"baseColorTexture":{"index":0},"metallicFactor":0.0},"extensions":{"KHR_materials_specular":{"specularFactor":1.0,"specularColorFactor":[0.0,0.0,0.0]},"KHR_materials_ior":{"ior":1.0}}},{"name":"material_1_material","pbrMetallicRoughness":{"baseColorTexture":{"index":1},"metallicFactor":0.0},"extensions":{"KHR_materials_specular":{"specularFactor":1.0,"specularColorFactor":[0.0,0.0,0.0]},"KHR_materials_ior":{"ior":1.0}}}],"meshes":[{"name":"defaultobject","primitives":[{"mode":4,"material":1,"indices":2,"attributes":{"POSITION":0,"TEXCOORD_0":1}},{"mode":4,"material":2,"indices":5,"attributes":{"POSITION":3,"TEXCOORD_0":4}}]}],"nodes":[{"name":"tile_0194.obj","children":[1]},{"name":"defaultobject","mesh":0}],"samplers":[{},{}],"scenes":[{"nodes":[0]}],"textures":[{"source":0,"sampler":0},{"source":1,"sampler":1}],"scene":0}
