{"asset":{"version":"2.0","generator":"Open Asset Import Library (assimp v6.0.0)"},"extensionsUsed":["KHR_materials_specular","KHR_materials_volume","KHR_materials_ior","FB_ngon_encoding"],"accessors":[{"bufferView":0,"byteOffset":0,"componentType":5126,"count":2442,"type":"VEC3","max":[0.3080124855041504,0.2983318865299225,2.111529588699341],"min":[2.2250738585072014e-308,2.2250738585072014e-308,2.2250738585072014e-308]},{"bufferView":1,"byteOffset":0,"componentType":5126,"count":2442,"type":"VEC2","max":[0.9879190921783447,0.9491806626319885],"min":[2.2250738585072014e-308,2.2250738585072014e-308]},{"bufferView":2,"byteOffset":0,"componentType":5125,"count":8955,"type":"SCALAR","max":[2441],"min":[0]},{"bufferView":3,"byteOffset":0,"componentType":5126,"count":2187,"type":"VEC3","max":[0.30272337794303894,0.2976950705051422,2.111759662628174],"min":[2.2250738585072014e-308,2.2250738585072014e-308,2.2250738585072014e-308]},{"bufferView":4,"byteOffset":0,"componentType":5126,"count":2187,"type":"VEC2","max":[0.8132882118225098,0.913238525390625],"min":[2.2250738585072014e-308,2.2250738585072014e-308]},{"bufferView":5,"byteOffset":0,"componentType":5125,"count":10797,"type":"SCALAR","max":[2186],"min":[0]}],"buffers":[{"byteLength":171588,"uri":"tile_0068.bin"}],"bufferViews":[{"buffer":0,"byteOffset":0,"byteLength":29304,"target":34962},{"buffer":0,"byteOffset":29304,"byteLength":19536,"target":34962},{"buffer":0,"byteOffset":48840,"byteLength":35820,"target":34963},{"buffer":0,"byteOffset":84660,"byteLength":26244,"target":34962},{"buffer":0,"byteOffset":110904,"byteLength":17496,"target":34962},{"buffer":0,"byteOffset":128400,"byteLength":43188,"target":34963}],"images":[{"uri":"../textures/tile_0068_material_0.jpg"},{"uri":"../textures/tile_0068_material_1.jpg"}],"materials":[{"name":"DefaultMaterial","pbrMetallicRoughness":{"baseColorFactor":[0.6000000238418579,0.6000000238418579,0.6000000238418579,1.0],"metallicFactor":0.0},"extensions":{"KHR_materials_specular":{"specularFactor":1.0,"specularColorFactor":[0.0,0.0,0.0]},"KHR_materials_ior":{"ior":1.0}}},{"name":"material_0_material","pbrMetallicRoughness":{"baseColorTexture":{"index":0},"metallicFactor":0.0},"extensions":{"KHR_materials_specular":{"specularFactor":1.0,"specularColorFactor":[0.0,0.0,0.0]},"KHR_materials_ior":{"ior":1.0}}},{"name":"material_1_material","pbrMetallicRoughness":{"baseColorTexture":{"index":1},"metallicFactor":0.0},"extensions":{"KHR_materials_specular":{"specularFactor":1.0,"specularColorFactor":[0.0,0.0,0.0]},"KHR_materials_ior":{"ior":1.0}}}],"meshes":[{"name":"defaultobject","primitives":[{"mode":4,"material":1,"indices":2,"attributes":{"POSITION":0,"TEXCOORD_0":1}},{"mode":4,"material":2,"indices":5,"attributes":{"POSITION":3,"TEXCOORD_0":4}}]}],"nodes":[{"name":"tile_0068.obj","children":[1]},{"name":"defaultobject","mesh":0}],"samplers":[{},{}],"scenes":[{"nodes":[0]}],"textures":[{"source":0,"sampler":0},{"source":1,"sampler":1}],"scene":0}
