{"asset":{"version":"2.0","generator":"Open Asset Import Library (assimp v6.0.0)"},"extensionsUsed":["KHR_materials_specular","KHR_materials_volume","KHR_materials_ior","FB_ngon_encoding"],"accessors":[{"bufferView":0,"byteOffset":0,"componentType":5126,"count":5359,"type":"VEC3","max":[0.28356656432151794,-2.5850863456726074,2.8903186321258545],"min":[2.2250738585072014e-308,-2.778667449951172,2.2250738585072014e-308]},{"bufferView":1,"byteOffset":0,"componentType":5126,"count":5359,"type":"VEC2","max":[0.9953775405883789,0.4956340789794922],"min":[2.2250738585072014e-308,2.2250738585072014e-308]},{"bufferView":2,"byteOffset":0,"componentType":5125,"count":21780,"type":"SCALAR","max":[5358],"min":[0]},{"bufferView":3,"byteOffset":0,"componentType":5126,"count":387,"type":"VEC3","max":[0.09679426997900009,-2.6973724365234375,2.751150608062744],"min":[2.2250738585072014e-308,-2.7758119106292725,2.2250738585072014e-308]},{"bufferView":4,"byteOffset":0,"componentType":5126,"count":387,"type":"VEC2","max":[0.6884956359863281,0.6830101013183594],"min":[2.2250738585072014e-308,2.2250738585072014e-308]},{"bufferView":5,"byteOffset":0,"componentType":5125,"count":1884,"type":"SCALAR","max":[386],"min":[0]}],"buffers":[{"byteLength":209576,"uri":"tile_0329.bin"}],"bufferViews":[{"buffer":0,"byteOffset":0,"byteLength":64308,"target":34962},{"buffer":0,"byteOffset":64308,"byteLength":42872,"target":34962},{"buffer":0,"byteOffset":107180,"byteLength":87120,"target":34963},{"buffer":0,"byteOffset":194300,"byteLength":4644,"target":34962},{"buffer":0,"byteOffset":198944,"byteLength":3096,"target":34962},{"buffer":0,"byteOffset":202040,"byteLength":7536,"target":34963}],"images":[{"uri":"../textures/tile_0329_material_0.jpg"},{"uri":"../textures/tile_0329_material_1.jpg"}],"materials":[{"name":"DefaultMaterial","pbrMetallicRoughness":{"baseColorFactor":[0.6000000238418579,0.6000000238418579,0.6000000238418579,1.0],"metallicFactor":0.0},"extensions":{"KHR_materials_specular":{"specularFactor":1.0,"specularColorFactor":[0.0,0.0,0.0]},"KHR_materials_ior":{"ior":1.0}}},{"name":"material_0_material","pbrMetallicRoughness":{"baseColorTexture":{"index":0},"metallicFactor":0.0},"extensions":{"KHR_materials_specular":{"specularFactor":1.0,"specularColorFactor":[0.0,0.0,0.0]},"KHR_materials_ior":{"ior":1.0}}},{"name":"material_1_material","pbrMetallicRoughness":{"baseColorTexture":{"index":1},"metallicFactor":0.0},"extensions":{"KHR_materials_specular":{"specularFactor":1.0,"specularColorFactor":[0.0,0.0,0.0]},"KHR_materials_ior":{"ior":1.0}}}],"meshes":[{"name":"defaultobject","primitives":[{"mode":4,"material":1,"indices":2,"attributes":{"POSITION":0,"TEXCOORD_0":1}},{"mode":4,"material":2,"indices":5,"attributes":{"POSITION":3,"TEXCOORD_0":4}}]}],"nodes":[{"name":"tile_0329.obj","children":[1]},{"name":"defaultobject","mesh":0}],"samplers":[{},{}],"scenes":[{"nodes":[0]}],"textures":[{"source":0,"sampler":0},{"source":1,"sampler":1}],"scene":0}
