{"asset":{"version":"2.0","generator":"Open Asset Import Library (assimp v6.0.0)"},"extensionsUsed":["KHR_materials_specular","KHR_materials_volume","KHR_materials_ior","FB_ngon_encoding"],"accessors":[{"bufferView":0,"byteOffset":0,"componentType":5126,"count":3230,"type":"VEC3","max":[0.5049251914024353,-1.6713769435882568,1.9680367708206177],"min":[-0.25956037640571594,-1.9858940839767456,2.2250738585072014e-308]},{"bufferView":1,"byteOffset":0,"componentType":5126,"count":3230,"type":"VEC2","max":[0.9902768135070801,0.6161613464355469],"min":[2.2250738585072014e-308,2.2250738585072014e-308]},{"bufferView":2,"byteOffset":0,"componentType":5125,"count":14478,"type":"SCALAR","max":[3229],"min":[0]},{"bufferView":3,"byteOffset":0,"componentType":5126,"count":709,"type":"VEC3","max":[0.5190401077270508,-1.7409747838974,1.9589170217514038],"min":[-0.24622604250907898,-2.016305923461914,2.2250738585072014e-308]},{"bufferView":4,"byteOffset":0,"componentType":5126,"count":709,"type":"VEC2","max":[0.8567447662353516,0.810089111328125],"min":[2.2250738585072014e-308,2.2250738585072014e-308]},{"bufferView":5,"byteOffset":0,"componentType":5125,"count":3642,"type":"SCALAR","max":[708],"min":[0]}],"buffers":[{"byteLength":151260,"uri":"tile_0298.bin"}],"bufferViews":[{"buffer":0,"byteOffset":0,"byteLength":38760,"target":34962},{"buffer":0,"byteOffset":38760,"byteLength":25840,"target":34962},{"buffer":0,"byteOffset":64600,"byteLength":57912,"target":34963},{"buffer":0,"byteOffset":122512,"byteLength":8508,"target":34962},{"buffer":0,"byteOffset":131020,"byteLength":5672,"target":34962},{"buffer":0,"byteOffset":136692,"byteLength":14568,"target":34963}],"images":[{"uri":"../textures/tile_0298_material_0.jpg"},{"uri":"../textures/tile_0298_material_1.jpg"}],"materials":[{"name":"DefaultMaterial","pbrMetallicRoughness":{"baseColorFactor":[0.6000000238418579,0.6000000238418579,0.6000000238418579,1.0],"metallicFactor":0.0},"extensions":{"KHR_materials_specular":{"specularFactor":1.0,"specularColorFactor":[0.0,0.0,0.0]},"KHR_materials_ior":{"ior":1.0}}},{"name":"material_0_material","pbrMetallicRoughness":{"baseColorTexture":{"index":0},"metallicFactor":0.0},"extensions":{"KHR_materials_specular":{"specularFactor":1.0,"specularColorFactor":[0.0,0.0,0.0]},"KHR_materials_ior":{"ior":1.0}}},{"name":"material_1_material","pbrMetallicRoughness":{"baseColorTexture":{"index":1},"metallicFactor":0.0},"extensions":{"KHR_materials_specular":{"specularFactor":1.0,"specularColorFactor":[0.0,0.0,0.0]},"KHR_materials_ior":{"ior":1.0}}}],"meshes":[{"name":"defaultobject","primitives":[{"mode":4,"material":1,"indices":2,"attributes":{"POSITION":0,"TEXCOORD_0":1}},{"mode":4,"material":2,"indices":5,"attributes":{"POSITION":3,"TEXCOORD_0":4}}]}],"nodes":[{"name":"tile_0298.obj","children":[1]},{"name":"defaultobject","mesh":0}],"samplers":[{},{}],"scenes":[{"nodes":[0]}],"textures":[{"source":0,"sampler":0},{"source":1,"sampler":1}],"scene":0}
