{"asset":{"version":"2.0","generator":"Open Asset Import Library (assimp v6.0.0)"},"extensionsUsed":["KHR_materials_specular","KHR_materials_volume","KHR_materials_ior","FB_ngon_encoding"],"accessors":[{"bufferView":0,"byteOffset":0,"componentType":5126,"count":7338,"type":"VEC3","max":[3.408944845199585,-0.18416859209537506,0.11780476570129395],"min":[2.2250738585072014e-308,-0.3015815019607544,2.2250738585072014e-308]},{"bufferView":1,"byteOffset":0,"componentType":5126,"count":7338,"type":"VEC2","max":[0.9925761222839355,0.8670864105224609],"min":[2.2250738585072014e-308,2.2250738585072014e-308]},{"bufferView":2,"byteOffset":0,"componentType":5125,"count":25575,"type":"SCALAR","max":[7337],"min":[0]},{"bufferView":3,"byteOffset":0,"componentType":5126,"count":636,"type":"VEC3","max":[3.0907604694366455,-0.18627706170082092,0.11210182309150696],"min":[2.2250738585072014e-308,-0.2983003258705139,2.2250738585072014e-308]},{"bufferView":4,"byteOffset":0,"componentType":5126,"count":636,"type":"VEC2","max":[0.9900131225585938,0.81695556640625],"min":[2.2250738585072014e-308,2.2250738585072014e-308]},{"bufferView":5,"byteOffset":0,"componentType":5125,"count":2472,"type":"SCALAR","max":[635],"min":[0]}],"buffers":[{"byteLength":271668,"uri":"tile_0500.bin"}],"bufferViews":[{"buffer":0,"byteOffset":0,"byteLength":88056,"target":34962},{"buffer":0,"byteOffset":88056,"byteLength":58704,"target":34962},{"buffer":0,"byteOffset":146760,"byteLength":102300,"target":34963},{"buffer":0,"byteOffset":249060,"byteLength":7632,"target":34962},{"buffer":0,"byteOffset":256692,"byteLength":5088,"target":34962},{"buffer":0,"byteOffset":261780,"byteLength":9888,"target":34963}],"images":[{"uri":"../textures/tile_0500_material_0.jpg"},{"uri":"../textures/tile_0500_material_1.jpg"}],"materials":[{"name":"DefaultMaterial","pbrMetallicRoughness":{"baseColorFactor":[0.6000000238418579,0.6000000238418579,0.6000000238418579,1.0],"metallicFactor":0.0},"extensions":{"KHR_materials_specular":{"specularFactor":1.0,"specularColorFactor":[0.0,0.0,0.0]},"KHR_materials_ior":{"ior":1.0}}},{"name":"material_0_material","pbrMetallicRoughness":{"baseColorTexture":{"index":0},"metallicFactor":0.0},"extensions":{"KHR_materials_specular":{"specularFactor":1.0,"specularColorFactor":[0.0,0.0,0.0]},"KHR_materials_ior":{"ior":1.0}}},{"name":"material_1_material","pbrMetallicRoughness":{"baseColorTexture":{"index":1},"metallicFactor":0.0},"extensions":{"KHR_materials_specular":{"specularFactor":1.0,"specularColorFactor":[0.0,0.0,0.0]},"KHR_materials_ior":{"ior":1.0}}}],"meshes":[{"name":"defaultobject","primitives":[{"mode":4,"material":1,"indices":2,"attributes":{"POSITION":0,"TEXCOORD_0":1}},{"mode":4,"material":2,"indices":5,"attributes":{"POSITION":3,"TEXCOORD_0":4}}]}],"nodes":[{"name":"tile_0500.obj","children":[1]},{"name":"defaultobject","mesh":0}],"samplers":[{},{}],"scenes":[{"nodes":[0]}],"textures":[{"source":0,"sampler":0},{"source":1,"sampler":1}],"scene":0}
