{"asset":{"version":"2.0","generator":"Open Asset Import Library (assimp v6.0.0)"},"extensionsUsed":["KHR_materials_specular","KHR_materials_volume","KHR_materials_ior","FB_ngon_encoding"],"accessors":[{"bufferView":0,"byteOffset":0,"componentType":5126,"count":4292,"type":"VEC3","max":[3.2588846683502197,-0.9599019289016724,0.1852615475654602],"min":[2.2250738585072014e-308,-1.1261574029922485,2.2250738585072014e-308]},{"bufferView":1,"byteOffset":0,"componentType":5126,"count":4292,"type":"VEC2","max":[0.9919347763061523,0.9687156677246094],"min":[2.2250738585072014e-308,2.2250738585072014e-308]},{"bufferView":2,"byteOffset":0,"componentType":5125,"count":15018,"type":"SCALAR","max":[4291],"min":[0]},{"bufferView":3,"byteOffset":0,"componentType":5126,"count":2106,"type":"VEC3","max":[0.3193269371986389,-0.9659399390220642,0.17593105137348175],"min":[2.2250738585072014e-308,-1.1245204210281372,2.2250738585072014e-308]},{"bufferView":4,"byteOffset":0,"componentType":5126,"count":2106,"type":"VEC2","max":[0.7140665054321289,0.6254310607910156],"min":[2.2250738585072014e-308,2.2250738585072014e-308]},{"bufferView":5,"byteOffset":0,"componentType":5125,"count":10587,"type":"SCALAR","max":[2105],"min":[0]}],"buffers":[{"byteLength":230380,"uri":"tile_0222.bin"}],"bufferViews":[{"buffer":0,"byteOffset":0,"byteLength":51504,"target":34962},{"buffer":0,"byteOffset":51504,"byteLength":34336,"target":34962},{"buffer":0,"byteOffset":85840,"byteLength":60072,"target":34963},{"buffer":0,"byteOffset":145912,"byteLength":25272,"target":34962},{"buffer":0,"byteOffset":171184,"byteLength":16848,"target":34962},{"buffer":0,"byteOffset":188032,"byteLength":42348,"target":34963}],"images":[{"uri":"../textures/tile_0222_material_0.jpg"},{"uri":"../textures/tile_0222_material_1.jpg"}],"materials":[{"name":"DefaultMaterial","pbrMetallicRoughness":{"baseColorFactor":[0.6000000238418579,0.6000000238418579,0.6000000238418579,1.0],"metallicFactor":0.0},"extensions":{"KHR_materials_specular":{"specularFactor":1.0,"specularColorFactor":[0.0,0.0,0.0]},"KHR_materials_ior":{"ior":1.0}}},{"name":"material_0_material","pbrMetallicRoughness":{"baseColorTexture":{"index":0},"metallicFactor":0.0},"extensions":{"KHR_materials_specular":{"specularFactor":1.0,"specularColorFactor":[0.0,0.0,0.0]},"KHR_materials_ior":{"ior":1.0}}},{"name":"material_1_material","pbrMetallicRoughness":{"baseColorTexture":{"index":1},"metallicFactor":0.0},"extensions":{"KHR_materials_specular":{"specularFactor":1.0,"specularColorFactor":[0.0,0.0,0.0]},"KHR_materials_ior":{"ior":1.0}}}],"meshes":[{"name":"defaultobject","primitives":[{"mode":4,"material":1,"indices":2,"attributes":{"POSITION":0,"TEXCOORD_0":1}},{"mode":4,"material":2,"indices":5,"attributes":{"POSITION":3,"TEXCOORD_0":4}}]}],"nodes":[{"name":"tile_0222.obj","children":[1]},{"name":"defaultobject","mesh":0}],"samplers":[{},{}],"scenes":[{"nodes":[0]}],"textures":[{"source":0,"sampler":0},{"source":1,"sampler":1}],"scene":0}
