{"asset":{"version":"2.0","generator":"Open Asset Import Library (assimp v6.0.0)"},"extensionsUsed":["KHR_materials_specular","KHR_materials_volume","KHR_materials_ior","FB_ngon_encoding"],"accessors":[{"bufferView":0,"byteOffset":0,"componentType":5126,"count":2596,"type":"VEC3","max":[0.9101629257202148,-2.6469967365264893,2.1694068908691406],"min":[2.2250738585072014e-308,-2.776118755340576,2.2250738585072014e-308]},{"bufferView":1,"byteOffset":0,"componentType":5126,"count":2596,"type":"VEC2","max":[0.9959850311279297,0.5819473266601562],"min":[2.2250738585072014e-308,2.2250738585072014e-308]},{"bufferView":2,"byteOffset":0,"componentType":5125,"count":11088,"type":"SCALAR","max":[2595],"min":[0]},{"bufferView":3,"byteOffset":0,"componentType":5126,"count":2414,"type":"VEC3","max":[0.8337963819503784,-2.6488847732543945,2.15378737449646],"min":[2.2250738585072014e-308,-2.781019687652588,2.2250738585072014e-308]},{"bufferView":4,"byteOffset":0,"componentType":5126,"count":2414,"type":"VEC2","max":[0.9422812461853027,0.5948619842529297],"min":[2.2250738585072014e-308,2.2250738585072014e-308]},{"bufferView":5,"byteOffset":0,"componentType":5125,"count":12798,"type":"SCALAR","max":[2413],"min":[0]}],"buffers":[{"byteLength":195744,"uri":"tile_0314.bin"}],"bufferViews":[{"buffer":0,"byteOffset":0,"byteLength":31152,"target":34962},{"buffer":0,"byteOffset":31152,"byteLength":20768,"target":34962},{"buffer":0,"byteOffset":51920,"byteLength":44352,"target":34963},{"buffer":0,"byteOffset":96272,"byteLength":28968,"target":34962},{"buffer":0,"byteOffset":125240,"byteLength":19312,"target":34962},{"buffer":0,"byteOffset":144552,"byteLength":51192,"target":34963}],"images":[{"uri":"../textures/tile_0314_material_0.jpg"},{"uri":"../textures/tile_0314_material_1.jpg"}],"materials":[{"name":"DefaultMaterial","pbrMetallicRoughness":{"baseColorFactor":[0.6000000238418579,0.6000000238418579,0.6000000238418579,1.0],"metallicFactor":0.0},"extensions":{"KHR_materials_specular":{"specularFactor":1.0,"specularColorFactor":[0.0,0.0,0.0]},"KHR_materials_ior":{"ior":1.0}}},{"name":"material_0_material","pbrMetallicRoughness":{"baseColorTexture":{"index":0},"metallicFactor":0.0},"extensions":{"KHR_materials_specular":{"specularFactor":1.0,"specularColorFactor":[0.0,0.0,0.0]},"KHR_materials_ior":{"ior":1.0}}},{"name":"material_1_material","pbrMetallicRoughness":{"baseColorTexture":{"index":1},"metallicFactor":0.0},"extensions":{"KHR_materials_specular":{"specularFactor":1.0,"specularColorFactor":[0.0,0.0,0.0]},"KHR_materials_ior":{"ior":1.0}}}],"meshes":[{"name":"defaultobject","primitives":[{"mode":4,"material":1,"indices":2,"attributes":{"POSITION":0,"TEXCOORD_0":1}},{"mode":4,"material":2,"indices":5,"attributes":{"POSITION":3,"TEXCOORD_0":4}}]}],"nodes":[{"name":"tile_0314.obj","children":[1]},{"name":"defaultobject","mesh":0}],"samplers":[{},{}],"scenes":[{"nodes":[0]}],"textures":[{"source":0,"sampler":0},{"source":1,"sampler":1}],"scene":0}
