{"asset":{"version":"2.0","generator":"Open Asset Import Library (assimp v6.0.0)"},"extensionsUsed":["KHR_materials_specular","KHR_materials_volume","KHR_materials_ior","FB_ngon_encoding"],"accessors":[{"bufferView":0,"byteOffset":0,"componentType":5126,"count":3034,"type":"VEC3","max":[0.5995197296142578,0.07520854473114014,4.715632438659668],"min":[-0.5624691843986511,-0.1313401609659195,2.2250738585072014e-308]},{"bufferView":1,"byteOffset":0,"componentType":5126,"count":3034,"type":"VEC2","max":[0.9826679229736328,0.7693138122558594],"min":[2.2250738585072014e-308,2.2250738585072014e-308]},{"bufferView":2,"byteOffset":0,"componentType":5125,"count":12486,"type":"SCALAR","max":[3033],"min":[0]},{"bufferView":3,"byteOffset":0,"componentType":5126,"count":1503,"type":"VEC3","max":[0.5054602026939392,0.04741346836090088,4.323922157287598],"min":[2.2250738585072014e-308,-0.0937710627913475,2.2250738585072014e-308]},{"bufferView":4,"byteOffset":0,"componentType":5126,"count":1503,"type":"VEC2","max":[0.5791740417480469,0.6523818969726562],"min":[2.2250738585072014e-308,2.2250738585072014e-308]},{"bufferView":5,"byteOffset":0,"componentType":5125,"count":7335,"type":"SCALAR","max":[1502],"min":[0]}],"buffers":[{"byteLength":170024,"uri":"tile_0419.bin"}],"bufferViews":[{"buffer":0,"byteOffset":0,"byteLength":36408,"target":34962},{"buffer":0,"byteOffset":36408,"byteLength":24272,"target":34962},{"buffer":0,"byteOffset":60680,"byteLength":49944,"target":34963},{"buffer":0,"byteOffset":110624,"byteLength":18036,"target":34962},{"buffer":0,"byteOffset":128660,"byteLength":12024,"target":34962},{"buffer":0,"byteOffset":140684,"byteLength":29340,"target":34963}],"images":[{"uri":"../textures/tile_0419_material_0.jpg"},{"uri":"../textures/tile_0419_material_1.jpg"}],"materials":[{"name":"DefaultMaterial","pbrMetallicRoughness":{"baseColorFactor":[0.6000000238418579,0.6000000238418579,0.6000000238418579,1.0],"metallicFactor":0.0},"extensions":{"KHR_materials_specular":{"specularFactor":1.0,"specularColorFactor":[0.0,0.0,0.0]},"KHR_materials_ior":{"ior":1.0}}},{"name":"material_0_material","pbrMetallicRoughness":{"baseColorTexture":{"index":0},"metallicFactor":0.0},"extensions":{"KHR_materials_specular":{"specularFactor":1.0,"specularColorFactor":[0.0,0.0,0.0]},"KHR_materials_ior":{"ior":1.0}}},{"name":"material_1_material","pbrMetallicRoughness":{"baseColorTexture":{"index":1},"metallicFactor":0.0},"extensions":{"KHR_materials_specular":{"specularFactor":1.0,"specularColorFactor":[0.0,0.0,0.0]},"KHR_materials_ior":{"ior":1.0}}}],"meshes":[{"name":"defaultobject","primitives":[{"mode":4,"material":1,"indices":2,"attributes":{"POSITION":0,"TEXCOORD_0":1}},{"mode":4,"material":2,"indices":5,"attributes":{"POSITION":3,"TEXCOORD_0":4}}]}],"nodes":[{"name":"tile_0419.obj","children":[1]},{"name":"defaultobject","mesh":0}],"samplers":[{},{}],"scenes":[{"nodes":[0]}],"textures":[{"source":0,"sampler":0},{"source":1,"sampler":1}],"scene":0}
