{"asset":{"version":"2.0","generator":"Open Asset Import Library (assimp v6.0.0)"},"extensionsUsed":["KHR_materials_specular","KHR_materials_volume","KHR_materials_ior","FB_ngon_encoding"],"accessors":[{"bufferView":0,"byteOffset":0,"componentType":5126,"count":4946,"type":"VEC3","max":[2.3193840980529785,-1.5129848718643188,1.522100567817688],"min":[-0.3167884051799774,-1.7351781129837036,2.2250738585072014e-308]},{"bufferView":1,"byteOffset":0,"componentType":5126,"count":4946,"type":"VEC2","max":[0.9936075210571289,0.5817852020263672],"min":[2.2250738585072014e-308,2.2250738585072014e-308]},{"bufferView":2,"byteOffset":0,"componentType":5125,"count":20535,"type":"SCALAR","max":[4945],"min":[0]},{"bufferView":3,"byteOffset":0,"componentType":5126,"count":187,"type":"VEC3","max":[2.088423490524292,-1.5494861602783203,1.4918497800827026],"min":[-0.24374814331531525,-1.719629168510437,2.2250738585072014e-308]},{"bufferView":4,"byteOffset":0,"componentType":5126,"count":187,"type":"VEC2","max":[0.5085010528564453,0.9311408996582031],"min":[2.2250738585072014e-308,2.2250738585072014e-308]},{"bufferView":5,"byteOffset":0,"componentType":5125,"count":771,"type":"SCALAR","max":[186],"min":[0]}],"buffers":[{"byteLength":187884,"uri":"tile_0002.bin"}],"bufferViews":[{"buffer":0,"byteOffset":0,"byteLength":59352,"target":34962},{"buffer":0,"byteOffset":59352,"byteLength":39568,"target":34962},{"buffer":0,"byteOffset":98920,"byteLength":82140,"target":34963},{"buffer":0,"byteOffset":181060,"byteLength":2244,"target":34962},{"buffer":0,"byteOffset":183304,"byteLength":1496,"target":34962},{"buffer":0,"byteOffset":184800,"byteLength":3084,"target":34963}],"images":[{"uri":"../textures/tile_0002_material_0.jpg"},{"uri":"../textures/tile_0002_material_1.jpg"}],"materials":[{"name":"DefaultMaterial","pbrMetallicRoughness":{"baseColorFactor":[0.6000000238418579,0.6000000238418579,0.6000000238418579,1.0],"metallicFactor":0.0},"extensions":{"KHR_materials_specular":{"specularFactor":1.0,"specularColorFactor":[0.0,0.0,0.0]},"KHR_materials_ior":{"ior":1.0}}},{"name":"material_0_material","pbrMetallicRoughness":{"baseColorTexture":{"index":0},"metallicFactor":0.0},"extensions":{"KHR_materials_specular":{"specularFactor":1.0,"specularColorFactor":[0.0,0.0,0.0]},"KHR_materials_ior":{"ior":1.0}}},{"name":"material_1_material","pbrMetallicRoughness":{"baseColorTexture":{"index":1},"metallicFactor":0.0},"extensions":{"KHR_materials_specular":{"specularFactor":1.0,"specularColorFactor":[0.0,0.0,0.0]},"KHR_materials_ior":{"ior":1.0}}}],"meshes":[{"name":"defaultobject","primitives":[{"mode":4,"material":1,"indices":2,"attributes":{"POSITION":0,"TEXCOORD_0":1}},{"mode":4,"material":2,"indices":5,"attributes":{"POSITION":3,"TEXCOORD_0":4}}]}],"nodes":[{"name":"tile_0002.obj","children":[1]},{"name":"defaultobject","mesh":0}],"samplers":[{},{}],"scenes":[{"nodes":[0]}],"textures":[{"source":0,"sampler":0},{"source":1,"sampler":1}],"scene":0}
