{"asset":{"version":"2.0","generator":"Open Asset Import Library (assimp v6.0.0)"},"extensionsUsed":["KHR_materials_specular","KHR_materials_volume","KHR_materials_ior","FB_ngon_encoding"],"accessors":[{"bufferView":0,"byteOffset":0,"componentType":5126,"count":2348,"type":"VEC3","max":[0.9854546189308167,-2.6677815914154053,2.3728537559509277],"min":[2.2250738585072014e-308,-2.7900846004486084,2.2250738585072014e-308]},{"bufferView":1,"byteOffset":0,"componentType":5126,"count":2348,"type":"VEC2","max":[0.992919921875,0.6044883728027344],"min":[2.2250738585072014e-308,2.2250738585072014e-308]},{"bufferView":2,"byteOffset":0,"componentType":5125,"count":9501,"type":"SCALAR","max":[2347],"min":[0]},{"bufferView":3,"byteOffset":0,"componentType":5126,"count":1688,"type":"VEC3","max":[0.769733190536499,-2.6818768978118896,2.3711724281311035],"min":[2.2250738585072014e-308,-2.774656295776367,2.2250738585072014e-308]},{"bufferView":4,"byteOffset":0,"componentType":5126,"count":1688,"type":"VEC2","max":[0.5254577398300171,0.6436309814453125],"min":[2.2250738585072014e-308,2.2250738585072014e-308]},{"bufferView":5,"byteOffset":0,"componentType":5125,"count":9306,"type":"SCALAR","max":[1687],"min":[0]}],"buffers":[{"byteLength":155948,"uri":"tile_0307.bin"}],"bufferViews":[{"buffer":0,"byteOffset":0,"byteLength":28176,"target":34962},{"buffer":0,"byteOffset":28176,"byteLength":18784,"target":34962},{"buffer":0,"byteOffset":46960,"byteLength":38004,"target":34963},{"buffer":0,"byteOffset":84964,"byteLength":20256,"target":34962},{"buffer":0,"byteOffset":105220,"byteLength":13504,"target":34962},{"buffer":0,"byteOffset":118724,"byteLength":37224,"target":34963}],"images":[{"uri":"../textures/tile_0307_material_0.jpg"},{"uri":"../textures/tile_0307_material_1.jpg"}],"materials":[{"name":"DefaultMaterial","pbrMetallicRoughness":{"baseColorFactor":[0.6000000238418579,0.6000000238418579,0.6000000238418579,1.0],"metallicFactor":0.0},"extensions":{"KHR_materials_specular":{"specularFactor":1.0,"specularColorFactor":[0.0,0.0,0.0]},"KHR_materials_ior":{"ior":1.0}}},{"name":"material_0_material","pbrMetallicRoughness":{"baseColorTexture":{"index":0},"metallicFactor":0.0},"extensions":{"KHR_materials_specular":{"specularFactor":1.0,"specularColorFactor":[0.0,0.0,0.0]},"KHR_materials_ior":{"ior":1.0}}},{"name":"material_1_material","pbrMetallicRoughness":{"baseColorTexture":{"index":1},"metallicFactor":0.0},"extensions":{"KHR_materials_specular":{"specularFactor":1.0,"specularColorFactor":[0.0,0.0,0.0]},"KHR_materials_ior":{"ior":1.0}}}],"meshes":[{"name":"defaultobject","primitives":[{"mode":4,"material":1,"indices":2,"attributes":{"POSITION":0,"TEXCOORD_0":1}},{"mode":4,"material":2,"indices":5,"attributes":{"POSITION":3,"TEXCOORD_0":4}}]}],"nodes":[{"name":"tile_0307.obj","children":[1]},{"name":"defaultobject","mesh":0}],"samplers":[{},{}],"scenes":[{"nodes":[0]}],"textures":[{"source":0,"sampler":0},{"source":1,"sampler":1}],"scene":0}
