{"asset":{"version":"2.0","generator":"Open Asset Import Library (assimp v6.0.0)"},"extensionsUsed":["KHR_materials_specular","KHR_materials_volume","KHR_materials_ior","FB_ngon_encoding"],"accessors":[{"bufferView":0,"byteOffset":0,"componentType":5126,"count":4865,"type":"VEC3","max":[3.828188896179199,1.2393677234649658,-0.01585366576910019],"min":[2.2250738585072014e-308,2.2250738585072014e-308,-0.4474097192287445]},{"bufferView":1,"byteOffset":0,"componentType":5126,"count":4865,"type":"VEC2","max":[0.9959924221038818,0.6013412475585938],"min":[2.2250738585072014e-308,2.2250738585072014e-308]},{"bufferView":2,"byteOffset":0,"componentType":5125,"count":19053,"type":"SCALAR","max":[4864],"min":[0]},{"bufferView":3,"byteOffset":0,"componentType":5126,"count":315,"type":"VEC3","max":[3.827584981918335,1.2393677234649658,-0.019182683899998665],"min":[2.2250738585072014e-308,2.2250738585072014e-308,-0.6382668018341064]},{"bufferView":4,"byteOffset":0,"componentType":5126,"count":315,"type":"VEC2","max":[0.8407955169677734,0.89520263671875],"min":[2.2250738585072014e-308,2.2250738585072014e-308]},{"bufferView":5,"byteOffset":0,"componentType":5125,"count":1347,"type":"SCALAR","max":[314],"min":[0]}],"buffers":[{"byteLength":185200,"uri":"tile_0117.bin"}],"bufferViews":[{"buffer":0,"byteOffset":0,"byteLength":58380,"target":34962},{"buffer":0,"byteOffset":58380,"byteLength":38920,"target":34962},{"buffer":0,"byteOffset":97300,"byteLength":76212,"target":34963},{"buffer":0,"byteOffset":173512,"byteLength":3780,"target":34962},{"buffer":0,"byteOffset":177292,"byteLength":2520,"target":34962},{"buffer":0,"byteOffset":179812,"byteLength":5388,"target":34963}],"images":[{"uri":"../textures/tile_0117_material_0.jpg"},{"uri":"../textures/tile_0117_material_1.jpg"}],"materials":[{"name":"DefaultMaterial","pbrMetallicRoughness":{"baseColorFactor":[0.6000000238418579,0.6000000238418579,0.6000000238418579,1.0],"metallicFactor":0.0},"extensions":{"KHR_materials_specular":{"specularFactor":1.0,"specularColorFactor":[0.0,0.0,0.0]},"KHR_materials_ior":{"ior":1.0}}},{"name":"material_0_material","pbrMetallicRoughness":{"baseColorTexture":{"index":0},"metallicFactor":0.0},"extensions":{"KHR_materials_specular":{"specularFactor":1.0,"specularColorFactor":[0.0,0.0,0.0]},"KHR_materials_ior":{"ior":1.0}}},{"name":"material_1_material","pbrMetallicRoughness":{"baseColorTexture":{"index":1},"metallicFactor":0.0},"extensions":{"KHR_materials_specular":{"specularFactor":1.0,"specularColorFactor":[0.0,0.0,0.0]},"KHR_materials_ior":{"ior":1.0}}}],"meshes":[{"name":"defaultobject","primitives":[{"mode":4,"material":1,"indices":2,"attributes":{"POSITION":0,"TEXCOORD_0":1}},{"mode":4,"material":2,"indices":5,"attributes":{"POSITION":3,"TEXCOORD_0":4}}]}],"nodes":[{"name":"tile_0117.obj","children":[1]},{"name":"defaultobject","mesh":0}],"samplers":[{},{}],"scenes":[{"nodes":[0]}],"textures":[{"source":0,"sampler":0},{"source":1,"sampler":1}],"scene":0}
