{"asset":{"version":"2.0","generator":"Open Asset Import Library (assimp v6.0.0)"},"extensionsUsed":["KHR_materials_specular","KHR_materials_volume","KHR_materials_ior","FB_ngon_encoding"],"accessors":[{"bufferView":0,"byteOffset":0,"componentType":5126,"count":9991,"type":"VEC3","max":[1.9141169786453247,0.8365474343299866,0.9738139510154724],"min":[2.2250738585072014e-308,2.2250738585072014e-308,2.2250738585072014e-308]},{"bufferView":1,"byteOffset":0,"componentType":5126,"count":9991,"type":"VEC2","max":[0.992185115814209,0.5448770523071289],"min":[2.2250738585072014e-308,2.2250738585072014e-308]},{"bufferView":2,"byteOffset":0,"componentType":5125,"count":42960,"type":"SCALAR","max":[9990],"min":[0]},{"bufferView":3,"byteOffset":0,"componentType":5126,"count":1244,"type":"VEC3","max":[1.9266551733016968,0.8354234099388123,0.9724342226982117],"min":[2.2250738585072014e-308,2.2250738585072014e-308,2.2250738585072014e-308]},{"bufferView":4,"byteOffset":0,"componentType":5126,"count":1244,"type":"VEC2","max":[0.7006797790527344,0.6623153686523438],"min":[2.2250738585072014e-308,2.2250738585072014e-308]},{"bufferView":5,"byteOffset":0,"componentType":5125,"count":6039,"type":"SCALAR","max":[1243],"min":[0]}],"buffers":[{"byteLength":420696,"uri":"tile_0146.bin"}],"bufferViews":[{"buffer":0,"byteOffset":0,"byteLength":119892,"target":34962},{"buffer":0,"byteOffset":119892,"byteLength":79928,"target":34962},{"buffer":0,"byteOffset":199820,"byteLength":171840,"target":34963},{"buffer":0,"byteOffset":371660,"byteLength":14928,"target":34962},{"buffer":0,"byteOffset":386588,"byteLength":9952,"target":34962},{"buffer":0,"byteOffset":396540,"byteLength":24156,"target":34963}],"images":[{"uri":"../textures/tile_0146_material_0.jpg"},{"uri":"../textures/tile_0146_material_1.jpg"}],"materials":[{"name":"DefaultMaterial","pbrMetallicRoughness":{"baseColorFactor":[0.6000000238418579,0.6000000238418579,0.6000000238418579,1.0],"metallicFactor":0.0},"extensions":{"KHR_materials_specular":{"specularFactor":1.0,"specularColorFactor":[0.0,0.0,0.0]},"KHR_materials_ior":{"ior":1.0}}},{"name":"material_0_material","pbrMetallicRoughness":{"baseColorTexture":{"index":0},"metallicFactor":0.0},"extensions":{"KHR_materials_specular":{"specularFactor":1.0,"specularColorFactor":[0.0,0.0,0.0]},"KHR_materials_ior":{"ior":1.0}}},{"name":"material_1_material","pbrMetallicRoughness":{"baseColorTexture":{"index":1},"metallicFactor":0.0},"extensions":{"KHR_materials_specular":{"specularFactor":1.0,"specularColorFactor":[0.0,0.0,0.0]},"KHR_materials_ior":{"ior":1.0}}}],"meshes":[{"name":"defaultobject","primitives":[{"mode":4,"material":1,"indices":2,"attributes":{"POSITION":0,"TEXCOORD_0":1}},{"mode":4,"material":2,"indices":5,"attributes":{"POSITION":3,"TEXCOORD_0":4}}]}],"nodes":[{"name":"tile_0146.obj","children":[1]},{"name":"defaultobject","mesh":0}],"samplers":[{},{}],"scenes":[{"nodes":[0]}],"textures":[{"source":0,"sampler":0},{"source":1,"sampler":1}],"scene":0}
