{"asset":{"version":"2.0","generator":"Open Asset Import Library (assimp v6.0.0)"},"extensionsUsed":["KHR_materials_specular","KHR_materials_volume","KHR_materials_ior","FB_ngon_encoding"],"accessors":[{"bufferView":0,"byteOffset":0,"componentType":5126,"count":3230,"type":"VEC3","max":[1.9942084550857544,3.3573787212371826,2.5620970726013184],"min":[2.2250738585072014e-308,2.2250738585072014e-308,2.2250738585072014e-308]},{"bufferView":1,"byteOffset":0,"componentType":5126,"count":3230,"type":"VEC2","max":[0.9799017906188965,0.5996074676513672],"min":[2.2250738585072014e-308,2.2250738585072014e-308]},{"bufferView":2,"byteOffset":0,"componentType":5125,"count":14799,"type":"SCALAR","max":[3229],"min":[0]},{"bufferView":3,"byteOffset":0,"componentType":5126,"count":9139,"type":"VEC3","max":[2.0201070308685303,3.3579015731811523,2.5647706985473633],"min":[2.2250738585072014e-308,2.2250738585072014e-308,2.2250738585072014e-308]},{"bufferView":4,"byteOffset":0,"componentType":5126,"count":9139,"type":"VEC2","max":[0.986572265625,0.8253593444824219],"min":[2.2250738585072014e-308,2.2250738585072014e-308]},{"bufferView":5,"byteOffset":0,"componentType":5125,"count":49371,"type":"SCALAR","max":[9138],"min":[0]}],"buffers":[{"byteLength":504060,"uri":"tile_0575.bin"}],"bufferViews":[{"buffer":0,"byteOffset":0,"byteLength":38760,"target":34962},{"buffer":0,"byteOffset":38760,"byteLength":25840,"target":34962},{"buffer":0,"byteOffset":64600,"byteLength":59196,"target":34963},{"buffer":0,"byteOffset":123796,"byteLength":109668,"target":34962},{"buffer":0,"byteOffset":233464,"byteLength":73112,"target":34962},{"buffer":0,"byteOffset":306576,"byteLength":197484,"target":34963}],"images":[{"uri":"../textures/tile_0575_material_0.jpg"},{"uri":"../textures/tile_0575_material_1.jpg"}],"materials":[{"name":"DefaultMaterial","pbrMetallicRoughness":{"baseColorFactor":[0.6000000238418579,0.6000000238418579,0.6000000238418579,1.0],"metallicFactor":0.0},"extensions":{"KHR_materials_specular":{"specularFactor":1.0,"specularColorFactor":[0.0,0.0,0.0]},"KHR_materials_ior":{"ior":1.0}}},{"name":"material_0_material","pbrMetallicRoughness":{"baseColorTexture":{"index":0},"metallicFactor":0.0},"extensions":{"KHR_materials_specular":{"specularFactor":1.0,"specularColorFactor":[0.0,0.0,0.0]},"KHR_materials_ior":{"ior":1.0}}},{"name":"material_1_material","pbrMetallicRoughness":{"baseColorTexture":{"index":1},"metallicFactor":0.0},"extensions":{"KHR_materials_specular":{"specularFactor":1.0,"specularColorFactor":[0.0,0.0,0.0]},"KHR_materials_ior":{"ior":1.0}}}],"meshes":[{"name":"defaultobject","primitives":[{"mode":4,"material":1,"indices":2,"attributes":{"POSITION":0,"TEXCOORD_0":1}},{"mode":4,"material":2,"indices":5,"attributes":{"POSITION":3,"TEXCOORD_0":4}}]}],"nodes":[{"name":"tile_0575.obj","children":[1]},{"name":"defaultobject","mesh":0}],"samplers":[{},{}],"scenes":[{"nodes":[0]}],"textures":[{"source":0,"sampler":0},{"source":1,"sampler":1}],"scene":0}
