{"asset":{"version":"2.0","generator":"Open Asset Import Library (assimp v6.0.0)"},"extensionsUsed":["KHR_materials_specular","KHR_materials_volume","KHR_materials_ior","FB_ngon_encoding"],"accessors":[{"bufferView":0,"byteOffset":0,"componentType":5126,"count":6324,"type":"VEC3","max":[3.2781999111175537,-1.0746289491653442,0.0994424894452095],"min":[2.2250738585072014e-308,-1.1808853149414062,2.2250738585072014e-308]},{"bufferView":1,"byteOffset":0,"componentType":5126,"count":6324,"type":"VEC2","max":[0.9937577247619629,0.5937271118164062],"min":[2.2250738585072014e-308,2.2250738585072014e-308]},{"bufferView":2,"byteOffset":0,"componentType":5125,"count":22104,"type":"SCALAR","max":[6323],"min":[0]},{"bufferView":3,"byteOffset":0,"componentType":5126,"count":450,"type":"VEC3","max":[0.4643086791038513,-1.0765877962112427,0.09533269703388214],"min":[2.2250738585072014e-308,-1.1494277715682983,2.2250738585072014e-308]},{"bufferView":4,"byteOffset":0,"componentType":5126,"count":450,"type":"VEC2","max":[0.491091251373291,0.6081466674804688],"min":[2.2250738585072014e-308,2.2250738585072014e-308]},{"bufferView":5,"byteOffset":0,"componentType":5125,"count":2211,"type":"SCALAR","max":[449],"min":[0]}],"buffers":[{"byteLength":232740,"uri":"tile_0220.bin"}],"bufferViews":[{"buffer":0,"byteOffset":0,"byteLength":75888,"target":34962},{"buffer":0,"byteOffset":75888,"byteLength":50592,"target":34962},{"buffer":0,"byteOffset":126480,"byteLength":88416,"target":34963},{"buffer":0,"byteOffset":214896,"byteLength":5400,"target":34962},{"buffer":0,"byteOffset":220296,"byteLength":3600,"target":34962},{"buffer":0,"byteOffset":223896,"byteLength":8844,"target":34963}],"images":[{"uri":"../textures/tile_0220_material_0.jpg"},{"uri":"../textures/tile_0220_material_1.jpg"}],"materials":[{"name":"DefaultMaterial","pbrMetallicRoughness":{"baseColorFactor":[0.6000000238418579,0.6000000238418579,0.6000000238418579,1.0],"metallicFactor":0.0},"extensions":{"KHR_materials_specular":{"specularFactor":1.0,"specularColorFactor":[0.0,0.0,0.0]},"KHR_materials_ior":{"ior":1.0}}},{"name":"material_0_material","pbrMetallicRoughness":{"baseColorTexture":{"index":0},"metallicFactor":0.0},"extensions":{"KHR_materials_specular":{"specularFactor":1.0,"specularColorFactor":[0.0,0.0,0.0]},"KHR_materials_ior":{"ior":1.0}}},{"name":"material_1_material","pbrMetallicRoughness":{"baseColorTexture":{"index":1},"metallicFactor":0.0},"extensions":{"KHR_materials_specular":{"specularFactor":1.0,"specularColorFactor":[0.0,0.0,0.0]},"KHR_materials_ior":{"ior":1.0}}}],"meshes":[{"name":"defaultobject","primitives":[{"mode":4,"material":1,"indices":2,"attributes":{"POSITION":0,"TEXCOORD_0":1}},{"mode":4,"material":2,"indices":5,"attributes":{"POSITION":3,"TEXCOORD_0":4}}]}],"nodes":[{"name":"tile_0220.obj","children":[1]},{"name":"defaultobject","mesh":0}],"samplers":[{},{}],"scenes":[{"nodes":[0]}],"textures":[{"source":0,"sampler":0},{"source":1,"sampler":1}],"scene":0}
