{"asset":{"version":"2.0","generator":"Open Asset Import Library (assimp v6.0.0)"},"extensionsUsed":["KHR_materials_specular","KHR_materials_volume","KHR_materials_ior","FB_ngon_encoding"],"accessors":[{"bufferView":0,"byteOffset":0,"componentType":5126,"count":3841,"type":"VEC3","max":[1.6888916492462158,-2.761904001235962,1.7416794300079346],"min":[2.2250738585072014e-308,-3.0967438220977783,2.2250738585072014e-308]},{"bufferView":1,"byteOffset":0,"componentType":5126,"count":3841,"type":"VEC2","max":[0.9939413070678711,0.6404666900634766],"min":[2.2250738585072014e-308,2.2250738585072014e-308]},{"bufferView":2,"byteOffset":0,"componentType":5125,"count":16125,"type":"SCALAR","max":[3840],"min":[0]},{"bufferView":3,"byteOffset":0,"componentType":5126,"count":691,"type":"VEC3","max":[1.190937876701355,-2.74980092048645,1.7480213642120361],"min":[2.2250738585072014e-308,-3.074362277984619,2.2250738585072014e-308]},{"bufferView":4,"byteOffset":0,"componentType":5126,"count":691,"type":"VEC2","max":[0.5268678665161133,0.6287422180175781],"min":[2.2250738585072014e-308,2.2250738585072014e-308]},{"bufferView":5,"byteOffset":0,"componentType":5125,"count":3348,"type":"SCALAR","max":[690],"min":[0]}],"buffers":[{"byteLength":168532,"uri":"tile_0255.bin"}],"bufferViews":[{"buffer":0,"byteOffset":0,"byteLength":46092,"target":34962},{"buffer":0,"byteOffset":46092,"byteLength":30728,"target":34962},{"buffer":0,"byteOffset":76820,"byteLength":64500,"target":34963},{"buffer":0,"byteOffset":141320,"byteLength":8292,"target":34962},{"buffer":0,"byteOffset":149612,"byteLength":5528,"target":34962},{"buffer":0,"byteOffset":155140,"byteLength":13392,"target":34963}],"images":[{"uri":"../textures/tile_0255_material_0.jpg"},{"uri":"../textures/tile_0255_material_1.jpg"}],"materials":[{"name":"DefaultMaterial","pbrMetallicRoughness":{"baseColorFactor":[0.6000000238418579,0.6000000238418579,0.6000000238418579,1.0],"metallicFactor":0.0},"extensions":{"KHR_materials_specular":{"specularFactor":1.0,"specularColorFactor":[0.0,0.0,0.0]},"KHR_materials_ior":{"ior":1.0}}},{"name":"material_0_material","pbrMetallicRoughness":{"baseColorTexture":{"index":0},"metallicFactor":0.0},"extensions":{"KHR_materials_specular":{"specularFactor":1.0,"specularColorFactor":[0.0,0.0,0.0]},"KHR_materials_ior":{"ior":1.0}}},{"name":"material_1_material","pbrMetallicRoughness":{"baseColorTexture":{"index":1},"metallicFactor":0.0},"extensions":{"KHR_materials_specular":{"specularFactor":1.0,"specularColorFactor":[0.0,0.0,0.0]},"KHR_materials_ior":{"ior":1.0}}}],"meshes":[{"name":"defaultobject","primitives":[{"mode":4,"material":1,"indices":2,"attributes":{"POSITION":0,"TEXCOORD_0":1}},{"mode":4,"material":2,"indices":5,"attributes":{"POSITION":3,"TEXCOORD_0":4}}]}],"nodes":[{"name":"tile_0255.obj","children":[1]},{"name":"defaultobject","mesh":0}],"samplers":[{},{}],"scenes":[{"nodes":[0]}],"textures":[{"source":0,"sampler":0},{"source":1,"sampler":1}],"scene":0}
