{"asset":{"version":"2.0","generator":"Open Asset Import Library (assimp v6.0.0)"},"extensionsUsed":["KHR_materials_specular","KHR_materials_volume","KHR_materials_ior","FB_ngon_encoding"],"accessors":[{"bufferView":0,"byteOffset":0,"componentType":5126,"count":4512,"type":"VEC3","max":[0.612686276435852,-2.572047710418701,3.6528754234313965],"min":[-0.0048899524845182896,-2.7883713245391846,2.2250738585072014e-308]},{"bufferView":1,"byteOffset":0,"componentType":5126,"count":4512,"type":"VEC2","max":[0.9931459426879883,0.5858249664306641],"min":[2.2250738585072014e-308,2.2250738585072014e-308]},{"bufferView":2,"byteOffset":0,"componentType":5125,"count":18849,"type":"SCALAR","max":[4511],"min":[0]},{"bufferView":3,"byteOffset":0,"componentType":5126,"count":1810,"type":"VEC3","max":[0.612686276435852,-2.5679540634155273,3.6524243354797363],"min":[-0.017255401238799095,-2.778698444366455,2.2250738585072014e-308]},{"bufferView":4,"byteOffset":0,"componentType":5126,"count":1810,"type":"VEC2","max":[0.5451831817626953,0.6450061798095703],"min":[2.2250738585072014e-308,2.2250738585072014e-308]},{"bufferView":5,"byteOffset":0,"componentType":5125,"count":8874,"type":"SCALAR","max":[1809],"min":[0]}],"buffers":[{"byteLength":237332,"uri":"tile_0334.bin"}],"bufferViews":[{"buffer":0,"byteOffset":0,"byteLength":54144,"target":34962},{"buffer":0,"byteOffset":54144,"byteLength":36096,"target":34962},{"buffer":0,"byteOffset":90240,"byteLength":75396,"target":34963},{"buffer":0,"byteOffset":165636,"byteLength":21720,"target":34962},{"buffer":0,"byteOffset":187356,"byteLength":14480,"target":34962},{"buffer":0,"byteOffset":201836,"byteLength":35496,"target":34963}],"images":[{"uri":"../textures/tile_0334_material_0.jpg"},{"uri":"../textures/tile_0334_material_1.jpg"}],"materials":[{"name":"DefaultMaterial","pbrMetallicRoughness":{"baseColorFactor":[0.6000000238418579,0.6000000238418579,0.6000000238418579,1.0],"metallicFactor":0.0},"extensions":{"KHR_materials_specular":{"specularFactor":1.0,"specularColorFactor":[0.0,0.0,0.0]},"KHR_materials_ior":{"ior":1.0}}},{"name":"material_0_material","pbrMetallicRoughness":{"baseColorTexture":{"index":0},"metallicFactor":0.0},"extensions":{"KHR_materials_specular":{"specularFactor":1.0,"specularColorFactor":[0.0,0.0,0.0]},"KHR_materials_ior":{"ior":1.0}}},{"name":"material_1_material","pbrMetallicRoughness":{"baseColorTexture":{"index":1},"metallicFactor":0.0},"extensions":{"KHR_materials_specular":{"specularFactor":1.0,"specularColorFactor":[0.0,0.0,0.0]},"KHR_materials_ior":{"ior":1.0}}}],"meshes":[{"name":"defaultobject","primitives":[{"mode":4,"material":1,"indices":2,"attributes":{"POSITION":0,"TEXCOORD_0":1}},{"mode":4,"material":2,"indices":5,"attributes":{"POSITION":3,"TEXCOORD_0":4}}]}],"nodes":[{"name":"tile_0334.obj","children":[1]},{"name":"defaultobject","mesh":0}],"samplers":[{},{}],"scenes":[{"nodes":[0]}],"textures":[{"source":0,"sampler":0},{"source":1,"sampler":1}],"scene":0}
