{"asset":{"version":"2.0","generator":"Open Asset Import Library (assimp v6.0.0)"},"extensionsUsed":["KHR_materials_specular","KHR_materials_volume","KHR_materials_ior","FB_ngon_encoding"],"accessors":[{"bufferView":0,"byteOffset":0,"componentType":5126,"count":5490,"type":"VEC3","max":[2.653059244155884,2.0669000148773193,1.3388984203338623],"min":[2.2250738585072014e-308,2.2250738585072014e-308,2.2250738585072014e-308]},{"bufferView":1,"byteOffset":0,"componentType":5126,"count":5490,"type":"VEC2","max":[0.9895591735839844,0.5312347412109375],"min":[2.2250738585072014e-308,2.2250738585072014e-308]},{"bufferView":2,"byteOffset":0,"componentType":5125,"count":24234,"type":"SCALAR","max":[5489],"min":[0]},{"bufferView":3,"byteOffset":0,"componentType":5126,"count":85,"type":"VEC3","max":[1.7770500183105469,1.95139479637146,1.3348090648651123],"min":[2.2250738585072014e-308,2.2250738585072014e-308,2.2250738585072014e-308]},{"bufferView":4,"byteOffset":0,"componentType":5126,"count":85,"type":"VEC2","max":[0.4710540771484375,0.8000487685203552],"min":[2.2250738585072014e-308,2.2250738585072014e-308]},{"bufferView":5,"byteOffset":0,"componentType":5125,"count":348,"type":"SCALAR","max":[84],"min":[0]}],"buffers":[{"byteLength":209828,"uri":"tile_0562.bin"}],"bufferViews":[{"buffer":0,"byteOffset":0,"byteLength":65880,"target":34962},{"buffer":0,"byteOffset":65880,"byteLength":43920,"target":34962},{"buffer":0,"byteOffset":109800,"byteLength":96936,"target":34963},{"buffer":0,"byteOffset":206736,"byteLength":1020,"target":34962},{"buffer":0,"byteOffset":207756,"byteLength":680,"target":34962},{"buffer":0,"byteOffset":208436,"byteLength":1392,"target":34963}],"images":[{"uri":"../textures/tile_0562_material_0.jpg"},{"uri":"../textures/tile_0562_material_1.jpg"}],"materials":[{"name":"DefaultMaterial","pbrMetallicRoughness":{"baseColorFactor":[0.6000000238418579,0.6000000238418579,0.6000000238418579,1.0],"metallicFactor":0.0},"extensions":{"KHR_materials_specular":{"specularFactor":1.0,"specularColorFactor":[0.0,0.0,0.0]},"KHR_materials_ior":{"ior":1.0}}},{"name":"material_0_material","pbrMetallicRoughness":{"baseColorTexture":{"index":0},"metallicFactor":0.0},"extensions":{"KHR_materials_specular":{"specularFactor":1.0,"specularColorFactor":[0.0,0.0,0.0]},"KHR_materials_ior":{"ior":1.0}}},{"name":"material_1_material","pbrMetallicRoughness":{"baseColorTexture":{"index":1},"metallicFactor":0.0},"extensions":{"KHR_materials_specular":{"specularFactor":1.0,"specularColorFactor":[0.0,0.0,0.0]},"KHR_materials_ior":{"ior":1.0}}}],"meshes":[{"name":"defaultobject","primitives":[{"mode":4,"material":1,"indices":2,"attributes":{"POSITION":0,"TEXCOORD_0":1}},{"mode":4,"material":2,"indices":5,"attributes":{"POSITION":3,"TEXCOORD_0":4}}]}],"nodes":[{"name":"tile_0562.obj","children":[1]},{"name":"defaultobject","mesh":0}],"samplers":[{},{}],"scenes":[{"nodes":[0]}],"textures":[{"source":0,"sampler":0},{"source":1,"sampler":1}],"scene":0}
