{"asset":{"version":"2.0","generator":"Open Asset Import Library (assimp v6.0.0)"},"extensionsUsed":["KHR_materials_specular","KHR_materials_volume","KHR_materials_ior","FB_ngon_encoding"],"accessors":[{"bufferView":0,"byteOffset":0,"componentType":5126,"count":3547,"type":"VEC3","max":[3.2365801334381104,-0.9613173007965088,0.2487889677286148],"min":[2.2250738585072014e-308,-1.135893702507019,2.2250738585072014e-308]},{"bufferView":1,"byteOffset":0,"componentType":5126,"count":3547,"type":"VEC2","max":[0.9950056076049805,0.5038833618164062],"min":[2.2250738585072014e-308,2.2250738585072014e-308]},{"bufferView":2,"byteOffset":0,"componentType":5125,"count":13014,"type":"SCALAR","max":[3546],"min":[0]},{"bufferView":3,"byteOffset":0,"componentType":5126,"count":1397,"type":"VEC3","max":[0.27071207761764526,-0.9659347534179688,0.23318509757518768],"min":[2.2250738585072014e-308,-1.1262555122375488,2.2250738585072014e-308]},{"bufferView":4,"byteOffset":0,"componentType":5126,"count":1397,"type":"VEC2","max":[0.767852783203125,0.6591072082519531],"min":[2.2250738585072014e-308,2.2250738585072014e-308]},{"bufferView":5,"byteOffset":0,"componentType":5125,"count":6675,"type":"SCALAR","max":[1396],"min":[0]}],"buffers":[{"byteLength":177636,"uri":"tile_0175.bin"}],"bufferViews":[{"buffer":0,"byteOffset":0,"byteLength":42564,"target":34962},{"buffer":0,"byteOffset":42564,"byteLength":28376,"target":34962},{"buffer":0,"byteOffset":70940,"byteLength":52056,"target":34963},{"buffer":0,"byteOffset":122996,"byteLength":16764,"target":34962},{"buffer":0,"byteOffset":139760,"byteLength":11176,"target":34962},{"buffer":0,"byteOffset":150936,"byteLength":26700,"target":34963}],"images":[{"uri":"../textures/tile_0175_material_0.jpg"},{"uri":"../textures/tile_0175_material_1.jpg"}],"materials":[{"name":"DefaultMaterial","pbrMetallicRoughness":{"baseColorFactor":[0.6000000238418579,0.6000000238418579,0.6000000238418579,1.0],"metallicFactor":0.0},"extensions":{"KHR_materials_specular":{"specularFactor":1.0,"specularColorFactor":[0.0,0.0,0.0]},"KHR_materials_ior":{"ior":1.0}}},{"name":"material_0_material","pbrMetallicRoughness":{"baseColorTexture":{"index":0},"metallicFactor":0.0},"extensions":{"KHR_materials_specular":{"specularFactor":1.0,"specularColorFactor":[0.0,0.0,0.0]},"KHR_materials_ior":{"ior":1.0}}},{"name":"material_1_material","pbrMetallicRoughness":{"baseColorTexture":{"index":1},"metallicFactor":0.0},"extensions":{"KHR_materials_specular":{"specularFactor":1.0,"specularColorFactor":[0.0,0.0,0.0]},"KHR_materials_ior":{"ior":1.0}}}],"meshes":[{"name":"defaultobject","primitives":[{"mode":4,"material":1,"indices":2,"attributes":{"POSITION":0,"TEXCOORD_0":1}},{"mode":4,"material":2,"indices":5,"attributes":{"POSITION":3,"TEXCOORD_0":4}}]}],"nodes":[{"name":"tile_0175.obj","children":[1]},{"name":"defaultobject","mesh":0}],"samplers":[{},{}],"scenes":[{"nodes":[0]}],"textures":[{"source":0,"sampler":0},{"source":1,"sampler":1}],"scene":0}
