{"asset":{"version":"2.0","generator":"Open Asset Import Library (assimp v6.0.0)"},"extensionsUsed":["KHR_materials_specular","KHR_materials_volume","KHR_materials_ior","FB_ngon_encoding"],"accessors":[{"bufferView":0,"byteOffset":0,"componentType":5126,"count":14697,"type":"VEC3","max":[2.4400346279144287,2.1191649436950684,1.7426072359085083],"min":[2.2250738585072014e-308,2.2250738585072014e-308,2.2250738585072014e-308]},{"bufferView":1,"byteOffset":0,"componentType":5126,"count":14697,"type":"VEC2","max":[0.9899835586547852,0.722625732421875],"min":[2.2250738585072014e-308,2.2250738585072014e-308]},{"bufferView":2,"byteOffset":0,"componentType":5125,"count":68718,"type":"SCALAR","max":[14696],"min":[0]},{"bufferView":3,"byteOffset":0,"componentType":5126,"count":9,"type":"VEC3","max":[2.09623646736145,1.7218700647354126,1.5810836553573608],"min":[2.2250738585072014e-308,2.2250738585072014e-308,2.2250738585072014e-308]},{"bufferView":4,"byteOffset":0,"componentType":5126,"count":9,"type":"VEC2","max":[0.9134368300437927,0.70330810546875],"min":[2.2250738585072014e-308,2.2250738585072014e-308]},{"bufferView":5,"byteOffset":0,"componentType":5125,"count":12,"type":"SCALAR","max":[8],"min":[0]}],"buffers":[{"byteLength":569040,"uri":"tile_0129.bin"}],"bufferViews":[{"buffer":0,"byteOffset":0,"byteLength":176364,"target":34962},{"buffer":0,"byteOffset":176364,"byteLength":117576,"target":34962},{"buffer":0,"byteOffset":293940,"byteLength":274872,"target":34963},{"buffer":0,"byteOffset":568812,"byteLength":108,"target":34962},{"buffer":0,"byteOffset":568920,"byteLength":72,"target":34962},{"buffer":0,"byteOffset":568992,"byteLength":48,"target":34963}],"images":[{"uri":"../textures/tile_0129_material_0.jpg"},{"uri":"../textures/tile_0129_material_1.jpg"}],"materials":[{"name":"DefaultMaterial","pbrMetallicRoughness":{"baseColorFactor":[0.6000000238418579,0.6000000238418579,0.6000000238418579,1.0],"metallicFactor":0.0},"extensions":{"KHR_materials_specular":{"specularFactor":1.0,"specularColorFactor":[0.0,0.0,0.0]},"KHR_materials_ior":{"ior":1.0}}},{"name":"material_0_material","pbrMetallicRoughness":{"baseColorTexture":{"index":0},"metallicFactor":0.0},"extensions":{"KHR_materials_specular":{"specularFactor":1.0,"specularColorFactor":[0.0,0.0,0.0]},"KHR_materials_ior":{"ior":1.0}}},{"name":"material_1_material","pbrMetallicRoughness":{"baseColorTexture":{"index":1},"metallicFactor":0.0},"extensions":{"KHR_materials_specular":{"specularFactor":1.0,"specularColorFactor":[0.0,0.0,0.0]},"KHR_materials_ior":{"ior":1.0}}}],"meshes":[{"name":"defaultobject","primitives":[{"mode":4,"material":1,"indices":2,"attributes":{"POSITION":0,"TEXCOORD_0":1}},{"mode":4,"material":2,"indices":5,"attributes":{"POSITION":3,"TEXCOORD_0":4}}]}],"nodes":[{"name":"tile_0129.obj","children":[1]},{"name":"defaultobject","mesh":0}],"samplers":[{},{}],"scenes":[{"nodes":[0]}],"textures":[{"source":0,"sampler":0},{"source":1,"sampler":1}],"scene":0}
