{"asset":{"version":"2.0","generator":"Open Asset Import Library (assimp v6.0.0)"},"extensionsUsed":["KHR_materials_specular","KHR_materials_volume","KHR_materials_ior","FB_ngon_encoding"],"accessors":[{"bufferView":0,"byteOffset":0,"componentType":5126,"count":3883,"type":"VEC3","max":[0.3702218234539032,-0.18739010393619537,2.615593194961548],"min":[-0.306608110666275,-0.3421631157398224,2.2250738585072014e-308]},{"bufferView":1,"byteOffset":0,"componentType":5126,"count":3883,"type":"VEC2","max":[0.9915283918380737,0.606658935546875],"min":[2.2250738585072014e-308,2.2250738585072014e-308]},{"bufferView":2,"byteOffset":0,"componentType":5125,"count":17328,"type":"SCALAR","max":[3882],"min":[0]},{"bufferView":3,"byteOffset":0,"componentType":5126,"count":905,"type":"VEC3","max":[0.3221369981765747,-0.22469551861286163,2.576929807662964],"min":[-0.30667364597320557,-0.3329138159751892,2.2250738585072014e-308]},{"bufferView":4,"byteOffset":0,"componentType":5126,"count":905,"type":"VEC2","max":[0.5350446701049805,0.8043861389160156],"min":[2.2250738585072014e-308,2.2250738585072014e-308]},{"bufferView":5,"byteOffset":0,"componentType":5125,"count":4410,"type":"SCALAR","max":[904],"min":[0]}],"buffers":[{"byteLength":182712,"uri":"tile_0049.bin"}],"bufferViews":[{"buffer":0,"byteOffset":0,"byteLength":46596,"target":34962},{"buffer":0,"byteOffset":46596,"byteLength":31064,"target":34962},{"buffer":0,"byteOffset":77660,"byteLength":69312,"target":34963},{"buffer":0,"byteOffset":146972,"byteLength":10860,"target":34962},{"buffer":0,"byteOffset":157832,"byteLength":7240,"target":34962},{"buffer":0,"byteOffset":165072,"byteLength":17640,"target":34963}],"images":[{"uri":"../textures/tile_0049_material_0.jpg"},{"uri":"../textures/tile_0049_material_1.jpg"}],"materials":[{"name":"DefaultMaterial","pbrMetallicRoughness":{"baseColorFactor":[0.6000000238418579,0.6000000238418579,0.6000000238418579,1.0],"metallicFactor":0.0},"extensions":{"KHR_materials_specular":{"specularFactor":1.0,"specularColorFactor":[0.0,0.0,0.0]},"KHR_materials_ior":{"ior":1.0}}},{"name":"material_0_material","pbrMetallicRoughness":{"baseColorTexture":{"index":0},"metallicFactor":0.0},"extensions":{"KHR_materials_specular":{"specularFactor":1.0,"specularColorFactor":[0.0,0.0,0.0]},"KHR_materials_ior":{"ior":1.0}}},{"name":"material_1_material","pbrMetallicRoughness":{"baseColorTexture":{"index":1},"metallicFactor":0.0},"extensions":{"KHR_materials_specular":{"specularFactor":1.0,"specularColorFactor":[0.0,0.0,0.0]},"KHR_materials_ior":{"ior":1.0}}}],"meshes":[{"name":"defaultobject","primitives":[{"mode":4,"material":1,"indices":2,"attributes":{"POSITION":0,"TEXCOORD_0":1}},{"mode":4,"material":2,"indices":5,"attributes":{"POSITION":3,"TEXCOORD_0":4}}]}],"nodes":[{"name":"tile_0049.obj","children":[1]},{"name":"defaultobject","mesh":0}],"samplers":[{},{}],"scenes":[{"nodes":[0]}],"textures":[{"source":0,"sampler":0},{"source":1,"sampler":1}],"scene":0}
