{"asset":{"version":"2.0","generator":"Open Asset Import Library (assimp v6.0.0)"},"extensionsUsed":["KHR_materials_specular","KHR_materials_volume","KHR_materials_ior","FB_ngon_encoding"],"accessors":[{"bufferView":0,"byteOffset":0,"componentType":5126,"count":8453,"type":"VEC3","max":[2.6546449661254883,-0.41867122054100037,1.2845580577850342],"min":[2.2250738585072014e-308,-0.6244637966156006,2.2250738585072014e-308]},{"bufferView":1,"byteOffset":0,"componentType":5126,"count":8453,"type":"VEC2","max":[0.9957723617553711,0.9725723266601562],"min":[2.2250738585072014e-308,2.2250738585072014e-308]},{"bufferView":2,"byteOffset":0,"componentType":5125,"count":35196,"type":"SCALAR","max":[8452],"min":[0]},{"bufferView":3,"byteOffset":0,"componentType":5126,"count":2813,"type":"VEC3","max":[0.4237918555736542,-0.4367668330669403,1.2139215469360352],"min":[2.2250738585072014e-308,-0.5945309996604919,2.2250738585072014e-308]},{"bufferView":4,"byteOffset":0,"componentType":5126,"count":2813,"type":"VEC2","max":[0.8315098285675049,0.6089439392089844],"min":[2.2250738585072014e-308,2.2250738585072014e-308]},{"bufferView":5,"byteOffset":0,"componentType":5125,"count":14541,"type":"SCALAR","max":[2812],"min":[0]}],"buffers":[{"byteLength":424268,"uri":"tile_0462.bin"}],"bufferViews":[{"buffer":0,"byteOffset":0,"byteLength":101436,"target":34962},{"buffer":0,"byteOffset":101436,"byteLength":67624,"target":34962},{"buffer":0,"byteOffset":169060,"byteLength":140784,"target":34963},{"buffer":0,"byteOffset":309844,"byteLength":33756,"target":34962},{"buffer":0,"byteOffset":343600,"byteLength":22504,"target":34962},{"buffer":0,"byteOffset":366104,"byteLength":58164,"target":34963}],"images":[{"uri":"../textures/tile_0462_material_0.jpg"},{"uri":"../textures/tile_0462_material_1.jpg"}],"materials":[{"name":"DefaultMaterial","pbrMetallicRoughness":{"baseColorFactor":[0.6000000238418579,0.6000000238418579,0.6000000238418579,1.0],"metallicFactor":0.0},"extensions":{"KHR_materials_specular":{"specularFactor":1.0,"specularColorFactor":[0.0,0.0,0.0]},"KHR_materials_ior":{"ior":1.0}}},{"name":"material_0_material","pbrMetallicRoughness":{"baseColorTexture":{"index":0},"metallicFactor":0.0},"extensions":{"KHR_materials_specular":{"specularFactor":1.0,"specularColorFactor":[0.0,0.0,0.0]},"KHR_materials_ior":{"ior":1.0}}},{"name":"material_1_material","pbrMetallicRoughness":{"baseColorTexture":{"index":1},"metallicFactor":0.0},"extensions":{"KHR_materials_specular":{"specularFactor":1.0,"specularColorFactor":[0.0,0.0,0.0]},"KHR_materials_ior":{"ior":1.0}}}],"meshes":[{"name":"defaultobject","primitives":[{"mode":4,"material":1,"indices":2,"attributes":{"POSITION":0,"TEXCOORD_0":1}},{"mode":4,"material":2,"indices":5,"attributes":{"POSITION":3,"TEXCOORD_0":4}}]}],"nodes":[{"name":"tile_0462.obj","children":[1]},{"name":"defaultobject","mesh":0}],"samplers":[{},{}],"scenes":[{"nodes":[0]}],"textures":[{"source":0,"sampler":0},{"source":1,"sampler":1}],"scene":0}
