{"asset":{"version":"2.0","generator":"Open Asset Import Library (assimp v6.0.0)"},"extensionsUsed":["KHR_materials_specular","KHR_materials_volume","KHR_materials_ior","FB_ngon_encoding"],"accessors":[{"bufferView":0,"byteOffset":0,"componentType":5126,"count":1939,"type":"VEC3","max":[2.0655884742736816,-1.9770170450210571,1.6372889280319214],"min":[-0.09085212647914886,-2.3521201610565186,2.2250738585072014e-308]},{"bufferView":1,"byteOffset":0,"componentType":5126,"count":1939,"type":"VEC2","max":[0.9809708595275879,0.5697784423828125],"min":[2.2250738585072014e-308,2.2250738585072014e-308]},{"bufferView":2,"byteOffset":0,"componentType":5125,"count":7428,"type":"SCALAR","max":[1938],"min":[0]},{"bufferView":3,"byteOffset":0,"componentType":5126,"count":2350,"type":"VEC3","max":[2.058013677597046,-1.9770170450210571,1.6400896310806274],"min":[-0.09055883437395096,-2.3521201610565186,2.2250738585072014e-308]},{"bufferView":4,"byteOffset":0,"componentType":5126,"count":2350,"type":"VEC2","max":[0.5973105430603027,0.8692054748535156],"min":[2.2250738585072014e-308,2.2250738585072014e-308]},{"bufferView":5,"byteOffset":0,"componentType":5125,"count":12252,"type":"SCALAR","max":[2349],"min":[0]}],"buffers":[{"byteLength":164500,"uri":"tile_0302.bin"}],"bufferViews":[{"buffer":0,"byteOffset":0,"byteLength":23268,"target":34962},{"buffer":0,"byteOffset":23268,"byteLength":15512,"target":34962},{"buffer":0,"byteOffset":38780,"byteLength":29712,"target":34963},{"buffer":0,"byteOffset":68492,"byteLength":28200,"target":34962},{"buffer":0,"byteOffset":96692,"byteLength":18800,"target":34962},{"buffer":0,"byteOffset":115492,"byteLength":49008,"target":34963}],"images":[{"uri":"../textures/tile_0302_material_0.jpg"},{"uri":"../textures/tile_0302_material_1.jpg"}],"materials":[{"name":"DefaultMaterial","pbrMetallicRoughness":{"baseColorFactor":[0.6000000238418579,0.6000000238418579,0.6000000238418579,1.0],"metallicFactor":0.0},"extensions":{"KHR_materials_specular":{"specularFactor":1.0,"specularColorFactor":[0.0,0.0,0.0]},"KHR_materials_ior":{"ior":1.0}}},{"name":"material_0_material","pbrMetallicRoughness":{"baseColorTexture":{"index":0},"metallicFactor":0.0},"extensions":{"KHR_materials_specular":{"specularFactor":1.0,"specularColorFactor":[0.0,0.0,0.0]},"KHR_materials_ior":{"ior":1.0}}},{"name":"material_1_material","pbrMetallicRoughness":{"baseColorTexture":{"index":1},"metallicFactor":0.0},"extensions":{"KHR_materials_specular":{"specularFactor":1.0,"specularColorFactor":[0.0,0.0,0.0]},"KHR_materials_ior":{"ior":1.0}}}],"meshes":[{"name":"defaultobject","primitives":[{"mode":4,"material":1,"indices":2,"attributes":{"POSITION":0,"TEXCOORD_0":1}},{"mode":4,"material":2,"indices":5,"attributes":{"POSITION":3,"TEXCOORD_0":4}}]}],"nodes":[{"name":"tile_0302.obj","children":[1]},{"name":"defaultobject","mesh":0}],"samplers":[{},{}],"scenes":[{"nodes":[0]}],"textures":[{"source":0,"sampler":0},{"source":1,"sampler":1}],"scene":0}
