{"asset":{"version":"2.0","generator":"Open Asset Import Library (assimp v6.0.0)"},"extensionsUsed":["KHR_materials_specular","KHR_materials_volume","KHR_materials_ior","FB_ngon_encoding"],"accessors":[{"bufferView":0,"byteOffset":0,"componentType":5126,"count":4513,"type":"VEC3","max":[3.1946592330932617,-0.4186597764492035,0.440719336271286],"min":[2.2250738585072014e-308,-0.5782923102378845,2.2250738585072014e-308]},{"bufferView":1,"byteOffset":0,"componentType":5126,"count":4513,"type":"VEC2","max":[0.9940571784973145,0.7225990295410156],"min":[2.2250738585072014e-308,2.2250738585072014e-308]},{"bufferView":2,"byteOffset":0,"componentType":5125,"count":17265,"type":"SCALAR","max":[4512],"min":[0]},{"bufferView":3,"byteOffset":0,"componentType":5126,"count":1932,"type":"VEC3","max":[0.7767470479011536,-0.43709176778793335,0.3418276607990265],"min":[2.2250738585072014e-308,-0.5650212168693542,2.2250738585072014e-308]},{"bufferView":4,"byteOffset":0,"componentType":5126,"count":1932,"type":"VEC2","max":[0.5794863700866699,0.8726387023925781],"min":[2.2250738585072014e-308,2.2250738585072014e-308]},{"bufferView":5,"byteOffset":0,"componentType":5125,"count":9366,"type":"SCALAR","max":[1931],"min":[0]}],"buffers":[{"byteLength":235424,"uri":"tile_0485.bin"}],"bufferViews":[{"buffer":0,"byteOffset":0,"byteLength":54156,"target":34962},{"buffer":0,"byteOffset":54156,"byteLength":36104,"target":34962},{"buffer":0,"byteOffset":90260,"byteLength":69060,"target":34963},{"buffer":0,"byteOffset":159320,"byteLength":23184,"target":34962},{"buffer":0,"byteOffset":182504,"byteLength":15456,"target":34962},{"buffer":0,"byteOffset":197960,"byteLength":37464,"target":34963}],"images":[{"uri":"../textures/tile_0485_material_0.jpg"},{"uri":"../textures/tile_0485_material_1.jpg"}],"materials":[{"name":"DefaultMaterial","pbrMetallicRoughness":{"baseColorFactor":[0.6000000238418579,0.6000000238418579,0.6000000238418579,1.0],"metallicFactor":0.0},"extensions":{"KHR_materials_specular":{"specularFactor":1.0,"specularColorFactor":[0.0,0.0,0.0]},"KHR_materials_ior":{"ior":1.0}}},{"name":"material_0_material","pbrMetallicRoughness":{"baseColorTexture":{"index":0},"metallicFactor":0.0},"extensions":{"KHR_materials_specular":{"specularFactor":1.0,"specularColorFactor":[0.0,0.0,0.0]},"KHR_materials_ior":{"ior":1.0}}},{"name":"material_1_material","pbrMetallicRoughness":{"baseColorTexture":{"index":1},"metallicFactor":0.0},"extensions":{"KHR_materials_specular":{"specularFactor":1.0,"specularColorFactor":[0.0,0.0,0.0]},"KHR_materials_ior":{"ior":1.0}}}],"meshes":[{"name":"defaultobject","primitives":[{"mode":4,"material":1,"indices":2,"attributes":{"POSITION":0,"TEXCOORD_0":1}},{"mode":4,"material":2,"indices":5,"attributes":{"POSITION":3,"TEXCOORD_0":4}}]}],"nodes":[{"name":"tile_0485.obj","children":[1]},{"name":"defaultobject","mesh":0}],"samplers":[{},{}],"scenes":[{"nodes":[0]}],"textures":[{"source":0,"sampler":0},{"source":1,"sampler":1}],"scene":0}
