{"asset":{"version":"2.0","generator":"Open Asset Import Library (assimp v6.0.0)"},"extensionsUsed":["KHR_materials_specular","KHR_materials_volume","KHR_materials_ior","FB_ngon_encoding"],"accessors":[{"bufferView":0,"byteOffset":0,"componentType":5126,"count":4540,"type":"VEC3","max":[3.226754903793335,-1.1163183450698853,0.182004913687706],"min":[2.2250738585072014e-308,-1.3017019033432007,2.2250738585072014e-308]},{"bufferView":1,"byteOffset":0,"componentType":5126,"count":4540,"type":"VEC2","max":[0.9955930709838867,0.503875732421875],"min":[2.2250738585072014e-308,2.2250738585072014e-308]},{"bufferView":2,"byteOffset":0,"componentType":5125,"count":17289,"type":"SCALAR","max":[4539],"min":[0]},{"bufferView":3,"byteOffset":0,"componentType":5126,"count":504,"type":"VEC3","max":[0.33891844749450684,-1.1217795610427856,0.17708854377269745],"min":[2.2250738585072014e-308,-1.2772908210754395,2.2250738585072014e-308]},{"bufferView":4,"byteOffset":0,"componentType":5126,"count":504,"type":"VEC2","max":[0.5319709777832031,0.8394546508789062],"min":[2.2250738585072014e-308,2.2250738585072014e-308]},{"bufferView":5,"byteOffset":0,"componentType":5125,"count":2400,"type":"SCALAR","max":[503],"min":[0]}],"buffers":[{"byteLength":179636,"uri":"tile_0231.bin"}],"bufferViews":[{"buffer":0,"byteOffset":0,"byteLength":54480,"target":34962},{"buffer":0,"byteOffset":54480,"byteLength":36320,"target":34962},{"buffer":0,"byteOffset":90800,"byteLength":69156,"target":34963},{"buffer":0,"byteOffset":159956,"byteLength":6048,"target":34962},{"buffer":0,"byteOffset":166004,"byteLength":4032,"target":34962},{"buffer":0,"byteOffset":170036,"byteLength":9600,"target":34963}],"images":[{"uri":"../textures/tile_0231_material_0.jpg"},{"uri":"../textures/tile_0231_material_1.jpg"}],"materials":[{"name":"DefaultMaterial","pbrMetallicRoughness":{"baseColorFactor":[0.6000000238418579,0.6000000238418579,0.6000000238418579,1.0],"metallicFactor":0.0},"extensions":{"KHR_materials_specular":{"specularFactor":1.0,"specularColorFactor":[0.0,0.0,0.0]},"KHR_materials_ior":{"ior":1.0}}},{"name":"material_0_material","pbrMetallicRoughness":{"baseColorTexture":{"index":0},"metallicFactor":0.0},"extensions":{"KHR_materials_specular":{"specularFactor":1.0,"specularColorFactor":[0.0,0.0,0.0]},"KHR_materials_ior":{"ior":1.0}}},{"name":"material_1_material","pbrMetallicRoughness":{"baseColorTexture":{"index":1},"metallicFactor":0.0},"extensions":{"KHR_materials_specular":{"specularFactor":1.0,"specularColorFactor":[0.0,0.0,0.0]},"KHR_materials_ior":{"ior":1.0}}}],"meshes":[{"name":"defaultobject","primitives":[{"mode":4,"material":1,"indices":2,"attributes":{"POSITION":0,"TEXCOORD_0":1}},{"mode":4,"material":2,"indices":5,"attributes":{"POSITION":3,"TEXCOORD_0":4}}]}],"nodes":[{"name":"tile_0231.obj","children":[1]},{"name":"defaultobject","mesh":0}],"samplers":[{},{}],"scenes":[{"nodes":[0]}],"textures":[{"source":0,"sampler":0},{"source":1,"sampler":1}],"scene":0}
