{"asset":{"version":"2.0","generator":"Open Asset Import Library (assimp v6.0.0)"},"extensionsUsed":["KHR_materials_specular","KHR_materials_volume","KHR_materials_ior","FB_ngon_encoding"],"accessors":[{"bufferView":0,"byteOffset":0,"componentType":5126,"count":3991,"type":"VEC3","max":[2.085423231124878,-0.968859851360321,1.9386227130889893],"min":[-0.4242003858089447,-1.148935079574585,2.2250738585072014e-308]},{"bufferView":1,"byteOffset":0,"componentType":5126,"count":3991,"type":"VEC2","max":[0.991790771484375,0.6249923706054688],"min":[2.2250738585072014e-308,2.2250738585072014e-308]},{"bufferView":2,"byteOffset":0,"componentType":5125,"count":15000,"type":"SCALAR","max":[3990],"min":[0]},{"bufferView":3,"byteOffset":0,"componentType":5126,"count":2076,"type":"VEC3","max":[-0.2964569926261902,-0.9861111044883728,1.9376683235168457],"min":[-0.4155476987361908,-1.148534893989563,2.2250738585072014e-308]},{"bufferView":4,"byteOffset":0,"componentType":5126,"count":2076,"type":"VEC2","max":[0.9031600952148438,0.8394279479980469],"min":[2.2250738585072014e-308,2.2250738585072014e-308]},{"bufferView":5,"byteOffset":0,"componentType":5125,"count":10002,"type":"SCALAR","max":[2075],"min":[0]}],"buffers":[{"byteLength":221348,"uri":"tile_0289.bin"}],"bufferViews":[{"buffer":0,"byteOffset":0,"byteLength":47892,"target":34962},{"buffer":0,"byteOffset":47892,"byteLength":31928,"target":34962},{"buffer":0,"byteOffset":79820,"byteLength":60000,"target":34963},{"buffer":0,"byteOffset":139820,"byteLength":24912,"target":34962},{"buffer":0,"byteOffset":164732,"byteLength":16608,"target":34962},{"buffer":0,"byteOffset":181340,"byteLength":40008,"target":34963}],"images":[{"uri":"../textures/tile_0289_material_0.jpg"},{"uri":"../textures/tile_0289_material_1.jpg"}],"materials":[{"name":"DefaultMaterial","pbrMetallicRoughness":{"baseColorFactor":[0.6000000238418579,0.6000000238418579,0.6000000238418579,1.0],"metallicFactor":0.0},"extensions":{"KHR_materials_specular":{"specularFactor":1.0,"specularColorFactor":[0.0,0.0,0.0]},"KHR_materials_ior":{"ior":1.0}}},{"name":"material_0_material","pbrMetallicRoughness":{"baseColorTexture":{"index":0},"metallicFactor":0.0},"extensions":{"KHR_materials_specular":{"specularFactor":1.0,"specularColorFactor":[0.0,0.0,0.0]},"KHR_materials_ior":{"ior":1.0}}},{"name":"material_1_material","pbrMetallicRoughness":{"baseColorTexture":{"index":1},"metallicFactor":0.0},"extensions":{"KHR_materials_specular":{"specularFactor":1.0,"specularColorFactor":[0.0,0.0,0.0]},"KHR_materials_ior":{"ior":1.0}}}],"meshes":[{"name":"defaultobject","primitives":[{"mode":4,"material":1,"indices":2,"attributes":{"POSITION":0,"TEXCOORD_0":1}},{"mode":4,"material":2,"indices":5,"attributes":{"POSITION":3,"TEXCOORD_0":4}}]}],"nodes":[{"name":"tile_0289.obj","children":[1]},{"name":"defaultobject","mesh":0}],"samplers":[{},{}],"scenes":[{"nodes":[0]}],"textures":[{"source":0,"sampler":0},{"source":1,"sampler":1}],"scene":0}
