{"asset":{"version":"2.0","generator":"Open Asset Import Library (assimp v6.0.0)"},"extensionsUsed":["KHR_materials_specular","KHR_materials_volume","KHR_materials_ior","FB_ngon_encoding"],"accessors":[{"bufferView":0,"byteOffset":0,"componentType":5126,"count":8528,"type":"VEC3","max":[3.553122043609619,-1.4973210096359253,0.17124079167842865],"min":[2.2250738585072014e-308,-1.8485890626907349,-0.27277839183807373]},{"bufferView":1,"byteOffset":0,"componentType":5126,"count":8528,"type":"VEC2","max":[0.9952147006988525,0.9764442443847656],"min":[2.2250738585072014e-308,2.2250738585072014e-308]},{"bufferView":2,"byteOffset":0,"componentType":5125,"count":36567,"type":"SCALAR","max":[8527],"min":[0]},{"bufferView":3,"byteOffset":0,"componentType":5126,"count":45,"type":"VEC3","max":[3.35434627532959,-1.7637571096420288,-0.18256790935993195],"min":[2.2250738585072014e-308,-1.816540241241455,-0.23320738971233368]},{"bufferView":4,"byteOffset":0,"componentType":5126,"count":45,"type":"VEC2","max":[0.7924728393554688,0.7618712186813354],"min":[2.2250738585072014e-308,2.2250738585072014e-308]},{"bufferView":5,"byteOffset":0,"componentType":5125,"count":162,"type":"SCALAR","max":[44],"min":[0]}],"buffers":[{"byteLength":318376,"uri":"tile_0628.bin"}],"bufferViews":[{"buffer":0,"byteOffset":0,"byteLength":102336,"target":34962},{"buffer":0,"byteOffset":102336,"byteLength":68224,"target":34962},{"buffer":0,"byteOffset":170560,"byteLength":146268,"target":34963},{"buffer":0,"byteOffset":316828,"byteLength":540,"target":34962},{"buffer":0,"byteOffset":317368,"byteLength":360,"target":34962},{"buffer":0,"byteOffset":317728,"byteLength":648,"target":34963}],"images":[{"uri":"../textures/tile_0628_material_0.jpg"},{"uri":"../textures/tile_0628_material_1.jpg"}],"materials":[{"name":"DefaultMaterial","pbrMetallicRoughness":{"baseColorFactor":[0.6000000238418579,0.6000000238418579,0.6000000238418579,1.0],"metallicFactor":0.0},"extensions":{"KHR_materials_specular":{"specularFactor":1.0,"specularColorFactor":[0.0,0.0,0.0]},"KHR_materials_ior":{"ior":1.0}}},{"name":"material_0_material","pbrMetallicRoughness":{"baseColorTexture":{"index":0},"metallicFactor":0.0},"extensions":{"KHR_materials_specular":{"specularFactor":1.0,"specularColorFactor":[0.0,0.0,0.0]},"KHR_materials_ior":{"ior":1.0}}},{"name":"material_1_material","pbrMetallicRoughness":{"baseColorTexture":{"index":1},"metallicFactor":0.0},"extensions":{"KHR_materials_specular":{"specularFactor":1.0,"specularColorFactor":[0.0,0.0,0.0]},"KHR_materials_ior":{"ior":1.0}}}],"meshes":[{"name":"defaultobject","primitives":[{"mode":4,"material":1,"indices":2,"attributes":{"POSITION":0,"TEXCOORD_0":1}},{"mode":4,"material":2,"indices":5,"attributes":{"POSITION":3,"TEXCOORD_0":4}}]}],"nodes":[{"name":"tile_0628.obj","children":[1]},{"name":"defaultobject","mesh":0}],"samplers":[{},{}],"scenes":[{"nodes":[0]}],"textures":[{"source":0,"sampler":0},{"source":1,"sampler":1}],"scene":0}
