{"asset":{"version":"2.0","generator":"Open Asset Import Library (assimp v6.0.0)"},"extensionsUsed":["KHR_materials_specular","KHR_materials_volume","KHR_materials_ior","FB_ngon_encoding"],"accessors":[{"bufferView":0,"byteOffset":0,"componentType":5126,"count":4489,"type":"VEC3","max":[1.460264801979065,0.1441405862569809,1.7901782989501953],"min":[-0.09745359420776367,-0.05711765214800835,2.2250738585072014e-308]},{"bufferView":1,"byteOffset":0,"componentType":5126,"count":4489,"type":"VEC2","max":[0.9907031059265137,0.6832447052001953],"min":[2.2250738585072014e-308,2.2250738585072014e-308]},{"bufferView":2,"byteOffset":0,"componentType":5125,"count":19566,"type":"SCALAR","max":[4488],"min":[0]},{"bufferView":3,"byteOffset":0,"componentType":5126,"count":1341,"type":"VEC3","max":[1.2046597003936768,0.12645158171653748,1.769961953163147],"min":[2.2250738585072014e-308,-0.03460172191262245,2.2250738585072014e-308]},{"bufferView":4,"byteOffset":0,"componentType":5126,"count":1341,"type":"VEC2","max":[0.5358978509902954,0.8907241821289062],"min":[2.2250738585072014e-308,2.2250738585072014e-308]},{"bufferView":5,"byteOffset":0,"componentType":5125,"count":6498,"type":"SCALAR","max":[1340],"min":[0]}],"buffers":[{"byteLength":220856,"uri":"tile_0404.bin"}],"bufferViews":[{"buffer":0,"byteOffset":0,"byteLength":53868,"target":34962},{"buffer":0,"byteOffset":53868,"byteLength":35912,"target":34962},{"buffer":0,"byteOffset":89780,"byteLength":78264,"target":34963},{"buffer":0,"byteOffset":168044,"byteLength":16092,"target":34962},{"buffer":0,"byteOffset":184136,"byteLength":10728,"target":34962},{"buffer":0,"byteOffset":194864,"byteLength":25992,"target":34963}],"images":[{"uri":"../textures/tile_0404_material_0.jpg"},{"uri":"../textures/tile_0404_material_1.jpg"}],"materials":[{"name":"DefaultMaterial","pbrMetallicRoughness":{"baseColorFactor":[0.6000000238418579,0.6000000238418579,0.6000000238418579,1.0],"metallicFactor":0.0},"extensions":{"KHR_materials_specular":{"specularFactor":1.0,"specularColorFactor":[0.0,0.0,0.0]},"KHR_materials_ior":{"ior":1.0}}},{"name":"material_0_material","pbrMetallicRoughness":{"baseColorTexture":{"index":0},"metallicFactor":0.0},"extensions":{"KHR_materials_specular":{"specularFactor":1.0,"specularColorFactor":[0.0,0.0,0.0]},"KHR_materials_ior":{"ior":1.0}}},{"name":"material_1_material","pbrMetallicRoughness":{"baseColorTexture":{"index":1},"metallicFactor":0.0},"extensions":{"KHR_materials_specular":{"specularFactor":1.0,"specularColorFactor":[0.0,0.0,0.0]},"KHR_materials_ior":{"ior":1.0}}}],"meshes":[{"name":"defaultobject","primitives":[{"mode":4,"material":1,"indices":2,"attributes":{"POSITION":0,"TEXCOORD_0":1}},{"mode":4,"material":2,"indices":5,"attributes":{"POSITION":3,"TEXCOORD_0":4}}]}],"nodes":[{"name":"tile_0404.obj","children":[1]},{"name":"defaultobject","mesh":0}],"samplers":[{},{}],"scenes":[{"nodes":[0]}],"textures":[{"source":0,"sampler":0},{"source":1,"sampler":1}],"scene":0}
