{"asset":{"version":"2.0","generator":"Open Asset Import Library (assimp v6.0.0)"},"extensionsUsed":["KHR_materials_specular","KHR_materials_volume","KHR_materials_ior","FB_ngon_encoding"],"accessors":[{"bufferView":0,"byteOffset":0,"componentType":5126,"count":5623,"type":"VEC3","max":[1.2584947347640991,-3.142383098602295,2.0659682750701904],"min":[2.2250738585072014e-308,-3.375112771987915,2.2250738585072014e-308]},{"bufferView":1,"byteOffset":0,"componentType":5126,"count":5623,"type":"VEC2","max":[0.9926474094390869,0.6247577667236328],"min":[2.2250738585072014e-308,2.2250738585072014e-308]},{"bufferView":2,"byteOffset":0,"componentType":5125,"count":23469,"type":"SCALAR","max":[5622],"min":[0]},{"bufferView":3,"byteOffset":0,"componentType":5126,"count":834,"type":"VEC3","max":[1.281859278678894,-3.14176344871521,2.0574913024902344],"min":[2.2250738585072014e-308,-3.2789604663848877,2.2250738585072014e-308]},{"bufferView":4,"byteOffset":0,"componentType":5126,"count":834,"type":"VEC2","max":[0.6991515159606934,0.9129791259765625],"min":[2.2250738585072014e-308,2.2250738585072014e-308]},{"bufferView":5,"byteOffset":0,"componentType":5125,"count":4209,"type":"SCALAR","max":[833],"min":[0]}],"buffers":[{"byteLength":239852,"uri":"tile_0323.bin"}],"bufferViews":[{"buffer":0,"byteOffset":0,"byteLength":67476,"target":34962},{"buffer":0,"byteOffset":67476,"byteLength":44984,"target":34962},{"buffer":0,"byteOffset":112460,"byteLength":93876,"target":34963},{"buffer":0,"byteOffset":206336,"byteLength":10008,"target":34962},{"buffer":0,"byteOffset":216344,"byteLength":6672,"target":34962},{"buffer":0,"byteOffset":223016,"byteLength":16836,"target":34963}],"images":[{"uri":"../textures/tile_0323_material_0.jpg"},{"uri":"../textures/tile_0323_material_1.jpg"}],"materials":[{"name":"DefaultMaterial","pbrMetallicRoughness":{"baseColorFactor":[0.6000000238418579,0.6000000238418579,0.6000000238418579,1.0],"metallicFactor":0.0},"extensions":{"KHR_materials_specular":{"specularFactor":1.0,"specularColorFactor":[0.0,0.0,0.0]},"KHR_materials_ior":{"ior":1.0}}},{"name":"material_0_material","pbrMetallicRoughness":{"baseColorTexture":{"index":0},"metallicFactor":0.0},"extensions":{"KHR_materials_specular":{"specularFactor":1.0,"specularColorFactor":[0.0,0.0,0.0]},"KHR_materials_ior":{"ior":1.0}}},{"name":"material_1_material","pbrMetallicRoughness":{"baseColorTexture":{"index":1},"metallicFactor":0.0},"extensions":{"KHR_materials_specular":{"specularFactor":1.0,"specularColorFactor":[0.0,0.0,0.0]},"KHR_materials_ior":{"ior":1.0}}}],"meshes":[{"name":"defaultobject","primitives":[{"mode":4,"material":1,"indices":2,"attributes":{"POSITION":0,"TEXCOORD_0":1}},{"mode":4,"material":2,"indices":5,"attributes":{"POSITION":3,"TEXCOORD_0":4}}]}],"nodes":[{"name":"tile_0323.obj","children":[1]},{"name":"defaultobject","mesh":0}],"samplers":[{},{}],"scenes":[{"nodes":[0]}],"textures":[{"source":0,"sampler":0},{"source":1,"sampler":1}],"scene":0}
