{"asset":{"version":"2.0","generator":"Open Asset Import Library (assimp v6.0.0)"},"extensionsUsed":["KHR_materials_specular","KHR_materials_volume","KHR_materials_ior","FB_ngon_encoding"],"accessors":[{"bufferView":0,"byteOffset":0,"componentType":5126,"count":3231,"type":"VEC3","max":[0.17467890679836273,-3.3601081371307373,4.722043037414551],"min":[-0.7518163323402405,-4.211854457855225,2.2250738585072014e-308]},{"bufferView":1,"byteOffset":0,"componentType":5126,"count":3231,"type":"VEC2","max":[0.991584300994873,0.5257186889648438],"min":[2.2250738585072014e-308,2.2250738585072014e-308]},{"bufferView":2,"byteOffset":0,"componentType":5125,"count":14925,"type":"SCALAR","max":[3230],"min":[0]},{"bufferView":3,"byteOffset":0,"componentType":5126,"count":1520,"type":"VEC3","max":[0.16364294290542603,-3.3843421936035156,4.71453332901001],"min":[-0.7199256420135498,-4.211854457855225,2.2250738585072014e-308]},{"bufferView":4,"byteOffset":0,"componentType":5126,"count":1520,"type":"VEC2","max":[0.8332281112670898,0.6614017486572266],"min":[2.2250738585072014e-308,2.2250738585072014e-308]},{"bufferView":5,"byteOffset":0,"componentType":5125,"count":7878,"type":"SCALAR","max":[1519],"min":[0]}],"buffers":[{"byteLength":186232,"uri":"tile_0341.bin"}],"bufferViews":[{"buffer":0,"byteOffset":0,"byteLength":38772,"target":34962},{"buffer":0,"byteOffset":38772,"byteLength":25848,"target":34962},{"buffer":0,"byteOffset":64620,"byteLength":59700,"target":34963},{"buffer":0,"byteOffset":124320,"byteLength":18240,"target":34962},{"buffer":0,"byteOffset":142560,"byteLength":12160,"target":34962},{"buffer":0,"byteOffset":154720,"byteLength":31512,"target":34963}],"images":[{"uri":"../textures/tile_0341_material_0.jpg"},{"uri":"../textures/tile_0341_material_1.jpg"}],"materials":[{"name":"DefaultMaterial","pbrMetallicRoughness":{"baseColorFactor":[0.6000000238418579,0.6000000238418579,0.6000000238418579,1.0],"metallicFactor":0.0},"extensions":{"KHR_materials_specular":{"specularFactor":1.0,"specularColorFactor":[0.0,0.0,0.0]},"KHR_materials_ior":{"ior":1.0}}},{"name":"material_0_material","pbrMetallicRoughness":{"baseColorTexture":{"index":0},"metallicFactor":0.0},"extensions":{"KHR_materials_specular":{"specularFactor":1.0,"specularColorFactor":[0.0,0.0,0.0]},"KHR_materials_ior":{"ior":1.0}}},{"name":"material_1_material","pbrMetallicRoughness":{"baseColorTexture":{"index":1},"metallicFactor":0.0},"extensions":{"KHR_materials_specular":{"specularFactor":1.0,"specularColorFactor":[0.0,0.0,0.0]},"KHR_materials_ior":{"ior":1.0}}}],"meshes":[{"name":"defaultobject","primitives":[{"mode":4,"material":1,"indices":2,"attributes":{"POSITION":0,"TEXCOORD_0":1}},{"mode":4,"material":2,"indices":5,"attributes":{"POSITION":3,"TEXCOORD_0":4}}]}],"nodes":[{"name":"tile_0341.obj","children":[1]},{"name":"defaultobject","mesh":0}],"samplers":[{},{}],"scenes":[{"nodes":[0]}],"textures":[{"source":0,"sampler":0},{"source":1,"sampler":1}],"scene":0}
