{"asset":{"version":"2.0","generator":"Open Asset Import Library (assimp v6.0.0)"},"extensionsUsed":["KHR_materials_specular","KHR_materials_volume","KHR_materials_ior","FB_ngon_encoding"],"accessors":[{"bufferView":0,"byteOffset":0,"componentType":5126,"count":6880,"type":"VEC3","max":[2.3854944705963135,-1.6785690784454346,1.2945667505264282],"min":[-0.10408078134059906,-1.9047508239746094,2.2250738585072014e-308]},{"bufferView":1,"byteOffset":0,"componentType":5126,"count":6880,"type":"VEC2","max":[0.9939370155334473,0.7382621765136719],"min":[2.2250738585072014e-308,2.2250738585072014e-308]},{"bufferView":2,"byteOffset":0,"componentType":5125,"count":25914,"type":"SCALAR","max":[6879],"min":[0]},{"bufferView":3,"byteOffset":0,"componentType":5126,"count":588,"type":"VEC3","max":[2.010307788848877,-1.6825708150863647,1.2638965845108032],"min":[-0.10864163935184479,-1.8303000926971436,2.2250738585072014e-308]},{"bufferView":4,"byteOffset":0,"componentType":5126,"count":588,"type":"VEC2","max":[0.8342266082763672,0.8409881591796875],"min":[2.2250738585072014e-308,2.2250738585072014e-308]},{"bufferView":5,"byteOffset":0,"componentType":5125,"count":2889,"type":"SCALAR","max":[587],"min":[0]}],"buffers":[{"byteLength":264572,"uri":"tile_0277.bin"}],"bufferViews":[{"buffer":0,"byteOffset":0,"byteLength":82560,"target":34962},{"buffer":0,"byteOffset":82560,"byteLength":55040,"target":34962},{"buffer":0,"byteOffset":137600,"byteLength":103656,"target":34963},{"buffer":0,"byteOffset":241256,"byteLength":7056,"target":34962},{"buffer":0,"byteOffset":248312,"byteLength":4704,"target":34962},{"buffer":0,"byteOffset":253016,"byteLength":11556,"target":34963}],"images":[{"uri":"../textures/tile_0277_material_0.jpg"},{"uri":"../textures/tile_0277_material_1.jpg"}],"materials":[{"name":"DefaultMaterial","pbrMetallicRoughness":{"baseColorFactor":[0.6000000238418579,0.6000000238418579,0.6000000238418579,1.0],"metallicFactor":0.0},"extensions":{"KHR_materials_specular":{"specularFactor":1.0,"specularColorFactor":[0.0,0.0,0.0]},"KHR_materials_ior":{"ior":1.0}}},{"name":"material_0_material","pbrMetallicRoughness":{"baseColorTexture":{"index":0},"metallicFactor":0.0},"extensions":{"KHR_materials_specular":{"specularFactor":1.0,"specularColorFactor":[0.0,0.0,0.0]},"KHR_materials_ior":{"ior":1.0}}},{"name":"material_1_material","pbrMetallicRoughness":{"baseColorTexture":{"index":1},"metallicFactor":0.0},"extensions":{"KHR_materials_specular":{"specularFactor":1.0,"specularColorFactor":[0.0,0.0,0.0]},"KHR_materials_ior":{"ior":1.0}}}],"meshes":[{"name":"defaultobject","primitives":[{"mode":4,"material":1,"indices":2,"attributes":{"POSITION":0,"TEXCOORD_0":1}},{"mode":4,"material":2,"indices":5,"attributes":{"POSITION":3,"TEXCOORD_0":4}}]}],"nodes":[{"name":"tile_0277.obj","children":[1]},{"name":"defaultobject","mesh":0}],"samplers":[{},{}],"scenes":[{"nodes":[0]}],"textures":[{"source":0,"sampler":0},{"source":1,"sampler":1}],"scene":0}
