{"asset":{"version":"2.0","generator":"Open Asset Import Library (assimp v6.0.0)"},"extensionsUsed":["KHR_materials_specular","KHR_materials_volume","KHR_materials_ior","FB_ngon_encoding"],"accessors":[{"bufferView":0,"byteOffset":0,"componentType":5126,"count":3463,"type":"VEC3","max":[2.1449029445648193,-1.1292766332626343,1.7372992038726807],"min":[-0.43935444951057434,-1.344758152961731,2.2250738585072014e-308]},{"bufferView":1,"byteOffset":0,"componentType":5126,"count":3463,"type":"VEC2","max":[0.9943733215332031,0.6831893920898438],"min":[2.2250738585072014e-308,2.2250738585072014e-308]},{"bufferView":2,"byteOffset":0,"componentType":5125,"count":13281,"type":"SCALAR","max":[3462],"min":[0]},{"bufferView":3,"byteOffset":0,"componentType":5126,"count":1728,"type":"VEC3","max":[-0.38369184732437134,-1.1451672315597534,1.7229260206222534],"min":[-0.4404946565628052,-1.2964674234390259,2.2250738585072014e-308]},{"bufferView":4,"byteOffset":0,"componentType":5126,"count":1728,"type":"VEC2","max":[0.7249660491943359,0.6039276123046875],"min":[2.2250738585072014e-308,2.2250738585072014e-308]},{"bufferView":5,"byteOffset":0,"componentType":5125,"count":8349,"type":"SCALAR","max":[1727],"min":[0]}],"buffers":[{"byteLength":190340,"uri":"tile_0292.bin"}],"bufferViews":[{"buffer":0,"byteOffset":0,"byteLength":41556,"target":34962},{"buffer":0,"byteOffset":41556,"byteLength":27704,"target":34962},{"buffer":0,"byteOffset":69260,"byteLength":53124,"target":34963},{"buffer":0,"byteOffset":122384,"byteLength":20736,"target":34962},{"buffer":0,"byteOffset":143120,"byteLength":13824,"target":34962},{"buffer":0,"byteOffset":156944,"byteLength":33396,"target":34963}],"images":[{"uri":"../textures/tile_0292_material_0.jpg"},{"uri":"../textures/tile_0292_material_1.jpg"}],"materials":[{"name":"DefaultMaterial","pbrMetallicRoughness":{"baseColorFactor":[0.6000000238418579,0.6000000238418579,0.6000000238418579,1.0],"metallicFactor":0.0},"extensions":{"KHR_materials_specular":{"specularFactor":1.0,"specularColorFactor":[0.0,0.0,0.0]},"KHR_materials_ior":{"ior":1.0}}},{"name":"material_0_material","pbrMetallicRoughness":{"baseColorTexture":{"index":0},"metallicFactor":0.0},"extensions":{"KHR_materials_specular":{"specularFactor":1.0,"specularColorFactor":[0.0,0.0,0.0]},"KHR_materials_ior":{"ior":1.0}}},{"name":"material_1_material","pbrMetallicRoughness":{"baseColorTexture":{"index":1},"metallicFactor":0.0},"extensions":{"KHR_materials_specular":{"specularFactor":1.0,"specularColorFactor":[0.0,0.0,0.0]},"KHR_materials_ior":{"ior":1.0}}}],"meshes":[{"name":"defaultobject","primitives":[{"mode":4,"material":1,"indices":2,"attributes":{"POSITION":0,"TEXCOORD_0":1}},{"mode":4,"material":2,"indices":5,"attributes":{"POSITION":3,"TEXCOORD_0":4}}]}],"nodes":[{"name":"tile_0292.obj","children":[1]},{"name":"defaultobject","mesh":0}],"samplers":[{},{}],"scenes":[{"nodes":[0]}],"textures":[{"source":0,"sampler":0},{"source":1,"sampler":1}],"scene":0}
