{"asset":{"version":"2.0","generator":"Open Asset Import Library (assimp v6.0.0)"},"extensionsUsed":["KHR_materials_specular","KHR_materials_volume","KHR_materials_ior","FB_ngon_encoding"],"accessors":[{"bufferView":0,"byteOffset":0,"componentType":5126,"count":2463,"type":"VEC3","max":[0.400043785572052,-3.374429702758789,3.927582263946533],"min":[-0.16375355422496796,-4.215067386627197,2.2250738585072014e-308]},{"bufferView":1,"byteOffset":0,"componentType":5126,"count":2463,"type":"VEC2","max":[0.9841775894165039,0.5068349838256836],"min":[2.2250738585072014e-308,2.2250738585072014e-308]},{"bufferView":2,"byteOffset":0,"componentType":5125,"count":10905,"type":"SCALAR","max":[2462],"min":[0]},{"bufferView":3,"byteOffset":0,"componentType":5126,"count":963,"type":"VEC3","max":[0.3010403513908386,-3.3864405155181885,3.9109630584716797],"min":[-0.0307672880589962,-4.2133355140686035,2.2250738585072014e-308]},{"bufferView":4,"byteOffset":0,"componentType":5126,"count":963,"type":"VEC2","max":[0.9718914031982422,0.874267578125],"min":[2.2250738585072014e-308,2.2250738585072014e-308]},{"bufferView":5,"byteOffset":0,"componentType":5125,"count":4767,"type":"SCALAR","max":[962],"min":[0]}],"buffers":[{"byteLength":131208,"uri":"tile_0340.bin"}],"bufferViews":[{"buffer":0,"byteOffset":0,"byteLength":29556,"target":34962},{"buffer":0,"byteOffset":29556,"byteLength":19704,"target":34962},{"buffer":0,"byteOffset":49260,"byteLength":43620,"target":34963},{"buffer":0,"byteOffset":92880,"byteLength":11556,"target":34962},{"buffer":0,"byteOffset":104436,"byteLength":7704,"target":34962},{"buffer":0,"byteOffset":112140,"byteLength":19068,"target":34963}],"images":[{"uri":"../textures/tile_0340_material_0.jpg"},{"uri":"../textures/tile_0340_material_1.jpg"}],"materials":[{"name":"DefaultMaterial","pbrMetallicRoughness":{"baseColorFactor":[0.6000000238418579,0.6000000238418579,0.6000000238418579,1.0],"metallicFactor":0.0},"extensions":{"KHR_materials_specular":{"specularFactor":1.0,"specularColorFactor":[0.0,0.0,0.0]},"KHR_materials_ior":{"ior":1.0}}},{"name":"material_0_material","pbrMetallicRoughness":{"baseColorTexture":{"index":0},"metallicFactor":0.0},"extensions":{"KHR_materials_specular":{"specularFactor":1.0,"specularColorFactor":[0.0,0.0,0.0]},"KHR_materials_ior":{"ior":1.0}}},{"name":"material_1_material","pbrMetallicRoughness":{"baseColorTexture":{"index":1},"metallicFactor":0.0},"extensions":{"KHR_materials_specular":{"specularFactor":1.0,"specularColorFactor":[0.0,0.0,0.0]},"KHR_materials_ior":{"ior":1.0}}}],"meshes":[{"name":"defaultobject","primitives":[{"mode":4,"material":1,"indices":2,"attributes":{"POSITION":0,"TEXCOORD_0":1}},{"mode":4,"material":2,"indices":5,"attributes":{"POSITION":3,"TEXCOORD_0":4}}]}],"nodes":[{"name":"tile_0340.obj","children":[1]},{"name":"defaultobject","mesh":0}],"samplers":[{},{}],"scenes":[{"nodes":[0]}],"textures":[{"source":0,"sampler":0},{"source":1,"sampler":1}],"scene":0}
