{"asset":{"version":"2.0","generator":"Open Asset Import Library (assimp v6.0.0)"},"extensionsUsed":["KHR_materials_specular","KHR_materials_volume","KHR_materials_ior","FB_ngon_encoding"],"accessors":[{"bufferView":0,"byteOffset":0,"componentType":5126,"count":2469,"type":"VEC3","max":[2.0000174045562744,-0.23741920292377472,1.517323613166809],"min":[-0.1400454342365265,-0.34735119342803955,2.2250738585072014e-308]},{"bufferView":1,"byteOffset":0,"componentType":5126,"count":2469,"type":"VEC2","max":[0.9937171936035156,0.7186927795410156],"min":[2.2250738585072014e-308,2.2250738585072014e-308]},{"bufferView":2,"byteOffset":0,"componentType":5125,"count":8664,"type":"SCALAR","max":[2468],"min":[0]},{"bufferView":3,"byteOffset":0,"componentType":5126,"count":1850,"type":"VEC3","max":[1.3602588176727295,-0.22784587740898132,1.5180779695510864],"min":[-0.12901794910430908,-0.3446342349052429,2.2250738585072014e-308]},{"bufferView":4,"byteOffset":0,"componentType":5126,"count":1850,"type":"VEC2","max":[0.7948436737060547,0.7140426635742188],"min":[2.2250738585072014e-308,2.2250738585072014e-308]},{"bufferView":5,"byteOffset":0,"componentType":5125,"count":8568,"type":"SCALAR","max":[1849],"min":[0]}],"buffers":[{"byteLength":155308,"uri":"tile_0474.bin"}],"bufferViews":[{"buffer":0,"byteOffset":0,"byteLength":29628,"target":34962},{"buffer":0,"byteOffset":29628,"byteLength":19752,"target":34962},{"buffer":0,"byteOffset":49380,"byteLength":34656,"target":34963},{"buffer":0,"byteOffset":84036,"byteLength":22200,"target":34962},{"buffer":0,"byteOffset":106236,"byteLength":14800,"target":34962},{"buffer":0,"byteOffset":121036,"byteLength":34272,"target":34963}],"images":[{"uri":"../textures/tile_0474_material_0.jpg"},{"uri":"../textures/tile_0474_material_1.jpg"}],"materials":[{"name":"DefaultMaterial","pbrMetallicRoughness":{"baseColorFactor":[0.6000000238418579,0.6000000238418579,0.6000000238418579,1.0],"metallicFactor":0.0},"extensions":{"KHR_materials_specular":{"specularFactor":1.0,"specularColorFactor":[0.0,0.0,0.0]},"KHR_materials_ior":{"ior":1.0}}},{"name":"material_0_material","pbrMetallicRoughness":{"baseColorTexture":{"index":0},"metallicFactor":0.0},"extensions":{"KHR_materials_specular":{"specularFactor":1.0,"specularColorFactor":[0.0,0.0,0.0]},"KHR_materials_ior":{"ior":1.0}}},{"name":"material_1_material","pbrMetallicRoughness":{"baseColorTexture":{"index":1},"metallicFactor":0.0},"extensions":{"KHR_materials_specular":{"specularFactor":1.0,"specularColorFactor":[0.0,0.0,0.0]},"KHR_materials_ior":{"ior":1.0}}}],"meshes":[{"name":"defaultobject","primitives":[{"mode":4,"material":1,"indices":2,"attributes":{"POSITION":0,"TEXCOORD_0":1}},{"mode":4,"material":2,"indices":5,"attributes":{"POSITION":3,"TEXCOORD_0":4}}]}],"nodes":[{"name":"tile_0474.obj","children":[1]},{"name":"defaultobject","mesh":0}],"samplers":[{},{}],"scenes":[{"nodes":[0]}],"textures":[{"source":0,"sampler":0},{"source":1,"sampler":1}],"scene":0}
