{"asset":{"version":"2.0","generator":"Open Asset Import Library (assimp v6.0.0)"},"extensionsUsed":["KHR_materials_specular","KHR_materials_volume","KHR_materials_ior","FB_ngon_encoding"],"accessors":[{"bufferView":0,"byteOffset":0,"componentType":5126,"count":4610,"type":"VEC3","max":[3.223848819732666,-0.7154259085655212,0.15088433027267456],"min":[2.2250738585072014e-308,-0.7976996302604675,2.2250738585072014e-308]},{"bufferView":1,"byteOffset":0,"componentType":5126,"count":4610,"type":"VEC2","max":[0.9919872283935547,0.6207199096679688],"min":[2.2250738585072014e-308,2.2250738585072014e-308]},{"bufferView":2,"byteOffset":0,"componentType":5125,"count":13887,"type":"SCALAR","max":[4609],"min":[0]},{"bufferView":3,"byteOffset":0,"componentType":5126,"count":1422,"type":"VEC3","max":[0.8015274405479431,-0.7171127796173096,0.1464807093143463],"min":[2.2250738585072014e-308,-0.7830418944358826,2.2250738585072014e-308]},{"bufferView":4,"byteOffset":0,"componentType":5126,"count":1422,"type":"VEC2","max":[0.9480257034301758,0.6800575256347656],"min":[2.2250738585072014e-308,2.2250738585072014e-308]},{"bufferView":5,"byteOffset":0,"componentType":5125,"count":6807,"type":"SCALAR","max":[1421],"min":[0]}],"buffers":[{"byteLength":203416,"uri":"tile_0494.bin"}],"bufferViews":[{"buffer":0,"byteOffset":0,"byteLength":55320,"target":34962},{"buffer":0,"byteOffset":55320,"byteLength":36880,"target":34962},{"buffer":0,"byteOffset":92200,"byteLength":55548,"target":34963},{"buffer":0,"byteOffset":147748,"byteLength":17064,"target":34962},{"buffer":0,"byteOffset":164812,"byteLength":11376,"target":34962},{"buffer":0,"byteOffset":176188,"byteLength":27228,"target":34963}],"images":[{"uri":"../textures/tile_0494_material_0.jpg"},{"uri":"../textures/tile_0494_material_1.jpg"}],"materials":[{"name":"DefaultMaterial","pbrMetallicRoughness":{"baseColorFactor":[0.6000000238418579,0.6000000238418579,0.6000000238418579,1.0],"metallicFactor":0.0},"extensions":{"KHR_materials_specular":{"specularFactor":1.0,"specularColorFactor":[0.0,0.0,0.0]},"KHR_materials_ior":{"ior":1.0}}},{"name":"material_0_material","pbrMetallicRoughness":{"baseColorTexture":{"index":0},"metallicFactor":0.0},"extensions":{"KHR_materials_specular":{"specularFactor":1.0,"specularColorFactor":[0.0,0.0,0.0]},"KHR_materials_ior":{"ior":1.0}}},{"name":"material_1_material","pbrMetallicRoughness":{"baseColorTexture":{"index":1},"metallicFactor":0.0},"extensions":{"KHR_materials_specular":{"specularFactor":1.0,"specularColorFactor":[0.0,0.0,0.0]},"KHR_materials_ior":{"ior":1.0}}}],"meshes":[{"name":"defaultobject","primitives":[{"mode":4,"material":1,"indices":2,"attributes":{"POSITION":0,"TEXCOORD_0":1}},{"mode":4,"material":2,"indices":5,"attributes":{"POSITION":3,"TEXCOORD_0":4}}]}],"nodes":[{"name":"tile_0494.obj","children":[1]},{"name":"defaultobject","mesh":0}],"samplers":[{},{}],"scenes":[{"nodes":[0]}],"textures":[{"source":0,"sampler":0},{"source":1,"sampler":1}],"scene":0}
