{"asset":{"version":"2.0","generator":"Open Asset Import Library (assimp v6.0.0)"},"extensionsUsed":["KHR_materials_specular","KHR_materials_volume","KHR_materials_ior","FB_ngon_encoding"],"accessors":[{"bufferView":0,"byteOffset":0,"componentType":5126,"count":2527,"type":"VEC3","max":[1.3388370275497437,-2.345050096511841,1.5489795207977295],"min":[-0.08275485038757324,-2.5365819931030273,2.2250738585072014e-308]},{"bufferView":1,"byteOffset":0,"componentType":5126,"count":2527,"type":"VEC2","max":[0.9619342088699341,0.8004379272460938],"min":[2.2250738585072014e-308,2.2250738585072014e-308]},{"bufferView":2,"byteOffset":0,"componentType":5125,"count":10542,"type":"SCALAR","max":[2526],"min":[0]},{"bufferView":3,"byteOffset":0,"componentType":5126,"count":1868,"type":"VEC3","max":[1.3396344184875488,-2.3455443382263184,1.5504761934280396],"min":[-0.08116559684276581,-2.535761594772339,2.2250738585072014e-308]},{"bufferView":4,"byteOffset":0,"componentType":5126,"count":1868,"type":"VEC2","max":[0.6199264526367188,0.7683124542236328],"min":[2.2250738585072014e-308,2.2250738585072014e-308]},{"bufferView":5,"byteOffset":0,"componentType":5125,"count":9135,"type":"SCALAR","max":[1867],"min":[0]}],"buffers":[{"byteLength":166608,"uri":"tile_0261.bin"}],"bufferViews":[{"buffer":0,"byteOffset":0,"byteLength":30324,"target":34962},{"buffer":0,"byteOffset":30324,"byteLength":20216,"target":34962},{"buffer":0,"byteOffset":50540,"byteLength":42168,"target":34963},{"buffer":0,"byteOffset":92708,"byteLength":22416,"target":34962},{"buffer":0,"byteOffset":115124,"byteLength":14944,"target":34962},{"buffer":0,"byteOffset":130068,"byteLength":36540,"target":34963}],"images":[{"uri":"../textures/tile_0261_material_0.jpg"},{"uri":"../textures/tile_0261_material_1.jpg"}],"materials":[{"name":"DefaultMaterial","pbrMetallicRoughness":{"baseColorFactor":[0.6000000238418579,0.6000000238418579,0.6000000238418579,1.0],"metallicFactor":0.0},"extensions":{"KHR_materials_specular":{"specularFactor":1.0,"specularColorFactor":[0.0,0.0,0.0]},"KHR_materials_ior":{"ior":1.0}}},{"name":"material_0_material","pbrMetallicRoughness":{"baseColorTexture":{"index":0},"metallicFactor":0.0},"extensions":{"KHR_materials_specular":{"specularFactor":1.0,"specularColorFactor":[0.0,0.0,0.0]},"KHR_materials_ior":{"ior":1.0}}},{"name":"material_1_material","pbrMetallicRoughness":{"baseColorTexture":{"index":1},"metallicFactor":0.0},"extensions":{"KHR_materials_specular":{"specularFactor":1.0,"specularColorFactor":[0.0,0.0,0.0]},"KHR_materials_ior":{"ior":1.0}}}],"meshes":[{"name":"defaultobject","primitives":[{"mode":4,"material":1,"indices":2,"attributes":{"POSITION":0,"TEXCOORD_0":1}},{"mode":4,"material":2,"indices":5,"attributes":{"POSITION":3,"TEXCOORD_0":4}}]}],"nodes":[{"name":"tile_0261.obj","children":[1]},{"name":"defaultobject","mesh":0}],"samplers":[{},{}],"scenes":[{"nodes":[0]}],"textures":[{"source":0,"sampler":0},{"source":1,"sampler":1}],"scene":0}
