{"asset":{"version":"2.0","generator":"Open Asset Import Library (assimp v6.0.0)"},"extensionsUsed":["KHR_materials_specular","KHR_materials_volume","KHR_materials_ior","FB_ngon_encoding"],"accessors":[{"bufferView":0,"byteOffset":0,"componentType":5126,"count":8044,"type":"VEC3","max":[3.4128785133361816,-0.0454915389418602,0.09652812033891678],"min":[2.2250738585072014e-308,-0.19237272441387177,2.2250738585072014e-308]},{"bufferView":1,"byteOffset":0,"componentType":5126,"count":8044,"type":"VEC2","max":[0.9952454566955566,0.7265377044677734],"min":[2.2250738585072014e-308,2.2250738585072014e-308]},{"bufferView":2,"byteOffset":0,"componentType":5125,"count":24051,"type":"SCALAR","max":[8043],"min":[0]},{"bufferView":3,"byteOffset":0,"componentType":5126,"count":233,"type":"VEC3","max":[3.135322332382202,-0.04846304655075073,0.09429474174976349],"min":[2.2250738585072014e-308,-0.1847822368144989,2.2250738585072014e-308]},{"bufferView":4,"byteOffset":0,"componentType":5126,"count":233,"type":"VEC2","max":[0.5896835327148438,0.8673667907714844],"min":[2.2250738585072014e-308,2.2250738585072014e-308]},{"bufferView":5,"byteOffset":0,"componentType":5125,"count":1005,"type":"SCALAR","max":[232],"min":[0]}],"buffers":[{"byteLength":265764,"uri":"tile_0089.bin"}],"bufferViews":[{"buffer":0,"byteOffset":0,"byteLength":96528,"target":34962},{"buffer":0,"byteOffset":96528,"byteLength":64352,"target":34962},{"buffer":0,"byteOffset":160880,"byteLength":96204,"target":34963},{"buffer":0,"byteOffset":257084,"byteLength":2796,"target":34962},{"buffer":0,"byteOffset":259880,"byteLength":1864,"target":34962},{"buffer":0,"byteOffset":261744,"byteLength":4020,"target":34963}],"images":[{"uri":"../textures/tile_0089_material_0.jpg"},{"uri":"../textures/tile_0089_material_1.jpg"}],"materials":[{"name":"DefaultMaterial","pbrMetallicRoughness":{"baseColorFactor":[0.6000000238418579,0.6000000238418579,0.6000000238418579,1.0],"metallicFactor":0.0},"extensions":{"KHR_materials_specular":{"specularFactor":1.0,"specularColorFactor":[0.0,0.0,0.0]},"KHR_materials_ior":{"ior":1.0}}},{"name":"material_0_material","pbrMetallicRoughness":{"baseColorTexture":{"index":0},"metallicFactor":0.0},"extensions":{"KHR_materials_specular":{"specularFactor":1.0,"specularColorFactor":[0.0,0.0,0.0]},"KHR_materials_ior":{"ior":1.0}}},{"name":"material_1_material","pbrMetallicRoughness":{"baseColorTexture":{"index":1},"metallicFactor":0.0},"extensions":{"KHR_materials_specular":{"specularFactor":1.0,"specularColorFactor":[0.0,0.0,0.0]},"KHR_materials_ior":{"ior":1.0}}}],"meshes":[{"name":"defaultobject","primitives":[{"mode":4,"material":1,"indices":2,"attributes":{"POSITION":0,"TEXCOORD_0":1}},{"mode":4,"material":2,"indices":5,"attributes":{"POSITION":3,"TEXCOORD_0":4}}]}],"nodes":[{"name":"tile_0089.obj","children":[1]},{"name":"defaultobject","mesh":0}],"samplers":[{},{}],"scenes":[{"nodes":[0]}],"textures":[{"source":0,"sampler":0},{"source":1,"sampler":1}],"scene":0}
