{"asset":{"version":"2.0","generator":"Open Asset Import Library (assimp v6.0.0)"},"extensionsUsed":["KHR_materials_specular","KHR_materials_volume","KHR_materials_ior","FB_ngon_encoding"],"accessors":[{"bufferView":0,"byteOffset":0,"componentType":5126,"count":5279,"type":"VEC3","max":[3.0829925537109375,0.2643129825592041,0.7947203516960144],"min":[2.2250738585072014e-308,2.2250738585072014e-308,2.2250738585072014e-308]},{"bufferView":1,"byteOffset":0,"componentType":5126,"count":5279,"type":"VEC2","max":[0.9956550598144531,0.734283447265625],"min":[2.2250738585072014e-308,2.2250738585072014e-308]},{"bufferView":2,"byteOffset":0,"componentType":5125,"count":23916,"type":"SCALAR","max":[5278],"min":[0]},{"bufferView":3,"byteOffset":0,"componentType":5126,"count":1247,"type":"VEC3","max":[3.0815978050231934,0.2880650758743286,0.7947203516960144],"min":[2.2250738585072014e-308,2.2250738585072014e-308,2.2250738585072014e-308]},{"bufferView":4,"byteOffset":0,"componentType":5126,"count":1247,"type":"VEC2","max":[0.712428092956543,0.9275283813476562],"min":[2.2250738585072014e-308,2.2250738585072014e-308]},{"bufferView":5,"byteOffset":0,"componentType":5125,"count":6342,"type":"SCALAR","max":[1246],"min":[0]}],"buffers":[{"byteLength":251552,"uri":"tile_0454.bin"}],"bufferViews":[{"buffer":0,"byteOffset":0,"byteLength":63348,"target":34962},{"buffer":0,"byteOffset":63348,"byteLength":42232,"target":34962},{"buffer":0,"byteOffset":105580,"byteLength":95664,"target":34963},{"buffer":0,"byteOffset":201244,"byteLength":14964,"target":34962},{"buffer":0,"byteOffset":216208,"byteLength":9976,"target":34962},{"buffer":0,"byteOffset":226184,"byteLength":25368,"target":34963}],"images":[{"uri":"../textures/tile_0454_material_0.jpg"},{"uri":"../textures/tile_0454_material_1.jpg"}],"materials":[{"name":"DefaultMaterial","pbrMetallicRoughness":{"baseColorFactor":[0.6000000238418579,0.6000000238418579,0.6000000238418579,1.0],"metallicFactor":0.0},"extensions":{"KHR_materials_specular":{"specularFactor":1.0,"specularColorFactor":[0.0,0.0,0.0]},"KHR_materials_ior":{"ior":1.0}}},{"name":"material_0_material","pbrMetallicRoughness":{"baseColorTexture":{"index":0},"metallicFactor":0.0},"extensions":{"KHR_materials_specular":{"specularFactor":1.0,"specularColorFactor":[0.0,0.0,0.0]},"KHR_materials_ior":{"ior":1.0}}},{"name":"material_1_material","pbrMetallicRoughness":{"baseColorTexture":{"index":1},"metallicFactor":0.0},"extensions":{"KHR_materials_specular":{"specularFactor":1.0,"specularColorFactor":[0.0,0.0,0.0]},"KHR_materials_ior":{"ior":1.0}}}],"meshes":[{"name":"defaultobject","primitives":[{"mode":4,"material":1,"indices":2,"attributes":{"POSITION":0,"TEXCOORD_0":1}},{"mode":4,"material":2,"indices":5,"attributes":{"POSITION":3,"TEXCOORD_0":4}}]}],"nodes":[{"name":"tile_0454.obj","children":[1]},{"name":"defaultobject","mesh":0}],"samplers":[{},{}],"scenes":[{"nodes":[0]}],"textures":[{"source":0,"sampler":0},{"source":1,"sampler":1}],"scene":0}
