{"asset":{"version":"2.0","generator":"Open Asset Import Library (assimp v6.0.0)"},"extensionsUsed":["KHR_materials_specular","KHR_materials_volume","KHR_materials_ior","FB_ngon_encoding"],"accessors":[{"bufferView":0,"byteOffset":0,"componentType":5126,"count":3683,"type":"VEC3","max":[0.7937688827514648,-1.1981122493743896,3.0262389183044434],"min":[-0.14189350605010986,-1.4091475009918213,2.2250738585072014e-308]},{"bufferView":1,"byteOffset":0,"componentType":5126,"count":3683,"type":"VEC2","max":[0.9794921875,0.931793212890625],"min":[2.2250738585072014e-308,2.2250738585072014e-308]},{"bufferView":2,"byteOffset":0,"componentType":5125,"count":17526,"type":"SCALAR","max":[3682],"min":[0]},{"bufferView":3,"byteOffset":0,"componentType":5126,"count":1091,"type":"VEC3","max":[0.6821872591972351,-1.1836824417114258,3.0268516540527344],"min":[2.2250738585072014e-308,-1.3750829696655273,2.2250738585072014e-308]},{"bufferView":4,"byteOffset":0,"componentType":5126,"count":1091,"type":"VEC2","max":[0.8214130401611328,0.6274642944335938],"min":[2.2250738585072014e-308,2.2250738585072014e-308]},{"bufferView":5,"byteOffset":0,"componentType":5125,"count":5691,"type":"SCALAR","max":[1090],"min":[0]}],"buffers":[{"byteLength":188348,"uri":"tile_0351.bin"}],"bufferViews":[{"buffer":0,"byteOffset":0,"byteLength":44196,"target":34962},{"buffer":0,"byteOffset":44196,"byteLength":29464,"target":34962},{"buffer":0,"byteOffset":73660,"byteLength":70104,"target":34963},{"buffer":0,"byteOffset":143764,"byteLength":13092,"target":34962},{"buffer":0,"byteOffset":156856,"byteLength":8728,"target":34962},{"buffer":0,"byteOffset":165584,"byteLength":22764,"target":34963}],"images":[{"uri":"../textures/tile_0351_material_0.jpg"},{"uri":"../textures/tile_0351_material_1.jpg"}],"materials":[{"name":"DefaultMaterial","pbrMetallicRoughness":{"baseColorFactor":[0.6000000238418579,0.6000000238418579,0.6000000238418579,1.0],"metallicFactor":0.0},"extensions":{"KHR_materials_specular":{"specularFactor":1.0,"specularColorFactor":[0.0,0.0,0.0]},"KHR_materials_ior":{"ior":1.0}}},{"name":"material_0_material","pbrMetallicRoughness":{"baseColorTexture":{"index":0},"metallicFactor":0.0},"extensions":{"KHR_materials_specular":{"specularFactor":1.0,"specularColorFactor":[0.0,0.0,0.0]},"KHR_materials_ior":{"ior":1.0}}},{"name":"material_1_material","pbrMetallicRoughness":{"baseColorTexture":{"index":1},"metallicFactor":0.0},"extensions":{"KHR_materials_specular":{"specularFactor":1.0,"specularColorFactor":[0.0,0.0,0.0]},"KHR_materials_ior":{"ior":1.0}}}],"meshes":[{"name":"defaultobject","primitives":[{"mode":4,"material":1,"indices":2,"attributes":{"POSITION":0,"TEXCOORD_0":1}},{"mode":4,"material":2,"indices":5,"attributes":{"POSITION":3,"TEXCOORD_0":4}}]}],"nodes":[{"name":"tile_0351.obj","children":[1]},{"name":"defaultobject","mesh":0}],"samplers":[{},{}],"scenes":[{"nodes":[0]}],"textures":[{"source":0,"sampler":0},{"source":1,"sampler":1}],"scene":0}
