{"asset":{"version":"2.0","generator":"Open Asset Import Library (assimp v6.0.0)"},"extensionsUsed":["KHR_materials_specular","KHR_materials_volume","KHR_materials_ior","FB_ngon_encoding"],"accessors":[{"bufferView":0,"byteOffset":0,"componentType":5126,"count":1689,"type":"VEC3","max":[1.8685206174850464,-1.2559294700622559,1.7379662990570068],"min":[-0.44316044449806213,-1.5233674049377441,2.2250738585072014e-308]},{"bufferView":1,"byteOffset":0,"componentType":5126,"count":1689,"type":"VEC2","max":[0.9874510765075684,0.8278541564941406],"min":[2.2250738585072014e-308,2.2250738585072014e-308]},{"bufferView":2,"byteOffset":0,"componentType":5125,"count":6582,"type":"SCALAR","max":[1688],"min":[0]},{"bufferView":3,"byteOffset":0,"componentType":5126,"count":2773,"type":"VEC3","max":[-0.3913019299507141,-1.2930394411087036,1.7218801975250244],"min":[-0.44336557388305664,-1.5247328281402588,2.2250738585072014e-308]},{"bufferView":4,"byteOffset":0,"componentType":5126,"count":2773,"type":"VEC2","max":[0.6420431137084961,0.7405242919921875],"min":[2.2250738585072014e-308,2.2250738585072014e-308]},{"bufferView":5,"byteOffset":0,"componentType":5125,"count":14394,"type":"SCALAR","max":[2772],"min":[0]}],"buffers":[{"byteLength":173144,"uri":"tile_0295.bin"}],"bufferViews":[{"buffer":0,"byteOffset":0,"byteLength":20268,"target":34962},{"buffer":0,"byteOffset":20268,"byteLength":13512,"target":34962},{"buffer":0,"byteOffset":33780,"byteLength":26328,"target":34963},{"buffer":0,"byteOffset":60108,"byteLength":33276,"target":34962},{"buffer":0,"byteOffset":93384,"byteLength":22184,"target":34962},{"buffer":0,"byteOffset":115568,"byteLength":57576,"target":34963}],"images":[{"uri":"../textures/tile_0295_material_0.jpg"},{"uri":"../textures/tile_0295_material_1.jpg"}],"materials":[{"name":"DefaultMaterial","pbrMetallicRoughness":{"baseColorFactor":[0.6000000238418579,0.6000000238418579,0.6000000238418579,1.0],"metallicFactor":0.0},"extensions":{"KHR_materials_specular":{"specularFactor":1.0,"specularColorFactor":[0.0,0.0,0.0]},"KHR_materials_ior":{"ior":1.0}}},{"name":"material_0_material","pbrMetallicRoughness":{"baseColorTexture":{"index":0},"metallicFactor":0.0},"extensions":{"KHR_materials_specular":{"specularFactor":1.0,"specularColorFactor":[0.0,0.0,0.0]},"KHR_materials_ior":{"ior":1.0}}},{"name":"material_1_material","pbrMetallicRoughness":{"baseColorTexture":{"index":1},"metallicFactor":0.0},"extensions":{"KHR_materials_specular":{"specularFactor":1.0,"specularColorFactor":[0.0,0.0,0.0]},"KHR_materials_ior":{"ior":1.0}}}],"meshes":[{"name":"defaultobject","primitives":[{"mode":4,"material":1,"indices":2,"attributes":{"POSITION":0,"TEXCOORD_0":1}},{"mode":4,"material":2,"indices":5,"attributes":{"POSITION":3,"TEXCOORD_0":4}}]}],"nodes":[{"name":"tile_0295.obj","children":[1]},{"name":"defaultobject","mesh":0}],"samplers":[{},{}],"scenes":[{"nodes":[0]}],"textures":[{"source":0,"sampler":0},{"source":1,"sampler":1}],"scene":0}
