{"asset":{"version":"2.0","generator":"Open Asset Import Library (assimp v6.0.0)"},"extensionsUsed":["KHR_materials_specular","KHR_materials_volume","KHR_materials_ior","FB_ngon_encoding"],"accessors":[{"bufferView":0,"byteOffset":0,"componentType":5126,"count":4700,"type":"VEC3","max":[2.351489543914795,1.6309276819229126,1.6776219606399536],"min":[2.2250738585072014e-308,2.2250738585072014e-308,2.2250738585072014e-308]},{"bufferView":1,"byteOffset":0,"componentType":5126,"count":4700,"type":"VEC2","max":[0.9923667907714844,0.5682086944580078],"min":[2.2250738585072014e-308,2.2250738585072014e-308]},{"bufferView":2,"byteOffset":0,"componentType":5125,"count":22557,"type":"SCALAR","max":[4699],"min":[0]},{"bufferView":3,"byteOffset":0,"componentType":5126,"count":623,"type":"VEC3","max":[2.1757447719573975,1.6268177032470703,1.6702303886413574],"min":[2.2250738585072014e-308,2.2250738585072014e-308,2.2250738585072014e-308]},{"bufferView":4,"byteOffset":0,"componentType":5126,"count":623,"type":"VEC2","max":[0.9769706726074219,0.8040237426757812],"min":[2.2250738585072014e-308,2.2250738585072014e-308]},{"bufferView":5,"byteOffset":0,"componentType":5125,"count":3147,"type":"SCALAR","max":[622],"min":[0]}],"buffers":[{"byteLength":209276,"uri":"tile_0505.bin"}],"bufferViews":[{"buffer":0,"byteOffset":0,"byteLength":56400,"target":34962},{"buffer":0,"byteOffset":56400,"byteLength":37600,"target":34962},{"buffer":0,"byteOffset":94000,"byteLength":90228,"target":34963},{"buffer":0,"byteOffset":184228,"byteLength":7476,"target":34962},{"buffer":0,"byteOffset":191704,"byteLength":4984,"target":34962},{"buffer":0,"byteOffset":196688,"byteLength":12588,"target":34963}],"images":[{"uri":"../textures/tile_0505_material_0.jpg"},{"uri":"../textures/tile_0505_material_1.jpg"}],"materials":[{"name":"DefaultMaterial","pbrMetallicRoughness":{"baseColorFactor":[0.6000000238418579,0.6000000238418579,0.6000000238418579,1.0],"metallicFactor":0.0},"extensions":{"KHR_materials_specular":{"specularFactor":1.0,"specularColorFactor":[0.0,0.0,0.0]},"KHR_materials_ior":{"ior":1.0}}},{"name":"material_0_material","pbrMetallicRoughness":{"baseColorTexture":{"index":0},"metallicFactor":0.0},"extensions":{"KHR_materials_specular":{"specularFactor":1.0,"specularColorFactor":[0.0,0.0,0.0]},"KHR_materials_ior":{"ior":1.0}}},{"name":"material_1_material","pbrMetallicRoughness":{"baseColorTexture":{"index":1},"metallicFactor":0.0},"extensions":{"KHR_materials_specular":{"specularFactor":1.0,"specularColorFactor":[0.0,0.0,0.0]},"KHR_materials_ior":{"ior":1.0}}}],"meshes":[{"name":"defaultobject","primitives":[{"mode":4,"material":1,"indices":2,"attributes":{"POSITION":0,"TEXCOORD_0":1}},{"mode":4,"material":2,"indices":5,"attributes":{"POSITION":3,"TEXCOORD_0":4}}]}],"nodes":[{"name":"tile_0505.obj","children":[1]},{"name":"defaultobject","mesh":0}],"samplers":[{},{}],"scenes":[{"nodes":[0]}],"textures":[{"source":0,"sampler":0},{"source":1,"sampler":1}],"scene":0}
