{"asset":{"version":"2.0","generator":"Open Asset Import Library (assimp v6.0.0)"},"extensionsUsed":["KHR_materials_specular","KHR_materials_volume","KHR_materials_ior","FB_ngon_encoding"],"accessors":[{"bufferView":0,"byteOffset":0,"componentType":5126,"count":2663,"type":"VEC3","max":[-0.008014637045562267,-3.099552631378174,4.722555160522461],"min":[-0.7817736864089966,-3.421372175216675,2.2250738585072014e-308]},{"bufferView":1,"byteOffset":0,"componentType":5126,"count":2663,"type":"VEC2","max":[0.9875689744949341,0.5618400573730469],"min":[2.2250738585072014e-308,2.2250738585072014e-308]},{"bufferView":2,"byteOffset":0,"componentType":5125,"count":11565,"type":"SCALAR","max":[2662],"min":[0]},{"bufferView":3,"byteOffset":0,"componentType":5126,"count":860,"type":"VEC3","max":[0.018796632066369057,-3.099552631378174,4.723960876464844],"min":[-0.8108599781990051,-3.4262945652008057,2.2250738585072014e-308]},{"bufferView":4,"byteOffset":0,"componentType":5126,"count":860,"type":"VEC2","max":[0.8716363906860352,0.8095207214355469],"min":[2.2250738585072014e-308,2.2250738585072014e-308]},{"bufferView":5,"byteOffset":0,"componentType":5125,"count":4110,"type":"SCALAR","max":[859],"min":[0]}],"buffers":[{"byteLength":133160,"uri":"tile_0342.bin"}],"bufferViews":[{"buffer":0,"byteOffset":0,"byteLength":31956,"target":34962},{"buffer":0,"byteOffset":31956,"byteLength":21304,"target":34962},{"buffer":0,"byteOffset":53260,"byteLength":46260,"target":34963},{"buffer":0,"byteOffset":99520,"byteLength":10320,"target":34962},{"buffer":0,"byteOffset":109840,"byteLength":6880,"target":34962},{"buffer":0,"byteOffset":116720,"byteLength":16440,"target":34963}],"images":[{"uri":"../textures/tile_0342_material_0.jpg"},{"uri":"../textures/tile_0342_material_1.jpg"}],"materials":[{"name":"DefaultMaterial","pbrMetallicRoughness":{"baseColorFactor":[0.6000000238418579,0.6000000238418579,0.6000000238418579,1.0],"metallicFactor":0.0},"extensions":{"KHR_materials_specular":{"specularFactor":1.0,"specularColorFactor":[0.0,0.0,0.0]},"KHR_materials_ior":{"ior":1.0}}},{"name":"material_0_material","pbrMetallicRoughness":{"baseColorTexture":{"index":0},"metallicFactor":0.0},"extensions":{"KHR_materials_specular":{"specularFactor":1.0,"specularColorFactor":[0.0,0.0,0.0]},"KHR_materials_ior":{"ior":1.0}}},{"name":"material_1_material","pbrMetallicRoughness":{"baseColorTexture":{"index":1},"metallicFactor":0.0},"extensions":{"KHR_materials_specular":{"specularFactor":1.0,"specularColorFactor":[0.0,0.0,0.0]},"KHR_materials_ior":{"ior":1.0}}}],"meshes":[{"name":"defaultobject","primitives":[{"mode":4,"material":1,"indices":2,"attributes":{"POSITION":0,"TEXCOORD_0":1}},{"mode":4,"material":2,"indices":5,"attributes":{"POSITION":3,"TEXCOORD_0":4}}]}],"nodes":[{"name":"tile_0342.obj","children":[1]},{"name":"defaultobject","mesh":0}],"samplers":[{},{}],"scenes":[{"nodes":[0]}],"textures":[{"source":0,"sampler":0},{"source":1,"sampler":1}],"scene":0}
