{"asset":{"version":"2.0","generator":"Open Asset Import Library (assimp v6.0.0)"},"extensionsUsed":["KHR_materials_specular","KHR_materials_volume","KHR_materials_ior","FB_ngon_encoding"],"accessors":[{"bufferView":0,"byteOffset":0,"componentType":5126,"count":4996,"type":"VEC3","max":[2.210601568222046,-0.7391754984855652,1.7298414707183838],"min":[-0.24495911598205566,-0.9407532811164856,2.2250738585072014e-308]},{"bufferView":1,"byteOffset":0,"componentType":5126,"count":4996,"type":"VEC2","max":[0.9915424585342407,0.6323051452636719],"min":[2.2250738585072014e-308,2.2250738585072014e-308]},{"bufferView":2,"byteOffset":0,"componentType":5125,"count":19860,"type":"SCALAR","max":[4995],"min":[0]},{"bufferView":3,"byteOffset":0,"componentType":5126,"count":74,"type":"VEC3","max":[0.09784560650587082,-0.7794073224067688,1.6758097410202026],"min":[2.2250738585072014e-308,-0.8135542273521423,2.2250738585072014e-308]},{"bufferView":4,"byteOffset":0,"componentType":5126,"count":74,"type":"VEC2","max":[0.6725559234619141,0.8668060302734375],"min":[2.2250738585072014e-308,2.2250738585072014e-308]},{"bufferView":5,"byteOffset":0,"componentType":5125,"count":351,"type":"SCALAR","max":[73],"min":[0]}],"buffers":[{"byteLength":182244,"uri":"tile_0285.bin"}],"bufferViews":[{"buffer":0,"byteOffset":0,"byteLength":59952,"target":34962},{"buffer":0,"byteOffset":59952,"byteLength":39968,"target":34962},{"buffer":0,"byteOffset":99920,"byteLength":79440,"target":34963},{"buffer":0,"byteOffset":179360,"byteLength":888,"target":34962},{"buffer":0,"byteOffset":180248,"byteLength":592,"target":34962},{"buffer":0,"byteOffset":180840,"byteLength":1404,"target":34963}],"images":[{"uri":"../textures/tile_0285_material_0.jpg"},{"uri":"../textures/tile_0285_material_1.jpg"}],"materials":[{"name":"DefaultMaterial","pbrMetallicRoughness":{"baseColorFactor":[0.6000000238418579,0.6000000238418579,0.6000000238418579,1.0],"metallicFactor":0.0},"extensions":{"KHR_materials_specular":{"specularFactor":1.0,"specularColorFactor":[0.0,0.0,0.0]},"KHR_materials_ior":{"ior":1.0}}},{"name":"material_0_material","pbrMetallicRoughness":{"baseColorTexture":{"index":0},"metallicFactor":0.0},"extensions":{"KHR_materials_specular":{"specularFactor":1.0,"specularColorFactor":[0.0,0.0,0.0]},"KHR_materials_ior":{"ior":1.0}}},{"name":"material_1_material","pbrMetallicRoughness":{"baseColorTexture":{"index":1},"metallicFactor":0.0},"extensions":{"KHR_materials_specular":{"specularFactor":1.0,"specularColorFactor":[0.0,0.0,0.0]},"KHR_materials_ior":{"ior":1.0}}}],"meshes":[{"name":"defaultobject","primitives":[{"mode":4,"material":1,"indices":2,"attributes":{"POSITION":0,"TEXCOORD_0":1}},{"mode":4,"material":2,"indices":5,"attributes":{"POSITION":3,"TEXCOORD_0":4}}]}],"nodes":[{"name":"tile_0285.obj","children":[1]},{"name":"defaultobject","mesh":0}],"samplers":[{},{}],"scenes":[{"nodes":[0]}],"textures":[{"source":0,"sampler":0},{"source":1,"sampler":1}],"scene":0}
