{"asset":{"version":"2.0","generator":"Open Asset Import Library (assimp v6.0.0)"},"extensionsUsed":["KHR_materials_specular","KHR_materials_volume","KHR_materials_ior","FB_ngon_encoding"],"accessors":[{"bufferView":0,"byteOffset":0,"componentType":5126,"count":3090,"type":"VEC3","max":[0.6563734412193298,0.40176698565483093,4.490264892578125],"min":[-0.45919668674468994,2.2250738585072014e-308,2.2250738585072014e-308]},{"bufferView":1,"byteOffset":0,"componentType":5126,"count":3090,"type":"VEC2","max":[0.994441032409668,0.7732620239257812],"min":[2.2250738585072014e-308,2.2250738585072014e-308]},{"bufferView":2,"byteOffset":0,"componentType":5125,"count":13530,"type":"SCALAR","max":[3089],"min":[0]},{"bufferView":3,"byteOffset":0,"componentType":5126,"count":1168,"type":"VEC3","max":[0.6412164568901062,0.40583088994026184,4.189558029174805],"min":[2.2250738585072014e-308,2.2250738585072014e-308,2.2250738585072014e-308]},{"bufferView":4,"byteOffset":0,"componentType":5126,"count":1168,"type":"VEC2","max":[0.5818872451782227,0.8788013458251953],"min":[2.2250738585072014e-308,2.2250738585072014e-308]},{"bufferView":5,"byteOffset":0,"componentType":5125,"count":5859,"type":"SCALAR","max":[1167],"min":[0]}],"buffers":[{"byteLength":162716,"uri":"tile_0425.bin"}],"bufferViews":[{"buffer":0,"byteOffset":0,"byteLength":37080,"target":34962},{"buffer":0,"byteOffset":37080,"byteLength":24720,"target":34962},{"buffer":0,"byteOffset":61800,"byteLength":54120,"target":34963},{"buffer":0,"byteOffset":115920,"byteLength":14016,"target":34962},{"buffer":0,"byteOffset":129936,"byteLength":9344,"target":34962},{"buffer":0,"byteOffset":139280,"byteLength":23436,"target":34963}],"images":[{"uri":"../textures/tile_0425_material_0.jpg"},{"uri":"../textures/tile_0425_material_1.jpg"}],"materials":[{"name":"DefaultMaterial","pbrMetallicRoughness":{"baseColorFactor":[0.6000000238418579,0.6000000238418579,0.6000000238418579,1.0],"metallicFactor":0.0},"extensions":{"KHR_materials_specular":{"specularFactor":1.0,"specularColorFactor":[0.0,0.0,0.0]},"KHR_materials_ior":{"ior":1.0}}},{"name":"material_0_material","pbrMetallicRoughness":{"baseColorTexture":{"index":0},"metallicFactor":0.0},"extensions":{"KHR_materials_specular":{"specularFactor":1.0,"specularColorFactor":[0.0,0.0,0.0]},"KHR_materials_ior":{"ior":1.0}}},{"name":"material_1_material","pbrMetallicRoughness":{"baseColorTexture":{"index":1},"metallicFactor":0.0},"extensions":{"KHR_materials_specular":{"specularFactor":1.0,"specularColorFactor":[0.0,0.0,0.0]},"KHR_materials_ior":{"ior":1.0}}}],"meshes":[{"name":"defaultobject","primitives":[{"mode":4,"material":1,"indices":2,"attributes":{"POSITION":0,"TEXCOORD_0":1}},{"mode":4,"material":2,"indices":5,"attributes":{"POSITION":3,"TEXCOORD_0":4}}]}],"nodes":[{"name":"tile_0425.obj","children":[1]},{"name":"defaultobject","mesh":0}],"samplers":[{},{}],"scenes":[{"nodes":[0]}],"textures":[{"source":0,"sampler":0},{"source":1,"sampler":1}],"scene":0}
