{"asset":{"version":"2.0","generator":"Open Asset Import Library (assimp v6.0.0)"},"extensionsUsed":["KHR_materials_specular","KHR_materials_volume","KHR_materials_ior","FB_ngon_encoding"],"accessors":[{"bufferView":0,"byteOffset":0,"componentType":5126,"count":2471,"type":"VEC3","max":[2.976741075515747,-1.6683317422866821,0.501919686794281],"min":[-0.019308822229504585,-1.7930024862289429,2.2250738585072014e-308]},{"bufferView":1,"byteOffset":0,"componentType":5126,"count":2471,"type":"VEC2","max":[0.9939475059509277,0.7255172729492188],"min":[2.2250738585072014e-308,2.2250738585072014e-308]},{"bufferView":2,"byteOffset":0,"componentType":5125,"count":10422,"type":"SCALAR","max":[2470],"min":[0]},{"bufferView":3,"byteOffset":0,"componentType":5126,"count":442,"type":"VEC3","max":[0.6097479462623596,-1.6703168153762817,0.4995611310005188],"min":[-0.021004129201173782,-1.7783228158950806,2.2250738585072014e-308]},{"bufferView":4,"byteOffset":0,"componentType":5126,"count":442,"type":"VEC2","max":[0.7300510406494141,0.5668716430664062],"min":[2.2250738585072014e-308,2.2250738585072014e-308]},{"bufferView":5,"byteOffset":0,"componentType":5125,"count":2169,"type":"SCALAR","max":[441],"min":[0]}],"buffers":[{"byteLength":108624,"uri":"tile_0193.bin"}],"bufferViews":[{"buffer":0,"byteOffset":0,"byteLength":29652,"target":34962},{"buffer":0,"byteOffset":29652,"byteLength":19768,"target":34962},{"buffer":0,"byteOffset":49420,"byteLength":41688,"target":34963},{"buffer":0,"byteOffset":91108,"byteLength":5304,"target":34962},{"buffer":0,"byteOffset":96412,"byteLength":3536,"target":34962},{"buffer":0,"byteOffset":99948,"byteLength":8676,"target":34963}],"images":[{"uri":"../textures/tile_0193_material_0.jpg"},{"uri":"../textures/tile_0193_material_1.jpg"}],"materials":[{"name":"DefaultMaterial","pbrMetallicRoughness":{"baseColorFactor":[0.6000000238418579,0.6000000238418579,0.6000000238418579,1.0],"metallicFactor":0.0},"extensions":{"KHR_materials_specular":{"specularFactor":1.0,"specularColorFactor":[0.0,0.0,0.0]},"KHR_materials_ior":{"ior":1.0}}},{"name":"material_0_material","pbrMetallicRoughness":{"baseColorTexture":{"index":0},"metallicFactor":0.0},"extensions":{"KHR_materials_specular":{"specularFactor":1.0,"specularColorFactor":[0.0,0.0,0.0]},"KHR_materials_ior":{"ior":1.0}}},{"name":"material_1_material","pbrMetallicRoughness":{"baseColorTexture":{"index":1},"metallicFactor":0.0},"extensions":{"KHR_materials_specular":{"specularFactor":1.0,"specularColorFactor":[0.0,0.0,0.0]},"KHR_materials_ior":{"ior":1.0}}}],"meshes":[{"name":"defaultobject","primitives":[{"mode":4,"material":1,"indices":2,"attributes":{"POSITION":0,"TEXCOORD_0":1}},{"mode":4,"material":2,"indices":5,"attributes":{"POSITION":3,"TEXCOORD_0":4}}]}],"nodes":[{"name":"tile_0193.obj","children":[1]},{"name":"defaultobject","mesh":0}],"samplers":[{},{}],"scenes":[{"nodes":[0]}],"textures":[{"source":0,"sampler":0},{"source":1,"sampler":1}],"scene":0}
