{"asset":{"version":"2.0","generator":"Open Asset Import Library (assimp v6.0.0)"},"extensionsUsed":["KHR_materials_specular","KHR_materials_volume","KHR_materials_ior","FB_ngon_encoding"],"accessors":[{"bufferView":0,"byteOffset":0,"componentType":5126,"count":6087,"type":"VEC3","max":[3.321265697479248,-0.43583452701568604,0.15076634287834167],"min":[2.2250738585072014e-308,-0.7225366234779358,2.2250738585072014e-308]},{"bufferView":1,"byteOffset":0,"componentType":5126,"count":6087,"type":"VEC2","max":[0.993504524230957,0.5773773193359375],"min":[2.2250738585072014e-308,2.2250738585072014e-308]},{"bufferView":2,"byteOffset":0,"componentType":5125,"count":19734,"type":"SCALAR","max":[6086],"min":[0]},{"bufferView":3,"byteOffset":0,"componentType":5126,"count":2187,"type":"VEC3","max":[0.8799189329147339,-0.4378717243671417,0.14652422070503235],"min":[2.2250738585072014e-308,-0.7219650745391846,2.2250738585072014e-308]},{"bufferView":4,"byteOffset":0,"componentType":5126,"count":2187,"type":"VEC2","max":[0.8776448369026184,0.5405864715576172],"min":[2.2250738585072014e-308,2.2250738585072014e-308]},{"bufferView":5,"byteOffset":0,"componentType":5125,"count":10242,"type":"SCALAR","max":[2186],"min":[0]}],"buffers":[{"byteLength":285384,"uri":"tile_0173.bin"}],"bufferViews":[{"buffer":0,"byteOffset":0,"byteLength":73044,"target":34962},{"buffer":0,"byteOffset":73044,"byteLength":48696,"target":34962},{"buffer":0,"byteOffset":121740,"byteLength":78936,"target":34963},{"buffer":0,"byteOffset":200676,"byteLength":26244,"target":34962},{"buffer":0,"byteOffset":226920,"byteLength":17496,"target":34962},{"buffer":0,"byteOffset":244416,"byteLength":40968,"target":34963}],"images":[{"uri":"../textures/tile_0173_material_0.jpg"},{"uri":"../textures/tile_0173_material_1.jpg"}],"materials":[{"name":"DefaultMaterial","pbrMetallicRoughness":{"baseColorFactor":[0.6000000238418579,0.6000000238418579,0.6000000238418579,1.0],"metallicFactor":0.0},"extensions":{"KHR_materials_specular":{"specularFactor":1.0,"specularColorFactor":[0.0,0.0,0.0]},"KHR_materials_ior":{"ior":1.0}}},{"name":"material_0_material","pbrMetallicRoughness":{"baseColorTexture":{"index":0},"metallicFactor":0.0},"extensions":{"KHR_materials_specular":{"specularFactor":1.0,"specularColorFactor":[0.0,0.0,0.0]},"KHR_materials_ior":{"ior":1.0}}},{"name":"material_1_material","pbrMetallicRoughness":{"baseColorTexture":{"index":1},"metallicFactor":0.0},"extensions":{"KHR_materials_specular":{"specularFactor":1.0,"specularColorFactor":[0.0,0.0,0.0]},"KHR_materials_ior":{"ior":1.0}}}],"meshes":[{"name":"defaultobject","primitives":[{"mode":4,"material":1,"indices":2,"attributes":{"POSITION":0,"TEXCOORD_0":1}},{"mode":4,"material":2,"indices":5,"attributes":{"POSITION":3,"TEXCOORD_0":4}}]}],"nodes":[{"name":"tile_0173.obj","children":[1]},{"name":"defaultobject","mesh":0}],"samplers":[{},{}],"scenes":[{"nodes":[0]}],"textures":[{"source":0,"sampler":0},{"source":1,"sampler":1}],"scene":0}
