{"asset":{"version":"2.0","generator":"Open Asset Import Library (assimp v6.0.0)"},"extensionsUsed":["KHR_materials_specular","KHR_materials_volume","KHR_materials_ior","FB_ngon_encoding"],"accessors":[{"bufferView":0,"byteOffset":0,"componentType":5126,"count":9347,"type":"VEC3","max":[3.2428441047668457,-1.667941689491272,0.3325403928756714],"min":[2.2250738585072014e-308,-2.163377046585083,2.2250738585072014e-308]},{"bufferView":1,"byteOffset":0,"componentType":5126,"count":9347,"type":"VEC2","max":[0.9958910942077637,0.8592491149902344],"min":[2.2250738585072014e-308,2.2250738585072014e-308]},{"bufferView":2,"byteOffset":0,"componentType":5125,"count":39663,"type":"SCALAR","max":[9346],"min":[0]},{"bufferView":3,"byteOffset":0,"componentType":5126,"count":64,"type":"VEC3","max":[2.9921669960021973,-1.6731681823730469,0.3312467038631439],"min":[2.2250738585072014e-308,-2.1593921184539795,2.2250738585072014e-308]},{"bufferView":4,"byteOffset":0,"componentType":5126,"count":64,"type":"VEC2","max":[0.6516304016113281,0.7212448716163635],"min":[2.2250738585072014e-308,2.2250738585072014e-308]},{"bufferView":5,"byteOffset":0,"componentType":5125,"count":213,"type":"SCALAR","max":[63],"min":[0]}],"buffers":[{"byteLength":347724,"uri":"tile_0192.bin"}],"bufferViews":[{"buffer":0,"byteOffset":0,"byteLength":112164,"target":34962},{"buffer":0,"byteOffset":112164,"byteLength":74776,"target":34962},{"buffer":0,"byteOffset":186940,"byteLength":158652,"target":34963},{"buffer":0,"byteOffset":345592,"byteLength":768,"target":34962},{"buffer":0,"byteOffset":346360,"byteLength":512,"target":34962},{"buffer":0,"byteOffset":346872,"byteLength":852,"target":34963}],"images":[{"uri":"../textures/tile_0192_material_0.jpg"},{"uri":"../textures/tile_0192_material_1.jpg"}],"materials":[{"name":"DefaultMaterial","pbrMetallicRoughness":{"baseColorFactor":[0.6000000238418579,0.6000000238418579,0.6000000238418579,1.0],"metallicFactor":0.0},"extensions":{"KHR_materials_specular":{"specularFactor":1.0,"specularColorFactor":[0.0,0.0,0.0]},"KHR_materials_ior":{"ior":1.0}}},{"name":"material_0_material","pbrMetallicRoughness":{"baseColorTexture":{"index":0},"metallicFactor":0.0},"extensions":{"KHR_materials_specular":{"specularFactor":1.0,"specularColorFactor":[0.0,0.0,0.0]},"KHR_materials_ior":{"ior":1.0}}},{"name":"material_1_material","pbrMetallicRoughness":{"baseColorTexture":{"index":1},"metallicFactor":0.0},"extensions":{"KHR_materials_specular":{"specularFactor":1.0,"specularColorFactor":[0.0,0.0,0.0]},"KHR_materials_ior":{"ior":1.0}}}],"meshes":[{"name":"defaultobject","primitives":[{"mode":4,"material":1,"indices":2,"attributes":{"POSITION":0,"TEXCOORD_0":1}},{"mode":4,"material":2,"indices":5,"attributes":{"POSITION":3,"TEXCOORD_0":4}}]}],"nodes":[{"name":"tile_0192.obj","children":[1]},{"name":"defaultobject","mesh":0}],"samplers":[{},{}],"scenes":[{"nodes":[0]}],"textures":[{"source":0,"sampler":0},{"source":1,"sampler":1}],"scene":0}
