{"asset":{"version":"2.0","generator":"Open Asset Import Library (assimp v6.0.0)"},"extensionsUsed":["KHR_materials_specular","KHR_materials_volume","KHR_materials_ior","FB_ngon_encoding"],"accessors":[{"bufferView":0,"byteOffset":0,"componentType":5126,"count":4320,"type":"VEC3","max":[2.22597336769104,1.44465970993042,1.8423064947128296],"min":[2.2250738585072014e-308,2.2250738585072014e-308,2.2250738585072014e-308]},{"bufferView":1,"byteOffset":0,"componentType":5126,"count":4320,"type":"VEC2","max":[0.9724664688110352,0.5728721618652344],"min":[2.2250738585072014e-308,2.2250738585072014e-308]},{"bufferView":2,"byteOffset":0,"componentType":5125,"count":20016,"type":"SCALAR","max":[4319],"min":[0]},{"bufferView":3,"byteOffset":0,"componentType":5126,"count":204,"type":"VEC3","max":[1.5653924942016602,1.442691445350647,1.8423064947128296],"min":[2.2250738585072014e-308,2.2250738585072014e-308,2.2250738585072014e-308]},{"bufferView":4,"byteOffset":0,"componentType":5126,"count":204,"type":"VEC2","max":[0.6404781341552734,0.8534317016601562],"min":[2.2250738585072014e-308,2.2250738585072014e-308]},{"bufferView":5,"byteOffset":0,"componentType":5125,"count":972,"type":"SCALAR","max":[203],"min":[0]}],"buffers":[{"byteLength":174432,"uri":"tile_0440.bin"}],"bufferViews":[{"buffer":0,"byteOffset":0,"byteLength":51840,"target":34962},{"buffer":0,"byteOffset":51840,"byteLength":34560,"target":34962},{"buffer":0,"byteOffset":86400,"byteLength":80064,"target":34963},{"buffer":0,"byteOffset":166464,"byteLength":2448,"target":34962},{"buffer":0,"byteOffset":168912,"byteLength":1632,"target":34962},{"buffer":0,"byteOffset":170544,"byteLength":3888,"target":34963}],"images":[{"uri":"../textures/tile_0440_material_0.jpg"},{"uri":"../textures/tile_0440_material_1.jpg"}],"materials":[{"name":"DefaultMaterial","pbrMetallicRoughness":{"baseColorFactor":[0.6000000238418579,0.6000000238418579,0.6000000238418579,1.0],"metallicFactor":0.0},"extensions":{"KHR_materials_specular":{"specularFactor":1.0,"specularColorFactor":[0.0,0.0,0.0]},"KHR_materials_ior":{"ior":1.0}}},{"name":"material_0_material","pbrMetallicRoughness":{"baseColorTexture":{"index":0},"metallicFactor":0.0},"extensions":{"KHR_materials_specular":{"specularFactor":1.0,"specularColorFactor":[0.0,0.0,0.0]},"KHR_materials_ior":{"ior":1.0}}},{"name":"material_1_material","pbrMetallicRoughness":{"baseColorTexture":{"index":1},"metallicFactor":0.0},"extensions":{"KHR_materials_specular":{"specularFactor":1.0,"specularColorFactor":[0.0,0.0,0.0]},"KHR_materials_ior":{"ior":1.0}}}],"meshes":[{"name":"defaultobject","primitives":[{"mode":4,"material":1,"indices":2,"attributes":{"POSITION":0,"TEXCOORD_0":1}},{"mode":4,"material":2,"indices":5,"attributes":{"POSITION":3,"TEXCOORD_0":4}}]}],"nodes":[{"name":"tile_0440.obj","children":[1]},{"name":"defaultobject","mesh":0}],"samplers":[{},{}],"scenes":[{"nodes":[0]}],"textures":[{"source":0,"sampler":0},{"source":1,"sampler":1}],"scene":0}
