{"asset":{"version":"2.0","generator":"Open Asset Import Library (assimp v6.0.0)"},"extensionsUsed":["KHR_materials_specular","KHR_materials_volume","KHR_materials_ior","FB_ngon_encoding"],"accessors":[{"bufferView":0,"byteOffset":0,"componentType":5126,"count":2972,"type":"VEC3","max":[3.117469549179077,-0.9622687101364136,0.5111566185951233],"min":[-0.00569049920886755,-1.165027379989624,2.2250738585072014e-308]},{"bufferView":1,"byteOffset":0,"componentType":5126,"count":2972,"type":"VEC2","max":[0.9936351776123047,0.9519424438476562],"min":[2.2250738585072014e-308,2.2250738585072014e-308]},{"bufferView":2,"byteOffset":0,"componentType":5125,"count":11442,"type":"SCALAR","max":[2971],"min":[0]},{"bufferView":3,"byteOffset":0,"componentType":5126,"count":1671,"type":"VEC3","max":[0.16839875280857086,-0.964363694190979,0.5092887878417969],"min":[-0.02230759710073471,-1.1575758457183838,2.2250738585072014e-308]},{"bufferView":4,"byteOffset":0,"componentType":5126,"count":1671,"type":"VEC2","max":[0.5400002002716064,0.5641288757324219],"min":[2.2250738585072014e-308,2.2250738585072014e-308]},{"bufferView":5,"byteOffset":0,"componentType":5125,"count":8805,"type":"SCALAR","max":[1670],"min":[0]}],"buffers":[{"byteLength":173848,"uri":"tile_0166.bin"}],"bufferViews":[{"buffer":0,"byteOffset":0,"byteLength":35664,"target":34962},{"buffer":0,"byteOffset":35664,"byteLength":23776,"target":34962},{"buffer":0,"byteOffset":59440,"byteLength":45768,"target":34963},{"buffer":0,"byteOffset":105208,"byteLength":20052,"target":34962},{"buffer":0,"byteOffset":125260,"byteLength":13368,"target":34962},{"buffer":0,"byteOffset":138628,"byteLength":35220,"target":34963}],"images":[{"uri":"../textures/tile_0166_material_0.jpg"},{"uri":"../textures/tile_0166_material_1.jpg"}],"materials":[{"name":"DefaultMaterial","pbrMetallicRoughness":{"baseColorFactor":[0.6000000238418579,0.6000000238418579,0.6000000238418579,1.0],"metallicFactor":0.0},"extensions":{"KHR_materials_specular":{"specularFactor":1.0,"specularColorFactor":[0.0,0.0,0.0]},"KHR_materials_ior":{"ior":1.0}}},{"name":"material_0_material","pbrMetallicRoughness":{"baseColorTexture":{"index":0},"metallicFactor":0.0},"extensions":{"KHR_materials_specular":{"specularFactor":1.0,"specularColorFactor":[0.0,0.0,0.0]},"KHR_materials_ior":{"ior":1.0}}},{"name":"material_1_material","pbrMetallicRoughness":{"baseColorTexture":{"index":1},"metallicFactor":0.0},"extensions":{"KHR_materials_specular":{"specularFactor":1.0,"specularColorFactor":[0.0,0.0,0.0]},"KHR_materials_ior":{"ior":1.0}}}],"meshes":[{"name":"defaultobject","primitives":[{"mode":4,"material":1,"indices":2,"attributes":{"POSITION":0,"TEXCOORD_0":1}},{"mode":4,"material":2,"indices":5,"attributes":{"POSITION":3,"TEXCOORD_0":4}}]}],"nodes":[{"name":"tile_0166.obj","children":[1]},{"name":"defaultobject","mesh":0}],"samplers":[{},{}],"scenes":[{"nodes":[0]}],"textures":[{"source":0,"sampler":0},{"source":1,"sampler":1}],"scene":0}
