{"asset":{"version":"2.0","generator":"Open Asset Import Library (assimp v6.0.0)"},"extensionsUsed":["KHR_materials_specular","KHR_materials_volume","KHR_materials_ior","FB_ngon_encoding"],"accessors":[{"bufferView":0,"byteOffset":0,"componentType":5126,"count":4313,"type":"VEC3","max":[1.759989857673645,0.41807571053504944,2.6159470081329346],"min":[2.2250738585072014e-308,2.2250738585072014e-308,2.2250738585072014e-308]},{"bufferView":1,"byteOffset":0,"componentType":5126,"count":4313,"type":"VEC2","max":[0.9945416450500488,0.6592826843261719],"min":[2.2250738585072014e-308,2.2250738585072014e-308]},{"bufferView":2,"byteOffset":0,"componentType":5125,"count":19941,"type":"SCALAR","max":[4312],"min":[0]},{"bufferView":3,"byteOffset":0,"componentType":5126,"count":41,"type":"VEC3","max":[1.0112682580947876,0.35027557611465454,2.5074660778045654],"min":[2.2250738585072014e-308,2.2250738585072014e-308,2.2250738585072014e-308]},{"bufferView":4,"byteOffset":0,"componentType":5126,"count":41,"type":"VEC2","max":[0.56451416015625,0.6179275512695312],"min":[2.2250738585072014e-308,2.2250738585072014e-308]},{"bufferView":5,"byteOffset":0,"componentType":5125,"count":189,"type":"SCALAR","max":[40],"min":[0]}],"buffers":[{"byteLength":167600,"uri":"tile_0414.bin"}],"bufferViews":[{"buffer":0,"byteOffset":0,"byteLength":51756,"target":34962},{"buffer":0,"byteOffset":51756,"byteLength":34504,"target":34962},{"buffer":0,"byteOffset":86260,"byteLength":79764,"target":34963},{"buffer":0,"byteOffset":166024,"byteLength":492,"target":34962},{"buffer":0,"byteOffset":166516,"byteLength":328,"target":34962},{"buffer":0,"byteOffset":166844,"byteLength":756,"target":34963}],"images":[{"uri":"../textures/tile_0414_material_0.jpg"},{"uri":"../textures/tile_0414_material_1.jpg"}],"materials":[{"name":"DefaultMaterial","pbrMetallicRoughness":{"baseColorFactor":[0.6000000238418579,0.6000000238418579,0.6000000238418579,1.0],"metallicFactor":0.0},"extensions":{"KHR_materials_specular":{"specularFactor":1.0,"specularColorFactor":[0.0,0.0,0.0]},"KHR_materials_ior":{"ior":1.0}}},{"name":"material_0_material","pbrMetallicRoughness":{"baseColorTexture":{"index":0},"metallicFactor":0.0},"extensions":{"KHR_materials_specular":{"specularFactor":1.0,"specularColorFactor":[0.0,0.0,0.0]},"KHR_materials_ior":{"ior":1.0}}},{"name":"material_1_material","pbrMetallicRoughness":{"baseColorTexture":{"index":1},"metallicFactor":0.0},"extensions":{"KHR_materials_specular":{"specularFactor":1.0,"specularColorFactor":[0.0,0.0,0.0]},"KHR_materials_ior":{"ior":1.0}}}],"meshes":[{"name":"defaultobject","primitives":[{"mode":4,"material":1,"indices":2,"attributes":{"POSITION":0,"TEXCOORD_0":1}},{"mode":4,"material":2,"indices":5,"attributes":{"POSITION":3,"TEXCOORD_0":4}}]}],"nodes":[{"name":"tile_0414.obj","children":[1]},{"name":"defaultobject","mesh":0}],"samplers":[{},{}],"scenes":[{"nodes":[0]}],"textures":[{"source":0,"sampler":0},{"source":1,"sampler":1}],"scene":0}
