{"asset":{"version":"2.0","generator":"Open Asset Import Library (assimp v6.0.0)"},"extensionsUsed":["KHR_materials_specular","KHR_materials_volume","KHR_materials_ior","FB_ngon_encoding"],"accessors":[{"bufferView":0,"byteOffset":0,"componentType":5126,"count":4853,"type":"VEC3","max":[-5.491091251373291,1.30794095993042,4.523495197296143],"min":[-6.33609676361084,2.2250738585072014e-308,2.2250738585072014e-308]},{"bufferView":1,"byteOffset":0,"componentType":5126,"count":4853,"type":"VEC2","max":[0.9859404563903809,0.6396007537841797],"min":[2.2250738585072014e-308,2.2250738585072014e-308]},{"bufferView":2,"byteOffset":0,"componentType":5125,"count":23688,"type":"SCALAR","max":[4852],"min":[0]},{"bufferView":3,"byteOffset":0,"componentType":5126,"count":899,"type":"VEC3","max":[-5.492368221282959,1.3089642524719238,4.51572322845459],"min":[-6.193727493286133,2.2250738585072014e-308,2.2250738585072014e-308]},{"bufferView":4,"byteOffset":0,"componentType":5126,"count":899,"type":"VEC2","max":[0.5101609230041504,0.5095367431640625],"min":[2.2250738585072014e-308,2.2250738585072014e-308]},{"bufferView":5,"byteOffset":0,"componentType":5125,"count":4806,"type":"SCALAR","max":[898],"min":[0]}],"buffers":[{"byteLength":229016,"uri":"tile_0484.bin"}],"bufferViews":[{"buffer":0,"byteOffset":0,"byteLength":58236,"target":34962},{"buffer":0,"byteOffset":58236,"byteLength":38824,"target":34962},{"buffer":0,"byteOffset":97060,"byteLength":94752,"target":34963},{"buffer":0,"byteOffset":191812,"byteLength":10788,"target":34962},{"buffer":0,"byteOffset":202600,"byteLength":7192,"target":34962},{"buffer":0,"byteOffset":209792,"byteLength":19224,"target":34963}],"images":[{"uri":"../textures/tile_0484_material_0.jpg"},{"uri":"../textures/tile_0484_material_1.jpg"}],"materials":[{"name":"DefaultMaterial","pbrMetallicRoughness":{"baseColorFactor":[0.6000000238418579,0.6000000238418579,0.6000000238418579,1.0],"metallicFactor":0.0},"extensions":{"KHR_materials_specular":{"specularFactor":1.0,"specularColorFactor":[0.0,0.0,0.0]},"KHR_materials_ior":{"ior":1.0}}},{"name":"material_0_material","pbrMetallicRoughness":{"baseColorTexture":{"index":0},"metallicFactor":0.0},"extensions":{"KHR_materials_specular":{"specularFactor":1.0,"specularColorFactor":[0.0,0.0,0.0]},"KHR_materials_ior":{"ior":1.0}}},{"name":"material_1_material","pbrMetallicRoughness":{"baseColorTexture":{"index":1},"metallicFactor":0.0},"extensions":{"KHR_materials_specular":{"specularFactor":1.0,"specularColorFactor":[0.0,0.0,0.0]},"KHR_materials_ior":{"ior":1.0}}}],"meshes":[{"name":"defaultobject","primitives":[{"mode":4,"material":1,"indices":2,"attributes":{"POSITION":0,"TEXCOORD_0":1}},{"mode":4,"material":2,"indices":5,"attributes":{"POSITION":3,"TEXCOORD_0":4}}]}],"nodes":[{"name":"tile_0484.obj","children":[1]},{"name":"defaultobject","mesh":0}],"samplers":[{},{}],"scenes":[{"nodes":[0]}],"textures":[{"source":0,"sampler":0},{"source":1,"sampler":1}],"scene":0}
