{"asset":{"version":"2.0","generator":"Open Asset Import Library (assimp v6.0.0)"},"extensionsUsed":["KHR_materials_specular","KHR_materials_volume","KHR_materials_ior","FB_ngon_encoding"],"accessors":[{"bufferView":0,"byteOffset":0,"componentType":5126,"count":6221,"type":"VEC3","max":[1.8100663423538208,-4.323776721954346,3.0660364627838135],"min":[2.2250738585072014e-308,-4.905384063720703,2.2250738585072014e-308]},{"bufferView":1,"byteOffset":0,"componentType":5126,"count":6221,"type":"VEC2","max":[0.9852004051208496,0.7685756683349609],"min":[2.2250738585072014e-308,2.2250738585072014e-308]},{"bufferView":2,"byteOffset":0,"componentType":5125,"count":28047,"type":"SCALAR","max":[6220],"min":[0]},{"bufferView":3,"byteOffset":0,"componentType":5126,"count":559,"type":"VEC3","max":[1.8056286573410034,-4.356138229370117,3.0284509658813477],"min":[2.2250738585072014e-308,-4.83680534362793,2.2250738585072014e-308]},{"bufferView":4,"byteOffset":0,"componentType":5126,"count":559,"type":"VEC2","max":[0.8104610443115234,0.9317283630371094],"min":[2.2250738585072014e-308,2.2250738585072014e-308]},{"bufferView":5,"byteOffset":0,"componentType":5125,"count":2706,"type":"SCALAR","max":[558],"min":[0]}],"buffers":[{"byteLength":258612,"uri":"tile_0263.bin"}],"bufferViews":[{"buffer":0,"byteOffset":0,"byteLength":74652,"target":34962},{"buffer":0,"byteOffset":74652,"byteLength":49768,"target":34962},{"buffer":0,"byteOffset":124420,"byteLength":112188,"target":34963},{"buffer":0,"byteOffset":236608,"byteLength":6708,"target":34962},{"buffer":0,"byteOffset":243316,"byteLength":4472,"target":34962},{"buffer":0,"byteOffset":247788,"byteLength":10824,"target":34963}],"images":[{"uri":"../textures/tile_0263_material_0.jpg"},{"uri":"../textures/tile_0263_material_1.jpg"}],"materials":[{"name":"DefaultMaterial","pbrMetallicRoughness":{"baseColorFactor":[0.6000000238418579,0.6000000238418579,0.6000000238418579,1.0],"metallicFactor":0.0},"extensions":{"KHR_materials_specular":{"specularFactor":1.0,"specularColorFactor":[0.0,0.0,0.0]},"KHR_materials_ior":{"ior":1.0}}},{"name":"material_0_material","pbrMetallicRoughness":{"baseColorTexture":{"index":0},"metallicFactor":0.0},"extensions":{"KHR_materials_specular":{"specularFactor":1.0,"specularColorFactor":[0.0,0.0,0.0]},"KHR_materials_ior":{"ior":1.0}}},{"name":"material_1_material","pbrMetallicRoughness":{"baseColorTexture":{"index":1},"metallicFactor":0.0},"extensions":{"KHR_materials_specular":{"specularFactor":1.0,"specularColorFactor":[0.0,0.0,0.0]},"KHR_materials_ior":{"ior":1.0}}}],"meshes":[{"name":"defaultobject","primitives":[{"mode":4,"material":1,"indices":2,"attributes":{"POSITION":0,"TEXCOORD_0":1}},{"mode":4,"material":2,"indices":5,"attributes":{"POSITION":3,"TEXCOORD_0":4}}]}],"nodes":[{"name":"tile_0263.obj","children":[1]},{"name":"defaultobject","mesh":0}],"samplers":[{},{}],"scenes":[{"nodes":[0]}],"textures":[{"source":0,"sampler":0},{"source":1,"sampler":1}],"scene":0}
