{"asset":{"version":"2.0","generator":"Open Asset Import Library (assimp v6.0.0)"},"extensionsUsed":["KHR_materials_specular","KHR_materials_volume","KHR_materials_ior","FB_ngon_encoding"],"accessors":[{"bufferView":0,"byteOffset":0,"componentType":5126,"count":3844,"type":"VEC3","max":[5.789910793304443,1.1436818838119507,4.340963363647461],"min":[2.2250738585072014e-308,2.2250738585072014e-308,2.2250738585072014e-308]},{"bufferView":1,"byteOffset":0,"componentType":5126,"count":3844,"type":"VEC2","max":[0.978431224822998,0.540069580078125],"min":[2.2250738585072014e-308,2.2250738585072014e-308]},{"bufferView":2,"byteOffset":0,"componentType":5125,"count":16965,"type":"SCALAR","max":[3843],"min":[0]},{"bufferView":3,"byteOffset":0,"componentType":5126,"count":1078,"type":"VEC3","max":[5.747654914855957,1.1342331171035767,4.338320732116699],"min":[2.2250738585072014e-308,2.2250738585072014e-308,2.2250738585072014e-308]},{"bufferView":4,"byteOffset":0,"componentType":5126,"count":1078,"type":"VEC2","max":[0.9803962707519531,0.5246734619140625],"min":[2.2250738585072014e-308,2.2250738585072014e-308]},{"bufferView":5,"byteOffset":0,"componentType":5125,"count":5331,"type":"SCALAR","max":[1077],"min":[0]}],"buffers":[{"byteLength":187624,"uri":"tile_0676.bin"}],"bufferViews":[{"buffer":0,"byteOffset":0,"byteLength":46128,"target":34962},{"buffer":0,"byteOffset":46128,"byteLength":30752,"target":34962},{"buffer":0,"byteOffset":76880,"byteLength":67860,"target":34963},{"buffer":0,"byteOffset":144740,"byteLength":12936,"target":34962},{"buffer":0,"byteOffset":157676,"byteLength":8624,"target":34962},{"buffer":0,"byteOffset":166300,"byteLength":21324,"target":34963}],"images":[{"uri":"../textures/tile_0676_material_0.jpg"},{"uri":"../textures/tile_0676_material_1.jpg"}],"materials":[{"name":"DefaultMaterial","pbrMetallicRoughness":{"baseColorFactor":[0.6000000238418579,0.6000000238418579,0.6000000238418579,1.0],"metallicFactor":0.0},"extensions":{"KHR_materials_specular":{"specularFactor":1.0,"specularColorFactor":[0.0,0.0,0.0]},"KHR_materials_ior":{"ior":1.0}}},{"name":"material_0_material","pbrMetallicRoughness":{"baseColorTexture":{"index":0},"metallicFactor":0.0},"extensions":{"KHR_materials_specular":{"specularFactor":1.0,"specularColorFactor":[0.0,0.0,0.0]},"KHR_materials_ior":{"ior":1.0}}},{"name":"material_1_material","pbrMetallicRoughness":{"baseColorTexture":{"index":1},"metallicFactor":0.0},"extensions":{"KHR_materials_specular":{"specularFactor":1.0,"specularColorFactor":[0.0,0.0,0.0]},"KHR_materials_ior":{"ior":1.0}}}],"meshes":[{"name":"defaultobject","primitives":[{"mode":4,"material":1,"indices":2,"attributes":{"POSITION":0,"TEXCOORD_0":1}},{"mode":4,"material":2,"indices":5,"attributes":{"POSITION":3,"TEXCOORD_0":4}}]}],"nodes":[{"name":"tile_0676.obj","children":[1]},{"name":"defaultobject","mesh":0}],"samplers":[{},{}],"scenes":[{"nodes":[0]}],"textures":[{"source":0,"sampler":0},{"source":1,"sampler":1}],"scene":0}
