{"asset":{"version":"2.0","generator":"Open Asset Import Library (assimp v6.0.0)"},"extensionsUsed":["KHR_materials_specular","KHR_materials_volume","KHR_materials_ior","FB_ngon_encoding"],"accessors":[{"bufferView":0,"byteOffset":0,"componentType":5126,"count":1592,"type":"VEC3","max":[-6.285012245178223,1.6491858959197998,4.76481294631958],"min":[-8.257339477539062,2.2250738585072014e-308,2.2250738585072014e-308]},{"bufferView":1,"byteOffset":0,"componentType":5126,"count":1592,"type":"VEC2","max":[0.9937937259674072,0.872955322265625],"min":[2.2250738585072014e-308,2.2250738585072014e-308]},{"bufferView":2,"byteOffset":0,"componentType":5125,"count":7608,"type":"SCALAR","max":[1591],"min":[0]},{"bufferView":3,"byteOffset":0,"componentType":5126,"count":3765,"type":"VEC3","max":[-6.285012245178223,1.680623173713684,4.763880252838135],"min":[-8.198112487792969,2.2250738585072014e-308,2.2250738585072014e-308]},{"bufferView":4,"byteOffset":0,"componentType":5126,"count":3765,"type":"VEC2","max":[0.7911887168884277,0.7874984741210938],"min":[2.2250738585072014e-308,2.2250738585072014e-308]},{"bufferView":5,"byteOffset":0,"componentType":5125,"count":20886,"type":"SCALAR","max":[3764],"min":[0]}],"buffers":[{"byteLength":221116,"uri":"tile_0113.bin"}],"bufferViews":[{"buffer":0,"byteOffset":0,"byteLength":19104,"target":34962},{"buffer":0,"byteOffset":19104,"byteLength":12736,"target":34962},{"buffer":0,"byteOffset":31840,"byteLength":30432,"target":34963},{"buffer":0,"byteOffset":62272,"byteLength":45180,"target":34962},{"buffer":0,"byteOffset":107452,"byteLength":30120,"target":34962},{"buffer":0,"byteOffset":137572,"byteLength":83544,"target":34963}],"images":[{"uri":"../textures/tile_0113_material_0.jpg"},{"uri":"../textures/tile_0113_material_1.jpg"}],"materials":[{"name":"DefaultMaterial","pbrMetallicRoughness":{"baseColorFactor":[0.6000000238418579,0.6000000238418579,0.6000000238418579,1.0],"metallicFactor":0.0},"extensions":{"KHR_materials_specular":{"specularFactor":1.0,"specularColorFactor":[0.0,0.0,0.0]},"KHR_materials_ior":{"ior":1.0}}},{"name":"material_0_material","pbrMetallicRoughness":{"baseColorTexture":{"index":0},"metallicFactor":0.0},"extensions":{"KHR_materials_specular":{"specularFactor":1.0,"specularColorFactor":[0.0,0.0,0.0]},"KHR_materials_ior":{"ior":1.0}}},{"name":"material_1_material","pbrMetallicRoughness":{"baseColorTexture":{"index":1},"metallicFactor":0.0},"extensions":{"KHR_materials_specular":{"specularFactor":1.0,"specularColorFactor":[0.0,0.0,0.0]},"KHR_materials_ior":{"ior":1.0}}}],"meshes":[{"name":"defaultobject","primitives":[{"mode":4,"material":1,"indices":2,"attributes":{"POSITION":0,"TEXCOORD_0":1}},{"mode":4,"material":2,"indices":5,"attributes":{"POSITION":3,"TEXCOORD_0":4}}]}],"nodes":[{"name":"tile_0113.obj","children":[1]},{"name":"defaultobject","mesh":0}],"samplers":[{},{}],"scenes":[{"nodes":[0]}],"textures":[{"source":0,"sampler":0},{"source":1,"sampler":1}],"scene":0}
