{"asset":{"version":"2.0","generator":"Open Asset Import Library (assimp v6.0.0)"},"extensionsUsed":["KHR_materials_specular","KHR_materials_volume","KHR_materials_ior","FB_ngon_encoding"],"accessors":[{"bufferView":0,"byteOffset":0,"componentType":5126,"count":4677,"type":"VEC3","max":[2.6856648921966553,-4.135340690612793,3.5605103969573975],"min":[2.2250738585072014e-308,-4.558066368103027,2.2250738585072014e-308]},{"bufferView":1,"byteOffset":0,"componentType":5126,"count":4677,"type":"VEC2","max":[0.9938344955444336,0.6437225341796875],"min":[2.2250738585072014e-308,2.2250738585072014e-308]},{"bufferView":2,"byteOffset":0,"componentType":5125,"count":20229,"type":"SCALAR","max":[4676],"min":[0]},{"bufferView":3,"byteOffset":0,"componentType":5126,"count":374,"type":"VEC3","max":[2.685173511505127,-4.132560729980469,3.5435750484466553],"min":[2.2250738585072014e-308,-4.364077091217041,2.2250738585072014e-308]},{"bufferView":4,"byteOffset":0,"componentType":5126,"count":374,"type":"VEC2","max":[0.7616195678710938,0.6265220642089844],"min":[2.2250738585072014e-308,2.2250738585072014e-308]},{"bufferView":5,"byteOffset":0,"componentType":5125,"count":1611,"type":"SCALAR","max":[373],"min":[0]}],"buffers":[{"byteLength":188380,"uri":"tile_0752.bin"}],"bufferViews":[{"buffer":0,"byteOffset":0,"byteLength":56124,"target":34962},{"buffer":0,"byteOffset":56124,"byteLength":37416,"target":34962},{"buffer":0,"byteOffset":93540,"byteLength":80916,"target":34963},{"buffer":0,"byteOffset":174456,"byteLength":4488,"target":34962},{"buffer":0,"byteOffset":178944,"byteLength":2992,"target":34962},{"buffer":0,"byteOffset":181936,"byteLength":6444,"target":34963}],"images":[{"uri":"../textures/tile_0752_material_0.jpg"},{"uri":"../textures/tile_0752_material_1.jpg"}],"materials":[{"name":"DefaultMaterial","pbrMetallicRoughness":{"baseColorFactor":[0.6000000238418579,0.6000000238418579,0.6000000238418579,1.0],"metallicFactor":0.0},"extensions":{"KHR_materials_specular":{"specularFactor":1.0,"specularColorFactor":[0.0,0.0,0.0]},"KHR_materials_ior":{"ior":1.0}}},{"name":"material_0_material","pbrMetallicRoughness":{"baseColorTexture":{"index":0},"metallicFactor":0.0},"extensions":{"KHR_materials_specular":{"specularFactor":1.0,"specularColorFactor":[0.0,0.0,0.0]},"KHR_materials_ior":{"ior":1.0}}},{"name":"material_1_material","pbrMetallicRoughness":{"baseColorTexture":{"index":1},"metallicFactor":0.0},"extensions":{"KHR_materials_specular":{"specularFactor":1.0,"specularColorFactor":[0.0,0.0,0.0]},"KHR_materials_ior":{"ior":1.0}}}],"meshes":[{"name":"defaultobject","primitives":[{"mode":4,"material":1,"indices":2,"attributes":{"POSITION":0,"TEXCOORD_0":1}},{"mode":4,"material":2,"indices":5,"attributes":{"POSITION":3,"TEXCOORD_0":4}}]}],"nodes":[{"name":"tile_0752.obj","children":[1]},{"name":"defaultobject","mesh":0}],"samplers":[{},{}],"scenes":[{"nodes":[0]}],"textures":[{"source":0,"sampler":0},{"source":1,"sampler":1}],"scene":0}
