{"asset":{"version":"2.0","generator":"Open Asset Import Library (assimp v6.0.0)"},"extensionsUsed":["KHR_materials_specular","KHR_materials_volume","KHR_materials_ior","FB_ngon_encoding"],"accessors":[{"bufferView":0,"byteOffset":0,"componentType":5126,"count":5341,"type":"VEC3","max":[-1.9696975946426392,3.526402711868286,4.666487693786621],"min":[-2.249427556991577,2.2250738585072014e-308,2.2250738585072014e-308]},{"bufferView":1,"byteOffset":0,"componentType":5126,"count":5341,"type":"VEC2","max":[0.9940476417541504,0.6795120239257812],"min":[2.2250738585072014e-308,2.2250738585072014e-308]},{"bufferView":2,"byteOffset":0,"componentType":5125,"count":23574,"type":"SCALAR","max":[5340],"min":[0]},{"bufferView":3,"byteOffset":0,"componentType":5126,"count":998,"type":"VEC3","max":[-1.92018461227417,3.2910802364349365,4.59246826171875],"min":[-2.2419495582580566,2.2250738585072014e-308,2.2250738585072014e-308]},{"bufferView":4,"byteOffset":0,"componentType":5126,"count":998,"type":"VEC2","max":[0.6254565715789795,0.6206932067871094],"min":[2.2250738585072014e-308,2.2250738585072014e-308]},{"bufferView":5,"byteOffset":0,"componentType":5125,"count":4815,"type":"SCALAR","max":[997],"min":[0]}],"buffers":[{"byteLength":240336,"uri":"tile_0498.bin"}],"bufferViews":[{"buffer":0,"byteOffset":0,"byteLength":64092,"target":34962},{"buffer":0,"byteOffset":64092,"byteLength":42728,"target":34962},{"buffer":0,"byteOffset":106820,"byteLength":94296,"target":34963},{"buffer":0,"byteOffset":201116,"byteLength":11976,"target":34962},{"buffer":0,"byteOffset":213092,"byteLength":7984,"target":34962},{"buffer":0,"byteOffset":221076,"byteLength":19260,"target":34963}],"images":[{"uri":"../textures/tile_0498_material_0.jpg"},{"uri":"../textures/tile_0498_material_1.jpg"}],"materials":[{"name":"DefaultMaterial","pbrMetallicRoughness":{"baseColorFactor":[0.6000000238418579,0.6000000238418579,0.6000000238418579,1.0],"metallicFactor":0.0},"extensions":{"KHR_materials_specular":{"specularFactor":1.0,"specularColorFactor":[0.0,0.0,0.0]},"KHR_materials_ior":{"ior":1.0}}},{"name":"material_0_material","pbrMetallicRoughness":{"baseColorTexture":{"index":0},"metallicFactor":0.0},"extensions":{"KHR_materials_specular":{"specularFactor":1.0,"specularColorFactor":[0.0,0.0,0.0]},"KHR_materials_ior":{"ior":1.0}}},{"name":"material_1_material","pbrMetallicRoughness":{"baseColorTexture":{"index":1},"metallicFactor":0.0},"extensions":{"KHR_materials_specular":{"specularFactor":1.0,"specularColorFactor":[0.0,0.0,0.0]},"KHR_materials_ior":{"ior":1.0}}}],"meshes":[{"name":"defaultobject","primitives":[{"mode":4,"material":1,"indices":2,"attributes":{"POSITION":0,"TEXCOORD_0":1}},{"mode":4,"material":2,"indices":5,"attributes":{"POSITION":3,"TEXCOORD_0":4}}]}],"nodes":[{"name":"tile_0498.obj","children":[1]},{"name":"defaultobject","mesh":0}],"samplers":[{},{}],"scenes":[{"nodes":[0]}],"textures":[{"source":0,"sampler":0},{"source":1,"sampler":1}],"scene":0}
