{"asset":{"version":"2.0","generator":"Open Asset Import Library (assimp v6.0.0)"},"extensionsUsed":["KHR_materials_specular","KHR_materials_volume","KHR_materials_ior","FB_ngon_encoding"],"accessors":[{"bufferView":0,"byteOffset":0,"componentType":5126,"count":5654,"type":"VEC3","max":[-1.1055299043655396,-3.132305383682251,2.3623056411743164],"min":[-1.2907276153564453,-3.567553758621216,2.2250738585072014e-308]},{"bufferView":1,"byteOffset":0,"componentType":5126,"count":5654,"type":"VEC2","max":[0.9904651641845703,0.6054458618164062],"min":[2.2250738585072014e-308,2.2250738585072014e-308]},{"bufferView":2,"byteOffset":0,"componentType":5125,"count":24606,"type":"SCALAR","max":[5653],"min":[0]},{"bufferView":3,"byteOffset":0,"componentType":5126,"count":37,"type":"VEC3","max":[-1.2083101272583008,-3.1337294578552246,2.3485729694366455],"min":[-1.2851097583770752,-3.1527678966522217,2.2250738585072014e-308]},{"bufferView":4,"byteOffset":0,"componentType":5126,"count":37,"type":"VEC2","max":[0.7465667724609375,0.700546145439148],"min":[2.2250738585072014e-308,2.2250738585072014e-308]},{"bufferView":5,"byteOffset":0,"componentType":5125,"count":111,"type":"SCALAR","max":[36],"min":[0]}],"buffers":[{"byteLength":212688,"uri":"tile_0321.bin"}],"bufferViews":[{"buffer":0,"byteOffset":0,"byteLength":67848,"target":34962},{"buffer":0,"byteOffset":67848,"byteLength":45232,"target":34962},{"buffer":0,"byteOffset":113080,"byteLength":98424,"target":34963},{"buffer":0,"byteOffset":211504,"byteLength":444,"target":34962},{"buffer":0,"byteOffset":211948,"byteLength":296,"target":34962},{"buffer":0,"byteOffset":212244,"byteLength":444,"target":34963}],"images":[{"uri":"../textures/tile_0321_material_0.jpg"},{"uri":"../textures/tile_0321_material_1.jpg"}],"materials":[{"name":"DefaultMaterial","pbrMetallicRoughness":{"baseColorFactor":[0.6000000238418579,0.6000000238418579,0.6000000238418579,1.0],"metallicFactor":0.0},"extensions":{"KHR_materials_specular":{"specularFactor":1.0,"specularColorFactor":[0.0,0.0,0.0]},"KHR_materials_ior":{"ior":1.0}}},{"name":"material_0_material","pbrMetallicRoughness":{"baseColorTexture":{"index":0},"metallicFactor":0.0},"extensions":{"KHR_materials_specular":{"specularFactor":1.0,"specularColorFactor":[0.0,0.0,0.0]},"KHR_materials_ior":{"ior":1.0}}},{"name":"material_1_material","pbrMetallicRoughness":{"baseColorTexture":{"index":1},"metallicFactor":0.0},"extensions":{"KHR_materials_specular":{"specularFactor":1.0,"specularColorFactor":[0.0,0.0,0.0]},"KHR_materials_ior":{"ior":1.0}}}],"meshes":[{"name":"defaultobject","primitives":[{"mode":4,"material":1,"indices":2,"attributes":{"POSITION":0,"TEXCOORD_0":1}},{"mode":4,"material":2,"indices":5,"attributes":{"POSITION":3,"TEXCOORD_0":4}}]}],"nodes":[{"name":"tile_0321.obj","children":[1]},{"name":"defaultobject","mesh":0}],"samplers":[{},{}],"scenes":[{"nodes":[0]}],"textures":[{"source":0,"sampler":0},{"source":1,"sampler":1}],"scene":0}
