{"asset":{"version":"2.0","generator":"Open Asset Import Library (assimp v6.0.0)"},"extensionsUsed":["KHR_materials_specular","KHR_materials_volume","KHR_materials_ior","FB_ngon_encoding"],"accessors":[{"bufferView":0,"byteOffset":0,"componentType":5126,"count":4543,"type":"VEC3","max":[1.3772214651107788,2.957671880722046,4.456178665161133],"min":[2.2250738585072014e-308,2.2250738585072014e-308,2.2250738585072014e-308]},{"bufferView":1,"byteOffset":0,"componentType":5126,"count":4543,"type":"VEC2","max":[0.989926815032959,0.9687309265136719],"min":[2.2250738585072014e-308,2.2250738585072014e-308]},{"bufferView":2,"byteOffset":0,"componentType":5125,"count":20499,"type":"SCALAR","max":[4542],"min":[0]},{"bufferView":3,"byteOffset":0,"componentType":5126,"count":656,"type":"VEC3","max":[1.3819692134857178,2.982616662979126,4.466651439666748],"min":[2.2250738585072014e-308,2.2250738585072014e-308,2.2250738585072014e-308]},{"bufferView":4,"byteOffset":0,"componentType":5126,"count":656,"type":"VEC2","max":[0.614861011505127,0.7514152526855469],"min":[2.2250738585072014e-308,2.2250738585072014e-308]},{"bufferView":5,"byteOffset":0,"componentType":5125,"count":3171,"type":"SCALAR","max":[655],"min":[0]}],"buffers":[{"byteLength":198660,"uri":"tile_0687.bin"}],"bufferViews":[{"buffer":0,"byteOffset":0,"byteLength":54516,"target":34962},{"buffer":0,"byteOffset":54516,"byteLength":36344,"target":34962},{"buffer":0,"byteOffset":90860,"byteLength":81996,"target":34963},{"buffer":0,"byteOffset":172856,"byteLength":7872,"target":34962},{"buffer":0,"byteOffset":180728,"byteLength":5248,"target":34962},{"buffer":0,"byteOffset":185976,"byteLength":12684,"target":34963}],"images":[{"uri":"../textures/tile_0687_material_0.jpg"},{"uri":"../textures/tile_0687_material_1.jpg"}],"materials":[{"name":"DefaultMaterial","pbrMetallicRoughness":{"baseColorFactor":[0.6000000238418579,0.6000000238418579,0.6000000238418579,1.0],"metallicFactor":0.0},"extensions":{"KHR_materials_specular":{"specularFactor":1.0,"specularColorFactor":[0.0,0.0,0.0]},"KHR_materials_ior":{"ior":1.0}}},{"name":"material_0_material","pbrMetallicRoughness":{"baseColorTexture":{"index":0},"metallicFactor":0.0},"extensions":{"KHR_materials_specular":{"specularFactor":1.0,"specularColorFactor":[0.0,0.0,0.0]},"KHR_materials_ior":{"ior":1.0}}},{"name":"material_1_material","pbrMetallicRoughness":{"baseColorTexture":{"index":1},"metallicFactor":0.0},"extensions":{"KHR_materials_specular":{"specularFactor":1.0,"specularColorFactor":[0.0,0.0,0.0]},"KHR_materials_ior":{"ior":1.0}}}],"meshes":[{"name":"defaultobject","primitives":[{"mode":4,"material":1,"indices":2,"attributes":{"POSITION":0,"TEXCOORD_0":1}},{"mode":4,"material":2,"indices":5,"attributes":{"POSITION":3,"TEXCOORD_0":4}}]}],"nodes":[{"name":"tile_0687.obj","children":[1]},{"name":"defaultobject","mesh":0}],"samplers":[{},{}],"scenes":[{"nodes":[0]}],"textures":[{"source":0,"sampler":0},{"source":1,"sampler":1}],"scene":0}
