{"asset":{"version":"2.0","generator":"Open Asset Import Library (assimp v6.0.0)"},"extensionsUsed":["KHR_materials_specular","KHR_materials_volume","KHR_materials_ior","FB_ngon_encoding"],"accessors":[{"bufferView":0,"byteOffset":0,"componentType":5126,"count":3386,"type":"VEC3","max":[-0.22113445401191711,-1.9451087713241577,2.522678852081299],"min":[-0.42503026127815247,-2.2093210220336914,2.2250738585072014e-308]},{"bufferView":1,"byteOffset":0,"componentType":5126,"count":3386,"type":"VEC2","max":[0.9837355613708496,0.7622337341308594],"min":[2.2250738585072014e-308,2.2250738585072014e-308]},{"bufferView":2,"byteOffset":0,"componentType":5125,"count":15984,"type":"SCALAR","max":[3385],"min":[0]},{"bufferView":3,"byteOffset":0,"componentType":5126,"count":849,"type":"VEC3","max":[-0.22129029035568237,-1.9450244903564453,2.445601463317871],"min":[-0.3720117211341858,-2.1184980869293213,2.2250738585072014e-308]},{"bufferView":4,"byteOffset":0,"componentType":5126,"count":849,"type":"VEC2","max":[0.7102775573730469,0.9162178039550781],"min":[2.2250738585072014e-308,2.2250738585072014e-308]},{"bufferView":5,"byteOffset":0,"componentType":5125,"count":4290,"type":"SCALAR","max":[848],"min":[0]}],"buffers":[{"byteLength":165796,"uri":"tile_0360.bin"}],"bufferViews":[{"buffer":0,"byteOffset":0,"byteLength":40632,"target":34962},{"buffer":0,"byteOffset":40632,"byteLength":27088,"target":34962},{"buffer":0,"byteOffset":67720,"byteLength":63936,"target":34963},{"buffer":0,"byteOffset":131656,"byteLength":10188,"target":34962},{"buffer":0,"byteOffset":141844,"byteLength":6792,"target":34962},{"buffer":0,"byteOffset":148636,"byteLength":17160,"target":34963}],"images":[{"uri":"../textures/tile_0360_material_0.jpg"},{"uri":"../textures/tile_0360_material_1.jpg"}],"materials":[{"name":"DefaultMaterial","pbrMetallicRoughness":{"baseColorFactor":[0.6000000238418579,0.6000000238418579,0.6000000238418579,1.0],"metallicFactor":0.0},"extensions":{"KHR_materials_specular":{"specularFactor":1.0,"specularColorFactor":[0.0,0.0,0.0]},"KHR_materials_ior":{"ior":1.0}}},{"name":"material_0_material","pbrMetallicRoughness":{"baseColorTexture":{"index":0},"metallicFactor":0.0},"extensions":{"KHR_materials_specular":{"specularFactor":1.0,"specularColorFactor":[0.0,0.0,0.0]},"KHR_materials_ior":{"ior":1.0}}},{"name":"material_1_material","pbrMetallicRoughness":{"baseColorTexture":{"index":1},"metallicFactor":0.0},"extensions":{"KHR_materials_specular":{"specularFactor":1.0,"specularColorFactor":[0.0,0.0,0.0]},"KHR_materials_ior":{"ior":1.0}}}],"meshes":[{"name":"defaultobject","primitives":[{"mode":4,"material":1,"indices":2,"attributes":{"POSITION":0,"TEXCOORD_0":1}},{"mode":4,"material":2,"indices":5,"attributes":{"POSITION":3,"TEXCOORD_0":4}}]}],"nodes":[{"name":"tile_0360.obj","children":[1]},{"name":"defaultobject","mesh":0}],"samplers":[{},{}],"scenes":[{"nodes":[0]}],"textures":[{"source":0,"sampler":0},{"source":1,"sampler":1}],"scene":0}
