{"asset":{"version":"2.0","generator":"Open Asset Import Library (assimp v6.0.0)"},"extensionsUsed":["KHR_materials_specular","KHR_materials_volume","KHR_materials_ior","FB_ngon_encoding"],"accessors":[{"bufferView":0,"byteOffset":0,"componentType":5126,"count":4495,"type":"VEC3","max":[-3.5746309757232666,-1.0101323127746582,3.9987540245056152],"min":[-4.157364845275879,-1.1819121837615967,2.2250738585072014e-308]},{"bufferView":1,"byteOffset":0,"componentType":5126,"count":4495,"type":"VEC2","max":[0.9901237487792969,0.5155792236328125],"min":[2.2250738585072014e-308,2.2250738585072014e-308]},{"bufferView":2,"byteOffset":0,"componentType":5125,"count":19680,"type":"SCALAR","max":[4494],"min":[0]},{"bufferView":3,"byteOffset":0,"componentType":5126,"count":1113,"type":"VEC3","max":[-3.5746309757232666,-1.0115691423416138,3.9851222038269043],"min":[-4.154067039489746,-1.1808568239212036,2.2250738585072014e-308]},{"bufferView":4,"byteOffset":0,"componentType":5126,"count":1113,"type":"VEC2","max":[0.531639575958252,0.920684814453125],"min":[2.2250738585072014e-308,2.2250738585072014e-308]},{"bufferView":5,"byteOffset":0,"componentType":5125,"count":5628,"type":"SCALAR","max":[1112],"min":[0]}],"buffers":[{"byteLength":213392,"uri":"tile_0074.bin"}],"bufferViews":[{"buffer":0,"byteOffset":0,"byteLength":53940,"target":34962},{"buffer":0,"byteOffset":53940,"byteLength":35960,"target":34962},{"buffer":0,"byteOffset":89900,"byteLength":78720,"target":34963},{"buffer":0,"byteOffset":168620,"byteLength":13356,"target":34962},{"buffer":0,"byteOffset":181976,"byteLength":8904,"target":34962},{"buffer":0,"byteOffset":190880,"byteLength":22512,"target":34963}],"images":[{"uri":"../textures/tile_0074_material_0.jpg"},{"uri":"../textures/tile_0074_material_1.jpg"}],"materials":[{"name":"DefaultMaterial","pbrMetallicRoughness":{"baseColorFactor":[0.6000000238418579,0.6000000238418579,0.6000000238418579,1.0],"metallicFactor":0.0},"extensions":{"KHR_materials_specular":{"specularFactor":1.0,"specularColorFactor":[0.0,0.0,0.0]},"KHR_materials_ior":{"ior":1.0}}},{"name":"material_0_material","pbrMetallicRoughness":{"baseColorTexture":{"index":0},"metallicFactor":0.0},"extensions":{"KHR_materials_specular":{"specularFactor":1.0,"specularColorFactor":[0.0,0.0,0.0]},"KHR_materials_ior":{"ior":1.0}}},{"name":"material_1_material","pbrMetallicRoughness":{"baseColorTexture":{"index":1},"metallicFactor":0.0},"extensions":{"KHR_materials_specular":{"specularFactor":1.0,"specularColorFactor":[0.0,0.0,0.0]},"KHR_materials_ior":{"ior":1.0}}}],"meshes":[{"name":"defaultobject","primitives":[{"mode":4,"material":1,"indices":2,"attributes":{"POSITION":0,"TEXCOORD_0":1}},{"mode":4,"material":2,"indices":5,"attributes":{"POSITION":3,"TEXCOORD_0":4}}]}],"nodes":[{"name":"tile_0074.obj","children":[1]},{"name":"defaultobject","mesh":0}],"samplers":[{},{}],"scenes":[{"nodes":[0]}],"textures":[{"source":0,"sampler":0},{"source":1,"sampler":1}],"scene":0}
