{"asset":{"version":"2.0","generator":"Open Asset Import Library (assimp v6.0.0)"},"extensionsUsed":["KHR_materials_specular","KHR_materials_volume","KHR_materials_ior","FB_ngon_encoding"],"accessors":[{"bufferView":0,"byteOffset":0,"componentType":5126,"count":1655,"type":"VEC3","max":[-2.3354275226593018,-2.1891326904296875,2.322263479232788],"min":[-2.629558801651001,-2.443199396133423,2.2250738585072014e-308]},{"bufferView":1,"byteOffset":0,"componentType":5126,"count":1655,"type":"VEC2","max":[0.9919254779815674,0.8030242919921875],"min":[2.2250738585072014e-308,2.2250738585072014e-308]},{"bufferView":2,"byteOffset":0,"componentType":5125,"count":7794,"type":"SCALAR","max":[1654],"min":[0]},{"bufferView":3,"byteOffset":0,"componentType":5126,"count":3228,"type":"VEC3","max":[-2.3349769115448,-2.1885924339294434,2.3204739093780518],"min":[-2.6312804222106934,-2.4429047107696533,2.2250738585072014e-308]},{"bufferView":4,"byteOffset":0,"componentType":5126,"count":3228,"type":"VEC2","max":[0.9099531173706055,0.9535446166992188],"min":[2.2250738585072014e-308,2.2250738585072014e-308]},{"bufferView":5,"byteOffset":0,"componentType":5125,"count":17553,"type":"SCALAR","max":[3227],"min":[0]}],"buffers":[{"byteLength":199048,"uri":"tile_0039.bin"}],"bufferViews":[{"buffer":0,"byteOffset":0,"byteLength":19860,"target":34962},{"buffer":0,"byteOffset":19860,"byteLength":13240,"target":34962},{"buffer":0,"byteOffset":33100,"byteLength":31176,"target":34963},{"buffer":0,"byteOffset":64276,"byteLength":38736,"target":34962},{"buffer":0,"byteOffset":103012,"byteLength":25824,"target":34962},{"buffer":0,"byteOffset":128836,"byteLength":70212,"target":34963}],"images":[{"uri":"../textures/tile_0039_material_0.jpg"},{"uri":"../textures/tile_0039_material_1.jpg"}],"materials":[{"name":"DefaultMaterial","pbrMetallicRoughness":{"baseColorFactor":[0.6000000238418579,0.6000000238418579,0.6000000238418579,1.0],"metallicFactor":0.0},"extensions":{"KHR_materials_specular":{"specularFactor":1.0,"specularColorFactor":[0.0,0.0,0.0]},"KHR_materials_ior":{"ior":1.0}}},{"name":"material_0_material","pbrMetallicRoughness":{"baseColorTexture":{"index":0},"metallicFactor":0.0},"extensions":{"KHR_materials_specular":{"specularFactor":1.0,"specularColorFactor":[0.0,0.0,0.0]},"KHR_materials_ior":{"ior":1.0}}},{"name":"material_1_material","pbrMetallicRoughness":{"baseColorTexture":{"index":1},"metallicFactor":0.0},"extensions":{"KHR_materials_specular":{"specularFactor":1.0,"specularColorFactor":[0.0,0.0,0.0]},"KHR_materials_ior":{"ior":1.0}}}],"meshes":[{"name":"defaultobject","primitives":[{"mode":4,"material":1,"indices":2,"attributes":{"POSITION":0,"TEXCOORD_0":1}},{"mode":4,"material":2,"indices":5,"attributes":{"POSITION":3,"TEXCOORD_0":4}}]}],"nodes":[{"name":"tile_0039.obj","children":[1]},{"name":"defaultobject","mesh":0}],"samplers":[{},{}],"scenes":[{"nodes":[0]}],"textures":[{"source":0,"sampler":0},{"source":1,"sampler":1}],"scene":0}
