{"asset":{"version":"2.0","generator":"Open Asset Import Library (assimp v6.0.0)"},"extensionsUsed":["KHR_materials_specular","KHR_materials_volume","KHR_materials_ior","FB_ngon_encoding"],"accessors":[{"bufferView":0,"byteOffset":0,"componentType":5126,"count":5939,"type":"VEC3","max":[2.892421007156372,-2.4379661083221436,3.5055856704711914],"min":[2.2250738585072014e-308,-2.7052769660949707,2.2250738585072014e-308]},{"bufferView":1,"byteOffset":0,"componentType":5126,"count":5939,"type":"VEC2","max":[0.9936943054199219,0.6393337249755859],"min":[2.2250738585072014e-308,2.2250738585072014e-308]},{"bufferView":2,"byteOffset":0,"componentType":5125,"count":26214,"type":"SCALAR","max":[5938],"min":[0]},{"bufferView":3,"byteOffset":0,"componentType":5126,"count":274,"type":"VEC3","max":[2.8920140266418457,-2.443950891494751,3.495816946029663],"min":[2.2250738585072014e-308,-2.539686918258667,2.2250738585072014e-308]},{"bufferView":4,"byteOffset":0,"componentType":5126,"count":274,"type":"VEC2","max":[0.63995361328125,0.7019119262695312],"min":[2.2250738585072014e-308,2.2250738585072014e-308]},{"bufferView":5,"byteOffset":0,"componentType":5125,"count":1293,"type":"SCALAR","max":[273],"min":[0]}],"buffers":[{"byteLength":234288,"uri":"tile_0236.bin"}],"bufferViews":[{"buffer":0,"byteOffset":0,"byteLength":71268,"target":34962},{"buffer":0,"byteOffset":71268,"byteLength":47512,"target":34962},{"buffer":0,"byteOffset":118780,"byteLength":104856,"target":34963},{"buffer":0,"byteOffset":223636,"byteLength":3288,"target":34962},{"buffer":0,"byteOffset":226924,"byteLength":2192,"target":34962},{"buffer":0,"byteOffset":229116,"byteLength":5172,"target":34963}],"images":[{"uri":"../textures/tile_0236_material_0.jpg"},{"uri":"../textures/tile_0236_material_1.jpg"}],"materials":[{"name":"DefaultMaterial","pbrMetallicRoughness":{"baseColorFactor":[0.6000000238418579,0.6000000238418579,0.6000000238418579,1.0],"metallicFactor":0.0},"extensions":{"KHR_materials_specular":{"specularFactor":1.0,"specularColorFactor":[0.0,0.0,0.0]},"KHR_materials_ior":{"ior":1.0}}},{"name":"material_0_material","pbrMetallicRoughness":{"baseColorTexture":{"index":0},"metallicFactor":0.0},"extensions":{"KHR_materials_specular":{"specularFactor":1.0,"specularColorFactor":[0.0,0.0,0.0]},"KHR_materials_ior":{"ior":1.0}}},{"name":"material_1_material","pbrMetallicRoughness":{"baseColorTexture":{"index":1},"metallicFactor":0.0},"extensions":{"KHR_materials_specular":{"specularFactor":1.0,"specularColorFactor":[0.0,0.0,0.0]},"KHR_materials_ior":{"ior":1.0}}}],"meshes":[{"name":"defaultobject","primitives":[{"mode":4,"material":1,"indices":2,"attributes":{"POSITION":0,"TEXCOORD_0":1}},{"mode":4,"material":2,"indices":5,"attributes":{"POSITION":3,"TEXCOORD_0":4}}]}],"nodes":[{"name":"tile_0236.obj","children":[1]},{"name":"defaultobject","mesh":0}],"samplers":[{},{}],"scenes":[{"nodes":[0]}],"textures":[{"source":0,"sampler":0},{"source":1,"sampler":1}],"scene":0}
