{"asset":{"version":"2.0","generator":"Open Asset Import Library (assimp v6.0.0)"},"extensionsUsed":["KHR_materials_specular","KHR_materials_volume","KHR_materials_ior","FB_ngon_encoding"],"accessors":[{"bufferView":0,"byteOffset":0,"componentType":5126,"count":3345,"type":"VEC3","max":[0.170365571975708,4.515235424041748,4.762692928314209],"min":[-0.23194190859794617,2.2250738585072014e-308,2.2250738585072014e-308]},{"bufferView":1,"byteOffset":0,"componentType":5126,"count":3345,"type":"VEC2","max":[0.9887127876281738,0.6980972290039062],"min":[2.2250738585072014e-308,2.2250738585072014e-308]},{"bufferView":2,"byteOffset":0,"componentType":5125,"count":13734,"type":"SCALAR","max":[3344],"min":[0]},{"bufferView":3,"byteOffset":0,"componentType":5126,"count":2081,"type":"VEC3","max":[0.20374996960163116,4.446200847625732,4.747055530548096],"min":[-0.23194190859794617,2.2250738585072014e-308,2.2250738585072014e-308]},{"bufferView":4,"byteOffset":0,"componentType":5126,"count":2081,"type":"VEC2","max":[0.942929744720459,0.5535478591918945],"min":[2.2250738585072014e-308,2.2250738585072014e-308]},{"bufferView":5,"byteOffset":0,"componentType":5125,"count":10353,"type":"SCALAR","max":[2080],"min":[0]}],"buffers":[{"byteLength":204868,"uri":"tile_0003.bin"}],"bufferViews":[{"buffer":0,"byteOffset":0,"byteLength":40140,"target":34962},{"buffer":0,"byteOffset":40140,"byteLength":26760,"target":34962},{"buffer":0,"byteOffset":66900,"byteLength":54936,"target":34963},{"buffer":0,"byteOffset":121836,"byteLength":24972,"target":34962},{"buffer":0,"byteOffset":146808,"byteLength":16648,"target":34962},{"buffer":0,"byteOffset":163456,"byteLength":41412,"target":34963}],"images":[{"uri":"../textures/tile_0003_material_0.jpg"},{"uri":"../textures/tile_0003_material_1.jpg"}],"materials":[{"name":"DefaultMaterial","pbrMetallicRoughness":{"baseColorFactor":[0.6000000238418579,0.6000000238418579,0.6000000238418579,1.0],"metallicFactor":0.0},"extensions":{"KHR_materials_specular":{"specularFactor":1.0,"specularColorFactor":[0.0,0.0,0.0]},"KHR_materials_ior":{"ior":1.0}}},{"name":"material_0_material","pbrMetallicRoughness":{"baseColorTexture":{"index":0},"metallicFactor":0.0},"extensions":{"KHR_materials_specular":{"specularFactor":1.0,"specularColorFactor":[0.0,0.0,0.0]},"KHR_materials_ior":{"ior":1.0}}},{"name":"material_1_material","pbrMetallicRoughness":{"baseColorTexture":{"index":1},"metallicFactor":0.0},"extensions":{"KHR_materials_specular":{"specularFactor":1.0,"specularColorFactor":[0.0,0.0,0.0]},"KHR_materials_ior":{"ior":1.0}}}],"meshes":[{"name":"defaultobject","primitives":[{"mode":4,"material":1,"indices":2,"attributes":{"POSITION":0,"TEXCOORD_0":1}},{"mode":4,"material":2,"indices":5,"attributes":{"POSITION":3,"TEXCOORD_0":4}}]}],"nodes":[{"name":"tile_0003.obj","children":[1]},{"name":"defaultobject","mesh":0}],"samplers":[{},{}],"scenes":[{"nodes":[0]}],"textures":[{"source":0,"sampler":0},{"source":1,"sampler":1}],"scene":0}
