{"asset":{"version":"2.0","generator":"Open Asset Import Library (assimp v6.0.0)"},"extensionsUsed":["KHR_materials_specular","KHR_materials_volume","KHR_materials_ior","FB_ngon_encoding"],"accessors":[{"bufferView":0,"byteOffset":0,"componentType":5126,"count":5474,"type":"VEC3","max":[-0.5702711343765259,-2.755225658416748,2.311589002609253],"min":[-0.7578179836273193,-3.13692307472229,2.2250738585072014e-308]},{"bufferView":1,"byteOffset":0,"componentType":5126,"count":5474,"type":"VEC2","max":[0.9924566745758057,0.5658760070800781],"min":[2.2250738585072014e-308,2.2250738585072014e-308]},{"bufferView":2,"byteOffset":0,"componentType":5125,"count":24327,"type":"SCALAR","max":[5473],"min":[0]},{"bufferView":3,"byteOffset":0,"componentType":5126,"count":144,"type":"VEC3","max":[-0.5706673264503479,-2.7571229934692383,2.2859556674957275],"min":[-0.7443390488624573,-2.852820634841919,2.2250738585072014e-308]},{"bufferView":4,"byteOffset":0,"componentType":5126,"count":144,"type":"VEC2","max":[0.8531265258789062,0.8743133544921875],"min":[2.2250738585072014e-308,2.2250738585072014e-308]},{"bufferView":5,"byteOffset":0,"componentType":5125,"count":570,"type":"SCALAR","max":[143],"min":[0]}],"buffers":[{"byteLength":211948,"uri":"tile_0338.bin"}],"bufferViews":[{"buffer":0,"byteOffset":0,"byteLength":65688,"target":34962},{"buffer":0,"byteOffset":65688,"byteLength":43792,"target":34962},{"buffer":0,"byteOffset":109480,"byteLength":97308,"target":34963},{"buffer":0,"byteOffset":206788,"byteLength":1728,"target":34962},{"buffer":0,"byteOffset":208516,"byteLength":1152,"target":34962},{"buffer":0,"byteOffset":209668,"byteLength":2280,"target":34963}],"images":[{"uri":"../textures/tile_0338_material_0.jpg"},{"uri":"../textures/tile_0338_material_1.jpg"}],"materials":[{"name":"DefaultMaterial","pbrMetallicRoughness":{"baseColorFactor":[0.6000000238418579,0.6000000238418579,0.6000000238418579,1.0],"metallicFactor":0.0},"extensions":{"KHR_materials_specular":{"specularFactor":1.0,"specularColorFactor":[0.0,0.0,0.0]},"KHR_materials_ior":{"ior":1.0}}},{"name":"material_0_material","pbrMetallicRoughness":{"baseColorTexture":{"index":0},"metallicFactor":0.0},"extensions":{"KHR_materials_specular":{"specularFactor":1.0,"specularColorFactor":[0.0,0.0,0.0]},"KHR_materials_ior":{"ior":1.0}}},{"name":"material_1_material","pbrMetallicRoughness":{"baseColorTexture":{"index":1},"metallicFactor":0.0},"extensions":{"KHR_materials_specular":{"specularFactor":1.0,"specularColorFactor":[0.0,0.0,0.0]},"KHR_materials_ior":{"ior":1.0}}}],"meshes":[{"name":"defaultobject","primitives":[{"mode":4,"material":1,"indices":2,"attributes":{"POSITION":0,"TEXCOORD_0":1}},{"mode":4,"material":2,"indices":5,"attributes":{"POSITION":3,"TEXCOORD_0":4}}]}],"nodes":[{"name":"tile_0338.obj","children":[1]},{"name":"defaultobject","mesh":0}],"samplers":[{},{}],"scenes":[{"nodes":[0]}],"textures":[{"source":0,"sampler":0},{"source":1,"sampler":1}],"scene":0}
