{"asset":{"version":"2.0","generator":"Open Asset Import Library (assimp v6.0.0)"},"extensionsUsed":["KHR_materials_specular","KHR_materials_volume","KHR_materials_ior","FB_ngon_encoding"],"accessors":[{"bufferView":0,"byteOffset":0,"componentType":5126,"count":660,"type":"VEC3","max":[-3.380734920501709,-3.5721471309661865,2.7336878776550293],"min":[-4.1025190353393555,-4.063202857971191,2.2250738585072014e-308]},{"bufferView":1,"byteOffset":0,"componentType":5126,"count":660,"type":"VEC2","max":[0.751953125,0.729034423828125],"min":[2.2250738585072014e-308,2.2250738585072014e-308]},{"bufferView":2,"byteOffset":0,"componentType":5125,"count":3012,"type":"SCALAR","max":[659],"min":[0]},{"bufferView":3,"byteOffset":0,"componentType":5126,"count":1653,"type":"VEC3","max":[-3.3797733783721924,-3.5682320594787598,2.7120134830474854],"min":[-4.1025190353393555,-4.074817180633545,2.2250738585072014e-308]},{"bufferView":4,"byteOffset":0,"componentType":5126,"count":1653,"type":"VEC2","max":[0.5318217277526855,0.7204170227050781],"min":[2.2250738585072014e-308,2.2250738585072014e-308]},{"bufferView":5,"byteOffset":0,"componentType":5125,"count":8901,"type":"SCALAR","max":[1652],"min":[0]}],"buffers":[{"byteLength":93912,"uri":"tile_0428.bin"}],"bufferViews":[{"buffer":0,"byteOffset":0,"byteLength":7920,"target":34962},{"buffer":0,"byteOffset":7920,"byteLength":5280,"target":34962},{"buffer":0,"byteOffset":13200,"byteLength":12048,"target":34963},{"buffer":0,"byteOffset":25248,"byteLength":19836,"target":34962},{"buffer":0,"byteOffset":45084,"byteLength":13224,"target":34962},{"buffer":0,"byteOffset":58308,"byteLength":35604,"target":34963}],"images":[{"uri":"../textures/tile_0428_material_0.jpg"},{"uri":"../textures/tile_0428_material_1.jpg"}],"materials":[{"name":"DefaultMaterial","pbrMetallicRoughness":{"baseColorFactor":[0.6000000238418579,0.6000000238418579,0.6000000238418579,1.0],"metallicFactor":0.0},"extensions":{"KHR_materials_specular":{"specularFactor":1.0,"specularColorFactor":[0.0,0.0,0.0]},"KHR_materials_ior":{"ior":1.0}}},{"name":"material_0_material","pbrMetallicRoughness":{"baseColorTexture":{"index":0},"metallicFactor":0.0},"extensions":{"KHR_materials_specular":{"specularFactor":1.0,"specularColorFactor":[0.0,0.0,0.0]},"KHR_materials_ior":{"ior":1.0}}},{"name":"material_1_material","pbrMetallicRoughness":{"baseColorTexture":{"index":1},"metallicFactor":0.0},"extensions":{"KHR_materials_specular":{"specularFactor":1.0,"specularColorFactor":[0.0,0.0,0.0]},"KHR_materials_ior":{"ior":1.0}}}],"meshes":[{"name":"defaultobject","primitives":[{"mode":4,"material":1,"indices":2,"attributes":{"POSITION":0,"TEXCOORD_0":1}},{"mode":4,"material":2,"indices":5,"attributes":{"POSITION":3,"TEXCOORD_0":4}}]}],"nodes":[{"name":"tile_0428.obj","children":[1]},{"name":"defaultobject","mesh":0}],"samplers":[{},{}],"scenes":[{"nodes":[0]}],"textures":[{"source":0,"sampler":0},{"source":1,"sampler":1}],"scene":0}
