{"asset":{"version":"2.0","generator":"Open Asset Import Library (assimp v6.0.0)"},"extensionsUsed":["KHR_materials_specular","KHR_materials_volume","KHR_materials_ior","FB_ngon_encoding"],"accessors":[{"bufferView":0,"byteOffset":0,"componentType":5126,"count":5946,"type":"VEC3","max":[1.6515611410140991,2.518688201904297,4.350503921508789],"min":[2.2250738585072014e-308,2.2250738585072014e-308,2.2250738585072014e-308]},{"bufferView":1,"byteOffset":0,"componentType":5126,"count":5946,"type":"VEC2","max":[0.9960745573043823,0.5584945678710938],"min":[2.2250738585072014e-308,2.2250738585072014e-308]},{"bufferView":2,"byteOffset":0,"componentType":5125,"count":26097,"type":"SCALAR","max":[5945],"min":[0]},{"bufferView":3,"byteOffset":0,"componentType":5126,"count":73,"type":"VEC3","max":[1.6504124402999878,2.5178983211517334,4.311827182769775],"min":[2.2250738585072014e-308,2.2250738585072014e-308,2.2250738585072014e-308]},{"bufferView":4,"byteOffset":0,"componentType":5126,"count":73,"type":"VEC2","max":[0.9176025390625,0.7209166288375854],"min":[2.2250738585072014e-308,2.2250738585072014e-308]},{"bufferView":5,"byteOffset":0,"componentType":5125,"count":309,"type":"SCALAR","max":[72],"min":[0]}],"buffers":[{"byteLength":226004,"uri":"tile_0191.bin"}],"bufferViews":[{"buffer":0,"byteOffset":0,"byteLength":71352,"target":34962},{"buffer":0,"byteOffset":71352,"byteLength":47568,"target":34962},{"buffer":0,"byteOffset":118920,"byteLength":104388,"target":34963},{"buffer":0,"byteOffset":223308,"byteLength":876,"target":34962},{"buffer":0,"byteOffset":224184,"byteLength":584,"target":34962},{"buffer":0,"byteOffset":224768,"byteLength":1236,"target":34963}],"images":[{"uri":"../textures/tile_0191_material_0.jpg"},{"uri":"../textures/tile_0191_material_1.jpg"}],"materials":[{"name":"DefaultMaterial","pbrMetallicRoughness":{"baseColorFactor":[0.6000000238418579,0.6000000238418579,0.6000000238418579,1.0],"metallicFactor":0.0},"extensions":{"KHR_materials_specular":{"specularFactor":1.0,"specularColorFactor":[0.0,0.0,0.0]},"KHR_materials_ior":{"ior":1.0}}},{"name":"material_0_material","pbrMetallicRoughness":{"baseColorTexture":{"index":0},"metallicFactor":0.0},"extensions":{"KHR_materials_specular":{"specularFactor":1.0,"specularColorFactor":[0.0,0.0,0.0]},"KHR_materials_ior":{"ior":1.0}}},{"name":"material_1_material","pbrMetallicRoughness":{"baseColorTexture":{"index":1},"metallicFactor":0.0},"extensions":{"KHR_materials_specular":{"specularFactor":1.0,"specularColorFactor":[0.0,0.0,0.0]},"KHR_materials_ior":{"ior":1.0}}}],"meshes":[{"name":"defaultobject","primitives":[{"mode":4,"material":1,"indices":2,"attributes":{"POSITION":0,"TEXCOORD_0":1}},{"mode":4,"material":2,"indices":5,"attributes":{"POSITION":3,"TEXCOORD_0":4}}]}],"nodes":[{"name":"tile_0191.obj","children":[1]},{"name":"defaultobject","mesh":0}],"samplers":[{},{}],"scenes":[{"nodes":[0]}],"textures":[{"source":0,"sampler":0},{"source":1,"sampler":1}],"scene":0}
