{"asset":{"version":"2.0","generator":"Open Asset Import Library (assimp v6.0.0)"},"extensionsUsed":["KHR_materials_specular","KHR_materials_volume","KHR_materials_ior","FB_ngon_encoding"],"accessors":[{"bufferView":0,"byteOffset":0,"componentType":5126,"count":3436,"type":"VEC3","max":[5.512545108795166,1.6862695217132568,4.344550132751465],"min":[2.2250738585072014e-308,2.2250738585072014e-308,2.2250738585072014e-308]},{"bufferView":1,"byteOffset":0,"componentType":5126,"count":3436,"type":"VEC2","max":[0.9929542541503906,0.9668388366699219],"min":[2.2250738585072014e-308,2.2250738585072014e-308]},{"bufferView":2,"byteOffset":0,"componentType":5125,"count":15918,"type":"SCALAR","max":[3435],"min":[0]},{"bufferView":3,"byteOffset":0,"componentType":5126,"count":1876,"type":"VEC3","max":[5.602725028991699,1.7073249816894531,4.345940589904785],"min":[2.2250738585072014e-308,2.2250738585072014e-308,2.2250738585072014e-308]},{"bufferView":4,"byteOffset":0,"componentType":5126,"count":1876,"type":"VEC2","max":[0.6979269981384277,0.6217918395996094],"min":[2.2250738585072014e-308,2.2250738585072014e-308]},{"bufferView":5,"byteOffset":0,"componentType":5125,"count":9729,"type":"SCALAR","max":[1875],"min":[0]}],"buffers":[{"byteLength":208828,"uri":"tile_0204.bin"}],"bufferViews":[{"buffer":0,"byteOffset":0,"byteLength":41232,"target":34962},{"buffer":0,"byteOffset":41232,"byteLength":27488,"target":34962},{"buffer":0,"byteOffset":68720,"byteLength":63672,"target":34963},{"buffer":0,"byteOffset":132392,"byteLength":22512,"target":34962},{"buffer":0,"byteOffset":154904,"byteLength":15008,"target":34962},{"buffer":0,"byteOffset":169912,"byteLength":38916,"target":34963}],"images":[{"uri":"../textures/tile_0204_material_0.jpg"},{"uri":"../textures/tile_0204_material_1.jpg"}],"materials":[{"name":"DefaultMaterial","pbrMetallicRoughness":{"baseColorFactor":[0.6000000238418579,0.6000000238418579,0.6000000238418579,1.0],"metallicFactor":0.0},"extensions":{"KHR_materials_specular":{"specularFactor":1.0,"specularColorFactor":[0.0,0.0,0.0]},"KHR_materials_ior":{"ior":1.0}}},{"name":"material_0_material","pbrMetallicRoughness":{"baseColorTexture":{"index":0},"metallicFactor":0.0},"extensions":{"KHR_materials_specular":{"specularFactor":1.0,"specularColorFactor":[0.0,0.0,0.0]},"KHR_materials_ior":{"ior":1.0}}},{"name":"material_1_material","pbrMetallicRoughness":{"baseColorTexture":{"index":1},"metallicFactor":0.0},"extensions":{"KHR_materials_specular":{"specularFactor":1.0,"specularColorFactor":[0.0,0.0,0.0]},"KHR_materials_ior":{"ior":1.0}}}],"meshes":[{"name":"defaultobject","primitives":[{"mode":4,"material":1,"indices":2,"attributes":{"POSITION":0,"TEXCOORD_0":1}},{"mode":4,"material":2,"indices":5,"attributes":{"POSITION":3,"TEXCOORD_0":4}}]}],"nodes":[{"name":"tile_0204.obj","children":[1]},{"name":"defaultobject","mesh":0}],"samplers":[{},{}],"scenes":[{"nodes":[0]}],"textures":[{"source":0,"sampler":0},{"source":1,"sampler":1}],"scene":0}
