{"asset":{"version":"2.0","generator":"Open Asset Import Library (assimp v6.0.0)"},"extensionsUsed":["KHR_materials_specular","KHR_materials_volume","KHR_materials_ior","FB_ngon_encoding"],"accessors":[{"bufferView":0,"byteOffset":0,"componentType":5126,"count":2184,"type":"VEC3","max":[-4.1925048828125,-2.0348024368286133,3.2739622592926025],"min":[-5.231281280517578,-2.404834747314453,2.2250738585072014e-308]},{"bufferView":1,"byteOffset":0,"componentType":5126,"count":2184,"type":"VEC2","max":[0.9866461753845215,0.7971878051757812],"min":[2.2250738585072014e-308,2.2250738585072014e-308]},{"bufferView":2,"byteOffset":0,"componentType":5125,"count":11433,"type":"SCALAR","max":[2183],"min":[0]},{"bufferView":3,"byteOffset":0,"componentType":5126,"count":1684,"type":"VEC3","max":[-4.204238414764404,-2.010035753250122,3.196385145187378],"min":[-4.999898910522461,-2.3793506622314453,2.2250738585072014e-308]},{"bufferView":4,"byteOffset":0,"componentType":5126,"count":1684,"type":"VEC2","max":[0.5437469482421875,0.524932861328125],"min":[2.2250738585072014e-308,2.2250738585072014e-308]},{"bufferView":5,"byteOffset":0,"componentType":5125,"count":9063,"type":"SCALAR","max":[1683],"min":[0]}],"buffers":[{"byteLength":159344,"uri":"tile_0425.bin"}],"bufferViews":[{"buffer":0,"byteOffset":0,"byteLength":26208,"target":34962},{"buffer":0,"byteOffset":26208,"byteLength":17472,"target":34962},{"buffer":0,"byteOffset":43680,"byteLength":45732,"target":34963},{"buffer":0,"byteOffset":89412,"byteLength":20208,"target":34962},{"buffer":0,"byteOffset":109620,"byteLength":13472,"target":34962},{"buffer":0,"byteOffset":123092,"byteLength":36252,"target":34963}],"images":[{"uri":"../textures/tile_0425_material_0.jpg"},{"uri":"../textures/tile_0425_material_1.jpg"}],"materials":[{"name":"DefaultMaterial","pbrMetallicRoughness":{"baseColorFactor":[0.6000000238418579,0.6000000238418579,0.6000000238418579,1.0],"metallicFactor":0.0},"extensions":{"KHR_materials_specular":{"specularFactor":1.0,"specularColorFactor":[0.0,0.0,0.0]},"KHR_materials_ior":{"ior":1.0}}},{"name":"material_0_material","pbrMetallicRoughness":{"baseColorTexture":{"index":0},"metallicFactor":0.0},"extensions":{"KHR_materials_specular":{"specularFactor":1.0,"specularColorFactor":[0.0,0.0,0.0]},"KHR_materials_ior":{"ior":1.0}}},{"name":"material_1_material","pbrMetallicRoughness":{"baseColorTexture":{"index":1},"metallicFactor":0.0},"extensions":{"KHR_materials_specular":{"specularFactor":1.0,"specularColorFactor":[0.0,0.0,0.0]},"KHR_materials_ior":{"ior":1.0}}}],"meshes":[{"name":"defaultobject","primitives":[{"mode":4,"material":1,"indices":2,"attributes":{"POSITION":0,"TEXCOORD_0":1}},{"mode":4,"material":2,"indices":5,"attributes":{"POSITION":3,"TEXCOORD_0":4}}]}],"nodes":[{"name":"tile_0425.obj","children":[1]},{"name":"defaultobject","mesh":0}],"samplers":[{},{}],"scenes":[{"nodes":[0]}],"textures":[{"source":0,"sampler":0},{"source":1,"sampler":1}],"scene":0}
