{"asset":{"version":"2.0","generator":"Open Asset Import Library (assimp v6.0.0)"},"extensionsUsed":["KHR_materials_specular","KHR_materials_volume","KHR_materials_ior","FB_ngon_encoding"],"accessors":[{"bufferView":0,"byteOffset":0,"componentType":5126,"count":3952,"type":"VEC3","max":[-3.459157943725586,4.537835597991943,4.791200160980225],"min":[-3.867704391479492,2.2250738585072014e-308,2.2250738585072014e-308]},{"bufferView":1,"byteOffset":0,"componentType":5126,"count":3952,"type":"VEC2","max":[0.9853634834289551,0.5251235961914062],"min":[2.2250738585072014e-308,2.2250738585072014e-308]},{"bufferView":2,"byteOffset":0,"componentType":5125,"count":18978,"type":"SCALAR","max":[3951],"min":[0]},{"bufferView":3,"byteOffset":0,"componentType":5126,"count":2288,"type":"VEC3","max":[-3.4591736793518066,4.542135238647461,4.79853630065918],"min":[-3.866633415222168,2.2250738585072014e-308,2.2250738585072014e-308]},{"bufferView":4,"byteOffset":0,"componentType":5126,"count":2288,"type":"VEC2","max":[0.6368818283081055,0.6529960632324219],"min":[2.2250738585072014e-308,2.2250738585072014e-308]},{"bufferView":5,"byteOffset":0,"componentType":5125,"count":11733,"type":"SCALAR","max":[2287],"min":[0]}],"buffers":[{"byteLength":247644,"uri":"tile_0516.bin"}],"bufferViews":[{"buffer":0,"byteOffset":0,"byteLength":47424,"target":34962},{"buffer":0,"byteOffset":47424,"byteLength":31616,"target":34962},{"buffer":0,"byteOffset":79040,"byteLength":75912,"target":34963},{"buffer":0,"byteOffset":154952,"byteLength":27456,"target":34962},{"buffer":0,"byteOffset":182408,"byteLength":18304,"target":34962},{"buffer":0,"byteOffset":200712,"byteLength":46932,"target":34963}],"images":[{"uri":"../textures/tile_0516_material_0.jpg"},{"uri":"../textures/tile_0516_material_1.jpg"}],"materials":[{"name":"DefaultMaterial","pbrMetallicRoughness":{"baseColorFactor":[0.6000000238418579,0.6000000238418579,0.6000000238418579,1.0],"metallicFactor":0.0},"extensions":{"KHR_materials_specular":{"specularFactor":1.0,"specularColorFactor":[0.0,0.0,0.0]},"KHR_materials_ior":{"ior":1.0}}},{"name":"material_0_material","pbrMetallicRoughness":{"baseColorTexture":{"index":0},"metallicFactor":0.0},"extensions":{"KHR_materials_specular":{"specularFactor":1.0,"specularColorFactor":[0.0,0.0,0.0]},"KHR_materials_ior":{"ior":1.0}}},{"name":"material_1_material","pbrMetallicRoughness":{"baseColorTexture":{"index":1},"metallicFactor":0.0},"extensions":{"KHR_materials_specular":{"specularFactor":1.0,"specularColorFactor":[0.0,0.0,0.0]},"KHR_materials_ior":{"ior":1.0}}}],"meshes":[{"name":"defaultobject","primitives":[{"mode":4,"material":1,"indices":2,"attributes":{"POSITION":0,"TEXCOORD_0":1}},{"mode":4,"material":2,"indices":5,"attributes":{"POSITION":3,"TEXCOORD_0":4}}]}],"nodes":[{"name":"tile_0516.obj","children":[1]},{"name":"defaultobject","mesh":0}],"samplers":[{},{}],"scenes":[{"nodes":[0]}],"textures":[{"source":0,"sampler":0},{"source":1,"sampler":1}],"scene":0}
