{"asset":{"version":"2.0","generator":"Open Asset Import Library (assimp v6.0.0)"},"extensionsUsed":["KHR_materials_specular","KHR_materials_volume","KHR_materials_ior","FB_ngon_encoding"],"accessors":[{"bufferView":0,"byteOffset":0,"componentType":5126,"count":4900,"type":"VEC3","max":[0.16589780151844025,5.867382526397705,4.842223644256592],"min":[-0.1836172640323639,2.2250738585072014e-308,2.2250738585072014e-308]},{"bufferView":1,"byteOffset":0,"componentType":5126,"count":4900,"type":"VEC2","max":[0.9844446182250977,0.7923717498779297],"min":[2.2250738585072014e-308,2.2250738585072014e-308]},{"bufferView":2,"byteOffset":0,"componentType":5125,"count":23721,"type":"SCALAR","max":[4899],"min":[0]},{"bufferView":3,"byteOffset":0,"componentType":5126,"count":534,"type":"VEC3","max":[0.15529537200927734,5.865880966186523,4.827757835388184],"min":[-0.1836172640323639,2.2250738585072014e-308,2.2250738585072014e-308]},{"bufferView":4,"byteOffset":0,"componentType":5126,"count":534,"type":"VEC2","max":[0.9800992012023926,0.7559432983398438],"min":[2.2250738585072014e-308,2.2250738585072014e-308]},{"bufferView":5,"byteOffset":0,"componentType":5125,"count":2655,"type":"SCALAR","max":[533],"min":[0]}],"buffers":[{"byteLength":214184,"uri":"tile_0199.bin"}],"bufferViews":[{"buffer":0,"byteOffset":0,"byteLength":58800,"target":34962},{"buffer":0,"byteOffset":58800,"byteLength":39200,"target":34962},{"buffer":0,"byteOffset":98000,"byteLength":94884,"target":34963},{"buffer":0,"byteOffset":192884,"byteLength":6408,"target":34962},{"buffer":0,"byteOffset":199292,"byteLength":4272,"target":34962},{"buffer":0,"byteOffset":203564,"byteLength":10620,"target":34963}],"images":[{"uri":"../textures/tile_0199_material_0.jpg"},{"uri":"../textures/tile_0199_material_1.jpg"}],"materials":[{"name":"DefaultMaterial","pbrMetallicRoughness":{"baseColorFactor":[0.6000000238418579,0.6000000238418579,0.6000000238418579,1.0],"metallicFactor":0.0},"extensions":{"KHR_materials_specular":{"specularFactor":1.0,"specularColorFactor":[0.0,0.0,0.0]},"KHR_materials_ior":{"ior":1.0}}},{"name":"material_0_material","pbrMetallicRoughness":{"baseColorTexture":{"index":0},"metallicFactor":0.0},"extensions":{"KHR_materials_specular":{"specularFactor":1.0,"specularColorFactor":[0.0,0.0,0.0]},"KHR_materials_ior":{"ior":1.0}}},{"name":"material_1_material","pbrMetallicRoughness":{"baseColorTexture":{"index":1},"metallicFactor":0.0},"extensions":{"KHR_materials_specular":{"specularFactor":1.0,"specularColorFactor":[0.0,0.0,0.0]},"KHR_materials_ior":{"ior":1.0}}}],"meshes":[{"name":"defaultobject","primitives":[{"mode":4,"material":1,"indices":2,"attributes":{"POSITION":0,"TEXCOORD_0":1}},{"mode":4,"material":2,"indices":5,"attributes":{"POSITION":3,"TEXCOORD_0":4}}]}],"nodes":[{"name":"tile_0199.obj","children":[1]},{"name":"defaultobject","mesh":0}],"samplers":[{},{}],"scenes":[{"nodes":[0]}],"textures":[{"source":0,"sampler":0},{"source":1,"sampler":1}],"scene":0}
