{"asset":{"version":"2.0","generator":"Open Asset Import Library (assimp v6.0.0)"},"extensionsUsed":["KHR_materials_specular","KHR_materials_volume","KHR_materials_ior","FB_ngon_encoding"],"accessors":[{"bufferView":0,"byteOffset":0,"componentType":5126,"count":3488,"type":"VEC3","max":[-1.0516037940979004,-0.5604271292686462,2.6140036582946777],"min":[-1.3011553287506104,-0.7814697623252869,2.2250738585072014e-308]},{"bufferView":1,"byteOffset":0,"componentType":5126,"count":3488,"type":"VEC2","max":[0.9867343902587891,0.5260963439941406],"min":[2.2250738585072014e-308,2.2250738585072014e-308]},{"bufferView":2,"byteOffset":0,"componentType":5125,"count":17244,"type":"SCALAR","max":[3487],"min":[0]},{"bufferView":3,"byteOffset":0,"componentType":5126,"count":2037,"type":"VEC3","max":[-1.030238151550293,-0.5605765581130981,2.611267566680908],"min":[-1.3016518354415894,-0.7825928330421448,2.2250738585072014e-308]},{"bufferView":4,"byteOffset":0,"componentType":5126,"count":2037,"type":"VEC2","max":[0.9560163021087646,0.5295600891113281],"min":[2.2250738585072014e-308,2.2250738585072014e-308]},{"bufferView":5,"byteOffset":0,"componentType":5125,"count":10311,"type":"SCALAR","max":[2036],"min":[0]}],"buffers":[{"byteLength":220720,"uri":"tile_0330.bin"}],"bufferViews":[{"buffer":0,"byteOffset":0,"byteLength":41856,"target":34962},{"buffer":0,"byteOffset":41856,"byteLength":27904,"target":34962},{"buffer":0,"byteOffset":69760,"byteLength":68976,"target":34963},{"buffer":0,"byteOffset":138736,"byteLength":24444,"target":34962},{"buffer":0,"byteOffset":163180,"byteLength":16296,"target":34962},{"buffer":0,"byteOffset":179476,"byteLength":41244,"target":34963}],"images":[{"uri":"../textures/tile_0330_material_0.jpg"},{"uri":"../textures/tile_0330_material_1.jpg"}],"materials":[{"name":"DefaultMaterial","pbrMetallicRoughness":{"baseColorFactor":[0.6000000238418579,0.6000000238418579,0.6000000238418579,1.0],"metallicFactor":0.0},"extensions":{"KHR_materials_specular":{"specularFactor":1.0,"specularColorFactor":[0.0,0.0,0.0]},"KHR_materials_ior":{"ior":1.0}}},{"name":"material_0_material","pbrMetallicRoughness":{"baseColorTexture":{"index":0},"metallicFactor":0.0},"extensions":{"KHR_materials_specular":{"specularFactor":1.0,"specularColorFactor":[0.0,0.0,0.0]},"KHR_materials_ior":{"ior":1.0}}},{"name":"material_1_material","pbrMetallicRoughness":{"baseColorTexture":{"index":1},"metallicFactor":0.0},"extensions":{"KHR_materials_specular":{"specularFactor":1.0,"specularColorFactor":[0.0,0.0,0.0]},"KHR_materials_ior":{"ior":1.0}}}],"meshes":[{"name":"defaultobject","primitives":[{"mode":4,"material":1,"indices":2,"attributes":{"POSITION":0,"TEXCOORD_0":1}},{"mode":4,"material":2,"indices":5,"attributes":{"POSITION":3,"TEXCOORD_0":4}}]}],"nodes":[{"name":"tile_0330.obj","children":[1]},{"name":"defaultobject","mesh":0}],"samplers":[{},{}],"scenes":[{"nodes":[0]}],"textures":[{"source":0,"sampler":0},{"source":1,"sampler":1}],"scene":0}
