{"asset":{"version":"2.0","generator":"Open Asset Import Library (assimp v6.0.0)"},"extensionsUsed":["KHR_materials_specular","KHR_materials_volume","KHR_materials_ior","FB_ngon_encoding"],"accessors":[{"bufferView":0,"byteOffset":0,"componentType":5126,"count":4114,"type":"VEC3","max":[2.568686008453369,2.967587471008301,4.213418960571289],"min":[2.2250738585072014e-308,2.2250738585072014e-308,2.2250738585072014e-308]},{"bufferView":1,"byteOffset":0,"componentType":5126,"count":4114,"type":"VEC2","max":[0.9886776208877563,0.5026626586914062],"min":[2.2250738585072014e-308,2.2250738585072014e-308]},{"bufferView":2,"byteOffset":0,"componentType":5125,"count":19893,"type":"SCALAR","max":[4113],"min":[0]},{"bufferView":3,"byteOffset":0,"componentType":5126,"count":176,"type":"VEC3","max":[2.5686612129211426,2.96579909324646,4.197075366973877],"min":[2.2250738585072014e-308,2.2250738585072014e-308,2.2250738585072014e-308]},{"bufferView":4,"byteOffset":0,"componentType":5126,"count":176,"type":"VEC2","max":[0.8176746368408203,0.7490158677101135],"min":[2.2250738585072014e-308,2.2250738585072014e-308]},{"bufferView":5,"byteOffset":0,"componentType":5125,"count":627,"type":"SCALAR","max":[175],"min":[0]}],"buffers":[{"byteLength":167880,"uri":"tile_0680.bin"}],"bufferViews":[{"buffer":0,"byteOffset":0,"byteLength":49368,"target":34962},{"buffer":0,"byteOffset":49368,"byteLength":32912,"target":34962},{"buffer":0,"byteOffset":82280,"byteLength":79572,"target":34963},{"buffer":0,"byteOffset":161852,"byteLength":2112,"target":34962},{"buffer":0,"byteOffset":163964,"byteLength":1408,"target":34962},{"buffer":0,"byteOffset":165372,"byteLength":2508,"target":34963}],"images":[{"uri":"../textures/tile_0680_material_0.jpg"},{"uri":"../textures/tile_0680_material_1.jpg"}],"materials":[{"name":"DefaultMaterial","pbrMetallicRoughness":{"baseColorFactor":[0.6000000238418579,0.6000000238418579,0.6000000238418579,1.0],"metallicFactor":0.0},"extensions":{"KHR_materials_specular":{"specularFactor":1.0,"specularColorFactor":[0.0,0.0,0.0]},"KHR_materials_ior":{"ior":1.0}}},{"name":"material_0_material","pbrMetallicRoughness":{"baseColorTexture":{"index":0},"metallicFactor":0.0},"extensions":{"KHR_materials_specular":{"specularFactor":1.0,"specularColorFactor":[0.0,0.0,0.0]},"KHR_materials_ior":{"ior":1.0}}},{"name":"material_1_material","pbrMetallicRoughness":{"baseColorTexture":{"index":1},"metallicFactor":0.0},"extensions":{"KHR_materials_specular":{"specularFactor":1.0,"specularColorFactor":[0.0,0.0,0.0]},"KHR_materials_ior":{"ior":1.0}}}],"meshes":[{"name":"defaultobject","primitives":[{"mode":4,"material":1,"indices":2,"attributes":{"POSITION":0,"TEXCOORD_0":1}},{"mode":4,"material":2,"indices":5,"attributes":{"POSITION":3,"TEXCOORD_0":4}}]}],"nodes":[{"name":"tile_0680.obj","children":[1]},{"name":"defaultobject","mesh":0}],"samplers":[{},{}],"scenes":[{"nodes":[0]}],"textures":[{"source":0,"sampler":0},{"source":1,"sampler":1}],"scene":0}
