{"asset":{"version":"2.0","generator":"Open Asset Import Library (assimp v6.0.0)"},"extensionsUsed":["KHR_materials_specular","KHR_materials_volume","KHR_materials_ior","FB_ngon_encoding"],"accessors":[{"bufferView":0,"byteOffset":0,"componentType":5126,"count":6721,"type":"VEC3","max":[-0.24127919971942902,-4.070274829864502,2.7829058170318604],"min":[-0.4263727068901062,-4.5508012771606445,2.2250738585072014e-308]},{"bufferView":1,"byteOffset":0,"componentType":5126,"count":6721,"type":"VEC2","max":[0.9905858039855957,0.7381668090820312],"min":[2.2250738585072014e-308,2.2250738585072014e-308]},{"bufferView":2,"byteOffset":0,"componentType":5125,"count":30168,"type":"SCALAR","max":[6720],"min":[0]},{"bufferView":3,"byteOffset":0,"componentType":5126,"count":572,"type":"VEC3","max":[-0.2419852912425995,-4.071592330932617,2.6783204078674316],"min":[-0.39011409878730774,-4.202244758605957,2.2250738585072014e-308]},{"bufferView":4,"byteOffset":0,"componentType":5126,"count":572,"type":"VEC2","max":[0.6329612731933594,0.8095970153808594],"min":[2.2250738585072014e-308,2.2250738585072014e-308]},{"bufferView":5,"byteOffset":0,"componentType":5125,"count":2886,"type":"SCALAR","max":[571],"min":[0]}],"buffers":[{"byteLength":278076,"uri":"tile_0356.bin"}],"bufferViews":[{"buffer":0,"byteOffset":0,"byteLength":80652,"target":34962},{"buffer":0,"byteOffset":80652,"byteLength":53768,"target":34962},{"buffer":0,"byteOffset":134420,"byteLength":120672,"target":34963},{"buffer":0,"byteOffset":255092,"byteLength":6864,"target":34962},{"buffer":0,"byteOffset":261956,"byteLength":4576,"target":34962},{"buffer":0,"byteOffset":266532,"byteLength":11544,"target":34963}],"images":[{"uri":"../textures/tile_0356_material_0.jpg"},{"uri":"../textures/tile_0356_material_1.jpg"}],"materials":[{"name":"DefaultMaterial","pbrMetallicRoughness":{"baseColorFactor":[0.6000000238418579,0.6000000238418579,0.6000000238418579,1.0],"metallicFactor":0.0},"extensions":{"KHR_materials_specular":{"specularFactor":1.0,"specularColorFactor":[0.0,0.0,0.0]},"KHR_materials_ior":{"ior":1.0}}},{"name":"material_0_material","pbrMetallicRoughness":{"baseColorTexture":{"index":0},"metallicFactor":0.0},"extensions":{"KHR_materials_specular":{"specularFactor":1.0,"specularColorFactor":[0.0,0.0,0.0]},"KHR_materials_ior":{"ior":1.0}}},{"name":"material_1_material","pbrMetallicRoughness":{"baseColorTexture":{"index":1},"metallicFactor":0.0},"extensions":{"KHR_materials_specular":{"specularFactor":1.0,"specularColorFactor":[0.0,0.0,0.0]},"KHR_materials_ior":{"ior":1.0}}}],"meshes":[{"name":"defaultobject","primitives":[{"mode":4,"material":1,"indices":2,"attributes":{"POSITION":0,"TEXCOORD_0":1}},{"mode":4,"material":2,"indices":5,"attributes":{"POSITION":3,"TEXCOORD_0":4}}]}],"nodes":[{"name":"tile_0356.obj","children":[1]},{"name":"defaultobject","mesh":0}],"samplers":[{},{}],"scenes":[{"nodes":[0]}],"textures":[{"source":0,"sampler":0},{"source":1,"sampler":1}],"scene":0}
