{"asset":{"version":"2.0","generator":"Open Asset Import Library (assimp v6.0.0)"},"extensionsUsed":["KHR_materials_specular","KHR_materials_volume","KHR_materials_ior","FB_ngon_encoding"],"accessors":[{"bufferView":0,"byteOffset":0,"componentType":5126,"count":3125,"type":"VEC3","max":[-0.13713283836841583,7.383543968200684,5.055733680725098],"min":[-0.45638033747673035,2.2250738585072014e-308,2.2250738585072014e-308]},{"bufferView":1,"byteOffset":0,"componentType":5126,"count":3125,"type":"VEC2","max":[0.9910285472869873,0.5051517486572266],"min":[2.2250738585072014e-308,2.2250738585072014e-308]},{"bufferView":2,"byteOffset":0,"componentType":5125,"count":14331,"type":"SCALAR","max":[3124],"min":[0]},{"bufferView":3,"byteOffset":0,"componentType":5126,"count":2236,"type":"VEC3","max":[-0.12848562002182007,7.383543968200684,5.055733680725098],"min":[-0.4704069495201111,2.2250738585072014e-308,2.2250738585072014e-308]},{"bufferView":4,"byteOffset":0,"componentType":5126,"count":2236,"type":"VEC2","max":[0.7573719024658203,0.7893295288085938],"min":[2.2250738585072014e-308,2.2250738585072014e-308]},{"bufferView":5,"byteOffset":0,"componentType":5125,"count":12045,"type":"SCALAR","max":[2235],"min":[0]}],"buffers":[{"byteLength":212724,"uri":"tile_0550.bin"}],"bufferViews":[{"buffer":0,"byteOffset":0,"byteLength":37500,"target":34962},{"buffer":0,"byteOffset":37500,"byteLength":25000,"target":34962},{"buffer":0,"byteOffset":62500,"byteLength":57324,"target":34963},{"buffer":0,"byteOffset":119824,"byteLength":26832,"target":34962},{"buffer":0,"byteOffset":146656,"byteLength":17888,"target":34962},{"buffer":0,"byteOffset":164544,"byteLength":48180,"target":34963}],"images":[{"uri":"../textures/tile_0550_material_0.jpg"},{"uri":"../textures/tile_0550_material_1.jpg"}],"materials":[{"name":"DefaultMaterial","pbrMetallicRoughness":{"baseColorFactor":[0.6000000238418579,0.6000000238418579,0.6000000238418579,1.0],"metallicFactor":0.0},"extensions":{"KHR_materials_specular":{"specularFactor":1.0,"specularColorFactor":[0.0,0.0,0.0]},"KHR_materials_ior":{"ior":1.0}}},{"name":"material_0_material","pbrMetallicRoughness":{"baseColorTexture":{"index":0},"metallicFactor":0.0},"extensions":{"KHR_materials_specular":{"specularFactor":1.0,"specularColorFactor":[0.0,0.0,0.0]},"KHR_materials_ior":{"ior":1.0}}},{"name":"material_1_material","pbrMetallicRoughness":{"baseColorTexture":{"index":1},"metallicFactor":0.0},"extensions":{"KHR_materials_specular":{"specularFactor":1.0,"specularColorFactor":[0.0,0.0,0.0]},"KHR_materials_ior":{"ior":1.0}}}],"meshes":[{"name":"defaultobject","primitives":[{"mode":4,"material":1,"indices":2,"attributes":{"POSITION":0,"TEXCOORD_0":1}},{"mode":4,"material":2,"indices":5,"attributes":{"POSITION":3,"TEXCOORD_0":4}}]}],"nodes":[{"name":"tile_0550.obj","children":[1]},{"name":"defaultobject","mesh":0}],"samplers":[{},{}],"scenes":[{"nodes":[0]}],"textures":[{"source":0,"sampler":0},{"source":1,"sampler":1}],"scene":0}
