{"asset":{"version":"2.0","generator":"Open Asset Import Library (assimp v6.0.0)"},"extensionsUsed":["KHR_materials_specular","KHR_materials_volume","KHR_materials_ior","FB_ngon_encoding"],"accessors":[{"bufferView":0,"byteOffset":0,"componentType":5126,"count":3198,"type":"VEC3","max":[-2.9750640392303467,-1.151717185974121,3.4646360874176025],"min":[-3.5746309757232666,-1.4606528282165527,2.2250738585072014e-308]},{"bufferView":1,"byteOffset":0,"componentType":5126,"count":3198,"type":"VEC2","max":[0.9951171875,0.5095901489257812],"min":[2.2250738585072014e-308,2.2250738585072014e-308]},{"bufferView":2,"byteOffset":0,"componentType":5125,"count":15159,"type":"SCALAR","max":[3197],"min":[0]},{"bufferView":3,"byteOffset":0,"componentType":5126,"count":2822,"type":"VEC3","max":[-2.9750428199768066,-1.151717185974121,3.4727559089660645],"min":[-3.565826416015625,-1.4606528282165527,2.2250738585072014e-308]},{"bufferView":4,"byteOffset":0,"componentType":5126,"count":2822,"type":"VEC2","max":[0.9944093823432922,0.7979030609130859],"min":[2.2250738585072014e-308,2.2250738585072014e-308]},{"bufferView":5,"byteOffset":0,"componentType":5125,"count":14526,"type":"SCALAR","max":[2821],"min":[0]}],"buffers":[{"byteLength":239140,"uri":"tile_0404.bin"}],"bufferViews":[{"buffer":0,"byteOffset":0,"byteLength":38376,"target":34962},{"buffer":0,"byteOffset":38376,"byteLength":25584,"target":34962},{"buffer":0,"byteOffset":63960,"byteLength":60636,"target":34963},{"buffer":0,"byteOffset":124596,"byteLength":33864,"target":34962},{"buffer":0,"byteOffset":158460,"byteLength":22576,"target":34962},{"buffer":0,"byteOffset":181036,"byteLength":58104,"target":34963}],"images":[{"uri":"../textures/tile_0404_material_0.jpg"},{"uri":"../textures/tile_0404_material_1.jpg"}],"materials":[{"name":"DefaultMaterial","pbrMetallicRoughness":{"baseColorFactor":[0.6000000238418579,0.6000000238418579,0.6000000238418579,1.0],"metallicFactor":0.0},"extensions":{"KHR_materials_specular":{"specularFactor":1.0,"specularColorFactor":[0.0,0.0,0.0]},"KHR_materials_ior":{"ior":1.0}}},{"name":"material_0_material","pbrMetallicRoughness":{"baseColorTexture":{"index":0},"metallicFactor":0.0},"extensions":{"KHR_materials_specular":{"specularFactor":1.0,"specularColorFactor":[0.0,0.0,0.0]},"KHR_materials_ior":{"ior":1.0}}},{"name":"material_1_material","pbrMetallicRoughness":{"baseColorTexture":{"index":1},"metallicFactor":0.0},"extensions":{"KHR_materials_specular":{"specularFactor":1.0,"specularColorFactor":[0.0,0.0,0.0]},"KHR_materials_ior":{"ior":1.0}}}],"meshes":[{"name":"defaultobject","primitives":[{"mode":4,"material":1,"indices":2,"attributes":{"POSITION":0,"TEXCOORD_0":1}},{"mode":4,"material":2,"indices":5,"attributes":{"POSITION":3,"TEXCOORD_0":4}}]}],"nodes":[{"name":"tile_0404.obj","children":[1]},{"name":"defaultobject","mesh":0}],"samplers":[{},{}],"scenes":[{"nodes":[0]}],"textures":[{"source":0,"sampler":0},{"source":1,"sampler":1}],"scene":0}
