{"asset":{"version":"2.0","generator":"Open Asset Import Library (assimp v6.0.0)"},"extensionsUsed":["KHR_materials_specular","KHR_materials_volume","KHR_materials_ior","FB_ngon_encoding"],"accessors":[{"bufferView":0,"byteOffset":0,"componentType":5126,"count":4754,"type":"VEC3","max":[1.2700763940811157,0.3264314830303192,4.117839813232422],"min":[2.2250738585072014e-308,2.2250738585072014e-308,2.2250738585072014e-308]},{"bufferView":1,"byteOffset":0,"componentType":5126,"count":4754,"type":"VEC2","max":[0.9899535179138184,0.5462284088134766],"min":[2.2250738585072014e-308,2.2250738585072014e-308]},{"bufferView":2,"byteOffset":0,"componentType":5125,"count":21291,"type":"SCALAR","max":[4753],"min":[0]},{"bufferView":3,"byteOffset":0,"componentType":5126,"count":418,"type":"VEC3","max":[1.2700763940811157,0.32229477167129517,4.0458526611328125],"min":[2.2250738585072014e-308,2.2250738585072014e-308,2.2250738585072014e-308]},{"bufferView":4,"byteOffset":0,"componentType":5126,"count":418,"type":"VEC2","max":[0.8322296142578125,0.8384780883789062],"min":[2.2250738585072014e-308,2.2250738585072014e-308]},{"bufferView":5,"byteOffset":0,"componentType":5125,"count":2040,"type":"SCALAR","max":[417],"min":[0]}],"buffers":[{"byteLength":196764,"uri":"tile_0217.bin"}],"bufferViews":[{"buffer":0,"byteOffset":0,"byteLength":57048,"target":34962},{"buffer":0,"byteOffset":57048,"byteLength":38032,"target":34962},{"buffer":0,"byteOffset":95080,"byteLength":85164,"target":34963},{"buffer":0,"byteOffset":180244,"byteLength":5016,"target":34962},{"buffer":0,"byteOffset":185260,"byteLength":3344,"target":34962},{"buffer":0,"byteOffset":188604,"byteLength":8160,"target":34963}],"images":[{"uri":"../textures/tile_0217_material_0.jpg"},{"uri":"../textures/tile_0217_material_1.jpg"}],"materials":[{"name":"DefaultMaterial","pbrMetallicRoughness":{"baseColorFactor":[0.6000000238418579,0.6000000238418579,0.6000000238418579,1.0],"metallicFactor":0.0},"extensions":{"KHR_materials_specular":{"specularFactor":1.0,"specularColorFactor":[0.0,0.0,0.0]},"KHR_materials_ior":{"ior":1.0}}},{"name":"material_0_material","pbrMetallicRoughness":{"baseColorTexture":{"index":0},"metallicFactor":0.0},"extensions":{"KHR_materials_specular":{"specularFactor":1.0,"specularColorFactor":[0.0,0.0,0.0]},"KHR_materials_ior":{"ior":1.0}}},{"name":"material_1_material","pbrMetallicRoughness":{"baseColorTexture":{"index":1},"metallicFactor":0.0},"extensions":{"KHR_materials_specular":{"specularFactor":1.0,"specularColorFactor":[0.0,0.0,0.0]},"KHR_materials_ior":{"ior":1.0}}}],"meshes":[{"name":"defaultobject","primitives":[{"mode":4,"material":1,"indices":2,"attributes":{"POSITION":0,"TEXCOORD_0":1}},{"mode":4,"material":2,"indices":5,"attributes":{"POSITION":3,"TEXCOORD_0":4}}]}],"nodes":[{"name":"tile_0217.obj","children":[1]},{"name":"defaultobject","mesh":0}],"samplers":[{},{}],"scenes":[{"nodes":[0]}],"textures":[{"source":0,"sampler":0},{"source":1,"sampler":1}],"scene":0}
