{"asset":{"version":"2.0","generator":"Open Asset Import Library (assimp v6.0.0)"},"extensionsUsed":["KHR_materials_specular","KHR_materials_volume","KHR_materials_ior","FB_ngon_encoding"],"accessors":[{"bufferView":0,"byteOffset":0,"componentType":5126,"count":4618,"type":"VEC3","max":[-3.855262279510498,3.8478097915649414,4.86897087097168],"min":[-4.301237106323242,2.2250738585072014e-308,2.2250738585072014e-308]},{"bufferView":1,"byteOffset":0,"componentType":5126,"count":4618,"type":"VEC2","max":[0.9795036315917969,0.6244449615478516],"min":[2.2250738585072014e-308,2.2250738585072014e-308]},{"bufferView":2,"byteOffset":0,"componentType":5125,"count":22185,"type":"SCALAR","max":[4617],"min":[0]},{"bufferView":3,"byteOffset":0,"componentType":5126,"count":1659,"type":"VEC3","max":[-3.855717182159424,3.8477797508239746,4.86897087097168],"min":[-4.297911167144775,2.2250738585072014e-308,2.2250738585072014e-308]},{"bufferView":4,"byteOffset":0,"componentType":5126,"count":1659,"type":"VEC2","max":[0.5001232624053955,0.9671821594238281],"min":[2.2250738585072014e-308,2.2250738585072014e-308]},{"bufferView":5,"byteOffset":0,"componentType":5125,"count":8526,"type":"SCALAR","max":[1658],"min":[0]}],"buffers":[{"byteLength":248384,"uri":"tile_0512.bin"}],"bufferViews":[{"buffer":0,"byteOffset":0,"byteLength":55416,"target":34962},{"buffer":0,"byteOffset":55416,"byteLength":36944,"target":34962},{"buffer":0,"byteOffset":92360,"byteLength":88740,"target":34963},{"buffer":0,"byteOffset":181100,"byteLength":19908,"target":34962},{"buffer":0,"byteOffset":201008,"byteLength":13272,"target":34962},{"buffer":0,"byteOffset":214280,"byteLength":34104,"target":34963}],"images":[{"uri":"../textures/tile_0512_material_0.jpg"},{"uri":"../textures/tile_0512_material_1.jpg"}],"materials":[{"name":"DefaultMaterial","pbrMetallicRoughness":{"baseColorFactor":[0.6000000238418579,0.6000000238418579,0.6000000238418579,1.0],"metallicFactor":0.0},"extensions":{"KHR_materials_specular":{"specularFactor":1.0,"specularColorFactor":[0.0,0.0,0.0]},"KHR_materials_ior":{"ior":1.0}}},{"name":"material_0_material","pbrMetallicRoughness":{"baseColorTexture":{"index":0},"metallicFactor":0.0},"extensions":{"KHR_materials_specular":{"specularFactor":1.0,"specularColorFactor":[0.0,0.0,0.0]},"KHR_materials_ior":{"ior":1.0}}},{"name":"material_1_material","pbrMetallicRoughness":{"baseColorTexture":{"index":1},"metallicFactor":0.0},"extensions":{"KHR_materials_specular":{"specularFactor":1.0,"specularColorFactor":[0.0,0.0,0.0]},"KHR_materials_ior":{"ior":1.0}}}],"meshes":[{"name":"defaultobject","primitives":[{"mode":4,"material":1,"indices":2,"attributes":{"POSITION":0,"TEXCOORD_0":1}},{"mode":4,"material":2,"indices":5,"attributes":{"POSITION":3,"TEXCOORD_0":4}}]}],"nodes":[{"name":"tile_0512.obj","children":[1]},{"name":"defaultobject","mesh":0}],"samplers":[{},{}],"scenes":[{"nodes":[0]}],"textures":[{"source":0,"sampler":0},{"source":1,"sampler":1}],"scene":0}
