{"asset":{"version":"2.0","generator":"Open Asset Import Library (assimp v6.0.0)"},"extensionsUsed":["KHR_materials_specular","KHR_materials_volume","KHR_materials_ior","FB_ngon_encoding"],"accessors":[{"bufferView":0,"byteOffset":0,"componentType":5126,"count":1820,"type":"VEC3","max":[5.718713760375977,0.25920596718788147,4.2359819412231445],"min":[2.2250738585072014e-308,-0.09031577408313751,2.2250738585072014e-308]},{"bufferView":1,"byteOffset":0,"componentType":5126,"count":1820,"type":"VEC2","max":[0.9700155258178711,0.7009010314941406],"min":[2.2250738585072014e-308,2.2250738585072014e-308]},{"bufferView":2,"byteOffset":0,"componentType":5125,"count":8013,"type":"SCALAR","max":[1819],"min":[0]},{"bufferView":3,"byteOffset":0,"componentType":5126,"count":2444,"type":"VEC3","max":[5.591503620147705,0.2630934417247772,4.237486362457275],"min":[2.2250738585072014e-308,-0.0793454647064209,2.2250738585072014e-308]},{"bufferView":4,"byteOffset":0,"componentType":5126,"count":2444,"type":"VEC2","max":[0.9898819923400879,0.8200531005859375],"min":[2.2250738585072014e-308,2.2250738585072014e-308]},{"bufferView":5,"byteOffset":0,"componentType":5125,"count":12489,"type":"SCALAR","max":[2443],"min":[0]}],"buffers":[{"byteLength":167288,"uri":"tile_0641.bin"}],"bufferViews":[{"buffer":0,"byteOffset":0,"byteLength":21840,"target":34962},{"buffer":0,"byteOffset":21840,"byteLength":14560,"target":34962},{"buffer":0,"byteOffset":36400,"byteLength":32052,"target":34963},{"buffer":0,"byteOffset":68452,"byteLength":29328,"target":34962},{"buffer":0,"byteOffset":97780,"byteLength":19552,"target":34962},{"buffer":0,"byteOffset":117332,"byteLength":49956,"target":34963}],"images":[{"uri":"../textures/tile_0641_material_0.jpg"},{"uri":"../textures/tile_0641_material_1.jpg"}],"materials":[{"name":"DefaultMaterial","pbrMetallicRoughness":{"baseColorFactor":[0.6000000238418579,0.6000000238418579,0.6000000238418579,1.0],"metallicFactor":0.0},"extensions":{"KHR_materials_specular":{"specularFactor":1.0,"specularColorFactor":[0.0,0.0,0.0]},"KHR_materials_ior":{"ior":1.0}}},{"name":"material_0_material","pbrMetallicRoughness":{"baseColorTexture":{"index":0},"metallicFactor":0.0},"extensions":{"KHR_materials_specular":{"specularFactor":1.0,"specularColorFactor":[0.0,0.0,0.0]},"KHR_materials_ior":{"ior":1.0}}},{"name":"material_1_material","pbrMetallicRoughness":{"baseColorTexture":{"index":1},"metallicFactor":0.0},"extensions":{"KHR_materials_specular":{"specularFactor":1.0,"specularColorFactor":[0.0,0.0,0.0]},"KHR_materials_ior":{"ior":1.0}}}],"meshes":[{"name":"defaultobject","primitives":[{"mode":4,"material":1,"indices":2,"attributes":{"POSITION":0,"TEXCOORD_0":1}},{"mode":4,"material":2,"indices":5,"attributes":{"POSITION":3,"TEXCOORD_0":4}}]}],"nodes":[{"name":"tile_0641.obj","children":[1]},{"name":"defaultobject","mesh":0}],"samplers":[{},{}],"scenes":[{"nodes":[0]}],"textures":[{"source":0,"sampler":0},{"source":1,"sampler":1}],"scene":0}
