{"asset":{"version":"2.0","generator":"Open Asset Import Library (assimp v6.0.0)"},"extensionsUsed":["KHR_materials_specular","KHR_materials_volume","KHR_materials_ior","FB_ngon_encoding"],"accessors":[{"bufferView":0,"byteOffset":0,"componentType":5126,"count":4294,"type":"VEC3","max":[-2.877224922180176,-2.7013797760009766,3.121290683746338],"min":[-4.690683841705322,-3.3644068241119385,2.2250738585072014e-308]},{"bufferView":1,"byteOffset":0,"componentType":5126,"count":4294,"type":"VEC2","max":[0.9889867305755615,0.8932209014892578],"min":[2.2250738585072014e-308,2.2250738585072014e-308]},{"bufferView":2,"byteOffset":0,"componentType":5125,"count":20505,"type":"SCALAR","max":[4293],"min":[0]},{"bufferView":3,"byteOffset":0,"componentType":5126,"count":8822,"type":"VEC3","max":[-2.8678512573242188,-2.7013797760009766,3.123650312423706],"min":[-4.755993843078613,-3.3548598289489746,2.2250738585072014e-308]},{"bufferView":4,"byteOffset":0,"componentType":5126,"count":8822,"type":"VEC2","max":[0.9254987239837646,0.5188145637512207],"min":[2.2250738585072014e-308,2.2250738585072014e-308]},{"bufferView":5,"byteOffset":0,"componentType":5125,"count":48681,"type":"SCALAR","max":[8821],"min":[0]}],"buffers":[{"byteLength":539064,"uri":"tile_0379.bin"}],"bufferViews":[{"buffer":0,"byteOffset":0,"byteLength":51528,"target":34962},{"buffer":0,"byteOffset":51528,"byteLength":34352,"target":34962},{"buffer":0,"byteOffset":85880,"byteLength":82020,"target":34963},{"buffer":0,"byteOffset":167900,"byteLength":105864,"target":34962},{"buffer":0,"byteOffset":273764,"byteLength":70576,"target":34962},{"buffer":0,"byteOffset":344340,"byteLength":194724,"target":34963}],"images":[{"uri":"../textures/tile_0379_material_0.jpg"},{"uri":"../textures/tile_0379_material_1.jpg"}],"materials":[{"name":"DefaultMaterial","pbrMetallicRoughness":{"baseColorFactor":[0.6000000238418579,0.6000000238418579,0.6000000238418579,1.0],"metallicFactor":0.0},"extensions":{"KHR_materials_specular":{"specularFactor":1.0,"specularColorFactor":[0.0,0.0,0.0]},"KHR_materials_ior":{"ior":1.0}}},{"name":"material_0_material","pbrMetallicRoughness":{"baseColorTexture":{"index":0},"metallicFactor":0.0},"extensions":{"KHR_materials_specular":{"specularFactor":1.0,"specularColorFactor":[0.0,0.0,0.0]},"KHR_materials_ior":{"ior":1.0}}},{"name":"material_1_material","pbrMetallicRoughness":{"baseColorTexture":{"index":1},"metallicFactor":0.0},"extensions":{"KHR_materials_specular":{"specularFactor":1.0,"specularColorFactor":[0.0,0.0,0.0]},"KHR_materials_ior":{"ior":1.0}}}],"meshes":[{"name":"defaultobject","primitives":[{"mode":4,"material":1,"indices":2,"attributes":{"POSITION":0,"TEXCOORD_0":1}},{"mode":4,"material":2,"indices":5,"attributes":{"POSITION":3,"TEXCOORD_0":4}}]}],"nodes":[{"name":"tile_0379.obj","children":[1]},{"name":"defaultobject","mesh":0}],"samplers":[{},{}],"scenes":[{"nodes":[0]}],"textures":[{"source":0,"sampler":0},{"source":1,"sampler":1}],"scene":0}
