{"asset":{"version":"2.0","generator":"Open Asset Import Library (assimp v6.0.0)"},"extensionsUsed":["KHR_materials_specular","KHR_materials_volume","KHR_materials_ior","FB_ngon_encoding"],"accessors":[{"bufferView":0,"byteOffset":0,"componentType":5126,"count":4400,"type":"VEC3","max":[-1.2446686029434204,-0.020677678287029266,4.139024257659912],"min":[-1.571143388748169,-0.17540140450000763,2.2250738585072014e-308]},{"bufferView":1,"byteOffset":0,"componentType":5126,"count":4400,"type":"VEC2","max":[0.9907541275024414,0.5898361206054688],"min":[2.2250738585072014e-308,2.2250738585072014e-308]},{"bufferView":2,"byteOffset":0,"componentType":5125,"count":19386,"type":"SCALAR","max":[4399],"min":[0]},{"bufferView":3,"byteOffset":0,"componentType":5126,"count":1097,"type":"VEC3","max":[-1.2661477327346802,-0.03197630122303963,4.1230292320251465],"min":[-1.574764370918274,-0.18151864409446716,2.2250738585072014e-308]},{"bufferView":4,"byteOffset":0,"componentType":5126,"count":1097,"type":"VEC2","max":[0.9303627014160156,0.6255779266357422],"min":[2.2250738585072014e-308,2.2250738585072014e-308]},{"bufferView":5,"byteOffset":0,"componentType":5125,"count":5343,"type":"SCALAR","max":[1096],"min":[0]}],"buffers":[{"byteLength":208856,"uri":"tile_0090.bin"}],"bufferViews":[{"buffer":0,"byteOffset":0,"byteLength":52800,"target":34962},{"buffer":0,"byteOffset":52800,"byteLength":35200,"target":34962},{"buffer":0,"byteOffset":88000,"byteLength":77544,"target":34963},{"buffer":0,"byteOffset":165544,"byteLength":13164,"target":34962},{"buffer":0,"byteOffset":178708,"byteLength":8776,"target":34962},{"buffer":0,"byteOffset":187484,"byteLength":21372,"target":34963}],"images":[{"uri":"../textures/tile_0090_material_0.jpg"},{"uri":"../textures/tile_0090_material_1.jpg"}],"materials":[{"name":"DefaultMaterial","pbrMetallicRoughness":{"baseColorFactor":[0.6000000238418579,0.6000000238418579,0.6000000238418579,1.0],"metallicFactor":0.0},"extensions":{"KHR_materials_specular":{"specularFactor":1.0,"specularColorFactor":[0.0,0.0,0.0]},"KHR_materials_ior":{"ior":1.0}}},{"name":"material_0_material","pbrMetallicRoughness":{"baseColorTexture":{"index":0},"metallicFactor":0.0},"extensions":{"KHR_materials_specular":{"specularFactor":1.0,"specularColorFactor":[0.0,0.0,0.0]},"KHR_materials_ior":{"ior":1.0}}},{"name":"material_1_material","pbrMetallicRoughness":{"baseColorTexture":{"index":1},"metallicFactor":0.0},"extensions":{"KHR_materials_specular":{"specularFactor":1.0,"specularColorFactor":[0.0,0.0,0.0]},"KHR_materials_ior":{"ior":1.0}}}],"meshes":[{"name":"defaultobject","primitives":[{"mode":4,"material":1,"indices":2,"attributes":{"POSITION":0,"TEXCOORD_0":1}},{"mode":4,"material":2,"indices":5,"attributes":{"POSITION":3,"TEXCOORD_0":4}}]}],"nodes":[{"name":"tile_0090.obj","children":[1]},{"name":"defaultobject","mesh":0}],"samplers":[{},{}],"scenes":[{"nodes":[0]}],"textures":[{"source":0,"sampler":0},{"source":1,"sampler":1}],"scene":0}
