{"asset":{"version":"2.0","generator":"Open Asset Import Library (assimp v6.0.0)"},"extensionsUsed":["KHR_materials_specular","KHR_materials_volume","KHR_materials_ior","FB_ngon_encoding"],"accessors":[{"bufferView":0,"byteOffset":0,"componentType":5126,"count":3322,"type":"VEC3","max":[-5.346670627593994,0.42178285121917725,4.2246623039245605],"min":[-6.265388488769531,2.2250738585072014e-308,2.2250738585072014e-308]},{"bufferView":1,"byteOffset":0,"componentType":5126,"count":3322,"type":"VEC2","max":[0.9949731826782227,0.5426998138427734],"min":[2.2250738585072014e-308,2.2250738585072014e-308]},{"bufferView":2,"byteOffset":0,"componentType":5125,"count":15759,"type":"SCALAR","max":[3321],"min":[0]},{"bufferView":3,"byteOffset":0,"componentType":5126,"count":1685,"type":"VEC3","max":[-5.34421443939209,0.4166322946548462,4.218019485473633],"min":[-6.2643866539001465,2.2250738585072014e-308,2.2250738585072014e-308]},{"bufferView":4,"byteOffset":0,"componentType":5126,"count":1685,"type":"VEC2","max":[0.5345807075500488,0.5114822387695312],"min":[2.2250738585072014e-308,2.2250738585072014e-308]},{"bufferView":5,"byteOffset":0,"componentType":5125,"count":8742,"type":"SCALAR","max":[1684],"min":[0]}],"buffers":[{"byteLength":198144,"uri":"tile_0478.bin"}],"bufferViews":[{"buffer":0,"byteOffset":0,"byteLength":39864,"target":34962},{"buffer":0,"byteOffset":39864,"byteLength":26576,"target":34962},{"buffer":0,"byteOffset":66440,"byteLength":63036,"target":34963},{"buffer":0,"byteOffset":129476,"byteLength":20220,"target":34962},{"buffer":0,"byteOffset":149696,"byteLength":13480,"target":34962},{"buffer":0,"byteOffset":163176,"byteLength":34968,"target":34963}],"images":[{"uri":"../textures/tile_0478_material_0.jpg"},{"uri":"../textures/tile_0478_material_1.jpg"}],"materials":[{"name":"DefaultMaterial","pbrMetallicRoughness":{"baseColorFactor":[0.6000000238418579,0.6000000238418579,0.6000000238418579,1.0],"metallicFactor":0.0},"extensions":{"KHR_materials_specular":{"specularFactor":1.0,"specularColorFactor":[0.0,0.0,0.0]},"KHR_materials_ior":{"ior":1.0}}},{"name":"material_0_material","pbrMetallicRoughness":{"baseColorTexture":{"index":0},"metallicFactor":0.0},"extensions":{"KHR_materials_specular":{"specularFactor":1.0,"specularColorFactor":[0.0,0.0,0.0]},"KHR_materials_ior":{"ior":1.0}}},{"name":"material_1_material","pbrMetallicRoughness":{"baseColorTexture":{"index":1},"metallicFactor":0.0},"extensions":{"KHR_materials_specular":{"specularFactor":1.0,"specularColorFactor":[0.0,0.0,0.0]},"KHR_materials_ior":{"ior":1.0}}}],"meshes":[{"name":"defaultobject","primitives":[{"mode":4,"material":1,"indices":2,"attributes":{"POSITION":0,"TEXCOORD_0":1}},{"mode":4,"material":2,"indices":5,"attributes":{"POSITION":3,"TEXCOORD_0":4}}]}],"nodes":[{"name":"tile_0478.obj","children":[1]},{"name":"defaultobject","mesh":0}],"samplers":[{},{}],"scenes":[{"nodes":[0]}],"textures":[{"source":0,"sampler":0},{"source":1,"sampler":1}],"scene":0}
