{"asset":{"version":"2.0","generator":"Open Asset Import Library (assimp v6.0.0)"},"extensionsUsed":["KHR_materials_specular","KHR_materials_volume","KHR_materials_ior","FB_ngon_encoding"],"accessors":[{"bufferView":0,"byteOffset":0,"componentType":5126,"count":3075,"type":"VEC3","max":[5.542614459991455,2.2507803440093994,4.448939323425293],"min":[2.2250738585072014e-308,2.2250738585072014e-308,2.2250738585072014e-308]},{"bufferView":1,"byteOffset":0,"componentType":5126,"count":3075,"type":"VEC2","max":[0.9810194969177246,0.5201091766357422],"min":[2.2250738585072014e-308,2.2250738585072014e-308]},{"bufferView":2,"byteOffset":0,"componentType":5125,"count":15222,"type":"SCALAR","max":[3074],"min":[0]},{"bufferView":3,"byteOffset":0,"componentType":5126,"count":953,"type":"VEC3","max":[5.479147434234619,2.236426830291748,4.393986701965332],"min":[2.2250738585072014e-308,2.2250738585072014e-308,2.2250738585072014e-308]},{"bufferView":4,"byteOffset":0,"componentType":5126,"count":953,"type":"VEC2","max":[0.5971732139587402,0.5124244689941406],"min":[2.2250738585072014e-308,2.2250738585072014e-308]},{"bufferView":5,"byteOffset":0,"componentType":5125,"count":4881,"type":"SCALAR","max":[952],"min":[0]}],"buffers":[{"byteLength":160972,"uri":"tile_0677.bin"}],"bufferViews":[{"buffer":0,"byteOffset":0,"byteLength":36900,"target":34962},{"buffer":0,"byteOffset":36900,"byteLength":24600,"target":34962},{"buffer":0,"byteOffset":61500,"byteLength":60888,"target":34963},{"buffer":0,"byteOffset":122388,"byteLength":11436,"target":34962},{"buffer":0,"byteOffset":133824,"byteLength":7624,"target":34962},{"buffer":0,"byteOffset":141448,"byteLength":19524,"target":34963}],"images":[{"uri":"../textures/tile_0677_material_0.jpg"},{"uri":"../textures/tile_0677_material_1.jpg"}],"materials":[{"name":"DefaultMaterial","pbrMetallicRoughness":{"baseColorFactor":[0.6000000238418579,0.6000000238418579,0.6000000238418579,1.0],"metallicFactor":0.0},"extensions":{"KHR_materials_specular":{"specularFactor":1.0,"specularColorFactor":[0.0,0.0,0.0]},"KHR_materials_ior":{"ior":1.0}}},{"name":"material_0_material","pbrMetallicRoughness":{"baseColorTexture":{"index":0},"metallicFactor":0.0},"extensions":{"KHR_materials_specular":{"specularFactor":1.0,"specularColorFactor":[0.0,0.0,0.0]},"KHR_materials_ior":{"ior":1.0}}},{"name":"material_1_material","pbrMetallicRoughness":{"baseColorTexture":{"index":1},"metallicFactor":0.0},"extensions":{"KHR_materials_specular":{"specularFactor":1.0,"specularColorFactor":[0.0,0.0,0.0]},"KHR_materials_ior":{"ior":1.0}}}],"meshes":[{"name":"defaultobject","primitives":[{"mode":4,"material":1,"indices":2,"attributes":{"POSITION":0,"TEXCOORD_0":1}},{"mode":4,"material":2,"indices":5,"attributes":{"POSITION":3,"TEXCOORD_0":4}}]}],"nodes":[{"name":"tile_0677.obj","children":[1]},{"name":"defaultobject","mesh":0}],"samplers":[{},{}],"scenes":[{"nodes":[0]}],"textures":[{"source":0,"sampler":0},{"source":1,"sampler":1}],"scene":0}
