{"asset":{"version":"2.0","generator":"Open Asset Import Library (assimp v6.0.0)"},"extensionsUsed":["KHR_materials_specular","KHR_materials_volume","KHR_materials_ior","FB_ngon_encoding"],"accessors":[{"bufferView":0,"byteOffset":0,"componentType":5126,"count":3263,"type":"VEC3","max":[-0.951345682144165,-5.213187217712402,2.4280571937561035],"min":[-1.1163944005966187,-5.769169330596924,2.2250738585072014e-308]},{"bufferView":1,"byteOffset":0,"componentType":5126,"count":3263,"type":"VEC2","max":[0.9928011894226074,0.8895263671875],"min":[2.2250738585072014e-308,2.2250738585072014e-308]},{"bufferView":2,"byteOffset":0,"componentType":5125,"count":14463,"type":"SCALAR","max":[3262],"min":[0]},{"bufferView":3,"byteOffset":0,"componentType":5126,"count":1119,"type":"VEC3","max":[-0.9470747709274292,-5.250274181365967,2.3287713527679443],"min":[-1.113152265548706,-5.765663146972656,2.2250738585072014e-308]},{"bufferView":4,"byteOffset":0,"componentType":5126,"count":1119,"type":"VEC2","max":[0.7281761169433594,0.7308731079101562],"min":[2.2250738585072014e-308,2.2250738585072014e-308]},{"bufferView":5,"byteOffset":0,"componentType":5125,"count":5523,"type":"SCALAR","max":[1118],"min":[0]}],"buffers":[{"byteLength":167584,"uri":"tile_0350.bin"}],"bufferViews":[{"buffer":0,"byteOffset":0,"byteLength":39156,"target":34962},{"buffer":0,"byteOffset":39156,"byteLength":26104,"target":34962},{"buffer":0,"byteOffset":65260,"byteLength":57852,"target":34963},{"buffer":0,"byteOffset":123112,"byteLength":13428,"target":34962},{"buffer":0,"byteOffset":136540,"byteLength":8952,"target":34962},{"buffer":0,"byteOffset":145492,"byteLength":22092,"target":34963}],"images":[{"uri":"../textures/tile_0350_material_0.jpg"},{"uri":"../textures/tile_0350_material_1.jpg"}],"materials":[{"name":"DefaultMaterial","pbrMetallicRoughness":{"baseColorFactor":[0.6000000238418579,0.6000000238418579,0.6000000238418579,1.0],"metallicFactor":0.0},"extensions":{"KHR_materials_specular":{"specularFactor":1.0,"specularColorFactor":[0.0,0.0,0.0]},"KHR_materials_ior":{"ior":1.0}}},{"name":"material_0_material","pbrMetallicRoughness":{"baseColorTexture":{"index":0},"metallicFactor":0.0},"extensions":{"KHR_materials_specular":{"specularFactor":1.0,"specularColorFactor":[0.0,0.0,0.0]},"KHR_materials_ior":{"ior":1.0}}},{"name":"material_1_material","pbrMetallicRoughness":{"baseColorTexture":{"index":1},"metallicFactor":0.0},"extensions":{"KHR_materials_specular":{"specularFactor":1.0,"specularColorFactor":[0.0,0.0,0.0]},"KHR_materials_ior":{"ior":1.0}}}],"meshes":[{"name":"defaultobject","primitives":[{"mode":4,"material":1,"indices":2,"attributes":{"POSITION":0,"TEXCOORD_0":1}},{"mode":4,"material":2,"indices":5,"attributes":{"POSITION":3,"TEXCOORD_0":4}}]}],"nodes":[{"name":"tile_0350.obj","children":[1]},{"name":"defaultobject","mesh":0}],"samplers":[{},{}],"scenes":[{"nodes":[0]}],"textures":[{"source":0,"sampler":0},{"source":1,"sampler":1}],"scene":0}
