{"asset":{"version":"2.0","generator":"Open Asset Import Library (assimp v6.0.0)"},"extensionsUsed":["KHR_materials_specular","KHR_materials_volume","KHR_materials_ior","FB_ngon_encoding"],"accessors":[{"bufferView":0,"byteOffset":0,"componentType":5126,"count":4508,"type":"VEC3","max":[3.041369915008545,-0.33017945289611816,4.135334491729736],"min":[2.2250738585072014e-308,-0.5733288526535034,2.2250738585072014e-308]},{"bufferView":1,"byteOffset":0,"componentType":5126,"count":4508,"type":"VEC2","max":[0.9918502569198608,0.49599456787109375],"min":[2.2250738585072014e-308,2.2250738585072014e-308]},{"bufferView":2,"byteOffset":0,"componentType":5125,"count":19563,"type":"SCALAR","max":[4507],"min":[0]},{"bufferView":3,"byteOffset":0,"componentType":5126,"count":180,"type":"VEC3","max":[3.0393030643463135,-0.37857264280319214,4.091721534729004],"min":[2.2250738585072014e-308,-0.5738145709037781,2.2250738585072014e-308]},{"bufferView":4,"byteOffset":0,"componentType":5126,"count":180,"type":"VEC2","max":[0.9521255493164062,0.4883689880371094],"min":[2.2250738585072014e-308,2.2250738585072014e-308]},{"bufferView":5,"byteOffset":0,"componentType":5125,"count":792,"type":"SCALAR","max":[179],"min":[0]}],"buffers":[{"byteLength":175180,"uri":"tile_0712.bin"}],"bufferViews":[{"buffer":0,"byteOffset":0,"byteLength":54096,"target":34962},{"buffer":0,"byteOffset":54096,"byteLength":36064,"target":34962},{"buffer":0,"byteOffset":90160,"byteLength":78252,"target":34963},{"buffer":0,"byteOffset":168412,"byteLength":2160,"target":34962},{"buffer":0,"byteOffset":170572,"byteLength":1440,"target":34962},{"buffer":0,"byteOffset":172012,"byteLength":3168,"target":34963}],"images":[{"uri":"../textures/tile_0712_material_0.jpg"},{"uri":"../textures/tile_0712_material_1.jpg"}],"materials":[{"name":"DefaultMaterial","pbrMetallicRoughness":{"baseColorFactor":[0.6000000238418579,0.6000000238418579,0.6000000238418579,1.0],"metallicFactor":0.0},"extensions":{"KHR_materials_specular":{"specularFactor":1.0,"specularColorFactor":[0.0,0.0,0.0]},"KHR_materials_ior":{"ior":1.0}}},{"name":"material_0_material","pbrMetallicRoughness":{"baseColorTexture":{"index":0},"metallicFactor":0.0},"extensions":{"KHR_materials_specular":{"specularFactor":1.0,"specularColorFactor":[0.0,0.0,0.0]},"KHR_materials_ior":{"ior":1.0}}},{"name":"material_1_material","pbrMetallicRoughness":{"baseColorTexture":{"index":1},"metallicFactor":0.0},"extensions":{"KHR_materials_specular":{"specularFactor":1.0,"specularColorFactor":[0.0,0.0,0.0]},"KHR_materials_ior":{"ior":1.0}}}],"meshes":[{"name":"defaultobject","primitives":[{"mode":4,"material":1,"indices":2,"attributes":{"POSITION":0,"TEXCOORD_0":1}},{"mode":4,"material":2,"indices":5,"attributes":{"POSITION":3,"TEXCOORD_0":4}}]}],"nodes":[{"name":"tile_0712.obj","children":[1]},{"name":"defaultobject","mesh":0}],"samplers":[{},{}],"scenes":[{"nodes":[0]}],"textures":[{"source":0,"sampler":0},{"source":1,"sampler":1}],"scene":0}
