{"asset":{"version":"2.0","generator":"Open Asset Import Library (assimp v6.0.0)"},"extensionsUsed":["KHR_materials_specular","KHR_materials_volume","KHR_materials_ior","FB_ngon_encoding"],"accessors":[{"bufferView":0,"byteOffset":0,"componentType":5126,"count":5507,"type":"VEC3","max":[-0.9513188600540161,1.2054214477539062,4.199368476867676],"min":[-1.2626699209213257,2.2250738585072014e-308,2.2250738585072014e-308]},{"bufferView":1,"byteOffset":0,"componentType":5126,"count":5507,"type":"VEC2","max":[0.9903758764266968,0.5416011810302734],"min":[2.2250738585072014e-308,2.2250738585072014e-308]},{"bufferView":2,"byteOffset":0,"componentType":5125,"count":25578,"type":"SCALAR","max":[5506],"min":[0]},{"bufferView":3,"byteOffset":0,"componentType":5126,"count":507,"type":"VEC3","max":[-0.9509966373443604,0.8727834820747375,4.18698787689209],"min":[-1.2582604885101318,2.2250738585072014e-308,2.2250738585072014e-308]},{"bufferView":4,"byteOffset":0,"componentType":5126,"count":507,"type":"VEC2","max":[0.7190589904785156,0.6228904724121094],"min":[2.2250738585072014e-308,2.2250738585072014e-308]},{"bufferView":5,"byteOffset":0,"componentType":5125,"count":2628,"type":"SCALAR","max":[506],"min":[0]}],"buffers":[{"byteLength":233104,"uri":"tile_0133.bin"}],"bufferViews":[{"buffer":0,"byteOffset":0,"byteLength":66084,"target":34962},{"buffer":0,"byteOffset":66084,"byteLength":44056,"target":34962},{"buffer":0,"byteOffset":110140,"byteLength":102312,"target":34963},{"buffer":0,"byteOffset":212452,"byteLength":6084,"target":34962},{"buffer":0,"byteOffset":218536,"byteLength":4056,"target":34962},{"buffer":0,"byteOffset":222592,"byteLength":10512,"target":34963}],"images":[{"uri":"../textures/tile_0133_material_0.jpg"},{"uri":"../textures/tile_0133_material_1.jpg"}],"materials":[{"name":"DefaultMaterial","pbrMetallicRoughness":{"baseColorFactor":[0.6000000238418579,0.6000000238418579,0.6000000238418579,1.0],"metallicFactor":0.0},"extensions":{"KHR_materials_specular":{"specularFactor":1.0,"specularColorFactor":[0.0,0.0,0.0]},"KHR_materials_ior":{"ior":1.0}}},{"name":"material_0_material","pbrMetallicRoughness":{"baseColorTexture":{"index":0},"metallicFactor":0.0},"extensions":{"KHR_materials_specular":{"specularFactor":1.0,"specularColorFactor":[0.0,0.0,0.0]},"KHR_materials_ior":{"ior":1.0}}},{"name":"material_1_material","pbrMetallicRoughness":{"baseColorTexture":{"index":1},"metallicFactor":0.0},"extensions":{"KHR_materials_specular":{"specularFactor":1.0,"specularColorFactor":[0.0,0.0,0.0]},"KHR_materials_ior":{"ior":1.0}}}],"meshes":[{"name":"defaultobject","primitives":[{"mode":4,"material":1,"indices":2,"attributes":{"POSITION":0,"TEXCOORD_0":1}},{"mode":4,"material":2,"indices":5,"attributes":{"POSITION":3,"TEXCOORD_0":4}}]}],"nodes":[{"name":"tile_0133.obj","children":[1]},{"name":"defaultobject","mesh":0}],"samplers":[{},{}],"scenes":[{"nodes":[0]}],"textures":[{"source":0,"sampler":0},{"source":1,"sampler":1}],"scene":0}
