{"asset":{"version":"2.0","generator":"Open Asset Import Library (assimp v6.0.0)"},"extensionsUsed":["KHR_materials_specular","KHR_materials_volume","KHR_materials_ior","FB_ngon_encoding"],"accessors":[{"bufferView":0,"byteOffset":0,"componentType":5126,"count":3370,"type":"VEC3","max":[-4.833214282989502,0.41474390029907227,4.0972208976745605],"min":[-5.359304428100586,2.2250738585072014e-308,2.2250738585072014e-308]},{"bufferView":1,"byteOffset":0,"componentType":5126,"count":3370,"type":"VEC2","max":[0.9896252155303955,0.9120826721191406],"min":[2.2250738585072014e-308,2.2250738585072014e-308]},{"bufferView":2,"byteOffset":0,"componentType":5125,"count":15891,"type":"SCALAR","max":[3369],"min":[0]},{"bufferView":3,"byteOffset":0,"componentType":5126,"count":874,"type":"VEC3","max":[-4.847464084625244,0.41596782207489014,4.078556060791016],"min":[-5.359396457672119,2.2250738585072014e-308,2.2250738585072014e-308]},{"bufferView":4,"byteOffset":0,"componentType":5126,"count":874,"type":"VEC2","max":[0.7505855560302734,0.8055953979492188],"min":[2.2250738585072014e-308,2.2250738585072014e-308]},{"bufferView":5,"byteOffset":0,"componentType":5125,"count":4251,"type":"SCALAR","max":[873],"min":[0]}],"buffers":[{"byteLength":165448,"uri":"tile_0451.bin"}],"bufferViews":[{"buffer":0,"byteOffset":0,"byteLength":40440,"target":34962},{"buffer":0,"byteOffset":40440,"byteLength":26960,"target":34962},{"buffer":0,"byteOffset":67400,"byteLength":63564,"target":34963},{"buffer":0,"byteOffset":130964,"byteLength":10488,"target":34962},{"buffer":0,"byteOffset":141452,"byteLength":6992,"target":34962},{"buffer":0,"byteOffset":148444,"byteLength":17004,"target":34963}],"images":[{"uri":"../textures/tile_0451_material_0.jpg"},{"uri":"../textures/tile_0451_material_1.jpg"}],"materials":[{"name":"DefaultMaterial","pbrMetallicRoughness":{"baseColorFactor":[0.6000000238418579,0.6000000238418579,0.6000000238418579,1.0],"metallicFactor":0.0},"extensions":{"KHR_materials_specular":{"specularFactor":1.0,"specularColorFactor":[0.0,0.0,0.0]},"KHR_materials_ior":{"ior":1.0}}},{"name":"material_0_material","pbrMetallicRoughness":{"baseColorTexture":{"index":0},"metallicFactor":0.0},"extensions":{"KHR_materials_specular":{"specularFactor":1.0,"specularColorFactor":[0.0,0.0,0.0]},"KHR_materials_ior":{"ior":1.0}}},{"name":"material_1_material","pbrMetallicRoughness":{"baseColorTexture":{"index":1},"metallicFactor":0.0},"extensions":{"KHR_materials_specular":{"specularFactor":1.0,"specularColorFactor":[0.0,0.0,0.0]},"KHR_materials_ior":{"ior":1.0}}}],"meshes":[{"name":"defaultobject","primitives":[{"mode":4,"material":1,"indices":2,"attributes":{"POSITION":0,"TEXCOORD_0":1}},{"mode":4,"material":2,"indices":5,"attributes":{"POSITION":3,"TEXCOORD_0":4}}]}],"nodes":[{"name":"tile_0451.obj","children":[1]},{"name":"defaultobject","mesh":0}],"samplers":[{},{}],"scenes":[{"nodes":[0]}],"textures":[{"source":0,"sampler":0},{"source":1,"sampler":1}],"scene":0}
