{"asset":{"version":"2.0","generator":"Open Asset Import Library (assimp v6.0.0)"},"extensionsUsed":["KHR_materials_specular","KHR_materials_volume","KHR_materials_ior","FB_ngon_encoding"],"accessors":[{"bufferView":0,"byteOffset":0,"componentType":5126,"count":4244,"type":"VEC3","max":[3.7329623699188232,0.6028231978416443,4.180933475494385],"min":[2.2250738585072014e-308,2.2250738585072014e-308,2.2250738585072014e-308]},{"bufferView":1,"byteOffset":0,"componentType":5126,"count":4244,"type":"VEC2","max":[0.9868044853210449,0.5230674743652344],"min":[2.2250738585072014e-308,2.2250738585072014e-308]},{"bufferView":2,"byteOffset":0,"componentType":5125,"count":18186,"type":"SCALAR","max":[4243],"min":[0]},{"bufferView":3,"byteOffset":0,"componentType":5126,"count":431,"type":"VEC3","max":[3.731482982635498,0.6028231978416443,4.131468772888184],"min":[2.2250738585072014e-308,2.2250738585072014e-308,2.2250738585072014e-308]},{"bufferView":4,"byteOffset":0,"componentType":5126,"count":431,"type":"VEC2","max":[0.6551933288574219,0.8363685607910156],"min":[2.2250738585072014e-308,2.2250738585072014e-308]},{"bufferView":5,"byteOffset":0,"componentType":5125,"count":2034,"type":"SCALAR","max":[430],"min":[0]}],"buffers":[{"byteLength":174380,"uri":"tile_0671.bin"}],"bufferViews":[{"buffer":0,"byteOffset":0,"byteLength":50928,"target":34962},{"buffer":0,"byteOffset":50928,"byteLength":33952,"target":34962},{"buffer":0,"byteOffset":84880,"byteLength":72744,"target":34963},{"buffer":0,"byteOffset":157624,"byteLength":5172,"target":34962},{"buffer":0,"byteOffset":162796,"byteLength":3448,"target":34962},{"buffer":0,"byteOffset":166244,"byteLength":8136,"target":34963}],"images":[{"uri":"../textures/tile_0671_material_0.jpg"},{"uri":"../textures/tile_0671_material_1.jpg"}],"materials":[{"name":"DefaultMaterial","pbrMetallicRoughness":{"baseColorFactor":[0.6000000238418579,0.6000000238418579,0.6000000238418579,1.0],"metallicFactor":0.0},"extensions":{"KHR_materials_specular":{"specularFactor":1.0,"specularColorFactor":[0.0,0.0,0.0]},"KHR_materials_ior":{"ior":1.0}}},{"name":"material_0_material","pbrMetallicRoughness":{"baseColorTexture":{"index":0},"metallicFactor":0.0},"extensions":{"KHR_materials_specular":{"specularFactor":1.0,"specularColorFactor":[0.0,0.0,0.0]},"KHR_materials_ior":{"ior":1.0}}},{"name":"material_1_material","pbrMetallicRoughness":{"baseColorTexture":{"index":1},"metallicFactor":0.0},"extensions":{"KHR_materials_specular":{"specularFactor":1.0,"specularColorFactor":[0.0,0.0,0.0]},"KHR_materials_ior":{"ior":1.0}}}],"meshes":[{"name":"defaultobject","primitives":[{"mode":4,"material":1,"indices":2,"attributes":{"POSITION":0,"TEXCOORD_0":1}},{"mode":4,"material":2,"indices":5,"attributes":{"POSITION":3,"TEXCOORD_0":4}}]}],"nodes":[{"name":"tile_0671.obj","children":[1]},{"name":"defaultobject","mesh":0}],"samplers":[{},{}],"scenes":[{"nodes":[0]}],"textures":[{"source":0,"sampler":0},{"source":1,"sampler":1}],"scene":0}
