{"asset":{"version":"2.0","generator":"Open Asset Import Library (assimp v6.0.0)"},"extensionsUsed":["KHR_materials_specular","KHR_materials_volume","KHR_materials_ior","FB_ngon_encoding"],"accessors":[{"bufferView":0,"byteOffset":0,"componentType":5126,"count":1870,"type":"VEC3","max":[-2.0437541007995605,-0.9766250848770142,2.7214558124542236],"min":[-2.3411865234375,-1.2206008434295654,2.2250738585072014e-308]},{"bufferView":1,"byteOffset":0,"componentType":5126,"count":1870,"type":"VEC2","max":[0.9880485534667969,0.5218429565429688],"min":[2.2250738585072014e-308,2.2250738585072014e-308]},{"bufferView":2,"byteOffset":0,"componentType":5125,"count":8856,"type":"SCALAR","max":[1869],"min":[0]},{"bufferView":3,"byteOffset":0,"componentType":5126,"count":2044,"type":"VEC3","max":[-2.0430943965911865,-0.9864611029624939,2.64166522026062],"min":[-2.340439558029175,-1.2207046747207642,2.2250738585072014e-308]},{"bufferView":4,"byteOffset":0,"componentType":5126,"count":2044,"type":"VEC2","max":[0.8353853225708008,0.96966552734375],"min":[2.2250738585072014e-308,2.2250738585072014e-308]},{"bufferView":5,"byteOffset":0,"componentType":5125,"count":10845,"type":"SCALAR","max":[2043],"min":[0]}],"buffers":[{"byteLength":157084,"uri":"tile_0373.bin"}],"bufferViews":[{"buffer":0,"byteOffset":0,"byteLength":22440,"target":34962},{"buffer":0,"byteOffset":22440,"byteLength":14960,"target":34962},{"buffer":0,"byteOffset":37400,"byteLength":35424,"target":34963},{"buffer":0,"byteOffset":72824,"byteLength":24528,"target":34962},{"buffer":0,"byteOffset":97352,"byteLength":16352,"target":34962},{"buffer":0,"byteOffset":113704,"byteLength":43380,"target":34963}],"images":[{"uri":"../textures/tile_0373_material_0.jpg"},{"uri":"../textures/tile_0373_material_1.jpg"}],"materials":[{"name":"DefaultMaterial","pbrMetallicRoughness":{"baseColorFactor":[0.6000000238418579,0.6000000238418579,0.6000000238418579,1.0],"metallicFactor":0.0},"extensions":{"KHR_materials_specular":{"specularFactor":1.0,"specularColorFactor":[0.0,0.0,0.0]},"KHR_materials_ior":{"ior":1.0}}},{"name":"material_0_material","pbrMetallicRoughness":{"baseColorTexture":{"index":0},"metallicFactor":0.0},"extensions":{"KHR_materials_specular":{"specularFactor":1.0,"specularColorFactor":[0.0,0.0,0.0]},"KHR_materials_ior":{"ior":1.0}}},{"name":"material_1_material","pbrMetallicRoughness":{"baseColorTexture":{"index":1},"metallicFactor":0.0},"extensions":{"KHR_materials_specular":{"specularFactor":1.0,"specularColorFactor":[0.0,0.0,0.0]},"KHR_materials_ior":{"ior":1.0}}}],"meshes":[{"name":"defaultobject","primitives":[{"mode":4,"material":1,"indices":2,"attributes":{"POSITION":0,"TEXCOORD_0":1}},{"mode":4,"material":2,"indices":5,"attributes":{"POSITION":3,"TEXCOORD_0":4}}]}],"nodes":[{"name":"tile_0373.obj","children":[1]},{"name":"defaultobject","mesh":0}],"samplers":[{},{}],"scenes":[{"nodes":[0]}],"textures":[{"source":0,"sampler":0},{"source":1,"sampler":1}],"scene":0}
