{"asset":{"version":"2.0","generator":"Open Asset Import Library (assimp v6.0.0)"},"extensionsUsed":["KHR_materials_specular","KHR_materials_volume","KHR_materials_ior","FB_ngon_encoding"],"accessors":[{"bufferView":0,"byteOffset":0,"componentType":5126,"count":4174,"type":"VEC3","max":[1.133047103881836,-1.7164127826690674,2.9279110431671143],"min":[2.2250738585072014e-308,-1.955436110496521,2.2250738585072014e-308]},{"bufferView":1,"byteOffset":0,"componentType":5126,"count":4174,"type":"VEC2","max":[0.9875452518463135,0.9213333129882812],"min":[2.2250738585072014e-308,2.2250738585072014e-308]},{"bufferView":2,"byteOffset":0,"componentType":5125,"count":19044,"type":"SCALAR","max":[4173],"min":[0]},{"bufferView":3,"byteOffset":0,"componentType":5126,"count":121,"type":"VEC3","max":[1.1246755123138428,-1.7236024141311646,2.6790149211883545],"min":[2.2250738585072014e-308,-1.7737594842910767,2.2250738585072014e-308]},{"bufferView":4,"byteOffset":0,"componentType":5126,"count":121,"type":"VEC2","max":[0.7253265976905823,0.5341110229492188],"min":[2.2250738585072014e-308,2.2250738585072014e-308]},{"bufferView":5,"byteOffset":0,"componentType":5125,"count":591,"type":"SCALAR","max":[120],"min":[0]}],"buffers":[{"byteLength":164440,"uri":"tile_0274.bin"}],"bufferViews":[{"buffer":0,"byteOffset":0,"byteLength":50088,"target":34962},{"buffer":0,"byteOffset":50088,"byteLength":33392,"target":34962},{"buffer":0,"byteOffset":83480,"byteLength":76176,"target":34963},{"buffer":0,"byteOffset":159656,"byteLength":1452,"target":34962},{"buffer":0,"byteOffset":161108,"byteLength":968,"target":34962},{"buffer":0,"byteOffset":162076,"byteLength":2364,"target":34963}],"images":[{"uri":"../textures/tile_0274_material_0.jpg"},{"uri":"../textures/tile_0274_material_1.jpg"}],"materials":[{"name":"DefaultMaterial","pbrMetallicRoughness":{"baseColorFactor":[0.6000000238418579,0.6000000238418579,0.6000000238418579,1.0],"metallicFactor":0.0},"extensions":{"KHR_materials_specular":{"specularFactor":1.0,"specularColorFactor":[0.0,0.0,0.0]},"KHR_materials_ior":{"ior":1.0}}},{"name":"material_0_material","pbrMetallicRoughness":{"baseColorTexture":{"index":0},"metallicFactor":0.0},"extensions":{"KHR_materials_specular":{"specularFactor":1.0,"specularColorFactor":[0.0,0.0,0.0]},"KHR_materials_ior":{"ior":1.0}}},{"name":"material_1_material","pbrMetallicRoughness":{"baseColorTexture":{"index":1},"metallicFactor":0.0},"extensions":{"KHR_materials_specular":{"specularFactor":1.0,"specularColorFactor":[0.0,0.0,0.0]},"KHR_materials_ior":{"ior":1.0}}}],"meshes":[{"name":"defaultobject","primitives":[{"mode":4,"material":1,"indices":2,"attributes":{"POSITION":0,"TEXCOORD_0":1}},{"mode":4,"material":2,"indices":5,"attributes":{"POSITION":3,"TEXCOORD_0":4}}]}],"nodes":[{"name":"tile_0274.obj","children":[1]},{"name":"defaultobject","mesh":0}],"samplers":[{},{}],"scenes":[{"nodes":[0]}],"textures":[{"source":0,"sampler":0},{"source":1,"sampler":1}],"scene":0}
