{"asset":{"version":"2.0","generator":"Open Asset Import Library (assimp v6.0.0)"},"extensionsUsed":["KHR_materials_specular","KHR_materials_volume","KHR_materials_ior","FB_ngon_encoding"],"accessors":[{"bufferView":0,"byteOffset":0,"componentType":5126,"count":5529,"type":"VEC3","max":[-2.480778932571411,3.3742012977600098,4.675295829772949],"min":[-2.806743621826172,2.2250738585072014e-308,2.2250738585072014e-308]},{"bufferView":1,"byteOffset":0,"componentType":5126,"count":5529,"type":"VEC2","max":[0.9948331117630005,0.6988143920898438],"min":[2.2250738585072014e-308,2.2250738585072014e-308]},{"bufferView":2,"byteOffset":0,"componentType":5125,"count":24396,"type":"SCALAR","max":[5528],"min":[0]},{"bufferView":3,"byteOffset":0,"componentType":5126,"count":411,"type":"VEC3","max":[-2.489933967590332,3.3569045066833496,4.673312187194824],"min":[-2.804898500442505,2.2250738585072014e-308,2.2250738585072014e-308]},{"bufferView":4,"byteOffset":0,"componentType":5126,"count":411,"type":"VEC2","max":[0.8282928466796875,0.5629177093505859],"min":[2.2250738585072014e-308,2.2250738585072014e-308]},{"bufferView":5,"byteOffset":0,"componentType":5125,"count":1983,"type":"SCALAR","max":[410],"min":[0]}],"buffers":[{"byteLength":224316,"uri":"tile_0493.bin"}],"bufferViews":[{"buffer":0,"byteOffset":0,"byteLength":66348,"target":34962},{"buffer":0,"byteOffset":66348,"byteLength":44232,"target":34962},{"buffer":0,"byteOffset":110580,"byteLength":97584,"target":34963},{"buffer":0,"byteOffset":208164,"byteLength":4932,"target":34962},{"buffer":0,"byteOffset":213096,"byteLength":3288,"target":34962},{"buffer":0,"byteOffset":216384,"byteLength":7932,"target":34963}],"images":[{"uri":"../textures/tile_0493_material_0.jpg"},{"uri":"../textures/tile_0493_material_1.jpg"}],"materials":[{"name":"DefaultMaterial","pbrMetallicRoughness":{"baseColorFactor":[0.6000000238418579,0.6000000238418579,0.6000000238418579,1.0],"metallicFactor":0.0},"extensions":{"KHR_materials_specular":{"specularFactor":1.0,"specularColorFactor":[0.0,0.0,0.0]},"KHR_materials_ior":{"ior":1.0}}},{"name":"material_0_material","pbrMetallicRoughness":{"baseColorTexture":{"index":0},"metallicFactor":0.0},"extensions":{"KHR_materials_specular":{"specularFactor":1.0,"specularColorFactor":[0.0,0.0,0.0]},"KHR_materials_ior":{"ior":1.0}}},{"name":"material_1_material","pbrMetallicRoughness":{"baseColorTexture":{"index":1},"metallicFactor":0.0},"extensions":{"KHR_materials_specular":{"specularFactor":1.0,"specularColorFactor":[0.0,0.0,0.0]},"KHR_materials_ior":{"ior":1.0}}}],"meshes":[{"name":"defaultobject","primitives":[{"mode":4,"material":1,"indices":2,"attributes":{"POSITION":0,"TEXCOORD_0":1}},{"mode":4,"material":2,"indices":5,"attributes":{"POSITION":3,"TEXCOORD_0":4}}]}],"nodes":[{"name":"tile_0493.obj","children":[1]},{"name":"defaultobject","mesh":0}],"samplers":[{},{}],"scenes":[{"nodes":[0]}],"textures":[{"source":0,"sampler":0},{"source":1,"sampler":1}],"scene":0}
