{"asset":{"version":"2.0","generator":"Open Asset Import Library (assimp v6.0.0)"},"extensionsUsed":["KHR_materials_specular","KHR_materials_volume","KHR_materials_ior","FB_ngon_encoding"],"accessors":[{"bufferView":0,"byteOffset":0,"componentType":5126,"count":3875,"type":"VEC3","max":[3.6139791011810303,1.6951390504837036,3.8820695877075195],"min":[2.2250738585072014e-308,2.2250738585072014e-308,2.2250738585072014e-308]},{"bufferView":1,"byteOffset":0,"componentType":5126,"count":3875,"type":"VEC2","max":[0.991762638092041,0.8558845520019531],"min":[2.2250738585072014e-308,2.2250738585072014e-308]},{"bufferView":2,"byteOffset":0,"componentType":5125,"count":18384,"type":"SCALAR","max":[3874],"min":[0]},{"bufferView":3,"byteOffset":0,"componentType":5126,"count":790,"type":"VEC3","max":[3.613861322402954,1.6933143138885498,3.8610525131225586],"min":[2.2250738585072014e-308,2.2250738585072014e-308,2.2250738585072014e-308]},{"bufferView":4,"byteOffset":0,"componentType":5126,"count":790,"type":"VEC2","max":[0.5415787696838379,0.6080036163330078],"min":[2.2250738585072014e-308,2.2250738585072014e-308]},{"bufferView":5,"byteOffset":0,"componentType":5125,"count":3777,"type":"SCALAR","max":[789],"min":[0]}],"buffers":[{"byteLength":181944,"uri":"tile_0657.bin"}],"bufferViews":[{"buffer":0,"byteOffset":0,"byteLength":46500,"target":34962},{"buffer":0,"byteOffset":46500,"byteLength":31000,"target":34962},{"buffer":0,"byteOffset":77500,"byteLength":73536,"target":34963},{"buffer":0,"byteOffset":151036,"byteLength":9480,"target":34962},{"buffer":0,"byteOffset":160516,"byteLength":6320,"target":34962},{"buffer":0,"byteOffset":166836,"byteLength":15108,"target":34963}],"images":[{"uri":"../textures/tile_0657_material_0.jpg"},{"uri":"../textures/tile_0657_material_1.jpg"}],"materials":[{"name":"DefaultMaterial","pbrMetallicRoughness":{"baseColorFactor":[0.6000000238418579,0.6000000238418579,0.6000000238418579,1.0],"metallicFactor":0.0},"extensions":{"KHR_materials_specular":{"specularFactor":1.0,"specularColorFactor":[0.0,0.0,0.0]},"KHR_materials_ior":{"ior":1.0}}},{"name":"material_0_material","pbrMetallicRoughness":{"baseColorTexture":{"index":0},"metallicFactor":0.0},"extensions":{"KHR_materials_specular":{"specularFactor":1.0,"specularColorFactor":[0.0,0.0,0.0]},"KHR_materials_ior":{"ior":1.0}}},{"name":"material_1_material","pbrMetallicRoughness":{"baseColorTexture":{"index":1},"metallicFactor":0.0},"extensions":{"KHR_materials_specular":{"specularFactor":1.0,"specularColorFactor":[0.0,0.0,0.0]},"KHR_materials_ior":{"ior":1.0}}}],"meshes":[{"name":"defaultobject","primitives":[{"mode":4,"material":1,"indices":2,"attributes":{"POSITION":0,"TEXCOORD_0":1}},{"mode":4,"material":2,"indices":5,"attributes":{"POSITION":3,"TEXCOORD_0":4}}]}],"nodes":[{"name":"tile_0657.obj","children":[1]},{"name":"defaultobject","mesh":0}],"samplers":[{},{}],"scenes":[{"nodes":[0]}],"textures":[{"source":0,"sampler":0},{"source":1,"sampler":1}],"scene":0}
