{"asset":{"version":"2.0","generator":"Open Asset Import Library (assimp v6.0.0)"},"extensionsUsed":["KHR_materials_specular","KHR_materials_volume","KHR_materials_ior","FB_ngon_encoding"],"accessors":[{"bufferView":0,"byteOffset":0,"componentType":5126,"count":2213,"type":"VEC3","max":[-3.830177068710327,-2.0428078174591064,3.2154440879821777],"min":[-4.218137741088867,-2.3785898685455322,2.2250738585072014e-308]},{"bufferView":1,"byteOffset":0,"componentType":5126,"count":2213,"type":"VEC2","max":[0.9857654571533203,0.7629547119140625],"min":[2.2250738585072014e-308,2.2250738585072014e-308]},{"bufferView":2,"byteOffset":0,"componentType":5125,"count":10590,"type":"SCALAR","max":[2212],"min":[0]},{"bufferView":3,"byteOffset":0,"componentType":5126,"count":1626,"type":"VEC3","max":[-3.826181650161743,-2.048011302947998,3.2067205905914307],"min":[-4.211770534515381,-2.3782591819763184,2.2250738585072014e-308]},{"bufferView":4,"byteOffset":0,"componentType":5126,"count":1626,"type":"VEC2","max":[0.49895620346069336,0.540069580078125],"min":[2.2250738585072014e-308,2.2250738585072014e-308]},{"bufferView":5,"byteOffset":0,"componentType":5125,"count":8427,"type":"SCALAR","max":[1625],"min":[0]}],"buffers":[{"byteLength":152848,"uri":"tile_0416.bin"}],"bufferViews":[{"buffer":0,"byteOffset":0,"byteLength":26556,"target":34962},{"buffer":0,"byteOffset":26556,"byteLength":17704,"target":34962},{"buffer":0,"byteOffset":44260,"byteLength":42360,"target":34963},{"buffer":0,"byteOffset":86620,"byteLength":19512,"target":34962},{"buffer":0,"byteOffset":106132,"byteLength":13008,"target":34962},{"buffer":0,"byteOffset":119140,"byteLength":33708,"target":34963}],"images":[{"uri":"../textures/tile_0416_material_0.jpg"},{"uri":"../textures/tile_0416_material_1.jpg"}],"materials":[{"name":"DefaultMaterial","pbrMetallicRoughness":{"baseColorFactor":[0.6000000238418579,0.6000000238418579,0.6000000238418579,1.0],"metallicFactor":0.0},"extensions":{"KHR_materials_specular":{"specularFactor":1.0,"specularColorFactor":[0.0,0.0,0.0]},"KHR_materials_ior":{"ior":1.0}}},{"name":"material_0_material","pbrMetallicRoughness":{"baseColorTexture":{"index":0},"metallicFactor":0.0},"extensions":{"KHR_materials_specular":{"specularFactor":1.0,"specularColorFactor":[0.0,0.0,0.0]},"KHR_materials_ior":{"ior":1.0}}},{"name":"material_1_material","pbrMetallicRoughness":{"baseColorTexture":{"index":1},"metallicFactor":0.0},"extensions":{"KHR_materials_specular":{"specularFactor":1.0,"specularColorFactor":[0.0,0.0,0.0]},"KHR_materials_ior":{"ior":1.0}}}],"meshes":[{"name":"defaultobject","primitives":[{"mode":4,"material":1,"indices":2,"attributes":{"POSITION":0,"TEXCOORD_0":1}},{"mode":4,"material":2,"indices":5,"attributes":{"POSITION":3,"TEXCOORD_0":4}}]}],"nodes":[{"name":"tile_0416.obj","children":[1]},{"name":"defaultobject","mesh":0}],"samplers":[{},{}],"scenes":[{"nodes":[0]}],"textures":[{"source":0,"sampler":0},{"source":1,"sampler":1}],"scene":0}
