{"asset":{"version":"2.0","generator":"Open Asset Import Library (assimp v6.0.0)"},"extensionsUsed":["KHR_materials_specular","KHR_materials_volume","KHR_materials_ior","FB_ngon_encoding"],"accessors":[{"bufferView":0,"byteOffset":0,"componentType":5126,"count":6699,"type":"VEC3","max":[-1.9889882802963257,-2.756819009780884,2.3494930267333984],"min":[-2.2981505393981934,-3.354449510574341,2.2250738585072014e-308]},{"bufferView":1,"byteOffset":0,"componentType":5126,"count":6699,"type":"VEC2","max":[0.9936332702636719,0.8394088745117188],"min":[2.2250738585072014e-308,2.2250738585072014e-308]},{"bufferView":2,"byteOffset":0,"componentType":5125,"count":31437,"type":"SCALAR","max":[6698],"min":[0]},{"bufferView":3,"byteOffset":0,"componentType":5126,"count":4826,"type":"VEC3","max":[-1.9892405271530151,-2.7541446685791016,2.3237850666046143],"min":[-2.297081232070923,-3.3546767234802246,2.2250738585072014e-308]},{"bufferView":4,"byteOffset":0,"componentType":5126,"count":4826,"type":"VEC2","max":[0.9903349876403809,0.7374916076660156],"min":[2.2250738585072014e-308,2.2250738585072014e-308]},{"bufferView":5,"byteOffset":0,"componentType":5125,"count":25674,"type":"SCALAR","max":[4825],"min":[0]}],"buffers":[{"byteLength":458944,"uri":"tile_0314.bin"}],"bufferViews":[{"buffer":0,"byteOffset":0,"byteLength":80388,"target":34962},{"buffer":0,"byteOffset":80388,"byteLength":53592,"target":34962},{"buffer":0,"byteOffset":133980,"byteLength":125748,"target":34963},{"buffer":0,"byteOffset":259728,"byteLength":57912,"target":34962},{"buffer":0,"byteOffset":317640,"byteLength":38608,"target":34962},{"buffer":0,"byteOffset":356248,"byteLength":102696,"target":34963}],"images":[{"uri":"../textures/tile_0314_material_0.jpg"},{"uri":"../textures/tile_0314_material_1.jpg"}],"materials":[{"name":"DefaultMaterial","pbrMetallicRoughness":{"baseColorFactor":[0.6000000238418579,0.6000000238418579,0.6000000238418579,1.0],"metallicFactor":0.0},"extensions":{"KHR_materials_specular":{"specularFactor":1.0,"specularColorFactor":[0.0,0.0,0.0]},"KHR_materials_ior":{"ior":1.0}}},{"name":"material_0_material","pbrMetallicRoughness":{"baseColorTexture":{"index":0},"metallicFactor":0.0},"extensions":{"KHR_materials_specular":{"specularFactor":1.0,"specularColorFactor":[0.0,0.0,0.0]},"KHR_materials_ior":{"ior":1.0}}},{"name":"material_1_material","pbrMetallicRoughness":{"baseColorTexture":{"index":1},"metallicFactor":0.0},"extensions":{"KHR_materials_specular":{"specularFactor":1.0,"specularColorFactor":[0.0,0.0,0.0]},"KHR_materials_ior":{"ior":1.0}}}],"meshes":[{"name":"defaultobject","primitives":[{"mode":4,"material":1,"indices":2,"attributes":{"POSITION":0,"TEXCOORD_0":1}},{"mode":4,"material":2,"indices":5,"attributes":{"POSITION":3,"TEXCOORD_0":4}}]}],"nodes":[{"name":"tile_0314.obj","children":[1]},{"name":"defaultobject","mesh":0}],"samplers":[{},{}],"scenes":[{"nodes":[0]}],"textures":[{"source":0,"sampler":0},{"source":1,"sampler":1}],"scene":0}
