{"asset":{"version":"2.0","generator":"Open Asset Import Library (assimp v6.0.0)"},"extensionsUsed":["KHR_materials_specular","KHR_materials_volume","KHR_materials_ior","FB_ngon_encoding"],"accessors":[{"bufferView":0,"byteOffset":0,"componentType":5126,"count":4181,"type":"VEC3","max":[0.7523072361946106,3.7017688751220703,4.588400363922119],"min":[2.2250738585072014e-308,2.2250738585072014e-308,2.2250738585072014e-308]},{"bufferView":1,"byteOffset":0,"componentType":5126,"count":4181,"type":"VEC2","max":[0.9909391403198242,0.5791721343994141],"min":[2.2250738585072014e-308,2.2250738585072014e-308]},{"bufferView":2,"byteOffset":0,"componentType":5125,"count":18327,"type":"SCALAR","max":[4180],"min":[0]},{"bufferView":3,"byteOffset":0,"componentType":5126,"count":770,"type":"VEC3","max":[0.7426407337188721,3.699155569076538,4.586789131164551],"min":[2.2250738585072014e-308,2.2250738585072014e-308,2.2250738585072014e-308]},{"bufferView":4,"byteOffset":0,"componentType":5126,"count":770,"type":"VEC2","max":[0.6651983261108398,0.5508518218994141],"min":[2.2250738585072014e-308,2.2250738585072014e-308]},{"bufferView":5,"byteOffset":0,"componentType":5125,"count":3915,"type":"SCALAR","max":[769],"min":[0]}],"buffers":[{"byteLength":187988,"uri":"tile_0200.bin"}],"bufferViews":[{"buffer":0,"byteOffset":0,"byteLength":50172,"target":34962},{"buffer":0,"byteOffset":50172,"byteLength":33448,"target":34962},{"buffer":0,"byteOffset":83620,"byteLength":73308,"target":34963},{"buffer":0,"byteOffset":156928,"byteLength":9240,"target":34962},{"buffer":0,"byteOffset":166168,"byteLength":6160,"target":34962},{"buffer":0,"byteOffset":172328,"byteLength":15660,"target":34963}],"images":[{"uri":"../textures/tile_0200_material_0.jpg"},{"uri":"../textures/tile_0200_material_1.jpg"}],"materials":[{"name":"DefaultMaterial","pbrMetallicRoughness":{"baseColorFactor":[0.6000000238418579,0.6000000238418579,0.6000000238418579,1.0],"metallicFactor":0.0},"extensions":{"KHR_materials_specular":{"specularFactor":1.0,"specularColorFactor":[0.0,0.0,0.0]},"KHR_materials_ior":{"ior":1.0}}},{"name":"material_0_material","pbrMetallicRoughness":{"baseColorTexture":{"index":0},"metallicFactor":0.0},"extensions":{"KHR_materials_specular":{"specularFactor":1.0,"specularColorFactor":[0.0,0.0,0.0]},"KHR_materials_ior":{"ior":1.0}}},{"name":"material_1_material","pbrMetallicRoughness":{"baseColorTexture":{"index":1},"metallicFactor":0.0},"extensions":{"KHR_materials_specular":{"specularFactor":1.0,"specularColorFactor":[0.0,0.0,0.0]},"KHR_materials_ior":{"ior":1.0}}}],"meshes":[{"name":"defaultobject","primitives":[{"mode":4,"material":1,"indices":2,"attributes":{"POSITION":0,"TEXCOORD_0":1}},{"mode":4,"material":2,"indices":5,"attributes":{"POSITION":3,"TEXCOORD_0":4}}]}],"nodes":[{"name":"tile_0200.obj","children":[1]},{"name":"defaultobject","mesh":0}],"samplers":[{},{}],"scenes":[{"nodes":[0]}],"textures":[{"source":0,"sampler":0},{"source":1,"sampler":1}],"scene":0}
