{"asset":{"version":"2.0","generator":"Open Asset Import Library (assimp v6.0.0)"},"extensionsUsed":["KHR_materials_specular","KHR_materials_volume","KHR_materials_ior","FB_ngon_encoding"],"accessors":[{"bufferView":0,"byteOffset":0,"componentType":5126,"count":6916,"type":"VEC3","max":[1.9486440420150757,-1.6805790662765503,3.0152344703674316],"min":[2.2250738585072014e-308,-1.9441324472427368,2.2250738585072014e-308]},{"bufferView":1,"byteOffset":0,"componentType":5126,"count":6916,"type":"VEC2","max":[0.9909448623657227,0.7179946899414062],"min":[2.2250738585072014e-308,2.2250738585072014e-308]},{"bufferView":2,"byteOffset":0,"componentType":5125,"count":31950,"type":"SCALAR","max":[6915],"min":[0]},{"bufferView":3,"byteOffset":0,"componentType":5126,"count":4,"type":"VEC3","max":[1.6660386323928833,-1.9295439720153809,2.9093549251556396],"min":[2.2250738585072014e-308,-1.9429930448532104,2.2250738585072014e-308]},{"bufferView":4,"byteOffset":0,"componentType":5126,"count":4,"type":"VEC2","max":[0.6235350370407104,0.762771725654602],"min":[2.2250738585072014e-308,2.2250738585072014e-308]},{"bufferView":5,"byteOffset":0,"componentType":5125,"count":6,"type":"SCALAR","max":[3],"min":[0]}],"buffers":[{"byteLength":266224,"uri":"tile_0229.bin"}],"bufferViews":[{"buffer":0,"byteOffset":0,"byteLength":82992,"target":34962},{"buffer":0,"byteOffset":82992,"byteLength":55328,"target":34962},{"buffer":0,"byteOffset":138320,"byteLength":127800,"target":34963},{"buffer":0,"byteOffset":266120,"byteLength":48,"target":34962},{"buffer":0,"byteOffset":266168,"byteLength":32,"target":34962},{"buffer":0,"byteOffset":266200,"byteLength":24,"target":34963}],"images":[{"uri":"../textures/tile_0229_material_0.jpg"},{"uri":"../textures/tile_0229_material_1.jpg"}],"materials":[{"name":"DefaultMaterial","pbrMetallicRoughness":{"baseColorFactor":[0.6000000238418579,0.6000000238418579,0.6000000238418579,1.0],"metallicFactor":0.0},"extensions":{"KHR_materials_specular":{"specularFactor":1.0,"specularColorFactor":[0.0,0.0,0.0]},"KHR_materials_ior":{"ior":1.0}}},{"name":"material_0_material","pbrMetallicRoughness":{"baseColorTexture":{"index":0},"metallicFactor":0.0},"extensions":{"KHR_materials_specular":{"specularFactor":1.0,"specularColorFactor":[0.0,0.0,0.0]},"KHR_materials_ior":{"ior":1.0}}},{"name":"material_1_material","pbrMetallicRoughness":{"baseColorTexture":{"index":1},"metallicFactor":0.0},"extensions":{"KHR_materials_specular":{"specularFactor":1.0,"specularColorFactor":[0.0,0.0,0.0]},"KHR_materials_ior":{"ior":1.0}}}],"meshes":[{"name":"defaultobject","primitives":[{"mode":4,"material":1,"indices":2,"attributes":{"POSITION":0,"TEXCOORD_0":1}},{"mode":4,"material":2,"indices":5,"attributes":{"POSITION":3,"TEXCOORD_0":4}}]}],"nodes":[{"name":"tile_0229.obj","children":[1]},{"name":"defaultobject","mesh":0}],"samplers":[{},{}],"scenes":[{"nodes":[0]}],"textures":[{"source":0,"sampler":0},{"source":1,"sampler":1}],"scene":0}
