{"asset":{"version":"2.0","generator":"Open Asset Import Library (assimp v6.0.0)"},"extensionsUsed":["KHR_materials_specular","KHR_materials_volume","KHR_materials_ior","FB_ngon_encoding"],"accessors":[{"bufferView":0,"byteOffset":0,"componentType":5126,"count":3761,"type":"VEC3","max":[-1.3907731771469116,4.041238307952881,4.705735683441162],"min":[-1.658050298690796,2.2250738585072014e-308,2.2250738585072014e-308]},{"bufferView":1,"byteOffset":0,"componentType":5126,"count":3761,"type":"VEC2","max":[0.9875264167785645,0.5970668792724609],"min":[2.2250738585072014e-308,2.2250738585072014e-308]},{"bufferView":2,"byteOffset":0,"componentType":5125,"count":15894,"type":"SCALAR","max":[3760],"min":[0]},{"bufferView":3,"byteOffset":0,"componentType":5126,"count":398,"type":"VEC3","max":[-1.3929344415664673,3.848179817199707,4.659536361694336],"min":[-1.6001677513122559,2.2250738585072014e-308,2.2250738585072014e-308]},{"bufferView":4,"byteOffset":0,"componentType":5126,"count":398,"type":"VEC2","max":[0.9536056518554688,0.6253738403320312],"min":[2.2250738585072014e-308,2.2250738585072014e-308]},{"bufferView":5,"byteOffset":0,"componentType":5125,"count":1932,"type":"SCALAR","max":[397],"min":[0]}],"buffers":[{"byteLength":154484,"uri":"tile_0101.bin"}],"bufferViews":[{"buffer":0,"byteOffset":0,"byteLength":45132,"target":34962},{"buffer":0,"byteOffset":45132,"byteLength":30088,"target":34962},{"buffer":0,"byteOffset":75220,"byteLength":63576,"target":34963},{"buffer":0,"byteOffset":138796,"byteLength":4776,"target":34962},{"buffer":0,"byteOffset":143572,"byteLength":3184,"target":34962},{"buffer":0,"byteOffset":146756,"byteLength":7728,"target":34963}],"images":[{"uri":"../textures/tile_0101_material_0.jpg"},{"uri":"../textures/tile_0101_material_1.jpg"}],"materials":[{"name":"DefaultMaterial","pbrMetallicRoughness":{"baseColorFactor":[0.6000000238418579,0.6000000238418579,0.6000000238418579,1.0],"metallicFactor":0.0},"extensions":{"KHR_materials_specular":{"specularFactor":1.0,"specularColorFactor":[0.0,0.0,0.0]},"KHR_materials_ior":{"ior":1.0}}},{"name":"material_0_material","pbrMetallicRoughness":{"baseColorTexture":{"index":0},"metallicFactor":0.0},"extensions":{"KHR_materials_specular":{"specularFactor":1.0,"specularColorFactor":[0.0,0.0,0.0]},"KHR_materials_ior":{"ior":1.0}}},{"name":"material_1_material","pbrMetallicRoughness":{"baseColorTexture":{"index":1},"metallicFactor":0.0},"extensions":{"KHR_materials_specular":{"specularFactor":1.0,"specularColorFactor":[0.0,0.0,0.0]},"KHR_materials_ior":{"ior":1.0}}}],"meshes":[{"name":"defaultobject","primitives":[{"mode":4,"material":1,"indices":2,"attributes":{"POSITION":0,"TEXCOORD_0":1}},{"mode":4,"material":2,"indices":5,"attributes":{"POSITION":3,"TEXCOORD_0":4}}]}],"nodes":[{"name":"tile_0101.obj","children":[1]},{"name":"defaultobject","mesh":0}],"samplers":[{},{}],"scenes":[{"nodes":[0]}],"textures":[{"source":0,"sampler":0},{"source":1,"sampler":1}],"scene":0}
