{"asset":{"version":"2.0","generator":"Open Asset Import Library (assimp v6.0.0)"},"extensionsUsed":["KHR_materials_specular","KHR_materials_volume","KHR_materials_ior","FB_ngon_encoding"],"accessors":[{"bufferView":0,"byteOffset":0,"componentType":5126,"count":3711,"type":"VEC3","max":[-3.9976370334625244,-0.523301362991333,4.056960582733154],"min":[-4.413913249969482,-0.7830145955085754,2.2250738585072014e-308]},{"bufferView":1,"byteOffset":0,"componentType":5126,"count":3711,"type":"VEC2","max":[0.9885463714599609,0.8041839599609375],"min":[2.2250738585072014e-308,2.2250738585072014e-308]},{"bufferView":2,"byteOffset":0,"componentType":5125,"count":16359,"type":"SCALAR","max":[3710],"min":[0]},{"bufferView":3,"byteOffset":0,"componentType":5126,"count":966,"type":"VEC3","max":[-4.213642597198486,-0.5301039814949036,3.9620561599731445],"min":[-4.414876461029053,-0.7818167209625244,2.2250738585072014e-308]},{"bufferView":4,"byteOffset":0,"componentType":5126,"count":966,"type":"VEC2","max":[0.8970184326171875,0.7832870483398438],"min":[2.2250738585072014e-308,2.2250738585072014e-308]},{"bufferView":5,"byteOffset":0,"componentType":5125,"count":4932,"type":"SCALAR","max":[965],"min":[0]}],"buffers":[{"byteLength":178704,"uri":"tile_0439.bin"}],"bufferViews":[{"buffer":0,"byteOffset":0,"byteLength":44532,"target":34962},{"buffer":0,"byteOffset":44532,"byteLength":29688,"target":34962},{"buffer":0,"byteOffset":74220,"byteLength":65436,"target":34963},{"buffer":0,"byteOffset":139656,"byteLength":11592,"target":34962},{"buffer":0,"byteOffset":151248,"byteLength":7728,"target":34962},{"buffer":0,"byteOffset":158976,"byteLength":19728,"target":34963}],"images":[{"uri":"../textures/tile_0439_material_0.jpg"},{"uri":"../textures/tile_0439_material_1.jpg"}],"materials":[{"name":"DefaultMaterial","pbrMetallicRoughness":{"baseColorFactor":[0.6000000238418579,0.6000000238418579,0.6000000238418579,1.0],"metallicFactor":0.0},"extensions":{"KHR_materials_specular":{"specularFactor":1.0,"specularColorFactor":[0.0,0.0,0.0]},"KHR_materials_ior":{"ior":1.0}}},{"name":"material_0_material","pbrMetallicRoughness":{"baseColorTexture":{"index":0},"metallicFactor":0.0},"extensions":{"KHR_materials_specular":{"specularFactor":1.0,"specularColorFactor":[0.0,0.0,0.0]},"KHR_materials_ior":{"ior":1.0}}},{"name":"material_1_material","pbrMetallicRoughness":{"baseColorTexture":{"index":1},"metallicFactor":0.0},"extensions":{"KHR_materials_specular":{"specularFactor":1.0,"specularColorFactor":[0.0,0.0,0.0]},"KHR_materials_ior":{"ior":1.0}}}],"meshes":[{"name":"defaultobject","primitives":[{"mode":4,"material":1,"indices":2,"attributes":{"POSITION":0,"TEXCOORD_0":1}},{"mode":4,"material":2,"indices":5,"attributes":{"POSITION":3,"TEXCOORD_0":4}}]}],"nodes":[{"name":"tile_0439.obj","children":[1]},{"name":"defaultobject","mesh":0}],"samplers":[{},{}],"scenes":[{"nodes":[0]}],"textures":[{"source":0,"sampler":0},{"source":1,"sampler":1}],"scene":0}
