{"asset":{"version":"2.0","generator":"Open Asset Import Library (assimp v6.0.0)"},"extensionsUsed":["KHR_materials_specular","KHR_materials_volume","KHR_materials_ior","FB_ngon_encoding"],"accessors":[{"bufferView":0,"byteOffset":0,"componentType":5126,"count":3364,"type":"VEC3","max":[-2.3346455097198486,-1.943759560585022,2.5129892826080322],"min":[-2.682249069213867,-2.1940765380859375,2.2250738585072014e-308]},{"bufferView":1,"byteOffset":0,"componentType":5126,"count":3364,"type":"VEC2","max":[0.9818329215049744,0.9233932495117188],"min":[2.2250738585072014e-308,2.2250738585072014e-308]},{"bufferView":2,"byteOffset":0,"componentType":5125,"count":17304,"type":"SCALAR","max":[3363],"min":[0]},{"bufferView":3,"byteOffset":0,"componentType":5126,"count":2603,"type":"VEC3","max":[-2.335703134536743,-1.9443362951278687,2.546884059906006],"min":[-2.686596393585205,-2.193695068359375,2.2250738585072014e-308]},{"bufferView":4,"byteOffset":0,"componentType":5126,"count":2603,"type":"VEC2","max":[0.6117696166038513,0.5253391265869141],"min":[2.2250738585072014e-308,2.2250738585072014e-308]},{"bufferView":5,"byteOffset":0,"componentType":5125,"count":13572,"type":"SCALAR","max":[2602],"min":[0]}],"buffers":[{"byteLength":242844,"uri":"tile_0374.bin"}],"bufferViews":[{"buffer":0,"byteOffset":0,"byteLength":40368,"target":34962},{"buffer":0,"byteOffset":40368,"byteLength":26912,"target":34962},{"buffer":0,"byteOffset":67280,"byteLength":69216,"target":34963},{"buffer":0,"byteOffset":136496,"byteLength":31236,"target":34962},{"buffer":0,"byteOffset":167732,"byteLength":20824,"target":34962},{"buffer":0,"byteOffset":188556,"byteLength":54288,"target":34963}],"images":[{"uri":"../textures/tile_0374_material_0.jpg"},{"uri":"../textures/tile_0374_material_1.jpg"}],"materials":[{"name":"DefaultMaterial","pbrMetallicRoughness":{"baseColorFactor":[0.6000000238418579,0.6000000238418579,0.6000000238418579,1.0],"metallicFactor":0.0},"extensions":{"KHR_materials_specular":{"specularFactor":1.0,"specularColorFactor":[0.0,0.0,0.0]},"KHR_materials_ior":{"ior":1.0}}},{"name":"material_0_material","pbrMetallicRoughness":{"baseColorTexture":{"index":0},"metallicFactor":0.0},"extensions":{"KHR_materials_specular":{"specularFactor":1.0,"specularColorFactor":[0.0,0.0,0.0]},"KHR_materials_ior":{"ior":1.0}}},{"name":"material_1_material","pbrMetallicRoughness":{"baseColorTexture":{"index":1},"metallicFactor":0.0},"extensions":{"KHR_materials_specular":{"specularFactor":1.0,"specularColorFactor":[0.0,0.0,0.0]},"KHR_materials_ior":{"ior":1.0}}}],"meshes":[{"name":"defaultobject","primitives":[{"mode":4,"material":1,"indices":2,"attributes":{"POSITION":0,"TEXCOORD_0":1}},{"mode":4,"material":2,"indices":5,"attributes":{"POSITION":3,"TEXCOORD_0":4}}]}],"nodes":[{"name":"tile_0374.obj","children":[1]},{"name":"defaultobject","mesh":0}],"samplers":[{},{}],"scenes":[{"nodes":[0]}],"textures":[{"source":0,"sampler":0},{"source":1,"sampler":1}],"scene":0}
