{"asset":{"version":"2.0","generator":"Open Asset Import Library (assimp v6.0.0)"},"extensionsUsed":["KHR_materials_specular","KHR_materials_volume","KHR_materials_ior","FB_ngon_encoding"],"accessors":[{"bufferView":0,"byteOffset":0,"componentType":5126,"count":6201,"type":"VEC3","max":[1.6571965217590332,-1.9373059272766113,2.937854766845703],"min":[2.2250738585072014e-308,-2.1769020557403564,2.2250738585072014e-308]},{"bufferView":1,"byteOffset":0,"componentType":5126,"count":6201,"type":"VEC2","max":[0.9892313480377197,0.6132240295410156],"min":[2.2250738585072014e-308,2.2250738585072014e-308]},{"bufferView":2,"byteOffset":0,"componentType":5125,"count":29100,"type":"SCALAR","max":[6200],"min":[0]},{"bufferView":3,"byteOffset":0,"componentType":5126,"count":543,"type":"VEC3","max":[1.6591262817382812,-1.9385709762573242,2.9326744079589844],"min":[2.2250738585072014e-308,-2.1761605739593506,2.2250738585072014e-308]},{"bufferView":4,"byteOffset":0,"componentType":5126,"count":543,"type":"VEC2","max":[0.6043853759765625,0.7241592407226562],"min":[2.2250738585072014e-308,2.2250738585072014e-308]},{"bufferView":5,"byteOffset":0,"componentType":5125,"count":2856,"type":"SCALAR","max":[542],"min":[0]}],"buffers":[{"byteLength":262704,"uri":"tile_0727.bin"}],"bufferViews":[{"buffer":0,"byteOffset":0,"byteLength":74412,"target":34962},{"buffer":0,"byteOffset":74412,"byteLength":49608,"target":34962},{"buffer":0,"byteOffset":124020,"byteLength":116400,"target":34963},{"buffer":0,"byteOffset":240420,"byteLength":6516,"target":34962},{"buffer":0,"byteOffset":246936,"byteLength":4344,"target":34962},{"buffer":0,"byteOffset":251280,"byteLength":11424,"target":34963}],"images":[{"uri":"../textures/tile_0727_material_0.jpg"},{"uri":"../textures/tile_0727_material_1.jpg"}],"materials":[{"name":"DefaultMaterial","pbrMetallicRoughness":{"baseColorFactor":[0.6000000238418579,0.6000000238418579,0.6000000238418579,1.0],"metallicFactor":0.0},"extensions":{"KHR_materials_specular":{"specularFactor":1.0,"specularColorFactor":[0.0,0.0,0.0]},"KHR_materials_ior":{"ior":1.0}}},{"name":"material_0_material","pbrMetallicRoughness":{"baseColorTexture":{"index":0},"metallicFactor":0.0},"extensions":{"KHR_materials_specular":{"specularFactor":1.0,"specularColorFactor":[0.0,0.0,0.0]},"KHR_materials_ior":{"ior":1.0}}},{"name":"material_1_material","pbrMetallicRoughness":{"baseColorTexture":{"index":1},"metallicFactor":0.0},"extensions":{"KHR_materials_specular":{"specularFactor":1.0,"specularColorFactor":[0.0,0.0,0.0]},"KHR_materials_ior":{"ior":1.0}}}],"meshes":[{"name":"defaultobject","primitives":[{"mode":4,"material":1,"indices":2,"attributes":{"POSITION":0,"TEXCOORD_0":1}},{"mode":4,"material":2,"indices":5,"attributes":{"POSITION":3,"TEXCOORD_0":4}}]}],"nodes":[{"name":"tile_0727.obj","children":[1]},{"name":"defaultobject","mesh":0}],"samplers":[{},{}],"scenes":[{"nodes":[0]}],"textures":[{"source":0,"sampler":0},{"source":1,"sampler":1}],"scene":0}
