{"asset":{"version":"2.0","generator":"Open Asset Import Library (assimp v6.0.0)"},"extensionsUsed":["KHR_materials_specular","KHR_materials_volume","KHR_materials_ior","FB_ngon_encoding"],"accessors":[{"bufferView":0,"byteOffset":0,"componentType":5126,"count":2252,"type":"VEC3","max":[0.4121367037296295,7.282143592834473,5.072994709014893],"min":[2.2250738585072014e-308,2.2250738585072014e-308,2.2250738585072014e-308]},{"bufferView":1,"byteOffset":0,"componentType":5126,"count":2252,"type":"VEC2","max":[0.9724273085594177,0.8827972412109375],"min":[2.2250738585072014e-308,2.2250738585072014e-308]},{"bufferView":2,"byteOffset":0,"componentType":5125,"count":10440,"type":"SCALAR","max":[2251],"min":[0]},{"bufferView":3,"byteOffset":0,"componentType":5126,"count":1717,"type":"VEC3","max":[0.4127485752105713,7.309575080871582,5.072994709014893],"min":[2.2250738585072014e-308,2.2250738585072014e-308,2.2250738585072014e-308]},{"bufferView":4,"byteOffset":0,"componentType":5126,"count":1717,"type":"VEC2","max":[0.7627544403076172,0.6226139068603516],"min":[2.2250738585072014e-308,2.2250738585072014e-308]},{"bufferView":5,"byteOffset":0,"componentType":5125,"count":9045,"type":"SCALAR","max":[1716],"min":[0]}],"buffers":[{"byteLength":157320,"uri":"tile_0694.bin"}],"bufferViews":[{"buffer":0,"byteOffset":0,"byteLength":27024,"target":34962},{"buffer":0,"byteOffset":27024,"byteLength":18016,"target":34962},{"buffer":0,"byteOffset":45040,"byteLength":41760,"target":34963},{"buffer":0,"byteOffset":86800,"byteLength":20604,"target":34962},{"buffer":0,"byteOffset":107404,"byteLength":13736,"target":34962},{"buffer":0,"byteOffset":121140,"byteLength":36180,"target":34963}],"images":[{"uri":"../textures/tile_0694_material_0.jpg"},{"uri":"../textures/tile_0694_material_1.jpg"}],"materials":[{"name":"DefaultMaterial","pbrMetallicRoughness":{"baseColorFactor":[0.6000000238418579,0.6000000238418579,0.6000000238418579,1.0],"metallicFactor":0.0},"extensions":{"KHR_materials_specular":{"specularFactor":1.0,"specularColorFactor":[0.0,0.0,0.0]},"KHR_materials_ior":{"ior":1.0}}},{"name":"material_0_material","pbrMetallicRoughness":{"baseColorTexture":{"index":0},"metallicFactor":0.0},"extensions":{"KHR_materials_specular":{"specularFactor":1.0,"specularColorFactor":[0.0,0.0,0.0]},"KHR_materials_ior":{"ior":1.0}}},{"name":"material_1_material","pbrMetallicRoughness":{"baseColorTexture":{"index":1},"metallicFactor":0.0},"extensions":{"KHR_materials_specular":{"specularFactor":1.0,"specularColorFactor":[0.0,0.0,0.0]},"KHR_materials_ior":{"ior":1.0}}}],"meshes":[{"name":"defaultobject","primitives":[{"mode":4,"material":1,"indices":2,"attributes":{"POSITION":0,"TEXCOORD_0":1}},{"mode":4,"material":2,"indices":5,"attributes":{"POSITION":3,"TEXCOORD_0":4}}]}],"nodes":[{"name":"tile_0694.obj","children":[1]},{"name":"defaultobject","mesh":0}],"samplers":[{},{}],"scenes":[{"nodes":[0]}],"textures":[{"source":0,"sampler":0},{"source":1,"sampler":1}],"scene":0}
