{"asset":{"version":"2.0","generator":"Open Asset Import Library (assimp v6.0.0)"},"extensionsUsed":["KHR_materials_specular","KHR_materials_volume","KHR_materials_ior","FB_ngon_encoding"],"accessors":[{"bufferView":0,"byteOffset":0,"componentType":5126,"count":7247,"type":"VEC3","max":[4.0474700927734375,-1.202209234237671,3.7638468742370605],"min":[2.2250738585072014e-308,-1.4522590637207031,2.2250738585072014e-308]},{"bufferView":1,"byteOffset":0,"componentType":5126,"count":7247,"type":"VEC2","max":[0.9886436462402344,0.6249923706054688],"min":[2.2250738585072014e-308,2.2250738585072014e-308]},{"bufferView":2,"byteOffset":0,"componentType":5125,"count":31836,"type":"SCALAR","max":[7246],"min":[0]},{"bufferView":3,"byteOffset":0,"componentType":5126,"count":186,"type":"VEC3","max":[3.9804770946502686,-1.3636797666549683,3.7556753158569336],"min":[2.2250738585072014e-308,-1.4522134065628052,2.2250738585072014e-308]},{"bufferView":4,"byteOffset":0,"componentType":5126,"count":186,"type":"VEC2","max":[0.7483139038085938,0.825347900390625],"min":[2.2250738585072014e-308,2.2250738585072014e-308]},{"bufferView":5,"byteOffset":0,"componentType":5125,"count":804,"type":"SCALAR","max":[185],"min":[0]}],"buffers":[{"byteLength":279220,"uri":"tile_0246.bin"}],"bufferViews":[{"buffer":0,"byteOffset":0,"byteLength":86964,"target":34962},{"buffer":0,"byteOffset":86964,"byteLength":57976,"target":34962},{"buffer":0,"byteOffset":144940,"byteLength":127344,"target":34963},{"buffer":0,"byteOffset":272284,"byteLength":2232,"target":34962},{"buffer":0,"byteOffset":274516,"byteLength":1488,"target":34962},{"buffer":0,"byteOffset":276004,"byteLength":3216,"target":34963}],"images":[{"uri":"../textures/tile_0246_material_0.jpg"},{"uri":"../textures/tile_0246_material_1.jpg"}],"materials":[{"name":"DefaultMaterial","pbrMetallicRoughness":{"baseColorFactor":[0.6000000238418579,0.6000000238418579,0.6000000238418579,1.0],"metallicFactor":0.0},"extensions":{"KHR_materials_specular":{"specularFactor":1.0,"specularColorFactor":[0.0,0.0,0.0]},"KHR_materials_ior":{"ior":1.0}}},{"name":"material_0_material","pbrMetallicRoughness":{"baseColorTexture":{"index":0},"metallicFactor":0.0},"extensions":{"KHR_materials_specular":{"specularFactor":1.0,"specularColorFactor":[0.0,0.0,0.0]},"KHR_materials_ior":{"ior":1.0}}},{"name":"material_1_material","pbrMetallicRoughness":{"baseColorTexture":{"index":1},"metallicFactor":0.0},"extensions":{"KHR_materials_specular":{"specularFactor":1.0,"specularColorFactor":[0.0,0.0,0.0]},"KHR_materials_ior":{"ior":1.0}}}],"meshes":[{"name":"defaultobject","primitives":[{"mode":4,"material":1,"indices":2,"attributes":{"POSITION":0,"TEXCOORD_0":1}},{"mode":4,"material":2,"indices":5,"attributes":{"POSITION":3,"TEXCOORD_0":4}}]}],"nodes":[{"name":"tile_0246.obj","children":[1]},{"name":"defaultobject","mesh":0}],"samplers":[{},{}],"scenes":[{"nodes":[0]}],"textures":[{"source":0,"sampler":0},{"source":1,"sampler":1}],"scene":0}
