{"asset":{"version":"2.0","generator":"Open Asset Import Library (assimp v6.0.0)"},"extensionsUsed":["KHR_materials_specular","KHR_materials_volume","KHR_materials_ior","FB_ngon_encoding"],"accessors":[{"bufferView":0,"byteOffset":0,"componentType":5126,"count":4795,"type":"VEC3","max":[-0.931364893913269,-2.7551188468933105,2.4101521968841553],"min":[-1.112695336341858,-3.15447735786438,2.2250738585072014e-308]},{"bufferView":1,"byteOffset":0,"componentType":5126,"count":4795,"type":"VEC2","max":[0.9944844245910645,0.49718284606933594],"min":[2.2250738585072014e-308,2.2250738585072014e-308]},{"bufferView":2,"byteOffset":0,"componentType":5125,"count":21399,"type":"SCALAR","max":[4794],"min":[0]},{"bufferView":3,"byteOffset":0,"componentType":5126,"count":578,"type":"VEC3","max":[-0.930319607257843,-2.9731969833374023,2.359743356704712],"min":[-1.0830416679382324,-3.1240599155426025,2.2250738585072014e-308]},{"bufferView":4,"byteOffset":0,"componentType":5126,"count":578,"type":"VEC2","max":[0.6258983612060547,0.9564476013183594],"min":[2.2250738585072014e-308,2.2250738585072014e-308]},{"bufferView":5,"byteOffset":0,"componentType":5125,"count":2772,"type":"SCALAR","max":[577],"min":[0]}],"buffers":[{"byteLength":204144,"uri":"tile_0047.bin"}],"bufferViews":[{"buffer":0,"byteOffset":0,"byteLength":57540,"target":34962},{"buffer":0,"byteOffset":57540,"byteLength":38360,"target":34962},{"buffer":0,"byteOffset":95900,"byteLength":85596,"target":34963},{"buffer":0,"byteOffset":181496,"byteLength":6936,"target":34962},{"buffer":0,"byteOffset":188432,"byteLength":4624,"target":34962},{"buffer":0,"byteOffset":193056,"byteLength":11088,"target":34963}],"images":[{"uri":"../textures/tile_0047_material_0.jpg"},{"uri":"../textures/tile_0047_material_1.jpg"}],"materials":[{"name":"DefaultMaterial","pbrMetallicRoughness":{"baseColorFactor":[0.6000000238418579,0.6000000238418579,0.6000000238418579,1.0],"metallicFactor":0.0},"extensions":{"KHR_materials_specular":{"specularFactor":1.0,"specularColorFactor":[0.0,0.0,0.0]},"KHR_materials_ior":{"ior":1.0}}},{"name":"material_0_material","pbrMetallicRoughness":{"baseColorTexture":{"index":0},"metallicFactor":0.0},"extensions":{"KHR_materials_specular":{"specularFactor":1.0,"specularColorFactor":[0.0,0.0,0.0]},"KHR_materials_ior":{"ior":1.0}}},{"name":"material_1_material","pbrMetallicRoughness":{"baseColorTexture":{"index":1},"metallicFactor":0.0},"extensions":{"KHR_materials_specular":{"specularFactor":1.0,"specularColorFactor":[0.0,0.0,0.0]},"KHR_materials_ior":{"ior":1.0}}}],"meshes":[{"name":"defaultobject","primitives":[{"mode":4,"material":1,"indices":2,"attributes":{"POSITION":0,"TEXCOORD_0":1}},{"mode":4,"material":2,"indices":5,"attributes":{"POSITION":3,"TEXCOORD_0":4}}]}],"nodes":[{"name":"tile_0047.obj","children":[1]},{"name":"defaultobject","mesh":0}],"samplers":[{},{}],"scenes":[{"nodes":[0]}],"textures":[{"source":0,"sampler":0},{"source":1,"sampler":1}],"scene":0}
