{"asset":{"version":"2.0","generator":"Open Asset Import Library (assimp v6.0.0)"},"extensionsUsed":["KHR_materials_specular","KHR_materials_volume","KHR_materials_ior","FB_ngon_encoding"],"accessors":[{"bufferView":0,"byteOffset":0,"componentType":5126,"count":5178,"type":"VEC3","max":[-4.98022985458374,1.026041865348816,4.343968868255615],"min":[-5.502785682678223,2.2250738585072014e-308,2.2250738585072014e-308]},{"bufferView":1,"byteOffset":0,"componentType":5126,"count":5178,"type":"VEC2","max":[0.986997127532959,0.6601524353027344],"min":[2.2250738585072014e-308,2.2250738585072014e-308]},{"bufferView":2,"byteOffset":0,"componentType":5125,"count":24360,"type":"SCALAR","max":[5177],"min":[0]},{"bufferView":3,"byteOffset":0,"componentType":5126,"count":917,"type":"VEC3","max":[-4.979418754577637,1.0214617252349854,4.304440498352051],"min":[-5.499923229217529,2.2250738585072014e-308,2.2250738585072014e-308]},{"bufferView":4,"byteOffset":0,"componentType":5126,"count":917,"type":"VEC2","max":[0.7093715667724609,0.8421554565429688],"min":[2.2250738585072014e-308,2.2250738585072014e-308]},{"bufferView":5,"byteOffset":0,"componentType":5125,"count":4563,"type":"SCALAR","max":[916],"min":[0]}],"buffers":[{"byteLength":237592,"uri":"tile_0130.bin"}],"bufferViews":[{"buffer":0,"byteOffset":0,"byteLength":62136,"target":34962},{"buffer":0,"byteOffset":62136,"byteLength":41424,"target":34962},{"buffer":0,"byteOffset":103560,"byteLength":97440,"target":34963},{"buffer":0,"byteOffset":201000,"byteLength":11004,"target":34962},{"buffer":0,"byteOffset":212004,"byteLength":7336,"target":34962},{"buffer":0,"byteOffset":219340,"byteLength":18252,"target":34963}],"images":[{"uri":"../textures/tile_0130_material_0.jpg"},{"uri":"../textures/tile_0130_material_1.jpg"}],"materials":[{"name":"DefaultMaterial","pbrMetallicRoughness":{"baseColorFactor":[0.6000000238418579,0.6000000238418579,0.6000000238418579,1.0],"metallicFactor":0.0},"extensions":{"KHR_materials_specular":{"specularFactor":1.0,"specularColorFactor":[0.0,0.0,0.0]},"KHR_materials_ior":{"ior":1.0}}},{"name":"material_0_material","pbrMetallicRoughness":{"baseColorTexture":{"index":0},"metallicFactor":0.0},"extensions":{"KHR_materials_specular":{"specularFactor":1.0,"specularColorFactor":[0.0,0.0,0.0]},"KHR_materials_ior":{"ior":1.0}}},{"name":"material_1_material","pbrMetallicRoughness":{"baseColorTexture":{"index":1},"metallicFactor":0.0},"extensions":{"KHR_materials_specular":{"specularFactor":1.0,"specularColorFactor":[0.0,0.0,0.0]},"KHR_materials_ior":{"ior":1.0}}}],"meshes":[{"name":"defaultobject","primitives":[{"mode":4,"material":1,"indices":2,"attributes":{"POSITION":0,"TEXCOORD_0":1}},{"mode":4,"material":2,"indices":5,"attributes":{"POSITION":3,"TEXCOORD_0":4}}]}],"nodes":[{"name":"tile_0130.obj","children":[1]},{"name":"defaultobject","mesh":0}],"samplers":[{},{}],"scenes":[{"nodes":[0]}],"textures":[{"source":0,"sampler":0},{"source":1,"sampler":1}],"scene":0}
