{"asset":{"version":"2.0","generator":"Open Asset Import Library (assimp v6.0.0)"},"extensionsUsed":["KHR_materials_specular","KHR_materials_volume","KHR_materials_ior","FB_ngon_encoding"],"accessors":[{"bufferView":0,"byteOffset":0,"componentType":5126,"count":3754,"type":"VEC3","max":[-0.11361264437437057,4.481373310089111,4.77182674407959],"min":[-0.4460635781288147,2.2250738585072014e-308,2.2250738585072014e-308]},{"bufferView":1,"byteOffset":0,"componentType":5126,"count":3754,"type":"VEC2","max":[0.9945564270019531,0.8317241668701172],"min":[2.2250738585072014e-308,2.2250738585072014e-308]},{"bufferView":2,"byteOffset":0,"componentType":5125,"count":16992,"type":"SCALAR","max":[3753],"min":[0]},{"bufferView":3,"byteOffset":0,"componentType":5126,"count":1206,"type":"VEC3","max":[-0.07659541070461273,4.4810919761657715,4.772189140319824],"min":[-0.43563899397850037,2.2250738585072014e-308,2.2250738585072014e-308]},{"bufferView":4,"byteOffset":0,"componentType":5126,"count":1206,"type":"VEC2","max":[0.8495082855224609,0.49089813232421875],"min":[2.2250738585072014e-308,2.2250738585072014e-308]},{"bufferView":5,"byteOffset":0,"componentType":5125,"count":5967,"type":"SCALAR","max":[1205],"min":[0]}],"buffers":[{"byteLength":191036,"uri":"tile_0510.bin"}],"bufferViews":[{"buffer":0,"byteOffset":0,"byteLength":45048,"target":34962},{"buffer":0,"byteOffset":45048,"byteLength":30032,"target":34962},{"buffer":0,"byteOffset":75080,"byteLength":67968,"target":34963},{"buffer":0,"byteOffset":143048,"byteLength":14472,"target":34962},{"buffer":0,"byteOffset":157520,"byteLength":9648,"target":34962},{"buffer":0,"byteOffset":167168,"byteLength":23868,"target":34963}],"images":[{"uri":"../textures/tile_0510_material_0.jpg"},{"uri":"../textures/tile_0510_material_1.jpg"}],"materials":[{"name":"DefaultMaterial","pbrMetallicRoughness":{"baseColorFactor":[0.6000000238418579,0.6000000238418579,0.6000000238418579,1.0],"metallicFactor":0.0},"extensions":{"KHR_materials_specular":{"specularFactor":1.0,"specularColorFactor":[0.0,0.0,0.0]},"KHR_materials_ior":{"ior":1.0}}},{"name":"material_0_material","pbrMetallicRoughness":{"baseColorTexture":{"index":0},"metallicFactor":0.0},"extensions":{"KHR_materials_specular":{"specularFactor":1.0,"specularColorFactor":[0.0,0.0,0.0]},"KHR_materials_ior":{"ior":1.0}}},{"name":"material_1_material","pbrMetallicRoughness":{"baseColorTexture":{"index":1},"metallicFactor":0.0},"extensions":{"KHR_materials_specular":{"specularFactor":1.0,"specularColorFactor":[0.0,0.0,0.0]},"KHR_materials_ior":{"ior":1.0}}}],"meshes":[{"name":"defaultobject","primitives":[{"mode":4,"material":1,"indices":2,"attributes":{"POSITION":0,"TEXCOORD_0":1}},{"mode":4,"material":2,"indices":5,"attributes":{"POSITION":3,"TEXCOORD_0":4}}]}],"nodes":[{"name":"tile_0510.obj","children":[1]},{"name":"defaultobject","mesh":0}],"samplers":[{},{}],"scenes":[{"nodes":[0]}],"textures":[{"source":0,"sampler":0},{"source":1,"sampler":1}],"scene":0}
