{"asset":{"version":"2.0","generator":"Open Asset Import Library (assimp v6.0.0)"},"extensionsUsed":["KHR_materials_specular","KHR_materials_volume","KHR_materials_ior","FB_ngon_encoding"],"accessors":[{"bufferView":0,"byteOffset":0,"componentType":5126,"count":1847,"type":"VEC3","max":[-1.8470429182052612,7.601655960083008,4.96557092666626],"min":[-2.182568311691284,2.2250738585072014e-308,2.2250738585072014e-308]},{"bufferView":1,"byteOffset":0,"componentType":5126,"count":1847,"type":"VEC2","max":[0.9883303642272949,0.8179740905761719],"min":[2.2250738585072014e-308,2.2250738585072014e-308]},{"bufferView":2,"byteOffset":0,"componentType":5125,"count":8880,"type":"SCALAR","max":[1846],"min":[0]},{"bufferView":3,"byteOffset":0,"componentType":5126,"count":2612,"type":"VEC3","max":[-1.827793836593628,7.601655960083008,4.944630146026611],"min":[-2.2308082580566406,2.2250738585072014e-308,2.2250738585072014e-308]},{"bufferView":4,"byteOffset":0,"componentType":5126,"count":2612,"type":"VEC2","max":[0.8582930564880371,0.8577795028686523],"min":[2.2250738585072014e-308,2.2250738585072014e-308]},{"bufferView":5,"byteOffset":0,"componentType":5125,"count":14193,"type":"SCALAR","max":[2611],"min":[0]}],"buffers":[{"byteLength":181472,"uri":"tile_0552.bin"}],"bufferViews":[{"buffer":0,"byteOffset":0,"byteLength":22164,"target":34962},{"buffer":0,"byteOffset":22164,"byteLength":14776,"target":34962},{"buffer":0,"byteOffset":36940,"byteLength":35520,"target":34963},{"buffer":0,"byteOffset":72460,"byteLength":31344,"target":34962},{"buffer":0,"byteOffset":103804,"byteLength":20896,"target":34962},{"buffer":0,"byteOffset":124700,"byteLength":56772,"target":34963}],"images":[{"uri":"../textures/tile_0552_material_0.jpg"},{"uri":"../textures/tile_0552_material_1.jpg"}],"materials":[{"name":"DefaultMaterial","pbrMetallicRoughness":{"baseColorFactor":[0.6000000238418579,0.6000000238418579,0.6000000238418579,1.0],"metallicFactor":0.0},"extensions":{"KHR_materials_specular":{"specularFactor":1.0,"specularColorFactor":[0.0,0.0,0.0]},"KHR_materials_ior":{"ior":1.0}}},{"name":"material_0_material","pbrMetallicRoughness":{"baseColorTexture":{"index":0},"metallicFactor":0.0},"extensions":{"KHR_materials_specular":{"specularFactor":1.0,"specularColorFactor":[0.0,0.0,0.0]},"KHR_materials_ior":{"ior":1.0}}},{"name":"material_1_material","pbrMetallicRoughness":{"baseColorTexture":{"index":1},"metallicFactor":0.0},"extensions":{"KHR_materials_specular":{"specularFactor":1.0,"specularColorFactor":[0.0,0.0,0.0]},"KHR_materials_ior":{"ior":1.0}}}],"meshes":[{"name":"defaultobject","primitives":[{"mode":4,"material":1,"indices":2,"attributes":{"POSITION":0,"TEXCOORD_0":1}},{"mode":4,"material":2,"indices":5,"attributes":{"POSITION":3,"TEXCOORD_0":4}}]}],"nodes":[{"name":"tile_0552.obj","children":[1]},{"name":"defaultobject","mesh":0}],"samplers":[{},{}],"scenes":[{"nodes":[0]}],"textures":[{"source":0,"sampler":0},{"source":1,"sampler":1}],"scene":0}
