{"asset":{"version":"2.0","generator":"Open Asset Import Library (assimp v6.0.0)"},"extensionsUsed":["KHR_materials_specular","KHR_materials_volume","KHR_materials_ior","FB_ngon_encoding"],"accessors":[{"bufferView":0,"byteOffset":0,"componentType":5126,"count":4296,"type":"VEC3","max":[-4.406771659851074,0.4163317382335663,4.12390661239624],"min":[-4.843265533447266,2.2250738585072014e-308,2.2250738585072014e-308]},{"bufferView":1,"byteOffset":0,"componentType":5126,"count":4296,"type":"VEC2","max":[0.9927597045898438,0.531097412109375],"min":[2.2250738585072014e-308,2.2250738585072014e-308]},{"bufferView":2,"byteOffset":0,"componentType":5125,"count":19386,"type":"SCALAR","max":[4295],"min":[0]},{"bufferView":3,"byteOffset":0,"componentType":5126,"count":28,"type":"VEC3","max":[-4.470445156097412,0.14842157065868378,3.973057508468628],"min":[-4.518161296844482,2.2250738585072014e-308,2.2250738585072014e-308]},{"bufferView":4,"byteOffset":0,"componentType":5126,"count":28,"type":"VEC2","max":[0.4987334907054901,0.8528443574905396],"min":[2.2250738585072014e-308,2.2250738585072014e-308]},{"bufferView":5,"byteOffset":0,"componentType":5125,"count":114,"type":"SCALAR","max":[27],"min":[0]}],"buffers":[{"byteLength":164480,"uri":"tile_0583.bin"}],"bufferViews":[{"buffer":0,"byteOffset":0,"byteLength":51552,"target":34962},{"buffer":0,"byteOffset":51552,"byteLength":34368,"target":34962},{"buffer":0,"byteOffset":85920,"byteLength":77544,"target":34963},{"buffer":0,"byteOffset":163464,"byteLength":336,"target":34962},{"buffer":0,"byteOffset":163800,"byteLength":224,"target":34962},{"buffer":0,"byteOffset":164024,"byteLength":456,"target":34963}],"images":[{"uri":"../textures/tile_0583_material_0.jpg"},{"uri":"../textures/tile_0583_material_1.jpg"}],"materials":[{"name":"DefaultMaterial","pbrMetallicRoughness":{"baseColorFactor":[0.6000000238418579,0.6000000238418579,0.6000000238418579,1.0],"metallicFactor":0.0},"extensions":{"KHR_materials_specular":{"specularFactor":1.0,"specularColorFactor":[0.0,0.0,0.0]},"KHR_materials_ior":{"ior":1.0}}},{"name":"material_0_material","pbrMetallicRoughness":{"baseColorTexture":{"index":0},"metallicFactor":0.0},"extensions":{"KHR_materials_specular":{"specularFactor":1.0,"specularColorFactor":[0.0,0.0,0.0]},"KHR_materials_ior":{"ior":1.0}}},{"name":"material_1_material","pbrMetallicRoughness":{"baseColorTexture":{"index":1},"metallicFactor":0.0},"extensions":{"KHR_materials_specular":{"specularFactor":1.0,"specularColorFactor":[0.0,0.0,0.0]},"KHR_materials_ior":{"ior":1.0}}}],"meshes":[{"name":"defaultobject","primitives":[{"mode":4,"material":1,"indices":2,"attributes":{"POSITION":0,"TEXCOORD_0":1}},{"mode":4,"material":2,"indices":5,"attributes":{"POSITION":3,"TEXCOORD_0":4}}]}],"nodes":[{"name":"tile_0583.obj","children":[1]},{"name":"defaultobject","mesh":0}],"samplers":[{},{}],"scenes":[{"nodes":[0]}],"textures":[{"source":0,"sampler":0},{"source":1,"sampler":1}],"scene":0}
