{"asset":{"version":"2.0","generator":"Open Asset Import Library (assimp v6.0.0)"},"extensionsUsed":["KHR_materials_specular","KHR_materials_volume","KHR_materials_ior","FB_ngon_encoding"],"accessors":[{"bufferView":0,"byteOffset":0,"componentType":5126,"count":2504,"type":"VEC3","max":[-1.3675806522369385,-4.717649936676025,2.1665194034576416],"min":[-1.529120683670044,-5.251249313354492,2.2250738585072014e-308]},{"bufferView":1,"byteOffset":0,"componentType":5126,"count":2504,"type":"VEC2","max":[0.9804339408874512,0.837188720703125],"min":[2.2250738585072014e-308,2.2250738585072014e-308]},{"bufferView":2,"byteOffset":0,"componentType":5125,"count":10914,"type":"SCALAR","max":[2503],"min":[0]},{"bufferView":3,"byteOffset":0,"componentType":5126,"count":3136,"type":"VEC3","max":[-1.3792299032211304,-4.733967304229736,2.0817883014678955],"min":[-1.516736388206482,-5.259676933288574,2.2250738585072014e-308]},{"bufferView":4,"byteOffset":0,"componentType":5126,"count":3136,"type":"VEC2","max":[0.6039624214172363,0.6617565155029297],"min":[2.2250738585072014e-308,2.2250738585072014e-308]},{"bufferView":5,"byteOffset":0,"componentType":5125,"count":15675,"type":"SCALAR","max":[3135],"min":[0]}],"buffers":[{"byteLength":219156,"uri":"tile_0298.bin"}],"bufferViews":[{"buffer":0,"byteOffset":0,"byteLength":30048,"target":34962},{"buffer":0,"byteOffset":30048,"byteLength":20032,"target":34962},{"buffer":0,"byteOffset":50080,"byteLength":43656,"target":34963},{"buffer":0,"byteOffset":93736,"byteLength":37632,"target":34962},{"buffer":0,"byteOffset":131368,"byteLength":25088,"target":34962},{"buffer":0,"byteOffset":156456,"byteLength":62700,"target":34963}],"images":[{"uri":"../textures/tile_0298_material_0.jpg"},{"uri":"../textures/tile_0298_material_1.jpg"}],"materials":[{"name":"DefaultMaterial","pbrMetallicRoughness":{"baseColorFactor":[0.6000000238418579,0.6000000238418579,0.6000000238418579,1.0],"metallicFactor":0.0},"extensions":{"KHR_materials_specular":{"specularFactor":1.0,"specularColorFactor":[0.0,0.0,0.0]},"KHR_materials_ior":{"ior":1.0}}},{"name":"material_0_material","pbrMetallicRoughness":{"baseColorTexture":{"index":0},"metallicFactor":0.0},"extensions":{"KHR_materials_specular":{"specularFactor":1.0,"specularColorFactor":[0.0,0.0,0.0]},"KHR_materials_ior":{"ior":1.0}}},{"name":"material_1_material","pbrMetallicRoughness":{"baseColorTexture":{"index":1},"metallicFactor":0.0},"extensions":{"KHR_materials_specular":{"specularFactor":1.0,"specularColorFactor":[0.0,0.0,0.0]},"KHR_materials_ior":{"ior":1.0}}}],"meshes":[{"name":"defaultobject","primitives":[{"mode":4,"material":1,"indices":2,"attributes":{"POSITION":0,"TEXCOORD_0":1}},{"mode":4,"material":2,"indices":5,"attributes":{"POSITION":3,"TEXCOORD_0":4}}]}],"nodes":[{"name":"tile_0298.obj","children":[1]},{"name":"defaultobject","mesh":0}],"samplers":[{},{}],"scenes":[{"nodes":[0]}],"textures":[{"source":0,"sampler":0},{"source":1,"sampler":1}],"scene":0}
