{"asset":{"version":"2.0","generator":"Open Asset Import Library (assimp v6.0.0)"},"extensionsUsed":["KHR_materials_specular","KHR_materials_volume","KHR_materials_ior","FB_ngon_encoding"],"accessors":[{"bufferView":0,"byteOffset":0,"componentType":5126,"count":2253,"type":"VEC3","max":[-1.2386009693145752,-5.244821548461914,2.4661481380462646],"min":[-1.400807499885559,-5.867435455322266,2.2250738585072014e-308]},{"bufferView":1,"byteOffset":0,"componentType":5126,"count":2253,"type":"VEC2","max":[0.9745011329650879,0.6619338989257812],"min":[2.2250738585072014e-308,2.2250738585072014e-308]},{"bufferView":2,"byteOffset":0,"componentType":5125,"count":10479,"type":"SCALAR","max":[2252],"min":[0]},{"bufferView":3,"byteOffset":0,"componentType":5126,"count":2206,"type":"VEC3","max":[-1.238249659538269,-5.249011039733887,2.457404613494873],"min":[-1.4193917512893677,-5.866948127746582,2.2250738585072014e-308]},{"bufferView":4,"byteOffset":0,"componentType":5126,"count":2206,"type":"VEC2","max":[0.7008066177368164,0.6163902282714844],"min":[2.2250738585072014e-308,2.2250738585072014e-308]},{"bufferView":5,"byteOffset":0,"componentType":5125,"count":10980,"type":"SCALAR","max":[2205],"min":[0]}],"buffers":[{"byteLength":175016,"uri":"tile_0307.bin"}],"bufferViews":[{"buffer":0,"byteOffset":0,"byteLength":27036,"target":34962},{"buffer":0,"byteOffset":27036,"byteLength":18024,"target":34962},{"buffer":0,"byteOffset":45060,"byteLength":41916,"target":34963},{"buffer":0,"byteOffset":86976,"byteLength":26472,"target":34962},{"buffer":0,"byteOffset":113448,"byteLength":17648,"target":34962},{"buffer":0,"byteOffset":131096,"byteLength":43920,"target":34963}],"images":[{"uri":"../textures/tile_0307_material_0.jpg"},{"uri":"../textures/tile_0307_material_1.jpg"}],"materials":[{"name":"DefaultMaterial","pbrMetallicRoughness":{"baseColorFactor":[0.6000000238418579,0.6000000238418579,0.6000000238418579,1.0],"metallicFactor":0.0},"extensions":{"KHR_materials_specular":{"specularFactor":1.0,"specularColorFactor":[0.0,0.0,0.0]},"KHR_materials_ior":{"ior":1.0}}},{"name":"material_0_material","pbrMetallicRoughness":{"baseColorTexture":{"index":0},"metallicFactor":0.0},"extensions":{"KHR_materials_specular":{"specularFactor":1.0,"specularColorFactor":[0.0,0.0,0.0]},"KHR_materials_ior":{"ior":1.0}}},{"name":"material_1_material","pbrMetallicRoughness":{"baseColorTexture":{"index":1},"metallicFactor":0.0},"extensions":{"KHR_materials_specular":{"specularFactor":1.0,"specularColorFactor":[0.0,0.0,0.0]},"KHR_materials_ior":{"ior":1.0}}}],"meshes":[{"name":"defaultobject","primitives":[{"mode":4,"material":1,"indices":2,"attributes":{"POSITION":0,"TEXCOORD_0":1}},{"mode":4,"material":2,"indices":5,"attributes":{"POSITION":3,"TEXCOORD_0":4}}]}],"nodes":[{"name":"tile_0307.obj","children":[1]},{"name":"defaultobject","mesh":0}],"samplers":[{},{}],"scenes":[{"nodes":[0]}],"textures":[{"source":0,"sampler":0},{"source":1,"sampler":1}],"scene":0}
