{"asset":{"version":"2.0","generator":"Open Asset Import Library (assimp v6.0.0)"},"extensionsUsed":["KHR_materials_specular","KHR_materials_volume","KHR_materials_ior","FB_ngon_encoding"],"accessors":[{"bufferView":0,"byteOffset":0,"componentType":5126,"count":3533,"type":"VEC3","max":[-0.7518689036369324,-3.967109203338623,2.4793779850006104],"min":[-0.9492267370223999,-4.434369087219238,2.2250738585072014e-308]},{"bufferView":1,"byteOffset":0,"componentType":5126,"count":3533,"type":"VEC2","max":[0.9868302345275879,0.96722412109375],"min":[2.2250738585072014e-308,2.2250738585072014e-308]},{"bufferView":2,"byteOffset":0,"componentType":5125,"count":16011,"type":"SCALAR","max":[3532],"min":[0]},{"bufferView":3,"byteOffset":0,"componentType":5126,"count":1926,"type":"VEC3","max":[-0.7512524127960205,-3.9693384170532227,2.4853007793426514],"min":[-0.9482409358024597,-4.43485164642334,2.2250738585072014e-308]},{"bufferView":4,"byteOffset":0,"componentType":5126,"count":1926,"type":"VEC2","max":[0.8086481094360352,0.8774604797363281],"min":[2.2250738585072014e-308,2.2250738585072014e-308]},{"bufferView":5,"byteOffset":0,"componentType":5125,"count":9897,"type":"SCALAR","max":[1925],"min":[0]}],"buffers":[{"byteLength":212812,"uri":"tile_0049.bin"}],"bufferViews":[{"buffer":0,"byteOffset":0,"byteLength":42396,"target":34962},{"buffer":0,"byteOffset":42396,"byteLength":28264,"target":34962},{"buffer":0,"byteOffset":70660,"byteLength":64044,"target":34963},{"buffer":0,"byteOffset":134704,"byteLength":23112,"target":34962},{"buffer":0,"byteOffset":157816,"byteLength":15408,"target":34962},{"buffer":0,"byteOffset":173224,"byteLength":39588,"target":34963}],"images":[{"uri":"../textures/tile_0049_material_0.jpg"},{"uri":"../textures/tile_0049_material_1.jpg"}],"materials":[{"name":"DefaultMaterial","pbrMetallicRoughness":{"baseColorFactor":[0.6000000238418579,0.6000000238418579,0.6000000238418579,1.0],"metallicFactor":0.0},"extensions":{"KHR_materials_specular":{"specularFactor":1.0,"specularColorFactor":[0.0,0.0,0.0]},"KHR_materials_ior":{"ior":1.0}}},{"name":"material_0_material","pbrMetallicRoughness":{"baseColorTexture":{"index":0},"metallicFactor":0.0},"extensions":{"KHR_materials_specular":{"specularFactor":1.0,"specularColorFactor":[0.0,0.0,0.0]},"KHR_materials_ior":{"ior":1.0}}},{"name":"material_1_material","pbrMetallicRoughness":{"baseColorTexture":{"index":1},"metallicFactor":0.0},"extensions":{"KHR_materials_specular":{"specularFactor":1.0,"specularColorFactor":[0.0,0.0,0.0]},"KHR_materials_ior":{"ior":1.0}}}],"meshes":[{"name":"defaultobject","primitives":[{"mode":4,"material":1,"indices":2,"attributes":{"POSITION":0,"TEXCOORD_0":1}},{"mode":4,"material":2,"indices":5,"attributes":{"POSITION":3,"TEXCOORD_0":4}}]}],"nodes":[{"name":"tile_0049.obj","children":[1]},{"name":"defaultobject","mesh":0}],"samplers":[{},{}],"scenes":[{"nodes":[0]}],"textures":[{"source":0,"sampler":0},{"source":1,"sampler":1}],"scene":0}
