{"asset":{"version":"2.0","generator":"Open Asset Import Library (assimp v6.0.0)"},"extensionsUsed":["KHR_materials_specular","KHR_materials_volume","KHR_materials_ior","FB_ngon_encoding"],"accessors":[{"bufferView":0,"byteOffset":0,"componentType":5126,"count":369,"type":"VEC3","max":[-4.205643177032471,-2.3671395778656006,3.1208512783050537],"min":[-4.830082416534424,-2.7311253547668457,2.2250738585072014e-308]},{"bufferView":1,"byteOffset":0,"componentType":5126,"count":369,"type":"VEC2","max":[0.54296875,0.493438720703125],"min":[2.2250738585072014e-308,2.2250738585072014e-308]},{"bufferView":2,"byteOffset":0,"componentType":5125,"count":1410,"type":"SCALAR","max":[368],"min":[0]},{"bufferView":3,"byteOffset":0,"componentType":5126,"count":3076,"type":"VEC3","max":[-4.204039096832275,-2.3691022396087646,3.1306710243225098],"min":[-4.822127819061279,-2.778364419937134,2.2250738585072014e-308]},{"bufferView":4,"byteOffset":0,"componentType":5126,"count":3076,"type":"VEC2","max":[0.5910930633544922,0.5762453079223633],"min":[2.2250738585072014e-308,2.2250738585072014e-308]},{"bufferView":5,"byteOffset":0,"componentType":5125,"count":17604,"type":"SCALAR","max":[3075],"min":[0]}],"buffers":[{"byteLength":144956,"uri":"tile_0426.bin"}],"bufferViews":[{"buffer":0,"byteOffset":0,"byteLength":4428,"target":34962},{"buffer":0,"byteOffset":4428,"byteLength":2952,"target":34962},{"buffer":0,"byteOffset":7380,"byteLength":5640,"target":34963},{"buffer":0,"byteOffset":13020,"byteLength":36912,"target":34962},{"buffer":0,"byteOffset":49932,"byteLength":24608,"target":34962},{"buffer":0,"byteOffset":74540,"byteLength":70416,"target":34963}],"images":[{"uri":"../textures/tile_0426_material_0.jpg"},{"uri":"../textures/tile_0426_material_1.jpg"}],"materials":[{"name":"DefaultMaterial","pbrMetallicRoughness":{"baseColorFactor":[0.6000000238418579,0.6000000238418579,0.6000000238418579,1.0],"metallicFactor":0.0},"extensions":{"KHR_materials_specular":{"specularFactor":1.0,"specularColorFactor":[0.0,0.0,0.0]},"KHR_materials_ior":{"ior":1.0}}},{"name":"material_0_material","pbrMetallicRoughness":{"baseColorTexture":{"index":0},"metallicFactor":0.0},"extensions":{"KHR_materials_specular":{"specularFactor":1.0,"specularColorFactor":[0.0,0.0,0.0]},"KHR_materials_ior":{"ior":1.0}}},{"name":"material_1_material","pbrMetallicRoughness":{"baseColorTexture":{"index":1},"metallicFactor":0.0},"extensions":{"KHR_materials_specular":{"specularFactor":1.0,"specularColorFactor":[0.0,0.0,0.0]},"KHR_materials_ior":{"ior":1.0}}}],"meshes":[{"name":"defaultobject","primitives":[{"mode":4,"material":1,"indices":2,"attributes":{"POSITION":0,"TEXCOORD_0":1}},{"mode":4,"material":2,"indices":5,"attributes":{"POSITION":3,"TEXCOORD_0":4}}]}],"nodes":[{"name":"tile_0426.obj","children":[1]},{"name":"defaultobject","mesh":0}],"samplers":[{},{}],"scenes":[{"nodes":[0]}],"textures":[{"source":0,"sampler":0},{"source":1,"sampler":1}],"scene":0}
