{"asset":{"version":"2.0","generator":"Open Asset Import Library (assimp v6.0.0)"},"extensionsUsed":["KHR_materials_specular","KHR_materials_volume","KHR_materials_ior","FB_ngon_encoding"],"accessors":[{"bufferView":0,"byteOffset":0,"componentType":5126,"count":4943,"type":"VEC3","max":[-0.9306910634040833,-3.148402214050293,2.3201749324798584],"min":[-1.114046573638916,-3.55427885055542,2.2250738585072014e-308]},{"bufferView":1,"byteOffset":0,"componentType":5126,"count":4943,"type":"VEC2","max":[0.9899587631225586,0.5741500854492188],"min":[2.2250738585072014e-308,2.2250738585072014e-308]},{"bufferView":2,"byteOffset":0,"componentType":5125,"count":22086,"type":"SCALAR","max":[4942],"min":[0]},{"bufferView":3,"byteOffset":0,"componentType":5126,"count":429,"type":"VEC3","max":[-0.9309021234512329,-3.3519768714904785,2.3145499229431152],"min":[-1.0678378343582153,-3.552584171295166,2.2250738585072014e-308]},{"bufferView":4,"byteOffset":0,"componentType":5126,"count":429,"type":"VEC2","max":[0.6422672271728516,0.6472702026367188],"min":[2.2250738585072014e-308,2.2250738585072014e-308]},{"bufferView":5,"byteOffset":0,"componentType":5125,"count":2070,"type":"SCALAR","max":[428],"min":[0]}],"buffers":[{"byteLength":204064,"uri":"tile_0318.bin"}],"bufferViews":[{"buffer":0,"byteOffset":0,"byteLength":59316,"target":34962},{"buffer":0,"byteOffset":59316,"byteLength":39544,"target":34962},{"buffer":0,"byteOffset":98860,"byteLength":88344,"target":34963},{"buffer":0,"byteOffset":187204,"byteLength":5148,"target":34962},{"buffer":0,"byteOffset":192352,"byteLength":3432,"target":34962},{"buffer":0,"byteOffset":195784,"byteLength":8280,"target":34963}],"images":[{"uri":"../textures/tile_0318_material_0.jpg"},{"uri":"../textures/tile_0318_material_1.jpg"}],"materials":[{"name":"DefaultMaterial","pbrMetallicRoughness":{"baseColorFactor":[0.6000000238418579,0.6000000238418579,0.6000000238418579,1.0],"metallicFactor":0.0},"extensions":{"KHR_materials_specular":{"specularFactor":1.0,"specularColorFactor":[0.0,0.0,0.0]},"KHR_materials_ior":{"ior":1.0}}},{"name":"material_0_material","pbrMetallicRoughness":{"baseColorTexture":{"index":0},"metallicFactor":0.0},"extensions":{"KHR_materials_specular":{"specularFactor":1.0,"specularColorFactor":[0.0,0.0,0.0]},"KHR_materials_ior":{"ior":1.0}}},{"name":"material_1_material","pbrMetallicRoughness":{"baseColorTexture":{"index":1},"metallicFactor":0.0},"extensions":{"KHR_materials_specular":{"specularFactor":1.0,"specularColorFactor":[0.0,0.0,0.0]},"KHR_materials_ior":{"ior":1.0}}}],"meshes":[{"name":"defaultobject","primitives":[{"mode":4,"material":1,"indices":2,"attributes":{"POSITION":0,"TEXCOORD_0":1}},{"mode":4,"material":2,"indices":5,"attributes":{"POSITION":3,"TEXCOORD_0":4}}]}],"nodes":[{"name":"tile_0318.obj","children":[1]},{"name":"defaultobject","mesh":0}],"samplers":[{},{}],"scenes":[{"nodes":[0]}],"textures":[{"source":0,"sampler":0},{"source":1,"sampler":1}],"scene":0}
