{"asset":{"version":"2.0","generator":"Open Asset Import Library (assimp v6.0.0)"},"extensionsUsed":["KHR_materials_specular","KHR_materials_volume","KHR_materials_ior","FB_ngon_encoding"],"accessors":[{"bufferView":0,"byteOffset":0,"componentType":5126,"count":7472,"type":"VEC3","max":[-1.3636113405227661,-0.7757316827774048,2.4793570041656494],"min":[-1.773301362991333,-1.2854663133621216,2.2250738585072014e-308]},{"bufferView":1,"byteOffset":0,"componentType":5126,"count":7472,"type":"VEC2","max":[0.9879047870635986,0.8592567443847656],"min":[2.2250738585072014e-308,2.2250738585072014e-308]},{"bufferView":2,"byteOffset":0,"componentType":5125,"count":37026,"type":"SCALAR","max":[7471],"min":[0]},{"bufferView":3,"byteOffset":0,"componentType":5126,"count":5789,"type":"VEC3","max":[-1.3636113405227661,-0.7759676575660706,2.4773526191711426],"min":[-1.7739741802215576,-1.285386562347412,2.2250738585072014e-308]},{"bufferView":4,"byteOffset":0,"componentType":5126,"count":5789,"type":"VEC2","max":[0.9050846099853516,0.9505233764648438],"min":[2.2250738585072014e-308,2.2250738585072014e-308]},{"bufferView":5,"byteOffset":0,"componentType":5125,"count":31587,"type":"SCALAR","max":[5788],"min":[0]}],"buffers":[{"byteLength":539672,"uri":"tile_0011.bin"}],"bufferViews":[{"buffer":0,"byteOffset":0,"byteLength":89664,"target":34962},{"buffer":0,"byteOffset":89664,"byteLength":59776,"target":34962},{"buffer":0,"byteOffset":149440,"byteLength":148104,"target":34963},{"buffer":0,"byteOffset":297544,"byteLength":69468,"target":34962},{"buffer":0,"byteOffset":367012,"byteLength":46312,"target":34962},{"buffer":0,"byteOffset":413324,"byteLength":126348,"target":34963}],"images":[{"uri":"../textures/tile_0011_material_0.jpg"},{"uri":"../textures/tile_0011_material_1.jpg"}],"materials":[{"name":"DefaultMaterial","pbrMetallicRoughness":{"baseColorFactor":[0.6000000238418579,0.6000000238418579,0.6000000238418579,1.0],"metallicFactor":0.0},"extensions":{"KHR_materials_specular":{"specularFactor":1.0,"specularColorFactor":[0.0,0.0,0.0]},"KHR_materials_ior":{"ior":1.0}}},{"name":"material_0_material","pbrMetallicRoughness":{"baseColorTexture":{"index":0},"metallicFactor":0.0},"extensions":{"KHR_materials_specular":{"specularFactor":1.0,"specularColorFactor":[0.0,0.0,0.0]},"KHR_materials_ior":{"ior":1.0}}},{"name":"material_1_material","pbrMetallicRoughness":{"baseColorTexture":{"index":1},"metallicFactor":0.0},"extensions":{"KHR_materials_specular":{"specularFactor":1.0,"specularColorFactor":[0.0,0.0,0.0]},"KHR_materials_ior":{"ior":1.0}}}],"meshes":[{"name":"defaultobject","primitives":[{"mode":4,"material":1,"indices":2,"attributes":{"POSITION":0,"TEXCOORD_0":1}},{"mode":4,"material":2,"indices":5,"attributes":{"POSITION":3,"TEXCOORD_0":4}}]}],"nodes":[{"name":"tile_0011.obj","children":[1]},{"name":"defaultobject","mesh":0}],"samplers":[{},{}],"scenes":[{"nodes":[0]}],"textures":[{"source":0,"sampler":0},{"source":1,"sampler":1}],"scene":0}
