{"asset":{"version":"2.0","generator":"Open Asset Import Library (assimp v6.0.0)"},"extensionsUsed":["KHR_materials_specular","KHR_materials_volume","KHR_materials_ior","FB_ngon_encoding"],"accessors":[{"bufferView":0,"byteOffset":0,"componentType":5126,"count":5160,"type":"VEC3","max":[2.1848537921905518,1.4189724922180176,3.97198486328125],"min":[2.2250738585072014e-308,2.2250738585072014e-308,2.2250738585072014e-308]},{"bufferView":1,"byteOffset":0,"componentType":5126,"count":5160,"type":"VEC2","max":[0.9930254220962524,0.8403129577636719],"min":[2.2250738585072014e-308,2.2250738585072014e-308]},{"bufferView":2,"byteOffset":0,"componentType":5125,"count":23610,"type":"SCALAR","max":[5159],"min":[0]},{"bufferView":3,"byteOffset":0,"componentType":5126,"count":81,"type":"VEC3","max":[2.1843202114105225,1.3355565071105957,3.719538450241089],"min":[2.2250738585072014e-308,2.2250738585072014e-308,2.2250738585072014e-308]},{"bufferView":4,"byteOffset":0,"componentType":5126,"count":81,"type":"VEC2","max":[0.7626878023147583,0.5793228149414062],"min":[2.2250738585072014e-308,2.2250738585072014e-308]},{"bufferView":5,"byteOffset":0,"componentType":5125,"count":369,"type":"SCALAR","max":[80],"min":[0]}],"buffers":[{"byteLength":200736,"uri":"tile_0610.bin"}],"bufferViews":[{"buffer":0,"byteOffset":0,"byteLength":61920,"target":34962},{"buffer":0,"byteOffset":61920,"byteLength":41280,"target":34962},{"buffer":0,"byteOffset":103200,"byteLength":94440,"target":34963},{"buffer":0,"byteOffset":197640,"byteLength":972,"target":34962},{"buffer":0,"byteOffset":198612,"byteLength":648,"target":34962},{"buffer":0,"byteOffset":199260,"byteLength":1476,"target":34963}],"images":[{"uri":"../textures/tile_0610_material_0.jpg"},{"uri":"../textures/tile_0610_material_1.jpg"}],"materials":[{"name":"DefaultMaterial","pbrMetallicRoughness":{"baseColorFactor":[0.6000000238418579,0.6000000238418579,0.6000000238418579,1.0],"metallicFactor":0.0},"extensions":{"KHR_materials_specular":{"specularFactor":1.0,"specularColorFactor":[0.0,0.0,0.0]},"KHR_materials_ior":{"ior":1.0}}},{"name":"material_0_material","pbrMetallicRoughness":{"baseColorTexture":{"index":0},"metallicFactor":0.0},"extensions":{"KHR_materials_specular":{"specularFactor":1.0,"specularColorFactor":[0.0,0.0,0.0]},"KHR_materials_ior":{"ior":1.0}}},{"name":"material_1_material","pbrMetallicRoughness":{"baseColorTexture":{"index":1},"metallicFactor":0.0},"extensions":{"KHR_materials_specular":{"specularFactor":1.0,"specularColorFactor":[0.0,0.0,0.0]},"KHR_materials_ior":{"ior":1.0}}}],"meshes":[{"name":"defaultobject","primitives":[{"mode":4,"material":1,"indices":2,"attributes":{"POSITION":0,"TEXCOORD_0":1}},{"mode":4,"material":2,"indices":5,"attributes":{"POSITION":3,"TEXCOORD_0":4}}]}],"nodes":[{"name":"tile_0610.obj","children":[1]},{"name":"defaultobject","mesh":0}],"samplers":[{},{}],"scenes":[{"nodes":[0]}],"textures":[{"source":0,"sampler":0},{"source":1,"sampler":1}],"scene":0}
