{"asset":{"version":"2.0","generator":"Open Asset Import Library (assimp v6.0.0)"},"extensionsUsed":["KHR_materials_specular","KHR_materials_volume","KHR_materials_ior","FB_ngon_encoding"],"accessors":[{"bufferView":0,"byteOffset":0,"componentType":5126,"count":2400,"type":"VEC3","max":[0.7339485883712769,6.024887561798096,4.85543155670166],"min":[2.2250738585072014e-308,2.2250738585072014e-308,2.2250738585072014e-308]},{"bufferView":1,"byteOffset":0,"componentType":5126,"count":2400,"type":"VEC2","max":[0.9854288101196289,0.9636878967285156],"min":[2.2250738585072014e-308,2.2250738585072014e-308]},{"bufferView":2,"byteOffset":0,"componentType":5125,"count":10662,"type":"SCALAR","max":[2399],"min":[0]},{"bufferView":3,"byteOffset":0,"componentType":5126,"count":1702,"type":"VEC3","max":[0.7628535032272339,6.026291847229004,4.85072135925293],"min":[2.2250738585072014e-308,2.2250738585072014e-308,2.2250738585072014e-308]},{"bufferView":4,"byteOffset":0,"componentType":5126,"count":1702,"type":"VEC2","max":[0.8450253009796143,0.7237052917480469],"min":[2.2250738585072014e-308,2.2250738585072014e-308]},{"bufferView":5,"byteOffset":0,"componentType":5125,"count":8823,"type":"SCALAR","max":[1701],"min":[0]}],"buffers":[{"byteLength":159980,"uri":"tile_0659.bin"}],"bufferViews":[{"buffer":0,"byteOffset":0,"byteLength":28800,"target":34962},{"buffer":0,"byteOffset":28800,"byteLength":19200,"target":34962},{"buffer":0,"byteOffset":48000,"byteLength":42648,"target":34963},{"buffer":0,"byteOffset":90648,"byteLength":20424,"target":34962},{"buffer":0,"byteOffset":111072,"byteLength":13616,"target":34962},{"buffer":0,"byteOffset":124688,"byteLength":35292,"target":34963}],"images":[{"uri":"../textures/tile_0659_material_0.jpg"},{"uri":"../textures/tile_0659_material_1.jpg"}],"materials":[{"name":"DefaultMaterial","pbrMetallicRoughness":{"baseColorFactor":[0.6000000238418579,0.6000000238418579,0.6000000238418579,1.0],"metallicFactor":0.0},"extensions":{"KHR_materials_specular":{"specularFactor":1.0,"specularColorFactor":[0.0,0.0,0.0]},"KHR_materials_ior":{"ior":1.0}}},{"name":"material_0_material","pbrMetallicRoughness":{"baseColorTexture":{"index":0},"metallicFactor":0.0},"extensions":{"KHR_materials_specular":{"specularFactor":1.0,"specularColorFactor":[0.0,0.0,0.0]},"KHR_materials_ior":{"ior":1.0}}},{"name":"material_1_material","pbrMetallicRoughness":{"baseColorTexture":{"index":1},"metallicFactor":0.0},"extensions":{"KHR_materials_specular":{"specularFactor":1.0,"specularColorFactor":[0.0,0.0,0.0]},"KHR_materials_ior":{"ior":1.0}}}],"meshes":[{"name":"defaultobject","primitives":[{"mode":4,"material":1,"indices":2,"attributes":{"POSITION":0,"TEXCOORD_0":1}},{"mode":4,"material":2,"indices":5,"attributes":{"POSITION":3,"TEXCOORD_0":4}}]}],"nodes":[{"name":"tile_0659.obj","children":[1]},{"name":"defaultobject","mesh":0}],"samplers":[{},{}],"scenes":[{"nodes":[0]}],"textures":[{"source":0,"sampler":0},{"source":1,"sampler":1}],"scene":0}
