{"asset":{"version":"2.0","generator":"Open Asset Import Library (assimp v6.0.0)"},"extensionsUsed":["KHR_materials_specular","KHR_materials_volume","KHR_materials_ior","FB_ngon_encoding"],"accessors":[{"bufferView":0,"byteOffset":0,"componentType":5126,"count":4921,"type":"VEC3","max":[0.3748672306537628,-4.5002617835998535,2.8901939392089844],"min":[2.2250738585072014e-308,-4.973239421844482,2.2250738585072014e-308]},{"bufferView":1,"byteOffset":0,"componentType":5126,"count":4921,"type":"VEC2","max":[0.9916936159133911,0.70281982421875],"min":[2.2250738585072014e-308,2.2250738585072014e-308]},{"bufferView":2,"byteOffset":0,"componentType":5125,"count":21018,"type":"SCALAR","max":[4920],"min":[0]},{"bufferView":3,"byteOffset":0,"componentType":5126,"count":682,"type":"VEC3","max":[0.3076208829879761,-4.5182414054870605,2.7188165187835693],"min":[2.2250738585072014e-308,-4.856037616729736,2.2250738585072014e-308]},{"bufferView":4,"byteOffset":0,"componentType":5126,"count":682,"type":"VEC2","max":[0.7698345184326172,0.8758621215820312],"min":[2.2250738585072014e-308,2.2250738585072014e-308]},{"bufferView":5,"byteOffset":0,"componentType":5125,"count":3480,"type":"SCALAR","max":[681],"min":[0]}],"buffers":[{"byteLength":210052,"uri":"tile_0769.bin"}],"bufferViews":[{"buffer":0,"byteOffset":0,"byteLength":59052,"target":34962},{"buffer":0,"byteOffset":59052,"byteLength":39368,"target":34962},{"buffer":0,"byteOffset":98420,"byteLength":84072,"target":34963},{"buffer":0,"byteOffset":182492,"byteLength":8184,"target":34962},{"buffer":0,"byteOffset":190676,"byteLength":5456,"target":34962},{"buffer":0,"byteOffset":196132,"byteLength":13920,"target":34963}],"images":[{"uri":"../textures/tile_0769_material_0.jpg"},{"uri":"../textures/tile_0769_material_1.jpg"}],"materials":[{"name":"DefaultMaterial","pbrMetallicRoughness":{"baseColorFactor":[0.6000000238418579,0.6000000238418579,0.6000000238418579,1.0],"metallicFactor":0.0},"extensions":{"KHR_materials_specular":{"specularFactor":1.0,"specularColorFactor":[0.0,0.0,0.0]},"KHR_materials_ior":{"ior":1.0}}},{"name":"material_0_material","pbrMetallicRoughness":{"baseColorTexture":{"index":0},"metallicFactor":0.0},"extensions":{"KHR_materials_specular":{"specularFactor":1.0,"specularColorFactor":[0.0,0.0,0.0]},"KHR_materials_ior":{"ior":1.0}}},{"name":"material_1_material","pbrMetallicRoughness":{"baseColorTexture":{"index":1},"metallicFactor":0.0},"extensions":{"KHR_materials_specular":{"specularFactor":1.0,"specularColorFactor":[0.0,0.0,0.0]},"KHR_materials_ior":{"ior":1.0}}}],"meshes":[{"name":"defaultobject","primitives":[{"mode":4,"material":1,"indices":2,"attributes":{"POSITION":0,"TEXCOORD_0":1}},{"mode":4,"material":2,"indices":5,"attributes":{"POSITION":3,"TEXCOORD_0":4}}]}],"nodes":[{"name":"tile_0769.obj","children":[1]},{"name":"defaultobject","mesh":0}],"samplers":[{},{}],"scenes":[{"nodes":[0]}],"textures":[{"source":0,"sampler":0},{"source":1,"sampler":1}],"scene":0}
