{"asset":{"version":"2.0","generator":"Open Asset Import Library (assimp v6.0.0)"},"extensionsUsed":["KHR_materials_specular","KHR_materials_volume","KHR_materials_ior","FB_ngon_encoding"],"accessors":[{"bufferView":0,"byteOffset":0,"componentType":5126,"count":4332,"type":"VEC3","max":[-0.04880917817354202,-4.966403007507324,2.5969250202178955],"min":[-0.24972517788410187,-5.579298973083496,2.2250738585072014e-308]},{"bufferView":1,"byteOffset":0,"componentType":5126,"count":4332,"type":"VEC2","max":[0.9918643236160278,0.6093597412109375],"min":[2.2250738585072014e-308,2.2250738585072014e-308]},{"bufferView":2,"byteOffset":0,"componentType":5125,"count":19197,"type":"SCALAR","max":[4331],"min":[0]},{"bufferView":3,"byteOffset":0,"componentType":5126,"count":1924,"type":"VEC3","max":[-0.04905444756150246,-4.966673851013184,2.5959019660949707],"min":[-0.24952702224254608,-5.577899932861328,2.2250738585072014e-308]},{"bufferView":4,"byteOffset":0,"componentType":5126,"count":1924,"type":"VEC2","max":[0.5964171886444092,0.8238639831542969],"min":[2.2250738585072014e-308,2.2250738585072014e-308]},{"bufferView":5,"byteOffset":0,"componentType":5125,"count":9669,"type":"SCALAR","max":[1923],"min":[0]}],"buffers":[{"byteLength":240584,"uri":"tile_0287.bin"}],"bufferViews":[{"buffer":0,"byteOffset":0,"byteLength":51984,"target":34962},{"buffer":0,"byteOffset":51984,"byteLength":34656,"target":34962},{"buffer":0,"byteOffset":86640,"byteLength":76788,"target":34963},{"buffer":0,"byteOffset":163428,"byteLength":23088,"target":34962},{"buffer":0,"byteOffset":186516,"byteLength":15392,"target":34962},{"buffer":0,"byteOffset":201908,"byteLength":38676,"target":34963}],"images":[{"uri":"../textures/tile_0287_material_0.jpg"},{"uri":"../textures/tile_0287_material_1.jpg"}],"materials":[{"name":"DefaultMaterial","pbrMetallicRoughness":{"baseColorFactor":[0.6000000238418579,0.6000000238418579,0.6000000238418579,1.0],"metallicFactor":0.0},"extensions":{"KHR_materials_specular":{"specularFactor":1.0,"specularColorFactor":[0.0,0.0,0.0]},"KHR_materials_ior":{"ior":1.0}}},{"name":"material_0_material","pbrMetallicRoughness":{"baseColorTexture":{"index":0},"metallicFactor":0.0},"extensions":{"KHR_materials_specular":{"specularFactor":1.0,"specularColorFactor":[0.0,0.0,0.0]},"KHR_materials_ior":{"ior":1.0}}},{"name":"material_1_material","pbrMetallicRoughness":{"baseColorTexture":{"index":1},"metallicFactor":0.0},"extensions":{"KHR_materials_specular":{"specularFactor":1.0,"specularColorFactor":[0.0,0.0,0.0]},"KHR_materials_ior":{"ior":1.0}}}],"meshes":[{"name":"defaultobject","primitives":[{"mode":4,"material":1,"indices":2,"attributes":{"POSITION":0,"TEXCOORD_0":1}},{"mode":4,"material":2,"indices":5,"attributes":{"POSITION":3,"TEXCOORD_0":4}}]}],"nodes":[{"name":"tile_0287.obj","children":[1]},{"name":"defaultobject","mesh":0}],"samplers":[{},{}],"scenes":[{"nodes":[0]}],"textures":[{"source":0,"sampler":0},{"source":1,"sampler":1}],"scene":0}
