{"asset":{"version":"2.0","generator":"Open Asset Import Library (assimp v6.0.0)"},"extensionsUsed":["KHR_materials_specular","KHR_materials_volume","KHR_materials_ior","FB_ngon_encoding"],"accessors":[{"bufferView":0,"byteOffset":0,"componentType":5126,"count":2473,"type":"VEC3","max":[-3.4105823040008545,-3.2919836044311523,2.834031343460083],"min":[-4.339150905609131,-3.579463481903076,2.2250738585072014e-308]},{"bufferView":1,"byteOffset":0,"componentType":5126,"count":2473,"type":"VEC2","max":[0.9619140625,0.7601547241210938],"min":[2.2250738585072014e-308,2.2250738585072014e-308]},{"bufferView":2,"byteOffset":0,"componentType":5125,"count":12969,"type":"SCALAR","max":[2472],"min":[0]},{"bufferView":3,"byteOffset":0,"componentType":5126,"count":2594,"type":"VEC3","max":[-3.2904863357543945,-3.1637814044952393,2.834031343460083],"min":[-4.343255043029785,-3.604175329208374,2.2250738585072014e-308]},{"bufferView":4,"byteOffset":0,"componentType":5126,"count":2594,"type":"VEC2","max":[0.5546824336051941,0.8722953796386719],"min":[2.2250738585072014e-308,2.2250738585072014e-308]},{"bufferView":5,"byteOffset":0,"componentType":5125,"count":14445,"type":"SCALAR","max":[2593],"min":[0]}],"buffers":[{"byteLength":210996,"uri":"tile_0430.bin"}],"bufferViews":[{"buffer":0,"byteOffset":0,"byteLength":29676,"target":34962},{"buffer":0,"byteOffset":29676,"byteLength":19784,"target":34962},{"buffer":0,"byteOffset":49460,"byteLength":51876,"target":34963},{"buffer":0,"byteOffset":101336,"byteLength":31128,"target":34962},{"buffer":0,"byteOffset":132464,"byteLength":20752,"target":34962},{"buffer":0,"byteOffset":153216,"byteLength":57780,"target":34963}],"images":[{"uri":"../textures/tile_0430_material_0.jpg"},{"uri":"../textures/tile_0430_material_1.jpg"}],"materials":[{"name":"DefaultMaterial","pbrMetallicRoughness":{"baseColorFactor":[0.6000000238418579,0.6000000238418579,0.6000000238418579,1.0],"metallicFactor":0.0},"extensions":{"KHR_materials_specular":{"specularFactor":1.0,"specularColorFactor":[0.0,0.0,0.0]},"KHR_materials_ior":{"ior":1.0}}},{"name":"material_0_material","pbrMetallicRoughness":{"baseColorTexture":{"index":0},"metallicFactor":0.0},"extensions":{"KHR_materials_specular":{"specularFactor":1.0,"specularColorFactor":[0.0,0.0,0.0]},"KHR_materials_ior":{"ior":1.0}}},{"name":"material_1_material","pbrMetallicRoughness":{"baseColorTexture":{"index":1},"metallicFactor":0.0},"extensions":{"KHR_materials_specular":{"specularFactor":1.0,"specularColorFactor":[0.0,0.0,0.0]},"KHR_materials_ior":{"ior":1.0}}}],"meshes":[{"name":"defaultobject","primitives":[{"mode":4,"material":1,"indices":2,"attributes":{"POSITION":0,"TEXCOORD_0":1}},{"mode":4,"material":2,"indices":5,"attributes":{"POSITION":3,"TEXCOORD_0":4}}]}],"nodes":[{"name":"tile_0430.obj","children":[1]},{"name":"defaultobject","mesh":0}],"samplers":[{},{}],"scenes":[{"nodes":[0]}],"textures":[{"source":0,"sampler":0},{"source":1,"sampler":1}],"scene":0}
