{"asset":{"version":"2.0","generator":"Open Asset Import Library (assimp v6.0.0)"},"extensionsUsed":["KHR_materials_specular","KHR_materials_volume","KHR_materials_ior","FB_ngon_encoding"],"accessors":[{"bufferView":0,"byteOffset":0,"componentType":5126,"count":3116,"type":"VEC3","max":[-4.979467391967773,0.7254863977432251,4.177367687225342],"min":[-5.50391960144043,2.2250738585072014e-308,2.2250738585072014e-308]},{"bufferView":1,"byteOffset":0,"componentType":5126,"count":3116,"type":"VEC2","max":[0.989013671875,0.8824882507324219],"min":[2.2250738585072014e-308,2.2250738585072014e-308]},{"bufferView":2,"byteOffset":0,"componentType":5125,"count":13695,"type":"SCALAR","max":[3115],"min":[0]},{"bufferView":3,"byteOffset":0,"componentType":5126,"count":1891,"type":"VEC3","max":[-4.977919101715088,0.7250532507896423,4.119180679321289],"min":[-5.498496055603027,2.2250738585072014e-308,2.2250738585072014e-308]},{"bufferView":4,"byteOffset":0,"componentType":5126,"count":1891,"type":"VEC2","max":[0.5233752727508545,0.848602294921875],"min":[2.2250738585072014e-308,2.2250738585072014e-308]},{"bufferView":5,"byteOffset":0,"componentType":5125,"count":9711,"type":"SCALAR","max":[1890],"min":[0]}],"buffers":[{"byteLength":193764,"uri":"tile_0126.bin"}],"bufferViews":[{"buffer":0,"byteOffset":0,"byteLength":37392,"target":34962},{"buffer":0,"byteOffset":37392,"byteLength":24928,"target":34962},{"buffer":0,"byteOffset":62320,"byteLength":54780,"target":34963},{"buffer":0,"byteOffset":117100,"byteLength":22692,"target":34962},{"buffer":0,"byteOffset":139792,"byteLength":15128,"target":34962},{"buffer":0,"byteOffset":154920,"byteLength":38844,"target":34963}],"images":[{"uri":"../textures/tile_0126_material_0.jpg"},{"uri":"../textures/tile_0126_material_1.jpg"}],"materials":[{"name":"DefaultMaterial","pbrMetallicRoughness":{"baseColorFactor":[0.6000000238418579,0.6000000238418579,0.6000000238418579,1.0],"metallicFactor":0.0},"extensions":{"KHR_materials_specular":{"specularFactor":1.0,"specularColorFactor":[0.0,0.0,0.0]},"KHR_materials_ior":{"ior":1.0}}},{"name":"material_0_material","pbrMetallicRoughness":{"baseColorTexture":{"index":0},"metallicFactor":0.0},"extensions":{"KHR_materials_specular":{"specularFactor":1.0,"specularColorFactor":[0.0,0.0,0.0]},"KHR_materials_ior":{"ior":1.0}}},{"name":"material_1_material","pbrMetallicRoughness":{"baseColorTexture":{"index":1},"metallicFactor":0.0},"extensions":{"KHR_materials_specular":{"specularFactor":1.0,"specularColorFactor":[0.0,0.0,0.0]},"KHR_materials_ior":{"ior":1.0}}}],"meshes":[{"name":"defaultobject","primitives":[{"mode":4,"material":1,"indices":2,"attributes":{"POSITION":0,"TEXCOORD_0":1}},{"mode":4,"material":2,"indices":5,"attributes":{"POSITION":3,"TEXCOORD_0":4}}]}],"nodes":[{"name":"tile_0126.obj","children":[1]},{"name":"defaultobject","mesh":0}],"samplers":[{},{}],"scenes":[{"nodes":[0]}],"textures":[{"source":0,"sampler":0},{"source":1,"sampler":1}],"scene":0}
