{"asset":{"version":"2.0","generator":"Open Asset Import Library (assimp v6.0.0)"},"extensionsUsed":["KHR_materials_specular","KHR_materials_volume","KHR_materials_ior","FB_ngon_encoding"],"accessors":[{"bufferView":0,"byteOffset":0,"componentType":5126,"count":3976,"type":"VEC3","max":[0.315916508436203,-0.3172331154346466,3.530853271484375],"min":[-0.017372015863656998,-0.5685693621635437,2.2250738585072014e-308]},{"bufferView":1,"byteOffset":0,"componentType":5126,"count":3976,"type":"VEC2","max":[0.9748294353485107,0.5422401428222656],"min":[2.2250738585072014e-308,2.2250738585072014e-308]},{"bufferView":2,"byteOffset":0,"componentType":5125,"count":17961,"type":"SCALAR","max":[3975],"min":[0]},{"bufferView":3,"byteOffset":0,"componentType":5126,"count":987,"type":"VEC3","max":[0.2185981720685959,-0.318418949842453,3.327115297317505],"min":[-0.01838609389960766,-0.5677621960639954,2.2250738585072014e-308]},{"bufferView":4,"byteOffset":0,"componentType":5126,"count":987,"type":"VEC2","max":[0.7195920944213867,0.8361358642578125],"min":[2.2250738585072014e-308,2.2250738585072014e-308]},{"bufferView":5,"byteOffset":0,"componentType":5125,"count":4944,"type":"SCALAR","max":[986],"min":[0]}],"buffers":[{"byteLength":190880,"uri":"tile_0165.bin"}],"bufferViews":[{"buffer":0,"byteOffset":0,"byteLength":47712,"target":34962},{"buffer":0,"byteOffset":47712,"byteLength":31808,"target":34962},{"buffer":0,"byteOffset":79520,"byteLength":71844,"target":34963},{"buffer":0,"byteOffset":151364,"byteLength":11844,"target":34962},{"buffer":0,"byteOffset":163208,"byteLength":7896,"target":34962},{"buffer":0,"byteOffset":171104,"byteLength":19776,"target":34963}],"images":[{"uri":"../textures/tile_0165_material_0.jpg"},{"uri":"../textures/tile_0165_material_1.jpg"}],"materials":[{"name":"DefaultMaterial","pbrMetallicRoughness":{"baseColorFactor":[0.6000000238418579,0.6000000238418579,0.6000000238418579,1.0],"metallicFactor":0.0},"extensions":{"KHR_materials_specular":{"specularFactor":1.0,"specularColorFactor":[0.0,0.0,0.0]},"KHR_materials_ior":{"ior":1.0}}},{"name":"material_0_material","pbrMetallicRoughness":{"baseColorTexture":{"index":0},"metallicFactor":0.0},"extensions":{"KHR_materials_specular":{"specularFactor":1.0,"specularColorFactor":[0.0,0.0,0.0]},"KHR_materials_ior":{"ior":1.0}}},{"name":"material_1_material","pbrMetallicRoughness":{"baseColorTexture":{"index":1},"metallicFactor":0.0},"extensions":{"KHR_materials_specular":{"specularFactor":1.0,"specularColorFactor":[0.0,0.0,0.0]},"KHR_materials_ior":{"ior":1.0}}}],"meshes":[{"name":"defaultobject","primitives":[{"mode":4,"material":1,"indices":2,"attributes":{"POSITION":0,"TEXCOORD_0":1}},{"mode":4,"material":2,"indices":5,"attributes":{"POSITION":3,"TEXCOORD_0":4}}]}],"nodes":[{"name":"tile_0165.obj","children":[1]},{"name":"defaultobject","mesh":0}],"samplers":[{},{}],"scenes":[{"nodes":[0]}],"textures":[{"source":0,"sampler":0},{"source":1,"sampler":1}],"scene":0}
