{"asset":{"version":"2.0","generator":"Open Asset Import Library (assimp v6.0.0)"},"extensionsUsed":["KHR_materials_specular","KHR_materials_volume","KHR_materials_ior","FB_ngon_encoding"],"accessors":[{"bufferView":0,"byteOffset":0,"componentType":5126,"count":3402,"type":"VEC3","max":[-0.006987794768065214,-0.7762389779090881,3.176194429397583],"min":[-0.20898881554603577,-1.0023199319839478,2.2250738585072014e-308]},{"bufferView":1,"byteOffset":0,"componentType":5126,"count":3402,"type":"VEC2","max":[0.9942464828491211,0.8592491149902344],"min":[2.2250738585072014e-308,2.2250738585072014e-308]},{"bufferView":2,"byteOffset":0,"componentType":5125,"count":15468,"type":"SCALAR","max":[3401],"min":[0]},{"bufferView":3,"byteOffset":0,"componentType":5126,"count":1000,"type":"VEC3","max":[-0.007798009552061558,-0.7760999798774719,3.1936559677124023],"min":[-0.208567813038826,-0.9642286896705627,2.2250738585072014e-308]},{"bufferView":4,"byteOffset":0,"componentType":5126,"count":1000,"type":"VEC2","max":[0.8463726043701172,0.5270576477050781],"min":[2.2250738585072014e-308,2.2250738585072014e-308]},{"bufferView":5,"byteOffset":0,"componentType":5125,"count":5076,"type":"SCALAR","max":[999],"min":[0]}],"buffers":[{"byteLength":170216,"uri":"tile_0473.bin"}],"bufferViews":[{"buffer":0,"byteOffset":0,"byteLength":40824,"target":34962},{"buffer":0,"byteOffset":40824,"byteLength":27216,"target":34962},{"buffer":0,"byteOffset":68040,"byteLength":61872,"target":34963},{"buffer":0,"byteOffset":129912,"byteLength":12000,"target":34962},{"buffer":0,"byteOffset":141912,"byteLength":8000,"target":34962},{"buffer":0,"byteOffset":149912,"byteLength":20304,"target":34963}],"images":[{"uri":"../textures/tile_0473_material_0.jpg"},{"uri":"../textures/tile_0473_material_1.jpg"}],"materials":[{"name":"DefaultMaterial","pbrMetallicRoughness":{"baseColorFactor":[0.6000000238418579,0.6000000238418579,0.6000000238418579,1.0],"metallicFactor":0.0},"extensions":{"KHR_materials_specular":{"specularFactor":1.0,"specularColorFactor":[0.0,0.0,0.0]},"KHR_materials_ior":{"ior":1.0}}},{"name":"material_0_material","pbrMetallicRoughness":{"baseColorTexture":{"index":0},"metallicFactor":0.0},"extensions":{"KHR_materials_specular":{"specularFactor":1.0,"specularColorFactor":[0.0,0.0,0.0]},"KHR_materials_ior":{"ior":1.0}}},{"name":"material_1_material","pbrMetallicRoughness":{"baseColorTexture":{"index":1},"metallicFactor":0.0},"extensions":{"KHR_materials_specular":{"specularFactor":1.0,"specularColorFactor":[0.0,0.0,0.0]},"KHR_materials_ior":{"ior":1.0}}}],"meshes":[{"name":"defaultobject","primitives":[{"mode":4,"material":1,"indices":2,"attributes":{"POSITION":0,"TEXCOORD_0":1}},{"mode":4,"material":2,"indices":5,"attributes":{"POSITION":3,"TEXCOORD_0":4}}]}],"nodes":[{"name":"tile_0473.obj","children":[1]},{"name":"defaultobject","mesh":0}],"samplers":[{},{}],"scenes":[{"nodes":[0]}],"textures":[{"source":0,"sampler":0},{"source":1,"sampler":1}],"scene":0}
