{"asset":{"version":"2.0","generator":"Open Asset Import Library (assimp v6.0.0)"},"extensionsUsed":["KHR_materials_specular","KHR_materials_volume","KHR_materials_ior","FB_ngon_encoding"],"accessors":[{"bufferView":0,"byteOffset":0,"componentType":5126,"count":8448,"type":"VEC3","max":[2.8898918628692627,2.6145787239074707,4.076593399047852],"min":[2.2250738585072014e-308,2.2250738585072014e-308,2.2250738585072014e-308]},{"bufferView":1,"byteOffset":0,"componentType":5126,"count":8448,"type":"VEC2","max":[0.9899570941925049,0.7031021118164062],"min":[2.2250738585072014e-308,2.2250738585072014e-308]},{"bufferView":2,"byteOffset":0,"componentType":5125,"count":39339,"type":"SCALAR","max":[8447],"min":[0]},{"bufferView":3,"byteOffset":0,"componentType":5126,"count":5232,"type":"VEC3","max":[2.888993501663208,2.6146080493927,4.05674934387207],"min":[2.2250738585072014e-308,2.2250738585072014e-308,2.2250738585072014e-308]},{"bufferView":4,"byteOffset":0,"componentType":5126,"count":5232,"type":"VEC2","max":[0.877962589263916,0.5935821533203125],"min":[2.2250738585072014e-308,2.2250738585072014e-308]},{"bufferView":5,"byteOffset":0,"componentType":5125,"count":27495,"type":"SCALAR","max":[5231],"min":[0]}],"buffers":[{"byteLength":540936,"uri":"tile_0188.bin"}],"bufferViews":[{"buffer":0,"byteOffset":0,"byteLength":101376,"target":34962},{"buffer":0,"byteOffset":101376,"byteLength":67584,"target":34962},{"buffer":0,"byteOffset":168960,"byteLength":157356,"target":34963},{"buffer":0,"byteOffset":326316,"byteLength":62784,"target":34962},{"buffer":0,"byteOffset":389100,"byteLength":41856,"target":34962},{"buffer":0,"byteOffset":430956,"byteLength":109980,"target":34963}],"images":[{"uri":"../textures/tile_0188_material_0.jpg"},{"uri":"../textures/tile_0188_material_1.jpg"}],"materials":[{"name":"DefaultMaterial","pbrMetallicRoughness":{"baseColorFactor":[0.6000000238418579,0.6000000238418579,0.6000000238418579,1.0],"metallicFactor":0.0},"extensions":{"KHR_materials_specular":{"specularFactor":1.0,"specularColorFactor":[0.0,0.0,0.0]},"KHR_materials_ior":{"ior":1.0}}},{"name":"material_0_material","pbrMetallicRoughness":{"baseColorTexture":{"index":0},"metallicFactor":0.0},"extensions":{"KHR_materials_specular":{"specularFactor":1.0,"specularColorFactor":[0.0,0.0,0.0]},"KHR_materials_ior":{"ior":1.0}}},{"name":"material_1_material","pbrMetallicRoughness":{"baseColorTexture":{"index":1},"metallicFactor":0.0},"extensions":{"KHR_materials_specular":{"specularFactor":1.0,"specularColorFactor":[0.0,0.0,0.0]},"KHR_materials_ior":{"ior":1.0}}}],"meshes":[{"name":"defaultobject","primitives":[{"mode":4,"material":1,"indices":2,"attributes":{"POSITION":0,"TEXCOORD_0":1}},{"mode":4,"material":2,"indices":5,"attributes":{"POSITION":3,"TEXCOORD_0":4}}]}],"nodes":[{"name":"tile_0188.obj","children":[1]},{"name":"defaultobject","mesh":0}],"samplers":[{},{}],"scenes":[{"nodes":[0]}],"textures":[{"source":0,"sampler":0},{"source":1,"sampler":1}],"scene":0}
