{"asset":{"version":"2.0","generator":"Open Asset Import Library (assimp v6.0.0)"},"extensionsUsed":["KHR_materials_specular","KHR_materials_volume","KHR_materials_ior","FB_ngon_encoding"],"accessors":[{"bufferView":0,"byteOffset":0,"componentType":5126,"count":4536,"type":"VEC3","max":[1.6136714220046997,-3.972395420074463,3.059541940689087],"min":[2.2250738585072014e-308,-4.331396579742432,2.2250738585072014e-308]},{"bufferView":1,"byteOffset":0,"componentType":5126,"count":4536,"type":"VEC2","max":[0.9863824844360352,0.5068283081054688],"min":[2.2250738585072014e-308,2.2250738585072014e-308]},{"bufferView":2,"byteOffset":0,"componentType":5125,"count":20373,"type":"SCALAR","max":[4535],"min":[0]},{"bufferView":3,"byteOffset":0,"componentType":5126,"count":51,"type":"VEC3","max":[1.6046019792556763,-3.984964609146118,3.0173592567443848],"min":[2.2250738585072014e-308,-4.06072998046875,2.2250738585072014e-308]},{"bufferView":4,"byteOffset":0,"componentType":5126,"count":51,"type":"VEC2","max":[0.5339546203613281,0.617919921875],"min":[2.2250738585072014e-308,2.2250738585072014e-308]},{"bufferView":5,"byteOffset":0,"componentType":5125,"count":204,"type":"SCALAR","max":[50],"min":[0]}],"buffers":[{"byteLength":174048,"uri":"tile_0764.bin"}],"bufferViews":[{"buffer":0,"byteOffset":0,"byteLength":54432,"target":34962},{"buffer":0,"byteOffset":54432,"byteLength":36288,"target":34962},{"buffer":0,"byteOffset":90720,"byteLength":81492,"target":34963},{"buffer":0,"byteOffset":172212,"byteLength":612,"target":34962},{"buffer":0,"byteOffset":172824,"byteLength":408,"target":34962},{"buffer":0,"byteOffset":173232,"byteLength":816,"target":34963}],"images":[{"uri":"../textures/tile_0764_material_0.jpg"},{"uri":"../textures/tile_0764_material_1.jpg"}],"materials":[{"name":"DefaultMaterial","pbrMetallicRoughness":{"baseColorFactor":[0.6000000238418579,0.6000000238418579,0.6000000238418579,1.0],"metallicFactor":0.0},"extensions":{"KHR_materials_specular":{"specularFactor":1.0,"specularColorFactor":[0.0,0.0,0.0]},"KHR_materials_ior":{"ior":1.0}}},{"name":"material_0_material","pbrMetallicRoughness":{"baseColorTexture":{"index":0},"metallicFactor":0.0},"extensions":{"KHR_materials_specular":{"specularFactor":1.0,"specularColorFactor":[0.0,0.0,0.0]},"KHR_materials_ior":{"ior":1.0}}},{"name":"material_1_material","pbrMetallicRoughness":{"baseColorTexture":{"index":1},"metallicFactor":0.0},"extensions":{"KHR_materials_specular":{"specularFactor":1.0,"specularColorFactor":[0.0,0.0,0.0]},"KHR_materials_ior":{"ior":1.0}}}],"meshes":[{"name":"defaultobject","primitives":[{"mode":4,"material":1,"indices":2,"attributes":{"POSITION":0,"TEXCOORD_0":1}},{"mode":4,"material":2,"indices":5,"attributes":{"POSITION":3,"TEXCOORD_0":4}}]}],"nodes":[{"name":"tile_0764.obj","children":[1]},{"name":"defaultobject","mesh":0}],"samplers":[{},{}],"scenes":[{"nodes":[0]}],"textures":[{"source":0,"sampler":0},{"source":1,"sampler":1}],"scene":0}
