{"asset":{"version":"2.0","generator":"Open Asset Import Library (assimp v6.0.0)"},"extensionsUsed":["KHR_materials_specular","KHR_materials_volume","KHR_materials_ior","FB_ngon_encoding"],"accessors":[{"bufferView":0,"byteOffset":0,"componentType":5126,"count":4444,"type":"VEC3","max":[-3.901883840560913,1.6244672536849976,4.232792377471924],"min":[-4.417464733123779,2.2250738585072014e-308,2.2250738585072014e-308]},{"bufferView":1,"byteOffset":0,"componentType":5126,"count":4444,"type":"VEC2","max":[0.9939193725585938,0.5662078857421875],"min":[2.2250738585072014e-308,2.2250738585072014e-308]},{"bufferView":2,"byteOffset":0,"componentType":5125,"count":20340,"type":"SCALAR","max":[4443],"min":[0]},{"bufferView":3,"byteOffset":0,"componentType":5126,"count":364,"type":"VEC3","max":[-3.903477907180786,1.4297363758087158,4.102627277374268],"min":[-4.178372383117676,2.2250738585072014e-308,2.2250738585072014e-308]},{"bufferView":4,"byteOffset":0,"componentType":5126,"count":364,"type":"VEC2","max":[0.739837646484375,0.7747955322265625],"min":[2.2250738585072014e-308,2.2250738585072014e-308]},{"bufferView":5,"byteOffset":0,"componentType":5125,"count":1773,"type":"SCALAR","max":[363],"min":[0]}],"buffers":[{"byteLength":184612,"uri":"tile_0572.bin"}],"bufferViews":[{"buffer":0,"byteOffset":0,"byteLength":53328,"target":34962},{"buffer":0,"byteOffset":53328,"byteLength":35552,"target":34962},{"buffer":0,"byteOffset":88880,"byteLength":81360,"target":34963},{"buffer":0,"byteOffset":170240,"byteLength":4368,"target":34962},{"buffer":0,"byteOffset":174608,"byteLength":2912,"target":34962},{"buffer":0,"byteOffset":177520,"byteLength":7092,"target":34963}],"images":[{"uri":"../textures/tile_0572_material_0.jpg"},{"uri":"../textures/tile_0572_material_1.jpg"}],"materials":[{"name":"DefaultMaterial","pbrMetallicRoughness":{"baseColorFactor":[0.6000000238418579,0.6000000238418579,0.6000000238418579,1.0],"metallicFactor":0.0},"extensions":{"KHR_materials_specular":{"specularFactor":1.0,"specularColorFactor":[0.0,0.0,0.0]},"KHR_materials_ior":{"ior":1.0}}},{"name":"material_0_material","pbrMetallicRoughness":{"baseColorTexture":{"index":0},"metallicFactor":0.0},"extensions":{"KHR_materials_specular":{"specularFactor":1.0,"specularColorFactor":[0.0,0.0,0.0]},"KHR_materials_ior":{"ior":1.0}}},{"name":"material_1_material","pbrMetallicRoughness":{"baseColorTexture":{"index":1},"metallicFactor":0.0},"extensions":{"KHR_materials_specular":{"specularFactor":1.0,"specularColorFactor":[0.0,0.0,0.0]},"KHR_materials_ior":{"ior":1.0}}}],"meshes":[{"name":"defaultobject","primitives":[{"mode":4,"material":1,"indices":2,"attributes":{"POSITION":0,"TEXCOORD_0":1}},{"mode":4,"material":2,"indices":5,"attributes":{"POSITION":3,"TEXCOORD_0":4}}]}],"nodes":[{"name":"tile_0572.obj","children":[1]},{"name":"defaultobject","mesh":0}],"samplers":[{},{}],"scenes":[{"nodes":[0]}],"textures":[{"source":0,"sampler":0},{"source":1,"sampler":1}],"scene":0}
