{"asset":{"version":"2.0","generator":"Open Asset Import Library (assimp v6.0.0)"},"extensionsUsed":["KHR_materials_specular","KHR_materials_volume","KHR_materials_ior","FB_ngon_encoding"],"accessors":[{"bufferView":0,"byteOffset":0,"componentType":5126,"count":1972,"type":"VEC3","max":[5.450068473815918,-1.6588683128356934,4.092782020568848],"min":[2.2250738585072014e-308,-2.0264945030212402,2.2250738585072014e-308]},{"bufferView":1,"byteOffset":0,"componentType":5126,"count":1972,"type":"VEC2","max":[0.9906332492828369,0.5073280334472656],"min":[2.2250738585072014e-308,2.2250738585072014e-308]},{"bufferView":2,"byteOffset":0,"componentType":5125,"count":9225,"type":"SCALAR","max":[1971],"min":[0]},{"bufferView":3,"byteOffset":0,"componentType":5126,"count":3549,"type":"VEC3","max":[5.605399131774902,-1.636579155921936,4.095197677612305],"min":[2.2250738585072014e-308,-2.038774013519287,2.2250738585072014e-308]},{"bufferView":4,"byteOffset":0,"componentType":5126,"count":3549,"type":"VEC2","max":[0.8614485263824463,0.8156614303588867],"min":[2.2250738585072014e-308,2.2250738585072014e-308]},{"bufferView":5,"byteOffset":0,"componentType":5125,"count":18750,"type":"SCALAR","max":[3548],"min":[0]}],"buffers":[{"byteLength":222320,"uri":"tile_0740.bin"}],"bufferViews":[{"buffer":0,"byteOffset":0,"byteLength":23664,"target":34962},{"buffer":0,"byteOffset":23664,"byteLength":15776,"target":34962},{"buffer":0,"byteOffset":39440,"byteLength":36900,"target":34963},{"buffer":0,"byteOffset":76340,"byteLength":42588,"target":34962},{"buffer":0,"byteOffset":118928,"byteLength":28392,"target":34962},{"buffer":0,"byteOffset":147320,"byteLength":75000,"target":34963}],"images":[{"uri":"../textures/tile_0740_material_0.jpg"},{"uri":"../textures/tile_0740_material_1.jpg"}],"materials":[{"name":"DefaultMaterial","pbrMetallicRoughness":{"baseColorFactor":[0.6000000238418579,0.6000000238418579,0.6000000238418579,1.0],"metallicFactor":0.0},"extensions":{"KHR_materials_specular":{"specularFactor":1.0,"specularColorFactor":[0.0,0.0,0.0]},"KHR_materials_ior":{"ior":1.0}}},{"name":"material_0_material","pbrMetallicRoughness":{"baseColorTexture":{"index":0},"metallicFactor":0.0},"extensions":{"KHR_materials_specular":{"specularFactor":1.0,"specularColorFactor":[0.0,0.0,0.0]},"KHR_materials_ior":{"ior":1.0}}},{"name":"material_1_material","pbrMetallicRoughness":{"baseColorTexture":{"index":1},"metallicFactor":0.0},"extensions":{"KHR_materials_specular":{"specularFactor":1.0,"specularColorFactor":[0.0,0.0,0.0]},"KHR_materials_ior":{"ior":1.0}}}],"meshes":[{"name":"defaultobject","primitives":[{"mode":4,"material":1,"indices":2,"attributes":{"POSITION":0,"TEXCOORD_0":1}},{"mode":4,"material":2,"indices":5,"attributes":{"POSITION":3,"TEXCOORD_0":4}}]}],"nodes":[{"name":"tile_0740.obj","children":[1]},{"name":"defaultobject","mesh":0}],"samplers":[{},{}],"scenes":[{"nodes":[0]}],"textures":[{"source":0,"sampler":0},{"source":1,"sampler":1}],"scene":0}
