{"asset":{"version":"2.0","generator":"Open Asset Import Library (assimp v6.0.0)"},"extensionsUsed":["KHR_materials_specular","KHR_materials_volume","KHR_materials_ior","FB_ngon_encoding"],"accessors":[{"bufferView":0,"byteOffset":0,"componentType":5126,"count":1602,"type":"VEC3","max":[-2.97259521484375,-2.034576416015625,2.7672455310821533],"min":[-3.299496650695801,-2.3919858932495117,2.2250738585072014e-308]},{"bufferView":1,"byteOffset":0,"componentType":5126,"count":1602,"type":"VEC2","max":[0.9696853160858154,0.91925048828125],"min":[2.2250738585072014e-308,2.2250738585072014e-308]},{"bufferView":2,"byteOffset":0,"componentType":5125,"count":7062,"type":"SCALAR","max":[1601],"min":[0]},{"bufferView":3,"byteOffset":0,"componentType":5126,"count":1571,"type":"VEC3","max":[-2.974019765853882,-2.038719892501831,2.773022413253784],"min":[-3.3041131496429443,-2.3883659839630127,2.2250738585072014e-308]},{"bufferView":4,"byteOffset":0,"componentType":5126,"count":1571,"type":"VEC2","max":[0.7265982627868652,0.6673374176025391],"min":[2.2250738585072014e-308,2.2250738585072014e-308]},{"bufferView":5,"byteOffset":0,"componentType":5125,"count":7785,"type":"SCALAR","max":[1570],"min":[0]}],"buffers":[{"byteLength":122848,"uri":"tile_0377.bin"}],"bufferViews":[{"buffer":0,"byteOffset":0,"byteLength":19224,"target":34962},{"buffer":0,"byteOffset":19224,"byteLength":12816,"target":34962},{"buffer":0,"byteOffset":32040,"byteLength":28248,"target":34963},{"buffer":0,"byteOffset":60288,"byteLength":18852,"target":34962},{"buffer":0,"byteOffset":79140,"byteLength":12568,"target":34962},{"buffer":0,"byteOffset":91708,"byteLength":31140,"target":34963}],"images":[{"uri":"../textures/tile_0377_material_0.jpg"},{"uri":"../textures/tile_0377_material_1.jpg"}],"materials":[{"name":"DefaultMaterial","pbrMetallicRoughness":{"baseColorFactor":[0.6000000238418579,0.6000000238418579,0.6000000238418579,1.0],"metallicFactor":0.0},"extensions":{"KHR_materials_specular":{"specularFactor":1.0,"specularColorFactor":[0.0,0.0,0.0]},"KHR_materials_ior":{"ior":1.0}}},{"name":"material_0_material","pbrMetallicRoughness":{"baseColorTexture":{"index":0},"metallicFactor":0.0},"extensions":{"KHR_materials_specular":{"specularFactor":1.0,"specularColorFactor":[0.0,0.0,0.0]},"KHR_materials_ior":{"ior":1.0}}},{"name":"material_1_material","pbrMetallicRoughness":{"baseColorTexture":{"index":1},"metallicFactor":0.0},"extensions":{"KHR_materials_specular":{"specularFactor":1.0,"specularColorFactor":[0.0,0.0,0.0]},"KHR_materials_ior":{"ior":1.0}}}],"meshes":[{"name":"defaultobject","primitives":[{"mode":4,"material":1,"indices":2,"attributes":{"POSITION":0,"TEXCOORD_0":1}},{"mode":4,"material":2,"indices":5,"attributes":{"POSITION":3,"TEXCOORD_0":4}}]}],"nodes":[{"name":"tile_0377.obj","children":[1]},{"name":"defaultobject","mesh":0}],"samplers":[{},{}],"scenes":[{"nodes":[0]}],"textures":[{"source":0,"sampler":0},{"source":1,"sampler":1}],"scene":0}
