{"asset":{"version":"2.0","generator":"Open Asset Import Library (assimp v6.0.0)"},"extensionsUsed":["KHR_materials_specular","KHR_materials_volume","KHR_materials_ior","FB_ngon_encoding"],"accessors":[{"bufferView":0,"byteOffset":0,"componentType":5126,"count":4517,"type":"VEC3","max":[4.681472301483154,-3.084604024887085,3.515437364578247],"min":[2.2250738585072014e-308,-3.3770241737365723,2.2250738585072014e-308]},{"bufferView":1,"byteOffset":0,"componentType":5126,"count":4517,"type":"VEC2","max":[0.9875640869140625,0.8397960662841797],"min":[2.2250738585072014e-308,2.2250738585072014e-308]},{"bufferView":2,"byteOffset":0,"componentType":5125,"count":20955,"type":"SCALAR","max":[4516],"min":[0]},{"bufferView":3,"byteOffset":0,"componentType":5126,"count":322,"type":"VEC3","max":[4.739264011383057,-3.071894645690918,3.516573667526245],"min":[2.2250738585072014e-308,-3.350381851196289,2.2250738585072014e-308]},{"bufferView":4,"byteOffset":0,"componentType":5126,"count":322,"type":"VEC2","max":[0.6000862121582031,0.7619705200195312],"min":[2.2250738585072014e-308,2.2250738585072014e-308]},{"bufferView":5,"byteOffset":0,"componentType":5125,"count":1497,"type":"SCALAR","max":[321],"min":[0]}],"buffers":[{"byteLength":186588,"uri":"tile_0787.bin"}],"bufferViews":[{"buffer":0,"byteOffset":0,"byteLength":54204,"target":34962},{"buffer":0,"byteOffset":54204,"byteLength":36136,"target":34962},{"buffer":0,"byteOffset":90340,"byteLength":83820,"target":34963},{"buffer":0,"byteOffset":174160,"byteLength":3864,"target":34962},{"buffer":0,"byteOffset":178024,"byteLength":2576,"target":34962},{"buffer":0,"byteOffset":180600,"byteLength":5988,"target":34963}],"images":[{"uri":"../textures/tile_0787_material_0.jpg"},{"uri":"../textures/tile_0787_material_1.jpg"}],"materials":[{"name":"DefaultMaterial","pbrMetallicRoughness":{"baseColorFactor":[0.6000000238418579,0.6000000238418579,0.6000000238418579,1.0],"metallicFactor":0.0},"extensions":{"KHR_materials_specular":{"specularFactor":1.0,"specularColorFactor":[0.0,0.0,0.0]},"KHR_materials_ior":{"ior":1.0}}},{"name":"material_0_material","pbrMetallicRoughness":{"baseColorTexture":{"index":0},"metallicFactor":0.0},"extensions":{"KHR_materials_specular":{"specularFactor":1.0,"specularColorFactor":[0.0,0.0,0.0]},"KHR_materials_ior":{"ior":1.0}}},{"name":"material_1_material","pbrMetallicRoughness":{"baseColorTexture":{"index":1},"metallicFactor":0.0},"extensions":{"KHR_materials_specular":{"specularFactor":1.0,"specularColorFactor":[0.0,0.0,0.0]},"KHR_materials_ior":{"ior":1.0}}}],"meshes":[{"name":"defaultobject","primitives":[{"mode":4,"material":1,"indices":2,"attributes":{"POSITION":0,"TEXCOORD_0":1}},{"mode":4,"material":2,"indices":5,"attributes":{"POSITION":3,"TEXCOORD_0":4}}]}],"nodes":[{"name":"tile_0787.obj","children":[1]},{"name":"defaultobject","mesh":0}],"samplers":[{},{}],"scenes":[{"nodes":[0]}],"textures":[{"source":0,"sampler":0},{"source":1,"sampler":1}],"scene":0}
