{"asset":{"version":"2.0","generator":"Open Asset Import Library (assimp v6.0.0)"},"extensionsUsed":["KHR_materials_specular","KHR_materials_volume","KHR_materials_ior","FB_ngon_encoding"],"accessors":[{"bufferView":0,"byteOffset":0,"componentType":5126,"count":2649,"type":"VEC3","max":[2.092827320098877,2.995619297027588,4.365797996520996],"min":[2.2250738585072014e-308,2.2250738585072014e-308,2.2250738585072014e-308]},{"bufferView":1,"byteOffset":0,"componentType":5126,"count":2649,"type":"VEC2","max":[0.9918608665466309,0.5116348266601562],"min":[2.2250738585072014e-308,2.2250738585072014e-308]},{"bufferView":2,"byteOffset":0,"componentType":5125,"count":11421,"type":"SCALAR","max":[2648],"min":[0]},{"bufferView":3,"byteOffset":0,"componentType":5126,"count":2168,"type":"VEC3","max":[2.0726230144500732,2.9943673610687256,4.365464687347412],"min":[2.2250738585072014e-308,2.2250738585072014e-308,2.2250738585072014e-308]},{"bufferView":4,"byteOffset":0,"componentType":5126,"count":2168,"type":"VEC2","max":[0.5201785564422607,0.9544754028320312],"min":[2.2250738585072014e-308,2.2250738585072014e-308]},{"bufferView":5,"byteOffset":0,"componentType":5125,"count":10995,"type":"SCALAR","max":[2167],"min":[0]}],"buffers":[{"byteLength":186004,"uri":"tile_0186.bin"}],"bufferViews":[{"buffer":0,"byteOffset":0,"byteLength":31788,"target":34962},{"buffer":0,"byteOffset":31788,"byteLength":21192,"target":34962},{"buffer":0,"byteOffset":52980,"byteLength":45684,"target":34963},{"buffer":0,"byteOffset":98664,"byteLength":26016,"target":34962},{"buffer":0,"byteOffset":124680,"byteLength":17344,"target":34962},{"buffer":0,"byteOffset":142024,"byteLength":43980,"target":34963}],"images":[{"uri":"../textures/tile_0186_material_0.jpg"},{"uri":"../textures/tile_0186_material_1.jpg"}],"materials":[{"name":"DefaultMaterial","pbrMetallicRoughness":{"baseColorFactor":[0.6000000238418579,0.6000000238418579,0.6000000238418579,1.0],"metallicFactor":0.0},"extensions":{"KHR_materials_specular":{"specularFactor":1.0,"specularColorFactor":[0.0,0.0,0.0]},"KHR_materials_ior":{"ior":1.0}}},{"name":"material_0_material","pbrMetallicRoughness":{"baseColorTexture":{"index":0},"metallicFactor":0.0},"extensions":{"KHR_materials_specular":{"specularFactor":1.0,"specularColorFactor":[0.0,0.0,0.0]},"KHR_materials_ior":{"ior":1.0}}},{"name":"material_1_material","pbrMetallicRoughness":{"baseColorTexture":{"index":1},"metallicFactor":0.0},"extensions":{"KHR_materials_specular":{"specularFactor":1.0,"specularColorFactor":[0.0,0.0,0.0]},"KHR_materials_ior":{"ior":1.0}}}],"meshes":[{"name":"defaultobject","primitives":[{"mode":4,"material":1,"indices":2,"attributes":{"POSITION":0,"TEXCOORD_0":1}},{"mode":4,"material":2,"indices":5,"attributes":{"POSITION":3,"TEXCOORD_0":4}}]}],"nodes":[{"name":"tile_0186.obj","children":[1]},{"name":"defaultobject","mesh":0}],"samplers":[{},{}],"scenes":[{"nodes":[0]}],"textures":[{"source":0,"sampler":0},{"source":1,"sampler":1}],"scene":0}
