{"asset":{"version":"2.0","generator":"Open Asset Import Library (assimp v6.0.0)"},"extensionsUsed":["KHR_materials_specular","KHR_materials_volume","KHR_materials_ior","FB_ngon_encoding"],"accessors":[{"bufferView":0,"byteOffset":0,"componentType":5126,"count":6369,"type":"VEC3","max":[2.8957676887512207,-2.168220281600952,3.6591603755950928],"min":[2.2250738585072014e-308,-2.4548182487487793,2.2250738585072014e-308]},{"bufferView":1,"byteOffset":0,"componentType":5126,"count":6369,"type":"VEC2","max":[0.9916535019874573,0.7499141693115234],"min":[2.2250738585072014e-308,2.2250738585072014e-308]},{"bufferView":2,"byteOffset":0,"componentType":5125,"count":28233,"type":"SCALAR","max":[6368],"min":[0]},{"bufferView":3,"byteOffset":0,"componentType":5126,"count":202,"type":"VEC3","max":[2.8972327709198,-2.2947540283203125,3.5652973651885986],"min":[2.2250738585072014e-308,-2.451446533203125,2.2250738585072014e-308]},{"bufferView":4,"byteOffset":0,"componentType":5126,"count":202,"type":"VEC2","max":[0.8024978637695312,0.8885650634765625],"min":[2.2250738585072014e-308,2.2250738585072014e-308]},{"bufferView":5,"byteOffset":0,"componentType":5125,"count":894,"type":"SCALAR","max":[201],"min":[0]}],"buffers":[{"byteLength":247928,"uri":"tile_0730.bin"}],"bufferViews":[{"buffer":0,"byteOffset":0,"byteLength":76428,"target":34962},{"buffer":0,"byteOffset":76428,"byteLength":50952,"target":34962},{"buffer":0,"byteOffset":127380,"byteLength":112932,"target":34963},{"buffer":0,"byteOffset":240312,"byteLength":2424,"target":34962},{"buffer":0,"byteOffset":242736,"byteLength":1616,"target":34962},{"buffer":0,"byteOffset":244352,"byteLength":3576,"target":34963}],"images":[{"uri":"../textures/tile_0730_material_0.jpg"},{"uri":"../textures/tile_0730_material_1.jpg"}],"materials":[{"name":"DefaultMaterial","pbrMetallicRoughness":{"baseColorFactor":[0.6000000238418579,0.6000000238418579,0.6000000238418579,1.0],"metallicFactor":0.0},"extensions":{"KHR_materials_specular":{"specularFactor":1.0,"specularColorFactor":[0.0,0.0,0.0]},"KHR_materials_ior":{"ior":1.0}}},{"name":"material_0_material","pbrMetallicRoughness":{"baseColorTexture":{"index":0},"metallicFactor":0.0},"extensions":{"KHR_materials_specular":{"specularFactor":1.0,"specularColorFactor":[0.0,0.0,0.0]},"KHR_materials_ior":{"ior":1.0}}},{"name":"material_1_material","pbrMetallicRoughness":{"baseColorTexture":{"index":1},"metallicFactor":0.0},"extensions":{"KHR_materials_specular":{"specularFactor":1.0,"specularColorFactor":[0.0,0.0,0.0]},"KHR_materials_ior":{"ior":1.0}}}],"meshes":[{"name":"defaultobject","primitives":[{"mode":4,"material":1,"indices":2,"attributes":{"POSITION":0,"TEXCOORD_0":1}},{"mode":4,"material":2,"indices":5,"attributes":{"POSITION":3,"TEXCOORD_0":4}}]}],"nodes":[{"name":"tile_0730.obj","children":[1]},{"name":"defaultobject","mesh":0}],"samplers":[{},{}],"scenes":[{"nodes":[0]}],"textures":[{"source":0,"sampler":0},{"source":1,"sampler":1}],"scene":0}
