{"asset":{"version":"2.0","generator":"Open Asset Import Library (assimp v6.0.0)"},"extensionsUsed":["KHR_materials_specular","KHR_materials_volume","KHR_materials_ior","FB_ngon_encoding"],"accessors":[{"bufferView":0,"byteOffset":0,"componentType":5126,"count":2320,"type":"VEC3","max":[1.3947131633758545,-5.205230712890625,2.911752462387085],"min":[2.2250738585072014e-308,-6.8032684326171875,2.2250738585072014e-308]},{"bufferView":1,"byteOffset":0,"componentType":5126,"count":2320,"type":"VEC2","max":[0.9866042137145996,0.5350437164306641],"min":[2.2250738585072014e-308,2.2250738585072014e-308]},{"bufferView":2,"byteOffset":0,"componentType":5125,"count":10734,"type":"SCALAR","max":[2319],"min":[0]},{"bufferView":3,"byteOffset":0,"componentType":5126,"count":3002,"type":"VEC3","max":[1.4045695066452026,-5.2079362869262695,2.911752462387085],"min":[2.2250738585072014e-308,-6.876607894897461,2.2250738585072014e-308]},{"bufferView":4,"byteOffset":0,"componentType":5126,"count":3002,"type":"VEC2","max":[0.9577884674072266,0.6544532775878906],"min":[2.2250738585072014e-308,2.2250738585072014e-308]},{"bufferView":5,"byteOffset":0,"componentType":5125,"count":15927,"type":"SCALAR","max":[3001],"min":[0]}],"buffers":[{"byteLength":213084,"uri":"tile_0264.bin"}],"bufferViews":[{"buffer":0,"byteOffset":0,"byteLength":27840,"target":34962},{"buffer":0,"byteOffset":27840,"byteLength":18560,"target":34962},{"buffer":0,"byteOffset":46400,"byteLength":42936,"target":34963},{"buffer":0,"byteOffset":89336,"byteLength":36024,"target":34962},{"buffer":0,"byteOffset":125360,"byteLength":24016,"target":34962},{"buffer":0,"byteOffset":149376,"byteLength":63708,"target":34963}],"images":[{"uri":"../textures/tile_0264_material_0.jpg"},{"uri":"../textures/tile_0264_material_1.jpg"}],"materials":[{"name":"DefaultMaterial","pbrMetallicRoughness":{"baseColorFactor":[0.6000000238418579,0.6000000238418579,0.6000000238418579,1.0],"metallicFactor":0.0},"extensions":{"KHR_materials_specular":{"specularFactor":1.0,"specularColorFactor":[0.0,0.0,0.0]},"KHR_materials_ior":{"ior":1.0}}},{"name":"material_0_material","pbrMetallicRoughness":{"baseColorTexture":{"index":0},"metallicFactor":0.0},"extensions":{"KHR_materials_specular":{"specularFactor":1.0,"specularColorFactor":[0.0,0.0,0.0]},"KHR_materials_ior":{"ior":1.0}}},{"name":"material_1_material","pbrMetallicRoughness":{"baseColorTexture":{"index":1},"metallicFactor":0.0},"extensions":{"KHR_materials_specular":{"specularFactor":1.0,"specularColorFactor":[0.0,0.0,0.0]},"KHR_materials_ior":{"ior":1.0}}}],"meshes":[{"name":"defaultobject","primitives":[{"mode":4,"material":1,"indices":2,"attributes":{"POSITION":0,"TEXCOORD_0":1}},{"mode":4,"material":2,"indices":5,"attributes":{"POSITION":3,"TEXCOORD_0":4}}]}],"nodes":[{"name":"tile_0264.obj","children":[1]},{"name":"defaultobject","mesh":0}],"samplers":[{},{}],"scenes":[{"nodes":[0]}],"textures":[{"source":0,"sampler":0},{"source":1,"sampler":1}],"scene":0}
