{"asset":{"version":"2.0","generator":"Open Asset Import Library (assimp v6.0.0)"},"extensionsUsed":["KHR_materials_specular","KHR_materials_volume","KHR_materials_ior","FB_ngon_encoding"],"accessors":[{"bufferView":0,"byteOffset":0,"componentType":5126,"count":3121,"type":"VEC3","max":[0.5375430583953857,-4.806612014770508,2.7424638271331787],"min":[2.2250738585072014e-308,-5.257680416107178,2.2250738585072014e-308]},{"bufferView":1,"byteOffset":0,"componentType":5126,"count":3121,"type":"VEC2","max":[0.9957890510559082,0.9587249755859375],"min":[2.2250738585072014e-308,2.2250738585072014e-308]},{"bufferView":2,"byteOffset":0,"componentType":5125,"count":14454,"type":"SCALAR","max":[3120],"min":[0]},{"bufferView":3,"byteOffset":0,"componentType":5126,"count":2955,"type":"VEC3","max":[0.538066029548645,-4.807427406311035,2.7403857707977295],"min":[2.2250738585072014e-308,-5.262070655822754,2.2250738585072014e-308]},{"bufferView":4,"byteOffset":0,"componentType":5126,"count":2955,"type":"VEC2","max":[0.4931340217590332,0.5052576065063477],"min":[2.2250738585072014e-308,2.2250738585072014e-308]},{"bufferView":5,"byteOffset":0,"componentType":5125,"count":16116,"type":"SCALAR","max":[2954],"min":[0]}],"buffers":[{"byteLength":243800,"uri":"tile_0400.bin"}],"bufferViews":[{"buffer":0,"byteOffset":0,"byteLength":37452,"target":34962},{"buffer":0,"byteOffset":37452,"byteLength":24968,"target":34962},{"buffer":0,"byteOffset":62420,"byteLength":57816,"target":34963},{"buffer":0,"byteOffset":120236,"byteLength":35460,"target":34962},{"buffer":0,"byteOffset":155696,"byteLength":23640,"target":34962},{"buffer":0,"byteOffset":179336,"byteLength":64464,"target":34963}],"images":[{"uri":"../textures/tile_0400_material_0.jpg"},{"uri":"../textures/tile_0400_material_1.jpg"}],"materials":[{"name":"DefaultMaterial","pbrMetallicRoughness":{"baseColorFactor":[0.6000000238418579,0.6000000238418579,0.6000000238418579,1.0],"metallicFactor":0.0},"extensions":{"KHR_materials_specular":{"specularFactor":1.0,"specularColorFactor":[0.0,0.0,0.0]},"KHR_materials_ior":{"ior":1.0}}},{"name":"material_0_material","pbrMetallicRoughness":{"baseColorTexture":{"index":0},"metallicFactor":0.0},"extensions":{"KHR_materials_specular":{"specularFactor":1.0,"specularColorFactor":[0.0,0.0,0.0]},"KHR_materials_ior":{"ior":1.0}}},{"name":"material_1_material","pbrMetallicRoughness":{"baseColorTexture":{"index":1},"metallicFactor":0.0},"extensions":{"KHR_materials_specular":{"specularFactor":1.0,"specularColorFactor":[0.0,0.0,0.0]},"KHR_materials_ior":{"ior":1.0}}}],"meshes":[{"name":"defaultobject","primitives":[{"mode":4,"material":1,"indices":2,"attributes":{"POSITION":0,"TEXCOORD_0":1}},{"mode":4,"material":2,"indices":5,"attributes":{"POSITION":3,"TEXCOORD_0":4}}]}],"nodes":[{"name":"tile_0400.obj","children":[1]},{"name":"defaultobject","mesh":0}],"samplers":[{},{}],"scenes":[{"nodes":[0]}],"textures":[{"source":0,"sampler":0},{"source":1,"sampler":1}],"scene":0}
