{"asset":{"version":"2.0","generator":"Open Asset Import Library (assimp v6.0.0)"},"extensionsUsed":["KHR_materials_specular","KHR_materials_volume","KHR_materials_ior","FB_ngon_encoding"],"accessors":[{"bufferView":0,"byteOffset":0,"componentType":5126,"count":4910,"type":"VEC3","max":[3.348792314529419,0.5367310643196106,4.093972682952881],"min":[2.2250738585072014e-308,2.2250738585072014e-308,2.2250738585072014e-308]},{"bufferView":1,"byteOffset":0,"componentType":5126,"count":4910,"type":"VEC2","max":[0.9903554916381836,0.5468673706054688],"min":[2.2250738585072014e-308,2.2250738585072014e-308]},{"bufferView":2,"byteOffset":0,"componentType":5125,"count":21678,"type":"SCALAR","max":[4909],"min":[0]},{"bufferView":3,"byteOffset":0,"componentType":5126,"count":489,"type":"VEC3","max":[3.2519073486328125,0.5356939435005188,3.9486989974975586],"min":[2.2250738585072014e-308,2.2250738585072014e-308,2.2250738585072014e-308]},{"bufferView":4,"byteOffset":0,"componentType":5126,"count":489,"type":"VEC2","max":[0.5774850845336914,0.8962326049804688],"min":[2.2250738585072014e-308,2.2250738585072014e-308]},{"bufferView":5,"byteOffset":0,"componentType":5125,"count":2580,"type":"SCALAR","max":[488],"min":[0]}],"buffers":[{"byteLength":205012,"uri":"tile_0221.bin"}],"bufferViews":[{"buffer":0,"byteOffset":0,"byteLength":58920,"target":34962},{"buffer":0,"byteOffset":58920,"byteLength":39280,"target":34962},{"buffer":0,"byteOffset":98200,"byteLength":86712,"target":34963},{"buffer":0,"byteOffset":184912,"byteLength":5868,"target":34962},{"buffer":0,"byteOffset":190780,"byteLength":3912,"target":34962},{"buffer":0,"byteOffset":194692,"byteLength":10320,"target":34963}],"images":[{"uri":"../textures/tile_0221_material_0.jpg"},{"uri":"../textures/tile_0221_material_1.jpg"}],"materials":[{"name":"DefaultMaterial","pbrMetallicRoughness":{"baseColorFactor":[0.6000000238418579,0.6000000238418579,0.6000000238418579,1.0],"metallicFactor":0.0},"extensions":{"KHR_materials_specular":{"specularFactor":1.0,"specularColorFactor":[0.0,0.0,0.0]},"KHR_materials_ior":{"ior":1.0}}},{"name":"material_0_material","pbrMetallicRoughness":{"baseColorTexture":{"index":0},"metallicFactor":0.0},"extensions":{"KHR_materials_specular":{"specularFactor":1.0,"specularColorFactor":[0.0,0.0,0.0]},"KHR_materials_ior":{"ior":1.0}}},{"name":"material_1_material","pbrMetallicRoughness":{"baseColorTexture":{"index":1},"metallicFactor":0.0},"extensions":{"KHR_materials_specular":{"specularFactor":1.0,"specularColorFactor":[0.0,0.0,0.0]},"KHR_materials_ior":{"ior":1.0}}}],"meshes":[{"name":"defaultobject","primitives":[{"mode":4,"material":1,"indices":2,"attributes":{"POSITION":0,"TEXCOORD_0":1}},{"mode":4,"material":2,"indices":5,"attributes":{"POSITION":3,"TEXCOORD_0":4}}]}],"nodes":[{"name":"tile_0221.obj","children":[1]},{"name":"defaultobject","mesh":0}],"samplers":[{},{}],"scenes":[{"nodes":[0]}],"textures":[{"source":0,"sampler":0},{"source":1,"sampler":1}],"scene":0}
