{"asset":{"version":"2.0","generator":"Open Asset Import Library (assimp v6.0.0)"},"extensionsUsed":["KHR_materials_specular","KHR_materials_volume","KHR_materials_ior","FB_ngon_encoding"],"accessors":[{"bufferView":0,"byteOffset":0,"componentType":5126,"count":1042,"type":"VEC3","max":[0.7858749628067017,-5.253199577331543,3.0125064849853516],"min":[2.2250738585072014e-308,-7.003748893737793,2.2250738585072014e-308]},{"bufferView":1,"byteOffset":0,"componentType":5126,"count":1042,"type":"VEC2","max":[0.9887051582336426,0.7158927917480469],"min":[2.2250738585072014e-308,2.2250738585072014e-308]},{"bufferView":2,"byteOffset":0,"componentType":5125,"count":4494,"type":"SCALAR","max":[1041],"min":[0]},{"bufferView":3,"byteOffset":0,"componentType":5126,"count":4868,"type":"VEC3","max":[0.8242546319961548,-5.252494812011719,3.0125064849853516],"min":[2.2250738585072014e-308,-6.994396686553955,2.2250738585072014e-308]},{"bufferView":4,"byteOffset":0,"componentType":5126,"count":4868,"type":"VEC2","max":[0.942692756652832,0.9820346832275391],"min":[2.2250738585072014e-308,2.2250738585072014e-308]},{"bufferView":5,"byteOffset":0,"componentType":5125,"count":26076,"type":"SCALAR","max":[4867],"min":[0]}],"buffers":[{"byteLength":240480,"uri":"tile_0829.bin"}],"bufferViews":[{"buffer":0,"byteOffset":0,"byteLength":12504,"target":34962},{"buffer":0,"byteOffset":12504,"byteLength":8336,"target":34962},{"buffer":0,"byteOffset":20840,"byteLength":17976,"target":34963},{"buffer":0,"byteOffset":38816,"byteLength":58416,"target":34962},{"buffer":0,"byteOffset":97232,"byteLength":38944,"target":34962},{"buffer":0,"byteOffset":136176,"byteLength":104304,"target":34963}],"images":[{"uri":"../textures/tile_0829_material_0.jpg"},{"uri":"../textures/tile_0829_material_1.jpg"}],"materials":[{"name":"DefaultMaterial","pbrMetallicRoughness":{"baseColorFactor":[0.6000000238418579,0.6000000238418579,0.6000000238418579,1.0],"metallicFactor":0.0},"extensions":{"KHR_materials_specular":{"specularFactor":1.0,"specularColorFactor":[0.0,0.0,0.0]},"KHR_materials_ior":{"ior":1.0}}},{"name":"material_0_material","pbrMetallicRoughness":{"baseColorTexture":{"index":0},"metallicFactor":0.0},"extensions":{"KHR_materials_specular":{"specularFactor":1.0,"specularColorFactor":[0.0,0.0,0.0]},"KHR_materials_ior":{"ior":1.0}}},{"name":"material_1_material","pbrMetallicRoughness":{"baseColorTexture":{"index":1},"metallicFactor":0.0},"extensions":{"KHR_materials_specular":{"specularFactor":1.0,"specularColorFactor":[0.0,0.0,0.0]},"KHR_materials_ior":{"ior":1.0}}}],"meshes":[{"name":"defaultobject","primitives":[{"mode":4,"material":1,"indices":2,"attributes":{"POSITION":0,"TEXCOORD_0":1}},{"mode":4,"material":2,"indices":5,"attributes":{"POSITION":3,"TEXCOORD_0":4}}]}],"nodes":[{"name":"tile_0829.obj","children":[1]},{"name":"defaultobject","mesh":0}],"samplers":[{},{}],"scenes":[{"nodes":[0]}],"textures":[{"source":0,"sampler":0},{"source":1,"sampler":1}],"scene":0}
