{"asset":{"version":"2.0","generator":"Open Asset Import Library (assimp v6.0.0)"},"extensionsUsed":["KHR_materials_specular","KHR_materials_volume","KHR_materials_ior","FB_ngon_encoding"],"accessors":[{"bufferView":0,"byteOffset":0,"componentType":5126,"count":4636,"type":"VEC3","max":[-1.7668005228042603,-1.9084490537643433,2.378061056137085],"min":[-2.0588700771331787,-2.193942070007324,2.2250738585072014e-308]},{"bufferView":1,"byteOffset":0,"componentType":5126,"count":4636,"type":"VEC2","max":[0.9791083335876465,0.5377311706542969],"min":[2.2250738585072014e-308,2.2250738585072014e-308]},{"bufferView":2,"byteOffset":0,"componentType":5125,"count":23526,"type":"SCALAR","max":[4635],"min":[0]},{"bufferView":3,"byteOffset":0,"componentType":5126,"count":662,"type":"VEC3","max":[-1.9581581354141235,-1.947100043296814,2.3258821964263916],"min":[-2.058152198791504,-2.19435715675354,2.2250738585072014e-308]},{"bufferView":4,"byteOffset":0,"componentType":5126,"count":662,"type":"VEC2","max":[0.622645378112793,0.8107032775878906],"min":[2.2250738585072014e-308,2.2250738585072014e-308]},{"bufferView":5,"byteOffset":0,"componentType":5125,"count":3441,"type":"SCALAR","max":[661],"min":[0]}],"buffers":[{"byteLength":213828,"uri":"tile_0012.bin"}],"bufferViews":[{"buffer":0,"byteOffset":0,"byteLength":55632,"target":34962},{"buffer":0,"byteOffset":55632,"byteLength":37088,"target":34962},{"buffer":0,"byteOffset":92720,"byteLength":94104,"target":34963},{"buffer":0,"byteOffset":186824,"byteLength":7944,"target":34962},{"buffer":0,"byteOffset":194768,"byteLength":5296,"target":34962},{"buffer":0,"byteOffset":200064,"byteLength":13764,"target":34963}],"images":[{"uri":"../textures/tile_0012_material_0.jpg"},{"uri":"../textures/tile_0012_material_1.jpg"}],"materials":[{"name":"DefaultMaterial","pbrMetallicRoughness":{"baseColorFactor":[0.6000000238418579,0.6000000238418579,0.6000000238418579,1.0],"metallicFactor":0.0},"extensions":{"KHR_materials_specular":{"specularFactor":1.0,"specularColorFactor":[0.0,0.0,0.0]},"KHR_materials_ior":{"ior":1.0}}},{"name":"material_0_material","pbrMetallicRoughness":{"baseColorTexture":{"index":0},"metallicFactor":0.0},"extensions":{"KHR_materials_specular":{"specularFactor":1.0,"specularColorFactor":[0.0,0.0,0.0]},"KHR_materials_ior":{"ior":1.0}}},{"name":"material_1_material","pbrMetallicRoughness":{"baseColorTexture":{"index":1},"metallicFactor":0.0},"extensions":{"KHR_materials_specular":{"specularFactor":1.0,"specularColorFactor":[0.0,0.0,0.0]},"KHR_materials_ior":{"ior":1.0}}}],"meshes":[{"name":"defaultobject","primitives":[{"mode":4,"material":1,"indices":2,"attributes":{"POSITION":0,"TEXCOORD_0":1}},{"mode":4,"material":2,"indices":5,"attributes":{"POSITION":3,"TEXCOORD_0":4}}]}],"nodes":[{"name":"tile_0012.obj","children":[1]},{"name":"defaultobject","mesh":0}],"samplers":[{},{}],"scenes":[{"nodes":[0]}],"textures":[{"source":0,"sampler":0},{"source":1,"sampler":1}],"scene":0}
