{"asset":{"version":"2.0","generator":"Open Asset Import Library (assimp v6.0.0)"},"extensionsUsed":["KHR_materials_specular","KHR_materials_volume","KHR_materials_ior","FB_ngon_encoding"],"accessors":[{"bufferView":0,"byteOffset":0,"componentType":5126,"count":2947,"type":"VEC3","max":[1.5526081323623657,-4.8985185623168945,2.796916961669922],"min":[2.2250738585072014e-308,-6.127089500427246,2.2250738585072014e-308]},{"bufferView":1,"byteOffset":0,"componentType":5126,"count":2947,"type":"VEC2","max":[0.9781749248504639,0.5996456146240234],"min":[2.2250738585072014e-308,2.2250738585072014e-308]},{"bufferView":2,"byteOffset":0,"componentType":5125,"count":12918,"type":"SCALAR","max":[2946],"min":[0]},{"bufferView":3,"byteOffset":0,"componentType":5126,"count":3300,"type":"VEC3","max":[1.5454795360565186,-4.955392360687256,2.77376651763916],"min":[2.2250738585072014e-308,-6.149338722229004,2.2250738585072014e-308]},{"bufferView":4,"byteOffset":0,"componentType":5126,"count":3300,"type":"VEC2","max":[0.7910127639770508,0.6680221557617188],"min":[2.2250738585072014e-308,2.2250738585072014e-308]},{"bufferView":5,"byteOffset":0,"componentType":5125,"count":17835,"type":"SCALAR","max":[3299],"min":[0]}],"buffers":[{"byteLength":247952,"uri":"tile_0770.bin"}],"bufferViews":[{"buffer":0,"byteOffset":0,"byteLength":35364,"target":34962},{"buffer":0,"byteOffset":35364,"byteLength":23576,"target":34962},{"buffer":0,"byteOffset":58940,"byteLength":51672,"target":34963},{"buffer":0,"byteOffset":110612,"byteLength":39600,"target":34962},{"buffer":0,"byteOffset":150212,"byteLength":26400,"target":34962},{"buffer":0,"byteOffset":176612,"byteLength":71340,"target":34963}],"images":[{"uri":"../textures/tile_0770_material_0.jpg"},{"uri":"../textures/tile_0770_material_1.jpg"}],"materials":[{"name":"DefaultMaterial","pbrMetallicRoughness":{"baseColorFactor":[0.6000000238418579,0.6000000238418579,0.6000000238418579,1.0],"metallicFactor":0.0},"extensions":{"KHR_materials_specular":{"specularFactor":1.0,"specularColorFactor":[0.0,0.0,0.0]},"KHR_materials_ior":{"ior":1.0}}},{"name":"material_0_material","pbrMetallicRoughness":{"baseColorTexture":{"index":0},"metallicFactor":0.0},"extensions":{"KHR_materials_specular":{"specularFactor":1.0,"specularColorFactor":[0.0,0.0,0.0]},"KHR_materials_ior":{"ior":1.0}}},{"name":"material_1_material","pbrMetallicRoughness":{"baseColorTexture":{"index":1},"metallicFactor":0.0},"extensions":{"KHR_materials_specular":{"specularFactor":1.0,"specularColorFactor":[0.0,0.0,0.0]},"KHR_materials_ior":{"ior":1.0}}}],"meshes":[{"name":"defaultobject","primitives":[{"mode":4,"material":1,"indices":2,"attributes":{"POSITION":0,"TEXCOORD_0":1}},{"mode":4,"material":2,"indices":5,"attributes":{"POSITION":3,"TEXCOORD_0":4}}]}],"nodes":[{"name":"tile_0770.obj","children":[1]},{"name":"defaultobject","mesh":0}],"samplers":[{},{}],"scenes":[{"nodes":[0]}],"textures":[{"source":0,"sampler":0},{"source":1,"sampler":1}],"scene":0}
