{"asset":{"version":"2.0","generator":"Open Asset Import Library (assimp v6.0.0)"},"extensionsUsed":["KHR_materials_specular","KHR_materials_volume","KHR_materials_ior","FB_ngon_encoding"],"accessors":[{"bufferView":0,"byteOffset":0,"componentType":5126,"count":2523,"type":"VEC3","max":[2.889801263809204,3.3935885429382324,4.343767166137695],"min":[2.2250738585072014e-308,2.2250738585072014e-308,2.2250738585072014e-308]},{"bufferView":1,"byteOffset":0,"componentType":5126,"count":2523,"type":"VEC2","max":[0.9767186641693115,0.6712265014648438],"min":[2.2250738585072014e-308,2.2250738585072014e-308]},{"bufferView":2,"byteOffset":0,"componentType":5125,"count":11985,"type":"SCALAR","max":[2522],"min":[0]},{"bufferView":3,"byteOffset":0,"componentType":5126,"count":1637,"type":"VEC3","max":[2.8965559005737305,3.4005842208862305,4.379003047943115],"min":[2.2250738585072014e-308,2.2250738585072014e-308,2.2250738585072014e-308]},{"bufferView":4,"byteOffset":0,"componentType":5126,"count":1637,"type":"VEC2","max":[0.9511322975158691,0.5662441253662109],"min":[2.2250738585072014e-308,2.2250738585072014e-308]},{"bufferView":5,"byteOffset":0,"componentType":5125,"count":8535,"type":"SCALAR","max":[1636],"min":[0]}],"buffers":[{"byteLength":165280,"uri":"tile_0673.bin"}],"bufferViews":[{"buffer":0,"byteOffset":0,"byteLength":30276,"target":34962},{"buffer":0,"byteOffset":30276,"byteLength":20184,"target":34962},{"buffer":0,"byteOffset":50460,"byteLength":47940,"target":34963},{"buffer":0,"byteOffset":98400,"byteLength":19644,"target":34962},{"buffer":0,"byteOffset":118044,"byteLength":13096,"target":34962},{"buffer":0,"byteOffset":131140,"byteLength":34140,"target":34963}],"images":[{"uri":"../textures/tile_0673_material_0.jpg"},{"uri":"../textures/tile_0673_material_1.jpg"}],"materials":[{"name":"DefaultMaterial","pbrMetallicRoughness":{"baseColorFactor":[0.6000000238418579,0.6000000238418579,0.6000000238418579,1.0],"metallicFactor":0.0},"extensions":{"KHR_materials_specular":{"specularFactor":1.0,"specularColorFactor":[0.0,0.0,0.0]},"KHR_materials_ior":{"ior":1.0}}},{"name":"material_0_material","pbrMetallicRoughness":{"baseColorTexture":{"index":0},"metallicFactor":0.0},"extensions":{"KHR_materials_specular":{"specularFactor":1.0,"specularColorFactor":[0.0,0.0,0.0]},"KHR_materials_ior":{"ior":1.0}}},{"name":"material_1_material","pbrMetallicRoughness":{"baseColorTexture":{"index":1},"metallicFactor":0.0},"extensions":{"KHR_materials_specular":{"specularFactor":1.0,"specularColorFactor":[0.0,0.0,0.0]},"KHR_materials_ior":{"ior":1.0}}}],"meshes":[{"name":"defaultobject","primitives":[{"mode":4,"material":1,"indices":2,"attributes":{"POSITION":0,"TEXCOORD_0":1}},{"mode":4,"material":2,"indices":5,"attributes":{"POSITION":3,"TEXCOORD_0":4}}]}],"nodes":[{"name":"tile_0673.obj","children":[1]},{"name":"defaultobject","mesh":0}],"samplers":[{},{}],"scenes":[{"nodes":[0]}],"textures":[{"source":0,"sampler":0},{"source":1,"sampler":1}],"scene":0}
