{"asset":{"version":"2.0","generator":"Open Asset Import Library (assimp v6.0.0)"},"extensionsUsed":["KHR_materials_specular","KHR_materials_volume","KHR_materials_ior","FB_ngon_encoding"],"accessors":[{"bufferView":0,"byteOffset":0,"componentType":5126,"count":5407,"type":"VEC3","max":[-2.1588551998138428,7.488441467285156,5.142364025115967],"min":[-2.818211078643799,2.2250738585072014e-308,2.2250738585072014e-308]},{"bufferView":1,"byteOffset":0,"componentType":5126,"count":5407,"type":"VEC2","max":[0.9956846237182617,0.9645576477050781],"min":[2.2250738585072014e-308,2.2250738585072014e-308]},{"bufferView":2,"byteOffset":0,"componentType":5125,"count":25614,"type":"SCALAR","max":[5406],"min":[0]},{"bufferView":3,"byteOffset":0,"componentType":5126,"count":8547,"type":"VEC3","max":[-2.113067388534546,7.545454502105713,5.132158279418945],"min":[-2.862572431564331,2.2250738585072014e-308,2.2250738585072014e-308]},{"bufferView":4,"byteOffset":0,"componentType":5126,"count":8547,"type":"VEC2","max":[0.9771773815155029,0.6252589225769043],"min":[2.2250738585072014e-308,2.2250738585072014e-308]},{"bufferView":5,"byteOffset":0,"componentType":5125,"count":46635,"type":"SCALAR","max":[8546],"min":[0]}],"buffers":[{"byteLength":568076,"uri":"tile_0105.bin"}],"bufferViews":[{"buffer":0,"byteOffset":0,"byteLength":64884,"target":34962},{"buffer":0,"byteOffset":64884,"byteLength":43256,"target":34962},{"buffer":0,"byteOffset":108140,"byteLength":102456,"target":34963},{"buffer":0,"byteOffset":210596,"byteLength":102564,"target":34962},{"buffer":0,"byteOffset":313160,"byteLength":68376,"target":34962},{"buffer":0,"byteOffset":381536,"byteLength":186540,"target":34963}],"images":[{"uri":"../textures/tile_0105_material_0.jpg"},{"uri":"../textures/tile_0105_material_1.jpg"}],"materials":[{"name":"DefaultMaterial","pbrMetallicRoughness":{"baseColorFactor":[0.6000000238418579,0.6000000238418579,0.6000000238418579,1.0],"metallicFactor":0.0},"extensions":{"KHR_materials_specular":{"specularFactor":1.0,"specularColorFactor":[0.0,0.0,0.0]},"KHR_materials_ior":{"ior":1.0}}},{"name":"material_0_material","pbrMetallicRoughness":{"baseColorTexture":{"index":0},"metallicFactor":0.0},"extensions":{"KHR_materials_specular":{"specularFactor":1.0,"specularColorFactor":[0.0,0.0,0.0]},"KHR_materials_ior":{"ior":1.0}}},{"name":"material_1_material","pbrMetallicRoughness":{"baseColorTexture":{"index":1},"metallicFactor":0.0},"extensions":{"KHR_materials_specular":{"specularFactor":1.0,"specularColorFactor":[0.0,0.0,0.0]},"KHR_materials_ior":{"ior":1.0}}}],"meshes":[{"name":"defaultobject","primitives":[{"mode":4,"material":1,"indices":2,"attributes":{"POSITION":0,"TEXCOORD_0":1}},{"mode":4,"material":2,"indices":5,"attributes":{"POSITION":3,"TEXCOORD_0":4}}]}],"nodes":[{"name":"tile_0105.obj","children":[1]},{"name":"defaultobject","mesh":0}],"samplers":[{},{}],"scenes":[{"nodes":[0]}],"textures":[{"source":0,"sampler":0},{"source":1,"sampler":1}],"scene":0}
