{"asset":{"version":"2.0","generator":"Open Asset Import Library (assimp v6.0.0)"},"extensionsUsed":["KHR_materials_specular","KHR_materials_volume","KHR_materials_ior","FB_ngon_encoding"],"accessors":[{"bufferView":0,"byteOffset":0,"componentType":5126,"count":5338,"type":"VEC3","max":[1.6995973587036133,-1.4655628204345703,2.770359516143799],"min":[2.2250738585072014e-308,-1.6876957416534424,2.2250738585072014e-308]},{"bufferView":1,"byteOffset":0,"componentType":5126,"count":5338,"type":"VEC2","max":[0.9928092956542969,0.4999809265136719],"min":[2.2250738585072014e-308,2.2250738585072014e-308]},{"bufferView":2,"byteOffset":0,"componentType":5125,"count":24531,"type":"SCALAR","max":[5337],"min":[0]},{"bufferView":3,"byteOffset":0,"componentType":5126,"count":153,"type":"VEC3","max":[1.4746843576431274,-1.4668842554092407,2.6482627391815186],"min":[2.2250738585072014e-308,-1.5169651508331299,2.2250738585072014e-308]},{"bufferView":4,"byteOffset":0,"componentType":5126,"count":153,"type":"VEC2","max":[0.9047508835792542,0.6690673828125],"min":[2.2250738585072014e-308,2.2250738585072014e-308]},{"bufferView":5,"byteOffset":0,"componentType":5125,"count":726,"type":"SCALAR","max":[152],"min":[0]}],"buffers":[{"byteLength":210848,"uri":"tile_0270.bin"}],"bufferViews":[{"buffer":0,"byteOffset":0,"byteLength":64056,"target":34962},{"buffer":0,"byteOffset":64056,"byteLength":42704,"target":34962},{"buffer":0,"byteOffset":106760,"byteLength":98124,"target":34963},{"buffer":0,"byteOffset":204884,"byteLength":1836,"target":34962},{"buffer":0,"byteOffset":206720,"byteLength":1224,"target":34962},{"buffer":0,"byteOffset":207944,"byteLength":2904,"target":34963}],"images":[{"uri":"../textures/tile_0270_material_0.jpg"},{"uri":"../textures/tile_0270_material_1.jpg"}],"materials":[{"name":"DefaultMaterial","pbrMetallicRoughness":{"baseColorFactor":[0.6000000238418579,0.6000000238418579,0.6000000238418579,1.0],"metallicFactor":0.0},"extensions":{"KHR_materials_specular":{"specularFactor":1.0,"specularColorFactor":[0.0,0.0,0.0]},"KHR_materials_ior":{"ior":1.0}}},{"name":"material_0_material","pbrMetallicRoughness":{"baseColorTexture":{"index":0},"metallicFactor":0.0},"extensions":{"KHR_materials_specular":{"specularFactor":1.0,"specularColorFactor":[0.0,0.0,0.0]},"KHR_materials_ior":{"ior":1.0}}},{"name":"material_1_material","pbrMetallicRoughness":{"baseColorTexture":{"index":1},"metallicFactor":0.0},"extensions":{"KHR_materials_specular":{"specularFactor":1.0,"specularColorFactor":[0.0,0.0,0.0]},"KHR_materials_ior":{"ior":1.0}}}],"meshes":[{"name":"defaultobject","primitives":[{"mode":4,"material":1,"indices":2,"attributes":{"POSITION":0,"TEXCOORD_0":1}},{"mode":4,"material":2,"indices":5,"attributes":{"POSITION":3,"TEXCOORD_0":4}}]}],"nodes":[{"name":"tile_0270.obj","children":[1]},{"name":"defaultobject","mesh":0}],"samplers":[{},{}],"scenes":[{"nodes":[0]}],"textures":[{"source":0,"sampler":0},{"source":1,"sampler":1}],"scene":0}
