{"asset":{"version":"2.0","generator":"Open Asset Import Library (assimp v6.0.0)"},"extensionsUsed":["KHR_materials_specular","KHR_materials_volume","KHR_materials_ior","FB_ngon_encoding"],"accessors":[{"bufferView":0,"byteOffset":0,"componentType":5126,"count":413,"type":"VEC3","max":[-6.1695876121521,-0.1546851098537445,4.451438903808594],"min":[-7.81971549987793,-0.452301025390625,2.2250738585072014e-308]},{"bufferView":1,"byteOffset":0,"componentType":5126,"count":413,"type":"VEC2","max":[0.658203125,0.9030838012695312],"min":[2.2250738585072014e-308,2.2250738585072014e-308]},{"bufferView":2,"byteOffset":0,"componentType":5125,"count":1986,"type":"SCALAR","max":[412],"min":[0]},{"bufferView":3,"byteOffset":0,"componentType":5126,"count":3418,"type":"VEC3","max":[-6.164765357971191,-0.15978629887104034,4.444431781768799],"min":[-7.730814456939697,-0.4658288359642029,2.2250738585072014e-308]},{"bufferView":4,"byteOffset":0,"componentType":5126,"count":3418,"type":"VEC2","max":[0.697171688079834,0.8523979187011719],"min":[2.2250738585072014e-308,2.2250738585072014e-308]},{"bufferView":5,"byteOffset":0,"componentType":5125,"count":18957,"type":"SCALAR","max":[3417],"min":[0]}],"buffers":[{"byteLength":160392,"uri":"tile_0442.bin"}],"bufferViews":[{"buffer":0,"byteOffset":0,"byteLength":4956,"target":34962},{"buffer":0,"byteOffset":4956,"byteLength":3304,"target":34962},{"buffer":0,"byteOffset":8260,"byteLength":7944,"target":34963},{"buffer":0,"byteOffset":16204,"byteLength":41016,"target":34962},{"buffer":0,"byteOffset":57220,"byteLength":27344,"target":34962},{"buffer":0,"byteOffset":84564,"byteLength":75828,"target":34963}],"images":[{"uri":"../textures/tile_0442_material_0.jpg"},{"uri":"../textures/tile_0442_material_1.jpg"}],"materials":[{"name":"DefaultMaterial","pbrMetallicRoughness":{"baseColorFactor":[0.6000000238418579,0.6000000238418579,0.6000000238418579,1.0],"metallicFactor":0.0},"extensions":{"KHR_materials_specular":{"specularFactor":1.0,"specularColorFactor":[0.0,0.0,0.0]},"KHR_materials_ior":{"ior":1.0}}},{"name":"material_0_material","pbrMetallicRoughness":{"baseColorTexture":{"index":0},"metallicFactor":0.0},"extensions":{"KHR_materials_specular":{"specularFactor":1.0,"specularColorFactor":[0.0,0.0,0.0]},"KHR_materials_ior":{"ior":1.0}}},{"name":"material_1_material","pbrMetallicRoughness":{"baseColorTexture":{"index":1},"metallicFactor":0.0},"extensions":{"KHR_materials_specular":{"specularFactor":1.0,"specularColorFactor":[0.0,0.0,0.0]},"KHR_materials_ior":{"ior":1.0}}}],"meshes":[{"name":"defaultobject","primitives":[{"mode":4,"material":1,"indices":2,"attributes":{"POSITION":0,"TEXCOORD_0":1}},{"mode":4,"material":2,"indices":5,"attributes":{"POSITION":3,"TEXCOORD_0":4}}]}],"nodes":[{"name":"tile_0442.obj","children":[1]},{"name":"defaultobject","mesh":0}],"samplers":[{},{}],"scenes":[{"nodes":[0]}],"textures":[{"source":0,"sampler":0},{"source":1,"sampler":1}],"scene":0}
