{"asset":{"version":"2.0","generator":"Open Asset Import Library (assimp v6.0.0)"},"extensionsUsed":["KHR_materials_specular","KHR_materials_volume","KHR_materials_ior","FB_ngon_encoding"],"accessors":[{"bufferView":0,"byteOffset":0,"componentType":5126,"count":4704,"type":"VEC3","max":[0.0005182987661100924,-0.09572990983724594,4.067458629608154],"min":[-0.27621492743492126,-0.3351914584636688,2.2250738585072014e-308]},{"bufferView":1,"byteOffset":0,"componentType":5126,"count":4704,"type":"VEC2","max":[0.9879059791564941,0.7376194000244141],"min":[2.2250738585072014e-308,2.2250738585072014e-308]},{"bufferView":2,"byteOffset":0,"componentType":5125,"count":21327,"type":"SCALAR","max":[4703],"min":[0]},{"bufferView":3,"byteOffset":0,"componentType":5126,"count":959,"type":"VEC3","max":[-0.009661219082772732,-0.11192438006401062,3.5105667114257812],"min":[-0.22335085272789001,-0.3315592408180237,2.2250738585072014e-308]},{"bufferView":4,"byteOffset":0,"componentType":5126,"count":959,"type":"VEC2","max":[0.8548393249511719,0.5347518920898438],"min":[2.2250738585072014e-308,2.2250738585072014e-308]},{"bufferView":5,"byteOffset":0,"componentType":5125,"count":4866,"type":"SCALAR","max":[958],"min":[0]}],"buffers":[{"byteLength":218032,"uri":"tile_0408.bin"}],"bufferViews":[{"buffer":0,"byteOffset":0,"byteLength":56448,"target":34962},{"buffer":0,"byteOffset":56448,"byteLength":37632,"target":34962},{"buffer":0,"byteOffset":94080,"byteLength":85308,"target":34963},{"buffer":0,"byteOffset":179388,"byteLength":11508,"target":34962},{"buffer":0,"byteOffset":190896,"byteLength":7672,"target":34962},{"buffer":0,"byteOffset":198568,"byteLength":19464,"target":34963}],"images":[{"uri":"../textures/tile_0408_material_0.jpg"},{"uri":"../textures/tile_0408_material_1.jpg"}],"materials":[{"name":"DefaultMaterial","pbrMetallicRoughness":{"baseColorFactor":[0.6000000238418579,0.6000000238418579,0.6000000238418579,1.0],"metallicFactor":0.0},"extensions":{"KHR_materials_specular":{"specularFactor":1.0,"specularColorFactor":[0.0,0.0,0.0]},"KHR_materials_ior":{"ior":1.0}}},{"name":"material_0_material","pbrMetallicRoughness":{"baseColorTexture":{"index":0},"metallicFactor":0.0},"extensions":{"KHR_materials_specular":{"specularFactor":1.0,"specularColorFactor":[0.0,0.0,0.0]},"KHR_materials_ior":{"ior":1.0}}},{"name":"material_1_material","pbrMetallicRoughness":{"baseColorTexture":{"index":1},"metallicFactor":0.0},"extensions":{"KHR_materials_specular":{"specularFactor":1.0,"specularColorFactor":[0.0,0.0,0.0]},"KHR_materials_ior":{"ior":1.0}}}],"meshes":[{"name":"defaultobject","primitives":[{"mode":4,"material":1,"indices":2,"attributes":{"POSITION":0,"TEXCOORD_0":1}},{"mode":4,"material":2,"indices":5,"attributes":{"POSITION":3,"TEXCOORD_0":4}}]}],"nodes":[{"name":"tile_0408.obj","children":[1]},{"name":"defaultobject","mesh":0}],"samplers":[{},{}],"scenes":[{"nodes":[0]}],"textures":[{"source":0,"sampler":0},{"source":1,"sampler":1}],"scene":0}
