{"asset":{"version":"2.0","generator":"Open Asset Import Library (assimp v6.0.0)"},"extensionsUsed":["KHR_materials_specular","KHR_materials_volume","KHR_materials_ior","FB_ngon_encoding"],"accessors":[{"bufferView":0,"byteOffset":0,"componentType":5126,"count":1857,"type":"VEC3","max":[3.4042420387268066,6.095849990844727,4.906391143798828],"min":[2.2250738585072014e-308,2.2250738585072014e-308,2.2250738585072014e-308]},{"bufferView":1,"byteOffset":0,"componentType":5126,"count":1857,"type":"VEC2","max":[0.9953765869140625,0.7882003784179688],"min":[2.2250738585072014e-308,2.2250738585072014e-308]},{"bufferView":2,"byteOffset":0,"componentType":5125,"count":9069,"type":"SCALAR","max":[1856],"min":[0]},{"bufferView":3,"byteOffset":0,"componentType":5126,"count":8813,"type":"VEC3","max":[3.480431079864502,6.095849990844727,4.906391143798828],"min":[2.2250738585072014e-308,2.2250738585072014e-308,2.2250738585072014e-308]},{"bufferView":4,"byteOffset":0,"componentType":5126,"count":8813,"type":"VEC2","max":[0.9431252479553223,0.9886703491210938],"min":[2.2250738585072014e-308,2.2250738585072014e-308]},{"bufferView":5,"byteOffset":0,"componentType":5125,"count":50160,"type":"SCALAR","max":[8812],"min":[0]}],"buffers":[{"byteLength":450316,"uri":"tile_0702.bin"}],"bufferViews":[{"buffer":0,"byteOffset":0,"byteLength":22284,"target":34962},{"buffer":0,"byteOffset":22284,"byteLength":14856,"target":34962},{"buffer":0,"byteOffset":37140,"byteLength":36276,"target":34963},{"buffer":0,"byteOffset":73416,"byteLength":105756,"target":34962},{"buffer":0,"byteOffset":179172,"byteLength":70504,"target":34962},{"buffer":0,"byteOffset":249676,"byteLength":200640,"target":34963}],"images":[{"uri":"../textures/tile_0702_material_0.jpg"},{"uri":"../textures/tile_0702_material_1.jpg"}],"materials":[{"name":"DefaultMaterial","pbrMetallicRoughness":{"baseColorFactor":[0.6000000238418579,0.6000000238418579,0.6000000238418579,1.0],"metallicFactor":0.0},"extensions":{"KHR_materials_specular":{"specularFactor":1.0,"specularColorFactor":[0.0,0.0,0.0]},"KHR_materials_ior":{"ior":1.0}}},{"name":"material_0_material","pbrMetallicRoughness":{"baseColorTexture":{"index":0},"metallicFactor":0.0},"extensions":{"KHR_materials_specular":{"specularFactor":1.0,"specularColorFactor":[0.0,0.0,0.0]},"KHR_materials_ior":{"ior":1.0}}},{"name":"material_1_material","pbrMetallicRoughness":{"baseColorTexture":{"index":1},"metallicFactor":0.0},"extensions":{"KHR_materials_specular":{"specularFactor":1.0,"specularColorFactor":[0.0,0.0,0.0]},"KHR_materials_ior":{"ior":1.0}}}],"meshes":[{"name":"defaultobject","primitives":[{"mode":4,"material":1,"indices":2,"attributes":{"POSITION":0,"TEXCOORD_0":1}},{"mode":4,"material":2,"indices":5,"attributes":{"POSITION":3,"TEXCOORD_0":4}}]}],"nodes":[{"name":"tile_0702.obj","children":[1]},{"name":"defaultobject","mesh":0}],"samplers":[{},{}],"scenes":[{"nodes":[0]}],"textures":[{"source":0,"sampler":0},{"source":1,"sampler":1}],"scene":0}
