{"asset":{"version":"2.0","generator":"Open Asset Import Library (assimp v6.0.0)"},"extensionsUsed":["KHR_materials_specular","KHR_materials_volume","KHR_materials_ior","FB_ngon_encoding"],"accessors":[{"bufferView":0,"byteOffset":0,"componentType":5126,"count":5169,"type":"VEC3","max":[-0.04852619394659996,-4.071789741516113,2.861103057861328],"min":[-0.24992847442626953,-4.550873279571533,2.2250738585072014e-308]},{"bufferView":1,"byteOffset":0,"componentType":5126,"count":5169,"type":"VEC2","max":[0.9922420382499695,0.5652885437011719],"min":[2.2250738585072014e-308,2.2250738585072014e-308]},{"bufferView":2,"byteOffset":0,"componentType":5125,"count":22914,"type":"SCALAR","max":[5168],"min":[0]},{"bufferView":3,"byteOffset":0,"componentType":5126,"count":436,"type":"VEC3","max":[-0.126151904463768,-4.071846008300781,2.801785469055176],"min":[-0.24929578602313995,-4.520293235778809,2.2250738585072014e-308]},{"bufferView":4,"byteOffset":0,"componentType":5126,"count":436,"type":"VEC2","max":[0.6778640747070312,0.6307525634765625],"min":[2.2250738585072014e-308,2.2250738585072014e-308]},{"bufferView":5,"byteOffset":0,"componentType":5125,"count":2241,"type":"SCALAR","max":[435],"min":[0]}],"buffers":[{"byteLength":212720,"uri":"tile_0409.bin"}],"bufferViews":[{"buffer":0,"byteOffset":0,"byteLength":62028,"target":34962},{"buffer":0,"byteOffset":62028,"byteLength":41352,"target":34962},{"buffer":0,"byteOffset":103380,"byteLength":91656,"target":34963},{"buffer":0,"byteOffset":195036,"byteLength":5232,"target":34962},{"buffer":0,"byteOffset":200268,"byteLength":3488,"target":34962},{"buffer":0,"byteOffset":203756,"byteLength":8964,"target":34963}],"images":[{"uri":"../textures/tile_0409_material_0.jpg"},{"uri":"../textures/tile_0409_material_1.jpg"}],"materials":[{"name":"DefaultMaterial","pbrMetallicRoughness":{"baseColorFactor":[0.6000000238418579,0.6000000238418579,0.6000000238418579,1.0],"metallicFactor":0.0},"extensions":{"KHR_materials_specular":{"specularFactor":1.0,"specularColorFactor":[0.0,0.0,0.0]},"KHR_materials_ior":{"ior":1.0}}},{"name":"material_0_material","pbrMetallicRoughness":{"baseColorTexture":{"index":0},"metallicFactor":0.0},"extensions":{"KHR_materials_specular":{"specularFactor":1.0,"specularColorFactor":[0.0,0.0,0.0]},"KHR_materials_ior":{"ior":1.0}}},{"name":"material_1_material","pbrMetallicRoughness":{"baseColorTexture":{"index":1},"metallicFactor":0.0},"extensions":{"KHR_materials_specular":{"specularFactor":1.0,"specularColorFactor":[0.0,0.0,0.0]},"KHR_materials_ior":{"ior":1.0}}}],"meshes":[{"name":"defaultobject","primitives":[{"mode":4,"material":1,"indices":2,"attributes":{"POSITION":0,"TEXCOORD_0":1}},{"mode":4,"material":2,"indices":5,"attributes":{"POSITION":3,"TEXCOORD_0":4}}]}],"nodes":[{"name":"tile_0409.obj","children":[1]},{"name":"defaultobject","mesh":0}],"samplers":[{},{}],"scenes":[{"nodes":[0]}],"textures":[{"source":0,"sampler":0},{"source":1,"sampler":1}],"scene":0}
