{"asset":{"version":"2.0","generator":"Open Asset Import Library (assimp v6.0.0)"},"extensionsUsed":["KHR_materials_specular","KHR_materials_volume","KHR_materials_ior","FB_ngon_encoding"],"accessors":[{"bufferView":0,"byteOffset":0,"componentType":5126,"count":5942,"type":"VEC3","max":[0.37090057134628296,-2.6975462436676025,2.785210609436035],"min":[2.2250738585072014e-308,-3.0294387340545654,2.2250738585072014e-308]},{"bufferView":1,"byteOffset":0,"componentType":5126,"count":5942,"type":"VEC2","max":[0.9939477443695068,0.648406982421875],"min":[2.2250738585072014e-308,2.2250738585072014e-308]},{"bufferView":2,"byteOffset":0,"componentType":5125,"count":26562,"type":"SCALAR","max":[5941],"min":[0]},{"bufferView":3,"byteOffset":0,"componentType":5126,"count":695,"type":"VEC3","max":[0.37095972895622253,-2.6983742713928223,2.697941780090332],"min":[2.2250738585072014e-308,-2.9850656986236572,2.2250738585072014e-308]},{"bufferView":4,"byteOffset":0,"componentType":5126,"count":695,"type":"VEC2","max":[0.7348861694335938,0.7010459899902344],"min":[2.2250738585072014e-308,2.2250738585072014e-308]},{"bufferView":5,"byteOffset":0,"componentType":5125,"count":3393,"type":"SCALAR","max":[694],"min":[0]}],"buffers":[{"byteLength":252560,"uri":"tile_0810.bin"}],"bufferViews":[{"buffer":0,"byteOffset":0,"byteLength":71304,"target":34962},{"buffer":0,"byteOffset":71304,"byteLength":47536,"target":34962},{"buffer":0,"byteOffset":118840,"byteLength":106248,"target":34963},{"buffer":0,"byteOffset":225088,"byteLength":8340,"target":34962},{"buffer":0,"byteOffset":233428,"byteLength":5560,"target":34962},{"buffer":0,"byteOffset":238988,"byteLength":13572,"target":34963}],"images":[{"uri":"../textures/tile_0810_material_0.jpg"},{"uri":"../textures/tile_0810_material_1.jpg"}],"materials":[{"name":"DefaultMaterial","pbrMetallicRoughness":{"baseColorFactor":[0.6000000238418579,0.6000000238418579,0.6000000238418579,1.0],"metallicFactor":0.0},"extensions":{"KHR_materials_specular":{"specularFactor":1.0,"specularColorFactor":[0.0,0.0,0.0]},"KHR_materials_ior":{"ior":1.0}}},{"name":"material_0_material","pbrMetallicRoughness":{"baseColorTexture":{"index":0},"metallicFactor":0.0},"extensions":{"KHR_materials_specular":{"specularFactor":1.0,"specularColorFactor":[0.0,0.0,0.0]},"KHR_materials_ior":{"ior":1.0}}},{"name":"material_1_material","pbrMetallicRoughness":{"baseColorTexture":{"index":1},"metallicFactor":0.0},"extensions":{"KHR_materials_specular":{"specularFactor":1.0,"specularColorFactor":[0.0,0.0,0.0]},"KHR_materials_ior":{"ior":1.0}}}],"meshes":[{"name":"defaultobject","primitives":[{"mode":4,"material":1,"indices":2,"attributes":{"POSITION":0,"TEXCOORD_0":1}},{"mode":4,"material":2,"indices":5,"attributes":{"POSITION":3,"TEXCOORD_0":4}}]}],"nodes":[{"name":"tile_0810.obj","children":[1]},{"name":"defaultobject","mesh":0}],"samplers":[{},{}],"scenes":[{"nodes":[0]}],"textures":[{"source":0,"sampler":0},{"source":1,"sampler":1}],"scene":0}
