{"asset":{"version":"2.0","generator":"Open Asset Import Library (assimp v6.0.0)"},"extensionsUsed":["KHR_materials_specular","KHR_materials_volume","KHR_materials_ior","FB_ngon_encoding"],"accessors":[{"bufferView":0,"byteOffset":0,"componentType":5126,"count":1798,"type":"VEC3","max":[-4.409846782684326,-1.82315993309021,3.5013442039489746],"min":[-5.5767364501953125,-2.1050896644592285,2.2250738585072014e-308]},{"bufferView":1,"byteOffset":0,"componentType":5126,"count":1798,"type":"VEC2","max":[0.9228515625,0.63873291015625],"min":[2.2250738585072014e-308,2.2250738585072014e-308]},{"bufferView":2,"byteOffset":0,"componentType":5125,"count":9243,"type":"SCALAR","max":[1797],"min":[0]},{"bufferView":3,"byteOffset":0,"componentType":5126,"count":2088,"type":"VEC3","max":[-4.410440921783447,-1.8196353912353516,3.4681718349456787],"min":[-5.517035484313965,-2.1050896644592285,2.2250738585072014e-308]},{"bufferView":4,"byteOffset":0,"componentType":5126,"count":2088,"type":"VEC2","max":[0.7241168022155762,0.5416908264160156],"min":[2.2250738585072014e-308,2.2250738585072014e-308]},{"bufferView":5,"byteOffset":0,"componentType":5125,"count":11061,"type":"SCALAR","max":[2087],"min":[0]}],"buffers":[{"byteLength":158936,"uri":"tile_0423.bin"}],"bufferViews":[{"buffer":0,"byteOffset":0,"byteLength":21576,"target":34962},{"buffer":0,"byteOffset":21576,"byteLength":14384,"target":34962},{"buffer":0,"byteOffset":35960,"byteLength":36972,"target":34963},{"buffer":0,"byteOffset":72932,"byteLength":25056,"target":34962},{"buffer":0,"byteOffset":97988,"byteLength":16704,"target":34962},{"buffer":0,"byteOffset":114692,"byteLength":44244,"target":34963}],"images":[{"uri":"../textures/tile_0423_material_0.jpg"},{"uri":"../textures/tile_0423_material_1.jpg"}],"materials":[{"name":"DefaultMaterial","pbrMetallicRoughness":{"baseColorFactor":[0.6000000238418579,0.6000000238418579,0.6000000238418579,1.0],"metallicFactor":0.0},"extensions":{"KHR_materials_specular":{"specularFactor":1.0,"specularColorFactor":[0.0,0.0,0.0]},"KHR_materials_ior":{"ior":1.0}}},{"name":"material_0_material","pbrMetallicRoughness":{"baseColorTexture":{"index":0},"metallicFactor":0.0},"extensions":{"KHR_materials_specular":{"specularFactor":1.0,"specularColorFactor":[0.0,0.0,0.0]},"KHR_materials_ior":{"ior":1.0}}},{"name":"material_1_material","pbrMetallicRoughness":{"baseColorTexture":{"index":1},"metallicFactor":0.0},"extensions":{"KHR_materials_specular":{"specularFactor":1.0,"specularColorFactor":[0.0,0.0,0.0]},"KHR_materials_ior":{"ior":1.0}}}],"meshes":[{"name":"defaultobject","primitives":[{"mode":4,"material":1,"indices":2,"attributes":{"POSITION":0,"TEXCOORD_0":1}},{"mode":4,"material":2,"indices":5,"attributes":{"POSITION":3,"TEXCOORD_0":4}}]}],"nodes":[{"name":"tile_0423.obj","children":[1]},{"name":"defaultobject","mesh":0}],"samplers":[{},{}],"scenes":[{"nodes":[0]}],"textures":[{"source":0,"sampler":0},{"source":1,"sampler":1}],"scene":0}
