{"asset":{"version":"2.0","generator":"Open Asset Import Library (assimp v6.0.0)"},"extensionsUsed":["KHR_materials_specular","KHR_materials_volume","KHR_materials_ior","FB_ngon_encoding"],"accessors":[{"bufferView":0,"byteOffset":0,"componentType":5126,"count":997,"type":"VEC3","max":[-1.6443181037902832,7.787669658660889,5.054253578186035],"min":[-1.8590898513793945,2.2250738585072014e-308,2.2250738585072014e-308]},{"bufferView":1,"byteOffset":0,"componentType":5126,"count":997,"type":"VEC2","max":[0.64453125,0.64959716796875],"min":[2.2250738585072014e-308,2.2250738585072014e-308]},{"bufferView":2,"byteOffset":0,"componentType":5125,"count":4575,"type":"SCALAR","max":[996],"min":[0]},{"bufferView":3,"byteOffset":0,"componentType":5126,"count":2855,"type":"VEC3","max":[-1.6376805305480957,7.78251838684082,5.060319900512695],"min":[-1.8803876638412476,2.2250738585072014e-308,2.2250738585072014e-308]},{"bufferView":4,"byteOffset":0,"componentType":5126,"count":2855,"type":"VEC2","max":[0.5599627494812012,0.5816478729248047],"min":[2.2250738585072014e-308,2.2250738585072014e-308]},{"bufferView":5,"byteOffset":0,"componentType":5125,"count":15822,"type":"SCALAR","max":[2854],"min":[0]}],"buffers":[{"byteLength":158628,"uri":"tile_0547.bin"}],"bufferViews":[{"buffer":0,"byteOffset":0,"byteLength":11964,"target":34962},{"buffer":0,"byteOffset":11964,"byteLength":7976,"target":34962},{"buffer":0,"byteOffset":19940,"byteLength":18300,"target":34963},{"buffer":0,"byteOffset":38240,"byteLength":34260,"target":34962},{"buffer":0,"byteOffset":72500,"byteLength":22840,"target":34962},{"buffer":0,"byteOffset":95340,"byteLength":63288,"target":34963}],"images":[{"uri":"../textures/tile_0547_material_0.jpg"},{"uri":"../textures/tile_0547_material_1.jpg"}],"materials":[{"name":"DefaultMaterial","pbrMetallicRoughness":{"baseColorFactor":[0.6000000238418579,0.6000000238418579,0.6000000238418579,1.0],"metallicFactor":0.0},"extensions":{"KHR_materials_specular":{"specularFactor":1.0,"specularColorFactor":[0.0,0.0,0.0]},"KHR_materials_ior":{"ior":1.0}}},{"name":"material_0_material","pbrMetallicRoughness":{"baseColorTexture":{"index":0},"metallicFactor":0.0},"extensions":{"KHR_materials_specular":{"specularFactor":1.0,"specularColorFactor":[0.0,0.0,0.0]},"KHR_materials_ior":{"ior":1.0}}},{"name":"material_1_material","pbrMetallicRoughness":{"baseColorTexture":{"index":1},"metallicFactor":0.0},"extensions":{"KHR_materials_specular":{"specularFactor":1.0,"specularColorFactor":[0.0,0.0,0.0]},"KHR_materials_ior":{"ior":1.0}}}],"meshes":[{"name":"defaultobject","primitives":[{"mode":4,"material":1,"indices":2,"attributes":{"POSITION":0,"TEXCOORD_0":1}},{"mode":4,"material":2,"indices":5,"attributes":{"POSITION":3,"TEXCOORD_0":4}}]}],"nodes":[{"name":"tile_0547.obj","children":[1]},{"name":"defaultobject","mesh":0}],"samplers":[{},{}],"scenes":[{"nodes":[0]}],"textures":[{"source":0,"sampler":0},{"source":1,"sampler":1}],"scene":0}
