{"asset":{"version":"2.0","generator":"Open Asset Import Library (assimp v6.0.0)"},"extensionsUsed":["KHR_materials_specular","KHR_materials_volume","KHR_materials_ior","FB_ngon_encoding"],"accessors":[{"bufferView":0,"byteOffset":0,"componentType":5126,"count":1623,"type":"VEC3","max":[-2.2923312187194824,-2.754848003387451,2.286376953125],"min":[-2.5410027503967285,-3.0016627311706543,2.2250738585072014e-308]},{"bufferView":1,"byteOffset":0,"componentType":5126,"count":1623,"type":"VEC2","max":[0.8308820724487305,0.5945320129394531],"min":[2.2250738585072014e-308,2.2250738585072014e-308]},{"bufferView":2,"byteOffset":0,"componentType":5125,"count":7926,"type":"SCALAR","max":[1622],"min":[0]},{"bufferView":3,"byteOffset":0,"componentType":5126,"count":2145,"type":"VEC3","max":[-2.2915709018707275,-2.7552077770233154,2.284602642059326],"min":[-2.5426697731018066,-3.0009946823120117,2.2250738585072014e-308]},{"bufferView":4,"byteOffset":0,"componentType":5126,"count":2145,"type":"VEC2","max":[0.6755666732788086,0.49903106689453125],"min":[2.2250738585072014e-308,2.2250738585072014e-308]},{"bufferView":5,"byteOffset":0,"componentType":5125,"count":11061,"type":"SCALAR","max":[2144],"min":[0]}],"buffers":[{"byteLength":151308,"uri":"tile_0324.bin"}],"bufferViews":[{"buffer":0,"byteOffset":0,"byteLength":19476,"target":34962},{"buffer":0,"byteOffset":19476,"byteLength":12984,"target":34962},{"buffer":0,"byteOffset":32460,"byteLength":31704,"target":34963},{"buffer":0,"byteOffset":64164,"byteLength":25740,"target":34962},{"buffer":0,"byteOffset":89904,"byteLength":17160,"target":34962},{"buffer":0,"byteOffset":107064,"byteLength":44244,"target":34963}],"images":[{"uri":"../textures/tile_0324_material_0.jpg"},{"uri":"../textures/tile_0324_material_1.jpg"}],"materials":[{"name":"DefaultMaterial","pbrMetallicRoughness":{"baseColorFactor":[0.6000000238418579,0.6000000238418579,0.6000000238418579,1.0],"metallicFactor":0.0},"extensions":{"KHR_materials_specular":{"specularFactor":1.0,"specularColorFactor":[0.0,0.0,0.0]},"KHR_materials_ior":{"ior":1.0}}},{"name":"material_0_material","pbrMetallicRoughness":{"baseColorTexture":{"index":0},"metallicFactor":0.0},"extensions":{"KHR_materials_specular":{"specularFactor":1.0,"specularColorFactor":[0.0,0.0,0.0]},"KHR_materials_ior":{"ior":1.0}}},{"name":"material_1_material","pbrMetallicRoughness":{"baseColorTexture":{"index":1},"metallicFactor":0.0},"extensions":{"KHR_materials_specular":{"specularFactor":1.0,"specularColorFactor":[0.0,0.0,0.0]},"KHR_materials_ior":{"ior":1.0}}}],"meshes":[{"name":"defaultobject","primitives":[{"mode":4,"material":1,"indices":2,"attributes":{"POSITION":0,"TEXCOORD_0":1}},{"mode":4,"material":2,"indices":5,"attributes":{"POSITION":3,"TEXCOORD_0":4}}]}],"nodes":[{"name":"tile_0324.obj","children":[1]},{"name":"defaultobject","mesh":0}],"samplers":[{},{}],"scenes":[{"nodes":[0]}],"textures":[{"source":0,"sampler":0},{"source":1,"sampler":1}],"scene":0}
