{"asset":{"version":"2.0","generator":"Open Asset Import Library (assimp v6.0.0)"},"extensionsUsed":["KHR_materials_specular","KHR_materials_volume","KHR_materials_ior","FB_ngon_encoding"],"accessors":[{"bufferView":0,"byteOffset":0,"componentType":5126,"count":653,"type":"VEC3","max":[1.0755094289779663,-5.212646007537842,2.8988096714019775],"min":[2.2250738585072014e-308,-6.982977867126465,2.2250738585072014e-308]},{"bufferView":1,"byteOffset":0,"componentType":5126,"count":653,"type":"VEC2","max":[0.505859375,0.7320289611816406],"min":[2.2250738585072014e-308,2.2250738585072014e-308]},{"bufferView":2,"byteOffset":0,"componentType":5125,"count":2862,"type":"SCALAR","max":[652],"min":[0]},{"bufferView":3,"byteOffset":0,"componentType":5126,"count":3922,"type":"VEC3","max":[1.1025900840759277,-5.210336208343506,3.0015571117401123],"min":[2.2250738585072014e-308,-6.9885334968566895,2.2250738585072014e-308]},{"bufferView":4,"byteOffset":0,"componentType":5126,"count":3922,"type":"VEC2","max":[0.850616455078125,0.8405838012695312],"min":[2.2250738585072014e-308,2.2250738585072014e-308]},{"bufferView":5,"byteOffset":0,"componentType":5125,"count":21264,"type":"SCALAR","max":[3921],"min":[0]}],"buffers":[{"byteLength":188004,"uri":"tile_0837.bin"}],"bufferViews":[{"buffer":0,"byteOffset":0,"byteLength":7836,"target":34962},{"buffer":0,"byteOffset":7836,"byteLength":5224,"target":34962},{"buffer":0,"byteOffset":13060,"byteLength":11448,"target":34963},{"buffer":0,"byteOffset":24508,"byteLength":47064,"target":34962},{"buffer":0,"byteOffset":71572,"byteLength":31376,"target":34962},{"buffer":0,"byteOffset":102948,"byteLength":85056,"target":34963}],"images":[{"uri":"../textures/tile_0837_material_0.jpg"},{"uri":"../textures/tile_0837_material_1.jpg"}],"materials":[{"name":"DefaultMaterial","pbrMetallicRoughness":{"baseColorFactor":[0.6000000238418579,0.6000000238418579,0.6000000238418579,1.0],"metallicFactor":0.0},"extensions":{"KHR_materials_specular":{"specularFactor":1.0,"specularColorFactor":[0.0,0.0,0.0]},"KHR_materials_ior":{"ior":1.0}}},{"name":"material_0_material","pbrMetallicRoughness":{"baseColorTexture":{"index":0},"metallicFactor":0.0},"extensions":{"KHR_materials_specular":{"specularFactor":1.0,"specularColorFactor":[0.0,0.0,0.0]},"KHR_materials_ior":{"ior":1.0}}},{"name":"material_1_material","pbrMetallicRoughness":{"baseColorTexture":{"index":1},"metallicFactor":0.0},"extensions":{"KHR_materials_specular":{"specularFactor":1.0,"specularColorFactor":[0.0,0.0,0.0]},"KHR_materials_ior":{"ior":1.0}}}],"meshes":[{"name":"defaultobject","primitives":[{"mode":4,"material":1,"indices":2,"attributes":{"POSITION":0,"TEXCOORD_0":1}},{"mode":4,"material":2,"indices":5,"attributes":{"POSITION":3,"TEXCOORD_0":4}}]}],"nodes":[{"name":"tile_0837.obj","children":[1]},{"name":"defaultobject","mesh":0}],"samplers":[{},{}],"scenes":[{"nodes":[0]}],"textures":[{"source":0,"sampler":0},{"source":1,"sampler":1}],"scene":0}
