{"asset":{"version":"2.0","generator":"Open Asset Import Library (assimp v6.0.0)"},"extensionsUsed":["KHR_materials_specular","KHR_materials_volume","KHR_materials_ior","FB_ngon_encoding"],"accessors":[{"bufferView":0,"byteOffset":0,"componentType":5126,"count":1261,"type":"VEC3","max":[-0.5975990295410156,-5.593991756439209,2.443199396133423],"min":[-0.7920759916305542,-7.0644683837890625,2.2250738585072014e-308]},{"bufferView":1,"byteOffset":0,"componentType":5126,"count":1261,"type":"VEC2","max":[0.9878556728363037,0.48435211181640625],"min":[2.2250738585072014e-308,2.2250738585072014e-308]},{"bufferView":2,"byteOffset":0,"componentType":5125,"count":5163,"type":"SCALAR","max":[1260],"min":[0]},{"bufferView":3,"byteOffset":0,"componentType":5126,"count":3691,"type":"VEC3","max":[-0.5829437971115112,-5.595590591430664,2.6148436069488525],"min":[-0.8385735154151917,-7.052942276000977,2.2250738585072014e-308]},{"bufferView":4,"byteOffset":0,"componentType":5126,"count":3691,"type":"VEC2","max":[0.9928207397460938,0.9099597930908203],"min":[2.2250738585072014e-308,2.2250738585072014e-308]},{"bufferView":5,"byteOffset":0,"componentType":5125,"count":19227,"type":"SCALAR","max":[3690],"min":[0]}],"buffers":[{"byteLength":196600,"uri":"tile_0026.bin"}],"bufferViews":[{"buffer":0,"byteOffset":0,"byteLength":15132,"target":34962},{"buffer":0,"byteOffset":15132,"byteLength":10088,"target":34962},{"buffer":0,"byteOffset":25220,"byteLength":20652,"target":34963},{"buffer":0,"byteOffset":45872,"byteLength":44292,"target":34962},{"buffer":0,"byteOffset":90164,"byteLength":29528,"target":34962},{"buffer":0,"byteOffset":119692,"byteLength":76908,"target":34963}],"images":[{"uri":"../textures/tile_0026_material_0.jpg"},{"uri":"../textures/tile_0026_material_1.jpg"}],"materials":[{"name":"DefaultMaterial","pbrMetallicRoughness":{"baseColorFactor":[0.6000000238418579,0.6000000238418579,0.6000000238418579,1.0],"metallicFactor":0.0},"extensions":{"KHR_materials_specular":{"specularFactor":1.0,"specularColorFactor":[0.0,0.0,0.0]},"KHR_materials_ior":{"ior":1.0}}},{"name":"material_0_material","pbrMetallicRoughness":{"baseColorTexture":{"index":0},"metallicFactor":0.0},"extensions":{"KHR_materials_specular":{"specularFactor":1.0,"specularColorFactor":[0.0,0.0,0.0]},"KHR_materials_ior":{"ior":1.0}}},{"name":"material_1_material","pbrMetallicRoughness":{"baseColorTexture":{"index":1},"metallicFactor":0.0},"extensions":{"KHR_materials_specular":{"specularFactor":1.0,"specularColorFactor":[0.0,0.0,0.0]},"KHR_materials_ior":{"ior":1.0}}}],"meshes":[{"name":"defaultobject","primitives":[{"mode":4,"material":1,"indices":2,"attributes":{"POSITION":0,"TEXCOORD_0":1}},{"mode":4,"material":2,"indices":5,"attributes":{"POSITION":3,"TEXCOORD_0":4}}]}],"nodes":[{"name":"tile_0026.obj","children":[1]},{"name":"defaultobject","mesh":0}],"samplers":[{},{}],"scenes":[{"nodes":[0]}],"textures":[{"source":0,"sampler":0},{"source":1,"sampler":1}],"scene":0}
