{"asset":{"version":"2.0","generator":"Open Asset Import Library (assimp v6.0.0)"},"extensionsUsed":["KHR_materials_specular","KHR_materials_volume","KHR_materials_ior","FB_ngon_encoding"],"accessors":[{"bufferView":0,"byteOffset":0,"componentType":5126,"count":3649,"type":"VEC3","max":[0.7570939064025879,5.075834274291992,4.73322868347168],"min":[2.2250738585072014e-308,2.2250738585072014e-308,2.2250738585072014e-308]},{"bufferView":1,"byteOffset":0,"componentType":5126,"count":3649,"type":"VEC2","max":[0.9941196441650391,0.7371788024902344],"min":[2.2250738585072014e-308,2.2250738585072014e-308]},{"bufferView":2,"byteOffset":0,"componentType":5125,"count":16023,"type":"SCALAR","max":[3648],"min":[0]},{"bufferView":3,"byteOffset":0,"componentType":5126,"count":2330,"type":"VEC3","max":[0.7748181819915771,5.096297264099121,4.7072529792785645],"min":[2.2250738585072014e-308,2.2250738585072014e-308,2.2250738585072014e-308]},{"bufferView":4,"byteOffset":0,"componentType":5126,"count":2330,"type":"VEC2","max":[0.9249467849731445,0.5442962646484375],"min":[2.2250738585072014e-308,2.2250738585072014e-308]},{"bufferView":5,"byteOffset":0,"componentType":5125,"count":11967,"type":"SCALAR","max":[2329],"min":[0]}],"buffers":[{"byteLength":231540,"uri":"tile_0693.bin"}],"bufferViews":[{"buffer":0,"byteOffset":0,"byteLength":43788,"target":34962},{"buffer":0,"byteOffset":43788,"byteLength":29192,"target":34962},{"buffer":0,"byteOffset":72980,"byteLength":64092,"target":34963},{"buffer":0,"byteOffset":137072,"byteLength":27960,"target":34962},{"buffer":0,"byteOffset":165032,"byteLength":18640,"target":34962},{"buffer":0,"byteOffset":183672,"byteLength":47868,"target":34963}],"images":[{"uri":"../textures/tile_0693_material_0.jpg"},{"uri":"../textures/tile_0693_material_1.jpg"}],"materials":[{"name":"DefaultMaterial","pbrMetallicRoughness":{"baseColorFactor":[0.6000000238418579,0.6000000238418579,0.6000000238418579,1.0],"metallicFactor":0.0},"extensions":{"KHR_materials_specular":{"specularFactor":1.0,"specularColorFactor":[0.0,0.0,0.0]},"KHR_materials_ior":{"ior":1.0}}},{"name":"material_0_material","pbrMetallicRoughness":{"baseColorTexture":{"index":0},"metallicFactor":0.0},"extensions":{"KHR_materials_specular":{"specularFactor":1.0,"specularColorFactor":[0.0,0.0,0.0]},"KHR_materials_ior":{"ior":1.0}}},{"name":"material_1_material","pbrMetallicRoughness":{"baseColorTexture":{"index":1},"metallicFactor":0.0},"extensions":{"KHR_materials_specular":{"specularFactor":1.0,"specularColorFactor":[0.0,0.0,0.0]},"KHR_materials_ior":{"ior":1.0}}}],"meshes":[{"name":"defaultobject","primitives":[{"mode":4,"material":1,"indices":2,"attributes":{"POSITION":0,"TEXCOORD_0":1}},{"mode":4,"material":2,"indices":5,"attributes":{"POSITION":3,"TEXCOORD_0":4}}]}],"nodes":[{"name":"tile_0693.obj","children":[1]},{"name":"defaultobject","mesh":0}],"samplers":[{},{}],"scenes":[{"nodes":[0]}],"textures":[{"source":0,"sampler":0},{"source":1,"sampler":1}],"scene":0}
