{"asset":{"version":"2.0","generator":"Open Asset Import Library (assimp v6.0.0)"},"extensionsUsed":["KHR_materials_specular","KHR_materials_volume","KHR_materials_ior","FB_ngon_encoding"],"accessors":[{"bufferView":0,"byteOffset":0,"componentType":5126,"count":5446,"type":"VEC3","max":[-1.534595012664795,-0.031291477382183075,4.131053447723389],"min":[-1.8065623044967651,-0.19188740849494934,2.2250738585072014e-308]},{"bufferView":1,"byteOffset":0,"componentType":5126,"count":5446,"type":"VEC2","max":[0.9884543418884277,0.6008377075195312],"min":[2.2250738585072014e-308,2.2250738585072014e-308]},{"bufferView":2,"byteOffset":0,"componentType":5125,"count":24963,"type":"SCALAR","max":[5445],"min":[0]},{"bufferView":3,"byteOffset":0,"componentType":5126,"count":1176,"type":"VEC3","max":[-1.5491664409637451,-0.03165649250149727,3.367785930633545],"min":[-1.806234359741211,-0.18808585405349731,2.2250738585072014e-308]},{"bufferView":4,"byteOffset":0,"componentType":5126,"count":1176,"type":"VEC2","max":[0.5137255191802979,0.6992073059082031],"min":[2.2250738585072014e-308,2.2250738585072014e-308]},{"bufferView":5,"byteOffset":0,"componentType":5125,"count":5562,"type":"SCALAR","max":[1175],"min":[0]}],"buffers":[{"byteLength":254540,"uri":"tile_0465.bin"}],"bufferViews":[{"buffer":0,"byteOffset":0,"byteLength":65352,"target":34962},{"buffer":0,"byteOffset":65352,"byteLength":43568,"target":34962},{"buffer":0,"byteOffset":108920,"byteLength":99852,"target":34963},{"buffer":0,"byteOffset":208772,"byteLength":14112,"target":34962},{"buffer":0,"byteOffset":222884,"byteLength":9408,"target":34962},{"buffer":0,"byteOffset":232292,"byteLength":22248,"target":34963}],"images":[{"uri":"../textures/tile_0465_material_0.jpg"},{"uri":"../textures/tile_0465_material_1.jpg"}],"materials":[{"name":"DefaultMaterial","pbrMetallicRoughness":{"baseColorFactor":[0.6000000238418579,0.6000000238418579,0.6000000238418579,1.0],"metallicFactor":0.0},"extensions":{"KHR_materials_specular":{"specularFactor":1.0,"specularColorFactor":[0.0,0.0,0.0]},"KHR_materials_ior":{"ior":1.0}}},{"name":"material_0_material","pbrMetallicRoughness":{"baseColorTexture":{"index":0},"metallicFactor":0.0},"extensions":{"KHR_materials_specular":{"specularFactor":1.0,"specularColorFactor":[0.0,0.0,0.0]},"KHR_materials_ior":{"ior":1.0}}},{"name":"material_1_material","pbrMetallicRoughness":{"baseColorTexture":{"index":1},"metallicFactor":0.0},"extensions":{"KHR_materials_specular":{"specularFactor":1.0,"specularColorFactor":[0.0,0.0,0.0]},"KHR_materials_ior":{"ior":1.0}}}],"meshes":[{"name":"defaultobject","primitives":[{"mode":4,"material":1,"indices":2,"attributes":{"POSITION":0,"TEXCOORD_0":1}},{"mode":4,"material":2,"indices":5,"attributes":{"POSITION":3,"TEXCOORD_0":4}}]}],"nodes":[{"name":"tile_0465.obj","children":[1]},{"name":"defaultobject","mesh":0}],"samplers":[{},{}],"scenes":[{"nodes":[0]}],"textures":[{"source":0,"sampler":0},{"source":1,"sampler":1}],"scene":0}
