{"asset":{"version":"2.0","generator":"Open Asset Import Library (assimp v6.0.0)"},"extensionsUsed":["KHR_materials_specular","KHR_materials_volume","KHR_materials_ior","FB_ngon_encoding"],"accessors":[{"bufferView":0,"byteOffset":0,"componentType":5126,"count":2428,"type":"VEC3","max":[-0.008217120543122292,-0.5222191214561462,3.307654619216919],"min":[-0.20127028226852417,-0.782008707523346,2.2250738585072014e-308]},{"bufferView":1,"byteOffset":0,"componentType":5126,"count":2428,"type":"VEC2","max":[0.9760894775390625,0.6342315673828125],"min":[2.2250738585072014e-308,2.2250738585072014e-308]},{"bufferView":2,"byteOffset":0,"componentType":5125,"count":10908,"type":"SCALAR","max":[2427],"min":[0]},{"bufferView":3,"byteOffset":0,"componentType":5126,"count":1779,"type":"VEC3","max":[-0.008582260459661484,-0.5222191214561462,3.301025152206421],"min":[-0.1963733285665512,-0.7824700474739075,2.2250738585072014e-308]},{"bufferView":4,"byteOffset":0,"componentType":5126,"count":1779,"type":"VEC2","max":[0.7816987037658691,0.6796188354492188],"min":[2.2250738585072014e-308,2.2250738585072014e-308]},{"bufferView":5,"byteOffset":0,"componentType":5125,"count":9321,"type":"SCALAR","max":[1778],"min":[0]}],"buffers":[{"byteLength":165056,"uri":"tile_0474.bin"}],"bufferViews":[{"buffer":0,"byteOffset":0,"byteLength":29136,"target":34962},{"buffer":0,"byteOffset":29136,"byteLength":19424,"target":34962},{"buffer":0,"byteOffset":48560,"byteLength":43632,"target":34963},{"buffer":0,"byteOffset":92192,"byteLength":21348,"target":34962},{"buffer":0,"byteOffset":113540,"byteLength":14232,"target":34962},{"buffer":0,"byteOffset":127772,"byteLength":37284,"target":34963}],"images":[{"uri":"../textures/tile_0474_material_0.jpg"},{"uri":"../textures/tile_0474_material_1.jpg"}],"materials":[{"name":"DefaultMaterial","pbrMetallicRoughness":{"baseColorFactor":[0.6000000238418579,0.6000000238418579,0.6000000238418579,1.0],"metallicFactor":0.0},"extensions":{"KHR_materials_specular":{"specularFactor":1.0,"specularColorFactor":[0.0,0.0,0.0]},"KHR_materials_ior":{"ior":1.0}}},{"name":"material_0_material","pbrMetallicRoughness":{"baseColorTexture":{"index":0},"metallicFactor":0.0},"extensions":{"KHR_materials_specular":{"specularFactor":1.0,"specularColorFactor":[0.0,0.0,0.0]},"KHR_materials_ior":{"ior":1.0}}},{"name":"material_1_material","pbrMetallicRoughness":{"baseColorTexture":{"index":1},"metallicFactor":0.0},"extensions":{"KHR_materials_specular":{"specularFactor":1.0,"specularColorFactor":[0.0,0.0,0.0]},"KHR_materials_ior":{"ior":1.0}}}],"meshes":[{"name":"defaultobject","primitives":[{"mode":4,"material":1,"indices":2,"attributes":{"POSITION":0,"TEXCOORD_0":1}},{"mode":4,"material":2,"indices":5,"attributes":{"POSITION":3,"TEXCOORD_0":4}}]}],"nodes":[{"name":"tile_0474.obj","children":[1]},{"name":"defaultobject","mesh":0}],"samplers":[{},{}],"scenes":[{"nodes":[0]}],"textures":[{"source":0,"sampler":0},{"source":1,"sampler":1}],"scene":0}
