{"asset":{"version":"2.0","generator":"Open Asset Import Library (assimp v6.0.0)"},"extensionsUsed":["KHR_materials_specular","KHR_materials_volume","KHR_materials_ior","FB_ngon_encoding"],"accessors":[{"bufferView":0,"byteOffset":0,"componentType":5126,"count":2232,"type":"VEC3","max":[-2.1334543228149414,-4.478886604309082,2.426914691925049],"min":[-2.2985827922821045,-5.052162170410156,2.2250738585072014e-308]},{"bufferView":1,"byteOffset":0,"componentType":5126,"count":2232,"type":"VEC2","max":[0.9812979698181152,0.8272132873535156],"min":[2.2250738585072014e-308,2.2250738585072014e-308]},{"bufferView":2,"byteOffset":0,"componentType":5125,"count":9867,"type":"SCALAR","max":[2231],"min":[0]},{"bufferView":3,"byteOffset":0,"componentType":5126,"count":2715,"type":"VEC3","max":[-2.1332786083221436,-4.47833776473999,2.4300241470336914],"min":[-2.298870325088501,-5.05316162109375,2.2250738585072014e-308]},{"bufferView":4,"byteOffset":0,"componentType":5126,"count":2715,"type":"VEC2","max":[0.9378533363342285,0.9511871337890625],"min":[2.2250738585072014e-308,2.2250738585072014e-308]},{"bufferView":5,"byteOffset":0,"componentType":5125,"count":13479,"type":"SCALAR","max":[2714],"min":[0]}],"buffers":[{"byteLength":192324,"uri":"tile_0384.bin"}],"bufferViews":[{"buffer":0,"byteOffset":0,"byteLength":26784,"target":34962},{"buffer":0,"byteOffset":26784,"byteLength":17856,"target":34962},{"buffer":0,"byteOffset":44640,"byteLength":39468,"target":34963},{"buffer":0,"byteOffset":84108,"byteLength":32580,"target":34962},{"buffer":0,"byteOffset":116688,"byteLength":21720,"target":34962},{"buffer":0,"byteOffset":138408,"byteLength":53916,"target":34963}],"images":[{"uri":"../textures/tile_0384_material_0.jpg"},{"uri":"../textures/tile_0384_material_1.jpg"}],"materials":[{"name":"DefaultMaterial","pbrMetallicRoughness":{"baseColorFactor":[0.6000000238418579,0.6000000238418579,0.6000000238418579,1.0],"metallicFactor":0.0},"extensions":{"KHR_materials_specular":{"specularFactor":1.0,"specularColorFactor":[0.0,0.0,0.0]},"KHR_materials_ior":{"ior":1.0}}},{"name":"material_0_material","pbrMetallicRoughness":{"baseColorTexture":{"index":0},"metallicFactor":0.0},"extensions":{"KHR_materials_specular":{"specularFactor":1.0,"specularColorFactor":[0.0,0.0,0.0]},"KHR_materials_ior":{"ior":1.0}}},{"name":"material_1_material","pbrMetallicRoughness":{"baseColorTexture":{"index":1},"metallicFactor":0.0},"extensions":{"KHR_materials_specular":{"specularFactor":1.0,"specularColorFactor":[0.0,0.0,0.0]},"KHR_materials_ior":{"ior":1.0}}}],"meshes":[{"name":"defaultobject","primitives":[{"mode":4,"material":1,"indices":2,"attributes":{"POSITION":0,"TEXCOORD_0":1}},{"mode":4,"material":2,"indices":5,"attributes":{"POSITION":3,"TEXCOORD_0":4}}]}],"nodes":[{"name":"tile_0384.obj","children":[1]},{"name":"defaultobject","mesh":0}],"samplers":[{},{}],"scenes":[{"nodes":[0]}],"textures":[{"source":0,"sampler":0},{"source":1,"sampler":1}],"scene":0}
