{"asset":{"version":"2.0","generator":"Open Asset Import Library (assimp v6.0.0)"},"extensionsUsed":["KHR_materials_specular","KHR_materials_volume","KHR_materials_ior","FB_ngon_encoding"],"accessors":[{"bufferView":0,"byteOffset":0,"componentType":5126,"count":4769,"type":"VEC3","max":[-1.2821428775787354,-0.1655883491039276,4.122727394104004],"min":[-1.5783741474151611,-0.35401013493537903,2.2250738585072014e-308]},{"bufferView":1,"byteOffset":0,"componentType":5126,"count":4769,"type":"VEC2","max":[0.9930566549301147,0.6053104400634766],"min":[2.2250738585072014e-308,2.2250738585072014e-308]},{"bufferView":2,"byteOffset":0,"componentType":5125,"count":21186,"type":"SCALAR","max":[4768],"min":[0]},{"bufferView":3,"byteOffset":0,"componentType":5126,"count":1958,"type":"VEC3","max":[-1.2719805240631104,-0.15591417253017426,4.100033283233643],"min":[-1.574764370918274,-0.3429362177848816,2.2250738585072014e-308]},{"bufferView":4,"byteOffset":0,"componentType":5126,"count":1958,"type":"VEC2","max":[0.5835680961608887,0.6591720581054688],"min":[2.2250738585072014e-308,2.2250738585072014e-308]},{"bufferView":5,"byteOffset":0,"componentType":5125,"count":10179,"type":"SCALAR","max":[1957],"min":[0]}],"buffers":[{"byteLength":260000,"uri":"tile_0468.bin"}],"bufferViews":[{"buffer":0,"byteOffset":0,"byteLength":57228,"target":34962},{"buffer":0,"byteOffset":57228,"byteLength":38152,"target":34962},{"buffer":0,"byteOffset":95380,"byteLength":84744,"target":34963},{"buffer":0,"byteOffset":180124,"byteLength":23496,"target":34962},{"buffer":0,"byteOffset":203620,"byteLength":15664,"target":34962},{"buffer":0,"byteOffset":219284,"byteLength":40716,"target":34963}],"images":[{"uri":"../textures/tile_0468_material_0.jpg"},{"uri":"../textures/tile_0468_material_1.jpg"}],"materials":[{"name":"DefaultMaterial","pbrMetallicRoughness":{"baseColorFactor":[0.6000000238418579,0.6000000238418579,0.6000000238418579,1.0],"metallicFactor":0.0},"extensions":{"KHR_materials_specular":{"specularFactor":1.0,"specularColorFactor":[0.0,0.0,0.0]},"KHR_materials_ior":{"ior":1.0}}},{"name":"material_0_material","pbrMetallicRoughness":{"baseColorTexture":{"index":0},"metallicFactor":0.0},"extensions":{"KHR_materials_specular":{"specularFactor":1.0,"specularColorFactor":[0.0,0.0,0.0]},"KHR_materials_ior":{"ior":1.0}}},{"name":"material_1_material","pbrMetallicRoughness":{"baseColorTexture":{"index":1},"metallicFactor":0.0},"extensions":{"KHR_materials_specular":{"specularFactor":1.0,"specularColorFactor":[0.0,0.0,0.0]},"KHR_materials_ior":{"ior":1.0}}}],"meshes":[{"name":"defaultobject","primitives":[{"mode":4,"material":1,"indices":2,"attributes":{"POSITION":0,"TEXCOORD_0":1}},{"mode":4,"material":2,"indices":5,"attributes":{"POSITION":3,"TEXCOORD_0":4}}]}],"nodes":[{"name":"tile_0468.obj","children":[1]},{"name":"defaultobject","mesh":0}],"samplers":[{},{}],"scenes":[{"nodes":[0]}],"textures":[{"source":0,"sampler":0},{"source":1,"sampler":1}],"scene":0}
