{"asset":{"version":"2.0","generator":"Open Asset Import Library (assimp v6.0.0)"},"extensionsUsed":["KHR_materials_specular","KHR_materials_volume","KHR_materials_ior","FB_ngon_encoding"],"accessors":[{"bufferView":0,"byteOffset":0,"componentType":5126,"count":2289,"type":"VEC3","max":[-5.525940418243408,2.7592828273773193,4.855405330657959],"min":[-6.235694885253906,2.2250738585072014e-308,2.2250738585072014e-308]},{"bufferView":1,"byteOffset":0,"componentType":5126,"count":2289,"type":"VEC2","max":[0.9924774169921875,0.8454132080078125],"min":[2.2250738585072014e-308,2.2250738585072014e-308]},{"bufferView":2,"byteOffset":0,"componentType":5125,"count":9765,"type":"SCALAR","max":[2288],"min":[0]},{"bufferView":3,"byteOffset":0,"componentType":5126,"count":4193,"type":"VEC3","max":[-5.52620267868042,2.7614521980285645,4.872378826141357],"min":[-6.2363996505737305,2.2250738585072014e-308,2.2250738585072014e-308]},{"bufferView":4,"byteOffset":0,"componentType":5126,"count":4193,"type":"VEC2","max":[0.8873944282531738,0.9525661468505859],"min":[2.2250738585072014e-308,2.2250738585072014e-308]},{"bufferView":5,"byteOffset":0,"componentType":5125,"count":21585,"type":"SCALAR","max":[4192],"min":[0]}],"buffers":[{"byteLength":255040,"uri":"tile_0487.bin"}],"bufferViews":[{"buffer":0,"byteOffset":0,"byteLength":27468,"target":34962},{"buffer":0,"byteOffset":27468,"byteLength":18312,"target":34962},{"buffer":0,"byteOffset":45780,"byteLength":39060,"target":34963},{"buffer":0,"byteOffset":84840,"byteLength":50316,"target":34962},{"buffer":0,"byteOffset":135156,"byteLength":33544,"target":34962},{"buffer":0,"byteOffset":168700,"byteLength":86340,"target":34963}],"images":[{"uri":"../textures/tile_0487_material_0.jpg"},{"uri":"../textures/tile_0487_material_1.jpg"}],"materials":[{"name":"DefaultMaterial","pbrMetallicRoughness":{"baseColorFactor":[0.6000000238418579,0.6000000238418579,0.6000000238418579,1.0],"metallicFactor":0.0},"extensions":{"KHR_materials_specular":{"specularFactor":1.0,"specularColorFactor":[0.0,0.0,0.0]},"KHR_materials_ior":{"ior":1.0}}},{"name":"material_0_material","pbrMetallicRoughness":{"baseColorTexture":{"index":0},"metallicFactor":0.0},"extensions":{"KHR_materials_specular":{"specularFactor":1.0,"specularColorFactor":[0.0,0.0,0.0]},"KHR_materials_ior":{"ior":1.0}}},{"name":"material_1_material","pbrMetallicRoughness":{"baseColorTexture":{"index":1},"metallicFactor":0.0},"extensions":{"KHR_materials_specular":{"specularFactor":1.0,"specularColorFactor":[0.0,0.0,0.0]},"KHR_materials_ior":{"ior":1.0}}}],"meshes":[{"name":"defaultobject","primitives":[{"mode":4,"material":1,"indices":2,"attributes":{"POSITION":0,"TEXCOORD_0":1}},{"mode":4,"material":2,"indices":5,"attributes":{"POSITION":3,"TEXCOORD_0":4}}]}],"nodes":[{"name":"tile_0487.obj","children":[1]},{"name":"defaultobject","mesh":0}],"samplers":[{},{}],"scenes":[{"nodes":[0]}],"textures":[{"source":0,"sampler":0},{"source":1,"sampler":1}],"scene":0}
