{"asset":{"version":"2.0","generator":"Open Asset Import Library (assimp v6.0.0)"},"extensionsUsed":["KHR_materials_specular","KHR_materials_volume","KHR_materials_ior","FB_ngon_encoding"],"accessors":[{"bufferView":0,"byteOffset":0,"componentType":5126,"count":6140,"type":"VEC3","max":[-3.947871446609497,0.06593047082424164,4.077239513397217],"min":[-4.416410446166992,-0.28532806038856506,2.2250738585072014e-308]},{"bufferView":1,"byteOffset":0,"componentType":5126,"count":6140,"type":"VEC2","max":[0.9886531829833984,0.6520252227783203],"min":[2.2250738585072014e-308,2.2250738585072014e-308]},{"bufferView":2,"byteOffset":0,"componentType":5125,"count":27357,"type":"SCALAR","max":[6139],"min":[0]},{"bufferView":3,"byteOffset":0,"componentType":5126,"count":150,"type":"VEC3","max":[-4.357213497161865,-0.04935252293944359,3.9624366760253906],"min":[-4.414400100708008,-0.15836545825004578,2.2250738585072014e-308]},{"bufferView":4,"byteOffset":0,"componentType":5126,"count":150,"type":"VEC2","max":[0.5560207366943359,0.6179885864257812],"min":[2.2250738585072014e-308,2.2250738585072014e-308]},{"bufferView":5,"byteOffset":0,"componentType":5125,"count":711,"type":"SCALAR","max":[149],"min":[0]}],"buffers":[{"byteLength":238072,"uri":"tile_0127.bin"}],"bufferViews":[{"buffer":0,"byteOffset":0,"byteLength":73680,"target":34962},{"buffer":0,"byteOffset":73680,"byteLength":49120,"target":34962},{"buffer":0,"byteOffset":122800,"byteLength":109428,"target":34963},{"buffer":0,"byteOffset":232228,"byteLength":1800,"target":34962},{"buffer":0,"byteOffset":234028,"byteLength":1200,"target":34962},{"buffer":0,"byteOffset":235228,"byteLength":2844,"target":34963}],"images":[{"uri":"../textures/tile_0127_material_0.jpg"},{"uri":"../textures/tile_0127_material_1.jpg"}],"materials":[{"name":"DefaultMaterial","pbrMetallicRoughness":{"baseColorFactor":[0.6000000238418579,0.6000000238418579,0.6000000238418579,1.0],"metallicFactor":0.0},"extensions":{"KHR_materials_specular":{"specularFactor":1.0,"specularColorFactor":[0.0,0.0,0.0]},"KHR_materials_ior":{"ior":1.0}}},{"name":"material_0_material","pbrMetallicRoughness":{"baseColorTexture":{"index":0},"metallicFactor":0.0},"extensions":{"KHR_materials_specular":{"specularFactor":1.0,"specularColorFactor":[0.0,0.0,0.0]},"KHR_materials_ior":{"ior":1.0}}},{"name":"material_1_material","pbrMetallicRoughness":{"baseColorTexture":{"index":1},"metallicFactor":0.0},"extensions":{"KHR_materials_specular":{"specularFactor":1.0,"specularColorFactor":[0.0,0.0,0.0]},"KHR_materials_ior":{"ior":1.0}}}],"meshes":[{"name":"defaultobject","primitives":[{"mode":4,"material":1,"indices":2,"attributes":{"POSITION":0,"TEXCOORD_0":1}},{"mode":4,"material":2,"indices":5,"attributes":{"POSITION":3,"TEXCOORD_0":4}}]}],"nodes":[{"name":"tile_0127.obj","children":[1]},{"name":"defaultobject","mesh":0}],"samplers":[{},{}],"scenes":[{"nodes":[0]}],"textures":[{"source":0,"sampler":0},{"source":1,"sampler":1}],"scene":0}
