{"asset":{"version":"2.0","generator":"Open Asset Import Library (assimp v6.0.0)"},"extensionsUsed":["KHR_materials_specular","KHR_materials_volume","KHR_materials_ior","FB_ngon_encoding"],"accessors":[{"bufferView":0,"byteOffset":0,"componentType":5126,"count":1574,"type":"VEC3","max":[3.2231533527374268,2.6136388778686523,4.040724754333496],"min":[2.2250738585072014e-308,2.2250738585072014e-308,2.2250738585072014e-308]},{"bufferView":1,"byteOffset":0,"componentType":5126,"count":1574,"type":"VEC2","max":[0.9867534637451172,0.6402130126953125],"min":[2.2250738585072014e-308,2.2250738585072014e-308]},{"bufferView":2,"byteOffset":0,"componentType":5125,"count":6798,"type":"SCALAR","max":[1573],"min":[0]},{"bufferView":3,"byteOffset":0,"componentType":5126,"count":3160,"type":"VEC3","max":[3.225008964538574,2.614717721939087,4.042162895202637],"min":[2.2250738585072014e-308,2.2250738585072014e-308,2.2250738585072014e-308]},{"bufferView":4,"byteOffset":0,"componentType":5126,"count":3160,"type":"VEC2","max":[0.9175252914428711,0.5861244201660156],"min":[2.2250738585072014e-308,2.2250738585072014e-308]},{"bufferView":5,"byteOffset":0,"componentType":5125,"count":16644,"type":"SCALAR","max":[3159],"min":[0]}],"buffers":[{"byteLength":188448,"uri":"tile_0666.bin"}],"bufferViews":[{"buffer":0,"byteOffset":0,"byteLength":18888,"target":34962},{"buffer":0,"byteOffset":18888,"byteLength":12592,"target":34962},{"buffer":0,"byteOffset":31480,"byteLength":27192,"target":34963},{"buffer":0,"byteOffset":58672,"byteLength":37920,"target":34962},{"buffer":0,"byteOffset":96592,"byteLength":25280,"target":34962},{"buffer":0,"byteOffset":121872,"byteLength":66576,"target":34963}],"images":[{"uri":"../textures/tile_0666_material_0.jpg"},{"uri":"../textures/tile_0666_material_1.jpg"}],"materials":[{"name":"DefaultMaterial","pbrMetallicRoughness":{"baseColorFactor":[0.6000000238418579,0.6000000238418579,0.6000000238418579,1.0],"metallicFactor":0.0},"extensions":{"KHR_materials_specular":{"specularFactor":1.0,"specularColorFactor":[0.0,0.0,0.0]},"KHR_materials_ior":{"ior":1.0}}},{"name":"material_0_material","pbrMetallicRoughness":{"baseColorTexture":{"index":0},"metallicFactor":0.0},"extensions":{"KHR_materials_specular":{"specularFactor":1.0,"specularColorFactor":[0.0,0.0,0.0]},"KHR_materials_ior":{"ior":1.0}}},{"name":"material_1_material","pbrMetallicRoughness":{"baseColorTexture":{"index":1},"metallicFactor":0.0},"extensions":{"KHR_materials_specular":{"specularFactor":1.0,"specularColorFactor":[0.0,0.0,0.0]},"KHR_materials_ior":{"ior":1.0}}}],"meshes":[{"name":"defaultobject","primitives":[{"mode":4,"material":1,"indices":2,"attributes":{"POSITION":0,"TEXCOORD_0":1}},{"mode":4,"material":2,"indices":5,"attributes":{"POSITION":3,"TEXCOORD_0":4}}]}],"nodes":[{"name":"tile_0666.obj","children":[1]},{"name":"defaultobject","mesh":0}],"samplers":[{},{}],"scenes":[{"nodes":[0]}],"textures":[{"source":0,"sampler":0},{"source":1,"sampler":1}],"scene":0}
