{"asset":{"version":"2.0","generator":"Open Asset Import Library (assimp v6.0.0)"},"extensionsUsed":["KHR_materials_specular","KHR_materials_volume","KHR_materials_ior","FB_ngon_encoding"],"accessors":[{"bufferView":0,"byteOffset":0,"componentType":5126,"count":5015,"type":"VEC3","max":[-0.7515863180160522,-3.1491482257843018,2.321845769882202],"min":[-0.9377111196517944,-3.5549604892730713,2.2250738585072014e-308]},{"bufferView":1,"byteOffset":0,"componentType":5126,"count":5015,"type":"VEC2","max":[0.9935407638549805,0.49939537048339844],"min":[2.2250738585072014e-308,2.2250738585072014e-308]},{"bufferView":2,"byteOffset":0,"componentType":5125,"count":22443,"type":"SCALAR","max":[5014],"min":[0]},{"bufferView":3,"byteOffset":0,"componentType":5126,"count":350,"type":"VEC3","max":[-0.7984941601753235,-3.427633762359619,2.314908027648926],"min":[-0.9363516569137573,-3.5549604892730713,2.2250738585072014e-308]},{"bufferView":4,"byteOffset":0,"componentType":5126,"count":350,"type":"VEC2","max":[0.7206192016601562,0.780517578125],"min":[2.2250738585072014e-308,2.2250738585072014e-308]},{"bufferView":5,"byteOffset":0,"componentType":5125,"count":1728,"type":"SCALAR","max":[349],"min":[0]}],"buffers":[{"byteLength":203984,"uri":"tile_0341.bin"}],"bufferViews":[{"buffer":0,"byteOffset":0,"byteLength":60180,"target":34962},{"buffer":0,"byteOffset":60180,"byteLength":40120,"target":34962},{"buffer":0,"byteOffset":100300,"byteLength":89772,"target":34963},{"buffer":0,"byteOffset":190072,"byteLength":4200,"target":34962},{"buffer":0,"byteOffset":194272,"byteLength":2800,"target":34962},{"buffer":0,"byteOffset":197072,"byteLength":6912,"target":34963}],"images":[{"uri":"../textures/tile_0341_material_0.jpg"},{"uri":"../textures/tile_0341_material_1.jpg"}],"materials":[{"name":"DefaultMaterial","pbrMetallicRoughness":{"baseColorFactor":[0.6000000238418579,0.6000000238418579,0.6000000238418579,1.0],"metallicFactor":0.0},"extensions":{"KHR_materials_specular":{"specularFactor":1.0,"specularColorFactor":[0.0,0.0,0.0]},"KHR_materials_ior":{"ior":1.0}}},{"name":"material_0_material","pbrMetallicRoughness":{"baseColorTexture":{"index":0},"metallicFactor":0.0},"extensions":{"KHR_materials_specular":{"specularFactor":1.0,"specularColorFactor":[0.0,0.0,0.0]},"KHR_materials_ior":{"ior":1.0}}},{"name":"material_1_material","pbrMetallicRoughness":{"baseColorTexture":{"index":1},"metallicFactor":0.0},"extensions":{"KHR_materials_specular":{"specularFactor":1.0,"specularColorFactor":[0.0,0.0,0.0]},"KHR_materials_ior":{"ior":1.0}}}],"meshes":[{"name":"defaultobject","primitives":[{"mode":4,"material":1,"indices":2,"attributes":{"POSITION":0,"TEXCOORD_0":1}},{"mode":4,"material":2,"indices":5,"attributes":{"POSITION":3,"TEXCOORD_0":4}}]}],"nodes":[{"name":"tile_0341.obj","children":[1]},{"name":"defaultobject","mesh":0}],"samplers":[{},{}],"scenes":[{"nodes":[0]}],"textures":[{"source":0,"sampler":0},{"source":1,"sampler":1}],"scene":0}
