{"asset":{"version":"2.0","generator":"Open Asset Import Library (assimp v6.0.0)"},"extensionsUsed":["KHR_materials_specular","KHR_materials_volume","KHR_materials_ior","FB_ngon_encoding"],"accessors":[{"bufferView":0,"byteOffset":0,"componentType":5126,"count":6830,"type":"VEC3","max":[0.8454616665840149,-3.683645009994507,2.7911171913146973],"min":[2.2250738585072014e-308,-4.077696800231934,2.2250738585072014e-308]},{"bufferView":1,"byteOffset":0,"componentType":5126,"count":6830,"type":"VEC2","max":[0.9908087253570557,0.6249790191650391],"min":[2.2250738585072014e-308,2.2250738585072014e-308]},{"bufferView":2,"byteOffset":0,"componentType":5125,"count":28857,"type":"SCALAR","max":[6829],"min":[0]},{"bufferView":3,"byteOffset":0,"componentType":5126,"count":324,"type":"VEC3","max":[0.815574049949646,-3.6828441619873047,2.6775197982788086],"min":[2.2250738585072014e-308,-3.7926511764526367,2.2250738585072014e-308]},{"bufferView":4,"byteOffset":0,"componentType":5126,"count":324,"type":"VEC2","max":[0.6798343658447266,0.5413703918457031],"min":[2.2250738585072014e-308,2.2250738585072014e-308]},{"bufferView":5,"byteOffset":0,"componentType":5125,"count":1440,"type":"SCALAR","max":[323],"min":[0]}],"buffers":[{"byteLength":264268,"uri":"tile_0815.bin"}],"bufferViews":[{"buffer":0,"byteOffset":0,"byteLength":81960,"target":34962},{"buffer":0,"byteOffset":81960,"byteLength":54640,"target":34962},{"buffer":0,"byteOffset":136600,"byteLength":115428,"target":34963},{"buffer":0,"byteOffset":252028,"byteLength":3888,"target":34962},{"buffer":0,"byteOffset":255916,"byteLength":2592,"target":34962},{"buffer":0,"byteOffset":258508,"byteLength":5760,"target":34963}],"images":[{"uri":"../textures/tile_0815_material_0.jpg"},{"uri":"../textures/tile_0815_material_1.jpg"}],"materials":[{"name":"DefaultMaterial","pbrMetallicRoughness":{"baseColorFactor":[0.6000000238418579,0.6000000238418579,0.6000000238418579,1.0],"metallicFactor":0.0},"extensions":{"KHR_materials_specular":{"specularFactor":1.0,"specularColorFactor":[0.0,0.0,0.0]},"KHR_materials_ior":{"ior":1.0}}},{"name":"material_0_material","pbrMetallicRoughness":{"baseColorTexture":{"index":0},"metallicFactor":0.0},"extensions":{"KHR_materials_specular":{"specularFactor":1.0,"specularColorFactor":[0.0,0.0,0.0]},"KHR_materials_ior":{"ior":1.0}}},{"name":"material_1_material","pbrMetallicRoughness":{"baseColorTexture":{"index":1},"metallicFactor":0.0},"extensions":{"KHR_materials_specular":{"specularFactor":1.0,"specularColorFactor":[0.0,0.0,0.0]},"KHR_materials_ior":{"ior":1.0}}}],"meshes":[{"name":"defaultobject","primitives":[{"mode":4,"material":1,"indices":2,"attributes":{"POSITION":0,"TEXCOORD_0":1}},{"mode":4,"material":2,"indices":5,"attributes":{"POSITION":3,"TEXCOORD_0":4}}]}],"nodes":[{"name":"tile_0815.obj","children":[1]},{"name":"defaultobject","mesh":0}],"samplers":[{},{}],"scenes":[{"nodes":[0]}],"textures":[{"source":0,"sampler":0},{"source":1,"sampler":1}],"scene":0}
