{"asset":{"version":"2.0","generator":"Open Asset Import Library (assimp v6.0.0)"},"extensionsUsed":["KHR_materials_specular","KHR_materials_volume","KHR_materials_ior","FB_ngon_encoding"],"accessors":[{"bufferView":0,"byteOffset":0,"componentType":5126,"count":4195,"type":"VEC3","max":[0.2141035795211792,-2.4597699642181396,2.625140905380249],"min":[-0.03406304866075516,-2.7047371864318848,2.2250738585072014e-308]},{"bufferView":1,"byteOffset":0,"componentType":5126,"count":4195,"type":"VEC2","max":[0.9959797859191895,0.8584671020507812],"min":[2.2250738585072014e-308,2.2250738585072014e-308]},{"bufferView":2,"byteOffset":0,"componentType":5125,"count":18687,"type":"SCALAR","max":[4194],"min":[0]},{"bufferView":3,"byteOffset":0,"componentType":5126,"count":27,"type":"VEC3","max":[-0.008108609355986118,-2.460230827331543,2.5861222743988037],"min":[-0.03184765949845314,-2.480355978012085,2.2250738585072014e-308]},{"bufferView":4,"byteOffset":0,"componentType":5126,"count":27,"type":"VEC2","max":[0.42132559418678284,0.547149658203125],"min":[2.2250738585072014e-308,2.2250738585072014e-308]},{"bufferView":5,"byteOffset":0,"componentType":5125,"count":105,"type":"SCALAR","max":[26],"min":[0]}],"buffers":[{"byteLength":159608,"uri":"tile_0816.bin"}],"bufferViews":[{"buffer":0,"byteOffset":0,"byteLength":50340,"target":34962},{"buffer":0,"byteOffset":50340,"byteLength":33560,"target":34962},{"buffer":0,"byteOffset":83900,"byteLength":74748,"target":34963},{"buffer":0,"byteOffset":158648,"byteLength":324,"target":34962},{"buffer":0,"byteOffset":158972,"byteLength":216,"target":34962},{"buffer":0,"byteOffset":159188,"byteLength":420,"target":34963}],"images":[{"uri":"../textures/tile_0816_material_0.jpg"},{"uri":"../textures/tile_0816_material_1.jpg"}],"materials":[{"name":"DefaultMaterial","pbrMetallicRoughness":{"baseColorFactor":[0.6000000238418579,0.6000000238418579,0.6000000238418579,1.0],"metallicFactor":0.0},"extensions":{"KHR_materials_specular":{"specularFactor":1.0,"specularColorFactor":[0.0,0.0,0.0]},"KHR_materials_ior":{"ior":1.0}}},{"name":"material_0_material","pbrMetallicRoughness":{"baseColorTexture":{"index":0},"metallicFactor":0.0},"extensions":{"KHR_materials_specular":{"specularFactor":1.0,"specularColorFactor":[0.0,0.0,0.0]},"KHR_materials_ior":{"ior":1.0}}},{"name":"material_1_material","pbrMetallicRoughness":{"baseColorTexture":{"index":1},"metallicFactor":0.0},"extensions":{"KHR_materials_specular":{"specularFactor":1.0,"specularColorFactor":[0.0,0.0,0.0]},"KHR_materials_ior":{"ior":1.0}}}],"meshes":[{"name":"defaultobject","primitives":[{"mode":4,"material":1,"indices":2,"attributes":{"POSITION":0,"TEXCOORD_0":1}},{"mode":4,"material":2,"indices":5,"attributes":{"POSITION":3,"TEXCOORD_0":4}}]}],"nodes":[{"name":"tile_0816.obj","children":[1]},{"name":"defaultobject","mesh":0}],"samplers":[{},{}],"scenes":[{"nodes":[0]}],"textures":[{"source":0,"sampler":0},{"source":1,"sampler":1}],"scene":0}
