{"asset":{"version":"2.0","generator":"Open Asset Import Library (assimp v6.0.0)"},"extensionsUsed":["KHR_materials_specular","KHR_materials_volume","KHR_materials_ior","FB_ngon_encoding"],"accessors":[{"bufferView":0,"byteOffset":0,"componentType":5126,"count":4276,"type":"VEC3","max":[1.8596508502960205,1.7736440896987915,3.966716766357422],"min":[2.2250738585072014e-308,2.2250738585072014e-308,2.2250738585072014e-308]},{"bufferView":1,"byteOffset":0,"componentType":5126,"count":4276,"type":"VEC2","max":[0.9883060455322266,0.5312385559082031],"min":[2.2250738585072014e-308,2.2250738585072014e-308]},{"bufferView":2,"byteOffset":0,"componentType":5125,"count":19008,"type":"SCALAR","max":[4275],"min":[0]},{"bufferView":3,"byteOffset":0,"componentType":5126,"count":623,"type":"VEC3","max":[1.8581066131591797,1.773805856704712,3.937943696975708],"min":[2.2250738585072014e-308,2.2250738585072014e-308,2.2250738585072014e-308]},{"bufferView":4,"byteOffset":0,"componentType":5126,"count":623,"type":"VEC2","max":[0.6352996826171875,0.713958740234375],"min":[2.2250738585072014e-308,2.2250738585072014e-308]},{"bufferView":5,"byteOffset":0,"componentType":5125,"count":3063,"type":"SCALAR","max":[622],"min":[0]}],"buffers":[{"byteLength":186264,"uri":"tile_0180.bin"}],"bufferViews":[{"buffer":0,"byteOffset":0,"byteLength":51312,"target":34962},{"buffer":0,"byteOffset":51312,"byteLength":34208,"target":34962},{"buffer":0,"byteOffset":85520,"byteLength":76032,"target":34963},{"buffer":0,"byteOffset":161552,"byteLength":7476,"target":34962},{"buffer":0,"byteOffset":169028,"byteLength":4984,"target":34962},{"buffer":0,"byteOffset":174012,"byteLength":12252,"target":34963}],"images":[{"uri":"../textures/tile_0180_material_0.jpg"},{"uri":"../textures/tile_0180_material_1.jpg"}],"materials":[{"name":"DefaultMaterial","pbrMetallicRoughness":{"baseColorFactor":[0.6000000238418579,0.6000000238418579,0.6000000238418579,1.0],"metallicFactor":0.0},"extensions":{"KHR_materials_specular":{"specularFactor":1.0,"specularColorFactor":[0.0,0.0,0.0]},"KHR_materials_ior":{"ior":1.0}}},{"name":"material_0_material","pbrMetallicRoughness":{"baseColorTexture":{"index":0},"metallicFactor":0.0},"extensions":{"KHR_materials_specular":{"specularFactor":1.0,"specularColorFactor":[0.0,0.0,0.0]},"KHR_materials_ior":{"ior":1.0}}},{"name":"material_1_material","pbrMetallicRoughness":{"baseColorTexture":{"index":1},"metallicFactor":0.0},"extensions":{"KHR_materials_specular":{"specularFactor":1.0,"specularColorFactor":[0.0,0.0,0.0]},"KHR_materials_ior":{"ior":1.0}}}],"meshes":[{"name":"defaultobject","primitives":[{"mode":4,"material":1,"indices":2,"attributes":{"POSITION":0,"TEXCOORD_0":1}},{"mode":4,"material":2,"indices":5,"attributes":{"POSITION":3,"TEXCOORD_0":4}}]}],"nodes":[{"name":"tile_0180.obj","children":[1]},{"name":"defaultobject","mesh":0}],"samplers":[{},{}],"scenes":[{"nodes":[0]}],"textures":[{"source":0,"sampler":0},{"source":1,"sampler":1}],"scene":0}
