{"asset":{"version":"2.0","generator":"Open Asset Import Library (assimp v6.0.0)"},"extensionsUsed":["KHR_materials_specular","KHR_materials_volume","KHR_materials_ior","FB_ngon_encoding"],"accessors":[{"bufferView":0,"byteOffset":0,"componentType":5126,"count":2267,"type":"VEC3","max":[-2.624197483062744,-2.1885859966278076,2.3717589378356934],"min":[-2.981428861618042,-2.4421839714050293,2.2250738585072014e-308]},{"bufferView":1,"byteOffset":0,"componentType":5126,"count":2267,"type":"VEC2","max":[0.9849638938903809,0.7367744445800781],"min":[2.2250738585072014e-308,2.2250738585072014e-308]},{"bufferView":2,"byteOffset":0,"componentType":5125,"count":10581,"type":"SCALAR","max":[2266],"min":[0]},{"bufferView":3,"byteOffset":0,"componentType":5126,"count":3202,"type":"VEC3","max":[-2.622281312942505,-2.188060998916626,2.379802703857422],"min":[-2.9812369346618652,-2.4445621967315674,2.2250738585072014e-308]},{"bufferView":4,"byteOffset":0,"componentType":5126,"count":3202,"type":"VEC2","max":[0.863337516784668,0.6699714660644531],"min":[2.2250738585072014e-308,2.2250738585072014e-308]},{"bufferView":5,"byteOffset":0,"componentType":5125,"count":16875,"type":"SCALAR","max":[3201],"min":[0]}],"buffers":[{"byteLength":219204,"uri":"tile_0327.bin"}],"bufferViews":[{"buffer":0,"byteOffset":0,"byteLength":27204,"target":34962},{"buffer":0,"byteOffset":27204,"byteLength":18136,"target":34962},{"buffer":0,"byteOffset":45340,"byteLength":42324,"target":34963},{"buffer":0,"byteOffset":87664,"byteLength":38424,"target":34962},{"buffer":0,"byteOffset":126088,"byteLength":25616,"target":34962},{"buffer":0,"byteOffset":151704,"byteLength":67500,"target":34963}],"images":[{"uri":"../textures/tile_0327_material_0.jpg"},{"uri":"../textures/tile_0327_material_1.jpg"}],"materials":[{"name":"DefaultMaterial","pbrMetallicRoughness":{"baseColorFactor":[0.6000000238418579,0.6000000238418579,0.6000000238418579,1.0],"metallicFactor":0.0},"extensions":{"KHR_materials_specular":{"specularFactor":1.0,"specularColorFactor":[0.0,0.0,0.0]},"KHR_materials_ior":{"ior":1.0}}},{"name":"material_0_material","pbrMetallicRoughness":{"baseColorTexture":{"index":0},"metallicFactor":0.0},"extensions":{"KHR_materials_specular":{"specularFactor":1.0,"specularColorFactor":[0.0,0.0,0.0]},"KHR_materials_ior":{"ior":1.0}}},{"name":"material_1_material","pbrMetallicRoughness":{"baseColorTexture":{"index":1},"metallicFactor":0.0},"extensions":{"KHR_materials_specular":{"specularFactor":1.0,"specularColorFactor":[0.0,0.0,0.0]},"KHR_materials_ior":{"ior":1.0}}}],"meshes":[{"name":"defaultobject","primitives":[{"mode":4,"material":1,"indices":2,"attributes":{"POSITION":0,"TEXCOORD_0":1}},{"mode":4,"material":2,"indices":5,"attributes":{"POSITION":3,"TEXCOORD_0":4}}]}],"nodes":[{"name":"tile_0327.obj","children":[1]},{"name":"defaultobject","mesh":0}],"samplers":[{},{}],"scenes":[{"nodes":[0]}],"textures":[{"source":0,"sampler":0},{"source":1,"sampler":1}],"scene":0}
