{"asset":{"version":"2.0","generator":"Open Asset Import Library (assimp v6.0.0)"},"extensionsUsed":["KHR_materials_specular","KHR_materials_volume","KHR_materials_ior","FB_ngon_encoding"],"accessors":[{"bufferView":0,"byteOffset":0,"componentType":5126,"count":2911,"type":"VEC3","max":[-3.29284930229187,-2.033228635787964,3.2009317874908447],"min":[-3.837411642074585,-2.3906233310699463,2.2250738585072014e-308]},{"bufferView":1,"byteOffset":0,"componentType":5126,"count":2911,"type":"VEC2","max":[0.9870691299438477,0.8358535766601562],"min":[2.2250738585072014e-308,2.2250738585072014e-308]},{"bufferView":2,"byteOffset":0,"componentType":5125,"count":14193,"type":"SCALAR","max":[2910],"min":[0]},{"bufferView":3,"byteOffset":0,"componentType":5126,"count":1757,"type":"VEC3","max":[-3.2908856868743896,-2.037297487258911,3.1946396827697754],"min":[-3.8380956649780273,-2.396348476409912,2.2250738585072014e-308]},{"bufferView":4,"byteOffset":0,"componentType":5126,"count":1757,"type":"VEC2","max":[0.9933936595916748,0.7324619293212891],"min":[2.2250738585072014e-308,2.2250738585072014e-308]},{"bufferView":5,"byteOffset":0,"componentType":5125,"count":8640,"type":"SCALAR","max":[1756],"min":[0]}],"buffers":[{"byteLength":184692,"uri":"tile_0068.bin"}],"bufferViews":[{"buffer":0,"byteOffset":0,"byteLength":34932,"target":34962},{"buffer":0,"byteOffset":34932,"byteLength":23288,"target":34962},{"buffer":0,"byteOffset":58220,"byteLength":56772,"target":34963},{"buffer":0,"byteOffset":114992,"byteLength":21084,"target":34962},{"buffer":0,"byteOffset":136076,"byteLength":14056,"target":34962},{"buffer":0,"byteOffset":150132,"byteLength":34560,"target":34963}],"images":[{"uri":"../textures/tile_0068_material_0.jpg"},{"uri":"../textures/tile_0068_material_1.jpg"}],"materials":[{"name":"DefaultMaterial","pbrMetallicRoughness":{"baseColorFactor":[0.6000000238418579,0.6000000238418579,0.6000000238418579,1.0],"metallicFactor":0.0},"extensions":{"KHR_materials_specular":{"specularFactor":1.0,"specularColorFactor":[0.0,0.0,0.0]},"KHR_materials_ior":{"ior":1.0}}},{"name":"material_0_material","pbrMetallicRoughness":{"baseColorTexture":{"index":0},"metallicFactor":0.0},"extensions":{"KHR_materials_specular":{"specularFactor":1.0,"specularColorFactor":[0.0,0.0,0.0]},"KHR_materials_ior":{"ior":1.0}}},{"name":"material_1_material","pbrMetallicRoughness":{"baseColorTexture":{"index":1},"metallicFactor":0.0},"extensions":{"KHR_materials_specular":{"specularFactor":1.0,"specularColorFactor":[0.0,0.0,0.0]},"KHR_materials_ior":{"ior":1.0}}}],"meshes":[{"name":"defaultobject","primitives":[{"mode":4,"material":1,"indices":2,"attributes":{"POSITION":0,"TEXCOORD_0":1}},{"mode":4,"material":2,"indices":5,"attributes":{"POSITION":3,"TEXCOORD_0":4}}]}],"nodes":[{"name":"tile_0068.obj","children":[1]},{"name":"defaultobject","mesh":0}],"samplers":[{},{}],"scenes":[{"nodes":[0]}],"textures":[{"source":0,"sampler":0},{"source":1,"sampler":1}],"scene":0}
