{"asset":{"version":"2.0","generator":"Open Asset Import Library (assimp v6.0.0)"},"extensionsUsed":["KHR_materials_specular","KHR_materials_volume","KHR_materials_ior","FB_ngon_encoding"],"accessors":[{"bufferView":0,"byteOffset":0,"componentType":5126,"count":2428,"type":"VEC3","max":[-2.3344566822052,-1.2140979766845703,2.7206108570098877],"min":[-2.6451303958892822,-1.4369183778762817,2.2250738585072014e-308]},{"bufferView":1,"byteOffset":0,"componentType":5126,"count":2428,"type":"VEC2","max":[0.9878954887390137,0.6307449340820312],"min":[2.2250738585072014e-308,2.2250738585072014e-308]},{"bufferView":2,"byteOffset":0,"componentType":5125,"count":11847,"type":"SCALAR","max":[2427],"min":[0]},{"bufferView":3,"byteOffset":0,"componentType":5126,"count":1406,"type":"VEC3","max":[-2.3346691131591797,-1.2149702310562134,2.724057674407959],"min":[-2.6427907943725586,-1.4369854927062988,2.2250738585072014e-308]},{"bufferView":4,"byteOffset":0,"componentType":5126,"count":1406,"type":"VEC2","max":[0.6626825332641602,0.8801536560058594],"min":[2.2250738585072014e-308,2.2250738585072014e-308]},{"bufferView":5,"byteOffset":0,"componentType":5125,"count":7182,"type":"SCALAR","max":[1405],"min":[0]}],"buffers":[{"byteLength":152796,"uri":"tile_0406.bin"}],"bufferViews":[{"buffer":0,"byteOffset":0,"byteLength":29136,"target":34962},{"buffer":0,"byteOffset":29136,"byteLength":19424,"target":34962},{"buffer":0,"byteOffset":48560,"byteLength":47388,"target":34963},{"buffer":0,"byteOffset":95948,"byteLength":16872,"target":34962},{"buffer":0,"byteOffset":112820,"byteLength":11248,"target":34962},{"buffer":0,"byteOffset":124068,"byteLength":28728,"target":34963}],"images":[{"uri":"../textures/tile_0406_material_0.jpg"},{"uri":"../textures/tile_0406_material_1.jpg"}],"materials":[{"name":"DefaultMaterial","pbrMetallicRoughness":{"baseColorFactor":[0.6000000238418579,0.6000000238418579,0.6000000238418579,1.0],"metallicFactor":0.0},"extensions":{"KHR_materials_specular":{"specularFactor":1.0,"specularColorFactor":[0.0,0.0,0.0]},"KHR_materials_ior":{"ior":1.0}}},{"name":"material_0_material","pbrMetallicRoughness":{"baseColorTexture":{"index":0},"metallicFactor":0.0},"extensions":{"KHR_materials_specular":{"specularFactor":1.0,"specularColorFactor":[0.0,0.0,0.0]},"KHR_materials_ior":{"ior":1.0}}},{"name":"material_1_material","pbrMetallicRoughness":{"baseColorTexture":{"index":1},"metallicFactor":0.0},"extensions":{"KHR_materials_specular":{"specularFactor":1.0,"specularColorFactor":[0.0,0.0,0.0]},"KHR_materials_ior":{"ior":1.0}}}],"meshes":[{"name":"defaultobject","primitives":[{"mode":4,"material":1,"indices":2,"attributes":{"POSITION":0,"TEXCOORD_0":1}},{"mode":4,"material":2,"indices":5,"attributes":{"POSITION":3,"TEXCOORD_0":4}}]}],"nodes":[{"name":"tile_0406.obj","children":[1]},{"name":"defaultobject","mesh":0}],"samplers":[{},{}],"scenes":[{"nodes":[0]}],"textures":[{"source":0,"sampler":0},{"source":1,"sampler":1}],"scene":0}
