{"asset":{"version":"2.0","generator":"Open Asset Import Library (assimp v6.0.0)"},"extensionsUsed":["KHR_materials_specular","KHR_materials_volume","KHR_materials_ior","FB_ngon_encoding"],"accessors":[{"bufferView":0,"byteOffset":0,"componentType":5126,"count":10324,"type":"VEC3","max":[-1.398167610168457,-1.7325133085250854,2.3697633743286133],"min":[-1.7736244201660156,-2.2779033184051514,2.2250738585072014e-308]},{"bufferView":1,"byteOffset":0,"componentType":5126,"count":10324,"type":"VEC2","max":[0.9912252426147461,0.5160284042358398],"min":[2.2250738585072014e-308,2.2250738585072014e-308]},{"bufferView":2,"byteOffset":0,"componentType":5125,"count":50652,"type":"SCALAR","max":[10323],"min":[0]},{"bufferView":3,"byteOffset":0,"componentType":5126,"count":3329,"type":"VEC3","max":[-1.4005835056304932,-1.7345032691955566,2.369748115539551],"min":[-1.7726478576660156,-2.2771878242492676,2.2250738585072014e-308]},{"bufferView":4,"byteOffset":0,"componentType":5126,"count":3329,"type":"VEC2","max":[0.6748442649841309,0.566864013671875],"min":[2.2250738585072014e-308,2.2250738585072014e-308]},{"bufferView":5,"byteOffset":0,"componentType":5125,"count":17634,"type":"SCALAR","max":[3328],"min":[0]}],"buffers":[{"byteLength":546204,"uri":"tile_0037.bin"}],"bufferViews":[{"buffer":0,"byteOffset":0,"byteLength":123888,"target":34962},{"buffer":0,"byteOffset":123888,"byteLength":82592,"target":34962},{"buffer":0,"byteOffset":206480,"byteLength":202608,"target":34963},{"buffer":0,"byteOffset":409088,"byteLength":39948,"target":34962},{"buffer":0,"byteOffset":449036,"byteLength":26632,"target":34962},{"buffer":0,"byteOffset":475668,"byteLength":70536,"target":34963}],"images":[{"uri":"../textures/tile_0037_material_0.jpg"},{"uri":"../textures/tile_0037_material_1.jpg"}],"materials":[{"name":"DefaultMaterial","pbrMetallicRoughness":{"baseColorFactor":[0.6000000238418579,0.6000000238418579,0.6000000238418579,1.0],"metallicFactor":0.0},"extensions":{"KHR_materials_specular":{"specularFactor":1.0,"specularColorFactor":[0.0,0.0,0.0]},"KHR_materials_ior":{"ior":1.0}}},{"name":"material_0_material","pbrMetallicRoughness":{"baseColorTexture":{"index":0},"metallicFactor":0.0},"extensions":{"KHR_materials_specular":{"specularFactor":1.0,"specularColorFactor":[0.0,0.0,0.0]},"KHR_materials_ior":{"ior":1.0}}},{"name":"material_1_material","pbrMetallicRoughness":{"baseColorTexture":{"index":1},"metallicFactor":0.0},"extensions":{"KHR_materials_specular":{"specularFactor":1.0,"specularColorFactor":[0.0,0.0,0.0]},"KHR_materials_ior":{"ior":1.0}}}],"meshes":[{"name":"defaultobject","primitives":[{"mode":4,"material":1,"indices":2,"attributes":{"POSITION":0,"TEXCOORD_0":1}},{"mode":4,"material":2,"indices":5,"attributes":{"POSITION":3,"TEXCOORD_0":4}}]}],"nodes":[{"name":"tile_0037.obj","children":[1]},{"name":"defaultobject","mesh":0}],"samplers":[{},{}],"scenes":[{"nodes":[0]}],"textures":[{"source":0,"sampler":0},{"source":1,"sampler":1}],"scene":0}
