{"asset":{"version":"2.0","generator":"Open Asset Import Library (assimp v6.0.0)"},"extensionsUsed":["KHR_materials_specular","KHR_materials_volume","KHR_materials_ior","FB_ngon_encoding"],"accessors":[{"bufferView":0,"byteOffset":0,"componentType":5126,"count":3165,"type":"VEC3","max":[-4.408016204833984,0.1268831193447113,4.009714603424072],"min":[-4.845581531524658,-0.1753692775964737,2.2250738585072014e-308]},{"bufferView":1,"byteOffset":0,"componentType":5126,"count":3165,"type":"VEC2","max":[0.9937248229980469,0.7323150634765625],"min":[2.2250738585072014e-308,2.2250738585072014e-308]},{"bufferView":2,"byteOffset":0,"componentType":5125,"count":14286,"type":"SCALAR","max":[3164],"min":[0]},{"bufferView":3,"byteOffset":0,"componentType":5126,"count":1197,"type":"VEC3","max":[-4.408969402313232,0.12565840780735016,3.979768753051758],"min":[-4.841888427734375,-0.1755003184080124,2.2250738585072014e-308]},{"bufferView":4,"byteOffset":0,"componentType":5126,"count":1197,"type":"VEC2","max":[0.7934880256652832,0.7543106079101562],"min":[2.2250738585072014e-308,2.2250738585072014e-308]},{"bufferView":5,"byteOffset":0,"componentType":5125,"count":5856,"type":"SCALAR","max":[1196],"min":[0]}],"buffers":[{"byteLength":167808,"uri":"tile_0438.bin"}],"bufferViews":[{"buffer":0,"byteOffset":0,"byteLength":37980,"target":34962},{"buffer":0,"byteOffset":37980,"byteLength":25320,"target":34962},{"buffer":0,"byteOffset":63300,"byteLength":57144,"target":34963},{"buffer":0,"byteOffset":120444,"byteLength":14364,"target":34962},{"buffer":0,"byteOffset":134808,"byteLength":9576,"target":34962},{"buffer":0,"byteOffset":144384,"byteLength":23424,"target":34963}],"images":[{"uri":"../textures/tile_0438_material_0.jpg"},{"uri":"../textures/tile_0438_material_1.jpg"}],"materials":[{"name":"DefaultMaterial","pbrMetallicRoughness":{"baseColorFactor":[0.6000000238418579,0.6000000238418579,0.6000000238418579,1.0],"metallicFactor":0.0},"extensions":{"KHR_materials_specular":{"specularFactor":1.0,"specularColorFactor":[0.0,0.0,0.0]},"KHR_materials_ior":{"ior":1.0}}},{"name":"material_0_material","pbrMetallicRoughness":{"baseColorTexture":{"index":0},"metallicFactor":0.0},"extensions":{"KHR_materials_specular":{"specularFactor":1.0,"specularColorFactor":[0.0,0.0,0.0]},"KHR_materials_ior":{"ior":1.0}}},{"name":"material_1_material","pbrMetallicRoughness":{"baseColorTexture":{"index":1},"metallicFactor":0.0},"extensions":{"KHR_materials_specular":{"specularFactor":1.0,"specularColorFactor":[0.0,0.0,0.0]},"KHR_materials_ior":{"ior":1.0}}}],"meshes":[{"name":"defaultobject","primitives":[{"mode":4,"material":1,"indices":2,"attributes":{"POSITION":0,"TEXCOORD_0":1}},{"mode":4,"material":2,"indices":5,"attributes":{"POSITION":3,"TEXCOORD_0":4}}]}],"nodes":[{"name":"tile_0438.obj","children":[1]},{"name":"defaultobject","mesh":0}],"samplers":[{},{}],"scenes":[{"nodes":[0]}],"textures":[{"source":0,"sampler":0},{"source":1,"sampler":1}],"scene":0}
