{"asset":{"version":"2.0","generator":"Open Asset Import Library (assimp v6.0.0)"},"extensionsUsed":["KHR_materials_specular","KHR_materials_volume","KHR_materials_ior","FB_ngon_encoding"],"accessors":[{"bufferView":0,"byteOffset":0,"componentType":5126,"count":10276,"type":"VEC3","max":[2.368915557861328,2.639765977859497,4.267335891723633],"min":[2.2250738585072014e-308,2.2250738585072014e-308,2.2250738585072014e-308]},{"bufferView":1,"byteOffset":0,"componentType":5126,"count":10276,"type":"VEC2","max":[0.9955692291259766,0.4978370666503906],"min":[2.2250738585072014e-308,2.2250738585072014e-308]},{"bufferView":2,"byteOffset":0,"componentType":5125,"count":48222,"type":"SCALAR","max":[10275],"min":[0]},{"bufferView":3,"byteOffset":0,"componentType":5126,"count":3534,"type":"VEC3","max":[2.3686444759368896,2.631608486175537,4.238201141357422],"min":[2.2250738585072014e-308,2.2250738585072014e-308,2.2250738585072014e-308]},{"bufferView":4,"byteOffset":0,"componentType":5126,"count":3534,"type":"VEC2","max":[0.5278968811035156,0.5680809020996094],"min":[2.2250738585072014e-308,2.2250738585072014e-308]},{"bufferView":5,"byteOffset":0,"componentType":5125,"count":18690,"type":"SCALAR","max":[3533],"min":[0]}],"buffers":[{"byteLength":543848,"uri":"tile_0184.bin"}],"bufferViews":[{"buffer":0,"byteOffset":0,"byteLength":123312,"target":34962},{"buffer":0,"byteOffset":123312,"byteLength":82208,"target":34962},{"buffer":0,"byteOffset":205520,"byteLength":192888,"target":34963},{"buffer":0,"byteOffset":398408,"byteLength":42408,"target":34962},{"buffer":0,"byteOffset":440816,"byteLength":28272,"target":34962},{"buffer":0,"byteOffset":469088,"byteLength":74760,"target":34963}],"images":[{"uri":"../textures/tile_0184_material_0.jpg"},{"uri":"../textures/tile_0184_material_1.jpg"}],"materials":[{"name":"DefaultMaterial","pbrMetallicRoughness":{"baseColorFactor":[0.6000000238418579,0.6000000238418579,0.6000000238418579,1.0],"metallicFactor":0.0},"extensions":{"KHR_materials_specular":{"specularFactor":1.0,"specularColorFactor":[0.0,0.0,0.0]},"KHR_materials_ior":{"ior":1.0}}},{"name":"material_0_material","pbrMetallicRoughness":{"baseColorTexture":{"index":0},"metallicFactor":0.0},"extensions":{"KHR_materials_specular":{"specularFactor":1.0,"specularColorFactor":[0.0,0.0,0.0]},"KHR_materials_ior":{"ior":1.0}}},{"name":"material_1_material","pbrMetallicRoughness":{"baseColorTexture":{"index":1},"metallicFactor":0.0},"extensions":{"KHR_materials_specular":{"specularFactor":1.0,"specularColorFactor":[0.0,0.0,0.0]},"KHR_materials_ior":{"ior":1.0}}}],"meshes":[{"name":"defaultobject","primitives":[{"mode":4,"material":1,"indices":2,"attributes":{"POSITION":0,"TEXCOORD_0":1}},{"mode":4,"material":2,"indices":5,"attributes":{"POSITION":3,"TEXCOORD_0":4}}]}],"nodes":[{"name":"tile_0184.obj","children":[1]},{"name":"defaultobject","mesh":0}],"samplers":[{},{}],"scenes":[{"nodes":[0]}],"textures":[{"source":0,"sampler":0},{"source":1,"sampler":1}],"scene":0}
