{"asset":{"version":"2.0","generator":"Open Asset Import Library (assimp v6.0.0)"},"extensionsUsed":["KHR_materials_specular","KHR_materials_volume","KHR_materials_ior","FB_ngon_encoding"],"accessors":[{"bufferView":0,"byteOffset":0,"componentType":5126,"count":2405,"type":"VEC3","max":[4.77127742767334,3.7847495079040527,4.3249430656433105],"min":[2.2250738585072014e-308,2.2250738585072014e-308,2.2250738585072014e-308]},{"bufferView":1,"byteOffset":0,"componentType":5126,"count":2405,"type":"VEC2","max":[0.9771759510040283,0.49887847900390625],"min":[2.2250738585072014e-308,2.2250738585072014e-308]},{"bufferView":2,"byteOffset":0,"componentType":5125,"count":11670,"type":"SCALAR","max":[2404],"min":[0]},{"bufferView":3,"byteOffset":0,"componentType":5126,"count":8553,"type":"VEC3","max":[4.7649922370910645,3.821256160736084,4.350411891937256],"min":[2.2250738585072014e-308,2.2250738585072014e-308,2.2250738585072014e-308]},{"bufferView":4,"byteOffset":0,"componentType":5126,"count":8553,"type":"VEC2","max":[0.9705901145935059,0.7065153121948242],"min":[2.2250738585072014e-308,2.2250738585072014e-308]},{"bufferView":5,"byteOffset":0,"componentType":5125,"count":47559,"type":"SCALAR","max":[8552],"min":[0]}],"buffers":[{"byteLength":456076,"uri":"tile_0664.bin"}],"bufferViews":[{"buffer":0,"byteOffset":0,"byteLength":28860,"target":34962},{"buffer":0,"byteOffset":28860,"byteLength":19240,"target":34962},{"buffer":0,"byteOffset":48100,"byteLength":46680,"target":34963},{"buffer":0,"byteOffset":94780,"byteLength":102636,"target":34962},{"buffer":0,"byteOffset":197416,"byteLength":68424,"target":34962},{"buffer":0,"byteOffset":265840,"byteLength":190236,"target":34963}],"images":[{"uri":"../textures/tile_0664_material_0.jpg"},{"uri":"../textures/tile_0664_material_1.jpg"}],"materials":[{"name":"DefaultMaterial","pbrMetallicRoughness":{"baseColorFactor":[0.6000000238418579,0.6000000238418579,0.6000000238418579,1.0],"metallicFactor":0.0},"extensions":{"KHR_materials_specular":{"specularFactor":1.0,"specularColorFactor":[0.0,0.0,0.0]},"KHR_materials_ior":{"ior":1.0}}},{"name":"material_0_material","pbrMetallicRoughness":{"baseColorTexture":{"index":0},"metallicFactor":0.0},"extensions":{"KHR_materials_specular":{"specularFactor":1.0,"specularColorFactor":[0.0,0.0,0.0]},"KHR_materials_ior":{"ior":1.0}}},{"name":"material_1_material","pbrMetallicRoughness":{"baseColorTexture":{"index":1},"metallicFactor":0.0},"extensions":{"KHR_materials_specular":{"specularFactor":1.0,"specularColorFactor":[0.0,0.0,0.0]},"KHR_materials_ior":{"ior":1.0}}}],"meshes":[{"name":"defaultobject","primitives":[{"mode":4,"material":1,"indices":2,"attributes":{"POSITION":0,"TEXCOORD_0":1}},{"mode":4,"material":2,"indices":5,"attributes":{"POSITION":3,"TEXCOORD_0":4}}]}],"nodes":[{"name":"tile_0664.obj","children":[1]},{"name":"defaultobject","mesh":0}],"samplers":[{},{}],"scenes":[{"nodes":[0]}],"textures":[{"source":0,"sampler":0},{"source":1,"sampler":1}],"scene":0}
