{"asset":{"version":"2.0","generator":"Open Asset Import Library (assimp v6.0.0)"},"extensionsUsed":["KHR_materials_specular","KHR_materials_volume","KHR_materials_ior","FB_ngon_encoding"],"accessors":[{"bufferView":0,"byteOffset":0,"componentType":5126,"count":4333,"type":"VEC3","max":[-1.4458951950073242,-3.5600762367248535,2.444474935531616],"min":[-1.6276004314422607,-3.988224506378174,2.2250738585072014e-308]},{"bufferView":1,"byteOffset":0,"componentType":5126,"count":4333,"type":"VEC2","max":[0.9917364120483398,0.49805450439453125],"min":[2.2250738585072014e-308,2.2250738585072014e-308]},{"bufferView":2,"byteOffset":0,"componentType":5125,"count":19656,"type":"SCALAR","max":[4332],"min":[0]},{"bufferView":3,"byteOffset":0,"componentType":5126,"count":330,"type":"VEC3","max":[-1.4481760263442993,-3.7068591117858887,2.4143142700195312],"min":[-1.5519130229949951,-3.905552864074707,2.2250738585072014e-308]},{"bufferView":4,"byteOffset":0,"componentType":5126,"count":330,"type":"VEC2","max":[0.79827880859375,0.8970489501953125],"min":[2.2250738585072014e-308,2.2250738585072014e-308]},{"bufferView":5,"byteOffset":0,"componentType":5125,"count":1539,"type":"SCALAR","max":[329],"min":[0]}],"buffers":[{"byteLength":178040,"uri":"tile_0040.bin"}],"bufferViews":[{"buffer":0,"byteOffset":0,"byteLength":51996,"target":34962},{"buffer":0,"byteOffset":51996,"byteLength":34664,"target":34962},{"buffer":0,"byteOffset":86660,"byteLength":78624,"target":34963},{"buffer":0,"byteOffset":165284,"byteLength":3960,"target":34962},{"buffer":0,"byteOffset":169244,"byteLength":2640,"target":34962},{"buffer":0,"byteOffset":171884,"byteLength":6156,"target":34963}],"images":[{"uri":"../textures/tile_0040_material_0.jpg"},{"uri":"../textures/tile_0040_material_1.jpg"}],"materials":[{"name":"DefaultMaterial","pbrMetallicRoughness":{"baseColorFactor":[0.6000000238418579,0.6000000238418579,0.6000000238418579,1.0],"metallicFactor":0.0},"extensions":{"KHR_materials_specular":{"specularFactor":1.0,"specularColorFactor":[0.0,0.0,0.0]},"KHR_materials_ior":{"ior":1.0}}},{"name":"material_0_material","pbrMetallicRoughness":{"baseColorTexture":{"index":0},"metallicFactor":0.0},"extensions":{"KHR_materials_specular":{"specularFactor":1.0,"specularColorFactor":[0.0,0.0,0.0]},"KHR_materials_ior":{"ior":1.0}}},{"name":"material_1_material","pbrMetallicRoughness":{"baseColorTexture":{"index":1},"metallicFactor":0.0},"extensions":{"KHR_materials_specular":{"specularFactor":1.0,"specularColorFactor":[0.0,0.0,0.0]},"KHR_materials_ior":{"ior":1.0}}}],"meshes":[{"name":"defaultobject","primitives":[{"mode":4,"material":1,"indices":2,"attributes":{"POSITION":0,"TEXCOORD_0":1}},{"mode":4,"material":2,"indices":5,"attributes":{"POSITION":3,"TEXCOORD_0":4}}]}],"nodes":[{"name":"tile_0040.obj","children":[1]},{"name":"defaultobject","mesh":0}],"samplers":[{},{}],"scenes":[{"nodes":[0]}],"textures":[{"source":0,"sampler":0},{"source":1,"sampler":1}],"scene":0}
