{"asset":{"version":"2.0","generator":"Open Asset Import Library (assimp v6.0.0)"},"extensionsUsed":["KHR_materials_specular","KHR_materials_volume","KHR_materials_ior","FB_ngon_encoding"],"accessors":[{"bufferView":0,"byteOffset":0,"componentType":5126,"count":5957,"type":"VEC3","max":[1.0977466106414795,-3.7028632164001465,2.8180437088012695],"min":[2.2250738585072014e-308,-4.077994346618652,2.2250738585072014e-308]},{"bufferView":1,"byteOffset":0,"componentType":5126,"count":5957,"type":"VEC2","max":[0.993408203125,0.6675853729248047],"min":[2.2250738585072014e-308,2.2250738585072014e-308]},{"bufferView":2,"byteOffset":0,"componentType":5125,"count":27201,"type":"SCALAR","max":[5956],"min":[0]}],"buffers":[{"byteLength":227944,"uri":"tile_0260.bin"}],"bufferViews":[{"buffer":0,"byteOffset":0,"byteLength":71484,"target":34962},{"buffer":0,"byteOffset":71484,"byteLength":47656,"target":34962},{"buffer":0,"byteOffset":119140,"byteLength":108804,"target":34963}],"images":[{"uri":"../textures/tile_0260_material_0.jpg"}],"materials":[{"name":"DefaultMaterial","pbrMetallicRoughness":{"baseColorFactor":[0.6000000238418579,0.6000000238418579,0.6000000238418579,1.0],"metallicFactor":0.0},"extensions":{"KHR_materials_specular":{"specularFactor":1.0,"specularColorFactor":[0.0,0.0,0.0]},"KHR_materials_ior":{"ior":1.0}}},{"name":"material_0_material","pbrMetallicRoughness":{"baseColorTexture":{"index":0},"metallicFactor":0.0},"extensions":{"KHR_materials_specular":{"specularFactor":1.0,"specularColorFactor":[0.0,0.0,0.0]},"KHR_materials_ior":{"ior":1.0}}},{"name":"material_1_material","pbrMetallicRoughness":{"metallicFactor":0.0},"extensions":{"KHR_materials_specular":{"specularFactor":1.0,"specularColorFactor":[0.0,0.0,0.0]},"KHR_materials_ior":{"ior":1.0}}}],"meshes":[{"name":"defaultobject","primitives":[{"mode":4,"material":1,"indices":2,"attributes":{"POSITION":0,"TEXCOORD_0":1}}]}],"nodes":[{"name":"tile_0260.obj","children":[1]},{"name":"defaultobject","mesh":0}],"samplers":[{}],"scenes":[{"nodes":[0]}],"textures":[{"source":0,"sampler":0}],"scene":0}
