{"asset":{"version":"2.0","generator":"Open Asset Import Library (assimp v6.0.0)"},"extensionsUsed":["KHR_materials_specular","KHR_materials_volume","KHR_materials_ior","FB_ngon_encoding"],"accessors":[{"bufferView":0,"byteOffset":0,"componentType":5126,"count":1261,"type":"VEC3","max":[-1.294906497001648,-0.5603967905044556,2.2696352005004883],"min":[-1.5585415363311768,-0.7831255197525024,2.2250738585072014e-308]},{"bufferView":1,"byteOffset":0,"componentType":5126,"count":1261,"type":"VEC2","max":[0.8972673416137695,0.4918785095214844],"min":[2.2250738585072014e-308,2.2250738585072014e-308]},{"bufferView":2,"byteOffset":0,"componentType":5125,"count":5835,"type":"SCALAR","max":[1260],"min":[0]},{"bufferView":3,"byteOffset":0,"componentType":5126,"count":3439,"type":"VEC3","max":[-1.2947298288345337,-0.5608325600624084,2.301375150680542],"min":[-1.5582648515701294,-0.7820072770118713,2.2250738585072014e-308]},{"bufferView":4,"byteOffset":0,"componentType":5126,"count":3439,"type":"VEC2","max":[0.8095885515213013,0.5696315765380859],"min":[2.2250738585072014e-308,2.2250738585072014e-308]},{"bufferView":5,"byteOffset":0,"componentType":5125,"count":18492,"type":"SCALAR","max":[3438],"min":[0]}],"buffers":[{"byteLength":191308,"uri":"tile_0331.bin"}],"bufferViews":[{"buffer":0,"byteOffset":0,"byteLength":15132,"target":34962},{"buffer":0,"byteOffset":15132,"byteLength":10088,"target":34962},{"buffer":0,"byteOffset":25220,"byteLength":23340,"target":34963},{"buffer":0,"byteOffset":48560,"byteLength":41268,"target":34962},{"buffer":0,"byteOffset":89828,"byteLength":27512,"target":34962},{"buffer":0,"byteOffset":117340,"byteLength":73968,"target":34963}],"images":[{"uri":"../textures/tile_0331_material_0.jpg"},{"uri":"../textures/tile_0331_material_1.jpg"}],"materials":[{"name":"DefaultMaterial","pbrMetallicRoughness":{"baseColorFactor":[0.6000000238418579,0.6000000238418579,0.6000000238418579,1.0],"metallicFactor":0.0},"extensions":{"KHR_materials_specular":{"specularFactor":1.0,"specularColorFactor":[0.0,0.0,0.0]},"KHR_materials_ior":{"ior":1.0}}},{"name":"material_0_material","pbrMetallicRoughness":{"baseColorTexture":{"index":0},"metallicFactor":0.0},"extensions":{"KHR_materials_specular":{"specularFactor":1.0,"specularColorFactor":[0.0,0.0,0.0]},"KHR_materials_ior":{"ior":1.0}}},{"name":"material_1_material","pbrMetallicRoughness":{"baseColorTexture":{"index":1},"metallicFactor":0.0},"extensions":{"KHR_materials_specular":{"specularFactor":1.0,"specularColorFactor":[0.0,0.0,0.0]},"KHR_materials_ior":{"ior":1.0}}}],"meshes":[{"name":"defaultobject","primitives":[{"mode":4,"material":1,"indices":2,"attributes":{"POSITION":0,"TEXCOORD_0":1}},{"mode":4,"material":2,"indices":5,"attributes":{"POSITION":3,"TEXCOORD_0":4}}]}],"nodes":[{"name":"tile_0331.obj","children":[1]},{"name":"defaultobject","mesh":0}],"samplers":[{},{}],"scenes":[{"nodes":[0]}],"textures":[{"source":0,"sampler":0},{"source":1,"sampler":1}],"scene":0}
