{"asset":{"version":"2.0","generator":"Open Asset Import Library (assimp v6.0.0)"},"extensionsUsed":["KHR_materials_specular","KHR_materials_volume","KHR_materials_ior","FB_ngon_encoding"],"accessors":[{"bufferView":0,"byteOffset":0,"componentType":5126,"count":570,"type":"VEC3","max":[-2.6255857944488525,-2.4384775161743164,2.3973944187164307],"min":[-2.9812510013580322,-2.7601866722106934,2.2250738585072014e-308]},{"bufferView":1,"byteOffset":0,"componentType":5126,"count":570,"type":"VEC2","max":[0.6943359375,0.533966064453125],"min":[2.2250738585072014e-308,2.2250738585072014e-308]},{"bufferView":2,"byteOffset":0,"componentType":5125,"count":2130,"type":"SCALAR","max":[569],"min":[0]},{"bufferView":3,"byteOffset":0,"componentType":5126,"count":4472,"type":"VEC3","max":[-2.622849702835083,-2.434584140777588,2.405069351196289],"min":[-2.982034683227539,-2.764937400817871,2.2250738585072014e-308]},{"bufferView":4,"byteOffset":0,"componentType":5126,"count":4472,"type":"VEC2","max":[0.8418419361114502,0.8772678375244141],"min":[2.2250738585072014e-308,2.2250738585072014e-308]},{"bufferView":5,"byteOffset":0,"componentType":5125,"count":23214,"type":"SCALAR","max":[4471],"min":[0]}],"buffers":[{"byteLength":202216,"uri":"tile_0830.bin"}],"bufferViews":[{"buffer":0,"byteOffset":0,"byteLength":6840,"target":34962},{"buffer":0,"byteOffset":6840,"byteLength":4560,"target":34962},{"buffer":0,"byteOffset":11400,"byteLength":8520,"target":34963},{"buffer":0,"byteOffset":19920,"byteLength":53664,"target":34962},{"buffer":0,"byteOffset":73584,"byteLength":35776,"target":34962},{"buffer":0,"byteOffset":109360,"byteLength":92856,"target":34963}],"images":[{"uri":"../textures/tile_0830_material_0.jpg"},{"uri":"../textures/tile_0830_material_1.jpg"}],"materials":[{"name":"DefaultMaterial","pbrMetallicRoughness":{"baseColorFactor":[0.6000000238418579,0.6000000238418579,0.6000000238418579,1.0],"metallicFactor":0.0},"extensions":{"KHR_materials_specular":{"specularFactor":1.0,"specularColorFactor":[0.0,0.0,0.0]},"KHR_materials_ior":{"ior":1.0}}},{"name":"material_0_material","pbrMetallicRoughness":{"baseColorTexture":{"index":0},"metallicFactor":0.0},"extensions":{"KHR_materials_specular":{"specularFactor":1.0,"specularColorFactor":[0.0,0.0,0.0]},"KHR_materials_ior":{"ior":1.0}}},{"name":"material_1_material","pbrMetallicRoughness":{"baseColorTexture":{"index":1},"metallicFactor":0.0},"extensions":{"KHR_materials_specular":{"specularFactor":1.0,"specularColorFactor":[0.0,0.0,0.0]},"KHR_materials_ior":{"ior":1.0}}}],"meshes":[{"name":"defaultobject","primitives":[{"mode":4,"material":1,"indices":2,"attributes":{"POSITION":0,"TEXCOORD_0":1}},{"mode":4,"material":2,"indices":5,"attributes":{"POSITION":3,"TEXCOORD_0":4}}]}],"nodes":[{"name":"tile_0830.obj","children":[1]},{"name":"defaultobject","mesh":0}],"samplers":[{},{}],"scenes":[{"nodes":[0]}],"textures":[{"source":0,"sampler":0},{"source":1,"sampler":1}],"scene":0}
