{"asset":{"version":"2.0","generator":"Open Asset Import Library (assimp v6.0.0)"},"extensionsUsed":["KHR_materials_specular","KHR_materials_volume","KHR_materials_ior","FB_ngon_encoding"],"accessors":[{"bufferView":0,"byteOffset":0,"componentType":5126,"count":4512,"type":"VEC3","max":[4.708367824554443,-2.6847100257873535,3.869558095932007],"min":[2.2250738585072014e-308,-2.939028739929199,2.2250738585072014e-308]},{"bufferView":1,"byteOffset":0,"componentType":5126,"count":4512,"type":"VEC2","max":[0.9885685443878174,0.7099361419677734],"min":[2.2250738585072014e-308,2.2250738585072014e-308]},{"bufferView":2,"byteOffset":0,"componentType":5125,"count":20277,"type":"SCALAR","max":[4511],"min":[0]},{"bufferView":3,"byteOffset":0,"componentType":5126,"count":1019,"type":"VEC3","max":[4.739747524261475,-2.682060718536377,3.8565309047698975],"min":[2.2250738585072014e-308,-2.9499855041503906,2.2250738585072014e-308]},{"bufferView":4,"byteOffset":0,"componentType":5126,"count":1019,"type":"VEC2","max":[0.8515257239341736,0.5427379608154297],"min":[2.2250738585072014e-308,2.2250738585072014e-308]},{"bufferView":5,"byteOffset":0,"componentType":5125,"count":5091,"type":"SCALAR","max":[1018],"min":[0]}],"buffers":[{"byteLength":212092,"uri":"tile_0743.bin"}],"bufferViews":[{"buffer":0,"byteOffset":0,"byteLength":54144,"target":34962},{"buffer":0,"byteOffset":54144,"byteLength":36096,"target":34962},{"buffer":0,"byteOffset":90240,"byteLength":81108,"target":34963},{"buffer":0,"byteOffset":171348,"byteLength":12228,"target":34962},{"buffer":0,"byteOffset":183576,"byteLength":8152,"target":34962},{"buffer":0,"byteOffset":191728,"byteLength":20364,"target":34963}],"images":[{"uri":"../textures/tile_0743_material_0.jpg"},{"uri":"../textures/tile_0743_material_1.jpg"}],"materials":[{"name":"DefaultMaterial","pbrMetallicRoughness":{"baseColorFactor":[0.6000000238418579,0.6000000238418579,0.6000000238418579,1.0],"metallicFactor":0.0},"extensions":{"KHR_materials_specular":{"specularFactor":1.0,"specularColorFactor":[0.0,0.0,0.0]},"KHR_materials_ior":{"ior":1.0}}},{"name":"material_0_material","pbrMetallicRoughness":{"baseColorTexture":{"index":0},"metallicFactor":0.0},"extensions":{"KHR_materials_specular":{"specularFactor":1.0,"specularColorFactor":[0.0,0.0,0.0]},"KHR_materials_ior":{"ior":1.0}}},{"name":"material_1_material","pbrMetallicRoughness":{"baseColorTexture":{"index":1},"metallicFactor":0.0},"extensions":{"KHR_materials_specular":{"specularFactor":1.0,"specularColorFactor":[0.0,0.0,0.0]},"KHR_materials_ior":{"ior":1.0}}}],"meshes":[{"name":"defaultobject","primitives":[{"mode":4,"material":1,"indices":2,"attributes":{"POSITION":0,"TEXCOORD_0":1}},{"mode":4,"material":2,"indices":5,"attributes":{"POSITION":3,"TEXCOORD_0":4}}]}],"nodes":[{"name":"tile_0743.obj","children":[1]},{"name":"defaultobject","mesh":0}],"samplers":[{},{}],"scenes":[{"nodes":[0]}],"textures":[{"source":0,"sampler":0},{"source":1,"sampler":1}],"scene":0}
