{"asset":{"version":"2.0","generator":"Open Asset Import Library (assimp v6.0.0)"},"extensionsUsed":["KHR_materials_specular","KHR_materials_volume","KHR_materials_ior","FB_ngon_encoding"],"accessors":[{"bufferView":0,"byteOffset":0,"componentType":5126,"count":5844,"type":"VEC3","max":[3.401655435562134,-0.9731361269950867,4.0388641357421875],"min":[2.2250738585072014e-308,-1.2123132944107056,2.2250738585072014e-308]},{"bufferView":1,"byteOffset":0,"componentType":5126,"count":5844,"type":"VEC2","max":[0.9891567230224609,0.5776767730712891],"min":[2.2250738585072014e-308,2.2250738585072014e-308]},{"bufferView":2,"byteOffset":0,"componentType":5125,"count":24276,"type":"SCALAR","max":[5843],"min":[0]},{"bufferView":3,"byteOffset":0,"componentType":5126,"count":254,"type":"VEC3","max":[3.3507306575775146,-1.0018428564071655,3.8119096755981445],"min":[2.2250738585072014e-308,-1.059632658958435,2.2250738585072014e-308]},{"bufferView":4,"byteOffset":0,"componentType":5126,"count":254,"type":"VEC2","max":[0.6350727081298828,0.7251663208007812],"min":[2.2250738585072014e-308,2.2250738585072014e-308]},{"bufferView":5,"byteOffset":0,"componentType":5125,"count":1212,"type":"SCALAR","max":[253],"min":[0]}],"buffers":[{"byteLength":223912,"uri":"tile_0175.bin"}],"bufferViews":[{"buffer":0,"byteOffset":0,"byteLength":70128,"target":34962},{"buffer":0,"byteOffset":70128,"byteLength":46752,"target":34962},{"buffer":0,"byteOffset":116880,"byteLength":97104,"target":34963},{"buffer":0,"byteOffset":213984,"byteLength":3048,"target":34962},{"buffer":0,"byteOffset":217032,"byteLength":2032,"target":34962},{"buffer":0,"byteOffset":219064,"byteLength":4848,"target":34963}],"images":[{"uri":"../textures/tile_0175_material_0.jpg"},{"uri":"../textures/tile_0175_material_1.jpg"}],"materials":[{"name":"DefaultMaterial","pbrMetallicRoughness":{"baseColorFactor":[0.6000000238418579,0.6000000238418579,0.6000000238418579,1.0],"metallicFactor":0.0},"extensions":{"KHR_materials_specular":{"specularFactor":1.0,"specularColorFactor":[0.0,0.0,0.0]},"KHR_materials_ior":{"ior":1.0}}},{"name":"material_0_material","pbrMetallicRoughness":{"baseColorTexture":{"index":0},"metallicFactor":0.0},"extensions":{"KHR_materials_specular":{"specularFactor":1.0,"specularColorFactor":[0.0,0.0,0.0]},"KHR_materials_ior":{"ior":1.0}}},{"name":"material_1_material","pbrMetallicRoughness":{"baseColorTexture":{"index":1},"metallicFactor":0.0},"extensions":{"KHR_materials_specular":{"specularFactor":1.0,"specularColorFactor":[0.0,0.0,0.0]},"KHR_materials_ior":{"ior":1.0}}}],"meshes":[{"name":"defaultobject","primitives":[{"mode":4,"material":1,"indices":2,"attributes":{"POSITION":0,"TEXCOORD_0":1}},{"mode":4,"material":2,"indices":5,"attributes":{"POSITION":3,"TEXCOORD_0":4}}]}],"nodes":[{"name":"tile_0175.obj","children":[1]},{"name":"defaultobject","mesh":0}],"samplers":[{},{}],"scenes":[{"nodes":[0]}],"textures":[{"source":0,"sampler":0},{"source":1,"sampler":1}],"scene":0}
