{"asset":{"version":"2.0","generator":"Open Asset Import Library (assimp v6.0.0)"},"extensionsUsed":["KHR_materials_specular","KHR_materials_volume","KHR_materials_ior","FB_ngon_encoding"],"accessors":[{"bufferView":0,"byteOffset":0,"componentType":5126,"count":3089,"type":"VEC3","max":[-5.347951889038086,-0.16528351604938507,4.120701313018799],"min":[-6.170479774475098,-0.4500386416912079,2.2250738585072014e-308]},{"bufferView":1,"byteOffset":0,"componentType":5126,"count":3089,"type":"VEC2","max":[0.9721376895904541,0.8931808471679688],"min":[2.2250738585072014e-308,2.2250738585072014e-308]},{"bufferView":2,"byteOffset":0,"componentType":5125,"count":14550,"type":"SCALAR","max":[3088],"min":[0]},{"bufferView":3,"byteOffset":0,"componentType":5126,"count":821,"type":"VEC3","max":[-5.482546806335449,-0.16511566936969757,4.13530969619751],"min":[-6.177654266357422,-0.44988638162612915,2.2250738585072014e-308]},{"bufferView":4,"byteOffset":0,"componentType":5126,"count":821,"type":"VEC2","max":[0.7139577865600586,0.5087699890136719],"min":[2.2250738585072014e-308,2.2250738585072014e-308]},{"bufferView":5,"byteOffset":0,"componentType":5125,"count":4146,"type":"SCALAR","max":[820],"min":[0]}],"buffers":[{"byteLength":152984,"uri":"tile_0440.bin"}],"bufferViews":[{"buffer":0,"byteOffset":0,"byteLength":37068,"target":34962},{"buffer":0,"byteOffset":37068,"byteLength":24712,"target":34962},{"buffer":0,"byteOffset":61780,"byteLength":58200,"target":34963},{"buffer":0,"byteOffset":119980,"byteLength":9852,"target":34962},{"buffer":0,"byteOffset":129832,"byteLength":6568,"target":34962},{"buffer":0,"byteOffset":136400,"byteLength":16584,"target":34963}],"images":[{"uri":"../textures/tile_0440_material_0.jpg"},{"uri":"../textures/tile_0440_material_1.jpg"}],"materials":[{"name":"DefaultMaterial","pbrMetallicRoughness":{"baseColorFactor":[0.6000000238418579,0.6000000238418579,0.6000000238418579,1.0],"metallicFactor":0.0},"extensions":{"KHR_materials_specular":{"specularFactor":1.0,"specularColorFactor":[0.0,0.0,0.0]},"KHR_materials_ior":{"ior":1.0}}},{"name":"material_0_material","pbrMetallicRoughness":{"baseColorTexture":{"index":0},"metallicFactor":0.0},"extensions":{"KHR_materials_specular":{"specularFactor":1.0,"specularColorFactor":[0.0,0.0,0.0]},"KHR_materials_ior":{"ior":1.0}}},{"name":"material_1_material","pbrMetallicRoughness":{"baseColorTexture":{"index":1},"metallicFactor":0.0},"extensions":{"KHR_materials_specular":{"specularFactor":1.0,"specularColorFactor":[0.0,0.0,0.0]},"KHR_materials_ior":{"ior":1.0}}}],"meshes":[{"name":"defaultobject","primitives":[{"mode":4,"material":1,"indices":2,"attributes":{"POSITION":0,"TEXCOORD_0":1}},{"mode":4,"material":2,"indices":5,"attributes":{"POSITION":3,"TEXCOORD_0":4}}]}],"nodes":[{"name":"tile_0440.obj","children":[1]},{"name":"defaultobject","mesh":0}],"samplers":[{},{}],"scenes":[{"nodes":[0]}],"textures":[{"source":0,"sampler":0},{"source":1,"sampler":1}],"scene":0}
