{"asset":{"version":"2.0","generator":"Open Asset Import Library (assimp v6.0.0)"},"extensionsUsed":["KHR_materials_specular","KHR_materials_volume","KHR_materials_ior","FB_ngon_encoding"],"accessors":[{"bufferView":0,"byteOffset":0,"componentType":5126,"count":3537,"type":"VEC3","max":[-5.523967742919922,2.0112032890319824,4.62272310256958],"min":[-6.48168420791626,2.2250738585072014e-308,2.2250738585072014e-308]},{"bufferView":1,"byteOffset":0,"componentType":5126,"count":3537,"type":"VEC2","max":[0.9948949813842773,0.6601467132568359],"min":[2.2250738585072014e-308,2.2250738585072014e-308]},{"bufferView":2,"byteOffset":0,"componentType":5125,"count":15630,"type":"SCALAR","max":[3536],"min":[0]},{"bufferView":3,"byteOffset":0,"componentType":5126,"count":1746,"type":"VEC3","max":[-5.5254034996032715,2.0093533992767334,4.609440326690674],"min":[-6.481198787689209,2.2250738585072014e-308,2.2250738585072014e-308]},{"bufferView":4,"byteOffset":0,"componentType":5126,"count":1746,"type":"VEC2","max":[0.9768171310424805,0.635955810546875],"min":[2.2250738585072014e-308,2.2250738585072014e-308]},{"bufferView":5,"byteOffset":0,"componentType":5125,"count":8625,"type":"SCALAR","max":[1745],"min":[0]}],"buffers":[{"byteLength":202680,"uri":"tile_0483.bin"}],"bufferViews":[{"buffer":0,"byteOffset":0,"byteLength":42444,"target":34962},{"buffer":0,"byteOffset":42444,"byteLength":28296,"target":34962},{"buffer":0,"byteOffset":70740,"byteLength":62520,"target":34963},{"buffer":0,"byteOffset":133260,"byteLength":20952,"target":34962},{"buffer":0,"byteOffset":154212,"byteLength":13968,"target":34962},{"buffer":0,"byteOffset":168180,"byteLength":34500,"target":34963}],"images":[{"uri":"../textures/tile_0483_material_0.jpg"},{"uri":"../textures/tile_0483_material_1.jpg"}],"materials":[{"name":"DefaultMaterial","pbrMetallicRoughness":{"baseColorFactor":[0.6000000238418579,0.6000000238418579,0.6000000238418579,1.0],"metallicFactor":0.0},"extensions":{"KHR_materials_specular":{"specularFactor":1.0,"specularColorFactor":[0.0,0.0,0.0]},"KHR_materials_ior":{"ior":1.0}}},{"name":"material_0_material","pbrMetallicRoughness":{"baseColorTexture":{"index":0},"metallicFactor":0.0},"extensions":{"KHR_materials_specular":{"specularFactor":1.0,"specularColorFactor":[0.0,0.0,0.0]},"KHR_materials_ior":{"ior":1.0}}},{"name":"material_1_material","pbrMetallicRoughness":{"baseColorTexture":{"index":1},"metallicFactor":0.0},"extensions":{"KHR_materials_specular":{"specularFactor":1.0,"specularColorFactor":[0.0,0.0,0.0]},"KHR_materials_ior":{"ior":1.0}}}],"meshes":[{"name":"defaultobject","primitives":[{"mode":4,"material":1,"indices":2,"attributes":{"POSITION":0,"TEXCOORD_0":1}},{"mode":4,"material":2,"indices":5,"attributes":{"POSITION":3,"TEXCOORD_0":4}}]}],"nodes":[{"name":"tile_0483.obj","children":[1]},{"name":"defaultobject","mesh":0}],"samplers":[{},{}],"scenes":[{"nodes":[0]}],"textures":[{"source":0,"sampler":0},{"source":1,"sampler":1}],"scene":0}
