{"asset":{"version":"2.0","generator":"Open Asset Import Library (assimp v6.0.0)"},"extensionsUsed":["KHR_materials_specular","KHR_materials_volume","KHR_materials_ior","FB_ngon_encoding"],"accessors":[{"bufferView":0,"byteOffset":0,"componentType":5126,"count":4852,"type":"VEC3","max":[2.0846540927886963,-3.948505163192749,3.2792470455169678],"min":[2.2250738585072014e-308,-4.333218574523926,2.2250738585072014e-308]},{"bufferView":1,"byteOffset":0,"componentType":5126,"count":4852,"type":"VEC2","max":[0.9958189725875854,0.5345554351806641],"min":[2.2250738585072014e-308,2.2250738585072014e-308]},{"bufferView":2,"byteOffset":0,"componentType":5125,"count":20070,"type":"SCALAR","max":[4851],"min":[0]},{"bufferView":3,"byteOffset":0,"componentType":5126,"count":1142,"type":"VEC3","max":[2.083575487136841,-4.015423774719238,3.246704578399658],"min":[2.2250738585072014e-308,-4.331745624542236,2.2250738585072014e-308]},{"bufferView":4,"byteOffset":0,"componentType":5126,"count":1142,"type":"VEC2","max":[0.6135168075561523,0.6692352294921875],"min":[2.2250738585072014e-308,2.2250738585072014e-308]},{"bufferView":5,"byteOffset":0,"componentType":5125,"count":5823,"type":"SCALAR","max":[1141],"min":[0]}],"buffers":[{"byteLength":223452,"uri":"tile_0784.bin"}],"bufferViews":[{"buffer":0,"byteOffset":0,"byteLength":58224,"target":34962},{"buffer":0,"byteOffset":58224,"byteLength":38816,"target":34962},{"buffer":0,"byteOffset":97040,"byteLength":80280,"target":34963},{"buffer":0,"byteOffset":177320,"byteLength":13704,"target":34962},{"buffer":0,"byteOffset":191024,"byteLength":9136,"target":34962},{"buffer":0,"byteOffset":200160,"byteLength":23292,"target":34963}],"images":[{"uri":"../textures/tile_0784_material_0.jpg"},{"uri":"../textures/tile_0784_material_1.jpg"}],"materials":[{"name":"DefaultMaterial","pbrMetallicRoughness":{"baseColorFactor":[0.6000000238418579,0.6000000238418579,0.6000000238418579,1.0],"metallicFactor":0.0},"extensions":{"KHR_materials_specular":{"specularFactor":1.0,"specularColorFactor":[0.0,0.0,0.0]},"KHR_materials_ior":{"ior":1.0}}},{"name":"material_0_material","pbrMetallicRoughness":{"baseColorTexture":{"index":0},"metallicFactor":0.0},"extensions":{"KHR_materials_specular":{"specularFactor":1.0,"specularColorFactor":[0.0,0.0,0.0]},"KHR_materials_ior":{"ior":1.0}}},{"name":"material_1_material","pbrMetallicRoughness":{"baseColorTexture":{"index":1},"metallicFactor":0.0},"extensions":{"KHR_materials_specular":{"specularFactor":1.0,"specularColorFactor":[0.0,0.0,0.0]},"KHR_materials_ior":{"ior":1.0}}}],"meshes":[{"name":"defaultobject","primitives":[{"mode":4,"material":1,"indices":2,"attributes":{"POSITION":0,"TEXCOORD_0":1}},{"mode":4,"material":2,"indices":5,"attributes":{"POSITION":3,"TEXCOORD_0":4}}]}],"nodes":[{"name":"tile_0784.obj","children":[1]},{"name":"defaultobject","mesh":0}],"samplers":[{},{}],"scenes":[{"nodes":[0]}],"textures":[{"source":0,"sampler":0},{"source":1,"sampler":1}],"scene":0}
