{"asset":{"version":"2.0","generator":"Open Asset Import Library (assimp v6.0.0)"},"extensionsUsed":["KHR_materials_specular","KHR_materials_volume","KHR_materials_ior","FB_ngon_encoding"],"accessors":[{"bufferView":0,"byteOffset":0,"componentType":5126,"count":4466,"type":"VEC3","max":[-4.000787734985352,1.0262424945831299,4.160238742828369],"min":[-4.417547702789307,2.2250738585072014e-308,2.2250738585072014e-308]},{"bufferView":1,"byteOffset":0,"componentType":5126,"count":4466,"type":"VEC2","max":[0.9932665824890137,0.578125],"min":[2.2250738585072014e-308,2.2250738585072014e-308]},{"bufferView":2,"byteOffset":0,"componentType":5125,"count":20091,"type":"SCALAR","max":[4465],"min":[0]},{"bufferView":3,"byteOffset":0,"componentType":5126,"count":3,"type":"VEC3","max":[-4.371948719024658,0.8694592118263245,3.969385862350464],"min":[-4.378823280334473,2.2250738585072014e-308,2.2250738585072014e-308]},{"bufferView":4,"byteOffset":0,"componentType":5126,"count":3,"type":"VEC2","max":[0.4219667315483093,0.4945375323295593],"min":[2.2250738585072014e-308,2.2250738585072014e-308]},{"bufferView":5,"byteOffset":0,"componentType":5125,"count":3,"type":"SCALAR","max":[2],"min":[0]}],"buffers":[{"byteLength":169756,"uri":"tile_0129.bin"}],"bufferViews":[{"buffer":0,"byteOffset":0,"byteLength":53592,"target":34962},{"buffer":0,"byteOffset":53592,"byteLength":35728,"target":34962},{"buffer":0,"byteOffset":89320,"byteLength":80364,"target":34963},{"buffer":0,"byteOffset":169684,"byteLength":36,"target":34962},{"buffer":0,"byteOffset":169720,"byteLength":24,"target":34962},{"buffer":0,"byteOffset":169744,"byteLength":12,"target":34963}],"images":[{"uri":"../textures/tile_0129_material_0.jpg"},{"uri":"../textures/tile_0129_material_1.jpg"}],"materials":[{"name":"DefaultMaterial","pbrMetallicRoughness":{"baseColorFactor":[0.6000000238418579,0.6000000238418579,0.6000000238418579,1.0],"metallicFactor":0.0},"extensions":{"KHR_materials_specular":{"specularFactor":1.0,"specularColorFactor":[0.0,0.0,0.0]},"KHR_materials_ior":{"ior":1.0}}},{"name":"material_0_material","pbrMetallicRoughness":{"baseColorTexture":{"index":0},"metallicFactor":0.0},"extensions":{"KHR_materials_specular":{"specularFactor":1.0,"specularColorFactor":[0.0,0.0,0.0]},"KHR_materials_ior":{"ior":1.0}}},{"name":"material_1_material","pbrMetallicRoughness":{"baseColorTexture":{"index":1},"metallicFactor":0.0},"extensions":{"KHR_materials_specular":{"specularFactor":1.0,"specularColorFactor":[0.0,0.0,0.0]},"KHR_materials_ior":{"ior":1.0}}}],"meshes":[{"name":"defaultobject","primitives":[{"mode":4,"material":1,"indices":2,"attributes":{"POSITION":0,"TEXCOORD_0":1}},{"mode":4,"material":2,"indices":5,"attributes":{"POSITION":3,"TEXCOORD_0":4}}]}],"nodes":[{"name":"tile_0129.obj","children":[1]},{"name":"defaultobject","mesh":0}],"samplers":[{},{}],"scenes":[{"nodes":[0]}],"textures":[{"source":0,"sampler":0},{"source":1,"sampler":1}],"scene":0}
