{"asset":{"version":"2.0","generator":"Open Asset Import Library (assimp v6.0.0)"},"extensionsUsed":["KHR_materials_specular","KHR_materials_volume","KHR_materials_ior","FB_ngon_encoding"],"accessors":[{"bufferView":0,"byteOffset":0,"componentType":5126,"count":483,"type":"VEC3","max":[-1.1030073165893555,-5.86169958114624,2.5104453563690186],"min":[-1.2454403638839722,-7.07573127746582,2.2250738585072014e-308]},{"bufferView":1,"byteOffset":0,"componentType":5126,"count":483,"type":"VEC2","max":[0.552734375,0.581611692905426],"min":[2.2250738585072014e-308,2.2250738585072014e-308]},{"bufferView":2,"byteOffset":0,"componentType":5125,"count":1704,"type":"SCALAR","max":[482],"min":[0]},{"bufferView":3,"byteOffset":0,"componentType":5126,"count":3800,"type":"VEC3","max":[-1.0932222604751587,-5.861845016479492,2.509822368621826],"min":[-1.2513879537582397,-7.083996772766113,2.2250738585072014e-308]},{"bufferView":4,"byteOffset":0,"componentType":5126,"count":3800,"type":"VEC2","max":[0.9882473945617676,0.5400571823120117],"min":[2.2250738585072014e-308,2.2250738585072014e-308]},{"bufferView":5,"byteOffset":0,"componentType":5125,"count":19755,"type":"SCALAR","max":[3799],"min":[0]}],"buffers":[{"byteLength":171496,"uri":"tile_0390.bin"}],"bufferViews":[{"buffer":0,"byteOffset":0,"byteLength":5796,"target":34962},{"buffer":0,"byteOffset":5796,"byteLength":3864,"target":34962},{"buffer":0,"byteOffset":9660,"byteLength":6816,"target":34963},{"buffer":0,"byteOffset":16476,"byteLength":45600,"target":34962},{"buffer":0,"byteOffset":62076,"byteLength":30400,"target":34962},{"buffer":0,"byteOffset":92476,"byteLength":79020,"target":34963}],"images":[{"uri":"../textures/tile_0390_material_0.jpg"},{"uri":"../textures/tile_0390_material_1.jpg"}],"materials":[{"name":"DefaultMaterial","pbrMetallicRoughness":{"baseColorFactor":[0.6000000238418579,0.6000000238418579,0.6000000238418579,1.0],"metallicFactor":0.0},"extensions":{"KHR_materials_specular":{"specularFactor":1.0,"specularColorFactor":[0.0,0.0,0.0]},"KHR_materials_ior":{"ior":1.0}}},{"name":"material_0_material","pbrMetallicRoughness":{"baseColorTexture":{"index":0},"metallicFactor":0.0},"extensions":{"KHR_materials_specular":{"specularFactor":1.0,"specularColorFactor":[0.0,0.0,0.0]},"KHR_materials_ior":{"ior":1.0}}},{"name":"material_1_material","pbrMetallicRoughness":{"baseColorTexture":{"index":1},"metallicFactor":0.0},"extensions":{"KHR_materials_specular":{"specularFactor":1.0,"specularColorFactor":[0.0,0.0,0.0]},"KHR_materials_ior":{"ior":1.0}}}],"meshes":[{"name":"defaultobject","primitives":[{"mode":4,"material":1,"indices":2,"attributes":{"POSITION":0,"TEXCOORD_0":1}},{"mode":4,"material":2,"indices":5,"attributes":{"POSITION":3,"TEXCOORD_0":4}}]}],"nodes":[{"name":"tile_0390.obj","children":[1]},{"name":"defaultobject","mesh":0}],"samplers":[{},{}],"scenes":[{"nodes":[0]}],"textures":[{"source":0,"sampler":0},{"source":1,"sampler":1}],"scene":0}
