{"asset":{"version":"2.0","generator":"Open Asset Import Library (assimp v6.0.0)"},"extensionsUsed":["KHR_materials_specular","KHR_materials_volume","KHR_materials_ior","FB_ngon_encoding"],"accessors":[{"bufferView":0,"byteOffset":0,"componentType":5126,"count":1023,"type":"VEC3","max":[-3.4179646968841553,-1.784469485282898,3.140571117401123],"min":[-3.8405067920684814,-2.05942702293396,2.2250738585072014e-308]},{"bufferView":1,"byteOffset":0,"componentType":5126,"count":1023,"type":"VEC2","max":[0.669921875,0.4994010925292969],"min":[2.2250738585072014e-308,2.2250738585072014e-308]},{"bufferView":2,"byteOffset":0,"componentType":5125,"count":4692,"type":"SCALAR","max":[1022],"min":[0]},{"bufferView":3,"byteOffset":0,"componentType":5126,"count":1566,"type":"VEC3","max":[-3.41780424118042,-1.7890266180038452,3.176340103149414],"min":[-3.8335683345794678,-2.05942702293396,2.2250738585072014e-308]},{"bufferView":4,"byteOffset":0,"componentType":5126,"count":1566,"type":"VEC2","max":[0.5108733177185059,0.5355758666992188],"min":[2.2250738585072014e-308,2.2250738585072014e-308]},{"bufferView":5,"byteOffset":0,"componentType":5125,"count":8169,"type":"SCALAR","max":[1565],"min":[0]}],"buffers":[{"byteLength":103224,"uri":"tile_0427.bin"}],"bufferViews":[{"buffer":0,"byteOffset":0,"byteLength":12276,"target":34962},{"buffer":0,"byteOffset":12276,"byteLength":8184,"target":34962},{"buffer":0,"byteOffset":20460,"byteLength":18768,"target":34963},{"buffer":0,"byteOffset":39228,"byteLength":18792,"target":34962},{"buffer":0,"byteOffset":58020,"byteLength":12528,"target":34962},{"buffer":0,"byteOffset":70548,"byteLength":32676,"target":34963}],"images":[{"uri":"../textures/tile_0427_material_0.jpg"},{"uri":"../textures/tile_0427_material_1.jpg"}],"materials":[{"name":"DefaultMaterial","pbrMetallicRoughness":{"baseColorFactor":[0.6000000238418579,0.6000000238418579,0.6000000238418579,1.0],"metallicFactor":0.0},"extensions":{"KHR_materials_specular":{"specularFactor":1.0,"specularColorFactor":[0.0,0.0,0.0]},"KHR_materials_ior":{"ior":1.0}}},{"name":"material_0_material","pbrMetallicRoughness":{"baseColorTexture":{"index":0},"metallicFactor":0.0},"extensions":{"KHR_materials_specular":{"specularFactor":1.0,"specularColorFactor":[0.0,0.0,0.0]},"KHR_materials_ior":{"ior":1.0}}},{"name":"material_1_material","pbrMetallicRoughness":{"baseColorTexture":{"index":1},"metallicFactor":0.0},"extensions":{"KHR_materials_specular":{"specularFactor":1.0,"specularColorFactor":[0.0,0.0,0.0]},"KHR_materials_ior":{"ior":1.0}}}],"meshes":[{"name":"defaultobject","primitives":[{"mode":4,"material":1,"indices":2,"attributes":{"POSITION":0,"TEXCOORD_0":1}},{"mode":4,"material":2,"indices":5,"attributes":{"POSITION":3,"TEXCOORD_0":4}}]}],"nodes":[{"name":"tile_0427.obj","children":[1]},{"name":"defaultobject","mesh":0}],"samplers":[{},{}],"scenes":[{"nodes":[0]}],"textures":[{"source":0,"sampler":0},{"source":1,"sampler":1}],"scene":0}
