{"asset":{"version":"2.0","generator":"Open Asset Import Library (assimp v6.0.0)"},"extensionsUsed":["KHR_materials_specular","KHR_materials_volume","KHR_materials_ior","FB_ngon_encoding"],"accessors":[{"bufferView":0,"byteOffset":0,"componentType":5126,"count":2135,"type":"VEC3","max":[-3.8291430473327637,-2.3697259426116943,3.166224479675293],"min":[-4.211042404174805,-2.793320417404175,2.2250738585072014e-308]},{"bufferView":1,"byteOffset":0,"componentType":5126,"count":2135,"type":"VEC2","max":[0.9813671112060547,0.7449722290039062],"min":[2.2250738585072014e-308,2.2250738585072014e-308]},{"bufferView":2,"byteOffset":0,"componentType":5125,"count":10131,"type":"SCALAR","max":[2134],"min":[0]},{"bufferView":3,"byteOffset":0,"componentType":5126,"count":1979,"type":"VEC3","max":[-3.830939769744873,-2.370593309402466,3.165661096572876],"min":[-4.211982250213623,-2.76185941696167,2.2250738585072014e-308]},{"bufferView":4,"byteOffset":0,"componentType":5126,"count":1979,"type":"VEC2","max":[0.5725898742675781,0.6810111999511719],"min":[2.2250738585072014e-308,2.2250738585072014e-308]},{"bufferView":5,"byteOffset":0,"componentType":5125,"count":10365,"type":"SCALAR","max":[1978],"min":[0]}],"buffers":[{"byteLength":164264,"uri":"tile_0418.bin"}],"bufferViews":[{"buffer":0,"byteOffset":0,"byteLength":25620,"target":34962},{"buffer":0,"byteOffset":25620,"byteLength":17080,"target":34962},{"buffer":0,"byteOffset":42700,"byteLength":40524,"target":34963},{"buffer":0,"byteOffset":83224,"byteLength":23748,"target":34962},{"buffer":0,"byteOffset":106972,"byteLength":15832,"target":34962},{"buffer":0,"byteOffset":122804,"byteLength":41460,"target":34963}],"images":[{"uri":"../textures/tile_0418_material_0.jpg"},{"uri":"../textures/tile_0418_material_1.jpg"}],"materials":[{"name":"DefaultMaterial","pbrMetallicRoughness":{"baseColorFactor":[0.6000000238418579,0.6000000238418579,0.6000000238418579,1.0],"metallicFactor":0.0},"extensions":{"KHR_materials_specular":{"specularFactor":1.0,"specularColorFactor":[0.0,0.0,0.0]},"KHR_materials_ior":{"ior":1.0}}},{"name":"material_0_material","pbrMetallicRoughness":{"baseColorTexture":{"index":0},"metallicFactor":0.0},"extensions":{"KHR_materials_specular":{"specularFactor":1.0,"specularColorFactor":[0.0,0.0,0.0]},"KHR_materials_ior":{"ior":1.0}}},{"name":"material_1_material","pbrMetallicRoughness":{"baseColorTexture":{"index":1},"metallicFactor":0.0},"extensions":{"KHR_materials_specular":{"specularFactor":1.0,"specularColorFactor":[0.0,0.0,0.0]},"KHR_materials_ior":{"ior":1.0}}}],"meshes":[{"name":"defaultobject","primitives":[{"mode":4,"material":1,"indices":2,"attributes":{"POSITION":0,"TEXCOORD_0":1}},{"mode":4,"material":2,"indices":5,"attributes":{"POSITION":3,"TEXCOORD_0":4}}]}],"nodes":[{"name":"tile_0418.obj","children":[1]},{"name":"defaultobject","mesh":0}],"samplers":[{},{}],"scenes":[{"nodes":[0]}],"textures":[{"source":0,"sampler":0},{"source":1,"sampler":1}],"scene":0}
