{"asset":{"version":"2.0","generator":"Open Asset Import Library (assimp v6.0.0)"},"extensionsUsed":["KHR_materials_specular","KHR_materials_volume","KHR_materials_ior","FB_ngon_encoding"],"accessors":[{"bufferView":0,"byteOffset":0,"componentType":5126,"count":1812,"type":"VEC3","max":[-3.832477569580078,-1.6501141786575317,3.471973419189453],"min":[-4.419155120849609,-1.8396942615509033,2.2250738585072014e-308]},{"bufferView":1,"byteOffset":0,"componentType":5126,"count":1812,"type":"VEC2","max":[0.9916591644287109,0.7186126708984375],"min":[2.2250738585072014e-308,2.2250738585072014e-308]},{"bufferView":2,"byteOffset":0,"componentType":5125,"count":8328,"type":"SCALAR","max":[1811],"min":[0]},{"bufferView":3,"byteOffset":0,"componentType":5126,"count":2286,"type":"VEC3","max":[-3.827592611312866,-1.6490137577056885,3.4721903800964355],"min":[-4.379698276519775,-1.8689535856246948,2.2250738585072014e-308]},{"bufferView":4,"byteOffset":0,"componentType":5126,"count":2286,"type":"VEC2","max":[0.6305160522460938,0.6086063385009766],"min":[2.2250738585072014e-308,2.2250738585072014e-308]},{"bufferView":5,"byteOffset":0,"componentType":5125,"count":11976,"type":"SCALAR","max":[2285],"min":[0]}],"buffers":[{"byteLength":163176,"uri":"tile_0420.bin"}],"bufferViews":[{"buffer":0,"byteOffset":0,"byteLength":21744,"target":34962},{"buffer":0,"byteOffset":21744,"byteLength":14496,"target":34962},{"buffer":0,"byteOffset":36240,"byteLength":33312,"target":34963},{"buffer":0,"byteOffset":69552,"byteLength":27432,"target":34962},{"buffer":0,"byteOffset":96984,"byteLength":18288,"target":34962},{"buffer":0,"byteOffset":115272,"byteLength":47904,"target":34963}],"images":[{"uri":"../textures/tile_0420_material_0.jpg"},{"uri":"../textures/tile_0420_material_1.jpg"}],"materials":[{"name":"DefaultMaterial","pbrMetallicRoughness":{"baseColorFactor":[0.6000000238418579,0.6000000238418579,0.6000000238418579,1.0],"metallicFactor":0.0},"extensions":{"KHR_materials_specular":{"specularFactor":1.0,"specularColorFactor":[0.0,0.0,0.0]},"KHR_materials_ior":{"ior":1.0}}},{"name":"material_0_material","pbrMetallicRoughness":{"baseColorTexture":{"index":0},"metallicFactor":0.0},"extensions":{"KHR_materials_specular":{"specularFactor":1.0,"specularColorFactor":[0.0,0.0,0.0]},"KHR_materials_ior":{"ior":1.0}}},{"name":"material_1_material","pbrMetallicRoughness":{"baseColorTexture":{"index":1},"metallicFactor":0.0},"extensions":{"KHR_materials_specular":{"specularFactor":1.0,"specularColorFactor":[0.0,0.0,0.0]},"KHR_materials_ior":{"ior":1.0}}}],"meshes":[{"name":"defaultobject","primitives":[{"mode":4,"material":1,"indices":2,"attributes":{"POSITION":0,"TEXCOORD_0":1}},{"mode":4,"material":2,"indices":5,"attributes":{"POSITION":3,"TEXCOORD_0":4}}]}],"nodes":[{"name":"tile_0420.obj","children":[1]},{"name":"defaultobject","mesh":0}],"samplers":[{},{}],"scenes":[{"nodes":[0]}],"textures":[{"source":0,"sampler":0},{"source":1,"sampler":1}],"scene":0}
