{"asset":{"version":"2.0","generator":"Open Asset Import Library (assimp v6.0.0)"},"extensionsUsed":["KHR_materials_specular","KHR_materials_volume","KHR_materials_ior","FB_ngon_encoding"],"accessors":[{"bufferView":0,"byteOffset":0,"componentType":5126,"count":3550,"type":"VEC3","max":[4.605892658233643,-1.3969480991363525,4.001001358032227],"min":[2.2250738585072014e-308,-1.6871795654296875,2.2250738585072014e-308]},{"bufferView":1,"byteOffset":0,"componentType":5126,"count":3550,"type":"VEC2","max":[0.9902200698852539,0.7183189392089844],"min":[2.2250738585072014e-308,2.2250738585072014e-308]},{"bufferView":2,"byteOffset":0,"componentType":5125,"count":15498,"type":"SCALAR","max":[3549],"min":[0]},{"bufferView":3,"byteOffset":0,"componentType":5126,"count":3370,"type":"VEC3","max":[4.597218036651611,-1.394593358039856,4.029178142547607],"min":[2.2250738585072014e-308,-1.6881799697875977,2.2250738585072014e-308]},{"bufferView":4,"byteOffset":0,"componentType":5126,"count":3370,"type":"VEC2","max":[0.9401295185089111,0.8912849426269531],"min":[2.2250738585072014e-308,2.2250738585072014e-308]},{"bufferView":5,"byteOffset":0,"componentType":5125,"count":17028,"type":"SCALAR","max":[3369],"min":[0]}],"buffers":[{"byteLength":268504,"uri":"tile_0732.bin"}],"bufferViews":[{"buffer":0,"byteOffset":0,"byteLength":42600,"target":34962},{"buffer":0,"byteOffset":42600,"byteLength":28400,"target":34962},{"buffer":0,"byteOffset":71000,"byteLength":61992,"target":34963},{"buffer":0,"byteOffset":132992,"byteLength":40440,"target":34962},{"buffer":0,"byteOffset":173432,"byteLength":26960,"target":34962},{"buffer":0,"byteOffset":200392,"byteLength":68112,"target":34963}],"images":[{"uri":"../textures/tile_0732_material_0.jpg"},{"uri":"../textures/tile_0732_material_1.jpg"}],"materials":[{"name":"DefaultMaterial","pbrMetallicRoughness":{"baseColorFactor":[0.6000000238418579,0.6000000238418579,0.6000000238418579,1.0],"metallicFactor":0.0},"extensions":{"KHR_materials_specular":{"specularFactor":1.0,"specularColorFactor":[0.0,0.0,0.0]},"KHR_materials_ior":{"ior":1.0}}},{"name":"material_0_material","pbrMetallicRoughness":{"baseColorTexture":{"index":0},"metallicFactor":0.0},"extensions":{"KHR_materials_specular":{"specularFactor":1.0,"specularColorFactor":[0.0,0.0,0.0]},"KHR_materials_ior":{"ior":1.0}}},{"name":"material_1_material","pbrMetallicRoughness":{"baseColorTexture":{"index":1},"metallicFactor":0.0},"extensions":{"KHR_materials_specular":{"specularFactor":1.0,"specularColorFactor":[0.0,0.0,0.0]},"KHR_materials_ior":{"ior":1.0}}}],"meshes":[{"name":"defaultobject","primitives":[{"mode":4,"material":1,"indices":2,"attributes":{"POSITION":0,"TEXCOORD_0":1}},{"mode":4,"material":2,"indices":5,"attributes":{"POSITION":3,"TEXCOORD_0":4}}]}],"nodes":[{"name":"tile_0732.obj","children":[1]},{"name":"defaultobject","mesh":0}],"samplers":[{},{}],"scenes":[{"nodes":[0]}],"textures":[{"source":0,"sampler":0},{"source":1,"sampler":1}],"scene":0}
