{"asset":{"version":"2.0","generator":"Open Asset Import Library (assimp v6.0.0)"},"extensionsUsed":["KHR_materials_specular","KHR_materials_volume","KHR_materials_ior","FB_ngon_encoding"],"accessors":[{"bufferView":0,"byteOffset":0,"componentType":5126,"count":6193,"type":"VEC3","max":[-0.2337968796491623,-3.367983341217041,2.308490753173828],"min":[-0.4249007999897003,-3.7038521766662598,2.2250738585072014e-308]},{"bufferView":1,"byteOffset":0,"componentType":5126,"count":6193,"type":"VEC2","max":[0.991046667098999,0.7026348114013672],"min":[2.2250738585072014e-308,2.2250738585072014e-308]},{"bufferView":2,"byteOffset":0,"componentType":5125,"count":27708,"type":"SCALAR","max":[6192],"min":[0]},{"bufferView":3,"byteOffset":0,"componentType":5126,"count":73,"type":"VEC3","max":[-0.24417579174041748,-3.6702613830566406,2.2920658588409424],"min":[-0.27724069356918335,-3.70354962348938,2.2250738585072014e-308]},{"bufferView":4,"byteOffset":0,"componentType":5126,"count":73,"type":"VEC2","max":[0.7841224670410156,0.4650498032569885],"min":[2.2250738585072014e-308,2.2250738585072014e-308]},{"bufferView":5,"byteOffset":0,"componentType":5125,"count":285,"type":"SCALAR","max":[72],"min":[0]}],"buffers":[{"byteLength":237292,"uri":"tile_0027.bin"}],"bufferViews":[{"buffer":0,"byteOffset":0,"byteLength":74316,"target":34962},{"buffer":0,"byteOffset":74316,"byteLength":49544,"target":34962},{"buffer":0,"byteOffset":123860,"byteLength":110832,"target":34963},{"buffer":0,"byteOffset":234692,"byteLength":876,"target":34962},{"buffer":0,"byteOffset":235568,"byteLength":584,"target":34962},{"buffer":0,"byteOffset":236152,"byteLength":1140,"target":34963}],"images":[{"uri":"../textures/tile_0027_material_0.jpg"},{"uri":"../textures/tile_0027_material_1.jpg"}],"materials":[{"name":"DefaultMaterial","pbrMetallicRoughness":{"baseColorFactor":[0.6000000238418579,0.6000000238418579,0.6000000238418579,1.0],"metallicFactor":0.0},"extensions":{"KHR_materials_specular":{"specularFactor":1.0,"specularColorFactor":[0.0,0.0,0.0]},"KHR_materials_ior":{"ior":1.0}}},{"name":"material_0_material","pbrMetallicRoughness":{"baseColorTexture":{"index":0},"metallicFactor":0.0},"extensions":{"KHR_materials_specular":{"specularFactor":1.0,"specularColorFactor":[0.0,0.0,0.0]},"KHR_materials_ior":{"ior":1.0}}},{"name":"material_1_material","pbrMetallicRoughness":{"baseColorTexture":{"index":1},"metallicFactor":0.0},"extensions":{"KHR_materials_specular":{"specularFactor":1.0,"specularColorFactor":[0.0,0.0,0.0]},"KHR_materials_ior":{"ior":1.0}}}],"meshes":[{"name":"defaultobject","primitives":[{"mode":4,"material":1,"indices":2,"attributes":{"POSITION":0,"TEXCOORD_0":1}},{"mode":4,"material":2,"indices":5,"attributes":{"POSITION":3,"TEXCOORD_0":4}}]}],"nodes":[{"name":"tile_0027.obj","children":[1]},{"name":"defaultobject","mesh":0}],"samplers":[{},{}],"scenes":[{"nodes":[0]}],"textures":[{"source":0,"sampler":0},{"source":1,"sampler":1}],"scene":0}
