{"asset":{"version":"2.0","generator":"Open Asset Import Library (assimp v6.0.0)"},"extensionsUsed":["KHR_materials_specular","KHR_materials_volume","KHR_materials_ior","FB_ngon_encoding"],"accessors":[{"bufferView":0,"byteOffset":0,"componentType":5126,"count":3743,"type":"VEC3","max":[1.0958222150802612,2.420362949371338,4.394527435302734],"min":[2.2250738585072014e-308,2.2250738585072014e-308,2.2250738585072014e-308]},{"bufferView":1,"byteOffset":0,"componentType":5126,"count":3743,"type":"VEC2","max":[0.9922981262207031,0.8513641357421875],"min":[2.2250738585072014e-308,2.2250738585072014e-308]},{"bufferView":2,"byteOffset":0,"componentType":5125,"count":15954,"type":"SCALAR","max":[3742],"min":[0]},{"bufferView":3,"byteOffset":0,"componentType":5126,"count":1568,"type":"VEC3","max":[1.093519926071167,2.4183719158172607,4.393639087677002],"min":[2.2250738585072014e-308,2.2250738585072014e-308,2.2250738585072014e-308]},{"bufferView":4,"byteOffset":0,"componentType":5126,"count":1568,"type":"VEC2","max":[0.6666946411132812,0.7902679443359375],"min":[2.2250738585072014e-308,2.2250738585072014e-308]},{"bufferView":5,"byteOffset":0,"componentType":5125,"count":7716,"type":"SCALAR","max":[1567],"min":[0]}],"buffers":[{"byteLength":200900,"uri":"tile_0197.bin"}],"bufferViews":[{"buffer":0,"byteOffset":0,"byteLength":44916,"target":34962},{"buffer":0,"byteOffset":44916,"byteLength":29944,"target":34962},{"buffer":0,"byteOffset":74860,"byteLength":63816,"target":34963},{"buffer":0,"byteOffset":138676,"byteLength":18816,"target":34962},{"buffer":0,"byteOffset":157492,"byteLength":12544,"target":34962},{"buffer":0,"byteOffset":170036,"byteLength":30864,"target":34963}],"images":[{"uri":"../textures/tile_0197_material_0.jpg"},{"uri":"../textures/tile_0197_material_1.jpg"}],"materials":[{"name":"DefaultMaterial","pbrMetallicRoughness":{"baseColorFactor":[0.6000000238418579,0.6000000238418579,0.6000000238418579,1.0],"metallicFactor":0.0},"extensions":{"KHR_materials_specular":{"specularFactor":1.0,"specularColorFactor":[0.0,0.0,0.0]},"KHR_materials_ior":{"ior":1.0}}},{"name":"material_0_material","pbrMetallicRoughness":{"baseColorTexture":{"index":0},"metallicFactor":0.0},"extensions":{"KHR_materials_specular":{"specularFactor":1.0,"specularColorFactor":[0.0,0.0,0.0]},"KHR_materials_ior":{"ior":1.0}}},{"name":"material_1_material","pbrMetallicRoughness":{"baseColorTexture":{"index":1},"metallicFactor":0.0},"extensions":{"KHR_materials_specular":{"specularFactor":1.0,"specularColorFactor":[0.0,0.0,0.0]},"KHR_materials_ior":{"ior":1.0}}}],"meshes":[{"name":"defaultobject","primitives":[{"mode":4,"material":1,"indices":2,"attributes":{"POSITION":0,"TEXCOORD_0":1}},{"mode":4,"material":2,"indices":5,"attributes":{"POSITION":3,"TEXCOORD_0":4}}]}],"nodes":[{"name":"tile_0197.obj","children":[1]},{"name":"defaultobject","mesh":0}],"samplers":[{},{}],"scenes":[{"nodes":[0]}],"textures":[{"source":0,"sampler":0},{"source":1,"sampler":1}],"scene":0}
