{"asset":{"version":"2.0","generator":"Open Asset Import Library (assimp v6.0.0)"},"extensionsUsed":["KHR_materials_specular","KHR_materials_volume","KHR_materials_ior","FB_ngon_encoding"],"accessors":[{"bufferView":0,"byteOffset":0,"componentType":5126,"count":7209,"type":"VEC3","max":[-0.04708113521337509,-3.3668975830078125,2.431204319000244],"min":[-0.2592450678348541,-3.704648494720459,2.2250738585072014e-308]},{"bufferView":1,"byteOffset":0,"componentType":5126,"count":7209,"type":"VEC2","max":[0.9934251308441162,0.7577705383300781],"min":[2.2250738585072014e-308,2.2250738585072014e-308]},{"bufferView":2,"byteOffset":0,"componentType":5125,"count":30594,"type":"SCALAR","max":[7208],"min":[0]},{"bufferView":3,"byteOffset":0,"componentType":5126,"count":145,"type":"VEC3","max":[-0.2105204164981842,-3.6252481937408447,2.3031065464019775],"min":[-0.2547807991504669,-3.7001357078552246,2.2250738585072014e-308]},{"bufferView":4,"byteOffset":0,"componentType":5126,"count":145,"type":"VEC2","max":[0.7851295471191406,0.9409789443016052],"min":[2.2250738585072014e-308,2.2250738585072014e-308]},{"bufferView":5,"byteOffset":0,"componentType":5125,"count":609,"type":"SCALAR","max":[144],"min":[0]}],"buffers":[{"byteLength":271892,"uri":"tile_0343.bin"}],"bufferViews":[{"buffer":0,"byteOffset":0,"byteLength":86508,"target":34962},{"buffer":0,"byteOffset":86508,"byteLength":57672,"target":34962},{"buffer":0,"byteOffset":144180,"byteLength":122376,"target":34963},{"buffer":0,"byteOffset":266556,"byteLength":1740,"target":34962},{"buffer":0,"byteOffset":268296,"byteLength":1160,"target":34962},{"buffer":0,"byteOffset":269456,"byteLength":2436,"target":34963}],"images":[{"uri":"../textures/tile_0343_material_0.jpg"},{"uri":"../textures/tile_0343_material_1.jpg"}],"materials":[{"name":"DefaultMaterial","pbrMetallicRoughness":{"baseColorFactor":[0.6000000238418579,0.6000000238418579,0.6000000238418579,1.0],"metallicFactor":0.0},"extensions":{"KHR_materials_specular":{"specularFactor":1.0,"specularColorFactor":[0.0,0.0,0.0]},"KHR_materials_ior":{"ior":1.0}}},{"name":"material_0_material","pbrMetallicRoughness":{"baseColorTexture":{"index":0},"metallicFactor":0.0},"extensions":{"KHR_materials_specular":{"specularFactor":1.0,"specularColorFactor":[0.0,0.0,0.0]},"KHR_materials_ior":{"ior":1.0}}},{"name":"material_1_material","pbrMetallicRoughness":{"baseColorTexture":{"index":1},"metallicFactor":0.0},"extensions":{"KHR_materials_specular":{"specularFactor":1.0,"specularColorFactor":[0.0,0.0,0.0]},"KHR_materials_ior":{"ior":1.0}}}],"meshes":[{"name":"defaultobject","primitives":[{"mode":4,"material":1,"indices":2,"attributes":{"POSITION":0,"TEXCOORD_0":1}},{"mode":4,"material":2,"indices":5,"attributes":{"POSITION":3,"TEXCOORD_0":4}}]}],"nodes":[{"name":"tile_0343.obj","children":[1]},{"name":"defaultobject","mesh":0}],"samplers":[{},{}],"scenes":[{"nodes":[0]}],"textures":[{"source":0,"sampler":0},{"source":1,"sampler":1}],"scene":0}
