{"asset":{"version":"2.0","generator":"Open Asset Import Library (assimp v6.0.0)"},"extensionsUsed":["KHR_materials_specular","KHR_materials_volume","KHR_materials_ior","FB_ngon_encoding"],"accessors":[{"bufferView":0,"byteOffset":0,"componentType":5126,"count":4253,"type":"VEC3","max":[2.8994810581207275,-2.8890185356140137,3.5485177040100098],"min":[2.2250738585072014e-308,-3.0995845794677734,2.2250738585072014e-308]},{"bufferView":1,"byteOffset":0,"componentType":5126,"count":4253,"type":"VEC2","max":[0.9847944974899292,0.49608612060546875],"min":[2.2250738585072014e-308,2.2250738585072014e-308]},{"bufferView":2,"byteOffset":0,"componentType":5125,"count":19080,"type":"SCALAR","max":[4252],"min":[0]},{"bufferView":3,"byteOffset":0,"componentType":5126,"count":273,"type":"VEC3","max":[2.7794699668884277,-2.9681220054626465,3.5219883918762207],"min":[2.2250738585072014e-308,-3.0973150730133057,2.2250738585072014e-308]},{"bufferView":4,"byteOffset":0,"componentType":5126,"count":273,"type":"VEC2","max":[0.6671295166015625,0.8761520385742188],"min":[2.2250738585072014e-308,2.2250738585072014e-308]},{"bufferView":5,"byteOffset":0,"componentType":5125,"count":1323,"type":"SCALAR","max":[272],"min":[0]}],"buffers":[{"byteLength":172132,"uri":"tile_0729.bin"}],"bufferViews":[{"buffer":0,"byteOffset":0,"byteLength":51036,"target":34962},{"buffer":0,"byteOffset":51036,"byteLength":34024,"target":34962},{"buffer":0,"byteOffset":85060,"byteLength":76320,"target":34963},{"buffer":0,"byteOffset":161380,"byteLength":3276,"target":34962},{"buffer":0,"byteOffset":164656,"byteLength":2184,"target":34962},{"buffer":0,"byteOffset":166840,"byteLength":5292,"target":34963}],"images":[{"uri":"../textures/tile_0729_material_0.jpg"},{"uri":"../textures/tile_0729_material_1.jpg"}],"materials":[{"name":"DefaultMaterial","pbrMetallicRoughness":{"baseColorFactor":[0.6000000238418579,0.6000000238418579,0.6000000238418579,1.0],"metallicFactor":0.0},"extensions":{"KHR_materials_specular":{"specularFactor":1.0,"specularColorFactor":[0.0,0.0,0.0]},"KHR_materials_ior":{"ior":1.0}}},{"name":"material_0_material","pbrMetallicRoughness":{"baseColorTexture":{"index":0},"metallicFactor":0.0},"extensions":{"KHR_materials_specular":{"specularFactor":1.0,"specularColorFactor":[0.0,0.0,0.0]},"KHR_materials_ior":{"ior":1.0}}},{"name":"material_1_material","pbrMetallicRoughness":{"baseColorTexture":{"index":1},"metallicFactor":0.0},"extensions":{"KHR_materials_specular":{"specularFactor":1.0,"specularColorFactor":[0.0,0.0,0.0]},"KHR_materials_ior":{"ior":1.0}}}],"meshes":[{"name":"defaultobject","primitives":[{"mode":4,"material":1,"indices":2,"attributes":{"POSITION":0,"TEXCOORD_0":1}},{"mode":4,"material":2,"indices":5,"attributes":{"POSITION":3,"TEXCOORD_0":4}}]}],"nodes":[{"name":"tile_0729.obj","children":[1]},{"name":"defaultobject","mesh":0}],"samplers":[{},{}],"scenes":[{"nodes":[0]}],"textures":[{"source":0,"sampler":0},{"source":1,"sampler":1}],"scene":0}
