{"asset":{"version":"2.0","generator":"Open Asset Import Library (assimp v6.0.0)"},"extensionsUsed":["KHR_materials_specular","KHR_materials_volume","KHR_materials_ior","FB_ngon_encoding"],"accessors":[{"bufferView":0,"byteOffset":0,"componentType":5126,"count":2573,"type":"VEC3","max":[-1.8697700500488281,-5.045032501220703,2.446223258972168],"min":[-2.003653049468994,-5.72962760925293,2.2250738585072014e-308]},{"bufferView":1,"byteOffset":0,"componentType":5126,"count":2573,"type":"VEC2","max":[0.9893002510070801,0.8055343627929688],"min":[2.2250738585072014e-308,2.2250738585072014e-308]},{"bufferView":2,"byteOffset":0,"componentType":5125,"count":11979,"type":"SCALAR","max":[2572],"min":[0]},{"bufferView":3,"byteOffset":0,"componentType":5126,"count":1748,"type":"VEC3","max":[-1.8686580657958984,-5.045426845550537,2.4434003829956055],"min":[-2.0161476135253906,-5.734103679656982,2.2250738585072014e-308]},{"bufferView":4,"byteOffset":0,"componentType":5126,"count":1748,"type":"VEC2","max":[0.7623920440673828,0.6788787841796875],"min":[2.2250738585072014e-308,2.2250738585072014e-308]},{"bufferView":5,"byteOffset":0,"componentType":5125,"count":8763,"type":"SCALAR","max":[1747],"min":[0]}],"buffers":[{"byteLength":169388,"uri":"tile_0308.bin"}],"bufferViews":[{"buffer":0,"byteOffset":0,"byteLength":30876,"target":34962},{"buffer":0,"byteOffset":30876,"byteLength":20584,"target":34962},{"buffer":0,"byteOffset":51460,"byteLength":47916,"target":34963},{"buffer":0,"byteOffset":99376,"byteLength":20976,"target":34962},{"buffer":0,"byteOffset":120352,"byteLength":13984,"target":34962},{"buffer":0,"byteOffset":134336,"byteLength":35052,"target":34963}],"images":[{"uri":"../textures/tile_0308_material_0.jpg"},{"uri":"../textures/tile_0308_material_1.jpg"}],"materials":[{"name":"DefaultMaterial","pbrMetallicRoughness":{"baseColorFactor":[0.6000000238418579,0.6000000238418579,0.6000000238418579,1.0],"metallicFactor":0.0},"extensions":{"KHR_materials_specular":{"specularFactor":1.0,"specularColorFactor":[0.0,0.0,0.0]},"KHR_materials_ior":{"ior":1.0}}},{"name":"material_0_material","pbrMetallicRoughness":{"baseColorTexture":{"index":0},"metallicFactor":0.0},"extensions":{"KHR_materials_specular":{"specularFactor":1.0,"specularColorFactor":[0.0,0.0,0.0]},"KHR_materials_ior":{"ior":1.0}}},{"name":"material_1_material","pbrMetallicRoughness":{"baseColorTexture":{"index":1},"metallicFactor":0.0},"extensions":{"KHR_materials_specular":{"specularFactor":1.0,"specularColorFactor":[0.0,0.0,0.0]},"KHR_materials_ior":{"ior":1.0}}}],"meshes":[{"name":"defaultobject","primitives":[{"mode":4,"material":1,"indices":2,"attributes":{"POSITION":0,"TEXCOORD_0":1}},{"mode":4,"material":2,"indices":5,"attributes":{"POSITION":3,"TEXCOORD_0":4}}]}],"nodes":[{"name":"tile_0308.obj","children":[1]},{"name":"defaultobject","mesh":0}],"samplers":[{},{}],"scenes":[{"nodes":[0]}],"textures":[{"source":0,"sampler":0},{"source":1,"sampler":1}],"scene":0}
