{"asset":{"version":"2.0","generator":"Open Asset Import Library (assimp v6.0.0)"},"extensionsUsed":["KHR_materials_specular","KHR_materials_volume","KHR_materials_ior","FB_ngon_encoding"],"accessors":[{"bufferView":0,"byteOffset":0,"componentType":5126,"count":4536,"type":"VEC3","max":[2.3007452487945557,3.932528018951416,4.537657737731934],"min":[2.2250738585072014e-308,2.2250738585072014e-308,2.2250738585072014e-308]},{"bufferView":1,"byteOffset":0,"componentType":5126,"count":4536,"type":"VEC2","max":[0.9871668815612793,0.5739326477050781],"min":[2.2250738585072014e-308,2.2250738585072014e-308]},{"bufferView":2,"byteOffset":0,"componentType":5125,"count":20094,"type":"SCALAR","max":[4535],"min":[0]},{"bufferView":3,"byteOffset":0,"componentType":5126,"count":881,"type":"VEC3","max":[2.2019314765930176,3.6564114093780518,4.484771251678467],"min":[2.2250738585072014e-308,2.2250738585072014e-308,2.2250738585072014e-308]},{"bufferView":4,"byteOffset":0,"componentType":5126,"count":881,"type":"VEC2","max":[0.9031963348388672,0.6527481079101562],"min":[2.2250738585072014e-308,2.2250738585072014e-308]},{"bufferView":5,"byteOffset":0,"componentType":5125,"count":4605,"type":"SCALAR","max":[880],"min":[0]}],"buffers":[{"byteLength":207136,"uri":"tile_0705.bin"}],"bufferViews":[{"buffer":0,"byteOffset":0,"byteLength":54432,"target":34962},{"buffer":0,"byteOffset":54432,"byteLength":36288,"target":34962},{"buffer":0,"byteOffset":90720,"byteLength":80376,"target":34963},{"buffer":0,"byteOffset":171096,"byteLength":10572,"target":34962},{"buffer":0,"byteOffset":181668,"byteLength":7048,"target":34962},{"buffer":0,"byteOffset":188716,"byteLength":18420,"target":34963}],"images":[{"uri":"../textures/tile_0705_material_0.jpg"},{"uri":"../textures/tile_0705_material_1.jpg"}],"materials":[{"name":"DefaultMaterial","pbrMetallicRoughness":{"baseColorFactor":[0.6000000238418579,0.6000000238418579,0.6000000238418579,1.0],"metallicFactor":0.0},"extensions":{"KHR_materials_specular":{"specularFactor":1.0,"specularColorFactor":[0.0,0.0,0.0]},"KHR_materials_ior":{"ior":1.0}}},{"name":"material_0_material","pbrMetallicRoughness":{"baseColorTexture":{"index":0},"metallicFactor":0.0},"extensions":{"KHR_materials_specular":{"specularFactor":1.0,"specularColorFactor":[0.0,0.0,0.0]},"KHR_materials_ior":{"ior":1.0}}},{"name":"material_1_material","pbrMetallicRoughness":{"baseColorTexture":{"index":1},"metallicFactor":0.0},"extensions":{"KHR_materials_specular":{"specularFactor":1.0,"specularColorFactor":[0.0,0.0,0.0]},"KHR_materials_ior":{"ior":1.0}}}],"meshes":[{"name":"defaultobject","primitives":[{"mode":4,"material":1,"indices":2,"attributes":{"POSITION":0,"TEXCOORD_0":1}},{"mode":4,"material":2,"indices":5,"attributes":{"POSITION":3,"TEXCOORD_0":4}}]}],"nodes":[{"name":"tile_0705.obj","children":[1]},{"name":"defaultobject","mesh":0}],"samplers":[{},{}],"scenes":[{"nodes":[0]}],"textures":[{"source":0,"sampler":0},{"source":1,"sampler":1}],"scene":0}
