{"asset":{"version":"2.0","generator":"Open Asset Import Library (assimp v6.0.0)"},"extensionsUsed":["KHR_materials_specular","KHR_materials_volume","KHR_materials_ior","FB_ngon_encoding"],"accessors":[{"bufferView":0,"byteOffset":0,"componentType":5126,"count":1607,"type":"VEC3","max":[3.6146864891052246,2.6137895584106445,3.990046262741089],"min":[2.2250738585072014e-308,2.2250738585072014e-308,2.2250738585072014e-308]},{"bufferView":1,"byteOffset":0,"componentType":5126,"count":1607,"type":"VEC2","max":[0.9904541969299316,0.6625328063964844],"min":[2.2250738585072014e-308,2.2250738585072014e-308]},{"bufferView":2,"byteOffset":0,"componentType":5125,"count":7437,"type":"SCALAR","max":[1606],"min":[0]},{"bufferView":3,"byteOffset":0,"componentType":5126,"count":2902,"type":"VEC3","max":[3.6223692893981934,2.6157515048980713,3.997093677520752],"min":[2.2250738585072014e-308,2.2250738585072014e-308,2.2250738585072014e-308]},{"bufferView":4,"byteOffset":0,"componentType":5126,"count":2902,"type":"VEC2","max":[0.9760828018188477,0.6945648193359375],"min":[2.2250738585072014e-308,2.2250738585072014e-308]},{"bufferView":5,"byteOffset":0,"componentType":5125,"count":15645,"type":"SCALAR","max":[2901],"min":[0]}],"buffers":[{"byteLength":182508,"uri":"tile_0187.bin"}],"bufferViews":[{"buffer":0,"byteOffset":0,"byteLength":19284,"target":34962},{"buffer":0,"byteOffset":19284,"byteLength":12856,"target":34962},{"buffer":0,"byteOffset":32140,"byteLength":29748,"target":34963},{"buffer":0,"byteOffset":61888,"byteLength":34824,"target":34962},{"buffer":0,"byteOffset":96712,"byteLength":23216,"target":34962},{"buffer":0,"byteOffset":119928,"byteLength":62580,"target":34963}],"images":[{"uri":"../textures/tile_0187_material_0.jpg"},{"uri":"../textures/tile_0187_material_1.jpg"}],"materials":[{"name":"DefaultMaterial","pbrMetallicRoughness":{"baseColorFactor":[0.6000000238418579,0.6000000238418579,0.6000000238418579,1.0],"metallicFactor":0.0},"extensions":{"KHR_materials_specular":{"specularFactor":1.0,"specularColorFactor":[0.0,0.0,0.0]},"KHR_materials_ior":{"ior":1.0}}},{"name":"material_0_material","pbrMetallicRoughness":{"baseColorTexture":{"index":0},"metallicFactor":0.0},"extensions":{"KHR_materials_specular":{"specularFactor":1.0,"specularColorFactor":[0.0,0.0,0.0]},"KHR_materials_ior":{"ior":1.0}}},{"name":"material_1_material","pbrMetallicRoughness":{"baseColorTexture":{"index":1},"metallicFactor":0.0},"extensions":{"KHR_materials_specular":{"specularFactor":1.0,"specularColorFactor":[0.0,0.0,0.0]},"KHR_materials_ior":{"ior":1.0}}}],"meshes":[{"name":"defaultobject","primitives":[{"mode":4,"material":1,"indices":2,"attributes":{"POSITION":0,"TEXCOORD_0":1}},{"mode":4,"material":2,"indices":5,"attributes":{"POSITION":3,"TEXCOORD_0":4}}]}],"nodes":[{"name":"tile_0187.obj","children":[1]},{"name":"defaultobject","mesh":0}],"samplers":[{},{}],"scenes":[{"nodes":[0]}],"textures":[{"source":0,"sampler":0},{"source":1,"sampler":1}],"scene":0}
