{"asset":{"version":"2.0","generator":"Open Asset Import Library (assimp v6.0.0)"},"extensionsUsed":["KHR_materials_specular","KHR_materials_volume","KHR_materials_ior","FB_ngon_encoding"],"accessors":[{"bufferView":0,"byteOffset":0,"componentType":5126,"count":5539,"type":"VEC3","max":[1.949968934059143,-1.9364752769470215,3.1822614669799805],"min":[2.2250738585072014e-308,-2.178274631500244,2.2250738585072014e-308]},{"bufferView":1,"byteOffset":0,"componentType":5126,"count":5539,"type":"VEC2","max":[0.9923031330108643,0.6323165893554688],"min":[2.2250738585072014e-308,2.2250738585072014e-308]},{"bufferView":2,"byteOffset":0,"componentType":5125,"count":24492,"type":"SCALAR","max":[5538],"min":[0]},{"bufferView":3,"byteOffset":0,"componentType":5126,"count":55,"type":"VEC3","max":[1.712038516998291,-1.9403578042984009,2.927309513092041],"min":[2.2250738585072014e-308,-2.0153448581695557,2.2250738585072014e-308]},{"bufferView":4,"byteOffset":0,"componentType":5126,"count":55,"type":"VEC2","max":[0.5707817077636719,0.4550095200538635],"min":[2.2250738585072014e-308,2.2250738585072014e-308]},{"bufferView":5,"byteOffset":0,"componentType":5125,"count":186,"type":"SCALAR","max":[54],"min":[0]}],"buffers":[{"byteLength":210592,"uri":"tile_0233.bin"}],"bufferViews":[{"buffer":0,"byteOffset":0,"byteLength":66468,"target":34962},{"buffer":0,"byteOffset":66468,"byteLength":44312,"target":34962},{"buffer":0,"byteOffset":110780,"byteLength":97968,"target":34963},{"buffer":0,"byteOffset":208748,"byteLength":660,"target":34962},{"buffer":0,"byteOffset":209408,"byteLength":440,"target":34962},{"buffer":0,"byteOffset":209848,"byteLength":744,"target":34963}],"images":[{"uri":"../textures/tile_0233_material_0.jpg"},{"uri":"../textures/tile_0233_material_1.jpg"}],"materials":[{"name":"DefaultMaterial","pbrMetallicRoughness":{"baseColorFactor":[0.6000000238418579,0.6000000238418579,0.6000000238418579,1.0],"metallicFactor":0.0},"extensions":{"KHR_materials_specular":{"specularFactor":1.0,"specularColorFactor":[0.0,0.0,0.0]},"KHR_materials_ior":{"ior":1.0}}},{"name":"material_0_material","pbrMetallicRoughness":{"baseColorTexture":{"index":0},"metallicFactor":0.0},"extensions":{"KHR_materials_specular":{"specularFactor":1.0,"specularColorFactor":[0.0,0.0,0.0]},"KHR_materials_ior":{"ior":1.0}}},{"name":"material_1_material","pbrMetallicRoughness":{"baseColorTexture":{"index":1},"metallicFactor":0.0},"extensions":{"KHR_materials_specular":{"specularFactor":1.0,"specularColorFactor":[0.0,0.0,0.0]},"KHR_materials_ior":{"ior":1.0}}}],"meshes":[{"name":"defaultobject","primitives":[{"mode":4,"material":1,"indices":2,"attributes":{"POSITION":0,"TEXCOORD_0":1}},{"mode":4,"material":2,"indices":5,"attributes":{"POSITION":3,"TEXCOORD_0":4}}]}],"nodes":[{"name":"tile_0233.obj","children":[1]},{"name":"defaultobject","mesh":0}],"samplers":[{},{}],"scenes":[{"nodes":[0]}],"textures":[{"source":0,"sampler":0},{"source":1,"sampler":1}],"scene":0}
