{"asset":{"version":"2.0","generator":"Open Asset Import Library (assimp v6.0.0)"},"extensionsUsed":["KHR_materials_specular","KHR_materials_volume","KHR_materials_ior","FB_ngon_encoding"],"accessors":[{"bufferView":0,"byteOffset":0,"componentType":5126,"count":5456,"type":"VEC3","max":[1.6917142868041992,-0.7758800387382507,3.455059766769409],"min":[2.2250738585072014e-308,-1.0343832969665527,2.2250738585072014e-308]},{"bufferView":1,"byteOffset":0,"componentType":5126,"count":5456,"type":"VEC2","max":[0.9958887100219727,0.6045932769775391],"min":[2.2250738585072014e-308,2.2250738585072014e-308]},{"bufferView":2,"byteOffset":0,"componentType":5125,"count":24954,"type":"SCALAR","max":[5455],"min":[0]},{"bufferView":3,"byteOffset":0,"componentType":5126,"count":983,"type":"VEC3","max":[1.6917142868041992,-0.7769519686698914,3.3292248249053955],"min":[2.2250738585072014e-308,-1.0419039726257324,2.2250738585072014e-308]},{"bufferView":4,"byteOffset":0,"componentType":5126,"count":983,"type":"VEC2","max":[0.5899477005004883,0.84100341796875],"min":[2.2250738585072014e-308,2.2250738585072014e-308]},{"bufferView":5,"byteOffset":0,"componentType":5125,"count":4974,"type":"SCALAR","max":[982],"min":[0]}],"buffers":[{"byteLength":248492,"uri":"tile_0168.bin"}],"bufferViews":[{"buffer":0,"byteOffset":0,"byteLength":65472,"target":34962},{"buffer":0,"byteOffset":65472,"byteLength":43648,"target":34962},{"buffer":0,"byteOffset":109120,"byteLength":99816,"target":34963},{"buffer":0,"byteOffset":208936,"byteLength":11796,"target":34962},{"buffer":0,"byteOffset":220732,"byteLength":7864,"target":34962},{"buffer":0,"byteOffset":228596,"byteLength":19896,"target":34963}],"images":[{"uri":"../textures/tile_0168_material_0.jpg"},{"uri":"../textures/tile_0168_material_1.jpg"}],"materials":[{"name":"DefaultMaterial","pbrMetallicRoughness":{"baseColorFactor":[0.6000000238418579,0.6000000238418579,0.6000000238418579,1.0],"metallicFactor":0.0},"extensions":{"KHR_materials_specular":{"specularFactor":1.0,"specularColorFactor":[0.0,0.0,0.0]},"KHR_materials_ior":{"ior":1.0}}},{"name":"material_0_material","pbrMetallicRoughness":{"baseColorTexture":{"index":0},"metallicFactor":0.0},"extensions":{"KHR_materials_specular":{"specularFactor":1.0,"specularColorFactor":[0.0,0.0,0.0]},"KHR_materials_ior":{"ior":1.0}}},{"name":"material_1_material","pbrMetallicRoughness":{"baseColorTexture":{"index":1},"metallicFactor":0.0},"extensions":{"KHR_materials_specular":{"specularFactor":1.0,"specularColorFactor":[0.0,0.0,0.0]},"KHR_materials_ior":{"ior":1.0}}}],"meshes":[{"name":"defaultobject","primitives":[{"mode":4,"material":1,"indices":2,"attributes":{"POSITION":0,"TEXCOORD_0":1}},{"mode":4,"material":2,"indices":5,"attributes":{"POSITION":3,"TEXCOORD_0":4}}]}],"nodes":[{"name":"tile_0168.obj","children":[1]},{"name":"defaultobject","mesh":0}],"samplers":[{},{}],"scenes":[{"nodes":[0]}],"textures":[{"source":0,"sampler":0},{"source":1,"sampler":1}],"scene":0}
