{"asset":{"version":"2.0","generator":"Open Asset Import Library (assimp v6.0.0)"},"extensionsUsed":["KHR_materials_specular","KHR_materials_volume","KHR_materials_ior","FB_ngon_encoding"],"accessors":[{"bufferView":0,"byteOffset":0,"componentType":5126,"count":3321,"type":"VEC3","max":[2.9664456844329834,-4.547857284545898,3.3677122592926025],"min":[2.2250738585072014e-308,-5.623591423034668,2.2250738585072014e-308]},{"bufferView":1,"byteOffset":0,"componentType":5126,"count":3321,"type":"VEC2","max":[0.9938983917236328,0.8232097625732422],"min":[2.2250738585072014e-308,2.2250738585072014e-308]},{"bufferView":2,"byteOffset":0,"componentType":5125,"count":14775,"type":"SCALAR","max":[3320],"min":[0]},{"bufferView":3,"byteOffset":0,"componentType":5126,"count":1341,"type":"VEC3","max":[2.9432029724121094,-4.551774024963379,3.243313789367676],"min":[2.2250738585072014e-308,-5.4555983543396,2.2250738585072014e-308]},{"bufferView":4,"byteOffset":0,"componentType":5126,"count":1341,"type":"VEC2","max":[0.662550687789917,0.5594692230224609],"min":[2.2250738585072014e-308,2.2250738585072014e-308]},{"bufferView":5,"byteOffset":0,"componentType":5125,"count":7065,"type":"SCALAR","max":[1340],"min":[0]}],"buffers":[{"byteLength":180600,"uri":"tile_0759.bin"}],"bufferViews":[{"buffer":0,"byteOffset":0,"byteLength":39852,"target":34962},{"buffer":0,"byteOffset":39852,"byteLength":26568,"target":34962},{"buffer":0,"byteOffset":66420,"byteLength":59100,"target":34963},{"buffer":0,"byteOffset":125520,"byteLength":16092,"target":34962},{"buffer":0,"byteOffset":141612,"byteLength":10728,"target":34962},{"buffer":0,"byteOffset":152340,"byteLength":28260,"target":34963}],"images":[{"uri":"../textures/tile_0759_material_0.jpg"},{"uri":"../textures/tile_0759_material_1.jpg"}],"materials":[{"name":"DefaultMaterial","pbrMetallicRoughness":{"baseColorFactor":[0.6000000238418579,0.6000000238418579,0.6000000238418579,1.0],"metallicFactor":0.0},"extensions":{"KHR_materials_specular":{"specularFactor":1.0,"specularColorFactor":[0.0,0.0,0.0]},"KHR_materials_ior":{"ior":1.0}}},{"name":"material_0_material","pbrMetallicRoughness":{"baseColorTexture":{"index":0},"metallicFactor":0.0},"extensions":{"KHR_materials_specular":{"specularFactor":1.0,"specularColorFactor":[0.0,0.0,0.0]},"KHR_materials_ior":{"ior":1.0}}},{"name":"material_1_material","pbrMetallicRoughness":{"baseColorTexture":{"index":1},"metallicFactor":0.0},"extensions":{"KHR_materials_specular":{"specularFactor":1.0,"specularColorFactor":[0.0,0.0,0.0]},"KHR_materials_ior":{"ior":1.0}}}],"meshes":[{"name":"defaultobject","primitives":[{"mode":4,"material":1,"indices":2,"attributes":{"POSITION":0,"TEXCOORD_0":1}},{"mode":4,"material":2,"indices":5,"attributes":{"POSITION":3,"TEXCOORD_0":4}}]}],"nodes":[{"name":"tile_0759.obj","children":[1]},{"name":"defaultobject","mesh":0}],"samplers":[{},{}],"scenes":[{"nodes":[0]}],"textures":[{"source":0,"sampler":0},{"source":1,"sampler":1}],"scene":0}
