{"asset":{"version":"2.0","generator":"Open Asset Import Library (assimp v6.0.0)"},"extensionsUsed":["KHR_materials_specular","KHR_materials_volume","KHR_materials_ior","FB_ngon_encoding"],"accessors":[{"bufferView":0,"byteOffset":0,"componentType":5126,"count":4425,"type":"VEC3","max":[0.1942482441663742,2.0409960746765137,4.352249622344971],"min":[-0.11221874505281448,2.2250738585072014e-308,2.2250738585072014e-308]},{"bufferView":1,"byteOffset":0,"componentType":5126,"count":4425,"type":"VEC2","max":[0.9946212768554688,0.9372596740722656],"min":[2.2250738585072014e-308,2.2250738585072014e-308]},{"bufferView":2,"byteOffset":0,"componentType":5125,"count":19173,"type":"SCALAR","max":[4424],"min":[0]},{"bufferView":3,"byteOffset":0,"componentType":5126,"count":16,"type":"VEC3","max":[0.191080704331398,1.8394594192504883,4.286890029907227],"min":[2.2250738585072014e-308,2.2250738585072014e-308,2.2250738585072014e-308]},{"bufferView":4,"byteOffset":0,"componentType":5126,"count":16,"type":"VEC2","max":[0.5069885849952698,0.4235839247703552],"min":[2.2250738585072014e-308,2.2250738585072014e-308]},{"bufferView":5,"byteOffset":0,"componentType":5125,"count":48,"type":"SCALAR","max":[15],"min":[0]}],"buffers":[{"byteLength":165704,"uri":"tile_0598.bin"}],"bufferViews":[{"buffer":0,"byteOffset":0,"byteLength":53100,"target":34962},{"buffer":0,"byteOffset":53100,"byteLength":35400,"target":34962},{"buffer":0,"byteOffset":88500,"byteLength":76692,"target":34963},{"buffer":0,"byteOffset":165192,"byteLength":192,"target":34962},{"buffer":0,"byteOffset":165384,"byteLength":128,"target":34962},{"buffer":0,"byteOffset":165512,"byteLength":192,"target":34963}],"images":[{"uri":"../textures/tile_0598_material_0.jpg"},{"uri":"../textures/tile_0598_material_1.jpg"}],"materials":[{"name":"DefaultMaterial","pbrMetallicRoughness":{"baseColorFactor":[0.6000000238418579,0.6000000238418579,0.6000000238418579,1.0],"metallicFactor":0.0},"extensions":{"KHR_materials_specular":{"specularFactor":1.0,"specularColorFactor":[0.0,0.0,0.0]},"KHR_materials_ior":{"ior":1.0}}},{"name":"material_0_material","pbrMetallicRoughness":{"baseColorTexture":{"index":0},"metallicFactor":0.0},"extensions":{"KHR_materials_specular":{"specularFactor":1.0,"specularColorFactor":[0.0,0.0,0.0]},"KHR_materials_ior":{"ior":1.0}}},{"name":"material_1_material","pbrMetallicRoughness":{"baseColorTexture":{"index":1},"metallicFactor":0.0},"extensions":{"KHR_materials_specular":{"specularFactor":1.0,"specularColorFactor":[0.0,0.0,0.0]},"KHR_materials_ior":{"ior":1.0}}}],"meshes":[{"name":"defaultobject","primitives":[{"mode":4,"material":1,"indices":2,"attributes":{"POSITION":0,"TEXCOORD_0":1}},{"mode":4,"material":2,"indices":5,"attributes":{"POSITION":3,"TEXCOORD_0":4}}]}],"nodes":[{"name":"tile_0598.obj","children":[1]},{"name":"defaultobject","mesh":0}],"samplers":[{},{}],"scenes":[{"nodes":[0]}],"textures":[{"source":0,"sampler":0},{"source":1,"sampler":1}],"scene":0}
