{"asset":{"version":"2.0","generator":"Open Asset Import Library (assimp v6.0.0)"},"extensionsUsed":["KHR_materials_specular","KHR_materials_volume","KHR_materials_ior","FB_ngon_encoding"],"accessors":[{"bufferView":0,"byteOffset":0,"componentType":5126,"count":1189,"type":"VEC3","max":[-2.619521379470825,-1.430786371231079,2.698481798171997],"min":[-2.981173038482666,-1.6556801795959473,2.2250738585072014e-308]},{"bufferView":1,"byteOffset":0,"componentType":5126,"count":1189,"type":"VEC2","max":[0.857421875,0.8788376450538635],"min":[2.2250738585072014e-308,2.2250738585072014e-308]},{"bufferView":2,"byteOffset":0,"componentType":5125,"count":5313,"type":"SCALAR","max":[1188],"min":[0]},{"bufferView":3,"byteOffset":0,"componentType":5126,"count":2503,"type":"VEC3","max":[-2.619521379470825,-1.4305660724639893,2.7031071186065674],"min":[-2.9811017513275146,-1.6568256616592407,2.2250738585072014e-308]},{"bufferView":4,"byteOffset":0,"componentType":5126,"count":2503,"type":"VEC2","max":[0.6445980072021484,0.8470382690429688],"min":[2.2250738585072014e-308,2.2250738585072014e-308]},{"bufferView":5,"byteOffset":0,"componentType":5125,"count":13716,"type":"SCALAR","max":[2502],"min":[0]}],"buffers":[{"byteLength":149956,"uri":"tile_0402.bin"}],"bufferViews":[{"buffer":0,"byteOffset":0,"byteLength":14268,"target":34962},{"buffer":0,"byteOffset":14268,"byteLength":9512,"target":34962},{"buffer":0,"byteOffset":23780,"byteLength":21252,"target":34963},{"buffer":0,"byteOffset":45032,"byteLength":30036,"target":34962},{"buffer":0,"byteOffset":75068,"byteLength":20024,"target":34962},{"buffer":0,"byteOffset":95092,"byteLength":54864,"target":34963}],"images":[{"uri":"../textures/tile_0402_material_0.jpg"},{"uri":"../textures/tile_0402_material_1.jpg"}],"materials":[{"name":"DefaultMaterial","pbrMetallicRoughness":{"baseColorFactor":[0.6000000238418579,0.6000000238418579,0.6000000238418579,1.0],"metallicFactor":0.0},"extensions":{"KHR_materials_specular":{"specularFactor":1.0,"specularColorFactor":[0.0,0.0,0.0]},"KHR_materials_ior":{"ior":1.0}}},{"name":"material_0_material","pbrMetallicRoughness":{"baseColorTexture":{"index":0},"metallicFactor":0.0},"extensions":{"KHR_materials_specular":{"specularFactor":1.0,"specularColorFactor":[0.0,0.0,0.0]},"KHR_materials_ior":{"ior":1.0}}},{"name":"material_1_material","pbrMetallicRoughness":{"baseColorTexture":{"index":1},"metallicFactor":0.0},"extensions":{"KHR_materials_specular":{"specularFactor":1.0,"specularColorFactor":[0.0,0.0,0.0]},"KHR_materials_ior":{"ior":1.0}}}],"meshes":[{"name":"defaultobject","primitives":[{"mode":4,"material":1,"indices":2,"attributes":{"POSITION":0,"TEXCOORD_0":1}},{"mode":4,"material":2,"indices":5,"attributes":{"POSITION":3,"TEXCOORD_0":4}}]}],"nodes":[{"name":"tile_0402.obj","children":[1]},{"name":"defaultobject","mesh":0}],"samplers":[{},{}],"scenes":[{"nodes":[0]}],"textures":[{"source":0,"sampler":0},{"source":1,"sampler":1}],"scene":0}
