{"asset":{"version":"2.0","generator":"Open Asset Import Library (assimp v6.0.0)"},"extensionsUsed":["KHR_materials_specular","KHR_materials_volume","KHR_materials_ior","FB_ngon_encoding"],"accessors":[{"bufferView":0,"byteOffset":0,"componentType":5126,"count":3914,"type":"VEC3","max":[-0.4039927124977112,5.952178478240967,4.922739028930664],"min":[-0.748499870300293,2.2250738585072014e-308,2.2250738585072014e-308]},{"bufferView":1,"byteOffset":0,"componentType":5126,"count":3914,"type":"VEC2","max":[0.9880914688110352,0.5963993072509766],"min":[2.2250738585072014e-308,2.2250738585072014e-308]},{"bufferView":2,"byteOffset":0,"componentType":5125,"count":18558,"type":"SCALAR","max":[3913],"min":[0]},{"bufferView":3,"byteOffset":0,"componentType":5126,"count":779,"type":"VEC3","max":[-0.4742838144302368,5.9462432861328125,4.918937683105469],"min":[-0.7498224973678589,2.2250738585072014e-308,2.2250738585072014e-308]},{"bufferView":4,"byteOffset":0,"componentType":5126,"count":779,"type":"VEC2","max":[0.7453699111938477,0.507568359375],"min":[2.2250738585072014e-308,2.2250738585072014e-308]},{"bufferView":5,"byteOffset":0,"componentType":5125,"count":3816,"type":"SCALAR","max":[778],"min":[0]}],"buffers":[{"byteLength":183356,"uri":"tile_0551.bin"}],"bufferViews":[{"buffer":0,"byteOffset":0,"byteLength":46968,"target":34962},{"buffer":0,"byteOffset":46968,"byteLength":31312,"target":34962},{"buffer":0,"byteOffset":78280,"byteLength":74232,"target":34963},{"buffer":0,"byteOffset":152512,"byteLength":9348,"target":34962},{"buffer":0,"byteOffset":161860,"byteLength":6232,"target":34962},{"buffer":0,"byteOffset":168092,"byteLength":15264,"target":34963}],"images":[{"uri":"../textures/tile_0551_material_0.jpg"},{"uri":"../textures/tile_0551_material_1.jpg"}],"materials":[{"name":"DefaultMaterial","pbrMetallicRoughness":{"baseColorFactor":[0.6000000238418579,0.6000000238418579,0.6000000238418579,1.0],"metallicFactor":0.0},"extensions":{"KHR_materials_specular":{"specularFactor":1.0,"specularColorFactor":[0.0,0.0,0.0]},"KHR_materials_ior":{"ior":1.0}}},{"name":"material_0_material","pbrMetallicRoughness":{"baseColorTexture":{"index":0},"metallicFactor":0.0},"extensions":{"KHR_materials_specular":{"specularFactor":1.0,"specularColorFactor":[0.0,0.0,0.0]},"KHR_materials_ior":{"ior":1.0}}},{"name":"material_1_material","pbrMetallicRoughness":{"baseColorTexture":{"index":1},"metallicFactor":0.0},"extensions":{"KHR_materials_specular":{"specularFactor":1.0,"specularColorFactor":[0.0,0.0,0.0]},"KHR_materials_ior":{"ior":1.0}}}],"meshes":[{"name":"defaultobject","primitives":[{"mode":4,"material":1,"indices":2,"attributes":{"POSITION":0,"TEXCOORD_0":1}},{"mode":4,"material":2,"indices":5,"attributes":{"POSITION":3,"TEXCOORD_0":4}}]}],"nodes":[{"name":"tile_0551.obj","children":[1]},{"name":"defaultobject","mesh":0}],"samplers":[{},{}],"scenes":[{"nodes":[0]}],"textures":[{"source":0,"sampler":0},{"source":1,"sampler":1}],"scene":0}
