{"asset":{"version":"2.0","generator":"Open Asset Import Library (assimp v6.0.0)"},"extensionsUsed":["KHR_materials_specular","KHR_materials_volume","KHR_materials_ior","FB_ngon_encoding"],"accessors":[{"bufferView":0,"byteOffset":0,"componentType":5126,"count":6190,"type":"VEC3","max":[-1.6471771001815796,2.0288658142089844,4.388760566711426],"min":[-1.9700201749801636,2.2250738585072014e-308,2.2250738585072014e-308]},{"bufferView":1,"byteOffset":0,"componentType":5126,"count":6190,"type":"VEC2","max":[0.9857604503631592,0.6866989135742188],"min":[2.2250738585072014e-308,2.2250738585072014e-308]},{"bufferView":2,"byteOffset":0,"componentType":5125,"count":27861,"type":"SCALAR","max":[6189],"min":[0]},{"bufferView":3,"byteOffset":0,"componentType":5126,"count":117,"type":"VEC3","max":[-1.8295135498046875,2.0263259410858154,4.388834476470947],"min":[-1.911934733390808,2.2250738585072014e-308,2.2250738585072014e-308]},{"bufferView":4,"byteOffset":0,"componentType":5126,"count":117,"type":"VEC2","max":[0.6567764282226562,0.6120299696922302],"min":[2.2250738585072014e-308,2.2250738585072014e-308]},{"bufferView":5,"byteOffset":0,"componentType":5125,"count":540,"type":"SCALAR","max":[116],"min":[0]}],"buffers":[{"byteLength":239744,"uri":"tile_0562.bin"}],"bufferViews":[{"buffer":0,"byteOffset":0,"byteLength":74280,"target":34962},{"buffer":0,"byteOffset":74280,"byteLength":49520,"target":34962},{"buffer":0,"byteOffset":123800,"byteLength":111444,"target":34963},{"buffer":0,"byteOffset":235244,"byteLength":1404,"target":34962},{"buffer":0,"byteOffset":236648,"byteLength":936,"target":34962},{"buffer":0,"byteOffset":237584,"byteLength":2160,"target":34963}],"images":[{"uri":"../textures/tile_0562_material_0.jpg"},{"uri":"../textures/tile_0562_material_1.jpg"}],"materials":[{"name":"DefaultMaterial","pbrMetallicRoughness":{"baseColorFactor":[0.6000000238418579,0.6000000238418579,0.6000000238418579,1.0],"metallicFactor":0.0},"extensions":{"KHR_materials_specular":{"specularFactor":1.0,"specularColorFactor":[0.0,0.0,0.0]},"KHR_materials_ior":{"ior":1.0}}},{"name":"material_0_material","pbrMetallicRoughness":{"baseColorTexture":{"index":0},"metallicFactor":0.0},"extensions":{"KHR_materials_specular":{"specularFactor":1.0,"specularColorFactor":[0.0,0.0,0.0]},"KHR_materials_ior":{"ior":1.0}}},{"name":"material_1_material","pbrMetallicRoughness":{"baseColorTexture":{"index":1},"metallicFactor":0.0},"extensions":{"KHR_materials_specular":{"specularFactor":1.0,"specularColorFactor":[0.0,0.0,0.0]},"KHR_materials_ior":{"ior":1.0}}}],"meshes":[{"name":"defaultobject","primitives":[{"mode":4,"material":1,"indices":2,"attributes":{"POSITION":0,"TEXCOORD_0":1}},{"mode":4,"material":2,"indices":5,"attributes":{"POSITION":3,"TEXCOORD_0":4}}]}],"nodes":[{"name":"tile_0562.obj","children":[1]},{"name":"defaultobject","mesh":0}],"samplers":[{},{}],"scenes":[{"nodes":[0]}],"textures":[{"source":0,"sampler":0},{"source":1,"sampler":1}],"scene":0}
