{"asset":{"version":"2.0","generator":"Open Asset Import Library (assimp v6.0.0)"},"extensionsUsed":["KHR_materials_specular","KHR_materials_volume","KHR_materials_ior","FB_ngon_encoding"],"accessors":[{"bufferView":0,"byteOffset":0,"componentType":5126,"count":2555,"type":"VEC3","max":[-4.15018892288208,-1.1722524166107178,3.8051955699920654],"min":[-4.7388224601745605,-1.3809607028961182,2.2250738585072014e-308]},{"bufferView":1,"byteOffset":0,"componentType":5126,"count":2555,"type":"VEC2","max":[0.982040286064148,0.87237548828125],"min":[2.2250738585072014e-308,2.2250738585072014e-308]},{"bufferView":2,"byteOffset":0,"componentType":5125,"count":11760,"type":"SCALAR","max":[2554],"min":[0]},{"bufferView":3,"byteOffset":0,"componentType":5126,"count":2476,"type":"VEC3","max":[-4.1488871574401855,-1.1730551719665527,3.8062570095062256],"min":[-4.737606525421143,-1.379709005355835,2.2250738585072014e-308]},{"bufferView":4,"byteOffset":0,"componentType":5126,"count":2476,"type":"VEC2","max":[0.6817808151245117,0.5129909515380859],"min":[2.2250738585072014e-308,2.2250738585072014e-308]},{"bufferView":5,"byteOffset":0,"componentType":5125,"count":12618,"type":"SCALAR","max":[2475],"min":[0]}],"buffers":[{"byteLength":198132,"uri":"tile_0424.bin"}],"bufferViews":[{"buffer":0,"byteOffset":0,"byteLength":30660,"target":34962},{"buffer":0,"byteOffset":30660,"byteLength":20440,"target":34962},{"buffer":0,"byteOffset":51100,"byteLength":47040,"target":34963},{"buffer":0,"byteOffset":98140,"byteLength":29712,"target":34962},{"buffer":0,"byteOffset":127852,"byteLength":19808,"target":34962},{"buffer":0,"byteOffset":147660,"byteLength":50472,"target":34963}],"images":[{"uri":"../textures/tile_0424_material_0.jpg"},{"uri":"../textures/tile_0424_material_1.jpg"}],"materials":[{"name":"DefaultMaterial","pbrMetallicRoughness":{"baseColorFactor":[0.6000000238418579,0.6000000238418579,0.6000000238418579,1.0],"metallicFactor":0.0},"extensions":{"KHR_materials_specular":{"specularFactor":1.0,"specularColorFactor":[0.0,0.0,0.0]},"KHR_materials_ior":{"ior":1.0}}},{"name":"material_0_material","pbrMetallicRoughness":{"baseColorTexture":{"index":0},"metallicFactor":0.0},"extensions":{"KHR_materials_specular":{"specularFactor":1.0,"specularColorFactor":[0.0,0.0,0.0]},"KHR_materials_ior":{"ior":1.0}}},{"name":"material_1_material","pbrMetallicRoughness":{"baseColorTexture":{"index":1},"metallicFactor":0.0},"extensions":{"KHR_materials_specular":{"specularFactor":1.0,"specularColorFactor":[0.0,0.0,0.0]},"KHR_materials_ior":{"ior":1.0}}}],"meshes":[{"name":"defaultobject","primitives":[{"mode":4,"material":1,"indices":2,"attributes":{"POSITION":0,"TEXCOORD_0":1}},{"mode":4,"material":2,"indices":5,"attributes":{"POSITION":3,"TEXCOORD_0":4}}]}],"nodes":[{"name":"tile_0424.obj","children":[1]},{"name":"defaultobject","mesh":0}],"samplers":[{},{}],"scenes":[{"nodes":[0]}],"textures":[{"source":0,"sampler":0},{"source":1,"sampler":1}],"scene":0}
