{"asset":{"version":"2.0","generator":"Open Asset Import Library (assimp v6.0.0)"},"extensionsUsed":["KHR_materials_specular","KHR_materials_volume","KHR_materials_ior","FB_ngon_encoding"],"accessors":[{"bufferView":0,"byteOffset":0,"componentType":5126,"count":6029,"type":"VEC3","max":[-0.7625584006309509,-4.813202381134033,2.4792473316192627],"min":[-0.9492009282112122,-5.222654342651367,2.2250738585072014e-308]},{"bufferView":1,"byteOffset":0,"componentType":5126,"count":6029,"type":"VEC2","max":[0.9954636096954346,0.6600208282470703],"min":[2.2250738585072014e-308,2.2250738585072014e-308]},{"bufferView":2,"byteOffset":0,"componentType":5125,"count":26817,"type":"SCALAR","max":[6028],"min":[0]},{"bufferView":3,"byteOffset":0,"componentType":5126,"count":34,"type":"VEC3","max":[-0.7790361642837524,-5.093244552612305,2.347939968109131],"min":[-0.8375703692436218,-5.143216609954834,2.2250738585072014e-308]},{"bufferView":4,"byteOffset":0,"componentType":5126,"count":34,"type":"VEC2","max":[0.5871352553367615,0.6278076767921448],"min":[2.2250738585072014e-308,2.2250738585072014e-308]},{"bufferView":5,"byteOffset":0,"componentType":5125,"count":135,"type":"SCALAR","max":[33],"min":[0]}],"buffers":[{"byteLength":229068,"uri":"tile_0029.bin"}],"bufferViews":[{"buffer":0,"byteOffset":0,"byteLength":72348,"target":34962},{"buffer":0,"byteOffset":72348,"byteLength":48232,"target":34962},{"buffer":0,"byteOffset":120580,"byteLength":107268,"target":34963},{"buffer":0,"byteOffset":227848,"byteLength":408,"target":34962},{"buffer":0,"byteOffset":228256,"byteLength":272,"target":34962},{"buffer":0,"byteOffset":228528,"byteLength":540,"target":34963}],"images":[{"uri":"../textures/tile_0029_material_0.jpg"},{"uri":"../textures/tile_0029_material_1.jpg"}],"materials":[{"name":"DefaultMaterial","pbrMetallicRoughness":{"baseColorFactor":[0.6000000238418579,0.6000000238418579,0.6000000238418579,1.0],"metallicFactor":0.0},"extensions":{"KHR_materials_specular":{"specularFactor":1.0,"specularColorFactor":[0.0,0.0,0.0]},"KHR_materials_ior":{"ior":1.0}}},{"name":"material_0_material","pbrMetallicRoughness":{"baseColorTexture":{"index":0},"metallicFactor":0.0},"extensions":{"KHR_materials_specular":{"specularFactor":1.0,"specularColorFactor":[0.0,0.0,0.0]},"KHR_materials_ior":{"ior":1.0}}},{"name":"material_1_material","pbrMetallicRoughness":{"baseColorTexture":{"index":1},"metallicFactor":0.0},"extensions":{"KHR_materials_specular":{"specularFactor":1.0,"specularColorFactor":[0.0,0.0,0.0]},"KHR_materials_ior":{"ior":1.0}}}],"meshes":[{"name":"defaultobject","primitives":[{"mode":4,"material":1,"indices":2,"attributes":{"POSITION":0,"TEXCOORD_0":1}},{"mode":4,"material":2,"indices":5,"attributes":{"POSITION":3,"TEXCOORD_0":4}}]}],"nodes":[{"name":"tile_0029.obj","children":[1]},{"name":"defaultobject","mesh":0}],"samplers":[{},{}],"scenes":[{"nodes":[0]}],"textures":[{"source":0,"sampler":0},{"source":1,"sampler":1}],"scene":0}
