{"asset":{"version":"2.0","generator":"Open Asset Import Library (assimp v6.0.0)"},"extensionsUsed":["KHR_materials_specular","KHR_materials_volume","KHR_materials_ior","FB_ngon_encoding"],"accessors":[{"bufferView":0,"byteOffset":0,"componentType":5126,"count":6153,"type":"VEC3","max":[0.1397990584373474,-3.3662095069885254,2.758185386657715],"min":[-0.05345577374100685,-3.7058119773864746,2.2250738585072014e-308]},{"bufferView":1,"byteOffset":0,"componentType":5126,"count":6153,"type":"VEC2","max":[0.9954923987388611,0.6556682586669922],"min":[2.2250738585072014e-308,2.2250738585072014e-308]},{"bufferView":2,"byteOffset":0,"componentType":5125,"count":26442,"type":"SCALAR","max":[6152],"min":[0]},{"bufferView":3,"byteOffset":0,"componentType":5126,"count":144,"type":"VEC3","max":[0.1379040628671646,-3.6526553630828857,2.768810510635376],"min":[2.2250738585072014e-308,-3.7049295902252197,2.2250738585072014e-308]},{"bufferView":4,"byteOffset":0,"componentType":5126,"count":144,"type":"VEC2","max":[0.8294534683227539,0.5230331420898438],"min":[2.2250738585072014e-308,2.2250738585072014e-308]},{"bufferView":5,"byteOffset":0,"componentType":5125,"count":690,"type":"SCALAR","max":[143],"min":[0]}],"buffers":[{"byteLength":234468,"uri":"tile_0288.bin"}],"bufferViews":[{"buffer":0,"byteOffset":0,"byteLength":73836,"target":34962},{"buffer":0,"byteOffset":73836,"byteLength":49224,"target":34962},{"buffer":0,"byteOffset":123060,"byteLength":105768,"target":34963},{"buffer":0,"byteOffset":228828,"byteLength":1728,"target":34962},{"buffer":0,"byteOffset":230556,"byteLength":1152,"target":34962},{"buffer":0,"byteOffset":231708,"byteLength":2760,"target":34963}],"images":[{"uri":"../textures/tile_0288_material_0.jpg"},{"uri":"../textures/tile_0288_material_1.jpg"}],"materials":[{"name":"DefaultMaterial","pbrMetallicRoughness":{"baseColorFactor":[0.6000000238418579,0.6000000238418579,0.6000000238418579,1.0],"metallicFactor":0.0},"extensions":{"KHR_materials_specular":{"specularFactor":1.0,"specularColorFactor":[0.0,0.0,0.0]},"KHR_materials_ior":{"ior":1.0}}},{"name":"material_0_material","pbrMetallicRoughness":{"baseColorTexture":{"index":0},"metallicFactor":0.0},"extensions":{"KHR_materials_specular":{"specularFactor":1.0,"specularColorFactor":[0.0,0.0,0.0]},"KHR_materials_ior":{"ior":1.0}}},{"name":"material_1_material","pbrMetallicRoughness":{"baseColorTexture":{"index":1},"metallicFactor":0.0},"extensions":{"KHR_materials_specular":{"specularFactor":1.0,"specularColorFactor":[0.0,0.0,0.0]},"KHR_materials_ior":{"ior":1.0}}}],"meshes":[{"name":"defaultobject","primitives":[{"mode":4,"material":1,"indices":2,"attributes":{"POSITION":0,"TEXCOORD_0":1}},{"mode":4,"material":2,"indices":5,"attributes":{"POSITION":3,"TEXCOORD_0":4}}]}],"nodes":[{"name":"tile_0288.obj","children":[1]},{"name":"defaultobject","mesh":0}],"samplers":[{},{}],"scenes":[{"nodes":[0]}],"textures":[{"source":0,"sampler":0},{"source":1,"sampler":1}],"scene":0}
