{"asset":{"version":"2.0","generator":"Open Asset Import Library (assimp v6.0.0)"},"extensionsUsed":["KHR_materials_specular","KHR_materials_volume","KHR_materials_ior","FB_ngon_encoding"],"accessors":[{"bufferView":0,"byteOffset":0,"componentType":5126,"count":3982,"type":"VEC3","max":[-4.407793998718262,1.0236289501190186,4.27755069732666],"min":[-4.98868989944458,2.2250738585072014e-308,2.2250738585072014e-308]},{"bufferView":1,"byteOffset":0,"componentType":5126,"count":3982,"type":"VEC2","max":[0.9919195175170898,0.9210700988769531],"min":[2.2250738585072014e-308,2.2250738585072014e-308]},{"bufferView":2,"byteOffset":0,"componentType":5125,"count":16566,"type":"SCALAR","max":[3981],"min":[0]},{"bufferView":3,"byteOffset":0,"componentType":5126,"count":1370,"type":"VEC3","max":[-4.418440341949463,1.023150086402893,4.272040843963623],"min":[-4.9896559715271,2.2250738585072014e-308,2.2250738585072014e-308]},{"bufferView":4,"byteOffset":0,"componentType":5126,"count":1370,"type":"VEC2","max":[0.672360897064209,0.8075637817382812],"min":[2.2250738585072014e-308,2.2250738585072014e-308]},{"bufferView":5,"byteOffset":0,"componentType":5125,"count":6843,"type":"SCALAR","max":[1369],"min":[0]}],"buffers":[{"byteLength":200676,"uri":"tile_0581.bin"}],"bufferViews":[{"buffer":0,"byteOffset":0,"byteLength":47784,"target":34962},{"buffer":0,"byteOffset":47784,"byteLength":31856,"target":34962},{"buffer":0,"byteOffset":79640,"byteLength":66264,"target":34963},{"buffer":0,"byteOffset":145904,"byteLength":16440,"target":34962},{"buffer":0,"byteOffset":162344,"byteLength":10960,"target":34962},{"buffer":0,"byteOffset":173304,"byteLength":27372,"target":34963}],"images":[{"uri":"../textures/tile_0581_material_0.jpg"},{"uri":"../textures/tile_0581_material_1.jpg"}],"materials":[{"name":"DefaultMaterial","pbrMetallicRoughness":{"baseColorFactor":[0.6000000238418579,0.6000000238418579,0.6000000238418579,1.0],"metallicFactor":0.0},"extensions":{"KHR_materials_specular":{"specularFactor":1.0,"specularColorFactor":[0.0,0.0,0.0]},"KHR_materials_ior":{"ior":1.0}}},{"name":"material_0_material","pbrMetallicRoughness":{"baseColorTexture":{"index":0},"metallicFactor":0.0},"extensions":{"KHR_materials_specular":{"specularFactor":1.0,"specularColorFactor":[0.0,0.0,0.0]},"KHR_materials_ior":{"ior":1.0}}},{"name":"material_1_material","pbrMetallicRoughness":{"baseColorTexture":{"index":1},"metallicFactor":0.0},"extensions":{"KHR_materials_specular":{"specularFactor":1.0,"specularColorFactor":[0.0,0.0,0.0]},"KHR_materials_ior":{"ior":1.0}}}],"meshes":[{"name":"defaultobject","primitives":[{"mode":4,"material":1,"indices":2,"attributes":{"POSITION":0,"TEXCOORD_0":1}},{"mode":4,"material":2,"indices":5,"attributes":{"POSITION":3,"TEXCOORD_0":4}}]}],"nodes":[{"name":"tile_0581.obj","children":[1]},{"name":"defaultobject","mesh":0}],"samplers":[{},{}],"scenes":[{"nodes":[0]}],"textures":[{"source":0,"sampler":0},{"source":1,"sampler":1}],"scene":0}
