{"asset":{"version":"2.0","generator":"Open Asset Import Library (assimp v6.0.0)"},"extensionsUsed":["KHR_materials_specular","KHR_materials_volume","KHR_materials_ior","FB_ngon_encoding"],"accessors":[{"bufferView":0,"byteOffset":0,"componentType":5126,"count":3595,"type":"VEC3","max":[-0.6009547710418701,-4.428893566131592,2.4720606803894043],"min":[-0.7856881618499756,-4.838876247406006,2.2250738585072014e-308]},{"bufferView":1,"byteOffset":0,"componentType":5126,"count":3595,"type":"VEC2","max":[0.9904689788818359,0.8741989135742188],"min":[2.2250738585072014e-308,2.2250738585072014e-308]},{"bufferView":2,"byteOffset":0,"componentType":5125,"count":15741,"type":"SCALAR","max":[3594],"min":[0]},{"bufferView":3,"byteOffset":0,"componentType":5126,"count":999,"type":"VEC3","max":[-0.6024847626686096,-4.42899751663208,2.480036497116089],"min":[-0.7851793766021729,-4.8410563468933105,2.2250738585072014e-308]},{"bufferView":4,"byteOffset":0,"componentType":5126,"count":999,"type":"VEC2","max":[0.9120216369628906,0.5826568603515625],"min":[2.2250738585072014e-308,2.2250738585072014e-308]},{"bufferView":5,"byteOffset":0,"componentType":5125,"count":4662,"type":"SCALAR","max":[998],"min":[0]}],"buffers":[{"byteLength":173492,"uri":"tile_0355.bin"}],"bufferViews":[{"buffer":0,"byteOffset":0,"byteLength":43140,"target":34962},{"buffer":0,"byteOffset":43140,"byteLength":28760,"target":34962},{"buffer":0,"byteOffset":71900,"byteLength":62964,"target":34963},{"buffer":0,"byteOffset":134864,"byteLength":11988,"target":34962},{"buffer":0,"byteOffset":146852,"byteLength":7992,"target":34962},{"buffer":0,"byteOffset":154844,"byteLength":18648,"target":34963}],"images":[{"uri":"../textures/tile_0355_material_0.jpg"},{"uri":"../textures/tile_0355_material_1.jpg"}],"materials":[{"name":"DefaultMaterial","pbrMetallicRoughness":{"baseColorFactor":[0.6000000238418579,0.6000000238418579,0.6000000238418579,1.0],"metallicFactor":0.0},"extensions":{"KHR_materials_specular":{"specularFactor":1.0,"specularColorFactor":[0.0,0.0,0.0]},"KHR_materials_ior":{"ior":1.0}}},{"name":"material_0_material","pbrMetallicRoughness":{"baseColorTexture":{"index":0},"metallicFactor":0.0},"extensions":{"KHR_materials_specular":{"specularFactor":1.0,"specularColorFactor":[0.0,0.0,0.0]},"KHR_materials_ior":{"ior":1.0}}},{"name":"material_1_material","pbrMetallicRoughness":{"baseColorTexture":{"index":1},"metallicFactor":0.0},"extensions":{"KHR_materials_specular":{"specularFactor":1.0,"specularColorFactor":[0.0,0.0,0.0]},"KHR_materials_ior":{"ior":1.0}}}],"meshes":[{"name":"defaultobject","primitives":[{"mode":4,"material":1,"indices":2,"attributes":{"POSITION":0,"TEXCOORD_0":1}},{"mode":4,"material":2,"indices":5,"attributes":{"POSITION":3,"TEXCOORD_0":4}}]}],"nodes":[{"name":"tile_0355.obj","children":[1]},{"name":"defaultobject","mesh":0}],"samplers":[{},{}],"scenes":[{"nodes":[0]}],"textures":[{"source":0,"sampler":0},{"source":1,"sampler":1}],"scene":0}
