{"asset":{"version":"2.0","generator":"Open Asset Import Library (assimp v6.0.0)"},"extensionsUsed":["KHR_materials_specular","KHR_materials_volume","KHR_materials_ior","FB_ngon_encoding"],"accessors":[{"bufferView":0,"byteOffset":0,"componentType":5126,"count":3678,"type":"VEC3","max":[3.349565029144287,-0.5615358948707581,4.102053165435791],"min":[2.2250738585072014e-308,-0.8039038181304932,2.2250738585072014e-308]},{"bufferView":1,"byteOffset":0,"componentType":5126,"count":3678,"type":"VEC2","max":[0.9920749664306641,0.5145759582519531],"min":[2.2250738585072014e-308,2.2250738585072014e-308]},{"bufferView":2,"byteOffset":0,"componentType":5125,"count":16077,"type":"SCALAR","max":[3677],"min":[0]},{"bufferView":3,"byteOffset":0,"componentType":5126,"count":843,"type":"VEC3","max":[3.2851481437683105,-0.5626154541969299,4.096195697784424],"min":[2.2250738585072014e-308,-0.7853955626487732,2.2250738585072014e-308]},{"bufferView":4,"byteOffset":0,"componentType":5126,"count":843,"type":"VEC2","max":[0.6111764907836914,0.9459342956542969],"min":[2.2250738585072014e-308,2.2250738585072014e-308]},{"bufferView":5,"byteOffset":0,"componentType":5125,"count":4278,"type":"SCALAR","max":[842],"min":[0]}],"buffers":[{"byteLength":171840,"uri":"tile_0207.bin"}],"bufferViews":[{"buffer":0,"byteOffset":0,"byteLength":44136,"target":34962},{"buffer":0,"byteOffset":44136,"byteLength":29424,"target":34962},{"buffer":0,"byteOffset":73560,"byteLength":64308,"target":34963},{"buffer":0,"byteOffset":137868,"byteLength":10116,"target":34962},{"buffer":0,"byteOffset":147984,"byteLength":6744,"target":34962},{"buffer":0,"byteOffset":154728,"byteLength":17112,"target":34963}],"images":[{"uri":"../textures/tile_0207_material_0.jpg"},{"uri":"../textures/tile_0207_material_1.jpg"}],"materials":[{"name":"DefaultMaterial","pbrMetallicRoughness":{"baseColorFactor":[0.6000000238418579,0.6000000238418579,0.6000000238418579,1.0],"metallicFactor":0.0},"extensions":{"KHR_materials_specular":{"specularFactor":1.0,"specularColorFactor":[0.0,0.0,0.0]},"KHR_materials_ior":{"ior":1.0}}},{"name":"material_0_material","pbrMetallicRoughness":{"baseColorTexture":{"index":0},"metallicFactor":0.0},"extensions":{"KHR_materials_specular":{"specularFactor":1.0,"specularColorFactor":[0.0,0.0,0.0]},"KHR_materials_ior":{"ior":1.0}}},{"name":"material_1_material","pbrMetallicRoughness":{"baseColorTexture":{"index":1},"metallicFactor":0.0},"extensions":{"KHR_materials_specular":{"specularFactor":1.0,"specularColorFactor":[0.0,0.0,0.0]},"KHR_materials_ior":{"ior":1.0}}}],"meshes":[{"name":"defaultobject","primitives":[{"mode":4,"material":1,"indices":2,"attributes":{"POSITION":0,"TEXCOORD_0":1}},{"mode":4,"material":2,"indices":5,"attributes":{"POSITION":3,"TEXCOORD_0":4}}]}],"nodes":[{"name":"tile_0207.obj","children":[1]},{"name":"defaultobject","mesh":0}],"samplers":[{},{}],"scenes":[{"nodes":[0]}],"textures":[{"source":0,"sampler":0},{"source":1,"sampler":1}],"scene":0}
