{"asset":{"version":"2.0","generator":"Open Asset Import Library (assimp v6.0.0)"},"extensionsUsed":["KHR_materials_specular","KHR_materials_volume","KHR_materials_ior","FB_ngon_encoding"],"accessors":[{"bufferView":0,"byteOffset":0,"componentType":5126,"count":3616,"type":"VEC3","max":[4.92997932434082,-1.9847925901412964,4.041863918304443],"min":[2.2250738585072014e-308,-2.2495837211608887,2.2250738585072014e-308]},{"bufferView":1,"byteOffset":0,"componentType":5126,"count":3616,"type":"VEC2","max":[0.9947869777679443,0.5740966796875],"min":[2.2250738585072014e-308,2.2250738585072014e-308]},{"bufferView":2,"byteOffset":0,"componentType":5125,"count":16665,"type":"SCALAR","max":[3615],"min":[0]},{"bufferView":3,"byteOffset":0,"componentType":5126,"count":2238,"type":"VEC3","max":[4.920493125915527,-1.9750422239303589,4.018248081207275],"min":[2.2250738585072014e-308,-2.2495837211608887,2.2250738585072014e-308]},{"bufferView":4,"byteOffset":0,"componentType":5126,"count":2238,"type":"VEC2","max":[0.9621789455413818,0.8306484222412109],"min":[2.2250738585072014e-308,2.2250738585072014e-308]},{"bufferView":5,"byteOffset":0,"componentType":5125,"count":11307,"type":"SCALAR","max":[2237],"min":[0]}],"buffers":[{"byteLength":228968,"uri":"tile_0739.bin"}],"bufferViews":[{"buffer":0,"byteOffset":0,"byteLength":43392,"target":34962},{"buffer":0,"byteOffset":43392,"byteLength":28928,"target":34962},{"buffer":0,"byteOffset":72320,"byteLength":66660,"target":34963},{"buffer":0,"byteOffset":138980,"byteLength":26856,"target":34962},{"buffer":0,"byteOffset":165836,"byteLength":17904,"target":34962},{"buffer":0,"byteOffset":183740,"byteLength":45228,"target":34963}],"images":[{"uri":"../textures/tile_0739_material_0.jpg"},{"uri":"../textures/tile_0739_material_1.jpg"}],"materials":[{"name":"DefaultMaterial","pbrMetallicRoughness":{"baseColorFactor":[0.6000000238418579,0.6000000238418579,0.6000000238418579,1.0],"metallicFactor":0.0},"extensions":{"KHR_materials_specular":{"specularFactor":1.0,"specularColorFactor":[0.0,0.0,0.0]},"KHR_materials_ior":{"ior":1.0}}},{"name":"material_0_material","pbrMetallicRoughness":{"baseColorTexture":{"index":0},"metallicFactor":0.0},"extensions":{"KHR_materials_specular":{"specularFactor":1.0,"specularColorFactor":[0.0,0.0,0.0]},"KHR_materials_ior":{"ior":1.0}}},{"name":"material_1_material","pbrMetallicRoughness":{"baseColorTexture":{"index":1},"metallicFactor":0.0},"extensions":{"KHR_materials_specular":{"specularFactor":1.0,"specularColorFactor":[0.0,0.0,0.0]},"KHR_materials_ior":{"ior":1.0}}}],"meshes":[{"name":"defaultobject","primitives":[{"mode":4,"material":1,"indices":2,"attributes":{"POSITION":0,"TEXCOORD_0":1}},{"mode":4,"material":2,"indices":5,"attributes":{"POSITION":3,"TEXCOORD_0":4}}]}],"nodes":[{"name":"tile_0739.obj","children":[1]},{"name":"defaultobject","mesh":0}],"samplers":[{},{}],"scenes":[{"nodes":[0]}],"textures":[{"source":0,"sampler":0},{"source":1,"sampler":1}],"scene":0}
