{"asset":{"version":"2.0","generator":"Open Asset Import Library (assimp v6.0.0)"},"extensionsUsed":["KHR_materials_specular","KHR_materials_volume","KHR_materials_ior","FB_ngon_encoding"],"accessors":[{"bufferView":0,"byteOffset":0,"componentType":5126,"count":12197,"type":"VEC3","max":[3.3504385948181152,0.25373324751853943,4.1332292556762695],"min":[2.2250738585072014e-308,-0.3404026925563812,2.2250738585072014e-308]},{"bufferView":1,"byteOffset":0,"componentType":5126,"count":12197,"type":"VEC2","max":[0.9959955215454102,0.5234308242797852],"min":[2.2250738585072014e-308,2.2250738585072014e-308]},{"bufferView":2,"byteOffset":0,"componentType":5125,"count":51951,"type":"SCALAR","max":[12196],"min":[0]},{"bufferView":3,"byteOffset":0,"componentType":5126,"count":3651,"type":"VEC3","max":[3.306702136993408,0.25344058871269226,4.124880313873291],"min":[2.2250738585072014e-308,-0.3377976715564728,2.2250738585072014e-308]},{"bufferView":4,"byteOffset":0,"componentType":5126,"count":3651,"type":"VEC2","max":[0.5913612842559814,0.6176872253417969],"min":[2.2250738585072014e-308,2.2250738585072014e-308]},{"bufferView":5,"byteOffset":0,"componentType":5125,"count":18828,"type":"SCALAR","max":[3650],"min":[0]}],"buffers":[{"byteLength":600076,"uri":"tile_0172.bin"}],"bufferViews":[{"buffer":0,"byteOffset":0,"byteLength":146364,"target":34962},{"buffer":0,"byteOffset":146364,"byteLength":97576,"target":34962},{"buffer":0,"byteOffset":243940,"byteLength":207804,"target":34963},{"buffer":0,"byteOffset":451744,"byteLength":43812,"target":34962},{"buffer":0,"byteOffset":495556,"byteLength":29208,"target":34962},{"buffer":0,"byteOffset":524764,"byteLength":75312,"target":34963}],"images":[{"uri":"../textures/tile_0172_material_0.jpg"},{"uri":"../textures/tile_0172_material_1.jpg"}],"materials":[{"name":"DefaultMaterial","pbrMetallicRoughness":{"baseColorFactor":[0.6000000238418579,0.6000000238418579,0.6000000238418579,1.0],"metallicFactor":0.0},"extensions":{"KHR_materials_specular":{"specularFactor":1.0,"specularColorFactor":[0.0,0.0,0.0]},"KHR_materials_ior":{"ior":1.0}}},{"name":"material_0_material","pbrMetallicRoughness":{"baseColorTexture":{"index":0},"metallicFactor":0.0},"extensions":{"KHR_materials_specular":{"specularFactor":1.0,"specularColorFactor":[0.0,0.0,0.0]},"KHR_materials_ior":{"ior":1.0}}},{"name":"material_1_material","pbrMetallicRoughness":{"baseColorTexture":{"index":1},"metallicFactor":0.0},"extensions":{"KHR_materials_specular":{"specularFactor":1.0,"specularColorFactor":[0.0,0.0,0.0]},"KHR_materials_ior":{"ior":1.0}}}],"meshes":[{"name":"defaultobject","primitives":[{"mode":4,"material":1,"indices":2,"attributes":{"POSITION":0,"TEXCOORD_0":1}},{"mode":4,"material":2,"indices":5,"attributes":{"POSITION":3,"TEXCOORD_0":4}}]}],"nodes":[{"name":"tile_0172.obj","children":[1]},{"name":"defaultobject","mesh":0}],"samplers":[{},{}],"scenes":[{"nodes":[0]}],"textures":[{"source":0,"sampler":0},{"source":1,"sampler":1}],"scene":0}
