{"asset":{"version":"2.0","generator":"Open Asset Import Library (assimp v6.0.0)"},"extensionsUsed":["KHR_materials_specular","KHR_materials_volume","KHR_materials_ior","FB_ngon_encoding"],"accessors":[{"bufferView":0,"byteOffset":0,"componentType":5126,"count":4884,"type":"VEC3","max":[1.6503360271453857,2.9709181785583496,4.467189311981201],"min":[2.2250738585072014e-308,2.2250738585072014e-308,2.2250738585072014e-308]},{"bufferView":1,"byteOffset":0,"componentType":5126,"count":4884,"type":"VEC2","max":[0.9957790374755859,0.88934326171875],"min":[2.2250738585072014e-308,2.2250738585072014e-308]},{"bufferView":2,"byteOffset":0,"componentType":5125,"count":20253,"type":"SCALAR","max":[4883],"min":[0]},{"bufferView":3,"byteOffset":0,"componentType":5126,"count":1458,"type":"VEC3","max":[1.6513779163360596,2.9716622829437256,4.465508937835693],"min":[2.2250738585072014e-308,2.2250738585072014e-308,2.2250738585072014e-308]},{"bufferView":4,"byteOffset":0,"componentType":5126,"count":1458,"type":"VEC2","max":[0.8511743545532227,0.724700927734375],"min":[2.2250738585072014e-308,2.2250738585072014e-308]},{"bufferView":5,"byteOffset":0,"componentType":5125,"count":6996,"type":"SCALAR","max":[1457],"min":[0]}],"buffers":[{"byteLength":235836,"uri":"tile_0688.bin"}],"bufferViews":[{"buffer":0,"byteOffset":0,"byteLength":58608,"target":34962},{"buffer":0,"byteOffset":58608,"byteLength":39072,"target":34962},{"buffer":0,"byteOffset":97680,"byteLength":81012,"target":34963},{"buffer":0,"byteOffset":178692,"byteLength":17496,"target":34962},{"buffer":0,"byteOffset":196188,"byteLength":11664,"target":34962},{"buffer":0,"byteOffset":207852,"byteLength":27984,"target":34963}],"images":[{"uri":"../textures/tile_0688_material_0.jpg"},{"uri":"../textures/tile_0688_material_1.jpg"}],"materials":[{"name":"DefaultMaterial","pbrMetallicRoughness":{"baseColorFactor":[0.6000000238418579,0.6000000238418579,0.6000000238418579,1.0],"metallicFactor":0.0},"extensions":{"KHR_materials_specular":{"specularFactor":1.0,"specularColorFactor":[0.0,0.0,0.0]},"KHR_materials_ior":{"ior":1.0}}},{"name":"material_0_material","pbrMetallicRoughness":{"baseColorTexture":{"index":0},"metallicFactor":0.0},"extensions":{"KHR_materials_specular":{"specularFactor":1.0,"specularColorFactor":[0.0,0.0,0.0]},"KHR_materials_ior":{"ior":1.0}}},{"name":"material_1_material","pbrMetallicRoughness":{"baseColorTexture":{"index":1},"metallicFactor":0.0},"extensions":{"KHR_materials_specular":{"specularFactor":1.0,"specularColorFactor":[0.0,0.0,0.0]},"KHR_materials_ior":{"ior":1.0}}}],"meshes":[{"name":"defaultobject","primitives":[{"mode":4,"material":1,"indices":2,"attributes":{"POSITION":0,"TEXCOORD_0":1}},{"mode":4,"material":2,"indices":5,"attributes":{"POSITION":3,"TEXCOORD_0":4}}]}],"nodes":[{"name":"tile_0688.obj","children":[1]},{"name":"defaultobject","mesh":0}],"samplers":[{},{}],"scenes":[{"nodes":[0]}],"textures":[{"source":0,"sampler":0},{"source":1,"sampler":1}],"scene":0}
