{"asset":{"version":"2.0","generator":"Open Asset Import Library (assimp v6.0.0)"},"extensionsUsed":["KHR_materials_specular","KHR_materials_volume","KHR_materials_ior","FB_ngon_encoding"],"accessors":[{"bufferView":0,"byteOffset":0,"componentType":5126,"count":180,"type":"VEC3","max":[-1.8704917430877686,-5.8170061111450195,2.510427236557007],"min":[-1.9991735219955444,-6.599847793579102,2.2250738585072014e-308]},{"bufferView":1,"byteOffset":0,"componentType":5126,"count":180,"type":"VEC2","max":[0.8828125,0.5015411376953125],"min":[2.2250738585072014e-308,2.2250738585072014e-308]},{"bufferView":2,"byteOffset":0,"componentType":5125,"count":654,"type":"SCALAR","max":[179],"min":[0]},{"bufferView":3,"byteOffset":0,"componentType":5126,"count":3872,"type":"VEC3","max":[-1.8614035844802856,-5.724706649780273,2.510427236557007],"min":[-2.035865068435669,-6.890928268432617,2.2250738585072014e-308]},{"bufferView":4,"byteOffset":0,"componentType":5126,"count":3872,"type":"VEC2","max":[0.9756045341491699,0.7221145629882812],"min":[2.2250738585072014e-308,2.2250738585072014e-308]},{"bufferView":5,"byteOffset":0,"componentType":5125,"count":20691,"type":"SCALAR","max":[3871],"min":[0]}],"buffers":[{"byteLength":166420,"uri":"tile_0832.bin"}],"bufferViews":[{"buffer":0,"byteOffset":0,"byteLength":2160,"target":34962},{"buffer":0,"byteOffset":2160,"byteLength":1440,"target":34962},{"buffer":0,"byteOffset":3600,"byteLength":2616,"target":34963},{"buffer":0,"byteOffset":6216,"byteLength":46464,"target":34962},{"buffer":0,"byteOffset":52680,"byteLength":30976,"target":34962},{"buffer":0,"byteOffset":83656,"byteLength":82764,"target":34963}],"images":[{"uri":"../textures/tile_0832_material_0.jpg"},{"uri":"../textures/tile_0832_material_1.jpg"}],"materials":[{"name":"DefaultMaterial","pbrMetallicRoughness":{"baseColorFactor":[0.6000000238418579,0.6000000238418579,0.6000000238418579,1.0],"metallicFactor":0.0},"extensions":{"KHR_materials_specular":{"specularFactor":1.0,"specularColorFactor":[0.0,0.0,0.0]},"KHR_materials_ior":{"ior":1.0}}},{"name":"material_0_material","pbrMetallicRoughness":{"baseColorTexture":{"index":0},"metallicFactor":0.0},"extensions":{"KHR_materials_specular":{"specularFactor":1.0,"specularColorFactor":[0.0,0.0,0.0]},"KHR_materials_ior":{"ior":1.0}}},{"name":"material_1_material","pbrMetallicRoughness":{"baseColorTexture":{"index":1},"metallicFactor":0.0},"extensions":{"KHR_materials_specular":{"specularFactor":1.0,"specularColorFactor":[0.0,0.0,0.0]},"KHR_materials_ior":{"ior":1.0}}}],"meshes":[{"name":"defaultobject","primitives":[{"mode":4,"material":1,"indices":2,"attributes":{"POSITION":0,"TEXCOORD_0":1}},{"mode":4,"material":2,"indices":5,"attributes":{"POSITION":3,"TEXCOORD_0":4}}]}],"nodes":[{"name":"tile_0832.obj","children":[1]},{"name":"defaultobject","mesh":0}],"samplers":[{},{}],"scenes":[{"nodes":[0]}],"textures":[{"source":0,"sampler":0},{"source":1,"sampler":1}],"scene":0}
