{"asset":{"version":"2.0","generator":"Open Asset Import Library (assimp v6.0.0)"},"extensionsUsed":["KHR_materials_specular","KHR_materials_volume","KHR_materials_ior","FB_ngon_encoding"],"accessors":[{"bufferView":0,"byteOffset":0,"componentType":5126,"count":4232,"type":"VEC3","max":[6.129405975341797,-0.3014066219329834,4.0976362228393555],"min":[2.2250738585072014e-308,-0.610594630241394,2.2250738585072014e-308]},{"bufferView":1,"byteOffset":0,"componentType":5126,"count":4232,"type":"VEC2","max":[0.9957637786865234,0.5428142547607422],"min":[2.2250738585072014e-308,2.2250738585072014e-308]},{"bufferView":2,"byteOffset":0,"componentType":5125,"count":19725,"type":"SCALAR","max":[4231],"min":[0]},{"bufferView":3,"byteOffset":0,"componentType":5126,"count":788,"type":"VEC3","max":[6.0686936378479,-0.3022018074989319,4.0976128578186035],"min":[2.2250738585072014e-308,-0.5848064422607422,2.2250738585072014e-308]},{"bufferView":4,"byteOffset":0,"componentType":5126,"count":788,"type":"VEC2","max":[0.6282491683959961,0.8925933837890625],"min":[2.2250738585072014e-308,2.2250738585072014e-308]},{"bufferView":5,"byteOffset":0,"componentType":5125,"count":3996,"type":"SCALAR","max":[787],"min":[0]}],"buffers":[{"byteLength":195284,"uri":"tile_0294.bin"}],"bufferViews":[{"buffer":0,"byteOffset":0,"byteLength":50784,"target":34962},{"buffer":0,"byteOffset":50784,"byteLength":33856,"target":34962},{"buffer":0,"byteOffset":84640,"byteLength":78900,"target":34963},{"buffer":0,"byteOffset":163540,"byteLength":9456,"target":34962},{"buffer":0,"byteOffset":172996,"byteLength":6304,"target":34962},{"buffer":0,"byteOffset":179300,"byteLength":15984,"target":34963}],"images":[{"uri":"../textures/tile_0294_material_0.jpg"},{"uri":"../textures/tile_0294_material_1.jpg"}],"materials":[{"name":"DefaultMaterial","pbrMetallicRoughness":{"baseColorFactor":[0.6000000238418579,0.6000000238418579,0.6000000238418579,1.0],"metallicFactor":0.0},"extensions":{"KHR_materials_specular":{"specularFactor":1.0,"specularColorFactor":[0.0,0.0,0.0]},"KHR_materials_ior":{"ior":1.0}}},{"name":"material_0_material","pbrMetallicRoughness":{"baseColorTexture":{"index":0},"metallicFactor":0.0},"extensions":{"KHR_materials_specular":{"specularFactor":1.0,"specularColorFactor":[0.0,0.0,0.0]},"KHR_materials_ior":{"ior":1.0}}},{"name":"material_1_material","pbrMetallicRoughness":{"baseColorTexture":{"index":1},"metallicFactor":0.0},"extensions":{"KHR_materials_specular":{"specularFactor":1.0,"specularColorFactor":[0.0,0.0,0.0]},"KHR_materials_ior":{"ior":1.0}}}],"meshes":[{"name":"defaultobject","primitives":[{"mode":4,"material":1,"indices":2,"attributes":{"POSITION":0,"TEXCOORD_0":1}},{"mode":4,"material":2,"indices":5,"attributes":{"POSITION":3,"TEXCOORD_0":4}}]}],"nodes":[{"name":"tile_0294.obj","children":[1]},{"name":"defaultobject","mesh":0}],"samplers":[{},{}],"scenes":[{"nodes":[0]}],"textures":[{"source":0,"sampler":0},{"source":1,"sampler":1}],"scene":0}
