{"asset":{"version":"2.0","generator":"Open Asset Import Library (assimp v6.0.0)"},"extensionsUsed":["KHR_materials_specular","KHR_materials_volume","KHR_materials_ior","FB_ngon_encoding"],"accessors":[{"bufferView":0,"byteOffset":0,"componentType":5126,"count":4960,"type":"VEC3","max":[2.085576295852661,-3.6204206943511963,3.365709066390991],"min":[2.2250738585072014e-308,-3.957533359527588,2.2250738585072014e-308]},{"bufferView":1,"byteOffset":0,"componentType":5126,"count":4960,"type":"VEC2","max":[0.9926313161849976,0.5584964752197266],"min":[2.2250738585072014e-308,2.2250738585072014e-308]},{"bufferView":2,"byteOffset":0,"componentType":5125,"count":20655,"type":"SCALAR","max":[4959],"min":[0]},{"bufferView":3,"byteOffset":0,"componentType":5126,"count":858,"type":"VEC3","max":[2.083205461502075,-3.6192567348480225,3.358604669570923],"min":[2.2250738585072014e-308,-3.8086981773376465,2.2250738585072014e-308]},{"bufferView":4,"byteOffset":0,"componentType":5126,"count":858,"type":"VEC2","max":[0.9495086669921875,0.753265380859375],"min":[2.2250738585072014e-308,2.2250738585072014e-308]},{"bufferView":5,"byteOffset":0,"componentType":5125,"count":4227,"type":"SCALAR","max":[857],"min":[0]}],"buffers":[{"byteLength":215888,"uri":"tile_0756.bin"}],"bufferViews":[{"buffer":0,"byteOffset":0,"byteLength":59520,"target":34962},{"buffer":0,"byteOffset":59520,"byteLength":39680,"target":34962},{"buffer":0,"byteOffset":99200,"byteLength":82620,"target":34963},{"buffer":0,"byteOffset":181820,"byteLength":10296,"target":34962},{"buffer":0,"byteOffset":192116,"byteLength":6864,"target":34962},{"buffer":0,"byteOffset":198980,"byteLength":16908,"target":34963}],"images":[{"uri":"../textures/tile_0756_material_0.jpg"},{"uri":"../textures/tile_0756_material_1.jpg"}],"materials":[{"name":"DefaultMaterial","pbrMetallicRoughness":{"baseColorFactor":[0.6000000238418579,0.6000000238418579,0.6000000238418579,1.0],"metallicFactor":0.0},"extensions":{"KHR_materials_specular":{"specularFactor":1.0,"specularColorFactor":[0.0,0.0,0.0]},"KHR_materials_ior":{"ior":1.0}}},{"name":"material_0_material","pbrMetallicRoughness":{"baseColorTexture":{"index":0},"metallicFactor":0.0},"extensions":{"KHR_materials_specular":{"specularFactor":1.0,"specularColorFactor":[0.0,0.0,0.0]},"KHR_materials_ior":{"ior":1.0}}},{"name":"material_1_material","pbrMetallicRoughness":{"baseColorTexture":{"index":1},"metallicFactor":0.0},"extensions":{"KHR_materials_specular":{"specularFactor":1.0,"specularColorFactor":[0.0,0.0,0.0]},"KHR_materials_ior":{"ior":1.0}}}],"meshes":[{"name":"defaultobject","primitives":[{"mode":4,"material":1,"indices":2,"attributes":{"POSITION":0,"TEXCOORD_0":1}},{"mode":4,"material":2,"indices":5,"attributes":{"POSITION":3,"TEXCOORD_0":4}}]}],"nodes":[{"name":"tile_0756.obj","children":[1]},{"name":"defaultobject","mesh":0}],"samplers":[{},{}],"scenes":[{"nodes":[0]}],"textures":[{"source":0,"sampler":0},{"source":1,"sampler":1}],"scene":0}
