{"asset":{"version":"2.0","generator":"Open Asset Import Library (assimp v6.0.0)"},"extensionsUsed":["KHR_materials_specular","KHR_materials_volume","KHR_materials_ior","FB_ngon_encoding"],"accessors":[{"bufferView":0,"byteOffset":0,"componentType":5126,"count":4771,"type":"VEC3","max":[0.23208658397197723,-1.9432448148727417,2.6727120876312256],"min":[-0.034300196915864944,-2.2100088596343994,2.2250738585072014e-308]},{"bufferView":1,"byteOffset":0,"componentType":5126,"count":4771,"type":"VEC2","max":[0.9912490844726562,0.5936508178710938],"min":[2.2250738585072014e-308,2.2250738585072014e-308]},{"bufferView":2,"byteOffset":0,"componentType":5125,"count":21540,"type":"SCALAR","max":[4770],"min":[0]},{"bufferView":3,"byteOffset":0,"componentType":5126,"count":5,"type":"VEC3","max":[0.008289661258459091,-2.1994590759277344,2.587174415588379],"min":[2.2250738585072014e-308,-2.2070136070251465,2.2250738585072014e-308]},{"bufferView":4,"byteOffset":0,"componentType":5126,"count":5,"type":"VEC2","max":[0.5260315537452698,0.6231994032859802],"min":[2.2250738585072014e-308,2.2250738585072014e-308]},{"bufferView":5,"byteOffset":0,"componentType":5125,"count":9,"type":"SCALAR","max":[4],"min":[0]}],"buffers":[{"byteLength":181716,"uri":"tile_0290.bin"}],"bufferViews":[{"buffer":0,"byteOffset":0,"byteLength":57252,"target":34962},{"buffer":0,"byteOffset":57252,"byteLength":38168,"target":34962},{"buffer":0,"byteOffset":95420,"byteLength":86160,"target":34963},{"buffer":0,"byteOffset":181580,"byteLength":60,"target":34962},{"buffer":0,"byteOffset":181640,"byteLength":40,"target":34962},{"buffer":0,"byteOffset":181680,"byteLength":36,"target":34963}],"images":[{"uri":"../textures/tile_0290_material_0.jpg"},{"uri":"../textures/tile_0290_material_1.jpg"}],"materials":[{"name":"DefaultMaterial","pbrMetallicRoughness":{"baseColorFactor":[0.6000000238418579,0.6000000238418579,0.6000000238418579,1.0],"metallicFactor":0.0},"extensions":{"KHR_materials_specular":{"specularFactor":1.0,"specularColorFactor":[0.0,0.0,0.0]},"KHR_materials_ior":{"ior":1.0}}},{"name":"material_0_material","pbrMetallicRoughness":{"baseColorTexture":{"index":0},"metallicFactor":0.0},"extensions":{"KHR_materials_specular":{"specularFactor":1.0,"specularColorFactor":[0.0,0.0,0.0]},"KHR_materials_ior":{"ior":1.0}}},{"name":"material_1_material","pbrMetallicRoughness":{"baseColorTexture":{"index":1},"metallicFactor":0.0},"extensions":{"KHR_materials_specular":{"specularFactor":1.0,"specularColorFactor":[0.0,0.0,0.0]},"KHR_materials_ior":{"ior":1.0}}}],"meshes":[{"name":"defaultobject","primitives":[{"mode":4,"material":1,"indices":2,"attributes":{"POSITION":0,"TEXCOORD_0":1}},{"mode":4,"material":2,"indices":5,"attributes":{"POSITION":3,"TEXCOORD_0":4}}]}],"nodes":[{"name":"tile_0290.obj","children":[1]},{"name":"defaultobject","mesh":0}],"samplers":[{},{}],"scenes":[{"nodes":[0]}],"textures":[{"source":0,"sampler":0},{"source":1,"sampler":1}],"scene":0}
