{"asset":{"version":"2.0","generator":"Open Asset Import Library (assimp v6.0.0)"},"extensionsUsed":["KHR_materials_specular","KHR_materials_volume","KHR_materials_ior","FB_ngon_encoding"],"accessors":[{"bufferView":0,"byteOffset":0,"componentType":5126,"count":4087,"type":"VEC3","max":[3.614849328994751,2.3013784885406494,3.9101998805999756],"min":[2.2250738585072014e-308,2.2250738585072014e-308,2.2250738585072014e-308]},{"bufferView":1,"byteOffset":0,"componentType":5126,"count":4087,"type":"VEC2","max":[0.9929399490356445,0.5218677520751953],"min":[2.2250738585072014e-308,2.2250738585072014e-308]},{"bufferView":2,"byteOffset":0,"componentType":5125,"count":18924,"type":"SCALAR","max":[4086],"min":[0]},{"bufferView":3,"byteOffset":0,"componentType":5126,"count":890,"type":"VEC3","max":[3.6136419773101807,2.2991433143615723,3.9052538871765137],"min":[2.2250738585072014e-308,2.2250738585072014e-308,2.2250738585072014e-308]},{"bufferView":4,"byteOffset":0,"componentType":5126,"count":890,"type":"VEC2","max":[0.6525783538818359,0.5251407623291016],"min":[2.2250738585072014e-308,2.2250738585072014e-308]},{"bufferView":5,"byteOffset":0,"componentType":5125,"count":4518,"type":"SCALAR","max":[889],"min":[0]}],"buffers":[{"byteLength":193308,"uri":"tile_0663.bin"}],"bufferViews":[{"buffer":0,"byteOffset":0,"byteLength":49044,"target":34962},{"buffer":0,"byteOffset":49044,"byteLength":32696,"target":34962},{"buffer":0,"byteOffset":81740,"byteLength":75696,"target":34963},{"buffer":0,"byteOffset":157436,"byteLength":10680,"target":34962},{"buffer":0,"byteOffset":168116,"byteLength":7120,"target":34962},{"buffer":0,"byteOffset":175236,"byteLength":18072,"target":34963}],"images":[{"uri":"../textures/tile_0663_material_0.jpg"},{"uri":"../textures/tile_0663_material_1.jpg"}],"materials":[{"name":"DefaultMaterial","pbrMetallicRoughness":{"baseColorFactor":[0.6000000238418579,0.6000000238418579,0.6000000238418579,1.0],"metallicFactor":0.0},"extensions":{"KHR_materials_specular":{"specularFactor":1.0,"specularColorFactor":[0.0,0.0,0.0]},"KHR_materials_ior":{"ior":1.0}}},{"name":"material_0_material","pbrMetallicRoughness":{"baseColorTexture":{"index":0},"metallicFactor":0.0},"extensions":{"KHR_materials_specular":{"specularFactor":1.0,"specularColorFactor":[0.0,0.0,0.0]},"KHR_materials_ior":{"ior":1.0}}},{"name":"material_1_material","pbrMetallicRoughness":{"baseColorTexture":{"index":1},"metallicFactor":0.0},"extensions":{"KHR_materials_specular":{"specularFactor":1.0,"specularColorFactor":[0.0,0.0,0.0]},"KHR_materials_ior":{"ior":1.0}}}],"meshes":[{"name":"defaultobject","primitives":[{"mode":4,"material":1,"indices":2,"attributes":{"POSITION":0,"TEXCOORD_0":1}},{"mode":4,"material":2,"indices":5,"attributes":{"POSITION":3,"TEXCOORD_0":4}}]}],"nodes":[{"name":"tile_0663.obj","children":[1]},{"name":"defaultobject","mesh":0}],"samplers":[{},{}],"scenes":[{"nodes":[0]}],"textures":[{"source":0,"sampler":0},{"source":1,"sampler":1}],"scene":0}
