{"asset":{"version":"2.0","generator":"Open Asset Import Library (assimp v6.0.0)"},"extensionsUsed":["KHR_materials_specular","KHR_materials_volume","KHR_materials_ior","FB_ngon_encoding"],"accessors":[{"bufferView":0,"byteOffset":0,"componentType":5126,"count":3804,"type":"VEC3","max":[2.713373899459839,-4.546156406402588,3.3898260593414307],"min":[2.2250738585072014e-308,-5.496661186218262,2.2250738585072014e-308]},{"bufferView":1,"byteOffset":0,"componentType":5126,"count":3804,"type":"VEC2","max":[0.9802265167236328,0.8266239166259766],"min":[2.2250738585072014e-308,2.2250738585072014e-308]},{"bufferView":2,"byteOffset":0,"componentType":5125,"count":16860,"type":"SCALAR","max":[3803],"min":[0]},{"bufferView":3,"byteOffset":0,"componentType":5126,"count":1103,"type":"VEC3","max":[2.6888110637664795,-4.66945743560791,3.254692792892456],"min":[2.2250738585072014e-308,-5.36738920211792,2.2250738585072014e-308]},{"bufferView":4,"byteOffset":0,"componentType":5126,"count":1103,"type":"VEC2","max":[0.614830493927002,0.8064956665039062],"min":[2.2250738585072014e-308,2.2250738585072014e-308]},{"bufferView":5,"byteOffset":0,"componentType":5125,"count":5646,"type":"SCALAR","max":[1102],"min":[0]}],"buffers":[{"byteLength":188164,"uri":"tile_0758.bin"}],"bufferViews":[{"buffer":0,"byteOffset":0,"byteLength":45648,"target":34962},{"buffer":0,"byteOffset":45648,"byteLength":30432,"target":34962},{"buffer":0,"byteOffset":76080,"byteLength":67440,"target":34963},{"buffer":0,"byteOffset":143520,"byteLength":13236,"target":34962},{"buffer":0,"byteOffset":156756,"byteLength":8824,"target":34962},{"buffer":0,"byteOffset":165580,"byteLength":22584,"target":34963}],"images":[{"uri":"../textures/tile_0758_material_0.jpg"},{"uri":"../textures/tile_0758_material_1.jpg"}],"materials":[{"name":"DefaultMaterial","pbrMetallicRoughness":{"baseColorFactor":[0.6000000238418579,0.6000000238418579,0.6000000238418579,1.0],"metallicFactor":0.0},"extensions":{"KHR_materials_specular":{"specularFactor":1.0,"specularColorFactor":[0.0,0.0,0.0]},"KHR_materials_ior":{"ior":1.0}}},{"name":"material_0_material","pbrMetallicRoughness":{"baseColorTexture":{"index":0},"metallicFactor":0.0},"extensions":{"KHR_materials_specular":{"specularFactor":1.0,"specularColorFactor":[0.0,0.0,0.0]},"KHR_materials_ior":{"ior":1.0}}},{"name":"material_1_material","pbrMetallicRoughness":{"baseColorTexture":{"index":1},"metallicFactor":0.0},"extensions":{"KHR_materials_specular":{"specularFactor":1.0,"specularColorFactor":[0.0,0.0,0.0]},"KHR_materials_ior":{"ior":1.0}}}],"meshes":[{"name":"defaultobject","primitives":[{"mode":4,"material":1,"indices":2,"attributes":{"POSITION":0,"TEXCOORD_0":1}},{"mode":4,"material":2,"indices":5,"attributes":{"POSITION":3,"TEXCOORD_0":4}}]}],"nodes":[{"name":"tile_0758.obj","children":[1]},{"name":"defaultobject","mesh":0}],"samplers":[{},{}],"scenes":[{"nodes":[0]}],"textures":[{"source":0,"sampler":0},{"source":1,"sampler":1}],"scene":0}
