{"asset":{"version":"2.0","generator":"Open Asset Import Library (assimp v6.0.0)"},"extensionsUsed":["KHR_materials_specular","KHR_materials_volume","KHR_materials_ior","FB_ngon_encoding"],"accessors":[{"bufferView":0,"byteOffset":0,"componentType":5126,"count":2446,"type":"VEC3","max":[2.539666175842285,0.25195807218551636,4.128719329833984],"min":[2.2250738585072014e-308,-0.06777240335941315,2.2250738585072014e-308]},{"bufferView":1,"byteOffset":0,"componentType":5126,"count":2446,"type":"VEC2","max":[0.9919853210449219,0.7338294982910156],"min":[2.2250738585072014e-308,2.2250738585072014e-308]},{"bufferView":2,"byteOffset":0,"componentType":5125,"count":9642,"type":"SCALAR","max":[2445],"min":[0]},{"bufferView":3,"byteOffset":0,"componentType":5126,"count":2235,"type":"VEC3","max":[2.5350182056427,0.25348201394081116,4.125079154968262],"min":[2.2250738585072014e-308,-0.06805926561355591,2.2250738585072014e-308]},{"bufferView":4,"byteOffset":0,"componentType":5126,"count":2235,"type":"VEC2","max":[0.6956367492675781,0.6799488067626953],"min":[2.2250738585072014e-308,2.2250738585072014e-308]},{"bufferView":5,"byteOffset":0,"componentType":5125,"count":11454,"type":"SCALAR","max":[2234],"min":[0]}],"buffers":[{"byteLength":178004,"uri":"tile_0632.bin"}],"bufferViews":[{"buffer":0,"byteOffset":0,"byteLength":29352,"target":34962},{"buffer":0,"byteOffset":29352,"byteLength":19568,"target":34962},{"buffer":0,"byteOffset":48920,"byteLength":38568,"target":34963},{"buffer":0,"byteOffset":87488,"byteLength":26820,"target":34962},{"buffer":0,"byteOffset":114308,"byteLength":17880,"target":34962},{"buffer":0,"byteOffset":132188,"byteLength":45816,"target":34963}],"images":[{"uri":"../textures/tile_0632_material_0.jpg"},{"uri":"../textures/tile_0632_material_1.jpg"}],"materials":[{"name":"DefaultMaterial","pbrMetallicRoughness":{"baseColorFactor":[0.6000000238418579,0.6000000238418579,0.6000000238418579,1.0],"metallicFactor":0.0},"extensions":{"KHR_materials_specular":{"specularFactor":1.0,"specularColorFactor":[0.0,0.0,0.0]},"KHR_materials_ior":{"ior":1.0}}},{"name":"material_0_material","pbrMetallicRoughness":{"baseColorTexture":{"index":0},"metallicFactor":0.0},"extensions":{"KHR_materials_specular":{"specularFactor":1.0,"specularColorFactor":[0.0,0.0,0.0]},"KHR_materials_ior":{"ior":1.0}}},{"name":"material_1_material","pbrMetallicRoughness":{"baseColorTexture":{"index":1},"metallicFactor":0.0},"extensions":{"KHR_materials_specular":{"specularFactor":1.0,"specularColorFactor":[0.0,0.0,0.0]},"KHR_materials_ior":{"ior":1.0}}}],"meshes":[{"name":"defaultobject","primitives":[{"mode":4,"material":1,"indices":2,"attributes":{"POSITION":0,"TEXCOORD_0":1}},{"mode":4,"material":2,"indices":5,"attributes":{"POSITION":3,"TEXCOORD_0":4}}]}],"nodes":[{"name":"tile_0632.obj","children":[1]},{"name":"defaultobject","mesh":0}],"samplers":[{},{}],"scenes":[{"nodes":[0]}],"textures":[{"source":0,"sampler":0},{"source":1,"sampler":1}],"scene":0}
