{"asset":{"version":"2.0","generator":"Open Asset Import Library (assimp v6.0.0)"},"extensionsUsed":["KHR_materials_specular","KHR_materials_volume","KHR_materials_ior","FB_ngon_encoding"],"accessors":[{"bufferView":0,"byteOffset":0,"componentType":5126,"count":4260,"type":"VEC3","max":[-0.25105366110801697,-2.4704809188842773,2.595541000366211],"min":[-0.4242575168609619,-2.7035233974456787,2.2250738585072014e-308]},{"bufferView":1,"byteOffset":0,"componentType":5126,"count":4260,"type":"VEC2","max":[0.994208574295044,0.9746131896972656],"min":[2.2250738585072014e-308,2.2250738585072014e-308]},{"bufferView":2,"byteOffset":0,"componentType":5125,"count":18624,"type":"SCALAR","max":[4259],"min":[0]},{"bufferView":3,"byteOffset":0,"componentType":5126,"count":132,"type":"VEC3","max":[-0.25162017345428467,-2.6610496044158936,2.3513753414154053],"min":[-0.2928677201271057,-2.7046239376068115,2.2250738585072014e-308]},{"bufferView":4,"byteOffset":0,"componentType":5126,"count":132,"type":"VEC2","max":[0.5482101440429688,0.8298721313476562],"min":[2.2250738585072014e-308,2.2250738585072014e-308]},{"bufferView":5,"byteOffset":0,"componentType":5125,"count":627,"type":"SCALAR","max":[131],"min":[0]}],"buffers":[{"byteLength":164844,"uri":"tile_0018.bin"}],"bufferViews":[{"buffer":0,"byteOffset":0,"byteLength":51120,"target":34962},{"buffer":0,"byteOffset":51120,"byteLength":34080,"target":34962},{"buffer":0,"byteOffset":85200,"byteLength":74496,"target":34963},{"buffer":0,"byteOffset":159696,"byteLength":1584,"target":34962},{"buffer":0,"byteOffset":161280,"byteLength":1056,"target":34962},{"buffer":0,"byteOffset":162336,"byteLength":2508,"target":34963}],"images":[{"uri":"../textures/tile_0018_material_0.jpg"},{"uri":"../textures/tile_0018_material_1.jpg"}],"materials":[{"name":"DefaultMaterial","pbrMetallicRoughness":{"baseColorFactor":[0.6000000238418579,0.6000000238418579,0.6000000238418579,1.0],"metallicFactor":0.0},"extensions":{"KHR_materials_specular":{"specularFactor":1.0,"specularColorFactor":[0.0,0.0,0.0]},"KHR_materials_ior":{"ior":1.0}}},{"name":"material_0_material","pbrMetallicRoughness":{"baseColorTexture":{"index":0},"metallicFactor":0.0},"extensions":{"KHR_materials_specular":{"specularFactor":1.0,"specularColorFactor":[0.0,0.0,0.0]},"KHR_materials_ior":{"ior":1.0}}},{"name":"material_1_material","pbrMetallicRoughness":{"baseColorTexture":{"index":1},"metallicFactor":0.0},"extensions":{"KHR_materials_specular":{"specularFactor":1.0,"specularColorFactor":[0.0,0.0,0.0]},"KHR_materials_ior":{"ior":1.0}}}],"meshes":[{"name":"defaultobject","primitives":[{"mode":4,"material":1,"indices":2,"attributes":{"POSITION":0,"TEXCOORD_0":1}},{"mode":4,"material":2,"indices":5,"attributes":{"POSITION":3,"TEXCOORD_0":4}}]}],"nodes":[{"name":"tile_0018.obj","children":[1]},{"name":"defaultobject","mesh":0}],"samplers":[{},{}],"scenes":[{"nodes":[0]}],"textures":[{"source":0,"sampler":0},{"source":1,"sampler":1}],"scene":0}
