{"asset":{"version":"2.0","generator":"Open Asset Import Library (assimp v6.0.0)"},"extensionsUsed":["KHR_materials_specular","KHR_materials_volume","KHR_materials_ior","FB_ngon_encoding"],"accessors":[{"bufferView":0,"byteOffset":0,"componentType":5126,"count":1579,"type":"VEC3","max":[-0.9406043887138367,-5.754512310028076,2.510436534881592],"min":[-1.1148344278335571,-7.122642517089844,2.2250738585072014e-308]},{"bufferView":1,"byteOffset":0,"componentType":5126,"count":1579,"type":"VEC2","max":[0.9890742301940918,0.7329025268554688],"min":[2.2250738585072014e-308,2.2250738585072014e-308]},{"bufferView":2,"byteOffset":0,"componentType":5125,"count":7344,"type":"SCALAR","max":[1578],"min":[0]},{"bufferView":3,"byteOffset":0,"componentType":5126,"count":3146,"type":"VEC3","max":[-0.9406043887138367,-5.758798599243164,2.5364763736724854],"min":[-1.141798496246338,-7.122642517089844,2.2250738585072014e-308]},{"bufferView":4,"byteOffset":0,"componentType":5126,"count":3146,"type":"VEC2","max":[0.9065427780151367,0.7222747802734375],"min":[2.2250738585072014e-308,2.2250738585072014e-308]},{"bufferView":5,"byteOffset":0,"componentType":5125,"count":16728,"type":"SCALAR","max":[3145],"min":[0]}],"buffers":[{"byteLength":190788,"uri":"tile_0392.bin"}],"bufferViews":[{"buffer":0,"byteOffset":0,"byteLength":18948,"target":34962},{"buffer":0,"byteOffset":18948,"byteLength":12632,"target":34962},{"buffer":0,"byteOffset":31580,"byteLength":29376,"target":34963},{"buffer":0,"byteOffset":60956,"byteLength":37752,"target":34962},{"buffer":0,"byteOffset":98708,"byteLength":25168,"target":34962},{"buffer":0,"byteOffset":123876,"byteLength":66912,"target":34963}],"images":[{"uri":"../textures/tile_0392_material_0.jpg"},{"uri":"../textures/tile_0392_material_1.jpg"}],"materials":[{"name":"DefaultMaterial","pbrMetallicRoughness":{"baseColorFactor":[0.6000000238418579,0.6000000238418579,0.6000000238418579,1.0],"metallicFactor":0.0},"extensions":{"KHR_materials_specular":{"specularFactor":1.0,"specularColorFactor":[0.0,0.0,0.0]},"KHR_materials_ior":{"ior":1.0}}},{"name":"material_0_material","pbrMetallicRoughness":{"baseColorTexture":{"index":0},"metallicFactor":0.0},"extensions":{"KHR_materials_specular":{"specularFactor":1.0,"specularColorFactor":[0.0,0.0,0.0]},"KHR_materials_ior":{"ior":1.0}}},{"name":"material_1_material","pbrMetallicRoughness":{"baseColorTexture":{"index":1},"metallicFactor":0.0},"extensions":{"KHR_materials_specular":{"specularFactor":1.0,"specularColorFactor":[0.0,0.0,0.0]},"KHR_materials_ior":{"ior":1.0}}}],"meshes":[{"name":"defaultobject","primitives":[{"mode":4,"material":1,"indices":2,"attributes":{"POSITION":0,"TEXCOORD_0":1}},{"mode":4,"material":2,"indices":5,"attributes":{"POSITION":3,"TEXCOORD_0":4}}]}],"nodes":[{"name":"tile_0392.obj","children":[1]},{"name":"defaultobject","mesh":0}],"samplers":[{},{}],"scenes":[{"nodes":[0]}],"textures":[{"source":0,"sampler":0},{"source":1,"sampler":1}],"scene":0}
