{"asset":{"version":"2.0","generator":"Open Asset Import Library (assimp v6.0.0)"},"extensionsUsed":["KHR_materials_specular","KHR_materials_volume","KHR_materials_ior","FB_ngon_encoding"],"accessors":[{"bufferView":0,"byteOffset":0,"componentType":5126,"count":6695,"type":"VEC3","max":[-2.290764331817627,-4.045287132263184,2.5171494483947754],"min":[-2.574312686920166,-4.966371059417725,2.2250738585072014e-308]},{"bufferView":1,"byteOffset":0,"componentType":5126,"count":6695,"type":"VEC2","max":[0.9930233955383301,0.7499942779541016],"min":[2.2250738585072014e-308,2.2250738585072014e-308]},{"bufferView":2,"byteOffset":0,"componentType":5125,"count":29763,"type":"SCALAR","max":[6694],"min":[0]},{"bufferView":3,"byteOffset":0,"componentType":5126,"count":5042,"type":"VEC3","max":[-2.289983034133911,-4.058298587799072,2.5171494483947754],"min":[-2.5754988193511963,-4.964709758758545,2.2250738585072014e-308]},{"bufferView":4,"byteOffset":0,"componentType":5126,"count":5042,"type":"VEC2","max":[0.9830331802368164,0.84942626953125],"min":[2.2250738585072014e-308,2.2250738585072014e-308]},{"bufferView":5,"byteOffset":0,"componentType":5125,"count":25650,"type":"SCALAR","max":[5041],"min":[0]}],"buffers":[{"byteLength":456392,"uri":"tile_0382.bin"}],"bufferViews":[{"buffer":0,"byteOffset":0,"byteLength":80340,"target":34962},{"buffer":0,"byteOffset":80340,"byteLength":53560,"target":34962},{"buffer":0,"byteOffset":133900,"byteLength":119052,"target":34963},{"buffer":0,"byteOffset":252952,"byteLength":60504,"target":34962},{"buffer":0,"byteOffset":313456,"byteLength":40336,"target":34962},{"buffer":0,"byteOffset":353792,"byteLength":102600,"target":34963}],"images":[{"uri":"../textures/tile_0382_material_0.jpg"},{"uri":"../textures/tile_0382_material_1.jpg"}],"materials":[{"name":"DefaultMaterial","pbrMetallicRoughness":{"baseColorFactor":[0.6000000238418579,0.6000000238418579,0.6000000238418579,1.0],"metallicFactor":0.0},"extensions":{"KHR_materials_specular":{"specularFactor":1.0,"specularColorFactor":[0.0,0.0,0.0]},"KHR_materials_ior":{"ior":1.0}}},{"name":"material_0_material","pbrMetallicRoughness":{"baseColorTexture":{"index":0},"metallicFactor":0.0},"extensions":{"KHR_materials_specular":{"specularFactor":1.0,"specularColorFactor":[0.0,0.0,0.0]},"KHR_materials_ior":{"ior":1.0}}},{"name":"material_1_material","pbrMetallicRoughness":{"baseColorTexture":{"index":1},"metallicFactor":0.0},"extensions":{"KHR_materials_specular":{"specularFactor":1.0,"specularColorFactor":[0.0,0.0,0.0]},"KHR_materials_ior":{"ior":1.0}}}],"meshes":[{"name":"defaultobject","primitives":[{"mode":4,"material":1,"indices":2,"attributes":{"POSITION":0,"TEXCOORD_0":1}},{"mode":4,"material":2,"indices":5,"attributes":{"POSITION":3,"TEXCOORD_0":4}}]}],"nodes":[{"name":"tile_0382.obj","children":[1]},{"name":"defaultobject","mesh":0}],"samplers":[{},{}],"scenes":[{"nodes":[0]}],"textures":[{"source":0,"sampler":0},{"source":1,"sampler":1}],"scene":0}
