{"asset":{"version":"2.0","generator":"Open Asset Import Library (assimp v6.0.0)"},"extensionsUsed":["KHR_materials_specular","KHR_materials_volume","KHR_materials_ior","FB_ngon_encoding"],"accessors":[{"bufferView":0,"byteOffset":0,"componentType":5126,"count":3053,"type":"VEC3","max":[-2.4339098930358887,-0.21396943926811218,4.161319255828857],"min":[-2.8326265811920166,-0.38158348202705383,2.2250738585072014e-308]},{"bufferView":1,"byteOffset":0,"componentType":5126,"count":3053,"type":"VEC2","max":[0.980928897857666,0.9666252136230469],"min":[2.2250738585072014e-308,2.2250738585072014e-308]},{"bufferView":2,"byteOffset":0,"componentType":5125,"count":13008,"type":"SCALAR","max":[3052],"min":[0]},{"bufferView":3,"byteOffset":0,"componentType":5126,"count":3197,"type":"VEC3","max":[-2.4352102279663086,-0.21396943926811218,4.161934852600098],"min":[-2.8063082695007324,-0.38330504298210144,2.2250738585072014e-308]},{"bufferView":4,"byteOffset":0,"componentType":5126,"count":3197,"type":"VEC2","max":[0.8415484428405762,0.5895118713378906],"min":[2.2250738585072014e-308,2.2250738585072014e-308]},{"bufferView":5,"byteOffset":0,"componentType":5125,"count":16596,"type":"SCALAR","max":[3196],"min":[0]}],"buffers":[{"byteLength":243416,"uri":"tile_0093.bin"}],"bufferViews":[{"buffer":0,"byteOffset":0,"byteLength":36636,"target":34962},{"buffer":0,"byteOffset":36636,"byteLength":24424,"target":34962},{"buffer":0,"byteOffset":61060,"byteLength":52032,"target":34963},{"buffer":0,"byteOffset":113092,"byteLength":38364,"target":34962},{"buffer":0,"byteOffset":151456,"byteLength":25576,"target":34962},{"buffer":0,"byteOffset":177032,"byteLength":66384,"target":34963}],"images":[{"uri":"../textures/tile_0093_material_0.jpg"},{"uri":"../textures/tile_0093_material_1.jpg"}],"materials":[{"name":"DefaultMaterial","pbrMetallicRoughness":{"baseColorFactor":[0.6000000238418579,0.6000000238418579,0.6000000238418579,1.0],"metallicFactor":0.0},"extensions":{"KHR_materials_specular":{"specularFactor":1.0,"specularColorFactor":[0.0,0.0,0.0]},"KHR_materials_ior":{"ior":1.0}}},{"name":"material_0_material","pbrMetallicRoughness":{"baseColorTexture":{"index":0},"metallicFactor":0.0},"extensions":{"KHR_materials_specular":{"specularFactor":1.0,"specularColorFactor":[0.0,0.0,0.0]},"KHR_materials_ior":{"ior":1.0}}},{"name":"material_1_material","pbrMetallicRoughness":{"baseColorTexture":{"index":1},"metallicFactor":0.0},"extensions":{"KHR_materials_specular":{"specularFactor":1.0,"specularColorFactor":[0.0,0.0,0.0]},"KHR_materials_ior":{"ior":1.0}}}],"meshes":[{"name":"defaultobject","primitives":[{"mode":4,"material":1,"indices":2,"attributes":{"POSITION":0,"TEXCOORD_0":1}},{"mode":4,"material":2,"indices":5,"attributes":{"POSITION":3,"TEXCOORD_0":4}}]}],"nodes":[{"name":"tile_0093.obj","children":[1]},{"name":"defaultobject","mesh":0}],"samplers":[{},{}],"scenes":[{"nodes":[0]}],"textures":[{"source":0,"sampler":0},{"source":1,"sampler":1}],"scene":0}
