{"asset":{"version":"2.0","generator":"Open Asset Import Library (assimp v6.0.0)"},"extensionsUsed":["KHR_materials_specular","KHR_materials_volume","KHR_materials_ior","FB_ngon_encoding"],"accessors":[{"bufferView":0,"byteOffset":0,"componentType":5126,"count":3447,"type":"VEC3","max":[-4.938913345336914,1.336334228515625,4.386245250701904],"min":[-5.501880168914795,2.2250738585072014e-308,2.2250738585072014e-308]},{"bufferView":1,"byteOffset":0,"componentType":5126,"count":3447,"type":"VEC2","max":[0.9940433502197266,0.5428791046142578],"min":[2.2250738585072014e-308,2.2250738585072014e-308]},{"bufferView":2,"byteOffset":0,"componentType":5125,"count":15585,"type":"SCALAR","max":[3446],"min":[0]},{"bufferView":3,"byteOffset":0,"componentType":5126,"count":1420,"type":"VEC3","max":[-4.93949031829834,1.338818073272705,4.387896537780762],"min":[-5.502261638641357,2.2250738585072014e-308,2.2250738585072014e-308]},{"bufferView":4,"byteOffset":0,"componentType":5126,"count":1420,"type":"VEC2","max":[0.5229978561401367,0.939422607421875],"min":[2.2250738585072014e-308,2.2250738585072014e-308]},{"bufferView":5,"byteOffset":0,"componentType":5125,"count":7101,"type":"SCALAR","max":[1419],"min":[0]}],"buffers":[{"byteLength":188084,"uri":"tile_0131.bin"}],"bufferViews":[{"buffer":0,"byteOffset":0,"byteLength":41364,"target":34962},{"buffer":0,"byteOffset":41364,"byteLength":27576,"target":34962},{"buffer":0,"byteOffset":68940,"byteLength":62340,"target":34963},{"buffer":0,"byteOffset":131280,"byteLength":17040,"target":34962},{"buffer":0,"byteOffset":148320,"byteLength":11360,"target":34962},{"buffer":0,"byteOffset":159680,"byteLength":28404,"target":34963}],"images":[{"uri":"../textures/tile_0131_material_0.jpg"},{"uri":"../textures/tile_0131_material_1.jpg"}],"materials":[{"name":"DefaultMaterial","pbrMetallicRoughness":{"baseColorFactor":[0.6000000238418579,0.6000000238418579,0.6000000238418579,1.0],"metallicFactor":0.0},"extensions":{"KHR_materials_specular":{"specularFactor":1.0,"specularColorFactor":[0.0,0.0,0.0]},"KHR_materials_ior":{"ior":1.0}}},{"name":"material_0_material","pbrMetallicRoughness":{"baseColorTexture":{"index":0},"metallicFactor":0.0},"extensions":{"KHR_materials_specular":{"specularFactor":1.0,"specularColorFactor":[0.0,0.0,0.0]},"KHR_materials_ior":{"ior":1.0}}},{"name":"material_1_material","pbrMetallicRoughness":{"baseColorTexture":{"index":1},"metallicFactor":0.0},"extensions":{"KHR_materials_specular":{"specularFactor":1.0,"specularColorFactor":[0.0,0.0,0.0]},"KHR_materials_ior":{"ior":1.0}}}],"meshes":[{"name":"defaultobject","primitives":[{"mode":4,"material":1,"indices":2,"attributes":{"POSITION":0,"TEXCOORD_0":1}},{"mode":4,"material":2,"indices":5,"attributes":{"POSITION":3,"TEXCOORD_0":4}}]}],"nodes":[{"name":"tile_0131.obj","children":[1]},{"name":"defaultobject","mesh":0}],"samplers":[{},{}],"scenes":[{"nodes":[0]}],"textures":[{"source":0,"sampler":0},{"source":1,"sampler":1}],"scene":0}
