{"asset":{"version":"2.0","generator":"Open Asset Import Library (assimp v6.0.0)"},"extensionsUsed":["KHR_materials_specular","KHR_materials_volume","KHR_materials_ior","FB_ngon_encoding"],"accessors":[{"bufferView":0,"byteOffset":0,"componentType":5126,"count":3830,"type":"VEC3","max":[1.8650091886520386,-2.87544584274292,2.9037368297576904],"min":[2.2250738585072014e-308,-3.1202192306518555,2.2250738585072014e-308]},{"bufferView":1,"byteOffset":0,"componentType":5126,"count":3830,"type":"VEC2","max":[0.99407958984375,0.5154151916503906],"min":[2.2250738585072014e-308,2.2250738585072014e-308]},{"bufferView":2,"byteOffset":0,"componentType":5125,"count":17151,"type":"SCALAR","max":[3829],"min":[0]},{"bufferView":3,"byteOffset":0,"componentType":5126,"count":277,"type":"VEC3","max":[1.7157913446426392,-2.907341957092285,2.7160325050354004],"min":[2.2250738585072014e-308,-3.0594303607940674,2.2250738585072014e-308]},{"bufferView":4,"byteOffset":0,"componentType":5126,"count":277,"type":"VEC2","max":[0.47724151611328125,0.706207275390625],"min":[2.2250738585072014e-308,2.2250738585072014e-308]},{"bufferView":5,"byteOffset":0,"componentType":5125,"count":1284,"type":"SCALAR","max":[276],"min":[0]}],"buffers":[{"byteLength":155880,"uri":"tile_0780.bin"}],"bufferViews":[{"buffer":0,"byteOffset":0,"byteLength":45960,"target":34962},{"buffer":0,"byteOffset":45960,"byteLength":30640,"target":34962},{"buffer":0,"byteOffset":76600,"byteLength":68604,"target":34963},{"buffer":0,"byteOffset":145204,"byteLength":3324,"target":34962},{"buffer":0,"byteOffset":148528,"byteLength":2216,"target":34962},{"buffer":0,"byteOffset":150744,"byteLength":5136,"target":34963}],"images":[{"uri":"../textures/tile_0780_material_0.jpg"},{"uri":"../textures/tile_0780_material_1.jpg"}],"materials":[{"name":"DefaultMaterial","pbrMetallicRoughness":{"baseColorFactor":[0.6000000238418579,0.6000000238418579,0.6000000238418579,1.0],"metallicFactor":0.0},"extensions":{"KHR_materials_specular":{"specularFactor":1.0,"specularColorFactor":[0.0,0.0,0.0]},"KHR_materials_ior":{"ior":1.0}}},{"name":"material_0_material","pbrMetallicRoughness":{"baseColorTexture":{"index":0},"metallicFactor":0.0},"extensions":{"KHR_materials_specular":{"specularFactor":1.0,"specularColorFactor":[0.0,0.0,0.0]},"KHR_materials_ior":{"ior":1.0}}},{"name":"material_1_material","pbrMetallicRoughness":{"baseColorTexture":{"index":1},"metallicFactor":0.0},"extensions":{"KHR_materials_specular":{"specularFactor":1.0,"specularColorFactor":[0.0,0.0,0.0]},"KHR_materials_ior":{"ior":1.0}}}],"meshes":[{"name":"defaultobject","primitives":[{"mode":4,"material":1,"indices":2,"attributes":{"POSITION":0,"TEXCOORD_0":1}},{"mode":4,"material":2,"indices":5,"attributes":{"POSITION":3,"TEXCOORD_0":4}}]}],"nodes":[{"name":"tile_0780.obj","children":[1]},{"name":"defaultobject","mesh":0}],"samplers":[{},{}],"scenes":[{"nodes":[0]}],"textures":[{"source":0,"sampler":0},{"source":1,"sampler":1}],"scene":0}
