{"asset":{"version":"2.0","generator":"Open Asset Import Library (assimp v6.0.0)"},"extensionsUsed":["KHR_materials_specular","KHR_materials_volume","KHR_materials_ior","FB_ngon_encoding"],"accessors":[{"bufferView":0,"byteOffset":0,"componentType":5126,"count":888,"type":"VEC3","max":[-6.469614505767822,2.3512983322143555,4.9080281257629395],"min":[-8.476515769958496,2.2250738585072014e-308,2.2250738585072014e-308]},{"bufferView":1,"byteOffset":0,"componentType":5126,"count":888,"type":"VEC2","max":[0.6630859375,0.5464096069335938],"min":[2.2250738585072014e-308,2.2250738585072014e-308]},{"bufferView":2,"byteOffset":0,"componentType":5125,"count":4284,"type":"SCALAR","max":[887],"min":[0]},{"bufferView":3,"byteOffset":0,"componentType":5126,"count":3738,"type":"VEC3","max":[-6.4667863845825195,2.367347240447998,4.9482421875],"min":[-8.491145133972168,2.2250738585072014e-308,2.2250738585072014e-308]},{"bufferView":4,"byteOffset":0,"componentType":5126,"count":3738,"type":"VEC2","max":[0.9895820617675781,0.5448808670043945],"min":[2.2250738585072014e-308,2.2250738585072014e-308]},{"bufferView":5,"byteOffset":0,"componentType":5125,"count":19971,"type":"SCALAR","max":[3737],"min":[0]}],"buffers":[{"byteLength":189540,"uri":"tile_0522.bin"}],"bufferViews":[{"buffer":0,"byteOffset":0,"byteLength":10656,"target":34962},{"buffer":0,"byteOffset":10656,"byteLength":7104,"target":34962},{"buffer":0,"byteOffset":17760,"byteLength":17136,"target":34963},{"buffer":0,"byteOffset":34896,"byteLength":44856,"target":34962},{"buffer":0,"byteOffset":79752,"byteLength":29904,"target":34962},{"buffer":0,"byteOffset":109656,"byteLength":79884,"target":34963}],"images":[{"uri":"../textures/tile_0522_material_0.jpg"},{"uri":"../textures/tile_0522_material_1.jpg"}],"materials":[{"name":"DefaultMaterial","pbrMetallicRoughness":{"baseColorFactor":[0.6000000238418579,0.6000000238418579,0.6000000238418579,1.0],"metallicFactor":0.0},"extensions":{"KHR_materials_specular":{"specularFactor":1.0,"specularColorFactor":[0.0,0.0,0.0]},"KHR_materials_ior":{"ior":1.0}}},{"name":"material_0_material","pbrMetallicRoughness":{"baseColorTexture":{"index":0},"metallicFactor":0.0},"extensions":{"KHR_materials_specular":{"specularFactor":1.0,"specularColorFactor":[0.0,0.0,0.0]},"KHR_materials_ior":{"ior":1.0}}},{"name":"material_1_material","pbrMetallicRoughness":{"baseColorTexture":{"index":1},"metallicFactor":0.0},"extensions":{"KHR_materials_specular":{"specularFactor":1.0,"specularColorFactor":[0.0,0.0,0.0]},"KHR_materials_ior":{"ior":1.0}}}],"meshes":[{"name":"defaultobject","primitives":[{"mode":4,"material":1,"indices":2,"attributes":{"POSITION":0,"TEXCOORD_0":1}},{"mode":4,"material":2,"indices":5,"attributes":{"POSITION":3,"TEXCOORD_0":4}}]}],"nodes":[{"name":"tile_0522.obj","children":[1]},{"name":"defaultobject","mesh":0}],"samplers":[{},{}],"scenes":[{"nodes":[0]}],"textures":[{"source":0,"sampler":0},{"source":1,"sampler":1}],"scene":0}
