{"asset":{"version":"2.0","generator":"Open Asset Import Library (assimp v6.0.0)"},"extensionsUsed":["KHR_materials_specular","KHR_materials_volume","KHR_materials_ior","FB_ngon_encoding"],"accessors":[{"bufferView":0,"byteOffset":0,"componentType":5126,"count":6559,"type":"VEC3","max":[2.8962745666503906,-1.2554802894592285,3.9749529361724854],"min":[2.2250738585072014e-308,-1.5012990236282349,2.2250738585072014e-308]},{"bufferView":1,"byteOffset":0,"componentType":5126,"count":6559,"type":"VEC2","max":[0.9948768615722656,0.6249866485595703],"min":[2.2250738585072014e-308,2.2250738585072014e-308]},{"bufferView":2,"byteOffset":0,"componentType":5125,"count":28338,"type":"SCALAR","max":[6558],"min":[0]}],"buffers":[{"byteLength":244532,"uri":"tile_0728.bin"}],"bufferViews":[{"buffer":0,"byteOffset":0,"byteLength":78708,"target":34962},{"buffer":0,"byteOffset":78708,"byteLength":52472,"target":34962},{"buffer":0,"byteOffset":131180,"byteLength":113352,"target":34963}],"images":[{"uri":"../textures/tile_0728_material_0.jpg"}],"materials":[{"name":"DefaultMaterial","pbrMetallicRoughness":{"baseColorFactor":[0.6000000238418579,0.6000000238418579,0.6000000238418579,1.0],"metallicFactor":0.0},"extensions":{"KHR_materials_specular":{"specularFactor":1.0,"specularColorFactor":[0.0,0.0,0.0]},"KHR_materials_ior":{"ior":1.0}}},{"name":"material_0_material","pbrMetallicRoughness":{"baseColorTexture":{"index":0},"metallicFactor":0.0},"extensions":{"KHR_materials_specular":{"specularFactor":1.0,"specularColorFactor":[0.0,0.0,0.0]},"KHR_materials_ior":{"ior":1.0}}},{"name":"material_1_material","pbrMetallicRoughness":{"metallicFactor":0.0},"extensions":{"KHR_materials_specular":{"specularFactor":1.0,"specularColorFactor":[0.0,0.0,0.0]},"KHR_materials_ior":{"ior":1.0}}}],"meshes":[{"name":"defaultobject","primitives":[{"mode":4,"material":1,"indices":2,"attributes":{"POSITION":0,"TEXCOORD_0":1}}]}],"nodes":[{"name":"tile_0728.obj","children":[1]},{"name":"defaultobject","mesh":0}],"samplers":[{}],"scenes":[{"nodes":[0]}],"textures":[{"source":0,"sampler":0}],"scene":0}
