{"asset":{"version":"2.0","generator":"Open Asset Import Library (assimp v6.0.0)"},"extensionsUsed":["KHR_materials_specular","KHR_materials_volume","KHR_materials_ior","FB_ngon_encoding"],"accessors":[{"bufferView":0,"byteOffset":0,"componentType":5126,"count":3673,"type":"VEC3","max":[-0.20282518863677979,-0.1088026687502861,4.031627655029297],"min":[-0.4254842698574066,-0.32932978868484497,2.2250738585072014e-308]},{"bufferView":1,"byteOffset":0,"componentType":5126,"count":3673,"type":"VEC2","max":[0.9858794212341309,0.5264911651611328],"min":[2.2250738585072014e-308,2.2250738585072014e-308]},{"bufferView":2,"byteOffset":0,"componentType":5125,"count":16536,"type":"SCALAR","max":[3672],"min":[0]},{"bufferView":3,"byteOffset":0,"componentType":5126,"count":297,"type":"VEC3","max":[-0.17094188928604126,-0.09572990983724594,3.9941961765289307],"min":[-0.42456895112991333,-0.3273090124130249,2.2250738585072014e-308]},{"bufferView":4,"byteOffset":0,"componentType":5126,"count":297,"type":"VEC2","max":[0.850224494934082,0.6367874145507812],"min":[2.2250738585072014e-308,2.2250738585072014e-308]},{"bufferView":5,"byteOffset":0,"componentType":5125,"count":1398,"type":"SCALAR","max":[296],"min":[0]}],"buffers":[{"byteLength":151136,"uri":"tile_0085.bin"}],"bufferViews":[{"buffer":0,"byteOffset":0,"byteLength":44076,"target":34962},{"buffer":0,"byteOffset":44076,"byteLength":29384,"target":34962},{"buffer":0,"byteOffset":73460,"byteLength":66144,"target":34963},{"buffer":0,"byteOffset":139604,"byteLength":3564,"target":34962},{"buffer":0,"byteOffset":143168,"byteLength":2376,"target":34962},{"buffer":0,"byteOffset":145544,"byteLength":5592,"target":34963}],"images":[{"uri":"../textures/tile_0085_material_0.jpg"},{"uri":"../textures/tile_0085_material_1.jpg"}],"materials":[{"name":"DefaultMaterial","pbrMetallicRoughness":{"baseColorFactor":[0.6000000238418579,0.6000000238418579,0.6000000238418579,1.0],"metallicFactor":0.0},"extensions":{"KHR_materials_specular":{"specularFactor":1.0,"specularColorFactor":[0.0,0.0,0.0]},"KHR_materials_ior":{"ior":1.0}}},{"name":"material_0_material","pbrMetallicRoughness":{"baseColorTexture":{"index":0},"metallicFactor":0.0},"extensions":{"KHR_materials_specular":{"specularFactor":1.0,"specularColorFactor":[0.0,0.0,0.0]},"KHR_materials_ior":{"ior":1.0}}},{"name":"material_1_material","pbrMetallicRoughness":{"baseColorTexture":{"index":1},"metallicFactor":0.0},"extensions":{"KHR_materials_specular":{"specularFactor":1.0,"specularColorFactor":[0.0,0.0,0.0]},"KHR_materials_ior":{"ior":1.0}}}],"meshes":[{"name":"defaultobject","primitives":[{"mode":4,"material":1,"indices":2,"attributes":{"POSITION":0,"TEXCOORD_0":1}},{"mode":4,"material":2,"indices":5,"attributes":{"POSITION":3,"TEXCOORD_0":4}}]}],"nodes":[{"name":"tile_0085.obj","children":[1]},{"name":"defaultobject","mesh":0}],"samplers":[{},{}],"scenes":[{"nodes":[0]}],"textures":[{"source":0,"sampler":0},{"source":1,"sampler":1}],"scene":0}
