{"asset":{"version":"2.0","generator":"Open Asset Import Library (assimp v6.0.0)"},"extensionsUsed":["KHR_materials_specular","KHR_materials_volume","KHR_materials_ior","FB_ngon_encoding"],"accessors":[{"bufferView":0,"byteOffset":0,"componentType":5126,"count":3424,"type":"VEC3","max":[1.154729962348938,-0.995954155921936,3.03585147857666],"min":[2.2250738585072014e-308,-1.2564513683319092,2.2250738585072014e-308]},{"bufferView":1,"byteOffset":0,"componentType":5126,"count":3424,"type":"VEC2","max":[0.9942989349365234,0.9280014038085938],"min":[2.2250738585072014e-308,2.2250738585072014e-308]},{"bufferView":2,"byteOffset":0,"componentType":5125,"count":14805,"type":"SCALAR","max":[3423],"min":[0]},{"bufferView":3,"byteOffset":0,"componentType":5126,"count":377,"type":"VEC3","max":[1.0327951908111572,-1.0466372966766357,2.755485773086548],"min":[2.2250738585072014e-308,-1.254279375076294,2.2250738585072014e-308]},{"bufferView":4,"byteOffset":0,"componentType":5126,"count":377,"type":"VEC2","max":[0.5899810791015625,0.49242401123046875],"min":[2.2250738585072014e-308,2.2250738585072014e-308]},{"bufferView":5,"byteOffset":0,"componentType":5125,"count":1815,"type":"SCALAR","max":[376],"min":[0]}],"buffers":[{"byteLength":142500,"uri":"tile_0625.bin"}],"bufferViews":[{"buffer":0,"byteOffset":0,"byteLength":41088,"target":34962},{"buffer":0,"byteOffset":41088,"byteLength":27392,"target":34962},{"buffer":0,"byteOffset":68480,"byteLength":59220,"target":34963},{"buffer":0,"byteOffset":127700,"byteLength":4524,"target":34962},{"buffer":0,"byteOffset":132224,"byteLength":3016,"target":34962},{"buffer":0,"byteOffset":135240,"byteLength":7260,"target":34963}],"images":[{"uri":"../textures/tile_0625_material_0.jpg"},{"uri":"../textures/tile_0625_material_1.jpg"}],"materials":[{"name":"DefaultMaterial","pbrMetallicRoughness":{"baseColorFactor":[0.6000000238418579,0.6000000238418579,0.6000000238418579,1.0],"metallicFactor":0.0},"extensions":{"KHR_materials_specular":{"specularFactor":1.0,"specularColorFactor":[0.0,0.0,0.0]},"KHR_materials_ior":{"ior":1.0}}},{"name":"material_0_material","pbrMetallicRoughness":{"baseColorTexture":{"index":0},"metallicFactor":0.0},"extensions":{"KHR_materials_specular":{"specularFactor":1.0,"specularColorFactor":[0.0,0.0,0.0]},"KHR_materials_ior":{"ior":1.0}}},{"name":"material_1_material","pbrMetallicRoughness":{"baseColorTexture":{"index":1},"metallicFactor":0.0},"extensions":{"KHR_materials_specular":{"specularFactor":1.0,"specularColorFactor":[0.0,0.0,0.0]},"KHR_materials_ior":{"ior":1.0}}}],"meshes":[{"name":"defaultobject","primitives":[{"mode":4,"material":1,"indices":2,"attributes":{"POSITION":0,"TEXCOORD_0":1}},{"mode":4,"material":2,"indices":5,"attributes":{"POSITION":3,"TEXCOORD_0":4}}]}],"nodes":[{"name":"tile_0625.obj","children":[1]},{"name":"defaultobject","mesh":0}],"samplers":[{},{}],"scenes":[{"nodes":[0]}],"textures":[{"source":0,"sampler":0},{"source":1,"sampler":1}],"scene":0}
