{"asset":{"version":"2.0","generator":"Open Asset Import Library (assimp v6.0.0)"},"extensionsUsed":["KHR_materials_specular","KHR_materials_volume","KHR_materials_ior","FB_ngon_encoding"],"accessors":[{"bufferView":0,"byteOffset":0,"componentType":5126,"count":3015,"type":"VEC3","max":[-2.4475724697113037,5.393762588500977,5.001809120178223],"min":[-2.8086941242218018,2.2250738585072014e-308,2.2250738585072014e-308]},{"bufferView":1,"byteOffset":0,"componentType":5126,"count":3015,"type":"VEC2","max":[0.983799934387207,0.5108413696289062],"min":[2.2250738585072014e-308,2.2250738585072014e-308]},{"bufferView":2,"byteOffset":0,"componentType":5125,"count":13107,"type":"SCALAR","max":[3014],"min":[0]},{"bufferView":3,"byteOffset":0,"componentType":5126,"count":2076,"type":"VEC3","max":[-2.466148853302002,5.394460678100586,4.997908115386963],"min":[-2.8130388259887695,2.2250738585072014e-308,2.2250738585072014e-308]},{"bufferView":4,"byteOffset":0,"componentType":5126,"count":2076,"type":"VEC2","max":[0.6206016540527344,0.6757717132568359],"min":[2.2250738585072014e-308,2.2250738585072014e-308]},{"bufferView":5,"byteOffset":0,"componentType":5125,"count":10890,"type":"SCALAR","max":[2075],"min":[0]}],"buffers":[{"byteLength":197808,"uri":"tile_0527.bin"}],"bufferViews":[{"buffer":0,"byteOffset":0,"byteLength":36180,"target":34962},{"buffer":0,"byteOffset":36180,"byteLength":24120,"target":34962},{"buffer":0,"byteOffset":60300,"byteLength":52428,"target":34963},{"buffer":0,"byteOffset":112728,"byteLength":24912,"target":34962},{"buffer":0,"byteOffset":137640,"byteLength":16608,"target":34962},{"buffer":0,"byteOffset":154248,"byteLength":43560,"target":34963}],"images":[{"uri":"../textures/tile_0527_material_0.jpg"},{"uri":"../textures/tile_0527_material_1.jpg"}],"materials":[{"name":"DefaultMaterial","pbrMetallicRoughness":{"baseColorFactor":[0.6000000238418579,0.6000000238418579,0.6000000238418579,1.0],"metallicFactor":0.0},"extensions":{"KHR_materials_specular":{"specularFactor":1.0,"specularColorFactor":[0.0,0.0,0.0]},"KHR_materials_ior":{"ior":1.0}}},{"name":"material_0_material","pbrMetallicRoughness":{"baseColorTexture":{"index":0},"metallicFactor":0.0},"extensions":{"KHR_materials_specular":{"specularFactor":1.0,"specularColorFactor":[0.0,0.0,0.0]},"KHR_materials_ior":{"ior":1.0}}},{"name":"material_1_material","pbrMetallicRoughness":{"baseColorTexture":{"index":1},"metallicFactor":0.0},"extensions":{"KHR_materials_specular":{"specularFactor":1.0,"specularColorFactor":[0.0,0.0,0.0]},"KHR_materials_ior":{"ior":1.0}}}],"meshes":[{"name":"defaultobject","primitives":[{"mode":4,"material":1,"indices":2,"attributes":{"POSITION":0,"TEXCOORD_0":1}},{"mode":4,"material":2,"indices":5,"attributes":{"POSITION":3,"TEXCOORD_0":4}}]}],"nodes":[{"name":"tile_0527.obj","children":[1]},{"name":"defaultobject","mesh":0}],"samplers":[{},{}],"scenes":[{"nodes":[0]}],"textures":[{"source":0,"sampler":0},{"source":1,"sampler":1}],"scene":0}
