{"asset":{"version":"2.0","generator":"Open Asset Import Library (assimp v6.0.0)"},"extensionsUsed":["KHR_materials_specular","KHR_materials_volume","KHR_materials_ior","FB_ngon_encoding"],"accessors":[{"bufferView":0,"byteOffset":0,"componentType":5126,"count":6580,"type":"VEC3","max":[-0.04713789001107216,-2.698150157928467,2.5633325576782227],"min":[-0.2311309427022934,-3.024021863937378,2.2250738585072014e-308]},{"bufferView":1,"byteOffset":0,"componentType":5126,"count":6580,"type":"VEC2","max":[0.9921567440032959,0.6442413330078125],"min":[2.2250738585072014e-308,2.2250738585072014e-308]},{"bufferView":2,"byteOffset":0,"componentType":5125,"count":28770,"type":"SCALAR","max":[6579],"min":[0]},{"bufferView":3,"byteOffset":0,"componentType":5126,"count":33,"type":"VEC3","max":[-0.21759605407714844,-2.702781915664673,2.370070457458496],"min":[-0.23094408214092255,-2.7418007850646973,2.2250738585072014e-308]},{"bufferView":4,"byteOffset":0,"componentType":5126,"count":33,"type":"VEC2","max":[0.7908021211624146,0.542999267578125],"min":[2.2250738585072014e-308,2.2250738585072014e-308]},{"bufferView":5,"byteOffset":0,"componentType":5125,"count":129,"type":"SCALAR","max":[32],"min":[0]}],"buffers":[{"byteLength":247856,"uri":"tile_0034.bin"}],"bufferViews":[{"buffer":0,"byteOffset":0,"byteLength":78960,"target":34962},{"buffer":0,"byteOffset":78960,"byteLength":52640,"target":34962},{"buffer":0,"byteOffset":131600,"byteLength":115080,"target":34963},{"buffer":0,"byteOffset":246680,"byteLength":396,"target":34962},{"buffer":0,"byteOffset":247076,"byteLength":264,"target":34962},{"buffer":0,"byteOffset":247340,"byteLength":516,"target":34963}],"images":[{"uri":"../textures/tile_0034_material_0.jpg"},{"uri":"../textures/tile_0034_material_1.jpg"}],"materials":[{"name":"DefaultMaterial","pbrMetallicRoughness":{"baseColorFactor":[0.6000000238418579,0.6000000238418579,0.6000000238418579,1.0],"metallicFactor":0.0},"extensions":{"KHR_materials_specular":{"specularFactor":1.0,"specularColorFactor":[0.0,0.0,0.0]},"KHR_materials_ior":{"ior":1.0}}},{"name":"material_0_material","pbrMetallicRoughness":{"baseColorTexture":{"index":0},"metallicFactor":0.0},"extensions":{"KHR_materials_specular":{"specularFactor":1.0,"specularColorFactor":[0.0,0.0,0.0]},"KHR_materials_ior":{"ior":1.0}}},{"name":"material_1_material","pbrMetallicRoughness":{"baseColorTexture":{"index":1},"metallicFactor":0.0},"extensions":{"KHR_materials_specular":{"specularFactor":1.0,"specularColorFactor":[0.0,0.0,0.0]},"KHR_materials_ior":{"ior":1.0}}}],"meshes":[{"name":"defaultobject","primitives":[{"mode":4,"material":1,"indices":2,"attributes":{"POSITION":0,"TEXCOORD_0":1}},{"mode":4,"material":2,"indices":5,"attributes":{"POSITION":3,"TEXCOORD_0":4}}]}],"nodes":[{"name":"tile_0034.obj","children":[1]},{"name":"defaultobject","mesh":0}],"samplers":[{},{}],"scenes":[{"nodes":[0]}],"textures":[{"source":0,"sampler":0},{"source":1,"sampler":1}],"scene":0}
