{"asset":{"version":"2.0","generator":"Open Asset Import Library (assimp v6.0.0)"},"extensionsUsed":["KHR_materials_specular","KHR_materials_volume","KHR_materials_ior","FB_ngon_encoding"],"accessors":[{"bufferView":0,"byteOffset":0,"componentType":5126,"count":3253,"type":"VEC3","max":[-0.743918240070343,2.477431058883667,4.469985485076904],"min":[-1.1360751390457153,2.2250738585072014e-308,2.2250738585072014e-308]},{"bufferView":1,"byteOffset":0,"componentType":5126,"count":3253,"type":"VEC2","max":[0.9895998239517212,0.5483150482177734],"min":[2.2250738585072014e-308,2.2250738585072014e-308]},{"bufferView":2,"byteOffset":0,"componentType":5125,"count":13920,"type":"SCALAR","max":[3252],"min":[0]},{"bufferView":3,"byteOffset":0,"componentType":5126,"count":1006,"type":"VEC3","max":[-0.7341282367706299,2.477431058883667,4.473798751831055],"min":[-1.1736500263214111,2.2250738585072014e-308,2.2250738585072014e-308]},{"bufferView":4,"byteOffset":0,"componentType":5126,"count":1006,"type":"VEC2","max":[0.6454043388366699,0.6649360656738281],"min":[2.2250738585072014e-308,2.2250738585072014e-308]},{"bufferView":5,"byteOffset":0,"componentType":5125,"count":5022,"type":"SCALAR","max":[1005],"min":[0]}],"buffers":[{"byteLength":160948,"uri":"tile_0600.bin"}],"bufferViews":[{"buffer":0,"byteOffset":0,"byteLength":39036,"target":34962},{"buffer":0,"byteOffset":39036,"byteLength":26024,"target":34962},{"buffer":0,"byteOffset":65060,"byteLength":55680,"target":34963},{"buffer":0,"byteOffset":120740,"byteLength":12072,"target":34962},{"buffer":0,"byteOffset":132812,"byteLength":8048,"target":34962},{"buffer":0,"byteOffset":140860,"byteLength":20088,"target":34963}],"images":[{"uri":"../textures/tile_0600_material_0.jpg"},{"uri":"../textures/tile_0600_material_1.jpg"}],"materials":[{"name":"DefaultMaterial","pbrMetallicRoughness":{"baseColorFactor":[0.6000000238418579,0.6000000238418579,0.6000000238418579,1.0],"metallicFactor":0.0},"extensions":{"KHR_materials_specular":{"specularFactor":1.0,"specularColorFactor":[0.0,0.0,0.0]},"KHR_materials_ior":{"ior":1.0}}},{"name":"material_0_material","pbrMetallicRoughness":{"baseColorTexture":{"index":0},"metallicFactor":0.0},"extensions":{"KHR_materials_specular":{"specularFactor":1.0,"specularColorFactor":[0.0,0.0,0.0]},"KHR_materials_ior":{"ior":1.0}}},{"name":"material_1_material","pbrMetallicRoughness":{"baseColorTexture":{"index":1},"metallicFactor":0.0},"extensions":{"KHR_materials_specular":{"specularFactor":1.0,"specularColorFactor":[0.0,0.0,0.0]},"KHR_materials_ior":{"ior":1.0}}}],"meshes":[{"name":"defaultobject","primitives":[{"mode":4,"material":1,"indices":2,"attributes":{"POSITION":0,"TEXCOORD_0":1}},{"mode":4,"material":2,"indices":5,"attributes":{"POSITION":3,"TEXCOORD_0":4}}]}],"nodes":[{"name":"tile_0600.obj","children":[1]},{"name":"defaultobject","mesh":0}],"samplers":[{},{}],"scenes":[{"nodes":[0]}],"textures":[{"source":0,"sampler":0},{"source":1,"sampler":1}],"scene":0}
