{"asset":{"version":"2.0","generator":"Open Asset Import Library (assimp v6.0.0)"},"extensionsUsed":["KHR_materials_specular","KHR_materials_volume","KHR_materials_ior","FB_ngon_encoding"],"accessors":[{"bufferView":0,"byteOffset":0,"componentType":5126,"count":3486,"type":"VEC3","max":[-2.101127862930298,-0.36084678769111633,4.098186016082764],"min":[-2.4151790142059326,-0.5298158526420593,2.2250738585072014e-308]},{"bufferView":1,"byteOffset":0,"componentType":5126,"count":3486,"type":"VEC2","max":[0.9892086982727051,0.9435005187988281],"min":[2.2250738585072014e-308,2.2250738585072014e-308]},{"bufferView":2,"byteOffset":0,"componentType":5125,"count":15948,"type":"SCALAR","max":[3485],"min":[0]},{"bufferView":3,"byteOffset":0,"componentType":5126,"count":2111,"type":"VEC3","max":[-2.093661308288574,-0.3623509407043457,2.9116621017456055],"min":[-2.4142189025878906,-0.5298652648925781,2.2250738585072014e-308]},{"bufferView":4,"byteOffset":0,"componentType":5126,"count":2111,"type":"VEC2","max":[0.4966905117034912,0.5490379333496094],"min":[2.2250738585072014e-308,2.2250738585072014e-308]},{"bufferView":5,"byteOffset":0,"componentType":5125,"count":10947,"type":"SCALAR","max":[2110],"min":[0]}],"buffers":[{"byteLength":219520,"uri":"tile_0094.bin"}],"bufferViews":[{"buffer":0,"byteOffset":0,"byteLength":41832,"target":34962},{"buffer":0,"byteOffset":41832,"byteLength":27888,"target":34962},{"buffer":0,"byteOffset":69720,"byteLength":63792,"target":34963},{"buffer":0,"byteOffset":133512,"byteLength":25332,"target":34962},{"buffer":0,"byteOffset":158844,"byteLength":16888,"target":34962},{"buffer":0,"byteOffset":175732,"byteLength":43788,"target":34963}],"images":[{"uri":"../textures/tile_0094_material_0.jpg"},{"uri":"../textures/tile_0094_material_1.jpg"}],"materials":[{"name":"DefaultMaterial","pbrMetallicRoughness":{"baseColorFactor":[0.6000000238418579,0.6000000238418579,0.6000000238418579,1.0],"metallicFactor":0.0},"extensions":{"KHR_materials_specular":{"specularFactor":1.0,"specularColorFactor":[0.0,0.0,0.0]},"KHR_materials_ior":{"ior":1.0}}},{"name":"material_0_material","pbrMetallicRoughness":{"baseColorTexture":{"index":0},"metallicFactor":0.0},"extensions":{"KHR_materials_specular":{"specularFactor":1.0,"specularColorFactor":[0.0,0.0,0.0]},"KHR_materials_ior":{"ior":1.0}}},{"name":"material_1_material","pbrMetallicRoughness":{"baseColorTexture":{"index":1},"metallicFactor":0.0},"extensions":{"KHR_materials_specular":{"specularFactor":1.0,"specularColorFactor":[0.0,0.0,0.0]},"KHR_materials_ior":{"ior":1.0}}}],"meshes":[{"name":"defaultobject","primitives":[{"mode":4,"material":1,"indices":2,"attributes":{"POSITION":0,"TEXCOORD_0":1}},{"mode":4,"material":2,"indices":5,"attributes":{"POSITION":3,"TEXCOORD_0":4}}]}],"nodes":[{"name":"tile_0094.obj","children":[1]},{"name":"defaultobject","mesh":0}],"samplers":[{},{}],"scenes":[{"nodes":[0]}],"textures":[{"source":0,"sampler":0},{"source":1,"sampler":1}],"scene":0}
