{"asset":{"version":"2.0","generator":"Open Asset Import Library (assimp v6.0.0)"},"extensionsUsed":["KHR_materials_specular","KHR_materials_volume","KHR_materials_ior","FB_ngon_encoding"],"accessors":[{"bufferView":0,"byteOffset":0,"componentType":5126,"count":3972,"type":"VEC3","max":[0.7056695818901062,-1.9393162727355957,2.8333499431610107],"min":[2.2250738585072014e-308,-2.18135929107666,2.2250738585072014e-308]},{"bufferView":1,"byteOffset":0,"componentType":5126,"count":3972,"type":"VEC2","max":[0.9857583045959473,0.8455696105957031],"min":[2.2250738585072014e-308,2.2250738585072014e-308]},{"bufferView":2,"byteOffset":0,"componentType":5125,"count":17940,"type":"SCALAR","max":[3971],"min":[0]},{"bufferView":3,"byteOffset":0,"componentType":5126,"count":613,"type":"VEC3","max":[0.7058795690536499,-1.9370360374450684,2.8413705825805664],"min":[2.2250738585072014e-308,-2.181560754776001,2.2250738585072014e-308]},{"bufferView":4,"byteOffset":0,"componentType":5126,"count":613,"type":"VEC2","max":[0.5524778366088867,0.7203254699707031],"min":[2.2250738585072014e-308,2.2250738585072014e-308]},{"bufferView":5,"byteOffset":0,"componentType":5125,"count":2904,"type":"SCALAR","max":[612],"min":[0]}],"buffers":[{"byteLength":175076,"uri":"tile_0807.bin"}],"bufferViews":[{"buffer":0,"byteOffset":0,"byteLength":47664,"target":34962},{"buffer":0,"byteOffset":47664,"byteLength":31776,"target":34962},{"buffer":0,"byteOffset":79440,"byteLength":71760,"target":34963},{"buffer":0,"byteOffset":151200,"byteLength":7356,"target":34962},{"buffer":0,"byteOffset":158556,"byteLength":4904,"target":34962},{"buffer":0,"byteOffset":163460,"byteLength":11616,"target":34963}],"images":[{"uri":"../textures/tile_0807_material_0.jpg"},{"uri":"../textures/tile_0807_material_1.jpg"}],"materials":[{"name":"DefaultMaterial","pbrMetallicRoughness":{"baseColorFactor":[0.6000000238418579,0.6000000238418579,0.6000000238418579,1.0],"metallicFactor":0.0},"extensions":{"KHR_materials_specular":{"specularFactor":1.0,"specularColorFactor":[0.0,0.0,0.0]},"KHR_materials_ior":{"ior":1.0}}},{"name":"material_0_material","pbrMetallicRoughness":{"baseColorTexture":{"index":0},"metallicFactor":0.0},"extensions":{"KHR_materials_specular":{"specularFactor":1.0,"specularColorFactor":[0.0,0.0,0.0]},"KHR_materials_ior":{"ior":1.0}}},{"name":"material_1_material","pbrMetallicRoughness":{"baseColorTexture":{"index":1},"metallicFactor":0.0},"extensions":{"KHR_materials_specular":{"specularFactor":1.0,"specularColorFactor":[0.0,0.0,0.0]},"KHR_materials_ior":{"ior":1.0}}}],"meshes":[{"name":"defaultobject","primitives":[{"mode":4,"material":1,"indices":2,"attributes":{"POSITION":0,"TEXCOORD_0":1}},{"mode":4,"material":2,"indices":5,"attributes":{"POSITION":3,"TEXCOORD_0":4}}]}],"nodes":[{"name":"tile_0807.obj","children":[1]},{"name":"defaultobject","mesh":0}],"samplers":[{},{}],"scenes":[{"nodes":[0]}],"textures":[{"source":0,"sampler":0},{"source":1,"sampler":1}],"scene":0}
