{"asset":{"version":"2.0","generator":"Open Asset Import Library (assimp v6.0.0)"},"extensionsUsed":["KHR_materials_specular","KHR_materials_volume","KHR_materials_ior","FB_ngon_encoding"],"accessors":[{"bufferView":0,"byteOffset":0,"componentType":5126,"count":3977,"type":"VEC3","max":[3.42020320892334,-2.8868279457092285,3.832000732421875],"min":[2.2250738585072014e-308,-3.0986759662628174,2.2250738585072014e-308]},{"bufferView":1,"byteOffset":0,"componentType":5126,"count":3977,"type":"VEC2","max":[0.9908533096313477,0.9201736450195312],"min":[2.2250738585072014e-308,2.2250738585072014e-308]},{"bufferView":2,"byteOffset":0,"componentType":5125,"count":17394,"type":"SCALAR","max":[3976],"min":[0]},{"bufferView":3,"byteOffset":0,"componentType":5126,"count":623,"type":"VEC3","max":[3.42020320892334,-2.891848564147949,3.699251413345337],"min":[2.2250738585072014e-308,-3.097947120666504,2.2250738585072014e-308]},{"bufferView":4,"byteOffset":0,"componentType":5126,"count":623,"type":"VEC2","max":[0.7434520721435547,0.7947959899902344],"min":[2.2250738585072014e-308,2.2250738585072014e-308]},{"bufferView":5,"byteOffset":0,"componentType":5125,"count":3180,"type":"SCALAR","max":[622],"min":[0]}],"buffers":[{"byteLength":174296,"uri":"tile_0252.bin"}],"bufferViews":[{"buffer":0,"byteOffset":0,"byteLength":47724,"target":34962},{"buffer":0,"byteOffset":47724,"byteLength":31816,"target":34962},{"buffer":0,"byteOffset":79540,"byteLength":69576,"target":34963},{"buffer":0,"byteOffset":149116,"byteLength":7476,"target":34962},{"buffer":0,"byteOffset":156592,"byteLength":4984,"target":34962},{"buffer":0,"byteOffset":161576,"byteLength":12720,"target":34963}],"images":[{"uri":"../textures/tile_0252_material_0.jpg"},{"uri":"../textures/tile_0252_material_1.jpg"}],"materials":[{"name":"DefaultMaterial","pbrMetallicRoughness":{"baseColorFactor":[0.6000000238418579,0.6000000238418579,0.6000000238418579,1.0],"metallicFactor":0.0},"extensions":{"KHR_materials_specular":{"specularFactor":1.0,"specularColorFactor":[0.0,0.0,0.0]},"KHR_materials_ior":{"ior":1.0}}},{"name":"material_0_material","pbrMetallicRoughness":{"baseColorTexture":{"index":0},"metallicFactor":0.0},"extensions":{"KHR_materials_specular":{"specularFactor":1.0,"specularColorFactor":[0.0,0.0,0.0]},"KHR_materials_ior":{"ior":1.0}}},{"name":"material_1_material","pbrMetallicRoughness":{"baseColorTexture":{"index":1},"metallicFactor":0.0},"extensions":{"KHR_materials_specular":{"specularFactor":1.0,"specularColorFactor":[0.0,0.0,0.0]},"KHR_materials_ior":{"ior":1.0}}}],"meshes":[{"name":"defaultobject","primitives":[{"mode":4,"material":1,"indices":2,"attributes":{"POSITION":0,"TEXCOORD_0":1}},{"mode":4,"material":2,"indices":5,"attributes":{"POSITION":3,"TEXCOORD_0":4}}]}],"nodes":[{"name":"tile_0252.obj","children":[1]},{"name":"defaultobject","mesh":0}],"samplers":[{},{}],"scenes":[{"nodes":[0]}],"textures":[{"source":0,"sampler":0},{"source":1,"sampler":1}],"scene":0}
