{"asset":{"version":"2.0","generator":"Open Asset Import Library (assimp v6.0.0)"},"extensionsUsed":["KHR_materials_specular","KHR_materials_volume","KHR_materials_ior","FB_ngon_encoding"],"accessors":[{"bufferView":0,"byteOffset":0,"componentType":5126,"count":5243,"type":"VEC3","max":[-3.5471980571746826,-1.1688032150268555,3.8576340675354004],"min":[-4.157083511352539,-1.4563616514205933,2.2250738585072014e-308]},{"bufferView":1,"byteOffset":0,"componentType":5126,"count":5243,"type":"VEC2","max":[0.989481508731842,0.6167793273925781],"min":[2.2250738585072014e-308,2.2250738585072014e-308]},{"bufferView":2,"byteOffset":0,"componentType":5125,"count":24585,"type":"SCALAR","max":[5242],"min":[0]},{"bufferView":3,"byteOffset":0,"componentType":5126,"count":1571,"type":"VEC3","max":[-3.558940887451172,-1.1731246709823608,3.8372514247894287],"min":[-4.156949043273926,-1.4547969102859497,2.2250738585072014e-308]},{"bufferView":4,"byteOffset":0,"componentType":5126,"count":1571,"type":"VEC2","max":[0.5126338005065918,0.8665199279785156],"min":[2.2250738585072014e-308,2.2250738585072014e-308]},{"bufferView":5,"byteOffset":0,"componentType":5125,"count":7878,"type":"SCALAR","max":[1570],"min":[0]}],"buffers":[{"byteLength":266132,"uri":"tile_0419.bin"}],"bufferViews":[{"buffer":0,"byteOffset":0,"byteLength":62916,"target":34962},{"buffer":0,"byteOffset":62916,"byteLength":41944,"target":34962},{"buffer":0,"byteOffset":104860,"byteLength":98340,"target":34963},{"buffer":0,"byteOffset":203200,"byteLength":18852,"target":34962},{"buffer":0,"byteOffset":222052,"byteLength":12568,"target":34962},{"buffer":0,"byteOffset":234620,"byteLength":31512,"target":34963}],"images":[{"uri":"../textures/tile_0419_material_0.jpg"},{"uri":"../textures/tile_0419_material_1.jpg"}],"materials":[{"name":"DefaultMaterial","pbrMetallicRoughness":{"baseColorFactor":[0.6000000238418579,0.6000000238418579,0.6000000238418579,1.0],"metallicFactor":0.0},"extensions":{"KHR_materials_specular":{"specularFactor":1.0,"specularColorFactor":[0.0,0.0,0.0]},"KHR_materials_ior":{"ior":1.0}}},{"name":"material_0_material","pbrMetallicRoughness":{"baseColorTexture":{"index":0},"metallicFactor":0.0},"extensions":{"KHR_materials_specular":{"specularFactor":1.0,"specularColorFactor":[0.0,0.0,0.0]},"KHR_materials_ior":{"ior":1.0}}},{"name":"material_1_material","pbrMetallicRoughness":{"baseColorTexture":{"index":1},"metallicFactor":0.0},"extensions":{"KHR_materials_specular":{"specularFactor":1.0,"specularColorFactor":[0.0,0.0,0.0]},"KHR_materials_ior":{"ior":1.0}}}],"meshes":[{"name":"defaultobject","primitives":[{"mode":4,"material":1,"indices":2,"attributes":{"POSITION":0,"TEXCOORD_0":1}},{"mode":4,"material":2,"indices":5,"attributes":{"POSITION":3,"TEXCOORD_0":4}}]}],"nodes":[{"name":"tile_0419.obj","children":[1]},{"name":"defaultobject","mesh":0}],"samplers":[{},{}],"scenes":[{"nodes":[0]}],"textures":[{"source":0,"sampler":0},{"source":1,"sampler":1}],"scene":0}
