{"asset":{"version":"2.0","generator":"Open Asset Import Library (assimp v6.0.0)"},"extensionsUsed":["KHR_materials_specular","KHR_materials_volume","KHR_materials_ior","FB_ngon_encoding"],"accessors":[{"bufferView":0,"byteOffset":0,"componentType":5126,"count":9409,"type":"VEC3","max":[-1.400464415550232,-2.2723124027252197,2.2950856685638428],"min":[-1.7738568782806396,-2.7613134384155273,2.2250738585072014e-308]},{"bufferView":1,"byteOffset":0,"componentType":5126,"count":9409,"type":"VEC2","max":[0.9917960166931152,0.9388236999511719],"min":[2.2250738585072014e-308,2.2250738585072014e-308]},{"bufferView":2,"byteOffset":0,"componentType":5125,"count":44010,"type":"SCALAR","max":[9408],"min":[0]},{"bufferView":3,"byteOffset":0,"componentType":5126,"count":5008,"type":"VEC3","max":[-1.4004555940628052,-2.270714282989502,2.3048911094665527],"min":[-1.7731540203094482,-2.7609074115753174,2.2250738585072014e-308]},{"bufferView":4,"byteOffset":0,"componentType":5126,"count":5008,"type":"VEC2","max":[0.9630184173583984,0.7219085693359375],"min":[2.2250738585072014e-308,2.2250738585072014e-308]},{"bufferView":5,"byteOffset":0,"componentType":5125,"count":26553,"type":"SCALAR","max":[5007],"min":[0]}],"buffers":[{"byteLength":570592,"uri":"tile_0013.bin"}],"bufferViews":[{"buffer":0,"byteOffset":0,"byteLength":112908,"target":34962},{"buffer":0,"byteOffset":112908,"byteLength":75272,"target":34962},{"buffer":0,"byteOffset":188180,"byteLength":176040,"target":34963},{"buffer":0,"byteOffset":364220,"byteLength":60096,"target":34962},{"buffer":0,"byteOffset":424316,"byteLength":40064,"target":34962},{"buffer":0,"byteOffset":464380,"byteLength":106212,"target":34963}],"images":[{"uri":"../textures/tile_0013_material_0.jpg"},{"uri":"../textures/tile_0013_material_1.jpg"}],"materials":[{"name":"DefaultMaterial","pbrMetallicRoughness":{"baseColorFactor":[0.6000000238418579,0.6000000238418579,0.6000000238418579,1.0],"metallicFactor":0.0},"extensions":{"KHR_materials_specular":{"specularFactor":1.0,"specularColorFactor":[0.0,0.0,0.0]},"KHR_materials_ior":{"ior":1.0}}},{"name":"material_0_material","pbrMetallicRoughness":{"baseColorTexture":{"index":0},"metallicFactor":0.0},"extensions":{"KHR_materials_specular":{"specularFactor":1.0,"specularColorFactor":[0.0,0.0,0.0]},"KHR_materials_ior":{"ior":1.0}}},{"name":"material_1_material","pbrMetallicRoughness":{"baseColorTexture":{"index":1},"metallicFactor":0.0},"extensions":{"KHR_materials_specular":{"specularFactor":1.0,"specularColorFactor":[0.0,0.0,0.0]},"KHR_materials_ior":{"ior":1.0}}}],"meshes":[{"name":"defaultobject","primitives":[{"mode":4,"material":1,"indices":2,"attributes":{"POSITION":0,"TEXCOORD_0":1}},{"mode":4,"material":2,"indices":5,"attributes":{"POSITION":3,"TEXCOORD_0":4}}]}],"nodes":[{"name":"tile_0013.obj","children":[1]},{"name":"defaultobject","mesh":0}],"samplers":[{},{}],"scenes":[{"nodes":[0]}],"textures":[{"source":0,"sampler":0},{"source":1,"sampler":1}],"scene":0}
