{"asset":{"version":"2.0","generator":"Open Asset Import Library (assimp v6.0.0)"},"extensionsUsed":["KHR_materials_specular","KHR_materials_volume","KHR_materials_ior","FB_ngon_encoding"],"accessors":[{"bufferView":0,"byteOffset":0,"componentType":5126,"count":2379,"type":"VEC3","max":[-2.6845221519470215,-1.9405657052993774,2.6189372539520264],"min":[-3.0064077377319336,-2.1941559314727783,2.2250738585072014e-308]},{"bufferView":1,"byteOffset":0,"componentType":5126,"count":2379,"type":"VEC2","max":[0.9921026229858398,0.7891693115234375],"min":[2.2250738585072014e-308,2.2250738585072014e-308]},{"bufferView":2,"byteOffset":0,"componentType":5125,"count":11010,"type":"SCALAR","max":[2378],"min":[0]},{"bufferView":3,"byteOffset":0,"componentType":5126,"count":3587,"type":"VEC3","max":[-2.6791958808898926,-1.941642165184021,2.630992889404297],"min":[-2.9867568016052246,-2.194977045059204,2.2250738585072014e-308]},{"bufferView":4,"byteOffset":0,"componentType":5126,"count":3587,"type":"VEC2","max":[0.9311881065368652,0.5746841430664062],"min":[2.2250738585072014e-308,2.2250738585072014e-308]},{"bufferView":5,"byteOffset":0,"componentType":5125,"count":18930,"type":"SCALAR","max":[3586],"min":[0]}],"buffers":[{"byteLength":239080,"uri":"tile_0375.bin"}],"bufferViews":[{"buffer":0,"byteOffset":0,"byteLength":28548,"target":34962},{"buffer":0,"byteOffset":28548,"byteLength":19032,"target":34962},{"buffer":0,"byteOffset":47580,"byteLength":44040,"target":34963},{"buffer":0,"byteOffset":91620,"byteLength":43044,"target":34962},{"buffer":0,"byteOffset":134664,"byteLength":28696,"target":34962},{"buffer":0,"byteOffset":163360,"byteLength":75720,"target":34963}],"images":[{"uri":"../textures/tile_0375_material_0.jpg"},{"uri":"../textures/tile_0375_material_1.jpg"}],"materials":[{"name":"DefaultMaterial","pbrMetallicRoughness":{"baseColorFactor":[0.6000000238418579,0.6000000238418579,0.6000000238418579,1.0],"metallicFactor":0.0},"extensions":{"KHR_materials_specular":{"specularFactor":1.0,"specularColorFactor":[0.0,0.0,0.0]},"KHR_materials_ior":{"ior":1.0}}},{"name":"material_0_material","pbrMetallicRoughness":{"baseColorTexture":{"index":0},"metallicFactor":0.0},"extensions":{"KHR_materials_specular":{"specularFactor":1.0,"specularColorFactor":[0.0,0.0,0.0]},"KHR_materials_ior":{"ior":1.0}}},{"name":"material_1_material","pbrMetallicRoughness":{"baseColorTexture":{"index":1},"metallicFactor":0.0},"extensions":{"KHR_materials_specular":{"specularFactor":1.0,"specularColorFactor":[0.0,0.0,0.0]},"KHR_materials_ior":{"ior":1.0}}}],"meshes":[{"name":"defaultobject","primitives":[{"mode":4,"material":1,"indices":2,"attributes":{"POSITION":0,"TEXCOORD_0":1}},{"mode":4,"material":2,"indices":5,"attributes":{"POSITION":3,"TEXCOORD_0":4}}]}],"nodes":[{"name":"tile_0375.obj","children":[1]},{"name":"defaultobject","mesh":0}],"samplers":[{},{}],"scenes":[{"nodes":[0]}],"textures":[{"source":0,"sampler":0},{"source":1,"sampler":1}],"scene":0}
