{"asset":{"version":"2.0","generator":"Open Asset Import Library (assimp v6.0.0)"},"extensionsUsed":["KHR_materials_specular","KHR_materials_volume","KHR_materials_ior","FB_ngon_encoding"],"accessors":[{"bufferView":0,"byteOffset":0,"componentType":5126,"count":2940,"type":"VEC3","max":[-3.122532606124878,4.539770603179932,4.785250186920166],"min":[-3.469758987426758,2.2250738585072014e-308,2.2250738585072014e-308]},{"bufferView":1,"byteOffset":0,"componentType":5126,"count":2940,"type":"VEC2","max":[0.9949798583984375,0.9287109375],"min":[2.2250738585072014e-308,2.2250738585072014e-308]},{"bufferView":2,"byteOffset":0,"componentType":5125,"count":13458,"type":"SCALAR","max":[2939],"min":[0]},{"bufferView":3,"byteOffset":0,"componentType":5126,"count":2930,"type":"VEC3","max":[-3.1217947006225586,4.5399651527404785,4.7936272621154785],"min":[-3.471362590789795,2.2250738585072014e-308,2.2250738585072014e-308]},{"bufferView":4,"byteOffset":0,"componentType":5126,"count":2930,"type":"VEC2","max":[0.6166930198669434,0.5343513488769531],"min":[2.2250738585072014e-308,2.2250738585072014e-308]},{"bufferView":5,"byteOffset":0,"componentType":5125,"count":15486,"type":"SCALAR","max":[2929],"min":[0]}],"buffers":[{"byteLength":233176,"uri":"tile_0515.bin"}],"bufferViews":[{"buffer":0,"byteOffset":0,"byteLength":35280,"target":34962},{"buffer":0,"byteOffset":35280,"byteLength":23520,"target":34962},{"buffer":0,"byteOffset":58800,"byteLength":53832,"target":34963},{"buffer":0,"byteOffset":112632,"byteLength":35160,"target":34962},{"buffer":0,"byteOffset":147792,"byteLength":23440,"target":34962},{"buffer":0,"byteOffset":171232,"byteLength":61944,"target":34963}],"images":[{"uri":"../textures/tile_0515_material_0.jpg"},{"uri":"../textures/tile_0515_material_1.jpg"}],"materials":[{"name":"DefaultMaterial","pbrMetallicRoughness":{"baseColorFactor":[0.6000000238418579,0.6000000238418579,0.6000000238418579,1.0],"metallicFactor":0.0},"extensions":{"KHR_materials_specular":{"specularFactor":1.0,"specularColorFactor":[0.0,0.0,0.0]},"KHR_materials_ior":{"ior":1.0}}},{"name":"material_0_material","pbrMetallicRoughness":{"baseColorTexture":{"index":0},"metallicFactor":0.0},"extensions":{"KHR_materials_specular":{"specularFactor":1.0,"specularColorFactor":[0.0,0.0,0.0]},"KHR_materials_ior":{"ior":1.0}}},{"name":"material_1_material","pbrMetallicRoughness":{"baseColorTexture":{"index":1},"metallicFactor":0.0},"extensions":{"KHR_materials_specular":{"specularFactor":1.0,"specularColorFactor":[0.0,0.0,0.0]},"KHR_materials_ior":{"ior":1.0}}}],"meshes":[{"name":"defaultobject","primitives":[{"mode":4,"material":1,"indices":2,"attributes":{"POSITION":0,"TEXCOORD_0":1}},{"mode":4,"material":2,"indices":5,"attributes":{"POSITION":3,"TEXCOORD_0":4}}]}],"nodes":[{"name":"tile_0515.obj","children":[1]},{"name":"defaultobject","mesh":0}],"samplers":[{},{}],"scenes":[{"nodes":[0]}],"textures":[{"source":0,"sampler":0},{"source":1,"sampler":1}],"scene":0}
