{"asset":{"version":"2.0","generator":"Open Asset Import Library (assimp v6.0.0)"},"extensionsUsed":["KHR_materials_specular","KHR_materials_volume","KHR_materials_ior","FB_ngon_encoding"],"accessors":[{"bufferView":0,"byteOffset":0,"componentType":5126,"count":10891,"type":"VEC3","max":[1.3926644325256348,8.457505226135254,5.057542324066162],"min":[2.2250738585072014e-308,2.2250738585072014e-308,2.2250738585072014e-308]},{"bufferView":1,"byteOffset":0,"componentType":5126,"count":10891,"type":"VEC2","max":[0.9943795204162598,0.7869033813476562],"min":[2.2250738585072014e-308,2.2250738585072014e-308]},{"bufferView":2,"byteOffset":0,"componentType":5125,"count":49470,"type":"SCALAR","max":[10890],"min":[0]},{"bufferView":3,"byteOffset":0,"componentType":5126,"count":4367,"type":"VEC3","max":[1.4203518629074097,8.462791442871094,5.059097766876221],"min":[2.2250738585072014e-308,2.2250738585072014e-308,2.2250738585072014e-308]},{"bufferView":4,"byteOffset":0,"componentType":5126,"count":4367,"type":"VEC2","max":[0.9520745277404785,0.7185807228088379],"min":[2.2250738585072014e-308,2.2250738585072014e-308]},{"bufferView":5,"byteOffset":0,"componentType":5125,"count":22095,"type":"SCALAR","max":[4366],"min":[0]}],"buffers":[{"byteLength":591420,"uri":"tile_0201.bin"}],"bufferViews":[{"buffer":0,"byteOffset":0,"byteLength":130692,"target":34962},{"buffer":0,"byteOffset":130692,"byteLength":87128,"target":34962},{"buffer":0,"byteOffset":217820,"byteLength":197880,"target":34963},{"buffer":0,"byteOffset":415700,"byteLength":52404,"target":34962},{"buffer":0,"byteOffset":468104,"byteLength":34936,"target":34962},{"buffer":0,"byteOffset":503040,"byteLength":88380,"target":34963}],"images":[{"uri":"../textures/tile_0201_material_0.jpg"},{"uri":"../textures/tile_0201_material_1.jpg"}],"materials":[{"name":"DefaultMaterial","pbrMetallicRoughness":{"baseColorFactor":[0.6000000238418579,0.6000000238418579,0.6000000238418579,1.0],"metallicFactor":0.0},"extensions":{"KHR_materials_specular":{"specularFactor":1.0,"specularColorFactor":[0.0,0.0,0.0]},"KHR_materials_ior":{"ior":1.0}}},{"name":"material_0_material","pbrMetallicRoughness":{"baseColorTexture":{"index":0},"metallicFactor":0.0},"extensions":{"KHR_materials_specular":{"specularFactor":1.0,"specularColorFactor":[0.0,0.0,0.0]},"KHR_materials_ior":{"ior":1.0}}},{"name":"material_1_material","pbrMetallicRoughness":{"baseColorTexture":{"index":1},"metallicFactor":0.0},"extensions":{"KHR_materials_specular":{"specularFactor":1.0,"specularColorFactor":[0.0,0.0,0.0]},"KHR_materials_ior":{"ior":1.0}}}],"meshes":[{"name":"defaultobject","primitives":[{"mode":4,"material":1,"indices":2,"attributes":{"POSITION":0,"TEXCOORD_0":1}},{"mode":4,"material":2,"indices":5,"attributes":{"POSITION":3,"TEXCOORD_0":4}}]}],"nodes":[{"name":"tile_0201.obj","children":[1]},{"name":"defaultobject","mesh":0}],"samplers":[{},{}],"scenes":[{"nodes":[0]}],"textures":[{"source":0,"sampler":0},{"source":1,"sampler":1}],"scene":0}
