{"asset":{"version":"2.0","generator":"Open Asset Import Library (assimp v6.0.0)"},"extensionsUsed":["KHR_materials_specular","KHR_materials_volume","KHR_materials_ior","FB_ngon_encoding"],"accessors":[{"bufferView":0,"byteOffset":0,"componentType":5126,"count":4455,"type":"VEC3","max":[3.2787766456604004,1.983433723449707,3.920766592025757],"min":[2.2250738585072014e-308,2.2250738585072014e-308,2.2250738585072014e-308]},{"bufferView":1,"byteOffset":0,"componentType":5126,"count":4455,"type":"VEC2","max":[0.9861173629760742,0.8932456970214844],"min":[2.2250738585072014e-308,2.2250738585072014e-308]},{"bufferView":2,"byteOffset":0,"componentType":5125,"count":21003,"type":"SCALAR","max":[4454],"min":[0]},{"bufferView":3,"byteOffset":0,"componentType":5126,"count":258,"type":"VEC3","max":[3.2789247035980225,1.9495656490325928,3.9168715476989746],"min":[2.2250738585072014e-308,2.2250738585072014e-308,2.2250738585072014e-308]},{"bufferView":4,"byteOffset":0,"componentType":5126,"count":258,"type":"VEC2","max":[0.5219860076904297,0.5204849243164062],"min":[2.2250738585072014e-308,2.2250738585072014e-308]},{"bufferView":5,"byteOffset":0,"componentType":5125,"count":1158,"type":"SCALAR","max":[257],"min":[0]}],"buffers":[{"byteLength":182904,"uri":"tile_0662.bin"}],"bufferViews":[{"buffer":0,"byteOffset":0,"byteLength":53460,"target":34962},{"buffer":0,"byteOffset":53460,"byteLength":35640,"target":34962},{"buffer":0,"byteOffset":89100,"byteLength":84012,"target":34963},{"buffer":0,"byteOffset":173112,"byteLength":3096,"target":34962},{"buffer":0,"byteOffset":176208,"byteLength":2064,"target":34962},{"buffer":0,"byteOffset":178272,"byteLength":4632,"target":34963}],"images":[{"uri":"../textures/tile_0662_material_0.jpg"},{"uri":"../textures/tile_0662_material_1.jpg"}],"materials":[{"name":"DefaultMaterial","pbrMetallicRoughness":{"baseColorFactor":[0.6000000238418579,0.6000000238418579,0.6000000238418579,1.0],"metallicFactor":0.0},"extensions":{"KHR_materials_specular":{"specularFactor":1.0,"specularColorFactor":[0.0,0.0,0.0]},"KHR_materials_ior":{"ior":1.0}}},{"name":"material_0_material","pbrMetallicRoughness":{"baseColorTexture":{"index":0},"metallicFactor":0.0},"extensions":{"KHR_materials_specular":{"specularFactor":1.0,"specularColorFactor":[0.0,0.0,0.0]},"KHR_materials_ior":{"ior":1.0}}},{"name":"material_1_material","pbrMetallicRoughness":{"baseColorTexture":{"index":1},"metallicFactor":0.0},"extensions":{"KHR_materials_specular":{"specularFactor":1.0,"specularColorFactor":[0.0,0.0,0.0]},"KHR_materials_ior":{"ior":1.0}}}],"meshes":[{"name":"defaultobject","primitives":[{"mode":4,"material":1,"indices":2,"attributes":{"POSITION":0,"TEXCOORD_0":1}},{"mode":4,"material":2,"indices":5,"attributes":{"POSITION":3,"TEXCOORD_0":4}}]}],"nodes":[{"name":"tile_0662.obj","children":[1]},{"name":"defaultobject","mesh":0}],"samplers":[{},{}],"scenes":[{"nodes":[0]}],"textures":[{"source":0,"sampler":0},{"source":1,"sampler":1}],"scene":0}
