{"asset":{"version":"2.0","generator":"Open Asset Import Library (assimp v6.0.0)"},"extensionsUsed":["KHR_materials_specular","KHR_materials_volume","KHR_materials_ior","FB_ngon_encoding"],"accessors":[{"bufferView":0,"byteOffset":0,"componentType":5126,"count":14359,"type":"VEC3","max":[1.8593511581420898,0.08182316273450851,4.0893073081970215],"min":[2.2250738585072014e-308,-0.358904629945755,2.2250738585072014e-308]},{"bufferView":1,"byteOffset":0,"componentType":5126,"count":14359,"type":"VEC2","max":[0.9949426651000977,0.6816205978393555],"min":[2.2250738585072014e-308,2.2250738585072014e-308]},{"bufferView":2,"byteOffset":0,"componentType":5125,"count":63609,"type":"SCALAR","max":[14358],"min":[0]},{"bufferView":3,"byteOffset":0,"componentType":5126,"count":580,"type":"VEC3","max":[1.6550744771957397,0.08098099380731583,4.063999176025391],"min":[2.2250738585072014e-308,-0.049692753702402115,2.2250738585072014e-308]},{"bufferView":4,"byteOffset":0,"componentType":5126,"count":580,"type":"VEC2","max":[0.7206687927246094,0.6676216125488281],"min":[2.2250738585072014e-308,2.2250738585072014e-308]},{"bufferView":5,"byteOffset":0,"componentType":5125,"count":2889,"type":"SCALAR","max":[579],"min":[0]}],"buffers":[{"byteLength":564772,"uri":"tile_0608.bin"}],"bufferViews":[{"buffer":0,"byteOffset":0,"byteLength":172308,"target":34962},{"buffer":0,"byteOffset":172308,"byteLength":114872,"target":34962},{"buffer":0,"byteOffset":287180,"byteLength":254436,"target":34963},{"buffer":0,"byteOffset":541616,"byteLength":6960,"target":34962},{"buffer":0,"byteOffset":548576,"byteLength":4640,"target":34962},{"buffer":0,"byteOffset":553216,"byteLength":11556,"target":34963}],"images":[{"uri":"../textures/tile_0608_material_0.jpg"},{"uri":"../textures/tile_0608_material_1.jpg"}],"materials":[{"name":"DefaultMaterial","pbrMetallicRoughness":{"baseColorFactor":[0.6000000238418579,0.6000000238418579,0.6000000238418579,1.0],"metallicFactor":0.0},"extensions":{"KHR_materials_specular":{"specularFactor":1.0,"specularColorFactor":[0.0,0.0,0.0]},"KHR_materials_ior":{"ior":1.0}}},{"name":"material_0_material","pbrMetallicRoughness":{"baseColorTexture":{"index":0},"metallicFactor":0.0},"extensions":{"KHR_materials_specular":{"specularFactor":1.0,"specularColorFactor":[0.0,0.0,0.0]},"KHR_materials_ior":{"ior":1.0}}},{"name":"material_1_material","pbrMetallicRoughness":{"baseColorTexture":{"index":1},"metallicFactor":0.0},"extensions":{"KHR_materials_specular":{"specularFactor":1.0,"specularColorFactor":[0.0,0.0,0.0]},"KHR_materials_ior":{"ior":1.0}}}],"meshes":[{"name":"defaultobject","primitives":[{"mode":4,"material":1,"indices":2,"attributes":{"POSITION":0,"TEXCOORD_0":1}},{"mode":4,"material":2,"indices":5,"attributes":{"POSITION":3,"TEXCOORD_0":4}}]}],"nodes":[{"name":"tile_0608.obj","children":[1]},{"name":"defaultobject","mesh":0}],"samplers":[{},{}],"scenes":[{"nodes":[0]}],"textures":[{"source":0,"sampler":0},{"source":1,"sampler":1}],"scene":0}
