{"asset":{"version":"2.0","generator":"Open Asset Import Library (assimp v6.0.0)"},"extensionsUsed":["KHR_materials_specular","KHR_materials_volume","KHR_materials_ior","FB_ngon_encoding"],"accessors":[{"bufferView":0,"byteOffset":0,"componentType":5126,"count":5495,"type":"VEC3","max":[4.320367813110352,-0.05303601920604706,3.9899344444274902],"min":[2.2250738585072014e-308,-0.33128947019577026,2.2250738585072014e-308]},{"bufferView":1,"byteOffset":0,"componentType":5126,"count":5495,"type":"VEC2","max":[0.991887092590332,0.5575351715087891],"min":[2.2250738585072014e-308,2.2250738585072014e-308]},{"bufferView":2,"byteOffset":0,"componentType":5125,"count":22380,"type":"SCALAR","max":[5494],"min":[0]},{"bufferView":3,"byteOffset":0,"componentType":5126,"count":284,"type":"VEC3","max":[4.321253299713135,-0.05464119464159012,3.9981021881103516],"min":[2.2250738585072014e-308,-0.32758110761642456,2.2250738585072014e-308]},{"bufferView":4,"byteOffset":0,"componentType":5126,"count":284,"type":"VEC2","max":[0.7957534790039062,0.8481521606445312],"min":[2.2250738585072014e-308,2.2250738585072014e-308]},{"bufferView":5,"byteOffset":0,"componentType":5125,"count":1362,"type":"SCALAR","max":[283],"min":[0]}],"buffers":[{"byteLength":210548,"uri":"tile_0004.bin"}],"bufferViews":[{"buffer":0,"byteOffset":0,"byteLength":65940,"target":34962},{"buffer":0,"byteOffset":65940,"byteLength":43960,"target":34962},{"buffer":0,"byteOffset":109900,"byteLength":89520,"target":34963},{"buffer":0,"byteOffset":199420,"byteLength":3408,"target":34962},{"buffer":0,"byteOffset":202828,"byteLength":2272,"target":34962},{"buffer":0,"byteOffset":205100,"byteLength":5448,"target":34963}],"images":[{"uri":"../textures/tile_0004_material_0.jpg"},{"uri":"../textures/tile_0004_material_1.jpg"}],"materials":[{"name":"DefaultMaterial","pbrMetallicRoughness":{"baseColorFactor":[0.6000000238418579,0.6000000238418579,0.6000000238418579,1.0],"metallicFactor":0.0},"extensions":{"KHR_materials_specular":{"specularFactor":1.0,"specularColorFactor":[0.0,0.0,0.0]},"KHR_materials_ior":{"ior":1.0}}},{"name":"material_0_material","pbrMetallicRoughness":{"baseColorTexture":{"index":0},"metallicFactor":0.0},"extensions":{"KHR_materials_specular":{"specularFactor":1.0,"specularColorFactor":[0.0,0.0,0.0]},"KHR_materials_ior":{"ior":1.0}}},{"name":"material_1_material","pbrMetallicRoughness":{"baseColorTexture":{"index":1},"metallicFactor":0.0},"extensions":{"KHR_materials_specular":{"specularFactor":1.0,"specularColorFactor":[0.0,0.0,0.0]},"KHR_materials_ior":{"ior":1.0}}}],"meshes":[{"name":"defaultobject","primitives":[{"mode":4,"material":1,"indices":2,"attributes":{"POSITION":0,"TEXCOORD_0":1}},{"mode":4,"material":2,"indices":5,"attributes":{"POSITION":3,"TEXCOORD_0":4}}]}],"nodes":[{"name":"tile_0004.obj","children":[1]},{"name":"defaultobject","mesh":0}],"samplers":[{},{}],"scenes":[{"nodes":[0]}],"textures":[{"source":0,"sampler":0},{"source":1,"sampler":1}],"scene":0}
