{"asset":{"version":"2.0","generator":"Open Asset Import Library (assimp v6.0.0)"},"extensionsUsed":["KHR_materials_specular","KHR_materials_volume","KHR_materials_ior","FB_ngon_encoding"],"accessors":[{"bufferView":0,"byteOffset":0,"componentType":5126,"count":2055,"type":"VEC3","max":[0.6981773376464844,-2.175466537475586,2.69999098777771],"min":[2.2250738585072014e-308,-2.452568531036377,2.2250738585072014e-308]},{"bufferView":1,"byteOffset":0,"componentType":5126,"count":2055,"type":"VEC2","max":[0.9756923913955688,0.931549072265625],"min":[2.2250738585072014e-308,2.2250738585072014e-308]},{"bufferView":2,"byteOffset":0,"componentType":5125,"count":9036,"type":"SCALAR","max":[2054],"min":[0]},{"bufferView":3,"byteOffset":0,"componentType":5126,"count":1997,"type":"VEC3","max":[0.6975095272064209,-2.1759274005889893,2.699066400527954],"min":[2.2250738585072014e-308,-2.4531173706054688,2.2250738585072014e-308]},{"bufferView":4,"byteOffset":0,"componentType":5126,"count":1997,"type":"VEC2","max":[0.531832218170166,0.8584671020507812],"min":[2.2250738585072014e-308,2.2250738585072014e-308]},{"bufferView":5,"byteOffset":0,"componentType":5125,"count":10191,"type":"SCALAR","max":[1996],"min":[0]}],"buffers":[{"byteLength":157948,"uri":"tile_0282.bin"}],"bufferViews":[{"buffer":0,"byteOffset":0,"byteLength":24660,"target":34962},{"buffer":0,"byteOffset":24660,"byteLength":16440,"target":34962},{"buffer":0,"byteOffset":41100,"byteLength":36144,"target":34963},{"buffer":0,"byteOffset":77244,"byteLength":23964,"target":34962},{"buffer":0,"byteOffset":101208,"byteLength":15976,"target":34962},{"buffer":0,"byteOffset":117184,"byteLength":40764,"target":34963}],"images":[{"uri":"../textures/tile_0282_material_0.jpg"},{"uri":"../textures/tile_0282_material_1.jpg"}],"materials":[{"name":"DefaultMaterial","pbrMetallicRoughness":{"baseColorFactor":[0.6000000238418579,0.6000000238418579,0.6000000238418579,1.0],"metallicFactor":0.0},"extensions":{"KHR_materials_specular":{"specularFactor":1.0,"specularColorFactor":[0.0,0.0,0.0]},"KHR_materials_ior":{"ior":1.0}}},{"name":"material_0_material","pbrMetallicRoughness":{"baseColorTexture":{"index":0},"metallicFactor":0.0},"extensions":{"KHR_materials_specular":{"specularFactor":1.0,"specularColorFactor":[0.0,0.0,0.0]},"KHR_materials_ior":{"ior":1.0}}},{"name":"material_1_material","pbrMetallicRoughness":{"baseColorTexture":{"index":1},"metallicFactor":0.0},"extensions":{"KHR_materials_specular":{"specularFactor":1.0,"specularColorFactor":[0.0,0.0,0.0]},"KHR_materials_ior":{"ior":1.0}}}],"meshes":[{"name":"defaultobject","primitives":[{"mode":4,"material":1,"indices":2,"attributes":{"POSITION":0,"TEXCOORD_0":1}},{"mode":4,"material":2,"indices":5,"attributes":{"POSITION":3,"TEXCOORD_0":4}}]}],"nodes":[{"name":"tile_0282.obj","children":[1]},{"name":"defaultobject","mesh":0}],"samplers":[{},{}],"scenes":[{"nodes":[0]}],"textures":[{"source":0,"sampler":0},{"source":1,"sampler":1}],"scene":0}
