{"asset":{"version":"2.0","generator":"Open Asset Import Library (assimp v6.0.0)"},"extensionsUsed":["KHR_materials_specular","KHR_materials_volume","KHR_materials_ior","FB_ngon_encoding"],"accessors":[{"bufferView":0,"byteOffset":0,"componentType":5126,"count":3245,"type":"VEC3","max":[2.0843119621276855,-3.339123010635376,3.3769407272338867],"min":[2.2250738585072014e-308,-3.6352128982543945,2.2250738585072014e-308]},{"bufferView":1,"byteOffset":0,"componentType":5126,"count":3245,"type":"VEC2","max":[0.9919228553771973,0.7116203308105469],"min":[2.2250738585072014e-308,2.2250738585072014e-308]},{"bufferView":2,"byteOffset":0,"componentType":5125,"count":13068,"type":"SCALAR","max":[3244],"min":[0]},{"bufferView":3,"byteOffset":0,"componentType":5126,"count":1131,"type":"VEC3","max":[2.0824639797210693,-3.3493285179138184,3.3406243324279785],"min":[2.2250738585072014e-308,-3.6407835483551025,2.2250738585072014e-308]},{"bufferView":4,"byteOffset":0,"componentType":5126,"count":1131,"type":"VEC2","max":[0.6167147159576416,0.5506839752197266],"min":[2.2250738585072014e-308,2.2250738585072014e-308]},{"bufferView":5,"byteOffset":0,"componentType":5125,"count":5574,"type":"SCALAR","max":[1130],"min":[0]}],"buffers":[{"byteLength":162088,"uri":"tile_0757.bin"}],"bufferViews":[{"buffer":0,"byteOffset":0,"byteLength":38940,"target":34962},{"buffer":0,"byteOffset":38940,"byteLength":25960,"target":34962},{"buffer":0,"byteOffset":64900,"byteLength":52272,"target":34963},{"buffer":0,"byteOffset":117172,"byteLength":13572,"target":34962},{"buffer":0,"byteOffset":130744,"byteLength":9048,"target":34962},{"buffer":0,"byteOffset":139792,"byteLength":22296,"target":34963}],"images":[{"uri":"../textures/tile_0757_material_0.jpg"},{"uri":"../textures/tile_0757_material_1.jpg"}],"materials":[{"name":"DefaultMaterial","pbrMetallicRoughness":{"baseColorFactor":[0.6000000238418579,0.6000000238418579,0.6000000238418579,1.0],"metallicFactor":0.0},"extensions":{"KHR_materials_specular":{"specularFactor":1.0,"specularColorFactor":[0.0,0.0,0.0]},"KHR_materials_ior":{"ior":1.0}}},{"name":"material_0_material","pbrMetallicRoughness":{"baseColorTexture":{"index":0},"metallicFactor":0.0},"extensions":{"KHR_materials_specular":{"specularFactor":1.0,"specularColorFactor":[0.0,0.0,0.0]},"KHR_materials_ior":{"ior":1.0}}},{"name":"material_1_material","pbrMetallicRoughness":{"baseColorTexture":{"index":1},"metallicFactor":0.0},"extensions":{"KHR_materials_specular":{"specularFactor":1.0,"specularColorFactor":[0.0,0.0,0.0]},"KHR_materials_ior":{"ior":1.0}}}],"meshes":[{"name":"defaultobject","primitives":[{"mode":4,"material":1,"indices":2,"attributes":{"POSITION":0,"TEXCOORD_0":1}},{"mode":4,"material":2,"indices":5,"attributes":{"POSITION":3,"TEXCOORD_0":4}}]}],"nodes":[{"name":"tile_0757.obj","children":[1]},{"name":"defaultobject","mesh":0}],"samplers":[{},{}],"scenes":[{"nodes":[0]}],"textures":[{"source":0,"sampler":0},{"source":1,"sampler":1}],"scene":0}
