{"asset":{"version":"2.0","generator":"Open Asset Import Library (assimp v6.0.0)"},"extensionsUsed":["KHR_materials_specular","KHR_materials_volume","KHR_materials_ior","FB_ngon_encoding"],"accessors":[{"bufferView":0,"byteOffset":0,"componentType":5126,"count":8236,"type":"VEC3","max":[3.403780460357666,3.793600082397461,4.421726703643799],"min":[2.2250738585072014e-308,2.2250738585072014e-308,2.2250738585072014e-308]},{"bufferView":1,"byteOffset":0,"componentType":5126,"count":8236,"type":"VEC2","max":[0.9753189086914062,0.8529071807861328],"min":[2.2250738585072014e-308,2.2250738585072014e-308]},{"bufferView":2,"byteOffset":0,"componentType":5125,"count":41577,"type":"SCALAR","max":[8235],"min":[0]},{"bufferView":3,"byteOffset":0,"componentType":5126,"count":6180,"type":"VEC3","max":[3.41611647605896,3.823390007019043,4.445855140686035],"min":[2.2250738585072014e-308,2.2250738585072014e-308,2.2250738585072014e-308]},{"bufferView":4,"byteOffset":0,"componentType":5126,"count":6180,"type":"VEC2","max":[0.9285984039306641,0.7774772644042969],"min":[2.2250738585072014e-308,2.2250738585072014e-308]},{"bufferView":5,"byteOffset":0,"componentType":5125,"count":32937,"type":"SCALAR","max":[6179],"min":[0]}],"buffers":[{"byteLength":586376,"uri":"tile_0183.bin"}],"bufferViews":[{"buffer":0,"byteOffset":0,"byteLength":98832,"target":34962},{"buffer":0,"byteOffset":98832,"byteLength":65888,"target":34962},{"buffer":0,"byteOffset":164720,"byteLength":166308,"target":34963},{"buffer":0,"byteOffset":331028,"byteLength":74160,"target":34962},{"buffer":0,"byteOffset":405188,"byteLength":49440,"target":34962},{"buffer":0,"byteOffset":454628,"byteLength":131748,"target":34963}],"images":[{"uri":"../textures/tile_0183_material_0.jpg"},{"uri":"../textures/tile_0183_material_1.jpg"}],"materials":[{"name":"DefaultMaterial","pbrMetallicRoughness":{"baseColorFactor":[0.6000000238418579,0.6000000238418579,0.6000000238418579,1.0],"metallicFactor":0.0},"extensions":{"KHR_materials_specular":{"specularFactor":1.0,"specularColorFactor":[0.0,0.0,0.0]},"KHR_materials_ior":{"ior":1.0}}},{"name":"material_0_material","pbrMetallicRoughness":{"baseColorTexture":{"index":0},"metallicFactor":0.0},"extensions":{"KHR_materials_specular":{"specularFactor":1.0,"specularColorFactor":[0.0,0.0,0.0]},"KHR_materials_ior":{"ior":1.0}}},{"name":"material_1_material","pbrMetallicRoughness":{"baseColorTexture":{"index":1},"metallicFactor":0.0},"extensions":{"KHR_materials_specular":{"specularFactor":1.0,"specularColorFactor":[0.0,0.0,0.0]},"KHR_materials_ior":{"ior":1.0}}}],"meshes":[{"name":"defaultobject","primitives":[{"mode":4,"material":1,"indices":2,"attributes":{"POSITION":0,"TEXCOORD_0":1}},{"mode":4,"material":2,"indices":5,"attributes":{"POSITION":3,"TEXCOORD_0":4}}]}],"nodes":[{"name":"tile_0183.obj","children":[1]},{"name":"defaultobject","mesh":0}],"samplers":[{},{}],"scenes":[{"nodes":[0]}],"textures":[{"source":0,"sampler":0},{"source":1,"sampler":1}],"scene":0}
