{"asset":{"version":"2.0","generator":"Open Asset Import Library (assimp v6.0.0)"},"extensionsUsed":["KHR_materials_specular","KHR_materials_volume","KHR_materials_ior","FB_ngon_encoding"],"accessors":[{"bufferView":0,"byteOffset":0,"componentType":5126,"count":3248,"type":"VEC3","max":[-0.23510770499706268,-5.567122936248779,2.6030592918395996],"min":[-0.43467944860458374,-6.823718070983887,2.2250738585072014e-308]},{"bufferView":1,"byteOffset":0,"componentType":5126,"count":3248,"type":"VEC2","max":[0.9847412109375,0.5308341979980469],"min":[2.2250738585072014e-308,2.2250738585072014e-308]},{"bufferView":2,"byteOffset":0,"componentType":5125,"count":14598,"type":"SCALAR","max":[3247],"min":[0]},{"bufferView":3,"byteOffset":0,"componentType":5126,"count":2718,"type":"VEC3","max":[-0.1968366801738739,-5.57141637802124,2.6362550258636475],"min":[-0.44603440165519714,-6.823718070983887,2.2250738585072014e-308]},{"bufferView":4,"byteOffset":0,"componentType":5126,"count":2718,"type":"VEC2","max":[0.9228174686431885,0.7157678604125977],"min":[2.2250738585072014e-308,2.2250738585072014e-308]},{"bufferView":5,"byteOffset":0,"componentType":5125,"count":14268,"type":"SCALAR","max":[2717],"min":[0]}],"buffers":[{"byteLength":234784,"uri":"tile_0358.bin"}],"bufferViews":[{"buffer":0,"byteOffset":0,"byteLength":38976,"target":34962},{"buffer":0,"byteOffset":38976,"byteLength":25984,"target":34962},{"buffer":0,"byteOffset":64960,"byteLength":58392,"target":34963},{"buffer":0,"byteOffset":123352,"byteLength":32616,"target":34962},{"buffer":0,"byteOffset":155968,"byteLength":21744,"target":34962},{"buffer":0,"byteOffset":177712,"byteLength":57072,"target":34963}],"images":[{"uri":"../textures/tile_0358_material_0.jpg"},{"uri":"../textures/tile_0358_material_1.jpg"}],"materials":[{"name":"DefaultMaterial","pbrMetallicRoughness":{"baseColorFactor":[0.6000000238418579,0.6000000238418579,0.6000000238418579,1.0],"metallicFactor":0.0},"extensions":{"KHR_materials_specular":{"specularFactor":1.0,"specularColorFactor":[0.0,0.0,0.0]},"KHR_materials_ior":{"ior":1.0}}},{"name":"material_0_material","pbrMetallicRoughness":{"baseColorTexture":{"index":0},"metallicFactor":0.0},"extensions":{"KHR_materials_specular":{"specularFactor":1.0,"specularColorFactor":[0.0,0.0,0.0]},"KHR_materials_ior":{"ior":1.0}}},{"name":"material_1_material","pbrMetallicRoughness":{"baseColorTexture":{"index":1},"metallicFactor":0.0},"extensions":{"KHR_materials_specular":{"specularFactor":1.0,"specularColorFactor":[0.0,0.0,0.0]},"KHR_materials_ior":{"ior":1.0}}}],"meshes":[{"name":"defaultobject","primitives":[{"mode":4,"material":1,"indices":2,"attributes":{"POSITION":0,"TEXCOORD_0":1}},{"mode":4,"material":2,"indices":5,"attributes":{"POSITION":3,"TEXCOORD_0":4}}]}],"nodes":[{"name":"tile_0358.obj","children":[1]},{"name":"defaultobject","mesh":0}],"samplers":[{},{}],"scenes":[{"nodes":[0]}],"textures":[{"source":0,"sampler":0},{"source":1,"sampler":1}],"scene":0}
