{"asset":{"version":"2.0","generator":"Open Asset Import Library (assimp v6.0.0)"},"extensionsUsed":["KHR_materials_specular","KHR_materials_volume","KHR_materials_ior","FB_ngon_encoding"],"accessors":[{"bufferView":0,"byteOffset":0,"componentType":5126,"count":5709,"type":"VEC3","max":[-1.9610764980316162,2.580443859100342,4.530798435211182],"min":[-2.24261474609375,2.2250738585072014e-308,2.2250738585072014e-308]},{"bufferView":1,"byteOffset":0,"componentType":5126,"count":5709,"type":"VEC2","max":[0.9914302825927734,0.6917362213134766],"min":[2.2250738585072014e-308,2.2250738585072014e-308]},{"bufferView":2,"byteOffset":0,"componentType":5125,"count":25782,"type":"SCALAR","max":[5708],"min":[0]},{"bufferView":3,"byteOffset":0,"componentType":5126,"count":533,"type":"VEC3","max":[-1.9610227346420288,2.578965425491333,4.530159950256348],"min":[-2.2215023040771484,2.2250738585072014e-308,2.2250738585072014e-308]},{"bufferView":4,"byteOffset":0,"componentType":5126,"count":533,"type":"VEC2","max":[0.6539783477783203,0.5684585571289062],"min":[2.2250738585072014e-308,2.2250738585072014e-308]},{"bufferView":5,"byteOffset":0,"componentType":5125,"count":2619,"type":"SCALAR","max":[532],"min":[0]}],"buffers":[{"byteLength":238444,"uri":"tile_0499.bin"}],"bufferViews":[{"buffer":0,"byteOffset":0,"byteLength":68508,"target":34962},{"buffer":0,"byteOffset":68508,"byteLength":45672,"target":34962},{"buffer":0,"byteOffset":114180,"byteLength":103128,"target":34963},{"buffer":0,"byteOffset":217308,"byteLength":6396,"target":34962},{"buffer":0,"byteOffset":223704,"byteLength":4264,"target":34962},{"buffer":0,"byteOffset":227968,"byteLength":10476,"target":34963}],"images":[{"uri":"../textures/tile_0499_material_0.jpg"},{"uri":"../textures/tile_0499_material_1.jpg"}],"materials":[{"name":"DefaultMaterial","pbrMetallicRoughness":{"baseColorFactor":[0.6000000238418579,0.6000000238418579,0.6000000238418579,1.0],"metallicFactor":0.0},"extensions":{"KHR_materials_specular":{"specularFactor":1.0,"specularColorFactor":[0.0,0.0,0.0]},"KHR_materials_ior":{"ior":1.0}}},{"name":"material_0_material","pbrMetallicRoughness":{"baseColorTexture":{"index":0},"metallicFactor":0.0},"extensions":{"KHR_materials_specular":{"specularFactor":1.0,"specularColorFactor":[0.0,0.0,0.0]},"KHR_materials_ior":{"ior":1.0}}},{"name":"material_1_material","pbrMetallicRoughness":{"baseColorTexture":{"index":1},"metallicFactor":0.0},"extensions":{"KHR_materials_specular":{"specularFactor":1.0,"specularColorFactor":[0.0,0.0,0.0]},"KHR_materials_ior":{"ior":1.0}}}],"meshes":[{"name":"defaultobject","primitives":[{"mode":4,"material":1,"indices":2,"attributes":{"POSITION":0,"TEXCOORD_0":1}},{"mode":4,"material":2,"indices":5,"attributes":{"POSITION":3,"TEXCOORD_0":4}}]}],"nodes":[{"name":"tile_0499.obj","children":[1]},{"name":"defaultobject","mesh":0}],"samplers":[{},{}],"scenes":[{"nodes":[0]}],"textures":[{"source":0,"sampler":0},{"source":1,"sampler":1}],"scene":0}
