{"asset":{"version":"2.0","generator":"Open Asset Import Library (assimp v6.0.0)"},"extensionsUsed":["KHR_materials_specular","KHR_materials_volume","KHR_materials_ior","FB_ngon_encoding"],"accessors":[{"bufferView":0,"byteOffset":0,"componentType":5126,"count":3456,"type":"VEC3","max":[-4.7039289474487305,4.855844020843506,5.056312084197998],"min":[-5.24361515045166,2.2250738585072014e-308,2.2250738585072014e-308]},{"bufferView":1,"byteOffset":0,"componentType":5126,"count":3456,"type":"VEC2","max":[0.9892014265060425,0.5115261077880859],"min":[2.2250738585072014e-308,2.2250738585072014e-308]},{"bufferView":2,"byteOffset":0,"componentType":5125,"count":16017,"type":"SCALAR","max":[3455],"min":[0]},{"bufferView":3,"byteOffset":0,"componentType":5126,"count":3801,"type":"VEC3","max":[-4.713622093200684,4.860198020935059,5.053220272064209],"min":[-5.24564266204834,2.2250738585072014e-308,2.2250738585072014e-308]},{"bufferView":4,"byteOffset":0,"componentType":5126,"count":3801,"type":"VEC2","max":[0.9752912521362305,0.8560829162597656],"min":[2.2250738585072014e-308,2.2250738585072014e-308]},{"bufferView":5,"byteOffset":0,"componentType":5125,"count":19932,"type":"SCALAR","max":[3800],"min":[0]}],"buffers":[{"byteLength":288936,"uri":"tile_0528.bin"}],"bufferViews":[{"buffer":0,"byteOffset":0,"byteLength":41472,"target":34962},{"buffer":0,"byteOffset":41472,"byteLength":27648,"target":34962},{"buffer":0,"byteOffset":69120,"byteLength":64068,"target":34963},{"buffer":0,"byteOffset":133188,"byteLength":45612,"target":34962},{"buffer":0,"byteOffset":178800,"byteLength":30408,"target":34962},{"buffer":0,"byteOffset":209208,"byteLength":79728,"target":34963}],"images":[{"uri":"../textures/tile_0528_material_0.jpg"},{"uri":"../textures/tile_0528_material_1.jpg"}],"materials":[{"name":"DefaultMaterial","pbrMetallicRoughness":{"baseColorFactor":[0.6000000238418579,0.6000000238418579,0.6000000238418579,1.0],"metallicFactor":0.0},"extensions":{"KHR_materials_specular":{"specularFactor":1.0,"specularColorFactor":[0.0,0.0,0.0]},"KHR_materials_ior":{"ior":1.0}}},{"name":"material_0_material","pbrMetallicRoughness":{"baseColorTexture":{"index":0},"metallicFactor":0.0},"extensions":{"KHR_materials_specular":{"specularFactor":1.0,"specularColorFactor":[0.0,0.0,0.0]},"KHR_materials_ior":{"ior":1.0}}},{"name":"material_1_material","pbrMetallicRoughness":{"baseColorTexture":{"index":1},"metallicFactor":0.0},"extensions":{"KHR_materials_specular":{"specularFactor":1.0,"specularColorFactor":[0.0,0.0,0.0]},"KHR_materials_ior":{"ior":1.0}}}],"meshes":[{"name":"defaultobject","primitives":[{"mode":4,"material":1,"indices":2,"attributes":{"POSITION":0,"TEXCOORD_0":1}},{"mode":4,"material":2,"indices":5,"attributes":{"POSITION":3,"TEXCOORD_0":4}}]}],"nodes":[{"name":"tile_0528.obj","children":[1]},{"name":"defaultobject","mesh":0}],"samplers":[{},{}],"scenes":[{"nodes":[0]}],"textures":[{"source":0,"sampler":0},{"source":1,"sampler":1}],"scene":0}
