{"asset":{"version":"2.0","generator":"Open Asset Import Library (assimp v6.0.0)"},"extensionsUsed":["KHR_materials_specular","KHR_materials_volume","KHR_materials_ior","FB_ngon_encoding"],"accessors":[{"bufferView":0,"byteOffset":0,"componentType":5126,"count":4751,"type":"VEC3","max":[-3.147594928741455,0.7425548434257507,4.063324451446533],"min":[-3.518742799758911,2.2250738585072014e-308,2.2250738585072014e-308]},{"bufferView":1,"byteOffset":0,"componentType":5126,"count":4751,"type":"VEC2","max":[0.9948258399963379,0.6282711029052734],"min":[2.2250738585072014e-308,2.2250738585072014e-308]},{"bufferView":2,"byteOffset":0,"componentType":5125,"count":21423,"type":"SCALAR","max":[4750],"min":[0]},{"bufferView":3,"byteOffset":0,"componentType":5126,"count":7,"type":"VEC3","max":[-3.4952478408813477,0.7406854629516602,3.8304686546325684],"min":[-3.5078065395355225,2.2250738585072014e-308,2.2250738585072014e-308]},{"bufferView":4,"byteOffset":0,"componentType":5126,"count":7,"type":"VEC2","max":[0.5611268281936646,0.6629638671875],"min":[2.2250738585072014e-308,2.2250738585072014e-308]},{"bufferView":5,"byteOffset":0,"componentType":5125,"count":18,"type":"SCALAR","max":[6],"min":[0]}],"buffers":[{"byteLength":180924,"uri":"tile_0125.bin"}],"bufferViews":[{"buffer":0,"byteOffset":0,"byteLength":57012,"target":34962},{"buffer":0,"byteOffset":57012,"byteLength":38008,"target":34962},{"buffer":0,"byteOffset":95020,"byteLength":85692,"target":34963},{"buffer":0,"byteOffset":180712,"byteLength":84,"target":34962},{"buffer":0,"byteOffset":180796,"byteLength":56,"target":34962},{"buffer":0,"byteOffset":180852,"byteLength":72,"target":34963}],"images":[{"uri":"../textures/tile_0125_material_0.jpg"},{"uri":"../textures/tile_0125_material_1.jpg"}],"materials":[{"name":"DefaultMaterial","pbrMetallicRoughness":{"baseColorFactor":[0.6000000238418579,0.6000000238418579,0.6000000238418579,1.0],"metallicFactor":0.0},"extensions":{"KHR_materials_specular":{"specularFactor":1.0,"specularColorFactor":[0.0,0.0,0.0]},"KHR_materials_ior":{"ior":1.0}}},{"name":"material_0_material","pbrMetallicRoughness":{"baseColorTexture":{"index":0},"metallicFactor":0.0},"extensions":{"KHR_materials_specular":{"specularFactor":1.0,"specularColorFactor":[0.0,0.0,0.0]},"KHR_materials_ior":{"ior":1.0}}},{"name":"material_1_material","pbrMetallicRoughness":{"baseColorTexture":{"index":1},"metallicFactor":0.0},"extensions":{"KHR_materials_specular":{"specularFactor":1.0,"specularColorFactor":[0.0,0.0,0.0]},"KHR_materials_ior":{"ior":1.0}}}],"meshes":[{"name":"defaultobject","primitives":[{"mode":4,"material":1,"indices":2,"attributes":{"POSITION":0,"TEXCOORD_0":1}},{"mode":4,"material":2,"indices":5,"attributes":{"POSITION":3,"TEXCOORD_0":4}}]}],"nodes":[{"name":"tile_0125.obj","children":[1]},{"name":"defaultobject","mesh":0}],"samplers":[{},{}],"scenes":[{"nodes":[0]}],"textures":[{"source":0,"sampler":0},{"source":1,"sampler":1}],"scene":0}
