{"asset":{"version":"2.0","generator":"Open Asset Import Library (assimp v6.0.0)"},"extensionsUsed":["KHR_materials_specular","KHR_materials_volume","KHR_materials_ior","FB_ngon_encoding"],"accessors":[{"bufferView":0,"byteOffset":0,"componentType":5126,"count":5718,"type":"VEC3","max":[2.0261378288269043,-0.7756270170211792,3.442718982696533],"min":[2.2250738585072014e-308,-1.034995675086975,2.2250738585072014e-308]},{"bufferView":1,"byteOffset":0,"componentType":5126,"count":5718,"type":"VEC2","max":[0.9930062294006348,0.5937423706054688],"min":[2.2250738585072014e-308,2.2250738585072014e-308]},{"bufferView":2,"byteOffset":0,"componentType":5125,"count":24282,"type":"SCALAR","max":[5717],"min":[0]},{"bufferView":3,"byteOffset":0,"componentType":5126,"count":858,"type":"VEC3","max":[1.8844127655029297,-0.8017992377281189,3.2970681190490723],"min":[2.2250738585072014e-308,-1.0330547094345093,2.2250738585072014e-308]},{"bufferView":4,"byteOffset":0,"componentType":5126,"count":858,"type":"VEC2","max":[0.6094226837158203,0.5464134216308594],"min":[2.2250738585072014e-308,2.2250738585072014e-308]},{"bufferView":5,"byteOffset":0,"componentType":5125,"count":4353,"type":"SCALAR","max":[857],"min":[0]}],"buffers":[{"byteLength":246060,"uri":"tile_0621.bin"}],"bufferViews":[{"buffer":0,"byteOffset":0,"byteLength":68616,"target":34962},{"buffer":0,"byteOffset":68616,"byteLength":45744,"target":34962},{"buffer":0,"byteOffset":114360,"byteLength":97128,"target":34963},{"buffer":0,"byteOffset":211488,"byteLength":10296,"target":34962},{"buffer":0,"byteOffset":221784,"byteLength":6864,"target":34962},{"buffer":0,"byteOffset":228648,"byteLength":17412,"target":34963}],"images":[{"uri":"../textures/tile_0621_material_0.jpg"},{"uri":"../textures/tile_0621_material_1.jpg"}],"materials":[{"name":"DefaultMaterial","pbrMetallicRoughness":{"baseColorFactor":[0.6000000238418579,0.6000000238418579,0.6000000238418579,1.0],"metallicFactor":0.0},"extensions":{"KHR_materials_specular":{"specularFactor":1.0,"specularColorFactor":[0.0,0.0,0.0]},"KHR_materials_ior":{"ior":1.0}}},{"name":"material_0_material","pbrMetallicRoughness":{"baseColorTexture":{"index":0},"metallicFactor":0.0},"extensions":{"KHR_materials_specular":{"specularFactor":1.0,"specularColorFactor":[0.0,0.0,0.0]},"KHR_materials_ior":{"ior":1.0}}},{"name":"material_1_material","pbrMetallicRoughness":{"baseColorTexture":{"index":1},"metallicFactor":0.0},"extensions":{"KHR_materials_specular":{"specularFactor":1.0,"specularColorFactor":[0.0,0.0,0.0]},"KHR_materials_ior":{"ior":1.0}}}],"meshes":[{"name":"defaultobject","primitives":[{"mode":4,"material":1,"indices":2,"attributes":{"POSITION":0,"TEXCOORD_0":1}},{"mode":4,"material":2,"indices":5,"attributes":{"POSITION":3,"TEXCOORD_0":4}}]}],"nodes":[{"name":"tile_0621.obj","children":[1]},{"name":"defaultobject","mesh":0}],"samplers":[{},{}],"scenes":[{"nodes":[0]}],"textures":[{"source":0,"sampler":0},{"source":1,"sampler":1}],"scene":0}
