{"asset":{"version":"2.0","generator":"Open Asset Import Library (assimp v6.0.0)"},"extensionsUsed":["KHR_materials_specular","KHR_materials_volume","KHR_materials_ior","FB_ngon_encoding"],"accessors":[{"bufferView":0,"byteOffset":0,"componentType":5126,"count":4978,"type":"VEC3","max":[3.4748775959014893,-2.4713668823242188,3.994654655456543],"min":[2.2250738585072014e-308,-2.7114510536193848,2.2250738585072014e-308]},{"bufferView":1,"byteOffset":0,"componentType":5126,"count":4978,"type":"VEC2","max":[0.9905463457107544,0.5507698059082031],"min":[2.2250738585072014e-308,2.2250738585072014e-308]},{"bufferView":2,"byteOffset":0,"componentType":5125,"count":22323,"type":"SCALAR","max":[4977],"min":[0]},{"bufferView":3,"byteOffset":0,"componentType":5126,"count":567,"type":"VEC3","max":[3.1232194900512695,-2.4734947681427,3.8771286010742188],"min":[2.2250738585072014e-308,-2.714536428451538,2.2250738585072014e-308]},{"bufferView":4,"byteOffset":0,"componentType":5126,"count":567,"type":"VEC2","max":[0.8118171691894531,0.5734214782714844],"min":[2.2250738585072014e-308,2.2250738585072014e-308]},{"bufferView":5,"byteOffset":0,"componentType":5125,"count":2727,"type":"SCALAR","max":[566],"min":[0]}],"buffers":[{"byteLength":211100,"uri":"tile_0256.bin"}],"bufferViews":[{"buffer":0,"byteOffset":0,"byteLength":59736,"target":34962},{"buffer":0,"byteOffset":59736,"byteLength":39824,"target":34962},{"buffer":0,"byteOffset":99560,"byteLength":89292,"target":34963},{"buffer":0,"byteOffset":188852,"byteLength":6804,"target":34962},{"buffer":0,"byteOffset":195656,"byteLength":4536,"target":34962},{"buffer":0,"byteOffset":200192,"byteLength":10908,"target":34963}],"images":[{"uri":"../textures/tile_0256_material_0.jpg"},{"uri":"../textures/tile_0256_material_1.jpg"}],"materials":[{"name":"DefaultMaterial","pbrMetallicRoughness":{"baseColorFactor":[0.6000000238418579,0.6000000238418579,0.6000000238418579,1.0],"metallicFactor":0.0},"extensions":{"KHR_materials_specular":{"specularFactor":1.0,"specularColorFactor":[0.0,0.0,0.0]},"KHR_materials_ior":{"ior":1.0}}},{"name":"material_0_material","pbrMetallicRoughness":{"baseColorTexture":{"index":0},"metallicFactor":0.0},"extensions":{"KHR_materials_specular":{"specularFactor":1.0,"specularColorFactor":[0.0,0.0,0.0]},"KHR_materials_ior":{"ior":1.0}}},{"name":"material_1_material","pbrMetallicRoughness":{"baseColorTexture":{"index":1},"metallicFactor":0.0},"extensions":{"KHR_materials_specular":{"specularFactor":1.0,"specularColorFactor":[0.0,0.0,0.0]},"KHR_materials_ior":{"ior":1.0}}}],"meshes":[{"name":"defaultobject","primitives":[{"mode":4,"material":1,"indices":2,"attributes":{"POSITION":0,"TEXCOORD_0":1}},{"mode":4,"material":2,"indices":5,"attributes":{"POSITION":3,"TEXCOORD_0":4}}]}],"nodes":[{"name":"tile_0256.obj","children":[1]},{"name":"defaultobject","mesh":0}],"samplers":[{},{}],"scenes":[{"nodes":[0]}],"textures":[{"source":0,"sampler":0},{"source":1,"sampler":1}],"scene":0}
