{"asset":{"version":"2.0","generator":"Open Asset Import Library (assimp v6.0.0)"},"extensionsUsed":["KHR_materials_specular","KHR_materials_volume","KHR_materials_ior","FB_ngon_encoding"],"accessors":[{"bufferView":0,"byteOffset":0,"componentType":5126,"count":3660,"type":"VEC3","max":[-5.234352111816406,4.100269794464111,5.028079032897949],"min":[-5.998119831085205,2.2250738585072014e-308,2.2250738585072014e-308]},{"bufferView":1,"byteOffset":0,"componentType":5126,"count":3660,"type":"VEC2","max":[0.98537278175354,0.5294532775878906],"min":[2.2250738585072014e-308,2.2250738585072014e-308]},{"bufferView":2,"byteOffset":0,"componentType":5125,"count":16632,"type":"SCALAR","max":[3659],"min":[0]},{"bufferView":3,"byteOffset":0,"componentType":5126,"count":4019,"type":"VEC3","max":[-5.232823848724365,4.099225997924805,5.0347514152526855],"min":[-5.999480247497559,2.2250738585072014e-308,2.2250738585072014e-308]},{"bufferView":4,"byteOffset":0,"componentType":5126,"count":4019,"type":"VEC2","max":[0.9921913146972656,0.9082450866699219],"min":[2.2250738585072014e-308,2.2250738585072014e-308]},{"bufferView":5,"byteOffset":0,"componentType":5125,"count":21009,"type":"SCALAR","max":[4018],"min":[0]}],"buffers":[{"byteLength":304144,"uri":"tile_0526.bin"}],"bufferViews":[{"buffer":0,"byteOffset":0,"byteLength":43920,"target":34962},{"buffer":0,"byteOffset":43920,"byteLength":29280,"target":34962},{"buffer":0,"byteOffset":73200,"byteLength":66528,"target":34963},{"buffer":0,"byteOffset":139728,"byteLength":48228,"target":34962},{"buffer":0,"byteOffset":187956,"byteLength":32152,"target":34962},{"buffer":0,"byteOffset":220108,"byteLength":84036,"target":34963}],"images":[{"uri":"../textures/tile_0526_material_0.jpg"},{"uri":"../textures/tile_0526_material_1.jpg"}],"materials":[{"name":"DefaultMaterial","pbrMetallicRoughness":{"baseColorFactor":[0.6000000238418579,0.6000000238418579,0.6000000238418579,1.0],"metallicFactor":0.0},"extensions":{"KHR_materials_specular":{"specularFactor":1.0,"specularColorFactor":[0.0,0.0,0.0]},"KHR_materials_ior":{"ior":1.0}}},{"name":"material_0_material","pbrMetallicRoughness":{"baseColorTexture":{"index":0},"metallicFactor":0.0},"extensions":{"KHR_materials_specular":{"specularFactor":1.0,"specularColorFactor":[0.0,0.0,0.0]},"KHR_materials_ior":{"ior":1.0}}},{"name":"material_1_material","pbrMetallicRoughness":{"baseColorTexture":{"index":1},"metallicFactor":0.0},"extensions":{"KHR_materials_specular":{"specularFactor":1.0,"specularColorFactor":[0.0,0.0,0.0]},"KHR_materials_ior":{"ior":1.0}}}],"meshes":[{"name":"defaultobject","primitives":[{"mode":4,"material":1,"indices":2,"attributes":{"POSITION":0,"TEXCOORD_0":1}},{"mode":4,"material":2,"indices":5,"attributes":{"POSITION":3,"TEXCOORD_0":4}}]}],"nodes":[{"name":"tile_0526.obj","children":[1]},{"name":"defaultobject","mesh":0}],"samplers":[{},{}],"scenes":[{"nodes":[0]}],"textures":[{"source":0,"sampler":0},{"source":1,"sampler":1}],"scene":0}
