{"asset":{"version":"2.0","generator":"Open Asset Import Library (assimp v6.0.0)"},"extensionsUsed":["KHR_materials_specular","KHR_materials_volume","KHR_materials_ior","FB_ngon_encoding"],"accessors":[{"bufferView":0,"byteOffset":0,"componentType":5126,"count":4634,"type":"VEC3","max":[4.169684886932373,0.6033583879470825,4.158640384674072],"min":[2.2250738585072014e-308,2.2250738585072014e-308,2.2250738585072014e-308]},{"bufferView":1,"byteOffset":0,"componentType":5126,"count":4634,"type":"VEC2","max":[0.9953665733337402,0.5078086853027344],"min":[2.2250738585072014e-308,2.2250738585072014e-308]},{"bufferView":2,"byteOffset":0,"componentType":5125,"count":19527,"type":"SCALAR","max":[4633],"min":[0]},{"bufferView":3,"byteOffset":0,"componentType":5126,"count":526,"type":"VEC3","max":[4.092722415924072,0.6031847596168518,4.151798248291016],"min":[2.2250738585072014e-308,2.2250738585072014e-308,2.2250738585072014e-308]},{"bufferView":4,"byteOffset":0,"componentType":5126,"count":526,"type":"VEC2","max":[0.5659446716308594,0.720306396484375],"min":[2.2250738585072014e-308,2.2250738585072014e-308]},{"bufferView":5,"byteOffset":0,"componentType":5125,"count":2667,"type":"SCALAR","max":[525],"min":[0]}],"buffers":[{"byteLength":191976,"uri":"tile_0707.bin"}],"bufferViews":[{"buffer":0,"byteOffset":0,"byteLength":55608,"target":34962},{"buffer":0,"byteOffset":55608,"byteLength":37072,"target":34962},{"buffer":0,"byteOffset":92680,"byteLength":78108,"target":34963},{"buffer":0,"byteOffset":170788,"byteLength":6312,"target":34962},{"buffer":0,"byteOffset":177100,"byteLength":4208,"target":34962},{"buffer":0,"byteOffset":181308,"byteLength":10668,"target":34963}],"images":[{"uri":"../textures/tile_0707_material_0.jpg"},{"uri":"../textures/tile_0707_material_1.jpg"}],"materials":[{"name":"DefaultMaterial","pbrMetallicRoughness":{"baseColorFactor":[0.6000000238418579,0.6000000238418579,0.6000000238418579,1.0],"metallicFactor":0.0},"extensions":{"KHR_materials_specular":{"specularFactor":1.0,"specularColorFactor":[0.0,0.0,0.0]},"KHR_materials_ior":{"ior":1.0}}},{"name":"material_0_material","pbrMetallicRoughness":{"baseColorTexture":{"index":0},"metallicFactor":0.0},"extensions":{"KHR_materials_specular":{"specularFactor":1.0,"specularColorFactor":[0.0,0.0,0.0]},"KHR_materials_ior":{"ior":1.0}}},{"name":"material_1_material","pbrMetallicRoughness":{"baseColorTexture":{"index":1},"metallicFactor":0.0},"extensions":{"KHR_materials_specular":{"specularFactor":1.0,"specularColorFactor":[0.0,0.0,0.0]},"KHR_materials_ior":{"ior":1.0}}}],"meshes":[{"name":"defaultobject","primitives":[{"mode":4,"material":1,"indices":2,"attributes":{"POSITION":0,"TEXCOORD_0":1}},{"mode":4,"material":2,"indices":5,"attributes":{"POSITION":3,"TEXCOORD_0":4}}]}],"nodes":[{"name":"tile_0707.obj","children":[1]},{"name":"defaultobject","mesh":0}],"samplers":[{},{}],"scenes":[{"nodes":[0]}],"textures":[{"source":0,"sampler":0},{"source":1,"sampler":1}],"scene":0}
