{"asset":{"version":"2.0","generator":"Open Asset Import Library (assimp v6.0.0)"},"extensionsUsed":["KHR_materials_specular","KHR_materials_volume","KHR_materials_ior","FB_ngon_encoding"],"accessors":[{"bufferView":0,"byteOffset":0,"componentType":5126,"count":4785,"type":"VEC3","max":[-1.274860143661499,-3.1330745220184326,2.371873140335083],"min":[-1.4573508501052856,-3.5712673664093018,2.2250738585072014e-308]},{"bufferView":1,"byteOffset":0,"componentType":5126,"count":4785,"type":"VEC2","max":[0.993321418762207,0.6165370941162109],"min":[2.2250738585072014e-308,2.2250738585072014e-308]},{"bufferView":2,"byteOffset":0,"componentType":5125,"count":21261,"type":"SCALAR","max":[4784],"min":[0]},{"bufferView":3,"byteOffset":0,"componentType":5126,"count":132,"type":"VEC3","max":[-1.2797999382019043,-3.1331136226654053,2.345229148864746],"min":[-1.4103916883468628,-3.1833412647247314,2.2250738585072014e-308]},{"bufferView":4,"byteOffset":0,"componentType":5126,"count":132,"type":"VEC2","max":[0.6983184814453125,0.5707549452781677],"min":[2.2250738585072014e-308,2.2250738585072014e-308]},{"bufferView":5,"byteOffset":0,"componentType":5125,"count":570,"type":"SCALAR","max":[131],"min":[0]}],"buffers":[{"byteLength":185664,"uri":"tile_0322.bin"}],"bufferViews":[{"buffer":0,"byteOffset":0,"byteLength":57420,"target":34962},{"buffer":0,"byteOffset":57420,"byteLength":38280,"target":34962},{"buffer":0,"byteOffset":95700,"byteLength":85044,"target":34963},{"buffer":0,"byteOffset":180744,"byteLength":1584,"target":34962},{"buffer":0,"byteOffset":182328,"byteLength":1056,"target":34962},{"buffer":0,"byteOffset":183384,"byteLength":2280,"target":34963}],"images":[{"uri":"../textures/tile_0322_material_0.jpg"},{"uri":"../textures/tile_0322_material_1.jpg"}],"materials":[{"name":"DefaultMaterial","pbrMetallicRoughness":{"baseColorFactor":[0.6000000238418579,0.6000000238418579,0.6000000238418579,1.0],"metallicFactor":0.0},"extensions":{"KHR_materials_specular":{"specularFactor":1.0,"specularColorFactor":[0.0,0.0,0.0]},"KHR_materials_ior":{"ior":1.0}}},{"name":"material_0_material","pbrMetallicRoughness":{"baseColorTexture":{"index":0},"metallicFactor":0.0},"extensions":{"KHR_materials_specular":{"specularFactor":1.0,"specularColorFactor":[0.0,0.0,0.0]},"KHR_materials_ior":{"ior":1.0}}},{"name":"material_1_material","pbrMetallicRoughness":{"baseColorTexture":{"index":1},"metallicFactor":0.0},"extensions":{"KHR_materials_specular":{"specularFactor":1.0,"specularColorFactor":[0.0,0.0,0.0]},"KHR_materials_ior":{"ior":1.0}}}],"meshes":[{"name":"defaultobject","primitives":[{"mode":4,"material":1,"indices":2,"attributes":{"POSITION":0,"TEXCOORD_0":1}},{"mode":4,"material":2,"indices":5,"attributes":{"POSITION":3,"TEXCOORD_0":4}}]}],"nodes":[{"name":"tile_0322.obj","children":[1]},{"name":"defaultobject","mesh":0}],"samplers":[{},{}],"scenes":[{"nodes":[0]}],"textures":[{"source":0,"sampler":0},{"source":1,"sampler":1}],"scene":0}
