{"asset":{"version":"2.0","generator":"Open Asset Import Library (assimp v6.0.0)"},"extensionsUsed":["KHR_materials_specular","KHR_materials_volume","KHR_materials_ior","FB_ngon_encoding"],"accessors":[{"bufferView":0,"byteOffset":0,"componentType":5126,"count":1588,"type":"VEC3","max":[-6.225273132324219,2.770634174346924,4.992044448852539],"min":[-7.996469020843506,2.2250738585072014e-308,2.2250738585072014e-308]},{"bufferView":1,"byteOffset":0,"componentType":5126,"count":1588,"type":"VEC2","max":[0.9557478427886963,0.8634185791015625],"min":[2.2250738585072014e-308,2.2250738585072014e-308]},{"bufferView":2,"byteOffset":0,"componentType":5125,"count":6873,"type":"SCALAR","max":[1587],"min":[0]},{"bufferView":3,"byteOffset":0,"componentType":5126,"count":3524,"type":"VEC3","max":[-6.224517345428467,2.817207098007202,4.953599452972412],"min":[-8.392948150634766,2.2250738585072014e-308,2.2250738585072014e-308]},{"bufferView":4,"byteOffset":0,"componentType":5126,"count":3524,"type":"VEC2","max":[0.8662304878234863,0.8355541229248047],"min":[2.2250738585072014e-308,2.2250738585072014e-308]},{"bufferView":5,"byteOffset":0,"componentType":5125,"count":18522,"type":"SCALAR","max":[3523],"min":[0]}],"buffers":[{"byteLength":203820,"uri":"tile_0520.bin"}],"bufferViews":[{"buffer":0,"byteOffset":0,"byteLength":19056,"target":34962},{"buffer":0,"byteOffset":19056,"byteLength":12704,"target":34962},{"buffer":0,"byteOffset":31760,"byteLength":27492,"target":34963},{"buffer":0,"byteOffset":59252,"byteLength":42288,"target":34962},{"buffer":0,"byteOffset":101540,"byteLength":28192,"target":34962},{"buffer":0,"byteOffset":129732,"byteLength":74088,"target":34963}],"images":[{"uri":"../textures/tile_0520_material_0.jpg"},{"uri":"../textures/tile_0520_material_1.jpg"}],"materials":[{"name":"DefaultMaterial","pbrMetallicRoughness":{"baseColorFactor":[0.6000000238418579,0.6000000238418579,0.6000000238418579,1.0],"metallicFactor":0.0},"extensions":{"KHR_materials_specular":{"specularFactor":1.0,"specularColorFactor":[0.0,0.0,0.0]},"KHR_materials_ior":{"ior":1.0}}},{"name":"material_0_material","pbrMetallicRoughness":{"baseColorTexture":{"index":0},"metallicFactor":0.0},"extensions":{"KHR_materials_specular":{"specularFactor":1.0,"specularColorFactor":[0.0,0.0,0.0]},"KHR_materials_ior":{"ior":1.0}}},{"name":"material_1_material","pbrMetallicRoughness":{"baseColorTexture":{"index":1},"metallicFactor":0.0},"extensions":{"KHR_materials_specular":{"specularFactor":1.0,"specularColorFactor":[0.0,0.0,0.0]},"KHR_materials_ior":{"ior":1.0}}}],"meshes":[{"name":"defaultobject","primitives":[{"mode":4,"material":1,"indices":2,"attributes":{"POSITION":0,"TEXCOORD_0":1}},{"mode":4,"material":2,"indices":5,"attributes":{"POSITION":3,"TEXCOORD_0":4}}]}],"nodes":[{"name":"tile_0520.obj","children":[1]},{"name":"defaultobject","mesh":0}],"samplers":[{},{}],"scenes":[{"nodes":[0]}],"textures":[{"source":0,"sampler":0},{"source":1,"sampler":1}],"scene":0}
