{"asset":{"version":"2.0","generator":"Open Asset Import Library (assimp v6.0.0)"},"extensionsUsed":["KHR_materials_specular","KHR_materials_volume","KHR_materials_ior","FB_ngon_encoding"],"accessors":[{"bufferView":0,"byteOffset":0,"componentType":5126,"count":4388,"type":"VEC3","max":[2.0638372898101807,3.40079927444458,4.450904369354248],"min":[2.2250738585072014e-308,2.2250738585072014e-308,2.2250738585072014e-308]},{"bufferView":1,"byteOffset":0,"componentType":5126,"count":4388,"type":"VEC2","max":[0.9917888641357422,0.828033447265625],"min":[2.2250738585072014e-308,2.2250738585072014e-308]},{"bufferView":2,"byteOffset":0,"componentType":5125,"count":18111,"type":"SCALAR","max":[4387],"min":[0]},{"bufferView":3,"byteOffset":0,"componentType":5126,"count":376,"type":"VEC3","max":[2.062839984893799,3.3992698192596436,4.428046226501465],"min":[2.2250738585072014e-308,2.2250738585072014e-308,2.2250738585072014e-308]},{"bufferView":4,"byteOffset":0,"componentType":5126,"count":376,"type":"VEC2","max":[0.9442253112792969,0.7186050415039062],"min":[2.2250738585072014e-308,2.2250738585072014e-308]},{"bufferView":5,"byteOffset":0,"componentType":5125,"count":1605,"type":"SCALAR","max":[375],"min":[0]}],"buffers":[{"byteLength":174144,"uri":"tile_0661.bin"}],"bufferViews":[{"buffer":0,"byteOffset":0,"byteLength":52656,"target":34962},{"buffer":0,"byteOffset":52656,"byteLength":35104,"target":34962},{"buffer":0,"byteOffset":87760,"byteLength":72444,"target":34963},{"buffer":0,"byteOffset":160204,"byteLength":4512,"target":34962},{"buffer":0,"byteOffset":164716,"byteLength":3008,"target":34962},{"buffer":0,"byteOffset":167724,"byteLength":6420,"target":34963}],"images":[{"uri":"../textures/tile_0661_material_0.jpg"},{"uri":"../textures/tile_0661_material_1.jpg"}],"materials":[{"name":"DefaultMaterial","pbrMetallicRoughness":{"baseColorFactor":[0.6000000238418579,0.6000000238418579,0.6000000238418579,1.0],"metallicFactor":0.0},"extensions":{"KHR_materials_specular":{"specularFactor":1.0,"specularColorFactor":[0.0,0.0,0.0]},"KHR_materials_ior":{"ior":1.0}}},{"name":"material_0_material","pbrMetallicRoughness":{"baseColorTexture":{"index":0},"metallicFactor":0.0},"extensions":{"KHR_materials_specular":{"specularFactor":1.0,"specularColorFactor":[0.0,0.0,0.0]},"KHR_materials_ior":{"ior":1.0}}},{"name":"material_1_material","pbrMetallicRoughness":{"baseColorTexture":{"index":1},"metallicFactor":0.0},"extensions":{"KHR_materials_specular":{"specularFactor":1.0,"specularColorFactor":[0.0,0.0,0.0]},"KHR_materials_ior":{"ior":1.0}}}],"meshes":[{"name":"defaultobject","primitives":[{"mode":4,"material":1,"indices":2,"attributes":{"POSITION":0,"TEXCOORD_0":1}},{"mode":4,"material":2,"indices":5,"attributes":{"POSITION":3,"TEXCOORD_0":4}}]}],"nodes":[{"name":"tile_0661.obj","children":[1]},{"name":"defaultobject","mesh":0}],"samplers":[{},{}],"scenes":[{"nodes":[0]}],"textures":[{"source":0,"sampler":0},{"source":1,"sampler":1}],"scene":0}
