{"asset":{"version":"2.0","generator":"Open Asset Import Library (assimp v6.0.0)"},"extensionsUsed":["KHR_materials_specular","KHR_materials_volume","KHR_materials_ior","FB_ngon_encoding"],"accessors":[{"bufferView":0,"byteOffset":0,"componentType":5126,"count":4523,"type":"VEC3","max":[-0.6010129451751709,-4.834053039550781,2.4778506755828857],"min":[-0.7969532012939453,-5.222336292266846,2.2250738585072014e-308]},{"bufferView":1,"byteOffset":0,"componentType":5126,"count":4523,"type":"VEC2","max":[0.9917235374450684,0.6273689270019531],"min":[2.2250738585072014e-308,2.2250738585072014e-308]},{"bufferView":2,"byteOffset":0,"componentType":5125,"count":19701,"type":"SCALAR","max":[4522],"min":[0]},{"bufferView":3,"byteOffset":0,"componentType":5126,"count":802,"type":"VEC3","max":[-0.6555798053741455,-4.832716464996338,2.478264331817627],"min":[-0.7909694910049438,-5.220423698425293,2.2250738585072014e-308]},{"bufferView":4,"byteOffset":0,"componentType":5126,"count":802,"type":"VEC2","max":[0.5119915008544922,0.8671035766601562],"min":[2.2250738585072014e-308,2.2250738585072014e-308]},{"bufferView":5,"byteOffset":0,"componentType":5125,"count":3954,"type":"SCALAR","max":[801],"min":[0]}],"buffers":[{"byteLength":201120,"uri":"tile_0346.bin"}],"bufferViews":[{"buffer":0,"byteOffset":0,"byteLength":54276,"target":34962},{"buffer":0,"byteOffset":54276,"byteLength":36184,"target":34962},{"buffer":0,"byteOffset":90460,"byteLength":78804,"target":34963},{"buffer":0,"byteOffset":169264,"byteLength":9624,"target":34962},{"buffer":0,"byteOffset":178888,"byteLength":6416,"target":34962},{"buffer":0,"byteOffset":185304,"byteLength":15816,"target":34963}],"images":[{"uri":"../textures/tile_0346_material_0.jpg"},{"uri":"../textures/tile_0346_material_1.jpg"}],"materials":[{"name":"DefaultMaterial","pbrMetallicRoughness":{"baseColorFactor":[0.6000000238418579,0.6000000238418579,0.6000000238418579,1.0],"metallicFactor":0.0},"extensions":{"KHR_materials_specular":{"specularFactor":1.0,"specularColorFactor":[0.0,0.0,0.0]},"KHR_materials_ior":{"ior":1.0}}},{"name":"material_0_material","pbrMetallicRoughness":{"baseColorTexture":{"index":0},"metallicFactor":0.0},"extensions":{"KHR_materials_specular":{"specularFactor":1.0,"specularColorFactor":[0.0,0.0,0.0]},"KHR_materials_ior":{"ior":1.0}}},{"name":"material_1_material","pbrMetallicRoughness":{"baseColorTexture":{"index":1},"metallicFactor":0.0},"extensions":{"KHR_materials_specular":{"specularFactor":1.0,"specularColorFactor":[0.0,0.0,0.0]},"KHR_materials_ior":{"ior":1.0}}}],"meshes":[{"name":"defaultobject","primitives":[{"mode":4,"material":1,"indices":2,"attributes":{"POSITION":0,"TEXCOORD_0":1}},{"mode":4,"material":2,"indices":5,"attributes":{"POSITION":3,"TEXCOORD_0":4}}]}],"nodes":[{"name":"tile_0346.obj","children":[1]},{"name":"defaultobject","mesh":0}],"samplers":[{},{}],"scenes":[{"nodes":[0]}],"textures":[{"source":0,"sampler":0},{"source":1,"sampler":1}],"scene":0}
