{"asset":{"version":"2.0","generator":"Open Asset Import Library (assimp v6.0.0)"},"extensionsUsed":["KHR_materials_specular","KHR_materials_volume","KHR_materials_ior","FB_ngon_encoding"],"accessors":[{"bufferView":0,"byteOffset":0,"componentType":5126,"count":4094,"type":"VEC3","max":[-0.4168837070465088,1.1600064039230347,4.214554309844971],"min":[-0.6971439719200134,2.2250738585072014e-308,2.2250738585072014e-308]},{"bufferView":1,"byteOffset":0,"componentType":5126,"count":4094,"type":"VEC2","max":[0.9787912368774414,0.9445915222167969],"min":[2.2250738585072014e-308,2.2250738585072014e-308]},{"bufferView":2,"byteOffset":0,"componentType":5125,"count":18390,"type":"SCALAR","max":[4093],"min":[0]},{"bufferView":3,"byteOffset":0,"componentType":5126,"count":1160,"type":"VEC3","max":[-0.41999906301498413,0.948619544506073,4.212753772735596],"min":[-0.6969724297523499,2.2250738585072014e-308,2.2250738585072014e-308]},{"bufferView":4,"byteOffset":0,"componentType":5126,"count":1160,"type":"VEC2","max":[0.5034351348876953,0.7208404541015625],"min":[2.2250738585072014e-308,2.2250738585072014e-308]},{"bufferView":5,"byteOffset":0,"componentType":5125,"count":5868,"type":"SCALAR","max":[1159],"min":[0]}],"buffers":[{"byteLength":202112,"uri":"tile_0139.bin"}],"bufferViews":[{"buffer":0,"byteOffset":0,"byteLength":49128,"target":34962},{"buffer":0,"byteOffset":49128,"byteLength":32752,"target":34962},{"buffer":0,"byteOffset":81880,"byteLength":73560,"target":34963},{"buffer":0,"byteOffset":155440,"byteLength":13920,"target":34962},{"buffer":0,"byteOffset":169360,"byteLength":9280,"target":34962},{"buffer":0,"byteOffset":178640,"byteLength":23472,"target":34963}],"images":[{"uri":"../textures/tile_0139_material_0.jpg"},{"uri":"../textures/tile_0139_material_1.jpg"}],"materials":[{"name":"DefaultMaterial","pbrMetallicRoughness":{"baseColorFactor":[0.6000000238418579,0.6000000238418579,0.6000000238418579,1.0],"metallicFactor":0.0},"extensions":{"KHR_materials_specular":{"specularFactor":1.0,"specularColorFactor":[0.0,0.0,0.0]},"KHR_materials_ior":{"ior":1.0}}},{"name":"material_0_material","pbrMetallicRoughness":{"baseColorTexture":{"index":0},"metallicFactor":0.0},"extensions":{"KHR_materials_specular":{"specularFactor":1.0,"specularColorFactor":[0.0,0.0,0.0]},"KHR_materials_ior":{"ior":1.0}}},{"name":"material_1_material","pbrMetallicRoughness":{"baseColorTexture":{"index":1},"metallicFactor":0.0},"extensions":{"KHR_materials_specular":{"specularFactor":1.0,"specularColorFactor":[0.0,0.0,0.0]},"KHR_materials_ior":{"ior":1.0}}}],"meshes":[{"name":"defaultobject","primitives":[{"mode":4,"material":1,"indices":2,"attributes":{"POSITION":0,"TEXCOORD_0":1}},{"mode":4,"material":2,"indices":5,"attributes":{"POSITION":3,"TEXCOORD_0":4}}]}],"nodes":[{"name":"tile_0139.obj","children":[1]},{"name":"defaultobject","mesh":0}],"samplers":[{},{}],"scenes":[{"nodes":[0]}],"textures":[{"source":0,"sampler":0},{"source":1,"sampler":1}],"scene":0}
