{"asset":{"version":"2.0","generator":"Open Asset Import Library (assimp v6.0.0)"},"extensionsUsed":["KHR_materials_specular","KHR_materials_volume","KHR_materials_ior","FB_ngon_encoding"],"accessors":[{"bufferView":0,"byteOffset":0,"componentType":5126,"count":3722,"type":"VEC3","max":[-0.41633281111717224,2.4764575958251953,4.488489151000977],"min":[-0.7623524069786072,2.2250738585072014e-308,2.2250738585072014e-308]},{"bufferView":1,"byteOffset":0,"componentType":5126,"count":3722,"type":"VEC2","max":[0.9878745079040527,0.5468025207519531],"min":[2.2250738585072014e-308,2.2250738585072014e-308]},{"bufferView":2,"byteOffset":0,"componentType":5125,"count":16503,"type":"SCALAR","max":[3721],"min":[0]},{"bufferView":3,"byteOffset":0,"componentType":5126,"count":1031,"type":"VEC3","max":[-0.41692712903022766,2.4735147953033447,4.461627960205078],"min":[-0.7711092233657837,2.2250738585072014e-308,2.2250738585072014e-308]},{"bufferView":4,"byteOffset":0,"componentType":5126,"count":1031,"type":"VEC2","max":[0.5571894645690918,0.8773040771484375],"min":[2.2250738585072014e-308,2.2250738585072014e-308]},{"bufferView":5,"byteOffset":0,"componentType":5125,"count":5088,"type":"SCALAR","max":[1030],"min":[0]}],"buffers":[{"byteLength":181424,"uri":"tile_0507.bin"}],"bufferViews":[{"buffer":0,"byteOffset":0,"byteLength":44664,"target":34962},{"buffer":0,"byteOffset":44664,"byteLength":29776,"target":34962},{"buffer":0,"byteOffset":74440,"byteLength":66012,"target":34963},{"buffer":0,"byteOffset":140452,"byteLength":12372,"target":34962},{"buffer":0,"byteOffset":152824,"byteLength":8248,"target":34962},{"buffer":0,"byteOffset":161072,"byteLength":20352,"target":34963}],"images":[{"uri":"../textures/tile_0507_material_0.jpg"},{"uri":"../textures/tile_0507_material_1.jpg"}],"materials":[{"name":"DefaultMaterial","pbrMetallicRoughness":{"baseColorFactor":[0.6000000238418579,0.6000000238418579,0.6000000238418579,1.0],"metallicFactor":0.0},"extensions":{"KHR_materials_specular":{"specularFactor":1.0,"specularColorFactor":[0.0,0.0,0.0]},"KHR_materials_ior":{"ior":1.0}}},{"name":"material_0_material","pbrMetallicRoughness":{"baseColorTexture":{"index":0},"metallicFactor":0.0},"extensions":{"KHR_materials_specular":{"specularFactor":1.0,"specularColorFactor":[0.0,0.0,0.0]},"KHR_materials_ior":{"ior":1.0}}},{"name":"material_1_material","pbrMetallicRoughness":{"baseColorTexture":{"index":1},"metallicFactor":0.0},"extensions":{"KHR_materials_specular":{"specularFactor":1.0,"specularColorFactor":[0.0,0.0,0.0]},"KHR_materials_ior":{"ior":1.0}}}],"meshes":[{"name":"defaultobject","primitives":[{"mode":4,"material":1,"indices":2,"attributes":{"POSITION":0,"TEXCOORD_0":1}},{"mode":4,"material":2,"indices":5,"attributes":{"POSITION":3,"TEXCOORD_0":4}}]}],"nodes":[{"name":"tile_0507.obj","children":[1]},{"name":"defaultobject","mesh":0}],"samplers":[{},{}],"scenes":[{"nodes":[0]}],"textures":[{"source":0,"sampler":0},{"source":1,"sampler":1}],"scene":0}
