{"asset":{"version":"2.0","generator":"Open Asset Import Library (assimp v6.0.0)"},"extensionsUsed":["KHR_materials_specular","KHR_materials_volume","KHR_materials_ior","FB_ngon_encoding"],"accessors":[{"bufferView":0,"byteOffset":0,"componentType":5126,"count":2262,"type":"VEC3","max":[5.0098466873168945,-2.383206367492676,3.906789541244507],"min":[2.2250738585072014e-308,-2.7241830825805664,2.2250738585072014e-308]},{"bufferView":1,"byteOffset":0,"componentType":5126,"count":2262,"type":"VEC2","max":[0.9807109832763672,0.5072860717773438],"min":[2.2250738585072014e-308,2.2250738585072014e-308]},{"bufferView":2,"byteOffset":0,"componentType":5125,"count":10878,"type":"SCALAR","max":[2261],"min":[0]},{"bufferView":3,"byteOffset":0,"componentType":5126,"count":1680,"type":"VEC3","max":[5.019204616546631,-2.3768913745880127,3.956655263900757],"min":[2.2250738585072014e-308,-2.7459988594055176,2.2250738585072014e-308]},{"bufferView":4,"byteOffset":0,"componentType":5126,"count":1680,"type":"VEC2","max":[0.968440055847168,0.5377864837646484],"min":[2.2250738585072014e-308,2.2250738585072014e-308]},{"bufferView":5,"byteOffset":0,"componentType":5125,"count":8478,"type":"SCALAR","max":[1679],"min":[0]}],"buffers":[{"byteLength":156264,"uri":"tile_0718.bin"}],"bufferViews":[{"buffer":0,"byteOffset":0,"byteLength":27144,"target":34962},{"buffer":0,"byteOffset":27144,"byteLength":18096,"target":34962},{"buffer":0,"byteOffset":45240,"byteLength":43512,"target":34963},{"buffer":0,"byteOffset":88752,"byteLength":20160,"target":34962},{"buffer":0,"byteOffset":108912,"byteLength":13440,"target":34962},{"buffer":0,"byteOffset":122352,"byteLength":33912,"target":34963}],"images":[{"uri":"../textures/tile_0718_material_0.jpg"},{"uri":"../textures/tile_0718_material_1.jpg"}],"materials":[{"name":"DefaultMaterial","pbrMetallicRoughness":{"baseColorFactor":[0.6000000238418579,0.6000000238418579,0.6000000238418579,1.0],"metallicFactor":0.0},"extensions":{"KHR_materials_specular":{"specularFactor":1.0,"specularColorFactor":[0.0,0.0,0.0]},"KHR_materials_ior":{"ior":1.0}}},{"name":"material_0_material","pbrMetallicRoughness":{"baseColorTexture":{"index":0},"metallicFactor":0.0},"extensions":{"KHR_materials_specular":{"specularFactor":1.0,"specularColorFactor":[0.0,0.0,0.0]},"KHR_materials_ior":{"ior":1.0}}},{"name":"material_1_material","pbrMetallicRoughness":{"baseColorTexture":{"index":1},"metallicFactor":0.0},"extensions":{"KHR_materials_specular":{"specularFactor":1.0,"specularColorFactor":[0.0,0.0,0.0]},"KHR_materials_ior":{"ior":1.0}}}],"meshes":[{"name":"defaultobject","primitives":[{"mode":4,"material":1,"indices":2,"attributes":{"POSITION":0,"TEXCOORD_0":1}},{"mode":4,"material":2,"indices":5,"attributes":{"POSITION":3,"TEXCOORD_0":4}}]}],"nodes":[{"name":"tile_0718.obj","children":[1]},{"name":"defaultobject","mesh":0}],"samplers":[{},{}],"scenes":[{"nodes":[0]}],"textures":[{"source":0,"sampler":0},{"source":1,"sampler":1}],"scene":0}
