{"asset":{"version":"2.0","generator":"Open Asset Import Library (assimp v6.0.0)"},"extensionsUsed":["KHR_materials_specular","KHR_materials_volume","KHR_materials_ior","FB_ngon_encoding"],"accessors":[{"bufferView":0,"byteOffset":0,"componentType":5126,"count":6825,"type":"VEC3","max":[2.9171338081359863,-1.9002336263656616,3.7629497051239014],"min":[2.2250738585072014e-308,-2.17868971824646,2.2250738585072014e-308]},{"bufferView":1,"byteOffset":0,"componentType":5126,"count":6825,"type":"VEC2","max":[0.9947652816772461,0.7264232635498047],"min":[2.2250738585072014e-308,2.2250738585072014e-308]},{"bufferView":2,"byteOffset":0,"componentType":5125,"count":29982,"type":"SCALAR","max":[6824],"min":[0]},{"bufferView":3,"byteOffset":0,"componentType":5126,"count":675,"type":"VEC3","max":[2.845161199569702,-1.9394125938415527,3.620291233062744],"min":[2.2250738585072014e-308,-2.1520230770111084,2.2250738585072014e-308]},{"bufferView":4,"byteOffset":0,"componentType":5126,"count":675,"type":"VEC2","max":[0.6143207550048828,0.9614715576171875],"min":[2.2250738585072014e-308,2.2250738585072014e-308]},{"bufferView":5,"byteOffset":0,"componentType":5125,"count":3432,"type":"SCALAR","max":[674],"min":[0]}],"buffers":[{"byteLength":283656,"uri":"tile_0225.bin"}],"bufferViews":[{"buffer":0,"byteOffset":0,"byteLength":81900,"target":34962},{"buffer":0,"byteOffset":81900,"byteLength":54600,"target":34962},{"buffer":0,"byteOffset":136500,"byteLength":119928,"target":34963},{"buffer":0,"byteOffset":256428,"byteLength":8100,"target":34962},{"buffer":0,"byteOffset":264528,"byteLength":5400,"target":34962},{"buffer":0,"byteOffset":269928,"byteLength":13728,"target":34963}],"images":[{"uri":"../textures/tile_0225_material_0.jpg"},{"uri":"../textures/tile_0225_material_1.jpg"}],"materials":[{"name":"DefaultMaterial","pbrMetallicRoughness":{"baseColorFactor":[0.6000000238418579,0.6000000238418579,0.6000000238418579,1.0],"metallicFactor":0.0},"extensions":{"KHR_materials_specular":{"specularFactor":1.0,"specularColorFactor":[0.0,0.0,0.0]},"KHR_materials_ior":{"ior":1.0}}},{"name":"material_0_material","pbrMetallicRoughness":{"baseColorTexture":{"index":0},"metallicFactor":0.0},"extensions":{"KHR_materials_specular":{"specularFactor":1.0,"specularColorFactor":[0.0,0.0,0.0]},"KHR_materials_ior":{"ior":1.0}}},{"name":"material_1_material","pbrMetallicRoughness":{"baseColorTexture":{"index":1},"metallicFactor":0.0},"extensions":{"KHR_materials_specular":{"specularFactor":1.0,"specularColorFactor":[0.0,0.0,0.0]},"KHR_materials_ior":{"ior":1.0}}}],"meshes":[{"name":"defaultobject","primitives":[{"mode":4,"material":1,"indices":2,"attributes":{"POSITION":0,"TEXCOORD_0":1}},{"mode":4,"material":2,"indices":5,"attributes":{"POSITION":3,"TEXCOORD_0":4}}]}],"nodes":[{"name":"tile_0225.obj","children":[1]},{"name":"defaultobject","mesh":0}],"samplers":[{},{}],"scenes":[{"nodes":[0]}],"textures":[{"source":0,"sampler":0},{"source":1,"sampler":1}],"scene":0}
