{"asset":{"version":"2.0","generator":"Open Asset Import Library (assimp v6.0.0)"},"extensionsUsed":["KHR_materials_specular","KHR_materials_volume","KHR_materials_ior","FB_ngon_encoding"],"accessors":[{"bufferView":0,"byteOffset":0,"componentType":5126,"count":3580,"type":"VEC3","max":[-2.7363481521606445,-0.45391714572906494,4.137962818145752],"min":[-3.081848621368408,-0.7893545627593994,2.2250738585072014e-308]},{"bufferView":1,"byteOffset":0,"componentType":5126,"count":3580,"type":"VEC2","max":[0.9711682796478271,0.4907855987548828],"min":[2.2250738585072014e-308,2.2250738585072014e-308]},{"bufferView":2,"byteOffset":0,"componentType":5125,"count":17046,"type":"SCALAR","max":[3579],"min":[0]},{"bufferView":3,"byteOffset":0,"componentType":5126,"count":1907,"type":"VEC3","max":[-2.846831798553467,-0.45741352438926697,4.131185054779053],"min":[-3.0762739181518555,-0.7719199061393738,2.2250738585072014e-308]},{"bufferView":4,"byteOffset":0,"componentType":5126,"count":1907,"type":"VEC2","max":[0.5598263740539551,0.8542804718017578],"min":[2.2250738585072014e-308,2.2250738585072014e-308]},{"bufferView":5,"byteOffset":0,"componentType":5125,"count":10122,"type":"SCALAR","max":[1906],"min":[0]}],"buffers":[{"byteLength":218412,"uri":"tile_0413.bin"}],"bufferViews":[{"buffer":0,"byteOffset":0,"byteLength":42960,"target":34962},{"buffer":0,"byteOffset":42960,"byteLength":28640,"target":34962},{"buffer":0,"byteOffset":71600,"byteLength":68184,"target":34963},{"buffer":0,"byteOffset":139784,"byteLength":22884,"target":34962},{"buffer":0,"byteOffset":162668,"byteLength":15256,"target":34962},{"buffer":0,"byteOffset":177924,"byteLength":40488,"target":34963}],"images":[{"uri":"../textures/tile_0413_material_0.jpg"},{"uri":"../textures/tile_0413_material_1.jpg"}],"materials":[{"name":"DefaultMaterial","pbrMetallicRoughness":{"baseColorFactor":[0.6000000238418579,0.6000000238418579,0.6000000238418579,1.0],"metallicFactor":0.0},"extensions":{"KHR_materials_specular":{"specularFactor":1.0,"specularColorFactor":[0.0,0.0,0.0]},"KHR_materials_ior":{"ior":1.0}}},{"name":"material_0_material","pbrMetallicRoughness":{"baseColorTexture":{"index":0},"metallicFactor":0.0},"extensions":{"KHR_materials_specular":{"specularFactor":1.0,"specularColorFactor":[0.0,0.0,0.0]},"KHR_materials_ior":{"ior":1.0}}},{"name":"material_1_material","pbrMetallicRoughness":{"baseColorTexture":{"index":1},"metallicFactor":0.0},"extensions":{"KHR_materials_specular":{"specularFactor":1.0,"specularColorFactor":[0.0,0.0,0.0]},"KHR_materials_ior":{"ior":1.0}}}],"meshes":[{"name":"defaultobject","primitives":[{"mode":4,"material":1,"indices":2,"attributes":{"POSITION":0,"TEXCOORD_0":1}},{"mode":4,"material":2,"indices":5,"attributes":{"POSITION":3,"TEXCOORD_0":4}}]}],"nodes":[{"name":"tile_0413.obj","children":[1]},{"name":"defaultobject","mesh":0}],"samplers":[{},{}],"scenes":[{"nodes":[0]}],"textures":[{"source":0,"sampler":0},{"source":1,"sampler":1}],"scene":0}
