{"asset":{"version":"2.0","generator":"Open Asset Import Library (assimp v6.0.0)"},"extensionsUsed":["KHR_materials_specular","KHR_materials_volume","KHR_materials_ior","FB_ngon_encoding"],"accessors":[{"bufferView":0,"byteOffset":0,"componentType":5126,"count":3686,"type":"VEC3","max":[0.19364769756793976,1.7311338186264038,4.332032203674316],"min":[-0.11259258538484573,2.2250738585072014e-308,2.2250738585072014e-308]},{"bufferView":1,"byteOffset":0,"componentType":5126,"count":3686,"type":"VEC2","max":[0.9913277626037598,0.7963485717773438],"min":[2.2250738585072014e-308,2.2250738585072014e-308]},{"bufferView":2,"byteOffset":0,"componentType":5125,"count":15792,"type":"SCALAR","max":[3685],"min":[0]},{"bufferView":3,"byteOffset":0,"componentType":5126,"count":516,"type":"VEC3","max":[0.11912285536527634,1.5672876834869385,4.300854682922363],"min":[-0.11124145984649658,2.2250738585072014e-308,2.2250738585072014e-308]},{"bufferView":4,"byteOffset":0,"componentType":5126,"count":516,"type":"VEC2","max":[0.950721800327301,0.5363273620605469],"min":[2.2250738585072014e-308,2.2250738585072014e-308]},{"bufferView":5,"byteOffset":0,"componentType":5125,"count":2562,"type":"SCALAR","max":[515],"min":[0]}],"buffers":[{"byteLength":157456,"uri":"tile_0689.bin"}],"bufferViews":[{"buffer":0,"byteOffset":0,"byteLength":44232,"target":34962},{"buffer":0,"byteOffset":44232,"byteLength":29488,"target":34962},{"buffer":0,"byteOffset":73720,"byteLength":63168,"target":34963},{"buffer":0,"byteOffset":136888,"byteLength":6192,"target":34962},{"buffer":0,"byteOffset":143080,"byteLength":4128,"target":34962},{"buffer":0,"byteOffset":147208,"byteLength":10248,"target":34963}],"images":[{"uri":"../textures/tile_0689_material_0.jpg"},{"uri":"../textures/tile_0689_material_1.jpg"}],"materials":[{"name":"DefaultMaterial","pbrMetallicRoughness":{"baseColorFactor":[0.6000000238418579,0.6000000238418579,0.6000000238418579,1.0],"metallicFactor":0.0},"extensions":{"KHR_materials_specular":{"specularFactor":1.0,"specularColorFactor":[0.0,0.0,0.0]},"KHR_materials_ior":{"ior":1.0}}},{"name":"material_0_material","pbrMetallicRoughness":{"baseColorTexture":{"index":0},"metallicFactor":0.0},"extensions":{"KHR_materials_specular":{"specularFactor":1.0,"specularColorFactor":[0.0,0.0,0.0]},"KHR_materials_ior":{"ior":1.0}}},{"name":"material_1_material","pbrMetallicRoughness":{"baseColorTexture":{"index":1},"metallicFactor":0.0},"extensions":{"KHR_materials_specular":{"specularFactor":1.0,"specularColorFactor":[0.0,0.0,0.0]},"KHR_materials_ior":{"ior":1.0}}}],"meshes":[{"name":"defaultobject","primitives":[{"mode":4,"material":1,"indices":2,"attributes":{"POSITION":0,"TEXCOORD_0":1}},{"mode":4,"material":2,"indices":5,"attributes":{"POSITION":3,"TEXCOORD_0":4}}]}],"nodes":[{"name":"tile_0689.obj","children":[1]},{"name":"defaultobject","mesh":0}],"samplers":[{},{}],"scenes":[{"nodes":[0]}],"textures":[{"source":0,"sampler":0},{"source":1,"sampler":1}],"scene":0}
