{"asset":{"version":"2.0","generator":"Open Asset Import Library (assimp v6.0.0)"},"extensionsUsed":["KHR_materials_specular","KHR_materials_volume","KHR_materials_ior","FB_ngon_encoding"],"accessors":[{"bufferView":0,"byteOffset":0,"componentType":5126,"count":5008,"type":"VEC3","max":[1.3818777799606323,-0.9877148270606995,3.1514341831207275],"min":[2.2250738585072014e-308,-1.2556487321853638,2.2250738585072014e-308]},{"bufferView":1,"byteOffset":0,"componentType":5126,"count":5008,"type":"VEC2","max":[0.9953160285949707,0.7298107147216797],"min":[2.2250738585072014e-308,2.2250738585072014e-308]},{"bufferView":2,"byteOffset":0,"componentType":5125,"count":21888,"type":"SCALAR","max":[5007],"min":[0]},{"bufferView":3,"byteOffset":0,"componentType":5126,"count":509,"type":"VEC3","max":[1.3876152038574219,-1.031315565109253,3.0950512886047363],"min":[2.2250738585072014e-308,-1.2544876337051392,2.2250738585072014e-308]},{"bufferView":4,"byteOffset":0,"componentType":5126,"count":509,"type":"VEC2","max":[0.5634651184082031,0.6805953979492188],"min":[2.2250738585072014e-308,2.2250738585072014e-308]},{"bufferView":5,"byteOffset":0,"componentType":5125,"count":2526,"type":"SCALAR","max":[508],"min":[0]}],"buffers":[{"byteLength":207996,"uri":"tile_0271.bin"}],"bufferViews":[{"buffer":0,"byteOffset":0,"byteLength":60096,"target":34962},{"buffer":0,"byteOffset":60096,"byteLength":40064,"target":34962},{"buffer":0,"byteOffset":100160,"byteLength":87552,"target":34963},{"buffer":0,"byteOffset":187712,"byteLength":6108,"target":34962},{"buffer":0,"byteOffset":193820,"byteLength":4072,"target":34962},{"buffer":0,"byteOffset":197892,"byteLength":10104,"target":34963}],"images":[{"uri":"../textures/tile_0271_material_0.jpg"},{"uri":"../textures/tile_0271_material_1.jpg"}],"materials":[{"name":"DefaultMaterial","pbrMetallicRoughness":{"baseColorFactor":[0.6000000238418579,0.6000000238418579,0.6000000238418579,1.0],"metallicFactor":0.0},"extensions":{"KHR_materials_specular":{"specularFactor":1.0,"specularColorFactor":[0.0,0.0,0.0]},"KHR_materials_ior":{"ior":1.0}}},{"name":"material_0_material","pbrMetallicRoughness":{"baseColorTexture":{"index":0},"metallicFactor":0.0},"extensions":{"KHR_materials_specular":{"specularFactor":1.0,"specularColorFactor":[0.0,0.0,0.0]},"KHR_materials_ior":{"ior":1.0}}},{"name":"material_1_material","pbrMetallicRoughness":{"baseColorTexture":{"index":1},"metallicFactor":0.0},"extensions":{"KHR_materials_specular":{"specularFactor":1.0,"specularColorFactor":[0.0,0.0,0.0]},"KHR_materials_ior":{"ior":1.0}}}],"meshes":[{"name":"defaultobject","primitives":[{"mode":4,"material":1,"indices":2,"attributes":{"POSITION":0,"TEXCOORD_0":1}},{"mode":4,"material":2,"indices":5,"attributes":{"POSITION":3,"TEXCOORD_0":4}}]}],"nodes":[{"name":"tile_0271.obj","children":[1]},{"name":"defaultobject","mesh":0}],"samplers":[{},{}],"scenes":[{"nodes":[0]}],"textures":[{"source":0,"sampler":0},{"source":1,"sampler":1}],"scene":0}
