{"asset":{"version":"2.0","generator":"Open Asset Import Library (assimp v6.0.0)"},"extensionsUsed":["KHR_materials_specular","KHR_materials_volume","KHR_materials_ior","FB_ngon_encoding"],"accessors":[{"bufferView":0,"byteOffset":0,"componentType":5126,"count":4119,"type":"VEC3","max":[-3.8819289207458496,2.751770496368408,4.486453056335449],"min":[-4.296648025512695,2.2250738585072014e-308,2.2250738585072014e-308]},{"bufferView":1,"byteOffset":0,"componentType":5126,"count":4119,"type":"VEC2","max":[0.9955935478210449,0.5067176818847656],"min":[2.2250738585072014e-308,2.2250738585072014e-308]},{"bufferView":2,"byteOffset":0,"componentType":5125,"count":18642,"type":"SCALAR","max":[4118],"min":[0]},{"bufferView":3,"byteOffset":0,"componentType":5126,"count":802,"type":"VEC3","max":[-3.8796279430389404,2.7516849040985107,4.458284854888916],"min":[-4.291351795196533,2.2250738585072014e-308,2.2250738585072014e-308]},{"bufferView":4,"byteOffset":0,"componentType":5126,"count":802,"type":"VEC2","max":[0.9025115966796875,0.9606857299804688],"min":[2.2250738585072014e-308,2.2250738585072014e-308]},{"bufferView":5,"byteOffset":0,"componentType":5125,"count":4095,"type":"SCALAR","max":[801],"min":[0]}],"buffers":[{"byteLength":189368,"uri":"tile_0563.bin"}],"bufferViews":[{"buffer":0,"byteOffset":0,"byteLength":49428,"target":34962},{"buffer":0,"byteOffset":49428,"byteLength":32952,"target":34962},{"buffer":0,"byteOffset":82380,"byteLength":74568,"target":34963},{"buffer":0,"byteOffset":156948,"byteLength":9624,"target":34962},{"buffer":0,"byteOffset":166572,"byteLength":6416,"target":34962},{"buffer":0,"byteOffset":172988,"byteLength":16380,"target":34963}],"images":[{"uri":"../textures/tile_0563_material_0.jpg"},{"uri":"../textures/tile_0563_material_1.jpg"}],"materials":[{"name":"DefaultMaterial","pbrMetallicRoughness":{"baseColorFactor":[0.6000000238418579,0.6000000238418579,0.6000000238418579,1.0],"metallicFactor":0.0},"extensions":{"KHR_materials_specular":{"specularFactor":1.0,"specularColorFactor":[0.0,0.0,0.0]},"KHR_materials_ior":{"ior":1.0}}},{"name":"material_0_material","pbrMetallicRoughness":{"baseColorTexture":{"index":0},"metallicFactor":0.0},"extensions":{"KHR_materials_specular":{"specularFactor":1.0,"specularColorFactor":[0.0,0.0,0.0]},"KHR_materials_ior":{"ior":1.0}}},{"name":"material_1_material","pbrMetallicRoughness":{"baseColorTexture":{"index":1},"metallicFactor":0.0},"extensions":{"KHR_materials_specular":{"specularFactor":1.0,"specularColorFactor":[0.0,0.0,0.0]},"KHR_materials_ior":{"ior":1.0}}}],"meshes":[{"name":"defaultobject","primitives":[{"mode":4,"material":1,"indices":2,"attributes":{"POSITION":0,"TEXCOORD_0":1}},{"mode":4,"material":2,"indices":5,"attributes":{"POSITION":3,"TEXCOORD_0":4}}]}],"nodes":[{"name":"tile_0563.obj","children":[1]},{"name":"defaultobject","mesh":0}],"samplers":[{},{}],"scenes":[{"nodes":[0]}],"textures":[{"source":0,"sampler":0},{"source":1,"sampler":1}],"scene":0}
