{"asset":{"version":"2.0","generator":"Open Asset Import Library (assimp v6.0.0)"},"extensionsUsed":["KHR_materials_specular","KHR_materials_volume","KHR_materials_ior","FB_ngon_encoding"],"accessors":[{"bufferView":0,"byteOffset":0,"componentType":5126,"count":3743,"type":"VEC3","max":[0.7127478718757629,-0.7759202122688293,3.274897813796997],"min":[2.2250738585072014e-308,-1.0209072828292847,2.2250738585072014e-308]},{"bufferView":1,"byteOffset":0,"componentType":5126,"count":3743,"type":"VEC2","max":[0.9930981397628784,0.5308837890625],"min":[2.2250738585072014e-308,2.2250738585072014e-308]},{"bufferView":2,"byteOffset":0,"componentType":5125,"count":17109,"type":"SCALAR","max":[3742],"min":[0]},{"bufferView":3,"byteOffset":0,"componentType":5126,"count":490,"type":"VEC3","max":[0.5573206543922424,-0.7767485976219177,3.1857106685638428],"min":[2.2250738585072014e-308,-0.9838348627090454,2.2250738585072014e-308]},{"bufferView":4,"byteOffset":0,"componentType":5126,"count":490,"type":"VEC2","max":[0.6307106018066406,0.9253768920898438],"min":[2.2250738585072014e-308,2.2250738585072014e-308]},{"bufferView":5,"byteOffset":0,"componentType":5125,"count":2463,"type":"SCALAR","max":[489],"min":[0]}],"buffers":[{"byteLength":162948,"uri":"tile_0475.bin"}],"bufferViews":[{"buffer":0,"byteOffset":0,"byteLength":44916,"target":34962},{"buffer":0,"byteOffset":44916,"byteLength":29944,"target":34962},{"buffer":0,"byteOffset":74860,"byteLength":68436,"target":34963},{"buffer":0,"byteOffset":143296,"byteLength":5880,"target":34962},{"buffer":0,"byteOffset":149176,"byteLength":3920,"target":34962},{"buffer":0,"byteOffset":153096,"byteLength":9852,"target":34963}],"images":[{"uri":"../textures/tile_0475_material_0.jpg"},{"uri":"../textures/tile_0475_material_1.jpg"}],"materials":[{"name":"DefaultMaterial","pbrMetallicRoughness":{"baseColorFactor":[0.6000000238418579,0.6000000238418579,0.6000000238418579,1.0],"metallicFactor":0.0},"extensions":{"KHR_materials_specular":{"specularFactor":1.0,"specularColorFactor":[0.0,0.0,0.0]},"KHR_materials_ior":{"ior":1.0}}},{"name":"material_0_material","pbrMetallicRoughness":{"baseColorTexture":{"index":0},"metallicFactor":0.0},"extensions":{"KHR_materials_specular":{"specularFactor":1.0,"specularColorFactor":[0.0,0.0,0.0]},"KHR_materials_ior":{"ior":1.0}}},{"name":"material_1_material","pbrMetallicRoughness":{"baseColorTexture":{"index":1},"metallicFactor":0.0},"extensions":{"KHR_materials_specular":{"specularFactor":1.0,"specularColorFactor":[0.0,0.0,0.0]},"KHR_materials_ior":{"ior":1.0}}}],"meshes":[{"name":"defaultobject","primitives":[{"mode":4,"material":1,"indices":2,"attributes":{"POSITION":0,"TEXCOORD_0":1}},{"mode":4,"material":2,"indices":5,"attributes":{"POSITION":3,"TEXCOORD_0":4}}]}],"nodes":[{"name":"tile_0475.obj","children":[1]},{"name":"defaultobject","mesh":0}],"samplers":[{},{}],"scenes":[{"nodes":[0]}],"textures":[{"source":0,"sampler":0},{"source":1,"sampler":1}],"scene":0}
