{"asset":{"version":"2.0","generator":"Open Asset Import Library (assimp v6.0.0)"},"extensionsUsed":["KHR_materials_specular","KHR_materials_volume","KHR_materials_ior","FB_ngon_encoding"],"accessors":[{"bufferView":0,"byteOffset":0,"componentType":5126,"count":1646,"type":"VEC3","max":[-0.7241350412368774,-0.7775418162345886,2.7812280654907227],"min":[-0.9091407060623169,-0.9760732054710388,2.2250738585072014e-308]},{"bufferView":1,"byteOffset":0,"componentType":5126,"count":1646,"type":"VEC2","max":[0.9915938377380371,0.5948219299316406],"min":[2.2250738585072014e-308,2.2250738585072014e-308]},{"bufferView":2,"byteOffset":0,"componentType":5125,"count":7206,"type":"SCALAR","max":[1645],"min":[0]},{"bufferView":3,"byteOffset":0,"componentType":5126,"count":1879,"type":"VEC3","max":[-0.7274690866470337,-0.7751466035842896,2.7799415588378906],"min":[-0.9079570174217224,-0.9733664989471436,2.2250738585072014e-308]},{"bufferView":4,"byteOffset":0,"componentType":5126,"count":1879,"type":"VEC2","max":[0.9558205604553223,0.6122570037841797],"min":[2.2250738585072014e-308,2.2250738585072014e-308]},{"bufferView":5,"byteOffset":0,"componentType":5125,"count":9678,"type":"SCALAR","max":[1878],"min":[0]}],"buffers":[{"byteLength":138036,"uri":"tile_0395.bin"}],"bufferViews":[{"buffer":0,"byteOffset":0,"byteLength":19752,"target":34962},{"buffer":0,"byteOffset":19752,"byteLength":13168,"target":34962},{"buffer":0,"byteOffset":32920,"byteLength":28824,"target":34963},{"buffer":0,"byteOffset":61744,"byteLength":22548,"target":34962},{"buffer":0,"byteOffset":84292,"byteLength":15032,"target":34962},{"buffer":0,"byteOffset":99324,"byteLength":38712,"target":34963}],"images":[{"uri":"../textures/tile_0395_material_0.jpg"},{"uri":"../textures/tile_0395_material_1.jpg"}],"materials":[{"name":"DefaultMaterial","pbrMetallicRoughness":{"baseColorFactor":[0.6000000238418579,0.6000000238418579,0.6000000238418579,1.0],"metallicFactor":0.0},"extensions":{"KHR_materials_specular":{"specularFactor":1.0,"specularColorFactor":[0.0,0.0,0.0]},"KHR_materials_ior":{"ior":1.0}}},{"name":"material_0_material","pbrMetallicRoughness":{"baseColorTexture":{"index":0},"metallicFactor":0.0},"extensions":{"KHR_materials_specular":{"specularFactor":1.0,"specularColorFactor":[0.0,0.0,0.0]},"KHR_materials_ior":{"ior":1.0}}},{"name":"material_1_material","pbrMetallicRoughness":{"baseColorTexture":{"index":1},"metallicFactor":0.0},"extensions":{"KHR_materials_specular":{"specularFactor":1.0,"specularColorFactor":[0.0,0.0,0.0]},"KHR_materials_ior":{"ior":1.0}}}],"meshes":[{"name":"defaultobject","primitives":[{"mode":4,"material":1,"indices":2,"attributes":{"POSITION":0,"TEXCOORD_0":1}},{"mode":4,"material":2,"indices":5,"attributes":{"POSITION":3,"TEXCOORD_0":4}}]}],"nodes":[{"name":"tile_0395.obj","children":[1]},{"name":"defaultobject","mesh":0}],"samplers":[{},{}],"scenes":[{"nodes":[0]}],"textures":[{"source":0,"sampler":0},{"source":1,"sampler":1}],"scene":0}
