{"asset":{"version":"2.0","generator":"Open Asset Import Library (assimp v6.0.0)"},"extensionsUsed":["KHR_materials_specular","KHR_materials_volume","KHR_materials_ior","FB_ngon_encoding"],"accessors":[{"bufferView":0,"byteOffset":0,"componentType":5126,"count":4239,"type":"VEC3","max":[3.7912230491638184,-0.5370964407920837,3.8000388145446777],"min":[2.2250738585072014e-308,-0.7878715395927429,2.2250738585072014e-308]},{"bufferView":1,"byteOffset":0,"componentType":5126,"count":4239,"type":"VEC2","max":[0.9918755292892456,0.6556110382080078],"min":[2.2250738585072014e-308,2.2250738585072014e-308]},{"bufferView":2,"byteOffset":0,"componentType":5125,"count":17637,"type":"SCALAR","max":[4238],"min":[0]}],"buffers":[{"byteLength":155328,"uri":"tile_0176.bin"}],"bufferViews":[{"buffer":0,"byteOffset":0,"byteLength":50868,"target":34962},{"buffer":0,"byteOffset":50868,"byteLength":33912,"target":34962},{"buffer":0,"byteOffset":84780,"byteLength":70548,"target":34963}],"images":[{"uri":"../textures/tile_0176_material_0.jpg"}],"materials":[{"name":"DefaultMaterial","pbrMetallicRoughness":{"baseColorFactor":[0.6000000238418579,0.6000000238418579,0.6000000238418579,1.0],"metallicFactor":0.0},"extensions":{"KHR_materials_specular":{"specularFactor":1.0,"specularColorFactor":[0.0,0.0,0.0]},"KHR_materials_ior":{"ior":1.0}}},{"name":"material_0_material","pbrMetallicRoughness":{"baseColorTexture":{"index":0},"metallicFactor":0.0},"extensions":{"KHR_materials_specular":{"specularFactor":1.0,"specularColorFactor":[0.0,0.0,0.0]},"KHR_materials_ior":{"ior":1.0}}},{"name":"material_1_material","pbrMetallicRoughness":{"metallicFactor":0.0},"extensions":{"KHR_materials_specular":{"specularFactor":1.0,"specularColorFactor":[0.0,0.0,0.0]},"KHR_materials_ior":{"ior":1.0}}}],"meshes":[{"name":"defaultobject","primitives":[{"mode":4,"material":1,"indices":2,"attributes":{"POSITION":0,"TEXCOORD_0":1}}]}],"nodes":[{"name":"tile_0176.obj","children":[1]},{"name":"defaultobject","mesh":0}],"samplers":[{}],"scenes":[{"nodes":[0]}],"textures":[{"source":0,"sampler":0}],"scene":0}
