{"asset":{"version":"2.0","generator":"Open Asset Import Library (assimp v6.0.0)"},"extensionsUsed":["KHR_materials_specular","KHR_materials_volume","KHR_materials_ior","FB_ngon_encoding"],"accessors":[{"bufferView":0,"byteOffset":0,"componentType":5126,"count":3359,"type":"VEC3","max":[-1.7960971593856812,-0.17213375866413116,4.110373497009277],"min":[-2.1147854328155518,-0.37197959423065186,2.2250738585072014e-308]},{"bufferView":1,"byteOffset":0,"componentType":5126,"count":3359,"type":"VEC2","max":[0.9910640716552734,0.865814208984375],"min":[2.2250738585072014e-308,2.2250738585072014e-308]},{"bufferView":2,"byteOffset":0,"componentType":5125,"count":14883,"type":"SCALAR","max":[3358],"min":[0]},{"bufferView":3,"byteOffset":0,"componentType":5126,"count":2941,"type":"VEC3","max":[-1.7989321947097778,-0.17258520424365997,4.093846321105957],"min":[-2.142108917236328,-0.36936378479003906,2.2250738585072014e-308]},{"bufferView":4,"byteOffset":0,"componentType":5126,"count":2941,"type":"VEC2","max":[0.9283084869384766,0.5357246398925781],"min":[2.2250738585072014e-308,2.2250738585072014e-308]},{"bufferView":5,"byteOffset":0,"componentType":5125,"count":15642,"type":"SCALAR","max":[2940],"min":[0]}],"buffers":[{"byteLength":248100,"uri":"tile_0082.bin"}],"bufferViews":[{"buffer":0,"byteOffset":0,"byteLength":40308,"target":34962},{"buffer":0,"byteOffset":40308,"byteLength":26872,"target":34962},{"buffer":0,"byteOffset":67180,"byteLength":59532,"target":34963},{"buffer":0,"byteOffset":126712,"byteLength":35292,"target":34962},{"buffer":0,"byteOffset":162004,"byteLength":23528,"target":34962},{"buffer":0,"byteOffset":185532,"byteLength":62568,"target":34963}],"images":[{"uri":"../textures/tile_0082_material_0.jpg"},{"uri":"../textures/tile_0082_material_1.jpg"}],"materials":[{"name":"DefaultMaterial","pbrMetallicRoughness":{"baseColorFactor":[0.6000000238418579,0.6000000238418579,0.6000000238418579,1.0],"metallicFactor":0.0},"extensions":{"KHR_materials_specular":{"specularFactor":1.0,"specularColorFactor":[0.0,0.0,0.0]},"KHR_materials_ior":{"ior":1.0}}},{"name":"material_0_material","pbrMetallicRoughness":{"baseColorTexture":{"index":0},"metallicFactor":0.0},"extensions":{"KHR_materials_specular":{"specularFactor":1.0,"specularColorFactor":[0.0,0.0,0.0]},"KHR_materials_ior":{"ior":1.0}}},{"name":"material_1_material","pbrMetallicRoughness":{"baseColorTexture":{"index":1},"metallicFactor":0.0},"extensions":{"KHR_materials_specular":{"specularFactor":1.0,"specularColorFactor":[0.0,0.0,0.0]},"KHR_materials_ior":{"ior":1.0}}}],"meshes":[{"name":"defaultobject","primitives":[{"mode":4,"material":1,"indices":2,"attributes":{"POSITION":0,"TEXCOORD_0":1}},{"mode":4,"material":2,"indices":5,"attributes":{"POSITION":3,"TEXCOORD_0":4}}]}],"nodes":[{"name":"tile_0082.obj","children":[1]},{"name":"defaultobject","mesh":0}],"samplers":[{},{}],"scenes":[{"nodes":[0]}],"textures":[{"source":0,"sampler":0},{"source":1,"sampler":1}],"scene":0}
