{"asset":{"version":"2.0","generator":"Open Asset Import Library (assimp v6.0.0)"},"extensionsUsed":["KHR_materials_specular","KHR_materials_volume","KHR_materials_ior","FB_ngon_encoding"],"accessors":[{"bufferView":0,"byteOffset":0,"componentType":5126,"count":3541,"type":"VEC3","max":[2.578489065170288,4.281339645385742,4.57368278503418],"min":[2.2250738585072014e-308,2.2250738585072014e-308,2.2250738585072014e-308]},{"bufferView":1,"byteOffset":0,"componentType":5126,"count":3541,"type":"VEC2","max":[0.9927225112915039,0.8896484375],"min":[2.2250738585072014e-308,2.2250738585072014e-308]},{"bufferView":2,"byteOffset":0,"componentType":5125,"count":15636,"type":"SCALAR","max":[3540],"min":[0]},{"bufferView":3,"byteOffset":0,"componentType":5126,"count":2263,"type":"VEC3","max":[2.6001009941101074,4.28311824798584,4.577134132385254],"min":[2.2250738585072014e-308,2.2250738585072014e-308,2.2250738585072014e-308]},{"bufferView":4,"byteOffset":0,"componentType":5126,"count":2263,"type":"VEC2","max":[0.8217577934265137,0.6052742004394531],"min":[2.2250738585072014e-308,2.2250738585072014e-308]},{"bufferView":5,"byteOffset":0,"componentType":5125,"count":11391,"type":"SCALAR","max":[2262],"min":[0]}],"buffers":[{"byteLength":224188,"uri":"tile_0683.bin"}],"bufferViews":[{"buffer":0,"byteOffset":0,"byteLength":42492,"target":34962},{"buffer":0,"byteOffset":42492,"byteLength":28328,"target":34962},{"buffer":0,"byteOffset":70820,"byteLength":62544,"target":34963},{"buffer":0,"byteOffset":133364,"byteLength":27156,"target":34962},{"buffer":0,"byteOffset":160520,"byteLength":18104,"target":34962},{"buffer":0,"byteOffset":178624,"byteLength":45564,"target":34963}],"images":[{"uri":"../textures/tile_0683_material_0.jpg"},{"uri":"../textures/tile_0683_material_1.jpg"}],"materials":[{"name":"DefaultMaterial","pbrMetallicRoughness":{"baseColorFactor":[0.6000000238418579,0.6000000238418579,0.6000000238418579,1.0],"metallicFactor":0.0},"extensions":{"KHR_materials_specular":{"specularFactor":1.0,"specularColorFactor":[0.0,0.0,0.0]},"KHR_materials_ior":{"ior":1.0}}},{"name":"material_0_material","pbrMetallicRoughness":{"baseColorTexture":{"index":0},"metallicFactor":0.0},"extensions":{"KHR_materials_specular":{"specularFactor":1.0,"specularColorFactor":[0.0,0.0,0.0]},"KHR_materials_ior":{"ior":1.0}}},{"name":"material_1_material","pbrMetallicRoughness":{"baseColorTexture":{"index":1},"metallicFactor":0.0},"extensions":{"KHR_materials_specular":{"specularFactor":1.0,"specularColorFactor":[0.0,0.0,0.0]},"KHR_materials_ior":{"ior":1.0}}}],"meshes":[{"name":"defaultobject","primitives":[{"mode":4,"material":1,"indices":2,"attributes":{"POSITION":0,"TEXCOORD_0":1}},{"mode":4,"material":2,"indices":5,"attributes":{"POSITION":3,"TEXCOORD_0":4}}]}],"nodes":[{"name":"tile_0683.obj","children":[1]},{"name":"defaultobject","mesh":0}],"samplers":[{},{}],"scenes":[{"nodes":[0]}],"textures":[{"source":0,"sampler":0},{"source":1,"sampler":1}],"scene":0}
