{"asset":{"version":"2.0","generator":"Open Asset Import Library (assimp v6.0.0)"},"extensionsUsed":["KHR_materials_specular","KHR_materials_volume","KHR_materials_ior","FB_ngon_encoding"],"accessors":[{"bufferView":0,"byteOffset":0,"componentType":5126,"count":4176,"type":"VEC3","max":[1.2603626251220703,1.418877124786377,4.141404628753662],"min":[2.2250738585072014e-308,2.2250738585072014e-308,2.2250738585072014e-308]},{"bufferView":1,"byteOffset":0,"componentType":5126,"count":4176,"type":"VEC2","max":[0.9898185729980469,0.7731704711914062],"min":[2.2250738585072014e-308,2.2250738585072014e-308]},{"bufferView":2,"byteOffset":0,"componentType":5125,"count":18156,"type":"SCALAR","max":[4175],"min":[0]},{"bufferView":3,"byteOffset":0,"componentType":5126,"count":622,"type":"VEC3","max":[1.0667716264724731,1.3126416206359863,4.141704559326172],"min":[2.2250738585072014e-308,2.2250738585072014e-308,2.2250738585072014e-308]},{"bufferView":4,"byteOffset":0,"componentType":5126,"count":622,"type":"VEC2","max":[0.7222518920898438,0.6402397155761719],"min":[2.2250738585072014e-308,2.2250738585072014e-308]},{"bufferView":5,"byteOffset":0,"componentType":5125,"count":3261,"type":"SCALAR","max":[621],"min":[0]}],"buffers":[{"byteLength":181628,"uri":"tile_0607.bin"}],"bufferViews":[{"buffer":0,"byteOffset":0,"byteLength":50112,"target":34962},{"buffer":0,"byteOffset":50112,"byteLength":33408,"target":34962},{"buffer":0,"byteOffset":83520,"byteLength":72624,"target":34963},{"buffer":0,"byteOffset":156144,"byteLength":7464,"target":34962},{"buffer":0,"byteOffset":163608,"byteLength":4976,"target":34962},{"buffer":0,"byteOffset":168584,"byteLength":13044,"target":34963}],"images":[{"uri":"../textures/tile_0607_material_0.jpg"},{"uri":"../textures/tile_0607_material_1.jpg"}],"materials":[{"name":"DefaultMaterial","pbrMetallicRoughness":{"baseColorFactor":[0.6000000238418579,0.6000000238418579,0.6000000238418579,1.0],"metallicFactor":0.0},"extensions":{"KHR_materials_specular":{"specularFactor":1.0,"specularColorFactor":[0.0,0.0,0.0]},"KHR_materials_ior":{"ior":1.0}}},{"name":"material_0_material","pbrMetallicRoughness":{"baseColorTexture":{"index":0},"metallicFactor":0.0},"extensions":{"KHR_materials_specular":{"specularFactor":1.0,"specularColorFactor":[0.0,0.0,0.0]},"KHR_materials_ior":{"ior":1.0}}},{"name":"material_1_material","pbrMetallicRoughness":{"baseColorTexture":{"index":1},"metallicFactor":0.0},"extensions":{"KHR_materials_specular":{"specularFactor":1.0,"specularColorFactor":[0.0,0.0,0.0]},"KHR_materials_ior":{"ior":1.0}}}],"meshes":[{"name":"defaultobject","primitives":[{"mode":4,"material":1,"indices":2,"attributes":{"POSITION":0,"TEXCOORD_0":1}},{"mode":4,"material":2,"indices":5,"attributes":{"POSITION":3,"TEXCOORD_0":4}}]}],"nodes":[{"name":"tile_0607.obj","children":[1]},{"name":"defaultobject","mesh":0}],"samplers":[{},{}],"scenes":[{"nodes":[0]}],"textures":[{"source":0,"sampler":0},{"source":1,"sampler":1}],"scene":0}
