{"asset":{"version":"2.0","generator":"Open Asset Import Library (assimp v6.0.0)"},"extensionsUsed":["KHR_materials_specular","KHR_materials_volume","KHR_materials_ior","FB_ngon_encoding"],"accessors":[{"bufferView":0,"byteOffset":0,"componentType":5126,"count":5094,"type":"VEC3","max":[-0.2446633279323578,-3.6957197189331055,2.5964291095733643],"min":[-0.42622432112693787,-4.078269004821777,2.2250738585072014e-308]},{"bufferView":1,"byteOffset":0,"componentType":5126,"count":5094,"type":"VEC2","max":[0.9948751926422119,0.569793701171875],"min":[2.2250738585072014e-308,2.2250738585072014e-308]},{"bufferView":2,"byteOffset":0,"componentType":5125,"count":22869,"type":"SCALAR","max":[5093],"min":[0]},{"bufferView":3,"byteOffset":0,"componentType":5126,"count":1640,"type":"VEC3","max":[-0.2450321465730667,-3.6957197189331055,2.592170476913452],"min":[-0.426283061504364,-4.0783772468566895,2.2250738585072014e-308]},{"bufferView":4,"byteOffset":0,"componentType":5126,"count":1640,"type":"VEC2","max":[0.9552383422851562,0.8782958984375],"min":[2.2250738585072014e-308,2.2250738585072014e-308]},{"bufferView":5,"byteOffset":0,"componentType":5125,"count":8334,"type":"SCALAR","max":[1639],"min":[0]}],"buffers":[{"byteLength":259492,"uri":"tile_0054.bin"}],"bufferViews":[{"buffer":0,"byteOffset":0,"byteLength":61128,"target":34962},{"buffer":0,"byteOffset":61128,"byteLength":40752,"target":34962},{"buffer":0,"byteOffset":101880,"byteLength":91476,"target":34963},{"buffer":0,"byteOffset":193356,"byteLength":19680,"target":34962},{"buffer":0,"byteOffset":213036,"byteLength":13120,"target":34962},{"buffer":0,"byteOffset":226156,"byteLength":33336,"target":34963}],"images":[{"uri":"../textures/tile_0054_material_0.jpg"},{"uri":"../textures/tile_0054_material_1.jpg"}],"materials":[{"name":"DefaultMaterial","pbrMetallicRoughness":{"baseColorFactor":[0.6000000238418579,0.6000000238418579,0.6000000238418579,1.0],"metallicFactor":0.0},"extensions":{"KHR_materials_specular":{"specularFactor":1.0,"specularColorFactor":[0.0,0.0,0.0]},"KHR_materials_ior":{"ior":1.0}}},{"name":"material_0_material","pbrMetallicRoughness":{"baseColorTexture":{"index":0},"metallicFactor":0.0},"extensions":{"KHR_materials_specular":{"specularFactor":1.0,"specularColorFactor":[0.0,0.0,0.0]},"KHR_materials_ior":{"ior":1.0}}},{"name":"material_1_material","pbrMetallicRoughness":{"baseColorTexture":{"index":1},"metallicFactor":0.0},"extensions":{"KHR_materials_specular":{"specularFactor":1.0,"specularColorFactor":[0.0,0.0,0.0]},"KHR_materials_ior":{"ior":1.0}}}],"meshes":[{"name":"defaultobject","primitives":[{"mode":4,"material":1,"indices":2,"attributes":{"POSITION":0,"TEXCOORD_0":1}},{"mode":4,"material":2,"indices":5,"attributes":{"POSITION":3,"TEXCOORD_0":4}}]}],"nodes":[{"name":"tile_0054.obj","children":[1]},{"name":"defaultobject","mesh":0}],"samplers":[{},{}],"scenes":[{"nodes":[0]}],"textures":[{"source":0,"sampler":0},{"source":1,"sampler":1}],"scene":0}
