{"asset":{"version":"2.0","generator":"Open Asset Import Library (assimp v6.0.0)"},"extensionsUsed":["KHR_materials_specular","KHR_materials_volume","KHR_materials_ior","FB_ngon_encoding"],"accessors":[{"bufferView":0,"byteOffset":0,"componentType":5126,"count":2948,"type":"VEC3","max":[-1.6114708185195923,-2.7554194927215576,2.3354852199554443],"min":[-1.7735110521316528,-3.1666266918182373,2.2250738585072014e-308]},{"bufferView":1,"byteOffset":0,"componentType":5126,"count":2948,"type":"VEC2","max":[0.9714903831481934,0.8033218383789062],"min":[2.2250738585072014e-308,2.2250738585072014e-308]},{"bufferView":2,"byteOffset":0,"componentType":5125,"count":13485,"type":"SCALAR","max":[2947],"min":[0]},{"bufferView":3,"byteOffset":0,"componentType":5126,"count":1674,"type":"VEC3","max":[-1.6118372678756714,-2.755681276321411,2.276650905609131],"min":[-1.77348792552948,-3.0743329524993896,2.2250738585072014e-308]},{"bufferView":4,"byteOffset":0,"componentType":5126,"count":1674,"type":"VEC2","max":[0.6938838958740234,0.6114997863769531],"min":[2.2250738585072014e-308,2.2250738585072014e-308]},{"bufferView":5,"byteOffset":0,"componentType":5125,"count":8814,"type":"SCALAR","max":[1673],"min":[0]}],"buffers":[{"byteLength":181636,"uri":"tile_0007.bin"}],"bufferViews":[{"buffer":0,"byteOffset":0,"byteLength":35376,"target":34962},{"buffer":0,"byteOffset":35376,"byteLength":23584,"target":34962},{"buffer":0,"byteOffset":58960,"byteLength":53940,"target":34963},{"buffer":0,"byteOffset":112900,"byteLength":20088,"target":34962},{"buffer":0,"byteOffset":132988,"byteLength":13392,"target":34962},{"buffer":0,"byteOffset":146380,"byteLength":35256,"target":34963}],"images":[{"uri":"../textures/tile_0007_material_0.jpg"},{"uri":"../textures/tile_0007_material_1.jpg"}],"materials":[{"name":"DefaultMaterial","pbrMetallicRoughness":{"baseColorFactor":[0.6000000238418579,0.6000000238418579,0.6000000238418579,1.0],"metallicFactor":0.0},"extensions":{"KHR_materials_specular":{"specularFactor":1.0,"specularColorFactor":[0.0,0.0,0.0]},"KHR_materials_ior":{"ior":1.0}}},{"name":"material_0_material","pbrMetallicRoughness":{"baseColorTexture":{"index":0},"metallicFactor":0.0},"extensions":{"KHR_materials_specular":{"specularFactor":1.0,"specularColorFactor":[0.0,0.0,0.0]},"KHR_materials_ior":{"ior":1.0}}},{"name":"material_1_material","pbrMetallicRoughness":{"baseColorTexture":{"index":1},"metallicFactor":0.0},"extensions":{"KHR_materials_specular":{"specularFactor":1.0,"specularColorFactor":[0.0,0.0,0.0]},"KHR_materials_ior":{"ior":1.0}}}],"meshes":[{"name":"defaultobject","primitives":[{"mode":4,"material":1,"indices":2,"attributes":{"POSITION":0,"TEXCOORD_0":1}},{"mode":4,"material":2,"indices":5,"attributes":{"POSITION":3,"TEXCOORD_0":4}}]}],"nodes":[{"name":"tile_0007.obj","children":[1]},{"name":"defaultobject","mesh":0}],"samplers":[{},{}],"scenes":[{"nodes":[0]}],"textures":[{"source":0,"sampler":0},{"source":1,"sampler":1}],"scene":0}
