{"asset":{"version":"2.0","generator":"Open Asset Import Library (assimp v6.0.0)"},"extensionsUsed":["KHR_materials_specular","KHR_materials_volume","KHR_materials_ior","FB_ngon_encoding"],"accessors":[{"bufferView":0,"byteOffset":0,"componentType":5126,"count":3263,"type":"VEC3","max":[-0.9516409635543823,0.6807969808578491,4.174239635467529],"min":[-1.2593662738800049,2.2250738585072014e-308,2.2250738585072014e-308]},{"bufferView":1,"byteOffset":0,"componentType":5126,"count":3263,"type":"VEC2","max":[0.993667483329773,0.8593101501464844],"min":[2.2250738585072014e-308,2.2250738585072014e-308]},{"bufferView":2,"byteOffset":0,"componentType":5125,"count":14589,"type":"SCALAR","max":[3262],"min":[0]},{"bufferView":3,"byteOffset":0,"componentType":5126,"count":1599,"type":"VEC3","max":[-0.9515269994735718,0.7043600678443909,4.174638748168945],"min":[-1.2609401941299438,2.2250738585072014e-308,2.2250738585072014e-308]},{"bufferView":4,"byteOffset":0,"componentType":5126,"count":1599,"type":"VEC2","max":[0.672386646270752,0.9286880493164062],"min":[2.2250738585072014e-308,2.2250738585072014e-308]},{"bufferView":5,"byteOffset":0,"componentType":5125,"count":8379,"type":"SCALAR","max":[1598],"min":[0]}],"buffers":[{"byteLength":189112,"uri":"tile_0144.bin"}],"bufferViews":[{"buffer":0,"byteOffset":0,"byteLength":39156,"target":34962},{"buffer":0,"byteOffset":39156,"byteLength":26104,"target":34962},{"buffer":0,"byteOffset":65260,"byteLength":58356,"target":34963},{"buffer":0,"byteOffset":123616,"byteLength":19188,"target":34962},{"buffer":0,"byteOffset":142804,"byteLength":12792,"target":34962},{"buffer":0,"byteOffset":155596,"byteLength":33516,"target":34963}],"images":[{"uri":"../textures/tile_0144_material_0.jpg"},{"uri":"../textures/tile_0144_material_1.jpg"}],"materials":[{"name":"DefaultMaterial","pbrMetallicRoughness":{"baseColorFactor":[0.6000000238418579,0.6000000238418579,0.6000000238418579,1.0],"metallicFactor":0.0},"extensions":{"KHR_materials_specular":{"specularFactor":1.0,"specularColorFactor":[0.0,0.0,0.0]},"KHR_materials_ior":{"ior":1.0}}},{"name":"material_0_material","pbrMetallicRoughness":{"baseColorTexture":{"index":0},"metallicFactor":0.0},"extensions":{"KHR_materials_specular":{"specularFactor":1.0,"specularColorFactor":[0.0,0.0,0.0]},"KHR_materials_ior":{"ior":1.0}}},{"name":"material_1_material","pbrMetallicRoughness":{"baseColorTexture":{"index":1},"metallicFactor":0.0},"extensions":{"KHR_materials_specular":{"specularFactor":1.0,"specularColorFactor":[0.0,0.0,0.0]},"KHR_materials_ior":{"ior":1.0}}}],"meshes":[{"name":"defaultobject","primitives":[{"mode":4,"material":1,"indices":2,"attributes":{"POSITION":0,"TEXCOORD_0":1}},{"mode":4,"material":2,"indices":5,"attributes":{"POSITION":3,"TEXCOORD_0":4}}]}],"nodes":[{"name":"tile_0144.obj","children":[1]},{"name":"defaultobject","mesh":0}],"samplers":[{},{}],"scenes":[{"nodes":[0]}],"textures":[{"source":0,"sampler":0},{"source":1,"sampler":1}],"scene":0}
