{"asset":{"version":"2.0","generator":"Open Asset Import Library (assimp v6.0.0)"},"extensionsUsed":["KHR_materials_specular","KHR_materials_volume","KHR_materials_ior","FB_ngon_encoding"],"accessors":[{"bufferView":0,"byteOffset":0,"componentType":5126,"count":5464,"type":"VEC3","max":[1.0734879970550537,1.7757136821746826,4.238253593444824],"min":[2.2250738585072014e-308,2.2250738585072014e-308,2.2250738585072014e-308]},{"bufferView":1,"byteOffset":0,"componentType":5126,"count":5464,"type":"VEC2","max":[0.9905152320861816,0.5458755493164062],"min":[2.2250738585072014e-308,2.2250738585072014e-308]},{"bufferView":2,"byteOffset":0,"componentType":5125,"count":23376,"type":"SCALAR","max":[5463],"min":[0]},{"bufferView":3,"byteOffset":0,"componentType":5126,"count":658,"type":"VEC3","max":[1.0247445106506348,1.619022011756897,4.176973342895508],"min":[2.2250738585072014e-308,2.2250738585072014e-308,2.2250738585072014e-308]},{"bufferView":4,"byteOffset":0,"componentType":5126,"count":658,"type":"VEC2","max":[0.5473480224609375,0.8524055480957031],"min":[2.2250738585072014e-308,2.2250738585072014e-308]},{"bufferView":5,"byteOffset":0,"componentType":5125,"count":3273,"type":"SCALAR","max":[657],"min":[0]}],"buffers":[{"byteLength":229036,"uri":"tile_0194.bin"}],"bufferViews":[{"buffer":0,"byteOffset":0,"byteLength":65568,"target":34962},{"buffer":0,"byteOffset":65568,"byteLength":43712,"target":34962},{"buffer":0,"byteOffset":109280,"byteLength":93504,"target":34963},{"buffer":0,"byteOffset":202784,"byteLength":7896,"target":34962},{"buffer":0,"byteOffset":210680,"byteLength":5264,"target":34962},{"buffer":0,"byteOffset":215944,"byteLength":13092,"target":34963}],"images":[{"uri":"../textures/tile_0194_material_0.jpg"},{"uri":"../textures/tile_0194_material_1.jpg"}],"materials":[{"name":"DefaultMaterial","pbrMetallicRoughness":{"baseColorFactor":[0.6000000238418579,0.6000000238418579,0.6000000238418579,1.0],"metallicFactor":0.0},"extensions":{"KHR_materials_specular":{"specularFactor":1.0,"specularColorFactor":[0.0,0.0,0.0]},"KHR_materials_ior":{"ior":1.0}}},{"name":"material_0_material","pbrMetallicRoughness":{"baseColorTexture":{"index":0},"metallicFactor":0.0},"extensions":{"KHR_materials_specular":{"specularFactor":1.0,"specularColorFactor":[0.0,0.0,0.0]},"KHR_materials_ior":{"ior":1.0}}},{"name":"material_1_material","pbrMetallicRoughness":{"baseColorTexture":{"index":1},"metallicFactor":0.0},"extensions":{"KHR_materials_specular":{"specularFactor":1.0,"specularColorFactor":[0.0,0.0,0.0]},"KHR_materials_ior":{"ior":1.0}}}],"meshes":[{"name":"defaultobject","primitives":[{"mode":4,"material":1,"indices":2,"attributes":{"POSITION":0,"TEXCOORD_0":1}},{"mode":4,"material":2,"indices":5,"attributes":{"POSITION":3,"TEXCOORD_0":4}}]}],"nodes":[{"name":"tile_0194.obj","children":[1]},{"name":"defaultobject","mesh":0}],"samplers":[{},{}],"scenes":[{"nodes":[0]}],"textures":[{"source":0,"sampler":0},{"source":1,"sampler":1}],"scene":0}
