{"asset":{"version":"2.0","generator":"Open Asset Import Library (assimp v6.0.0)"},"extensionsUsed":["KHR_materials_specular","KHR_materials_volume","KHR_materials_ior","FB_ngon_encoding"],"accessors":[{"bufferView":0,"byteOffset":0,"componentType":5126,"count":3022,"type":"VEC3","max":[-0.23242159187793732,-1.4872558116912842,2.566593647003174],"min":[-0.42440953850746155,-1.7295182943344116,2.2250738585072014e-308]},{"bufferView":1,"byteOffset":0,"componentType":5126,"count":3022,"type":"VEC2","max":[0.9819391965866089,0.9258766174316406],"min":[2.2250738585072014e-308,2.2250738585072014e-308]},{"bufferView":2,"byteOffset":0,"componentType":5125,"count":14265,"type":"SCALAR","max":[3021],"min":[0]},{"bufferView":3,"byteOffset":0,"componentType":5126,"count":1180,"type":"VEC3","max":[-0.2316548079252243,-1.4872734546661377,2.5838494300842285],"min":[-0.42576339840888977,-1.72980797290802,2.2250738585072014e-308]},{"bufferView":4,"byteOffset":0,"componentType":5126,"count":1180,"type":"VEC2","max":[0.6144392490386963,0.6173152923583984],"min":[2.2250738585072014e-308,2.2250738585072014e-308]},{"bufferView":5,"byteOffset":0,"componentType":5125,"count":5703,"type":"SCALAR","max":[1179],"min":[0]}],"buffers":[{"byteLength":163912,"uri":"tile_0363.bin"}],"bufferViews":[{"buffer":0,"byteOffset":0,"byteLength":36264,"target":34962},{"buffer":0,"byteOffset":36264,"byteLength":24176,"target":34962},{"buffer":0,"byteOffset":60440,"byteLength":57060,"target":34963},{"buffer":0,"byteOffset":117500,"byteLength":14160,"target":34962},{"buffer":0,"byteOffset":131660,"byteLength":9440,"target":34962},{"buffer":0,"byteOffset":141100,"byteLength":22812,"target":34963}],"images":[{"uri":"../textures/tile_0363_material_0.jpg"},{"uri":"../textures/tile_0363_material_1.jpg"}],"materials":[{"name":"DefaultMaterial","pbrMetallicRoughness":{"baseColorFactor":[0.6000000238418579,0.6000000238418579,0.6000000238418579,1.0],"metallicFactor":0.0},"extensions":{"KHR_materials_specular":{"specularFactor":1.0,"specularColorFactor":[0.0,0.0,0.0]},"KHR_materials_ior":{"ior":1.0}}},{"name":"material_0_material","pbrMetallicRoughness":{"baseColorTexture":{"index":0},"metallicFactor":0.0},"extensions":{"KHR_materials_specular":{"specularFactor":1.0,"specularColorFactor":[0.0,0.0,0.0]},"KHR_materials_ior":{"ior":1.0}}},{"name":"material_1_material","pbrMetallicRoughness":{"baseColorTexture":{"index":1},"metallicFactor":0.0},"extensions":{"KHR_materials_specular":{"specularFactor":1.0,"specularColorFactor":[0.0,0.0,0.0]},"KHR_materials_ior":{"ior":1.0}}}],"meshes":[{"name":"defaultobject","primitives":[{"mode":4,"material":1,"indices":2,"attributes":{"POSITION":0,"TEXCOORD_0":1}},{"mode":4,"material":2,"indices":5,"attributes":{"POSITION":3,"TEXCOORD_0":4}}]}],"nodes":[{"name":"tile_0363.obj","children":[1]},{"name":"defaultobject","mesh":0}],"samplers":[{},{}],"scenes":[{"nodes":[0]}],"textures":[{"source":0,"sampler":0},{"source":1,"sampler":1}],"scene":0}
