{"asset":{"version":"2.0","generator":"Open Asset Import Library (assimp v6.0.0)"},"extensionsUsed":["KHR_materials_specular","KHR_materials_volume","KHR_materials_ior","FB_ngon_encoding"],"accessors":[{"bufferView":0,"byteOffset":0,"componentType":5126,"count":3054,"type":"VEC3","max":[-1.225828766822815,0.2519281804561615,4.163209438323975],"min":[-1.564870834350586,-0.05556618049740791,2.2250738585072014e-308]},{"bufferView":1,"byteOffset":0,"componentType":5126,"count":3054,"type":"VEC2","max":[0.9915575981140137,0.7733993530273438],"min":[2.2250738585072014e-308,2.2250738585072014e-308]},{"bufferView":2,"byteOffset":0,"componentType":5125,"count":12393,"type":"SCALAR","max":[3053],"min":[0]},{"bufferView":3,"byteOffset":0,"componentType":5126,"count":2142,"type":"VEC3","max":[-1.249265193939209,0.25125083327293396,4.165101051330566],"min":[-1.5603957176208496,-0.03843170776963234,2.2250738585072014e-308]},{"bufferView":4,"byteOffset":0,"componentType":5126,"count":2142,"type":"VEC2","max":[0.7017970085144043,0.9079856872558594],"min":[2.2250738585072014e-308,2.2250738585072014e-308]},{"bufferView":5,"byteOffset":0,"componentType":5125,"count":10575,"type":"SCALAR","max":[2141],"min":[0]}],"buffers":[{"byteLength":195792,"uri":"tile_0460.bin"}],"bufferViews":[{"buffer":0,"byteOffset":0,"byteLength":36648,"target":34962},{"buffer":0,"byteOffset":36648,"byteLength":24432,"target":34962},{"buffer":0,"byteOffset":61080,"byteLength":49572,"target":34963},{"buffer":0,"byteOffset":110652,"byteLength":25704,"target":34962},{"buffer":0,"byteOffset":136356,"byteLength":17136,"target":34962},{"buffer":0,"byteOffset":153492,"byteLength":42300,"target":34963}],"images":[{"uri":"../textures/tile_0460_material_0.jpg"},{"uri":"../textures/tile_0460_material_1.jpg"}],"materials":[{"name":"DefaultMaterial","pbrMetallicRoughness":{"baseColorFactor":[0.6000000238418579,0.6000000238418579,0.6000000238418579,1.0],"metallicFactor":0.0},"extensions":{"KHR_materials_specular":{"specularFactor":1.0,"specularColorFactor":[0.0,0.0,0.0]},"KHR_materials_ior":{"ior":1.0}}},{"name":"material_0_material","pbrMetallicRoughness":{"baseColorTexture":{"index":0},"metallicFactor":0.0},"extensions":{"KHR_materials_specular":{"specularFactor":1.0,"specularColorFactor":[0.0,0.0,0.0]},"KHR_materials_ior":{"ior":1.0}}},{"name":"material_1_material","pbrMetallicRoughness":{"baseColorTexture":{"index":1},"metallicFactor":0.0},"extensions":{"KHR_materials_specular":{"specularFactor":1.0,"specularColorFactor":[0.0,0.0,0.0]},"KHR_materials_ior":{"ior":1.0}}}],"meshes":[{"name":"defaultobject","primitives":[{"mode":4,"material":1,"indices":2,"attributes":{"POSITION":0,"TEXCOORD_0":1}},{"mode":4,"material":2,"indices":5,"attributes":{"POSITION":3,"TEXCOORD_0":4}}]}],"nodes":[{"name":"tile_0460.obj","children":[1]},{"name":"defaultobject","mesh":0}],"samplers":[{},{}],"scenes":[{"nodes":[0]}],"textures":[{"source":0,"sampler":0},{"source":1,"sampler":1}],"scene":0}
