{"asset":{"version":"2.0","generator":"Open Asset Import Library (assimp v6.0.0)"},"extensionsUsed":["KHR_materials_specular","KHR_materials_volume","KHR_materials_ior","FB_ngon_encoding"],"accessors":[{"bufferView":0,"byteOffset":0,"componentType":5126,"count":5109,"type":"VEC3","max":[-0.7554887533187866,-0.02096368558704853,4.137418270111084],"min":[-1.090714931488037,-0.1930081695318222,2.2250738585072014e-308]},{"bufferView":1,"byteOffset":0,"componentType":5126,"count":5109,"type":"VEC2","max":[0.9951291084289551,0.6498546600341797],"min":[2.2250738585072014e-308,2.2250738585072014e-308]},{"bufferView":2,"byteOffset":0,"componentType":5125,"count":23214,"type":"SCALAR","max":[5108],"min":[0]},{"bufferView":3,"byteOffset":0,"componentType":5126,"count":1210,"type":"VEC3","max":[-0.7740421891212463,-0.028676893562078476,4.132059097290039],"min":[-1.0721065998077393,-0.2039831280708313,2.2250738585072014e-308]},{"bufferView":4,"byteOffset":0,"componentType":5126,"count":1210,"type":"VEC2","max":[0.6549451351165771,0.5929355621337891],"min":[2.2250738585072014e-308,2.2250738585072014e-308]},{"bufferView":5,"byteOffset":0,"componentType":5125,"count":5811,"type":"SCALAR","max":[1209],"min":[0]}],"buffers":[{"byteLength":242480,"uri":"tile_0461.bin"}],"bufferViews":[{"buffer":0,"byteOffset":0,"byteLength":61308,"target":34962},{"buffer":0,"byteOffset":61308,"byteLength":40872,"target":34962},{"buffer":0,"byteOffset":102180,"byteLength":92856,"target":34963},{"buffer":0,"byteOffset":195036,"byteLength":14520,"target":34962},{"buffer":0,"byteOffset":209556,"byteLength":9680,"target":34962},{"buffer":0,"byteOffset":219236,"byteLength":23244,"target":34963}],"images":[{"uri":"../textures/tile_0461_material_0.jpg"},{"uri":"../textures/tile_0461_material_1.jpg"}],"materials":[{"name":"DefaultMaterial","pbrMetallicRoughness":{"baseColorFactor":[0.6000000238418579,0.6000000238418579,0.6000000238418579,1.0],"metallicFactor":0.0},"extensions":{"KHR_materials_specular":{"specularFactor":1.0,"specularColorFactor":[0.0,0.0,0.0]},"KHR_materials_ior":{"ior":1.0}}},{"name":"material_0_material","pbrMetallicRoughness":{"baseColorTexture":{"index":0},"metallicFactor":0.0},"extensions":{"KHR_materials_specular":{"specularFactor":1.0,"specularColorFactor":[0.0,0.0,0.0]},"KHR_materials_ior":{"ior":1.0}}},{"name":"material_1_material","pbrMetallicRoughness":{"baseColorTexture":{"index":1},"metallicFactor":0.0},"extensions":{"KHR_materials_specular":{"specularFactor":1.0,"specularColorFactor":[0.0,0.0,0.0]},"KHR_materials_ior":{"ior":1.0}}}],"meshes":[{"name":"defaultobject","primitives":[{"mode":4,"material":1,"indices":2,"attributes":{"POSITION":0,"TEXCOORD_0":1}},{"mode":4,"material":2,"indices":5,"attributes":{"POSITION":3,"TEXCOORD_0":4}}]}],"nodes":[{"name":"tile_0461.obj","children":[1]},{"name":"defaultobject","mesh":0}],"samplers":[{},{}],"scenes":[{"nodes":[0]}],"textures":[{"source":0,"sampler":0},{"source":1,"sampler":1}],"scene":0}
