{"asset":{"version":"2.0","generator":"Open Asset Import Library (assimp v6.0.0)"},"extensionsUsed":["KHR_materials_specular","KHR_materials_volume","KHR_materials_ior","FB_ngon_encoding"],"accessors":[{"bufferView":0,"byteOffset":0,"componentType":5126,"count":3442,"type":"VEC3","max":[-4.882326126098633,-0.9707875847816467,4.152900218963623],"min":[-6.34494686126709,-1.1923335790634155,2.2250738585072014e-308]},{"bufferView":1,"byteOffset":0,"componentType":5126,"count":3442,"type":"VEC2","max":[0.9596724510192871,0.5680065155029297],"min":[2.2250738585072014e-308,2.2250738585072014e-308]},{"bufferView":2,"byteOffset":0,"componentType":5125,"count":17088,"type":"SCALAR","max":[3441],"min":[0]},{"bufferView":3,"byteOffset":0,"componentType":5126,"count":3111,"type":"VEC3","max":[-4.884039402008057,-0.9540575742721558,4.2666521072387695],"min":[-7.31007719039917,-1.198987364768982,2.2250738585072014e-308]},{"bufferView":4,"byteOffset":0,"componentType":5126,"count":3111,"type":"VEC2","max":[0.8174923658370972,0.6266250610351562],"min":[2.2250738585072014e-308,2.2250738585072014e-308]},{"bufferView":5,"byteOffset":0,"componentType":5125,"count":16587,"type":"SCALAR","max":[3110],"min":[0]}],"buffers":[{"byteLength":265760,"uri":"tile_0432.bin"}],"bufferViews":[{"buffer":0,"byteOffset":0,"byteLength":41304,"target":34962},{"buffer":0,"byteOffset":41304,"byteLength":27536,"target":34962},{"buffer":0,"byteOffset":68840,"byteLength":68352,"target":34963},{"buffer":0,"byteOffset":137192,"byteLength":37332,"target":34962},{"buffer":0,"byteOffset":174524,"byteLength":24888,"target":34962},{"buffer":0,"byteOffset":199412,"byteLength":66348,"target":34963}],"images":[{"uri":"../textures/tile_0432_material_0.jpg"},{"uri":"../textures/tile_0432_material_1.jpg"}],"materials":[{"name":"DefaultMaterial","pbrMetallicRoughness":{"baseColorFactor":[0.6000000238418579,0.6000000238418579,0.6000000238418579,1.0],"metallicFactor":0.0},"extensions":{"KHR_materials_specular":{"specularFactor":1.0,"specularColorFactor":[0.0,0.0,0.0]},"KHR_materials_ior":{"ior":1.0}}},{"name":"material_0_material","pbrMetallicRoughness":{"baseColorTexture":{"index":0},"metallicFactor":0.0},"extensions":{"KHR_materials_specular":{"specularFactor":1.0,"specularColorFactor":[0.0,0.0,0.0]},"KHR_materials_ior":{"ior":1.0}}},{"name":"material_1_material","pbrMetallicRoughness":{"baseColorTexture":{"index":1},"metallicFactor":0.0},"extensions":{"KHR_materials_specular":{"specularFactor":1.0,"specularColorFactor":[0.0,0.0,0.0]},"KHR_materials_ior":{"ior":1.0}}}],"meshes":[{"name":"defaultobject","primitives":[{"mode":4,"material":1,"indices":2,"attributes":{"POSITION":0,"TEXCOORD_0":1}},{"mode":4,"material":2,"indices":5,"attributes":{"POSITION":3,"TEXCOORD_0":4}}]}],"nodes":[{"name":"tile_0432.obj","children":[1]},{"name":"defaultobject","mesh":0}],"samplers":[{},{}],"scenes":[{"nodes":[0]}],"textures":[{"source":0,"sampler":0},{"source":1,"sampler":1}],"scene":0}
