{"asset":{"version":"2.0","generator":"Open Asset Import Library (assimp v6.0.0)"},"extensionsUsed":["KHR_materials_specular","KHR_materials_volume","KHR_materials_ior","FB_ngon_encoding"],"accessors":[{"bufferView":0,"byteOffset":0,"componentType":5126,"count":3488,"type":"VEC3","max":[-0.20258164405822754,-0.9957736730575562,2.8666863441467285],"min":[-0.425711452960968,-1.2623831033706665,2.2250738585072014e-308]},{"bufferView":1,"byteOffset":0,"componentType":5126,"count":3488,"type":"VEC2","max":[0.9897793531417847,0.976104736328125],"min":[2.2250738585072014e-308,2.2250738585072014e-308]},{"bufferView":2,"byteOffset":0,"componentType":5125,"count":16212,"type":"SCALAR","max":[3487],"min":[0]},{"bufferView":3,"byteOffset":0,"componentType":5126,"count":851,"type":"VEC3","max":[-0.25831571221351624,-0.9961559772491455,2.7864277362823486],"min":[-0.4245680570602417,-1.2476941347122192,2.2250738585072014e-308]},{"bufferView":4,"byteOffset":0,"componentType":5126,"count":851,"type":"VEC2","max":[0.9263210296630859,0.5298881530761719],"min":[2.2250738585072014e-308,2.2250738585072014e-308]},{"bufferView":5,"byteOffset":0,"componentType":5125,"count":4332,"type":"SCALAR","max":[850],"min":[0]}],"buffers":[{"byteLength":168956,"uri":"tile_0063.bin"}],"bufferViews":[{"buffer":0,"byteOffset":0,"byteLength":41856,"target":34962},{"buffer":0,"byteOffset":41856,"byteLength":27904,"target":34962},{"buffer":0,"byteOffset":69760,"byteLength":64848,"target":34963},{"buffer":0,"byteOffset":134608,"byteLength":10212,"target":34962},{"buffer":0,"byteOffset":144820,"byteLength":6808,"target":34962},{"buffer":0,"byteOffset":151628,"byteLength":17328,"target":34963}],"images":[{"uri":"../textures/tile_0063_material_0.jpg"},{"uri":"../textures/tile_0063_material_1.jpg"}],"materials":[{"name":"DefaultMaterial","pbrMetallicRoughness":{"baseColorFactor":[0.6000000238418579,0.6000000238418579,0.6000000238418579,1.0],"metallicFactor":0.0},"extensions":{"KHR_materials_specular":{"specularFactor":1.0,"specularColorFactor":[0.0,0.0,0.0]},"KHR_materials_ior":{"ior":1.0}}},{"name":"material_0_material","pbrMetallicRoughness":{"baseColorTexture":{"index":0},"metallicFactor":0.0},"extensions":{"KHR_materials_specular":{"specularFactor":1.0,"specularColorFactor":[0.0,0.0,0.0]},"KHR_materials_ior":{"ior":1.0}}},{"name":"material_1_material","pbrMetallicRoughness":{"baseColorTexture":{"index":1},"metallicFactor":0.0},"extensions":{"KHR_materials_specular":{"specularFactor":1.0,"specularColorFactor":[0.0,0.0,0.0]},"KHR_materials_ior":{"ior":1.0}}}],"meshes":[{"name":"defaultobject","primitives":[{"mode":4,"material":1,"indices":2,"attributes":{"POSITION":0,"TEXCOORD_0":1}},{"mode":4,"material":2,"indices":5,"attributes":{"POSITION":3,"TEXCOORD_0":4}}]}],"nodes":[{"name":"tile_0063.obj","children":[1]},{"name":"defaultobject","mesh":0}],"samplers":[{},{}],"scenes":[{"nodes":[0]}],"textures":[{"source":0,"sampler":0},{"source":1,"sampler":1}],"scene":0}
