{"asset":{"version":"2.0","generator":"Open Asset Import Library (assimp v6.0.0)"},"extensionsUsed":["KHR_materials_specular","KHR_materials_volume","KHR_materials_ior","FB_ngon_encoding"],"accessors":[{"bufferView":0,"byteOffset":0,"componentType":5126,"count":4236,"type":"VEC3","max":[-0.7600784301757812,-0.3472118377685547,2.6734321117401123],"min":[-1.0607763528823853,-0.5726781487464905,2.2250738585072014e-308]},{"bufferView":1,"byteOffset":0,"componentType":5126,"count":4236,"type":"VEC2","max":[0.9904384613037109,0.5697212219238281],"min":[2.2250738585072014e-308,2.2250738585072014e-308]},{"bufferView":2,"byteOffset":0,"componentType":5125,"count":19068,"type":"SCALAR","max":[4235],"min":[0]},{"bufferView":3,"byteOffset":0,"componentType":5126,"count":1449,"type":"VEC3","max":[-0.7596071362495422,-0.3464759886264801,2.6473302841186523],"min":[-1.0571939945220947,-0.5711096525192261,2.2250738585072014e-308]},{"bufferView":4,"byteOffset":0,"componentType":5126,"count":1449,"type":"VEC2","max":[0.8008055686950684,0.9202423095703125],"min":[2.2250738585072014e-308,2.2250738585072014e-308]},{"bufferView":5,"byteOffset":0,"componentType":5125,"count":7437,"type":"SCALAR","max":[1448],"min":[0]}],"buffers":[{"byteLength":219720,"uri":"tile_0087.bin"}],"bufferViews":[{"buffer":0,"byteOffset":0,"byteLength":50832,"target":34962},{"buffer":0,"byteOffset":50832,"byteLength":33888,"target":34962},{"buffer":0,"byteOffset":84720,"byteLength":76272,"target":34963},{"buffer":0,"byteOffset":160992,"byteLength":17388,"target":34962},{"buffer":0,"byteOffset":178380,"byteLength":11592,"target":34962},{"buffer":0,"byteOffset":189972,"byteLength":29748,"target":34963}],"images":[{"uri":"../textures/tile_0087_material_0.jpg"},{"uri":"../textures/tile_0087_material_1.jpg"}],"materials":[{"name":"DefaultMaterial","pbrMetallicRoughness":{"baseColorFactor":[0.6000000238418579,0.6000000238418579,0.6000000238418579,1.0],"metallicFactor":0.0},"extensions":{"KHR_materials_specular":{"specularFactor":1.0,"specularColorFactor":[0.0,0.0,0.0]},"KHR_materials_ior":{"ior":1.0}}},{"name":"material_0_material","pbrMetallicRoughness":{"baseColorTexture":{"index":0},"metallicFactor":0.0},"extensions":{"KHR_materials_specular":{"specularFactor":1.0,"specularColorFactor":[0.0,0.0,0.0]},"KHR_materials_ior":{"ior":1.0}}},{"name":"material_1_material","pbrMetallicRoughness":{"baseColorTexture":{"index":1},"metallicFactor":0.0},"extensions":{"KHR_materials_specular":{"specularFactor":1.0,"specularColorFactor":[0.0,0.0,0.0]},"KHR_materials_ior":{"ior":1.0}}}],"meshes":[{"name":"defaultobject","primitives":[{"mode":4,"material":1,"indices":2,"attributes":{"POSITION":0,"TEXCOORD_0":1}},{"mode":4,"material":2,"indices":5,"attributes":{"POSITION":3,"TEXCOORD_0":4}}]}],"nodes":[{"name":"tile_0087.obj","children":[1]},{"name":"defaultobject","mesh":0}],"samplers":[{},{}],"scenes":[{"nodes":[0]}],"textures":[{"source":0,"sampler":0},{"source":1,"sampler":1}],"scene":0}
