{"asset":{"version":"2.0","generator":"Open Asset Import Library (assimp v6.0.0)"},"extensionsUsed":["KHR_materials_specular","KHR_materials_volume","KHR_materials_ior","FB_ngon_encoding"],"accessors":[{"bufferView":0,"byteOffset":0,"componentType":5126,"count":2698,"type":"VEC3","max":[-2.5575006008148193,-4.9547882080078125,2.6928164958953857],"min":[-3.025284767150879,-6.484727382659912,2.2250738585072014e-308]},{"bufferView":1,"byteOffset":0,"componentType":5126,"count":2698,"type":"VEC2","max":[0.9851598739624023,0.5752792358398438],"min":[2.2250738585072014e-308,2.2250738585072014e-308]},{"bufferView":2,"byteOffset":0,"componentType":5125,"count":12912,"type":"SCALAR","max":[2697],"min":[0]},{"bufferView":3,"byteOffset":0,"componentType":5126,"count":7641,"type":"VEC3","max":[-2.5490517616271973,-4.952579498291016,2.66506028175354],"min":[-3.025284767150879,-6.462742805480957,2.2250738585072014e-308]},{"bufferView":4,"byteOffset":0,"componentType":5126,"count":7641,"type":"VEC2","max":[0.8331656455993652,0.7681961059570312],"min":[2.2250738585072014e-308,2.2250738585072014e-308]},{"bufferView":5,"byteOffset":0,"componentType":5125,"count":42498,"type":"SCALAR","max":[7640],"min":[0]}],"buffers":[{"byteLength":428420,"uri":"tile_0065.bin"}],"bufferViews":[{"buffer":0,"byteOffset":0,"byteLength":32376,"target":34962},{"buffer":0,"byteOffset":32376,"byteLength":21584,"target":34962},{"buffer":0,"byteOffset":53960,"byteLength":51648,"target":34963},{"buffer":0,"byteOffset":105608,"byteLength":91692,"target":34962},{"buffer":0,"byteOffset":197300,"byteLength":61128,"target":34962},{"buffer":0,"byteOffset":258428,"byteLength":169992,"target":34963}],"images":[{"uri":"../textures/tile_0065_material_0.jpg"},{"uri":"../textures/tile_0065_material_1.jpg"}],"materials":[{"name":"DefaultMaterial","pbrMetallicRoughness":{"baseColorFactor":[0.6000000238418579,0.6000000238418579,0.6000000238418579,1.0],"metallicFactor":0.0},"extensions":{"KHR_materials_specular":{"specularFactor":1.0,"specularColorFactor":[0.0,0.0,0.0]},"KHR_materials_ior":{"ior":1.0}}},{"name":"material_0_material","pbrMetallicRoughness":{"baseColorTexture":{"index":0},"metallicFactor":0.0},"extensions":{"KHR_materials_specular":{"specularFactor":1.0,"specularColorFactor":[0.0,0.0,0.0]},"KHR_materials_ior":{"ior":1.0}}},{"name":"material_1_material","pbrMetallicRoughness":{"baseColorTexture":{"index":1},"metallicFactor":0.0},"extensions":{"KHR_materials_specular":{"specularFactor":1.0,"specularColorFactor":[0.0,0.0,0.0]},"KHR_materials_ior":{"ior":1.0}}}],"meshes":[{"name":"defaultobject","primitives":[{"mode":4,"material":1,"indices":2,"attributes":{"POSITION":0,"TEXCOORD_0":1}},{"mode":4,"material":2,"indices":5,"attributes":{"POSITION":3,"TEXCOORD_0":4}}]}],"nodes":[{"name":"tile_0065.obj","children":[1]},{"name":"defaultobject","mesh":0}],"samplers":[{},{}],"scenes":[{"nodes":[0]}],"textures":[{"source":0,"sampler":0},{"source":1,"sampler":1}],"scene":0}
