{"asset":{"version":"2.0","generator":"Open Asset Import Library (assimp v6.0.0)"},"extensionsUsed":["KHR_materials_specular","KHR_materials_volume","KHR_materials_ior","FB_ngon_encoding"],"accessors":[{"bufferView":0,"byteOffset":0,"componentType":5126,"count":6239,"type":"VEC3","max":[0.5946104526519775,-3.6835873126983643,2.855665683746338],"min":[2.2250738585072014e-308,-4.0840067863464355,2.2250738585072014e-308]},{"bufferView":1,"byteOffset":0,"componentType":5126,"count":6239,"type":"VEC2","max":[0.9930739402770996,0.6146488189697266],"min":[2.2250738585072014e-308,2.2250738585072014e-308]},{"bufferView":2,"byteOffset":0,"componentType":5125,"count":26841,"type":"SCALAR","max":[6238],"min":[0]},{"bufferView":3,"byteOffset":0,"componentType":5126,"count":107,"type":"VEC3","max":[0.5239812135696411,-4.021734237670898,2.8693532943725586],"min":[2.2250738585072014e-308,-4.077561378479004,2.2250738585072014e-308]},{"bufferView":4,"byteOffset":0,"componentType":5126,"count":107,"type":"VEC2","max":[0.5028915405273438,0.556304931640625],"min":[2.2250738585072014e-308,2.2250738585072014e-308]},{"bufferView":5,"byteOffset":0,"componentType":5125,"count":477,"type":"SCALAR","max":[106],"min":[0]}],"buffers":[{"byteLength":236192,"uri":"tile_0280.bin"}],"bufferViews":[{"buffer":0,"byteOffset":0,"byteLength":74868,"target":34962},{"buffer":0,"byteOffset":74868,"byteLength":49912,"target":34962},{"buffer":0,"byteOffset":124780,"byteLength":107364,"target":34963},{"buffer":0,"byteOffset":232144,"byteLength":1284,"target":34962},{"buffer":0,"byteOffset":233428,"byteLength":856,"target":34962},{"buffer":0,"byteOffset":234284,"byteLength":1908,"target":34963}],"images":[{"uri":"../textures/tile_0280_material_0.jpg"},{"uri":"../textures/tile_0280_material_1.jpg"}],"materials":[{"name":"DefaultMaterial","pbrMetallicRoughness":{"baseColorFactor":[0.6000000238418579,0.6000000238418579,0.6000000238418579,1.0],"metallicFactor":0.0},"extensions":{"KHR_materials_specular":{"specularFactor":1.0,"specularColorFactor":[0.0,0.0,0.0]},"KHR_materials_ior":{"ior":1.0}}},{"name":"material_0_material","pbrMetallicRoughness":{"baseColorTexture":{"index":0},"metallicFactor":0.0},"extensions":{"KHR_materials_specular":{"specularFactor":1.0,"specularColorFactor":[0.0,0.0,0.0]},"KHR_materials_ior":{"ior":1.0}}},{"name":"material_1_material","pbrMetallicRoughness":{"baseColorTexture":{"index":1},"metallicFactor":0.0},"extensions":{"KHR_materials_specular":{"specularFactor":1.0,"specularColorFactor":[0.0,0.0,0.0]},"KHR_materials_ior":{"ior":1.0}}}],"meshes":[{"name":"defaultobject","primitives":[{"mode":4,"material":1,"indices":2,"attributes":{"POSITION":0,"TEXCOORD_0":1}},{"mode":4,"material":2,"indices":5,"attributes":{"POSITION":3,"TEXCOORD_0":4}}]}],"nodes":[{"name":"tile_0280.obj","children":[1]},{"name":"defaultobject","mesh":0}],"samplers":[{},{}],"scenes":[{"nodes":[0]}],"textures":[{"source":0,"sampler":0},{"source":1,"sampler":1}],"scene":0}
