{"asset":{"version":"2.0","generator":"Open Asset Import Library (assimp v6.0.0)"},"extensionsUsed":["KHR_materials_specular","KHR_materials_volume","KHR_materials_ior","FB_ngon_encoding"],"accessors":[{"bufferView":0,"byteOffset":0,"componentType":5126,"count":6019,"type":"VEC3","max":[2.4390382766723633,-1.0162363052368164,3.5325114727020264],"min":[2.2250738585072014e-308,-1.2646894454956055,2.2250738585072014e-308]},{"bufferView":1,"byteOffset":0,"componentType":5126,"count":6019,"type":"VEC2","max":[0.9881680011749268,0.6479244232177734],"min":[2.2250738585072014e-308,2.2250738585072014e-308]},{"bufferView":2,"byteOffset":0,"componentType":5125,"count":26181,"type":"SCALAR","max":[6018],"min":[0]},{"bufferView":3,"byteOffset":0,"componentType":5126,"count":225,"type":"VEC3","max":[2.277207851409912,-1.0161126852035522,3.2665481567382812],"min":[2.2250738585072014e-308,-1.0907145738601685,2.2250738585072014e-308]},{"bufferView":4,"byteOffset":0,"componentType":5126,"count":225,"type":"VEC2","max":[0.7466011047363281,0.54364013671875],"min":[2.2250738585072014e-308,2.2250738585072014e-308]},{"bufferView":5,"byteOffset":0,"componentType":5125,"count":1038,"type":"SCALAR","max":[224],"min":[0]}],"buffers":[{"byteLength":233756,"uri":"tile_0238.bin"}],"bufferViews":[{"buffer":0,"byteOffset":0,"byteLength":72228,"target":34962},{"buffer":0,"byteOffset":72228,"byteLength":48152,"target":34962},{"buffer":0,"byteOffset":120380,"byteLength":104724,"target":34963},{"buffer":0,"byteOffset":225104,"byteLength":2700,"target":34962},{"buffer":0,"byteOffset":227804,"byteLength":1800,"target":34962},{"buffer":0,"byteOffset":229604,"byteLength":4152,"target":34963}],"images":[{"uri":"../textures/tile_0238_material_0.jpg"},{"uri":"../textures/tile_0238_material_1.jpg"}],"materials":[{"name":"DefaultMaterial","pbrMetallicRoughness":{"baseColorFactor":[0.6000000238418579,0.6000000238418579,0.6000000238418579,1.0],"metallicFactor":0.0},"extensions":{"KHR_materials_specular":{"specularFactor":1.0,"specularColorFactor":[0.0,0.0,0.0]},"KHR_materials_ior":{"ior":1.0}}},{"name":"material_0_material","pbrMetallicRoughness":{"baseColorTexture":{"index":0},"metallicFactor":0.0},"extensions":{"KHR_materials_specular":{"specularFactor":1.0,"specularColorFactor":[0.0,0.0,0.0]},"KHR_materials_ior":{"ior":1.0}}},{"name":"material_1_material","pbrMetallicRoughness":{"baseColorTexture":{"index":1},"metallicFactor":0.0},"extensions":{"KHR_materials_specular":{"specularFactor":1.0,"specularColorFactor":[0.0,0.0,0.0]},"KHR_materials_ior":{"ior":1.0}}}],"meshes":[{"name":"defaultobject","primitives":[{"mode":4,"material":1,"indices":2,"attributes":{"POSITION":0,"TEXCOORD_0":1}},{"mode":4,"material":2,"indices":5,"attributes":{"POSITION":3,"TEXCOORD_0":4}}]}],"nodes":[{"name":"tile_0238.obj","children":[1]},{"name":"defaultobject","mesh":0}],"samplers":[{},{}],"scenes":[{"nodes":[0]}],"textures":[{"source":0,"sampler":0},{"source":1,"sampler":1}],"scene":0}
