{"asset":{"version":"2.0","generator":"Open Asset Import Library (assimp v6.0.0)"},"extensionsUsed":["KHR_materials_specular","KHR_materials_volume","KHR_materials_ior","FB_ngon_encoding"],"accessors":[{"bufferView":0,"byteOffset":0,"componentType":5126,"count":3683,"type":"VEC3","max":[-1.3786201477050781,3.61396861076355,4.629603385925293],"min":[-1.6743686199188232,2.2250738585072014e-308,2.2250738585072014e-308]},{"bufferView":1,"byteOffset":0,"componentType":5126,"count":3683,"type":"VEC2","max":[0.9900302886962891,0.6672706604003906],"min":[2.2250738585072014e-308,2.2250738585072014e-308]},{"bufferView":2,"byteOffset":0,"componentType":5125,"count":16152,"type":"SCALAR","max":[3682],"min":[0]},{"bufferView":3,"byteOffset":0,"componentType":5126,"count":1350,"type":"VEC3","max":[-1.3744206428527832,3.615157127380371,4.624080657958984],"min":[-1.6678874492645264,2.2250738585072014e-308,2.2250738585072014e-308]},{"bufferView":4,"byteOffset":0,"componentType":5126,"count":1350,"type":"VEC2","max":[0.8023600578308105,0.5825366973876953],"min":[2.2250738585072014e-308,2.2250738585072014e-308]},{"bufferView":5,"byteOffset":0,"componentType":5125,"count":6552,"type":"SCALAR","max":[1349],"min":[0]}],"buffers":[{"byteLength":191476,"uri":"tile_0509.bin"}],"bufferViews":[{"buffer":0,"byteOffset":0,"byteLength":44196,"target":34962},{"buffer":0,"byteOffset":44196,"byteLength":29464,"target":34962},{"buffer":0,"byteOffset":73660,"byteLength":64608,"target":34963},{"buffer":0,"byteOffset":138268,"byteLength":16200,"target":34962},{"buffer":0,"byteOffset":154468,"byteLength":10800,"target":34962},{"buffer":0,"byteOffset":165268,"byteLength":26208,"target":34963}],"images":[{"uri":"../textures/tile_0509_material_0.jpg"},{"uri":"../textures/tile_0509_material_1.jpg"}],"materials":[{"name":"DefaultMaterial","pbrMetallicRoughness":{"baseColorFactor":[0.6000000238418579,0.6000000238418579,0.6000000238418579,1.0],"metallicFactor":0.0},"extensions":{"KHR_materials_specular":{"specularFactor":1.0,"specularColorFactor":[0.0,0.0,0.0]},"KHR_materials_ior":{"ior":1.0}}},{"name":"material_0_material","pbrMetallicRoughness":{"baseColorTexture":{"index":0},"metallicFactor":0.0},"extensions":{"KHR_materials_specular":{"specularFactor":1.0,"specularColorFactor":[0.0,0.0,0.0]},"KHR_materials_ior":{"ior":1.0}}},{"name":"material_1_material","pbrMetallicRoughness":{"baseColorTexture":{"index":1},"metallicFactor":0.0},"extensions":{"KHR_materials_specular":{"specularFactor":1.0,"specularColorFactor":[0.0,0.0,0.0]},"KHR_materials_ior":{"ior":1.0}}}],"meshes":[{"name":"defaultobject","primitives":[{"mode":4,"material":1,"indices":2,"attributes":{"POSITION":0,"TEXCOORD_0":1}},{"mode":4,"material":2,"indices":5,"attributes":{"POSITION":3,"TEXCOORD_0":4}}]}],"nodes":[{"name":"tile_0509.obj","children":[1]},{"name":"defaultobject","mesh":0}],"samplers":[{},{}],"scenes":[{"nodes":[0]}],"textures":[{"source":0,"sampler":0},{"source":1,"sampler":1}],"scene":0}
