{"asset":{"version":"2.0","generator":"Open Asset Import Library (assimp v6.0.0)"},"extensionsUsed":["KHR_materials_specular","KHR_materials_volume","KHR_materials_ior","FB_ngon_encoding"],"accessors":[{"bufferView":0,"byteOffset":0,"componentType":5126,"count":6940,"type":"VEC3","max":[1.3820353746414185,-4.070933818817139,2.9221384525299072],"min":[2.2250738585072014e-308,-4.442283630371094,2.2250738585072014e-308]},{"bufferView":1,"byteOffset":0,"componentType":5126,"count":6940,"type":"VEC2","max":[0.995152473449707,0.7186069488525391],"min":[2.2250738585072014e-308,2.2250738585072014e-308]},{"bufferView":2,"byteOffset":0,"componentType":5125,"count":30843,"type":"SCALAR","max":[6939],"min":[0]},{"bufferView":3,"byteOffset":0,"componentType":5126,"count":737,"type":"VEC3","max":[1.275675892829895,-4.091242790222168,2.9064102172851562],"min":[2.2250738585072014e-308,-4.443798065185547,2.2250738585072014e-308]},{"bufferView":4,"byteOffset":0,"componentType":5126,"count":737,"type":"VEC2","max":[0.8402366638183594,0.6712799072265625],"min":[2.2250738585072014e-308,2.2250738585072014e-308]},{"bufferView":5,"byteOffset":0,"componentType":5125,"count":3705,"type":"SCALAR","max":[736],"min":[0]}],"buffers":[{"byteLength":291732,"uri":"tile_0279.bin"}],"bufferViews":[{"buffer":0,"byteOffset":0,"byteLength":83280,"target":34962},{"buffer":0,"byteOffset":83280,"byteLength":55520,"target":34962},{"buffer":0,"byteOffset":138800,"byteLength":123372,"target":34963},{"buffer":0,"byteOffset":262172,"byteLength":8844,"target":34962},{"buffer":0,"byteOffset":271016,"byteLength":5896,"target":34962},{"buffer":0,"byteOffset":276912,"byteLength":14820,"target":34963}],"images":[{"uri":"../textures/tile_0279_material_0.jpg"},{"uri":"../textures/tile_0279_material_1.jpg"}],"materials":[{"name":"DefaultMaterial","pbrMetallicRoughness":{"baseColorFactor":[0.6000000238418579,0.6000000238418579,0.6000000238418579,1.0],"metallicFactor":0.0},"extensions":{"KHR_materials_specular":{"specularFactor":1.0,"specularColorFactor":[0.0,0.0,0.0]},"KHR_materials_ior":{"ior":1.0}}},{"name":"material_0_material","pbrMetallicRoughness":{"baseColorTexture":{"index":0},"metallicFactor":0.0},"extensions":{"KHR_materials_specular":{"specularFactor":1.0,"specularColorFactor":[0.0,0.0,0.0]},"KHR_materials_ior":{"ior":1.0}}},{"name":"material_1_material","pbrMetallicRoughness":{"baseColorTexture":{"index":1},"metallicFactor":0.0},"extensions":{"KHR_materials_specular":{"specularFactor":1.0,"specularColorFactor":[0.0,0.0,0.0]},"KHR_materials_ior":{"ior":1.0}}}],"meshes":[{"name":"defaultobject","primitives":[{"mode":4,"material":1,"indices":2,"attributes":{"POSITION":0,"TEXCOORD_0":1}},{"mode":4,"material":2,"indices":5,"attributes":{"POSITION":3,"TEXCOORD_0":4}}]}],"nodes":[{"name":"tile_0279.obj","children":[1]},{"name":"defaultobject","mesh":0}],"samplers":[{},{}],"scenes":[{"nodes":[0]}],"textures":[{"source":0,"sampler":0},{"source":1,"sampler":1}],"scene":0}
