{"asset":{"version":"2.0","generator":"Open Asset Import Library (assimp v6.0.0)"},"extensionsUsed":["KHR_materials_specular","KHR_materials_volume","KHR_materials_ior","FB_ngon_encoding"],"accessors":[{"bufferView":0,"byteOffset":0,"componentType":5126,"count":5055,"type":"VEC3","max":[-1.1260930299758911,4.03986930847168,4.663188934326172],"min":[-1.3998667001724243,2.2250738585072014e-308,2.2250738585072014e-308]},{"bufferView":1,"byteOffset":0,"componentType":5126,"count":5055,"type":"VEC2","max":[0.9942765235900879,0.5345497131347656],"min":[2.2250738585072014e-308,2.2250738585072014e-308]},{"bufferView":2,"byteOffset":0,"componentType":5125,"count":22212,"type":"SCALAR","max":[5054],"min":[0]},{"bufferView":3,"byteOffset":0,"componentType":5126,"count":118,"type":"VEC3","max":[-1.2288860082626343,3.6943349838256836,4.637024879455566],"min":[-1.3971842527389526,2.2250738585072014e-308,2.2250738585072014e-308]},{"bufferView":4,"byteOffset":0,"componentType":5126,"count":118,"type":"VEC2","max":[0.6196479797363281,0.546112060546875],"min":[2.2250738585072014e-308,2.2250738585072014e-308]},{"bufferView":5,"byteOffset":0,"componentType":5125,"count":495,"type":"SCALAR","max":[117],"min":[0]}],"buffers":[{"byteLength":194288,"uri":"tile_0505.bin"}],"bufferViews":[{"buffer":0,"byteOffset":0,"byteLength":60660,"target":34962},{"buffer":0,"byteOffset":60660,"byteLength":40440,"target":34962},{"buffer":0,"byteOffset":101100,"byteLength":88848,"target":34963},{"buffer":0,"byteOffset":189948,"byteLength":1416,"target":34962},{"buffer":0,"byteOffset":191364,"byteLength":944,"target":34962},{"buffer":0,"byteOffset":192308,"byteLength":1980,"target":34963}],"images":[{"uri":"../textures/tile_0505_material_0.jpg"},{"uri":"../textures/tile_0505_material_1.jpg"}],"materials":[{"name":"DefaultMaterial","pbrMetallicRoughness":{"baseColorFactor":[0.6000000238418579,0.6000000238418579,0.6000000238418579,1.0],"metallicFactor":0.0},"extensions":{"KHR_materials_specular":{"specularFactor":1.0,"specularColorFactor":[0.0,0.0,0.0]},"KHR_materials_ior":{"ior":1.0}}},{"name":"material_0_material","pbrMetallicRoughness":{"baseColorTexture":{"index":0},"metallicFactor":0.0},"extensions":{"KHR_materials_specular":{"specularFactor":1.0,"specularColorFactor":[0.0,0.0,0.0]},"KHR_materials_ior":{"ior":1.0}}},{"name":"material_1_material","pbrMetallicRoughness":{"baseColorTexture":{"index":1},"metallicFactor":0.0},"extensions":{"KHR_materials_specular":{"specularFactor":1.0,"specularColorFactor":[0.0,0.0,0.0]},"KHR_materials_ior":{"ior":1.0}}}],"meshes":[{"name":"defaultobject","primitives":[{"mode":4,"material":1,"indices":2,"attributes":{"POSITION":0,"TEXCOORD_0":1}},{"mode":4,"material":2,"indices":5,"attributes":{"POSITION":3,"TEXCOORD_0":4}}]}],"nodes":[{"name":"tile_0505.obj","children":[1]},{"name":"defaultobject","mesh":0}],"samplers":[{},{}],"scenes":[{"nodes":[0]}],"textures":[{"source":0,"sampler":0},{"source":1,"sampler":1}],"scene":0}
