{"asset":{"version":"2.0","generator":"Open Asset Import Library (assimp v6.0.0)"},"extensionsUsed":["KHR_materials_specular","KHR_materials_volume","KHR_materials_ior","FB_ngon_encoding"],"accessors":[{"bufferView":0,"byteOffset":0,"componentType":5126,"count":7229,"type":"VEC3","max":[2.3758292198181152,-1.6802265644073486,3.224609375],"min":[2.2250738585072014e-308,-1.9190053939819336,2.2250738585072014e-308]},{"bufferView":1,"byteOffset":0,"componentType":5126,"count":7229,"type":"VEC2","max":[0.9932551383972168,0.7304039001464844],"min":[2.2250738585072014e-308,2.2250738585072014e-308]},{"bufferView":2,"byteOffset":0,"componentType":5125,"count":32454,"type":"SCALAR","max":[7228],"min":[0]},{"bufferView":3,"byteOffset":0,"componentType":5126,"count":206,"type":"VEC3","max":[2.347423791885376,-1.8597102165222168,3.221940040588379],"min":[2.2250738585072014e-308,-1.9173991680145264,2.2250738585072014e-308]},{"bufferView":4,"byteOffset":0,"componentType":5126,"count":206,"type":"VEC2","max":[0.9329605102539062,0.5646438598632812],"min":[2.2250738585072014e-308,2.2250738585072014e-308]},{"bufferView":5,"byteOffset":0,"componentType":5125,"count":960,"type":"SCALAR","max":[205],"min":[0]}],"buffers":[{"byteLength":282356,"uri":"tile_0224.bin"}],"bufferViews":[{"buffer":0,"byteOffset":0,"byteLength":86748,"target":34962},{"buffer":0,"byteOffset":86748,"byteLength":57832,"target":34962},{"buffer":0,"byteOffset":144580,"byteLength":129816,"target":34963},{"buffer":0,"byteOffset":274396,"byteLength":2472,"target":34962},{"buffer":0,"byteOffset":276868,"byteLength":1648,"target":34962},{"buffer":0,"byteOffset":278516,"byteLength":3840,"target":34963}],"images":[{"uri":"../textures/tile_0224_material_0.jpg"},{"uri":"../textures/tile_0224_material_1.jpg"}],"materials":[{"name":"DefaultMaterial","pbrMetallicRoughness":{"baseColorFactor":[0.6000000238418579,0.6000000238418579,0.6000000238418579,1.0],"metallicFactor":0.0},"extensions":{"KHR_materials_specular":{"specularFactor":1.0,"specularColorFactor":[0.0,0.0,0.0]},"KHR_materials_ior":{"ior":1.0}}},{"name":"material_0_material","pbrMetallicRoughness":{"baseColorTexture":{"index":0},"metallicFactor":0.0},"extensions":{"KHR_materials_specular":{"specularFactor":1.0,"specularColorFactor":[0.0,0.0,0.0]},"KHR_materials_ior":{"ior":1.0}}},{"name":"material_1_material","pbrMetallicRoughness":{"baseColorTexture":{"index":1},"metallicFactor":0.0},"extensions":{"KHR_materials_specular":{"specularFactor":1.0,"specularColorFactor":[0.0,0.0,0.0]},"KHR_materials_ior":{"ior":1.0}}}],"meshes":[{"name":"defaultobject","primitives":[{"mode":4,"material":1,"indices":2,"attributes":{"POSITION":0,"TEXCOORD_0":1}},{"mode":4,"material":2,"indices":5,"attributes":{"POSITION":3,"TEXCOORD_0":4}}]}],"nodes":[{"name":"tile_0224.obj","children":[1]},{"name":"defaultobject","mesh":0}],"samplers":[{},{}],"scenes":[{"nodes":[0]}],"textures":[{"source":0,"sampler":0},{"source":1,"sampler":1}],"scene":0}
