{"asset":{"version":"2.0","generator":"Open Asset Import Library (assimp v6.0.0)"},"extensionsUsed":["KHR_materials_specular","KHR_materials_volume","KHR_materials_ior","FB_ngon_encoding"],"accessors":[{"bufferView":0,"byteOffset":0,"componentType":5126,"count":3214,"type":"VEC3","max":[0.9668355584144592,0.7219676375389099,4.140644550323486],"min":[2.2250738585072014e-308,2.2250738585072014e-308,2.2250738585072014e-308]},{"bufferView":1,"byteOffset":0,"componentType":5126,"count":3214,"type":"VEC2","max":[0.9924004077911377,0.9530868530273438],"min":[2.2250738585072014e-308,2.2250738585072014e-308]},{"bufferView":2,"byteOffset":0,"componentType":5125,"count":14397,"type":"SCALAR","max":[3213],"min":[0]},{"bufferView":3,"byteOffset":0,"componentType":5126,"count":1715,"type":"VEC3","max":[0.9659489989280701,0.7208595871925354,4.146620750427246],"min":[2.2250738585072014e-308,2.2250738585072014e-308,2.2250738585072014e-308]},{"bufferView":4,"byteOffset":0,"componentType":5126,"count":1715,"type":"VEC2","max":[0.5189685821533203,0.9550132751464844],"min":[2.2250738585072014e-308,2.2250738585072014e-308]},{"bufferView":5,"byteOffset":0,"componentType":5125,"count":8934,"type":"SCALAR","max":[1714],"min":[0]}],"buffers":[{"byteLength":191904,"uri":"tile_0216.bin"}],"bufferViews":[{"buffer":0,"byteOffset":0,"byteLength":38568,"target":34962},{"buffer":0,"byteOffset":38568,"byteLength":25712,"target":34962},{"buffer":0,"byteOffset":64280,"byteLength":57588,"target":34963},{"buffer":0,"byteOffset":121868,"byteLength":20580,"target":34962},{"buffer":0,"byteOffset":142448,"byteLength":13720,"target":34962},{"buffer":0,"byteOffset":156168,"byteLength":35736,"target":34963}],"images":[{"uri":"../textures/tile_0216_material_0.jpg"},{"uri":"../textures/tile_0216_material_1.jpg"}],"materials":[{"name":"DefaultMaterial","pbrMetallicRoughness":{"baseColorFactor":[0.6000000238418579,0.6000000238418579,0.6000000238418579,1.0],"metallicFactor":0.0},"extensions":{"KHR_materials_specular":{"specularFactor":1.0,"specularColorFactor":[0.0,0.0,0.0]},"KHR_materials_ior":{"ior":1.0}}},{"name":"material_0_material","pbrMetallicRoughness":{"baseColorTexture":{"index":0},"metallicFactor":0.0},"extensions":{"KHR_materials_specular":{"specularFactor":1.0,"specularColorFactor":[0.0,0.0,0.0]},"KHR_materials_ior":{"ior":1.0}}},{"name":"material_1_material","pbrMetallicRoughness":{"baseColorTexture":{"index":1},"metallicFactor":0.0},"extensions":{"KHR_materials_specular":{"specularFactor":1.0,"specularColorFactor":[0.0,0.0,0.0]},"KHR_materials_ior":{"ior":1.0}}}],"meshes":[{"name":"defaultobject","primitives":[{"mode":4,"material":1,"indices":2,"attributes":{"POSITION":0,"TEXCOORD_0":1}},{"mode":4,"material":2,"indices":5,"attributes":{"POSITION":3,"TEXCOORD_0":4}}]}],"nodes":[{"name":"tile_0216.obj","children":[1]},{"name":"defaultobject","mesh":0}],"samplers":[{},{}],"scenes":[{"nodes":[0]}],"textures":[{"source":0,"sampler":0},{"source":1,"sampler":1}],"scene":0}
