{"asset":{"version":"2.0","generator":"Open Asset Import Library (assimp v6.0.0)"},"extensionsUsed":["KHR_materials_specular","KHR_materials_volume","KHR_materials_ior","FB_ngon_encoding"],"accessors":[{"bufferView":0,"byteOffset":0,"componentType":5126,"count":1753,"type":"VEC3","max":[-0.39835324883461,-5.58875036239624,2.593695640563965],"min":[-0.6036577224731445,-6.5081400871276855,2.2250738585072014e-308]},{"bufferView":1,"byteOffset":0,"componentType":5126,"count":1753,"type":"VEC2","max":[0.9782190322875977,0.8519554138183594],"min":[2.2250738585072014e-308,2.2250738585072014e-308]},{"bufferView":2,"byteOffset":0,"componentType":5125,"count":7254,"type":"SCALAR","max":[1752],"min":[0]},{"bufferView":3,"byteOffset":0,"componentType":5126,"count":3135,"type":"VEC3","max":[-0.39835324883461,-5.58875036239624,2.599947690963745],"min":[-0.6252415180206299,-6.819759368896484,2.2250738585072014e-308]},{"bufferView":4,"byteOffset":0,"componentType":5126,"count":3135,"type":"VEC2","max":[0.9850647449493408,0.6389713287353516],"min":[2.2250738585072014e-308,2.2250738585072014e-308]},{"bufferView":5,"byteOffset":0,"componentType":5125,"count":16287,"type":"SCALAR","max":[3134],"min":[0]}],"buffers":[{"byteLength":191924,"uri":"tile_0286.bin"}],"bufferViews":[{"buffer":0,"byteOffset":0,"byteLength":21036,"target":34962},{"buffer":0,"byteOffset":21036,"byteLength":14024,"target":34962},{"buffer":0,"byteOffset":35060,"byteLength":29016,"target":34963},{"buffer":0,"byteOffset":64076,"byteLength":37620,"target":34962},{"buffer":0,"byteOffset":101696,"byteLength":25080,"target":34962},{"buffer":0,"byteOffset":126776,"byteLength":65148,"target":34963}],"images":[{"uri":"../textures/tile_0286_material_0.jpg"},{"uri":"../textures/tile_0286_material_1.jpg"}],"materials":[{"name":"DefaultMaterial","pbrMetallicRoughness":{"baseColorFactor":[0.6000000238418579,0.6000000238418579,0.6000000238418579,1.0],"metallicFactor":0.0},"extensions":{"KHR_materials_specular":{"specularFactor":1.0,"specularColorFactor":[0.0,0.0,0.0]},"KHR_materials_ior":{"ior":1.0}}},{"name":"material_0_material","pbrMetallicRoughness":{"baseColorTexture":{"index":0},"metallicFactor":0.0},"extensions":{"KHR_materials_specular":{"specularFactor":1.0,"specularColorFactor":[0.0,0.0,0.0]},"KHR_materials_ior":{"ior":1.0}}},{"name":"material_1_material","pbrMetallicRoughness":{"baseColorTexture":{"index":1},"metallicFactor":0.0},"extensions":{"KHR_materials_specular":{"specularFactor":1.0,"specularColorFactor":[0.0,0.0,0.0]},"KHR_materials_ior":{"ior":1.0}}}],"meshes":[{"name":"defaultobject","primitives":[{"mode":4,"material":1,"indices":2,"attributes":{"POSITION":0,"TEXCOORD_0":1}},{"mode":4,"material":2,"indices":5,"attributes":{"POSITION":3,"TEXCOORD_0":4}}]}],"nodes":[{"name":"tile_0286.obj","children":[1]},{"name":"defaultobject","mesh":0}],"samplers":[{},{}],"scenes":[{"nodes":[0]}],"textures":[{"source":0,"sampler":0},{"source":1,"sampler":1}],"scene":0}
