{"asset":{"version":"2.0","generator":"Open Asset Import Library (assimp v6.0.0)"},"extensionsUsed":["KHR_materials_specular","KHR_materials_volume","KHR_materials_ior","FB_ngon_encoding"],"accessors":[{"bufferView":0,"byteOffset":0,"componentType":5126,"count":4581,"type":"VEC3","max":[1.8591376543045044,2.1137001514434814,4.08335018157959],"min":[2.2250738585072014e-308,2.2250738585072014e-308,2.2250738585072014e-308]},{"bufferView":1,"byteOffset":0,"componentType":5126,"count":4581,"type":"VEC2","max":[0.9951105117797852,0.5814170837402344],"min":[2.2250738585072014e-308,2.2250738585072014e-308]},{"bufferView":2,"byteOffset":0,"componentType":5125,"count":20361,"type":"SCALAR","max":[4580],"min":[0]},{"bufferView":3,"byteOffset":0,"componentType":5126,"count":235,"type":"VEC3","max":[1.859177589416504,1.8752738237380981,3.8464620113372803],"min":[2.2250738585072014e-308,2.2250738585072014e-308,2.2250738585072014e-308]},{"bufferView":4,"byteOffset":0,"componentType":5126,"count":235,"type":"VEC2","max":[0.9225864410400391,0.809051513671875],"min":[2.2250738585072014e-308,2.2250738585072014e-308]},{"bufferView":5,"byteOffset":0,"componentType":5125,"count":1191,"type":"SCALAR","max":[234],"min":[0]}],"buffers":[{"byteLength":182528,"uri":"tile_0157.bin"}],"bufferViews":[{"buffer":0,"byteOffset":0,"byteLength":54972,"target":34962},{"buffer":0,"byteOffset":54972,"byteLength":36648,"target":34962},{"buffer":0,"byteOffset":91620,"byteLength":81444,"target":34963},{"buffer":0,"byteOffset":173064,"byteLength":2820,"target":34962},{"buffer":0,"byteOffset":175884,"byteLength":1880,"target":34962},{"buffer":0,"byteOffset":177764,"byteLength":4764,"target":34963}],"images":[{"uri":"../textures/tile_0157_material_0.jpg"},{"uri":"../textures/tile_0157_material_1.jpg"}],"materials":[{"name":"DefaultMaterial","pbrMetallicRoughness":{"baseColorFactor":[0.6000000238418579,0.6000000238418579,0.6000000238418579,1.0],"metallicFactor":0.0},"extensions":{"KHR_materials_specular":{"specularFactor":1.0,"specularColorFactor":[0.0,0.0,0.0]},"KHR_materials_ior":{"ior":1.0}}},{"name":"material_0_material","pbrMetallicRoughness":{"baseColorTexture":{"index":0},"metallicFactor":0.0},"extensions":{"KHR_materials_specular":{"specularFactor":1.0,"specularColorFactor":[0.0,0.0,0.0]},"KHR_materials_ior":{"ior":1.0}}},{"name":"material_1_material","pbrMetallicRoughness":{"baseColorTexture":{"index":1},"metallicFactor":0.0},"extensions":{"KHR_materials_specular":{"specularFactor":1.0,"specularColorFactor":[0.0,0.0,0.0]},"KHR_materials_ior":{"ior":1.0}}}],"meshes":[{"name":"defaultobject","primitives":[{"mode":4,"material":1,"indices":2,"attributes":{"POSITION":0,"TEXCOORD_0":1}},{"mode":4,"material":2,"indices":5,"attributes":{"POSITION":3,"TEXCOORD_0":4}}]}],"nodes":[{"name":"tile_0157.obj","children":[1]},{"name":"defaultobject","mesh":0}],"samplers":[{},{}],"scenes":[{"nodes":[0]}],"textures":[{"source":0,"sampler":0},{"source":1,"sampler":1}],"scene":0}
