{"asset":{"version":"2.0","generator":"Open Asset Import Library (assimp v6.0.0)"},"extensionsUsed":["KHR_materials_specular","KHR_materials_volume","KHR_materials_ior","FB_ngon_encoding"],"accessors":[{"bufferView":0,"byteOffset":0,"componentType":5126,"count":7555,"type":"VEC3","max":[-1.3830018043518066,-1.2795264720916748,2.481265068054199],"min":[-1.7738263607025146,-1.7403548955917358,2.2250738585072014e-308]},{"bufferView":1,"byteOffset":0,"componentType":5126,"count":7555,"type":"VEC2","max":[0.9899917840957642,0.8905372619628906],"min":[2.2250738585072014e-308,2.2250738585072014e-308]},{"bufferView":2,"byteOffset":0,"componentType":5125,"count":36099,"type":"SCALAR","max":[7554],"min":[0]},{"bufferView":3,"byteOffset":0,"componentType":5126,"count":4427,"type":"VEC3","max":[-1.3858157396316528,-1.2798181772232056,2.47194504737854],"min":[-1.7731887102127075,-1.7390856742858887,2.2250738585072014e-308]},{"bufferView":4,"byteOffset":0,"componentType":5126,"count":4427,"type":"VEC2","max":[0.7089192867279053,0.6348075866699219],"min":[2.2250738585072014e-308,2.2250738585072014e-308]},{"bufferView":5,"byteOffset":0,"componentType":5125,"count":23631,"type":"SCALAR","max":[4426],"min":[0]}],"buffers":[{"byteLength":478560,"uri":"tile_0328.bin"}],"bufferViews":[{"buffer":0,"byteOffset":0,"byteLength":90660,"target":34962},{"buffer":0,"byteOffset":90660,"byteLength":60440,"target":34962},{"buffer":0,"byteOffset":151100,"byteLength":144396,"target":34963},{"buffer":0,"byteOffset":295496,"byteLength":53124,"target":34962},{"buffer":0,"byteOffset":348620,"byteLength":35416,"target":34962},{"buffer":0,"byteOffset":384036,"byteLength":94524,"target":34963}],"images":[{"uri":"../textures/tile_0328_material_0.jpg"},{"uri":"../textures/tile_0328_material_1.jpg"}],"materials":[{"name":"DefaultMaterial","pbrMetallicRoughness":{"baseColorFactor":[0.6000000238418579,0.6000000238418579,0.6000000238418579,1.0],"metallicFactor":0.0},"extensions":{"KHR_materials_specular":{"specularFactor":1.0,"specularColorFactor":[0.0,0.0,0.0]},"KHR_materials_ior":{"ior":1.0}}},{"name":"material_0_material","pbrMetallicRoughness":{"baseColorTexture":{"index":0},"metallicFactor":0.0},"extensions":{"KHR_materials_specular":{"specularFactor":1.0,"specularColorFactor":[0.0,0.0,0.0]},"KHR_materials_ior":{"ior":1.0}}},{"name":"material_1_material","pbrMetallicRoughness":{"baseColorTexture":{"index":1},"metallicFactor":0.0},"extensions":{"KHR_materials_specular":{"specularFactor":1.0,"specularColorFactor":[0.0,0.0,0.0]},"KHR_materials_ior":{"ior":1.0}}}],"meshes":[{"name":"defaultobject","primitives":[{"mode":4,"material":1,"indices":2,"attributes":{"POSITION":0,"TEXCOORD_0":1}},{"mode":4,"material":2,"indices":5,"attributes":{"POSITION":3,"TEXCOORD_0":4}}]}],"nodes":[{"name":"tile_0328.obj","children":[1]},{"name":"defaultobject","mesh":0}],"samplers":[{},{}],"scenes":[{"nodes":[0]}],"textures":[{"source":0,"sampler":0},{"source":1,"sampler":1}],"scene":0}
