{"asset":{"version":"2.0","generator":"Open Asset Import Library (assimp v6.0.0)"},"extensionsUsed":["KHR_materials_specular","KHR_materials_volume","KHR_materials_ior","FB_ngon_encoding"],"accessors":[{"bufferView":0,"byteOffset":0,"componentType":5126,"count":4661,"type":"VEC3","max":[4.789544105529785,1.1350947618484497,4.259228229522705],"min":[2.2250738585072014e-308,2.2250738585072014e-308,2.2250738585072014e-308]},{"bufferView":1,"byteOffset":0,"componentType":5126,"count":4661,"type":"VEC2","max":[0.9946985244750977,0.5116634368896484],"min":[2.2250738585072014e-308,2.2250738585072014e-308]},{"bufferView":2,"byteOffset":0,"componentType":5125,"count":20091,"type":"SCALAR","max":[4660],"min":[0]},{"bufferView":3,"byteOffset":0,"componentType":5126,"count":11,"type":"VEC3","max":[4.2473039627075195,1.1323875188827515,4.0662617683410645],"min":[2.2250738585072014e-308,2.2250738585072014e-308,2.2250738585072014e-308]},{"bufferView":4,"byteOffset":0,"componentType":5126,"count":11,"type":"VEC2","max":[0.3946227729320526,0.5040283203125],"min":[2.2250738585072014e-308,2.2250738585072014e-308]},{"bufferView":5,"byteOffset":0,"componentType":5125,"count":27,"type":"SCALAR","max":[10],"min":[0]}],"buffers":[{"byteLength":173912,"uri":"tile_0709.bin"}],"bufferViews":[{"buffer":0,"byteOffset":0,"byteLength":55932,"target":34962},{"buffer":0,"byteOffset":55932,"byteLength":37288,"target":34962},{"buffer":0,"byteOffset":93220,"byteLength":80364,"target":34963},{"buffer":0,"byteOffset":173584,"byteLength":132,"target":34962},{"buffer":0,"byteOffset":173716,"byteLength":88,"target":34962},{"buffer":0,"byteOffset":173804,"byteLength":108,"target":34963}],"images":[{"uri":"../textures/tile_0709_material_0.jpg"},{"uri":"../textures/tile_0709_material_1.jpg"}],"materials":[{"name":"DefaultMaterial","pbrMetallicRoughness":{"baseColorFactor":[0.6000000238418579,0.6000000238418579,0.6000000238418579,1.0],"metallicFactor":0.0},"extensions":{"KHR_materials_specular":{"specularFactor":1.0,"specularColorFactor":[0.0,0.0,0.0]},"KHR_materials_ior":{"ior":1.0}}},{"name":"material_0_material","pbrMetallicRoughness":{"baseColorTexture":{"index":0},"metallicFactor":0.0},"extensions":{"KHR_materials_specular":{"specularFactor":1.0,"specularColorFactor":[0.0,0.0,0.0]},"KHR_materials_ior":{"ior":1.0}}},{"name":"material_1_material","pbrMetallicRoughness":{"baseColorTexture":{"index":1},"metallicFactor":0.0},"extensions":{"KHR_materials_specular":{"specularFactor":1.0,"specularColorFactor":[0.0,0.0,0.0]},"KHR_materials_ior":{"ior":1.0}}}],"meshes":[{"name":"defaultobject","primitives":[{"mode":4,"material":1,"indices":2,"attributes":{"POSITION":0,"TEXCOORD_0":1}},{"mode":4,"material":2,"indices":5,"attributes":{"POSITION":3,"TEXCOORD_0":4}}]}],"nodes":[{"name":"tile_0709.obj","children":[1]},{"name":"defaultobject","mesh":0}],"samplers":[{},{}],"scenes":[{"nodes":[0]}],"textures":[{"source":0,"sampler":0},{"source":1,"sampler":1}],"scene":0}
