{"asset":{"version":"2.0","generator":"Open Asset Import Library (assimp v6.0.0)"},"extensionsUsed":["KHR_materials_specular","KHR_materials_volume","KHR_materials_ior","FB_ngon_encoding"],"accessors":[{"bufferView":0,"byteOffset":0,"componentType":5126,"count":4836,"type":"VEC3","max":[-4.8499040603637695,3.220720052719116,4.867706775665283],"min":[-5.53779935836792,2.2250738585072014e-308,2.2250738585072014e-308]},{"bufferView":1,"byteOffset":0,"componentType":5126,"count":4836,"type":"VEC2","max":[0.9888560771942139,0.6248607635498047],"min":[2.2250738585072014e-308,2.2250738585072014e-308]},{"bufferView":2,"byteOffset":0,"componentType":5125,"count":21963,"type":"SCALAR","max":[4835],"min":[0]},{"bufferView":3,"byteOffset":0,"componentType":5126,"count":1461,"type":"VEC3","max":[-4.928086757659912,3.2208409309387207,4.868500709533691],"min":[-5.538401126861572,2.2250738585072014e-308,2.2250738585072014e-308]},{"bufferView":4,"byteOffset":0,"componentType":5126,"count":1461,"type":"VEC2","max":[0.6819252967834473,0.9715690612792969],"min":[2.2250738585072014e-308,2.2250738585072014e-308]},{"bufferView":5,"byteOffset":0,"componentType":5125,"count":7107,"type":"SCALAR","max":[1460],"min":[0]}],"buffers":[{"byteLength":242220,"uri":"tile_0517.bin"}],"bufferViews":[{"buffer":0,"byteOffset":0,"byteLength":58032,"target":34962},{"buffer":0,"byteOffset":58032,"byteLength":38688,"target":34962},{"buffer":0,"byteOffset":96720,"byteLength":87852,"target":34963},{"buffer":0,"byteOffset":184572,"byteLength":17532,"target":34962},{"buffer":0,"byteOffset":202104,"byteLength":11688,"target":34962},{"buffer":0,"byteOffset":213792,"byteLength":28428,"target":34963}],"images":[{"uri":"../textures/tile_0517_material_0.jpg"},{"uri":"../textures/tile_0517_material_1.jpg"}],"materials":[{"name":"DefaultMaterial","pbrMetallicRoughness":{"baseColorFactor":[0.6000000238418579,0.6000000238418579,0.6000000238418579,1.0],"metallicFactor":0.0},"extensions":{"KHR_materials_specular":{"specularFactor":1.0,"specularColorFactor":[0.0,0.0,0.0]},"KHR_materials_ior":{"ior":1.0}}},{"name":"material_0_material","pbrMetallicRoughness":{"baseColorTexture":{"index":0},"metallicFactor":0.0},"extensions":{"KHR_materials_specular":{"specularFactor":1.0,"specularColorFactor":[0.0,0.0,0.0]},"KHR_materials_ior":{"ior":1.0}}},{"name":"material_1_material","pbrMetallicRoughness":{"baseColorTexture":{"index":1},"metallicFactor":0.0},"extensions":{"KHR_materials_specular":{"specularFactor":1.0,"specularColorFactor":[0.0,0.0,0.0]},"KHR_materials_ior":{"ior":1.0}}}],"meshes":[{"name":"defaultobject","primitives":[{"mode":4,"material":1,"indices":2,"attributes":{"POSITION":0,"TEXCOORD_0":1}},{"mode":4,"material":2,"indices":5,"attributes":{"POSITION":3,"TEXCOORD_0":4}}]}],"nodes":[{"name":"tile_0517.obj","children":[1]},{"name":"defaultobject","mesh":0}],"samplers":[{},{}],"scenes":[{"nodes":[0]}],"textures":[{"source":0,"sampler":0},{"source":1,"sampler":1}],"scene":0}
