{"asset":{"version":"2.0","generator":"Open Asset Import Library (assimp v6.0.0)"},"extensionsUsed":["KHR_materials_specular","KHR_materials_volume","KHR_materials_ior","FB_ngon_encoding"],"accessors":[{"bufferView":0,"byteOffset":0,"componentType":5126,"count":2341,"type":"VEC3","max":[-1.5587881803512573,-5.2497639656066895,2.477433681488037],"min":[-1.7759064435958862,-5.938207626342773,2.2250738585072014e-308]},{"bufferView":1,"byteOffset":0,"componentType":5126,"count":2341,"type":"VEC2","max":[0.9645166397094727,0.7393569946289062],"min":[2.2250738585072014e-308,2.2250738585072014e-308]},{"bufferView":2,"byteOffset":0,"componentType":5125,"count":11115,"type":"SCALAR","max":[2340],"min":[0]},{"bufferView":3,"byteOffset":0,"componentType":5126,"count":3805,"type":"VEC3","max":[-1.5507118701934814,-5.232550144195557,2.489208459854126],"min":[-1.7759064435958862,-5.942591190338135,2.2250738585072014e-308]},{"bufferView":4,"byteOffset":0,"componentType":5126,"count":3805,"type":"VEC2","max":[0.9865298271179199,0.9082603454589844],"min":[2.2250738585072014e-308,2.2250738585072014e-308]},{"bufferView":5,"byteOffset":0,"componentType":5125,"count":19356,"type":"SCALAR","max":[3804],"min":[0]}],"buffers":[{"byteLength":244804,"uri":"tile_0391.bin"}],"bufferViews":[{"buffer":0,"byteOffset":0,"byteLength":28092,"target":34962},{"buffer":0,"byteOffset":28092,"byteLength":18728,"target":34962},{"buffer":0,"byteOffset":46820,"byteLength":44460,"target":34963},{"buffer":0,"byteOffset":91280,"byteLength":45660,"target":34962},{"buffer":0,"byteOffset":136940,"byteLength":30440,"target":34962},{"buffer":0,"byteOffset":167380,"byteLength":77424,"target":34963}],"images":[{"uri":"../textures/tile_0391_material_0.jpg"},{"uri":"../textures/tile_0391_material_1.jpg"}],"materials":[{"name":"DefaultMaterial","pbrMetallicRoughness":{"baseColorFactor":[0.6000000238418579,0.6000000238418579,0.6000000238418579,1.0],"metallicFactor":0.0},"extensions":{"KHR_materials_specular":{"specularFactor":1.0,"specularColorFactor":[0.0,0.0,0.0]},"KHR_materials_ior":{"ior":1.0}}},{"name":"material_0_material","pbrMetallicRoughness":{"baseColorTexture":{"index":0},"metallicFactor":0.0},"extensions":{"KHR_materials_specular":{"specularFactor":1.0,"specularColorFactor":[0.0,0.0,0.0]},"KHR_materials_ior":{"ior":1.0}}},{"name":"material_1_material","pbrMetallicRoughness":{"baseColorTexture":{"index":1},"metallicFactor":0.0},"extensions":{"KHR_materials_specular":{"specularFactor":1.0,"specularColorFactor":[0.0,0.0,0.0]},"KHR_materials_ior":{"ior":1.0}}}],"meshes":[{"name":"defaultobject","primitives":[{"mode":4,"material":1,"indices":2,"attributes":{"POSITION":0,"TEXCOORD_0":1}},{"mode":4,"material":2,"indices":5,"attributes":{"POSITION":3,"TEXCOORD_0":4}}]}],"nodes":[{"name":"tile_0391.obj","children":[1]},{"name":"defaultobject","mesh":0}],"samplers":[{},{}],"scenes":[{"nodes":[0]}],"textures":[{"source":0,"sampler":0},{"source":1,"sampler":1}],"scene":0}
