{"asset":{"version":"2.0","generator":"Open Asset Import Library (assimp v6.0.0)"},"extensionsUsed":["KHR_materials_specular","KHR_materials_volume","KHR_materials_ior","FB_ngon_encoding"],"accessors":[{"bufferView":0,"byteOffset":0,"componentType":5126,"count":11262,"type":"VEC3","max":[-0.7266647219657898,-1.2287237644195557,2.41166353225708],"min":[-1.059812068939209,-1.7402801513671875,2.2250738585072014e-308]},{"bufferView":1,"byteOffset":0,"componentType":5126,"count":11262,"type":"VEC2","max":[0.9878425598144531,0.5858173370361328],"min":[2.2250738585072014e-308,2.2250738585072014e-308]},{"bufferView":2,"byteOffset":0,"componentType":5125,"count":54120,"type":"SCALAR","max":[11261],"min":[0]},{"bufferView":3,"byteOffset":0,"componentType":5126,"count":1780,"type":"VEC3","max":[-0.8346676230430603,-1.2276599407196045,2.407649278640747],"min":[-1.0433048009872437,-1.7041875123977661,2.2250738585072014e-308]},{"bufferView":4,"byteOffset":0,"componentType":5126,"count":1780,"type":"VEC2","max":[0.7305498123168945,0.6271324157714844],"min":[2.2250738585072014e-308,2.2250738585072014e-308]},{"bufferView":5,"byteOffset":0,"componentType":5125,"count":9396,"type":"SCALAR","max":[1779],"min":[0]}],"buffers":[{"byteLength":514904,"uri":"tile_0051.bin"}],"bufferViews":[{"buffer":0,"byteOffset":0,"byteLength":135144,"target":34962},{"buffer":0,"byteOffset":135144,"byteLength":90096,"target":34962},{"buffer":0,"byteOffset":225240,"byteLength":216480,"target":34963},{"buffer":0,"byteOffset":441720,"byteLength":21360,"target":34962},{"buffer":0,"byteOffset":463080,"byteLength":14240,"target":34962},{"buffer":0,"byteOffset":477320,"byteLength":37584,"target":34963}],"images":[{"uri":"../textures/tile_0051_material_0.jpg"},{"uri":"../textures/tile_0051_material_1.jpg"}],"materials":[{"name":"DefaultMaterial","pbrMetallicRoughness":{"baseColorFactor":[0.6000000238418579,0.6000000238418579,0.6000000238418579,1.0],"metallicFactor":0.0},"extensions":{"KHR_materials_specular":{"specularFactor":1.0,"specularColorFactor":[0.0,0.0,0.0]},"KHR_materials_ior":{"ior":1.0}}},{"name":"material_0_material","pbrMetallicRoughness":{"baseColorTexture":{"index":0},"metallicFactor":0.0},"extensions":{"KHR_materials_specular":{"specularFactor":1.0,"specularColorFactor":[0.0,0.0,0.0]},"KHR_materials_ior":{"ior":1.0}}},{"name":"material_1_material","pbrMetallicRoughness":{"baseColorTexture":{"index":1},"metallicFactor":0.0},"extensions":{"KHR_materials_specular":{"specularFactor":1.0,"specularColorFactor":[0.0,0.0,0.0]},"KHR_materials_ior":{"ior":1.0}}}],"meshes":[{"name":"defaultobject","primitives":[{"mode":4,"material":1,"indices":2,"attributes":{"POSITION":0,"TEXCOORD_0":1}},{"mode":4,"material":2,"indices":5,"attributes":{"POSITION":3,"TEXCOORD_0":4}}]}],"nodes":[{"name":"tile_0051.obj","children":[1]},{"name":"defaultobject","mesh":0}],"samplers":[{},{}],"scenes":[{"nodes":[0]}],"textures":[{"source":0,"sampler":0},{"source":1,"sampler":1}],"scene":0}
