{"asset":{"version":"2.0","generator":"Open Asset Import Library (assimp v6.0.0)"},"extensionsUsed":["KHR_materials_specular","KHR_materials_volume","KHR_materials_ior","FB_ngon_encoding"],"accessors":[{"bufferView":0,"byteOffset":0,"componentType":5126,"count":5929,"type":"VEC3","max":[-4.407769680023193,0.7264683246612549,4.22028112411499],"min":[-4.988126277923584,2.2250738585072014e-308,2.2250738585072014e-308]},{"bufferView":1,"byteOffset":0,"componentType":5126,"count":5929,"type":"VEC2","max":[0.9866862297058105,0.6036510467529297],"min":[2.2250738585072014e-308,2.2250738585072014e-308]},{"bufferView":2,"byteOffset":0,"componentType":5125,"count":26883,"type":"SCALAR","max":[5928],"min":[0]},{"bufferView":3,"byteOffset":0,"componentType":5126,"count":436,"type":"VEC3","max":[-4.584333419799805,0.7237684726715088,4.220905780792236],"min":[-4.990497589111328,2.2250738585072014e-308,2.2250738585072014e-308]},{"bufferView":4,"byteOffset":0,"componentType":5126,"count":436,"type":"VEC2","max":[0.7267484664916992,0.6492385864257812],"min":[2.2250738585072014e-308,2.2250738585072014e-308]},{"bufferView":5,"byteOffset":0,"componentType":5125,"count":2040,"type":"SCALAR","max":[435],"min":[0]}],"buffers":[{"byteLength":242992,"uri":"tile_0582.bin"}],"bufferViews":[{"buffer":0,"byteOffset":0,"byteLength":71148,"target":34962},{"buffer":0,"byteOffset":71148,"byteLength":47432,"target":34962},{"buffer":0,"byteOffset":118580,"byteLength":107532,"target":34963},{"buffer":0,"byteOffset":226112,"byteLength":5232,"target":34962},{"buffer":0,"byteOffset":231344,"byteLength":3488,"target":34962},{"buffer":0,"byteOffset":234832,"byteLength":8160,"target":34963}],"images":[{"uri":"../textures/tile_0582_material_0.jpg"},{"uri":"../textures/tile_0582_material_1.jpg"}],"materials":[{"name":"DefaultMaterial","pbrMetallicRoughness":{"baseColorFactor":[0.6000000238418579,0.6000000238418579,0.6000000238418579,1.0],"metallicFactor":0.0},"extensions":{"KHR_materials_specular":{"specularFactor":1.0,"specularColorFactor":[0.0,0.0,0.0]},"KHR_materials_ior":{"ior":1.0}}},{"name":"material_0_material","pbrMetallicRoughness":{"baseColorTexture":{"index":0},"metallicFactor":0.0},"extensions":{"KHR_materials_specular":{"specularFactor":1.0,"specularColorFactor":[0.0,0.0,0.0]},"KHR_materials_ior":{"ior":1.0}}},{"name":"material_1_material","pbrMetallicRoughness":{"baseColorTexture":{"index":1},"metallicFactor":0.0},"extensions":{"KHR_materials_specular":{"specularFactor":1.0,"specularColorFactor":[0.0,0.0,0.0]},"KHR_materials_ior":{"ior":1.0}}}],"meshes":[{"name":"defaultobject","primitives":[{"mode":4,"material":1,"indices":2,"attributes":{"POSITION":0,"TEXCOORD_0":1}},{"mode":4,"material":2,"indices":5,"attributes":{"POSITION":3,"TEXCOORD_0":4}}]}],"nodes":[{"name":"tile_0582.obj","children":[1]},{"name":"defaultobject","mesh":0}],"samplers":[{},{}],"scenes":[{"nodes":[0]}],"textures":[{"source":0,"sampler":0},{"source":1,"sampler":1}],"scene":0}
