{"asset":{"version":"2.0","generator":"Open Asset Import Library (assimp v6.0.0)"},"extensionsUsed":["KHR_materials_specular","KHR_materials_volume","KHR_materials_ior","FB_ngon_encoding"],"accessors":[{"bufferView":0,"byteOffset":0,"componentType":5126,"count":5826,"type":"VEC3","max":[3.3994758129119873,-1.6701233386993408,3.970611810684204],"min":[2.2250738585072014e-308,-1.9223270416259766,2.2250738585072014e-308]},{"bufferView":1,"byteOffset":0,"componentType":5126,"count":5826,"type":"VEC2","max":[0.9946632385253906,0.6909065246582031],"min":[2.2250738585072014e-308,2.2250738585072014e-308]},{"bufferView":2,"byteOffset":0,"componentType":5125,"count":25251,"type":"SCALAR","max":[5825],"min":[0]}],"buffers":[{"byteLength":217524,"uri":"tile_0242.bin"}],"bufferViews":[{"buffer":0,"byteOffset":0,"byteLength":69912,"target":34962},{"buffer":0,"byteOffset":69912,"byteLength":46608,"target":34962},{"buffer":0,"byteOffset":116520,"byteLength":101004,"target":34963}],"images":[{"uri":"../textures/tile_0242_material_0.jpg"}],"materials":[{"name":"DefaultMaterial","pbrMetallicRoughness":{"baseColorFactor":[0.6000000238418579,0.6000000238418579,0.6000000238418579,1.0],"metallicFactor":0.0},"extensions":{"KHR_materials_specular":{"specularFactor":1.0,"specularColorFactor":[0.0,0.0,0.0]},"KHR_materials_ior":{"ior":1.0}}},{"name":"material_0_material","pbrMetallicRoughness":{"baseColorTexture":{"index":0},"metallicFactor":0.0},"extensions":{"KHR_materials_specular":{"specularFactor":1.0,"specularColorFactor":[0.0,0.0,0.0]},"KHR_materials_ior":{"ior":1.0}}},{"name":"material_1_material","pbrMetallicRoughness":{"metallicFactor":0.0},"extensions":{"KHR_materials_specular":{"specularFactor":1.0,"specularColorFactor":[0.0,0.0,0.0]},"KHR_materials_ior":{"ior":1.0}}}],"meshes":[{"name":"defaultobject","primitives":[{"mode":4,"material":1,"indices":2,"attributes":{"POSITION":0,"TEXCOORD_0":1}}]}],"nodes":[{"name":"tile_0242.obj","children":[1]},{"name":"defaultobject","mesh":0}],"samplers":[{}],"scenes":[{"nodes":[0]}],"textures":[{"source":0,"sampler":0}],"scene":0}
