{"asset":{"version":"2.0","generator":"Open Asset Import Library (assimp v6.0.0)"},"extensionsUsed":["KHR_materials_specular","KHR_materials_volume","KHR_materials_ior","FB_ngon_encoding"],"accessors":[{"bufferView":0,"byteOffset":0,"componentType":5126,"count":12777,"type":"VEC3","max":[4.168678283691406,1.4241769313812256,4.1028265953063965],"min":[2.2250738585072014e-308,2.2250738585072014e-308,2.2250738585072014e-308]},{"bufferView":1,"byteOffset":0,"componentType":5126,"count":12777,"type":"VEC2","max":[0.9960556030273438,0.6601486206054688],"min":[2.2250738585072014e-308,2.2250738585072014e-308]},{"bufferView":2,"byteOffset":0,"componentType":5125,"count":58593,"type":"SCALAR","max":[12776],"min":[0]},{"bufferView":3,"byteOffset":0,"componentType":5126,"count":1513,"type":"VEC3","max":[4.169299125671387,1.420312762260437,4.1000142097473145],"min":[2.2250738585072014e-308,2.2250738585072014e-308,2.2250738585072014e-308]},{"bufferView":4,"byteOffset":0,"componentType":5126,"count":1513,"type":"VEC2","max":[0.5953298807144165,0.9361076354980469],"min":[2.2250738585072014e-308,2.2250738585072014e-308]},{"bufferView":5,"byteOffset":0,"componentType":5125,"count":7512,"type":"SCALAR","max":[1512],"min":[0]}],"buffers":[{"byteLength":550220,"uri":"tile_0648.bin"}],"bufferViews":[{"buffer":0,"byteOffset":0,"byteLength":153324,"target":34962},{"buffer":0,"byteOffset":153324,"byteLength":102216,"target":34962},{"buffer":0,"byteOffset":255540,"byteLength":234372,"target":34963},{"buffer":0,"byteOffset":489912,"byteLength":18156,"target":34962},{"buffer":0,"byteOffset":508068,"byteLength":12104,"target":34962},{"buffer":0,"byteOffset":520172,"byteLength":30048,"target":34963}],"images":[{"uri":"../textures/tile_0648_material_0.jpg"},{"uri":"../textures/tile_0648_material_1.jpg"}],"materials":[{"name":"DefaultMaterial","pbrMetallicRoughness":{"baseColorFactor":[0.6000000238418579,0.6000000238418579,0.6000000238418579,1.0],"metallicFactor":0.0},"extensions":{"KHR_materials_specular":{"specularFactor":1.0,"specularColorFactor":[0.0,0.0,0.0]},"KHR_materials_ior":{"ior":1.0}}},{"name":"material_0_material","pbrMetallicRoughness":{"baseColorTexture":{"index":0},"metallicFactor":0.0},"extensions":{"KHR_materials_specular":{"specularFactor":1.0,"specularColorFactor":[0.0,0.0,0.0]},"KHR_materials_ior":{"ior":1.0}}},{"name":"material_1_material","pbrMetallicRoughness":{"baseColorTexture":{"index":1},"metallicFactor":0.0},"extensions":{"KHR_materials_specular":{"specularFactor":1.0,"specularColorFactor":[0.0,0.0,0.0]},"KHR_materials_ior":{"ior":1.0}}}],"meshes":[{"name":"defaultobject","primitives":[{"mode":4,"material":1,"indices":2,"attributes":{"POSITION":0,"TEXCOORD_0":1}},{"mode":4,"material":2,"indices":5,"attributes":{"POSITION":3,"TEXCOORD_0":4}}]}],"nodes":[{"name":"tile_0648.obj","children":[1]},{"name":"defaultobject","mesh":0}],"samplers":[{},{}],"scenes":[{"nodes":[0]}],"textures":[{"source":0,"sampler":0},{"source":1,"sampler":1}],"scene":0}
