{"asset":{"version":"2.0","generator":"Open Asset Import Library (assimp v6.0.0)"},"extensionsUsed":["KHR_materials_specular","KHR_materials_volume","KHR_materials_ior","FB_ngon_encoding"],"accessors":[{"bufferView":0,"byteOffset":0,"componentType":5126,"count":4018,"type":"VEC3","max":[-3.5092780590057373,0.7232433557510376,4.053769588470459],"min":[-4.011264801025391,2.2250738585072014e-308,2.2250738585072014e-308]},{"bufferView":1,"byteOffset":0,"componentType":5126,"count":4018,"type":"VEC2","max":[0.9942197799682617,0.9752120971679688],"min":[2.2250738585072014e-308,2.2250738585072014e-308]},{"bufferView":2,"byteOffset":0,"componentType":5125,"count":17391,"type":"SCALAR","max":[4017],"min":[0]},{"bufferView":3,"byteOffset":0,"componentType":5126,"count":545,"type":"VEC3","max":[-3.5884957313537598,0.7191511988639832,4.006091594696045],"min":[-3.8734090328216553,2.2250738585072014e-308,2.2250738585072014e-308]},{"bufferView":4,"byteOffset":0,"componentType":5126,"count":545,"type":"VEC2","max":[0.7088289260864258,0.7363395690917969],"min":[2.2250738585072014e-308,2.2250738585072014e-308]},{"bufferView":5,"byteOffset":0,"componentType":5125,"count":2703,"type":"SCALAR","max":[544],"min":[0]}],"buffers":[{"byteLength":171636,"uri":"tile_0579.bin"}],"bufferViews":[{"buffer":0,"byteOffset":0,"byteLength":48216,"target":34962},{"buffer":0,"byteOffset":48216,"byteLength":32144,"target":34962},{"buffer":0,"byteOffset":80360,"byteLength":69564,"target":34963},{"buffer":0,"byteOffset":149924,"byteLength":6540,"target":34962},{"buffer":0,"byteOffset":156464,"byteLength":4360,"target":34962},{"buffer":0,"byteOffset":160824,"byteLength":10812,"target":34963}],"images":[{"uri":"../textures/tile_0579_material_0.jpg"},{"uri":"../textures/tile_0579_material_1.jpg"}],"materials":[{"name":"DefaultMaterial","pbrMetallicRoughness":{"baseColorFactor":[0.6000000238418579,0.6000000238418579,0.6000000238418579,1.0],"metallicFactor":0.0},"extensions":{"KHR_materials_specular":{"specularFactor":1.0,"specularColorFactor":[0.0,0.0,0.0]},"KHR_materials_ior":{"ior":1.0}}},{"name":"material_0_material","pbrMetallicRoughness":{"baseColorTexture":{"index":0},"metallicFactor":0.0},"extensions":{"KHR_materials_specular":{"specularFactor":1.0,"specularColorFactor":[0.0,0.0,0.0]},"KHR_materials_ior":{"ior":1.0}}},{"name":"material_1_material","pbrMetallicRoughness":{"baseColorTexture":{"index":1},"metallicFactor":0.0},"extensions":{"KHR_materials_specular":{"specularFactor":1.0,"specularColorFactor":[0.0,0.0,0.0]},"KHR_materials_ior":{"ior":1.0}}}],"meshes":[{"name":"defaultobject","primitives":[{"mode":4,"material":1,"indices":2,"attributes":{"POSITION":0,"TEXCOORD_0":1}},{"mode":4,"material":2,"indices":5,"attributes":{"POSITION":3,"TEXCOORD_0":4}}]}],"nodes":[{"name":"tile_0579.obj","children":[1]},{"name":"defaultobject","mesh":0}],"samplers":[{},{}],"scenes":[{"nodes":[0]}],"textures":[{"source":0,"sampler":0},{"source":1,"sampler":1}],"scene":0}
