{"asset":{"version":"2.0","generator":"Open Asset Import Library (assimp v6.0.0)"},"extensionsUsed":["KHR_materials_specular","KHR_materials_volume","KHR_materials_ior","FB_ngon_encoding"],"accessors":[{"bufferView":0,"byteOffset":0,"componentType":5126,"count":3991,"type":"VEC3","max":[-1.3197283744812012,5.280172348022461,4.888578414916992],"min":[-1.6568853855133057,2.2250738585072014e-308,2.2250738585072014e-308]},{"bufferView":1,"byteOffset":0,"componentType":5126,"count":3991,"type":"VEC2","max":[0.9819517135620117,0.5370063781738281],"min":[2.2250738585072014e-308,2.2250738585072014e-308]},{"bufferView":2,"byteOffset":0,"componentType":5125,"count":17913,"type":"SCALAR","max":[3990],"min":[0]},{"bufferView":3,"byteOffset":0,"componentType":5126,"count":775,"type":"VEC3","max":[-1.3219166994094849,5.278526306152344,4.8494086265563965],"min":[-1.6557753086090088,2.2250738585072014e-308,2.2250738585072014e-308]},{"bufferView":4,"byteOffset":0,"componentType":5126,"count":775,"type":"VEC2","max":[0.5502338409423828,0.5151252746582031],"min":[2.2250738585072014e-308,2.2250738585072014e-308]},{"bufferView":5,"byteOffset":0,"componentType":5125,"count":4089,"type":"SCALAR","max":[774],"min":[0]}],"buffers":[{"byteLength":183328,"uri":"tile_0553.bin"}],"bufferViews":[{"buffer":0,"byteOffset":0,"byteLength":47892,"target":34962},{"buffer":0,"byteOffset":47892,"byteLength":31928,"target":34962},{"buffer":0,"byteOffset":79820,"byteLength":71652,"target":34963},{"buffer":0,"byteOffset":151472,"byteLength":9300,"target":34962},{"buffer":0,"byteOffset":160772,"byteLength":6200,"target":34962},{"buffer":0,"byteOffset":166972,"byteLength":16356,"target":34963}],"images":[{"uri":"../textures/tile_0553_material_0.jpg"},{"uri":"../textures/tile_0553_material_1.jpg"}],"materials":[{"name":"DefaultMaterial","pbrMetallicRoughness":{"baseColorFactor":[0.6000000238418579,0.6000000238418579,0.6000000238418579,1.0],"metallicFactor":0.0},"extensions":{"KHR_materials_specular":{"specularFactor":1.0,"specularColorFactor":[0.0,0.0,0.0]},"KHR_materials_ior":{"ior":1.0}}},{"name":"material_0_material","pbrMetallicRoughness":{"baseColorTexture":{"index":0},"metallicFactor":0.0},"extensions":{"KHR_materials_specular":{"specularFactor":1.0,"specularColorFactor":[0.0,0.0,0.0]},"KHR_materials_ior":{"ior":1.0}}},{"name":"material_1_material","pbrMetallicRoughness":{"baseColorTexture":{"index":1},"metallicFactor":0.0},"extensions":{"KHR_materials_specular":{"specularFactor":1.0,"specularColorFactor":[0.0,0.0,0.0]},"KHR_materials_ior":{"ior":1.0}}}],"meshes":[{"name":"defaultobject","primitives":[{"mode":4,"material":1,"indices":2,"attributes":{"POSITION":0,"TEXCOORD_0":1}},{"mode":4,"material":2,"indices":5,"attributes":{"POSITION":3,"TEXCOORD_0":4}}]}],"nodes":[{"name":"tile_0553.obj","children":[1]},{"name":"defaultobject","mesh":0}],"samplers":[{},{}],"scenes":[{"nodes":[0]}],"textures":[{"source":0,"sampler":0},{"source":1,"sampler":1}],"scene":0}
