{"asset":{"version":"2.0","generator":"Open Asset Import Library (assimp v6.0.0)"},"extensionsUsed":["KHR_materials_specular","KHR_materials_volume","KHR_materials_ior","FB_ngon_encoding"],"accessors":[{"bufferView":0,"byteOffset":0,"componentType":5126,"count":4526,"type":"VEC3","max":[1.8673661947250366,2.9712536334991455,4.386013984680176],"min":[2.2250738585072014e-308,2.2250738585072014e-308,2.2250738585072014e-308]},{"bufferView":1,"byteOffset":0,"componentType":5126,"count":4526,"type":"VEC2","max":[0.9918174147605896,0.9530868530273438],"min":[2.2250738585072014e-308,2.2250738585072014e-308]},{"bufferView":2,"byteOffset":0,"componentType":5125,"count":19338,"type":"SCALAR","max":[4525],"min":[0]},{"bufferView":3,"byteOffset":0,"componentType":5126,"count":1529,"type":"VEC3","max":[1.8731769323349,2.9708642959594727,4.392380714416504],"min":[2.2250738585072014e-308,2.2250738585072014e-308,2.2250738585072014e-308]},{"bufferView":4,"byteOffset":0,"componentType":5126,"count":1529,"type":"VEC2","max":[0.9548263549804688,0.7929344177246094],"min":[2.2250738585072014e-308,2.2250738585072014e-308]},{"bufferView":5,"byteOffset":0,"componentType":5125,"count":7071,"type":"SCALAR","max":[1528],"min":[0]}],"buffers":[{"byteLength":226736,"uri":"tile_0189.bin"}],"bufferViews":[{"buffer":0,"byteOffset":0,"byteLength":54312,"target":34962},{"buffer":0,"byteOffset":54312,"byteLength":36208,"target":34962},{"buffer":0,"byteOffset":90520,"byteLength":77352,"target":34963},{"buffer":0,"byteOffset":167872,"byteLength":18348,"target":34962},{"buffer":0,"byteOffset":186220,"byteLength":12232,"target":34962},{"buffer":0,"byteOffset":198452,"byteLength":28284,"target":34963}],"images":[{"uri":"../textures/tile_0189_material_0.jpg"},{"uri":"../textures/tile_0189_material_1.jpg"}],"materials":[{"name":"DefaultMaterial","pbrMetallicRoughness":{"baseColorFactor":[0.6000000238418579,0.6000000238418579,0.6000000238418579,1.0],"metallicFactor":0.0},"extensions":{"KHR_materials_specular":{"specularFactor":1.0,"specularColorFactor":[0.0,0.0,0.0]},"KHR_materials_ior":{"ior":1.0}}},{"name":"material_0_material","pbrMetallicRoughness":{"baseColorTexture":{"index":0},"metallicFactor":0.0},"extensions":{"KHR_materials_specular":{"specularFactor":1.0,"specularColorFactor":[0.0,0.0,0.0]},"KHR_materials_ior":{"ior":1.0}}},{"name":"material_1_material","pbrMetallicRoughness":{"baseColorTexture":{"index":1},"metallicFactor":0.0},"extensions":{"KHR_materials_specular":{"specularFactor":1.0,"specularColorFactor":[0.0,0.0,0.0]},"KHR_materials_ior":{"ior":1.0}}}],"meshes":[{"name":"defaultobject","primitives":[{"mode":4,"material":1,"indices":2,"attributes":{"POSITION":0,"TEXCOORD_0":1}},{"mode":4,"material":2,"indices":5,"attributes":{"POSITION":3,"TEXCOORD_0":4}}]}],"nodes":[{"name":"tile_0189.obj","children":[1]},{"name":"defaultobject","mesh":0}],"samplers":[{},{}],"scenes":[{"nodes":[0]}],"textures":[{"source":0,"sampler":0},{"source":1,"sampler":1}],"scene":0}
