{"asset":{"version":"2.0","generator":"Open Asset Import Library (assimp v6.0.0)"},"extensionsUsed":["KHR_materials_specular","KHR_materials_volume","KHR_materials_ior","FB_ngon_encoding"],"accessors":[{"bufferView":0,"byteOffset":0,"componentType":5126,"count":3467,"type":"VEC3","max":[-0.9490857720375061,0.25205308198928833,4.150406360626221],"min":[-1.2847959995269775,-0.05556618049740791,2.2250738585072014e-308]},{"bufferView":1,"byteOffset":0,"componentType":5126,"count":3467,"type":"VEC2","max":[0.9898972511291504,0.5102958679199219],"min":[2.2250738585072014e-308,2.2250738585072014e-308]},{"bufferView":2,"byteOffset":0,"componentType":5125,"count":15045,"type":"SCALAR","max":[3466],"min":[0]},{"bufferView":3,"byteOffset":0,"componentType":5126,"count":1933,"type":"VEC3","max":[-0.9427796602249146,0.2522674798965454,4.141258239746094],"min":[-1.2709155082702637,-0.07485757768154144,2.2250738585072014e-308]},{"bufferView":4,"byteOffset":0,"componentType":5126,"count":1933,"type":"VEC2","max":[0.6415610313415527,0.4909858703613281],"min":[2.2250738585072014e-308,2.2250738585072014e-308]},{"bufferView":5,"byteOffset":0,"componentType":5125,"count":9927,"type":"SCALAR","max":[1932],"min":[0]}],"buffers":[{"byteLength":207888,"uri":"tile_0467.bin"}],"bufferViews":[{"buffer":0,"byteOffset":0,"byteLength":41604,"target":34962},{"buffer":0,"byteOffset":41604,"byteLength":27736,"target":34962},{"buffer":0,"byteOffset":69340,"byteLength":60180,"target":34963},{"buffer":0,"byteOffset":129520,"byteLength":23196,"target":34962},{"buffer":0,"byteOffset":152716,"byteLength":15464,"target":34962},{"buffer":0,"byteOffset":168180,"byteLength":39708,"target":34963}],"images":[{"uri":"../textures/tile_0467_material_0.jpg"},{"uri":"../textures/tile_0467_material_1.jpg"}],"materials":[{"name":"DefaultMaterial","pbrMetallicRoughness":{"baseColorFactor":[0.6000000238418579,0.6000000238418579,0.6000000238418579,1.0],"metallicFactor":0.0},"extensions":{"KHR_materials_specular":{"specularFactor":1.0,"specularColorFactor":[0.0,0.0,0.0]},"KHR_materials_ior":{"ior":1.0}}},{"name":"material_0_material","pbrMetallicRoughness":{"baseColorTexture":{"index":0},"metallicFactor":0.0},"extensions":{"KHR_materials_specular":{"specularFactor":1.0,"specularColorFactor":[0.0,0.0,0.0]},"KHR_materials_ior":{"ior":1.0}}},{"name":"material_1_material","pbrMetallicRoughness":{"baseColorTexture":{"index":1},"metallicFactor":0.0},"extensions":{"KHR_materials_specular":{"specularFactor":1.0,"specularColorFactor":[0.0,0.0,0.0]},"KHR_materials_ior":{"ior":1.0}}}],"meshes":[{"name":"defaultobject","primitives":[{"mode":4,"material":1,"indices":2,"attributes":{"POSITION":0,"TEXCOORD_0":1}},{"mode":4,"material":2,"indices":5,"attributes":{"POSITION":3,"TEXCOORD_0":4}}]}],"nodes":[{"name":"tile_0467.obj","children":[1]},{"name":"defaultobject","mesh":0}],"samplers":[{},{}],"scenes":[{"nodes":[0]}],"textures":[{"source":0,"sampler":0},{"source":1,"sampler":1}],"scene":0}
