{"asset":{"version":"2.0","generator":"Open Asset Import Library (assimp v6.0.0)"},"extensionsUsed":["KHR_materials_specular","KHR_materials_volume","KHR_materials_ior","FB_ngon_encoding"],"accessors":[{"bufferView":0,"byteOffset":0,"componentType":5126,"count":3269,"type":"VEC3","max":[-3.5092177391052246,1.0283058881759644,3.9990971088409424],"min":[-4.0113959312438965,2.2250738585072014e-308,2.2250738585072014e-308]},{"bufferView":1,"byteOffset":0,"componentType":5126,"count":3269,"type":"VEC2","max":[0.9947042465209961,0.9510040283203125],"min":[2.2250738585072014e-308,2.2250738585072014e-308]},{"bufferView":2,"byteOffset":0,"componentType":5125,"count":14529,"type":"SCALAR","max":[3268],"min":[0]},{"bufferView":3,"byteOffset":0,"componentType":5126,"count":1399,"type":"VEC3","max":[-3.5105977058410645,1.0262300968170166,3.9602530002593994],"min":[-3.9792094230651855,2.2250738585072014e-308,2.2250738585072014e-308]},{"bufferView":4,"byteOffset":0,"componentType":5126,"count":1399,"type":"VEC2","max":[0.7024402618408203,0.6235332489013672],"min":[2.2250738585072014e-308,2.2250738585072014e-308]},{"bufferView":5,"byteOffset":0,"componentType":5125,"count":6990,"type":"SCALAR","max":[1398],"min":[0]}],"buffers":[{"byteLength":179436,"uri":"tile_0477.bin"}],"bufferViews":[{"buffer":0,"byteOffset":0,"byteLength":39228,"target":34962},{"buffer":0,"byteOffset":39228,"byteLength":26152,"target":34962},{"buffer":0,"byteOffset":65380,"byteLength":58116,"target":34963},{"buffer":0,"byteOffset":123496,"byteLength":16788,"target":34962},{"buffer":0,"byteOffset":140284,"byteLength":11192,"target":34962},{"buffer":0,"byteOffset":151476,"byteLength":27960,"target":34963}],"images":[{"uri":"../textures/tile_0477_material_0.jpg"},{"uri":"../textures/tile_0477_material_1.jpg"}],"materials":[{"name":"DefaultMaterial","pbrMetallicRoughness":{"baseColorFactor":[0.6000000238418579,0.6000000238418579,0.6000000238418579,1.0],"metallicFactor":0.0},"extensions":{"KHR_materials_specular":{"specularFactor":1.0,"specularColorFactor":[0.0,0.0,0.0]},"KHR_materials_ior":{"ior":1.0}}},{"name":"material_0_material","pbrMetallicRoughness":{"baseColorTexture":{"index":0},"metallicFactor":0.0},"extensions":{"KHR_materials_specular":{"specularFactor":1.0,"specularColorFactor":[0.0,0.0,0.0]},"KHR_materials_ior":{"ior":1.0}}},{"name":"material_1_material","pbrMetallicRoughness":{"baseColorTexture":{"index":1},"metallicFactor":0.0},"extensions":{"KHR_materials_specular":{"specularFactor":1.0,"specularColorFactor":[0.0,0.0,0.0]},"KHR_materials_ior":{"ior":1.0}}}],"meshes":[{"name":"defaultobject","primitives":[{"mode":4,"material":1,"indices":2,"attributes":{"POSITION":0,"TEXCOORD_0":1}},{"mode":4,"material":2,"indices":5,"attributes":{"POSITION":3,"TEXCOORD_0":4}}]}],"nodes":[{"name":"tile_0477.obj","children":[1]},{"name":"defaultobject","mesh":0}],"samplers":[{},{}],"scenes":[{"nodes":[0]}],"textures":[{"source":0,"sampler":0},{"source":1,"sampler":1}],"scene":0}
