{"asset":{"version":"2.0","generator":"Open Asset Import Library (assimp v6.0.0)"},"extensionsUsed":["KHR_materials_specular","KHR_materials_volume","KHR_materials_ior","FB_ngon_encoding"],"accessors":[{"bufferView":0,"byteOffset":0,"componentType":5126,"count":2454,"type":"VEC3","max":[-0.7707007527351379,-0.18092019855976105,3.0198006629943848],"min":[-1.058381199836731,-0.3520883619785309,2.2250738585072014e-308]},{"bufferView":1,"byteOffset":0,"componentType":5126,"count":2454,"type":"VEC2","max":[0.9904580116271973,0.4918689727783203],"min":[2.2250738585072014e-308,2.2250738585072014e-308]},{"bufferView":2,"byteOffset":0,"componentType":5125,"count":10785,"type":"SCALAR","max":[2453],"min":[0]},{"bufferView":3,"byteOffset":0,"componentType":5126,"count":2309,"type":"VEC3","max":[-0.7710787057876587,-0.17559218406677246,2.972168207168579],"min":[-1.0577396154403687,-0.35362234711647034,2.2250738585072014e-308]},{"bufferView":4,"byteOffset":0,"componentType":5126,"count":2309,"type":"VEC2","max":[0.5978856086730957,0.587188720703125],"min":[2.2250738585072014e-308,2.2250738585072014e-308]},{"bufferView":5,"byteOffset":0,"componentType":5125,"count":12075,"type":"SCALAR","max":[2308],"min":[0]}],"buffers":[{"byteLength":186700,"uri":"tile_0088.bin"}],"bufferViews":[{"buffer":0,"byteOffset":0,"byteLength":29448,"target":34962},{"buffer":0,"byteOffset":29448,"byteLength":19632,"target":34962},{"buffer":0,"byteOffset":49080,"byteLength":43140,"target":34963},{"buffer":0,"byteOffset":92220,"byteLength":27708,"target":34962},{"buffer":0,"byteOffset":119928,"byteLength":18472,"target":34962},{"buffer":0,"byteOffset":138400,"byteLength":48300,"target":34963}],"images":[{"uri":"../textures/tile_0088_material_0.jpg"},{"uri":"../textures/tile_0088_material_1.jpg"}],"materials":[{"name":"DefaultMaterial","pbrMetallicRoughness":{"baseColorFactor":[0.6000000238418579,0.6000000238418579,0.6000000238418579,1.0],"metallicFactor":0.0},"extensions":{"KHR_materials_specular":{"specularFactor":1.0,"specularColorFactor":[0.0,0.0,0.0]},"KHR_materials_ior":{"ior":1.0}}},{"name":"material_0_material","pbrMetallicRoughness":{"baseColorTexture":{"index":0},"metallicFactor":0.0},"extensions":{"KHR_materials_specular":{"specularFactor":1.0,"specularColorFactor":[0.0,0.0,0.0]},"KHR_materials_ior":{"ior":1.0}}},{"name":"material_1_material","pbrMetallicRoughness":{"baseColorTexture":{"index":1},"metallicFactor":0.0},"extensions":{"KHR_materials_specular":{"specularFactor":1.0,"specularColorFactor":[0.0,0.0,0.0]},"KHR_materials_ior":{"ior":1.0}}}],"meshes":[{"name":"defaultobject","primitives":[{"mode":4,"material":1,"indices":2,"attributes":{"POSITION":0,"TEXCOORD_0":1}},{"mode":4,"material":2,"indices":5,"attributes":{"POSITION":3,"TEXCOORD_0":4}}]}],"nodes":[{"name":"tile_0088.obj","children":[1]},{"name":"defaultobject","mesh":0}],"samplers":[{},{}],"scenes":[{"nodes":[0]}],"textures":[{"source":0,"sampler":0},{"source":1,"sampler":1}],"scene":0}
