{"asset":{"version":"2.0","generator":"Open Asset Import Library (assimp v6.0.0)"},"extensionsUsed":["KHR_materials_specular","KHR_materials_volume","KHR_materials_ior","FB_ngon_encoding"],"accessors":[{"bufferView":0,"byteOffset":0,"componentType":5126,"count":5871,"type":"VEC3","max":[3.4748787879943848,-2.1922194957733154,4.001887798309326],"min":[2.2250738585072014e-308,-2.483189582824707,2.2250738585072014e-308]},{"bufferView":1,"byteOffset":0,"componentType":5126,"count":5871,"type":"VEC2","max":[0.9934448003768921,0.6639842987060547],"min":[2.2250738585072014e-308,2.2250738585072014e-308]},{"bufferView":2,"byteOffset":0,"componentType":5125,"count":26514,"type":"SCALAR","max":[5870],"min":[0]},{"bufferView":3,"byteOffset":0,"componentType":5126,"count":626,"type":"VEC3","max":[3.074738025665283,-2.2536087036132812,3.719190835952759],"min":[2.2250738585072014e-308,-2.482449769973755,2.2250738585072014e-308]},{"bufferView":4,"byteOffset":0,"componentType":5126,"count":626,"type":"VEC2","max":[0.8631343841552734,0.8542442321777344],"min":[2.2250738585072014e-308,2.2250738585072014e-308]},{"bufferView":5,"byteOffset":0,"componentType":5125,"count":3042,"type":"SCALAR","max":[625],"min":[0]}],"buffers":[{"byteLength":248164,"uri":"tile_0714.bin"}],"bufferViews":[{"buffer":0,"byteOffset":0,"byteLength":70452,"target":34962},{"buffer":0,"byteOffset":70452,"byteLength":46968,"target":34962},{"buffer":0,"byteOffset":117420,"byteLength":106056,"target":34963},{"buffer":0,"byteOffset":223476,"byteLength":7512,"target":34962},{"buffer":0,"byteOffset":230988,"byteLength":5008,"target":34962},{"buffer":0,"byteOffset":235996,"byteLength":12168,"target":34963}],"images":[{"uri":"../textures/tile_0714_material_0.jpg"},{"uri":"../textures/tile_0714_material_1.jpg"}],"materials":[{"name":"DefaultMaterial","pbrMetallicRoughness":{"baseColorFactor":[0.6000000238418579,0.6000000238418579,0.6000000238418579,1.0],"metallicFactor":0.0},"extensions":{"KHR_materials_specular":{"specularFactor":1.0,"specularColorFactor":[0.0,0.0,0.0]},"KHR_materials_ior":{"ior":1.0}}},{"name":"material_0_material","pbrMetallicRoughness":{"baseColorTexture":{"index":0},"metallicFactor":0.0},"extensions":{"KHR_materials_specular":{"specularFactor":1.0,"specularColorFactor":[0.0,0.0,0.0]},"KHR_materials_ior":{"ior":1.0}}},{"name":"material_1_material","pbrMetallicRoughness":{"baseColorTexture":{"index":1},"metallicFactor":0.0},"extensions":{"KHR_materials_specular":{"specularFactor":1.0,"specularColorFactor":[0.0,0.0,0.0]},"KHR_materials_ior":{"ior":1.0}}}],"meshes":[{"name":"defaultobject","primitives":[{"mode":4,"material":1,"indices":2,"attributes":{"POSITION":0,"TEXCOORD_0":1}},{"mode":4,"material":2,"indices":5,"attributes":{"POSITION":3,"TEXCOORD_0":4}}]}],"nodes":[{"name":"tile_0714.obj","children":[1]},{"name":"defaultobject","mesh":0}],"samplers":[{},{}],"scenes":[{"nodes":[0]}],"textures":[{"source":0,"sampler":0},{"source":1,"sampler":1}],"scene":0}
