{"asset":{"version":"2.0","generator":"Open Asset Import Library (assimp v6.0.0)"},"extensionsUsed":["KHR_materials_specular","KHR_materials_volume","KHR_materials_ior","FB_ngon_encoding"],"accessors":[{"bufferView":0,"byteOffset":0,"componentType":5126,"count":1899,"type":"VEC3","max":[4.145675182342529,2.6246516704559326,3.946173667907715],"min":[2.2250738585072014e-308,2.2250738585072014e-308,2.2250738585072014e-308]},{"bufferView":1,"byteOffset":0,"componentType":5126,"count":1899,"type":"VEC2","max":[0.9943866729736328,0.6689605712890625],"min":[2.2250738585072014e-308,2.2250738585072014e-308]},{"bufferView":2,"byteOffset":0,"componentType":5125,"count":8883,"type":"SCALAR","max":[1898],"min":[0]},{"bufferView":3,"byteOffset":0,"componentType":5126,"count":2124,"type":"VEC3","max":[4.147297382354736,2.6246516704559326,3.9286553859710693],"min":[2.2250738585072014e-308,2.2250738585072014e-308,2.2250738585072014e-308]},{"bufferView":4,"byteOffset":0,"componentType":5126,"count":2124,"type":"VEC2","max":[0.9650616645812988,0.740234375],"min":[2.2250738585072014e-308,2.2250738585072014e-308]},{"bufferView":5,"byteOffset":0,"componentType":5125,"count":11220,"type":"SCALAR","max":[2123],"min":[0]}],"buffers":[{"byteLength":160872,"uri":"tile_0665.bin"}],"bufferViews":[{"buffer":0,"byteOffset":0,"byteLength":22788,"target":34962},{"buffer":0,"byteOffset":22788,"byteLength":15192,"target":34962},{"buffer":0,"byteOffset":37980,"byteLength":35532,"target":34963},{"buffer":0,"byteOffset":73512,"byteLength":25488,"target":34962},{"buffer":0,"byteOffset":99000,"byteLength":16992,"target":34962},{"buffer":0,"byteOffset":115992,"byteLength":44880,"target":34963}],"images":[{"uri":"../textures/tile_0665_material_0.jpg"},{"uri":"../textures/tile_0665_material_1.jpg"}],"materials":[{"name":"DefaultMaterial","pbrMetallicRoughness":{"baseColorFactor":[0.6000000238418579,0.6000000238418579,0.6000000238418579,1.0],"metallicFactor":0.0},"extensions":{"KHR_materials_specular":{"specularFactor":1.0,"specularColorFactor":[0.0,0.0,0.0]},"KHR_materials_ior":{"ior":1.0}}},{"name":"material_0_material","pbrMetallicRoughness":{"baseColorTexture":{"index":0},"metallicFactor":0.0},"extensions":{"KHR_materials_specular":{"specularFactor":1.0,"specularColorFactor":[0.0,0.0,0.0]},"KHR_materials_ior":{"ior":1.0}}},{"name":"material_1_material","pbrMetallicRoughness":{"baseColorTexture":{"index":1},"metallicFactor":0.0},"extensions":{"KHR_materials_specular":{"specularFactor":1.0,"specularColorFactor":[0.0,0.0,0.0]},"KHR_materials_ior":{"ior":1.0}}}],"meshes":[{"name":"defaultobject","primitives":[{"mode":4,"material":1,"indices":2,"attributes":{"POSITION":0,"TEXCOORD_0":1}},{"mode":4,"material":2,"indices":5,"attributes":{"POSITION":3,"TEXCOORD_0":4}}]}],"nodes":[{"name":"tile_0665.obj","children":[1]},{"name":"defaultobject","mesh":0}],"samplers":[{},{}],"scenes":[{"nodes":[0]}],"textures":[{"source":0,"sampler":0},{"source":1,"sampler":1}],"scene":0}
