{"asset":{"version":"2.0","generator":"Open Asset Import Library (assimp v6.0.0)"},"extensionsUsed":["KHR_materials_specular","KHR_materials_volume","KHR_materials_ior","FB_ngon_encoding"],"accessors":[{"bufferView":0,"byteOffset":0,"componentType":5126,"count":4870,"type":"VEC3","max":[-0.4128451347351074,-5.214187145233154,2.460362434387207],"min":[-0.6070147752761841,-5.606359958648682,2.2250738585072014e-308]},{"bufferView":1,"byteOffset":0,"componentType":5126,"count":4870,"type":"VEC2","max":[0.9920437335968018,0.5603828430175781],"min":[2.2250738585072014e-308,2.2250738585072014e-308]},{"bufferView":2,"byteOffset":0,"componentType":5125,"count":21417,"type":"SCALAR","max":[4869],"min":[0]},{"bufferView":3,"byteOffset":0,"componentType":5126,"count":653,"type":"VEC3","max":[-0.41900303959846497,-5.390142440795898,2.4578802585601807],"min":[-0.6043818593025208,-5.615025997161865,2.2250738585072014e-308]},{"bufferView":4,"byteOffset":0,"componentType":5126,"count":653,"type":"VEC2","max":[0.6550712585449219,0.48923301696777344],"min":[2.2250738585072014e-308,2.2250738585072014e-308]},{"bufferView":5,"byteOffset":0,"componentType":5125,"count":2976,"type":"SCALAR","max":[652],"min":[0]}],"buffers":[{"byteLength":208032,"uri":"tile_0033.bin"}],"bufferViews":[{"buffer":0,"byteOffset":0,"byteLength":58440,"target":34962},{"buffer":0,"byteOffset":58440,"byteLength":38960,"target":34962},{"buffer":0,"byteOffset":97400,"byteLength":85668,"target":34963},{"buffer":0,"byteOffset":183068,"byteLength":7836,"target":34962},{"buffer":0,"byteOffset":190904,"byteLength":5224,"target":34962},{"buffer":0,"byteOffset":196128,"byteLength":11904,"target":34963}],"images":[{"uri":"../textures/tile_0033_material_0.jpg"},{"uri":"../textures/tile_0033_material_1.jpg"}],"materials":[{"name":"DefaultMaterial","pbrMetallicRoughness":{"baseColorFactor":[0.6000000238418579,0.6000000238418579,0.6000000238418579,1.0],"metallicFactor":0.0},"extensions":{"KHR_materials_specular":{"specularFactor":1.0,"specularColorFactor":[0.0,0.0,0.0]},"KHR_materials_ior":{"ior":1.0}}},{"name":"material_0_material","pbrMetallicRoughness":{"baseColorTexture":{"index":0},"metallicFactor":0.0},"extensions":{"KHR_materials_specular":{"specularFactor":1.0,"specularColorFactor":[0.0,0.0,0.0]},"KHR_materials_ior":{"ior":1.0}}},{"name":"material_1_material","pbrMetallicRoughness":{"baseColorTexture":{"index":1},"metallicFactor":0.0},"extensions":{"KHR_materials_specular":{"specularFactor":1.0,"specularColorFactor":[0.0,0.0,0.0]},"KHR_materials_ior":{"ior":1.0}}}],"meshes":[{"name":"defaultobject","primitives":[{"mode":4,"material":1,"indices":2,"attributes":{"POSITION":0,"TEXCOORD_0":1}},{"mode":4,"material":2,"indices":5,"attributes":{"POSITION":3,"TEXCOORD_0":4}}]}],"nodes":[{"name":"tile_0033.obj","children":[1]},{"name":"defaultobject","mesh":0}],"samplers":[{},{}],"scenes":[{"nodes":[0]}],"textures":[{"source":0,"sampler":0},{"source":1,"sampler":1}],"scene":0}
