{"asset":{"version":"2.0","generator":"Open Asset Import Library (assimp v6.0.0)"},"extensionsUsed":["KHR_materials_specular","KHR_materials_volume","KHR_materials_ior","FB_ngon_encoding"],"accessors":[{"bufferView":0,"byteOffset":0,"componentType":5126,"count":4434,"type":"VEC3","max":[3.9059906005859375,-2.6796371936798096,3.9363861083984375],"min":[2.2250738585072014e-308,-2.925078868865967,2.2250738585072014e-308]},{"bufferView":1,"byteOffset":0,"componentType":5126,"count":4434,"type":"VEC2","max":[0.9949740171432495,0.5389404296875],"min":[2.2250738585072014e-308,2.2250738585072014e-308]},{"bufferView":2,"byteOffset":0,"componentType":5125,"count":19425,"type":"SCALAR","max":[4433],"min":[0]},{"bufferView":3,"byteOffset":0,"componentType":5126,"count":1199,"type":"VEC3","max":[3.8981144428253174,-2.6946465969085693,3.885883331298828],"min":[2.2250738585072014e-308,-2.9530951976776123,2.2250738585072014e-308]},{"bufferView":4,"byteOffset":0,"componentType":5126,"count":1199,"type":"VEC2","max":[0.9734392166137695,0.5269260406494141],"min":[2.2250738585072014e-308,2.2250738585072014e-308]},{"bufferView":5,"byteOffset":0,"componentType":5125,"count":6057,"type":"SCALAR","max":[1198],"min":[0]}],"buffers":[{"byteLength":214588,"uri":"tile_0251.bin"}],"bufferViews":[{"buffer":0,"byteOffset":0,"byteLength":53208,"target":34962},{"buffer":0,"byteOffset":53208,"byteLength":35472,"target":34962},{"buffer":0,"byteOffset":88680,"byteLength":77700,"target":34963},{"buffer":0,"byteOffset":166380,"byteLength":14388,"target":34962},{"buffer":0,"byteOffset":180768,"byteLength":9592,"target":34962},{"buffer":0,"byteOffset":190360,"byteLength":24228,"target":34963}],"images":[{"uri":"../textures/tile_0251_material_0.jpg"},{"uri":"../textures/tile_0251_material_1.jpg"}],"materials":[{"name":"DefaultMaterial","pbrMetallicRoughness":{"baseColorFactor":[0.6000000238418579,0.6000000238418579,0.6000000238418579,1.0],"metallicFactor":0.0},"extensions":{"KHR_materials_specular":{"specularFactor":1.0,"specularColorFactor":[0.0,0.0,0.0]},"KHR_materials_ior":{"ior":1.0}}},{"name":"material_0_material","pbrMetallicRoughness":{"baseColorTexture":{"index":0},"metallicFactor":0.0},"extensions":{"KHR_materials_specular":{"specularFactor":1.0,"specularColorFactor":[0.0,0.0,0.0]},"KHR_materials_ior":{"ior":1.0}}},{"name":"material_1_material","pbrMetallicRoughness":{"baseColorTexture":{"index":1},"metallicFactor":0.0},"extensions":{"KHR_materials_specular":{"specularFactor":1.0,"specularColorFactor":[0.0,0.0,0.0]},"KHR_materials_ior":{"ior":1.0}}}],"meshes":[{"name":"defaultobject","primitives":[{"mode":4,"material":1,"indices":2,"attributes":{"POSITION":0,"TEXCOORD_0":1}},{"mode":4,"material":2,"indices":5,"attributes":{"POSITION":3,"TEXCOORD_0":4}}]}],"nodes":[{"name":"tile_0251.obj","children":[1]},{"name":"defaultobject","mesh":0}],"samplers":[{},{}],"scenes":[{"nodes":[0]}],"textures":[{"source":0,"sampler":0},{"source":1,"sampler":1}],"scene":0}
