{"asset":{"version":"2.0","generator":"Open Asset Import Library (assimp v6.0.0)"},"extensionsUsed":["KHR_materials_specular","KHR_materials_volume","KHR_materials_ior","FB_ngon_encoding"],"accessors":[{"bufferView":0,"byteOffset":0,"componentType":5126,"count":525,"type":"VEC3","max":[-6.253906726837158,0.4182160794734955,4.548063278198242],"min":[-8.001495361328125,2.2250738585072014e-308,2.2250738585072014e-308]},{"bufferView":1,"byteOffset":0,"componentType":5126,"count":525,"type":"VEC2","max":[0.9453125,0.6812744140625],"min":[2.2250738585072014e-308,2.2250738585072014e-308]},{"bufferView":2,"byteOffset":0,"componentType":5125,"count":2478,"type":"SCALAR","max":[524],"min":[0]},{"bufferView":3,"byteOffset":0,"componentType":5126,"count":3706,"type":"VEC3","max":[-6.2542595863342285,0.43279561400413513,4.552225589752197],"min":[-7.904388427734375,2.2250738585072014e-308,2.2250738585072014e-308]},{"bufferView":4,"byteOffset":0,"componentType":5126,"count":3706,"type":"VEC2","max":[0.662462055683136,0.5279941558837891],"min":[2.2250738585072014e-308,2.2250738585072014e-308]},{"bufferView":5,"byteOffset":0,"componentType":5125,"count":20352,"type":"SCALAR","max":[3705],"min":[0]}],"buffers":[{"byteLength":175940,"uri":"tile_0584.bin"}],"bufferViews":[{"buffer":0,"byteOffset":0,"byteLength":6300,"target":34962},{"buffer":0,"byteOffset":6300,"byteLength":4200,"target":34962},{"buffer":0,"byteOffset":10500,"byteLength":9912,"target":34963},{"buffer":0,"byteOffset":20412,"byteLength":44472,"target":34962},{"buffer":0,"byteOffset":64884,"byteLength":29648,"target":34962},{"buffer":0,"byteOffset":94532,"byteLength":81408,"target":34963}],"images":[{"uri":"../textures/tile_0584_material_0.jpg"},{"uri":"../textures/tile_0584_material_1.jpg"}],"materials":[{"name":"DefaultMaterial","pbrMetallicRoughness":{"baseColorFactor":[0.6000000238418579,0.6000000238418579,0.6000000238418579,1.0],"metallicFactor":0.0},"extensions":{"KHR_materials_specular":{"specularFactor":1.0,"specularColorFactor":[0.0,0.0,0.0]},"KHR_materials_ior":{"ior":1.0}}},{"name":"material_0_material","pbrMetallicRoughness":{"baseColorTexture":{"index":0},"metallicFactor":0.0},"extensions":{"KHR_materials_specular":{"specularFactor":1.0,"specularColorFactor":[0.0,0.0,0.0]},"KHR_materials_ior":{"ior":1.0}}},{"name":"material_1_material","pbrMetallicRoughness":{"baseColorTexture":{"index":1},"metallicFactor":0.0},"extensions":{"KHR_materials_specular":{"specularFactor":1.0,"specularColorFactor":[0.0,0.0,0.0]},"KHR_materials_ior":{"ior":1.0}}}],"meshes":[{"name":"defaultobject","primitives":[{"mode":4,"material":1,"indices":2,"attributes":{"POSITION":0,"TEXCOORD_0":1}},{"mode":4,"material":2,"indices":5,"attributes":{"POSITION":3,"TEXCOORD_0":4}}]}],"nodes":[{"name":"tile_0584.obj","children":[1]},{"name":"defaultobject","mesh":0}],"samplers":[{},{}],"scenes":[{"nodes":[0]}],"textures":[{"source":0,"sampler":0},{"source":1,"sampler":1}],"scene":0}
