{"asset":{"version":"2.0","generator":"Open Asset Import Library (assimp v6.0.0)"},"extensionsUsed":["KHR_materials_specular","KHR_materials_volume","KHR_materials_ior","FB_ngon_encoding"],"accessors":[{"bufferView":0,"byteOffset":0,"componentType":5126,"count":6820,"type":"VEC3","max":[-0.4175971746444702,5.276285648345947,4.809937953948975],"min":[-0.7516911625862122,2.2250738585072014e-308,2.2250738585072014e-308]},{"bufferView":1,"byteOffset":0,"componentType":5126,"count":6820,"type":"VEC2","max":[0.987706184387207,0.6868915557861328],"min":[2.2250738585072014e-308,2.2250738585072014e-308]},{"bufferView":2,"byteOffset":0,"componentType":5125,"count":31131,"type":"SCALAR","max":[6819],"min":[0]},{"bufferView":3,"byteOffset":0,"componentType":5126,"count":298,"type":"VEC3","max":[-0.6483153104782104,5.275718688964844,4.7946600914001465],"min":[-0.7506040334701538,2.2250738585072014e-308,2.2250738585072014e-308]},{"bufferView":4,"byteOffset":0,"componentType":5126,"count":298,"type":"VEC2","max":[0.5308246612548828,0.8739547729492188],"min":[2.2250738585072014e-308,2.2250738585072014e-308]},{"bufferView":5,"byteOffset":0,"componentType":5125,"count":1470,"type":"SCALAR","max":[297],"min":[0]}],"buffers":[{"byteLength":272764,"uri":"tile_0109.bin"}],"bufferViews":[{"buffer":0,"byteOffset":0,"byteLength":81840,"target":34962},{"buffer":0,"byteOffset":81840,"byteLength":54560,"target":34962},{"buffer":0,"byteOffset":136400,"byteLength":124524,"target":34963},{"buffer":0,"byteOffset":260924,"byteLength":3576,"target":34962},{"buffer":0,"byteOffset":264500,"byteLength":2384,"target":34962},{"buffer":0,"byteOffset":266884,"byteLength":5880,"target":34963}],"images":[{"uri":"../textures/tile_0109_material_0.jpg"},{"uri":"../textures/tile_0109_material_1.jpg"}],"materials":[{"name":"DefaultMaterial","pbrMetallicRoughness":{"baseColorFactor":[0.6000000238418579,0.6000000238418579,0.6000000238418579,1.0],"metallicFactor":0.0},"extensions":{"KHR_materials_specular":{"specularFactor":1.0,"specularColorFactor":[0.0,0.0,0.0]},"KHR_materials_ior":{"ior":1.0}}},{"name":"material_0_material","pbrMetallicRoughness":{"baseColorTexture":{"index":0},"metallicFactor":0.0},"extensions":{"KHR_materials_specular":{"specularFactor":1.0,"specularColorFactor":[0.0,0.0,0.0]},"KHR_materials_ior":{"ior":1.0}}},{"name":"material_1_material","pbrMetallicRoughness":{"baseColorTexture":{"index":1},"metallicFactor":0.0},"extensions":{"KHR_materials_specular":{"specularFactor":1.0,"specularColorFactor":[0.0,0.0,0.0]},"KHR_materials_ior":{"ior":1.0}}}],"meshes":[{"name":"defaultobject","primitives":[{"mode":4,"material":1,"indices":2,"attributes":{"POSITION":0,"TEXCOORD_0":1}},{"mode":4,"material":2,"indices":5,"attributes":{"POSITION":3,"TEXCOORD_0":4}}]}],"nodes":[{"name":"tile_0109.obj","children":[1]},{"name":"defaultobject","mesh":0}],"samplers":[{},{}],"scenes":[{"nodes":[0]}],"textures":[{"source":0,"sampler":0},{"source":1,"sampler":1}],"scene":0}
