{"asset":{"version":"2.0","generator":"Open Asset Import Library (assimp v6.0.0)"},"extensionsUsed":["KHR_materials_specular","KHR_materials_volume","KHR_materials_ior","FB_ngon_encoding"],"accessors":[{"bufferView":0,"byteOffset":0,"componentType":5126,"count":3779,"type":"VEC3","max":[-3.1294755935668945,0.41551148891448975,4.187108993530273],"min":[-3.4912869930267334,2.2250738585072014e-308,2.2250738585072014e-308]},{"bufferView":1,"byteOffset":0,"componentType":5126,"count":3779,"type":"VEC2","max":[0.9943052530288696,0.8632621765136719],"min":[2.2250738585072014e-308,2.2250738585072014e-308]},{"bufferView":2,"byteOffset":0,"componentType":5125,"count":16635,"type":"SCALAR","max":[3778],"min":[0]},{"bufferView":3,"byteOffset":0,"componentType":5126,"count":606,"type":"VEC3","max":[-3.128911018371582,0.37311896681785583,4.181742191314697],"min":[-3.35052490234375,2.2250738585072014e-308,2.2250738585072014e-308]},{"bufferView":4,"byteOffset":0,"componentType":5126,"count":606,"type":"VEC2","max":[0.6157054901123047,0.8014144897460938],"min":[2.2250738585072014e-308,2.2250738585072014e-308]},{"bufferView":5,"byteOffset":0,"componentType":5125,"count":3114,"type":"SCALAR","max":[605],"min":[0]}],"buffers":[{"byteLength":166696,"uri":"tile_0135.bin"}],"bufferViews":[{"buffer":0,"byteOffset":0,"byteLength":45348,"target":34962},{"buffer":0,"byteOffset":45348,"byteLength":30232,"target":34962},{"buffer":0,"byteOffset":75580,"byteLength":66540,"target":34963},{"buffer":0,"byteOffset":142120,"byteLength":7272,"target":34962},{"buffer":0,"byteOffset":149392,"byteLength":4848,"target":34962},{"buffer":0,"byteOffset":154240,"byteLength":12456,"target":34963}],"images":[{"uri":"../textures/tile_0135_material_0.jpg"},{"uri":"../textures/tile_0135_material_1.jpg"}],"materials":[{"name":"DefaultMaterial","pbrMetallicRoughness":{"baseColorFactor":[0.6000000238418579,0.6000000238418579,0.6000000238418579,1.0],"metallicFactor":0.0},"extensions":{"KHR_materials_specular":{"specularFactor":1.0,"specularColorFactor":[0.0,0.0,0.0]},"KHR_materials_ior":{"ior":1.0}}},{"name":"material_0_material","pbrMetallicRoughness":{"baseColorTexture":{"index":0},"metallicFactor":0.0},"extensions":{"KHR_materials_specular":{"specularFactor":1.0,"specularColorFactor":[0.0,0.0,0.0]},"KHR_materials_ior":{"ior":1.0}}},{"name":"material_1_material","pbrMetallicRoughness":{"baseColorTexture":{"index":1},"metallicFactor":0.0},"extensions":{"KHR_materials_specular":{"specularFactor":1.0,"specularColorFactor":[0.0,0.0,0.0]},"KHR_materials_ior":{"ior":1.0}}}],"meshes":[{"name":"defaultobject","primitives":[{"mode":4,"material":1,"indices":2,"attributes":{"POSITION":0,"TEXCOORD_0":1}},{"mode":4,"material":2,"indices":5,"attributes":{"POSITION":3,"TEXCOORD_0":4}}]}],"nodes":[{"name":"tile_0135.obj","children":[1]},{"name":"defaultobject","mesh":0}],"samplers":[{},{}],"scenes":[{"nodes":[0]}],"textures":[{"source":0,"sampler":0},{"source":1,"sampler":1}],"scene":0}
