{"asset":{"version":"2.0","generator":"Open Asset Import Library (assimp v6.0.0)"},"extensionsUsed":["KHR_materials_specular","KHR_materials_volume","KHR_materials_ior","FB_ngon_encoding"],"accessors":[{"bufferView":0,"byteOffset":0,"componentType":5126,"count":677,"type":"VEC3","max":[-6.023369312286377,3.5778210163116455,5.133701324462891],"min":[-7.754947662353516,2.2250738585072014e-308,2.2250738585072014e-308]},{"bufferView":1,"byteOffset":0,"componentType":5126,"count":677,"type":"VEC2","max":[0.9860749244689941,0.5694007873535156],"min":[2.2250738585072014e-308,2.2250738585072014e-308]},{"bufferView":2,"byteOffset":0,"componentType":5125,"count":2247,"type":"SCALAR","max":[676],"min":[0]},{"bufferView":3,"byteOffset":0,"componentType":5126,"count":6260,"type":"VEC3","max":[-5.95661735534668,3.584794282913208,5.152757167816162],"min":[-7.7883219718933105,2.2250738585072014e-308,2.2250738585072014e-308]},{"bufferView":4,"byteOffset":0,"componentType":5126,"count":6260,"type":"VEC2","max":[0.9653043746948242,0.8706016540527344],"min":[2.2250738585072014e-308,2.2250738585072014e-308]},{"bufferView":5,"byteOffset":0,"componentType":5125,"count":35394,"type":"SCALAR","max":[6259],"min":[0]}],"buffers":[{"byteLength":289304,"uri":"tile_0833.bin"}],"bufferViews":[{"buffer":0,"byteOffset":0,"byteLength":8124,"target":34962},{"buffer":0,"byteOffset":8124,"byteLength":5416,"target":34962},{"buffer":0,"byteOffset":13540,"byteLength":8988,"target":34963},{"buffer":0,"byteOffset":22528,"byteLength":75120,"target":34962},{"buffer":0,"byteOffset":97648,"byteLength":50080,"target":34962},{"buffer":0,"byteOffset":147728,"byteLength":141576,"target":34963}],"images":[{"uri":"../textures/tile_0833_material_0.jpg"},{"uri":"../textures/tile_0833_material_1.jpg"}],"materials":[{"name":"DefaultMaterial","pbrMetallicRoughness":{"baseColorFactor":[0.6000000238418579,0.6000000238418579,0.6000000238418579,1.0],"metallicFactor":0.0},"extensions":{"KHR_materials_specular":{"specularFactor":1.0,"specularColorFactor":[0.0,0.0,0.0]},"KHR_materials_ior":{"ior":1.0}}},{"name":"material_0_material","pbrMetallicRoughness":{"baseColorTexture":{"index":0},"metallicFactor":0.0},"extensions":{"KHR_materials_specular":{"specularFactor":1.0,"specularColorFactor":[0.0,0.0,0.0]},"KHR_materials_ior":{"ior":1.0}}},{"name":"material_1_material","pbrMetallicRoughness":{"baseColorTexture":{"index":1},"metallicFactor":0.0},"extensions":{"KHR_materials_specular":{"specularFactor":1.0,"specularColorFactor":[0.0,0.0,0.0]},"KHR_materials_ior":{"ior":1.0}}}],"meshes":[{"name":"defaultobject","primitives":[{"mode":4,"material":1,"indices":2,"attributes":{"POSITION":0,"TEXCOORD_0":1}},{"mode":4,"material":2,"indices":5,"attributes":{"POSITION":3,"TEXCOORD_0":4}}]}],"nodes":[{"name":"tile_0833.obj","children":[1]},{"name":"defaultobject","mesh":0}],"samplers":[{},{}],"scenes":[{"nodes":[0]}],"textures":[{"source":0,"sampler":0},{"source":1,"sampler":1}],"scene":0}
