{"asset":{"version":"2.0","generator":"Open Asset Import Library (assimp v6.0.0)"},"extensionsUsed":["KHR_materials_specular","KHR_materials_volume","KHR_materials_ior","FB_ngon_encoding"],"accessors":[{"bufferView":0,"byteOffset":0,"componentType":5126,"count":1986,"type":"VEC3","max":[-6.402493476867676,1.0623493194580078,4.6570539474487305],"min":[-7.975347995758057,2.2250738585072014e-308,2.2250738585072014e-308]},{"bufferView":1,"byteOffset":0,"componentType":5126,"count":1986,"type":"VEC2","max":[0.9691238403320312,0.970245361328125],"min":[2.2250738585072014e-308,2.2250738585072014e-308]},{"bufferView":2,"byteOffset":0,"componentType":5125,"count":9918,"type":"SCALAR","max":[1985],"min":[0]},{"bufferView":3,"byteOffset":0,"componentType":5126,"count":2467,"type":"VEC3","max":[-6.416664123535156,1.0274462699890137,4.60713529586792],"min":[-7.817703723907471,2.2250738585072014e-308,2.2250738585072014e-308]},{"bufferView":4,"byteOffset":0,"componentType":5126,"count":2467,"type":"VEC2","max":[0.6763820648193359,0.6391067504882812],"min":[2.2250738585072014e-308,2.2250738585072014e-308]},{"bufferView":5,"byteOffset":0,"componentType":5125,"count":13140,"type":"SCALAR","max":[2466],"min":[0]}],"buffers":[{"byteLength":181292,"uri":"tile_0523.bin"}],"bufferViews":[{"buffer":0,"byteOffset":0,"byteLength":23832,"target":34962},{"buffer":0,"byteOffset":23832,"byteLength":15888,"target":34962},{"buffer":0,"byteOffset":39720,"byteLength":39672,"target":34963},{"buffer":0,"byteOffset":79392,"byteLength":29604,"target":34962},{"buffer":0,"byteOffset":108996,"byteLength":19736,"target":34962},{"buffer":0,"byteOffset":128732,"byteLength":52560,"target":34963}],"images":[{"uri":"../textures/tile_0523_material_0.jpg"},{"uri":"../textures/tile_0523_material_1.jpg"}],"materials":[{"name":"DefaultMaterial","pbrMetallicRoughness":{"baseColorFactor":[0.6000000238418579,0.6000000238418579,0.6000000238418579,1.0],"metallicFactor":0.0},"extensions":{"KHR_materials_specular":{"specularFactor":1.0,"specularColorFactor":[0.0,0.0,0.0]},"KHR_materials_ior":{"ior":1.0}}},{"name":"material_0_material","pbrMetallicRoughness":{"baseColorTexture":{"index":0},"metallicFactor":0.0},"extensions":{"KHR_materials_specular":{"specularFactor":1.0,"specularColorFactor":[0.0,0.0,0.0]},"KHR_materials_ior":{"ior":1.0}}},{"name":"material_1_material","pbrMetallicRoughness":{"baseColorTexture":{"index":1},"metallicFactor":0.0},"extensions":{"KHR_materials_specular":{"specularFactor":1.0,"specularColorFactor":[0.0,0.0,0.0]},"KHR_materials_ior":{"ior":1.0}}}],"meshes":[{"name":"defaultobject","primitives":[{"mode":4,"material":1,"indices":2,"attributes":{"POSITION":0,"TEXCOORD_0":1}},{"mode":4,"material":2,"indices":5,"attributes":{"POSITION":3,"TEXCOORD_0":4}}]}],"nodes":[{"name":"tile_0523.obj","children":[1]},{"name":"defaultobject","mesh":0}],"samplers":[{},{}],"scenes":[{"nodes":[0]}],"textures":[{"source":0,"sampler":0},{"source":1,"sampler":1}],"scene":0}
