{"asset":{"version":"2.0","generator":"Open Asset Import Library (assimp v6.0.0)"},"extensionsUsed":["KHR_materials_specular","KHR_materials_volume","KHR_materials_ior","FB_ngon_encoding"],"accessors":[{"bufferView":0,"byteOffset":0,"componentType":5126,"count":5172,"type":"VEC3","max":[-4.878109455108643,1.9644109010696411,4.533565998077393],"min":[-5.545446395874023,2.2250738585072014e-308,2.2250738585072014e-308]},{"bufferView":1,"byteOffset":0,"componentType":5126,"count":5172,"type":"VEC2","max":[0.990870475769043,0.6400260925292969],"min":[2.2250738585072014e-308,2.2250738585072014e-308]},{"bufferView":2,"byteOffset":0,"componentType":5125,"count":23901,"type":"SCALAR","max":[5171],"min":[0]},{"bufferView":3,"byteOffset":0,"componentType":5126,"count":822,"type":"VEC3","max":[-4.876377582550049,1.954358458518982,4.531030654907227],"min":[-5.545446395874023,2.2250738585072014e-308,2.2250738585072014e-308]},{"bufferView":4,"byteOffset":0,"componentType":5126,"count":822,"type":"VEC2","max":[0.9261016845703125,0.7309074401855469],"min":[2.2250738585072014e-308,2.2250738585072014e-308]},{"bufferView":5,"byteOffset":0,"componentType":5125,"count":4371,"type":"SCALAR","max":[821],"min":[0]}],"buffers":[{"byteLength":232968,"uri":"tile_0095.bin"}],"bufferViews":[{"buffer":0,"byteOffset":0,"byteLength":62064,"target":34962},{"buffer":0,"byteOffset":62064,"byteLength":41376,"target":34962},{"buffer":0,"byteOffset":103440,"byteLength":95604,"target":34963},{"buffer":0,"byteOffset":199044,"byteLength":9864,"target":34962},{"buffer":0,"byteOffset":208908,"byteLength":6576,"target":34962},{"buffer":0,"byteOffset":215484,"byteLength":17484,"target":34963}],"images":[{"uri":"../textures/tile_0095_material_0.jpg"},{"uri":"../textures/tile_0095_material_1.jpg"}],"materials":[{"name":"DefaultMaterial","pbrMetallicRoughness":{"baseColorFactor":[0.6000000238418579,0.6000000238418579,0.6000000238418579,1.0],"metallicFactor":0.0},"extensions":{"KHR_materials_specular":{"specularFactor":1.0,"specularColorFactor":[0.0,0.0,0.0]},"KHR_materials_ior":{"ior":1.0}}},{"name":"material_0_material","pbrMetallicRoughness":{"baseColorTexture":{"index":0},"metallicFactor":0.0},"extensions":{"KHR_materials_specular":{"specularFactor":1.0,"specularColorFactor":[0.0,0.0,0.0]},"KHR_materials_ior":{"ior":1.0}}},{"name":"material_1_material","pbrMetallicRoughness":{"baseColorTexture":{"index":1},"metallicFactor":0.0},"extensions":{"KHR_materials_specular":{"specularFactor":1.0,"specularColorFactor":[0.0,0.0,0.0]},"KHR_materials_ior":{"ior":1.0}}}],"meshes":[{"name":"defaultobject","primitives":[{"mode":4,"material":1,"indices":2,"attributes":{"POSITION":0,"TEXCOORD_0":1}},{"mode":4,"material":2,"indices":5,"attributes":{"POSITION":3,"TEXCOORD_0":4}}]}],"nodes":[{"name":"tile_0095.obj","children":[1]},{"name":"defaultobject","mesh":0}],"samplers":[{},{}],"scenes":[{"nodes":[0]}],"textures":[{"source":0,"sampler":0},{"source":1,"sampler":1}],"scene":0}
