{"asset":{"version":"2.0","generator":"Open Asset Import Library (assimp v6.0.0)"},"extensionsUsed":["KHR_materials_specular","KHR_materials_volume","KHR_materials_ior","FB_ngon_encoding"],"accessors":[{"bufferView":0,"byteOffset":0,"componentType":5126,"count":4837,"type":"VEC3","max":[-1.0331916809082031,-0.7758093476295471,2.600599765777588],"min":[-1.4138087034225464,-1.286046028137207,2.2250738585072014e-308]},{"bufferView":1,"byteOffset":0,"componentType":5126,"count":4837,"type":"VEC2","max":[0.9910726547241211,0.8236560821533203],"min":[2.2250738585072014e-308,2.2250738585072014e-308]},{"bufferView":2,"byteOffset":0,"componentType":5125,"count":22947,"type":"SCALAR","max":[4836],"min":[0]},{"bufferView":3,"byteOffset":0,"componentType":5126,"count":6661,"type":"VEC3","max":[-1.0369349718093872,-0.7754145860671997,2.462923049926758],"min":[-1.40804922580719,-1.2702382802963257,2.2250738585072014e-308]},{"bufferView":4,"byteOffset":0,"componentType":5126,"count":6661,"type":"VEC2","max":[0.8993945121765137,0.6401872634887695],"min":[2.2250738585072014e-308,2.2250738585072014e-308]},{"bufferView":5,"byteOffset":0,"componentType":5125,"count":36783,"type":"SCALAR","max":[6660],"min":[0]}],"buffers":[{"byteLength":468880,"uri":"tile_0329.bin"}],"bufferViews":[{"buffer":0,"byteOffset":0,"byteLength":58044,"target":34962},{"buffer":0,"byteOffset":58044,"byteLength":38696,"target":34962},{"buffer":0,"byteOffset":96740,"byteLength":91788,"target":34963},{"buffer":0,"byteOffset":188528,"byteLength":79932,"target":34962},{"buffer":0,"byteOffset":268460,"byteLength":53288,"target":34962},{"buffer":0,"byteOffset":321748,"byteLength":147132,"target":34963}],"images":[{"uri":"../textures/tile_0329_material_0.jpg"},{"uri":"../textures/tile_0329_material_1.jpg"}],"materials":[{"name":"DefaultMaterial","pbrMetallicRoughness":{"baseColorFactor":[0.6000000238418579,0.6000000238418579,0.6000000238418579,1.0],"metallicFactor":0.0},"extensions":{"KHR_materials_specular":{"specularFactor":1.0,"specularColorFactor":[0.0,0.0,0.0]},"KHR_materials_ior":{"ior":1.0}}},{"name":"material_0_material","pbrMetallicRoughness":{"baseColorTexture":{"index":0},"metallicFactor":0.0},"extensions":{"KHR_materials_specular":{"specularFactor":1.0,"specularColorFactor":[0.0,0.0,0.0]},"KHR_materials_ior":{"ior":1.0}}},{"name":"material_1_material","pbrMetallicRoughness":{"baseColorTexture":{"index":1},"metallicFactor":0.0},"extensions":{"KHR_materials_specular":{"specularFactor":1.0,"specularColorFactor":[0.0,0.0,0.0]},"KHR_materials_ior":{"ior":1.0}}}],"meshes":[{"name":"defaultobject","primitives":[{"mode":4,"material":1,"indices":2,"attributes":{"POSITION":0,"TEXCOORD_0":1}},{"mode":4,"material":2,"indices":5,"attributes":{"POSITION":3,"TEXCOORD_0":4}}]}],"nodes":[{"name":"tile_0329.obj","children":[1]},{"name":"defaultobject","mesh":0}],"samplers":[{},{}],"scenes":[{"nodes":[0]}],"textures":[{"source":0,"sampler":0},{"source":1,"sampler":1}],"scene":0}
