{"asset":{"version":"2.0","generator":"Open Asset Import Library (assimp v6.0.0)"},"extensionsUsed":["KHR_materials_specular","KHR_materials_volume","KHR_materials_ior","FB_ngon_encoding"],"accessors":[{"bufferView":0,"byteOffset":0,"componentType":5126,"count":5292,"type":"VEC3","max":[-0.04524260759353638,-3.6965579986572266,2.6607794761657715],"min":[-0.25286802649497986,-4.077070236206055,2.2250738585072014e-308]},{"bufferView":1,"byteOffset":0,"componentType":5126,"count":5292,"type":"VEC2","max":[0.9944596290588379,0.5664043426513672],"min":[2.2250738585072014e-308,2.2250738585072014e-308]},{"bufferView":2,"byteOffset":0,"componentType":5125,"count":22923,"type":"SCALAR","max":[5291],"min":[0]},{"bufferView":3,"byteOffset":0,"componentType":5126,"count":966,"type":"VEC3","max":[-0.09536448121070862,-3.859062671661377,2.6259801387786865],"min":[-0.2535697817802429,-4.077638149261475,2.2250738585072014e-308]},{"bufferView":4,"byteOffset":0,"componentType":5126,"count":966,"type":"VEC2","max":[0.6735630035400391,0.7723922729492188],"min":[2.2250738585072014e-308,2.2250738585072014e-308]},{"bufferView":5,"byteOffset":0,"componentType":5125,"count":5070,"type":"SCALAR","max":[965],"min":[0]}],"buffers":[{"byteLength":237132,"uri":"tile_0289.bin"}],"bufferViews":[{"buffer":0,"byteOffset":0,"byteLength":63504,"target":34962},{"buffer":0,"byteOffset":63504,"byteLength":42336,"target":34962},{"buffer":0,"byteOffset":105840,"byteLength":91692,"target":34963},{"buffer":0,"byteOffset":197532,"byteLength":11592,"target":34962},{"buffer":0,"byteOffset":209124,"byteLength":7728,"target":34962},{"buffer":0,"byteOffset":216852,"byteLength":20280,"target":34963}],"images":[{"uri":"../textures/tile_0289_material_0.jpg"},{"uri":"../textures/tile_0289_material_1.jpg"}],"materials":[{"name":"DefaultMaterial","pbrMetallicRoughness":{"baseColorFactor":[0.6000000238418579,0.6000000238418579,0.6000000238418579,1.0],"metallicFactor":0.0},"extensions":{"KHR_materials_specular":{"specularFactor":1.0,"specularColorFactor":[0.0,0.0,0.0]},"KHR_materials_ior":{"ior":1.0}}},{"name":"material_0_material","pbrMetallicRoughness":{"baseColorTexture":{"index":0},"metallicFactor":0.0},"extensions":{"KHR_materials_specular":{"specularFactor":1.0,"specularColorFactor":[0.0,0.0,0.0]},"KHR_materials_ior":{"ior":1.0}}},{"name":"material_1_material","pbrMetallicRoughness":{"baseColorTexture":{"index":1},"metallicFactor":0.0},"extensions":{"KHR_materials_specular":{"specularFactor":1.0,"specularColorFactor":[0.0,0.0,0.0]},"KHR_materials_ior":{"ior":1.0}}}],"meshes":[{"name":"defaultobject","primitives":[{"mode":4,"material":1,"indices":2,"attributes":{"POSITION":0,"TEXCOORD_0":1}},{"mode":4,"material":2,"indices":5,"attributes":{"POSITION":3,"TEXCOORD_0":4}}]}],"nodes":[{"name":"tile_0289.obj","children":[1]},{"name":"defaultobject","mesh":0}],"samplers":[{},{}],"scenes":[{"nodes":[0]}],"textures":[{"source":0,"sampler":0},{"source":1,"sampler":1}],"scene":0}
