{"asset":{"version":"2.0","generator":"Open Asset Import Library (assimp v6.0.0)"},"extensionsUsed":["KHR_materials_specular","KHR_materials_volume","KHR_materials_ior","FB_ngon_encoding"],"accessors":[{"bufferView":0,"byteOffset":0,"componentType":5126,"count":4706,"type":"VEC3","max":[1.381239891052246,-1.4795494079589844,2.685685634613037],"min":[2.2250738585072014e-308,-1.7299995422363281,2.2250738585072014e-308]},{"bufferView":1,"byteOffset":0,"componentType":5126,"count":4706,"type":"VEC2","max":[0.9915227890014648,0.8226890563964844],"min":[2.2250738585072014e-308,2.2250738585072014e-308]},{"bufferView":2,"byteOffset":0,"componentType":5125,"count":21027,"type":"SCALAR","max":[4705],"min":[0]},{"bufferView":3,"byteOffset":0,"componentType":5126,"count":228,"type":"VEC3","max":[1.220253825187683,-1.5854870080947876,2.6147572994232178],"min":[2.2250738585072014e-308,-1.6782217025756836,2.2250738585072014e-308]},{"bufferView":4,"byteOffset":0,"componentType":5126,"count":228,"type":"VEC2","max":[0.7932243943214417,0.4824714660644531],"min":[2.2250738585072014e-308,2.2250738585072014e-308]},{"bufferView":5,"byteOffset":0,"componentType":5125,"count":1113,"type":"SCALAR","max":[227],"min":[0]}],"buffers":[{"byteLength":187240,"uri":"tile_0802.bin"}],"bufferViews":[{"buffer":0,"byteOffset":0,"byteLength":56472,"target":34962},{"buffer":0,"byteOffset":56472,"byteLength":37648,"target":34962},{"buffer":0,"byteOffset":94120,"byteLength":84108,"target":34963},{"buffer":0,"byteOffset":178228,"byteLength":2736,"target":34962},{"buffer":0,"byteOffset":180964,"byteLength":1824,"target":34962},{"buffer":0,"byteOffset":182788,"byteLength":4452,"target":34963}],"images":[{"uri":"../textures/tile_0802_material_0.jpg"},{"uri":"../textures/tile_0802_material_1.jpg"}],"materials":[{"name":"DefaultMaterial","pbrMetallicRoughness":{"baseColorFactor":[0.6000000238418579,0.6000000238418579,0.6000000238418579,1.0],"metallicFactor":0.0},"extensions":{"KHR_materials_specular":{"specularFactor":1.0,"specularColorFactor":[0.0,0.0,0.0]},"KHR_materials_ior":{"ior":1.0}}},{"name":"material_0_material","pbrMetallicRoughness":{"baseColorTexture":{"index":0},"metallicFactor":0.0},"extensions":{"KHR_materials_specular":{"specularFactor":1.0,"specularColorFactor":[0.0,0.0,0.0]},"KHR_materials_ior":{"ior":1.0}}},{"name":"material_1_material","pbrMetallicRoughness":{"baseColorTexture":{"index":1},"metallicFactor":0.0},"extensions":{"KHR_materials_specular":{"specularFactor":1.0,"specularColorFactor":[0.0,0.0,0.0]},"KHR_materials_ior":{"ior":1.0}}}],"meshes":[{"name":"defaultobject","primitives":[{"mode":4,"material":1,"indices":2,"attributes":{"POSITION":0,"TEXCOORD_0":1}},{"mode":4,"material":2,"indices":5,"attributes":{"POSITION":3,"TEXCOORD_0":4}}]}],"nodes":[{"name":"tile_0802.obj","children":[1]},{"name":"defaultobject","mesh":0}],"samplers":[{},{}],"scenes":[{"nodes":[0]}],"textures":[{"source":0,"sampler":0},{"source":1,"sampler":1}],"scene":0}
