{"asset":{"version":"2.0","generator":"Open Asset Import Library (assimp v6.0.0)"},"extensionsUsed":["KHR_materials_specular","KHR_materials_volume","KHR_materials_ior","FB_ngon_encoding"],"accessors":[{"bufferView":0,"byteOffset":0,"componentType":5126,"count":5403,"type":"VEC3","max":[0.2870884835720062,-0.1006171703338623,4.058029651641846],"min":[-0.026168590411543846,-0.33262863755226135,2.2250738585072014e-308]},{"bufferView":1,"byteOffset":0,"componentType":5126,"count":5403,"type":"VEC2","max":[0.985508918762207,0.7333030700683594],"min":[2.2250738585072014e-308,2.2250738585072014e-308]},{"bufferView":2,"byteOffset":0,"componentType":5125,"count":24450,"type":"SCALAR","max":[5402],"min":[0]},{"bufferView":3,"byteOffset":0,"componentType":5126,"count":58,"type":"VEC3","max":[0.027338815852999687,-0.1826278120279312,3.4180819988250732],"min":[-0.03045986033976078,-0.3311929702758789,2.2250738585072014e-308]},{"bufferView":4,"byteOffset":0,"componentType":5126,"count":58,"type":"VEC2","max":[0.8036575317382812,0.7296372056007385],"min":[2.2250738585072014e-308,2.2250738585072014e-308]},{"bufferView":5,"byteOffset":0,"componentType":5125,"count":219,"type":"SCALAR","max":[57],"min":[0]}],"buffers":[{"byteLength":207896,"uri":"tile_0616.bin"}],"bufferViews":[{"buffer":0,"byteOffset":0,"byteLength":64836,"target":34962},{"buffer":0,"byteOffset":64836,"byteLength":43224,"target":34962},{"buffer":0,"byteOffset":108060,"byteLength":97800,"target":34963},{"buffer":0,"byteOffset":205860,"byteLength":696,"target":34962},{"buffer":0,"byteOffset":206556,"byteLength":464,"target":34962},{"buffer":0,"byteOffset":207020,"byteLength":876,"target":34963}],"images":[{"uri":"../textures/tile_0616_material_0.jpg"},{"uri":"../textures/tile_0616_material_1.jpg"}],"materials":[{"name":"DefaultMaterial","pbrMetallicRoughness":{"baseColorFactor":[0.6000000238418579,0.6000000238418579,0.6000000238418579,1.0],"metallicFactor":0.0},"extensions":{"KHR_materials_specular":{"specularFactor":1.0,"specularColorFactor":[0.0,0.0,0.0]},"KHR_materials_ior":{"ior":1.0}}},{"name":"material_0_material","pbrMetallicRoughness":{"baseColorTexture":{"index":0},"metallicFactor":0.0},"extensions":{"KHR_materials_specular":{"specularFactor":1.0,"specularColorFactor":[0.0,0.0,0.0]},"KHR_materials_ior":{"ior":1.0}}},{"name":"material_1_material","pbrMetallicRoughness":{"baseColorTexture":{"index":1},"metallicFactor":0.0},"extensions":{"KHR_materials_specular":{"specularFactor":1.0,"specularColorFactor":[0.0,0.0,0.0]},"KHR_materials_ior":{"ior":1.0}}}],"meshes":[{"name":"defaultobject","primitives":[{"mode":4,"material":1,"indices":2,"attributes":{"POSITION":0,"TEXCOORD_0":1}},{"mode":4,"material":2,"indices":5,"attributes":{"POSITION":3,"TEXCOORD_0":4}}]}],"nodes":[{"name":"tile_0616.obj","children":[1]},{"name":"defaultobject","mesh":0}],"samplers":[{},{}],"scenes":[{"nodes":[0]}],"textures":[{"source":0,"sampler":0},{"source":1,"sampler":1}],"scene":0}
