{"asset":{"version":"2.0","generator":"Open Asset Import Library (assimp v6.0.0)"},"extensionsUsed":["KHR_materials_specular","KHR_materials_volume","KHR_materials_ior","FB_ngon_encoding"],"accessors":[{"bufferView":0,"byteOffset":0,"componentType":5126,"count":4683,"type":"VEC3","max":[1.8593816757202148,1.4200538396835327,4.0329108238220215],"min":[2.2250738585072014e-308,2.2250738585072014e-308,2.2250738585072014e-308]},{"bufferView":1,"byteOffset":0,"componentType":5126,"count":4683,"type":"VEC2","max":[0.9885458946228027,0.947296142578125],"min":[2.2250738585072014e-308,2.2250738585072014e-308]},{"bufferView":2,"byteOffset":0,"componentType":5125,"count":21345,"type":"SCALAR","max":[4682],"min":[0]},{"bufferView":3,"byteOffset":0,"componentType":5126,"count":381,"type":"VEC3","max":[1.7930251359939575,1.4179507493972778,3.960038900375366],"min":[2.2250738585072014e-308,2.2250738585072014e-308,2.2250738585072014e-308]},{"bufferView":4,"byteOffset":0,"componentType":5126,"count":381,"type":"VEC2","max":[0.7577838897705078,0.9197617173194885],"min":[2.2250738585072014e-308,2.2250738585072014e-308]},{"bufferView":5,"byteOffset":0,"componentType":5125,"count":1902,"type":"SCALAR","max":[380],"min":[0]}],"buffers":[{"byteLength":194268,"uri":"tile_0215.bin"}],"bufferViews":[{"buffer":0,"byteOffset":0,"byteLength":56196,"target":34962},{"buffer":0,"byteOffset":56196,"byteLength":37464,"target":34962},{"buffer":0,"byteOffset":93660,"byteLength":85380,"target":34963},{"buffer":0,"byteOffset":179040,"byteLength":4572,"target":34962},{"buffer":0,"byteOffset":183612,"byteLength":3048,"target":34962},{"buffer":0,"byteOffset":186660,"byteLength":7608,"target":34963}],"images":[{"uri":"../textures/tile_0215_material_0.jpg"},{"uri":"../textures/tile_0215_material_1.jpg"}],"materials":[{"name":"DefaultMaterial","pbrMetallicRoughness":{"baseColorFactor":[0.6000000238418579,0.6000000238418579,0.6000000238418579,1.0],"metallicFactor":0.0},"extensions":{"KHR_materials_specular":{"specularFactor":1.0,"specularColorFactor":[0.0,0.0,0.0]},"KHR_materials_ior":{"ior":1.0}}},{"name":"material_0_material","pbrMetallicRoughness":{"baseColorTexture":{"index":0},"metallicFactor":0.0},"extensions":{"KHR_materials_specular":{"specularFactor":1.0,"specularColorFactor":[0.0,0.0,0.0]},"KHR_materials_ior":{"ior":1.0}}},{"name":"material_1_material","pbrMetallicRoughness":{"baseColorTexture":{"index":1},"metallicFactor":0.0},"extensions":{"KHR_materials_specular":{"specularFactor":1.0,"specularColorFactor":[0.0,0.0,0.0]},"KHR_materials_ior":{"ior":1.0}}}],"meshes":[{"name":"defaultobject","primitives":[{"mode":4,"material":1,"indices":2,"attributes":{"POSITION":0,"TEXCOORD_0":1}},{"mode":4,"material":2,"indices":5,"attributes":{"POSITION":3,"TEXCOORD_0":4}}]}],"nodes":[{"name":"tile_0215.obj","children":[1]},{"name":"defaultobject","mesh":0}],"samplers":[{},{}],"scenes":[{"nodes":[0]}],"textures":[{"source":0,"sampler":0},{"source":1,"sampler":1}],"scene":0}
