{"asset":{"version":"2.0","generator":"Open Asset Import Library (assimp v6.0.0)"},"extensionsUsed":["KHR_materials_specular","KHR_materials_volume","KHR_materials_ior","FB_ngon_encoding"],"accessors":[{"bufferView":0,"byteOffset":0,"componentType":5126,"count":5389,"type":"VEC3","max":[3.901512861251831,-2.9157536029815674,3.86049222946167],"min":[2.2250738585072014e-308,-3.1121044158935547,2.2250738585072014e-308]},{"bufferView":1,"byteOffset":0,"componentType":5126,"count":5389,"type":"VEC2","max":[0.9905214309692383,0.70263671875],"min":[2.2250738585072014e-308,2.2250738585072014e-308]},{"bufferView":2,"byteOffset":0,"componentType":5125,"count":23868,"type":"SCALAR","max":[5388],"min":[0]},{"bufferView":3,"byteOffset":0,"componentType":5126,"count":329,"type":"VEC3","max":[3.8601725101470947,-2.8847174644470215,3.8563232421875],"min":[2.2250738585072014e-308,-3.103036403656006,2.2250738585072014e-308]},{"bufferView":4,"byteOffset":0,"componentType":5126,"count":329,"type":"VEC2","max":[0.9609708786010742,0.4914588928222656],"min":[2.2250738585072014e-308,2.2250738585072014e-308]},{"bufferView":5,"byteOffset":0,"componentType":5125,"count":1500,"type":"SCALAR","max":[328],"min":[0]}],"buffers":[{"byteLength":215832,"uri":"tile_0742.bin"}],"bufferViews":[{"buffer":0,"byteOffset":0,"byteLength":64668,"target":34962},{"buffer":0,"byteOffset":64668,"byteLength":43112,"target":34962},{"buffer":0,"byteOffset":107780,"byteLength":95472,"target":34963},{"buffer":0,"byteOffset":203252,"byteLength":3948,"target":34962},{"buffer":0,"byteOffset":207200,"byteLength":2632,"target":34962},{"buffer":0,"byteOffset":209832,"byteLength":6000,"target":34963}],"images":[{"uri":"../textures/tile_0742_material_0.jpg"},{"uri":"../textures/tile_0742_material_1.jpg"}],"materials":[{"name":"DefaultMaterial","pbrMetallicRoughness":{"baseColorFactor":[0.6000000238418579,0.6000000238418579,0.6000000238418579,1.0],"metallicFactor":0.0},"extensions":{"KHR_materials_specular":{"specularFactor":1.0,"specularColorFactor":[0.0,0.0,0.0]},"KHR_materials_ior":{"ior":1.0}}},{"name":"material_0_material","pbrMetallicRoughness":{"baseColorTexture":{"index":0},"metallicFactor":0.0},"extensions":{"KHR_materials_specular":{"specularFactor":1.0,"specularColorFactor":[0.0,0.0,0.0]},"KHR_materials_ior":{"ior":1.0}}},{"name":"material_1_material","pbrMetallicRoughness":{"baseColorTexture":{"index":1},"metallicFactor":0.0},"extensions":{"KHR_materials_specular":{"specularFactor":1.0,"specularColorFactor":[0.0,0.0,0.0]},"KHR_materials_ior":{"ior":1.0}}}],"meshes":[{"name":"defaultobject","primitives":[{"mode":4,"material":1,"indices":2,"attributes":{"POSITION":0,"TEXCOORD_0":1}},{"mode":4,"material":2,"indices":5,"attributes":{"POSITION":3,"TEXCOORD_0":4}}]}],"nodes":[{"name":"tile_0742.obj","children":[1]},{"name":"defaultobject","mesh":0}],"samplers":[{},{}],"scenes":[{"nodes":[0]}],"textures":[{"source":0,"sampler":0},{"source":1,"sampler":1}],"scene":0}
