{"asset":{"version":"2.0","generator":"Open Asset Import Library (assimp v6.0.0)"},"extensionsUsed":["KHR_materials_specular","KHR_materials_volume","KHR_materials_ior","FB_ngon_encoding"],"accessors":[{"bufferView":0,"byteOffset":0,"componentType":5126,"count":6570,"type":"VEC3","max":[0.15461097657680511,-4.5002617835998535,2.8995251655578613],"min":[-0.06048833578824997,-4.974496364593506,2.2250738585072014e-308]},{"bufferView":1,"byteOffset":0,"componentType":5126,"count":6570,"type":"VEC2","max":[0.9957876205444336,0.8124065399169922],"min":[2.2250738585072014e-308,2.2250738585072014e-308]},{"bufferView":2,"byteOffset":0,"componentType":5125,"count":28512,"type":"SCALAR","max":[6569],"min":[0]},{"bufferView":3,"byteOffset":0,"componentType":5126,"count":713,"type":"VEC3","max":[0.16357874870300293,-4.521251201629639,2.8202743530273438],"min":[-0.05958827584981918,-4.98311710357666,2.2250738585072014e-308]},{"bufferView":4,"byteOffset":0,"componentType":5126,"count":713,"type":"VEC2","max":[0.7849130630493164,0.8692169189453125],"min":[2.2250738585072014e-308,2.2250738585072014e-308]},{"bufferView":5,"byteOffset":0,"componentType":5125,"count":3282,"type":"SCALAR","max":[712],"min":[0]}],"buffers":[{"byteLength":272836,"uri":"tile_0397.bin"}],"bufferViews":[{"buffer":0,"byteOffset":0,"byteLength":78840,"target":34962},{"buffer":0,"byteOffset":78840,"byteLength":52560,"target":34962},{"buffer":0,"byteOffset":131400,"byteLength":114048,"target":34963},{"buffer":0,"byteOffset":245448,"byteLength":8556,"target":34962},{"buffer":0,"byteOffset":254004,"byteLength":5704,"target":34962},{"buffer":0,"byteOffset":259708,"byteLength":13128,"target":34963}],"images":[{"uri":"../textures/tile_0397_material_0.jpg"},{"uri":"../textures/tile_0397_material_1.jpg"}],"materials":[{"name":"DefaultMaterial","pbrMetallicRoughness":{"baseColorFactor":[0.6000000238418579,0.6000000238418579,0.6000000238418579,1.0],"metallicFactor":0.0},"extensions":{"KHR_materials_specular":{"specularFactor":1.0,"specularColorFactor":[0.0,0.0,0.0]},"KHR_materials_ior":{"ior":1.0}}},{"name":"material_0_material","pbrMetallicRoughness":{"baseColorTexture":{"index":0},"metallicFactor":0.0},"extensions":{"KHR_materials_specular":{"specularFactor":1.0,"specularColorFactor":[0.0,0.0,0.0]},"KHR_materials_ior":{"ior":1.0}}},{"name":"material_1_material","pbrMetallicRoughness":{"baseColorTexture":{"index":1},"metallicFactor":0.0},"extensions":{"KHR_materials_specular":{"specularFactor":1.0,"specularColorFactor":[0.0,0.0,0.0]},"KHR_materials_ior":{"ior":1.0}}}],"meshes":[{"name":"defaultobject","primitives":[{"mode":4,"material":1,"indices":2,"attributes":{"POSITION":0,"TEXCOORD_0":1}},{"mode":4,"material":2,"indices":5,"attributes":{"POSITION":3,"TEXCOORD_0":4}}]}],"nodes":[{"name":"tile_0397.obj","children":[1]},{"name":"defaultobject","mesh":0}],"samplers":[{},{}],"scenes":[{"nodes":[0]}],"textures":[{"source":0,"sampler":0},{"source":1,"sampler":1}],"scene":0}
