{"asset":{"version":"2.0","generator":"Open Asset Import Library (assimp v6.0.0)"},"extensionsUsed":["KHR_materials_specular","KHR_materials_volume","KHR_materials_ior","FB_ngon_encoding"],"accessors":[{"bufferView":0,"byteOffset":0,"componentType":5126,"count":7824,"type":"VEC3","max":[-4.279438495635986,4.099843978881836,4.972800254821777],"min":[-5.253264904022217,2.2250738585072014e-308,2.2250738585072014e-308]},{"bufferView":1,"byteOffset":0,"componentType":5126,"count":7824,"type":"VEC2","max":[0.990544319152832,0.5019063949584961],"min":[2.2250738585072014e-308,2.2250738585072014e-308]},{"bufferView":2,"byteOffset":0,"componentType":5125,"count":36489,"type":"SCALAR","max":[7823],"min":[0]},{"bufferView":3,"byteOffset":0,"componentType":5126,"count":6498,"type":"VEC3","max":[-4.279438495635986,4.0988383293151855,4.971613883972168],"min":[-5.2777886390686035,2.2250738585072014e-308,2.2250738585072014e-308]},{"bufferView":4,"byteOffset":0,"componentType":5126,"count":6498,"type":"VEC2","max":[0.9291391372680664,0.6067485809326172],"min":[2.2250738585072014e-308,2.2250738585072014e-308]},{"bufferView":5,"byteOffset":0,"componentType":5125,"count":34974,"type":"SCALAR","max":[6497],"min":[0]}],"buffers":[{"byteLength":572292,"uri":"tile_0518.bin"}],"bufferViews":[{"buffer":0,"byteOffset":0,"byteLength":93888,"target":34962},{"buffer":0,"byteOffset":93888,"byteLength":62592,"target":34962},{"buffer":0,"byteOffset":156480,"byteLength":145956,"target":34963},{"buffer":0,"byteOffset":302436,"byteLength":77976,"target":34962},{"buffer":0,"byteOffset":380412,"byteLength":51984,"target":34962},{"buffer":0,"byteOffset":432396,"byteLength":139896,"target":34963}],"images":[{"uri":"../textures/tile_0518_material_0.jpg"},{"uri":"../textures/tile_0518_material_1.jpg"}],"materials":[{"name":"DefaultMaterial","pbrMetallicRoughness":{"baseColorFactor":[0.6000000238418579,0.6000000238418579,0.6000000238418579,1.0],"metallicFactor":0.0},"extensions":{"KHR_materials_specular":{"specularFactor":1.0,"specularColorFactor":[0.0,0.0,0.0]},"KHR_materials_ior":{"ior":1.0}}},{"name":"material_0_material","pbrMetallicRoughness":{"baseColorTexture":{"index":0},"metallicFactor":0.0},"extensions":{"KHR_materials_specular":{"specularFactor":1.0,"specularColorFactor":[0.0,0.0,0.0]},"KHR_materials_ior":{"ior":1.0}}},{"name":"material_1_material","pbrMetallicRoughness":{"baseColorTexture":{"index":1},"metallicFactor":0.0},"extensions":{"KHR_materials_specular":{"specularFactor":1.0,"specularColorFactor":[0.0,0.0,0.0]},"KHR_materials_ior":{"ior":1.0}}}],"meshes":[{"name":"defaultobject","primitives":[{"mode":4,"material":1,"indices":2,"attributes":{"POSITION":0,"TEXCOORD_0":1}},{"mode":4,"material":2,"indices":5,"attributes":{"POSITION":3,"TEXCOORD_0":4}}]}],"nodes":[{"name":"tile_0518.obj","children":[1]},{"name":"defaultobject","mesh":0}],"samplers":[{},{}],"scenes":[{"nodes":[0]}],"textures":[{"source":0,"sampler":0},{"source":1,"sampler":1}],"scene":0}
