{"asset":{"version":"2.0","generator":"Open Asset Import Library (assimp v6.0.0)"},"extensionsUsed":["KHR_materials_specular","KHR_materials_volume","KHR_materials_ior","FB_ngon_encoding"],"accessors":[{"bufferView":0,"byteOffset":0,"componentType":5126,"count":1487,"type":"VEC3","max":[-2.957672595977783,-1.7915269136428833,2.920745372772217],"min":[-3.4258153438568115,-2.0603013038635254,2.2250738585072014e-308]},{"bufferView":1,"byteOffset":0,"componentType":5126,"count":1487,"type":"VEC2","max":[0.9883499145507812,0.5460548400878906],"min":[2.2250738585072014e-308,2.2250738585072014e-308]},{"bufferView":2,"byteOffset":0,"componentType":5125,"count":6807,"type":"SCALAR","max":[1486],"min":[0]},{"bufferView":3,"byteOffset":0,"componentType":5126,"count":3704,"type":"VEC3","max":[-2.972593069076538,-1.7902382612228394,2.9175007343292236],"min":[-3.4242196083068848,-2.056550979614258,2.2250738585072014e-308]},{"bufferView":4,"byteOffset":0,"componentType":5126,"count":3704,"type":"VEC2","max":[0.8184585571289062,0.6927986145019531],"min":[2.2250738585072014e-308,2.2250738585072014e-308]},{"bufferView":5,"byteOffset":0,"componentType":5125,"count":19842,"type":"SCALAR","max":[3703],"min":[0]}],"buffers":[{"byteLength":210416,"uri":"tile_0401.bin"}],"bufferViews":[{"buffer":0,"byteOffset":0,"byteLength":17844,"target":34962},{"buffer":0,"byteOffset":17844,"byteLength":11896,"target":34962},{"buffer":0,"byteOffset":29740,"byteLength":27228,"target":34963},{"buffer":0,"byteOffset":56968,"byteLength":44448,"target":34962},{"buffer":0,"byteOffset":101416,"byteLength":29632,"target":34962},{"buffer":0,"byteOffset":131048,"byteLength":79368,"target":34963}],"images":[{"uri":"../textures/tile_0401_material_0.jpg"},{"uri":"../textures/tile_0401_material_1.jpg"}],"materials":[{"name":"DefaultMaterial","pbrMetallicRoughness":{"baseColorFactor":[0.6000000238418579,0.6000000238418579,0.6000000238418579,1.0],"metallicFactor":0.0},"extensions":{"KHR_materials_specular":{"specularFactor":1.0,"specularColorFactor":[0.0,0.0,0.0]},"KHR_materials_ior":{"ior":1.0}}},{"name":"material_0_material","pbrMetallicRoughness":{"baseColorTexture":{"index":0},"metallicFactor":0.0},"extensions":{"KHR_materials_specular":{"specularFactor":1.0,"specularColorFactor":[0.0,0.0,0.0]},"KHR_materials_ior":{"ior":1.0}}},{"name":"material_1_material","pbrMetallicRoughness":{"baseColorTexture":{"index":1},"metallicFactor":0.0},"extensions":{"KHR_materials_specular":{"specularFactor":1.0,"specularColorFactor":[0.0,0.0,0.0]},"KHR_materials_ior":{"ior":1.0}}}],"meshes":[{"name":"defaultobject","primitives":[{"mode":4,"material":1,"indices":2,"attributes":{"POSITION":0,"TEXCOORD_0":1}},{"mode":4,"material":2,"indices":5,"attributes":{"POSITION":3,"TEXCOORD_0":4}}]}],"nodes":[{"name":"tile_0401.obj","children":[1]},{"name":"defaultobject","mesh":0}],"samplers":[{},{}],"scenes":[{"nodes":[0]}],"textures":[{"source":0,"sampler":0},{"source":1,"sampler":1}],"scene":0}
