{"asset":{"version":"2.0","generator":"Open Asset Import Library (assimp v6.0.0)"},"extensionsUsed":["KHR_materials_specular","KHR_materials_volume","KHR_materials_ior","FB_ngon_encoding"],"accessors":[{"bufferView":0,"byteOffset":0,"componentType":5126,"count":5484,"type":"VEC3","max":[-0.02747361548244953,-2.471818447113037,2.611320734024048],"min":[-0.25759294629096985,-2.7039780616760254,2.2250738585072014e-308]},{"bufferView":1,"byteOffset":0,"componentType":5126,"count":5484,"type":"VEC2","max":[0.988152027130127,0.5114917755126953],"min":[2.2250738585072014e-308,2.2250738585072014e-308]},{"bufferView":2,"byteOffset":0,"componentType":5125,"count":24777,"type":"SCALAR","max":[5483],"min":[0]},{"bufferView":3,"byteOffset":0,"componentType":5126,"count":246,"type":"VEC3","max":[-0.22046613693237305,-2.5843489170074463,2.4047603607177734],"min":[-0.2566247880458832,-2.701786518096924,2.2250738585072014e-308]},{"bufferView":4,"byteOffset":0,"componentType":5126,"count":246,"type":"VEC2","max":[0.6125411987304688,0.7378615736961365],"min":[2.2250738585072014e-308,2.2250738585072014e-308]},{"bufferView":5,"byteOffset":0,"componentType":5125,"count":1248,"type":"SCALAR","max":[245],"min":[0]}],"buffers":[{"byteLength":218700,"uri":"tile_0361.bin"}],"bufferViews":[{"buffer":0,"byteOffset":0,"byteLength":65808,"target":34962},{"buffer":0,"byteOffset":65808,"byteLength":43872,"target":34962},{"buffer":0,"byteOffset":109680,"byteLength":99108,"target":34963},{"buffer":0,"byteOffset":208788,"byteLength":2952,"target":34962},{"buffer":0,"byteOffset":211740,"byteLength":1968,"target":34962},{"buffer":0,"byteOffset":213708,"byteLength":4992,"target":34963}],"images":[{"uri":"../textures/tile_0361_material_0.jpg"},{"uri":"../textures/tile_0361_material_1.jpg"}],"materials":[{"name":"DefaultMaterial","pbrMetallicRoughness":{"baseColorFactor":[0.6000000238418579,0.6000000238418579,0.6000000238418579,1.0],"metallicFactor":0.0},"extensions":{"KHR_materials_specular":{"specularFactor":1.0,"specularColorFactor":[0.0,0.0,0.0]},"KHR_materials_ior":{"ior":1.0}}},{"name":"material_0_material","pbrMetallicRoughness":{"baseColorTexture":{"index":0},"metallicFactor":0.0},"extensions":{"KHR_materials_specular":{"specularFactor":1.0,"specularColorFactor":[0.0,0.0,0.0]},"KHR_materials_ior":{"ior":1.0}}},{"name":"material_1_material","pbrMetallicRoughness":{"baseColorTexture":{"index":1},"metallicFactor":0.0},"extensions":{"KHR_materials_specular":{"specularFactor":1.0,"specularColorFactor":[0.0,0.0,0.0]},"KHR_materials_ior":{"ior":1.0}}}],"meshes":[{"name":"defaultobject","primitives":[{"mode":4,"material":1,"indices":2,"attributes":{"POSITION":0,"TEXCOORD_0":1}},{"mode":4,"material":2,"indices":5,"attributes":{"POSITION":3,"TEXCOORD_0":4}}]}],"nodes":[{"name":"tile_0361.obj","children":[1]},{"name":"defaultobject","mesh":0}],"samplers":[{},{}],"scenes":[{"nodes":[0]}],"textures":[{"source":0,"sampler":0},{"source":1,"sampler":1}],"scene":0}
