{"asset":{"version":"2.0","generator":"Open Asset Import Library (assimp v6.0.0)"},"extensionsUsed":["KHR_materials_specular","KHR_materials_volume","KHR_materials_ior","FB_ngon_encoding"],"accessors":[{"bufferView":0,"byteOffset":0,"componentType":5126,"count":2266,"type":"VEC3","max":[-1.7616392374038696,-5.0421929359436035,2.463704824447632],"min":[-1.878487229347229,-5.7118635177612305,2.2250738585072014e-308]},{"bufferView":1,"byteOffset":0,"componentType":5126,"count":2266,"type":"VEC2","max":[0.9736918210983276,0.7638359069824219],"min":[2.2250738585072014e-308,2.2250738585072014e-308]},{"bufferView":2,"byteOffset":0,"componentType":5125,"count":10392,"type":"SCALAR","max":[2265],"min":[0]},{"bufferView":3,"byteOffset":0,"componentType":5126,"count":2232,"type":"VEC3","max":[-1.7661042213439941,-5.045717239379883,2.463704824447632],"min":[-1.878487229347229,-5.732047080993652,2.2250738585072014e-308]},{"bufferView":4,"byteOffset":0,"componentType":5126,"count":2232,"type":"VEC2","max":[0.7720761299133301,0.4993133544921875],"min":[2.2250738585072014e-308,2.2250738585072014e-308]},{"bufferView":5,"byteOffset":0,"componentType":5125,"count":10956,"type":"SCALAR","max":[2231],"min":[0]}],"buffers":[{"byteLength":175352,"uri":"tile_0394.bin"}],"bufferViews":[{"buffer":0,"byteOffset":0,"byteLength":27192,"target":34962},{"buffer":0,"byteOffset":27192,"byteLength":18128,"target":34962},{"buffer":0,"byteOffset":45320,"byteLength":41568,"target":34963},{"buffer":0,"byteOffset":86888,"byteLength":26784,"target":34962},{"buffer":0,"byteOffset":113672,"byteLength":17856,"target":34962},{"buffer":0,"byteOffset":131528,"byteLength":43824,"target":34963}],"images":[{"uri":"../textures/tile_0394_material_0.jpg"},{"uri":"../textures/tile_0394_material_1.jpg"}],"materials":[{"name":"DefaultMaterial","pbrMetallicRoughness":{"baseColorFactor":[0.6000000238418579,0.6000000238418579,0.6000000238418579,1.0],"metallicFactor":0.0},"extensions":{"KHR_materials_specular":{"specularFactor":1.0,"specularColorFactor":[0.0,0.0,0.0]},"KHR_materials_ior":{"ior":1.0}}},{"name":"material_0_material","pbrMetallicRoughness":{"baseColorTexture":{"index":0},"metallicFactor":0.0},"extensions":{"KHR_materials_specular":{"specularFactor":1.0,"specularColorFactor":[0.0,0.0,0.0]},"KHR_materials_ior":{"ior":1.0}}},{"name":"material_1_material","pbrMetallicRoughness":{"baseColorTexture":{"index":1},"metallicFactor":0.0},"extensions":{"KHR_materials_specular":{"specularFactor":1.0,"specularColorFactor":[0.0,0.0,0.0]},"KHR_materials_ior":{"ior":1.0}}}],"meshes":[{"name":"defaultobject","primitives":[{"mode":4,"material":1,"indices":2,"attributes":{"POSITION":0,"TEXCOORD_0":1}},{"mode":4,"material":2,"indices":5,"attributes":{"POSITION":3,"TEXCOORD_0":4}}]}],"nodes":[{"name":"tile_0394.obj","children":[1]},{"name":"defaultobject","mesh":0}],"samplers":[{},{}],"scenes":[{"nodes":[0]}],"textures":[{"source":0,"sampler":0},{"source":1,"sampler":1}],"scene":0}
