{"asset":{"version":"2.0","generator":"Open Asset Import Library (assimp v6.0.0)"},"extensionsUsed":["KHR_materials_specular","KHR_materials_volume","KHR_materials_ior","FB_ngon_encoding"],"accessors":[{"bufferView":0,"byteOffset":0,"componentType":5126,"count":3636,"type":"VEC3","max":[1.3825831413269043,-0.7760279774665833,3.3244786262512207],"min":[2.2250738585072014e-308,-1.0119662284851074,2.2250738585072014e-308]},{"bufferView":1,"byteOffset":0,"componentType":5126,"count":3636,"type":"VEC2","max":[0.9904079437255859,0.9674453735351562],"min":[2.2250738585072014e-308,2.2250738585072014e-308]},{"bufferView":2,"byteOffset":0,"componentType":5125,"count":16467,"type":"SCALAR","max":[3635],"min":[0]},{"bufferView":3,"byteOffset":0,"componentType":5126,"count":42,"type":"VEC3","max":[1.380106806755066,-0.8169175982475281,3.2855281829833984],"min":[2.2250738585072014e-308,-0.9240498542785645,2.2250738585072014e-308]},{"bufferView":4,"byteOffset":0,"componentType":5126,"count":42,"type":"VEC2","max":[0.554634153842926,0.5683900117874146],"min":[2.2250738585072014e-308,2.2250738585072014e-308]},{"bufferView":5,"byteOffset":0,"componentType":5125,"count":153,"type":"SCALAR","max":[41],"min":[0]}],"buffers":[{"byteLength":140040,"uri":"tile_0624.bin"}],"bufferViews":[{"buffer":0,"byteOffset":0,"byteLength":43632,"target":34962},{"buffer":0,"byteOffset":43632,"byteLength":29088,"target":34962},{"buffer":0,"byteOffset":72720,"byteLength":65868,"target":34963},{"buffer":0,"byteOffset":138588,"byteLength":504,"target":34962},{"buffer":0,"byteOffset":139092,"byteLength":336,"target":34962},{"buffer":0,"byteOffset":139428,"byteLength":612,"target":34963}],"images":[{"uri":"../textures/tile_0624_material_0.jpg"},{"uri":"../textures/tile_0624_material_1.jpg"}],"materials":[{"name":"DefaultMaterial","pbrMetallicRoughness":{"baseColorFactor":[0.6000000238418579,0.6000000238418579,0.6000000238418579,1.0],"metallicFactor":0.0},"extensions":{"KHR_materials_specular":{"specularFactor":1.0,"specularColorFactor":[0.0,0.0,0.0]},"KHR_materials_ior":{"ior":1.0}}},{"name":"material_0_material","pbrMetallicRoughness":{"baseColorTexture":{"index":0},"metallicFactor":0.0},"extensions":{"KHR_materials_specular":{"specularFactor":1.0,"specularColorFactor":[0.0,0.0,0.0]},"KHR_materials_ior":{"ior":1.0}}},{"name":"material_1_material","pbrMetallicRoughness":{"baseColorTexture":{"index":1},"metallicFactor":0.0},"extensions":{"KHR_materials_specular":{"specularFactor":1.0,"specularColorFactor":[0.0,0.0,0.0]},"KHR_materials_ior":{"ior":1.0}}}],"meshes":[{"name":"defaultobject","primitives":[{"mode":4,"material":1,"indices":2,"attributes":{"POSITION":0,"TEXCOORD_0":1}},{"mode":4,"material":2,"indices":5,"attributes":{"POSITION":3,"TEXCOORD_0":4}}]}],"nodes":[{"name":"tile_0624.obj","children":[1]},{"name":"defaultobject","mesh":0}],"samplers":[{},{}],"scenes":[{"nodes":[0]}],"textures":[{"source":0,"sampler":0},{"source":1,"sampler":1}],"scene":0}
