{"asset":{"version":"2.0","generator":"Open Asset Import Library (assimp v6.0.0)"},"extensionsUsed":["KHR_materials_specular","KHR_materials_volume","KHR_materials_ior","FB_ngon_encoding"],"accessors":[{"bufferView":0,"byteOffset":0,"componentType":5126,"count":2498,"type":"VEC3","max":[2.0370004177093506,-4.653319835662842,2.9776079654693604],"min":[2.2250738585072014e-308,-5.355837345123291,2.2250738585072014e-308]},{"bufferView":1,"byteOffset":0,"componentType":5126,"count":2498,"type":"VEC2","max":[0.9770240783691406,0.6170997619628906],"min":[2.2250738585072014e-308,2.2250738585072014e-308]},{"bufferView":2,"byteOffset":0,"componentType":5125,"count":10383,"type":"SCALAR","max":[2497],"min":[0]},{"bufferView":3,"byteOffset":0,"componentType":5126,"count":2070,"type":"VEC3","max":[2.0361270904541016,-4.65588903427124,2.9516329765319824],"min":[2.2250738585072014e-308,-5.3522443771362305,2.2250738585072014e-308]},{"bufferView":4,"byteOffset":0,"componentType":5126,"count":2070,"type":"VEC2","max":[0.8255720138549805,0.6519622802734375],"min":[2.2250738585072014e-308,2.2250738585072014e-308]},{"bufferView":5,"byteOffset":0,"componentType":5125,"count":10380,"type":"SCALAR","max":[2069],"min":[0]}],"buffers":[{"byteLength":174412,"uri":"tile_0781.bin"}],"bufferViews":[{"buffer":0,"byteOffset":0,"byteLength":29976,"target":34962},{"buffer":0,"byteOffset":29976,"byteLength":19984,"target":34962},{"buffer":0,"byteOffset":49960,"byteLength":41532,"target":34963},{"buffer":0,"byteOffset":91492,"byteLength":24840,"target":34962},{"buffer":0,"byteOffset":116332,"byteLength":16560,"target":34962},{"buffer":0,"byteOffset":132892,"byteLength":41520,"target":34963}],"images":[{"uri":"../textures/tile_0781_material_0.jpg"},{"uri":"../textures/tile_0781_material_1.jpg"}],"materials":[{"name":"DefaultMaterial","pbrMetallicRoughness":{"baseColorFactor":[0.6000000238418579,0.6000000238418579,0.6000000238418579,1.0],"metallicFactor":0.0},"extensions":{"KHR_materials_specular":{"specularFactor":1.0,"specularColorFactor":[0.0,0.0,0.0]},"KHR_materials_ior":{"ior":1.0}}},{"name":"material_0_material","pbrMetallicRoughness":{"baseColorTexture":{"index":0},"metallicFactor":0.0},"extensions":{"KHR_materials_specular":{"specularFactor":1.0,"specularColorFactor":[0.0,0.0,0.0]},"KHR_materials_ior":{"ior":1.0}}},{"name":"material_1_material","pbrMetallicRoughness":{"baseColorTexture":{"index":1},"metallicFactor":0.0},"extensions":{"KHR_materials_specular":{"specularFactor":1.0,"specularColorFactor":[0.0,0.0,0.0]},"KHR_materials_ior":{"ior":1.0}}}],"meshes":[{"name":"defaultobject","primitives":[{"mode":4,"material":1,"indices":2,"attributes":{"POSITION":0,"TEXCOORD_0":1}},{"mode":4,"material":2,"indices":5,"attributes":{"POSITION":3,"TEXCOORD_0":4}}]}],"nodes":[{"name":"tile_0781.obj","children":[1]},{"name":"defaultobject","mesh":0}],"samplers":[{},{}],"scenes":[{"nodes":[0]}],"textures":[{"source":0,"sampler":0},{"source":1,"sampler":1}],"scene":0}
