{"asset":{"version":"2.0","generator":"Open Asset Import Library (assimp v6.0.0)"},"extensionsUsed":["KHR_materials_specular","KHR_materials_volume","KHR_materials_ior","FB_ngon_encoding"],"accessors":[{"bufferView":0,"byteOffset":0,"componentType":5126,"count":5145,"type":"VEC3","max":[3.407153367996216,-3.3632898330688477,3.7459633350372314],"min":[2.2250738585072014e-308,-3.6356494426727295,2.2250738585072014e-308]},{"bufferView":1,"byteOffset":0,"componentType":5126,"count":5145,"type":"VEC2","max":[0.9953322410583496,0.6912460327148438],"min":[2.2250738585072014e-308,2.2250738585072014e-308]},{"bufferView":2,"byteOffset":0,"componentType":5125,"count":23538,"type":"SCALAR","max":[5144],"min":[0]},{"bufferView":3,"byteOffset":0,"componentType":5126,"count":539,"type":"VEC3","max":[3.363985300064087,-3.431467294692993,3.746056318283081],"min":[2.2250738585072014e-308,-3.6350605487823486,2.2250738585072014e-308]},{"bufferView":4,"byteOffset":0,"componentType":5126,"count":539,"type":"VEC2","max":[0.8235721588134766,0.6286888122558594],"min":[2.2250738585072014e-308,2.2250738585072014e-308]},{"bufferView":5,"byteOffset":0,"componentType":5125,"count":2628,"type":"SCALAR","max":[538],"min":[0]}],"buffers":[{"byteLength":218344,"uri":"tile_0255.bin"}],"bufferViews":[{"buffer":0,"byteOffset":0,"byteLength":61740,"target":34962},{"buffer":0,"byteOffset":61740,"byteLength":41160,"target":34962},{"buffer":0,"byteOffset":102900,"byteLength":94152,"target":34963},{"buffer":0,"byteOffset":197052,"byteLength":6468,"target":34962},{"buffer":0,"byteOffset":203520,"byteLength":4312,"target":34962},{"buffer":0,"byteOffset":207832,"byteLength":10512,"target":34963}],"images":[{"uri":"../textures/tile_0255_material_0.jpg"},{"uri":"../textures/tile_0255_material_1.jpg"}],"materials":[{"name":"DefaultMaterial","pbrMetallicRoughness":{"baseColorFactor":[0.6000000238418579,0.6000000238418579,0.6000000238418579,1.0],"metallicFactor":0.0},"extensions":{"KHR_materials_specular":{"specularFactor":1.0,"specularColorFactor":[0.0,0.0,0.0]},"KHR_materials_ior":{"ior":1.0}}},{"name":"material_0_material","pbrMetallicRoughness":{"baseColorTexture":{"index":0},"metallicFactor":0.0},"extensions":{"KHR_materials_specular":{"specularFactor":1.0,"specularColorFactor":[0.0,0.0,0.0]},"KHR_materials_ior":{"ior":1.0}}},{"name":"material_1_material","pbrMetallicRoughness":{"baseColorTexture":{"index":1},"metallicFactor":0.0},"extensions":{"KHR_materials_specular":{"specularFactor":1.0,"specularColorFactor":[0.0,0.0,0.0]},"KHR_materials_ior":{"ior":1.0}}}],"meshes":[{"name":"defaultobject","primitives":[{"mode":4,"material":1,"indices":2,"attributes":{"POSITION":0,"TEXCOORD_0":1}},{"mode":4,"material":2,"indices":5,"attributes":{"POSITION":3,"TEXCOORD_0":4}}]}],"nodes":[{"name":"tile_0255.obj","children":[1]},{"name":"defaultobject","mesh":0}],"samplers":[{},{}],"scenes":[{"nodes":[0]}],"textures":[{"source":0,"sampler":0},{"source":1,"sampler":1}],"scene":0}
