{"asset":{"version":"2.0","generator":"Open Asset Import Library (assimp v6.0.0)"},"extensionsUsed":["KHR_materials_specular","KHR_materials_volume","KHR_materials_ior","FB_ngon_encoding"],"accessors":[{"bufferView":0,"byteOffset":0,"componentType":5126,"count":13238,"type":"VEC3","max":[2.3901381492614746,-2.696681022644043,3.463839292526245],"min":[2.2250738585072014e-308,-3.127061605453491,2.2250738585072014e-308]},{"bufferView":1,"byteOffset":0,"componentType":5126,"count":13238,"type":"VEC2","max":[0.9947714805603027,0.6581916809082031],"min":[2.2250738585072014e-308,2.2250738585072014e-308]},{"bufferView":2,"byteOffset":0,"componentType":5125,"count":59208,"type":"SCALAR","max":[13237],"min":[0]},{"bufferView":3,"byteOffset":0,"componentType":5126,"count":1856,"type":"VEC3","max":[2.1508378982543945,-2.871098756790161,3.4246366024017334],"min":[2.2250738585072014e-308,-3.123850107192993,2.2250738585072014e-308]},{"bufferView":4,"byteOffset":0,"componentType":5126,"count":1856,"type":"VEC2","max":[0.8065557479858398,0.5453510284423828],"min":[2.2250738585072014e-308,2.2250738585072014e-308]},{"bufferView":5,"byteOffset":0,"componentType":5125,"count":9771,"type":"SCALAR","max":[1855],"min":[0]}],"buffers":[{"byteLength":577796,"uri":"tile_0267.bin"}],"bufferViews":[{"buffer":0,"byteOffset":0,"byteLength":158856,"target":34962},{"buffer":0,"byteOffset":158856,"byteLength":105904,"target":34962},{"buffer":0,"byteOffset":264760,"byteLength":236832,"target":34963},{"buffer":0,"byteOffset":501592,"byteLength":22272,"target":34962},{"buffer":0,"byteOffset":523864,"byteLength":14848,"target":34962},{"buffer":0,"byteOffset":538712,"byteLength":39084,"target":34963}],"images":[{"uri":"../textures/tile_0267_material_0.jpg"},{"uri":"../textures/tile_0267_material_1.jpg"}],"materials":[{"name":"DefaultMaterial","pbrMetallicRoughness":{"baseColorFactor":[0.6000000238418579,0.6000000238418579,0.6000000238418579,1.0],"metallicFactor":0.0},"extensions":{"KHR_materials_specular":{"specularFactor":1.0,"specularColorFactor":[0.0,0.0,0.0]},"KHR_materials_ior":{"ior":1.0}}},{"name":"material_0_material","pbrMetallicRoughness":{"baseColorTexture":{"index":0},"metallicFactor":0.0},"extensions":{"KHR_materials_specular":{"specularFactor":1.0,"specularColorFactor":[0.0,0.0,0.0]},"KHR_materials_ior":{"ior":1.0}}},{"name":"material_1_material","pbrMetallicRoughness":{"baseColorTexture":{"index":1},"metallicFactor":0.0},"extensions":{"KHR_materials_specular":{"specularFactor":1.0,"specularColorFactor":[0.0,0.0,0.0]},"KHR_materials_ior":{"ior":1.0}}}],"meshes":[{"name":"defaultobject","primitives":[{"mode":4,"material":1,"indices":2,"attributes":{"POSITION":0,"TEXCOORD_0":1}},{"mode":4,"material":2,"indices":5,"attributes":{"POSITION":3,"TEXCOORD_0":4}}]}],"nodes":[{"name":"tile_0267.obj","children":[1]},{"name":"defaultobject","mesh":0}],"samplers":[{},{}],"scenes":[{"nodes":[0]}],"textures":[{"source":0,"sampler":0},{"source":1,"sampler":1}],"scene":0}
