{"asset":{"version":"2.0","generator":"Open Asset Import Library (assimp v6.0.0)"},"extensionsUsed":["KHR_materials_specular","KHR_materials_volume","KHR_materials_ior","FB_ngon_encoding"],"accessors":[{"bufferView":0,"byteOffset":0,"componentType":5126,"count":3959,"type":"VEC3","max":[-0.7748491764068604,-5.213619709014893,2.2860960960388184],"min":[-0.96229088306427,-5.766416072845459,2.2250738585072014e-308]},{"bufferView":1,"byteOffset":0,"componentType":5126,"count":3959,"type":"VEC2","max":[0.9948024749755859,0.49178504943847656],"min":[2.2250738585072014e-308,2.2250738585072014e-308]},{"bufferView":2,"byteOffset":0,"componentType":5125,"count":17676,"type":"SCALAR","max":[3958],"min":[0]},{"bufferView":3,"byteOffset":0,"componentType":5126,"count":1295,"type":"VEC3","max":[-0.7761616706848145,-5.226592063903809,2.282212257385254],"min":[-0.9656203985214233,-5.7664055824279785,2.2250738585072014e-308]},{"bufferView":4,"byteOffset":0,"componentType":5126,"count":1295,"type":"VEC2","max":[0.7243366241455078,0.8648605346679688],"min":[2.2250738585072014e-308,2.2250738585072014e-308]},{"bufferView":5,"byteOffset":0,"componentType":5125,"count":6396,"type":"SCALAR","max":[1294],"min":[0]}],"buffers":[{"byteLength":201368,"uri":"tile_0348.bin"}],"bufferViews":[{"buffer":0,"byteOffset":0,"byteLength":47508,"target":34962},{"buffer":0,"byteOffset":47508,"byteLength":31672,"target":34962},{"buffer":0,"byteOffset":79180,"byteLength":70704,"target":34963},{"buffer":0,"byteOffset":149884,"byteLength":15540,"target":34962},{"buffer":0,"byteOffset":165424,"byteLength":10360,"target":34962},{"buffer":0,"byteOffset":175784,"byteLength":25584,"target":34963}],"images":[{"uri":"../textures/tile_0348_material_0.jpg"},{"uri":"../textures/tile_0348_material_1.jpg"}],"materials":[{"name":"DefaultMaterial","pbrMetallicRoughness":{"baseColorFactor":[0.6000000238418579,0.6000000238418579,0.6000000238418579,1.0],"metallicFactor":0.0},"extensions":{"KHR_materials_specular":{"specularFactor":1.0,"specularColorFactor":[0.0,0.0,0.0]},"KHR_materials_ior":{"ior":1.0}}},{"name":"material_0_material","pbrMetallicRoughness":{"baseColorTexture":{"index":0},"metallicFactor":0.0},"extensions":{"KHR_materials_specular":{"specularFactor":1.0,"specularColorFactor":[0.0,0.0,0.0]},"KHR_materials_ior":{"ior":1.0}}},{"name":"material_1_material","pbrMetallicRoughness":{"baseColorTexture":{"index":1},"metallicFactor":0.0},"extensions":{"KHR_materials_specular":{"specularFactor":1.0,"specularColorFactor":[0.0,0.0,0.0]},"KHR_materials_ior":{"ior":1.0}}}],"meshes":[{"name":"defaultobject","primitives":[{"mode":4,"material":1,"indices":2,"attributes":{"POSITION":0,"TEXCOORD_0":1}},{"mode":4,"material":2,"indices":5,"attributes":{"POSITION":3,"TEXCOORD_0":4}}]}],"nodes":[{"name":"tile_0348.obj","children":[1]},{"name":"defaultobject","mesh":0}],"samplers":[{},{}],"scenes":[{"nodes":[0]}],"textures":[{"source":0,"sampler":0},{"source":1,"sampler":1}],"scene":0}
