{"asset":{"version":"2.0","generator":"Open Asset Import Library (assimp v6.0.0)"},"extensionsUsed":["KHR_materials_specular","KHR_materials_volume","KHR_materials_ior","FB_ngon_encoding"],"accessors":[{"bufferView":0,"byteOffset":0,"componentType":5126,"count":4760,"type":"VEC3","max":[4.072185516357422,-2.1905980110168457,4.015514850616455],"min":[2.2250738585072014e-308,-2.484046697616577,2.2250738585072014e-308]},{"bufferView":1,"byteOffset":0,"componentType":5126,"count":4760,"type":"VEC2","max":[0.9911289215087891,0.5624847412109375],"min":[2.2250738585072014e-308,2.2250738585072014e-308]},{"bufferView":2,"byteOffset":0,"componentType":5125,"count":22785,"type":"SCALAR","max":[4759],"min":[0]},{"bufferView":3,"byteOffset":0,"componentType":5126,"count":429,"type":"VEC3","max":[4.073498249053955,-2.195072889328003,4.006778240203857],"min":[2.2250738585072014e-308,-2.4814958572387695,2.2250738585072014e-308]},{"bufferView":4,"byteOffset":0,"componentType":5126,"count":429,"type":"VEC2","max":[0.7652759552001953,0.7061080932617188],"min":[2.2250738585072014e-308,2.2250738585072014e-308]},{"bufferView":5,"byteOffset":0,"componentType":5125,"count":2268,"type":"SCALAR","max":[428],"min":[0]}],"buffers":[{"byteLength":203992,"uri":"tile_0250.bin"}],"bufferViews":[{"buffer":0,"byteOffset":0,"byteLength":57120,"target":34962},{"buffer":0,"byteOffset":57120,"byteLength":38080,"target":34962},{"buffer":0,"byteOffset":95200,"byteLength":91140,"target":34963},{"buffer":0,"byteOffset":186340,"byteLength":5148,"target":34962},{"buffer":0,"byteOffset":191488,"byteLength":3432,"target":34962},{"buffer":0,"byteOffset":194920,"byteLength":9072,"target":34963}],"images":[{"uri":"../textures/tile_0250_material_0.jpg"},{"uri":"../textures/tile_0250_material_1.jpg"}],"materials":[{"name":"DefaultMaterial","pbrMetallicRoughness":{"baseColorFactor":[0.6000000238418579,0.6000000238418579,0.6000000238418579,1.0],"metallicFactor":0.0},"extensions":{"KHR_materials_specular":{"specularFactor":1.0,"specularColorFactor":[0.0,0.0,0.0]},"KHR_materials_ior":{"ior":1.0}}},{"name":"material_0_material","pbrMetallicRoughness":{"baseColorTexture":{"index":0},"metallicFactor":0.0},"extensions":{"KHR_materials_specular":{"specularFactor":1.0,"specularColorFactor":[0.0,0.0,0.0]},"KHR_materials_ior":{"ior":1.0}}},{"name":"material_1_material","pbrMetallicRoughness":{"baseColorTexture":{"index":1},"metallicFactor":0.0},"extensions":{"KHR_materials_specular":{"specularFactor":1.0,"specularColorFactor":[0.0,0.0,0.0]},"KHR_materials_ior":{"ior":1.0}}}],"meshes":[{"name":"defaultobject","primitives":[{"mode":4,"material":1,"indices":2,"attributes":{"POSITION":0,"TEXCOORD_0":1}},{"mode":4,"material":2,"indices":5,"attributes":{"POSITION":3,"TEXCOORD_0":4}}]}],"nodes":[{"name":"tile_0250.obj","children":[1]},{"name":"defaultobject","mesh":0}],"samplers":[{},{}],"scenes":[{"nodes":[0]}],"textures":[{"source":0,"sampler":0},{"source":1,"sampler":1}],"scene":0}
