{"asset":{"version":"2.0","generator":"Open Asset Import Library (assimp v6.0.0)"},"extensionsUsed":["KHR_materials_specular","KHR_materials_volume","KHR_materials_ior","FB_ngon_encoding"],"accessors":[{"bufferView":0,"byteOffset":0,"componentType":5126,"count":5060,"type":"VEC3","max":[0.6555711627006531,0.0823843851685524,4.109186172485352],"min":[2.2250738585072014e-308,-0.11719445884227753,2.2250738585072014e-308]},{"bufferView":1,"byteOffset":0,"componentType":5126,"count":5060,"type":"VEC2","max":[0.9920543432235718,0.5951976776123047],"min":[2.2250738585072014e-308,2.2250738585072014e-308]},{"bufferView":2,"byteOffset":0,"componentType":5125,"count":22779,"type":"SCALAR","max":[5059],"min":[0]},{"bufferView":3,"byteOffset":0,"componentType":5126,"count":393,"type":"VEC3","max":[0.6555711627006531,0.07635768502950668,4.073184967041016],"min":[2.2250738585072014e-308,-0.049481503665447235,2.2250738585072014e-308]},{"bufferView":4,"byteOffset":0,"componentType":5126,"count":393,"type":"VEC2","max":[0.7894275784492493,0.8808822631835938],"min":[2.2250738585072014e-308,2.2250738585072014e-308]},{"bufferView":5,"byteOffset":0,"componentType":5125,"count":1890,"type":"SCALAR","max":[392],"min":[0]}],"buffers":[{"byteLength":207736,"uri":"tile_0612.bin"}],"bufferViews":[{"buffer":0,"byteOffset":0,"byteLength":60720,"target":34962},{"buffer":0,"byteOffset":60720,"byteLength":40480,"target":34962},{"buffer":0,"byteOffset":101200,"byteLength":91116,"target":34963},{"buffer":0,"byteOffset":192316,"byteLength":4716,"target":34962},{"buffer":0,"byteOffset":197032,"byteLength":3144,"target":34962},{"buffer":0,"byteOffset":200176,"byteLength":7560,"target":34963}],"images":[{"uri":"../textures/tile_0612_material_0.jpg"},{"uri":"../textures/tile_0612_material_1.jpg"}],"materials":[{"name":"DefaultMaterial","pbrMetallicRoughness":{"baseColorFactor":[0.6000000238418579,0.6000000238418579,0.6000000238418579,1.0],"metallicFactor":0.0},"extensions":{"KHR_materials_specular":{"specularFactor":1.0,"specularColorFactor":[0.0,0.0,0.0]},"KHR_materials_ior":{"ior":1.0}}},{"name":"material_0_material","pbrMetallicRoughness":{"baseColorTexture":{"index":0},"metallicFactor":0.0},"extensions":{"KHR_materials_specular":{"specularFactor":1.0,"specularColorFactor":[0.0,0.0,0.0]},"KHR_materials_ior":{"ior":1.0}}},{"name":"material_1_material","pbrMetallicRoughness":{"baseColorTexture":{"index":1},"metallicFactor":0.0},"extensions":{"KHR_materials_specular":{"specularFactor":1.0,"specularColorFactor":[0.0,0.0,0.0]},"KHR_materials_ior":{"ior":1.0}}}],"meshes":[{"name":"defaultobject","primitives":[{"mode":4,"material":1,"indices":2,"attributes":{"POSITION":0,"TEXCOORD_0":1}},{"mode":4,"material":2,"indices":5,"attributes":{"POSITION":3,"TEXCOORD_0":4}}]}],"nodes":[{"name":"tile_0612.obj","children":[1]},{"name":"defaultobject","mesh":0}],"samplers":[{},{}],"scenes":[{"nodes":[0]}],"textures":[{"source":0,"sampler":0},{"source":1,"sampler":1}],"scene":0}
