{"asset":{"version":"2.0","generator":"Open Asset Import Library (assimp v6.0.0)"},"extensionsUsed":["KHR_materials_specular","KHR_materials_volume","KHR_materials_ior","FB_ngon_encoding"],"accessors":[{"bufferView":0,"byteOffset":0,"componentType":5126,"count":3000,"type":"VEC3","max":[-4.730257511138916,-1.145402193069458,4.214004993438721],"min":[-7.215365409851074,-1.3931344747543335,2.2250738585072014e-308]},{"bufferView":1,"byteOffset":0,"componentType":5126,"count":3000,"type":"VEC2","max":[0.9859962463378906,0.5068244934082031],"min":[2.2250738585072014e-308,2.2250738585072014e-308]},{"bufferView":2,"byteOffset":0,"componentType":5125,"count":14610,"type":"SCALAR","max":[2999],"min":[0]},{"bufferView":3,"byteOffset":0,"componentType":5126,"count":2320,"type":"VEC3","max":[-4.730834007263184,-1.1461809873580933,4.2208099365234375],"min":[-7.21474552154541,-1.4061098098754883,2.2250738585072014e-308]},{"bufferView":4,"byteOffset":0,"componentType":5126,"count":2320,"type":"VEC2","max":[0.6889097690582275,0.6172027587890625],"min":[2.2250738585072014e-308,2.2250738585072014e-308]},{"bufferView":5,"byteOffset":0,"componentType":5125,"count":12483,"type":"SCALAR","max":[2319],"min":[0]}],"buffers":[{"byteLength":214772,"uri":"tile_0421.bin"}],"bufferViews":[{"buffer":0,"byteOffset":0,"byteLength":36000,"target":34962},{"buffer":0,"byteOffset":36000,"byteLength":24000,"target":34962},{"buffer":0,"byteOffset":60000,"byteLength":58440,"target":34963},{"buffer":0,"byteOffset":118440,"byteLength":27840,"target":34962},{"buffer":0,"byteOffset":146280,"byteLength":18560,"target":34962},{"buffer":0,"byteOffset":164840,"byteLength":49932,"target":34963}],"images":[{"uri":"../textures/tile_0421_material_0.jpg"},{"uri":"../textures/tile_0421_material_1.jpg"}],"materials":[{"name":"DefaultMaterial","pbrMetallicRoughness":{"baseColorFactor":[0.6000000238418579,0.6000000238418579,0.6000000238418579,1.0],"metallicFactor":0.0},"extensions":{"KHR_materials_specular":{"specularFactor":1.0,"specularColorFactor":[0.0,0.0,0.0]},"KHR_materials_ior":{"ior":1.0}}},{"name":"material_0_material","pbrMetallicRoughness":{"baseColorTexture":{"index":0},"metallicFactor":0.0},"extensions":{"KHR_materials_specular":{"specularFactor":1.0,"specularColorFactor":[0.0,0.0,0.0]},"KHR_materials_ior":{"ior":1.0}}},{"name":"material_1_material","pbrMetallicRoughness":{"baseColorTexture":{"index":1},"metallicFactor":0.0},"extensions":{"KHR_materials_specular":{"specularFactor":1.0,"specularColorFactor":[0.0,0.0,0.0]},"KHR_materials_ior":{"ior":1.0}}}],"meshes":[{"name":"defaultobject","primitives":[{"mode":4,"material":1,"indices":2,"attributes":{"POSITION":0,"TEXCOORD_0":1}},{"mode":4,"material":2,"indices":5,"attributes":{"POSITION":3,"TEXCOORD_0":4}}]}],"nodes":[{"name":"tile_0421.obj","children":[1]},{"name":"defaultobject","mesh":0}],"samplers":[{},{}],"scenes":[{"nodes":[0]}],"textures":[{"source":0,"sampler":0},{"source":1,"sampler":1}],"scene":0}
