{"asset":{"version":"2.0","generator":"Open Asset Import Library (assimp v6.0.0)"},"extensionsUsed":["KHR_materials_specular","KHR_materials_volume","KHR_materials_ior","FB_ngon_encoding"],"accessors":[{"bufferView":0,"byteOffset":0,"componentType":5126,"count":4471,"type":"VEC3","max":[0.9602035880088806,1.4196418523788452,4.171082019805908],"min":[2.2250738585072014e-308,2.2250738585072014e-308,2.2250738585072014e-308]},{"bufferView":1,"byteOffset":0,"componentType":5126,"count":4471,"type":"VEC2","max":[0.993844747543335,0.8041267395019531],"min":[2.2250738585072014e-308,2.2250738585072014e-308]},{"bufferView":2,"byteOffset":0,"componentType":5125,"count":20088,"type":"SCALAR","max":[4470],"min":[0]},{"bufferView":3,"byteOffset":0,"componentType":5126,"count":313,"type":"VEC3","max":[0.9605093598365784,1.4153889417648315,4.155623912811279],"min":[2.2250738585072014e-308,2.2250738585072014e-308,2.2250738585072014e-308]},{"bufferView":4,"byteOffset":0,"componentType":5126,"count":313,"type":"VEC2","max":[0.8184127807617188,0.4918823838233948],"min":[2.2250738585072014e-308,2.2250738585072014e-308]},{"bufferView":5,"byteOffset":0,"componentType":5125,"count":1518,"type":"SCALAR","max":[312],"min":[0]}],"buffers":[{"byteLength":182104,"uri":"tile_0158.bin"}],"bufferViews":[{"buffer":0,"byteOffset":0,"byteLength":53652,"target":34962},{"buffer":0,"byteOffset":53652,"byteLength":35768,"target":34962},{"buffer":0,"byteOffset":89420,"byteLength":80352,"target":34963},{"buffer":0,"byteOffset":169772,"byteLength":3756,"target":34962},{"buffer":0,"byteOffset":173528,"byteLength":2504,"target":34962},{"buffer":0,"byteOffset":176032,"byteLength":6072,"target":34963}],"images":[{"uri":"../textures/tile_0158_material_0.jpg"},{"uri":"../textures/tile_0158_material_1.jpg"}],"materials":[{"name":"DefaultMaterial","pbrMetallicRoughness":{"baseColorFactor":[0.6000000238418579,0.6000000238418579,0.6000000238418579,1.0],"metallicFactor":0.0},"extensions":{"KHR_materials_specular":{"specularFactor":1.0,"specularColorFactor":[0.0,0.0,0.0]},"KHR_materials_ior":{"ior":1.0}}},{"name":"material_0_material","pbrMetallicRoughness":{"baseColorTexture":{"index":0},"metallicFactor":0.0},"extensions":{"KHR_materials_specular":{"specularFactor":1.0,"specularColorFactor":[0.0,0.0,0.0]},"KHR_materials_ior":{"ior":1.0}}},{"name":"material_1_material","pbrMetallicRoughness":{"baseColorTexture":{"index":1},"metallicFactor":0.0},"extensions":{"KHR_materials_specular":{"specularFactor":1.0,"specularColorFactor":[0.0,0.0,0.0]},"KHR_materials_ior":{"ior":1.0}}}],"meshes":[{"name":"defaultobject","primitives":[{"mode":4,"material":1,"indices":2,"attributes":{"POSITION":0,"TEXCOORD_0":1}},{"mode":4,"material":2,"indices":5,"attributes":{"POSITION":3,"TEXCOORD_0":4}}]}],"nodes":[{"name":"tile_0158.obj","children":[1]},{"name":"defaultobject","mesh":0}],"samplers":[{},{}],"scenes":[{"nodes":[0]}],"textures":[{"source":0,"sampler":0},{"source":1,"sampler":1}],"scene":0}
