{"asset":{"version":"2.0","generator":"Open Asset Import Library (assimp v6.0.0)"},"extensionsUsed":["KHR_materials_specular","KHR_materials_volume","KHR_materials_ior","FB_ngon_encoding"],"accessors":[{"bufferView":0,"byteOffset":0,"componentType":5126,"count":2510,"type":"VEC3","max":[-3.5597047805786133,-1.4460217952728271,3.6323587894439697],"min":[-4.157343864440918,-1.6572823524475098,2.2250738585072014e-308]},{"bufferView":1,"byteOffset":0,"componentType":5126,"count":2510,"type":"VEC2","max":[0.9896053671836853,0.7097091674804688],"min":[2.2250738585072014e-308,2.2250738585072014e-308]},{"bufferView":2,"byteOffset":0,"componentType":5125,"count":11118,"type":"SCALAR","max":[2509],"min":[0]},{"bufferView":3,"byteOffset":0,"componentType":5126,"count":3509,"type":"VEC3","max":[-3.5576517581939697,-1.4465563297271729,3.637058734893799],"min":[-4.156941890716553,-1.6828646659851074,2.2250738585072014e-308]},{"bufferView":4,"byteOffset":0,"componentType":5126,"count":3509,"type":"VEC2","max":[0.881232738494873,0.9512920379638672],"min":[2.2250738585072014e-308,2.2250738585072014e-308]},{"bufferView":5,"byteOffset":0,"componentType":5125,"count":18564,"type":"SCALAR","max":[3508],"min":[0]}],"buffers":[{"byteLength":239108,"uri":"tile_0071.bin"}],"bufferViews":[{"buffer":0,"byteOffset":0,"byteLength":30120,"target":34962},{"buffer":0,"byteOffset":30120,"byteLength":20080,"target":34962},{"buffer":0,"byteOffset":50200,"byteLength":44472,"target":34963},{"buffer":0,"byteOffset":94672,"byteLength":42108,"target":34962},{"buffer":0,"byteOffset":136780,"byteLength":28072,"target":34962},{"buffer":0,"byteOffset":164852,"byteLength":74256,"target":34963}],"images":[{"uri":"../textures/tile_0071_material_0.jpg"},{"uri":"../textures/tile_0071_material_1.jpg"}],"materials":[{"name":"DefaultMaterial","pbrMetallicRoughness":{"baseColorFactor":[0.6000000238418579,0.6000000238418579,0.6000000238418579,1.0],"metallicFactor":0.0},"extensions":{"KHR_materials_specular":{"specularFactor":1.0,"specularColorFactor":[0.0,0.0,0.0]},"KHR_materials_ior":{"ior":1.0}}},{"name":"material_0_material","pbrMetallicRoughness":{"baseColorTexture":{"index":0},"metallicFactor":0.0},"extensions":{"KHR_materials_specular":{"specularFactor":1.0,"specularColorFactor":[0.0,0.0,0.0]},"KHR_materials_ior":{"ior":1.0}}},{"name":"material_1_material","pbrMetallicRoughness":{"baseColorTexture":{"index":1},"metallicFactor":0.0},"extensions":{"KHR_materials_specular":{"specularFactor":1.0,"specularColorFactor":[0.0,0.0,0.0]},"KHR_materials_ior":{"ior":1.0}}}],"meshes":[{"name":"defaultobject","primitives":[{"mode":4,"material":1,"indices":2,"attributes":{"POSITION":0,"TEXCOORD_0":1}},{"mode":4,"material":2,"indices":5,"attributes":{"POSITION":3,"TEXCOORD_0":4}}]}],"nodes":[{"name":"tile_0071.obj","children":[1]},{"name":"defaultobject","mesh":0}],"samplers":[{},{}],"scenes":[{"nodes":[0]}],"textures":[{"source":0,"sampler":0},{"source":1,"sampler":1}],"scene":0}
