{"asset":{"version":"2.0","generator":"Open Asset Import Library (assimp v6.0.0)"},"extensionsUsed":["KHR_materials_specular","KHR_materials_volume","KHR_materials_ior","FB_ngon_encoding"],"accessors":[{"bufferView":0,"byteOffset":0,"componentType":5126,"count":3329,"type":"VEC3","max":[0.9334716200828552,-2.4472768306732178,2.6303176879882812],"min":[2.2250738585072014e-308,-2.7039144039154053,2.2250738585072014e-308]},{"bufferView":1,"byteOffset":0,"componentType":5126,"count":3329,"type":"VEC2","max":[0.9941020011901855,0.9686393737792969],"min":[2.2250738585072014e-308,2.2250738585072014e-308]},{"bufferView":2,"byteOffset":0,"componentType":5125,"count":15078,"type":"SCALAR","max":[3328],"min":[0]},{"bufferView":3,"byteOffset":0,"componentType":5126,"count":827,"type":"VEC3","max":[0.931357741355896,-2.447023630142212,2.606306314468384],"min":[2.2250738585072014e-308,-2.633810043334961,2.2250738585072014e-308]},{"bufferView":4,"byteOffset":0,"componentType":5126,"count":827,"type":"VEC2","max":[0.8781871795654297,0.7987403869628906],"min":[2.2250738585072014e-308,2.2250738585072014e-308]},{"bufferView":5,"byteOffset":0,"componentType":5125,"count":4149,"type":"SCALAR","max":[826],"min":[0]}],"buffers":[{"byteLength":160028,"uri":"tile_0825.bin"}],"bufferViews":[{"buffer":0,"byteOffset":0,"byteLength":39948,"target":34962},{"buffer":0,"byteOffset":39948,"byteLength":26632,"target":34962},{"buffer":0,"byteOffset":66580,"byteLength":60312,"target":34963},{"buffer":0,"byteOffset":126892,"byteLength":9924,"target":34962},{"buffer":0,"byteOffset":136816,"byteLength":6616,"target":34962},{"buffer":0,"byteOffset":143432,"byteLength":16596,"target":34963}],"images":[{"uri":"../textures/tile_0825_material_0.jpg"},{"uri":"../textures/tile_0825_material_1.jpg"}],"materials":[{"name":"DefaultMaterial","pbrMetallicRoughness":{"baseColorFactor":[0.6000000238418579,0.6000000238418579,0.6000000238418579,1.0],"metallicFactor":0.0},"extensions":{"KHR_materials_specular":{"specularFactor":1.0,"specularColorFactor":[0.0,0.0,0.0]},"KHR_materials_ior":{"ior":1.0}}},{"name":"material_0_material","pbrMetallicRoughness":{"baseColorTexture":{"index":0},"metallicFactor":0.0},"extensions":{"KHR_materials_specular":{"specularFactor":1.0,"specularColorFactor":[0.0,0.0,0.0]},"KHR_materials_ior":{"ior":1.0}}},{"name":"material_1_material","pbrMetallicRoughness":{"baseColorTexture":{"index":1},"metallicFactor":0.0},"extensions":{"KHR_materials_specular":{"specularFactor":1.0,"specularColorFactor":[0.0,0.0,0.0]},"KHR_materials_ior":{"ior":1.0}}}],"meshes":[{"name":"defaultobject","primitives":[{"mode":4,"material":1,"indices":2,"attributes":{"POSITION":0,"TEXCOORD_0":1}},{"mode":4,"material":2,"indices":5,"attributes":{"POSITION":3,"TEXCOORD_0":4}}]}],"nodes":[{"name":"tile_0825.obj","children":[1]},{"name":"defaultobject","mesh":0}],"samplers":[{},{}],"scenes":[{"nodes":[0]}],"textures":[{"source":0,"sampler":0},{"source":1,"sampler":1}],"scene":0}
