{"asset":{"version":"2.0","generator":"Open Asset Import Library (assimp v6.0.0)"},"extensionsUsed":["KHR_materials_specular","KHR_materials_volume","KHR_materials_ior","FB_ngon_encoding"],"accessors":[{"bufferView":0,"byteOffset":0,"componentType":5126,"count":3475,"type":"VEC3","max":[-2.1694705486297607,0.7835073471069336,4.208420753479004],"min":[-2.4448235034942627,2.2250738585072014e-308,2.2250738585072014e-308]},{"bufferView":1,"byteOffset":0,"componentType":5126,"count":3475,"type":"VEC2","max":[0.9957494735717773,0.8591880798339844],"min":[2.2250738585072014e-308,2.2250738585072014e-308]},{"bufferView":2,"byteOffset":0,"componentType":5125,"count":15354,"type":"SCALAR","max":[3474],"min":[0]},{"bufferView":3,"byteOffset":0,"componentType":5126,"count":1414,"type":"VEC3","max":[-2.168447732925415,0.6465001702308655,4.20352029800415],"min":[-2.4450385570526123,2.2250738585072014e-308,2.2250738585072014e-308]},{"bufferView":4,"byteOffset":0,"componentType":5126,"count":1414,"type":"VEC2","max":[0.5580935478210449,0.9429550170898438],"min":[2.2250738585072014e-308,2.2250738585072014e-308]},{"bufferView":5,"byteOffset":0,"componentType":5125,"count":7494,"type":"SCALAR","max":[1413],"min":[0]}],"buffers":[{"byteLength":189172,"uri":"tile_0469.bin"}],"bufferViews":[{"buffer":0,"byteOffset":0,"byteLength":41700,"target":34962},{"buffer":0,"byteOffset":41700,"byteLength":27800,"target":34962},{"buffer":0,"byteOffset":69500,"byteLength":61416,"target":34963},{"buffer":0,"byteOffset":130916,"byteLength":16968,"target":34962},{"buffer":0,"byteOffset":147884,"byteLength":11312,"target":34962},{"buffer":0,"byteOffset":159196,"byteLength":29976,"target":34963}],"images":[{"uri":"../textures/tile_0469_material_0.jpg"},{"uri":"../textures/tile_0469_material_1.jpg"}],"materials":[{"name":"DefaultMaterial","pbrMetallicRoughness":{"baseColorFactor":[0.6000000238418579,0.6000000238418579,0.6000000238418579,1.0],"metallicFactor":0.0},"extensions":{"KHR_materials_specular":{"specularFactor":1.0,"specularColorFactor":[0.0,0.0,0.0]},"KHR_materials_ior":{"ior":1.0}}},{"name":"material_0_material","pbrMetallicRoughness":{"baseColorTexture":{"index":0},"metallicFactor":0.0},"extensions":{"KHR_materials_specular":{"specularFactor":1.0,"specularColorFactor":[0.0,0.0,0.0]},"KHR_materials_ior":{"ior":1.0}}},{"name":"material_1_material","pbrMetallicRoughness":{"baseColorTexture":{"index":1},"metallicFactor":0.0},"extensions":{"KHR_materials_specular":{"specularFactor":1.0,"specularColorFactor":[0.0,0.0,0.0]},"KHR_materials_ior":{"ior":1.0}}}],"meshes":[{"name":"defaultobject","primitives":[{"mode":4,"material":1,"indices":2,"attributes":{"POSITION":0,"TEXCOORD_0":1}},{"mode":4,"material":2,"indices":5,"attributes":{"POSITION":3,"TEXCOORD_0":4}}]}],"nodes":[{"name":"tile_0469.obj","children":[1]},{"name":"defaultobject","mesh":0}],"samplers":[{},{}],"scenes":[{"nodes":[0]}],"textures":[{"source":0,"sampler":0},{"source":1,"sampler":1}],"scene":0}
