{"asset":{"version":"2.0","generator":"Open Asset Import Library (assimp v6.0.0)"},"extensionsUsed":["KHR_materials_specular","KHR_materials_volume","KHR_materials_ior","FB_ngon_encoding"],"accessors":[{"bufferView":0,"byteOffset":0,"componentType":5126,"count":2945,"type":"VEC3","max":[3.3487493991851807,0.8433070182800293,4.050857067108154],"min":[2.2250738585072014e-308,2.2250738585072014e-308,2.2250738585072014e-308]},{"bufferView":1,"byteOffset":0,"componentType":5126,"count":2945,"type":"VEC2","max":[0.9885761737823486,0.788665771484375],"min":[2.2250738585072014e-308,2.2250738585072014e-308]},{"bufferView":2,"byteOffset":0,"componentType":5125,"count":13134,"type":"SCALAR","max":[2944],"min":[0]},{"bufferView":3,"byteOffset":0,"componentType":5126,"count":1917,"type":"VEC3","max":[3.3123347759246826,0.8438846468925476,3.950000047683716],"min":[2.2250738585072014e-308,2.2250738585072014e-308,2.2250738585072014e-308]},{"bufferView":4,"byteOffset":0,"componentType":5126,"count":1917,"type":"VEC2","max":[0.9118165969848633,0.8020839691162109],"min":[2.2250738585072014e-308,2.2250738585072014e-308]},{"bufferView":5,"byteOffset":0,"componentType":5125,"count":10164,"type":"SCALAR","max":[1916],"min":[0]}],"buffers":[{"byteLength":190432,"uri":"tile_0649.bin"}],"bufferViews":[{"buffer":0,"byteOffset":0,"byteLength":35340,"target":34962},{"buffer":0,"byteOffset":35340,"byteLength":23560,"target":34962},{"buffer":0,"byteOffset":58900,"byteLength":52536,"target":34963},{"buffer":0,"byteOffset":111436,"byteLength":23004,"target":34962},{"buffer":0,"byteOffset":134440,"byteLength":15336,"target":34962},{"buffer":0,"byteOffset":149776,"byteLength":40656,"target":34963}],"images":[{"uri":"../textures/tile_0649_material_0.jpg"},{"uri":"../textures/tile_0649_material_1.jpg"}],"materials":[{"name":"DefaultMaterial","pbrMetallicRoughness":{"baseColorFactor":[0.6000000238418579,0.6000000238418579,0.6000000238418579,1.0],"metallicFactor":0.0},"extensions":{"KHR_materials_specular":{"specularFactor":1.0,"specularColorFactor":[0.0,0.0,0.0]},"KHR_materials_ior":{"ior":1.0}}},{"name":"material_0_material","pbrMetallicRoughness":{"baseColorTexture":{"index":0},"metallicFactor":0.0},"extensions":{"KHR_materials_specular":{"specularFactor":1.0,"specularColorFactor":[0.0,0.0,0.0]},"KHR_materials_ior":{"ior":1.0}}},{"name":"material_1_material","pbrMetallicRoughness":{"baseColorTexture":{"index":1},"metallicFactor":0.0},"extensions":{"KHR_materials_specular":{"specularFactor":1.0,"specularColorFactor":[0.0,0.0,0.0]},"KHR_materials_ior":{"ior":1.0}}}],"meshes":[{"name":"defaultobject","primitives":[{"mode":4,"material":1,"indices":2,"attributes":{"POSITION":0,"TEXCOORD_0":1}},{"mode":4,"material":2,"indices":5,"attributes":{"POSITION":3,"TEXCOORD_0":4}}]}],"nodes":[{"name":"tile_0649.obj","children":[1]},{"name":"defaultobject","mesh":0}],"samplers":[{},{}],"scenes":[{"nodes":[0]}],"textures":[{"source":0,"sampler":0},{"source":1,"sampler":1}],"scene":0}
