{"asset":{"version":"2.0","generator":"Open Asset Import Library (assimp v6.0.0)"},"extensionsUsed":["KHR_materials_specular","KHR_materials_volume","KHR_materials_ior","FB_ngon_encoding"],"accessors":[{"bufferView":0,"byteOffset":0,"componentType":5126,"count":2325,"type":"VEC3","max":[-2.6373355388641357,-1.214203119277954,2.7764317989349365],"min":[-2.9813599586486816,-1.4371380805969238,2.2250738585072014e-308]},{"bufferView":1,"byteOffset":0,"componentType":5126,"count":2325,"type":"VEC2","max":[0.9786601066589355,0.6916275024414062],"min":[2.2250738585072014e-308,2.2250738585072014e-308]},{"bufferView":2,"byteOffset":0,"componentType":5125,"count":11226,"type":"SCALAR","max":[2324],"min":[0]},{"bufferView":3,"byteOffset":0,"componentType":5126,"count":1886,"type":"VEC3","max":[-2.6382603645324707,-1.213779091835022,2.7772586345672607],"min":[-2.979774236679077,-1.4373500347137451,2.2250738585072014e-308]},{"bufferView":4,"byteOffset":0,"componentType":5126,"count":1886,"type":"VEC2","max":[0.5226607322692871,0.6882572174072266],"min":[2.2250738585072014e-308,2.2250738585072014e-308]},{"bufferView":5,"byteOffset":0,"componentType":5125,"count":9774,"type":"SCALAR","max":[1885],"min":[0]}],"buffers":[{"byteLength":168220,"uri":"tile_0405.bin"}],"bufferViews":[{"buffer":0,"byteOffset":0,"byteLength":27900,"target":34962},{"buffer":0,"byteOffset":27900,"byteLength":18600,"target":34962},{"buffer":0,"byteOffset":46500,"byteLength":44904,"target":34963},{"buffer":0,"byteOffset":91404,"byteLength":22632,"target":34962},{"buffer":0,"byteOffset":114036,"byteLength":15088,"target":34962},{"buffer":0,"byteOffset":129124,"byteLength":39096,"target":34963}],"images":[{"uri":"../textures/tile_0405_material_0.jpg"},{"uri":"../textures/tile_0405_material_1.jpg"}],"materials":[{"name":"DefaultMaterial","pbrMetallicRoughness":{"baseColorFactor":[0.6000000238418579,0.6000000238418579,0.6000000238418579,1.0],"metallicFactor":0.0},"extensions":{"KHR_materials_specular":{"specularFactor":1.0,"specularColorFactor":[0.0,0.0,0.0]},"KHR_materials_ior":{"ior":1.0}}},{"name":"material_0_material","pbrMetallicRoughness":{"baseColorTexture":{"index":0},"metallicFactor":0.0},"extensions":{"KHR_materials_specular":{"specularFactor":1.0,"specularColorFactor":[0.0,0.0,0.0]},"KHR_materials_ior":{"ior":1.0}}},{"name":"material_1_material","pbrMetallicRoughness":{"baseColorTexture":{"index":1},"metallicFactor":0.0},"extensions":{"KHR_materials_specular":{"specularFactor":1.0,"specularColorFactor":[0.0,0.0,0.0]},"KHR_materials_ior":{"ior":1.0}}}],"meshes":[{"name":"defaultobject","primitives":[{"mode":4,"material":1,"indices":2,"attributes":{"POSITION":0,"TEXCOORD_0":1}},{"mode":4,"material":2,"indices":5,"attributes":{"POSITION":3,"TEXCOORD_0":4}}]}],"nodes":[{"name":"tile_0405.obj","children":[1]},{"name":"defaultobject","mesh":0}],"samplers":[{},{}],"scenes":[{"nodes":[0]}],"textures":[{"source":0,"sampler":0},{"source":1,"sampler":1}],"scene":0}
