{"asset":{"version":"2.0","generator":"Open Asset Import Library (assimp v6.0.0)"},"extensionsUsed":["KHR_materials_specular","KHR_materials_volume","KHR_materials_ior","FB_ngon_encoding"],"accessors":[{"bufferView":0,"byteOffset":0,"componentType":5126,"count":4086,"type":"VEC3","max":[1.3825979232788086,-4.8062520027160645,2.7715067863464355],"min":[2.2250738585072014e-308,-5.221510887145996,2.2250738585072014e-308]},{"bufferView":1,"byteOffset":0,"componentType":5126,"count":4086,"type":"VEC2","max":[0.9945323467254639,0.6396446228027344],"min":[2.2250738585072014e-308,2.2250738585072014e-308]},{"bufferView":2,"byteOffset":0,"componentType":5125,"count":18768,"type":"SCALAR","max":[4085],"min":[0]},{"bufferView":3,"byteOffset":0,"componentType":5126,"count":1045,"type":"VEC3","max":[1.3637460470199585,-4.806914329528809,2.7377851009368896],"min":[2.2250738585072014e-308,-5.22264289855957,2.2250738585072014e-308]},{"bufferView":4,"byteOffset":0,"componentType":5126,"count":1045,"type":"VEC2","max":[0.7850841283798218,0.6253013610839844],"min":[2.2250738585072014e-308,2.2250738585072014e-308]},{"bufferView":5,"byteOffset":0,"componentType":5125,"count":5358,"type":"SCALAR","max":[1044],"min":[0]}],"buffers":[{"byteLength":199124,"uri":"tile_0794.bin"}],"bufferViews":[{"buffer":0,"byteOffset":0,"byteLength":49032,"target":34962},{"buffer":0,"byteOffset":49032,"byteLength":32688,"target":34962},{"buffer":0,"byteOffset":81720,"byteLength":75072,"target":34963},{"buffer":0,"byteOffset":156792,"byteLength":12540,"target":34962},{"buffer":0,"byteOffset":169332,"byteLength":8360,"target":34962},{"buffer":0,"byteOffset":177692,"byteLength":21432,"target":34963}],"images":[{"uri":"../textures/tile_0794_material_0.jpg"},{"uri":"../textures/tile_0794_material_1.jpg"}],"materials":[{"name":"DefaultMaterial","pbrMetallicRoughness":{"baseColorFactor":[0.6000000238418579,0.6000000238418579,0.6000000238418579,1.0],"metallicFactor":0.0},"extensions":{"KHR_materials_specular":{"specularFactor":1.0,"specularColorFactor":[0.0,0.0,0.0]},"KHR_materials_ior":{"ior":1.0}}},{"name":"material_0_material","pbrMetallicRoughness":{"baseColorTexture":{"index":0},"metallicFactor":0.0},"extensions":{"KHR_materials_specular":{"specularFactor":1.0,"specularColorFactor":[0.0,0.0,0.0]},"KHR_materials_ior":{"ior":1.0}}},{"name":"material_1_material","pbrMetallicRoughness":{"baseColorTexture":{"index":1},"metallicFactor":0.0},"extensions":{"KHR_materials_specular":{"specularFactor":1.0,"specularColorFactor":[0.0,0.0,0.0]},"KHR_materials_ior":{"ior":1.0}}}],"meshes":[{"name":"defaultobject","primitives":[{"mode":4,"material":1,"indices":2,"attributes":{"POSITION":0,"TEXCOORD_0":1}},{"mode":4,"material":2,"indices":5,"attributes":{"POSITION":3,"TEXCOORD_0":4}}]}],"nodes":[{"name":"tile_0794.obj","children":[1]},{"name":"defaultobject","mesh":0}],"samplers":[{},{}],"scenes":[{"nodes":[0]}],"textures":[{"source":0,"sampler":0},{"source":1,"sampler":1}],"scene":0}
