{"asset":{"version":"2.0","generator":"Open Asset Import Library (assimp v6.0.0)"},"extensionsUsed":["KHR_materials_specular","KHR_materials_volume","KHR_materials_ior","FB_ngon_encoding"],"accessors":[{"bufferView":0,"byteOffset":0,"componentType":5126,"count":1410,"type":"VEC3","max":[-2.78859281539917,7.325379848480225,5.146327018737793],"min":[-3.1071715354919434,2.2250738585072014e-308,2.2250738585072014e-308]},{"bufferView":1,"byteOffset":0,"componentType":5126,"count":1410,"type":"VEC2","max":[0.9737911224365234,0.8194198608398438],"min":[2.2250738585072014e-308,2.2250738585072014e-308]},{"bufferView":2,"byteOffset":0,"componentType":5125,"count":6489,"type":"SCALAR","max":[1409],"min":[0]},{"bufferView":3,"byteOffset":0,"componentType":5126,"count":4684,"type":"VEC3","max":[-2.7580673694610596,7.357408046722412,5.149801254272461],"min":[-3.0998144149780273,2.2250738585072014e-308,2.2250738585072014e-308]},{"bufferView":4,"byteOffset":0,"componentType":5126,"count":4684,"type":"VEC2","max":[0.9644436836242676,0.6744728088378906],"min":[2.2250738585072014e-308,2.2250738585072014e-308]},{"bufferView":5,"byteOffset":0,"componentType":5125,"count":25254,"type":"SCALAR","max":[4683],"min":[0]}],"buffers":[{"byteLength":248852,"uri":"tile_0540.bin"}],"bufferViews":[{"buffer":0,"byteOffset":0,"byteLength":16920,"target":34962},{"buffer":0,"byteOffset":16920,"byteLength":11280,"target":34962},{"buffer":0,"byteOffset":28200,"byteLength":25956,"target":34963},{"buffer":0,"byteOffset":54156,"byteLength":56208,"target":34962},{"buffer":0,"byteOffset":110364,"byteLength":37472,"target":34962},{"buffer":0,"byteOffset":147836,"byteLength":101016,"target":34963}],"images":[{"uri":"../textures/tile_0540_material_0.jpg"},{"uri":"../textures/tile_0540_material_1.jpg"}],"materials":[{"name":"DefaultMaterial","pbrMetallicRoughness":{"baseColorFactor":[0.6000000238418579,0.6000000238418579,0.6000000238418579,1.0],"metallicFactor":0.0},"extensions":{"KHR_materials_specular":{"specularFactor":1.0,"specularColorFactor":[0.0,0.0,0.0]},"KHR_materials_ior":{"ior":1.0}}},{"name":"material_0_material","pbrMetallicRoughness":{"baseColorTexture":{"index":0},"metallicFactor":0.0},"extensions":{"KHR_materials_specular":{"specularFactor":1.0,"specularColorFactor":[0.0,0.0,0.0]},"KHR_materials_ior":{"ior":1.0}}},{"name":"material_1_material","pbrMetallicRoughness":{"baseColorTexture":{"index":1},"metallicFactor":0.0},"extensions":{"KHR_materials_specular":{"specularFactor":1.0,"specularColorFactor":[0.0,0.0,0.0]},"KHR_materials_ior":{"ior":1.0}}}],"meshes":[{"name":"defaultobject","primitives":[{"mode":4,"material":1,"indices":2,"attributes":{"POSITION":0,"TEXCOORD_0":1}},{"mode":4,"material":2,"indices":5,"attributes":{"POSITION":3,"TEXCOORD_0":4}}]}],"nodes":[{"name":"tile_0540.obj","children":[1]},{"name":"defaultobject","mesh":0}],"samplers":[{},{}],"scenes":[{"nodes":[0]}],"textures":[{"source":0,"sampler":0},{"source":1,"sampler":1}],"scene":0}
