{"asset":{"version":"2.0","generator":"Open Asset Import Library (assimp v6.0.0)"},"extensionsUsed":["KHR_materials_specular","KHR_materials_volume","KHR_materials_ior","FB_ngon_encoding"],"accessors":[{"bufferView":0,"byteOffset":0,"componentType":5126,"count":3199,"type":"VEC3","max":[-0.22098588943481445,-1.723116159439087,2.5748484134674072],"min":[-0.42503809928894043,-1.950363278388977,2.2250738585072014e-308]},{"bufferView":1,"byteOffset":0,"componentType":5126,"count":3199,"type":"VEC2","max":[0.9936375617980957,0.8274040222167969],"min":[2.2250738585072014e-308,2.2250738585072014e-308]},{"bufferView":2,"byteOffset":0,"componentType":5125,"count":14376,"type":"SCALAR","max":[3198],"min":[0]},{"bufferView":3,"byteOffset":0,"componentType":5126,"count":953,"type":"VEC3","max":[-0.22203077375888824,-1.7237001657485962,2.575451612472534],"min":[-0.4247918725013733,-1.9512909650802612,2.2250738585072014e-308]},{"bufferView":4,"byteOffset":0,"componentType":5126,"count":953,"type":"VEC2","max":[0.7610263824462891,0.5804634094238281],"min":[2.2250738585072014e-308,2.2250738585072014e-308]},{"bufferView":5,"byteOffset":0,"componentType":5125,"count":4551,"type":"SCALAR","max":[952],"min":[0]}],"buffers":[{"byteLength":158748,"uri":"tile_0362.bin"}],"bufferViews":[{"buffer":0,"byteOffset":0,"byteLength":38388,"target":34962},{"buffer":0,"byteOffset":38388,"byteLength":25592,"target":34962},{"buffer":0,"byteOffset":63980,"byteLength":57504,"target":34963},{"buffer":0,"byteOffset":121484,"byteLength":11436,"target":34962},{"buffer":0,"byteOffset":132920,"byteLength":7624,"target":34962},{"buffer":0,"byteOffset":140544,"byteLength":18204,"target":34963}],"images":[{"uri":"../textures/tile_0362_material_0.jpg"},{"uri":"../textures/tile_0362_material_1.jpg"}],"materials":[{"name":"DefaultMaterial","pbrMetallicRoughness":{"baseColorFactor":[0.6000000238418579,0.6000000238418579,0.6000000238418579,1.0],"metallicFactor":0.0},"extensions":{"KHR_materials_specular":{"specularFactor":1.0,"specularColorFactor":[0.0,0.0,0.0]},"KHR_materials_ior":{"ior":1.0}}},{"name":"material_0_material","pbrMetallicRoughness":{"baseColorTexture":{"index":0},"metallicFactor":0.0},"extensions":{"KHR_materials_specular":{"specularFactor":1.0,"specularColorFactor":[0.0,0.0,0.0]},"KHR_materials_ior":{"ior":1.0}}},{"name":"material_1_material","pbrMetallicRoughness":{"baseColorTexture":{"index":1},"metallicFactor":0.0},"extensions":{"KHR_materials_specular":{"specularFactor":1.0,"specularColorFactor":[0.0,0.0,0.0]},"KHR_materials_ior":{"ior":1.0}}}],"meshes":[{"name":"defaultobject","primitives":[{"mode":4,"material":1,"indices":2,"attributes":{"POSITION":0,"TEXCOORD_0":1}},{"mode":4,"material":2,"indices":5,"attributes":{"POSITION":3,"TEXCOORD_0":4}}]}],"nodes":[{"name":"tile_0362.obj","children":[1]},{"name":"defaultobject","mesh":0}],"samplers":[{},{}],"scenes":[{"nodes":[0]}],"textures":[{"source":0,"sampler":0},{"source":1,"sampler":1}],"scene":0}
