{"asset":{"version":"2.0","generator":"Open Asset Import Library (assimp v6.0.0)"},"extensionsUsed":["KHR_materials_specular","KHR_materials_volume","KHR_materials_ior","FB_ngon_encoding"],"accessors":[{"bufferView":0,"byteOffset":0,"componentType":5126,"count":4489,"type":"VEC3","max":[-3.4820144176483154,-0.2770920991897583,4.123485565185547],"min":[-4.007194995880127,-0.5323731303215027,2.2250738585072014e-308]},{"bufferView":1,"byteOffset":0,"componentType":5126,"count":4489,"type":"VEC2","max":[0.9925597906112671,0.9531173706054688],"min":[2.2250738585072014e-308,2.2250738585072014e-308]},{"bufferView":2,"byteOffset":0,"componentType":5125,"count":19071,"type":"SCALAR","max":[4488],"min":[0]},{"bufferView":3,"byteOffset":0,"componentType":5126,"count":429,"type":"VEC3","max":[-3.5298094749450684,-0.4344457685947418,4.091501235961914],"min":[-3.8222289085388184,-0.5318415760993958,2.2250738585072014e-308]},{"bufferView":4,"byteOffset":0,"componentType":5126,"count":429,"type":"VEC2","max":[0.7533950805664062,0.6225624084472656],"min":[2.2250738585072014e-308,2.2250738585072014e-308]},{"bufferView":5,"byteOffset":0,"componentType":5125,"count":2223,"type":"SCALAR","max":[428],"min":[0]}],"buffers":[{"byteLength":183536,"uri":"tile_0078.bin"}],"bufferViews":[{"buffer":0,"byteOffset":0,"byteLength":53868,"target":34962},{"buffer":0,"byteOffset":53868,"byteLength":35912,"target":34962},{"buffer":0,"byteOffset":89780,"byteLength":76284,"target":34963},{"buffer":0,"byteOffset":166064,"byteLength":5148,"target":34962},{"buffer":0,"byteOffset":171212,"byteLength":3432,"target":34962},{"buffer":0,"byteOffset":174644,"byteLength":8892,"target":34963}],"images":[{"uri":"../textures/tile_0078_material_0.jpg"},{"uri":"../textures/tile_0078_material_1.jpg"}],"materials":[{"name":"DefaultMaterial","pbrMetallicRoughness":{"baseColorFactor":[0.6000000238418579,0.6000000238418579,0.6000000238418579,1.0],"metallicFactor":0.0},"extensions":{"KHR_materials_specular":{"specularFactor":1.0,"specularColorFactor":[0.0,0.0,0.0]},"KHR_materials_ior":{"ior":1.0}}},{"name":"material_0_material","pbrMetallicRoughness":{"baseColorTexture":{"index":0},"metallicFactor":0.0},"extensions":{"KHR_materials_specular":{"specularFactor":1.0,"specularColorFactor":[0.0,0.0,0.0]},"KHR_materials_ior":{"ior":1.0}}},{"name":"material_1_material","pbrMetallicRoughness":{"baseColorTexture":{"index":1},"metallicFactor":0.0},"extensions":{"KHR_materials_specular":{"specularFactor":1.0,"specularColorFactor":[0.0,0.0,0.0]},"KHR_materials_ior":{"ior":1.0}}}],"meshes":[{"name":"defaultobject","primitives":[{"mode":4,"material":1,"indices":2,"attributes":{"POSITION":0,"TEXCOORD_0":1}},{"mode":4,"material":2,"indices":5,"attributes":{"POSITION":3,"TEXCOORD_0":4}}]}],"nodes":[{"name":"tile_0078.obj","children":[1]},{"name":"defaultobject","mesh":0}],"samplers":[{},{}],"scenes":[{"nodes":[0]}],"textures":[{"source":0,"sampler":0},{"source":1,"sampler":1}],"scene":0}
