{"asset":{"version":"2.0","generator":"Open Asset Import Library (assimp v6.0.0)"},"extensionsUsed":["KHR_materials_specular","KHR_materials_volume","KHR_materials_ior","FB_ngon_encoding"],"accessors":[{"bufferView":0,"byteOffset":0,"componentType":5126,"count":2054,"type":"VEC3","max":[4.327896595001221,5.732622146606445,4.805652141571045],"min":[2.2250738585072014e-308,2.2250738585072014e-308,2.2250738585072014e-308]},{"bufferView":1,"byteOffset":0,"componentType":5126,"count":2054,"type":"VEC2","max":[0.716796875,0.7087020874023438],"min":[2.2250738585072014e-308,2.2250738585072014e-308]},{"bufferView":2,"byteOffset":0,"componentType":5125,"count":10851,"type":"SCALAR","max":[2053],"min":[0]},{"bufferView":3,"byteOffset":0,"componentType":5126,"count":11259,"type":"VEC3","max":[4.499643325805664,5.794082164764404,4.809732437133789],"min":[2.2250738585072014e-308,2.2250738585072014e-308,2.2250738585072014e-308]},{"bufferView":4,"byteOffset":0,"componentType":5126,"count":11259,"type":"VEC2","max":[0.8840751647949219,0.6133499145507812],"min":[2.2250738585072014e-308,2.2250738585072014e-308]},{"bufferView":5,"byteOffset":0,"componentType":5125,"count":63666,"type":"SCALAR","max":[11258],"min":[0]}],"buffers":[{"byteLength":564328,"uri":"tile_0704.bin"}],"bufferViews":[{"buffer":0,"byteOffset":0,"byteLength":24648,"target":34962},{"buffer":0,"byteOffset":24648,"byteLength":16432,"target":34962},{"buffer":0,"byteOffset":41080,"byteLength":43404,"target":34963},{"buffer":0,"byteOffset":84484,"byteLength":135108,"target":34962},{"buffer":0,"byteOffset":219592,"byteLength":90072,"target":34962},{"buffer":0,"byteOffset":309664,"byteLength":254664,"target":34963}],"images":[{"uri":"../textures/tile_0704_material_0.jpg"},{"uri":"../textures/tile_0704_material_1.jpg"}],"materials":[{"name":"DefaultMaterial","pbrMetallicRoughness":{"baseColorFactor":[0.6000000238418579,0.6000000238418579,0.6000000238418579,1.0],"metallicFactor":0.0},"extensions":{"KHR_materials_specular":{"specularFactor":1.0,"specularColorFactor":[0.0,0.0,0.0]},"KHR_materials_ior":{"ior":1.0}}},{"name":"material_0_material","pbrMetallicRoughness":{"baseColorTexture":{"index":0},"metallicFactor":0.0},"extensions":{"KHR_materials_specular":{"specularFactor":1.0,"specularColorFactor":[0.0,0.0,0.0]},"KHR_materials_ior":{"ior":1.0}}},{"name":"material_1_material","pbrMetallicRoughness":{"baseColorTexture":{"index":1},"metallicFactor":0.0},"extensions":{"KHR_materials_specular":{"specularFactor":1.0,"specularColorFactor":[0.0,0.0,0.0]},"KHR_materials_ior":{"ior":1.0}}}],"meshes":[{"name":"defaultobject","primitives":[{"mode":4,"material":1,"indices":2,"attributes":{"POSITION":0,"TEXCOORD_0":1}},{"mode":4,"material":2,"indices":5,"attributes":{"POSITION":3,"TEXCOORD_0":4}}]}],"nodes":[{"name":"tile_0704.obj","children":[1]},{"name":"defaultobject","mesh":0}],"samplers":[{},{}],"scenes":[{"nodes":[0]}],"textures":[{"source":0,"sampler":0},{"source":1,"sampler":1}],"scene":0}
