{"asset":{"version":"2.0","generator":"Open Asset Import Library (assimp v6.0.0)"},"extensionsUsed":["KHR_materials_specular","KHR_materials_volume","KHR_materials_ior","FB_ngon_encoding"],"accessors":[{"bufferView":0,"byteOffset":0,"componentType":5126,"count":3352,"type":"VEC3","max":[4.911131381988525,0.28997448086738586,4.2122392654418945],"min":[2.2250738585072014e-308,-0.07947047054767609,2.2250738585072014e-308]},{"bufferView":1,"byteOffset":0,"componentType":5126,"count":3352,"type":"VEC2","max":[0.9954733848571777,0.8473930358886719],"min":[2.2250738585072014e-308,2.2250738585072014e-308]},{"bufferView":2,"byteOffset":0,"componentType":5125,"count":14235,"type":"SCALAR","max":[3351],"min":[0]},{"bufferView":3,"byteOffset":0,"componentType":5126,"count":1224,"type":"VEC3","max":[4.911206245422363,0.25339221954345703,4.204192638397217],"min":[2.2250738585072014e-308,-0.08025487512350082,2.2250738585072014e-308]},{"bufferView":4,"byteOffset":0,"componentType":5126,"count":1224,"type":"VEC2","max":[0.8773999214172363,0.8520355224609375],"min":[2.2250738585072014e-308,2.2250738585072014e-308]},{"bufferView":5,"byteOffset":0,"componentType":5125,"count":6060,"type":"SCALAR","max":[1223],"min":[0]}],"buffers":[{"byteLength":172700,"uri":"tile_0713.bin"}],"bufferViews":[{"buffer":0,"byteOffset":0,"byteLength":40224,"target":34962},{"buffer":0,"byteOffset":40224,"byteLength":26816,"target":34962},{"buffer":0,"byteOffset":67040,"byteLength":56940,"target":34963},{"buffer":0,"byteOffset":123980,"byteLength":14688,"target":34962},{"buffer":0,"byteOffset":138668,"byteLength":9792,"target":34962},{"buffer":0,"byteOffset":148460,"byteLength":24240,"target":34963}],"images":[{"uri":"../textures/tile_0713_material_0.jpg"},{"uri":"../textures/tile_0713_material_1.jpg"}],"materials":[{"name":"DefaultMaterial","pbrMetallicRoughness":{"baseColorFactor":[0.6000000238418579,0.6000000238418579,0.6000000238418579,1.0],"metallicFactor":0.0},"extensions":{"KHR_materials_specular":{"specularFactor":1.0,"specularColorFactor":[0.0,0.0,0.0]},"KHR_materials_ior":{"ior":1.0}}},{"name":"material_0_material","pbrMetallicRoughness":{"baseColorTexture":{"index":0},"metallicFactor":0.0},"extensions":{"KHR_materials_specular":{"specularFactor":1.0,"specularColorFactor":[0.0,0.0,0.0]},"KHR_materials_ior":{"ior":1.0}}},{"name":"material_1_material","pbrMetallicRoughness":{"baseColorTexture":{"index":1},"metallicFactor":0.0},"extensions":{"KHR_materials_specular":{"specularFactor":1.0,"specularColorFactor":[0.0,0.0,0.0]},"KHR_materials_ior":{"ior":1.0}}}],"meshes":[{"name":"defaultobject","primitives":[{"mode":4,"material":1,"indices":2,"attributes":{"POSITION":0,"TEXCOORD_0":1}},{"mode":4,"material":2,"indices":5,"attributes":{"POSITION":3,"TEXCOORD_0":4}}]}],"nodes":[{"name":"tile_0713.obj","children":[1]},{"name":"defaultobject","mesh":0}],"samplers":[{},{}],"scenes":[{"nodes":[0]}],"textures":[{"source":0,"sampler":0},{"source":1,"sampler":1}],"scene":0}
