{"asset":{"version":"2.0","generator":"Open Asset Import Library (assimp v6.0.0)"},"extensionsUsed":["KHR_materials_specular","KHR_materials_volume","KHR_materials_ior","FB_ngon_encoding"],"accessors":[{"bufferView":0,"byteOffset":0,"componentType":5126,"count":14274,"type":"VEC3","max":[-0.41862696409225464,-2.27581787109375,2.501901149749756],"min":[-0.7348219752311707,-2.7616798877716064,2.2250738585072014e-308]},{"bufferView":1,"byteOffset":0,"componentType":5126,"count":14274,"type":"VEC2","max":[0.9960389137268066,0.610992431640625],"min":[2.2250738585072014e-308,2.2250738585072014e-308]},{"bufferView":2,"byteOffset":0,"componentType":5125,"count":63276,"type":"SCALAR","max":[14273],"min":[0]},{"bufferView":3,"byteOffset":0,"componentType":5126,"count":559,"type":"VEC3","max":[-0.42006540298461914,-2.6339430809020996,2.346034049987793],"min":[-0.7334072589874268,-2.759701728820801,2.2250738585072014e-308]},{"bufferView":4,"byteOffset":0,"componentType":5126,"count":559,"type":"VEC2","max":[0.8897266387939453,0.8482780456542969],"min":[2.2250738585072014e-308,2.2250738585072014e-308]},{"bufferView":5,"byteOffset":0,"componentType":5125,"count":2526,"type":"SCALAR","max":[558],"min":[0]}],"buffers":[{"byteLength":559868,"uri":"tile_0019.bin"}],"bufferViews":[{"buffer":0,"byteOffset":0,"byteLength":171288,"target":34962},{"buffer":0,"byteOffset":171288,"byteLength":114192,"target":34962},{"buffer":0,"byteOffset":285480,"byteLength":253104,"target":34963},{"buffer":0,"byteOffset":538584,"byteLength":6708,"target":34962},{"buffer":0,"byteOffset":545292,"byteLength":4472,"target":34962},{"buffer":0,"byteOffset":549764,"byteLength":10104,"target":34963}],"images":[{"uri":"../textures/tile_0019_material_0.jpg"},{"uri":"../textures/tile_0019_material_1.jpg"}],"materials":[{"name":"DefaultMaterial","pbrMetallicRoughness":{"baseColorFactor":[0.6000000238418579,0.6000000238418579,0.6000000238418579,1.0],"metallicFactor":0.0},"extensions":{"KHR_materials_specular":{"specularFactor":1.0,"specularColorFactor":[0.0,0.0,0.0]},"KHR_materials_ior":{"ior":1.0}}},{"name":"material_0_material","pbrMetallicRoughness":{"baseColorTexture":{"index":0},"metallicFactor":0.0},"extensions":{"KHR_materials_specular":{"specularFactor":1.0,"specularColorFactor":[0.0,0.0,0.0]},"KHR_materials_ior":{"ior":1.0}}},{"name":"material_1_material","pbrMetallicRoughness":{"baseColorTexture":{"index":1},"metallicFactor":0.0},"extensions":{"KHR_materials_specular":{"specularFactor":1.0,"specularColorFactor":[0.0,0.0,0.0]},"KHR_materials_ior":{"ior":1.0}}}],"meshes":[{"name":"defaultobject","primitives":[{"mode":4,"material":1,"indices":2,"attributes":{"POSITION":0,"TEXCOORD_0":1}},{"mode":4,"material":2,"indices":5,"attributes":{"POSITION":3,"TEXCOORD_0":4}}]}],"nodes":[{"name":"tile_0019.obj","children":[1]},{"name":"defaultobject","mesh":0}],"samplers":[{},{}],"scenes":[{"nodes":[0]}],"textures":[{"source":0,"sampler":0},{"source":1,"sampler":1}],"scene":0}
