{"asset":{"version":"2.0","generator":"Open Asset Import Library (assimp v6.0.0)"},"extensionsUsed":["KHR_materials_specular","KHR_materials_volume","KHR_materials_ior","FB_ngon_encoding"],"accessors":[{"bufferView":0,"byteOffset":0,"componentType":5126,"count":4387,"type":"VEC3","max":[0.6990754008293152,-2.447150707244873,2.7175450325012207],"min":[2.2250738585072014e-308,-2.711700916290283,2.2250738585072014e-308]},{"bufferView":1,"byteOffset":0,"componentType":5126,"count":4387,"type":"VEC2","max":[0.9929037094116211,0.5031471252441406],"min":[2.2250738585072014e-308,2.2250738585072014e-308]},{"bufferView":2,"byteOffset":0,"componentType":5125,"count":18939,"type":"SCALAR","max":[4386],"min":[0]},{"bufferView":3,"byteOffset":0,"componentType":5126,"count":320,"type":"VEC3","max":[0.6974183320999146,-2.4479238986968994,2.6440746784210205],"min":[2.2250738585072014e-308,-2.5171945095062256,2.2250738585072014e-308]},{"bufferView":4,"byteOffset":0,"componentType":5126,"count":320,"type":"VEC2","max":[0.7320671081542969,0.4945335388183594],"min":[2.2250738585072014e-308,2.2250738585072014e-308]},{"bufferView":5,"byteOffset":0,"componentType":5125,"count":1578,"type":"SCALAR","max":[319],"min":[0]}],"buffers":[{"byteLength":176208,"uri":"tile_0813.bin"}],"bufferViews":[{"buffer":0,"byteOffset":0,"byteLength":52644,"target":34962},{"buffer":0,"byteOffset":52644,"byteLength":35096,"target":34962},{"buffer":0,"byteOffset":87740,"byteLength":75756,"target":34963},{"buffer":0,"byteOffset":163496,"byteLength":3840,"target":34962},{"buffer":0,"byteOffset":167336,"byteLength":2560,"target":34962},{"buffer":0,"byteOffset":169896,"byteLength":6312,"target":34963}],"images":[{"uri":"../textures/tile_0813_material_0.jpg"},{"uri":"../textures/tile_0813_material_1.jpg"}],"materials":[{"name":"DefaultMaterial","pbrMetallicRoughness":{"baseColorFactor":[0.6000000238418579,0.6000000238418579,0.6000000238418579,1.0],"metallicFactor":0.0},"extensions":{"KHR_materials_specular":{"specularFactor":1.0,"specularColorFactor":[0.0,0.0,0.0]},"KHR_materials_ior":{"ior":1.0}}},{"name":"material_0_material","pbrMetallicRoughness":{"baseColorTexture":{"index":0},"metallicFactor":0.0},"extensions":{"KHR_materials_specular":{"specularFactor":1.0,"specularColorFactor":[0.0,0.0,0.0]},"KHR_materials_ior":{"ior":1.0}}},{"name":"material_1_material","pbrMetallicRoughness":{"baseColorTexture":{"index":1},"metallicFactor":0.0},"extensions":{"KHR_materials_specular":{"specularFactor":1.0,"specularColorFactor":[0.0,0.0,0.0]},"KHR_materials_ior":{"ior":1.0}}}],"meshes":[{"name":"defaultobject","primitives":[{"mode":4,"material":1,"indices":2,"attributes":{"POSITION":0,"TEXCOORD_0":1}},{"mode":4,"material":2,"indices":5,"attributes":{"POSITION":3,"TEXCOORD_0":4}}]}],"nodes":[{"name":"tile_0813.obj","children":[1]},{"name":"defaultobject","mesh":0}],"samplers":[{},{}],"scenes":[{"nodes":[0]}],"textures":[{"source":0,"sampler":0},{"source":1,"sampler":1}],"scene":0}
