{"asset":{"version":"2.0","generator":"Open Asset Import Library (assimp v6.0.0)"},"extensionsUsed":["KHR_materials_specular","KHR_materials_volume","KHR_materials_ior","FB_ngon_encoding"],"accessors":[{"bufferView":0,"byteOffset":0,"componentType":5126,"count":6004,"type":"VEC3","max":[3.4114537239074707,-0.7634862661361694,4.07141637802124],"min":[2.2250738585072014e-308,-1.0205930471420288,2.2250738585072014e-308]},{"bufferView":1,"byteOffset":0,"componentType":5126,"count":6004,"type":"VEC2","max":[0.9955077171325684,0.6636238098144531],"min":[2.2250738585072014e-308,2.2250738585072014e-308]},{"bufferView":2,"byteOffset":0,"componentType":5125,"count":25917,"type":"SCALAR","max":[6003],"min":[0]},{"bufferView":3,"byteOffset":0,"componentType":5126,"count":517,"type":"VEC3","max":[3.375276803970337,-0.7734976410865784,3.7635881900787354],"min":[2.2250738585072014e-308,-1.007266879081726,2.2250738585072014e-308]},{"bufferView":4,"byteOffset":0,"componentType":5126,"count":517,"type":"VEC2","max":[0.7345647811889648,0.9284782409667969],"min":[2.2250738585072014e-308,2.2250738585072014e-308]},{"bufferView":5,"byteOffset":0,"componentType":5125,"count":2511,"type":"SCALAR","max":[516],"min":[0]}],"buffers":[{"byteLength":244132,"uri":"tile_0212.bin"}],"bufferViews":[{"buffer":0,"byteOffset":0,"byteLength":72048,"target":34962},{"buffer":0,"byteOffset":72048,"byteLength":48032,"target":34962},{"buffer":0,"byteOffset":120080,"byteLength":103668,"target":34963},{"buffer":0,"byteOffset":223748,"byteLength":6204,"target":34962},{"buffer":0,"byteOffset":229952,"byteLength":4136,"target":34962},{"buffer":0,"byteOffset":234088,"byteLength":10044,"target":34963}],"images":[{"uri":"../textures/tile_0212_material_0.jpg"},{"uri":"../textures/tile_0212_material_1.jpg"}],"materials":[{"name":"DefaultMaterial","pbrMetallicRoughness":{"baseColorFactor":[0.6000000238418579,0.6000000238418579,0.6000000238418579,1.0],"metallicFactor":0.0},"extensions":{"KHR_materials_specular":{"specularFactor":1.0,"specularColorFactor":[0.0,0.0,0.0]},"KHR_materials_ior":{"ior":1.0}}},{"name":"material_0_material","pbrMetallicRoughness":{"baseColorTexture":{"index":0},"metallicFactor":0.0},"extensions":{"KHR_materials_specular":{"specularFactor":1.0,"specularColorFactor":[0.0,0.0,0.0]},"KHR_materials_ior":{"ior":1.0}}},{"name":"material_1_material","pbrMetallicRoughness":{"baseColorTexture":{"index":1},"metallicFactor":0.0},"extensions":{"KHR_materials_specular":{"specularFactor":1.0,"specularColorFactor":[0.0,0.0,0.0]},"KHR_materials_ior":{"ior":1.0}}}],"meshes":[{"name":"defaultobject","primitives":[{"mode":4,"material":1,"indices":2,"attributes":{"POSITION":0,"TEXCOORD_0":1}},{"mode":4,"material":2,"indices":5,"attributes":{"POSITION":3,"TEXCOORD_0":4}}]}],"nodes":[{"name":"tile_0212.obj","children":[1]},{"name":"defaultobject","mesh":0}],"samplers":[{},{}],"scenes":[{"nodes":[0]}],"textures":[{"source":0,"sampler":0},{"source":1,"sampler":1}],"scene":0}
