{"asset":{"version":"2.0","generator":"Open Asset Import Library (assimp v6.0.0)"},"extensionsUsed":["KHR_materials_specular","KHR_materials_volume","KHR_materials_ior","FB_ngon_encoding"],"accessors":[{"bufferView":0,"byteOffset":0,"componentType":5126,"count":2214,"type":"VEC3","max":[-0.902030348777771,-0.7747348546981812,2.6049270629882812],"min":[-1.043049931526184,-0.9851003289222717,2.2250738585072014e-308]},{"bufferView":1,"byteOffset":0,"componentType":5126,"count":2214,"type":"VEC2","max":[0.995868444442749,0.4995307922363281],"min":[2.2250738585072014e-308,2.2250738585072014e-308]},{"bufferView":2,"byteOffset":0,"componentType":5125,"count":10398,"type":"SCALAR","max":[2213],"min":[0]},{"bufferView":3,"byteOffset":0,"componentType":5126,"count":1949,"type":"VEC3","max":[-0.9029119610786438,-0.7747348546981812,2.5869851112365723],"min":[-1.042907953262329,-0.9751116633415222,2.2250738585072014e-308]},{"bufferView":4,"byteOffset":0,"componentType":5126,"count":1949,"type":"VEC2","max":[0.8943195343017578,0.7405471801757812],"min":[2.2250738585072014e-308,2.2250738585072014e-308]},{"bufferView":5,"byteOffset":0,"componentType":5125,"count":10386,"type":"SCALAR","max":[1948],"min":[0]}],"buffers":[{"byteLength":166396,"uri":"tile_0335.bin"}],"bufferViews":[{"buffer":0,"byteOffset":0,"byteLength":26568,"target":34962},{"buffer":0,"byteOffset":26568,"byteLength":17712,"target":34962},{"buffer":0,"byteOffset":44280,"byteLength":41592,"target":34963},{"buffer":0,"byteOffset":85872,"byteLength":23388,"target":34962},{"buffer":0,"byteOffset":109260,"byteLength":15592,"target":34962},{"buffer":0,"byteOffset":124852,"byteLength":41544,"target":34963}],"images":[{"uri":"../textures/tile_0335_material_0.jpg"},{"uri":"../textures/tile_0335_material_1.jpg"}],"materials":[{"name":"DefaultMaterial","pbrMetallicRoughness":{"baseColorFactor":[0.6000000238418579,0.6000000238418579,0.6000000238418579,1.0],"metallicFactor":0.0},"extensions":{"KHR_materials_specular":{"specularFactor":1.0,"specularColorFactor":[0.0,0.0,0.0]},"KHR_materials_ior":{"ior":1.0}}},{"name":"material_0_material","pbrMetallicRoughness":{"baseColorTexture":{"index":0},"metallicFactor":0.0},"extensions":{"KHR_materials_specular":{"specularFactor":1.0,"specularColorFactor":[0.0,0.0,0.0]},"KHR_materials_ior":{"ior":1.0}}},{"name":"material_1_material","pbrMetallicRoughness":{"baseColorTexture":{"index":1},"metallicFactor":0.0},"extensions":{"KHR_materials_specular":{"specularFactor":1.0,"specularColorFactor":[0.0,0.0,0.0]},"KHR_materials_ior":{"ior":1.0}}}],"meshes":[{"name":"defaultobject","primitives":[{"mode":4,"material":1,"indices":2,"attributes":{"POSITION":0,"TEXCOORD_0":1}},{"mode":4,"material":2,"indices":5,"attributes":{"POSITION":3,"TEXCOORD_0":4}}]}],"nodes":[{"name":"tile_0335.obj","children":[1]},{"name":"defaultobject","mesh":0}],"samplers":[{},{}],"scenes":[{"nodes":[0]}],"textures":[{"source":0,"sampler":0},{"source":1,"sampler":1}],"scene":0}
