{"asset":{"version":"2.0","generator":"Open Asset Import Library (assimp v6.0.0)"},"extensionsUsed":["KHR_materials_specular","KHR_materials_volume","KHR_materials_ior","FB_ngon_encoding"],"accessors":[{"bufferView":0,"byteOffset":0,"componentType":5126,"count":4400,"type":"VEC3","max":[-0.4174550473690033,-4.833211898803711,2.4735727310180664],"min":[-0.6090060472488403,-5.220821857452393,2.2250738585072014e-308]},{"bufferView":1,"byteOffset":0,"componentType":5126,"count":4400,"type":"VEC2","max":[0.9917824268341064,0.5736560821533203],"min":[2.2250738585072014e-308,2.2250738585072014e-308]},{"bufferView":2,"byteOffset":0,"componentType":5125,"count":20151,"type":"SCALAR","max":[4399],"min":[0]},{"bufferView":3,"byteOffset":0,"componentType":5126,"count":64,"type":"VEC3","max":[-0.41990065574645996,-4.833159923553467,2.3593034744262695],"min":[-0.499144971370697,-4.867137908935547,2.2250738585072014e-308]},{"bufferView":4,"byteOffset":0,"componentType":5126,"count":64,"type":"VEC2","max":[0.6606292128562927,0.6937408447265625],"min":[2.2250738585072014e-308,2.2250738585072014e-308]},{"bufferView":5,"byteOffset":0,"componentType":5125,"count":252,"type":"SCALAR","max":[63],"min":[0]}],"buffers":[{"byteLength":170892,"uri":"tile_0031.bin"}],"bufferViews":[{"buffer":0,"byteOffset":0,"byteLength":52800,"target":34962},{"buffer":0,"byteOffset":52800,"byteLength":35200,"target":34962},{"buffer":0,"byteOffset":88000,"byteLength":80604,"target":34963},{"buffer":0,"byteOffset":168604,"byteLength":768,"target":34962},{"buffer":0,"byteOffset":169372,"byteLength":512,"target":34962},{"buffer":0,"byteOffset":169884,"byteLength":1008,"target":34963}],"images":[{"uri":"../textures/tile_0031_material_0.jpg"},{"uri":"../textures/tile_0031_material_1.jpg"}],"materials":[{"name":"DefaultMaterial","pbrMetallicRoughness":{"baseColorFactor":[0.6000000238418579,0.6000000238418579,0.6000000238418579,1.0],"metallicFactor":0.0},"extensions":{"KHR_materials_specular":{"specularFactor":1.0,"specularColorFactor":[0.0,0.0,0.0]},"KHR_materials_ior":{"ior":1.0}}},{"name":"material_0_material","pbrMetallicRoughness":{"baseColorTexture":{"index":0},"metallicFactor":0.0},"extensions":{"KHR_materials_specular":{"specularFactor":1.0,"specularColorFactor":[0.0,0.0,0.0]},"KHR_materials_ior":{"ior":1.0}}},{"name":"material_1_material","pbrMetallicRoughness":{"baseColorTexture":{"index":1},"metallicFactor":0.0},"extensions":{"KHR_materials_specular":{"specularFactor":1.0,"specularColorFactor":[0.0,0.0,0.0]},"KHR_materials_ior":{"ior":1.0}}}],"meshes":[{"name":"defaultobject","primitives":[{"mode":4,"material":1,"indices":2,"attributes":{"POSITION":0,"TEXCOORD_0":1}},{"mode":4,"material":2,"indices":5,"attributes":{"POSITION":3,"TEXCOORD_0":4}}]}],"nodes":[{"name":"tile_0031.obj","children":[1]},{"name":"defaultobject","mesh":0}],"samplers":[{},{}],"scenes":[{"nodes":[0]}],"textures":[{"source":0,"sampler":0},{"source":1,"sampler":1}],"scene":0}
