{"asset":{"version":"2.0","generator":"Open Asset Import Library (assimp v6.0.0)"},"extensionsUsed":["KHR_materials_specular","KHR_materials_volume","KHR_materials_ior","FB_ngon_encoding"],"accessors":[{"bufferView":0,"byteOffset":0,"componentType":5126,"count":5031,"type":"VEC3","max":[-1.9947781562805176,-4.058095932006836,2.4468421936035156],"min":[-2.1404268741607666,-4.484677791595459,2.2250738585072014e-308]},{"bufferView":1,"byteOffset":0,"componentType":5126,"count":5031,"type":"VEC2","max":[0.9882388114929199,0.6015472412109375],"min":[2.2250738585072014e-308,2.2250738585072014e-308]},{"bufferView":2,"byteOffset":0,"componentType":5125,"count":22899,"type":"SCALAR","max":[5030],"min":[0]},{"bufferView":3,"byteOffset":0,"componentType":5126,"count":115,"type":"VEC3","max":[-2.034942388534546,-4.060893535614014,2.3771934509277344],"min":[-2.139246940612793,-4.4845051765441895,2.2250738585072014e-308]},{"bufferView":4,"byteOffset":0,"componentType":5126,"count":115,"type":"VEC2","max":[0.7501411437988281,0.709152102470398],"min":[2.2250738585072014e-308,2.2250738585072014e-308]},{"bufferView":5,"byteOffset":0,"componentType":5125,"count":450,"type":"SCALAR","max":[114],"min":[0]}],"buffers":[{"byteLength":196316,"uri":"tile_0309.bin"}],"bufferViews":[{"buffer":0,"byteOffset":0,"byteLength":60372,"target":34962},{"buffer":0,"byteOffset":60372,"byteLength":40248,"target":34962},{"buffer":0,"byteOffset":100620,"byteLength":91596,"target":34963},{"buffer":0,"byteOffset":192216,"byteLength":1380,"target":34962},{"buffer":0,"byteOffset":193596,"byteLength":920,"target":34962},{"buffer":0,"byteOffset":194516,"byteLength":1800,"target":34963}],"images":[{"uri":"../textures/tile_0309_material_0.jpg"},{"uri":"../textures/tile_0309_material_1.jpg"}],"materials":[{"name":"DefaultMaterial","pbrMetallicRoughness":{"baseColorFactor":[0.6000000238418579,0.6000000238418579,0.6000000238418579,1.0],"metallicFactor":0.0},"extensions":{"KHR_materials_specular":{"specularFactor":1.0,"specularColorFactor":[0.0,0.0,0.0]},"KHR_materials_ior":{"ior":1.0}}},{"name":"material_0_material","pbrMetallicRoughness":{"baseColorTexture":{"index":0},"metallicFactor":0.0},"extensions":{"KHR_materials_specular":{"specularFactor":1.0,"specularColorFactor":[0.0,0.0,0.0]},"KHR_materials_ior":{"ior":1.0}}},{"name":"material_1_material","pbrMetallicRoughness":{"baseColorTexture":{"index":1},"metallicFactor":0.0},"extensions":{"KHR_materials_specular":{"specularFactor":1.0,"specularColorFactor":[0.0,0.0,0.0]},"KHR_materials_ior":{"ior":1.0}}}],"meshes":[{"name":"defaultobject","primitives":[{"mode":4,"material":1,"indices":2,"attributes":{"POSITION":0,"TEXCOORD_0":1}},{"mode":4,"material":2,"indices":5,"attributes":{"POSITION":3,"TEXCOORD_0":4}}]}],"nodes":[{"name":"tile_0309.obj","children":[1]},{"name":"defaultobject","mesh":0}],"samplers":[{},{}],"scenes":[{"nodes":[0]}],"textures":[{"source":0,"sampler":0},{"source":1,"sampler":1}],"scene":0}
