{"asset":{"version":"2.0","generator":"Open Asset Import Library (assimp v6.0.0)"},"extensionsUsed":["KHR_materials_specular","KHR_materials_volume","KHR_materials_ior","FB_ngon_encoding"],"accessors":[{"bufferView":0,"byteOffset":0,"componentType":5126,"count":4103,"type":"VEC3","max":[-0.7515465617179871,-3.547302722930908,2.370154619216919],"min":[-0.948811948299408,-3.9731900691986084,2.2250738585072014e-308]},{"bufferView":1,"byteOffset":0,"componentType":5126,"count":4103,"type":"VEC2","max":[0.9893496036529541,0.9324264526367188],"min":[2.2250738585072014e-308,2.2250738585072014e-308]},{"bufferView":2,"byteOffset":0,"componentType":5125,"count":18180,"type":"SCALAR","max":[4102],"min":[0]},{"bufferView":3,"byteOffset":0,"componentType":5126,"count":1262,"type":"VEC3","max":[-0.7524637579917908,-3.541555166244507,2.370635509490967],"min":[-0.9482772350311279,-3.9725823402404785,2.2250738585072014e-308]},{"bufferView":4,"byteOffset":0,"componentType":5126,"count":1262,"type":"VEC2","max":[0.49288082122802734,0.8440055847167969],"min":[2.2250738585072014e-308,2.2250738585072014e-308]},{"bufferView":5,"byteOffset":0,"componentType":5125,"count":6402,"type":"SCALAR","max":[1261],"min":[0]}],"buffers":[{"byteLength":205628,"uri":"tile_0028.bin"}],"bufferViews":[{"buffer":0,"byteOffset":0,"byteLength":49236,"target":34962},{"buffer":0,"byteOffset":49236,"byteLength":32824,"target":34962},{"buffer":0,"byteOffset":82060,"byteLength":72720,"target":34963},{"buffer":0,"byteOffset":154780,"byteLength":15144,"target":34962},{"buffer":0,"byteOffset":169924,"byteLength":10096,"target":34962},{"buffer":0,"byteOffset":180020,"byteLength":25608,"target":34963}],"images":[{"uri":"../textures/tile_0028_material_0.jpg"},{"uri":"../textures/tile_0028_material_1.jpg"}],"materials":[{"name":"DefaultMaterial","pbrMetallicRoughness":{"baseColorFactor":[0.6000000238418579,0.6000000238418579,0.6000000238418579,1.0],"metallicFactor":0.0},"extensions":{"KHR_materials_specular":{"specularFactor":1.0,"specularColorFactor":[0.0,0.0,0.0]},"KHR_materials_ior":{"ior":1.0}}},{"name":"material_0_material","pbrMetallicRoughness":{"baseColorTexture":{"index":0},"metallicFactor":0.0},"extensions":{"KHR_materials_specular":{"specularFactor":1.0,"specularColorFactor":[0.0,0.0,0.0]},"KHR_materials_ior":{"ior":1.0}}},{"name":"material_1_material","pbrMetallicRoughness":{"baseColorTexture":{"index":1},"metallicFactor":0.0},"extensions":{"KHR_materials_specular":{"specularFactor":1.0,"specularColorFactor":[0.0,0.0,0.0]},"KHR_materials_ior":{"ior":1.0}}}],"meshes":[{"name":"defaultobject","primitives":[{"mode":4,"material":1,"indices":2,"attributes":{"POSITION":0,"TEXCOORD_0":1}},{"mode":4,"material":2,"indices":5,"attributes":{"POSITION":3,"TEXCOORD_0":4}}]}],"nodes":[{"name":"tile_0028.obj","children":[1]},{"name":"defaultobject","mesh":0}],"samplers":[{},{}],"scenes":[{"nodes":[0]}],"textures":[{"source":0,"sampler":0},{"source":1,"sampler":1}],"scene":0}
