{"asset":{"version":"2.0","generator":"Open Asset Import Library (assimp v6.0.0)"},"extensionsUsed":["KHR_materials_specular","KHR_materials_volume","KHR_materials_ior","FB_ngon_encoding"],"accessors":[{"bufferView":0,"byteOffset":0,"componentType":5126,"count":4818,"type":"VEC3","max":[-1.7662867307662964,-1.650574803352356,2.480587959289551],"min":[-2.058640241622925,-1.9156577587127686,2.2250738585072014e-308]},{"bufferView":1,"byteOffset":0,"componentType":5126,"count":4818,"type":"VEC2","max":[0.9845547676086426,0.5600433349609375],"min":[2.2250738585072014e-308,2.2250738585072014e-308]},{"bufferView":2,"byteOffset":0,"componentType":5125,"count":23895,"type":"SCALAR","max":[4817],"min":[0]},{"bufferView":3,"byteOffset":0,"componentType":5126,"count":395,"type":"VEC3","max":[-1.8378474712371826,-1.6501939296722412,2.4805750846862793],"min":[-2.058276653289795,-1.7657809257507324,2.2250738585072014e-308]},{"bufferView":4,"byteOffset":0,"componentType":5126,"count":395,"type":"VEC2","max":[0.6594161987304688,0.5679244995117188],"min":[2.2250738585072014e-308,2.2250738585072014e-308]},{"bufferView":5,"byteOffset":0,"componentType":5125,"count":1941,"type":"SCALAR","max":[394],"min":[0]}],"buffers":[{"byteLength":207604,"uri":"tile_0010.bin"}],"bufferViews":[{"buffer":0,"byteOffset":0,"byteLength":57816,"target":34962},{"buffer":0,"byteOffset":57816,"byteLength":38544,"target":34962},{"buffer":0,"byteOffset":96360,"byteLength":95580,"target":34963},{"buffer":0,"byteOffset":191940,"byteLength":4740,"target":34962},{"buffer":0,"byteOffset":196680,"byteLength":3160,"target":34962},{"buffer":0,"byteOffset":199840,"byteLength":7764,"target":34963}],"images":[{"uri":"../textures/tile_0010_material_0.jpg"},{"uri":"../textures/tile_0010_material_1.jpg"}],"materials":[{"name":"DefaultMaterial","pbrMetallicRoughness":{"baseColorFactor":[0.6000000238418579,0.6000000238418579,0.6000000238418579,1.0],"metallicFactor":0.0},"extensions":{"KHR_materials_specular":{"specularFactor":1.0,"specularColorFactor":[0.0,0.0,0.0]},"KHR_materials_ior":{"ior":1.0}}},{"name":"material_0_material","pbrMetallicRoughness":{"baseColorTexture":{"index":0},"metallicFactor":0.0},"extensions":{"KHR_materials_specular":{"specularFactor":1.0,"specularColorFactor":[0.0,0.0,0.0]},"KHR_materials_ior":{"ior":1.0}}},{"name":"material_1_material","pbrMetallicRoughness":{"baseColorTexture":{"index":1},"metallicFactor":0.0},"extensions":{"KHR_materials_specular":{"specularFactor":1.0,"specularColorFactor":[0.0,0.0,0.0]},"KHR_materials_ior":{"ior":1.0}}}],"meshes":[{"name":"defaultobject","primitives":[{"mode":4,"material":1,"indices":2,"attributes":{"POSITION":0,"TEXCOORD_0":1}},{"mode":4,"material":2,"indices":5,"attributes":{"POSITION":3,"TEXCOORD_0":4}}]}],"nodes":[{"name":"tile_0010.obj","children":[1]},{"name":"defaultobject","mesh":0}],"samplers":[{},{}],"scenes":[{"nodes":[0]}],"textures":[{"source":0,"sampler":0},{"source":1,"sampler":1}],"scene":0}
