{"asset":{"version":"2.0","generator":"Open Asset Import Library (assimp v6.0.0)"},"extensionsUsed":["KHR_materials_specular","KHR_materials_volume","KHR_materials_ior","FB_ngon_encoding"],"accessors":[{"bufferView":0,"byteOffset":0,"componentType":5126,"count":1252,"type":"VEC3","max":[-4.286925315856934,6.385347366333008,5.213534832000732],"min":[-4.7264323234558105,2.2250738585072014e-308,2.2250738585072014e-308]},{"bufferView":1,"byteOffset":0,"componentType":5126,"count":1252,"type":"VEC2","max":[0.9918441772460938,0.7257041931152344],"min":[2.2250738585072014e-308,2.2250738585072014e-308]},{"bufferView":2,"byteOffset":0,"componentType":5125,"count":5181,"type":"SCALAR","max":[1251],"min":[0]},{"bufferView":3,"byteOffset":0,"componentType":5126,"count":5552,"type":"VEC3","max":[-4.27802848815918,6.31899356842041,5.150114059448242],"min":[-4.758939266204834,2.2250738585072014e-308,2.2250738585072014e-308]},{"bufferView":4,"byteOffset":0,"componentType":5126,"count":5552,"type":"VEC2","max":[0.9459250569343567,0.7528762817382812],"min":[2.2250738585072014e-308,2.2250738585072014e-308]},{"bufferView":5,"byteOffset":0,"componentType":5125,"count":30771,"type":"SCALAR","max":[5551],"min":[0]}],"buffers":[{"byteLength":279888,"uri":"tile_0103.bin"}],"bufferViews":[{"buffer":0,"byteOffset":0,"byteLength":15024,"target":34962},{"buffer":0,"byteOffset":15024,"byteLength":10016,"target":34962},{"buffer":0,"byteOffset":25040,"byteLength":20724,"target":34963},{"buffer":0,"byteOffset":45764,"byteLength":66624,"target":34962},{"buffer":0,"byteOffset":112388,"byteLength":44416,"target":34962},{"buffer":0,"byteOffset":156804,"byteLength":123084,"target":34963}],"images":[{"uri":"../textures/tile_0103_material_0.jpg"},{"uri":"../textures/tile_0103_material_1.jpg"}],"materials":[{"name":"DefaultMaterial","pbrMetallicRoughness":{"baseColorFactor":[0.6000000238418579,0.6000000238418579,0.6000000238418579,1.0],"metallicFactor":0.0},"extensions":{"KHR_materials_specular":{"specularFactor":1.0,"specularColorFactor":[0.0,0.0,0.0]},"KHR_materials_ior":{"ior":1.0}}},{"name":"material_0_material","pbrMetallicRoughness":{"baseColorTexture":{"index":0},"metallicFactor":0.0},"extensions":{"KHR_materials_specular":{"specularFactor":1.0,"specularColorFactor":[0.0,0.0,0.0]},"KHR_materials_ior":{"ior":1.0}}},{"name":"material_1_material","pbrMetallicRoughness":{"baseColorTexture":{"index":1},"metallicFactor":0.0},"extensions":{"KHR_materials_specular":{"specularFactor":1.0,"specularColorFactor":[0.0,0.0,0.0]},"KHR_materials_ior":{"ior":1.0}}}],"meshes":[{"name":"defaultobject","primitives":[{"mode":4,"material":1,"indices":2,"attributes":{"POSITION":0,"TEXCOORD_0":1}},{"mode":4,"material":2,"indices":5,"attributes":{"POSITION":3,"TEXCOORD_0":4}}]}],"nodes":[{"name":"tile_0103.obj","children":[1]},{"name":"defaultobject","mesh":0}],"samplers":[{},{}],"scenes":[{"nodes":[0]}],"textures":[{"source":0,"sampler":0},{"source":1,"sampler":1}],"scene":0}
