{"asset":{"version":"2.0","generator":"Open Asset Import Library (assimp v6.0.0)"},"extensionsUsed":["KHR_materials_specular","KHR_materials_volume","KHR_materials_ior","FB_ngon_encoding"],"accessors":[{"bufferView":0,"byteOffset":0,"componentType":5126,"count":768,"type":"VEC3","max":[2.8912723064422607,4.280466079711914,4.554716110229492],"min":[2.2250738585072014e-308,2.2250738585072014e-308,2.2250738585072014e-308]},{"bufferView":1,"byteOffset":0,"componentType":5126,"count":768,"type":"VEC2","max":[0.6997153759002686,0.6113204956054688],"min":[2.2250738585072014e-308,2.2250738585072014e-308]},{"bufferView":2,"byteOffset":0,"componentType":5125,"count":3387,"type":"SCALAR","max":[767],"min":[0]},{"bufferView":3,"byteOffset":0,"componentType":5126,"count":2301,"type":"VEC3","max":[2.9062955379486084,4.283448219299316,4.559613227844238],"min":[2.2250738585072014e-308,2.2250738585072014e-308,2.2250738585072014e-308]},{"bufferView":4,"byteOffset":0,"componentType":5126,"count":2301,"type":"VEC2","max":[0.9845547676086426,0.8816337585449219],"min":[2.2250738585072014e-308,2.2250738585072014e-308]},{"bufferView":5,"byteOffset":0,"componentType":5125,"count":11718,"type":"SCALAR","max":[2300],"min":[0]}],"buffers":[{"byteLength":121800,"uri":"tile_0706.bin"}],"bufferViews":[{"buffer":0,"byteOffset":0,"byteLength":9216,"target":34962},{"buffer":0,"byteOffset":9216,"byteLength":6144,"target":34962},{"buffer":0,"byteOffset":15360,"byteLength":13548,"target":34963},{"buffer":0,"byteOffset":28908,"byteLength":27612,"target":34962},{"buffer":0,"byteOffset":56520,"byteLength":18408,"target":34962},{"buffer":0,"byteOffset":74928,"byteLength":46872,"target":34963}],"images":[{"uri":"../textures/tile_0706_material_0.jpg"},{"uri":"../textures/tile_0706_material_1.jpg"}],"materials":[{"name":"DefaultMaterial","pbrMetallicRoughness":{"baseColorFactor":[0.6000000238418579,0.6000000238418579,0.6000000238418579,1.0],"metallicFactor":0.0},"extensions":{"KHR_materials_specular":{"specularFactor":1.0,"specularColorFactor":[0.0,0.0,0.0]},"KHR_materials_ior":{"ior":1.0}}},{"name":"material_0_material","pbrMetallicRoughness":{"baseColorTexture":{"index":0},"metallicFactor":0.0},"extensions":{"KHR_materials_specular":{"specularFactor":1.0,"specularColorFactor":[0.0,0.0,0.0]},"KHR_materials_ior":{"ior":1.0}}},{"name":"material_1_material","pbrMetallicRoughness":{"baseColorTexture":{"index":1},"metallicFactor":0.0},"extensions":{"KHR_materials_specular":{"specularFactor":1.0,"specularColorFactor":[0.0,0.0,0.0]},"KHR_materials_ior":{"ior":1.0}}}],"meshes":[{"name":"defaultobject","primitives":[{"mode":4,"material":1,"indices":2,"attributes":{"POSITION":0,"TEXCOORD_0":1}},{"mode":4,"material":2,"indices":5,"attributes":{"POSITION":3,"TEXCOORD_0":4}}]}],"nodes":[{"name":"tile_0706.obj","children":[1]},{"name":"defaultobject","mesh":0}],"samplers":[{},{}],"scenes":[{"nodes":[0]}],"textures":[{"source":0,"sampler":0},{"source":1,"sampler":1}],"scene":0}
