{"asset":{"version":"2.0","generator":"Open Asset Import Library (assimp v6.0.0)"},"extensionsUsed":["KHR_materials_specular","KHR_materials_volume","KHR_materials_ior","FB_ngon_encoding"],"accessors":[{"bufferView":0,"byteOffset":0,"componentType":5126,"count":3953,"type":"VEC3","max":[-2.7975094318389893,2.7595505714416504,4.568485736846924],"min":[-3.145460367202759,2.2250738585072014e-308,2.2250738585072014e-308]},{"bufferView":1,"byteOffset":0,"componentType":5126,"count":3953,"type":"VEC2","max":[0.9911494255065918,0.5271930694580078],"min":[2.2250738585072014e-308,2.2250738585072014e-308]},{"bufferView":2,"byteOffset":0,"componentType":5125,"count":16488,"type":"SCALAR","max":[3952],"min":[0]},{"bufferView":3,"byteOffset":0,"componentType":5126,"count":1309,"type":"VEC3","max":[-2.8598570823669434,2.7347049713134766,4.561870098114014],"min":[-3.1426196098327637,2.2250738585072014e-308,2.2250738585072014e-308]},{"bufferView":4,"byteOffset":0,"componentType":5126,"count":1309,"type":"VEC2","max":[0.9712638854980469,0.5447826385498047],"min":[2.2250738585072014e-308,2.2250738585072014e-308]},{"bufferView":5,"byteOffset":0,"componentType":5125,"count":6783,"type":"SCALAR","max":[1308],"min":[0]}],"buffers":[{"byteLength":198324,"uri":"tile_0495.bin"}],"bufferViews":[{"buffer":0,"byteOffset":0,"byteLength":47436,"target":34962},{"buffer":0,"byteOffset":47436,"byteLength":31624,"target":34962},{"buffer":0,"byteOffset":79060,"byteLength":65952,"target":34963},{"buffer":0,"byteOffset":145012,"byteLength":15708,"target":34962},{"buffer":0,"byteOffset":160720,"byteLength":10472,"target":34962},{"buffer":0,"byteOffset":171192,"byteLength":27132,"target":34963}],"images":[{"uri":"../textures/tile_0495_material_0.jpg"},{"uri":"../textures/tile_0495_material_1.jpg"}],"materials":[{"name":"DefaultMaterial","pbrMetallicRoughness":{"baseColorFactor":[0.6000000238418579,0.6000000238418579,0.6000000238418579,1.0],"metallicFactor":0.0},"extensions":{"KHR_materials_specular":{"specularFactor":1.0,"specularColorFactor":[0.0,0.0,0.0]},"KHR_materials_ior":{"ior":1.0}}},{"name":"material_0_material","pbrMetallicRoughness":{"baseColorTexture":{"index":0},"metallicFactor":0.0},"extensions":{"KHR_materials_specular":{"specularFactor":1.0,"specularColorFactor":[0.0,0.0,0.0]},"KHR_materials_ior":{"ior":1.0}}},{"name":"material_1_material","pbrMetallicRoughness":{"baseColorTexture":{"index":1},"metallicFactor":0.0},"extensions":{"KHR_materials_specular":{"specularFactor":1.0,"specularColorFactor":[0.0,0.0,0.0]},"KHR_materials_ior":{"ior":1.0}}}],"meshes":[{"name":"defaultobject","primitives":[{"mode":4,"material":1,"indices":2,"attributes":{"POSITION":0,"TEXCOORD_0":1}},{"mode":4,"material":2,"indices":5,"attributes":{"POSITION":3,"TEXCOORD_0":4}}]}],"nodes":[{"name":"tile_0495.obj","children":[1]},{"name":"defaultobject","mesh":0}],"samplers":[{},{}],"scenes":[{"nodes":[0]}],"textures":[{"source":0,"sampler":0},{"source":1,"sampler":1}],"scene":0}
