{"asset":{"version":"2.0","generator":"Open Asset Import Library (assimp v6.0.0)"},"extensionsUsed":["KHR_materials_specular","KHR_materials_volume","KHR_materials_ior","FB_ngon_encoding"],"accessors":[{"bufferView":0,"byteOffset":0,"componentType":5126,"count":6382,"type":"VEC3","max":[-4.286772727966309,3.2220823764801025,4.829684734344482],"min":[-4.86100959777832,2.2250738585072014e-308,2.2250738585072014e-308]},{"bufferView":1,"byteOffset":0,"componentType":5126,"count":6382,"type":"VEC2","max":[0.9921698570251465,0.7614707946777344],"min":[2.2250738585072014e-308,2.2250738585072014e-308]},{"bufferView":2,"byteOffset":0,"componentType":5125,"count":29160,"type":"SCALAR","max":[6381],"min":[0]},{"bufferView":3,"byteOffset":0,"componentType":5126,"count":503,"type":"VEC3","max":[-4.288326740264893,3.213344097137451,4.836728572845459],"min":[-4.847764015197754,2.2250738585072014e-308,2.2250738585072014e-308]},{"bufferView":4,"byteOffset":0,"componentType":5126,"count":503,"type":"VEC2","max":[0.9613037109375,0.6435165405273438],"min":[2.2250738585072014e-308,2.2250738585072014e-308]},{"bufferView":5,"byteOffset":0,"componentType":5125,"count":2367,"type":"SCALAR","max":[502],"min":[0]}],"buffers":[{"byteLength":263808,"uri":"tile_0488.bin"}],"bufferViews":[{"buffer":0,"byteOffset":0,"byteLength":76584,"target":34962},{"buffer":0,"byteOffset":76584,"byteLength":51056,"target":34962},{"buffer":0,"byteOffset":127640,"byteLength":116640,"target":34963},{"buffer":0,"byteOffset":244280,"byteLength":6036,"target":34962},{"buffer":0,"byteOffset":250316,"byteLength":4024,"target":34962},{"buffer":0,"byteOffset":254340,"byteLength":9468,"target":34963}],"images":[{"uri":"../textures/tile_0488_material_0.jpg"},{"uri":"../textures/tile_0488_material_1.jpg"}],"materials":[{"name":"DefaultMaterial","pbrMetallicRoughness":{"baseColorFactor":[0.6000000238418579,0.6000000238418579,0.6000000238418579,1.0],"metallicFactor":0.0},"extensions":{"KHR_materials_specular":{"specularFactor":1.0,"specularColorFactor":[0.0,0.0,0.0]},"KHR_materials_ior":{"ior":1.0}}},{"name":"material_0_material","pbrMetallicRoughness":{"baseColorTexture":{"index":0},"metallicFactor":0.0},"extensions":{"KHR_materials_specular":{"specularFactor":1.0,"specularColorFactor":[0.0,0.0,0.0]},"KHR_materials_ior":{"ior":1.0}}},{"name":"material_1_material","pbrMetallicRoughness":{"baseColorTexture":{"index":1},"metallicFactor":0.0},"extensions":{"KHR_materials_specular":{"specularFactor":1.0,"specularColorFactor":[0.0,0.0,0.0]},"KHR_materials_ior":{"ior":1.0}}}],"meshes":[{"name":"defaultobject","primitives":[{"mode":4,"material":1,"indices":2,"attributes":{"POSITION":0,"TEXCOORD_0":1}},{"mode":4,"material":2,"indices":5,"attributes":{"POSITION":3,"TEXCOORD_0":4}}]}],"nodes":[{"name":"tile_0488.obj","children":[1]},{"name":"defaultobject","mesh":0}],"samplers":[{},{}],"scenes":[{"nodes":[0]}],"textures":[{"source":0,"sampler":0},{"source":1,"sampler":1}],"scene":0}
