{"asset":{"version":"2.0","generator":"Open Asset Import Library (assimp v6.0.0)"},"extensionsUsed":["KHR_materials_specular","KHR_materials_volume","KHR_materials_ior","FB_ngon_encoding"],"accessors":[{"bufferView":0,"byteOffset":0,"componentType":5126,"count":4971,"type":"VEC3","max":[-3.498011589050293,2.7517316341400146,4.511577606201172],"min":[-3.8887600898742676,2.2250738585072014e-308,2.2250738585072014e-308]},{"bufferView":1,"byteOffset":0,"componentType":5126,"count":4971,"type":"VEC2","max":[0.995203971862793,0.6523036956787109],"min":[2.2250738585072014e-308,2.2250738585072014e-308]},{"bufferView":2,"byteOffset":0,"componentType":5125,"count":22344,"type":"SCALAR","max":[4970],"min":[0]},{"bufferView":3,"byteOffset":0,"componentType":5126,"count":854,"type":"VEC3","max":[-3.62095046043396,2.7505266666412354,4.503906726837158],"min":[-3.888199806213379,2.2250738585072014e-308,2.2250738585072014e-308]},{"bufferView":4,"byteOffset":0,"componentType":5126,"count":854,"type":"VEC2","max":[0.630152702331543,0.700469970703125],"min":[2.2250738585072014e-308,2.2250738585072014e-308]},{"bufferView":5,"byteOffset":0,"componentType":5125,"count":4092,"type":"SCALAR","max":[853],"min":[0]}],"buffers":[{"byteLength":222244,"uri":"tile_0118.bin"}],"bufferViews":[{"buffer":0,"byteOffset":0,"byteLength":59652,"target":34962},{"buffer":0,"byteOffset":59652,"byteLength":39768,"target":34962},{"buffer":0,"byteOffset":99420,"byteLength":89376,"target":34963},{"buffer":0,"byteOffset":188796,"byteLength":10248,"target":34962},{"buffer":0,"byteOffset":199044,"byteLength":6832,"target":34962},{"buffer":0,"byteOffset":205876,"byteLength":16368,"target":34963}],"images":[{"uri":"../textures/tile_0118_material_0.jpg"},{"uri":"../textures/tile_0118_material_1.jpg"}],"materials":[{"name":"DefaultMaterial","pbrMetallicRoughness":{"baseColorFactor":[0.6000000238418579,0.6000000238418579,0.6000000238418579,1.0],"metallicFactor":0.0},"extensions":{"KHR_materials_specular":{"specularFactor":1.0,"specularColorFactor":[0.0,0.0,0.0]},"KHR_materials_ior":{"ior":1.0}}},{"name":"material_0_material","pbrMetallicRoughness":{"baseColorTexture":{"index":0},"metallicFactor":0.0},"extensions":{"KHR_materials_specular":{"specularFactor":1.0,"specularColorFactor":[0.0,0.0,0.0]},"KHR_materials_ior":{"ior":1.0}}},{"name":"material_1_material","pbrMetallicRoughness":{"baseColorTexture":{"index":1},"metallicFactor":0.0},"extensions":{"KHR_materials_specular":{"specularFactor":1.0,"specularColorFactor":[0.0,0.0,0.0]},"KHR_materials_ior":{"ior":1.0}}}],"meshes":[{"name":"defaultobject","primitives":[{"mode":4,"material":1,"indices":2,"attributes":{"POSITION":0,"TEXCOORD_0":1}},{"mode":4,"material":2,"indices":5,"attributes":{"POSITION":3,"TEXCOORD_0":4}}]}],"nodes":[{"name":"tile_0118.obj","children":[1]},{"name":"defaultobject","mesh":0}],"samplers":[{},{}],"scenes":[{"nodes":[0]}],"textures":[{"source":0,"sampler":0},{"source":1,"sampler":1}],"scene":0}
