{"asset":{"version":"2.0","generator":"Open Asset Import Library (assimp v6.0.0)"},"extensionsUsed":["KHR_materials_specular","KHR_materials_volume","KHR_materials_ior","FB_ngon_encoding"],"accessors":[{"bufferView":0,"byteOffset":0,"componentType":5126,"count":3774,"type":"VEC3","max":[-2.435682535171509,0.3263433575630188,4.186253070831299],"min":[-2.80566668510437,-0.039454136043787,2.2250738585072014e-308]},{"bufferView":1,"byteOffset":0,"componentType":5126,"count":3774,"type":"VEC2","max":[0.9901740550994873,0.5077762603759766],"min":[2.2250738585072014e-308,2.2250738585072014e-308]},{"bufferView":2,"byteOffset":0,"componentType":5125,"count":17799,"type":"SCALAR","max":[3773],"min":[0]},{"bufferView":3,"byteOffset":0,"componentType":5126,"count":1058,"type":"VEC3","max":[-2.4370179176330566,0.3271564543247223,4.185244083404541],"min":[-2.80672287940979,-0.03900438919663429,2.2250738585072014e-308]},{"bufferView":4,"byteOffset":0,"componentType":5126,"count":1058,"type":"VEC2","max":[0.8729689121246338,0.651275634765625],"min":[2.2250738585072014e-308,2.2250738585072014e-308]},{"bufferView":5,"byteOffset":0,"componentType":5125,"count":5049,"type":"SCALAR","max":[1057],"min":[0]}],"buffers":[{"byteLength":188032,"uri":"tile_0142.bin"}],"bufferViews":[{"buffer":0,"byteOffset":0,"byteLength":45288,"target":34962},{"buffer":0,"byteOffset":45288,"byteLength":30192,"target":34962},{"buffer":0,"byteOffset":75480,"byteLength":71196,"target":34963},{"buffer":0,"byteOffset":146676,"byteLength":12696,"target":34962},{"buffer":0,"byteOffset":159372,"byteLength":8464,"target":34962},{"buffer":0,"byteOffset":167836,"byteLength":20196,"target":34963}],"images":[{"uri":"../textures/tile_0142_material_0.jpg"},{"uri":"../textures/tile_0142_material_1.jpg"}],"materials":[{"name":"DefaultMaterial","pbrMetallicRoughness":{"baseColorFactor":[0.6000000238418579,0.6000000238418579,0.6000000238418579,1.0],"metallicFactor":0.0},"extensions":{"KHR_materials_specular":{"specularFactor":1.0,"specularColorFactor":[0.0,0.0,0.0]},"KHR_materials_ior":{"ior":1.0}}},{"name":"material_0_material","pbrMetallicRoughness":{"baseColorTexture":{"index":0},"metallicFactor":0.0},"extensions":{"KHR_materials_specular":{"specularFactor":1.0,"specularColorFactor":[0.0,0.0,0.0]},"KHR_materials_ior":{"ior":1.0}}},{"name":"material_1_material","pbrMetallicRoughness":{"baseColorTexture":{"index":1},"metallicFactor":0.0},"extensions":{"KHR_materials_specular":{"specularFactor":1.0,"specularColorFactor":[0.0,0.0,0.0]},"KHR_materials_ior":{"ior":1.0}}}],"meshes":[{"name":"defaultobject","primitives":[{"mode":4,"material":1,"indices":2,"attributes":{"POSITION":0,"TEXCOORD_0":1}},{"mode":4,"material":2,"indices":5,"attributes":{"POSITION":3,"TEXCOORD_0":4}}]}],"nodes":[{"name":"tile_0142.obj","children":[1]},{"name":"defaultobject","mesh":0}],"samplers":[{},{}],"scenes":[{"nodes":[0]}],"textures":[{"source":0,"sampler":0},{"source":1,"sampler":1}],"scene":0}
