{"asset":{"version":"2.0","generator":"Open Asset Import Library (assimp v6.0.0)"},"extensionsUsed":["KHR_materials_specular","KHR_materials_volume","KHR_materials_ior","FB_ngon_encoding"],"accessors":[{"bufferView":0,"byteOffset":0,"componentType":5126,"count":6390,"type":"VEC3","max":[-2.5637829303741455,-4.048179626464844,2.6073389053344727],"min":[-3.6941308975219727,-4.967106342315674,2.2250738585072014e-308]},{"bufferView":1,"byteOffset":0,"componentType":5126,"count":6390,"type":"VEC2","max":[0.9864921569824219,0.9762229919433594],"min":[2.2250738585072014e-308,2.2250738585072014e-308]},{"bufferView":2,"byteOffset":0,"componentType":5125,"count":30447,"type":"SCALAR","max":[6389],"min":[0]},{"bufferView":3,"byteOffset":0,"componentType":5126,"count":6273,"type":"VEC3","max":[-2.5643866062164307,-4.039302349090576,2.6497061252593994],"min":[-3.7461509704589844,-4.971531867980957,2.2250738585072014e-308]},{"bufferView":4,"byteOffset":0,"componentType":5126,"count":6273,"type":"VEC2","max":[0.9777450561523438,0.5295047760009766],"min":[2.2250738585072014e-308,2.2250738585072014e-308]},{"bufferView":5,"byteOffset":0,"componentType":5125,"count":33492,"type":"SCALAR","max":[6272],"min":[0]}],"buffers":[{"byteLength":509016,"uri":"tile_0043.bin"}],"bufferViews":[{"buffer":0,"byteOffset":0,"byteLength":76680,"target":34962},{"buffer":0,"byteOffset":76680,"byteLength":51120,"target":34962},{"buffer":0,"byteOffset":127800,"byteLength":121788,"target":34963},{"buffer":0,"byteOffset":249588,"byteLength":75276,"target":34962},{"buffer":0,"byteOffset":324864,"byteLength":50184,"target":34962},{"buffer":0,"byteOffset":375048,"byteLength":133968,"target":34963}],"images":[{"uri":"../textures/tile_0043_material_0.jpg"},{"uri":"../textures/tile_0043_material_1.jpg"}],"materials":[{"name":"DefaultMaterial","pbrMetallicRoughness":{"baseColorFactor":[0.6000000238418579,0.6000000238418579,0.6000000238418579,1.0],"metallicFactor":0.0},"extensions":{"KHR_materials_specular":{"specularFactor":1.0,"specularColorFactor":[0.0,0.0,0.0]},"KHR_materials_ior":{"ior":1.0}}},{"name":"material_0_material","pbrMetallicRoughness":{"baseColorTexture":{"index":0},"metallicFactor":0.0},"extensions":{"KHR_materials_specular":{"specularFactor":1.0,"specularColorFactor":[0.0,0.0,0.0]},"KHR_materials_ior":{"ior":1.0}}},{"name":"material_1_material","pbrMetallicRoughness":{"baseColorTexture":{"index":1},"metallicFactor":0.0},"extensions":{"KHR_materials_specular":{"specularFactor":1.0,"specularColorFactor":[0.0,0.0,0.0]},"KHR_materials_ior":{"ior":1.0}}}],"meshes":[{"name":"defaultobject","primitives":[{"mode":4,"material":1,"indices":2,"attributes":{"POSITION":0,"TEXCOORD_0":1}},{"mode":4,"material":2,"indices":5,"attributes":{"POSITION":3,"TEXCOORD_0":4}}]}],"nodes":[{"name":"tile_0043.obj","children":[1]},{"name":"defaultobject","mesh":0}],"samplers":[{},{}],"scenes":[{"nodes":[0]}],"textures":[{"source":0,"sampler":0},{"source":1,"sampler":1}],"scene":0}
