{"asset":{"version":"2.0","generator":"Open Asset Import Library (assimp v6.0.0)"},"extensionsUsed":["KHR_materials_specular","KHR_materials_volume","KHR_materials_ior","FB_ngon_encoding"],"accessors":[{"bufferView":0,"byteOffset":0,"componentType":5126,"count":5724,"type":"VEC3","max":[-1.4472006559371948,-3.9828989505767822,2.5019073486328125],"min":[-1.6285768747329712,-4.434930324554443,2.2250738585072014e-308]},{"bufferView":1,"byteOffset":0,"componentType":5126,"count":5724,"type":"VEC2","max":[0.9893922209739685,0.6597099304199219],"min":[2.2250738585072014e-308,2.2250738585072014e-308]},{"bufferView":2,"byteOffset":0,"componentType":5125,"count":25311,"type":"SCALAR","max":[5723],"min":[0]},{"bufferView":3,"byteOffset":0,"componentType":5126,"count":13,"type":"VEC3","max":[-1.6112600564956665,-4.417357921600342,2.203211545944214],"min":[-1.6255227327346802,-4.433102607727051,2.2250738585072014e-308]},{"bufferView":4,"byteOffset":0,"componentType":5126,"count":13,"type":"VEC2","max":[0.4453735649585724,0.43740856647491455],"min":[2.2250738585072014e-308,2.2250738585072014e-308]},{"bufferView":5,"byteOffset":0,"componentType":5125,"count":45,"type":"SCALAR","max":[12],"min":[0]}],"buffers":[{"byteLength":216164,"uri":"tile_0306.bin"}],"bufferViews":[{"buffer":0,"byteOffset":0,"byteLength":68688,"target":34962},{"buffer":0,"byteOffset":68688,"byteLength":45792,"target":34962},{"buffer":0,"byteOffset":114480,"byteLength":101244,"target":34963},{"buffer":0,"byteOffset":215724,"byteLength":156,"target":34962},{"buffer":0,"byteOffset":215880,"byteLength":104,"target":34962},{"buffer":0,"byteOffset":215984,"byteLength":180,"target":34963}],"images":[{"uri":"../textures/tile_0306_material_0.jpg"},{"uri":"../textures/tile_0306_material_1.jpg"}],"materials":[{"name":"DefaultMaterial","pbrMetallicRoughness":{"baseColorFactor":[0.6000000238418579,0.6000000238418579,0.6000000238418579,1.0],"metallicFactor":0.0},"extensions":{"KHR_materials_specular":{"specularFactor":1.0,"specularColorFactor":[0.0,0.0,0.0]},"KHR_materials_ior":{"ior":1.0}}},{"name":"material_0_material","pbrMetallicRoughness":{"baseColorTexture":{"index":0},"metallicFactor":0.0},"extensions":{"KHR_materials_specular":{"specularFactor":1.0,"specularColorFactor":[0.0,0.0,0.0]},"KHR_materials_ior":{"ior":1.0}}},{"name":"material_1_material","pbrMetallicRoughness":{"baseColorTexture":{"index":1},"metallicFactor":0.0},"extensions":{"KHR_materials_specular":{"specularFactor":1.0,"specularColorFactor":[0.0,0.0,0.0]},"KHR_materials_ior":{"ior":1.0}}}],"meshes":[{"name":"defaultobject","primitives":[{"mode":4,"material":1,"indices":2,"attributes":{"POSITION":0,"TEXCOORD_0":1}},{"mode":4,"material":2,"indices":5,"attributes":{"POSITION":3,"TEXCOORD_0":4}}]}],"nodes":[{"name":"tile_0306.obj","children":[1]},{"name":"defaultobject","mesh":0}],"samplers":[{},{}],"scenes":[{"nodes":[0]}],"textures":[{"source":0,"sampler":0},{"source":1,"sampler":1}],"scene":0}
