{"asset":{"version":"2.0","generator":"Open Asset Import Library (assimp v6.0.0)"},"extensionsUsed":["KHR_materials_specular","KHR_materials_volume","KHR_materials_ior","FB_ngon_encoding"],"accessors":[{"bufferView":0,"byteOffset":0,"componentType":5126,"count":3698,"type":"VEC3","max":[-0.5861337780952454,-1.2165501117706299,2.702808380126953],"min":[-0.7326788306236267,-1.4499586820602417,2.2250738585072014e-308]},{"bufferView":1,"byteOffset":0,"componentType":5126,"count":3698,"type":"VEC2","max":[0.9903061389923096,0.5377826690673828],"min":[2.2250738585072014e-308,2.2250738585072014e-308]},{"bufferView":2,"byteOffset":0,"componentType":5125,"count":16716,"type":"SCALAR","max":[3697],"min":[0]},{"bufferView":3,"byteOffset":0,"componentType":5126,"count":412,"type":"VEC3","max":[-0.5860164761543274,-1.2251605987548828,2.690439224243164],"min":[-0.7058140635490417,-1.3173679113388062,2.2250738585072014e-308]},{"bufferView":4,"byteOffset":0,"componentType":5126,"count":412,"type":"VEC2","max":[0.5744075775146484,0.5503082275390625],"min":[2.2250738585072014e-308,2.2250738585072014e-308]},{"bufferView":5,"byteOffset":0,"componentType":5125,"count":2103,"type":"SCALAR","max":[411],"min":[0]}],"buffers":[{"byteLength":157476,"uri":"tile_0364.bin"}],"bufferViews":[{"buffer":0,"byteOffset":0,"byteLength":44376,"target":34962},{"buffer":0,"byteOffset":44376,"byteLength":29584,"target":34962},{"buffer":0,"byteOffset":73960,"byteLength":66864,"target":34963},{"buffer":0,"byteOffset":140824,"byteLength":4944,"target":34962},{"buffer":0,"byteOffset":145768,"byteLength":3296,"target":34962},{"buffer":0,"byteOffset":149064,"byteLength":8412,"target":34963}],"images":[{"uri":"../textures/tile_0364_material_0.jpg"},{"uri":"../textures/tile_0364_material_1.jpg"}],"materials":[{"name":"DefaultMaterial","pbrMetallicRoughness":{"baseColorFactor":[0.6000000238418579,0.6000000238418579,0.6000000238418579,1.0],"metallicFactor":0.0},"extensions":{"KHR_materials_specular":{"specularFactor":1.0,"specularColorFactor":[0.0,0.0,0.0]},"KHR_materials_ior":{"ior":1.0}}},{"name":"material_0_material","pbrMetallicRoughness":{"baseColorTexture":{"index":0},"metallicFactor":0.0},"extensions":{"KHR_materials_specular":{"specularFactor":1.0,"specularColorFactor":[0.0,0.0,0.0]},"KHR_materials_ior":{"ior":1.0}}},{"name":"material_1_material","pbrMetallicRoughness":{"baseColorTexture":{"index":1},"metallicFactor":0.0},"extensions":{"KHR_materials_specular":{"specularFactor":1.0,"specularColorFactor":[0.0,0.0,0.0]},"KHR_materials_ior":{"ior":1.0}}}],"meshes":[{"name":"defaultobject","primitives":[{"mode":4,"material":1,"indices":2,"attributes":{"POSITION":0,"TEXCOORD_0":1}},{"mode":4,"material":2,"indices":5,"attributes":{"POSITION":3,"TEXCOORD_0":4}}]}],"nodes":[{"name":"tile_0364.obj","children":[1]},{"name":"defaultobject","mesh":0}],"samplers":[{},{}],"scenes":[{"nodes":[0]}],"textures":[{"source":0,"sampler":0},{"source":1,"sampler":1}],"scene":0}
