{"asset":{"version":"2.0","generator":"Open Asset Import Library (assimp v6.0.0)"},"extensionsUsed":["KHR_materials_specular","KHR_materials_volume","KHR_materials_ior","FB_ngon_encoding"],"accessors":[{"bufferView":0,"byteOffset":0,"componentType":5126,"count":5503,"type":"VEC3","max":[1.8621221780776978,2.5352611541748047,4.297296047210693],"min":[2.2250738585072014e-308,2.2250738585072014e-308,2.2250738585072014e-308]},{"bufferView":1,"byteOffset":0,"componentType":5126,"count":5503,"type":"VEC2","max":[0.9913544654846191,0.5766639709472656],"min":[2.2250738585072014e-308,2.2250738585072014e-308]},{"bufferView":2,"byteOffset":0,"componentType":5125,"count":24627,"type":"SCALAR","max":[5502],"min":[0]},{"bufferView":3,"byteOffset":0,"componentType":5126,"count":534,"type":"VEC3","max":[1.8588786125183105,2.517927408218384,4.303006649017334],"min":[2.2250738585072014e-308,2.2250738585072014e-308,2.2250738585072014e-308]},{"bufferView":4,"byteOffset":0,"componentType":5126,"count":534,"type":"VEC2","max":[0.8154716491699219,0.5466194152832031],"min":[2.2250738585072014e-308,2.2250738585072014e-308]},{"bufferView":5,"byteOffset":0,"componentType":5125,"count":2622,"type":"SCALAR","max":[533],"min":[0]}],"buffers":[{"byteLength":229736,"uri":"tile_0603.bin"}],"bufferViews":[{"buffer":0,"byteOffset":0,"byteLength":66036,"target":34962},{"buffer":0,"byteOffset":66036,"byteLength":44024,"target":34962},{"buffer":0,"byteOffset":110060,"byteLength":98508,"target":34963},{"buffer":0,"byteOffset":208568,"byteLength":6408,"target":34962},{"buffer":0,"byteOffset":214976,"byteLength":4272,"target":34962},{"buffer":0,"byteOffset":219248,"byteLength":10488,"target":34963}],"images":[{"uri":"../textures/tile_0603_material_0.jpg"},{"uri":"../textures/tile_0603_material_1.jpg"}],"materials":[{"name":"DefaultMaterial","pbrMetallicRoughness":{"baseColorFactor":[0.6000000238418579,0.6000000238418579,0.6000000238418579,1.0],"metallicFactor":0.0},"extensions":{"KHR_materials_specular":{"specularFactor":1.0,"specularColorFactor":[0.0,0.0,0.0]},"KHR_materials_ior":{"ior":1.0}}},{"name":"material_0_material","pbrMetallicRoughness":{"baseColorTexture":{"index":0},"metallicFactor":0.0},"extensions":{"KHR_materials_specular":{"specularFactor":1.0,"specularColorFactor":[0.0,0.0,0.0]},"KHR_materials_ior":{"ior":1.0}}},{"name":"material_1_material","pbrMetallicRoughness":{"baseColorTexture":{"index":1},"metallicFactor":0.0},"extensions":{"KHR_materials_specular":{"specularFactor":1.0,"specularColorFactor":[0.0,0.0,0.0]},"KHR_materials_ior":{"ior":1.0}}}],"meshes":[{"name":"defaultobject","primitives":[{"mode":4,"material":1,"indices":2,"attributes":{"POSITION":0,"TEXCOORD_0":1}},{"mode":4,"material":2,"indices":5,"attributes":{"POSITION":3,"TEXCOORD_0":4}}]}],"nodes":[{"name":"tile_0603.obj","children":[1]},{"name":"defaultobject","mesh":0}],"samplers":[{},{}],"scenes":[{"nodes":[0]}],"textures":[{"source":0,"sampler":0},{"source":1,"sampler":1}],"scene":0}
