{"asset":{"version":"2.0","generator":"Open Asset Import Library (assimp v6.0.0)"},"extensionsUsed":["KHR_materials_specular","KHR_materials_volume","KHR_materials_ior","FB_ngon_encoding"],"accessors":[{"bufferView":0,"byteOffset":0,"componentType":5126,"count":3804,"type":"VEC3","max":[-2.4010558128356934,-0.522844135761261,2.7960596084594727],"min":[-2.80471134185791,-0.7835446000099182,2.2250738585072014e-308]},{"bufferView":1,"byteOffset":0,"componentType":5126,"count":3804,"type":"VEC2","max":[0.9894423484802246,0.5340480804443359],"min":[2.2250738585072014e-308,2.2250738585072014e-308]},{"bufferView":2,"byteOffset":0,"componentType":5125,"count":18255,"type":"SCALAR","max":[3803],"min":[0]},{"bufferView":3,"byteOffset":0,"componentType":5126,"count":1622,"type":"VEC3","max":[-2.402050495147705,-0.5240289568901062,2.7745347023010254],"min":[-2.753041982650757,-0.7824555039405823,2.2250738585072014e-308]},{"bufferView":4,"byteOffset":0,"componentType":5126,"count":1622,"type":"VEC2","max":[0.6648626327514648,0.6569843292236328],"min":[2.2250738585072014e-308,2.2250738585072014e-308]},{"bufferView":5,"byteOffset":0,"componentType":5125,"count":8640,"type":"SCALAR","max":[1621],"min":[0]}],"buffers":[{"byteLength":216100,"uri":"tile_0476.bin"}],"bufferViews":[{"buffer":0,"byteOffset":0,"byteLength":45648,"target":34962},{"buffer":0,"byteOffset":45648,"byteLength":30432,"target":34962},{"buffer":0,"byteOffset":76080,"byteLength":73020,"target":34963},{"buffer":0,"byteOffset":149100,"byteLength":19464,"target":34962},{"buffer":0,"byteOffset":168564,"byteLength":12976,"target":34962},{"buffer":0,"byteOffset":181540,"byteLength":34560,"target":34963}],"images":[{"uri":"../textures/tile_0476_material_0.jpg"},{"uri":"../textures/tile_0476_material_1.jpg"}],"materials":[{"name":"DefaultMaterial","pbrMetallicRoughness":{"baseColorFactor":[0.6000000238418579,0.6000000238418579,0.6000000238418579,1.0],"metallicFactor":0.0},"extensions":{"KHR_materials_specular":{"specularFactor":1.0,"specularColorFactor":[0.0,0.0,0.0]},"KHR_materials_ior":{"ior":1.0}}},{"name":"material_0_material","pbrMetallicRoughness":{"baseColorTexture":{"index":0},"metallicFactor":0.0},"extensions":{"KHR_materials_specular":{"specularFactor":1.0,"specularColorFactor":[0.0,0.0,0.0]},"KHR_materials_ior":{"ior":1.0}}},{"name":"material_1_material","pbrMetallicRoughness":{"baseColorTexture":{"index":1},"metallicFactor":0.0},"extensions":{"KHR_materials_specular":{"specularFactor":1.0,"specularColorFactor":[0.0,0.0,0.0]},"KHR_materials_ior":{"ior":1.0}}}],"meshes":[{"name":"defaultobject","primitives":[{"mode":4,"material":1,"indices":2,"attributes":{"POSITION":0,"TEXCOORD_0":1}},{"mode":4,"material":2,"indices":5,"attributes":{"POSITION":3,"TEXCOORD_0":4}}]}],"nodes":[{"name":"tile_0476.obj","children":[1]},{"name":"defaultobject","mesh":0}],"samplers":[{},{}],"scenes":[{"nodes":[0]}],"textures":[{"source":0,"sampler":0},{"source":1,"sampler":1}],"scene":0}
