{"asset":{"version":"2.0","generator":"Open Asset Import Library (assimp v6.0.0)"},"extensionsUsed":["KHR_materials_specular","KHR_materials_volume","KHR_materials_ior","FB_ngon_encoding"],"accessors":[{"bufferView":0,"byteOffset":0,"componentType":5126,"count":6274,"type":"VEC3","max":[4.955903053283691,-0.9861897230148315,3.97153377532959],"min":[2.2250738585072014e-308,-1.2197188138961792,2.2250738585072014e-308]},{"bufferView":1,"byteOffset":0,"componentType":5126,"count":6274,"type":"VEC2","max":[0.9932260513305664,0.6873531341552734],"min":[2.2250738585072014e-308,2.2250738585072014e-308]},{"bufferView":2,"byteOffset":0,"componentType":5125,"count":28287,"type":"SCALAR","max":[6273],"min":[0]},{"bufferView":3,"byteOffset":0,"componentType":5126,"count":718,"type":"VEC3","max":[4.957812786102295,-1.0404385328292847,3.966618776321411],"min":[2.2250738585072014e-308,-1.2286739349365234,2.2250738585072014e-308]},{"bufferView":4,"byteOffset":0,"componentType":5126,"count":718,"type":"VEC2","max":[0.5158283710479736,0.5142440795898438],"min":[2.2250738585072014e-308,2.2250738585072014e-308]},{"bufferView":5,"byteOffset":0,"componentType":5125,"count":3207,"type":"SCALAR","max":[717],"min":[0]}],"buffers":[{"byteLength":265816,"uri":"tile_0247.bin"}],"bufferViews":[{"buffer":0,"byteOffset":0,"byteLength":75288,"target":34962},{"buffer":0,"byteOffset":75288,"byteLength":50192,"target":34962},{"buffer":0,"byteOffset":125480,"byteLength":113148,"target":34963},{"buffer":0,"byteOffset":238628,"byteLength":8616,"target":34962},{"buffer":0,"byteOffset":247244,"byteLength":5744,"target":34962},{"buffer":0,"byteOffset":252988,"byteLength":12828,"target":34963}],"images":[{"uri":"../textures/tile_0247_material_0.jpg"},{"uri":"../textures/tile_0247_material_1.jpg"}],"materials":[{"name":"DefaultMaterial","pbrMetallicRoughness":{"baseColorFactor":[0.6000000238418579,0.6000000238418579,0.6000000238418579,1.0],"metallicFactor":0.0},"extensions":{"KHR_materials_specular":{"specularFactor":1.0,"specularColorFactor":[0.0,0.0,0.0]},"KHR_materials_ior":{"ior":1.0}}},{"name":"material_0_material","pbrMetallicRoughness":{"baseColorTexture":{"index":0},"metallicFactor":0.0},"extensions":{"KHR_materials_specular":{"specularFactor":1.0,"specularColorFactor":[0.0,0.0,0.0]},"KHR_materials_ior":{"ior":1.0}}},{"name":"material_1_material","pbrMetallicRoughness":{"baseColorTexture":{"index":1},"metallicFactor":0.0},"extensions":{"KHR_materials_specular":{"specularFactor":1.0,"specularColorFactor":[0.0,0.0,0.0]},"KHR_materials_ior":{"ior":1.0}}}],"meshes":[{"name":"defaultobject","primitives":[{"mode":4,"material":1,"indices":2,"attributes":{"POSITION":0,"TEXCOORD_0":1}},{"mode":4,"material":2,"indices":5,"attributes":{"POSITION":3,"TEXCOORD_0":4}}]}],"nodes":[{"name":"tile_0247.obj","children":[1]},{"name":"defaultobject","mesh":0}],"samplers":[{},{}],"scenes":[{"nodes":[0]}],"textures":[{"source":0,"sampler":0},{"source":1,"sampler":1}],"scene":0}
