{"asset":{"version":"2.0","generator":"Open Asset Import Library (assimp v6.0.0)"},"extensionsUsed":["KHR_materials_specular","KHR_materials_volume","KHR_materials_ior","FB_ngon_encoding"],"accessors":[{"bufferView":0,"byteOffset":0,"componentType":5126,"count":3179,"type":"VEC3","max":[4.175047874450684,-3.626574754714966,3.489763021469116],"min":[2.2250738585072014e-308,-3.8604977130889893,2.2250738585072014e-308]},{"bufferView":1,"byteOffset":0,"componentType":5126,"count":3179,"type":"VEC2","max":[0.992823600769043,0.9050712585449219],"min":[2.2250738585072014e-308,2.2250738585072014e-308]},{"bufferView":2,"byteOffset":0,"componentType":5125,"count":13653,"type":"SCALAR","max":[3178],"min":[0]},{"bufferView":3,"byteOffset":0,"componentType":5126,"count":2274,"type":"VEC3","max":[4.364437103271484,-3.6056060791015625,3.462836265563965],"min":[2.2250738585072014e-308,-3.8640832901000977,2.2250738585072014e-308]},{"bufferView":4,"byteOffset":0,"componentType":5126,"count":2274,"type":"VEC2","max":[0.9909877777099609,0.7329559326171875],"min":[2.2250738585072014e-308,2.2250738585072014e-308]},{"bufferView":5,"byteOffset":0,"componentType":5125,"count":11721,"type":"SCALAR","max":[2273],"min":[0]}],"buffers":[{"byteLength":210556,"uri":"tile_0836.bin"}],"bufferViews":[{"buffer":0,"byteOffset":0,"byteLength":38148,"target":34962},{"buffer":0,"byteOffset":38148,"byteLength":25432,"target":34962},{"buffer":0,"byteOffset":63580,"byteLength":54612,"target":34963},{"buffer":0,"byteOffset":118192,"byteLength":27288,"target":34962},{"buffer":0,"byteOffset":145480,"byteLength":18192,"target":34962},{"buffer":0,"byteOffset":163672,"byteLength":46884,"target":34963}],"images":[{"uri":"../textures/tile_0836_material_0.jpg"},{"uri":"../textures/tile_0836_material_1.jpg"}],"materials":[{"name":"DefaultMaterial","pbrMetallicRoughness":{"baseColorFactor":[0.6000000238418579,0.6000000238418579,0.6000000238418579,1.0],"metallicFactor":0.0},"extensions":{"KHR_materials_specular":{"specularFactor":1.0,"specularColorFactor":[0.0,0.0,0.0]},"KHR_materials_ior":{"ior":1.0}}},{"name":"material_0_material","pbrMetallicRoughness":{"baseColorTexture":{"index":0},"metallicFactor":0.0},"extensions":{"KHR_materials_specular":{"specularFactor":1.0,"specularColorFactor":[0.0,0.0,0.0]},"KHR_materials_ior":{"ior":1.0}}},{"name":"material_1_material","pbrMetallicRoughness":{"baseColorTexture":{"index":1},"metallicFactor":0.0},"extensions":{"KHR_materials_specular":{"specularFactor":1.0,"specularColorFactor":[0.0,0.0,0.0]},"KHR_materials_ior":{"ior":1.0}}}],"meshes":[{"name":"defaultobject","primitives":[{"mode":4,"material":1,"indices":2,"attributes":{"POSITION":0,"TEXCOORD_0":1}},{"mode":4,"material":2,"indices":5,"attributes":{"POSITION":3,"TEXCOORD_0":4}}]}],"nodes":[{"name":"tile_0836.obj","children":[1]},{"name":"defaultobject","mesh":0}],"samplers":[{},{}],"scenes":[{"nodes":[0]}],"textures":[{"source":0,"sampler":0},{"source":1,"sampler":1}],"scene":0}
