{"asset":{"version":"2.0","generator":"Open Asset Import Library (assimp v6.0.0)"},"extensionsUsed":["KHR_materials_specular","KHR_materials_volume","KHR_materials_ior","FB_ngon_encoding"],"accessors":[{"bufferView":0,"byteOffset":0,"componentType":5126,"count":4465,"type":"VEC3","max":[2.3905529975891113,-4.323802947998047,3.3383567333221436],"min":[2.2250738585072014e-308,-4.6685309410095215,2.2250738585072014e-308]},{"bufferView":1,"byteOffset":0,"componentType":5126,"count":4465,"type":"VEC2","max":[0.9870089292526245,0.6872653961181641],"min":[2.2250738585072014e-308,2.2250738585072014e-308]},{"bufferView":2,"byteOffset":0,"componentType":5125,"count":20127,"type":"SCALAR","max":[4464],"min":[0]},{"bufferView":3,"byteOffset":0,"componentType":5126,"count":140,"type":"VEC3","max":[2.1997740268707275,-4.6049113273620605,3.1172497272491455],"min":[2.2250738585072014e-308,-4.665083885192871,2.2250738585072014e-308]},{"bufferView":4,"byteOffset":0,"componentType":5126,"count":140,"type":"VEC2","max":[0.8896713256835938,0.785797119140625],"min":[2.2250738585072014e-308,2.2250738585072014e-308]},{"bufferView":5,"byteOffset":0,"componentType":5125,"count":639,"type":"SCALAR","max":[139],"min":[0]}],"buffers":[{"byteLength":175164,"uri":"tile_0760.bin"}],"bufferViews":[{"buffer":0,"byteOffset":0,"byteLength":53580,"target":34962},{"buffer":0,"byteOffset":53580,"byteLength":35720,"target":34962},{"buffer":0,"byteOffset":89300,"byteLength":80508,"target":34963},{"buffer":0,"byteOffset":169808,"byteLength":1680,"target":34962},{"buffer":0,"byteOffset":171488,"byteLength":1120,"target":34962},{"buffer":0,"byteOffset":172608,"byteLength":2556,"target":34963}],"images":[{"uri":"../textures/tile_0760_material_0.jpg"},{"uri":"../textures/tile_0760_material_1.jpg"}],"materials":[{"name":"DefaultMaterial","pbrMetallicRoughness":{"baseColorFactor":[0.6000000238418579,0.6000000238418579,0.6000000238418579,1.0],"metallicFactor":0.0},"extensions":{"KHR_materials_specular":{"specularFactor":1.0,"specularColorFactor":[0.0,0.0,0.0]},"KHR_materials_ior":{"ior":1.0}}},{"name":"material_0_material","pbrMetallicRoughness":{"baseColorTexture":{"index":0},"metallicFactor":0.0},"extensions":{"KHR_materials_specular":{"specularFactor":1.0,"specularColorFactor":[0.0,0.0,0.0]},"KHR_materials_ior":{"ior":1.0}}},{"name":"material_1_material","pbrMetallicRoughness":{"baseColorTexture":{"index":1},"metallicFactor":0.0},"extensions":{"KHR_materials_specular":{"specularFactor":1.0,"specularColorFactor":[0.0,0.0,0.0]},"KHR_materials_ior":{"ior":1.0}}}],"meshes":[{"name":"defaultobject","primitives":[{"mode":4,"material":1,"indices":2,"attributes":{"POSITION":0,"TEXCOORD_0":1}},{"mode":4,"material":2,"indices":5,"attributes":{"POSITION":3,"TEXCOORD_0":4}}]}],"nodes":[{"name":"tile_0760.obj","children":[1]},{"name":"defaultobject","mesh":0}],"samplers":[{},{}],"scenes":[{"nodes":[0]}],"textures":[{"source":0,"sampler":0},{"source":1,"sampler":1}],"scene":0}
