{"asset":{"version":"2.0","generator":"Open Asset Import Library (assimp v6.0.0)"},"extensionsUsed":["KHR_materials_specular","KHR_materials_volume","KHR_materials_ior","FB_ngon_encoding"],"accessors":[{"bufferView":0,"byteOffset":0,"componentType":5126,"count":2640,"type":"VEC3","max":[2.5378992557525635,-0.05873123183846474,4.128298759460449],"min":[2.2250738585072014e-308,-0.34033510088920593,2.2250738585072014e-308]},{"bufferView":1,"byteOffset":0,"componentType":5126,"count":2640,"type":"VEC2","max":[0.9867367744445801,0.7097396850585938],"min":[2.2250738585072014e-308,2.2250738585072014e-308]},{"bufferView":2,"byteOffset":0,"componentType":5125,"count":11262,"type":"SCALAR","max":[2639],"min":[0]},{"bufferView":3,"byteOffset":0,"componentType":5126,"count":1564,"type":"VEC3","max":[2.53814697265625,-0.05945771932601929,4.125450611114502],"min":[2.2250738585072014e-308,-0.34404799342155457,2.2250738585072014e-308]},{"bufferView":4,"byteOffset":0,"componentType":5126,"count":1564,"type":"VEC2","max":[0.8150811195373535,0.8010482788085938],"min":[2.2250738585072014e-308,2.2250738585072014e-308]},{"bufferView":5,"byteOffset":0,"componentType":5125,"count":7719,"type":"SCALAR","max":[1563],"min":[0]}],"buffers":[{"byteLength":160004,"uri":"tile_0633.bin"}],"bufferViews":[{"buffer":0,"byteOffset":0,"byteLength":31680,"target":34962},{"buffer":0,"byteOffset":31680,"byteLength":21120,"target":34962},{"buffer":0,"byteOffset":52800,"byteLength":45048,"target":34963},{"buffer":0,"byteOffset":97848,"byteLength":18768,"target":34962},{"buffer":0,"byteOffset":116616,"byteLength":12512,"target":34962},{"buffer":0,"byteOffset":129128,"byteLength":30876,"target":34963}],"images":[{"uri":"../textures/tile_0633_material_0.jpg"},{"uri":"../textures/tile_0633_material_1.jpg"}],"materials":[{"name":"DefaultMaterial","pbrMetallicRoughness":{"baseColorFactor":[0.6000000238418579,0.6000000238418579,0.6000000238418579,1.0],"metallicFactor":0.0},"extensions":{"KHR_materials_specular":{"specularFactor":1.0,"specularColorFactor":[0.0,0.0,0.0]},"KHR_materials_ior":{"ior":1.0}}},{"name":"material_0_material","pbrMetallicRoughness":{"baseColorTexture":{"index":0},"metallicFactor":0.0},"extensions":{"KHR_materials_specular":{"specularFactor":1.0,"specularColorFactor":[0.0,0.0,0.0]},"KHR_materials_ior":{"ior":1.0}}},{"name":"material_1_material","pbrMetallicRoughness":{"baseColorTexture":{"index":1},"metallicFactor":0.0},"extensions":{"KHR_materials_specular":{"specularFactor":1.0,"specularColorFactor":[0.0,0.0,0.0]},"KHR_materials_ior":{"ior":1.0}}}],"meshes":[{"name":"defaultobject","primitives":[{"mode":4,"material":1,"indices":2,"attributes":{"POSITION":0,"TEXCOORD_0":1}},{"mode":4,"material":2,"indices":5,"attributes":{"POSITION":3,"TEXCOORD_0":4}}]}],"nodes":[{"name":"tile_0633.obj","children":[1]},{"name":"defaultobject","mesh":0}],"samplers":[{},{}],"scenes":[{"nodes":[0]}],"textures":[{"source":0,"sampler":0},{"source":1,"sampler":1}],"scene":0}
