{"asset":{"version":"2.0","generator":"Open Asset Import Library (assimp v6.0.0)"},"extensionsUsed":["KHR_materials_specular","KHR_materials_volume","KHR_materials_ior","FB_ngon_encoding"],"accessors":[{"bufferView":0,"byteOffset":0,"componentType":5126,"count":4218,"type":"VEC3","max":[-0.41687023639678955,-3.945695161819458,2.6427416801452637],"min":[-0.5873100161552429,-4.434603214263916,2.2250738585072014e-308]},{"bufferView":1,"byteOffset":0,"componentType":5126,"count":4218,"type":"VEC2","max":[0.9928703308105469,0.9585151672363281],"min":[2.2250738585072014e-308,2.2250738585072014e-308]},{"bufferView":2,"byteOffset":0,"componentType":5125,"count":19464,"type":"SCALAR","max":[4217],"min":[0]},{"bufferView":3,"byteOffset":0,"componentType":5126,"count":929,"type":"VEC3","max":[-0.4448944926261902,-3.9467151165008545,2.6388344764709473],"min":[-0.5873687267303467,-4.434653282165527,2.2250738585072014e-308]},{"bufferView":4,"byteOffset":0,"componentType":5126,"count":929,"type":"VEC2","max":[0.5631470680236816,0.9410858154296875],"min":[2.2250738585072014e-308,2.2250738585072014e-308]},{"bufferView":5,"byteOffset":0,"componentType":5125,"count":4614,"type":"SCALAR","max":[928],"min":[0]}],"buffers":[{"byteLength":199252,"uri":"tile_0050.bin"}],"bufferViews":[{"buffer":0,"byteOffset":0,"byteLength":50616,"target":34962},{"buffer":0,"byteOffset":50616,"byteLength":33744,"target":34962},{"buffer":0,"byteOffset":84360,"byteLength":77856,"target":34963},{"buffer":0,"byteOffset":162216,"byteLength":11148,"target":34962},{"buffer":0,"byteOffset":173364,"byteLength":7432,"target":34962},{"buffer":0,"byteOffset":180796,"byteLength":18456,"target":34963}],"images":[{"uri":"../textures/tile_0050_material_0.jpg"},{"uri":"../textures/tile_0050_material_1.jpg"}],"materials":[{"name":"DefaultMaterial","pbrMetallicRoughness":{"baseColorFactor":[0.6000000238418579,0.6000000238418579,0.6000000238418579,1.0],"metallicFactor":0.0},"extensions":{"KHR_materials_specular":{"specularFactor":1.0,"specularColorFactor":[0.0,0.0,0.0]},"KHR_materials_ior":{"ior":1.0}}},{"name":"material_0_material","pbrMetallicRoughness":{"baseColorTexture":{"index":0},"metallicFactor":0.0},"extensions":{"KHR_materials_specular":{"specularFactor":1.0,"specularColorFactor":[0.0,0.0,0.0]},"KHR_materials_ior":{"ior":1.0}}},{"name":"material_1_material","pbrMetallicRoughness":{"baseColorTexture":{"index":1},"metallicFactor":0.0},"extensions":{"KHR_materials_specular":{"specularFactor":1.0,"specularColorFactor":[0.0,0.0,0.0]},"KHR_materials_ior":{"ior":1.0}}}],"meshes":[{"name":"defaultobject","primitives":[{"mode":4,"material":1,"indices":2,"attributes":{"POSITION":0,"TEXCOORD_0":1}},{"mode":4,"material":2,"indices":5,"attributes":{"POSITION":3,"TEXCOORD_0":4}}]}],"nodes":[{"name":"tile_0050.obj","children":[1]},{"name":"defaultobject","mesh":0}],"samplers":[{},{}],"scenes":[{"nodes":[0]}],"textures":[{"source":0,"sampler":0},{"source":1,"sampler":1}],"scene":0}
