{"asset":{"version":"2.0","generator":"Open Asset Import Library (assimp v6.0.0)"},"extensionsUsed":["KHR_materials_specular","KHR_materials_volume","KHR_materials_ior","FB_ngon_encoding"],"accessors":[{"bufferView":0,"byteOffset":0,"componentType":5126,"count":2840,"type":"VEC3","max":[-4.149092674255371,-1.3732268810272217,3.6651504039764404],"min":[-4.7396769523620605,-1.6566225290298462,2.2250738585072014e-308]},{"bufferView":1,"byteOffset":0,"componentType":5126,"count":2840,"type":"VEC2","max":[0.9644551277160645,0.5307807922363281],"min":[2.2250738585072014e-308,2.2250738585072014e-308]},{"bufferView":2,"byteOffset":0,"componentType":5125,"count":13629,"type":"SCALAR","max":[2839],"min":[0]},{"bufferView":3,"byteOffset":0,"componentType":5126,"count":2571,"type":"VEC3","max":[-4.149117469787598,-1.3728595972061157,3.681595802307129],"min":[-4.742403030395508,-1.657684564590454,2.2250738585072014e-308]},{"bufferView":4,"byteOffset":0,"componentType":5126,"count":2571,"type":"VEC2","max":[0.7095363736152649,0.5943565368652344],"min":[2.2250738585072014e-308,2.2250738585072014e-308]},{"bufferView":5,"byteOffset":0,"componentType":5125,"count":13464,"type":"SCALAR","max":[2570],"min":[0]}],"buffers":[{"byteLength":216592,"uri":"tile_0073.bin"}],"bufferViews":[{"buffer":0,"byteOffset":0,"byteLength":34080,"target":34962},{"buffer":0,"byteOffset":34080,"byteLength":22720,"target":34962},{"buffer":0,"byteOffset":56800,"byteLength":54516,"target":34963},{"buffer":0,"byteOffset":111316,"byteLength":30852,"target":34962},{"buffer":0,"byteOffset":142168,"byteLength":20568,"target":34962},{"buffer":0,"byteOffset":162736,"byteLength":53856,"target":34963}],"images":[{"uri":"../textures/tile_0073_material_0.jpg"},{"uri":"../textures/tile_0073_material_1.jpg"}],"materials":[{"name":"DefaultMaterial","pbrMetallicRoughness":{"baseColorFactor":[0.6000000238418579,0.6000000238418579,0.6000000238418579,1.0],"metallicFactor":0.0},"extensions":{"KHR_materials_specular":{"specularFactor":1.0,"specularColorFactor":[0.0,0.0,0.0]},"KHR_materials_ior":{"ior":1.0}}},{"name":"material_0_material","pbrMetallicRoughness":{"baseColorTexture":{"index":0},"metallicFactor":0.0},"extensions":{"KHR_materials_specular":{"specularFactor":1.0,"specularColorFactor":[0.0,0.0,0.0]},"KHR_materials_ior":{"ior":1.0}}},{"name":"material_1_material","pbrMetallicRoughness":{"baseColorTexture":{"index":1},"metallicFactor":0.0},"extensions":{"KHR_materials_specular":{"specularFactor":1.0,"specularColorFactor":[0.0,0.0,0.0]},"KHR_materials_ior":{"ior":1.0}}}],"meshes":[{"name":"defaultobject","primitives":[{"mode":4,"material":1,"indices":2,"attributes":{"POSITION":0,"TEXCOORD_0":1}},{"mode":4,"material":2,"indices":5,"attributes":{"POSITION":3,"TEXCOORD_0":4}}]}],"nodes":[{"name":"tile_0073.obj","children":[1]},{"name":"defaultobject","mesh":0}],"samplers":[{},{}],"scenes":[{"nodes":[0]}],"textures":[{"source":0,"sampler":0},{"source":1,"sampler":1}],"scene":0}
