{"asset":{"version":"2.0","generator":"Open Asset Import Library (assimp v6.0.0)"},"extensionsUsed":["KHR_materials_specular","KHR_materials_volume","KHR_materials_ior","FB_ngon_encoding"],"accessors":[{"bufferView":0,"byteOffset":0,"componentType":5126,"count":5345,"type":"VEC3","max":[4.320138931274414,-0.538094162940979,3.944762706756592],"min":[2.2250738585072014e-308,-0.7835886478424072,2.2250738585072014e-308]},{"bufferView":1,"byteOffset":0,"componentType":5126,"count":5345,"type":"VEC2","max":[0.9901113510131836,0.589569091796875],"min":[2.2250738585072014e-308,2.2250738585072014e-308]},{"bufferView":2,"byteOffset":0,"componentType":5125,"count":23157,"type":"SCALAR","max":[5344],"min":[0]},{"bufferView":3,"byteOffset":0,"componentType":5126,"count":3,"type":"VEC3","max":[4.319179534912109,-0.6373802423477173,3.8803298473358154],"min":[2.2250738585072014e-308,-0.6445110440254211,2.2250738585072014e-308]},{"bufferView":4,"byteOffset":0,"componentType":5126,"count":3,"type":"VEC2","max":[0.45831307768821716,0.3659364581108093],"min":[2.2250738585072014e-308,2.2250738585072014e-308]},{"bufferView":5,"byteOffset":0,"componentType":5125,"count":3,"type":"SCALAR","max":[2],"min":[0]}],"buffers":[{"byteLength":199600,"uri":"tile_0642.bin"}],"bufferViews":[{"buffer":0,"byteOffset":0,"byteLength":64140,"target":34962},{"buffer":0,"byteOffset":64140,"byteLength":42760,"target":34962},{"buffer":0,"byteOffset":106900,"byteLength":92628,"target":34963},{"buffer":0,"byteOffset":199528,"byteLength":36,"target":34962},{"buffer":0,"byteOffset":199564,"byteLength":24,"target":34962},{"buffer":0,"byteOffset":199588,"byteLength":12,"target":34963}],"images":[{"uri":"../textures/tile_0642_material_0.jpg"},{"uri":"../textures/tile_0642_material_1.jpg"}],"materials":[{"name":"DefaultMaterial","pbrMetallicRoughness":{"baseColorFactor":[0.6000000238418579,0.6000000238418579,0.6000000238418579,1.0],"metallicFactor":0.0},"extensions":{"KHR_materials_specular":{"specularFactor":1.0,"specularColorFactor":[0.0,0.0,0.0]},"KHR_materials_ior":{"ior":1.0}}},{"name":"material_0_material","pbrMetallicRoughness":{"baseColorTexture":{"index":0},"metallicFactor":0.0},"extensions":{"KHR_materials_specular":{"specularFactor":1.0,"specularColorFactor":[0.0,0.0,0.0]},"KHR_materials_ior":{"ior":1.0}}},{"name":"material_1_material","pbrMetallicRoughness":{"baseColorTexture":{"index":1},"metallicFactor":0.0},"extensions":{"KHR_materials_specular":{"specularFactor":1.0,"specularColorFactor":[0.0,0.0,0.0]},"KHR_materials_ior":{"ior":1.0}}}],"meshes":[{"name":"defaultobject","primitives":[{"mode":4,"material":1,"indices":2,"attributes":{"POSITION":0,"TEXCOORD_0":1}},{"mode":4,"material":2,"indices":5,"attributes":{"POSITION":3,"TEXCOORD_0":4}}]}],"nodes":[{"name":"tile_0642.obj","children":[1]},{"name":"defaultobject","mesh":0}],"samplers":[{},{}],"scenes":[{"nodes":[0]}],"textures":[{"source":0,"sampler":0},{"source":1,"sampler":1}],"scene":0}
