{"asset":{"version":"2.0","generator":"Open Asset Import Library (assimp v6.0.0)"},"extensionsUsed":["KHR_materials_specular","KHR_materials_volume","KHR_materials_ior","FB_ngon_encoding"],"accessors":[{"bufferView":0,"byteOffset":0,"componentType":5126,"count":2231,"type":"VEC3","max":[-2.0519042015075684,-1.6493778228759766,2.5174481868743896],"min":[-2.3409817218780518,-1.9148025512695312,2.2250738585072014e-308]},{"bufferView":1,"byteOffset":0,"componentType":5126,"count":2231,"type":"VEC2","max":[0.9840483665466309,0.6085052490234375],"min":[2.2250738585072014e-308,2.2250738585072014e-308]},{"bufferView":2,"byteOffset":0,"componentType":5125,"count":10692,"type":"SCALAR","max":[2230],"min":[0]},{"bufferView":3,"byteOffset":0,"componentType":5126,"count":3045,"type":"VEC3","max":[-2.051643133163452,-1.6498167514801025,2.5185766220092773],"min":[-2.342329263687134,-1.9146066904067993,2.2250738585072014e-308]},{"bufferView":4,"byteOffset":0,"componentType":5126,"count":3045,"type":"VEC2","max":[0.5866155624389648,0.5409011840820312],"min":[2.2250738585072014e-308,2.2250738585072014e-308]},{"bufferView":5,"byteOffset":0,"componentType":5125,"count":16275,"type":"SCALAR","max":[3044],"min":[0]}],"buffers":[{"byteLength":213388,"uri":"tile_0045.bin"}],"bufferViews":[{"buffer":0,"byteOffset":0,"byteLength":26772,"target":34962},{"buffer":0,"byteOffset":26772,"byteLength":17848,"target":34962},{"buffer":0,"byteOffset":44620,"byteLength":42768,"target":34963},{"buffer":0,"byteOffset":87388,"byteLength":36540,"target":34962},{"buffer":0,"byteOffset":123928,"byteLength":24360,"target":34962},{"buffer":0,"byteOffset":148288,"byteLength":65100,"target":34963}],"images":[{"uri":"../textures/tile_0045_material_0.jpg"},{"uri":"../textures/tile_0045_material_1.jpg"}],"materials":[{"name":"DefaultMaterial","pbrMetallicRoughness":{"baseColorFactor":[0.6000000238418579,0.6000000238418579,0.6000000238418579,1.0],"metallicFactor":0.0},"extensions":{"KHR_materials_specular":{"specularFactor":1.0,"specularColorFactor":[0.0,0.0,0.0]},"KHR_materials_ior":{"ior":1.0}}},{"name":"material_0_material","pbrMetallicRoughness":{"baseColorTexture":{"index":0},"metallicFactor":0.0},"extensions":{"KHR_materials_specular":{"specularFactor":1.0,"specularColorFactor":[0.0,0.0,0.0]},"KHR_materials_ior":{"ior":1.0}}},{"name":"material_1_material","pbrMetallicRoughness":{"baseColorTexture":{"index":1},"metallicFactor":0.0},"extensions":{"KHR_materials_specular":{"specularFactor":1.0,"specularColorFactor":[0.0,0.0,0.0]},"KHR_materials_ior":{"ior":1.0}}}],"meshes":[{"name":"defaultobject","primitives":[{"mode":4,"material":1,"indices":2,"attributes":{"POSITION":0,"TEXCOORD_0":1}},{"mode":4,"material":2,"indices":5,"attributes":{"POSITION":3,"TEXCOORD_0":4}}]}],"nodes":[{"name":"tile_0045.obj","children":[1]},{"name":"defaultobject","mesh":0}],"samplers":[{},{}],"scenes":[{"nodes":[0]}],"textures":[{"source":0,"sampler":0},{"source":1,"sampler":1}],"scene":0}
