{"asset":{"version":"2.0","generator":"Open Asset Import Library (assimp v6.0.0)"},"extensionsUsed":["KHR_materials_specular","KHR_materials_volume","KHR_materials_ior","FB_ngon_encoding"],"accessors":[{"bufferView":0,"byteOffset":0,"componentType":5126,"count":2977,"type":"VEC3","max":[-2.046869993209839,-2.4788548946380615,2.3438894748687744],"min":[-2.3400216102600098,-2.760538339614868,2.2250738585072014e-308]},{"bufferView":1,"byteOffset":0,"componentType":5126,"count":2977,"type":"VEC2","max":[0.9808306694030762,0.8641128540039062],"min":[2.2250738585072014e-308,2.2250738585072014e-308]},{"bufferView":2,"byteOffset":0,"componentType":5125,"count":14103,"type":"SCALAR","max":[2976],"min":[0]},{"bufferView":3,"byteOffset":0,"componentType":5126,"count":3189,"type":"VEC3","max":[-2.0479366779327393,-2.4779067039489746,2.3438894748687744],"min":[-2.3402867317199707,-2.7613840103149414,2.2250738585072014e-308]},{"bufferView":4,"byteOffset":0,"componentType":5126,"count":3189,"type":"VEC2","max":[0.9596505165100098,0.5955162048339844],"min":[2.2250738585072014e-308,2.2250738585072014e-308]},{"bufferView":5,"byteOffset":0,"componentType":5125,"count":16044,"type":"SCALAR","max":[3188],"min":[0]}],"buffers":[{"byteLength":243908,"uri":"tile_0067.bin"}],"bufferViews":[{"buffer":0,"byteOffset":0,"byteLength":35724,"target":34962},{"buffer":0,"byteOffset":35724,"byteLength":23816,"target":34962},{"buffer":0,"byteOffset":59540,"byteLength":56412,"target":34963},{"buffer":0,"byteOffset":115952,"byteLength":38268,"target":34962},{"buffer":0,"byteOffset":154220,"byteLength":25512,"target":34962},{"buffer":0,"byteOffset":179732,"byteLength":64176,"target":34963}],"images":[{"uri":"../textures/tile_0067_material_0.jpg"},{"uri":"../textures/tile_0067_material_1.jpg"}],"materials":[{"name":"DefaultMaterial","pbrMetallicRoughness":{"baseColorFactor":[0.6000000238418579,0.6000000238418579,0.6000000238418579,1.0],"metallicFactor":0.0},"extensions":{"KHR_materials_specular":{"specularFactor":1.0,"specularColorFactor":[0.0,0.0,0.0]},"KHR_materials_ior":{"ior":1.0}}},{"name":"material_0_material","pbrMetallicRoughness":{"baseColorTexture":{"index":0},"metallicFactor":0.0},"extensions":{"KHR_materials_specular":{"specularFactor":1.0,"specularColorFactor":[0.0,0.0,0.0]},"KHR_materials_ior":{"ior":1.0}}},{"name":"material_1_material","pbrMetallicRoughness":{"baseColorTexture":{"index":1},"metallicFactor":0.0},"extensions":{"KHR_materials_specular":{"specularFactor":1.0,"specularColorFactor":[0.0,0.0,0.0]},"KHR_materials_ior":{"ior":1.0}}}],"meshes":[{"name":"defaultobject","primitives":[{"mode":4,"material":1,"indices":2,"attributes":{"POSITION":0,"TEXCOORD_0":1}},{"mode":4,"material":2,"indices":5,"attributes":{"POSITION":3,"TEXCOORD_0":4}}]}],"nodes":[{"name":"tile_0067.obj","children":[1]},{"name":"defaultobject","mesh":0}],"samplers":[{},{}],"scenes":[{"nodes":[0]}],"textures":[{"source":0,"sampler":0},{"source":1,"sampler":1}],"scene":0}
