{"asset":{"version":"2.0","generator":"Open Asset Import Library (assimp v6.0.0)"},"extensionsUsed":["KHR_materials_specular","KHR_materials_volume","KHR_materials_ior","FB_ngon_encoding"],"accessors":[{"bufferView":0,"byteOffset":0,"componentType":5126,"count":4167,"type":"VEC3","max":[-1.7673958539962769,-2.478980302810669,2.3377668857574463],"min":[-2.053402900695801,-2.761340856552124,2.2250738585072014e-308]},{"bufferView":1,"byteOffset":0,"componentType":5126,"count":4167,"type":"VEC2","max":[0.9916791915893555,0.5519313812255859],"min":[2.2250738585072014e-308,2.2250738585072014e-308]},{"bufferView":2,"byteOffset":0,"componentType":5125,"count":19674,"type":"SCALAR","max":[4166],"min":[0]},{"bufferView":3,"byteOffset":0,"componentType":5126,"count":2137,"type":"VEC3","max":[-1.7672336101531982,-2.480665683746338,2.3335609436035156],"min":[-2.0538384914398193,-2.762003183364868,2.2250738585072014e-308]},{"bufferView":4,"byteOffset":0,"componentType":5126,"count":2137,"type":"VEC2","max":[0.9619889259338379,0.6992568969726562],"min":[2.2250738585072014e-308,2.2250738585072014e-308]},{"bufferView":5,"byteOffset":0,"componentType":5125,"count":10995,"type":"SCALAR","max":[2136],"min":[0]}],"buffers":[{"byteLength":248756,"uri":"tile_0315.bin"}],"bufferViews":[{"buffer":0,"byteOffset":0,"byteLength":50004,"target":34962},{"buffer":0,"byteOffset":50004,"byteLength":33336,"target":34962},{"buffer":0,"byteOffset":83340,"byteLength":78696,"target":34963},{"buffer":0,"byteOffset":162036,"byteLength":25644,"target":34962},{"buffer":0,"byteOffset":187680,"byteLength":17096,"target":34962},{"buffer":0,"byteOffset":204776,"byteLength":43980,"target":34963}],"images":[{"uri":"../textures/tile_0315_material_0.jpg"},{"uri":"../textures/tile_0315_material_1.jpg"}],"materials":[{"name":"DefaultMaterial","pbrMetallicRoughness":{"baseColorFactor":[0.6000000238418579,0.6000000238418579,0.6000000238418579,1.0],"metallicFactor":0.0},"extensions":{"KHR_materials_specular":{"specularFactor":1.0,"specularColorFactor":[0.0,0.0,0.0]},"KHR_materials_ior":{"ior":1.0}}},{"name":"material_0_material","pbrMetallicRoughness":{"baseColorTexture":{"index":0},"metallicFactor":0.0},"extensions":{"KHR_materials_specular":{"specularFactor":1.0,"specularColorFactor":[0.0,0.0,0.0]},"KHR_materials_ior":{"ior":1.0}}},{"name":"material_1_material","pbrMetallicRoughness":{"baseColorTexture":{"index":1},"metallicFactor":0.0},"extensions":{"KHR_materials_specular":{"specularFactor":1.0,"specularColorFactor":[0.0,0.0,0.0]},"KHR_materials_ior":{"ior":1.0}}}],"meshes":[{"name":"defaultobject","primitives":[{"mode":4,"material":1,"indices":2,"attributes":{"POSITION":0,"TEXCOORD_0":1}},{"mode":4,"material":2,"indices":5,"attributes":{"POSITION":3,"TEXCOORD_0":4}}]}],"nodes":[{"name":"tile_0315.obj","children":[1]},{"name":"defaultobject","mesh":0}],"samplers":[{},{}],"scenes":[{"nodes":[0]}],"textures":[{"source":0,"sampler":0},{"source":1,"sampler":1}],"scene":0}
