{"asset":{"version":"2.0","generator":"Open Asset Import Library (assimp v6.0.0)"},"extensionsUsed":["KHR_materials_specular","KHR_materials_volume","KHR_materials_ior","FB_ngon_encoding"],"accessors":[{"bufferView":0,"byteOffset":0,"componentType":5126,"count":4134,"type":"VEC3","max":[-0.10329779982566833,1.7308119535446167,4.372000217437744],"min":[-0.4267909824848175,2.2250738585072014e-308,2.2250738585072014e-308]},{"bufferView":1,"byteOffset":0,"componentType":5126,"count":4134,"type":"VEC2","max":[0.9960289001464844,0.4919261932373047],"min":[2.2250738585072014e-308,2.2250738585072014e-308]},{"bufferView":2,"byteOffset":0,"componentType":5125,"count":16950,"type":"SCALAR","max":[4133],"min":[0]},{"bufferView":3,"byteOffset":0,"componentType":5126,"count":461,"type":"VEC3","max":[-0.1051744669675827,1.516653299331665,4.319522380828857],"min":[-0.30855849385261536,2.2250738585072014e-308,2.2250738585072014e-308]},{"bufferView":4,"byteOffset":0,"componentType":5126,"count":461,"type":"VEC2","max":[0.8404693603515625,0.5932769775390625],"min":[2.2250738585072014e-308,2.2250738585072014e-308]},{"bufferView":5,"byteOffset":0,"componentType":5125,"count":2268,"type":"SCALAR","max":[460],"min":[0]}],"buffers":[{"byteLength":168772,"uri":"tile_0152.bin"}],"bufferViews":[{"buffer":0,"byteOffset":0,"byteLength":49608,"target":34962},{"buffer":0,"byteOffset":49608,"byteLength":33072,"target":34962},{"buffer":0,"byteOffset":82680,"byteLength":67800,"target":34963},{"buffer":0,"byteOffset":150480,"byteLength":5532,"target":34962},{"buffer":0,"byteOffset":156012,"byteLength":3688,"target":34962},{"buffer":0,"byteOffset":159700,"byteLength":9072,"target":34963}],"images":[{"uri":"../textures/tile_0152_material_0.jpg"},{"uri":"../textures/tile_0152_material_1.jpg"}],"materials":[{"name":"DefaultMaterial","pbrMetallicRoughness":{"baseColorFactor":[0.6000000238418579,0.6000000238418579,0.6000000238418579,1.0],"metallicFactor":0.0},"extensions":{"KHR_materials_specular":{"specularFactor":1.0,"specularColorFactor":[0.0,0.0,0.0]},"KHR_materials_ior":{"ior":1.0}}},{"name":"material_0_material","pbrMetallicRoughness":{"baseColorTexture":{"index":0},"metallicFactor":0.0},"extensions":{"KHR_materials_specular":{"specularFactor":1.0,"specularColorFactor":[0.0,0.0,0.0]},"KHR_materials_ior":{"ior":1.0}}},{"name":"material_1_material","pbrMetallicRoughness":{"baseColorTexture":{"index":1},"metallicFactor":0.0},"extensions":{"KHR_materials_specular":{"specularFactor":1.0,"specularColorFactor":[0.0,0.0,0.0]},"KHR_materials_ior":{"ior":1.0}}}],"meshes":[{"name":"defaultobject","primitives":[{"mode":4,"material":1,"indices":2,"attributes":{"POSITION":0,"TEXCOORD_0":1}},{"mode":4,"material":2,"indices":5,"attributes":{"POSITION":3,"TEXCOORD_0":4}}]}],"nodes":[{"name":"tile_0152.obj","children":[1]},{"name":"defaultobject","mesh":0}],"samplers":[{},{}],"scenes":[{"nodes":[0]}],"textures":[{"source":0,"sampler":0},{"source":1,"sampler":1}],"scene":0}
