{"asset":{"version":"2.0","generator":"Open Asset Import Library (assimp v6.0.0)"},"extensionsUsed":["KHR_materials_specular","KHR_materials_volume","KHR_materials_ior","FB_ngon_encoding"],"accessors":[{"bufferView":0,"byteOffset":0,"componentType":5126,"count":4811,"type":"VEC3","max":[-0.17794133722782135,-0.5261093974113464,2.933917284011841],"min":[-0.42526668310165405,-0.7844023704528809,2.2250738585072014e-308]},{"bufferView":1,"byteOffset":0,"componentType":5126,"count":4811,"type":"VEC2","max":[0.9955816268920898,0.6990070343017578],"min":[2.2250738585072014e-308,2.2250738585072014e-308]},{"bufferView":2,"byteOffset":0,"componentType":5125,"count":21993,"type":"SCALAR","max":[4810],"min":[0]},{"bufferView":3,"byteOffset":0,"componentType":5126,"count":388,"type":"VEC3","max":[-0.19006071984767914,-0.5313604474067688,2.932000160217285],"min":[-0.4243555963039398,-0.7823439836502075,2.2250738585072014e-308]},{"bufferView":4,"byteOffset":0,"componentType":5126,"count":388,"type":"VEC2","max":[0.7433605194091797,0.7347984313964844],"min":[2.2250738585072014e-308,2.2250738585072014e-308]},{"bufferView":5,"byteOffset":0,"componentType":5125,"count":1749,"type":"SCALAR","max":[387],"min":[0]}],"buffers":[{"byteLength":198948,"uri":"tile_0084.bin"}],"bufferViews":[{"buffer":0,"byteOffset":0,"byteLength":57732,"target":34962},{"buffer":0,"byteOffset":57732,"byteLength":38488,"target":34962},{"buffer":0,"byteOffset":96220,"byteLength":87972,"target":34963},{"buffer":0,"byteOffset":184192,"byteLength":4656,"target":34962},{"buffer":0,"byteOffset":188848,"byteLength":3104,"target":34962},{"buffer":0,"byteOffset":191952,"byteLength":6996,"target":34963}],"images":[{"uri":"../textures/tile_0084_material_0.jpg"},{"uri":"../textures/tile_0084_material_1.jpg"}],"materials":[{"name":"DefaultMaterial","pbrMetallicRoughness":{"baseColorFactor":[0.6000000238418579,0.6000000238418579,0.6000000238418579,1.0],"metallicFactor":0.0},"extensions":{"KHR_materials_specular":{"specularFactor":1.0,"specularColorFactor":[0.0,0.0,0.0]},"KHR_materials_ior":{"ior":1.0}}},{"name":"material_0_material","pbrMetallicRoughness":{"baseColorTexture":{"index":0},"metallicFactor":0.0},"extensions":{"KHR_materials_specular":{"specularFactor":1.0,"specularColorFactor":[0.0,0.0,0.0]},"KHR_materials_ior":{"ior":1.0}}},{"name":"material_1_material","pbrMetallicRoughness":{"baseColorTexture":{"index":1},"metallicFactor":0.0},"extensions":{"KHR_materials_specular":{"specularFactor":1.0,"specularColorFactor":[0.0,0.0,0.0]},"KHR_materials_ior":{"ior":1.0}}}],"meshes":[{"name":"defaultobject","primitives":[{"mode":4,"material":1,"indices":2,"attributes":{"POSITION":0,"TEXCOORD_0":1}},{"mode":4,"material":2,"indices":5,"attributes":{"POSITION":3,"TEXCOORD_0":4}}]}],"nodes":[{"name":"tile_0084.obj","children":[1]},{"name":"defaultobject","mesh":0}],"samplers":[{},{}],"scenes":[{"nodes":[0]}],"textures":[{"source":0,"sampler":0},{"source":1,"sampler":1}],"scene":0}
