{"asset":{"version":"2.0","generator":"Open Asset Import Library (assimp v6.0.0)"},"extensionsUsed":["KHR_materials_specular","KHR_materials_volume","KHR_materials_ior","FB_ngon_encoding"],"accessors":[{"bufferView":0,"byteOffset":0,"componentType":5126,"count":4571,"type":"VEC3","max":[-1.3560807704925537,6.211489677429199,5.021757125854492],"min":[-1.6586662530899048,2.2250738585072014e-308,2.2250738585072014e-308]},{"bufferView":1,"byteOffset":0,"componentType":5126,"count":4571,"type":"VEC2","max":[0.9743175506591797,0.7564773559570312],"min":[2.2250738585072014e-308,2.2250738585072014e-308]},{"bufferView":2,"byteOffset":0,"componentType":5125,"count":21036,"type":"SCALAR","max":[4570],"min":[0]},{"bufferView":3,"byteOffset":0,"componentType":5126,"count":623,"type":"VEC3","max":[-1.3632607460021973,6.208155155181885,4.974184989929199],"min":[-1.6577835083007812,2.2250738585072014e-308,2.2250738585072014e-308]},{"bufferView":4,"byteOffset":0,"componentType":5126,"count":623,"type":"VEC2","max":[0.6009225845336914,0.7828216552734375],"min":[2.2250738585072014e-308,2.2250738585072014e-308]},{"bufferView":5,"byteOffset":0,"componentType":5125,"count":3045,"type":"SCALAR","max":[622],"min":[0]}],"buffers":[{"byteLength":200204,"uri":"tile_0104.bin"}],"bufferViews":[{"buffer":0,"byteOffset":0,"byteLength":54852,"target":34962},{"buffer":0,"byteOffset":54852,"byteLength":36568,"target":34962},{"buffer":0,"byteOffset":91420,"byteLength":84144,"target":34963},{"buffer":0,"byteOffset":175564,"byteLength":7476,"target":34962},{"buffer":0,"byteOffset":183040,"byteLength":4984,"target":34962},{"buffer":0,"byteOffset":188024,"byteLength":12180,"target":34963}],"images":[{"uri":"../textures/tile_0104_material_0.jpg"},{"uri":"../textures/tile_0104_material_1.jpg"}],"materials":[{"name":"DefaultMaterial","pbrMetallicRoughness":{"baseColorFactor":[0.6000000238418579,0.6000000238418579,0.6000000238418579,1.0],"metallicFactor":0.0},"extensions":{"KHR_materials_specular":{"specularFactor":1.0,"specularColorFactor":[0.0,0.0,0.0]},"KHR_materials_ior":{"ior":1.0}}},{"name":"material_0_material","pbrMetallicRoughness":{"baseColorTexture":{"index":0},"metallicFactor":0.0},"extensions":{"KHR_materials_specular":{"specularFactor":1.0,"specularColorFactor":[0.0,0.0,0.0]},"KHR_materials_ior":{"ior":1.0}}},{"name":"material_1_material","pbrMetallicRoughness":{"baseColorTexture":{"index":1},"metallicFactor":0.0},"extensions":{"KHR_materials_specular":{"specularFactor":1.0,"specularColorFactor":[0.0,0.0,0.0]},"KHR_materials_ior":{"ior":1.0}}}],"meshes":[{"name":"defaultobject","primitives":[{"mode":4,"material":1,"indices":2,"attributes":{"POSITION":0,"TEXCOORD_0":1}},{"mode":4,"material":2,"indices":5,"attributes":{"POSITION":3,"TEXCOORD_0":4}}]}],"nodes":[{"name":"tile_0104.obj","children":[1]},{"name":"defaultobject","mesh":0}],"samplers":[{},{}],"scenes":[{"nodes":[0]}],"textures":[{"source":0,"sampler":0},{"source":1,"sampler":1}],"scene":0}
