{"asset":{"version":"2.0","generator":"Open Asset Import Library (assimp v6.0.0)"},"extensionsUsed":["KHR_materials_specular","KHR_materials_volume","KHR_materials_ior","FB_ngon_encoding"],"accessors":[{"bufferView":0,"byteOffset":0,"componentType":5126,"count":4435,"type":"VEC3","max":[1.6169893741607666,-2.879546642303467,2.7931675910949707],"min":[2.2250738585072014e-308,-3.1208853721618652,2.2250738585072014e-308]},{"bufferView":1,"byteOffset":0,"componentType":5126,"count":4435,"type":"VEC2","max":[0.9902071952819824,0.9372062683105469],"min":[2.2250738585072014e-308,2.2250738585072014e-308]},{"bufferView":2,"byteOffset":0,"componentType":5125,"count":19089,"type":"SCALAR","max":[4434],"min":[0]},{"bufferView":3,"byteOffset":0,"componentType":5126,"count":518,"type":"VEC3","max":[1.6171571016311646,-2.8796868324279785,2.69107985496521],"min":[2.2250738585072014e-308,-2.9741644859313965,2.2250738585072014e-308]},{"bufferView":4,"byteOffset":0,"componentType":5126,"count":518,"type":"VEC2","max":[0.6061286926269531,0.5926361083984375],"min":[2.2250738585072014e-308,2.2250738585072014e-308]},{"bufferView":5,"byteOffset":0,"componentType":5125,"count":2577,"type":"SCALAR","max":[517],"min":[0]}],"buffers":[{"byteLength":185724,"uri":"tile_0791.bin"}],"bufferViews":[{"buffer":0,"byteOffset":0,"byteLength":53220,"target":34962},{"buffer":0,"byteOffset":53220,"byteLength":35480,"target":34962},{"buffer":0,"byteOffset":88700,"byteLength":76356,"target":34963},{"buffer":0,"byteOffset":165056,"byteLength":6216,"target":34962},{"buffer":0,"byteOffset":171272,"byteLength":4144,"target":34962},{"buffer":0,"byteOffset":175416,"byteLength":10308,"target":34963}],"images":[{"uri":"../textures/tile_0791_material_0.jpg"},{"uri":"../textures/tile_0791_material_1.jpg"}],"materials":[{"name":"DefaultMaterial","pbrMetallicRoughness":{"baseColorFactor":[0.6000000238418579,0.6000000238418579,0.6000000238418579,1.0],"metallicFactor":0.0},"extensions":{"KHR_materials_specular":{"specularFactor":1.0,"specularColorFactor":[0.0,0.0,0.0]},"KHR_materials_ior":{"ior":1.0}}},{"name":"material_0_material","pbrMetallicRoughness":{"baseColorTexture":{"index":0},"metallicFactor":0.0},"extensions":{"KHR_materials_specular":{"specularFactor":1.0,"specularColorFactor":[0.0,0.0,0.0]},"KHR_materials_ior":{"ior":1.0}}},{"name":"material_1_material","pbrMetallicRoughness":{"baseColorTexture":{"index":1},"metallicFactor":0.0},"extensions":{"KHR_materials_specular":{"specularFactor":1.0,"specularColorFactor":[0.0,0.0,0.0]},"KHR_materials_ior":{"ior":1.0}}}],"meshes":[{"name":"defaultobject","primitives":[{"mode":4,"material":1,"indices":2,"attributes":{"POSITION":0,"TEXCOORD_0":1}},{"mode":4,"material":2,"indices":5,"attributes":{"POSITION":3,"TEXCOORD_0":4}}]}],"nodes":[{"name":"tile_0791.obj","children":[1]},{"name":"defaultobject","mesh":0}],"samplers":[{},{}],"scenes":[{"nodes":[0]}],"textures":[{"source":0,"sampler":0},{"source":1,"sampler":1}],"scene":0}
