{"asset":{"version":"2.0","generator":"Open Asset Import Library (assimp v6.0.0)"},"extensionsUsed":["KHR_materials_specular","KHR_materials_volume","KHR_materials_ior","FB_ngon_encoding"],"accessors":[{"bufferView":0,"byteOffset":0,"componentType":5126,"count":3319,"type":"VEC3","max":[-1.3602954149246216,-4.428184509277344,2.2199532985687256],"min":[-1.5163254737854004,-4.759732723236084,2.2250738585072014e-308]},{"bufferView":1,"byteOffset":0,"componentType":5126,"count":3319,"type":"VEC2","max":[0.9958163499832153,0.5243682861328125],"min":[2.2250738585072014e-308,2.2250738585072014e-308]},{"bufferView":2,"byteOffset":0,"componentType":5125,"count":14514,"type":"SCALAR","max":[3318],"min":[0]},{"bufferView":3,"byteOffset":0,"componentType":5126,"count":257,"type":"VEC3","max":[-1.3890759944915771,-4.691368579864502,1.8842628002166748],"min":[-1.5049651861190796,-4.7395734786987305,2.2250738585072014e-308]},{"bufferView":4,"byteOffset":0,"componentType":5126,"count":257,"type":"VEC2","max":[0.6357650756835938,0.6668472290039062],"min":[2.2250738585072014e-308,2.2250738585072014e-308]},{"bufferView":5,"byteOffset":0,"componentType":5125,"count":1278,"type":"SCALAR","max":[256],"min":[0]}],"buffers":[{"byteLength":134688,"uri":"tile_0296.bin"}],"bufferViews":[{"buffer":0,"byteOffset":0,"byteLength":39828,"target":34962},{"buffer":0,"byteOffset":39828,"byteLength":26552,"target":34962},{"buffer":0,"byteOffset":66380,"byteLength":58056,"target":34963},{"buffer":0,"byteOffset":124436,"byteLength":3084,"target":34962},{"buffer":0,"byteOffset":127520,"byteLength":2056,"target":34962},{"buffer":0,"byteOffset":129576,"byteLength":5112,"target":34963}],"images":[{"uri":"../textures/tile_0296_material_0.jpg"},{"uri":"../textures/tile_0296_material_1.jpg"}],"materials":[{"name":"DefaultMaterial","pbrMetallicRoughness":{"baseColorFactor":[0.6000000238418579,0.6000000238418579,0.6000000238418579,1.0],"metallicFactor":0.0},"extensions":{"KHR_materials_specular":{"specularFactor":1.0,"specularColorFactor":[0.0,0.0,0.0]},"KHR_materials_ior":{"ior":1.0}}},{"name":"material_0_material","pbrMetallicRoughness":{"baseColorTexture":{"index":0},"metallicFactor":0.0},"extensions":{"KHR_materials_specular":{"specularFactor":1.0,"specularColorFactor":[0.0,0.0,0.0]},"KHR_materials_ior":{"ior":1.0}}},{"name":"material_1_material","pbrMetallicRoughness":{"baseColorTexture":{"index":1},"metallicFactor":0.0},"extensions":{"KHR_materials_specular":{"specularFactor":1.0,"specularColorFactor":[0.0,0.0,0.0]},"KHR_materials_ior":{"ior":1.0}}}],"meshes":[{"name":"defaultobject","primitives":[{"mode":4,"material":1,"indices":2,"attributes":{"POSITION":0,"TEXCOORD_0":1}},{"mode":4,"material":2,"indices":5,"attributes":{"POSITION":3,"TEXCOORD_0":4}}]}],"nodes":[{"name":"tile_0296.obj","children":[1]},{"name":"defaultobject","mesh":0}],"samplers":[{},{}],"scenes":[{"nodes":[0]}],"textures":[{"source":0,"sampler":0},{"source":1,"sampler":1}],"scene":0}
