{"asset":{"version":"2.0","generator":"Open Asset Import Library (assimp v6.0.0)"},"extensionsUsed":["KHR_materials_specular","KHR_materials_volume","KHR_materials_ior","FB_ngon_encoding"],"accessors":[{"bufferView":0,"byteOffset":0,"componentType":5126,"count":2852,"type":"VEC3","max":[4.911491394042969,-0.06833191215991974,4.14816951751709],"min":[2.2250738585072014e-308,-0.3366774022579193,2.2250738585072014e-308]},{"bufferView":1,"byteOffset":0,"componentType":5126,"count":2852,"type":"VEC2","max":[0.9947800636291504,0.9526214599609375],"min":[2.2250738585072014e-308,2.2250738585072014e-308]},{"bufferView":2,"byteOffset":0,"componentType":5125,"count":11988,"type":"SCALAR","max":[2851],"min":[0]},{"bufferView":3,"byteOffset":0,"componentType":5126,"count":1789,"type":"VEC3","max":[4.9104905128479,-0.06945230811834335,4.143224716186523],"min":[2.2250738585072014e-308,-0.33237531781196594,2.2250738585072014e-308]},{"bufferView":4,"byteOffset":0,"componentType":5126,"count":1789,"type":"VEC2","max":[0.8631858825683594,0.9404220581054688],"min":[2.2250738585072014e-308,2.2250738585072014e-308]},{"bufferView":5,"byteOffset":0,"componentType":5125,"count":8514,"type":"SCALAR","max":[1788],"min":[0]}],"buffers":[{"byteLength":174828,"uri":"tile_0211.bin"}],"bufferViews":[{"buffer":0,"byteOffset":0,"byteLength":34224,"target":34962},{"buffer":0,"byteOffset":34224,"byteLength":22816,"target":34962},{"buffer":0,"byteOffset":57040,"byteLength":47952,"target":34963},{"buffer":0,"byteOffset":104992,"byteLength":21468,"target":34962},{"buffer":0,"byteOffset":126460,"byteLength":14312,"target":34962},{"buffer":0,"byteOffset":140772,"byteLength":34056,"target":34963}],"images":[{"uri":"../textures/tile_0211_material_0.jpg"},{"uri":"../textures/tile_0211_material_1.jpg"}],"materials":[{"name":"DefaultMaterial","pbrMetallicRoughness":{"baseColorFactor":[0.6000000238418579,0.6000000238418579,0.6000000238418579,1.0],"metallicFactor":0.0},"extensions":{"KHR_materials_specular":{"specularFactor":1.0,"specularColorFactor":[0.0,0.0,0.0]},"KHR_materials_ior":{"ior":1.0}}},{"name":"material_0_material","pbrMetallicRoughness":{"baseColorTexture":{"index":0},"metallicFactor":0.0},"extensions":{"KHR_materials_specular":{"specularFactor":1.0,"specularColorFactor":[0.0,0.0,0.0]},"KHR_materials_ior":{"ior":1.0}}},{"name":"material_1_material","pbrMetallicRoughness":{"baseColorTexture":{"index":1},"metallicFactor":0.0},"extensions":{"KHR_materials_specular":{"specularFactor":1.0,"specularColorFactor":[0.0,0.0,0.0]},"KHR_materials_ior":{"ior":1.0}}}],"meshes":[{"name":"defaultobject","primitives":[{"mode":4,"material":1,"indices":2,"attributes":{"POSITION":0,"TEXCOORD_0":1}},{"mode":4,"material":2,"indices":5,"attributes":{"POSITION":3,"TEXCOORD_0":4}}]}],"nodes":[{"name":"tile_0211.obj","children":[1]},{"name":"defaultobject","mesh":0}],"samplers":[{},{}],"scenes":[{"nodes":[0]}],"textures":[{"source":0,"sampler":0},{"source":1,"sampler":1}],"scene":0}
