{"asset":{"version":"2.0","generator":"Open Asset Import Library (assimp v6.0.0)"},"extensionsUsed":["KHR_materials_specular","KHR_materials_volume","KHR_materials_ior","FB_ngon_encoding"],"accessors":[{"bufferView":0,"byteOffset":0,"componentType":5126,"count":3059,"type":"VEC3","max":[-2.334571361541748,-1.6489969491958618,2.6259589195251465],"min":[-2.681912660598755,-1.950483798980713,2.2250738585072014e-308]},{"bufferView":1,"byteOffset":0,"componentType":5126,"count":3059,"type":"VEC2","max":[0.9800679683685303,0.8488693237304688],"min":[2.2250738585072014e-308,2.2250738585072014e-308]},{"bufferView":2,"byteOffset":0,"componentType":5125,"count":15189,"type":"SCALAR","max":[3058],"min":[0]},{"bufferView":3,"byteOffset":0,"componentType":5126,"count":2770,"type":"VEC3","max":[-2.3322601318359375,-1.6500487327575684,2.6389706134796143],"min":[-2.686262369155884,-1.9494359493255615,2.2250738585072014e-308]},{"bufferView":4,"byteOffset":0,"componentType":5126,"count":2770,"type":"VEC2","max":[0.5614705085754395,0.7558460235595703],"min":[2.2250738585072014e-308,2.2250738585072014e-308]},{"bufferView":5,"byteOffset":0,"componentType":5125,"count":14751,"type":"SCALAR","max":[2769],"min":[0]}],"buffers":[{"byteLength":236340,"uri":"tile_0069.bin"}],"bufferViews":[{"buffer":0,"byteOffset":0,"byteLength":36708,"target":34962},{"buffer":0,"byteOffset":36708,"byteLength":24472,"target":34962},{"buffer":0,"byteOffset":61180,"byteLength":60756,"target":34963},{"buffer":0,"byteOffset":121936,"byteLength":33240,"target":34962},{"buffer":0,"byteOffset":155176,"byteLength":22160,"target":34962},{"buffer":0,"byteOffset":177336,"byteLength":59004,"target":34963}],"images":[{"uri":"../textures/tile_0069_material_0.jpg"},{"uri":"../textures/tile_0069_material_1.jpg"}],"materials":[{"name":"DefaultMaterial","pbrMetallicRoughness":{"baseColorFactor":[0.6000000238418579,0.6000000238418579,0.6000000238418579,1.0],"metallicFactor":0.0},"extensions":{"KHR_materials_specular":{"specularFactor":1.0,"specularColorFactor":[0.0,0.0,0.0]},"KHR_materials_ior":{"ior":1.0}}},{"name":"material_0_material","pbrMetallicRoughness":{"baseColorTexture":{"index":0},"metallicFactor":0.0},"extensions":{"KHR_materials_specular":{"specularFactor":1.0,"specularColorFactor":[0.0,0.0,0.0]},"KHR_materials_ior":{"ior":1.0}}},{"name":"material_1_material","pbrMetallicRoughness":{"baseColorTexture":{"index":1},"metallicFactor":0.0},"extensions":{"KHR_materials_specular":{"specularFactor":1.0,"specularColorFactor":[0.0,0.0,0.0]},"KHR_materials_ior":{"ior":1.0}}}],"meshes":[{"name":"defaultobject","primitives":[{"mode":4,"material":1,"indices":2,"attributes":{"POSITION":0,"TEXCOORD_0":1}},{"mode":4,"material":2,"indices":5,"attributes":{"POSITION":3,"TEXCOORD_0":4}}]}],"nodes":[{"name":"tile_0069.obj","children":[1]},{"name":"defaultobject","mesh":0}],"samplers":[{},{}],"scenes":[{"nodes":[0]}],"textures":[{"source":0,"sampler":0},{"source":1,"sampler":1}],"scene":0}
