{"asset":{"version":"2.0","generator":"Open Asset Import Library (assimp v6.0.0)"},"extensionsUsed":["KHR_materials_specular","KHR_materials_volume","KHR_materials_ior","FB_ngon_encoding"],"accessors":[{"bufferView":0,"byteOffset":0,"componentType":5126,"count":3995,"type":"VEC3","max":[-0.23036935925483704,-1.255466103553772,2.7696025371551514],"min":[-0.42534568905830383,-1.4924932718276978,2.2250738585072014e-308]},{"bufferView":1,"byteOffset":0,"componentType":5126,"count":3995,"type":"VEC2","max":[0.990375280380249,0.5038566589355469],"min":[2.2250738585072014e-308,2.2250738585072014e-308]},{"bufferView":2,"byteOffset":0,"componentType":5125,"count":18447,"type":"SCALAR","max":[3994],"min":[0]},{"bufferView":3,"byteOffset":0,"componentType":5126,"count":877,"type":"VEC3","max":[-0.23414768278598785,-1.331667184829712,2.6293892860412598],"min":[-0.42479151487350464,-1.4925323724746704,2.2250738585072014e-308]},{"bufferView":4,"byteOffset":0,"componentType":5126,"count":877,"type":"VEC2","max":[0.6310086250305176,0.5737724304199219],"min":[2.2250738585072014e-308,2.2250738585072014e-308]},{"bufferView":5,"byteOffset":0,"componentType":5125,"count":4245,"type":"SCALAR","max":[876],"min":[0]}],"buffers":[{"byteLength":188208,"uri":"tile_0061.bin"}],"bufferViews":[{"buffer":0,"byteOffset":0,"byteLength":47940,"target":34962},{"buffer":0,"byteOffset":47940,"byteLength":31960,"target":34962},{"buffer":0,"byteOffset":79900,"byteLength":73788,"target":34963},{"buffer":0,"byteOffset":153688,"byteLength":10524,"target":34962},{"buffer":0,"byteOffset":164212,"byteLength":7016,"target":34962},{"buffer":0,"byteOffset":171228,"byteLength":16980,"target":34963}],"images":[{"uri":"../textures/tile_0061_material_0.jpg"},{"uri":"../textures/tile_0061_material_1.jpg"}],"materials":[{"name":"DefaultMaterial","pbrMetallicRoughness":{"baseColorFactor":[0.6000000238418579,0.6000000238418579,0.6000000238418579,1.0],"metallicFactor":0.0},"extensions":{"KHR_materials_specular":{"specularFactor":1.0,"specularColorFactor":[0.0,0.0,0.0]},"KHR_materials_ior":{"ior":1.0}}},{"name":"material_0_material","pbrMetallicRoughness":{"baseColorTexture":{"index":0},"metallicFactor":0.0},"extensions":{"KHR_materials_specular":{"specularFactor":1.0,"specularColorFactor":[0.0,0.0,0.0]},"KHR_materials_ior":{"ior":1.0}}},{"name":"material_1_material","pbrMetallicRoughness":{"baseColorTexture":{"index":1},"metallicFactor":0.0},"extensions":{"KHR_materials_specular":{"specularFactor":1.0,"specularColorFactor":[0.0,0.0,0.0]},"KHR_materials_ior":{"ior":1.0}}}],"meshes":[{"name":"defaultobject","primitives":[{"mode":4,"material":1,"indices":2,"attributes":{"POSITION":0,"TEXCOORD_0":1}},{"mode":4,"material":2,"indices":5,"attributes":{"POSITION":3,"TEXCOORD_0":4}}]}],"nodes":[{"name":"tile_0061.obj","children":[1]},{"name":"defaultobject","mesh":0}],"samplers":[{},{}],"scenes":[{"nodes":[0]}],"textures":[{"source":0,"sampler":0},{"source":1,"sampler":1}],"scene":0}
