{"asset":{"version":"2.0","generator":"Open Asset Import Library (assimp v6.0.0)"},"extensionsUsed":["KHR_materials_specular","KHR_materials_volume","KHR_materials_ior","FB_ngon_encoding"],"accessors":[{"bufferView":0,"byteOffset":0,"componentType":5126,"count":2892,"type":"VEC3","max":[-4.832637310028076,0.12848733365535736,4.069660186767578],"min":[-5.357516288757324,-0.1764732301235199,2.2250738585072014e-308]},{"bufferView":1,"byteOffset":0,"componentType":5126,"count":2892,"type":"VEC2","max":[0.9938249588012695,0.9197425842285156],"min":[2.2250738585072014e-308,2.2250738585072014e-308]},{"bufferView":2,"byteOffset":0,"componentType":5125,"count":12519,"type":"SCALAR","max":[2891],"min":[0]},{"bufferView":3,"byteOffset":0,"componentType":5126,"count":1389,"type":"VEC3","max":[-4.834757328033447,0.1276480108499527,4.055150032043457],"min":[-5.2336039543151855,-0.17644117772579193,2.2250738585072014e-308]},{"bufferView":4,"byteOffset":0,"componentType":5126,"count":1389,"type":"VEC2","max":[0.7960925102233887,0.49646759033203125],"min":[2.2250738585072014e-308,2.2250738585072014e-308]},{"bufferView":5,"byteOffset":0,"componentType":5125,"count":6978,"type":"SCALAR","max":[1388],"min":[0]}],"buffers":[{"byteLength":163608,"uri":"tile_0450.bin"}],"bufferViews":[{"buffer":0,"byteOffset":0,"byteLength":34704,"target":34962},{"buffer":0,"byteOffset":34704,"byteLength":23136,"target":34962},{"buffer":0,"byteOffset":57840,"byteLength":50076,"target":34963},{"buffer":0,"byteOffset":107916,"byteLength":16668,"target":34962},{"buffer":0,"byteOffset":124584,"byteLength":11112,"target":34962},{"buffer":0,"byteOffset":135696,"byteLength":27912,"target":34963}],"images":[{"uri":"../textures/tile_0450_material_0.jpg"},{"uri":"../textures/tile_0450_material_1.jpg"}],"materials":[{"name":"DefaultMaterial","pbrMetallicRoughness":{"baseColorFactor":[0.6000000238418579,0.6000000238418579,0.6000000238418579,1.0],"metallicFactor":0.0},"extensions":{"KHR_materials_specular":{"specularFactor":1.0,"specularColorFactor":[0.0,0.0,0.0]},"KHR_materials_ior":{"ior":1.0}}},{"name":"material_0_material","pbrMetallicRoughness":{"baseColorTexture":{"index":0},"metallicFactor":0.0},"extensions":{"KHR_materials_specular":{"specularFactor":1.0,"specularColorFactor":[0.0,0.0,0.0]},"KHR_materials_ior":{"ior":1.0}}},{"name":"material_1_material","pbrMetallicRoughness":{"baseColorTexture":{"index":1},"metallicFactor":0.0},"extensions":{"KHR_materials_specular":{"specularFactor":1.0,"specularColorFactor":[0.0,0.0,0.0]},"KHR_materials_ior":{"ior":1.0}}}],"meshes":[{"name":"defaultobject","primitives":[{"mode":4,"material":1,"indices":2,"attributes":{"POSITION":0,"TEXCOORD_0":1}},{"mode":4,"material":2,"indices":5,"attributes":{"POSITION":3,"TEXCOORD_0":4}}]}],"nodes":[{"name":"tile_0450.obj","children":[1]},{"name":"defaultobject","mesh":0}],"samplers":[{},{}],"scenes":[{"nodes":[0]}],"textures":[{"source":0,"sampler":0},{"source":1,"sampler":1}],"scene":0}
