{"asset":{"version":"2.0","generator":"Open Asset Import Library (assimp v6.0.0)"},"extensionsUsed":["KHR_materials_specular","KHR_materials_volume","KHR_materials_ior","FB_ngon_encoding"],"accessors":[{"bufferView":0,"byteOffset":0,"componentType":5126,"count":6744,"type":"VEC3","max":[0.37106767296791077,-3.3669607639312744,2.828461170196533],"min":[2.2250738585072014e-308,-3.706880569458008,2.2250738585072014e-308]},{"bufferView":1,"byteOffset":0,"componentType":5126,"count":6744,"type":"VEC2","max":[0.9901366233825684,0.7656135559082031],"min":[2.2250738585072014e-308,2.2250738585072014e-308]},{"bufferView":2,"byteOffset":0,"componentType":5125,"count":28698,"type":"SCALAR","max":[6743],"min":[0]},{"bufferView":3,"byteOffset":0,"componentType":5126,"count":221,"type":"VEC3","max":[0.20865847170352936,-3.6021480560302734,2.828214168548584],"min":[2.2250738585072014e-308,-3.67910099029541,2.2250738585072014e-308]},{"bufferView":4,"byteOffset":0,"componentType":5126,"count":221,"type":"VEC2","max":[0.5534648895263672,0.7352981567382812],"min":[2.2250738585072014e-308,2.2250738585072014e-308]},{"bufferView":5,"byteOffset":0,"componentType":5125,"count":1116,"type":"SCALAR","max":[220],"min":[0]}],"buffers":[{"byteLength":258556,"uri":"tile_0777.bin"}],"bufferViews":[{"buffer":0,"byteOffset":0,"byteLength":80928,"target":34962},{"buffer":0,"byteOffset":80928,"byteLength":53952,"target":34962},{"buffer":0,"byteOffset":134880,"byteLength":114792,"target":34963},{"buffer":0,"byteOffset":249672,"byteLength":2652,"target":34962},{"buffer":0,"byteOffset":252324,"byteLength":1768,"target":34962},{"buffer":0,"byteOffset":254092,"byteLength":4464,"target":34963}],"images":[{"uri":"../textures/tile_0777_material_0.jpg"},{"uri":"../textures/tile_0777_material_1.jpg"}],"materials":[{"name":"DefaultMaterial","pbrMetallicRoughness":{"baseColorFactor":[0.6000000238418579,0.6000000238418579,0.6000000238418579,1.0],"metallicFactor":0.0},"extensions":{"KHR_materials_specular":{"specularFactor":1.0,"specularColorFactor":[0.0,0.0,0.0]},"KHR_materials_ior":{"ior":1.0}}},{"name":"material_0_material","pbrMetallicRoughness":{"baseColorTexture":{"index":0},"metallicFactor":0.0},"extensions":{"KHR_materials_specular":{"specularFactor":1.0,"specularColorFactor":[0.0,0.0,0.0]},"KHR_materials_ior":{"ior":1.0}}},{"name":"material_1_material","pbrMetallicRoughness":{"baseColorTexture":{"index":1},"metallicFactor":0.0},"extensions":{"KHR_materials_specular":{"specularFactor":1.0,"specularColorFactor":[0.0,0.0,0.0]},"KHR_materials_ior":{"ior":1.0}}}],"meshes":[{"name":"defaultobject","primitives":[{"mode":4,"material":1,"indices":2,"attributes":{"POSITION":0,"TEXCOORD_0":1}},{"mode":4,"material":2,"indices":5,"attributes":{"POSITION":3,"TEXCOORD_0":4}}]}],"nodes":[{"name":"tile_0777.obj","children":[1]},{"name":"defaultobject","mesh":0}],"samplers":[{},{}],"scenes":[{"nodes":[0]}],"textures":[{"source":0,"sampler":0},{"source":1,"sampler":1}],"scene":0}
