{"asset":{"version":"2.0","generator":"Open Asset Import Library (assimp v6.0.0)"},"extensionsUsed":["KHR_materials_specular","KHR_materials_volume","KHR_materials_ior","FB_ngon_encoding"],"accessors":[{"bufferView":0,"byteOffset":0,"componentType":5126,"count":3431,"type":"VEC3","max":[2.3895318508148193,-3.3387081623077393,3.557589054107666],"min":[2.2250738585072014e-308,-3.636068820953369,2.2250738585072014e-308]},{"bufferView":1,"byteOffset":0,"componentType":5126,"count":3431,"type":"VEC2","max":[0.9898858070373535,0.8656578063964844],"min":[2.2250738585072014e-308,2.2250738585072014e-308]},{"bufferView":2,"byteOffset":0,"componentType":5125,"count":14418,"type":"SCALAR","max":[3430],"min":[0]},{"bufferView":3,"byteOffset":0,"componentType":5126,"count":1470,"type":"VEC3","max":[2.389742374420166,-3.3381834030151367,3.5578742027282715],"min":[2.2250738585072014e-308,-3.6349873542785645,2.2250738585072014e-308]},{"bufferView":4,"byteOffset":0,"componentType":5126,"count":1470,"type":"VEC2","max":[0.5458416938781738,0.9475555419921875],"min":[2.2250738585072014e-308,2.2250738585072014e-308]},{"bufferView":5,"byteOffset":0,"componentType":5125,"count":7041,"type":"SCALAR","max":[1469],"min":[0]}],"buffers":[{"byteLength":183856,"uri":"tile_0754.bin"}],"bufferViews":[{"buffer":0,"byteOffset":0,"byteLength":41172,"target":34962},{"buffer":0,"byteOffset":41172,"byteLength":27448,"target":34962},{"buffer":0,"byteOffset":68620,"byteLength":57672,"target":34963},{"buffer":0,"byteOffset":126292,"byteLength":17640,"target":34962},{"buffer":0,"byteOffset":143932,"byteLength":11760,"target":34962},{"buffer":0,"byteOffset":155692,"byteLength":28164,"target":34963}],"images":[{"uri":"../textures/tile_0754_material_0.jpg"},{"uri":"../textures/tile_0754_material_1.jpg"}],"materials":[{"name":"DefaultMaterial","pbrMetallicRoughness":{"baseColorFactor":[0.6000000238418579,0.6000000238418579,0.6000000238418579,1.0],"metallicFactor":0.0},"extensions":{"KHR_materials_specular":{"specularFactor":1.0,"specularColorFactor":[0.0,0.0,0.0]},"KHR_materials_ior":{"ior":1.0}}},{"name":"material_0_material","pbrMetallicRoughness":{"baseColorTexture":{"index":0},"metallicFactor":0.0},"extensions":{"KHR_materials_specular":{"specularFactor":1.0,"specularColorFactor":[0.0,0.0,0.0]},"KHR_materials_ior":{"ior":1.0}}},{"name":"material_1_material","pbrMetallicRoughness":{"baseColorTexture":{"index":1},"metallicFactor":0.0},"extensions":{"KHR_materials_specular":{"specularFactor":1.0,"specularColorFactor":[0.0,0.0,0.0]},"KHR_materials_ior":{"ior":1.0}}}],"meshes":[{"name":"defaultobject","primitives":[{"mode":4,"material":1,"indices":2,"attributes":{"POSITION":0,"TEXCOORD_0":1}},{"mode":4,"material":2,"indices":5,"attributes":{"POSITION":3,"TEXCOORD_0":4}}]}],"nodes":[{"name":"tile_0754.obj","children":[1]},{"name":"defaultobject","mesh":0}],"samplers":[{},{}],"scenes":[{"nodes":[0]}],"textures":[{"source":0,"sampler":0},{"source":1,"sampler":1}],"scene":0}
