{"asset":{"version":"2.0","generator":"Open Asset Import Library (assimp v6.0.0)"},"extensionsUsed":["KHR_materials_specular","KHR_materials_volume","KHR_materials_ior","FB_ngon_encoding"],"accessors":[{"bufferView":0,"byteOffset":0,"componentType":5126,"count":4550,"type":"VEC3","max":[2.8892500400543213,2.9690041542053223,4.179018497467041],"min":[2.2250738585072014e-308,2.2250738585072014e-308,2.2250738585072014e-308]},{"bufferView":1,"byteOffset":0,"componentType":5126,"count":4550,"type":"VEC2","max":[0.9870710372924805,0.5112113952636719],"min":[2.2250738585072014e-308,2.2250738585072014e-308]},{"bufferView":2,"byteOffset":0,"componentType":5125,"count":20634,"type":"SCALAR","max":[4549],"min":[0]},{"bufferView":3,"byteOffset":0,"componentType":5126,"count":1121,"type":"VEC3","max":[2.8880035877227783,2.87428617477417,4.0804924964904785],"min":[2.2250738585072014e-308,2.2250738585072014e-308,2.2250738585072014e-308]},{"bufferView":4,"byteOffset":0,"componentType":5126,"count":1121,"type":"VEC2","max":[0.5221943855285645,0.6958389282226562],"min":[2.2250738585072014e-308,2.2250738585072014e-308]},{"bufferView":5,"byteOffset":0,"componentType":5125,"count":5622,"type":"SCALAR","max":[1120],"min":[0]}],"buffers":[{"byteLength":218444,"uri":"tile_0672.bin"}],"bufferViews":[{"buffer":0,"byteOffset":0,"byteLength":54600,"target":34962},{"buffer":0,"byteOffset":54600,"byteLength":36400,"target":34962},{"buffer":0,"byteOffset":91000,"byteLength":82536,"target":34963},{"buffer":0,"byteOffset":173536,"byteLength":13452,"target":34962},{"buffer":0,"byteOffset":186988,"byteLength":8968,"target":34962},{"buffer":0,"byteOffset":195956,"byteLength":22488,"target":34963}],"images":[{"uri":"../textures/tile_0672_material_0.jpg"},{"uri":"../textures/tile_0672_material_1.jpg"}],"materials":[{"name":"DefaultMaterial","pbrMetallicRoughness":{"baseColorFactor":[0.6000000238418579,0.6000000238418579,0.6000000238418579,1.0],"metallicFactor":0.0},"extensions":{"KHR_materials_specular":{"specularFactor":1.0,"specularColorFactor":[0.0,0.0,0.0]},"KHR_materials_ior":{"ior":1.0}}},{"name":"material_0_material","pbrMetallicRoughness":{"baseColorTexture":{"index":0},"metallicFactor":0.0},"extensions":{"KHR_materials_specular":{"specularFactor":1.0,"specularColorFactor":[0.0,0.0,0.0]},"KHR_materials_ior":{"ior":1.0}}},{"name":"material_1_material","pbrMetallicRoughness":{"baseColorTexture":{"index":1},"metallicFactor":0.0},"extensions":{"KHR_materials_specular":{"specularFactor":1.0,"specularColorFactor":[0.0,0.0,0.0]},"KHR_materials_ior":{"ior":1.0}}}],"meshes":[{"name":"defaultobject","primitives":[{"mode":4,"material":1,"indices":2,"attributes":{"POSITION":0,"TEXCOORD_0":1}},{"mode":4,"material":2,"indices":5,"attributes":{"POSITION":3,"TEXCOORD_0":4}}]}],"nodes":[{"name":"tile_0672.obj","children":[1]},{"name":"defaultobject","mesh":0}],"samplers":[{},{}],"scenes":[{"nodes":[0]}],"textures":[{"source":0,"sampler":0},{"source":1,"sampler":1}],"scene":0}
