{"asset":{"version":"2.0","generator":"Open Asset Import Library (assimp v6.0.0)"},"extensionsUsed":["KHR_materials_specular","KHR_materials_volume","KHR_materials_ior","FB_ngon_encoding"],"accessors":[{"bufferView":0,"byteOffset":0,"componentType":5126,"count":3603,"type":"VEC3","max":[2.0774002075195312,5.295939922332764,4.776466369628906],"min":[2.2250738585072014e-308,2.2250738585072014e-308,2.2250738585072014e-308]},{"bufferView":1,"byteOffset":0,"componentType":5126,"count":3603,"type":"VEC2","max":[0.9908876419067383,0.5038642883300781],"min":[2.2250738585072014e-308,2.2250738585072014e-308]},{"bufferView":2,"byteOffset":0,"componentType":5125,"count":14964,"type":"SCALAR","max":[3602],"min":[0]},{"bufferView":3,"byteOffset":0,"componentType":5126,"count":1915,"type":"VEC3","max":[2.1066133975982666,5.469005584716797,4.772151470184326],"min":[2.2250738585072014e-308,2.2250738585072014e-308,2.2250738585072014e-308]},{"bufferView":4,"byteOffset":0,"componentType":5126,"count":1915,"type":"VEC2","max":[0.8256378173828125,0.6070728302001953],"min":[2.2250738585072014e-308,2.2250738585072014e-308]},{"bufferView":5,"byteOffset":0,"componentType":5125,"count":9735,"type":"SCALAR","max":[1914],"min":[0]}],"buffers":[{"byteLength":209156,"uri":"tile_0699.bin"}],"bufferViews":[{"buffer":0,"byteOffset":0,"byteLength":43236,"target":34962},{"buffer":0,"byteOffset":43236,"byteLength":28824,"target":34962},{"buffer":0,"byteOffset":72060,"byteLength":59856,"target":34963},{"buffer":0,"byteOffset":131916,"byteLength":22980,"target":34962},{"buffer":0,"byteOffset":154896,"byteLength":15320,"target":34962},{"buffer":0,"byteOffset":170216,"byteLength":38940,"target":34963}],"images":[{"uri":"../textures/tile_0699_material_0.jpg"},{"uri":"../textures/tile_0699_material_1.jpg"}],"materials":[{"name":"DefaultMaterial","pbrMetallicRoughness":{"baseColorFactor":[0.6000000238418579,0.6000000238418579,0.6000000238418579,1.0],"metallicFactor":0.0},"extensions":{"KHR_materials_specular":{"specularFactor":1.0,"specularColorFactor":[0.0,0.0,0.0]},"KHR_materials_ior":{"ior":1.0}}},{"name":"material_0_material","pbrMetallicRoughness":{"baseColorTexture":{"index":0},"metallicFactor":0.0},"extensions":{"KHR_materials_specular":{"specularFactor":1.0,"specularColorFactor":[0.0,0.0,0.0]},"KHR_materials_ior":{"ior":1.0}}},{"name":"material_1_material","pbrMetallicRoughness":{"baseColorTexture":{"index":1},"metallicFactor":0.0},"extensions":{"KHR_materials_specular":{"specularFactor":1.0,"specularColorFactor":[0.0,0.0,0.0]},"KHR_materials_ior":{"ior":1.0}}}],"meshes":[{"name":"defaultobject","primitives":[{"mode":4,"material":1,"indices":2,"attributes":{"POSITION":0,"TEXCOORD_0":1}},{"mode":4,"material":2,"indices":5,"attributes":{"POSITION":3,"TEXCOORD_0":4}}]}],"nodes":[{"name":"tile_0699.obj","children":[1]},{"name":"defaultobject","mesh":0}],"samplers":[{},{}],"scenes":[{"nodes":[0]}],"textures":[{"source":0,"sampler":0},{"source":1,"sampler":1}],"scene":0}
