{"asset":{"version":"2.0","generator":"Open Asset Import Library (assimp v6.0.0)"},"extensionsUsed":["KHR_materials_specular","KHR_materials_volume","KHR_materials_ior","FB_ngon_encoding"],"accessors":[{"bufferView":0,"byteOffset":0,"componentType":5126,"count":11696,"type":"VEC3","max":[-1.9895684719085693,-3.346088409423828,2.455146551132202],"min":[-2.301440477371216,-4.063832759857178,2.2250738585072014e-308]},{"bufferView":1,"byteOffset":0,"componentType":5126,"count":11696,"type":"VEC2","max":[0.9927186965942383,0.5917797088623047],"min":[2.2250738585072014e-308,2.2250738585072014e-308]},{"bufferView":2,"byteOffset":0,"componentType":5125,"count":53598,"type":"SCALAR","max":[11695],"min":[0]},{"bufferView":3,"byteOffset":0,"componentType":5126,"count":1689,"type":"VEC3","max":[-1.9897897243499756,-3.347025156021118,2.455146551132202],"min":[-2.299468517303467,-4.066786289215088,2.2250738585072014e-308]},{"bufferView":4,"byteOffset":0,"componentType":5126,"count":1689,"type":"VEC2","max":[0.5875561237335205,0.5320892333984375],"min":[2.2250738585072014e-308,2.2250738585072014e-308]},{"bufferView":5,"byteOffset":0,"componentType":5125,"count":8640,"type":"SCALAR","max":[1688],"min":[0]}],"buffers":[{"byteLength":516652,"uri":"tile_0041.bin"}],"bufferViews":[{"buffer":0,"byteOffset":0,"byteLength":140352,"target":34962},{"buffer":0,"byteOffset":140352,"byteLength":93568,"target":34962},{"buffer":0,"byteOffset":233920,"byteLength":214392,"target":34963},{"buffer":0,"byteOffset":448312,"byteLength":20268,"target":34962},{"buffer":0,"byteOffset":468580,"byteLength":13512,"target":34962},{"buffer":0,"byteOffset":482092,"byteLength":34560,"target":34963}],"images":[{"uri":"../textures/tile_0041_material_0.jpg"},{"uri":"../textures/tile_0041_material_1.jpg"}],"materials":[{"name":"DefaultMaterial","pbrMetallicRoughness":{"baseColorFactor":[0.6000000238418579,0.6000000238418579,0.6000000238418579,1.0],"metallicFactor":0.0},"extensions":{"KHR_materials_specular":{"specularFactor":1.0,"specularColorFactor":[0.0,0.0,0.0]},"KHR_materials_ior":{"ior":1.0}}},{"name":"material_0_material","pbrMetallicRoughness":{"baseColorTexture":{"index":0},"metallicFactor":0.0},"extensions":{"KHR_materials_specular":{"specularFactor":1.0,"specularColorFactor":[0.0,0.0,0.0]},"KHR_materials_ior":{"ior":1.0}}},{"name":"material_1_material","pbrMetallicRoughness":{"baseColorTexture":{"index":1},"metallicFactor":0.0},"extensions":{"KHR_materials_specular":{"specularFactor":1.0,"specularColorFactor":[0.0,0.0,0.0]},"KHR_materials_ior":{"ior":1.0}}}],"meshes":[{"name":"defaultobject","primitives":[{"mode":4,"material":1,"indices":2,"attributes":{"POSITION":0,"TEXCOORD_0":1}},{"mode":4,"material":2,"indices":5,"attributes":{"POSITION":3,"TEXCOORD_0":4}}]}],"nodes":[{"name":"tile_0041.obj","children":[1]},{"name":"defaultobject","mesh":0}],"samplers":[{},{}],"scenes":[{"nodes":[0]}],"textures":[{"source":0,"sampler":0},{"source":1,"sampler":1}],"scene":0}
