{"asset":{"version":"2.0","generator":"Open Asset Import Library (assimp v6.0.0)"},"extensionsUsed":["KHR_materials_specular","KHR_materials_volume","KHR_materials_ior","FB_ngon_encoding"],"accessors":[{"bufferView":0,"byteOffset":0,"componentType":5126,"count":5878,"type":"VEC3","max":[1.0446046590805054,-4.071193695068359,2.8177666664123535],"min":[2.2250738585072014e-308,-4.441532135009766,2.2250738585072014e-308]},{"bufferView":1,"byteOffset":0,"componentType":5126,"count":5878,"type":"VEC2","max":[0.9925520420074463,0.6440906524658203],"min":[2.2250738585072014e-308,2.2250738585072014e-308]},{"bufferView":2,"byteOffset":0,"componentType":5125,"count":27144,"type":"SCALAR","max":[5877],"min":[0]},{"bufferView":3,"byteOffset":0,"componentType":5126,"count":708,"type":"VEC3","max":[1.0433648824691772,-4.089196681976318,2.662266254425049],"min":[2.2250738585072014e-308,-4.441082954406738,2.2250738585072014e-308]},{"bufferView":4,"byteOffset":0,"componentType":5126,"count":708,"type":"VEC2","max":[0.7029628753662109,0.9129829406738281],"min":[2.2250738585072014e-308,2.2250738585072014e-308]},{"bufferView":5,"byteOffset":0,"componentType":5125,"count":3666,"type":"SCALAR","max":[707],"min":[0]}],"buffers":[{"byteLength":254960,"uri":"tile_0792.bin"}],"bufferViews":[{"buffer":0,"byteOffset":0,"byteLength":70536,"target":34962},{"buffer":0,"byteOffset":70536,"byteLength":47024,"target":34962},{"buffer":0,"byteOffset":117560,"byteLength":108576,"target":34963},{"buffer":0,"byteOffset":226136,"byteLength":8496,"target":34962},{"buffer":0,"byteOffset":234632,"byteLength":5664,"target":34962},{"buffer":0,"byteOffset":240296,"byteLength":14664,"target":34963}],"images":[{"uri":"../textures/tile_0792_material_0.jpg"},{"uri":"../textures/tile_0792_material_1.jpg"}],"materials":[{"name":"DefaultMaterial","pbrMetallicRoughness":{"baseColorFactor":[0.6000000238418579,0.6000000238418579,0.6000000238418579,1.0],"metallicFactor":0.0},"extensions":{"KHR_materials_specular":{"specularFactor":1.0,"specularColorFactor":[0.0,0.0,0.0]},"KHR_materials_ior":{"ior":1.0}}},{"name":"material_0_material","pbrMetallicRoughness":{"baseColorTexture":{"index":0},"metallicFactor":0.0},"extensions":{"KHR_materials_specular":{"specularFactor":1.0,"specularColorFactor":[0.0,0.0,0.0]},"KHR_materials_ior":{"ior":1.0}}},{"name":"material_1_material","pbrMetallicRoughness":{"baseColorTexture":{"index":1},"metallicFactor":0.0},"extensions":{"KHR_materials_specular":{"specularFactor":1.0,"specularColorFactor":[0.0,0.0,0.0]},"KHR_materials_ior":{"ior":1.0}}}],"meshes":[{"name":"defaultobject","primitives":[{"mode":4,"material":1,"indices":2,"attributes":{"POSITION":0,"TEXCOORD_0":1}},{"mode":4,"material":2,"indices":5,"attributes":{"POSITION":3,"TEXCOORD_0":4}}]}],"nodes":[{"name":"tile_0792.obj","children":[1]},{"name":"defaultobject","mesh":0}],"samplers":[{},{}],"scenes":[{"nodes":[0]}],"textures":[{"source":0,"sampler":0},{"source":1,"sampler":1}],"scene":0}
