{"asset":{"version":"2.0","generator":"Open Asset Import Library (assimp v6.0.0)"},"extensionsUsed":["KHR_materials_specular","KHR_materials_volume","KHR_materials_ior","FB_ngon_encoding"],"accessors":[{"bufferView":0,"byteOffset":0,"componentType":5126,"count":13720,"type":"VEC3","max":[0.09686026722192764,1.4189763069152832,4.31757116317749],"min":[-0.4277169704437256,2.2250738585072014e-308,2.2250738585072014e-308]},{"bufferView":1,"byteOffset":0,"componentType":5126,"count":13720,"type":"VEC2","max":[0.9936425685882568,0.6171741485595703],"min":[2.2250738585072014e-308,2.2250738585072014e-308]},{"bufferView":2,"byteOffset":0,"componentType":5125,"count":58029,"type":"SCALAR","max":[13719],"min":[0]},{"bufferView":3,"byteOffset":0,"componentType":5126,"count":1626,"type":"VEC3","max":[0.06440286338329315,1.4199429750442505,4.305983066558838],"min":[-0.4229319095611572,2.2250738585072014e-308,2.2250738585072014e-308]},{"bufferView":4,"byteOffset":0,"componentType":5126,"count":1626,"type":"VEC2","max":[0.6360464096069336,0.8886604309082031],"min":[2.2250738585072014e-308,2.2250738585072014e-308]},{"bufferView":5,"byteOffset":0,"componentType":5125,"count":8250,"type":"SCALAR","max":[1625],"min":[0]}],"buffers":[{"byteLength":572036,"uri":"tile_0589.bin"}],"bufferViews":[{"buffer":0,"byteOffset":0,"byteLength":164640,"target":34962},{"buffer":0,"byteOffset":164640,"byteLength":109760,"target":34962},{"buffer":0,"byteOffset":274400,"byteLength":232116,"target":34963},{"buffer":0,"byteOffset":506516,"byteLength":19512,"target":34962},{"buffer":0,"byteOffset":526028,"byteLength":13008,"target":34962},{"buffer":0,"byteOffset":539036,"byteLength":33000,"target":34963}],"images":[{"uri":"../textures/tile_0589_material_0.jpg"},{"uri":"../textures/tile_0589_material_1.jpg"}],"materials":[{"name":"DefaultMaterial","pbrMetallicRoughness":{"baseColorFactor":[0.6000000238418579,0.6000000238418579,0.6000000238418579,1.0],"metallicFactor":0.0},"extensions":{"KHR_materials_specular":{"specularFactor":1.0,"specularColorFactor":[0.0,0.0,0.0]},"KHR_materials_ior":{"ior":1.0}}},{"name":"material_0_material","pbrMetallicRoughness":{"baseColorTexture":{"index":0},"metallicFactor":0.0},"extensions":{"KHR_materials_specular":{"specularFactor":1.0,"specularColorFactor":[0.0,0.0,0.0]},"KHR_materials_ior":{"ior":1.0}}},{"name":"material_1_material","pbrMetallicRoughness":{"baseColorTexture":{"index":1},"metallicFactor":0.0},"extensions":{"KHR_materials_specular":{"specularFactor":1.0,"specularColorFactor":[0.0,0.0,0.0]},"KHR_materials_ior":{"ior":1.0}}}],"meshes":[{"name":"defaultobject","primitives":[{"mode":4,"material":1,"indices":2,"attributes":{"POSITION":0,"TEXCOORD_0":1}},{"mode":4,"material":2,"indices":5,"attributes":{"POSITION":3,"TEXCOORD_0":4}}]}],"nodes":[{"name":"tile_0589.obj","children":[1]},{"name":"defaultobject","mesh":0}],"samplers":[{},{}],"scenes":[{"nodes":[0]}],"textures":[{"source":0,"sampler":0},{"source":1,"sampler":1}],"scene":0}
