{"asset":{"version":"2.0","generator":"Open Asset Import Library (assimp v6.0.0)"},"extensionsUsed":["KHR_materials_specular","KHR_materials_volume","KHR_materials_ior","FB_ngon_encoding"],"accessors":[{"bufferView":0,"byteOffset":0,"componentType":5126,"count":2916,"type":"VEC3","max":[4.57119083404541,-1.203265905380249,3.7439117431640625],"min":[2.2250738585072014e-308,-1.402644157409668,2.2250738585072014e-308]},{"bufferView":1,"byteOffset":0,"componentType":5126,"count":2916,"type":"VEC2","max":[0.9954237937927246,0.7498245239257812],"min":[2.2250738585072014e-308,2.2250738585072014e-308]},{"bufferView":2,"byteOffset":0,"componentType":5125,"count":12858,"type":"SCALAR","max":[2915],"min":[0]},{"bufferView":3,"byteOffset":0,"componentType":5126,"count":1697,"type":"VEC3","max":[4.597192764282227,-1.2028145790100098,3.779245615005493],"min":[2.2250738585072014e-308,-1.4037251472473145,2.2250738585072014e-308]},{"bufferView":4,"byteOffset":0,"componentType":5126,"count":1697,"type":"VEC2","max":[0.8067483901977539,0.7320098876953125],"min":[2.2250738585072014e-308,2.2250738585072014e-308]},{"bufferView":5,"byteOffset":0,"componentType":5125,"count":8532,"type":"SCALAR","max":[1696],"min":[0]}],"buffers":[{"byteLength":177820,"uri":"tile_0244.bin"}],"bufferViews":[{"buffer":0,"byteOffset":0,"byteLength":34992,"target":34962},{"buffer":0,"byteOffset":34992,"byteLength":23328,"target":34962},{"buffer":0,"byteOffset":58320,"byteLength":51432,"target":34963},{"buffer":0,"byteOffset":109752,"byteLength":20364,"target":34962},{"buffer":0,"byteOffset":130116,"byteLength":13576,"target":34962},{"buffer":0,"byteOffset":143692,"byteLength":34128,"target":34963}],"images":[{"uri":"../textures/tile_0244_material_0.jpg"},{"uri":"../textures/tile_0244_material_1.jpg"}],"materials":[{"name":"DefaultMaterial","pbrMetallicRoughness":{"baseColorFactor":[0.6000000238418579,0.6000000238418579,0.6000000238418579,1.0],"metallicFactor":0.0},"extensions":{"KHR_materials_specular":{"specularFactor":1.0,"specularColorFactor":[0.0,0.0,0.0]},"KHR_materials_ior":{"ior":1.0}}},{"name":"material_0_material","pbrMetallicRoughness":{"baseColorTexture":{"index":0},"metallicFactor":0.0},"extensions":{"KHR_materials_specular":{"specularFactor":1.0,"specularColorFactor":[0.0,0.0,0.0]},"KHR_materials_ior":{"ior":1.0}}},{"name":"material_1_material","pbrMetallicRoughness":{"baseColorTexture":{"index":1},"metallicFactor":0.0},"extensions":{"KHR_materials_specular":{"specularFactor":1.0,"specularColorFactor":[0.0,0.0,0.0]},"KHR_materials_ior":{"ior":1.0}}}],"meshes":[{"name":"defaultobject","primitives":[{"mode":4,"material":1,"indices":2,"attributes":{"POSITION":0,"TEXCOORD_0":1}},{"mode":4,"material":2,"indices":5,"attributes":{"POSITION":3,"TEXCOORD_0":4}}]}],"nodes":[{"name":"tile_0244.obj","children":[1]},{"name":"defaultobject","mesh":0}],"samplers":[{},{}],"scenes":[{"nodes":[0]}],"textures":[{"source":0,"sampler":0},{"source":1,"sampler":1}],"scene":0}
