{"asset":{"version":"2.0","generator":"Open Asset Import Library (assimp v6.0.0)"},"extensionsUsed":["KHR_materials_specular","KHR_materials_volume","KHR_materials_ior","FB_ngon_encoding"],"accessors":[{"bufferView":0,"byteOffset":0,"componentType":5126,"count":13224,"type":"VEC3","max":[1.8648937940597534,5.284953594207764,4.776883602142334],"min":[2.2250738585072014e-308,2.2250738585072014e-308,2.2250738585072014e-308]},{"bufferView":1,"byteOffset":0,"componentType":5126,"count":13224,"type":"VEC2","max":[0.9935824871063232,0.763671875],"min":[2.2250738585072014e-308,2.2250738585072014e-308]},{"bufferView":2,"byteOffset":0,"componentType":5125,"count":60327,"type":"SCALAR","max":[13223],"min":[0]},{"bufferView":3,"byteOffset":0,"componentType":5126,"count":2135,"type":"VEC3","max":[1.9137153625488281,5.3079376220703125,4.7540388107299805],"min":[2.2250738585072014e-308,2.2250738585072014e-308,2.2250738585072014e-308]},{"bufferView":4,"byteOffset":0,"componentType":5126,"count":2135,"type":"VEC2","max":[0.988530158996582,0.5974798202514648],"min":[2.2250738585072014e-308,2.2250738585072014e-308]},{"bufferView":5,"byteOffset":0,"componentType":5125,"count":10800,"type":"SCALAR","max":[2134],"min":[0]}],"buffers":[{"byteLength":591688,"uri":"tile_0202.bin"}],"bufferViews":[{"buffer":0,"byteOffset":0,"byteLength":158688,"target":34962},{"buffer":0,"byteOffset":158688,"byteLength":105792,"target":34962},{"buffer":0,"byteOffset":264480,"byteLength":241308,"target":34963},{"buffer":0,"byteOffset":505788,"byteLength":25620,"target":34962},{"buffer":0,"byteOffset":531408,"byteLength":17080,"target":34962},{"buffer":0,"byteOffset":548488,"byteLength":43200,"target":34963}],"images":[{"uri":"../textures/tile_0202_material_0.jpg"},{"uri":"../textures/tile_0202_material_1.jpg"}],"materials":[{"name":"DefaultMaterial","pbrMetallicRoughness":{"baseColorFactor":[0.6000000238418579,0.6000000238418579,0.6000000238418579,1.0],"metallicFactor":0.0},"extensions":{"KHR_materials_specular":{"specularFactor":1.0,"specularColorFactor":[0.0,0.0,0.0]},"KHR_materials_ior":{"ior":1.0}}},{"name":"material_0_material","pbrMetallicRoughness":{"baseColorTexture":{"index":0},"metallicFactor":0.0},"extensions":{"KHR_materials_specular":{"specularFactor":1.0,"specularColorFactor":[0.0,0.0,0.0]},"KHR_materials_ior":{"ior":1.0}}},{"name":"material_1_material","pbrMetallicRoughness":{"baseColorTexture":{"index":1},"metallicFactor":0.0},"extensions":{"KHR_materials_specular":{"specularFactor":1.0,"specularColorFactor":[0.0,0.0,0.0]},"KHR_materials_ior":{"ior":1.0}}}],"meshes":[{"name":"defaultobject","primitives":[{"mode":4,"material":1,"indices":2,"attributes":{"POSITION":0,"TEXCOORD_0":1}},{"mode":4,"material":2,"indices":5,"attributes":{"POSITION":3,"TEXCOORD_0":4}}]}],"nodes":[{"name":"tile_0202.obj","children":[1]},{"name":"defaultobject","mesh":0}],"samplers":[{},{}],"scenes":[{"nodes":[0]}],"textures":[{"source":0,"sampler":0},{"source":1,"sampler":1}],"scene":0}
