{"asset":{"version":"2.0","generator":"Open Asset Import Library (assimp v6.0.0)"},"extensionsUsed":["KHR_materials_specular","KHR_materials_volume","KHR_materials_ior","FB_ngon_encoding"],"accessors":[{"bufferView":0,"byteOffset":0,"componentType":5126,"count":1638,"type":"VEC3","max":[-3.871635913848877,5.431906223297119,5.053345680236816],"min":[-4.299788475036621,2.2250738585072014e-308,2.2250738585072014e-308]},{"bufferView":1,"byteOffset":0,"componentType":5126,"count":1638,"type":"VEC2","max":[0.9904112815856934,0.6453971862792969],"min":[2.2250738585072014e-308,2.2250738585072014e-308]},{"bufferView":2,"byteOffset":0,"componentType":5125,"count":7401,"type":"SCALAR","max":[1637],"min":[0]},{"bufferView":3,"byteOffset":0,"componentType":5126,"count":3730,"type":"VEC3","max":[-3.8707735538482666,5.431088924407959,5.053345680236816],"min":[-4.298525333404541,2.2250738585072014e-308,2.2250738585072014e-308]},{"bufferView":4,"byteOffset":0,"componentType":5126,"count":3730,"type":"VEC2","max":[0.8142895698547363,0.6682710647583008],"min":[2.2250738585072014e-308,2.2250738585072014e-308]},{"bufferView":5,"byteOffset":0,"componentType":5125,"count":19767,"type":"SCALAR","max":[3729],"min":[0]}],"buffers":[{"byteLength":216032,"uri":"tile_0531.bin"}],"bufferViews":[{"buffer":0,"byteOffset":0,"byteLength":19656,"target":34962},{"buffer":0,"byteOffset":19656,"byteLength":13104,"target":34962},{"buffer":0,"byteOffset":32760,"byteLength":29604,"target":34963},{"buffer":0,"byteOffset":62364,"byteLength":44760,"target":34962},{"buffer":0,"byteOffset":107124,"byteLength":29840,"target":34962},{"buffer":0,"byteOffset":136964,"byteLength":79068,"target":34963}],"images":[{"uri":"../textures/tile_0531_material_0.jpg"},{"uri":"../textures/tile_0531_material_1.jpg"}],"materials":[{"name":"DefaultMaterial","pbrMetallicRoughness":{"baseColorFactor":[0.6000000238418579,0.6000000238418579,0.6000000238418579,1.0],"metallicFactor":0.0},"extensions":{"KHR_materials_specular":{"specularFactor":1.0,"specularColorFactor":[0.0,0.0,0.0]},"KHR_materials_ior":{"ior":1.0}}},{"name":"material_0_material","pbrMetallicRoughness":{"baseColorTexture":{"index":0},"metallicFactor":0.0},"extensions":{"KHR_materials_specular":{"specularFactor":1.0,"specularColorFactor":[0.0,0.0,0.0]},"KHR_materials_ior":{"ior":1.0}}},{"name":"material_1_material","pbrMetallicRoughness":{"baseColorTexture":{"index":1},"metallicFactor":0.0},"extensions":{"KHR_materials_specular":{"specularFactor":1.0,"specularColorFactor":[0.0,0.0,0.0]},"KHR_materials_ior":{"ior":1.0}}}],"meshes":[{"name":"defaultobject","primitives":[{"mode":4,"material":1,"indices":2,"attributes":{"POSITION":0,"TEXCOORD_0":1}},{"mode":4,"material":2,"indices":5,"attributes":{"POSITION":3,"TEXCOORD_0":4}}]}],"nodes":[{"name":"tile_0531.obj","children":[1]},{"name":"defaultobject","mesh":0}],"samplers":[{},{}],"scenes":[{"nodes":[0]}],"textures":[{"source":0,"sampler":0},{"source":1,"sampler":1}],"scene":0}
