{"asset":{"version":"2.0","generator":"Open Asset Import Library (assimp v6.0.0)"},"extensionsUsed":["KHR_materials_specular","KHR_materials_volume","KHR_materials_ior","FB_ngon_encoding"],"accessors":[{"bufferView":0,"byteOffset":0,"componentType":5126,"count":4385,"type":"VEC3","max":[1.8063938617706299,-3.628368377685547,3.19047474861145],"min":[2.2250738585072014e-308,-3.993466377258301,2.2250738585072014e-308]},{"bufferView":1,"byteOffset":0,"componentType":5126,"count":4385,"type":"VEC2","max":[0.9902334213256836,0.6208553314208984],"min":[2.2250738585072014e-308,2.2250738585072014e-308]},{"bufferView":2,"byteOffset":0,"componentType":5125,"count":19167,"type":"SCALAR","max":[4384],"min":[0]},{"bufferView":3,"byteOffset":0,"componentType":5126,"count":305,"type":"VEC3","max":[1.7366403341293335,-3.8457717895507812,3.1414365768432617],"min":[2.2250738585072014e-308,-3.988572359085083,2.2250738585072014e-308]},{"bufferView":4,"byteOffset":0,"componentType":5126,"count":305,"type":"VEC2","max":[0.856781005859375,0.7007331848144531],"min":[2.2250738585072014e-308,2.2250738585072014e-308]},{"bufferView":5,"byteOffset":0,"componentType":5125,"count":1413,"type":"SCALAR","max":[304],"min":[0]}],"buffers":[{"byteLength":176120,"uri":"tile_0763.bin"}],"bufferViews":[{"buffer":0,"byteOffset":0,"byteLength":52620,"target":34962},{"buffer":0,"byteOffset":52620,"byteLength":35080,"target":34962},{"buffer":0,"byteOffset":87700,"byteLength":76668,"target":34963},{"buffer":0,"byteOffset":164368,"byteLength":3660,"target":34962},{"buffer":0,"byteOffset":168028,"byteLength":2440,"target":34962},{"buffer":0,"byteOffset":170468,"byteLength":5652,"target":34963}],"images":[{"uri":"../textures/tile_0763_material_0.jpg"},{"uri":"../textures/tile_0763_material_1.jpg"}],"materials":[{"name":"DefaultMaterial","pbrMetallicRoughness":{"baseColorFactor":[0.6000000238418579,0.6000000238418579,0.6000000238418579,1.0],"metallicFactor":0.0},"extensions":{"KHR_materials_specular":{"specularFactor":1.0,"specularColorFactor":[0.0,0.0,0.0]},"KHR_materials_ior":{"ior":1.0}}},{"name":"material_0_material","pbrMetallicRoughness":{"baseColorTexture":{"index":0},"metallicFactor":0.0},"extensions":{"KHR_materials_specular":{"specularFactor":1.0,"specularColorFactor":[0.0,0.0,0.0]},"KHR_materials_ior":{"ior":1.0}}},{"name":"material_1_material","pbrMetallicRoughness":{"baseColorTexture":{"index":1},"metallicFactor":0.0},"extensions":{"KHR_materials_specular":{"specularFactor":1.0,"specularColorFactor":[0.0,0.0,0.0]},"KHR_materials_ior":{"ior":1.0}}}],"meshes":[{"name":"defaultobject","primitives":[{"mode":4,"material":1,"indices":2,"attributes":{"POSITION":0,"TEXCOORD_0":1}},{"mode":4,"material":2,"indices":5,"attributes":{"POSITION":3,"TEXCOORD_0":4}}]}],"nodes":[{"name":"tile_0763.obj","children":[1]},{"name":"defaultobject","mesh":0}],"samplers":[{},{}],"scenes":[{"nodes":[0]}],"textures":[{"source":0,"sampler":0},{"source":1,"sampler":1}],"scene":0}
