{"asset":{"version":"2.0","generator":"Open Asset Import Library (assimp v6.0.0)"},"extensionsUsed":["KHR_materials_specular","KHR_materials_volume","KHR_materials_ior","FB_ngon_encoding"],"accessors":[{"bufferView":0,"byteOffset":0,"componentType":5126,"count":5071,"type":"VEC3","max":[-0.9426307678222656,-3.9664053916931152,2.4402925968170166],"min":[-1.1139400005340576,-4.434359073638916,2.2250738585072014e-308]},{"bufferView":1,"byteOffset":0,"componentType":5126,"count":5071,"type":"VEC2","max":[0.9849658012390137,0.5894012451171875],"min":[2.2250738585072014e-308,2.2250738585072014e-308]},{"bufferView":2,"byteOffset":0,"componentType":5125,"count":23661,"type":"SCALAR","max":[5070],"min":[0]},{"bufferView":3,"byteOffset":0,"componentType":5126,"count":180,"type":"VEC3","max":[-0.9426591396331787,-3.967853307723999,2.4137372970581055],"min":[-1.0130417346954346,-4.039613246917725,2.2250738585072014e-308]},{"bufferView":4,"byteOffset":0,"componentType":5126,"count":180,"type":"VEC2","max":[0.814605712890625,0.7815322279930115],"min":[2.2250738585072014e-308,2.2250738585072014e-308]},{"bufferView":5,"byteOffset":0,"componentType":5125,"count":921,"type":"SCALAR","max":[179],"min":[0]}],"buffers":[{"byteLength":203348,"uri":"tile_0319.bin"}],"bufferViews":[{"buffer":0,"byteOffset":0,"byteLength":60852,"target":34962},{"buffer":0,"byteOffset":60852,"byteLength":40568,"target":34962},{"buffer":0,"byteOffset":101420,"byteLength":94644,"target":34963},{"buffer":0,"byteOffset":196064,"byteLength":2160,"target":34962},{"buffer":0,"byteOffset":198224,"byteLength":1440,"target":34962},{"buffer":0,"byteOffset":199664,"byteLength":3684,"target":34963}],"images":[{"uri":"../textures/tile_0319_material_0.jpg"},{"uri":"../textures/tile_0319_material_1.jpg"}],"materials":[{"name":"DefaultMaterial","pbrMetallicRoughness":{"baseColorFactor":[0.6000000238418579,0.6000000238418579,0.6000000238418579,1.0],"metallicFactor":0.0},"extensions":{"KHR_materials_specular":{"specularFactor":1.0,"specularColorFactor":[0.0,0.0,0.0]},"KHR_materials_ior":{"ior":1.0}}},{"name":"material_0_material","pbrMetallicRoughness":{"baseColorTexture":{"index":0},"metallicFactor":0.0},"extensions":{"KHR_materials_specular":{"specularFactor":1.0,"specularColorFactor":[0.0,0.0,0.0]},"KHR_materials_ior":{"ior":1.0}}},{"name":"material_1_material","pbrMetallicRoughness":{"baseColorTexture":{"index":1},"metallicFactor":0.0},"extensions":{"KHR_materials_specular":{"specularFactor":1.0,"specularColorFactor":[0.0,0.0,0.0]},"KHR_materials_ior":{"ior":1.0}}}],"meshes":[{"name":"defaultobject","primitives":[{"mode":4,"material":1,"indices":2,"attributes":{"POSITION":0,"TEXCOORD_0":1}},{"mode":4,"material":2,"indices":5,"attributes":{"POSITION":3,"TEXCOORD_0":4}}]}],"nodes":[{"name":"tile_0319.obj","children":[1]},{"name":"defaultobject","mesh":0}],"samplers":[{},{}],"scenes":[{"nodes":[0]}],"textures":[{"source":0,"sampler":0},{"source":1,"sampler":1}],"scene":0}
