{"asset":{"version":"2.0","generator":"Open Asset Import Library (assimp v6.0.0)"},"extensionsUsed":["KHR_materials_specular","KHR_materials_volume","KHR_materials_ior","FB_ngon_encoding"],"accessors":[{"bufferView":0,"byteOffset":0,"componentType":5126,"count":5001,"type":"VEC3","max":[-4.407569408416748,1.623304009437561,4.384544372558594],"min":[-4.947988510131836,2.2250738585072014e-308,2.2250738585072014e-308]},{"bufferView":1,"byteOffset":0,"componentType":5126,"count":5001,"type":"VEC2","max":[0.9900495409965515,0.6755390167236328],"min":[2.2250738585072014e-308,2.2250738585072014e-308]},{"bufferView":2,"byteOffset":0,"componentType":5125,"count":21816,"type":"SCALAR","max":[5000],"min":[0]},{"bufferView":3,"byteOffset":0,"componentType":5126,"count":200,"type":"VEC3","max":[-4.568527698516846,1.6200629472732544,4.379234313964844],"min":[-4.86256217956543,2.2250738585072014e-308,2.2250738585072014e-308]},{"bufferView":4,"byteOffset":0,"componentType":5126,"count":200,"type":"VEC2","max":[0.5665912628173828,0.792793333530426],"min":[2.2250738585072014e-308,2.2250738585072014e-308]},{"bufferView":5,"byteOffset":0,"componentType":5125,"count":870,"type":"SCALAR","max":[199],"min":[0]}],"buffers":[{"byteLength":194764,"uri":"tile_0486.bin"}],"bufferViews":[{"buffer":0,"byteOffset":0,"byteLength":60012,"target":34962},{"buffer":0,"byteOffset":60012,"byteLength":40008,"target":34962},{"buffer":0,"byteOffset":100020,"byteLength":87264,"target":34963},{"buffer":0,"byteOffset":187284,"byteLength":2400,"target":34962},{"buffer":0,"byteOffset":189684,"byteLength":1600,"target":34962},{"buffer":0,"byteOffset":191284,"byteLength":3480,"target":34963}],"images":[{"uri":"../textures/tile_0486_material_0.jpg"},{"uri":"../textures/tile_0486_material_1.jpg"}],"materials":[{"name":"DefaultMaterial","pbrMetallicRoughness":{"baseColorFactor":[0.6000000238418579,0.6000000238418579,0.6000000238418579,1.0],"metallicFactor":0.0},"extensions":{"KHR_materials_specular":{"specularFactor":1.0,"specularColorFactor":[0.0,0.0,0.0]},"KHR_materials_ior":{"ior":1.0}}},{"name":"material_0_material","pbrMetallicRoughness":{"baseColorTexture":{"index":0},"metallicFactor":0.0},"extensions":{"KHR_materials_specular":{"specularFactor":1.0,"specularColorFactor":[0.0,0.0,0.0]},"KHR_materials_ior":{"ior":1.0}}},{"name":"material_1_material","pbrMetallicRoughness":{"baseColorTexture":{"index":1},"metallicFactor":0.0},"extensions":{"KHR_materials_specular":{"specularFactor":1.0,"specularColorFactor":[0.0,0.0,0.0]},"KHR_materials_ior":{"ior":1.0}}}],"meshes":[{"name":"defaultobject","primitives":[{"mode":4,"material":1,"indices":2,"attributes":{"POSITION":0,"TEXCOORD_0":1}},{"mode":4,"material":2,"indices":5,"attributes":{"POSITION":3,"TEXCOORD_0":4}}]}],"nodes":[{"name":"tile_0486.obj","children":[1]},{"name":"defaultobject","mesh":0}],"samplers":[{},{}],"scenes":[{"nodes":[0]}],"textures":[{"source":0,"sampler":0},{"source":1,"sampler":1}],"scene":0}
