{"asset":{"version":"2.0","generator":"Open Asset Import Library (assimp v6.0.0)"},"extensionsUsed":["KHR_materials_specular","KHR_materials_volume","KHR_materials_ior","FB_ngon_encoding"],"accessors":[{"bufferView":0,"byteOffset":0,"componentType":5126,"count":5108,"type":"VEC3","max":[-2.162584066390991,4.562889575958252,4.784887790679932],"min":[-2.476088762283325,2.2250738585072014e-308,2.2250738585072014e-308]},{"bufferView":1,"byteOffset":0,"componentType":5126,"count":5108,"type":"VEC2","max":[0.9773354530334473,0.5569648742675781],"min":[2.2250738585072014e-308,2.2250738585072014e-308]},{"bufferView":2,"byteOffset":0,"componentType":5125,"count":23994,"type":"SCALAR","max":[5107],"min":[0]},{"bufferView":3,"byteOffset":0,"componentType":5126,"count":3,"type":"VEC3","max":[-2.4313712120056152,4.563727378845215,4.770185947418213],"min":[-2.4396936893463135,2.2250738585072014e-308,2.2250738585072014e-308]},{"bufferView":4,"byteOffset":0,"componentType":5126,"count":3,"type":"VEC2","max":[0.52301025390625,0.4541627764701843],"min":[2.2250738585072014e-308,2.2250738585072014e-308]},{"bufferView":5,"byteOffset":0,"componentType":5125,"count":3,"type":"SCALAR","max":[2],"min":[0]}],"buffers":[{"byteLength":198208,"uri":"tile_0561.bin"}],"bufferViews":[{"buffer":0,"byteOffset":0,"byteLength":61296,"target":34962},{"buffer":0,"byteOffset":61296,"byteLength":40864,"target":34962},{"buffer":0,"byteOffset":102160,"byteLength":95976,"target":34963},{"buffer":0,"byteOffset":198136,"byteLength":36,"target":34962},{"buffer":0,"byteOffset":198172,"byteLength":24,"target":34962},{"buffer":0,"byteOffset":198196,"byteLength":12,"target":34963}],"images":[{"uri":"../textures/tile_0561_material_0.jpg"},{"uri":"../textures/tile_0561_material_1.jpg"}],"materials":[{"name":"DefaultMaterial","pbrMetallicRoughness":{"baseColorFactor":[0.6000000238418579,0.6000000238418579,0.6000000238418579,1.0],"metallicFactor":0.0},"extensions":{"KHR_materials_specular":{"specularFactor":1.0,"specularColorFactor":[0.0,0.0,0.0]},"KHR_materials_ior":{"ior":1.0}}},{"name":"material_0_material","pbrMetallicRoughness":{"baseColorTexture":{"index":0},"metallicFactor":0.0},"extensions":{"KHR_materials_specular":{"specularFactor":1.0,"specularColorFactor":[0.0,0.0,0.0]},"KHR_materials_ior":{"ior":1.0}}},{"name":"material_1_material","pbrMetallicRoughness":{"baseColorTexture":{"index":1},"metallicFactor":0.0},"extensions":{"KHR_materials_specular":{"specularFactor":1.0,"specularColorFactor":[0.0,0.0,0.0]},"KHR_materials_ior":{"ior":1.0}}}],"meshes":[{"name":"defaultobject","primitives":[{"mode":4,"material":1,"indices":2,"attributes":{"POSITION":0,"TEXCOORD_0":1}},{"mode":4,"material":2,"indices":5,"attributes":{"POSITION":3,"TEXCOORD_0":4}}]}],"nodes":[{"name":"tile_0561.obj","children":[1]},{"name":"defaultobject","mesh":0}],"samplers":[{},{}],"scenes":[{"nodes":[0]}],"textures":[{"source":0,"sampler":0},{"source":1,"sampler":1}],"scene":0}
