{"asset":{"version":"2.0","generator":"Open Asset Import Library (assimp v6.0.0)"},"extensionsUsed":["KHR_materials_specular","KHR_materials_volume","KHR_materials_ior","FB_ngon_encoding"],"accessors":[{"bufferView":0,"byteOffset":0,"componentType":5126,"count":5337,"type":"VEC3","max":[-3.1226630210876465,3.8648579120635986,4.687495231628418],"min":[-3.4700376987457275,2.2250738585072014e-308,2.2250738585072014e-308]},{"bufferView":1,"byteOffset":0,"componentType":5126,"count":5337,"type":"VEC2","max":[0.9914335012435913,0.7224102020263672],"min":[2.2250738585072014e-308,2.2250738585072014e-308]},{"bufferView":2,"byteOffset":0,"componentType":5125,"count":24660,"type":"SCALAR","max":[5336],"min":[0]},{"bufferView":3,"byteOffset":0,"componentType":5126,"count":479,"type":"VEC3","max":[-3.2459397315979004,3.862840175628662,4.67435884475708],"min":[-3.4687347412109375,2.2250738585072014e-308,2.2250738585072014e-308]},{"bufferView":4,"byteOffset":0,"componentType":5126,"count":479,"type":"VEC2","max":[0.8751220703125,0.7380218505859375],"min":[2.2250738585072014e-308,2.2250738585072014e-308]},{"bufferView":5,"byteOffset":0,"componentType":5125,"count":2460,"type":"SCALAR","max":[478],"min":[0]}],"buffers":[{"byteLength":224800,"uri":"tile_0492.bin"}],"bufferViews":[{"buffer":0,"byteOffset":0,"byteLength":64044,"target":34962},{"buffer":0,"byteOffset":64044,"byteLength":42696,"target":34962},{"buffer":0,"byteOffset":106740,"byteLength":98640,"target":34963},{"buffer":0,"byteOffset":205380,"byteLength":5748,"target":34962},{"buffer":0,"byteOffset":211128,"byteLength":3832,"target":34962},{"buffer":0,"byteOffset":214960,"byteLength":9840,"target":34963}],"images":[{"uri":"../textures/tile_0492_material_0.jpg"},{"uri":"../textures/tile_0492_material_1.jpg"}],"materials":[{"name":"DefaultMaterial","pbrMetallicRoughness":{"baseColorFactor":[0.6000000238418579,0.6000000238418579,0.6000000238418579,1.0],"metallicFactor":0.0},"extensions":{"KHR_materials_specular":{"specularFactor":1.0,"specularColorFactor":[0.0,0.0,0.0]},"KHR_materials_ior":{"ior":1.0}}},{"name":"material_0_material","pbrMetallicRoughness":{"baseColorTexture":{"index":0},"metallicFactor":0.0},"extensions":{"KHR_materials_specular":{"specularFactor":1.0,"specularColorFactor":[0.0,0.0,0.0]},"KHR_materials_ior":{"ior":1.0}}},{"name":"material_1_material","pbrMetallicRoughness":{"baseColorTexture":{"index":1},"metallicFactor":0.0},"extensions":{"KHR_materials_specular":{"specularFactor":1.0,"specularColorFactor":[0.0,0.0,0.0]},"KHR_materials_ior":{"ior":1.0}}}],"meshes":[{"name":"defaultobject","primitives":[{"mode":4,"material":1,"indices":2,"attributes":{"POSITION":0,"TEXCOORD_0":1}},{"mode":4,"material":2,"indices":5,"attributes":{"POSITION":3,"TEXCOORD_0":4}}]}],"nodes":[{"name":"tile_0492.obj","children":[1]},{"name":"defaultobject","mesh":0}],"samplers":[{},{}],"scenes":[{"nodes":[0]}],"textures":[{"source":0,"sampler":0},{"source":1,"sampler":1}],"scene":0}
