{"asset":{"version":"2.0","generator":"Open Asset Import Library (assimp v6.0.0)"},"extensionsUsed":["KHR_materials_specular","KHR_materials_volume","KHR_materials_ior","FB_ngon_encoding"],"accessors":[{"bufferView":0,"byteOffset":0,"componentType":5126,"count":4719,"type":"VEC3","max":[-0.007773160934448242,-0.31168243288993835,3.3039064407348633],"min":[-0.1973603367805481,-0.545152485370636,2.2250738585072014e-308]},{"bufferView":1,"byteOffset":0,"componentType":5126,"count":4719,"type":"VEC2","max":[0.9741945266723633,0.72222900390625],"min":[2.2250738585072014e-308,2.2250738585072014e-308]},{"bufferView":2,"byteOffset":0,"componentType":5125,"count":21768,"type":"SCALAR","max":[4718],"min":[0]},{"bufferView":3,"byteOffset":0,"componentType":5126,"count":447,"type":"VEC3","max":[-0.0022058316972106695,-0.29367923736572266,3.2851593494415283],"min":[-0.19752982258796692,-0.55040043592453,2.2250738585072014e-308]},{"bufferView":4,"byteOffset":0,"componentType":5126,"count":447,"type":"VEC2","max":[0.9122905731201172,0.5234718322753906],"min":[2.2250738585072014e-308,2.2250738585072014e-308]},{"bufferView":5,"byteOffset":0,"componentType":5125,"count":1974,"type":"SCALAR","max":[446],"min":[0]}],"buffers":[{"byteLength":198288,"uri":"tile_0472.bin"}],"bufferViews":[{"buffer":0,"byteOffset":0,"byteLength":56628,"target":34962},{"buffer":0,"byteOffset":56628,"byteLength":37752,"target":34962},{"buffer":0,"byteOffset":94380,"byteLength":87072,"target":34963},{"buffer":0,"byteOffset":181452,"byteLength":5364,"target":34962},{"buffer":0,"byteOffset":186816,"byteLength":3576,"target":34962},{"buffer":0,"byteOffset":190392,"byteLength":7896,"target":34963}],"images":[{"uri":"../textures/tile_0472_material_0.jpg"},{"uri":"../textures/tile_0472_material_1.jpg"}],"materials":[{"name":"DefaultMaterial","pbrMetallicRoughness":{"baseColorFactor":[0.6000000238418579,0.6000000238418579,0.6000000238418579,1.0],"metallicFactor":0.0},"extensions":{"KHR_materials_specular":{"specularFactor":1.0,"specularColorFactor":[0.0,0.0,0.0]},"KHR_materials_ior":{"ior":1.0}}},{"name":"material_0_material","pbrMetallicRoughness":{"baseColorTexture":{"index":0},"metallicFactor":0.0},"extensions":{"KHR_materials_specular":{"specularFactor":1.0,"specularColorFactor":[0.0,0.0,0.0]},"KHR_materials_ior":{"ior":1.0}}},{"name":"material_1_material","pbrMetallicRoughness":{"baseColorTexture":{"index":1},"metallicFactor":0.0},"extensions":{"KHR_materials_specular":{"specularFactor":1.0,"specularColorFactor":[0.0,0.0,0.0]},"KHR_materials_ior":{"ior":1.0}}}],"meshes":[{"name":"defaultobject","primitives":[{"mode":4,"material":1,"indices":2,"attributes":{"POSITION":0,"TEXCOORD_0":1}},{"mode":4,"material":2,"indices":5,"attributes":{"POSITION":3,"TEXCOORD_0":4}}]}],"nodes":[{"name":"tile_0472.obj","children":[1]},{"name":"defaultobject","mesh":0}],"samplers":[{},{}],"scenes":[{"nodes":[0]}],"textures":[{"source":0,"sampler":0},{"source":1,"sampler":1}],"scene":0}
