{"asset":{"version":"2.0","generator":"Open Asset Import Library (assimp v6.0.0)"},"extensionsUsed":["KHR_materials_specular","KHR_materials_volume","KHR_materials_ior","FB_ngon_encoding"],"accessors":[{"bufferView":0,"byteOffset":0,"componentType":5126,"count":2446,"type":"VEC3","max":[-5.3464837074279785,-0.43692290782928467,4.1264262199401855],"min":[-6.176555156707764,-0.7854248285293579,2.2250738585072014e-308]},{"bufferView":1,"byteOffset":0,"componentType":5126,"count":2446,"type":"VEC2","max":[0.9946470260620117,0.7411689758300781],"min":[2.2250738585072014e-308,2.2250738585072014e-308]},{"bufferView":2,"byteOffset":0,"componentType":5125,"count":11829,"type":"SCALAR","max":[2445],"min":[0]},{"bufferView":3,"byteOffset":0,"componentType":5126,"count":1722,"type":"VEC3","max":[-5.346972942352295,-0.4379366636276245,4.127334117889404],"min":[-6.1784892082214355,-0.8217925429344177,2.2250738585072014e-308]},{"bufferView":4,"byteOffset":0,"componentType":5126,"count":1722,"type":"VEC2","max":[0.5070240497589111,0.5546112060546875],"min":[2.2250738585072014e-308,2.2250738585072014e-308]},{"bufferView":5,"byteOffset":0,"componentType":5125,"count":9114,"type":"SCALAR","max":[1721],"min":[0]}],"buffers":[{"byteLength":167132,"uri":"tile_0441.bin"}],"bufferViews":[{"buffer":0,"byteOffset":0,"byteLength":29352,"target":34962},{"buffer":0,"byteOffset":29352,"byteLength":19568,"target":34962},{"buffer":0,"byteOffset":48920,"byteLength":47316,"target":34963},{"buffer":0,"byteOffset":96236,"byteLength":20664,"target":34962},{"buffer":0,"byteOffset":116900,"byteLength":13776,"target":34962},{"buffer":0,"byteOffset":130676,"byteLength":36456,"target":34963}],"images":[{"uri":"../textures/tile_0441_material_0.jpg"},{"uri":"../textures/tile_0441_material_1.jpg"}],"materials":[{"name":"DefaultMaterial","pbrMetallicRoughness":{"baseColorFactor":[0.6000000238418579,0.6000000238418579,0.6000000238418579,1.0],"metallicFactor":0.0},"extensions":{"KHR_materials_specular":{"specularFactor":1.0,"specularColorFactor":[0.0,0.0,0.0]},"KHR_materials_ior":{"ior":1.0}}},{"name":"material_0_material","pbrMetallicRoughness":{"baseColorTexture":{"index":0},"metallicFactor":0.0},"extensions":{"KHR_materials_specular":{"specularFactor":1.0,"specularColorFactor":[0.0,0.0,0.0]},"KHR_materials_ior":{"ior":1.0}}},{"name":"material_1_material","pbrMetallicRoughness":{"baseColorTexture":{"index":1},"metallicFactor":0.0},"extensions":{"KHR_materials_specular":{"specularFactor":1.0,"specularColorFactor":[0.0,0.0,0.0]},"KHR_materials_ior":{"ior":1.0}}}],"meshes":[{"name":"defaultobject","primitives":[{"mode":4,"material":1,"indices":2,"attributes":{"POSITION":0,"TEXCOORD_0":1}},{"mode":4,"material":2,"indices":5,"attributes":{"POSITION":3,"TEXCOORD_0":4}}]}],"nodes":[{"name":"tile_0441.obj","children":[1]},{"name":"defaultobject","mesh":0}],"samplers":[{},{}],"scenes":[{"nodes":[0]}],"textures":[{"source":0,"sampler":0},{"source":1,"sampler":1}],"scene":0}
