{"asset":{"version":"2.0","generator":"Open Asset Import Library (assimp v6.0.0)"},"extensionsUsed":["KHR_materials_specular","KHR_materials_volume","KHR_materials_ior","FB_ngon_encoding"],"accessors":[{"bufferView":0,"byteOffset":0,"componentType":5126,"count":3308,"type":"VEC3","max":[2.5631752014160156,1.1200828552246094,3.8492045402526855],"min":[2.2250738585072014e-308,2.2250738585072014e-308,2.2250738585072014e-308]},{"bufferView":1,"byteOffset":0,"componentType":5126,"count":3308,"type":"VEC2","max":[0.9898133277893066,0.8668022155761719],"min":[2.2250738585072014e-308,2.2250738585072014e-308]},{"bufferView":2,"byteOffset":0,"componentType":5125,"count":15237,"type":"SCALAR","max":[3307],"min":[0]},{"bufferView":3,"byteOffset":0,"componentType":5126,"count":1673,"type":"VEC3","max":[2.564607620239258,1.1053067445755005,3.8485074043273926],"min":[2.2250738585072014e-308,2.2250738585072014e-308,2.2250738585072014e-308]},{"bufferView":4,"byteOffset":0,"componentType":5126,"count":1673,"type":"VEC2","max":[0.6944408416748047,0.49837493896484375],"min":[2.2250738585072014e-308,2.2250738585072014e-308]},{"bufferView":5,"byteOffset":0,"componentType":5125,"count":8742,"type":"SCALAR","max":[1672],"min":[0]}],"buffers":[{"byteLength":195536,"uri":"tile_0181.bin"}],"bufferViews":[{"buffer":0,"byteOffset":0,"byteLength":39696,"target":34962},{"buffer":0,"byteOffset":39696,"byteLength":26464,"target":34962},{"buffer":0,"byteOffset":66160,"byteLength":60948,"target":34963},{"buffer":0,"byteOffset":127108,"byteLength":20076,"target":34962},{"buffer":0,"byteOffset":147184,"byteLength":13384,"target":34962},{"buffer":0,"byteOffset":160568,"byteLength":34968,"target":34963}],"images":[{"uri":"../textures/tile_0181_material_0.jpg"},{"uri":"../textures/tile_0181_material_1.jpg"}],"materials":[{"name":"DefaultMaterial","pbrMetallicRoughness":{"baseColorFactor":[0.6000000238418579,0.6000000238418579,0.6000000238418579,1.0],"metallicFactor":0.0},"extensions":{"KHR_materials_specular":{"specularFactor":1.0,"specularColorFactor":[0.0,0.0,0.0]},"KHR_materials_ior":{"ior":1.0}}},{"name":"material_0_material","pbrMetallicRoughness":{"baseColorTexture":{"index":0},"metallicFactor":0.0},"extensions":{"KHR_materials_specular":{"specularFactor":1.0,"specularColorFactor":[0.0,0.0,0.0]},"KHR_materials_ior":{"ior":1.0}}},{"name":"material_1_material","pbrMetallicRoughness":{"baseColorTexture":{"index":1},"metallicFactor":0.0},"extensions":{"KHR_materials_specular":{"specularFactor":1.0,"specularColorFactor":[0.0,0.0,0.0]},"KHR_materials_ior":{"ior":1.0}}}],"meshes":[{"name":"defaultobject","primitives":[{"mode":4,"material":1,"indices":2,"attributes":{"POSITION":0,"TEXCOORD_0":1}},{"mode":4,"material":2,"indices":5,"attributes":{"POSITION":3,"TEXCOORD_0":4}}]}],"nodes":[{"name":"tile_0181.obj","children":[1]},{"name":"defaultobject","mesh":0}],"samplers":[{},{}],"scenes":[{"nodes":[0]}],"textures":[{"source":0,"sampler":0},{"source":1,"sampler":1}],"scene":0}
