{"asset":{"version":"2.0","generator":"Open Asset Import Library (assimp v6.0.0)"},"extensionsUsed":["KHR_materials_specular","KHR_materials_volume","KHR_materials_ior","FB_ngon_encoding"],"accessors":[{"bufferView":0,"byteOffset":0,"componentType":5126,"count":2923,"type":"VEC3","max":[-2.87423038482666,-3.5603225231170654,2.6251535415649414],"min":[-3.4223456382751465,-4.068592071533203,2.2250738585072014e-308]},{"bufferView":1,"byteOffset":0,"componentType":5126,"count":2923,"type":"VEC2","max":[0.9729530811309814,0.6002330780029297],"min":[2.2250738585072014e-308,2.2250738585072014e-308]},{"bufferView":2,"byteOffset":0,"componentType":5125,"count":14400,"type":"SCALAR","max":[2922],"min":[0]},{"bufferView":3,"byteOffset":0,"componentType":5126,"count":2436,"type":"VEC3","max":[-2.8695836067199707,-3.5704588890075684,2.623314142227173],"min":[-3.4414358139038086,-4.096909046173096,2.2250738585072014e-308]},{"bufferView":4,"byteOffset":0,"componentType":5126,"count":2436,"type":"VEC2","max":[0.8098635673522949,0.6240310668945312],"min":[2.2250738585072014e-308,2.2250738585072014e-308]},{"bufferView":5,"byteOffset":0,"componentType":5125,"count":13014,"type":"SCALAR","max":[2435],"min":[0]}],"buffers":[{"byteLength":216836,"uri":"tile_0381.bin"}],"bufferViews":[{"buffer":0,"byteOffset":0,"byteLength":35076,"target":34962},{"buffer":0,"byteOffset":35076,"byteLength":23384,"target":34962},{"buffer":0,"byteOffset":58460,"byteLength":57600,"target":34963},{"buffer":0,"byteOffset":116060,"byteLength":29232,"target":34962},{"buffer":0,"byteOffset":145292,"byteLength":19488,"target":34962},{"buffer":0,"byteOffset":164780,"byteLength":52056,"target":34963}],"images":[{"uri":"../textures/tile_0381_material_0.jpg"},{"uri":"../textures/tile_0381_material_1.jpg"}],"materials":[{"name":"DefaultMaterial","pbrMetallicRoughness":{"baseColorFactor":[0.6000000238418579,0.6000000238418579,0.6000000238418579,1.0],"metallicFactor":0.0},"extensions":{"KHR_materials_specular":{"specularFactor":1.0,"specularColorFactor":[0.0,0.0,0.0]},"KHR_materials_ior":{"ior":1.0}}},{"name":"material_0_material","pbrMetallicRoughness":{"baseColorTexture":{"index":0},"metallicFactor":0.0},"extensions":{"KHR_materials_specular":{"specularFactor":1.0,"specularColorFactor":[0.0,0.0,0.0]},"KHR_materials_ior":{"ior":1.0}}},{"name":"material_1_material","pbrMetallicRoughness":{"baseColorTexture":{"index":1},"metallicFactor":0.0},"extensions":{"KHR_materials_specular":{"specularFactor":1.0,"specularColorFactor":[0.0,0.0,0.0]},"KHR_materials_ior":{"ior":1.0}}}],"meshes":[{"name":"defaultobject","primitives":[{"mode":4,"material":1,"indices":2,"attributes":{"POSITION":0,"TEXCOORD_0":1}},{"mode":4,"material":2,"indices":5,"attributes":{"POSITION":3,"TEXCOORD_0":4}}]}],"nodes":[{"name":"tile_0381.obj","children":[1]},{"name":"defaultobject","mesh":0}],"samplers":[{},{}],"scenes":[{"nodes":[0]}],"textures":[{"source":0,"sampler":0},{"source":1,"sampler":1}],"scene":0}
