{"asset":{"version":"2.0","generator":"Open Asset Import Library (assimp v6.0.0)"},"extensionsUsed":["KHR_materials_specular","KHR_materials_volume","KHR_materials_ior","FB_ngon_encoding"],"accessors":[{"bufferView":0,"byteOffset":0,"componentType":5126,"count":4378,"type":"VEC3","max":[3.2247049808502197,2.299783945083618,3.9321048259735107],"min":[2.2250738585072014e-308,2.2250738585072014e-308,2.2250738585072014e-308]},{"bufferView":1,"byteOffset":0,"componentType":5126,"count":4378,"type":"VEC2","max":[0.9915485382080078,0.5071086883544922],"min":[2.2250738585072014e-308,2.2250738585072014e-308]},{"bufferView":2,"byteOffset":0,"componentType":5125,"count":21138,"type":"SCALAR","max":[4377],"min":[0]},{"bufferView":3,"byteOffset":0,"componentType":5126,"count":401,"type":"VEC3","max":[3.119220495223999,2.2995474338531494,3.9328725337982178],"min":[2.2250738585072014e-308,2.2250738585072014e-308,2.2250738585072014e-308]},{"bufferView":4,"byteOffset":0,"componentType":5126,"count":401,"type":"VEC2","max":[0.5549697875976562,0.5002670288085938],"min":[2.2250738585072014e-308,2.2250738585072014e-308]},{"bufferView":5,"byteOffset":0,"componentType":5125,"count":1944,"type":"SCALAR","max":[400],"min":[0]}],"buffers":[{"byteLength":187908,"uri":"tile_0185.bin"}],"bufferViews":[{"buffer":0,"byteOffset":0,"byteLength":52536,"target":34962},{"buffer":0,"byteOffset":52536,"byteLength":35024,"target":34962},{"buffer":0,"byteOffset":87560,"byteLength":84552,"target":34963},{"buffer":0,"byteOffset":172112,"byteLength":4812,"target":34962},{"buffer":0,"byteOffset":176924,"byteLength":3208,"target":34962},{"buffer":0,"byteOffset":180132,"byteLength":7776,"target":34963}],"images":[{"uri":"../textures/tile_0185_material_0.jpg"},{"uri":"../textures/tile_0185_material_1.jpg"}],"materials":[{"name":"DefaultMaterial","pbrMetallicRoughness":{"baseColorFactor":[0.6000000238418579,0.6000000238418579,0.6000000238418579,1.0],"metallicFactor":0.0},"extensions":{"KHR_materials_specular":{"specularFactor":1.0,"specularColorFactor":[0.0,0.0,0.0]},"KHR_materials_ior":{"ior":1.0}}},{"name":"material_0_material","pbrMetallicRoughness":{"baseColorTexture":{"index":0},"metallicFactor":0.0},"extensions":{"KHR_materials_specular":{"specularFactor":1.0,"specularColorFactor":[0.0,0.0,0.0]},"KHR_materials_ior":{"ior":1.0}}},{"name":"material_1_material","pbrMetallicRoughness":{"baseColorTexture":{"index":1},"metallicFactor":0.0},"extensions":{"KHR_materials_specular":{"specularFactor":1.0,"specularColorFactor":[0.0,0.0,0.0]},"KHR_materials_ior":{"ior":1.0}}}],"meshes":[{"name":"defaultobject","primitives":[{"mode":4,"material":1,"indices":2,"attributes":{"POSITION":0,"TEXCOORD_0":1}},{"mode":4,"material":2,"indices":5,"attributes":{"POSITION":3,"TEXCOORD_0":4}}]}],"nodes":[{"name":"tile_0185.obj","children":[1]},{"name":"defaultobject","mesh":0}],"samplers":[{},{}],"scenes":[{"nodes":[0]}],"textures":[{"source":0,"sampler":0},{"source":1,"sampler":1}],"scene":0}
