{"asset":{"version":"2.0","generator":"Open Asset Import Library (assimp v6.0.0)"},"extensionsUsed":["KHR_materials_specular","KHR_materials_volume","KHR_materials_ior","FB_ngon_encoding"],"accessors":[{"bufferView":0,"byteOffset":0,"componentType":5126,"count":4579,"type":"VEC3","max":[0.6508108973503113,-0.3206772208213806,3.6432809829711914],"min":[2.2250738585072014e-308,-0.5673189163208008,2.2250738585072014e-308]},{"bufferView":1,"byteOffset":0,"componentType":5126,"count":4579,"type":"VEC2","max":[0.9919909238815308,0.5128059387207031],"min":[2.2250738585072014e-308,2.2250738585072014e-308]},{"bufferView":2,"byteOffset":0,"componentType":5125,"count":20853,"type":"SCALAR","max":[4578],"min":[0]},{"bufferView":3,"byteOffset":0,"componentType":5126,"count":85,"type":"VEC3","max":[0.4577956795692444,-0.5129103064537048,3.445852041244507],"min":[2.2250738585072014e-308,-0.567976176738739,2.2250738585072014e-308]},{"bufferView":4,"byteOffset":0,"componentType":5126,"count":85,"type":"VEC2","max":[0.7677231431007385,0.5326309204101562],"min":[2.2250738585072014e-308,2.2250738585072014e-308]},{"bufferView":5,"byteOffset":0,"componentType":5125,"count":372,"type":"SCALAR","max":[84],"min":[0]}],"buffers":[{"byteLength":178180,"uri":"tile_0617.bin"}],"bufferViews":[{"buffer":0,"byteOffset":0,"byteLength":54948,"target":34962},{"buffer":0,"byteOffset":54948,"byteLength":36632,"target":34962},{"buffer":0,"byteOffset":91580,"byteLength":83412,"target":34963},{"buffer":0,"byteOffset":174992,"byteLength":1020,"target":34962},{"buffer":0,"byteOffset":176012,"byteLength":680,"target":34962},{"buffer":0,"byteOffset":176692,"byteLength":1488,"target":34963}],"images":[{"uri":"../textures/tile_0617_material_0.jpg"},{"uri":"../textures/tile_0617_material_1.jpg"}],"materials":[{"name":"DefaultMaterial","pbrMetallicRoughness":{"baseColorFactor":[0.6000000238418579,0.6000000238418579,0.6000000238418579,1.0],"metallicFactor":0.0},"extensions":{"KHR_materials_specular":{"specularFactor":1.0,"specularColorFactor":[0.0,0.0,0.0]},"KHR_materials_ior":{"ior":1.0}}},{"name":"material_0_material","pbrMetallicRoughness":{"baseColorTexture":{"index":0},"metallicFactor":0.0},"extensions":{"KHR_materials_specular":{"specularFactor":1.0,"specularColorFactor":[0.0,0.0,0.0]},"KHR_materials_ior":{"ior":1.0}}},{"name":"material_1_material","pbrMetallicRoughness":{"baseColorTexture":{"index":1},"metallicFactor":0.0},"extensions":{"KHR_materials_specular":{"specularFactor":1.0,"specularColorFactor":[0.0,0.0,0.0]},"KHR_materials_ior":{"ior":1.0}}}],"meshes":[{"name":"defaultobject","primitives":[{"mode":4,"material":1,"indices":2,"attributes":{"POSITION":0,"TEXCOORD_0":1}},{"mode":4,"material":2,"indices":5,"attributes":{"POSITION":3,"TEXCOORD_0":4}}]}],"nodes":[{"name":"tile_0617.obj","children":[1]},{"name":"defaultobject","mesh":0}],"samplers":[{},{}],"scenes":[{"nodes":[0]}],"textures":[{"source":0,"sampler":0},{"source":1,"sampler":1}],"scene":0}
