{"asset":{"version":"2.0","generator":"Open Asset Import Library (assimp v6.0.0)"},"extensionsUsed":["KHR_materials_specular","KHR_materials_volume","KHR_materials_ior","FB_ngon_encoding"],"accessors":[{"bufferView":0,"byteOffset":0,"componentType":5126,"count":5010,"type":"VEC3","max":[2.98310923576355,1.4193198680877686,3.841320276260376],"min":[2.2250738585072014e-308,2.2250738585072014e-308,2.2250738585072014e-308]},{"bufferView":1,"byteOffset":0,"componentType":5126,"count":5010,"type":"VEC2","max":[0.9921367168426514,0.5078125],"min":[2.2250738585072014e-308,2.2250738585072014e-308]},{"bufferView":2,"byteOffset":0,"componentType":5125,"count":22863,"type":"SCALAR","max":[5009],"min":[0]},{"bufferView":3,"byteOffset":0,"componentType":5126,"count":53,"type":"VEC3","max":[2.5862443447113037,1.3434853553771973,3.783231496810913],"min":[2.2250738585072014e-308,2.2250738585072014e-308,2.2250738585072014e-308]},{"bufferView":4,"byteOffset":0,"componentType":5126,"count":53,"type":"VEC2","max":[0.8321762681007385,0.672119140625],"min":[2.2250738585072014e-308,2.2250738585072014e-308]},{"bufferView":5,"byteOffset":0,"componentType":5125,"count":213,"type":"SCALAR","max":[52],"min":[0]}],"buffers":[{"byteLength":193564,"uri":"tile_0653.bin"}],"bufferViews":[{"buffer":0,"byteOffset":0,"byteLength":60120,"target":34962},{"buffer":0,"byteOffset":60120,"byteLength":40080,"target":34962},{"buffer":0,"byteOffset":100200,"byteLength":91452,"target":34963},{"buffer":0,"byteOffset":191652,"byteLength":636,"target":34962},{"buffer":0,"byteOffset":192288,"byteLength":424,"target":34962},{"buffer":0,"byteOffset":192712,"byteLength":852,"target":34963}],"images":[{"uri":"../textures/tile_0653_material_0.jpg"},{"uri":"../textures/tile_0653_material_1.jpg"}],"materials":[{"name":"DefaultMaterial","pbrMetallicRoughness":{"baseColorFactor":[0.6000000238418579,0.6000000238418579,0.6000000238418579,1.0],"metallicFactor":0.0},"extensions":{"KHR_materials_specular":{"specularFactor":1.0,"specularColorFactor":[0.0,0.0,0.0]},"KHR_materials_ior":{"ior":1.0}}},{"name":"material_0_material","pbrMetallicRoughness":{"baseColorTexture":{"index":0},"metallicFactor":0.0},"extensions":{"KHR_materials_specular":{"specularFactor":1.0,"specularColorFactor":[0.0,0.0,0.0]},"KHR_materials_ior":{"ior":1.0}}},{"name":"material_1_material","pbrMetallicRoughness":{"baseColorTexture":{"index":1},"metallicFactor":0.0},"extensions":{"KHR_materials_specular":{"specularFactor":1.0,"specularColorFactor":[0.0,0.0,0.0]},"KHR_materials_ior":{"ior":1.0}}}],"meshes":[{"name":"defaultobject","primitives":[{"mode":4,"material":1,"indices":2,"attributes":{"POSITION":0,"TEXCOORD_0":1}},{"mode":4,"material":2,"indices":5,"attributes":{"POSITION":3,"TEXCOORD_0":4}}]}],"nodes":[{"name":"tile_0653.obj","children":[1]},{"name":"defaultobject","mesh":0}],"samplers":[{},{}],"scenes":[{"nodes":[0]}],"textures":[{"source":0,"sampler":0},{"source":1,"sampler":1}],"scene":0}
