{"asset":{"version":"2.0","generator":"Open Asset Import Library (assimp v6.0.0)"},"extensionsUsed":["KHR_materials_specular","KHR_materials_volume","KHR_materials_ior","FB_ngon_encoding"],"accessors":[{"bufferView":0,"byteOffset":0,"componentType":5126,"count":6238,"type":"VEC3","max":[0.3718220889568329,-3.698427677154541,2.9358298778533936],"min":[2.2250738585072014e-308,-4.0790300369262695,2.2250738585072014e-308]},{"bufferView":1,"byteOffset":0,"componentType":5126,"count":6238,"type":"VEC2","max":[0.9943113327026367,0.6288623809814453],"min":[2.2250738585072014e-308,2.2250738585072014e-308]},{"bufferView":2,"byteOffset":0,"componentType":5125,"count":27051,"type":"SCALAR","max":[6237],"min":[0]},{"bufferView":3,"byteOffset":0,"componentType":5126,"count":28,"type":"VEC3","max":[0.3698157072067261,-3.720799207687378,2.8805336952209473],"min":[2.2250738585072014e-308,-4.074802875518799,2.2250738585072014e-308]},{"bufferView":4,"byteOffset":0,"componentType":5126,"count":28,"type":"VEC2","max":[0.545501708984375,0.47970592975616455],"min":[2.2250738585072014e-308,2.2250738585072014e-308]},{"bufferView":5,"byteOffset":0,"componentType":5125,"count":81,"type":"SCALAR","max":[27],"min":[0]}],"buffers":[{"byteLength":233848,"uri":"tile_0776.bin"}],"bufferViews":[{"buffer":0,"byteOffset":0,"byteLength":74856,"target":34962},{"buffer":0,"byteOffset":74856,"byteLength":49904,"target":34962},{"buffer":0,"byteOffset":124760,"byteLength":108204,"target":34963},{"buffer":0,"byteOffset":232964,"byteLength":336,"target":34962},{"buffer":0,"byteOffset":233300,"byteLength":224,"target":34962},{"buffer":0,"byteOffset":233524,"byteLength":324,"target":34963}],"images":[{"uri":"../textures/tile_0776_material_0.jpg"},{"uri":"../textures/tile_0776_material_1.jpg"}],"materials":[{"name":"DefaultMaterial","pbrMetallicRoughness":{"baseColorFactor":[0.6000000238418579,0.6000000238418579,0.6000000238418579,1.0],"metallicFactor":0.0},"extensions":{"KHR_materials_specular":{"specularFactor":1.0,"specularColorFactor":[0.0,0.0,0.0]},"KHR_materials_ior":{"ior":1.0}}},{"name":"material_0_material","pbrMetallicRoughness":{"baseColorTexture":{"index":0},"metallicFactor":0.0},"extensions":{"KHR_materials_specular":{"specularFactor":1.0,"specularColorFactor":[0.0,0.0,0.0]},"KHR_materials_ior":{"ior":1.0}}},{"name":"material_1_material","pbrMetallicRoughness":{"baseColorTexture":{"index":1},"metallicFactor":0.0},"extensions":{"KHR_materials_specular":{"specularFactor":1.0,"specularColorFactor":[0.0,0.0,0.0]},"KHR_materials_ior":{"ior":1.0}}}],"meshes":[{"name":"defaultobject","primitives":[{"mode":4,"material":1,"indices":2,"attributes":{"POSITION":0,"TEXCOORD_0":1}},{"mode":4,"material":2,"indices":5,"attributes":{"POSITION":3,"TEXCOORD_0":4}}]}],"nodes":[{"name":"tile_0776.obj","children":[1]},{"name":"defaultobject","mesh":0}],"samplers":[{},{}],"scenes":[{"nodes":[0]}],"textures":[{"source":0,"sampler":0},{"source":1,"sampler":1}],"scene":0}
