{"asset":{"version":"2.0","generator":"Open Asset Import Library (assimp v6.0.0)"},"extensionsUsed":["KHR_materials_specular","KHR_materials_volume","KHR_materials_ior","FB_ngon_encoding"],"accessors":[{"bufferView":0,"byteOffset":0,"componentType":5126,"count":4360,"type":"VEC3","max":[2.983525037765503,1.141714334487915,3.839556932449341],"min":[2.2250738585072014e-308,2.2250738585072014e-308,2.2250738585072014e-308]},{"bufferView":1,"byteOffset":0,"componentType":5126,"count":4360,"type":"VEC2","max":[0.9899616241455078,0.5154838562011719],"min":[2.2250738585072014e-308,2.2250738585072014e-308]},{"bufferView":2,"byteOffset":0,"componentType":5125,"count":20214,"type":"SCALAR","max":[4359],"min":[0]},{"bufferView":3,"byteOffset":0,"componentType":5126,"count":478,"type":"VEC3","max":[2.9828691482543945,1.0597081184387207,3.8083059787750244],"min":[2.2250738585072014e-308,2.2250738585072014e-308,2.2250738585072014e-308]},{"bufferView":4,"byteOffset":0,"componentType":5126,"count":478,"type":"VEC2","max":[0.8011102676391602,0.5539169311523438],"min":[2.2250738585072014e-308,2.2250738585072014e-308]},{"bufferView":5,"byteOffset":0,"componentType":5125,"count":2313,"type":"SCALAR","max":[477],"min":[0]}],"buffers":[{"byteLength":186868,"uri":"tile_0179.bin"}],"bufferViews":[{"buffer":0,"byteOffset":0,"byteLength":52320,"target":34962},{"buffer":0,"byteOffset":52320,"byteLength":34880,"target":34962},{"buffer":0,"byteOffset":87200,"byteLength":80856,"target":34963},{"buffer":0,"byteOffset":168056,"byteLength":5736,"target":34962},{"buffer":0,"byteOffset":173792,"byteLength":3824,"target":34962},{"buffer":0,"byteOffset":177616,"byteLength":9252,"target":34963}],"images":[{"uri":"../textures/tile_0179_material_0.jpg"},{"uri":"../textures/tile_0179_material_1.jpg"}],"materials":[{"name":"DefaultMaterial","pbrMetallicRoughness":{"baseColorFactor":[0.6000000238418579,0.6000000238418579,0.6000000238418579,1.0],"metallicFactor":0.0},"extensions":{"KHR_materials_specular":{"specularFactor":1.0,"specularColorFactor":[0.0,0.0,0.0]},"KHR_materials_ior":{"ior":1.0}}},{"name":"material_0_material","pbrMetallicRoughness":{"baseColorTexture":{"index":0},"metallicFactor":0.0},"extensions":{"KHR_materials_specular":{"specularFactor":1.0,"specularColorFactor":[0.0,0.0,0.0]},"KHR_materials_ior":{"ior":1.0}}},{"name":"material_1_material","pbrMetallicRoughness":{"baseColorTexture":{"index":1},"metallicFactor":0.0},"extensions":{"KHR_materials_specular":{"specularFactor":1.0,"specularColorFactor":[0.0,0.0,0.0]},"KHR_materials_ior":{"ior":1.0}}}],"meshes":[{"name":"defaultobject","primitives":[{"mode":4,"material":1,"indices":2,"attributes":{"POSITION":0,"TEXCOORD_0":1}},{"mode":4,"material":2,"indices":5,"attributes":{"POSITION":3,"TEXCOORD_0":4}}]}],"nodes":[{"name":"tile_0179.obj","children":[1]},{"name":"defaultobject","mesh":0}],"samplers":[{},{}],"scenes":[{"nodes":[0]}],"textures":[{"source":0,"sampler":0},{"source":1,"sampler":1}],"scene":0}
