{"asset":{"version":"2.0","generator":"Open Asset Import Library (assimp v6.0.0)"},"extensionsUsed":["KHR_materials_specular","KHR_materials_volume","KHR_materials_ior","FB_ngon_encoding"],"accessors":[{"bufferView":0,"byteOffset":0,"componentType":5126,"count":2655,"type":"VEC3","max":[-6.4692792892456055,2.021657705307007,4.8591437339782715],"min":[-8.260881423950195,2.2250738585072014e-308,2.2250738585072014e-308]},{"bufferView":1,"byteOffset":0,"componentType":5126,"count":2655,"type":"VEC2","max":[0.9886393547058105,0.5558547973632812],"min":[2.2250738585072014e-308,2.2250738585072014e-308]},{"bufferView":2,"byteOffset":0,"componentType":5125,"count":13512,"type":"SCALAR","max":[2654],"min":[0]},{"bufferView":3,"byteOffset":0,"componentType":5126,"count":4296,"type":"VEC3","max":[-6.4683403968811035,2.0181596279144287,4.855586528778076],"min":[-8.245809555053711,2.2250738585072014e-308,2.2250738585072014e-308]},{"bufferView":4,"byteOffset":0,"componentType":5126,"count":4296,"type":"VEC2","max":[0.9907842874526978,0.8651218414306641],"min":[2.2250738585072014e-308,2.2250738585072014e-308]},{"bufferView":5,"byteOffset":0,"componentType":5125,"count":22830,"type":"SCALAR","max":[4295],"min":[0]}],"buffers":[{"byteLength":284388,"uri":"tile_0481.bin"}],"bufferViews":[{"buffer":0,"byteOffset":0,"byteLength":31860,"target":34962},{"buffer":0,"byteOffset":31860,"byteLength":21240,"target":34962},{"buffer":0,"byteOffset":53100,"byteLength":54048,"target":34963},{"buffer":0,"byteOffset":107148,"byteLength":51552,"target":34962},{"buffer":0,"byteOffset":158700,"byteLength":34368,"target":34962},{"buffer":0,"byteOffset":193068,"byteLength":91320,"target":34963}],"images":[{"uri":"../textures/tile_0481_material_0.jpg"},{"uri":"../textures/tile_0481_material_1.jpg"}],"materials":[{"name":"DefaultMaterial","pbrMetallicRoughness":{"baseColorFactor":[0.6000000238418579,0.6000000238418579,0.6000000238418579,1.0],"metallicFactor":0.0},"extensions":{"KHR_materials_specular":{"specularFactor":1.0,"specularColorFactor":[0.0,0.0,0.0]},"KHR_materials_ior":{"ior":1.0}}},{"name":"material_0_material","pbrMetallicRoughness":{"baseColorTexture":{"index":0},"metallicFactor":0.0},"extensions":{"KHR_materials_specular":{"specularFactor":1.0,"specularColorFactor":[0.0,0.0,0.0]},"KHR_materials_ior":{"ior":1.0}}},{"name":"material_1_material","pbrMetallicRoughness":{"baseColorTexture":{"index":1},"metallicFactor":0.0},"extensions":{"KHR_materials_specular":{"specularFactor":1.0,"specularColorFactor":[0.0,0.0,0.0]},"KHR_materials_ior":{"ior":1.0}}}],"meshes":[{"name":"defaultobject","primitives":[{"mode":4,"material":1,"indices":2,"attributes":{"POSITION":0,"TEXCOORD_0":1}},{"mode":4,"material":2,"indices":5,"attributes":{"POSITION":3,"TEXCOORD_0":4}}]}],"nodes":[{"name":"tile_0481.obj","children":[1]},{"name":"defaultobject","mesh":0}],"samplers":[{},{}],"scenes":[{"nodes":[0]}],"textures":[{"source":0,"sampler":0},{"source":1,"sampler":1}],"scene":0}
