{"asset":{"version":"2.0","generator":"Open Asset Import Library (assimp v6.0.0)"},"extensionsUsed":["KHR_materials_specular","KHR_materials_volume","KHR_materials_ior","FB_ngon_encoding"],"accessors":[{"bufferView":0,"byteOffset":0,"componentType":5126,"count":2780,"type":"VEC3","max":[4.145301342010498,2.2367730140686035,3.971315383911133],"min":[2.2250738585072014e-308,2.2250738585072014e-308,2.2250738585072014e-308]},{"bufferView":1,"byteOffset":0,"componentType":5126,"count":2780,"type":"VEC2","max":[0.991377592086792,0.81207275390625],"min":[2.2250738585072014e-308,2.2250738585072014e-308]},{"bufferView":2,"byteOffset":0,"componentType":5125,"count":13179,"type":"SCALAR","max":[2779],"min":[0]},{"bufferView":3,"byteOffset":0,"componentType":5126,"count":1752,"type":"VEC3","max":[4.1401472091674805,2.2338216304779053,3.970757246017456],"min":[2.2250738585072014e-308,2.2250738585072014e-308,2.2250738585072014e-308]},{"bufferView":4,"byteOffset":0,"componentType":5126,"count":1752,"type":"VEC2","max":[0.9904279708862305,0.920074462890625],"min":[2.2250738585072014e-308,2.2250738585072014e-308]},{"bufferView":5,"byteOffset":0,"componentType":5125,"count":9102,"type":"SCALAR","max":[1751],"min":[0]}],"buffers":[{"byteLength":179764,"uri":"tile_0667.bin"}],"bufferViews":[{"buffer":0,"byteOffset":0,"byteLength":33360,"target":34962},{"buffer":0,"byteOffset":33360,"byteLength":22240,"target":34962},{"buffer":0,"byteOffset":55600,"byteLength":52716,"target":34963},{"buffer":0,"byteOffset":108316,"byteLength":21024,"target":34962},{"buffer":0,"byteOffset":129340,"byteLength":14016,"target":34962},{"buffer":0,"byteOffset":143356,"byteLength":36408,"target":34963}],"images":[{"uri":"../textures/tile_0667_material_0.jpg"},{"uri":"../textures/tile_0667_material_1.jpg"}],"materials":[{"name":"DefaultMaterial","pbrMetallicRoughness":{"baseColorFactor":[0.6000000238418579,0.6000000238418579,0.6000000238418579,1.0],"metallicFactor":0.0},"extensions":{"KHR_materials_specular":{"specularFactor":1.0,"specularColorFactor":[0.0,0.0,0.0]},"KHR_materials_ior":{"ior":1.0}}},{"name":"material_0_material","pbrMetallicRoughness":{"baseColorTexture":{"index":0},"metallicFactor":0.0},"extensions":{"KHR_materials_specular":{"specularFactor":1.0,"specularColorFactor":[0.0,0.0,0.0]},"KHR_materials_ior":{"ior":1.0}}},{"name":"material_1_material","pbrMetallicRoughness":{"baseColorTexture":{"index":1},"metallicFactor":0.0},"extensions":{"KHR_materials_specular":{"specularFactor":1.0,"specularColorFactor":[0.0,0.0,0.0]},"KHR_materials_ior":{"ior":1.0}}}],"meshes":[{"name":"defaultobject","primitives":[{"mode":4,"material":1,"indices":2,"attributes":{"POSITION":0,"TEXCOORD_0":1}},{"mode":4,"material":2,"indices":5,"attributes":{"POSITION":3,"TEXCOORD_0":4}}]}],"nodes":[{"name":"tile_0667.obj","children":[1]},{"name":"defaultobject","mesh":0}],"samplers":[{},{}],"scenes":[{"nodes":[0]}],"textures":[{"source":0,"sampler":0},{"source":1,"sampler":1}],"scene":0}
