{"asset":{"version":"2.0","generator":"Open Asset Import Library (assimp v6.0.0)"},"extensionsUsed":["KHR_materials_specular","KHR_materials_volume","KHR_materials_ior","FB_ngon_encoding"],"accessors":[{"bufferView":0,"byteOffset":0,"componentType":5126,"count":5727,"type":"VEC3","max":[-2.168442726135254,1.6230417490005493,4.248081684112549],"min":[-2.4908182621002197,2.2250738585072014e-308,2.2250738585072014e-308]},{"bufferView":1,"byteOffset":0,"componentType":5126,"count":5727,"type":"VEC2","max":[0.9946575164794922,0.6162357330322266],"min":[2.2250738585072014e-308,2.2250738585072014e-308]},{"bufferView":2,"byteOffset":0,"componentType":5125,"count":24735,"type":"SCALAR","max":[5726],"min":[0]},{"bufferView":3,"byteOffset":0,"componentType":5126,"count":475,"type":"VEC3","max":[-2.184264659881592,1.2968701124191284,4.012448787689209],"min":[-2.4316647052764893,2.2250738585072014e-308,2.2250738585072014e-308]},{"bufferView":4,"byteOffset":0,"componentType":5126,"count":475,"type":"VEC2","max":[0.6682891845703125,0.8955268859863281],"min":[2.2250738585072014e-308,2.2250738585072014e-308]},{"bufferView":5,"byteOffset":0,"componentType":5125,"count":2376,"type":"SCALAR","max":[474],"min":[0]}],"buffers":[{"byteLength":232484,"uri":"tile_0150.bin"}],"bufferViews":[{"buffer":0,"byteOffset":0,"byteLength":68724,"target":34962},{"buffer":0,"byteOffset":68724,"byteLength":45816,"target":34962},{"buffer":0,"byteOffset":114540,"byteLength":98940,"target":34963},{"buffer":0,"byteOffset":213480,"byteLength":5700,"target":34962},{"buffer":0,"byteOffset":219180,"byteLength":3800,"target":34962},{"buffer":0,"byteOffset":222980,"byteLength":9504,"target":34963}],"images":[{"uri":"../textures/tile_0150_material_0.jpg"},{"uri":"../textures/tile_0150_material_1.jpg"}],"materials":[{"name":"DefaultMaterial","pbrMetallicRoughness":{"baseColorFactor":[0.6000000238418579,0.6000000238418579,0.6000000238418579,1.0],"metallicFactor":0.0},"extensions":{"KHR_materials_specular":{"specularFactor":1.0,"specularColorFactor":[0.0,0.0,0.0]},"KHR_materials_ior":{"ior":1.0}}},{"name":"material_0_material","pbrMetallicRoughness":{"baseColorTexture":{"index":0},"metallicFactor":0.0},"extensions":{"KHR_materials_specular":{"specularFactor":1.0,"specularColorFactor":[0.0,0.0,0.0]},"KHR_materials_ior":{"ior":1.0}}},{"name":"material_1_material","pbrMetallicRoughness":{"baseColorTexture":{"index":1},"metallicFactor":0.0},"extensions":{"KHR_materials_specular":{"specularFactor":1.0,"specularColorFactor":[0.0,0.0,0.0]},"KHR_materials_ior":{"ior":1.0}}}],"meshes":[{"name":"defaultobject","primitives":[{"mode":4,"material":1,"indices":2,"attributes":{"POSITION":0,"TEXCOORD_0":1}},{"mode":4,"material":2,"indices":5,"attributes":{"POSITION":3,"TEXCOORD_0":4}}]}],"nodes":[{"name":"tile_0150.obj","children":[1]},{"name":"defaultobject","mesh":0}],"samplers":[{},{}],"scenes":[{"nodes":[0]}],"textures":[{"source":0,"sampler":0},{"source":1,"sampler":1}],"scene":0}
