{"asset":{"version":"2.0","generator":"Open Asset Import Library (assimp v6.0.0)"},"extensionsUsed":["KHR_materials_specular","KHR_materials_volume","KHR_materials_ior","FB_ngon_encoding"],"accessors":[{"bufferView":0,"byteOffset":0,"componentType":5126,"count":6178,"type":"VEC3","max":[1.6352407932281494,-2.167738199234009,3.0382745265960693],"min":[2.2250738585072014e-308,-2.4532692432403564,2.2250738585072014e-308]},{"bufferView":1,"byteOffset":0,"componentType":5126,"count":6178,"type":"VEC2","max":[0.9760532379150391,0.6991138458251953],"min":[2.2250738585072014e-308,2.2250738585072014e-308]},{"bufferView":2,"byteOffset":0,"componentType":5125,"count":29007,"type":"SCALAR","max":[6177],"min":[0]},{"bufferView":3,"byteOffset":0,"componentType":5126,"count":659,"type":"VEC3","max":[1.6538994312286377,-2.167738199234009,3.048217296600342],"min":[2.2250738585072014e-308,-2.377434492111206,2.2250738585072014e-308]},{"bufferView":4,"byteOffset":0,"componentType":5126,"count":659,"type":"VEC2","max":[0.5666112899780273,0.7798194885253906],"min":[2.2250738585072014e-308,2.2250738585072014e-308]},{"bufferView":5,"byteOffset":0,"componentType":5125,"count":3402,"type":"SCALAR","max":[658],"min":[0]}],"buffers":[{"byteLength":266376,"uri":"tile_0295.bin"}],"bufferViews":[{"buffer":0,"byteOffset":0,"byteLength":74136,"target":34962},{"buffer":0,"byteOffset":74136,"byteLength":49424,"target":34962},{"buffer":0,"byteOffset":123560,"byteLength":116028,"target":34963},{"buffer":0,"byteOffset":239588,"byteLength":7908,"target":34962},{"buffer":0,"byteOffset":247496,"byteLength":5272,"target":34962},{"buffer":0,"byteOffset":252768,"byteLength":13608,"target":34963}],"images":[{"uri":"../textures/tile_0295_material_0.jpg"},{"uri":"../textures/tile_0295_material_1.jpg"}],"materials":[{"name":"DefaultMaterial","pbrMetallicRoughness":{"baseColorFactor":[0.6000000238418579,0.6000000238418579,0.6000000238418579,1.0],"metallicFactor":0.0},"extensions":{"KHR_materials_specular":{"specularFactor":1.0,"specularColorFactor":[0.0,0.0,0.0]},"KHR_materials_ior":{"ior":1.0}}},{"name":"material_0_material","pbrMetallicRoughness":{"baseColorTexture":{"index":0},"metallicFactor":0.0},"extensions":{"KHR_materials_specular":{"specularFactor":1.0,"specularColorFactor":[0.0,0.0,0.0]},"KHR_materials_ior":{"ior":1.0}}},{"name":"material_1_material","pbrMetallicRoughness":{"baseColorTexture":{"index":1},"metallicFactor":0.0},"extensions":{"KHR_materials_specular":{"specularFactor":1.0,"specularColorFactor":[0.0,0.0,0.0]},"KHR_materials_ior":{"ior":1.0}}}],"meshes":[{"name":"defaultobject","primitives":[{"mode":4,"material":1,"indices":2,"attributes":{"POSITION":0,"TEXCOORD_0":1}},{"mode":4,"material":2,"indices":5,"attributes":{"POSITION":3,"TEXCOORD_0":4}}]}],"nodes":[{"name":"tile_0295.obj","children":[1]},{"name":"defaultobject","mesh":0}],"samplers":[{},{}],"scenes":[{"nodes":[0]}],"textures":[{"source":0,"sampler":0},{"source":1,"sampler":1}],"scene":0}
