{"asset":{"version":"2.0","generator":"Open Asset Import Library (assimp v6.0.0)"},"extensionsUsed":["KHR_materials_specular","KHR_materials_volume","KHR_materials_ior","FB_ngon_encoding"],"accessors":[{"bufferView":0,"byteOffset":0,"componentType":5126,"count":3105,"type":"VEC3","max":[0.7398878931999207,8.48202133178711,5.067355632781982],"min":[2.2250738585072014e-308,2.2250738585072014e-308,2.2250738585072014e-308]},{"bufferView":1,"byteOffset":0,"componentType":5126,"count":3105,"type":"VEC2","max":[0.9886631965637207,0.624359130859375],"min":[2.2250738585072014e-308,2.2250738585072014e-308]},{"bufferView":2,"byteOffset":0,"componentType":5125,"count":14862,"type":"SCALAR","max":[3104],"min":[0]},{"bufferView":3,"byteOffset":0,"componentType":5126,"count":2426,"type":"VEC3","max":[0.7808021306991577,8.477744102478027,5.072976112365723],"min":[2.2250738585072014e-308,2.2250738585072014e-308,2.2250738585072014e-308]},{"bufferView":4,"byteOffset":0,"componentType":5126,"count":2426,"type":"VEC2","max":[0.8502993583679199,0.9424371719360352],"min":[2.2250738585072014e-308,2.2250738585072014e-308]},{"bufferView":5,"byteOffset":0,"componentType":5125,"count":12702,"type":"SCALAR","max":[2425],"min":[0]}],"buffers":[{"byteLength":220876,"uri":"tile_0698.bin"}],"bufferViews":[{"buffer":0,"byteOffset":0,"byteLength":37260,"target":34962},{"buffer":0,"byteOffset":37260,"byteLength":24840,"target":34962},{"buffer":0,"byteOffset":62100,"byteLength":59448,"target":34963},{"buffer":0,"byteOffset":121548,"byteLength":29112,"target":34962},{"buffer":0,"byteOffset":150660,"byteLength":19408,"target":34962},{"buffer":0,"byteOffset":170068,"byteLength":50808,"target":34963}],"images":[{"uri":"../textures/tile_0698_material_0.jpg"},{"uri":"../textures/tile_0698_material_1.jpg"}],"materials":[{"name":"DefaultMaterial","pbrMetallicRoughness":{"baseColorFactor":[0.6000000238418579,0.6000000238418579,0.6000000238418579,1.0],"metallicFactor":0.0},"extensions":{"KHR_materials_specular":{"specularFactor":1.0,"specularColorFactor":[0.0,0.0,0.0]},"KHR_materials_ior":{"ior":1.0}}},{"name":"material_0_material","pbrMetallicRoughness":{"baseColorTexture":{"index":0},"metallicFactor":0.0},"extensions":{"KHR_materials_specular":{"specularFactor":1.0,"specularColorFactor":[0.0,0.0,0.0]},"KHR_materials_ior":{"ior":1.0}}},{"name":"material_1_material","pbrMetallicRoughness":{"baseColorTexture":{"index":1},"metallicFactor":0.0},"extensions":{"KHR_materials_specular":{"specularFactor":1.0,"specularColorFactor":[0.0,0.0,0.0]},"KHR_materials_ior":{"ior":1.0}}}],"meshes":[{"name":"defaultobject","primitives":[{"mode":4,"material":1,"indices":2,"attributes":{"POSITION":0,"TEXCOORD_0":1}},{"mode":4,"material":2,"indices":5,"attributes":{"POSITION":3,"TEXCOORD_0":4}}]}],"nodes":[{"name":"tile_0698.obj","children":[1]},{"name":"defaultobject","mesh":0}],"samplers":[{},{}],"scenes":[{"nodes":[0]}],"textures":[{"source":0,"sampler":0},{"source":1,"sampler":1}],"scene":0}
