{"asset":{"version":"2.0","generator":"Open Asset Import Library (assimp v6.0.0)"},"extensionsUsed":["KHR_materials_specular","KHR_materials_volume","KHR_materials_ior","FB_ngon_encoding"],"accessors":[{"bufferView":0,"byteOffset":0,"componentType":5126,"count":5139,"type":"VEC3","max":[-1.550801396369934,-0.3593422472476959,2.741060733795166],"min":[-1.8531990051269531,-0.5501839518547058,2.2250738585072014e-308]},{"bufferView":1,"byteOffset":0,"componentType":5126,"count":5139,"type":"VEC2","max":[0.9735007286071777,0.6172637939453125],"min":[2.2250738585072014e-308,2.2250738585072014e-308]},{"bufferView":2,"byteOffset":0,"componentType":5125,"count":25335,"type":"SCALAR","max":[5138],"min":[0]},{"bufferView":3,"byteOffset":0,"componentType":5126,"count":215,"type":"VEC3","max":[-1.5545039176940918,-0.3633233904838562,2.7360520362854004],"min":[-1.7601038217544556,-0.5502394437789917,2.2250738585072014e-308]},{"bufferView":4,"byteOffset":0,"componentType":5126,"count":215,"type":"VEC2","max":[0.6211786270141602,0.89630126953125],"min":[2.2250738585072014e-308,2.2250738585072014e-308]},{"bufferView":5,"byteOffset":0,"componentType":5125,"count":978,"type":"SCALAR","max":[214],"min":[0]}],"buffers":[{"byteLength":212332,"uri":"tile_0089.bin"}],"bufferViews":[{"buffer":0,"byteOffset":0,"byteLength":61668,"target":34962},{"buffer":0,"byteOffset":61668,"byteLength":41112,"target":34962},{"buffer":0,"byteOffset":102780,"byteLength":101340,"target":34963},{"buffer":0,"byteOffset":204120,"byteLength":2580,"target":34962},{"buffer":0,"byteOffset":206700,"byteLength":1720,"target":34962},{"buffer":0,"byteOffset":208420,"byteLength":3912,"target":34963}],"images":[{"uri":"../textures/tile_0089_material_0.jpg"},{"uri":"../textures/tile_0089_material_1.jpg"}],"materials":[{"name":"DefaultMaterial","pbrMetallicRoughness":{"baseColorFactor":[0.6000000238418579,0.6000000238418579,0.6000000238418579,1.0],"metallicFactor":0.0},"extensions":{"KHR_materials_specular":{"specularFactor":1.0,"specularColorFactor":[0.0,0.0,0.0]},"KHR_materials_ior":{"ior":1.0}}},{"name":"material_0_material","pbrMetallicRoughness":{"baseColorTexture":{"index":0},"metallicFactor":0.0},"extensions":{"KHR_materials_specular":{"specularFactor":1.0,"specularColorFactor":[0.0,0.0,0.0]},"KHR_materials_ior":{"ior":1.0}}},{"name":"material_1_material","pbrMetallicRoughness":{"baseColorTexture":{"index":1},"metallicFactor":0.0},"extensions":{"KHR_materials_specular":{"specularFactor":1.0,"specularColorFactor":[0.0,0.0,0.0]},"KHR_materials_ior":{"ior":1.0}}}],"meshes":[{"name":"defaultobject","primitives":[{"mode":4,"material":1,"indices":2,"attributes":{"POSITION":0,"TEXCOORD_0":1}},{"mode":4,"material":2,"indices":5,"attributes":{"POSITION":3,"TEXCOORD_0":4}}]}],"nodes":[{"name":"tile_0089.obj","children":[1]},{"name":"defaultobject","mesh":0}],"samplers":[{},{}],"scenes":[{"nodes":[0]}],"textures":[{"source":0,"sampler":0},{"source":1,"sampler":1}],"scene":0}
