{"asset":{"version":"2.0","generator":"Open Asset Import Library (assimp v6.0.0)"},"extensionsUsed":["KHR_materials_specular","KHR_materials_volume","KHR_materials_ior","FB_ngon_encoding"],"accessors":[{"bufferView":0,"byteOffset":0,"componentType":5126,"count":5151,"type":"VEC3","max":[-2.795173168182373,3.212831735610962,4.690683841705322],"min":[-3.147655725479126,2.2250738585072014e-308,2.2250738585072014e-308]},{"bufferView":1,"byteOffset":0,"componentType":5126,"count":5151,"type":"VEC2","max":[0.9899556636810303,0.5661067962646484],"min":[2.2250738585072014e-308,2.2250738585072014e-308]},{"bufferView":2,"byteOffset":0,"componentType":5125,"count":23193,"type":"SCALAR","max":[5150],"min":[0]},{"bufferView":3,"byteOffset":0,"componentType":5126,"count":185,"type":"VEC3","max":[-2.7970407009124756,3.2108213901519775,4.653472900390625],"min":[-2.853787422180176,2.2250738585072014e-308,2.2250738585072014e-308]},{"bufferView":4,"byteOffset":0,"componentType":5126,"count":185,"type":"VEC2","max":[0.8585662841796875,0.605377197265625],"min":[2.2250738585072014e-308,2.2250738585072014e-308]},{"bufferView":5,"byteOffset":0,"componentType":5125,"count":870,"type":"SCALAR","max":[184],"min":[0]}],"buffers":[{"byteLength":202972,"uri":"tile_0115.bin"}],"bufferViews":[{"buffer":0,"byteOffset":0,"byteLength":61812,"target":34962},{"buffer":0,"byteOffset":61812,"byteLength":41208,"target":34962},{"buffer":0,"byteOffset":103020,"byteLength":92772,"target":34963},{"buffer":0,"byteOffset":195792,"byteLength":2220,"target":34962},{"buffer":0,"byteOffset":198012,"byteLength":1480,"target":34962},{"buffer":0,"byteOffset":199492,"byteLength":3480,"target":34963}],"images":[{"uri":"../textures/tile_0115_material_0.jpg"},{"uri":"../textures/tile_0115_material_1.jpg"}],"materials":[{"name":"DefaultMaterial","pbrMetallicRoughness":{"baseColorFactor":[0.6000000238418579,0.6000000238418579,0.6000000238418579,1.0],"metallicFactor":0.0},"extensions":{"KHR_materials_specular":{"specularFactor":1.0,"specularColorFactor":[0.0,0.0,0.0]},"KHR_materials_ior":{"ior":1.0}}},{"name":"material_0_material","pbrMetallicRoughness":{"baseColorTexture":{"index":0},"metallicFactor":0.0},"extensions":{"KHR_materials_specular":{"specularFactor":1.0,"specularColorFactor":[0.0,0.0,0.0]},"KHR_materials_ior":{"ior":1.0}}},{"name":"material_1_material","pbrMetallicRoughness":{"baseColorTexture":{"index":1},"metallicFactor":0.0},"extensions":{"KHR_materials_specular":{"specularFactor":1.0,"specularColorFactor":[0.0,0.0,0.0]},"KHR_materials_ior":{"ior":1.0}}}],"meshes":[{"name":"defaultobject","primitives":[{"mode":4,"material":1,"indices":2,"attributes":{"POSITION":0,"TEXCOORD_0":1}},{"mode":4,"material":2,"indices":5,"attributes":{"POSITION":3,"TEXCOORD_0":4}}]}],"nodes":[{"name":"tile_0115.obj","children":[1]},{"name":"defaultobject","mesh":0}],"samplers":[{},{}],"scenes":[{"nodes":[0]}],"textures":[{"source":0,"sampler":0},{"source":1,"sampler":1}],"scene":0}
