{"asset":{"version":"2.0","generator":"Open Asset Import Library (assimp v6.0.0)"},"extensionsUsed":["KHR_materials_specular","KHR_materials_volume","KHR_materials_ior","FB_ngon_encoding"],"accessors":[{"bufferView":0,"byteOffset":0,"componentType":5126,"count":5078,"type":"VEC3","max":[2.2051405906677246,0.5657403469085693,4.1010541915893555],"min":[2.2250738585072014e-308,2.2250738585072014e-308,2.2250738585072014e-308]},{"bufferView":1,"byteOffset":0,"componentType":5126,"count":5078,"type":"VEC2","max":[0.9960246086120605,0.526519775390625],"min":[2.2250738585072014e-308,2.2250738585072014e-308]},{"bufferView":2,"byteOffset":0,"componentType":5125,"count":22380,"type":"SCALAR","max":[5077],"min":[0]},{"bufferView":3,"byteOffset":0,"componentType":5126,"count":196,"type":"VEC3","max":[2.2034943103790283,0.5622644424438477,4.07697868347168],"min":[2.2250738585072014e-308,2.2250738585072014e-308,2.2250738585072014e-308]},{"bufferView":4,"byteOffset":0,"componentType":5126,"count":196,"type":"VEC2","max":[0.6708412170410156,0.807380735874176],"min":[2.2250738585072014e-308,2.2250738585072014e-308]},{"bufferView":5,"byteOffset":0,"componentType":5125,"count":798,"type":"SCALAR","max":[195],"min":[0]}],"buffers":[{"byteLength":198192,"uri":"tile_0220.bin"}],"bufferViews":[{"buffer":0,"byteOffset":0,"byteLength":60936,"target":34962},{"buffer":0,"byteOffset":60936,"byteLength":40624,"target":34962},{"buffer":0,"byteOffset":101560,"byteLength":89520,"target":34963},{"buffer":0,"byteOffset":191080,"byteLength":2352,"target":34962},{"buffer":0,"byteOffset":193432,"byteLength":1568,"target":34962},{"buffer":0,"byteOffset":195000,"byteLength":3192,"target":34963}],"images":[{"uri":"../textures/tile_0220_material_0.jpg"},{"uri":"../textures/tile_0220_material_1.jpg"}],"materials":[{"name":"DefaultMaterial","pbrMetallicRoughness":{"baseColorFactor":[0.6000000238418579,0.6000000238418579,0.6000000238418579,1.0],"metallicFactor":0.0},"extensions":{"KHR_materials_specular":{"specularFactor":1.0,"specularColorFactor":[0.0,0.0,0.0]},"KHR_materials_ior":{"ior":1.0}}},{"name":"material_0_material","pbrMetallicRoughness":{"baseColorTexture":{"index":0},"metallicFactor":0.0},"extensions":{"KHR_materials_specular":{"specularFactor":1.0,"specularColorFactor":[0.0,0.0,0.0]},"KHR_materials_ior":{"ior":1.0}}},{"name":"material_1_material","pbrMetallicRoughness":{"baseColorTexture":{"index":1},"metallicFactor":0.0},"extensions":{"KHR_materials_specular":{"specularFactor":1.0,"specularColorFactor":[0.0,0.0,0.0]},"KHR_materials_ior":{"ior":1.0}}}],"meshes":[{"name":"defaultobject","primitives":[{"mode":4,"material":1,"indices":2,"attributes":{"POSITION":0,"TEXCOORD_0":1}},{"mode":4,"material":2,"indices":5,"attributes":{"POSITION":3,"TEXCOORD_0":4}}]}],"nodes":[{"name":"tile_0220.obj","children":[1]},{"name":"defaultobject","mesh":0}],"samplers":[{},{}],"scenes":[{"nodes":[0]}],"textures":[{"source":0,"sampler":0},{"source":1,"sampler":1}],"scene":0}
