{"asset":{"version":"2.0","generator":"Open Asset Import Library (assimp v6.0.0)"},"extensionsUsed":["KHR_materials_specular","KHR_materials_volume","KHR_materials_ior","FB_ngon_encoding"],"accessors":[{"bufferView":0,"byteOffset":0,"componentType":5126,"count":3917,"type":"VEC3","max":[2.0477428436279297,3.9322636127471924,4.558706283569336],"min":[2.2250738585072014e-308,2.2250738585072014e-308,2.2250738585072014e-308]},{"bufferView":1,"byteOffset":0,"componentType":5126,"count":3917,"type":"VEC2","max":[0.9911973476409912,0.8201065063476562],"min":[2.2250738585072014e-308,2.2250738585072014e-308]},{"bufferView":2,"byteOffset":0,"componentType":5125,"count":17517,"type":"SCALAR","max":[3916],"min":[0]},{"bufferView":3,"byteOffset":0,"componentType":5126,"count":900,"type":"VEC3","max":[2.047086238861084,3.9292662143707275,4.557065963745117],"min":[2.2250738585072014e-308,2.2250738585072014e-308,2.2250738585072014e-308]},{"bufferView":4,"byteOffset":0,"componentType":5126,"count":900,"type":"VEC2","max":[0.5136442184448242,0.9214706420898438],"min":[2.2250738585072014e-308,2.2250738585072014e-308]},{"bufferView":5,"byteOffset":0,"componentType":5125,"count":4560,"type":"SCALAR","max":[899],"min":[0]}],"buffers":[{"byteLength":184648,"uri":"tile_0684.bin"}],"bufferViews":[{"buffer":0,"byteOffset":0,"byteLength":47004,"target":34962},{"buffer":0,"byteOffset":47004,"byteLength":31336,"target":34962},{"buffer":0,"byteOffset":78340,"byteLength":70068,"target":34963},{"buffer":0,"byteOffset":148408,"byteLength":10800,"target":34962},{"buffer":0,"byteOffset":159208,"byteLength":7200,"target":34962},{"buffer":0,"byteOffset":166408,"byteLength":18240,"target":34963}],"images":[{"uri":"../textures/tile_0684_material_0.jpg"},{"uri":"../textures/tile_0684_material_1.jpg"}],"materials":[{"name":"DefaultMaterial","pbrMetallicRoughness":{"baseColorFactor":[0.6000000238418579,0.6000000238418579,0.6000000238418579,1.0],"metallicFactor":0.0},"extensions":{"KHR_materials_specular":{"specularFactor":1.0,"specularColorFactor":[0.0,0.0,0.0]},"KHR_materials_ior":{"ior":1.0}}},{"name":"material_0_material","pbrMetallicRoughness":{"baseColorTexture":{"index":0},"metallicFactor":0.0},"extensions":{"KHR_materials_specular":{"specularFactor":1.0,"specularColorFactor":[0.0,0.0,0.0]},"KHR_materials_ior":{"ior":1.0}}},{"name":"material_1_material","pbrMetallicRoughness":{"baseColorTexture":{"index":1},"metallicFactor":0.0},"extensions":{"KHR_materials_specular":{"specularFactor":1.0,"specularColorFactor":[0.0,0.0,0.0]},"KHR_materials_ior":{"ior":1.0}}}],"meshes":[{"name":"defaultobject","primitives":[{"mode":4,"material":1,"indices":2,"attributes":{"POSITION":0,"TEXCOORD_0":1}},{"mode":4,"material":2,"indices":5,"attributes":{"POSITION":3,"TEXCOORD_0":4}}]}],"nodes":[{"name":"tile_0684.obj","children":[1]},{"name":"defaultobject","mesh":0}],"samplers":[{},{}],"scenes":[{"nodes":[0]}],"textures":[{"source":0,"sampler":0},{"source":1,"sampler":1}],"scene":0}
