{"asset":{"version":"2.0","generator":"Open Asset Import Library (assimp v6.0.0)"},"extensionsUsed":["KHR_materials_specular","KHR_materials_volume","KHR_materials_ior","FB_ngon_encoding"],"accessors":[{"bufferView":0,"byteOffset":0,"componentType":5126,"count":4079,"type":"VEC3","max":[-3.4821534156799316,-0.52301025390625,4.0879597663879395],"min":[-4.006588459014893,-0.7845691442489624,2.2250738585072014e-308]},{"bufferView":1,"byteOffset":0,"componentType":5126,"count":4079,"type":"VEC2","max":[0.9880658388137817,0.8900718688964844],"min":[2.2250738585072014e-308,2.2250738585072014e-308]},{"bufferView":2,"byteOffset":0,"componentType":5125,"count":17688,"type":"SCALAR","max":[4078],"min":[0]},{"bufferView":3,"byteOffset":0,"componentType":5126,"count":299,"type":"VEC3","max":[-3.552424907684326,-0.523948073387146,4.082148551940918],"min":[-3.7873642444610596,-0.6583204865455627,2.2250738585072014e-308]},{"bufferView":4,"byteOffset":0,"componentType":5126,"count":299,"type":"VEC2","max":[0.7170982360839844,0.7383308410644531],"min":[2.2250738585072014e-308,2.2250738585072014e-308]},{"bufferView":5,"byteOffset":0,"componentType":5125,"count":1443,"type":"SCALAR","max":[298],"min":[0]}],"buffers":[{"byteLength":164084,"uri":"tile_0437.bin"}],"bufferViews":[{"buffer":0,"byteOffset":0,"byteLength":48948,"target":34962},{"buffer":0,"byteOffset":48948,"byteLength":32632,"target":34962},{"buffer":0,"byteOffset":81580,"byteLength":70752,"target":34963},{"buffer":0,"byteOffset":152332,"byteLength":3588,"target":34962},{"buffer":0,"byteOffset":155920,"byteLength":2392,"target":34962},{"buffer":0,"byteOffset":158312,"byteLength":5772,"target":34963}],"images":[{"uri":"../textures/tile_0437_material_0.jpg"},{"uri":"../textures/tile_0437_material_1.jpg"}],"materials":[{"name":"DefaultMaterial","pbrMetallicRoughness":{"baseColorFactor":[0.6000000238418579,0.6000000238418579,0.6000000238418579,1.0],"metallicFactor":0.0},"extensions":{"KHR_materials_specular":{"specularFactor":1.0,"specularColorFactor":[0.0,0.0,0.0]},"KHR_materials_ior":{"ior":1.0}}},{"name":"material_0_material","pbrMetallicRoughness":{"baseColorTexture":{"index":0},"metallicFactor":0.0},"extensions":{"KHR_materials_specular":{"specularFactor":1.0,"specularColorFactor":[0.0,0.0,0.0]},"KHR_materials_ior":{"ior":1.0}}},{"name":"material_1_material","pbrMetallicRoughness":{"baseColorTexture":{"index":1},"metallicFactor":0.0},"extensions":{"KHR_materials_specular":{"specularFactor":1.0,"specularColorFactor":[0.0,0.0,0.0]},"KHR_materials_ior":{"ior":1.0}}}],"meshes":[{"name":"defaultobject","primitives":[{"mode":4,"material":1,"indices":2,"attributes":{"POSITION":0,"TEXCOORD_0":1}},{"mode":4,"material":2,"indices":5,"attributes":{"POSITION":3,"TEXCOORD_0":4}}]}],"nodes":[{"name":"tile_0437.obj","children":[1]},{"name":"defaultobject","mesh":0}],"samplers":[{},{}],"scenes":[{"nodes":[0]}],"textures":[{"source":0,"sampler":0},{"source":1,"sampler":1}],"scene":0}
