{"asset":{"version":"2.0","generator":"Open Asset Import Library (assimp v6.0.0)"},"extensionsUsed":["KHR_materials_specular","KHR_materials_volume","KHR_materials_ior","FB_ngon_encoding"],"accessors":[{"bufferView":0,"byteOffset":0,"componentType":5126,"count":4359,"type":"VEC3","max":[-0.41368845105171204,4.667177200317383,4.769224166870117],"min":[-0.7502269148826599,2.2250738585072014e-308,2.2250738585072014e-308]},{"bufferView":1,"byteOffset":0,"componentType":5126,"count":4359,"type":"VEC2","max":[0.9840726852416992,0.6402912139892578],"min":[2.2250738585072014e-308,2.2250738585072014e-308]},{"bufferView":2,"byteOffset":0,"componentType":5125,"count":19656,"type":"SCALAR","max":[4358],"min":[0]},{"bufferView":3,"byteOffset":0,"componentType":5126,"count":949,"type":"VEC3","max":[-0.41674238443374634,4.587771415710449,4.766988754272461],"min":[-0.7495516538619995,2.2250738585072014e-308,2.2250738585072014e-308]},{"bufferView":4,"byteOffset":0,"componentType":5126,"count":949,"type":"VEC2","max":[0.7599754333496094,0.8418731689453125],"min":[2.2250738585072014e-308,2.2250738585072014e-308]},{"bufferView":5,"byteOffset":0,"componentType":5125,"count":4926,"type":"SCALAR","max":[948],"min":[0]}],"buffers":[{"byteLength":204488,"uri":"tile_0555.bin"}],"bufferViews":[{"buffer":0,"byteOffset":0,"byteLength":52308,"target":34962},{"buffer":0,"byteOffset":52308,"byteLength":34872,"target":34962},{"buffer":0,"byteOffset":87180,"byteLength":78624,"target":34963},{"buffer":0,"byteOffset":165804,"byteLength":11388,"target":34962},{"buffer":0,"byteOffset":177192,"byteLength":7592,"target":34962},{"buffer":0,"byteOffset":184784,"byteLength":19704,"target":34963}],"images":[{"uri":"../textures/tile_0555_material_0.jpg"},{"uri":"../textures/tile_0555_material_1.jpg"}],"materials":[{"name":"DefaultMaterial","pbrMetallicRoughness":{"baseColorFactor":[0.6000000238418579,0.6000000238418579,0.6000000238418579,1.0],"metallicFactor":0.0},"extensions":{"KHR_materials_specular":{"specularFactor":1.0,"specularColorFactor":[0.0,0.0,0.0]},"KHR_materials_ior":{"ior":1.0}}},{"name":"material_0_material","pbrMetallicRoughness":{"baseColorTexture":{"index":0},"metallicFactor":0.0},"extensions":{"KHR_materials_specular":{"specularFactor":1.0,"specularColorFactor":[0.0,0.0,0.0]},"KHR_materials_ior":{"ior":1.0}}},{"name":"material_1_material","pbrMetallicRoughness":{"baseColorTexture":{"index":1},"metallicFactor":0.0},"extensions":{"KHR_materials_specular":{"specularFactor":1.0,"specularColorFactor":[0.0,0.0,0.0]},"KHR_materials_ior":{"ior":1.0}}}],"meshes":[{"name":"defaultobject","primitives":[{"mode":4,"material":1,"indices":2,"attributes":{"POSITION":0,"TEXCOORD_0":1}},{"mode":4,"material":2,"indices":5,"attributes":{"POSITION":3,"TEXCOORD_0":4}}]}],"nodes":[{"name":"tile_0555.obj","children":[1]},{"name":"defaultobject","mesh":0}],"samplers":[{},{}],"scenes":[{"nodes":[0]}],"textures":[{"source":0,"sampler":0},{"source":1,"sampler":1}],"scene":0}
