{"asset":{"version":"2.0","generator":"Open Asset Import Library (assimp v6.0.0)"},"extensionsUsed":["KHR_materials_specular","KHR_materials_volume","KHR_materials_ior","FB_ngon_encoding"],"accessors":[{"bufferView":0,"byteOffset":0,"componentType":5126,"count":4222,"type":"VEC3","max":[-1.6436175107955933,3.527876615524292,4.653918743133545],"min":[-1.9847692251205444,2.2250738585072014e-308,2.2250738585072014e-308]},{"bufferView":1,"byteOffset":0,"componentType":5126,"count":4222,"type":"VEC2","max":[0.9897079467773438,0.6707305908203125],"min":[2.2250738585072014e-308,2.2250738585072014e-308]},{"bufferView":2,"byteOffset":0,"componentType":5125,"count":18492,"type":"SCALAR","max":[4221],"min":[0]},{"bufferView":3,"byteOffset":0,"componentType":5126,"count":912,"type":"VEC3","max":[-1.640854835510254,3.330073356628418,4.584844589233398],"min":[-2.0167460441589355,2.2250738585072014e-308,2.2250738585072014e-308]},{"bufferView":4,"byteOffset":0,"componentType":5126,"count":912,"type":"VEC2","max":[0.7675495147705078,0.6199073791503906],"min":[2.2250738585072014e-308,2.2250738585072014e-308]},{"bufferView":5,"byteOffset":0,"componentType":5125,"count":4491,"type":"SCALAR","max":[911],"min":[0]}],"buffers":[{"byteLength":194612,"uri":"tile_0501.bin"}],"bufferViews":[{"buffer":0,"byteOffset":0,"byteLength":50664,"target":34962},{"buffer":0,"byteOffset":50664,"byteLength":33776,"target":34962},{"buffer":0,"byteOffset":84440,"byteLength":73968,"target":34963},{"buffer":0,"byteOffset":158408,"byteLength":10944,"target":34962},{"buffer":0,"byteOffset":169352,"byteLength":7296,"target":34962},{"buffer":0,"byteOffset":176648,"byteLength":17964,"target":34963}],"images":[{"uri":"../textures/tile_0501_material_0.jpg"},{"uri":"../textures/tile_0501_material_1.jpg"}],"materials":[{"name":"DefaultMaterial","pbrMetallicRoughness":{"baseColorFactor":[0.6000000238418579,0.6000000238418579,0.6000000238418579,1.0],"metallicFactor":0.0},"extensions":{"KHR_materials_specular":{"specularFactor":1.0,"specularColorFactor":[0.0,0.0,0.0]},"KHR_materials_ior":{"ior":1.0}}},{"name":"material_0_material","pbrMetallicRoughness":{"baseColorTexture":{"index":0},"metallicFactor":0.0},"extensions":{"KHR_materials_specular":{"specularFactor":1.0,"specularColorFactor":[0.0,0.0,0.0]},"KHR_materials_ior":{"ior":1.0}}},{"name":"material_1_material","pbrMetallicRoughness":{"baseColorTexture":{"index":1},"metallicFactor":0.0},"extensions":{"KHR_materials_specular":{"specularFactor":1.0,"specularColorFactor":[0.0,0.0,0.0]},"KHR_materials_ior":{"ior":1.0}}}],"meshes":[{"name":"defaultobject","primitives":[{"mode":4,"material":1,"indices":2,"attributes":{"POSITION":0,"TEXCOORD_0":1}},{"mode":4,"material":2,"indices":5,"attributes":{"POSITION":3,"TEXCOORD_0":4}}]}],"nodes":[{"name":"tile_0501.obj","children":[1]},{"name":"defaultobject","mesh":0}],"samplers":[{},{}],"scenes":[{"nodes":[0]}],"textures":[{"source":0,"sampler":0},{"source":1,"sampler":1}],"scene":0}
