{"asset":{"version":"2.0","generator":"Open Asset Import Library (assimp v6.0.0)"},"extensionsUsed":["KHR_materials_specular","KHR_materials_volume","KHR_materials_ior","FB_ngon_encoding"],"accessors":[{"bufferView":0,"byteOffset":0,"componentType":5126,"count":4706,"type":"VEC3","max":[0.5136260390281677,2.437162160873413,4.415012836456299],"min":[2.2250738585072014e-308,2.2250738585072014e-308,2.2250738585072014e-308]},{"bufferView":1,"byteOffset":0,"componentType":5126,"count":4706,"type":"VEC2","max":[0.9888808727264404,0.5030059814453125],"min":[2.2250738585072014e-308,2.2250738585072014e-308]},{"bufferView":2,"byteOffset":0,"componentType":5125,"count":21201,"type":"SCALAR","max":[4705],"min":[0]},{"bufferView":3,"byteOffset":0,"componentType":5126,"count":54,"type":"VEC3","max":[0.5130513310432434,2.2524514198303223,4.365952968597412],"min":[2.2250738585072014e-308,2.2250738585072014e-308,2.2250738585072014e-308]},{"bufferView":4,"byteOffset":0,"componentType":5126,"count":54,"type":"VEC2","max":[0.8165130019187927,0.7552948594093323],"min":[2.2250738585072014e-308,2.2250738585072014e-308]},{"bufferView":5,"byteOffset":0,"componentType":5125,"count":246,"type":"SCALAR","max":[53],"min":[0]}],"buffers":[{"byteLength":180988,"uri":"tile_0198.bin"}],"bufferViews":[{"buffer":0,"byteOffset":0,"byteLength":56472,"target":34962},{"buffer":0,"byteOffset":56472,"byteLength":37648,"target":34962},{"buffer":0,"byteOffset":94120,"byteLength":84804,"target":34963},{"buffer":0,"byteOffset":178924,"byteLength":648,"target":34962},{"buffer":0,"byteOffset":179572,"byteLength":432,"target":34962},{"buffer":0,"byteOffset":180004,"byteLength":984,"target":34963}],"images":[{"uri":"../textures/tile_0198_material_0.jpg"},{"uri":"../textures/tile_0198_material_1.jpg"}],"materials":[{"name":"DefaultMaterial","pbrMetallicRoughness":{"baseColorFactor":[0.6000000238418579,0.6000000238418579,0.6000000238418579,1.0],"metallicFactor":0.0},"extensions":{"KHR_materials_specular":{"specularFactor":1.0,"specularColorFactor":[0.0,0.0,0.0]},"KHR_materials_ior":{"ior":1.0}}},{"name":"material_0_material","pbrMetallicRoughness":{"baseColorTexture":{"index":0},"metallicFactor":0.0},"extensions":{"KHR_materials_specular":{"specularFactor":1.0,"specularColorFactor":[0.0,0.0,0.0]},"KHR_materials_ior":{"ior":1.0}}},{"name":"material_1_material","pbrMetallicRoughness":{"baseColorTexture":{"index":1},"metallicFactor":0.0},"extensions":{"KHR_materials_specular":{"specularFactor":1.0,"specularColorFactor":[0.0,0.0,0.0]},"KHR_materials_ior":{"ior":1.0}}}],"meshes":[{"name":"defaultobject","primitives":[{"mode":4,"material":1,"indices":2,"attributes":{"POSITION":0,"TEXCOORD_0":1}},{"mode":4,"material":2,"indices":5,"attributes":{"POSITION":3,"TEXCOORD_0":4}}]}],"nodes":[{"name":"tile_0198.obj","children":[1]},{"name":"defaultobject","mesh":0}],"samplers":[{},{}],"scenes":[{"nodes":[0]}],"textures":[{"source":0,"sampler":0},{"source":1,"sampler":1}],"scene":0}
