{"asset":{"version":"2.0","generator":"Open Asset Import Library (assimp v6.0.0)"},"extensionsUsed":["KHR_materials_specular","KHR_materials_volume","KHR_materials_ior","FB_ngon_encoding"],"accessors":[{"bufferView":0,"byteOffset":0,"componentType":5126,"count":11299,"type":"VEC3","max":[-1.7668412923812866,-3.347895860671997,2.397836923599243],"min":[-1.9972485303878784,-4.064717769622803,2.2250738585072014e-308]},{"bufferView":1,"byteOffset":0,"componentType":5126,"count":11299,"type":"VEC2","max":[0.9920781850814819,0.5331277847290039],"min":[2.2250738585072014e-308,2.2250738585072014e-308]},{"bufferView":2,"byteOffset":0,"componentType":5125,"count":51606,"type":"SCALAR","max":[11298],"min":[0]},{"bufferView":3,"byteOffset":0,"componentType":5126,"count":1072,"type":"VEC3","max":[-1.7861849069595337,-3.3481690883636475,2.3210456371307373],"min":[-1.9957906007766724,-3.7039473056793213,2.2250738585072014e-308]},{"bufferView":4,"byteOffset":0,"componentType":5126,"count":1072,"type":"VEC2","max":[0.5956392288208008,0.530303955078125],"min":[2.2250738585072014e-308,2.2250738585072014e-308]},{"bufferView":5,"byteOffset":0,"componentType":5125,"count":5505,"type":"SCALAR","max":[1071],"min":[0]}],"buffers":[{"byteLength":475864,"uri":"tile_0006.bin"}],"bufferViews":[{"buffer":0,"byteOffset":0,"byteLength":135588,"target":34962},{"buffer":0,"byteOffset":135588,"byteLength":90392,"target":34962},{"buffer":0,"byteOffset":225980,"byteLength":206424,"target":34963},{"buffer":0,"byteOffset":432404,"byteLength":12864,"target":34962},{"buffer":0,"byteOffset":445268,"byteLength":8576,"target":34962},{"buffer":0,"byteOffset":453844,"byteLength":22020,"target":34963}],"images":[{"uri":"../textures/tile_0006_material_0.jpg"},{"uri":"../textures/tile_0006_material_1.jpg"}],"materials":[{"name":"DefaultMaterial","pbrMetallicRoughness":{"baseColorFactor":[0.6000000238418579,0.6000000238418579,0.6000000238418579,1.0],"metallicFactor":0.0},"extensions":{"KHR_materials_specular":{"specularFactor":1.0,"specularColorFactor":[0.0,0.0,0.0]},"KHR_materials_ior":{"ior":1.0}}},{"name":"material_0_material","pbrMetallicRoughness":{"baseColorTexture":{"index":0},"metallicFactor":0.0},"extensions":{"KHR_materials_specular":{"specularFactor":1.0,"specularColorFactor":[0.0,0.0,0.0]},"KHR_materials_ior":{"ior":1.0}}},{"name":"material_1_material","pbrMetallicRoughness":{"baseColorTexture":{"index":1},"metallicFactor":0.0},"extensions":{"KHR_materials_specular":{"specularFactor":1.0,"specularColorFactor":[0.0,0.0,0.0]},"KHR_materials_ior":{"ior":1.0}}}],"meshes":[{"name":"defaultobject","primitives":[{"mode":4,"material":1,"indices":2,"attributes":{"POSITION":0,"TEXCOORD_0":1}},{"mode":4,"material":2,"indices":5,"attributes":{"POSITION":3,"TEXCOORD_0":4}}]}],"nodes":[{"name":"tile_0006.obj","children":[1]},{"name":"defaultobject","mesh":0}],"samplers":[{},{}],"scenes":[{"nodes":[0]}],"textures":[{"source":0,"sampler":0},{"source":1,"sampler":1}],"scene":0}
