{"asset":{"version":"2.0","generator":"Open Asset Import Library (assimp v6.0.0)"},"extensionsUsed":["KHR_materials_specular","KHR_materials_volume","KHR_materials_ior","FB_ngon_encoding"],"accessors":[{"bufferView":0,"byteOffset":0,"componentType":5126,"count":3609,"type":"VEC3","max":[4.789791584014893,1.4237016439437866,4.226062774658203],"min":[2.2250738585072014e-308,2.2250738585072014e-308,2.2250738585072014e-308]},{"bufferView":1,"byteOffset":0,"componentType":5126,"count":3609,"type":"VEC2","max":[0.9914093017578125,0.9118156433105469],"min":[2.2250738585072014e-308,2.2250738585072014e-308]},{"bufferView":2,"byteOffset":0,"componentType":5125,"count":16161,"type":"SCALAR","max":[3608],"min":[0]},{"bufferView":3,"byteOffset":0,"componentType":5126,"count":1186,"type":"VEC3","max":[4.790124893188477,1.4214237928390503,4.215120315551758],"min":[2.2250738585072014e-308,2.2250738585072014e-308,2.2250738585072014e-308]},{"bufferView":4,"byteOffset":0,"componentType":5126,"count":1186,"type":"VEC2","max":[0.5146327018737793,0.7912521362304688],"min":[2.2250738585072014e-308,2.2250738585072014e-308]},{"bufferView":5,"byteOffset":0,"componentType":5125,"count":6135,"type":"SCALAR","max":[1185],"min":[0]}],"buffers":[{"byteLength":185084,"uri":"tile_0675.bin"}],"bufferViews":[{"buffer":0,"byteOffset":0,"byteLength":43308,"target":34962},{"buffer":0,"byteOffset":43308,"byteLength":28872,"target":34962},{"buffer":0,"byteOffset":72180,"byteLength":64644,"target":34963},{"buffer":0,"byteOffset":136824,"byteLength":14232,"target":34962},{"buffer":0,"byteOffset":151056,"byteLength":9488,"target":34962},{"buffer":0,"byteOffset":160544,"byteLength":24540,"target":34963}],"images":[{"uri":"../textures/tile_0675_material_0.jpg"},{"uri":"../textures/tile_0675_material_1.jpg"}],"materials":[{"name":"DefaultMaterial","pbrMetallicRoughness":{"baseColorFactor":[0.6000000238418579,0.6000000238418579,0.6000000238418579,1.0],"metallicFactor":0.0},"extensions":{"KHR_materials_specular":{"specularFactor":1.0,"specularColorFactor":[0.0,0.0,0.0]},"KHR_materials_ior":{"ior":1.0}}},{"name":"material_0_material","pbrMetallicRoughness":{"baseColorTexture":{"index":0},"metallicFactor":0.0},"extensions":{"KHR_materials_specular":{"specularFactor":1.0,"specularColorFactor":[0.0,0.0,0.0]},"KHR_materials_ior":{"ior":1.0}}},{"name":"material_1_material","pbrMetallicRoughness":{"baseColorTexture":{"index":1},"metallicFactor":0.0},"extensions":{"KHR_materials_specular":{"specularFactor":1.0,"specularColorFactor":[0.0,0.0,0.0]},"KHR_materials_ior":{"ior":1.0}}}],"meshes":[{"name":"defaultobject","primitives":[{"mode":4,"material":1,"indices":2,"attributes":{"POSITION":0,"TEXCOORD_0":1}},{"mode":4,"material":2,"indices":5,"attributes":{"POSITION":3,"TEXCOORD_0":4}}]}],"nodes":[{"name":"tile_0675.obj","children":[1]},{"name":"defaultobject","mesh":0}],"samplers":[{},{}],"scenes":[{"nodes":[0]}],"textures":[{"source":0,"sampler":0},{"source":1,"sampler":1}],"scene":0}
