{"asset":{"version":"2.0","generator":"Open Asset Import Library (assimp v6.0.0)"},"extensionsUsed":["KHR_materials_specular","KHR_materials_volume","KHR_materials_ior","FB_ngon_encoding"],"accessors":[{"bufferView":0,"byteOffset":0,"componentType":5126,"count":4219,"type":"VEC3","max":[-3.998173952102661,-0.2769174873828888,4.07057523727417],"min":[-4.416728496551514,-0.5330895781517029,2.2250738585072014e-308]},{"bufferView":1,"byteOffset":0,"componentType":5126,"count":4219,"type":"VEC2","max":[0.9882431030273438,0.5426139831542969],"min":[2.2250738585072014e-308,2.2250738585072014e-308]},{"bufferView":2,"byteOffset":0,"componentType":5125,"count":18558,"type":"SCALAR","max":[4218],"min":[0]},{"bufferView":3,"byteOffset":0,"componentType":5126,"count":116,"type":"VEC3","max":[-4.335326194763184,-0.4497515559196472,3.9396753311157227],"min":[-4.413329601287842,-0.5148084759712219,2.2250738585072014e-308]},{"bufferView":4,"byteOffset":0,"componentType":5126,"count":116,"type":"VEC2","max":[0.6365280151367188,0.7259521484375],"min":[2.2250738585072014e-308,2.2250738585072014e-308]},{"bufferView":5,"byteOffset":0,"componentType":5125,"count":573,"type":"SCALAR","max":[115],"min":[0]}],"buffers":[{"byteLength":163224,"uri":"tile_0075.bin"}],"bufferViews":[{"buffer":0,"byteOffset":0,"byteLength":50628,"target":34962},{"buffer":0,"byteOffset":50628,"byteLength":33752,"target":34962},{"buffer":0,"byteOffset":84380,"byteLength":74232,"target":34963},{"buffer":0,"byteOffset":158612,"byteLength":1392,"target":34962},{"buffer":0,"byteOffset":160004,"byteLength":928,"target":34962},{"buffer":0,"byteOffset":160932,"byteLength":2292,"target":34963}],"images":[{"uri":"../textures/tile_0075_material_0.jpg"},{"uri":"../textures/tile_0075_material_1.jpg"}],"materials":[{"name":"DefaultMaterial","pbrMetallicRoughness":{"baseColorFactor":[0.6000000238418579,0.6000000238418579,0.6000000238418579,1.0],"metallicFactor":0.0},"extensions":{"KHR_materials_specular":{"specularFactor":1.0,"specularColorFactor":[0.0,0.0,0.0]},"KHR_materials_ior":{"ior":1.0}}},{"name":"material_0_material","pbrMetallicRoughness":{"baseColorTexture":{"index":0},"metallicFactor":0.0},"extensions":{"KHR_materials_specular":{"specularFactor":1.0,"specularColorFactor":[0.0,0.0,0.0]},"KHR_materials_ior":{"ior":1.0}}},{"name":"material_1_material","pbrMetallicRoughness":{"baseColorTexture":{"index":1},"metallicFactor":0.0},"extensions":{"KHR_materials_specular":{"specularFactor":1.0,"specularColorFactor":[0.0,0.0,0.0]},"KHR_materials_ior":{"ior":1.0}}}],"meshes":[{"name":"defaultobject","primitives":[{"mode":4,"material":1,"indices":2,"attributes":{"POSITION":0,"TEXCOORD_0":1}},{"mode":4,"material":2,"indices":5,"attributes":{"POSITION":3,"TEXCOORD_0":4}}]}],"nodes":[{"name":"tile_0075.obj","children":[1]},{"name":"defaultobject","mesh":0}],"samplers":[{},{}],"scenes":[{"nodes":[0]}],"textures":[{"source":0,"sampler":0},{"source":1,"sampler":1}],"scene":0}
