{"asset":{"version":"2.0","generator":"Open Asset Import Library (assimp v6.0.0)"},"extensionsUsed":["KHR_materials_specular","KHR_materials_volume","KHR_materials_ior","FB_ngon_encoding"],"accessors":[{"bufferView":0,"byteOffset":0,"componentType":5126,"count":7019,"type":"VEC3","max":[0.15069857239723206,-3.022195339202881,2.5663437843322754],"min":[-0.05307135730981827,-3.374843120574951,2.2250738585072014e-308]},{"bufferView":1,"byteOffset":0,"componentType":5126,"count":7019,"type":"VEC2","max":[0.994856595993042,0.6676464080810547],"min":[2.2250738585072014e-308,2.2250738585072014e-308]},{"bufferView":2,"byteOffset":0,"componentType":5125,"count":29823,"type":"SCALAR","max":[7018],"min":[0]},{"bufferView":3,"byteOffset":0,"componentType":5126,"count":34,"type":"VEC3","max":[0.11142688244581223,-3.0233330726623535,2.5478410720825195],"min":[2.2250738585072014e-308,-3.0463991165161133,2.2250738585072014e-308]},{"bufferView":4,"byteOffset":0,"componentType":5126,"count":34,"type":"VEC2","max":[0.5446929335594177,0.7691954970359802],"min":[2.2250738585072014e-308,2.2250738585072014e-308]},{"bufferView":5,"byteOffset":0,"componentType":5125,"count":129,"type":"SCALAR","max":[33],"min":[0]}],"buffers":[{"byteLength":260868,"uri":"tile_0817.bin"}],"bufferViews":[{"buffer":0,"byteOffset":0,"byteLength":84228,"target":34962},{"buffer":0,"byteOffset":84228,"byteLength":56152,"target":34962},{"buffer":0,"byteOffset":140380,"byteLength":119292,"target":34963},{"buffer":0,"byteOffset":259672,"byteLength":408,"target":34962},{"buffer":0,"byteOffset":260080,"byteLength":272,"target":34962},{"buffer":0,"byteOffset":260352,"byteLength":516,"target":34963}],"images":[{"uri":"../textures/tile_0817_material_0.jpg"},{"uri":"../textures/tile_0817_material_1.jpg"}],"materials":[{"name":"DefaultMaterial","pbrMetallicRoughness":{"baseColorFactor":[0.6000000238418579,0.6000000238418579,0.6000000238418579,1.0],"metallicFactor":0.0},"extensions":{"KHR_materials_specular":{"specularFactor":1.0,"specularColorFactor":[0.0,0.0,0.0]},"KHR_materials_ior":{"ior":1.0}}},{"name":"material_0_material","pbrMetallicRoughness":{"baseColorTexture":{"index":0},"metallicFactor":0.0},"extensions":{"KHR_materials_specular":{"specularFactor":1.0,"specularColorFactor":[0.0,0.0,0.0]},"KHR_materials_ior":{"ior":1.0}}},{"name":"material_1_material","pbrMetallicRoughness":{"baseColorTexture":{"index":1},"metallicFactor":0.0},"extensions":{"KHR_materials_specular":{"specularFactor":1.0,"specularColorFactor":[0.0,0.0,0.0]},"KHR_materials_ior":{"ior":1.0}}}],"meshes":[{"name":"defaultobject","primitives":[{"mode":4,"material":1,"indices":2,"attributes":{"POSITION":0,"TEXCOORD_0":1}},{"mode":4,"material":2,"indices":5,"attributes":{"POSITION":3,"TEXCOORD_0":4}}]}],"nodes":[{"name":"tile_0817.obj","children":[1]},{"name":"defaultobject","mesh":0}],"samplers":[{},{}],"scenes":[{"nodes":[0]}],"textures":[{"source":0,"sampler":0},{"source":1,"sampler":1}],"scene":0}
