{"asset":{"version":"2.0","generator":"Open Asset Import Library (assimp v6.0.0)"},"extensionsUsed":["KHR_materials_specular","KHR_materials_volume","KHR_materials_ior","FB_ngon_encoding"],"accessors":[{"bufferView":0,"byteOffset":0,"componentType":5126,"count":2835,"type":"VEC3","max":[-4.882622241973877,-0.7729036808013916,4.2654290199279785],"min":[-7.229599475860596,-0.9886198043823242,2.2250738585072014e-308]},{"bufferView":1,"byteOffset":0,"componentType":5126,"count":2835,"type":"VEC2","max":[0.9827468395233154,0.902008056640625],"min":[2.2250738585072014e-308,2.2250738585072014e-308]},{"bufferView":2,"byteOffset":0,"componentType":5125,"count":13986,"type":"SCALAR","max":[2834],"min":[0]},{"bufferView":3,"byteOffset":0,"componentType":5126,"count":2721,"type":"VEC3","max":[-5.143794059753418,-0.7346543669700623,4.289225101470947],"min":[-7.392107009887695,-1.0128415822982788,2.2250738585072014e-308]},{"bufferView":4,"byteOffset":0,"componentType":5126,"count":2721,"type":"VEC2","max":[0.7672121524810791,0.71014404296875],"min":[2.2250738585072014e-308,2.2250738585072014e-308]},{"bufferView":5,"byteOffset":0,"componentType":5125,"count":14484,"type":"SCALAR","max":[2720],"min":[0]}],"buffers":[{"byteLength":225000,"uri":"tile_0433.bin"}],"bufferViews":[{"buffer":0,"byteOffset":0,"byteLength":34020,"target":34962},{"buffer":0,"byteOffset":34020,"byteLength":22680,"target":34962},{"buffer":0,"byteOffset":56700,"byteLength":55944,"target":34963},{"buffer":0,"byteOffset":112644,"byteLength":32652,"target":34962},{"buffer":0,"byteOffset":145296,"byteLength":21768,"target":34962},{"buffer":0,"byteOffset":167064,"byteLength":57936,"target":34963}],"images":[{"uri":"../textures/tile_0433_material_0.jpg"},{"uri":"../textures/tile_0433_material_1.jpg"}],"materials":[{"name":"DefaultMaterial","pbrMetallicRoughness":{"baseColorFactor":[0.6000000238418579,0.6000000238418579,0.6000000238418579,1.0],"metallicFactor":0.0},"extensions":{"KHR_materials_specular":{"specularFactor":1.0,"specularColorFactor":[0.0,0.0,0.0]},"KHR_materials_ior":{"ior":1.0}}},{"name":"material_0_material","pbrMetallicRoughness":{"baseColorTexture":{"index":0},"metallicFactor":0.0},"extensions":{"KHR_materials_specular":{"specularFactor":1.0,"specularColorFactor":[0.0,0.0,0.0]},"KHR_materials_ior":{"ior":1.0}}},{"name":"material_1_material","pbrMetallicRoughness":{"baseColorTexture":{"index":1},"metallicFactor":0.0},"extensions":{"KHR_materials_specular":{"specularFactor":1.0,"specularColorFactor":[0.0,0.0,0.0]},"KHR_materials_ior":{"ior":1.0}}}],"meshes":[{"name":"defaultobject","primitives":[{"mode":4,"material":1,"indices":2,"attributes":{"POSITION":0,"TEXCOORD_0":1}},{"mode":4,"material":2,"indices":5,"attributes":{"POSITION":3,"TEXCOORD_0":4}}]}],"nodes":[{"name":"tile_0433.obj","children":[1]},{"name":"defaultobject","mesh":0}],"samplers":[{},{}],"scenes":[{"nodes":[0]}],"textures":[{"source":0,"sampler":0},{"source":1,"sampler":1}],"scene":0}
