{"asset":{"version":"2.0","generator":"Open Asset Import Library (assimp v6.0.0)"},"extensionsUsed":["KHR_materials_specular","KHR_materials_volume","KHR_materials_ior","FB_ngon_encoding"],"accessors":[{"bufferView":0,"byteOffset":0,"componentType":5126,"count":5692,"type":"VEC3","max":[-4.848745822906494,2.739570140838623,4.77485466003418],"min":[-5.536767959594727,2.2250738585072014e-308,2.2250738585072014e-308]},{"bufferView":1,"byteOffset":0,"componentType":5126,"count":5692,"type":"VEC2","max":[0.9843039512634277,0.6477203369140625],"min":[2.2250738585072014e-308,2.2250738585072014e-308]},{"bufferView":2,"byteOffset":0,"componentType":5125,"count":26196,"type":"SCALAR","max":[5691],"min":[0]},{"bufferView":3,"byteOffset":0,"componentType":5126,"count":1042,"type":"VEC3","max":[-4.849598407745361,2.7372610569000244,4.777562141418457],"min":[-5.537008285522461,2.2250738585072014e-308,2.2250738585072014e-308]},{"bufferView":4,"byteOffset":0,"componentType":5126,"count":1042,"type":"VEC2","max":[0.6904964447021484,0.8070564270019531],"min":[2.2250738585072014e-308,2.2250738585072014e-308]},{"bufferView":5,"byteOffset":0,"componentType":5125,"count":5331,"type":"SCALAR","max":[1041],"min":[0]}],"buffers":[{"byteLength":260788,"uri":"tile_0489.bin"}],"bufferViews":[{"buffer":0,"byteOffset":0,"byteLength":68304,"target":34962},{"buffer":0,"byteOffset":68304,"byteLength":45536,"target":34962},{"buffer":0,"byteOffset":113840,"byteLength":104784,"target":34963},{"buffer":0,"byteOffset":218624,"byteLength":12504,"target":34962},{"buffer":0,"byteOffset":231128,"byteLength":8336,"target":34962},{"buffer":0,"byteOffset":239464,"byteLength":21324,"target":34963}],"images":[{"uri":"../textures/tile_0489_material_0.jpg"},{"uri":"../textures/tile_0489_material_1.jpg"}],"materials":[{"name":"DefaultMaterial","pbrMetallicRoughness":{"baseColorFactor":[0.6000000238418579,0.6000000238418579,0.6000000238418579,1.0],"metallicFactor":0.0},"extensions":{"KHR_materials_specular":{"specularFactor":1.0,"specularColorFactor":[0.0,0.0,0.0]},"KHR_materials_ior":{"ior":1.0}}},{"name":"material_0_material","pbrMetallicRoughness":{"baseColorTexture":{"index":0},"metallicFactor":0.0},"extensions":{"KHR_materials_specular":{"specularFactor":1.0,"specularColorFactor":[0.0,0.0,0.0]},"KHR_materials_ior":{"ior":1.0}}},{"name":"material_1_material","pbrMetallicRoughness":{"baseColorTexture":{"index":1},"metallicFactor":0.0},"extensions":{"KHR_materials_specular":{"specularFactor":1.0,"specularColorFactor":[0.0,0.0,0.0]},"KHR_materials_ior":{"ior":1.0}}}],"meshes":[{"name":"defaultobject","primitives":[{"mode":4,"material":1,"indices":2,"attributes":{"POSITION":0,"TEXCOORD_0":1}},{"mode":4,"material":2,"indices":5,"attributes":{"POSITION":3,"TEXCOORD_0":4}}]}],"nodes":[{"name":"tile_0489.obj","children":[1]},{"name":"defaultobject","mesh":0}],"samplers":[{},{}],"scenes":[{"nodes":[0]}],"textures":[{"source":0,"sampler":0},{"source":1,"sampler":1}],"scene":0}
