{"asset":{"version":"2.0","generator":"Open Asset Import Library (assimp v6.0.0)"},"extensionsUsed":["KHR_materials_specular","KHR_materials_volume","KHR_materials_ior","FB_ngon_encoding"],"accessors":[{"bufferView":0,"byteOffset":0,"componentType":5126,"count":4891,"type":"VEC3","max":[-0.5699407458305359,-3.1313250064849854,2.2724883556365967],"min":[-0.7586907148361206,-3.55346941947937,2.2250738585072014e-308]},{"bufferView":1,"byteOffset":0,"componentType":5126,"count":4891,"type":"VEC2","max":[0.99609375,0.5563297271728516],"min":[2.2250738585072014e-308,2.2250738585072014e-308]},{"bufferView":2,"byteOffset":0,"componentType":5125,"count":21090,"type":"SCALAR","max":[4890],"min":[0]},{"bufferView":3,"byteOffset":0,"componentType":5126,"count":904,"type":"VEC3","max":[-0.5705693364143372,-3.279841899871826,2.2685608863830566],"min":[-0.7254237532615662,-3.5001890659332275,2.2250738585072014e-308]},{"bufferView":4,"byteOffset":0,"componentType":5126,"count":904,"type":"VEC2","max":[0.5344557762145996,0.847412109375],"min":[2.2250738585072014e-308,2.2250738585072014e-308]},{"bufferView":5,"byteOffset":0,"componentType":5125,"count":4503,"type":"SCALAR","max":[903],"min":[0]}],"buffers":[{"byteLength":218272,"uri":"tile_0342.bin"}],"bufferViews":[{"buffer":0,"byteOffset":0,"byteLength":58692,"target":34962},{"buffer":0,"byteOffset":58692,"byteLength":39128,"target":34962},{"buffer":0,"byteOffset":97820,"byteLength":84360,"target":34963},{"buffer":0,"byteOffset":182180,"byteLength":10848,"target":34962},{"buffer":0,"byteOffset":193028,"byteLength":7232,"target":34962},{"buffer":0,"byteOffset":200260,"byteLength":18012,"target":34963}],"images":[{"uri":"../textures/tile_0342_material_0.jpg"},{"uri":"../textures/tile_0342_material_1.jpg"}],"materials":[{"name":"DefaultMaterial","pbrMetallicRoughness":{"baseColorFactor":[0.6000000238418579,0.6000000238418579,0.6000000238418579,1.0],"metallicFactor":0.0},"extensions":{"KHR_materials_specular":{"specularFactor":1.0,"specularColorFactor":[0.0,0.0,0.0]},"KHR_materials_ior":{"ior":1.0}}},{"name":"material_0_material","pbrMetallicRoughness":{"baseColorTexture":{"index":0},"metallicFactor":0.0},"extensions":{"KHR_materials_specular":{"specularFactor":1.0,"specularColorFactor":[0.0,0.0,0.0]},"KHR_materials_ior":{"ior":1.0}}},{"name":"material_1_material","pbrMetallicRoughness":{"baseColorTexture":{"index":1},"metallicFactor":0.0},"extensions":{"KHR_materials_specular":{"specularFactor":1.0,"specularColorFactor":[0.0,0.0,0.0]},"KHR_materials_ior":{"ior":1.0}}}],"meshes":[{"name":"defaultobject","primitives":[{"mode":4,"material":1,"indices":2,"attributes":{"POSITION":0,"TEXCOORD_0":1}},{"mode":4,"material":2,"indices":5,"attributes":{"POSITION":3,"TEXCOORD_0":4}}]}],"nodes":[{"name":"tile_0342.obj","children":[1]},{"name":"defaultobject","mesh":0}],"samplers":[{},{}],"scenes":[{"nodes":[0]}],"textures":[{"source":0,"sampler":0},{"source":1,"sampler":1}],"scene":0}
