{"asset":{"version":"2.0","generator":"Open Asset Import Library (assimp v6.0.0)"},"extensionsUsed":["KHR_materials_specular","KHR_materials_volume","KHR_materials_ior","FB_ngon_encoding"],"accessors":[{"bufferView":0,"byteOffset":0,"componentType":5126,"count":4390,"type":"VEC3","max":[-3.061617374420166,-0.27675336599349976,4.134358882904053],"min":[-3.4925122261047363,-0.5016459226608276,2.2250738585072014e-308]},{"bufferView":1,"byteOffset":0,"componentType":5126,"count":4390,"type":"VEC2","max":[0.9950532913208008,0.6087074279785156],"min":[2.2250738585072014e-308,2.2250738585072014e-308]},{"bufferView":2,"byteOffset":0,"componentType":5125,"count":18540,"type":"SCALAR","max":[4389],"min":[0]},{"bufferView":3,"byteOffset":0,"componentType":5126,"count":1805,"type":"VEC3","max":[-3.0652871131896973,-0.27597153186798096,4.138950824737549],"min":[-3.3820478916168213,-0.4850732684135437,2.2250738585072014e-308]},{"bufferView":4,"byteOffset":0,"componentType":5126,"count":1805,"type":"VEC2","max":[0.6275559663772583,0.8211326599121094],"min":[2.2250738585072014e-308,2.2250738585072014e-308]},{"bufferView":5,"byteOffset":0,"componentType":5125,"count":8628,"type":"SCALAR","max":[1804],"min":[0]}],"buffers":[{"byteLength":232572,"uri":"tile_0083.bin"}],"bufferViews":[{"buffer":0,"byteOffset":0,"byteLength":52680,"target":34962},{"buffer":0,"byteOffset":52680,"byteLength":35120,"target":34962},{"buffer":0,"byteOffset":87800,"byteLength":74160,"target":34963},{"buffer":0,"byteOffset":161960,"byteLength":21660,"target":34962},{"buffer":0,"byteOffset":183620,"byteLength":14440,"target":34962},{"buffer":0,"byteOffset":198060,"byteLength":34512,"target":34963}],"images":[{"uri":"../textures/tile_0083_material_0.jpg"},{"uri":"../textures/tile_0083_material_1.jpg"}],"materials":[{"name":"DefaultMaterial","pbrMetallicRoughness":{"baseColorFactor":[0.6000000238418579,0.6000000238418579,0.6000000238418579,1.0],"metallicFactor":0.0},"extensions":{"KHR_materials_specular":{"specularFactor":1.0,"specularColorFactor":[0.0,0.0,0.0]},"KHR_materials_ior":{"ior":1.0}}},{"name":"material_0_material","pbrMetallicRoughness":{"baseColorTexture":{"index":0},"metallicFactor":0.0},"extensions":{"KHR_materials_specular":{"specularFactor":1.0,"specularColorFactor":[0.0,0.0,0.0]},"KHR_materials_ior":{"ior":1.0}}},{"name":"material_1_material","pbrMetallicRoughness":{"baseColorTexture":{"index":1},"metallicFactor":0.0},"extensions":{"KHR_materials_specular":{"specularFactor":1.0,"specularColorFactor":[0.0,0.0,0.0]},"KHR_materials_ior":{"ior":1.0}}}],"meshes":[{"name":"defaultobject","primitives":[{"mode":4,"material":1,"indices":2,"attributes":{"POSITION":0,"TEXCOORD_0":1}},{"mode":4,"material":2,"indices":5,"attributes":{"POSITION":3,"TEXCOORD_0":4}}]}],"nodes":[{"name":"tile_0083.obj","children":[1]},{"name":"defaultobject","mesh":0}],"samplers":[{},{}],"scenes":[{"nodes":[0]}],"textures":[{"source":0,"sampler":0},{"source":1,"sampler":1}],"scene":0}
