{"asset":{"version":"2.0","generator":"Open Asset Import Library (assimp v6.0.0)"},"extensionsUsed":["KHR_materials_specular","KHR_materials_volume","KHR_materials_ior","FB_ngon_encoding"],"accessors":[{"bufferView":0,"byteOffset":0,"componentType":5126,"count":4709,"type":"VEC3","max":[-0.6878030896186829,1.160319209098816,4.235100269317627],"min":[-0.9610519409179688,2.2250738585072014e-308,2.2250738585072014e-308]},{"bufferView":1,"byteOffset":0,"componentType":5126,"count":4709,"type":"VEC2","max":[0.988929271697998,0.5819416046142578],"min":[2.2250738585072014e-308,2.2250738585072014e-308]},{"bufferView":2,"byteOffset":0,"componentType":5125,"count":21453,"type":"SCALAR","max":[4708],"min":[0]},{"bufferView":3,"byteOffset":0,"componentType":5126,"count":452,"type":"VEC3","max":[-0.6879026889801025,0.9617874026298523,4.214625835418701],"min":[-0.9612021446228027,2.2250738585072014e-308,2.2250738585072014e-308]},{"bufferView":4,"byteOffset":0,"componentType":5126,"count":452,"type":"VEC2","max":[0.6490240097045898,0.8520965576171875],"min":[2.2250738585072014e-308,2.2250738585072014e-308]},{"bufferView":5,"byteOffset":0,"componentType":5125,"count":2229,"type":"SCALAR","max":[451],"min":[0]}],"buffers":[{"byteLength":197948,"uri":"tile_0146.bin"}],"bufferViews":[{"buffer":0,"byteOffset":0,"byteLength":56508,"target":34962},{"buffer":0,"byteOffset":56508,"byteLength":37672,"target":34962},{"buffer":0,"byteOffset":94180,"byteLength":85812,"target":34963},{"buffer":0,"byteOffset":179992,"byteLength":5424,"target":34962},{"buffer":0,"byteOffset":185416,"byteLength":3616,"target":34962},{"buffer":0,"byteOffset":189032,"byteLength":8916,"target":34963}],"images":[{"uri":"../textures/tile_0146_material_0.jpg"},{"uri":"../textures/tile_0146_material_1.jpg"}],"materials":[{"name":"DefaultMaterial","pbrMetallicRoughness":{"baseColorFactor":[0.6000000238418579,0.6000000238418579,0.6000000238418579,1.0],"metallicFactor":0.0},"extensions":{"KHR_materials_specular":{"specularFactor":1.0,"specularColorFactor":[0.0,0.0,0.0]},"KHR_materials_ior":{"ior":1.0}}},{"name":"material_0_material","pbrMetallicRoughness":{"baseColorTexture":{"index":0},"metallicFactor":0.0},"extensions":{"KHR_materials_specular":{"specularFactor":1.0,"specularColorFactor":[0.0,0.0,0.0]},"KHR_materials_ior":{"ior":1.0}}},{"name":"material_1_material","pbrMetallicRoughness":{"baseColorTexture":{"index":1},"metallicFactor":0.0},"extensions":{"KHR_materials_specular":{"specularFactor":1.0,"specularColorFactor":[0.0,0.0,0.0]},"KHR_materials_ior":{"ior":1.0}}}],"meshes":[{"name":"defaultobject","primitives":[{"mode":4,"material":1,"indices":2,"attributes":{"POSITION":0,"TEXCOORD_0":1}},{"mode":4,"material":2,"indices":5,"attributes":{"POSITION":3,"TEXCOORD_0":4}}]}],"nodes":[{"name":"tile_0146.obj","children":[1]},{"name":"defaultobject","mesh":0}],"samplers":[{},{}],"scenes":[{"nodes":[0]}],"textures":[{"source":0,"sampler":0},{"source":1,"sampler":1}],"scene":0}
