{"asset":{"version":"2.0","generator":"Open Asset Import Library (assimp v6.0.0)"},"extensionsUsed":["KHR_materials_specular","KHR_materials_volume","KHR_materials_ior","FB_ngon_encoding"],"accessors":[{"bufferView":0,"byteOffset":0,"componentType":5126,"count":3658,"type":"VEC3","max":[-5.489591598510742,1.0253229141235352,4.382604598999023],"min":[-6.446444034576416,2.2250738585072014e-308,2.2250738585072014e-308]},{"bufferView":1,"byteOffset":0,"componentType":5126,"count":3658,"type":"VEC2","max":[0.9919853210449219,0.6122417449951172],"min":[2.2250738585072014e-308,2.2250738585072014e-308]},{"bufferView":2,"byteOffset":0,"componentType":5125,"count":17652,"type":"SCALAR","max":[3657],"min":[0]},{"bufferView":3,"byteOffset":0,"componentType":5126,"count":637,"type":"VEC3","max":[-5.493896007537842,1.022968053817749,4.3936262130737305],"min":[-6.42855978012085,2.2250738585072014e-308,2.2250738585072014e-308]},{"bufferView":4,"byteOffset":0,"componentType":5126,"count":637,"type":"VEC2","max":[0.5737705230712891,0.7041091918945312],"min":[2.2250738585072014e-308,2.2250738585072014e-308]},{"bufferView":5,"byteOffset":0,"componentType":5125,"count":3201,"type":"SCALAR","max":[636],"min":[0]}],"buffers":[{"byteLength":169312,"uri":"tile_0580.bin"}],"bufferViews":[{"buffer":0,"byteOffset":0,"byteLength":43896,"target":34962},{"buffer":0,"byteOffset":43896,"byteLength":29264,"target":34962},{"buffer":0,"byteOffset":73160,"byteLength":70608,"target":34963},{"buffer":0,"byteOffset":143768,"byteLength":7644,"target":34962},{"buffer":0,"byteOffset":151412,"byteLength":5096,"target":34962},{"buffer":0,"byteOffset":156508,"byteLength":12804,"target":34963}],"images":[{"uri":"../textures/tile_0580_material_0.jpg"},{"uri":"../textures/tile_0580_material_1.jpg"}],"materials":[{"name":"DefaultMaterial","pbrMetallicRoughness":{"baseColorFactor":[0.6000000238418579,0.6000000238418579,0.6000000238418579,1.0],"metallicFactor":0.0},"extensions":{"KHR_materials_specular":{"specularFactor":1.0,"specularColorFactor":[0.0,0.0,0.0]},"KHR_materials_ior":{"ior":1.0}}},{"name":"material_0_material","pbrMetallicRoughness":{"baseColorTexture":{"index":0},"metallicFactor":0.0},"extensions":{"KHR_materials_specular":{"specularFactor":1.0,"specularColorFactor":[0.0,0.0,0.0]},"KHR_materials_ior":{"ior":1.0}}},{"name":"material_1_material","pbrMetallicRoughness":{"baseColorTexture":{"index":1},"metallicFactor":0.0},"extensions":{"KHR_materials_specular":{"specularFactor":1.0,"specularColorFactor":[0.0,0.0,0.0]},"KHR_materials_ior":{"ior":1.0}}}],"meshes":[{"name":"defaultobject","primitives":[{"mode":4,"material":1,"indices":2,"attributes":{"POSITION":0,"TEXCOORD_0":1}},{"mode":4,"material":2,"indices":5,"attributes":{"POSITION":3,"TEXCOORD_0":4}}]}],"nodes":[{"name":"tile_0580.obj","children":[1]},{"name":"defaultobject","mesh":0}],"samplers":[{},{}],"scenes":[{"nodes":[0]}],"textures":[{"source":0,"sampler":0},{"source":1,"sampler":1}],"scene":0}
