{"asset":{"version":"2.0","generator":"Open Asset Import Library (assimp v6.0.0)"},"extensionsUsed":["KHR_materials_specular","KHR_materials_volume","KHR_materials_ior","FB_ngon_encoding"],"accessors":[{"bufferView":0,"byteOffset":0,"componentType":5126,"count":4128,"type":"VEC3","max":[-1.6206387281417847,-3.9827613830566406,2.471029043197632],"min":[-1.7732224464416504,-4.434247016906738,2.2250738585072014e-308]},{"bufferView":1,"byteOffset":0,"componentType":5126,"count":4128,"type":"VEC2","max":[0.9918848276138306,0.6091270446777344],"min":[2.2250738585072014e-308,2.2250738585072014e-308]},{"bufferView":2,"byteOffset":0,"componentType":5125,"count":18192,"type":"SCALAR","max":[4127],"min":[0]},{"bufferView":3,"byteOffset":0,"componentType":5126,"count":615,"type":"VEC3","max":[-1.622921109199524,-4.274144649505615,2.332690715789795],"min":[-1.749695897102356,-4.435535430908203,2.2250738585072014e-308]},{"bufferView":4,"byteOffset":0,"componentType":5126,"count":615,"type":"VEC2","max":[0.9238815307617188,0.8593254089355469],"min":[2.2250738585072014e-308,2.2250738585072014e-308]},{"bufferView":5,"byteOffset":0,"componentType":5125,"count":3000,"type":"SCALAR","max":[614],"min":[0]}],"buffers":[{"byteLength":179628,"uri":"tile_0310.bin"}],"bufferViews":[{"buffer":0,"byteOffset":0,"byteLength":49536,"target":34962},{"buffer":0,"byteOffset":49536,"byteLength":33024,"target":34962},{"buffer":0,"byteOffset":82560,"byteLength":72768,"target":34963},{"buffer":0,"byteOffset":155328,"byteLength":7380,"target":34962},{"buffer":0,"byteOffset":162708,"byteLength":4920,"target":34962},{"buffer":0,"byteOffset":167628,"byteLength":12000,"target":34963}],"images":[{"uri":"../textures/tile_0310_material_0.jpg"},{"uri":"../textures/tile_0310_material_1.jpg"}],"materials":[{"name":"DefaultMaterial","pbrMetallicRoughness":{"baseColorFactor":[0.6000000238418579,0.6000000238418579,0.6000000238418579,1.0],"metallicFactor":0.0},"extensions":{"KHR_materials_specular":{"specularFactor":1.0,"specularColorFactor":[0.0,0.0,0.0]},"KHR_materials_ior":{"ior":1.0}}},{"name":"material_0_material","pbrMetallicRoughness":{"baseColorTexture":{"index":0},"metallicFactor":0.0},"extensions":{"KHR_materials_specular":{"specularFactor":1.0,"specularColorFactor":[0.0,0.0,0.0]},"KHR_materials_ior":{"ior":1.0}}},{"name":"material_1_material","pbrMetallicRoughness":{"baseColorTexture":{"index":1},"metallicFactor":0.0},"extensions":{"KHR_materials_specular":{"specularFactor":1.0,"specularColorFactor":[0.0,0.0,0.0]},"KHR_materials_ior":{"ior":1.0}}}],"meshes":[{"name":"defaultobject","primitives":[{"mode":4,"material":1,"indices":2,"attributes":{"POSITION":0,"TEXCOORD_0":1}},{"mode":4,"material":2,"indices":5,"attributes":{"POSITION":3,"TEXCOORD_0":4}}]}],"nodes":[{"name":"tile_0310.obj","children":[1]},{"name":"defaultobject","mesh":0}],"samplers":[{},{}],"scenes":[{"nodes":[0]}],"textures":[{"source":0,"sampler":0},{"source":1,"sampler":1}],"scene":0}
