{"asset":{"version":"2.0","generator":"Open Asset Import Library (assimp v6.0.0)"},"extensionsUsed":["KHR_materials_specular","KHR_materials_volume","KHR_materials_ior","FB_ngon_encoding"],"accessors":[{"bufferView":0,"byteOffset":0,"componentType":5126,"count":3862,"type":"VEC3","max":[0.3163481652736664,-0.5614593029022217,3.3846359252929688],"min":[-0.016154224053025246,-0.7823875546455383,2.2250738585072014e-308]},{"bufferView":1,"byteOffset":0,"componentType":5126,"count":3862,"type":"VEC2","max":[0.9906377792358398,0.9479827880859375],"min":[2.2250738585072014e-308,2.2250738585072014e-308]},{"bufferView":2,"byteOffset":0,"componentType":5125,"count":17727,"type":"SCALAR","max":[3861],"min":[0]},{"bufferView":3,"byteOffset":0,"componentType":5126,"count":740,"type":"VEC3","max":[0.3150382936000824,-0.562809407711029,3.3483779430389404],"min":[-0.01679098792374134,-0.7823321223258972,2.2250738585072014e-308]},{"bufferView":4,"byteOffset":0,"componentType":5126,"count":740,"type":"VEC2","max":[0.5550441741943359,0.87677001953125],"min":[2.2250738585072014e-308,2.2250738585072014e-308]},{"bufferView":5,"byteOffset":0,"componentType":5125,"count":3495,"type":"SCALAR","max":[739],"min":[0]}],"buffers":[{"byteLength":176928,"uri":"tile_0163.bin"}],"bufferViews":[{"buffer":0,"byteOffset":0,"byteLength":46344,"target":34962},{"buffer":0,"byteOffset":46344,"byteLength":30896,"target":34962},{"buffer":0,"byteOffset":77240,"byteLength":70908,"target":34963},{"buffer":0,"byteOffset":148148,"byteLength":8880,"target":34962},{"buffer":0,"byteOffset":157028,"byteLength":5920,"target":34962},{"buffer":0,"byteOffset":162948,"byteLength":13980,"target":34963}],"images":[{"uri":"../textures/tile_0163_material_0.jpg"},{"uri":"../textures/tile_0163_material_1.jpg"}],"materials":[{"name":"DefaultMaterial","pbrMetallicRoughness":{"baseColorFactor":[0.6000000238418579,0.6000000238418579,0.6000000238418579,1.0],"metallicFactor":0.0},"extensions":{"KHR_materials_specular":{"specularFactor":1.0,"specularColorFactor":[0.0,0.0,0.0]},"KHR_materials_ior":{"ior":1.0}}},{"name":"material_0_material","pbrMetallicRoughness":{"baseColorTexture":{"index":0},"metallicFactor":0.0},"extensions":{"KHR_materials_specular":{"specularFactor":1.0,"specularColorFactor":[0.0,0.0,0.0]},"KHR_materials_ior":{"ior":1.0}}},{"name":"material_1_material","pbrMetallicRoughness":{"baseColorTexture":{"index":1},"metallicFactor":0.0},"extensions":{"KHR_materials_specular":{"specularFactor":1.0,"specularColorFactor":[0.0,0.0,0.0]},"KHR_materials_ior":{"ior":1.0}}}],"meshes":[{"name":"defaultobject","primitives":[{"mode":4,"material":1,"indices":2,"attributes":{"POSITION":0,"TEXCOORD_0":1}},{"mode":4,"material":2,"indices":5,"attributes":{"POSITION":3,"TEXCOORD_0":4}}]}],"nodes":[{"name":"tile_0163.obj","children":[1]},{"name":"defaultobject","mesh":0}],"samplers":[{},{}],"scenes":[{"nodes":[0]}],"textures":[{"source":0,"sampler":0},{"source":1,"sampler":1}],"scene":0}
