{"asset":{"version":"2.0","generator":"Open Asset Import Library (assimp v6.0.0)"},"extensionsUsed":["KHR_materials_specular","KHR_materials_volume","KHR_materials_ior","FB_ngon_encoding"],"accessors":[{"bufferView":0,"byteOffset":0,"componentType":5126,"count":12122,"type":"VEC3","max":[-1.0369629859924316,-2.271120309829712,2.4223062992095947],"min":[-1.4060101509094238,-2.761495590209961,2.2250738585072014e-308]},{"bufferView":1,"byteOffset":0,"componentType":5126,"count":12122,"type":"VEC2","max":[0.993962287902832,0.6989622116088867],"min":[2.2250738585072014e-308,2.2250738585072014e-308]},{"bufferView":2,"byteOffset":0,"componentType":5125,"count":56019,"type":"SCALAR","max":[12121],"min":[0]},{"bufferView":3,"byteOffset":0,"componentType":5126,"count":2385,"type":"VEC3","max":[-1.0360687971115112,-2.271651029586792,2.3494646549224854],"min":[-1.40558922290802,-2.73038649559021,2.2250738585072014e-308]},{"bufferView":4,"byteOffset":0,"componentType":5126,"count":2385,"type":"VEC2","max":[0.615943431854248,0.5593490600585938],"min":[2.2250738585072014e-308,2.2250738585072014e-308]},{"bufferView":5,"byteOffset":0,"componentType":5125,"count":12267,"type":"SCALAR","max":[2384],"min":[0]}],"buffers":[{"byteLength":563284,"uri":"tile_0015.bin"}],"bufferViews":[{"buffer":0,"byteOffset":0,"byteLength":145464,"target":34962},{"buffer":0,"byteOffset":145464,"byteLength":96976,"target":34962},{"buffer":0,"byteOffset":242440,"byteLength":224076,"target":34963},{"buffer":0,"byteOffset":466516,"byteLength":28620,"target":34962},{"buffer":0,"byteOffset":495136,"byteLength":19080,"target":34962},{"buffer":0,"byteOffset":514216,"byteLength":49068,"target":34963}],"images":[{"uri":"../textures/tile_0015_material_0.jpg"},{"uri":"../textures/tile_0015_material_1.jpg"}],"materials":[{"name":"DefaultMaterial","pbrMetallicRoughness":{"baseColorFactor":[0.6000000238418579,0.6000000238418579,0.6000000238418579,1.0],"metallicFactor":0.0},"extensions":{"KHR_materials_specular":{"specularFactor":1.0,"specularColorFactor":[0.0,0.0,0.0]},"KHR_materials_ior":{"ior":1.0}}},{"name":"material_0_material","pbrMetallicRoughness":{"baseColorTexture":{"index":0},"metallicFactor":0.0},"extensions":{"KHR_materials_specular":{"specularFactor":1.0,"specularColorFactor":[0.0,0.0,0.0]},"KHR_materials_ior":{"ior":1.0}}},{"name":"material_1_material","pbrMetallicRoughness":{"baseColorTexture":{"index":1},"metallicFactor":0.0},"extensions":{"KHR_materials_specular":{"specularFactor":1.0,"specularColorFactor":[0.0,0.0,0.0]},"KHR_materials_ior":{"ior":1.0}}}],"meshes":[{"name":"defaultobject","primitives":[{"mode":4,"material":1,"indices":2,"attributes":{"POSITION":0,"TEXCOORD_0":1}},{"mode":4,"material":2,"indices":5,"attributes":{"POSITION":3,"TEXCOORD_0":4}}]}],"nodes":[{"name":"tile_0015.obj","children":[1]},{"name":"defaultobject","mesh":0}],"samplers":[{},{}],"scenes":[{"nodes":[0]}],"textures":[{"source":0,"sampler":0},{"source":1,"sampler":1}],"scene":0}
