{"asset":{"version":"2.0","generator":"Open Asset Import Library (assimp v6.0.0)"},"extensionsUsed":["KHR_materials_specular","KHR_materials_volume","KHR_materials_ior","FB_ngon_encoding"],"accessors":[{"bufferView":0,"byteOffset":0,"componentType":5126,"count":3332,"type":"VEC3","max":[6.344423770904541,-0.9853883981704712,4.173676013946533],"min":[2.2250738585072014e-308,-1.2134793996810913,2.2250738585072014e-308]},{"bufferView":1,"byteOffset":0,"componentType":5126,"count":3332,"type":"VEC2","max":[0.9936380386352539,0.9508590698242188],"min":[2.2250738585072014e-308,2.2250738585072014e-308]},{"bufferView":2,"byteOffset":0,"componentType":5125,"count":15249,"type":"SCALAR","max":[3331],"min":[0]},{"bufferView":3,"byteOffset":0,"componentType":5126,"count":3709,"type":"VEC3","max":[6.356555461883545,-0.9857668876647949,4.163603782653809],"min":[2.2250738585072014e-308,-1.2220373153686523,2.2250738585072014e-308]},{"bufferView":4,"byteOffset":0,"componentType":5126,"count":3709,"type":"VEC2","max":[0.9724483489990234,0.8786602020263672],"min":[2.2250738585072014e-308,2.2250738585072014e-308]},{"bufferView":5,"byteOffset":0,"componentType":5125,"count":19323,"type":"SCALAR","max":[3708],"min":[0]}],"buffers":[{"byteLength":279108,"uri":"tile_0208.bin"}],"bufferViews":[{"buffer":0,"byteOffset":0,"byteLength":39984,"target":34962},{"buffer":0,"byteOffset":39984,"byteLength":26656,"target":34962},{"buffer":0,"byteOffset":66640,"byteLength":60996,"target":34963},{"buffer":0,"byteOffset":127636,"byteLength":44508,"target":34962},{"buffer":0,"byteOffset":172144,"byteLength":29672,"target":34962},{"buffer":0,"byteOffset":201816,"byteLength":77292,"target":34963}],"images":[{"uri":"../textures/tile_0208_material_0.jpg"},{"uri":"../textures/tile_0208_material_1.jpg"}],"materials":[{"name":"DefaultMaterial","pbrMetallicRoughness":{"baseColorFactor":[0.6000000238418579,0.6000000238418579,0.6000000238418579,1.0],"metallicFactor":0.0},"extensions":{"KHR_materials_specular":{"specularFactor":1.0,"specularColorFactor":[0.0,0.0,0.0]},"KHR_materials_ior":{"ior":1.0}}},{"name":"material_0_material","pbrMetallicRoughness":{"baseColorTexture":{"index":0},"metallicFactor":0.0},"extensions":{"KHR_materials_specular":{"specularFactor":1.0,"specularColorFactor":[0.0,0.0,0.0]},"KHR_materials_ior":{"ior":1.0}}},{"name":"material_1_material","pbrMetallicRoughness":{"baseColorTexture":{"index":1},"metallicFactor":0.0},"extensions":{"KHR_materials_specular":{"specularFactor":1.0,"specularColorFactor":[0.0,0.0,0.0]},"KHR_materials_ior":{"ior":1.0}}}],"meshes":[{"name":"defaultobject","primitives":[{"mode":4,"material":1,"indices":2,"attributes":{"POSITION":0,"TEXCOORD_0":1}},{"mode":4,"material":2,"indices":5,"attributes":{"POSITION":3,"TEXCOORD_0":4}}]}],"nodes":[{"name":"tile_0208.obj","children":[1]},{"name":"defaultobject","mesh":0}],"samplers":[{},{}],"scenes":[{"nodes":[0]}],"textures":[{"source":0,"sampler":0},{"source":1,"sampler":1}],"scene":0}
