{"asset":{"version":"2.0","generator":"Open Asset Import Library (assimp v6.0.0)"},"extensionsUsed":["KHR_materials_specular","KHR_materials_volume","KHR_materials_ior","FB_ngon_encoding"],"accessors":[{"bufferView":0,"byteOffset":0,"componentType":5126,"count":3807,"type":"VEC3","max":[-1.7989388704299927,-0.02898327261209488,4.143665313720703],"min":[-2.1092569828033447,-0.1824653297662735,2.2250738585072014e-308]},{"bufferView":1,"byteOffset":0,"componentType":5126,"count":3807,"type":"VEC2","max":[0.9959206581115723,0.5233135223388672],"min":[2.2250738585072014e-308,2.2250738585072014e-308]},{"bufferView":2,"byteOffset":0,"componentType":5125,"count":17517,"type":"SCALAR","max":[3806],"min":[0]},{"bufferView":3,"byteOffset":0,"componentType":5126,"count":1190,"type":"VEC3","max":[-1.7978150844573975,-0.031266096979379654,4.145668029785156],"min":[-2.109952449798584,-0.18238244950771332,2.2250738585072014e-308]},{"bufferView":4,"byteOffset":0,"componentType":5126,"count":1190,"type":"VEC2","max":[0.7626581192016602,0.7180709838867188],"min":[2.2250738585072014e-308,2.2250738585072014e-308]},{"bufferView":5,"byteOffset":0,"componentType":5125,"count":5793,"type":"SCALAR","max":[1189],"min":[0]}],"buffers":[{"byteLength":193180,"uri":"tile_0457.bin"}],"bufferViews":[{"buffer":0,"byteOffset":0,"byteLength":45684,"target":34962},{"buffer":0,"byteOffset":45684,"byteLength":30456,"target":34962},{"buffer":0,"byteOffset":76140,"byteLength":70068,"target":34963},{"buffer":0,"byteOffset":146208,"byteLength":14280,"target":34962},{"buffer":0,"byteOffset":160488,"byteLength":9520,"target":34962},{"buffer":0,"byteOffset":170008,"byteLength":23172,"target":34963}],"images":[{"uri":"../textures/tile_0457_material_0.jpg"},{"uri":"../textures/tile_0457_material_1.jpg"}],"materials":[{"name":"DefaultMaterial","pbrMetallicRoughness":{"baseColorFactor":[0.6000000238418579,0.6000000238418579,0.6000000238418579,1.0],"metallicFactor":0.0},"extensions":{"KHR_materials_specular":{"specularFactor":1.0,"specularColorFactor":[0.0,0.0,0.0]},"KHR_materials_ior":{"ior":1.0}}},{"name":"material_0_material","pbrMetallicRoughness":{"baseColorTexture":{"index":0},"metallicFactor":0.0},"extensions":{"KHR_materials_specular":{"specularFactor":1.0,"specularColorFactor":[0.0,0.0,0.0]},"KHR_materials_ior":{"ior":1.0}}},{"name":"material_1_material","pbrMetallicRoughness":{"baseColorTexture":{"index":1},"metallicFactor":0.0},"extensions":{"KHR_materials_specular":{"specularFactor":1.0,"specularColorFactor":[0.0,0.0,0.0]},"KHR_materials_ior":{"ior":1.0}}}],"meshes":[{"name":"defaultobject","primitives":[{"mode":4,"material":1,"indices":2,"attributes":{"POSITION":0,"TEXCOORD_0":1}},{"mode":4,"material":2,"indices":5,"attributes":{"POSITION":3,"TEXCOORD_0":4}}]}],"nodes":[{"name":"tile_0457.obj","children":[1]},{"name":"defaultobject","mesh":0}],"samplers":[{},{}],"scenes":[{"nodes":[0]}],"textures":[{"source":0,"sampler":0},{"source":1,"sampler":1}],"scene":0}
