{"asset":{"version":"2.0","generator":"Open Asset Import Library (assimp v6.0.0)"},"extensionsUsed":["KHR_materials_specular","KHR_materials_volume","KHR_materials_ior","FB_ngon_encoding"],"accessors":[{"bufferView":0,"byteOffset":0,"componentType":5126,"count":965,"type":"VEC3","max":[-1.2348301410675049,-5.86171817779541,2.500107765197754],"min":[-1.388719916343689,-6.823652744293213,2.2250738585072014e-308]},{"bufferView":1,"byteOffset":0,"componentType":5126,"count":965,"type":"VEC2","max":[0.7490234375,0.921478271484375],"min":[2.2250738585072014e-308,2.2250738585072014e-308]},{"bufferView":2,"byteOffset":0,"componentType":5125,"count":4158,"type":"SCALAR","max":[964],"min":[0]},{"bufferView":3,"byteOffset":0,"componentType":5126,"count":3257,"type":"VEC3","max":[-1.233958125114441,-5.8627519607543945,2.509330987930298],"min":[-1.4437073469161987,-6.821587562561035,2.2250738585072014e-308]},{"bufferView":4,"byteOffset":0,"componentType":5126,"count":3257,"type":"VEC2","max":[0.9692564010620117,0.8566207885742188],"min":[2.2250738585072014e-308,2.2250738585072014e-308]},{"bufferView":5,"byteOffset":0,"componentType":5125,"count":16761,"type":"SCALAR","max":[3256],"min":[0]}],"buffers":[{"byteLength":168116,"uri":"tile_0393.bin"}],"bufferViews":[{"buffer":0,"byteOffset":0,"byteLength":11580,"target":34962},{"buffer":0,"byteOffset":11580,"byteLength":7720,"target":34962},{"buffer":0,"byteOffset":19300,"byteLength":16632,"target":34963},{"buffer":0,"byteOffset":35932,"byteLength":39084,"target":34962},{"buffer":0,"byteOffset":75016,"byteLength":26056,"target":34962},{"buffer":0,"byteOffset":101072,"byteLength":67044,"target":34963}],"images":[{"uri":"../textures/tile_0393_material_0.jpg"},{"uri":"../textures/tile_0393_material_1.jpg"}],"materials":[{"name":"DefaultMaterial","pbrMetallicRoughness":{"baseColorFactor":[0.6000000238418579,0.6000000238418579,0.6000000238418579,1.0],"metallicFactor":0.0},"extensions":{"KHR_materials_specular":{"specularFactor":1.0,"specularColorFactor":[0.0,0.0,0.0]},"KHR_materials_ior":{"ior":1.0}}},{"name":"material_0_material","pbrMetallicRoughness":{"baseColorTexture":{"index":0},"metallicFactor":0.0},"extensions":{"KHR_materials_specular":{"specularFactor":1.0,"specularColorFactor":[0.0,0.0,0.0]},"KHR_materials_ior":{"ior":1.0}}},{"name":"material_1_material","pbrMetallicRoughness":{"baseColorTexture":{"index":1},"metallicFactor":0.0},"extensions":{"KHR_materials_specular":{"specularFactor":1.0,"specularColorFactor":[0.0,0.0,0.0]},"KHR_materials_ior":{"ior":1.0}}}],"meshes":[{"name":"defaultobject","primitives":[{"mode":4,"material":1,"indices":2,"attributes":{"POSITION":0,"TEXCOORD_0":1}},{"mode":4,"material":2,"indices":5,"attributes":{"POSITION":3,"TEXCOORD_0":4}}]}],"nodes":[{"name":"tile_0393.obj","children":[1]},{"name":"defaultobject","mesh":0}],"samplers":[{},{}],"scenes":[{"nodes":[0]}],"textures":[{"source":0,"sampler":0},{"source":1,"sampler":1}],"scene":0}
