{"asset":{"version":"2.0","generator":"Open Asset Import Library (assimp v6.0.0)"},"extensionsUsed":["KHR_materials_specular","KHR_materials_volume","KHR_materials_ior","FB_ngon_encoding"],"accessors":[{"bufferView":0,"byteOffset":0,"componentType":5126,"count":3943,"type":"VEC3","max":[-0.006991975009441376,-1.4872705936431885,2.8082213401794434],"min":[-0.2364092767238617,-1.7299317121505737,2.2250738585072014e-308]},{"bufferView":1,"byteOffset":0,"componentType":5126,"count":3943,"type":"VEC2","max":[0.9891965389251709,0.5585365295410156],"min":[2.2250738585072014e-308,2.2250738585072014e-308]},{"bufferView":2,"byteOffset":0,"componentType":5125,"count":18669,"type":"SCALAR","max":[3942],"min":[0]},{"bufferView":3,"byteOffset":0,"componentType":5126,"count":802,"type":"VEC3","max":[-0.11110591888427734,-1.4864346981048584,2.688471794128418],"min":[-0.2362302839756012,-1.7287592887878418,2.2250738585072014e-308]},{"bufferView":4,"byteOffset":0,"componentType":5126,"count":802,"type":"VEC2","max":[0.9516582489013672,0.8332595825195312],"min":[2.2250738585072014e-308,2.2250738585072014e-308]},{"bufferView":5,"byteOffset":0,"componentType":5125,"count":4023,"type":"SCALAR","max":[801],"min":[0]}],"buffers":[{"byteLength":185668,"uri":"tile_0407.bin"}],"bufferViews":[{"buffer":0,"byteOffset":0,"byteLength":47316,"target":34962},{"buffer":0,"byteOffset":47316,"byteLength":31544,"target":34962},{"buffer":0,"byteOffset":78860,"byteLength":74676,"target":34963},{"buffer":0,"byteOffset":153536,"byteLength":9624,"target":34962},{"buffer":0,"byteOffset":163160,"byteLength":6416,"target":34962},{"buffer":0,"byteOffset":169576,"byteLength":16092,"target":34963}],"images":[{"uri":"../textures/tile_0407_material_0.jpg"},{"uri":"../textures/tile_0407_material_1.jpg"}],"materials":[{"name":"DefaultMaterial","pbrMetallicRoughness":{"baseColorFactor":[0.6000000238418579,0.6000000238418579,0.6000000238418579,1.0],"metallicFactor":0.0},"extensions":{"KHR_materials_specular":{"specularFactor":1.0,"specularColorFactor":[0.0,0.0,0.0]},"KHR_materials_ior":{"ior":1.0}}},{"name":"material_0_material","pbrMetallicRoughness":{"baseColorTexture":{"index":0},"metallicFactor":0.0},"extensions":{"KHR_materials_specular":{"specularFactor":1.0,"specularColorFactor":[0.0,0.0,0.0]},"KHR_materials_ior":{"ior":1.0}}},{"name":"material_1_material","pbrMetallicRoughness":{"baseColorTexture":{"index":1},"metallicFactor":0.0},"extensions":{"KHR_materials_specular":{"specularFactor":1.0,"specularColorFactor":[0.0,0.0,0.0]},"KHR_materials_ior":{"ior":1.0}}}],"meshes":[{"name":"defaultobject","primitives":[{"mode":4,"material":1,"indices":2,"attributes":{"POSITION":0,"TEXCOORD_0":1}},{"mode":4,"material":2,"indices":5,"attributes":{"POSITION":3,"TEXCOORD_0":4}}]}],"nodes":[{"name":"tile_0407.obj","children":[1]},{"name":"defaultobject","mesh":0}],"samplers":[{},{}],"scenes":[{"nodes":[0]}],"textures":[{"source":0,"sampler":0},{"source":1,"sampler":1}],"scene":0}
