{"asset":{"version":"2.0","generator":"Open Asset Import Library (assimp v6.0.0)"},"extensionsUsed":["KHR_materials_specular","KHR_materials_volume","KHR_materials_ior","FB_ngon_encoding"],"accessors":[{"bufferView":0,"byteOffset":0,"componentType":5126,"count":3291,"type":"VEC3","max":[4.1000566482543945,1.982754111289978,3.966097116470337],"min":[2.2250738585072014e-308,2.2250738585072014e-308,2.2250738585072014e-308]},{"bufferView":1,"byteOffset":0,"componentType":5126,"count":3291,"type":"VEC2","max":[0.9883184432983398,0.724151611328125],"min":[2.2250738585072014e-308,2.2250738585072014e-308]},{"bufferView":2,"byteOffset":0,"componentType":5125,"count":15378,"type":"SCALAR","max":[3290],"min":[0]},{"bufferView":3,"byteOffset":0,"componentType":5126,"count":2000,"type":"VEC3","max":[4.0996599197387695,1.9822847843170166,3.969052314758301],"min":[2.2250738585072014e-308,2.2250738585072014e-308,2.2250738585072014e-308]},{"bufferView":4,"byteOffset":0,"componentType":5126,"count":2000,"type":"VEC2","max":[0.8418788909912109,0.5959644317626953],"min":[2.2250738585072014e-308,2.2250738585072014e-308]},{"bufferView":5,"byteOffset":0,"componentType":5125,"count":10269,"type":"SCALAR","max":[1999],"min":[0]}],"buffers":[{"byteLength":208408,"uri":"tile_0678.bin"}],"bufferViews":[{"buffer":0,"byteOffset":0,"byteLength":39492,"target":34962},{"buffer":0,"byteOffset":39492,"byteLength":26328,"target":34962},{"buffer":0,"byteOffset":65820,"byteLength":61512,"target":34963},{"buffer":0,"byteOffset":127332,"byteLength":24000,"target":34962},{"buffer":0,"byteOffset":151332,"byteLength":16000,"target":34962},{"buffer":0,"byteOffset":167332,"byteLength":41076,"target":34963}],"images":[{"uri":"../textures/tile_0678_material_0.jpg"},{"uri":"../textures/tile_0678_material_1.jpg"}],"materials":[{"name":"DefaultMaterial","pbrMetallicRoughness":{"baseColorFactor":[0.6000000238418579,0.6000000238418579,0.6000000238418579,1.0],"metallicFactor":0.0},"extensions":{"KHR_materials_specular":{"specularFactor":1.0,"specularColorFactor":[0.0,0.0,0.0]},"KHR_materials_ior":{"ior":1.0}}},{"name":"material_0_material","pbrMetallicRoughness":{"baseColorTexture":{"index":0},"metallicFactor":0.0},"extensions":{"KHR_materials_specular":{"specularFactor":1.0,"specularColorFactor":[0.0,0.0,0.0]},"KHR_materials_ior":{"ior":1.0}}},{"name":"material_1_material","pbrMetallicRoughness":{"baseColorTexture":{"index":1},"metallicFactor":0.0},"extensions":{"KHR_materials_specular":{"specularFactor":1.0,"specularColorFactor":[0.0,0.0,0.0]},"KHR_materials_ior":{"ior":1.0}}}],"meshes":[{"name":"defaultobject","primitives":[{"mode":4,"material":1,"indices":2,"attributes":{"POSITION":0,"TEXCOORD_0":1}},{"mode":4,"material":2,"indices":5,"attributes":{"POSITION":3,"TEXCOORD_0":4}}]}],"nodes":[{"name":"tile_0678.obj","children":[1]},{"name":"defaultobject","mesh":0}],"samplers":[{},{}],"scenes":[{"nodes":[0]}],"textures":[{"source":0,"sampler":0},{"source":1,"sampler":1}],"scene":0}
