{"asset":{"version":"2.0","generator":"Open Asset Import Library (assimp v6.0.0)"},"extensionsUsed":["KHR_materials_specular","KHR_materials_volume","KHR_materials_ior","FB_ngon_encoding"],"accessors":[{"bufferView":0,"byteOffset":0,"componentType":5126,"count":6773,"type":"VEC3","max":[-0.7417002320289612,4.666885852813721,4.722012996673584],"min":[-1.0791844129562378,2.2250738585072014e-308,2.2250738585072014e-308]},{"bufferView":1,"byteOffset":0,"componentType":5126,"count":6773,"type":"VEC2","max":[0.9899306297302246,0.6960830688476562],"min":[2.2250738585072014e-308,2.2250738585072014e-308]},{"bufferView":2,"byteOffset":0,"componentType":5125,"count":30093,"type":"SCALAR","max":[6772],"min":[0]},{"bufferView":3,"byteOffset":0,"componentType":5126,"count":494,"type":"VEC3","max":[-0.7424141764640808,4.250107288360596,4.689296722412109],"min":[-0.9495048522949219,2.2250738585072014e-308,2.2250738585072014e-308]},{"bufferView":4,"byteOffset":0,"componentType":5126,"count":494,"type":"VEC2","max":[0.5296878814697266,0.7903327941894531],"min":[2.2250738585072014e-308,2.2250738585072014e-308]},{"bufferView":5,"byteOffset":0,"componentType":5125,"count":2508,"type":"SCALAR","max":[493],"min":[0]}],"buffers":[{"byteLength":275744,"uri":"tile_0508.bin"}],"bufferViews":[{"buffer":0,"byteOffset":0,"byteLength":81276,"target":34962},{"buffer":0,"byteOffset":81276,"byteLength":54184,"target":34962},{"buffer":0,"byteOffset":135460,"byteLength":120372,"target":34963},{"buffer":0,"byteOffset":255832,"byteLength":5928,"target":34962},{"buffer":0,"byteOffset":261760,"byteLength":3952,"target":34962},{"buffer":0,"byteOffset":265712,"byteLength":10032,"target":34963}],"images":[{"uri":"../textures/tile_0508_material_0.jpg"},{"uri":"../textures/tile_0508_material_1.jpg"}],"materials":[{"name":"DefaultMaterial","pbrMetallicRoughness":{"baseColorFactor":[0.6000000238418579,0.6000000238418579,0.6000000238418579,1.0],"metallicFactor":0.0},"extensions":{"KHR_materials_specular":{"specularFactor":1.0,"specularColorFactor":[0.0,0.0,0.0]},"KHR_materials_ior":{"ior":1.0}}},{"name":"material_0_material","pbrMetallicRoughness":{"baseColorTexture":{"index":0},"metallicFactor":0.0},"extensions":{"KHR_materials_specular":{"specularFactor":1.0,"specularColorFactor":[0.0,0.0,0.0]},"KHR_materials_ior":{"ior":1.0}}},{"name":"material_1_material","pbrMetallicRoughness":{"baseColorTexture":{"index":1},"metallicFactor":0.0},"extensions":{"KHR_materials_specular":{"specularFactor":1.0,"specularColorFactor":[0.0,0.0,0.0]},"KHR_materials_ior":{"ior":1.0}}}],"meshes":[{"name":"defaultobject","primitives":[{"mode":4,"material":1,"indices":2,"attributes":{"POSITION":0,"TEXCOORD_0":1}},{"mode":4,"material":2,"indices":5,"attributes":{"POSITION":3,"TEXCOORD_0":4}}]}],"nodes":[{"name":"tile_0508.obj","children":[1]},{"name":"defaultobject","mesh":0}],"samplers":[{},{}],"scenes":[{"nodes":[0]}],"textures":[{"source":0,"sampler":0},{"source":1,"sampler":1}],"scene":0}
