{"asset":{"version":"2.0","generator":"Open Asset Import Library (assimp v6.0.0)"},"extensionsUsed":["KHR_materials_specular","KHR_materials_volume","KHR_materials_ior","FB_ngon_encoding"],"accessors":[{"bufferView":0,"byteOffset":0,"componentType":5126,"count":4222,"type":"VEC3","max":[-1.1233124732971191,2.4757723808288574,4.495248317718506],"min":[-1.399938702583313,2.2250738585072014e-308,2.2250738585072014e-308]},{"bufferView":1,"byteOffset":0,"componentType":5126,"count":4222,"type":"VEC2","max":[0.9919238090515137,0.8737716674804688],"min":[2.2250738585072014e-308,2.2250738585072014e-308]},{"bufferView":2,"byteOffset":0,"componentType":5125,"count":18483,"type":"SCALAR","max":[4221],"min":[0]},{"bufferView":3,"byteOffset":0,"componentType":5126,"count":380,"type":"VEC3","max":[-1.0990709066390991,2.491781234741211,4.503953456878662],"min":[-1.4050405025482178,2.2250738585072014e-308,2.2250738585072014e-308]},{"bufferView":4,"byteOffset":0,"componentType":5126,"count":380,"type":"VEC2","max":[0.7681446075439453,0.9090194702148438],"min":[2.2250738585072014e-308,2.2250738585072014e-308]},{"bufferView":5,"byteOffset":0,"componentType":5125,"count":1842,"type":"SCALAR","max":[379],"min":[0]}],"buffers":[{"byteLength":173340,"uri":"tile_0599.bin"}],"bufferViews":[{"buffer":0,"byteOffset":0,"byteLength":50664,"target":34962},{"buffer":0,"byteOffset":50664,"byteLength":33776,"target":34962},{"buffer":0,"byteOffset":84440,"byteLength":73932,"target":34963},{"buffer":0,"byteOffset":158372,"byteLength":4560,"target":34962},{"buffer":0,"byteOffset":162932,"byteLength":3040,"target":34962},{"buffer":0,"byteOffset":165972,"byteLength":7368,"target":34963}],"images":[{"uri":"../textures/tile_0599_material_0.jpg"},{"uri":"../textures/tile_0599_material_1.jpg"}],"materials":[{"name":"DefaultMaterial","pbrMetallicRoughness":{"baseColorFactor":[0.6000000238418579,0.6000000238418579,0.6000000238418579,1.0],"metallicFactor":0.0},"extensions":{"KHR_materials_specular":{"specularFactor":1.0,"specularColorFactor":[0.0,0.0,0.0]},"KHR_materials_ior":{"ior":1.0}}},{"name":"material_0_material","pbrMetallicRoughness":{"baseColorTexture":{"index":0},"metallicFactor":0.0},"extensions":{"KHR_materials_specular":{"specularFactor":1.0,"specularColorFactor":[0.0,0.0,0.0]},"KHR_materials_ior":{"ior":1.0}}},{"name":"material_1_material","pbrMetallicRoughness":{"baseColorTexture":{"index":1},"metallicFactor":0.0},"extensions":{"KHR_materials_specular":{"specularFactor":1.0,"specularColorFactor":[0.0,0.0,0.0]},"KHR_materials_ior":{"ior":1.0}}}],"meshes":[{"name":"defaultobject","primitives":[{"mode":4,"material":1,"indices":2,"attributes":{"POSITION":0,"TEXCOORD_0":1}},{"mode":4,"material":2,"indices":5,"attributes":{"POSITION":3,"TEXCOORD_0":4}}]}],"nodes":[{"name":"tile_0599.obj","children":[1]},{"name":"defaultobject","mesh":0}],"samplers":[{},{}],"scenes":[{"nodes":[0]}],"textures":[{"source":0,"sampler":0},{"source":1,"sampler":1}],"scene":0}
