{"asset":{"version":"2.0","generator":"Open Asset Import Library (assimp v6.0.0)"},"extensionsUsed":["KHR_materials_specular","KHR_materials_volume","KHR_materials_ior","FB_ngon_encoding"],"accessors":[{"bufferView":0,"byteOffset":0,"componentType":5126,"count":4589,"type":"VEC3","max":[3.040282964706421,-0.5650495290756226,4.097320556640625],"min":[2.2250738585072014e-308,-0.8024024963378906,2.2250738585072014e-308]},{"bufferView":1,"byteOffset":0,"componentType":5126,"count":4589,"type":"VEC2","max":[0.9929282665252686,0.9608383178710938],"min":[2.2250738585072014e-308,2.2250738585072014e-308]},{"bufferView":2,"byteOffset":0,"componentType":5125,"count":19044,"type":"SCALAR","max":[4588],"min":[0]},{"bufferView":3,"byteOffset":0,"componentType":5126,"count":162,"type":"VEC3","max":[2.6826798915863037,-0.5657621622085571,4.040444850921631],"min":[2.2250738585072014e-308,-0.8069308400154114,2.2250738585072014e-308]},{"bufferView":4,"byteOffset":0,"componentType":5126,"count":162,"type":"VEC2","max":[0.8001518249511719,0.49140167236328125],"min":[2.2250738585072014e-308,2.2250738585072014e-308]},{"bufferView":5,"byteOffset":0,"componentType":5125,"count":678,"type":"SCALAR","max":[161],"min":[0]}],"buffers":[{"byteLength":173908,"uri":"tile_0169.bin"}],"bufferViews":[{"buffer":0,"byteOffset":0,"byteLength":55068,"target":34962},{"buffer":0,"byteOffset":55068,"byteLength":36712,"target":34962},{"buffer":0,"byteOffset":91780,"byteLength":76176,"target":34963},{"buffer":0,"byteOffset":167956,"byteLength":1944,"target":34962},{"buffer":0,"byteOffset":169900,"byteLength":1296,"target":34962},{"buffer":0,"byteOffset":171196,"byteLength":2712,"target":34963}],"images":[{"uri":"../textures/tile_0169_material_0.jpg"},{"uri":"../textures/tile_0169_material_1.jpg"}],"materials":[{"name":"DefaultMaterial","pbrMetallicRoughness":{"baseColorFactor":[0.6000000238418579,0.6000000238418579,0.6000000238418579,1.0],"metallicFactor":0.0},"extensions":{"KHR_materials_specular":{"specularFactor":1.0,"specularColorFactor":[0.0,0.0,0.0]},"KHR_materials_ior":{"ior":1.0}}},{"name":"material_0_material","pbrMetallicRoughness":{"baseColorTexture":{"index":0},"metallicFactor":0.0},"extensions":{"KHR_materials_specular":{"specularFactor":1.0,"specularColorFactor":[0.0,0.0,0.0]},"KHR_materials_ior":{"ior":1.0}}},{"name":"material_1_material","pbrMetallicRoughness":{"baseColorTexture":{"index":1},"metallicFactor":0.0},"extensions":{"KHR_materials_specular":{"specularFactor":1.0,"specularColorFactor":[0.0,0.0,0.0]},"KHR_materials_ior":{"ior":1.0}}}],"meshes":[{"name":"defaultobject","primitives":[{"mode":4,"material":1,"indices":2,"attributes":{"POSITION":0,"TEXCOORD_0":1}},{"mode":4,"material":2,"indices":5,"attributes":{"POSITION":3,"TEXCOORD_0":4}}]}],"nodes":[{"name":"tile_0169.obj","children":[1]},{"name":"defaultobject","mesh":0}],"samplers":[{},{}],"scenes":[{"nodes":[0]}],"textures":[{"source":0,"sampler":0},{"source":1,"sampler":1}],"scene":0}
