{"asset":{"version":"2.0","generator":"Open Asset Import Library (assimp v6.0.0)"},"extensionsUsed":["KHR_materials_specular","KHR_materials_volume","KHR_materials_ior","FB_ngon_encoding"],"accessors":[{"bufferView":0,"byteOffset":0,"componentType":5126,"count":5832,"type":"VEC3","max":[0.1517920196056366,-2.6981112957000732,2.600048303604126],"min":[-0.05266575515270233,-3.029683828353882,2.2250738585072014e-308]},{"bufferView":1,"byteOffset":0,"componentType":5126,"count":5832,"type":"VEC2","max":[0.9868497848510742,0.5112724304199219],"min":[2.2250738585072014e-308,2.2250738585072014e-308]},{"bufferView":2,"byteOffset":0,"componentType":5125,"count":25596,"type":"SCALAR","max":[5831],"min":[0]},{"bufferView":3,"byteOffset":0,"componentType":5126,"count":709,"type":"VEC3","max":[0.15178653597831726,-2.8832051753997803,2.5629897117614746],"min":[2.2250738585072014e-308,-3.027653694152832,2.2250738585072014e-308]},{"bufferView":4,"byteOffset":0,"componentType":5126,"count":709,"type":"VEC2","max":[0.896148681640625,0.8637886047363281],"min":[2.2250738585072014e-308,2.2250738585072014e-308]},{"bufferView":5,"byteOffset":0,"componentType":5125,"count":3648,"type":"SCALAR","max":[708],"min":[0]}],"buffers":[{"byteLength":247796,"uri":"tile_0824.bin"}],"bufferViews":[{"buffer":0,"byteOffset":0,"byteLength":69984,"target":34962},{"buffer":0,"byteOffset":69984,"byteLength":46656,"target":34962},{"buffer":0,"byteOffset":116640,"byteLength":102384,"target":34963},{"buffer":0,"byteOffset":219024,"byteLength":8508,"target":34962},{"buffer":0,"byteOffset":227532,"byteLength":5672,"target":34962},{"buffer":0,"byteOffset":233204,"byteLength":14592,"target":34963}],"images":[{"uri":"../textures/tile_0824_material_0.jpg"},{"uri":"../textures/tile_0824_material_1.jpg"}],"materials":[{"name":"DefaultMaterial","pbrMetallicRoughness":{"baseColorFactor":[0.6000000238418579,0.6000000238418579,0.6000000238418579,1.0],"metallicFactor":0.0},"extensions":{"KHR_materials_specular":{"specularFactor":1.0,"specularColorFactor":[0.0,0.0,0.0]},"KHR_materials_ior":{"ior":1.0}}},{"name":"material_0_material","pbrMetallicRoughness":{"baseColorTexture":{"index":0},"metallicFactor":0.0},"extensions":{"KHR_materials_specular":{"specularFactor":1.0,"specularColorFactor":[0.0,0.0,0.0]},"KHR_materials_ior":{"ior":1.0}}},{"name":"material_1_material","pbrMetallicRoughness":{"baseColorTexture":{"index":1},"metallicFactor":0.0},"extensions":{"KHR_materials_specular":{"specularFactor":1.0,"specularColorFactor":[0.0,0.0,0.0]},"KHR_materials_ior":{"ior":1.0}}}],"meshes":[{"name":"defaultobject","primitives":[{"mode":4,"material":1,"indices":2,"attributes":{"POSITION":0,"TEXCOORD_0":1}},{"mode":4,"material":2,"indices":5,"attributes":{"POSITION":3,"TEXCOORD_0":4}}]}],"nodes":[{"name":"tile_0824.obj","children":[1]},{"name":"defaultobject","mesh":0}],"samplers":[{},{}],"scenes":[{"nodes":[0]}],"textures":[{"source":0,"sampler":0},{"source":1,"sampler":1}],"scene":0}
