{"asset":{"version":"2.0","generator":"Open Asset Import Library (assimp v6.0.0)"},"extensionsUsed":["KHR_materials_specular","KHR_materials_volume","KHR_materials_ior","FB_ngon_encoding"],"accessors":[{"bufferView":0,"byteOffset":0,"componentType":5126,"count":3727,"type":"VEC3","max":[-2.774111270904541,-0.2778921127319336,4.155489444732666],"min":[-3.095395565032959,-0.48558542132377625,2.2250738585072014e-308]},{"bufferView":1,"byteOffset":0,"componentType":5126,"count":3727,"type":"VEC2","max":[0.992603063583374,0.4998779296875],"min":[2.2250738585072014e-308,2.2250738585072014e-308]},{"bufferView":2,"byteOffset":0,"componentType":5125,"count":15564,"type":"SCALAR","max":[3726],"min":[0]},{"bufferView":3,"byteOffset":0,"componentType":5126,"count":2615,"type":"VEC3","max":[-2.7894668579101562,-0.27585357427597046,4.1595001220703125],"min":[-3.0772581100463867,-0.49607929587364197,2.2250738585072014e-308]},{"bufferView":4,"byteOffset":0,"componentType":5126,"count":2615,"type":"VEC2","max":[0.6672353744506836,0.6106090545654297],"min":[2.2250738585072014e-308,2.2250738585072014e-308]},{"bufferView":5,"byteOffset":0,"componentType":5125,"count":13086,"type":"SCALAR","max":[2614],"min":[0]}],"buffers":[{"byteLength":241440,"uri":"tile_0458.bin"}],"bufferViews":[{"buffer":0,"byteOffset":0,"byteLength":44724,"target":34962},{"buffer":0,"byteOffset":44724,"byteLength":29816,"target":34962},{"buffer":0,"byteOffset":74540,"byteLength":62256,"target":34963},{"buffer":0,"byteOffset":136796,"byteLength":31380,"target":34962},{"buffer":0,"byteOffset":168176,"byteLength":20920,"target":34962},{"buffer":0,"byteOffset":189096,"byteLength":52344,"target":34963}],"images":[{"uri":"../textures/tile_0458_material_0.jpg"},{"uri":"../textures/tile_0458_material_1.jpg"}],"materials":[{"name":"DefaultMaterial","pbrMetallicRoughness":{"baseColorFactor":[0.6000000238418579,0.6000000238418579,0.6000000238418579,1.0],"metallicFactor":0.0},"extensions":{"KHR_materials_specular":{"specularFactor":1.0,"specularColorFactor":[0.0,0.0,0.0]},"KHR_materials_ior":{"ior":1.0}}},{"name":"material_0_material","pbrMetallicRoughness":{"baseColorTexture":{"index":0},"metallicFactor":0.0},"extensions":{"KHR_materials_specular":{"specularFactor":1.0,"specularColorFactor":[0.0,0.0,0.0]},"KHR_materials_ior":{"ior":1.0}}},{"name":"material_1_material","pbrMetallicRoughness":{"baseColorTexture":{"index":1},"metallicFactor":0.0},"extensions":{"KHR_materials_specular":{"specularFactor":1.0,"specularColorFactor":[0.0,0.0,0.0]},"KHR_materials_ior":{"ior":1.0}}}],"meshes":[{"name":"defaultobject","primitives":[{"mode":4,"material":1,"indices":2,"attributes":{"POSITION":0,"TEXCOORD_0":1}},{"mode":4,"material":2,"indices":5,"attributes":{"POSITION":3,"TEXCOORD_0":4}}]}],"nodes":[{"name":"tile_0458.obj","children":[1]},{"name":"defaultobject","mesh":0}],"samplers":[{},{}],"scenes":[{"nodes":[0]}],"textures":[{"source":0,"sampler":0},{"source":1,"sampler":1}],"scene":0}
