{"asset":{"version":"2.0","generator":"Open Asset Import Library (assimp v6.0.0)"},"extensionsUsed":["KHR_materials_specular","KHR_materials_volume","KHR_materials_ior","FB_ngon_encoding"],"accessors":[{"bufferView":0,"byteOffset":0,"componentType":5126,"count":5554,"type":"VEC3","max":[-0.04663810878992081,-4.54215669631958,2.8504621982574463],"min":[-0.24996301531791687,-4.972593307495117,2.2250738585072014e-308]},{"bufferView":1,"byteOffset":0,"componentType":5126,"count":5554,"type":"VEC2","max":[0.9950447082519531,0.6012439727783203],"min":[2.2250738585072014e-308,2.2250738585072014e-308]},{"bufferView":2,"byteOffset":0,"componentType":5125,"count":23964,"type":"SCALAR","max":[5553],"min":[0]},{"bufferView":3,"byteOffset":0,"componentType":5126,"count":1732,"type":"VEC3","max":[-0.04890910163521767,-4.578585147857666,2.8385353088378906],"min":[-0.24988031387329102,-4.972520351409912,2.2250738585072014e-308]},{"bufferView":4,"byteOffset":0,"componentType":5126,"count":1732,"type":"VEC2","max":[0.7735795974731445,0.91070556640625],"min":[2.2250738585072014e-308,2.2250738585072014e-308]},{"bufferView":5,"byteOffset":0,"componentType":5125,"count":9090,"type":"SCALAR","max":[1731],"min":[0]}],"buffers":[{"byteLength":277936,"uri":"tile_0353.bin"}],"bufferViews":[{"buffer":0,"byteOffset":0,"byteLength":66648,"target":34962},{"buffer":0,"byteOffset":66648,"byteLength":44432,"target":34962},{"buffer":0,"byteOffset":111080,"byteLength":95856,"target":34963},{"buffer":0,"byteOffset":206936,"byteLength":20784,"target":34962},{"buffer":0,"byteOffset":227720,"byteLength":13856,"target":34962},{"buffer":0,"byteOffset":241576,"byteLength":36360,"target":34963}],"images":[{"uri":"../textures/tile_0353_material_0.jpg"},{"uri":"../textures/tile_0353_material_1.jpg"}],"materials":[{"name":"DefaultMaterial","pbrMetallicRoughness":{"baseColorFactor":[0.6000000238418579,0.6000000238418579,0.6000000238418579,1.0],"metallicFactor":0.0},"extensions":{"KHR_materials_specular":{"specularFactor":1.0,"specularColorFactor":[0.0,0.0,0.0]},"KHR_materials_ior":{"ior":1.0}}},{"name":"material_0_material","pbrMetallicRoughness":{"baseColorTexture":{"index":0},"metallicFactor":0.0},"extensions":{"KHR_materials_specular":{"specularFactor":1.0,"specularColorFactor":[0.0,0.0,0.0]},"KHR_materials_ior":{"ior":1.0}}},{"name":"material_1_material","pbrMetallicRoughness":{"baseColorTexture":{"index":1},"metallicFactor":0.0},"extensions":{"KHR_materials_specular":{"specularFactor":1.0,"specularColorFactor":[0.0,0.0,0.0]},"KHR_materials_ior":{"ior":1.0}}}],"meshes":[{"name":"defaultobject","primitives":[{"mode":4,"material":1,"indices":2,"attributes":{"POSITION":0,"TEXCOORD_0":1}},{"mode":4,"material":2,"indices":5,"attributes":{"POSITION":3,"TEXCOORD_0":4}}]}],"nodes":[{"name":"tile_0353.obj","children":[1]},{"name":"defaultobject","mesh":0}],"samplers":[{},{}],"scenes":[{"nodes":[0]}],"textures":[{"source":0,"sampler":0},{"source":1,"sampler":1}],"scene":0}
