{"asset":{"version":"2.0","generator":"Open Asset Import Library (assimp v6.0.0)"},"extensionsUsed":["KHR_materials_specular","KHR_materials_volume","KHR_materials_ior","FB_ngon_encoding"],"accessors":[{"bufferView":0,"byteOffset":0,"componentType":5126,"count":3964,"type":"VEC3","max":[-0.028279315680265427,-2.203596591949463,2.627382755279541],"min":[-0.25803428888320923,-2.4793038368225098,2.2250738585072014e-308]},{"bufferView":1,"byteOffset":0,"componentType":5126,"count":3964,"type":"VEC2","max":[0.9879046678543091,0.8499794006347656],"min":[2.2250738585072014e-308,2.2250738585072014e-308]},{"bufferView":2,"byteOffset":0,"componentType":5125,"count":17607,"type":"SCALAR","max":[3963],"min":[0]},{"bufferView":3,"byteOffset":0,"componentType":5126,"count":347,"type":"VEC3","max":[-0.02810714580118656,-2.2037553787231445,2.602379083633423],"min":[-0.2212744653224945,-2.4761879444122314,2.2250738585072014e-308]},{"bufferView":4,"byteOffset":0,"componentType":5126,"count":347,"type":"VEC2","max":[0.5246334075927734,0.8217315077781677],"min":[2.2250738585072014e-308,2.2250738585072014e-308]},{"bufferView":5,"byteOffset":0,"componentType":5125,"count":1644,"type":"SCALAR","max":[346],"min":[0]}],"buffers":[{"byteLength":163224,"uri":"tile_0399.bin"}],"bufferViews":[{"buffer":0,"byteOffset":0,"byteLength":47568,"target":34962},{"buffer":0,"byteOffset":47568,"byteLength":31712,"target":34962},{"buffer":0,"byteOffset":79280,"byteLength":70428,"target":34963},{"buffer":0,"byteOffset":149708,"byteLength":4164,"target":34962},{"buffer":0,"byteOffset":153872,"byteLength":2776,"target":34962},{"buffer":0,"byteOffset":156648,"byteLength":6576,"target":34963}],"images":[{"uri":"../textures/tile_0399_material_0.jpg"},{"uri":"../textures/tile_0399_material_1.jpg"}],"materials":[{"name":"DefaultMaterial","pbrMetallicRoughness":{"baseColorFactor":[0.6000000238418579,0.6000000238418579,0.6000000238418579,1.0],"metallicFactor":0.0},"extensions":{"KHR_materials_specular":{"specularFactor":1.0,"specularColorFactor":[0.0,0.0,0.0]},"KHR_materials_ior":{"ior":1.0}}},{"name":"material_0_material","pbrMetallicRoughness":{"baseColorTexture":{"index":0},"metallicFactor":0.0},"extensions":{"KHR_materials_specular":{"specularFactor":1.0,"specularColorFactor":[0.0,0.0,0.0]},"KHR_materials_ior":{"ior":1.0}}},{"name":"material_1_material","pbrMetallicRoughness":{"baseColorTexture":{"index":1},"metallicFactor":0.0},"extensions":{"KHR_materials_specular":{"specularFactor":1.0,"specularColorFactor":[0.0,0.0,0.0]},"KHR_materials_ior":{"ior":1.0}}}],"meshes":[{"name":"defaultobject","primitives":[{"mode":4,"material":1,"indices":2,"attributes":{"POSITION":0,"TEXCOORD_0":1}},{"mode":4,"material":2,"indices":5,"attributes":{"POSITION":3,"TEXCOORD_0":4}}]}],"nodes":[{"name":"tile_0399.obj","children":[1]},{"name":"defaultobject","mesh":0}],"samplers":[{},{}],"scenes":[{"nodes":[0]}],"textures":[{"source":0,"sampler":0},{"source":1,"sampler":1}],"scene":0}
