{"asset":{"version":"2.0","generator":"Open Asset Import Library (assimp v6.0.0)"},"extensionsUsed":["KHR_materials_specular","KHR_materials_volume","KHR_materials_ior","FB_ngon_encoding"],"accessors":[{"bufferView":0,"byteOffset":0,"componentType":5126,"count":5109,"type":"VEC3","max":[-1.0667616128921509,5.2753705978393555,4.89106559753418],"min":[-1.3358103036880493,2.2250738585072014e-308,2.2250738585072014e-308]},{"bufferView":1,"byteOffset":0,"componentType":5126,"count":5109,"type":"VEC2","max":[0.9909100532531738,0.5936985015869141],"min":[2.2250738585072014e-308,2.2250738585072014e-308]},{"bufferView":2,"byteOffset":0,"componentType":5125,"count":23565,"type":"SCALAR","max":[5108],"min":[0]},{"bufferView":3,"byteOffset":0,"componentType":5126,"count":200,"type":"VEC3","max":[-1.0709011554718018,5.1815972328186035,4.799232482910156],"min":[-1.3307583332061768,2.2250738585072014e-308,2.2250738585072014e-308]},{"bufferView":4,"byteOffset":0,"componentType":5126,"count":200,"type":"VEC2","max":[0.6228981018066406,0.4778099060058594],"min":[2.2250738585072014e-308,2.2250738585072014e-308]},{"bufferView":5,"byteOffset":0,"componentType":5125,"count":870,"type":"SCALAR","max":[199],"min":[0]}],"buffers":[{"byteLength":203920,"uri":"tile_0554.bin"}],"bufferViews":[{"buffer":0,"byteOffset":0,"byteLength":61308,"target":34962},{"buffer":0,"byteOffset":61308,"byteLength":40872,"target":34962},{"buffer":0,"byteOffset":102180,"byteLength":94260,"target":34963},{"buffer":0,"byteOffset":196440,"byteLength":2400,"target":34962},{"buffer":0,"byteOffset":198840,"byteLength":1600,"target":34962},{"buffer":0,"byteOffset":200440,"byteLength":3480,"target":34963}],"images":[{"uri":"../textures/tile_0554_material_0.jpg"},{"uri":"../textures/tile_0554_material_1.jpg"}],"materials":[{"name":"DefaultMaterial","pbrMetallicRoughness":{"baseColorFactor":[0.6000000238418579,0.6000000238418579,0.6000000238418579,1.0],"metallicFactor":0.0},"extensions":{"KHR_materials_specular":{"specularFactor":1.0,"specularColorFactor":[0.0,0.0,0.0]},"KHR_materials_ior":{"ior":1.0}}},{"name":"material_0_material","pbrMetallicRoughness":{"baseColorTexture":{"index":0},"metallicFactor":0.0},"extensions":{"KHR_materials_specular":{"specularFactor":1.0,"specularColorFactor":[0.0,0.0,0.0]},"KHR_materials_ior":{"ior":1.0}}},{"name":"material_1_material","pbrMetallicRoughness":{"baseColorTexture":{"index":1},"metallicFactor":0.0},"extensions":{"KHR_materials_specular":{"specularFactor":1.0,"specularColorFactor":[0.0,0.0,0.0]},"KHR_materials_ior":{"ior":1.0}}}],"meshes":[{"name":"defaultobject","primitives":[{"mode":4,"material":1,"indices":2,"attributes":{"POSITION":0,"TEXCOORD_0":1}},{"mode":4,"material":2,"indices":5,"attributes":{"POSITION":3,"TEXCOORD_0":4}}]}],"nodes":[{"name":"tile_0554.obj","children":[1]},{"name":"defaultobject","mesh":0}],"samplers":[{},{}],"scenes":[{"nodes":[0]}],"textures":[{"source":0,"sampler":0},{"source":1,"sampler":1}],"scene":0}
