{"asset":{"version":"2.0","generator":"Open Asset Import Library (assimp v6.0.0)"},"extensionsUsed":["KHR_materials_specular","KHR_materials_volume","KHR_materials_ior","FB_ngon_encoding"],"accessors":[{"bufferView":0,"byteOffset":0,"componentType":5126,"count":4323,"type":"VEC3","max":[5.081180572509766,-0.5716948509216309,4.07310676574707],"min":[2.2250738585072014e-308,-0.7873541712760925,2.2250738585072014e-308]},{"bufferView":1,"byteOffset":0,"componentType":5126,"count":4323,"type":"VEC2","max":[0.9940758347511292,0.5494270324707031],"min":[2.2250738585072014e-308,2.2250738585072014e-308]},{"bufferView":2,"byteOffset":0,"componentType":5125,"count":18663,"type":"SCALAR","max":[4322],"min":[0]},{"bufferView":3,"byteOffset":0,"componentType":5126,"count":1039,"type":"VEC3","max":[5.081396102905273,-0.5729120373725891,4.023514747619629],"min":[2.2250738585072014e-308,-0.7852049469947815,2.2250738585072014e-308]},{"bufferView":4,"byteOffset":0,"componentType":5126,"count":1039,"type":"VEC2","max":[0.8011054992675781,0.8117637634277344],"min":[2.2250738585072014e-308,2.2250738585072014e-308]},{"bufferView":5,"byteOffset":0,"componentType":5125,"count":5055,"type":"SCALAR","max":[1038],"min":[0]}],"buffers":[{"byteLength":202112,"uri":"tile_0643.bin"}],"bufferViews":[{"buffer":0,"byteOffset":0,"byteLength":51876,"target":34962},{"buffer":0,"byteOffset":51876,"byteLength":34584,"target":34962},{"buffer":0,"byteOffset":86460,"byteLength":74652,"target":34963},{"buffer":0,"byteOffset":161112,"byteLength":12468,"target":34962},{"buffer":0,"byteOffset":173580,"byteLength":8312,"target":34962},{"buffer":0,"byteOffset":181892,"byteLength":20220,"target":34963}],"images":[{"uri":"../textures/tile_0643_material_0.jpg"},{"uri":"../textures/tile_0643_material_1.jpg"}],"materials":[{"name":"DefaultMaterial","pbrMetallicRoughness":{"baseColorFactor":[0.6000000238418579,0.6000000238418579,0.6000000238418579,1.0],"metallicFactor":0.0},"extensions":{"KHR_materials_specular":{"specularFactor":1.0,"specularColorFactor":[0.0,0.0,0.0]},"KHR_materials_ior":{"ior":1.0}}},{"name":"material_0_material","pbrMetallicRoughness":{"baseColorTexture":{"index":0},"metallicFactor":0.0},"extensions":{"KHR_materials_specular":{"specularFactor":1.0,"specularColorFactor":[0.0,0.0,0.0]},"KHR_materials_ior":{"ior":1.0}}},{"name":"material_1_material","pbrMetallicRoughness":{"baseColorTexture":{"index":1},"metallicFactor":0.0},"extensions":{"KHR_materials_specular":{"specularFactor":1.0,"specularColorFactor":[0.0,0.0,0.0]},"KHR_materials_ior":{"ior":1.0}}}],"meshes":[{"name":"defaultobject","primitives":[{"mode":4,"material":1,"indices":2,"attributes":{"POSITION":0,"TEXCOORD_0":1}},{"mode":4,"material":2,"indices":5,"attributes":{"POSITION":3,"TEXCOORD_0":4}}]}],"nodes":[{"name":"tile_0643.obj","children":[1]},{"name":"defaultobject","mesh":0}],"samplers":[{},{}],"scenes":[{"nodes":[0]}],"textures":[{"source":0,"sampler":0},{"source":1,"sampler":1}],"scene":0}
