{"asset":{"version":"2.0","generator":"Open Asset Import Library (assimp v6.0.0)"},"extensionsUsed":["KHR_materials_specular","KHR_materials_volume","KHR_materials_ior","FB_ngon_encoding"],"accessors":[{"bufferView":0,"byteOffset":0,"componentType":5126,"count":6151,"type":"VEC3","max":[0.8453599214553833,-2.6951401233673096,2.6887776851654053],"min":[2.2250738585072014e-308,-3.02986216545105,2.2250738585072014e-308]},{"bufferView":1,"byteOffset":0,"componentType":5126,"count":6151,"type":"VEC2","max":[0.9857792854309082,0.6674919128417969],"min":[2.2250738585072014e-308,2.2250738585072014e-308]},{"bufferView":2,"byteOffset":0,"componentType":5125,"count":26730,"type":"SCALAR","max":[6150],"min":[0]},{"bufferView":3,"byteOffset":0,"componentType":5126,"count":684,"type":"VEC3","max":[0.8086601495742798,-2.808013677597046,2.593189239501953],"min":[2.2250738585072014e-308,-3.0287680625915527,2.2250738585072014e-308]},{"bufferView":4,"byteOffset":0,"componentType":5126,"count":684,"type":"VEC2","max":[0.4963035583496094,0.876983642578125],"min":[2.2250738585072014e-308,2.2250738585072014e-308]},{"bufferView":5,"byteOffset":0,"componentType":5125,"count":3420,"type":"SCALAR","max":[683],"min":[0]}],"buffers":[{"byteLength":257300,"uri":"tile_0799.bin"}],"bufferViews":[{"buffer":0,"byteOffset":0,"byteLength":73812,"target":34962},{"buffer":0,"byteOffset":73812,"byteLength":49208,"target":34962},{"buffer":0,"byteOffset":123020,"byteLength":106920,"target":34963},{"buffer":0,"byteOffset":229940,"byteLength":8208,"target":34962},{"buffer":0,"byteOffset":238148,"byteLength":5472,"target":34962},{"buffer":0,"byteOffset":243620,"byteLength":13680,"target":34963}],"images":[{"uri":"../textures/tile_0799_material_0.jpg"},{"uri":"../textures/tile_0799_material_1.jpg"}],"materials":[{"name":"DefaultMaterial","pbrMetallicRoughness":{"baseColorFactor":[0.6000000238418579,0.6000000238418579,0.6000000238418579,1.0],"metallicFactor":0.0},"extensions":{"KHR_materials_specular":{"specularFactor":1.0,"specularColorFactor":[0.0,0.0,0.0]},"KHR_materials_ior":{"ior":1.0}}},{"name":"material_0_material","pbrMetallicRoughness":{"baseColorTexture":{"index":0},"metallicFactor":0.0},"extensions":{"KHR_materials_specular":{"specularFactor":1.0,"specularColorFactor":[0.0,0.0,0.0]},"KHR_materials_ior":{"ior":1.0}}},{"name":"material_1_material","pbrMetallicRoughness":{"baseColorTexture":{"index":1},"metallicFactor":0.0},"extensions":{"KHR_materials_specular":{"specularFactor":1.0,"specularColorFactor":[0.0,0.0,0.0]},"KHR_materials_ior":{"ior":1.0}}}],"meshes":[{"name":"defaultobject","primitives":[{"mode":4,"material":1,"indices":2,"attributes":{"POSITION":0,"TEXCOORD_0":1}},{"mode":4,"material":2,"indices":5,"attributes":{"POSITION":3,"TEXCOORD_0":4}}]}],"nodes":[{"name":"tile_0799.obj","children":[1]},{"name":"defaultobject","mesh":0}],"samplers":[{},{}],"scenes":[{"nodes":[0]}],"textures":[{"source":0,"sampler":0},{"source":1,"sampler":1}],"scene":0}
