{"asset":{"version":"2.0","generator":"Open Asset Import Library (assimp v6.0.0)"},"extensionsUsed":["KHR_materials_specular","KHR_materials_volume","KHR_materials_ior","FB_ngon_encoding"],"accessors":[{"bufferView":0,"byteOffset":0,"componentType":5126,"count":6342,"type":"VEC3","max":[4.047287464141846,-1.4444481134414673,3.911721706390381],"min":[2.2250738585072014e-308,-1.6884970664978027,2.2250738585072014e-308]},{"bufferView":1,"byteOffset":0,"componentType":5126,"count":6342,"type":"VEC2","max":[0.9916114807128906,0.5781097412109375],"min":[2.2250738585072014e-308,2.2250738585072014e-308]},{"bufferView":2,"byteOffset":0,"componentType":5125,"count":26994,"type":"SCALAR","max":[6341],"min":[0]},{"bufferView":3,"byteOffset":0,"componentType":5126,"count":1321,"type":"VEC3","max":[4.045993328094482,-1.444636583328247,3.914172887802124],"min":[2.2250738585072014e-308,-1.6857352256774902,2.2250738585072014e-308]},{"bufferView":4,"byteOffset":0,"componentType":5126,"count":1321,"type":"VEC2","max":[0.76361083984375,0.5685081481933594],"min":[2.2250738585072014e-308,2.2250738585072014e-308]},{"bufferView":5,"byteOffset":0,"componentType":5125,"count":6435,"type":"SCALAR","max":[1320],"min":[0]}],"buffers":[{"byteLength":286976,"uri":"tile_0243.bin"}],"bufferViews":[{"buffer":0,"byteOffset":0,"byteLength":76104,"target":34962},{"buffer":0,"byteOffset":76104,"byteLength":50736,"target":34962},{"buffer":0,"byteOffset":126840,"byteLength":107976,"target":34963},{"buffer":0,"byteOffset":234816,"byteLength":15852,"target":34962},{"buffer":0,"byteOffset":250668,"byteLength":10568,"target":34962},{"buffer":0,"byteOffset":261236,"byteLength":25740,"target":34963}],"images":[{"uri":"../textures/tile_0243_material_0.jpg"},{"uri":"../textures/tile_0243_material_1.jpg"}],"materials":[{"name":"DefaultMaterial","pbrMetallicRoughness":{"baseColorFactor":[0.6000000238418579,0.6000000238418579,0.6000000238418579,1.0],"metallicFactor":0.0},"extensions":{"KHR_materials_specular":{"specularFactor":1.0,"specularColorFactor":[0.0,0.0,0.0]},"KHR_materials_ior":{"ior":1.0}}},{"name":"material_0_material","pbrMetallicRoughness":{"baseColorTexture":{"index":0},"metallicFactor":0.0},"extensions":{"KHR_materials_specular":{"specularFactor":1.0,"specularColorFactor":[0.0,0.0,0.0]},"KHR_materials_ior":{"ior":1.0}}},{"name":"material_1_material","pbrMetallicRoughness":{"baseColorTexture":{"index":1},"metallicFactor":0.0},"extensions":{"KHR_materials_specular":{"specularFactor":1.0,"specularColorFactor":[0.0,0.0,0.0]},"KHR_materials_ior":{"ior":1.0}}}],"meshes":[{"name":"defaultobject","primitives":[{"mode":4,"material":1,"indices":2,"attributes":{"POSITION":0,"TEXCOORD_0":1}},{"mode":4,"material":2,"indices":5,"attributes":{"POSITION":3,"TEXCOORD_0":4}}]}],"nodes":[{"name":"tile_0243.obj","children":[1]},{"name":"defaultobject","mesh":0}],"samplers":[{},{}],"scenes":[{"nodes":[0]}],"textures":[{"source":0,"sampler":0},{"source":1,"sampler":1}],"scene":0}
