{"asset":{"version":"2.0","generator":"Open Asset Import Library (assimp v6.0.0)"},"extensionsUsed":["KHR_materials_specular","KHR_materials_volume","KHR_materials_ior","FB_ngon_encoding"],"accessors":[{"bufferView":0,"byteOffset":0,"componentType":5126,"count":3626,"type":"VEC3","max":[-1.8465200662612915,-0.5438039898872375,2.576775312423706],"min":[-2.1084187030792236,-0.781689465045929,2.2250738585072014e-308]},{"bufferView":1,"byteOffset":0,"componentType":5126,"count":3626,"type":"VEC2","max":[0.9844236373901367,0.9545631408691406],"min":[2.2250738585072014e-308,2.2250738585072014e-308]},{"bufferView":2,"byteOffset":0,"componentType":5125,"count":17457,"type":"SCALAR","max":[3625],"min":[0]},{"bufferView":3,"byteOffset":0,"componentType":5126,"count":1700,"type":"VEC3","max":[-1.8431529998779297,-0.5449618101119995,2.578782558441162],"min":[-2.1083192825317383,-0.7808690667152405,2.2250738585072014e-308]},{"bufferView":4,"byteOffset":0,"componentType":5126,"count":1700,"type":"VEC2","max":[0.9122104644775391,0.5861091613769531],"min":[2.2250738585072014e-308,2.2250738585072014e-308]},{"bufferView":5,"byteOffset":0,"componentType":5125,"count":8853,"type":"SCALAR","max":[1699],"min":[0]}],"buffers":[{"byteLength":211760,"uri":"tile_0372.bin"}],"bufferViews":[{"buffer":0,"byteOffset":0,"byteLength":43512,"target":34962},{"buffer":0,"byteOffset":43512,"byteLength":29008,"target":34962},{"buffer":0,"byteOffset":72520,"byteLength":69828,"target":34963},{"buffer":0,"byteOffset":142348,"byteLength":20400,"target":34962},{"buffer":0,"byteOffset":162748,"byteLength":13600,"target":34962},{"buffer":0,"byteOffset":176348,"byteLength":35412,"target":34963}],"images":[{"uri":"../textures/tile_0372_material_0.jpg"},{"uri":"../textures/tile_0372_material_1.jpg"}],"materials":[{"name":"DefaultMaterial","pbrMetallicRoughness":{"baseColorFactor":[0.6000000238418579,0.6000000238418579,0.6000000238418579,1.0],"metallicFactor":0.0},"extensions":{"KHR_materials_specular":{"specularFactor":1.0,"specularColorFactor":[0.0,0.0,0.0]},"KHR_materials_ior":{"ior":1.0}}},{"name":"material_0_material","pbrMetallicRoughness":{"baseColorTexture":{"index":0},"metallicFactor":0.0},"extensions":{"KHR_materials_specular":{"specularFactor":1.0,"specularColorFactor":[0.0,0.0,0.0]},"KHR_materials_ior":{"ior":1.0}}},{"name":"material_1_material","pbrMetallicRoughness":{"baseColorTexture":{"index":1},"metallicFactor":0.0},"extensions":{"KHR_materials_specular":{"specularFactor":1.0,"specularColorFactor":[0.0,0.0,0.0]},"KHR_materials_ior":{"ior":1.0}}}],"meshes":[{"name":"defaultobject","primitives":[{"mode":4,"material":1,"indices":2,"attributes":{"POSITION":0,"TEXCOORD_0":1}},{"mode":4,"material":2,"indices":5,"attributes":{"POSITION":3,"TEXCOORD_0":4}}]}],"nodes":[{"name":"tile_0372.obj","children":[1]},{"name":"defaultobject","mesh":0}],"samplers":[{},{}],"scenes":[{"nodes":[0]}],"textures":[{"source":0,"sampler":0},{"source":1,"sampler":1}],"scene":0}
