{"asset":{"version":"2.0","generator":"Open Asset Import Library (assimp v6.0.0)"},"extensionsUsed":["KHR_materials_specular","KHR_materials_volume","KHR_materials_ior","FB_ngon_encoding"],"accessors":[{"bufferView":0,"byteOffset":0,"componentType":5126,"count":13728,"type":"VEC3","max":[-1.642297625541687,5.401312351226807,4.9866108894348145],"min":[-2.183995246887207,2.2250738585072014e-308,2.2250738585072014e-308]},{"bufferView":1,"byteOffset":0,"componentType":5126,"count":13728,"type":"VEC2","max":[0.9948611259460449,0.7752761840820312],"min":[2.2250738585072014e-308,2.2250738585072014e-308]},{"bufferView":2,"byteOffset":0,"componentType":5125,"count":63390,"type":"SCALAR","max":[13727],"min":[0]},{"bufferView":3,"byteOffset":0,"componentType":5126,"count":1706,"type":"VEC3","max":[-1.642297625541687,5.393213272094727,4.979987144470215],"min":[-2.183995246887207,2.2250738585072014e-308,2.2250738585072014e-308]},{"bufferView":4,"byteOffset":0,"componentType":5126,"count":1706,"type":"VEC2","max":[0.6965122222900391,0.538909912109375],"min":[2.2250738585072014e-308,2.2250738585072014e-308]},{"bufferView":5,"byteOffset":0,"componentType":5125,"count":8859,"type":"SCALAR","max":[1705],"min":[0]}],"buffers":[{"byteLength":597676,"uri":"tile_0543.bin"}],"bufferViews":[{"buffer":0,"byteOffset":0,"byteLength":164736,"target":34962},{"buffer":0,"byteOffset":164736,"byteLength":109824,"target":34962},{"buffer":0,"byteOffset":274560,"byteLength":253560,"target":34963},{"buffer":0,"byteOffset":528120,"byteLength":20472,"target":34962},{"buffer":0,"byteOffset":548592,"byteLength":13648,"target":34962},{"buffer":0,"byteOffset":562240,"byteLength":35436,"target":34963}],"images":[{"uri":"../textures/tile_0543_material_0.jpg"},{"uri":"../textures/tile_0543_material_1.jpg"}],"materials":[{"name":"DefaultMaterial","pbrMetallicRoughness":{"baseColorFactor":[0.6000000238418579,0.6000000238418579,0.6000000238418579,1.0],"metallicFactor":0.0},"extensions":{"KHR_materials_specular":{"specularFactor":1.0,"specularColorFactor":[0.0,0.0,0.0]},"KHR_materials_ior":{"ior":1.0}}},{"name":"material_0_material","pbrMetallicRoughness":{"baseColorTexture":{"index":0},"metallicFactor":0.0},"extensions":{"KHR_materials_specular":{"specularFactor":1.0,"specularColorFactor":[0.0,0.0,0.0]},"KHR_materials_ior":{"ior":1.0}}},{"name":"material_1_material","pbrMetallicRoughness":{"baseColorTexture":{"index":1},"metallicFactor":0.0},"extensions":{"KHR_materials_specular":{"specularFactor":1.0,"specularColorFactor":[0.0,0.0,0.0]},"KHR_materials_ior":{"ior":1.0}}}],"meshes":[{"name":"defaultobject","primitives":[{"mode":4,"material":1,"indices":2,"attributes":{"POSITION":0,"TEXCOORD_0":1}},{"mode":4,"material":2,"indices":5,"attributes":{"POSITION":3,"TEXCOORD_0":4}}]}],"nodes":[{"name":"tile_0543.obj","children":[1]},{"name":"defaultobject","mesh":0}],"samplers":[{},{}],"scenes":[{"nodes":[0]}],"textures":[{"source":0,"sampler":0},{"source":1,"sampler":1}],"scene":0}
