{"asset":{"version":"2.0","generator":"Open Asset Import Library (assimp v6.0.0)"},"extensionsUsed":["KHR_materials_specular","KHR_materials_volume","KHR_materials_ior","FB_ngon_encoding"],"accessors":[{"bufferView":0,"byteOffset":0,"componentType":5126,"count":3438,"type":"VEC3","max":[-1.2455185651779175,-4.838995456695557,2.299583911895752],"min":[-1.3872146606445312,-5.26854944229126,2.2250738585072014e-308]},{"bufferView":1,"byteOffset":0,"componentType":5126,"count":3438,"type":"VEC2","max":[0.9942269325256348,0.8045463562011719],"min":[2.2250738585072014e-308,2.2250738585072014e-308]},{"bufferView":2,"byteOffset":0,"componentType":5125,"count":15399,"type":"SCALAR","max":[3437],"min":[0]},{"bufferView":3,"byteOffset":0,"componentType":5126,"count":1808,"type":"VEC3","max":[-1.2534656524658203,-4.844964027404785,2.1560003757476807],"min":[-1.390249490737915,-5.2634053230285645,2.2250738585072014e-308]},{"bufferView":4,"byteOffset":0,"componentType":5126,"count":1808,"type":"VEC2","max":[0.9238250255584717,0.9537582397460938],"min":[2.2250738585072014e-308,2.2250738585072014e-308]},{"bufferView":5,"byteOffset":0,"componentType":5125,"count":9060,"type":"SCALAR","max":[1807],"min":[0]}],"buffers":[{"byteLength":202756,"uri":"tile_0300.bin"}],"bufferViews":[{"buffer":0,"byteOffset":0,"byteLength":41256,"target":34962},{"buffer":0,"byteOffset":41256,"byteLength":27504,"target":34962},{"buffer":0,"byteOffset":68760,"byteLength":61596,"target":34963},{"buffer":0,"byteOffset":130356,"byteLength":21696,"target":34962},{"buffer":0,"byteOffset":152052,"byteLength":14464,"target":34962},{"buffer":0,"byteOffset":166516,"byteLength":36240,"target":34963}],"images":[{"uri":"../textures/tile_0300_material_0.jpg"},{"uri":"../textures/tile_0300_material_1.jpg"}],"materials":[{"name":"DefaultMaterial","pbrMetallicRoughness":{"baseColorFactor":[0.6000000238418579,0.6000000238418579,0.6000000238418579,1.0],"metallicFactor":0.0},"extensions":{"KHR_materials_specular":{"specularFactor":1.0,"specularColorFactor":[0.0,0.0,0.0]},"KHR_materials_ior":{"ior":1.0}}},{"name":"material_0_material","pbrMetallicRoughness":{"baseColorTexture":{"index":0},"metallicFactor":0.0},"extensions":{"KHR_materials_specular":{"specularFactor":1.0,"specularColorFactor":[0.0,0.0,0.0]},"KHR_materials_ior":{"ior":1.0}}},{"name":"material_1_material","pbrMetallicRoughness":{"baseColorTexture":{"index":1},"metallicFactor":0.0},"extensions":{"KHR_materials_specular":{"specularFactor":1.0,"specularColorFactor":[0.0,0.0,0.0]},"KHR_materials_ior":{"ior":1.0}}}],"meshes":[{"name":"defaultobject","primitives":[{"mode":4,"material":1,"indices":2,"attributes":{"POSITION":0,"TEXCOORD_0":1}},{"mode":4,"material":2,"indices":5,"attributes":{"POSITION":3,"TEXCOORD_0":4}}]}],"nodes":[{"name":"tile_0300.obj","children":[1]},{"name":"defaultobject","mesh":0}],"samplers":[{},{}],"scenes":[{"nodes":[0]}],"textures":[{"source":0,"sampler":0},{"source":1,"sampler":1}],"scene":0}
