{"asset":{"version":"2.0","generator":"Open Asset Import Library (assimp v6.0.0)"},"extensionsUsed":["KHR_materials_specular","KHR_materials_volume","KHR_materials_ior","FB_ngon_encoding"],"accessors":[{"bufferView":0,"byteOffset":0,"componentType":5126,"count":2668,"type":"VEC3","max":[0.21203301846981049,7.355072498321533,5.054629802703857],"min":[-0.17995968461036682,2.2250738585072014e-308,2.2250738585072014e-308]},{"bufferView":1,"byteOffset":0,"componentType":5126,"count":2668,"type":"VEC2","max":[0.9950251579284668,0.6163253784179688],"min":[2.2250738585072014e-308,2.2250738585072014e-308]},{"bufferView":2,"byteOffset":0,"componentType":5125,"count":12450,"type":"SCALAR","max":[2667],"min":[0]},{"bufferView":3,"byteOffset":0,"componentType":5126,"count":2158,"type":"VEC3","max":[0.17376172542572021,7.321135997772217,5.046208381652832],"min":[-0.17995968461036682,2.2250738585072014e-308,2.2250738585072014e-308]},{"bufferView":4,"byteOffset":0,"componentType":5126,"count":2158,"type":"VEC2","max":[0.6826672554016113,0.7901973724365234],"min":[2.2250738585072014e-308,2.2250738585072014e-308]},{"bufferView":5,"byteOffset":0,"componentType":5125,"count":11406,"type":"SCALAR","max":[2157],"min":[0]}],"buffers":[{"byteLength":191944,"uri":"tile_0695.bin"}],"bufferViews":[{"buffer":0,"byteOffset":0,"byteLength":32016,"target":34962},{"buffer":0,"byteOffset":32016,"byteLength":21344,"target":34962},{"buffer":0,"byteOffset":53360,"byteLength":49800,"target":34963},{"buffer":0,"byteOffset":103160,"byteLength":25896,"target":34962},{"buffer":0,"byteOffset":129056,"byteLength":17264,"target":34962},{"buffer":0,"byteOffset":146320,"byteLength":45624,"target":34963}],"images":[{"uri":"../textures/tile_0695_material_0.jpg"},{"uri":"../textures/tile_0695_material_1.jpg"}],"materials":[{"name":"DefaultMaterial","pbrMetallicRoughness":{"baseColorFactor":[0.6000000238418579,0.6000000238418579,0.6000000238418579,1.0],"metallicFactor":0.0},"extensions":{"KHR_materials_specular":{"specularFactor":1.0,"specularColorFactor":[0.0,0.0,0.0]},"KHR_materials_ior":{"ior":1.0}}},{"name":"material_0_material","pbrMetallicRoughness":{"baseColorTexture":{"index":0},"metallicFactor":0.0},"extensions":{"KHR_materials_specular":{"specularFactor":1.0,"specularColorFactor":[0.0,0.0,0.0]},"KHR_materials_ior":{"ior":1.0}}},{"name":"material_1_material","pbrMetallicRoughness":{"baseColorTexture":{"index":1},"metallicFactor":0.0},"extensions":{"KHR_materials_specular":{"specularFactor":1.0,"specularColorFactor":[0.0,0.0,0.0]},"KHR_materials_ior":{"ior":1.0}}}],"meshes":[{"name":"defaultobject","primitives":[{"mode":4,"material":1,"indices":2,"attributes":{"POSITION":0,"TEXCOORD_0":1}},{"mode":4,"material":2,"indices":5,"attributes":{"POSITION":3,"TEXCOORD_0":4}}]}],"nodes":[{"name":"tile_0695.obj","children":[1]},{"name":"defaultobject","mesh":0}],"samplers":[{},{}],"scenes":[{"nodes":[0]}],"textures":[{"source":0,"sampler":0},{"source":1,"sampler":1}],"scene":0}
