{"asset":{"version":"2.0","generator":"Open Asset Import Library (assimp v6.0.0)"},"extensionsUsed":["KHR_materials_specular","KHR_materials_volume","KHR_materials_ior","FB_ngon_encoding"],"accessors":[{"bufferView":0,"byteOffset":0,"componentType":5126,"count":4370,"type":"VEC3","max":[-3.509132146835327,1.3410918712615967,4.042596340179443],"min":[-3.9148447513580322,2.2250738585072014e-308,2.2250738585072014e-308]},{"bufferView":1,"byteOffset":0,"componentType":5126,"count":4370,"type":"VEC2","max":[0.9927396774291992,0.5065479278564453],"min":[2.2250738585072014e-308,2.2250738585072014e-308]},{"bufferView":2,"byteOffset":0,"componentType":5125,"count":18834,"type":"SCALAR","max":[4369],"min":[0]},{"bufferView":3,"byteOffset":0,"componentType":5126,"count":676,"type":"VEC3","max":[-3.6717560291290283,1.3397122621536255,4.01957893371582],"min":[-3.9117438793182373,2.2250738585072014e-308,2.2250738585072014e-308]},{"bufferView":4,"byteOffset":0,"componentType":5126,"count":676,"type":"VEC2","max":[0.5704889297485352,0.9459227919578552],"min":[2.2250738585072014e-308,2.2250738585072014e-308]},{"bufferView":5,"byteOffset":0,"componentType":5125,"count":3279,"type":"SCALAR","max":[675],"min":[0]}],"buffers":[{"byteLength":189372,"uri":"tile_0123.bin"}],"bufferViews":[{"buffer":0,"byteOffset":0,"byteLength":52440,"target":34962},{"buffer":0,"byteOffset":52440,"byteLength":34960,"target":34962},{"buffer":0,"byteOffset":87400,"byteLength":75336,"target":34963},{"buffer":0,"byteOffset":162736,"byteLength":8112,"target":34962},{"buffer":0,"byteOffset":170848,"byteLength":5408,"target":34962},{"buffer":0,"byteOffset":176256,"byteLength":13116,"target":34963}],"images":[{"uri":"../textures/tile_0123_material_0.jpg"},{"uri":"../textures/tile_0123_material_1.jpg"}],"materials":[{"name":"DefaultMaterial","pbrMetallicRoughness":{"baseColorFactor":[0.6000000238418579,0.6000000238418579,0.6000000238418579,1.0],"metallicFactor":0.0},"extensions":{"KHR_materials_specular":{"specularFactor":1.0,"specularColorFactor":[0.0,0.0,0.0]},"KHR_materials_ior":{"ior":1.0}}},{"name":"material_0_material","pbrMetallicRoughness":{"baseColorTexture":{"index":0},"metallicFactor":0.0},"extensions":{"KHR_materials_specular":{"specularFactor":1.0,"specularColorFactor":[0.0,0.0,0.0]},"KHR_materials_ior":{"ior":1.0}}},{"name":"material_1_material","pbrMetallicRoughness":{"baseColorTexture":{"index":1},"metallicFactor":0.0},"extensions":{"KHR_materials_specular":{"specularFactor":1.0,"specularColorFactor":[0.0,0.0,0.0]},"KHR_materials_ior":{"ior":1.0}}}],"meshes":[{"name":"defaultobject","primitives":[{"mode":4,"material":1,"indices":2,"attributes":{"POSITION":0,"TEXCOORD_0":1}},{"mode":4,"material":2,"indices":5,"attributes":{"POSITION":3,"TEXCOORD_0":4}}]}],"nodes":[{"name":"tile_0123.obj","children":[1]},{"name":"defaultobject","mesh":0}],"samplers":[{},{}],"scenes":[{"nodes":[0]}],"textures":[{"source":0,"sampler":0},{"source":1,"sampler":1}],"scene":0}
