{"asset":{"version":"2.0","generator":"Open Asset Import Library (assimp v6.0.0)"},"extensionsUsed":["KHR_materials_specular","KHR_materials_volume","KHR_materials_ior","FB_ngon_encoding"],"accessors":[{"bufferView":0,"byteOffset":0,"componentType":5126,"count":2630,"type":"VEC3","max":[4.09952449798584,1.677465796470642,3.962843418121338],"min":[2.2250738585072014e-308,2.2250738585072014e-308,2.2250738585072014e-308]},{"bufferView":1,"byteOffset":0,"componentType":5126,"count":2630,"type":"VEC2","max":[0.9821083545684814,0.7108612060546875],"min":[2.2250738585072014e-308,2.2250738585072014e-308]},{"bufferView":2,"byteOffset":0,"componentType":5125,"count":11505,"type":"SCALAR","max":[2629],"min":[0]},{"bufferView":3,"byteOffset":0,"componentType":5126,"count":1821,"type":"VEC3","max":[4.098984718322754,1.6785215139389038,3.9096930027008057],"min":[2.2250738585072014e-308,2.2250738585072014e-308,2.2250738585072014e-308]},{"bufferView":4,"byteOffset":0,"componentType":5126,"count":1821,"type":"VEC2","max":[0.8065328598022461,0.8557357788085938],"min":[2.2250738585072014e-308,2.2250738585072014e-308]},{"bufferView":5,"byteOffset":0,"componentType":5125,"count":9372,"type":"SCALAR","max":[1820],"min":[0]}],"buffers":[{"byteLength":172528,"uri":"tile_0656.bin"}],"bufferViews":[{"buffer":0,"byteOffset":0,"byteLength":31560,"target":34962},{"buffer":0,"byteOffset":31560,"byteLength":21040,"target":34962},{"buffer":0,"byteOffset":52600,"byteLength":46020,"target":34963},{"buffer":0,"byteOffset":98620,"byteLength":21852,"target":34962},{"buffer":0,"byteOffset":120472,"byteLength":14568,"target":34962},{"buffer":0,"byteOffset":135040,"byteLength":37488,"target":34963}],"images":[{"uri":"../textures/tile_0656_material_0.jpg"},{"uri":"../textures/tile_0656_material_1.jpg"}],"materials":[{"name":"DefaultMaterial","pbrMetallicRoughness":{"baseColorFactor":[0.6000000238418579,0.6000000238418579,0.6000000238418579,1.0],"metallicFactor":0.0},"extensions":{"KHR_materials_specular":{"specularFactor":1.0,"specularColorFactor":[0.0,0.0,0.0]},"KHR_materials_ior":{"ior":1.0}}},{"name":"material_0_material","pbrMetallicRoughness":{"baseColorTexture":{"index":0},"metallicFactor":0.0},"extensions":{"KHR_materials_specular":{"specularFactor":1.0,"specularColorFactor":[0.0,0.0,0.0]},"KHR_materials_ior":{"ior":1.0}}},{"name":"material_1_material","pbrMetallicRoughness":{"baseColorTexture":{"index":1},"metallicFactor":0.0},"extensions":{"KHR_materials_specular":{"specularFactor":1.0,"specularColorFactor":[0.0,0.0,0.0]},"KHR_materials_ior":{"ior":1.0}}}],"meshes":[{"name":"defaultobject","primitives":[{"mode":4,"material":1,"indices":2,"attributes":{"POSITION":0,"TEXCOORD_0":1}},{"mode":4,"material":2,"indices":5,"attributes":{"POSITION":3,"TEXCOORD_0":4}}]}],"nodes":[{"name":"tile_0656.obj","children":[1]},{"name":"defaultobject","mesh":0}],"samplers":[{},{}],"scenes":[{"nodes":[0]}],"textures":[{"source":0,"sampler":0},{"source":1,"sampler":1}],"scene":0}
