{"asset":{"version":"2.0","generator":"Open Asset Import Library (assimp v6.0.0)"},"extensionsUsed":["KHR_materials_specular","KHR_materials_volume","KHR_materials_ior","FB_ngon_encoding"],"accessors":[{"bufferView":0,"byteOffset":0,"componentType":5126,"count":2021,"type":"VEC3","max":[-4.287972450256348,4.8593645095825195,5.061713218688965],"min":[-4.726936340332031,2.2250738585072014e-308,2.2250738585072014e-308]},{"bufferView":1,"byteOffset":0,"componentType":5126,"count":2021,"type":"VEC2","max":[0.9949131608009338,0.7978515625],"min":[2.2250738585072014e-308,2.2250738585072014e-308]},{"bufferView":2,"byteOffset":0,"componentType":5125,"count":8979,"type":"SCALAR","max":[2020],"min":[0]},{"bufferView":3,"byteOffset":0,"componentType":5126,"count":2913,"type":"VEC3","max":[-4.285003662109375,4.860606670379639,4.996185779571533],"min":[-4.7266035079956055,2.2250738585072014e-308,2.2250738585072014e-308]},{"bufferView":4,"byteOffset":0,"componentType":5126,"count":2913,"type":"VEC2","max":[0.5492514371871948,0.6186094284057617],"min":[2.2250738585072014e-308,2.2250738585072014e-308]},{"bufferView":5,"byteOffset":0,"componentType":5125,"count":15846,"type":"SCALAR","max":[2912],"min":[0]}],"buffers":[{"byteLength":197980,"uri":"tile_0529.bin"}],"bufferViews":[{"buffer":0,"byteOffset":0,"byteLength":24252,"target":34962},{"buffer":0,"byteOffset":24252,"byteLength":16168,"target":34962},{"buffer":0,"byteOffset":40420,"byteLength":35916,"target":34963},{"buffer":0,"byteOffset":76336,"byteLength":34956,"target":34962},{"buffer":0,"byteOffset":111292,"byteLength":23304,"target":34962},{"buffer":0,"byteOffset":134596,"byteLength":63384,"target":34963}],"images":[{"uri":"../textures/tile_0529_material_0.jpg"},{"uri":"../textures/tile_0529_material_1.jpg"}],"materials":[{"name":"DefaultMaterial","pbrMetallicRoughness":{"baseColorFactor":[0.6000000238418579,0.6000000238418579,0.6000000238418579,1.0],"metallicFactor":0.0},"extensions":{"KHR_materials_specular":{"specularFactor":1.0,"specularColorFactor":[0.0,0.0,0.0]},"KHR_materials_ior":{"ior":1.0}}},{"name":"material_0_material","pbrMetallicRoughness":{"baseColorTexture":{"index":0},"metallicFactor":0.0},"extensions":{"KHR_materials_specular":{"specularFactor":1.0,"specularColorFactor":[0.0,0.0,0.0]},"KHR_materials_ior":{"ior":1.0}}},{"name":"material_1_material","pbrMetallicRoughness":{"baseColorTexture":{"index":1},"metallicFactor":0.0},"extensions":{"KHR_materials_specular":{"specularFactor":1.0,"specularColorFactor":[0.0,0.0,0.0]},"KHR_materials_ior":{"ior":1.0}}}],"meshes":[{"name":"defaultobject","primitives":[{"mode":4,"material":1,"indices":2,"attributes":{"POSITION":0,"TEXCOORD_0":1}},{"mode":4,"material":2,"indices":5,"attributes":{"POSITION":3,"TEXCOORD_0":4}}]}],"nodes":[{"name":"tile_0529.obj","children":[1]},{"name":"defaultobject","mesh":0}],"samplers":[{},{}],"scenes":[{"nodes":[0]}],"textures":[{"source":0,"sampler":0},{"source":1,"sampler":1}],"scene":0}
