{"asset":{"version":"2.0","generator":"Open Asset Import Library (assimp v6.0.0)"},"extensionsUsed":["KHR_materials_specular","KHR_materials_volume","KHR_materials_ior","FB_ngon_encoding"],"accessors":[{"bufferView":0,"byteOffset":0,"componentType":5126,"count":5872,"type":"VEC3","max":[-2.4795708656311035,1.2224634885787964,4.171274185180664],"min":[-2.8058817386627197,2.2250738585072014e-308,2.2250738585072014e-308]},{"bufferView":1,"byteOffset":0,"componentType":5126,"count":5872,"type":"VEC2","max":[0.9902725219726562,0.6366424560546875],"min":[2.2250738585072014e-308,2.2250738585072014e-308]},{"bufferView":2,"byteOffset":0,"componentType":5125,"count":25809,"type":"SCALAR","max":[5871],"min":[0]},{"bufferView":3,"byteOffset":0,"componentType":5126,"count":256,"type":"VEC3","max":[-2.7150955200195312,0.9239593744277954,4.128255844116211],"min":[-2.799532890319824,2.2250738585072014e-308,2.2250738585072014e-308]},{"bufferView":4,"byteOffset":0,"componentType":5126,"count":256,"type":"VEC2","max":[0.5336875915527344,0.4799957275390625],"min":[2.2250738585072014e-308,2.2250738585072014e-308]},{"bufferView":5,"byteOffset":0,"componentType":5125,"count":1299,"type":"SCALAR","max":[255],"min":[0]}],"buffers":[{"byteLength":230992,"uri":"tile_0002.bin"}],"bufferViews":[{"buffer":0,"byteOffset":0,"byteLength":70464,"target":34962},{"buffer":0,"byteOffset":70464,"byteLength":46976,"target":34962},{"buffer":0,"byteOffset":117440,"byteLength":103236,"target":34963},{"buffer":0,"byteOffset":220676,"byteLength":3072,"target":34962},{"buffer":0,"byteOffset":223748,"byteLength":2048,"target":34962},{"buffer":0,"byteOffset":225796,"byteLength":5196,"target":34963}],"images":[{"uri":"../textures/tile_0002_material_0.jpg"},{"uri":"../textures/tile_0002_material_1.jpg"}],"materials":[{"name":"DefaultMaterial","pbrMetallicRoughness":{"baseColorFactor":[0.6000000238418579,0.6000000238418579,0.6000000238418579,1.0],"metallicFactor":0.0},"extensions":{"KHR_materials_specular":{"specularFactor":1.0,"specularColorFactor":[0.0,0.0,0.0]},"KHR_materials_ior":{"ior":1.0}}},{"name":"material_0_material","pbrMetallicRoughness":{"baseColorTexture":{"index":0},"metallicFactor":0.0},"extensions":{"KHR_materials_specular":{"specularFactor":1.0,"specularColorFactor":[0.0,0.0,0.0]},"KHR_materials_ior":{"ior":1.0}}},{"name":"material_1_material","pbrMetallicRoughness":{"baseColorTexture":{"index":1},"metallicFactor":0.0},"extensions":{"KHR_materials_specular":{"specularFactor":1.0,"specularColorFactor":[0.0,0.0,0.0]},"KHR_materials_ior":{"ior":1.0}}}],"meshes":[{"name":"defaultobject","primitives":[{"mode":4,"material":1,"indices":2,"attributes":{"POSITION":0,"TEXCOORD_0":1}},{"mode":4,"material":2,"indices":5,"attributes":{"POSITION":3,"TEXCOORD_0":4}}]}],"nodes":[{"name":"tile_0002.obj","children":[1]},{"name":"defaultobject","mesh":0}],"samplers":[{},{}],"scenes":[{"nodes":[0]}],"textures":[{"source":0,"sampler":0},{"source":1,"sampler":1}],"scene":0}
