{"asset":{"version":"2.0","generator":"Open Asset Import Library (assimp v6.0.0)"},"extensionsUsed":["KHR_materials_specular","KHR_materials_volume","KHR_materials_ior","FB_ngon_encoding"],"accessors":[{"bufferView":0,"byteOffset":0,"componentType":5126,"count":3915,"type":"VEC3","max":[4.321047306060791,-0.3162963092327118,3.97594952583313],"min":[2.2250738585072014e-308,-0.5492614507675171,2.2250738585072014e-308]},{"bufferView":1,"byteOffset":0,"componentType":5126,"count":3915,"type":"VEC2","max":[0.9950962066650391,0.9584312438964844],"min":[2.2250738585072014e-308,2.2250738585072014e-308]},{"bufferView":2,"byteOffset":0,"componentType":5125,"count":16317,"type":"SCALAR","max":[3914],"min":[0]},{"bufferView":3,"byteOffset":0,"componentType":5126,"count":281,"type":"VEC3","max":[4.319579124450684,-0.32058972120285034,3.973907709121704],"min":[2.2250738585072014e-308,-0.5223450064659119,2.2250738585072014e-308]},{"bufferView":4,"byteOffset":0,"componentType":5126,"count":281,"type":"VEC2","max":[0.5174846649169922,0.8761444091796875],"min":[2.2250738585072014e-308,2.2250738585072014e-308]},{"bufferView":5,"byteOffset":0,"componentType":5125,"count":1320,"type":"SCALAR","max":[280],"min":[0]}],"buffers":[{"byteLength":154468,"uri":"tile_0636.bin"}],"bufferViews":[{"buffer":0,"byteOffset":0,"byteLength":46980,"target":34962},{"buffer":0,"byteOffset":46980,"byteLength":31320,"target":34962},{"buffer":0,"byteOffset":78300,"byteLength":65268,"target":34963},{"buffer":0,"byteOffset":143568,"byteLength":3372,"target":34962},{"buffer":0,"byteOffset":146940,"byteLength":2248,"target":34962},{"buffer":0,"byteOffset":149188,"byteLength":5280,"target":34963}],"images":[{"uri":"../textures/tile_0636_material_0.jpg"},{"uri":"../textures/tile_0636_material_1.jpg"}],"materials":[{"name":"DefaultMaterial","pbrMetallicRoughness":{"baseColorFactor":[0.6000000238418579,0.6000000238418579,0.6000000238418579,1.0],"metallicFactor":0.0},"extensions":{"KHR_materials_specular":{"specularFactor":1.0,"specularColorFactor":[0.0,0.0,0.0]},"KHR_materials_ior":{"ior":1.0}}},{"name":"material_0_material","pbrMetallicRoughness":{"baseColorTexture":{"index":0},"metallicFactor":0.0},"extensions":{"KHR_materials_specular":{"specularFactor":1.0,"specularColorFactor":[0.0,0.0,0.0]},"KHR_materials_ior":{"ior":1.0}}},{"name":"material_1_material","pbrMetallicRoughness":{"baseColorTexture":{"index":1},"metallicFactor":0.0},"extensions":{"KHR_materials_specular":{"specularFactor":1.0,"specularColorFactor":[0.0,0.0,0.0]},"KHR_materials_ior":{"ior":1.0}}}],"meshes":[{"name":"defaultobject","primitives":[{"mode":4,"material":1,"indices":2,"attributes":{"POSITION":0,"TEXCOORD_0":1}},{"mode":4,"material":2,"indices":5,"attributes":{"POSITION":3,"TEXCOORD_0":4}}]}],"nodes":[{"name":"tile_0636.obj","children":[1]},{"name":"defaultobject","mesh":0}],"samplers":[{},{}],"scenes":[{"nodes":[0]}],"textures":[{"source":0,"sampler":0},{"source":1,"sampler":1}],"scene":0}
