{"asset":{"version":"2.0","generator":"Open Asset Import Library (assimp v6.0.0)"},"extensionsUsed":["KHR_materials_specular","KHR_materials_volume","KHR_materials_ior","FB_ngon_encoding"],"accessors":[{"bufferView":0,"byteOffset":0,"componentType":5126,"count":1305,"type":"VEC3","max":[-1.3666889667510986,7.78977108001709,5.078669548034668],"min":[-1.6615487337112427,2.2250738585072014e-308,2.2250738585072014e-308]},{"bufferView":1,"byteOffset":0,"componentType":5126,"count":1305,"type":"VEC2","max":[0.9862174987792969,0.5915298461914062],"min":[2.2250738585072014e-308,2.2250738585072014e-308]},{"bufferView":2,"byteOffset":0,"componentType":5125,"count":5913,"type":"SCALAR","max":[1304],"min":[0]},{"bufferView":3,"byteOffset":0,"componentType":5126,"count":5060,"type":"VEC3","max":[-1.3474010229110718,7.78977108001709,5.14664888381958],"min":[-1.6685153245925903,2.2250738585072014e-308,2.2250738585072014e-308]},{"bufferView":4,"byteOffset":0,"componentType":5126,"count":5060,"type":"VEC2","max":[0.8438153266906738,0.5122084617614746],"min":[2.2250738585072014e-308,2.2250738585072014e-308]},{"bufferView":5,"byteOffset":0,"componentType":5125,"count":27189,"type":"SCALAR","max":[5059],"min":[0]}],"buffers":[{"byteLength":259708,"uri":"tile_0548.bin"}],"bufferViews":[{"buffer":0,"byteOffset":0,"byteLength":15660,"target":34962},{"buffer":0,"byteOffset":15660,"byteLength":10440,"target":34962},{"buffer":0,"byteOffset":26100,"byteLength":23652,"target":34963},{"buffer":0,"byteOffset":49752,"byteLength":60720,"target":34962},{"buffer":0,"byteOffset":110472,"byteLength":40480,"target":34962},{"buffer":0,"byteOffset":150952,"byteLength":108756,"target":34963}],"images":[{"uri":"../textures/tile_0548_material_0.jpg"},{"uri":"../textures/tile_0548_material_1.jpg"}],"materials":[{"name":"DefaultMaterial","pbrMetallicRoughness":{"baseColorFactor":[0.6000000238418579,0.6000000238418579,0.6000000238418579,1.0],"metallicFactor":0.0},"extensions":{"KHR_materials_specular":{"specularFactor":1.0,"specularColorFactor":[0.0,0.0,0.0]},"KHR_materials_ior":{"ior":1.0}}},{"name":"material_0_material","pbrMetallicRoughness":{"baseColorTexture":{"index":0},"metallicFactor":0.0},"extensions":{"KHR_materials_specular":{"specularFactor":1.0,"specularColorFactor":[0.0,0.0,0.0]},"KHR_materials_ior":{"ior":1.0}}},{"name":"material_1_material","pbrMetallicRoughness":{"baseColorTexture":{"index":1},"metallicFactor":0.0},"extensions":{"KHR_materials_specular":{"specularFactor":1.0,"specularColorFactor":[0.0,0.0,0.0]},"KHR_materials_ior":{"ior":1.0}}}],"meshes":[{"name":"defaultobject","primitives":[{"mode":4,"material":1,"indices":2,"attributes":{"POSITION":0,"TEXCOORD_0":1}},{"mode":4,"material":2,"indices":5,"attributes":{"POSITION":3,"TEXCOORD_0":4}}]}],"nodes":[{"name":"tile_0548.obj","children":[1]},{"name":"defaultobject","mesh":0}],"samplers":[{},{}],"scenes":[{"nodes":[0]}],"textures":[{"source":0,"sampler":0},{"source":1,"sampler":1}],"scene":0}
