{"asset":{"version":"2.0","generator":"Open Asset Import Library (assimp v6.0.0)"},"extensionsUsed":["KHR_materials_specular","KHR_materials_volume","KHR_materials_ior","FB_ngon_encoding"],"accessors":[{"bufferView":0,"byteOffset":0,"componentType":5126,"count":4400,"type":"VEC3","max":[-0.006587252486497164,-1.2550685405731201,2.803283452987671],"min":[-0.23719647526741028,-1.49246346950531,2.2250738585072014e-308]},{"bufferView":1,"byteOffset":0,"componentType":5126,"count":4400,"type":"VEC2","max":[0.991129994392395,0.49213218688964844],"min":[2.2250738585072014e-308,2.2250738585072014e-308]},{"bufferView":2,"byteOffset":0,"componentType":5125,"count":19608,"type":"SCALAR","max":[4399],"min":[0]},{"bufferView":3,"byteOffset":0,"componentType":5126,"count":85,"type":"VEC3","max":[-0.1770036667585373,-1.4583312273025513,2.626750946044922],"min":[-0.23549522459506989,-1.4927302598953247,2.2250738585072014e-308]},{"bufferView":4,"byteOffset":0,"componentType":5126,"count":85,"type":"VEC2","max":[0.7052726149559021,0.4859314560890198],"min":[2.2250738585072014e-308,2.2250738585072014e-308]},{"bufferView":5,"byteOffset":0,"componentType":5125,"count":360,"type":"SCALAR","max":[84],"min":[0]}],"buffers":[{"byteLength":169572,"uri":"tile_0277.bin"}],"bufferViews":[{"buffer":0,"byteOffset":0,"byteLength":52800,"target":34962},{"buffer":0,"byteOffset":52800,"byteLength":35200,"target":34962},{"buffer":0,"byteOffset":88000,"byteLength":78432,"target":34963},{"buffer":0,"byteOffset":166432,"byteLength":1020,"target":34962},{"buffer":0,"byteOffset":167452,"byteLength":680,"target":34962},{"buffer":0,"byteOffset":168132,"byteLength":1440,"target":34963}],"images":[{"uri":"../textures/tile_0277_material_0.jpg"},{"uri":"../textures/tile_0277_material_1.jpg"}],"materials":[{"name":"DefaultMaterial","pbrMetallicRoughness":{"baseColorFactor":[0.6000000238418579,0.6000000238418579,0.6000000238418579,1.0],"metallicFactor":0.0},"extensions":{"KHR_materials_specular":{"specularFactor":1.0,"specularColorFactor":[0.0,0.0,0.0]},"KHR_materials_ior":{"ior":1.0}}},{"name":"material_0_material","pbrMetallicRoughness":{"baseColorTexture":{"index":0},"metallicFactor":0.0},"extensions":{"KHR_materials_specular":{"specularFactor":1.0,"specularColorFactor":[0.0,0.0,0.0]},"KHR_materials_ior":{"ior":1.0}}},{"name":"material_1_material","pbrMetallicRoughness":{"baseColorTexture":{"index":1},"metallicFactor":0.0},"extensions":{"KHR_materials_specular":{"specularFactor":1.0,"specularColorFactor":[0.0,0.0,0.0]},"KHR_materials_ior":{"ior":1.0}}}],"meshes":[{"name":"defaultobject","primitives":[{"mode":4,"material":1,"indices":2,"attributes":{"POSITION":0,"TEXCOORD_0":1}},{"mode":4,"material":2,"indices":5,"attributes":{"POSITION":3,"TEXCOORD_0":4}}]}],"nodes":[{"name":"tile_0277.obj","children":[1]},{"name":"defaultobject","mesh":0}],"samplers":[{},{}],"scenes":[{"nodes":[0]}],"textures":[{"source":0,"sampler":0},{"source":1,"sampler":1}],"scene":0}
