{"asset":{"version":"2.0","generator":"Open Asset Import Library (assimp v6.0.0)"},"extensionsUsed":["KHR_materials_specular","KHR_materials_volume","KHR_materials_ior","FB_ngon_encoding"],"accessors":[{"bufferView":0,"byteOffset":0,"componentType":5126,"count":2486,"type":"VEC3","max":[-0.4096044600009918,7.213502883911133,4.960488319396973],"min":[-0.7735925912857056,2.2250738585072014e-308,2.2250738585072014e-308]},{"bufferView":1,"byteOffset":0,"componentType":5126,"count":2486,"type":"VEC2","max":[0.9659833908081055,0.943572998046875],"min":[2.2250738585072014e-308,2.2250738585072014e-308]},{"bufferView":2,"byteOffset":0,"componentType":5125,"count":11883,"type":"SCALAR","max":[2485],"min":[0]},{"bufferView":3,"byteOffset":0,"componentType":5126,"count":2338,"type":"VEC3","max":[-0.3812955319881439,7.1169233322143555,4.948992729187012],"min":[-0.7679224610328674,2.2250738585072014e-308,2.2250738585072014e-308]},{"bufferView":4,"byteOffset":0,"componentType":5126,"count":2338,"type":"VEC2","max":[0.8461742401123047,0.5105075836181641],"min":[2.2250738585072014e-308,2.2250738585072014e-308]},{"bufferView":5,"byteOffset":0,"componentType":5125,"count":12180,"type":"SCALAR","max":[2337],"min":[0]}],"buffers":[{"byteLength":192732,"uri":"tile_0835.bin"}],"bufferViews":[{"buffer":0,"byteOffset":0,"byteLength":29832,"target":34962},{"buffer":0,"byteOffset":29832,"byteLength":19888,"target":34962},{"buffer":0,"byteOffset":49720,"byteLength":47532,"target":34963},{"buffer":0,"byteOffset":97252,"byteLength":28056,"target":34962},{"buffer":0,"byteOffset":125308,"byteLength":18704,"target":34962},{"buffer":0,"byteOffset":144012,"byteLength":48720,"target":34963}],"images":[{"uri":"../textures/tile_0835_material_0.jpg"},{"uri":"../textures/tile_0835_material_1.jpg"}],"materials":[{"name":"DefaultMaterial","pbrMetallicRoughness":{"baseColorFactor":[0.6000000238418579,0.6000000238418579,0.6000000238418579,1.0],"metallicFactor":0.0},"extensions":{"KHR_materials_specular":{"specularFactor":1.0,"specularColorFactor":[0.0,0.0,0.0]},"KHR_materials_ior":{"ior":1.0}}},{"name":"material_0_material","pbrMetallicRoughness":{"baseColorTexture":{"index":0},"metallicFactor":0.0},"extensions":{"KHR_materials_specular":{"specularFactor":1.0,"specularColorFactor":[0.0,0.0,0.0]},"KHR_materials_ior":{"ior":1.0}}},{"name":"material_1_material","pbrMetallicRoughness":{"baseColorTexture":{"index":1},"metallicFactor":0.0},"extensions":{"KHR_materials_specular":{"specularFactor":1.0,"specularColorFactor":[0.0,0.0,0.0]},"KHR_materials_ior":{"ior":1.0}}}],"meshes":[{"name":"defaultobject","primitives":[{"mode":4,"material":1,"indices":2,"attributes":{"POSITION":0,"TEXCOORD_0":1}},{"mode":4,"material":2,"indices":5,"attributes":{"POSITION":3,"TEXCOORD_0":4}}]}],"nodes":[{"name":"tile_0835.obj","children":[1]},{"name":"defaultobject","mesh":0}],"samplers":[{},{}],"scenes":[{"nodes":[0]}],"textures":[{"source":0,"sampler":0},{"source":1,"sampler":1}],"scene":0}
