{"asset":{"version":"2.0","generator":"Open Asset Import Library (assimp v6.0.0)"},"extensionsUsed":["KHR_materials_specular","KHR_materials_volume","KHR_materials_ior","FB_ngon_encoding"],"accessors":[{"bufferView":0,"byteOffset":0,"componentType":5126,"count":2402,"type":"VEC3","max":[-4.40849494934082,1.3373383283615112,4.303964614868164],"min":[-4.947564125061035,2.2250738585072014e-308,2.2250738585072014e-308]},{"bufferView":1,"byteOffset":0,"componentType":5126,"count":2402,"type":"VEC2","max":[0.9862031936645508,0.6794967651367188],"min":[2.2250738585072014e-308,2.2250738585072014e-308]},{"bufferView":2,"byteOffset":0,"componentType":5125,"count":10044,"type":"SCALAR","max":[2401],"min":[0]},{"bufferView":3,"byteOffset":0,"componentType":5126,"count":2128,"type":"VEC3","max":[-4.488391876220703,1.3532347679138184,4.302198886871338],"min":[-4.946229934692383,2.2250738585072014e-308,2.2250738585072014e-308]},{"bufferView":4,"byteOffset":0,"componentType":5126,"count":2128,"type":"VEC2","max":[0.8581056594848633,0.573211669921875],"min":[2.2250738585072014e-308,2.2250738585072014e-308]},{"bufferView":5,"byteOffset":0,"componentType":5125,"count":11181,"type":"SCALAR","max":[2127],"min":[0]}],"buffers":[{"byteLength":175500,"uri":"tile_0571.bin"}],"bufferViews":[{"buffer":0,"byteOffset":0,"byteLength":28824,"target":34962},{"buffer":0,"byteOffset":28824,"byteLength":19216,"target":34962},{"buffer":0,"byteOffset":48040,"byteLength":40176,"target":34963},{"buffer":0,"byteOffset":88216,"byteLength":25536,"target":34962},{"buffer":0,"byteOffset":113752,"byteLength":17024,"target":34962},{"buffer":0,"byteOffset":130776,"byteLength":44724,"target":34963}],"images":[{"uri":"../textures/tile_0571_material_0.jpg"},{"uri":"../textures/tile_0571_material_1.jpg"}],"materials":[{"name":"DefaultMaterial","pbrMetallicRoughness":{"baseColorFactor":[0.6000000238418579,0.6000000238418579,0.6000000238418579,1.0],"metallicFactor":0.0},"extensions":{"KHR_materials_specular":{"specularFactor":1.0,"specularColorFactor":[0.0,0.0,0.0]},"KHR_materials_ior":{"ior":1.0}}},{"name":"material_0_material","pbrMetallicRoughness":{"baseColorTexture":{"index":0},"metallicFactor":0.0},"extensions":{"KHR_materials_specular":{"specularFactor":1.0,"specularColorFactor":[0.0,0.0,0.0]},"KHR_materials_ior":{"ior":1.0}}},{"name":"material_1_material","pbrMetallicRoughness":{"baseColorTexture":{"index":1},"metallicFactor":0.0},"extensions":{"KHR_materials_specular":{"specularFactor":1.0,"specularColorFactor":[0.0,0.0,0.0]},"KHR_materials_ior":{"ior":1.0}}}],"meshes":[{"name":"defaultobject","primitives":[{"mode":4,"material":1,"indices":2,"attributes":{"POSITION":0,"TEXCOORD_0":1}},{"mode":4,"material":2,"indices":5,"attributes":{"POSITION":3,"TEXCOORD_0":4}}]}],"nodes":[{"name":"tile_0571.obj","children":[1]},{"name":"defaultobject","mesh":0}],"samplers":[{},{}],"scenes":[{"nodes":[0]}],"textures":[{"source":0,"sampler":0},{"source":1,"sampler":1}],"scene":0}
