{"asset":{"version":"2.0","generator":"Open Asset Import Library (assimp v6.0.0)"},"extensionsUsed":["KHR_materials_specular","KHR_materials_volume","KHR_materials_ior","FB_ngon_encoding"],"accessors":[{"bufferView":0,"byteOffset":0,"componentType":5126,"count":2072,"type":"VEC3","max":[-1.4889626502990723,-4.7330193519592285,2.410752534866333],"min":[-1.7752810716629028,-5.270125389099121,2.2250738585072014e-308]},{"bufferView":1,"byteOffset":0,"componentType":5126,"count":2072,"type":"VEC2","max":[0.9923462867736816,0.8888092041015625],"min":[2.2250738585072014e-308,2.2250738585072014e-308]},{"bufferView":2,"byteOffset":0,"componentType":5125,"count":8607,"type":"SCALAR","max":[2071],"min":[0]},{"bufferView":3,"byteOffset":0,"componentType":5126,"count":1482,"type":"VEC3","max":[-1.5090845823287964,-4.732787132263184,2.2819597721099854],"min":[-1.773724913597107,-5.263804912567139,2.2250738585072014e-308]},{"bufferView":4,"byteOffset":0,"componentType":5126,"count":1482,"type":"VEC2","max":[0.7279753684997559,0.8846206665039062],"min":[2.2250738585072014e-308,2.2250738585072014e-308]},{"bufferView":5,"byteOffset":0,"componentType":5125,"count":7182,"type":"SCALAR","max":[1481],"min":[0]}],"buffers":[{"byteLength":134236,"uri":"tile_0024.bin"}],"bufferViews":[{"buffer":0,"byteOffset":0,"byteLength":24864,"target":34962},{"buffer":0,"byteOffset":24864,"byteLength":16576,"target":34962},{"buffer":0,"byteOffset":41440,"byteLength":34428,"target":34963},{"buffer":0,"byteOffset":75868,"byteLength":17784,"target":34962},{"buffer":0,"byteOffset":93652,"byteLength":11856,"target":34962},{"buffer":0,"byteOffset":105508,"byteLength":28728,"target":34963}],"images":[{"uri":"../textures/tile_0024_material_0.jpg"},{"uri":"../textures/tile_0024_material_1.jpg"}],"materials":[{"name":"DefaultMaterial","pbrMetallicRoughness":{"baseColorFactor":[0.6000000238418579,0.6000000238418579,0.6000000238418579,1.0],"metallicFactor":0.0},"extensions":{"KHR_materials_specular":{"specularFactor":1.0,"specularColorFactor":[0.0,0.0,0.0]},"KHR_materials_ior":{"ior":1.0}}},{"name":"material_0_material","pbrMetallicRoughness":{"baseColorTexture":{"index":0},"metallicFactor":0.0},"extensions":{"KHR_materials_specular":{"specularFactor":1.0,"specularColorFactor":[0.0,0.0,0.0]},"KHR_materials_ior":{"ior":1.0}}},{"name":"material_1_material","pbrMetallicRoughness":{"baseColorTexture":{"index":1},"metallicFactor":0.0},"extensions":{"KHR_materials_specular":{"specularFactor":1.0,"specularColorFactor":[0.0,0.0,0.0]},"KHR_materials_ior":{"ior":1.0}}}],"meshes":[{"name":"defaultobject","primitives":[{"mode":4,"material":1,"indices":2,"attributes":{"POSITION":0,"TEXCOORD_0":1}},{"mode":4,"material":2,"indices":5,"attributes":{"POSITION":3,"TEXCOORD_0":4}}]}],"nodes":[{"name":"tile_0024.obj","children":[1]},{"name":"defaultobject","mesh":0}],"samplers":[{},{}],"scenes":[{"nodes":[0]}],"textures":[{"source":0,"sampler":0},{"source":1,"sampler":1}],"scene":0}
