{"asset":{"version":"2.0","generator":"Open Asset Import Library (assimp v6.0.0)"},"extensionsUsed":["KHR_materials_specular","KHR_materials_volume","KHR_materials_ior","FB_ngon_encoding"],"accessors":[{"bufferView":0,"byteOffset":0,"componentType":5126,"count":4485,"type":"VEC3","max":[2.082033157348633,-3.1068639755249023,3.296807050704956],"min":[2.2250738585072014e-308,-3.34604549407959,2.2250738585072014e-308]},{"bufferView":1,"byteOffset":0,"componentType":5126,"count":4485,"type":"VEC2","max":[0.9907436370849609,0.5874481201171875],"min":[2.2250738585072014e-308,2.2250738585072014e-308]},{"bufferView":2,"byteOffset":0,"componentType":5125,"count":20097,"type":"SCALAR","max":[4484],"min":[0]},{"bufferView":3,"byteOffset":0,"componentType":5126,"count":299,"type":"VEC3","max":[2.0810768604278564,-3.1110148429870605,3.3040220737457275],"min":[2.2250738585072014e-308,-3.3399314880371094,2.2250738585072014e-308]},{"bufferView":4,"byteOffset":0,"componentType":5126,"count":299,"type":"VEC2","max":[0.7315616607666016,0.4807968735694885],"min":[2.2250738585072014e-308,2.2250738585072014e-308]},{"bufferView":5,"byteOffset":0,"componentType":5125,"count":1362,"type":"SCALAR","max":[298],"min":[0]}],"buffers":[{"byteLength":181516,"uri":"tile_0785.bin"}],"bufferViews":[{"buffer":0,"byteOffset":0,"byteLength":53820,"target":34962},{"buffer":0,"byteOffset":53820,"byteLength":35880,"target":34962},{"buffer":0,"byteOffset":89700,"byteLength":80388,"target":34963},{"buffer":0,"byteOffset":170088,"byteLength":3588,"target":34962},{"buffer":0,"byteOffset":173676,"byteLength":2392,"target":34962},{"buffer":0,"byteOffset":176068,"byteLength":5448,"target":34963}],"images":[{"uri":"../textures/tile_0785_material_0.jpg"},{"uri":"../textures/tile_0785_material_1.jpg"}],"materials":[{"name":"DefaultMaterial","pbrMetallicRoughness":{"baseColorFactor":[0.6000000238418579,0.6000000238418579,0.6000000238418579,1.0],"metallicFactor":0.0},"extensions":{"KHR_materials_specular":{"specularFactor":1.0,"specularColorFactor":[0.0,0.0,0.0]},"KHR_materials_ior":{"ior":1.0}}},{"name":"material_0_material","pbrMetallicRoughness":{"baseColorTexture":{"index":0},"metallicFactor":0.0},"extensions":{"KHR_materials_specular":{"specularFactor":1.0,"specularColorFactor":[0.0,0.0,0.0]},"KHR_materials_ior":{"ior":1.0}}},{"name":"material_1_material","pbrMetallicRoughness":{"baseColorTexture":{"index":1},"metallicFactor":0.0},"extensions":{"KHR_materials_specular":{"specularFactor":1.0,"specularColorFactor":[0.0,0.0,0.0]},"KHR_materials_ior":{"ior":1.0}}}],"meshes":[{"name":"defaultobject","primitives":[{"mode":4,"material":1,"indices":2,"attributes":{"POSITION":0,"TEXCOORD_0":1}},{"mode":4,"material":2,"indices":5,"attributes":{"POSITION":3,"TEXCOORD_0":4}}]}],"nodes":[{"name":"tile_0785.obj","children":[1]},{"name":"defaultobject","mesh":0}],"samplers":[{},{}],"scenes":[{"nodes":[0]}],"textures":[{"source":0,"sampler":0},{"source":1,"sampler":1}],"scene":0}
