{"asset":{"version":"2.0","generator":"Open Asset Import Library (assimp v6.0.0)"},"extensionsUsed":["KHR_materials_specular","KHR_materials_volume","KHR_materials_ior","FB_ngon_encoding"],"accessors":[{"bufferView":0,"byteOffset":0,"componentType":5126,"count":4589,"type":"VEC3","max":[0.8444188237190247,-3.0230119228363037,2.532160758972168],"min":[2.2250738585072014e-308,-3.3523097038269043,2.2250738585072014e-308]},{"bufferView":1,"byteOffset":0,"componentType":5126,"count":4589,"type":"VEC2","max":[0.9948973655700684,0.9687347412109375],"min":[2.2250738585072014e-308,2.2250738585072014e-308]},{"bufferView":2,"byteOffset":0,"componentType":5125,"count":19485,"type":"SCALAR","max":[4588],"min":[0]},{"bufferView":3,"byteOffset":0,"componentType":5126,"count":1433,"type":"VEC3","max":[0.8145277500152588,-3.0228381156921387,2.460696220397949],"min":[2.2250738585072014e-308,-3.3083789348602295,2.2250738585072014e-308]},{"bufferView":4,"byteOffset":0,"componentType":5126,"count":1433,"type":"VEC2","max":[0.9365363121032715,0.5819244384765625],"min":[2.2250738585072014e-308,2.2250738585072014e-308]},{"bufferView":5,"byteOffset":0,"componentType":5125,"count":7251,"type":"SCALAR","max":[1432],"min":[0]}],"buffers":[{"byteLength":227384,"uri":"tile_0821.bin"}],"bufferViews":[{"buffer":0,"byteOffset":0,"byteLength":55068,"target":34962},{"buffer":0,"byteOffset":55068,"byteLength":36712,"target":34962},{"buffer":0,"byteOffset":91780,"byteLength":77940,"target":34963},{"buffer":0,"byteOffset":169720,"byteLength":17196,"target":34962},{"buffer":0,"byteOffset":186916,"byteLength":11464,"target":34962},{"buffer":0,"byteOffset":198380,"byteLength":29004,"target":34963}],"images":[{"uri":"../textures/tile_0821_material_0.jpg"},{"uri":"../textures/tile_0821_material_1.jpg"}],"materials":[{"name":"DefaultMaterial","pbrMetallicRoughness":{"baseColorFactor":[0.6000000238418579,0.6000000238418579,0.6000000238418579,1.0],"metallicFactor":0.0},"extensions":{"KHR_materials_specular":{"specularFactor":1.0,"specularColorFactor":[0.0,0.0,0.0]},"KHR_materials_ior":{"ior":1.0}}},{"name":"material_0_material","pbrMetallicRoughness":{"baseColorTexture":{"index":0},"metallicFactor":0.0},"extensions":{"KHR_materials_specular":{"specularFactor":1.0,"specularColorFactor":[0.0,0.0,0.0]},"KHR_materials_ior":{"ior":1.0}}},{"name":"material_1_material","pbrMetallicRoughness":{"baseColorTexture":{"index":1},"metallicFactor":0.0},"extensions":{"KHR_materials_specular":{"specularFactor":1.0,"specularColorFactor":[0.0,0.0,0.0]},"KHR_materials_ior":{"ior":1.0}}}],"meshes":[{"name":"defaultobject","primitives":[{"mode":4,"material":1,"indices":2,"attributes":{"POSITION":0,"TEXCOORD_0":1}},{"mode":4,"material":2,"indices":5,"attributes":{"POSITION":3,"TEXCOORD_0":4}}]}],"nodes":[{"name":"tile_0821.obj","children":[1]},{"name":"defaultobject","mesh":0}],"samplers":[{},{}],"scenes":[{"nodes":[0]}],"textures":[{"source":0,"sampler":0},{"source":1,"sampler":1}],"scene":0}
