{"asset":{"version":"2.0","generator":"Open Asset Import Library (assimp v6.0.0)"},"extensionsUsed":["KHR_materials_specular","KHR_materials_volume","KHR_materials_ior","FB_ngon_encoding"],"accessors":[{"bufferView":0,"byteOffset":0,"componentType":5126,"count":3481,"type":"VEC3","max":[-0.10377286374568939,2.042524814605713,4.429043769836426],"min":[-0.4250866174697876,2.2250738585072014e-308,2.2250738585072014e-308]},{"bufferView":1,"byteOffset":0,"componentType":5126,"count":3481,"type":"VEC2","max":[0.9927215576171875,0.7655258178710938],"min":[2.2250738585072014e-308,2.2250738585072014e-308]},{"bufferView":2,"byteOffset":0,"componentType":5125,"count":14442,"type":"SCALAR","max":[3480],"min":[0]},{"bufferView":3,"byteOffset":0,"componentType":5126,"count":743,"type":"VEC3","max":[-0.13784633576869965,2.023890495300293,4.4241623878479],"min":[-0.4263741970062256,2.2250738585072014e-308,2.2250738585072014e-308]},{"bufferView":4,"byteOffset":0,"componentType":5126,"count":743,"type":"VEC2","max":[0.5433425903320312,0.9071159362792969],"min":[2.2250738585072014e-308,2.2250738585072014e-308]},{"bufferView":5,"byteOffset":0,"componentType":5125,"count":3912,"type":"SCALAR","max":[742],"min":[0]}],"buffers":[{"byteLength":157896,"uri":"tile_0597.bin"}],"bufferViews":[{"buffer":0,"byteOffset":0,"byteLength":41772,"target":34962},{"buffer":0,"byteOffset":41772,"byteLength":27848,"target":34962},{"buffer":0,"byteOffset":69620,"byteLength":57768,"target":34963},{"buffer":0,"byteOffset":127388,"byteLength":8916,"target":34962},{"buffer":0,"byteOffset":136304,"byteLength":5944,"target":34962},{"buffer":0,"byteOffset":142248,"byteLength":15648,"target":34963}],"images":[{"uri":"../textures/tile_0597_material_0.jpg"},{"uri":"../textures/tile_0597_material_1.jpg"}],"materials":[{"name":"DefaultMaterial","pbrMetallicRoughness":{"baseColorFactor":[0.6000000238418579,0.6000000238418579,0.6000000238418579,1.0],"metallicFactor":0.0},"extensions":{"KHR_materials_specular":{"specularFactor":1.0,"specularColorFactor":[0.0,0.0,0.0]},"KHR_materials_ior":{"ior":1.0}}},{"name":"material_0_material","pbrMetallicRoughness":{"baseColorTexture":{"index":0},"metallicFactor":0.0},"extensions":{"KHR_materials_specular":{"specularFactor":1.0,"specularColorFactor":[0.0,0.0,0.0]},"KHR_materials_ior":{"ior":1.0}}},{"name":"material_1_material","pbrMetallicRoughness":{"baseColorTexture":{"index":1},"metallicFactor":0.0},"extensions":{"KHR_materials_specular":{"specularFactor":1.0,"specularColorFactor":[0.0,0.0,0.0]},"KHR_materials_ior":{"ior":1.0}}}],"meshes":[{"name":"defaultobject","primitives":[{"mode":4,"material":1,"indices":2,"attributes":{"POSITION":0,"TEXCOORD_0":1}},{"mode":4,"material":2,"indices":5,"attributes":{"POSITION":3,"TEXCOORD_0":4}}]}],"nodes":[{"name":"tile_0597.obj","children":[1]},{"name":"defaultobject","mesh":0}],"samplers":[{},{}],"scenes":[{"nodes":[0]}],"textures":[{"source":0,"sampler":0},{"source":1,"sampler":1}],"scene":0}
