{"asset":{"version":"2.0","generator":"Open Asset Import Library (assimp v6.0.0)"},"extensionsUsed":["KHR_materials_specular","KHR_materials_volume","KHR_materials_ior","FB_ngon_encoding"],"accessors":[{"bufferView":0,"byteOffset":0,"componentType":5126,"count":5030,"type":"VEC3","max":[-0.8529894351959229,4.041069030761719,4.660405158996582],"min":[-1.135313868522644,2.2250738585072014e-308,2.2250738585072014e-308]},{"bufferView":1,"byteOffset":0,"componentType":5126,"count":5030,"type":"VEC2","max":[0.986945629119873,0.6325416564941406],"min":[2.2250738585072014e-308,2.2250738585072014e-308]},{"bufferView":2,"byteOffset":0,"componentType":5125,"count":21825,"type":"SCALAR","max":[5029],"min":[0]},{"bufferView":3,"byteOffset":0,"componentType":5126,"count":813,"type":"VEC3","max":[-0.8565016984939575,4.039647102355957,4.655379772186279],"min":[-1.1511815786361694,2.2250738585072014e-308,2.2250738585072014e-308]},{"bufferView":4,"byteOffset":0,"componentType":5126,"count":813,"type":"VEC2","max":[0.6581287384033203,0.9068450927734375],"min":[2.2250738585072014e-308,2.2250738585072014e-308]},{"bufferView":5,"byteOffset":0,"componentType":5125,"count":4149,"type":"SCALAR","max":[812],"min":[0]}],"buffers":[{"byteLength":220756,"uri":"tile_0504.bin"}],"bufferViews":[{"buffer":0,"byteOffset":0,"byteLength":60360,"target":34962},{"buffer":0,"byteOffset":60360,"byteLength":40240,"target":34962},{"buffer":0,"byteOffset":100600,"byteLength":87300,"target":34963},{"buffer":0,"byteOffset":187900,"byteLength":9756,"target":34962},{"buffer":0,"byteOffset":197656,"byteLength":6504,"target":34962},{"buffer":0,"byteOffset":204160,"byteLength":16596,"target":34963}],"images":[{"uri":"../textures/tile_0504_material_0.jpg"},{"uri":"../textures/tile_0504_material_1.jpg"}],"materials":[{"name":"DefaultMaterial","pbrMetallicRoughness":{"baseColorFactor":[0.6000000238418579,0.6000000238418579,0.6000000238418579,1.0],"metallicFactor":0.0},"extensions":{"KHR_materials_specular":{"specularFactor":1.0,"specularColorFactor":[0.0,0.0,0.0]},"KHR_materials_ior":{"ior":1.0}}},{"name":"material_0_material","pbrMetallicRoughness":{"baseColorTexture":{"index":0},"metallicFactor":0.0},"extensions":{"KHR_materials_specular":{"specularFactor":1.0,"specularColorFactor":[0.0,0.0,0.0]},"KHR_materials_ior":{"ior":1.0}}},{"name":"material_1_material","pbrMetallicRoughness":{"baseColorTexture":{"index":1},"metallicFactor":0.0},"extensions":{"KHR_materials_specular":{"specularFactor":1.0,"specularColorFactor":[0.0,0.0,0.0]},"KHR_materials_ior":{"ior":1.0}}}],"meshes":[{"name":"defaultobject","primitives":[{"mode":4,"material":1,"indices":2,"attributes":{"POSITION":0,"TEXCOORD_0":1}},{"mode":4,"material":2,"indices":5,"attributes":{"POSITION":3,"TEXCOORD_0":4}}]}],"nodes":[{"name":"tile_0504.obj","children":[1]},{"name":"defaultobject","mesh":0}],"samplers":[{},{}],"scenes":[{"nodes":[0]}],"textures":[{"source":0,"sampler":0},{"source":1,"sampler":1}],"scene":0}
