{"asset":{"version":"2.0","generator":"Open Asset Import Library (assimp v6.0.0)"},"extensionsUsed":["KHR_materials_specular","KHR_materials_volume","KHR_materials_ior","FB_ngon_encoding"],"accessors":[{"bufferView":0,"byteOffset":0,"componentType":5126,"count":3461,"type":"VEC3","max":[-0.5800191760063171,-3.5476877689361572,2.3378829956054688],"min":[-0.7582764625549316,-3.951282501220703,2.2250738585072014e-308]},{"bufferView":1,"byteOffset":0,"componentType":5126,"count":3461,"type":"VEC2","max":[0.9785518646240234,0.9217720031738281],"min":[2.2250738585072014e-308,2.2250738585072014e-308]},{"bufferView":2,"byteOffset":0,"componentType":5125,"count":14862,"type":"SCALAR","max":[3460],"min":[0]},{"bufferView":3,"byteOffset":0,"componentType":5126,"count":1844,"type":"VEC3","max":[-0.5799594521522522,-3.618729829788208,2.3443918228149414],"min":[-0.7587250471115112,-3.95050048828125,2.2250738585072014e-308]},{"bufferView":4,"byteOffset":0,"componentType":5126,"count":1844,"type":"VEC2","max":[0.8235530853271484,0.5075454711914062],"min":[2.2250738585072014e-308,2.2250738585072014e-308]},{"bufferView":5,"byteOffset":0,"componentType":5125,"count":9216,"type":"SCALAR","max":[1843],"min":[0]}],"buffers":[{"byteLength":202412,"uri":"tile_0349.bin"}],"bufferViews":[{"buffer":0,"byteOffset":0,"byteLength":41532,"target":34962},{"buffer":0,"byteOffset":41532,"byteLength":27688,"target":34962},{"buffer":0,"byteOffset":69220,"byteLength":59448,"target":34963},{"buffer":0,"byteOffset":128668,"byteLength":22128,"target":34962},{"buffer":0,"byteOffset":150796,"byteLength":14752,"target":34962},{"buffer":0,"byteOffset":165548,"byteLength":36864,"target":34963}],"images":[{"uri":"../textures/tile_0349_material_0.jpg"},{"uri":"../textures/tile_0349_material_1.jpg"}],"materials":[{"name":"DefaultMaterial","pbrMetallicRoughness":{"baseColorFactor":[0.6000000238418579,0.6000000238418579,0.6000000238418579,1.0],"metallicFactor":0.0},"extensions":{"KHR_materials_specular":{"specularFactor":1.0,"specularColorFactor":[0.0,0.0,0.0]},"KHR_materials_ior":{"ior":1.0}}},{"name":"material_0_material","pbrMetallicRoughness":{"baseColorTexture":{"index":0},"metallicFactor":0.0},"extensions":{"KHR_materials_specular":{"specularFactor":1.0,"specularColorFactor":[0.0,0.0,0.0]},"KHR_materials_ior":{"ior":1.0}}},{"name":"material_1_material","pbrMetallicRoughness":{"baseColorTexture":{"index":1},"metallicFactor":0.0},"extensions":{"KHR_materials_specular":{"specularFactor":1.0,"specularColorFactor":[0.0,0.0,0.0]},"KHR_materials_ior":{"ior":1.0}}}],"meshes":[{"name":"defaultobject","primitives":[{"mode":4,"material":1,"indices":2,"attributes":{"POSITION":0,"TEXCOORD_0":1}},{"mode":4,"material":2,"indices":5,"attributes":{"POSITION":3,"TEXCOORD_0":4}}]}],"nodes":[{"name":"tile_0349.obj","children":[1]},{"name":"defaultobject","mesh":0}],"samplers":[{},{}],"scenes":[{"nodes":[0]}],"textures":[{"source":0,"sampler":0},{"source":1,"sampler":1}],"scene":0}
