{"asset":{"version":"2.0","generator":"Open Asset Import Library (assimp v6.0.0)"},"extensionsUsed":["KHR_materials_specular","KHR_materials_volume","KHR_materials_ior","FB_ngon_encoding"],"accessors":[{"bufferView":0,"byteOffset":0,"componentType":5126,"count":4917,"type":"VEC3","max":[0.23263154923915863,-1.7235666513442993,2.8965933322906494],"min":[-0.03363748639822006,-1.9490078687667847,2.2250738585072014e-308]},{"bufferView":1,"byteOffset":0,"componentType":5126,"count":4917,"type":"VEC2","max":[0.9956660270690918,0.5655269622802734],"min":[2.2250738585072014e-308,2.2250738585072014e-308]},{"bufferView":2,"byteOffset":0,"componentType":5125,"count":21474,"type":"SCALAR","max":[4916],"min":[0]},{"bufferView":3,"byteOffset":0,"componentType":5126,"count":464,"type":"VEC3","max":[0.07021203637123108,-1.729288935661316,2.788417339324951],"min":[-0.03362539783120155,-1.8498393297195435,2.2250738585072014e-308]},{"bufferView":4,"byteOffset":0,"componentType":5126,"count":464,"type":"VEC2","max":[0.8240509033203125,0.7802619934082031],"min":[2.2250738585072014e-308,2.2250738585072014e-308]},{"bufferView":5,"byteOffset":0,"componentType":5125,"count":2253,"type":"SCALAR","max":[463],"min":[0]}],"buffers":[{"byteLength":202528,"uri":"tile_0725.bin"}],"bufferViews":[{"buffer":0,"byteOffset":0,"byteLength":59004,"target":34962},{"buffer":0,"byteOffset":59004,"byteLength":39336,"target":34962},{"buffer":0,"byteOffset":98340,"byteLength":85896,"target":34963},{"buffer":0,"byteOffset":184236,"byteLength":5568,"target":34962},{"buffer":0,"byteOffset":189804,"byteLength":3712,"target":34962},{"buffer":0,"byteOffset":193516,"byteLength":9012,"target":34963}],"images":[{"uri":"../textures/tile_0725_material_0.jpg"},{"uri":"../textures/tile_0725_material_1.jpg"}],"materials":[{"name":"DefaultMaterial","pbrMetallicRoughness":{"baseColorFactor":[0.6000000238418579,0.6000000238418579,0.6000000238418579,1.0],"metallicFactor":0.0},"extensions":{"KHR_materials_specular":{"specularFactor":1.0,"specularColorFactor":[0.0,0.0,0.0]},"KHR_materials_ior":{"ior":1.0}}},{"name":"material_0_material","pbrMetallicRoughness":{"baseColorTexture":{"index":0},"metallicFactor":0.0},"extensions":{"KHR_materials_specular":{"specularFactor":1.0,"specularColorFactor":[0.0,0.0,0.0]},"KHR_materials_ior":{"ior":1.0}}},{"name":"material_1_material","pbrMetallicRoughness":{"baseColorTexture":{"index":1},"metallicFactor":0.0},"extensions":{"KHR_materials_specular":{"specularFactor":1.0,"specularColorFactor":[0.0,0.0,0.0]},"KHR_materials_ior":{"ior":1.0}}}],"meshes":[{"name":"defaultobject","primitives":[{"mode":4,"material":1,"indices":2,"attributes":{"POSITION":0,"TEXCOORD_0":1}},{"mode":4,"material":2,"indices":5,"attributes":{"POSITION":3,"TEXCOORD_0":4}}]}],"nodes":[{"name":"tile_0725.obj","children":[1]},{"name":"defaultobject","mesh":0}],"samplers":[{},{}],"scenes":[{"nodes":[0]}],"textures":[{"source":0,"sampler":0},{"source":1,"sampler":1}],"scene":0}
