{"asset":{"version":"2.0","generator":"Open Asset Import Library (assimp v6.0.0)"},"extensionsUsed":["KHR_materials_specular","KHR_materials_volume","KHR_materials_ior","FB_ngon_encoding"],"accessors":[{"bufferView":0,"byteOffset":0,"componentType":5126,"count":4395,"type":"VEC3","max":[-2.3984780311584473,-0.3516576886177063,4.143831253051758],"min":[-2.8332619667053223,-0.5304961204528809,2.2250738585072014e-308]},{"bufferView":1,"byteOffset":0,"componentType":5126,"count":4395,"type":"VEC2","max":[0.993380069732666,0.591888427734375],"min":[2.2250738585072014e-308,2.2250738585072014e-308]},{"bufferView":2,"byteOffset":0,"componentType":5125,"count":20571,"type":"SCALAR","max":[4394],"min":[0]},{"bufferView":3,"byteOffset":0,"componentType":5126,"count":1294,"type":"VEC3","max":[-2.3951616287231445,-0.3399808406829834,4.12238073348999],"min":[-2.8056321144104004,-0.5284866690635681,2.2250738585072014e-308]},{"bufferView":4,"byteOffset":0,"componentType":5126,"count":1294,"type":"VEC2","max":[0.5455062389373779,0.9363822937011719],"min":[2.2250738585072014e-308,2.2250738585072014e-308]},{"bufferView":5,"byteOffset":0,"componentType":5125,"count":6369,"type":"SCALAR","max":[1293],"min":[0]}],"buffers":[{"byteLength":221540,"uri":"tile_0079.bin"}],"bufferViews":[{"buffer":0,"byteOffset":0,"byteLength":52740,"target":34962},{"buffer":0,"byteOffset":52740,"byteLength":35160,"target":34962},{"buffer":0,"byteOffset":87900,"byteLength":82284,"target":34963},{"buffer":0,"byteOffset":170184,"byteLength":15528,"target":34962},{"buffer":0,"byteOffset":185712,"byteLength":10352,"target":34962},{"buffer":0,"byteOffset":196064,"byteLength":25476,"target":34963}],"images":[{"uri":"../textures/tile_0079_material_0.jpg"},{"uri":"../textures/tile_0079_material_1.jpg"}],"materials":[{"name":"DefaultMaterial","pbrMetallicRoughness":{"baseColorFactor":[0.6000000238418579,0.6000000238418579,0.6000000238418579,1.0],"metallicFactor":0.0},"extensions":{"KHR_materials_specular":{"specularFactor":1.0,"specularColorFactor":[0.0,0.0,0.0]},"KHR_materials_ior":{"ior":1.0}}},{"name":"material_0_material","pbrMetallicRoughness":{"baseColorTexture":{"index":0},"metallicFactor":0.0},"extensions":{"KHR_materials_specular":{"specularFactor":1.0,"specularColorFactor":[0.0,0.0,0.0]},"KHR_materials_ior":{"ior":1.0}}},{"name":"material_1_material","pbrMetallicRoughness":{"baseColorTexture":{"index":1},"metallicFactor":0.0},"extensions":{"KHR_materials_specular":{"specularFactor":1.0,"specularColorFactor":[0.0,0.0,0.0]},"KHR_materials_ior":{"ior":1.0}}}],"meshes":[{"name":"defaultobject","primitives":[{"mode":4,"material":1,"indices":2,"attributes":{"POSITION":0,"TEXCOORD_0":1}},{"mode":4,"material":2,"indices":5,"attributes":{"POSITION":3,"TEXCOORD_0":4}}]}],"nodes":[{"name":"tile_0079.obj","children":[1]},{"name":"defaultobject","mesh":0}],"samplers":[{},{}],"scenes":[{"nodes":[0]}],"textures":[{"source":0,"sampler":0},{"source":1,"sampler":1}],"scene":0}
