{"asset":{"version":"2.0","generator":"Open Asset Import Library (assimp v6.0.0)"},"extensionsUsed":["KHR_materials_specular","KHR_materials_volume","KHR_materials_ior","FB_ngon_encoding"],"accessors":[{"bufferView":0,"byteOffset":0,"componentType":5126,"count":5413,"type":"VEC3","max":[-3.161130666732788,2.3721694946289062,4.490253925323486],"min":[-3.5065758228302,2.2250738585072014e-308,2.2250738585072014e-308]},{"bufferView":1,"byteOffset":0,"componentType":5126,"count":5413,"type":"VEC2","max":[0.9929780960083008,0.5427722930908203],"min":[2.2250738585072014e-308,2.2250738585072014e-308]},{"bufferView":2,"byteOffset":0,"componentType":5125,"count":23448,"type":"SCALAR","max":[5412],"min":[0]},{"bufferView":3,"byteOffset":0,"componentType":5126,"count":24,"type":"VEC3","max":[-3.1616604328155518,2.3369669914245605,4.45374059677124],"min":[-3.178678512573242,2.2250738585072014e-308,2.2250738585072014e-308]},{"bufferView":4,"byteOffset":0,"componentType":5126,"count":24,"type":"VEC2","max":[0.7206497192382812,0.7893982529640198],"min":[2.2250738585072014e-308,2.2250738585072014e-308]},{"bufferView":5,"byteOffset":0,"componentType":5125,"count":54,"type":"SCALAR","max":[23],"min":[0]}],"buffers":[{"byteLength":202748,"uri":"tile_0497.bin"}],"bufferViews":[{"buffer":0,"byteOffset":0,"byteLength":64956,"target":34962},{"buffer":0,"byteOffset":64956,"byteLength":43304,"target":34962},{"buffer":0,"byteOffset":108260,"byteLength":93792,"target":34963},{"buffer":0,"byteOffset":202052,"byteLength":288,"target":34962},{"buffer":0,"byteOffset":202340,"byteLength":192,"target":34962},{"buffer":0,"byteOffset":202532,"byteLength":216,"target":34963}],"images":[{"uri":"../textures/tile_0497_material_0.jpg"},{"uri":"../textures/tile_0497_material_1.jpg"}],"materials":[{"name":"DefaultMaterial","pbrMetallicRoughness":{"baseColorFactor":[0.6000000238418579,0.6000000238418579,0.6000000238418579,1.0],"metallicFactor":0.0},"extensions":{"KHR_materials_specular":{"specularFactor":1.0,"specularColorFactor":[0.0,0.0,0.0]},"KHR_materials_ior":{"ior":1.0}}},{"name":"material_0_material","pbrMetallicRoughness":{"baseColorTexture":{"index":0},"metallicFactor":0.0},"extensions":{"KHR_materials_specular":{"specularFactor":1.0,"specularColorFactor":[0.0,0.0,0.0]},"KHR_materials_ior":{"ior":1.0}}},{"name":"material_1_material","pbrMetallicRoughness":{"baseColorTexture":{"index":1},"metallicFactor":0.0},"extensions":{"KHR_materials_specular":{"specularFactor":1.0,"specularColorFactor":[0.0,0.0,0.0]},"KHR_materials_ior":{"ior":1.0}}}],"meshes":[{"name":"defaultobject","primitives":[{"mode":4,"material":1,"indices":2,"attributes":{"POSITION":0,"TEXCOORD_0":1}},{"mode":4,"material":2,"indices":5,"attributes":{"POSITION":3,"TEXCOORD_0":4}}]}],"nodes":[{"name":"tile_0497.obj","children":[1]},{"name":"defaultobject","mesh":0}],"samplers":[{},{}],"scenes":[{"nodes":[0]}],"textures":[{"source":0,"sampler":0},{"source":1,"sampler":1}],"scene":0}
