{"asset":{"version":"2.0","generator":"Open Asset Import Library (assimp v6.0.0)"},"extensionsUsed":["KHR_materials_specular","KHR_materials_volume","KHR_materials_ior","FB_ngon_encoding"],"accessors":[{"bufferView":0,"byteOffset":0,"componentType":5126,"count":4511,"type":"VEC3","max":[-1.8690428733825684,0.2847900688648224,4.176759719848633],"min":[-2.1793336868286133,-0.03946375101804733,2.2250738585072014e-308]},{"bufferView":1,"byteOffset":0,"componentType":5126,"count":4511,"type":"VEC2","max":[0.9958345890045166,0.5344409942626953],"min":[2.2250738585072014e-308,2.2250738585072014e-308]},{"bufferView":2,"byteOffset":0,"componentType":5125,"count":20088,"type":"SCALAR","max":[4510],"min":[0]},{"bufferView":3,"byteOffset":0,"componentType":5126,"count":1554,"type":"VEC3","max":[-1.8681135177612305,0.2833925783634186,4.175088405609131],"min":[-2.1777846813201904,-0.03873034566640854,2.2250738585072014e-308]},{"bufferView":4,"byteOffset":0,"componentType":5126,"count":1554,"type":"VEC2","max":[0.4975852966308594,0.7014560699462891],"min":[2.2250738585072014e-308,2.2250738585072014e-308]},{"bufferView":5,"byteOffset":0,"componentType":5125,"count":7878,"type":"SCALAR","max":[1553],"min":[0]}],"buffers":[{"byteLength":233164,"uri":"tile_0136.bin"}],"bufferViews":[{"buffer":0,"byteOffset":0,"byteLength":54132,"target":34962},{"buffer":0,"byteOffset":54132,"byteLength":36088,"target":34962},{"buffer":0,"byteOffset":90220,"byteLength":80352,"target":34963},{"buffer":0,"byteOffset":170572,"byteLength":18648,"target":34962},{"buffer":0,"byteOffset":189220,"byteLength":12432,"target":34962},{"buffer":0,"byteOffset":201652,"byteLength":31512,"target":34963}],"images":[{"uri":"../textures/tile_0136_material_0.jpg"},{"uri":"../textures/tile_0136_material_1.jpg"}],"materials":[{"name":"DefaultMaterial","pbrMetallicRoughness":{"baseColorFactor":[0.6000000238418579,0.6000000238418579,0.6000000238418579,1.0],"metallicFactor":0.0},"extensions":{"KHR_materials_specular":{"specularFactor":1.0,"specularColorFactor":[0.0,0.0,0.0]},"KHR_materials_ior":{"ior":1.0}}},{"name":"material_0_material","pbrMetallicRoughness":{"baseColorTexture":{"index":0},"metallicFactor":0.0},"extensions":{"KHR_materials_specular":{"specularFactor":1.0,"specularColorFactor":[0.0,0.0,0.0]},"KHR_materials_ior":{"ior":1.0}}},{"name":"material_1_material","pbrMetallicRoughness":{"baseColorTexture":{"index":1},"metallicFactor":0.0},"extensions":{"KHR_materials_specular":{"specularFactor":1.0,"specularColorFactor":[0.0,0.0,0.0]},"KHR_materials_ior":{"ior":1.0}}}],"meshes":[{"name":"defaultobject","primitives":[{"mode":4,"material":1,"indices":2,"attributes":{"POSITION":0,"TEXCOORD_0":1}},{"mode":4,"material":2,"indices":5,"attributes":{"POSITION":3,"TEXCOORD_0":4}}]}],"nodes":[{"name":"tile_0136.obj","children":[1]},{"name":"defaultobject","mesh":0}],"samplers":[{},{}],"scenes":[{"nodes":[0]}],"textures":[{"source":0,"sampler":0},{"source":1,"sampler":1}],"scene":0}
