{"asset":{"version":"2.0","generator":"Open Asset Import Library (assimp v6.0.0)"},"extensionsUsed":["KHR_materials_specular","KHR_materials_volume","KHR_materials_ior","FB_ngon_encoding"],"accessors":[{"bufferView":0,"byteOffset":0,"componentType":5126,"count":2704,"type":"VEC3","max":[4.419894695281982,-3.8365676403045654,3.697699546813965],"min":[2.2250738585072014e-308,-4.164290904998779,2.2250738585072014e-308]},{"bufferView":1,"byteOffset":0,"componentType":5126,"count":2704,"type":"VEC2","max":[0.9902901649475098,0.5529670715332031],"min":[2.2250738585072014e-308,2.2250738585072014e-308]},{"bufferView":2,"byteOffset":0,"componentType":5125,"count":11550,"type":"SCALAR","max":[2703],"min":[0]},{"bufferView":3,"byteOffset":0,"componentType":5126,"count":1476,"type":"VEC3","max":[4.395925521850586,-3.805487632751465,3.7268083095550537],"min":[2.2250738585072014e-308,-4.159536361694336,2.2250738585072014e-308]},{"bufferView":4,"byteOffset":0,"componentType":5126,"count":1476,"type":"VEC2","max":[0.9837822914123535,0.6091442108154297],"min":[2.2250738585072014e-308,2.2250738585072014e-308]},{"bufferView":5,"byteOffset":0,"componentType":5125,"count":7425,"type":"SCALAR","max":[1475],"min":[0]}],"buffers":[{"byteLength":159500,"uri":"tile_0748.bin"}],"bufferViews":[{"buffer":0,"byteOffset":0,"byteLength":32448,"target":34962},{"buffer":0,"byteOffset":32448,"byteLength":21632,"target":34962},{"buffer":0,"byteOffset":54080,"byteLength":46200,"target":34963},{"buffer":0,"byteOffset":100280,"byteLength":17712,"target":34962},{"buffer":0,"byteOffset":117992,"byteLength":11808,"target":34962},{"buffer":0,"byteOffset":129800,"byteLength":29700,"target":34963}],"images":[{"uri":"../textures/tile_0748_material_0.jpg"},{"uri":"../textures/tile_0748_material_1.jpg"}],"materials":[{"name":"DefaultMaterial","pbrMetallicRoughness":{"baseColorFactor":[0.6000000238418579,0.6000000238418579,0.6000000238418579,1.0],"metallicFactor":0.0},"extensions":{"KHR_materials_specular":{"specularFactor":1.0,"specularColorFactor":[0.0,0.0,0.0]},"KHR_materials_ior":{"ior":1.0}}},{"name":"material_0_material","pbrMetallicRoughness":{"baseColorTexture":{"index":0},"metallicFactor":0.0},"extensions":{"KHR_materials_specular":{"specularFactor":1.0,"specularColorFactor":[0.0,0.0,0.0]},"KHR_materials_ior":{"ior":1.0}}},{"name":"material_1_material","pbrMetallicRoughness":{"baseColorTexture":{"index":1},"metallicFactor":0.0},"extensions":{"KHR_materials_specular":{"specularFactor":1.0,"specularColorFactor":[0.0,0.0,0.0]},"KHR_materials_ior":{"ior":1.0}}}],"meshes":[{"name":"defaultobject","primitives":[{"mode":4,"material":1,"indices":2,"attributes":{"POSITION":0,"TEXCOORD_0":1}},{"mode":4,"material":2,"indices":5,"attributes":{"POSITION":3,"TEXCOORD_0":4}}]}],"nodes":[{"name":"tile_0748.obj","children":[1]},{"name":"defaultobject","mesh":0}],"samplers":[{},{}],"scenes":[{"nodes":[0]}],"textures":[{"source":0,"sampler":0},{"source":1,"sampler":1}],"scene":0}
