{"asset":{"version":"2.0","generator":"Open Asset Import Library (assimp v6.0.0)"},"extensionsUsed":["KHR_materials_specular","KHR_materials_volume","KHR_materials_ior","FB_ngon_encoding"],"accessors":[{"bufferView":0,"byteOffset":0,"componentType":5126,"count":3680,"type":"VEC3","max":[0.42595499753952026,5.074487209320068,4.719349384307861],"min":[2.2250738585072014e-308,2.2250738585072014e-308,2.2250738585072014e-308]},{"bufferView":1,"byteOffset":0,"componentType":5126,"count":3680,"type":"VEC2","max":[0.9896085262298584,0.7714557647705078],"min":[2.2250738585072014e-308,2.2250738585072014e-308]},{"bufferView":2,"byteOffset":0,"componentType":5125,"count":16755,"type":"SCALAR","max":[3679],"min":[0]},{"bufferView":3,"byteOffset":0,"componentType":5126,"count":1126,"type":"VEC3","max":[0.4307854175567627,5.07720422744751,4.721248149871826],"min":[2.2250738585072014e-308,2.2250738585072014e-308,2.2250738585072014e-308]},{"bufferView":4,"byteOffset":0,"componentType":5126,"count":1126,"type":"VEC2","max":[0.972682535648346,0.9497318267822266],"min":[2.2250738585072014e-308,2.2250738585072014e-308]},{"bufferView":5,"byteOffset":0,"componentType":5125,"count":5487,"type":"SCALAR","max":[1125],"min":[0]}],"buffers":[{"byteLength":185088,"uri":"tile_0697.bin"}],"bufferViews":[{"buffer":0,"byteOffset":0,"byteLength":44160,"target":34962},{"buffer":0,"byteOffset":44160,"byteLength":29440,"target":34962},{"buffer":0,"byteOffset":73600,"byteLength":67020,"target":34963},{"buffer":0,"byteOffset":140620,"byteLength":13512,"target":34962},{"buffer":0,"byteOffset":154132,"byteLength":9008,"target":34962},{"buffer":0,"byteOffset":163140,"byteLength":21948,"target":34963}],"images":[{"uri":"../textures/tile_0697_material_0.jpg"},{"uri":"../textures/tile_0697_material_1.jpg"}],"materials":[{"name":"DefaultMaterial","pbrMetallicRoughness":{"baseColorFactor":[0.6000000238418579,0.6000000238418579,0.6000000238418579,1.0],"metallicFactor":0.0},"extensions":{"KHR_materials_specular":{"specularFactor":1.0,"specularColorFactor":[0.0,0.0,0.0]},"KHR_materials_ior":{"ior":1.0}}},{"name":"material_0_material","pbrMetallicRoughness":{"baseColorTexture":{"index":0},"metallicFactor":0.0},"extensions":{"KHR_materials_specular":{"specularFactor":1.0,"specularColorFactor":[0.0,0.0,0.0]},"KHR_materials_ior":{"ior":1.0}}},{"name":"material_1_material","pbrMetallicRoughness":{"baseColorTexture":{"index":1},"metallicFactor":0.0},"extensions":{"KHR_materials_specular":{"specularFactor":1.0,"specularColorFactor":[0.0,0.0,0.0]},"KHR_materials_ior":{"ior":1.0}}}],"meshes":[{"name":"defaultobject","primitives":[{"mode":4,"material":1,"indices":2,"attributes":{"POSITION":0,"TEXCOORD_0":1}},{"mode":4,"material":2,"indices":5,"attributes":{"POSITION":3,"TEXCOORD_0":4}}]}],"nodes":[{"name":"tile_0697.obj","children":[1]},{"name":"defaultobject","mesh":0}],"samplers":[{},{}],"scenes":[{"nodes":[0]}],"textures":[{"source":0,"sampler":0},{"source":1,"sampler":1}],"scene":0}
