{"asset":{"version":"2.0","generator":"Open Asset Import Library (assimp v6.0.0)"},"extensionsUsed":["KHR_materials_specular","KHR_materials_volume","KHR_materials_ior","FB_ngon_encoding"],"accessors":[{"bufferView":0,"byteOffset":0,"componentType":5126,"count":3310,"type":"VEC3","max":[2.0345451831817627,-4.323237895965576,3.234647274017334],"min":[2.2250738585072014e-308,-4.6681952476501465,2.2250738585072014e-308]},{"bufferView":1,"byteOffset":0,"componentType":5126,"count":3310,"type":"VEC2","max":[0.9919028282165527,0.5450401306152344],"min":[2.2250738585072014e-308,2.2250738585072014e-308]},{"bufferView":2,"byteOffset":0,"componentType":5125,"count":14466,"type":"SCALAR","max":[3309],"min":[0]},{"bufferView":3,"byteOffset":0,"componentType":5126,"count":1124,"type":"VEC3","max":[2.031812906265259,-4.324005126953125,3.1906347274780273],"min":[2.2250738585072014e-308,-4.6648101806640625,2.2250738585072014e-308]},{"bufferView":4,"byteOffset":0,"componentType":5126,"count":1124,"type":"VEC2","max":[0.5944204330444336,0.5186500549316406],"min":[2.2250738585072014e-308,2.2250738585072014e-308]},{"bufferView":5,"byteOffset":0,"componentType":5125,"count":5820,"type":"SCALAR","max":[1123],"min":[0]}],"buffers":[{"byteLength":169824,"uri":"tile_0783.bin"}],"bufferViews":[{"buffer":0,"byteOffset":0,"byteLength":39720,"target":34962},{"buffer":0,"byteOffset":39720,"byteLength":26480,"target":34962},{"buffer":0,"byteOffset":66200,"byteLength":57864,"target":34963},{"buffer":0,"byteOffset":124064,"byteLength":13488,"target":34962},{"buffer":0,"byteOffset":137552,"byteLength":8992,"target":34962},{"buffer":0,"byteOffset":146544,"byteLength":23280,"target":34963}],"images":[{"uri":"../textures/tile_0783_material_0.jpg"},{"uri":"../textures/tile_0783_material_1.jpg"}],"materials":[{"name":"DefaultMaterial","pbrMetallicRoughness":{"baseColorFactor":[0.6000000238418579,0.6000000238418579,0.6000000238418579,1.0],"metallicFactor":0.0},"extensions":{"KHR_materials_specular":{"specularFactor":1.0,"specularColorFactor":[0.0,0.0,0.0]},"KHR_materials_ior":{"ior":1.0}}},{"name":"material_0_material","pbrMetallicRoughness":{"baseColorTexture":{"index":0},"metallicFactor":0.0},"extensions":{"KHR_materials_specular":{"specularFactor":1.0,"specularColorFactor":[0.0,0.0,0.0]},"KHR_materials_ior":{"ior":1.0}}},{"name":"material_1_material","pbrMetallicRoughness":{"baseColorTexture":{"index":1},"metallicFactor":0.0},"extensions":{"KHR_materials_specular":{"specularFactor":1.0,"specularColorFactor":[0.0,0.0,0.0]},"KHR_materials_ior":{"ior":1.0}}}],"meshes":[{"name":"defaultobject","primitives":[{"mode":4,"material":1,"indices":2,"attributes":{"POSITION":0,"TEXCOORD_0":1}},{"mode":4,"material":2,"indices":5,"attributes":{"POSITION":3,"TEXCOORD_0":4}}]}],"nodes":[{"name":"tile_0783.obj","children":[1]},{"name":"defaultobject","mesh":0}],"samplers":[{},{}],"scenes":[{"nodes":[0]}],"textures":[{"source":0,"sampler":0},{"source":1,"sampler":1}],"scene":0}
