{"asset":{"version":"2.0","generator":"Open Asset Import Library (assimp v6.0.0)"},"extensionsUsed":["KHR_materials_specular","KHR_materials_volume","KHR_materials_ior","FB_ngon_encoding"],"accessors":[{"bufferView":0,"byteOffset":0,"componentType":5126,"count":3522,"type":"VEC3","max":[-1.2807382345199585,-2.7552425861358643,2.400111436843872],"min":[-1.4549379348754883,-3.138209581375122,2.2250738585072014e-308]},{"bufferView":1,"byteOffset":0,"componentType":5126,"count":3522,"type":"VEC2","max":[0.9928951263427734,0.8898735046386719],"min":[2.2250738585072014e-308,2.2250738585072014e-308]},{"bufferView":2,"byteOffset":0,"componentType":5125,"count":16386,"type":"SCALAR","max":[3521],"min":[0]},{"bufferView":3,"byteOffset":0,"componentType":5126,"count":1629,"type":"VEC3","max":[-1.2818318605422974,-2.7560038566589355,2.398472309112549],"min":[-1.454562783241272,-3.139439105987549,2.2250738585072014e-308]},{"bufferView":4,"byteOffset":0,"componentType":5126,"count":1629,"type":"VEC2","max":[0.7807426452636719,0.49510765075683594],"min":[2.2250738585072014e-308,2.2250738585072014e-308]},{"bufferView":5,"byteOffset":0,"componentType":5125,"count":8331,"type":"SCALAR","max":[1628],"min":[0]}],"buffers":[{"byteLength":201888,"uri":"tile_0036.bin"}],"bufferViews":[{"buffer":0,"byteOffset":0,"byteLength":42264,"target":34962},{"buffer":0,"byteOffset":42264,"byteLength":28176,"target":34962},{"buffer":0,"byteOffset":70440,"byteLength":65544,"target":34963},{"buffer":0,"byteOffset":135984,"byteLength":19548,"target":34962},{"buffer":0,"byteOffset":155532,"byteLength":13032,"target":34962},{"buffer":0,"byteOffset":168564,"byteLength":33324,"target":34963}],"images":[{"uri":"../textures/tile_0036_material_0.jpg"},{"uri":"../textures/tile_0036_material_1.jpg"}],"materials":[{"name":"DefaultMaterial","pbrMetallicRoughness":{"baseColorFactor":[0.6000000238418579,0.6000000238418579,0.6000000238418579,1.0],"metallicFactor":0.0},"extensions":{"KHR_materials_specular":{"specularFactor":1.0,"specularColorFactor":[0.0,0.0,0.0]},"KHR_materials_ior":{"ior":1.0}}},{"name":"material_0_material","pbrMetallicRoughness":{"baseColorTexture":{"index":0},"metallicFactor":0.0},"extensions":{"KHR_materials_specular":{"specularFactor":1.0,"specularColorFactor":[0.0,0.0,0.0]},"KHR_materials_ior":{"ior":1.0}}},{"name":"material_1_material","pbrMetallicRoughness":{"baseColorTexture":{"index":1},"metallicFactor":0.0},"extensions":{"KHR_materials_specular":{"specularFactor":1.0,"specularColorFactor":[0.0,0.0,0.0]},"KHR_materials_ior":{"ior":1.0}}}],"meshes":[{"name":"defaultobject","primitives":[{"mode":4,"material":1,"indices":2,"attributes":{"POSITION":0,"TEXCOORD_0":1}},{"mode":4,"material":2,"indices":5,"attributes":{"POSITION":3,"TEXCOORD_0":4}}]}],"nodes":[{"name":"tile_0036.obj","children":[1]},{"name":"defaultobject","mesh":0}],"samplers":[{},{}],"scenes":[{"nodes":[0]}],"textures":[{"source":0,"sampler":0},{"source":1,"sampler":1}],"scene":0}
