{"asset":{"version":"2.0","generator":"Open Asset Import Library (assimp v6.0.0)"},"extensionsUsed":["KHR_materials_specular","KHR_materials_volume","KHR_materials_ior","FB_ngon_encoding"],"accessors":[{"bufferView":0,"byteOffset":0,"componentType":5126,"count":4106,"type":"VEC3","max":[-4.845773220062256,-0.4817361831665039,3.9983651638031006],"min":[-5.3591814041137695,-0.7859096527099609,2.2250738585072014e-308]},{"bufferView":1,"byteOffset":0,"componentType":5126,"count":4106,"type":"VEC2","max":[0.9897180199623108,0.5507030487060547],"min":[2.2250738585072014e-308,2.2250738585072014e-308]},{"bufferView":2,"byteOffset":0,"componentType":5125,"count":19173,"type":"SCALAR","max":[4105],"min":[0]},{"bufferView":3,"byteOffset":0,"componentType":5126,"count":781,"type":"VEC3","max":[-4.848667144775391,-0.5381268858909607,3.9572525024414062],"min":[-5.358616828918457,-0.7814555764198303,2.2250738585072014e-308]},{"bufferView":4,"byteOffset":0,"componentType":5126,"count":781,"type":"VEC2","max":[0.71356201171875,0.8316650390625],"min":[2.2250738585072014e-308,2.2250738585072014e-308]},{"bufferView":5,"byteOffset":0,"componentType":5125,"count":4086,"type":"SCALAR","max":[780],"min":[0]}],"buffers":[{"byteLength":190776,"uri":"tile_0434.bin"}],"bufferViews":[{"buffer":0,"byteOffset":0,"byteLength":49272,"target":34962},{"buffer":0,"byteOffset":49272,"byteLength":32848,"target":34962},{"buffer":0,"byteOffset":82120,"byteLength":76692,"target":34963},{"buffer":0,"byteOffset":158812,"byteLength":9372,"target":34962},{"buffer":0,"byteOffset":168184,"byteLength":6248,"target":34962},{"buffer":0,"byteOffset":174432,"byteLength":16344,"target":34963}],"images":[{"uri":"../textures/tile_0434_material_0.jpg"},{"uri":"../textures/tile_0434_material_1.jpg"}],"materials":[{"name":"DefaultMaterial","pbrMetallicRoughness":{"baseColorFactor":[0.6000000238418579,0.6000000238418579,0.6000000238418579,1.0],"metallicFactor":0.0},"extensions":{"KHR_materials_specular":{"specularFactor":1.0,"specularColorFactor":[0.0,0.0,0.0]},"KHR_materials_ior":{"ior":1.0}}},{"name":"material_0_material","pbrMetallicRoughness":{"baseColorTexture":{"index":0},"metallicFactor":0.0},"extensions":{"KHR_materials_specular":{"specularFactor":1.0,"specularColorFactor":[0.0,0.0,0.0]},"KHR_materials_ior":{"ior":1.0}}},{"name":"material_1_material","pbrMetallicRoughness":{"baseColorTexture":{"index":1},"metallicFactor":0.0},"extensions":{"KHR_materials_specular":{"specularFactor":1.0,"specularColorFactor":[0.0,0.0,0.0]},"KHR_materials_ior":{"ior":1.0}}}],"meshes":[{"name":"defaultobject","primitives":[{"mode":4,"material":1,"indices":2,"attributes":{"POSITION":0,"TEXCOORD_0":1}},{"mode":4,"material":2,"indices":5,"attributes":{"POSITION":3,"TEXCOORD_0":4}}]}],"nodes":[{"name":"tile_0434.obj","children":[1]},{"name":"defaultobject","mesh":0}],"samplers":[{},{}],"scenes":[{"nodes":[0]}],"textures":[{"source":0,"sampler":0},{"source":1,"sampler":1}],"scene":0}
