{"asset":{"version":"2.0","generator":"Open Asset Import Library (assimp v6.0.0)"},"extensionsUsed":["KHR_materials_specular","KHR_materials_volume","KHR_materials_ior","FB_ngon_encoding"],"accessors":[{"bufferView":0,"byteOffset":0,"componentType":5126,"count":6075,"type":"VEC3","max":[-2.7962777614593506,3.8637545108795166,4.695060729980469],"min":[-3.1346397399902344,2.2250738585072014e-308,2.2250738585072014e-308]},{"bufferView":1,"byteOffset":0,"componentType":5126,"count":6075,"type":"VEC2","max":[0.9925518035888672,0.671875],"min":[2.2250738585072014e-308,2.2250738585072014e-308]},{"bufferView":2,"byteOffset":0,"componentType":5125,"count":27891,"type":"SCALAR","max":[6074],"min":[0]},{"bufferView":3,"byteOffset":0,"componentType":5126,"count":228,"type":"VEC3","max":[-2.7968058586120605,3.8619163036346436,4.687561511993408],"min":[-2.900916337966919,2.2250738585072014e-308,2.2250738585072014e-308]},{"bufferView":4,"byteOffset":0,"componentType":5126,"count":228,"type":"VEC2","max":[0.5065078735351562,0.931182861328125],"min":[2.2250738585072014e-308,2.2250738585072014e-308]},{"bufferView":5,"byteOffset":0,"componentType":5125,"count":1053,"type":"SCALAR","max":[227],"min":[0]}],"buffers":[{"byteLength":241836,"uri":"tile_0494.bin"}],"bufferViews":[{"buffer":0,"byteOffset":0,"byteLength":72900,"target":34962},{"buffer":0,"byteOffset":72900,"byteLength":48600,"target":34962},{"buffer":0,"byteOffset":121500,"byteLength":111564,"target":34963},{"buffer":0,"byteOffset":233064,"byteLength":2736,"target":34962},{"buffer":0,"byteOffset":235800,"byteLength":1824,"target":34962},{"buffer":0,"byteOffset":237624,"byteLength":4212,"target":34963}],"images":[{"uri":"../textures/tile_0494_material_0.jpg"},{"uri":"../textures/tile_0494_material_1.jpg"}],"materials":[{"name":"DefaultMaterial","pbrMetallicRoughness":{"baseColorFactor":[0.6000000238418579,0.6000000238418579,0.6000000238418579,1.0],"metallicFactor":0.0},"extensions":{"KHR_materials_specular":{"specularFactor":1.0,"specularColorFactor":[0.0,0.0,0.0]},"KHR_materials_ior":{"ior":1.0}}},{"name":"material_0_material","pbrMetallicRoughness":{"baseColorTexture":{"index":0},"metallicFactor":0.0},"extensions":{"KHR_materials_specular":{"specularFactor":1.0,"specularColorFactor":[0.0,0.0,0.0]},"KHR_materials_ior":{"ior":1.0}}},{"name":"material_1_material","pbrMetallicRoughness":{"baseColorTexture":{"index":1},"metallicFactor":0.0},"extensions":{"KHR_materials_specular":{"specularFactor":1.0,"specularColorFactor":[0.0,0.0,0.0]},"KHR_materials_ior":{"ior":1.0}}}],"meshes":[{"name":"defaultobject","primitives":[{"mode":4,"material":1,"indices":2,"attributes":{"POSITION":0,"TEXCOORD_0":1}},{"mode":4,"material":2,"indices":5,"attributes":{"POSITION":3,"TEXCOORD_0":4}}]}],"nodes":[{"name":"tile_0494.obj","children":[1]},{"name":"defaultobject","mesh":0}],"samplers":[{},{}],"scenes":[{"nodes":[0]}],"textures":[{"source":0,"sampler":0},{"source":1,"sampler":1}],"scene":0}
