{"asset":{"version":"2.0","generator":"Open Asset Import Library (assimp v6.0.0)"},"extensionsUsed":["KHR_materials_specular","KHR_materials_volume","KHR_materials_ior","FB_ngon_encoding"],"accessors":[{"bufferView":0,"byteOffset":0,"componentType":5126,"count":6359,"type":"VEC3","max":[-3.4837825298309326,0.06518948078155518,4.144871711730957],"min":[-3.955810785293579,-0.2858152389526367,2.2250738585072014e-308]},{"bufferView":1,"byteOffset":0,"componentType":5126,"count":6359,"type":"VEC2","max":[0.9920401573181152,0.5968132019042969],"min":[2.2250738585072014e-308,2.2250738585072014e-308]},{"bufferView":2,"byteOffset":0,"componentType":5125,"count":26706,"type":"SCALAR","max":[6358],"min":[0]},{"bufferView":3,"byteOffset":0,"componentType":5126,"count":217,"type":"VEC3","max":[-3.4846880435943604,-0.06462525576353073,4.1414289474487305],"min":[-3.5874993801116943,-0.22888636589050293,2.2250738585072014e-308]},{"bufferView":4,"byteOffset":0,"componentType":5126,"count":217,"type":"VEC2","max":[0.7204856872558594,0.9481049180030823],"min":[2.2250738585072014e-308,2.2250738585072014e-308]},{"bufferView":5,"byteOffset":0,"componentType":5125,"count":1044,"type":"SCALAR","max":[216],"min":[0]}],"buffers":[{"byteLength":242520,"uri":"tile_0448.bin"}],"bufferViews":[{"buffer":0,"byteOffset":0,"byteLength":76308,"target":34962},{"buffer":0,"byteOffset":76308,"byteLength":50872,"target":34962},{"buffer":0,"byteOffset":127180,"byteLength":106824,"target":34963},{"buffer":0,"byteOffset":234004,"byteLength":2604,"target":34962},{"buffer":0,"byteOffset":236608,"byteLength":1736,"target":34962},{"buffer":0,"byteOffset":238344,"byteLength":4176,"target":34963}],"images":[{"uri":"../textures/tile_0448_material_0.jpg"},{"uri":"../textures/tile_0448_material_1.jpg"}],"materials":[{"name":"DefaultMaterial","pbrMetallicRoughness":{"baseColorFactor":[0.6000000238418579,0.6000000238418579,0.6000000238418579,1.0],"metallicFactor":0.0},"extensions":{"KHR_materials_specular":{"specularFactor":1.0,"specularColorFactor":[0.0,0.0,0.0]},"KHR_materials_ior":{"ior":1.0}}},{"name":"material_0_material","pbrMetallicRoughness":{"baseColorTexture":{"index":0},"metallicFactor":0.0},"extensions":{"KHR_materials_specular":{"specularFactor":1.0,"specularColorFactor":[0.0,0.0,0.0]},"KHR_materials_ior":{"ior":1.0}}},{"name":"material_1_material","pbrMetallicRoughness":{"baseColorTexture":{"index":1},"metallicFactor":0.0},"extensions":{"KHR_materials_specular":{"specularFactor":1.0,"specularColorFactor":[0.0,0.0,0.0]},"KHR_materials_ior":{"ior":1.0}}}],"meshes":[{"name":"defaultobject","primitives":[{"mode":4,"material":1,"indices":2,"attributes":{"POSITION":0,"TEXCOORD_0":1}},{"mode":4,"material":2,"indices":5,"attributes":{"POSITION":3,"TEXCOORD_0":4}}]}],"nodes":[{"name":"tile_0448.obj","children":[1]},{"name":"defaultobject","mesh":0}],"samplers":[{},{}],"scenes":[{"nodes":[0]}],"textures":[{"source":0,"sampler":0},{"source":1,"sampler":1}],"scene":0}
