{"asset":{"version":"2.0","generator":"Open Asset Import Library (assimp v6.0.0)"},"extensionsUsed":["KHR_materials_specular","KHR_materials_volume","KHR_materials_ior","FB_ngon_encoding"],"accessors":[{"bufferView":0,"byteOffset":0,"componentType":5126,"count":5372,"type":"VEC3","max":[-1.8612743616104126,1.2141438722610474,4.20609712600708],"min":[-2.178079843521118,2.2250738585072014e-308,2.2250738585072014e-308]},{"bufferView":1,"byteOffset":0,"componentType":5126,"count":5372,"type":"VEC2","max":[0.9938387870788574,0.5387973785400391],"min":[2.2250738585072014e-308,2.2250738585072014e-308]},{"bufferView":2,"byteOffset":0,"componentType":5125,"count":24054,"type":"SCALAR","max":[5371],"min":[0]},{"bufferView":3,"byteOffset":0,"componentType":5126,"count":425,"type":"VEC3","max":[-2.011498212814331,1.2127797603607178,4.116682529449463],"min":[-2.177103042602539,2.2250738585072014e-308,2.2250738585072014e-308]},{"bufferView":4,"byteOffset":0,"componentType":5126,"count":425,"type":"VEC2","max":[0.6464023590087891,0.6922836303710938],"min":[2.2250738585072014e-308,2.2250738585072014e-308]},{"bufferView":5,"byteOffset":0,"componentType":5125,"count":1965,"type":"SCALAR","max":[424],"min":[0]}],"buffers":[{"byteLength":220016,"uri":"tile_0147.bin"}],"bufferViews":[{"buffer":0,"byteOffset":0,"byteLength":64464,"target":34962},{"buffer":0,"byteOffset":64464,"byteLength":42976,"target":34962},{"buffer":0,"byteOffset":107440,"byteLength":96216,"target":34963},{"buffer":0,"byteOffset":203656,"byteLength":5100,"target":34962},{"buffer":0,"byteOffset":208756,"byteLength":3400,"target":34962},{"buffer":0,"byteOffset":212156,"byteLength":7860,"target":34963}],"images":[{"uri":"../textures/tile_0147_material_0.jpg"},{"uri":"../textures/tile_0147_material_1.jpg"}],"materials":[{"name":"DefaultMaterial","pbrMetallicRoughness":{"baseColorFactor":[0.6000000238418579,0.6000000238418579,0.6000000238418579,1.0],"metallicFactor":0.0},"extensions":{"KHR_materials_specular":{"specularFactor":1.0,"specularColorFactor":[0.0,0.0,0.0]},"KHR_materials_ior":{"ior":1.0}}},{"name":"material_0_material","pbrMetallicRoughness":{"baseColorTexture":{"index":0},"metallicFactor":0.0},"extensions":{"KHR_materials_specular":{"specularFactor":1.0,"specularColorFactor":[0.0,0.0,0.0]},"KHR_materials_ior":{"ior":1.0}}},{"name":"material_1_material","pbrMetallicRoughness":{"baseColorTexture":{"index":1},"metallicFactor":0.0},"extensions":{"KHR_materials_specular":{"specularFactor":1.0,"specularColorFactor":[0.0,0.0,0.0]},"KHR_materials_ior":{"ior":1.0}}}],"meshes":[{"name":"defaultobject","primitives":[{"mode":4,"material":1,"indices":2,"attributes":{"POSITION":0,"TEXCOORD_0":1}},{"mode":4,"material":2,"indices":5,"attributes":{"POSITION":3,"TEXCOORD_0":4}}]}],"nodes":[{"name":"tile_0147.obj","children":[1]},{"name":"defaultobject","mesh":0}],"samplers":[{},{}],"scenes":[{"nodes":[0]}],"textures":[{"source":0,"sampler":0},{"source":1,"sampler":1}],"scene":0}
