{"asset":{"version":"2.0","generator":"Open Asset Import Library (assimp v6.0.0)"},"extensionsUsed":["KHR_materials_specular","KHR_materials_volume","KHR_materials_ior","FB_ngon_encoding"],"accessors":[{"bufferView":0,"byteOffset":0,"componentType":5126,"count":1676,"type":"VEC3","max":[-1.7680773735046387,-0.7775058150291443,2.5174779891967773],"min":[-2.0485520362854004,-0.9943211078643799,2.2250738585072014e-308]},{"bufferView":1,"byteOffset":0,"componentType":5126,"count":1676,"type":"VEC2","max":[0.94921875,0.49755859375],"min":[2.2250738585072014e-308,2.2250738585072014e-308]},{"bufferView":2,"byteOffset":0,"componentType":5125,"count":8001,"type":"SCALAR","max":[1675],"min":[0]},{"bufferView":3,"byteOffset":0,"componentType":5126,"count":2143,"type":"VEC3","max":[-1.7678791284561157,-0.7780295014381409,2.5174779891967773],"min":[-2.0536694526672363,-0.9928976893424988,2.2250738585072014e-308]},{"bufferView":4,"byteOffset":0,"componentType":5126,"count":2143,"type":"VEC2","max":[0.6358661651611328,0.6244354248046875],"min":[2.2250738585072014e-308,2.2250738585072014e-308]},{"bufferView":5,"byteOffset":0,"componentType":5125,"count":11700,"type":"SCALAR","max":[2142],"min":[0]}],"buffers":[{"byteLength":155184,"uri":"tile_0048.bin"}],"bufferViews":[{"buffer":0,"byteOffset":0,"byteLength":20112,"target":34962},{"buffer":0,"byteOffset":20112,"byteLength":13408,"target":34962},{"buffer":0,"byteOffset":33520,"byteLength":32004,"target":34963},{"buffer":0,"byteOffset":65524,"byteLength":25716,"target":34962},{"buffer":0,"byteOffset":91240,"byteLength":17144,"target":34962},{"buffer":0,"byteOffset":108384,"byteLength":46800,"target":34963}],"images":[{"uri":"../textures/tile_0048_material_0.jpg"},{"uri":"../textures/tile_0048_material_1.jpg"}],"materials":[{"name":"DefaultMaterial","pbrMetallicRoughness":{"baseColorFactor":[0.6000000238418579,0.6000000238418579,0.6000000238418579,1.0],"metallicFactor":0.0},"extensions":{"KHR_materials_specular":{"specularFactor":1.0,"specularColorFactor":[0.0,0.0,0.0]},"KHR_materials_ior":{"ior":1.0}}},{"name":"material_0_material","pbrMetallicRoughness":{"baseColorTexture":{"index":0},"metallicFactor":0.0},"extensions":{"KHR_materials_specular":{"specularFactor":1.0,"specularColorFactor":[0.0,0.0,0.0]},"KHR_materials_ior":{"ior":1.0}}},{"name":"material_1_material","pbrMetallicRoughness":{"baseColorTexture":{"index":1},"metallicFactor":0.0},"extensions":{"KHR_materials_specular":{"specularFactor":1.0,"specularColorFactor":[0.0,0.0,0.0]},"KHR_materials_ior":{"ior":1.0}}}],"meshes":[{"name":"defaultobject","primitives":[{"mode":4,"material":1,"indices":2,"attributes":{"POSITION":0,"TEXCOORD_0":1}},{"mode":4,"material":2,"indices":5,"attributes":{"POSITION":3,"TEXCOORD_0":4}}]}],"nodes":[{"name":"tile_0048.obj","children":[1]},{"name":"defaultobject","mesh":0}],"samplers":[{},{}],"scenes":[{"nodes":[0]}],"textures":[{"source":0,"sampler":0},{"source":1,"sampler":1}],"scene":0}
