{"asset":{"version":"2.0","generator":"Open Asset Import Library (assimp v6.0.0)"},"extensionsUsed":["KHR_materials_specular","KHR_materials_volume","KHR_materials_ior","FB_ngon_encoding"],"accessors":[{"bufferView":0,"byteOffset":0,"componentType":5126,"count":4726,"type":"VEC3","max":[0.19462856650352478,5.070653915405273,4.763957500457764],"min":[-0.16607321798801422,2.2250738585072014e-308,2.2250738585072014e-308]},{"bufferView":1,"byteOffset":0,"componentType":5126,"count":4726,"type":"VEC2","max":[0.9938831925392151,0.6430168151855469],"min":[2.2250738585072014e-308,2.2250738585072014e-308]},{"bufferView":2,"byteOffset":0,"componentType":5125,"count":21945,"type":"SCALAR","max":[4725],"min":[0]},{"bufferView":3,"byteOffset":0,"componentType":5126,"count":231,"type":"VEC3","max":[0.1548929065465927,5.069793701171875,4.7548418045043945],"min":[-0.16050221025943756,2.2250738585072014e-308,2.2250738585072014e-308]},{"bufferView":4,"byteOffset":0,"componentType":5126,"count":231,"type":"VEC2","max":[0.6810016632080078,0.7685165405273438],"min":[2.2250738585072014e-308,2.2250738585072014e-308]},{"bufferView":5,"byteOffset":0,"componentType":5125,"count":1014,"type":"SCALAR","max":[230],"min":[0]}],"buffers":[{"byteLength":190976,"uri":"tile_0558.bin"}],"bufferViews":[{"buffer":0,"byteOffset":0,"byteLength":56712,"target":34962},{"buffer":0,"byteOffset":56712,"byteLength":37808,"target":34962},{"buffer":0,"byteOffset":94520,"byteLength":87780,"target":34963},{"buffer":0,"byteOffset":182300,"byteLength":2772,"target":34962},{"buffer":0,"byteOffset":185072,"byteLength":1848,"target":34962},{"buffer":0,"byteOffset":186920,"byteLength":4056,"target":34963}],"images":[{"uri":"../textures/tile_0558_material_0.jpg"},{"uri":"../textures/tile_0558_material_1.jpg"}],"materials":[{"name":"DefaultMaterial","pbrMetallicRoughness":{"baseColorFactor":[0.6000000238418579,0.6000000238418579,0.6000000238418579,1.0],"metallicFactor":0.0},"extensions":{"KHR_materials_specular":{"specularFactor":1.0,"specularColorFactor":[0.0,0.0,0.0]},"KHR_materials_ior":{"ior":1.0}}},{"name":"material_0_material","pbrMetallicRoughness":{"baseColorTexture":{"index":0},"metallicFactor":0.0},"extensions":{"KHR_materials_specular":{"specularFactor":1.0,"specularColorFactor":[0.0,0.0,0.0]},"KHR_materials_ior":{"ior":1.0}}},{"name":"material_1_material","pbrMetallicRoughness":{"baseColorTexture":{"index":1},"metallicFactor":0.0},"extensions":{"KHR_materials_specular":{"specularFactor":1.0,"specularColorFactor":[0.0,0.0,0.0]},"KHR_materials_ior":{"ior":1.0}}}],"meshes":[{"name":"defaultobject","primitives":[{"mode":4,"material":1,"indices":2,"attributes":{"POSITION":0,"TEXCOORD_0":1}},{"mode":4,"material":2,"indices":5,"attributes":{"POSITION":3,"TEXCOORD_0":4}}]}],"nodes":[{"name":"tile_0558.obj","children":[1]},{"name":"defaultobject","mesh":0}],"samplers":[{},{}],"scenes":[{"nodes":[0]}],"textures":[{"source":0,"sampler":0},{"source":1,"sampler":1}],"scene":0}
