{"asset":{"version":"2.0","generator":"Open Asset Import Library (assimp v6.0.0)"},"extensionsUsed":["KHR_materials_specular","KHR_materials_volume","KHR_materials_ior","FB_ngon_encoding"],"accessors":[{"bufferView":0,"byteOffset":0,"componentType":5126,"count":6159,"type":"VEC3","max":[-1.8620939254760742,1.622842788696289,4.117420196533203],"min":[-2.1779942512512207,2.2250738585072014e-308,2.2250738585072014e-308]},{"bufferView":1,"byteOffset":0,"componentType":5126,"count":6159,"type":"VEC2","max":[0.9952726364135742,0.6132659912109375],"min":[2.2250738585072014e-308,2.2250738585072014e-308]},{"bufferView":2,"byteOffset":0,"componentType":5125,"count":26523,"type":"SCALAR","max":[6158],"min":[0]},{"bufferView":3,"byteOffset":0,"componentType":5126,"count":67,"type":"VEC3","max":[-2.0877931118011475,1.2618474960327148,4.017780303955078],"min":[-2.1471004486083984,2.2250738585072014e-308,2.2250738585072014e-308]},{"bufferView":4,"byteOffset":0,"componentType":5126,"count":67,"type":"VEC2","max":[0.563446044921875,0.832244873046875],"min":[2.2250738585072014e-308,2.2250738585072014e-308]},{"bufferView":5,"byteOffset":0,"componentType":5125,"count":303,"type":"SCALAR","max":[66],"min":[0]}],"buffers":[{"byteLength":231824,"uri":"tile_0593.bin"}],"bufferViews":[{"buffer":0,"byteOffset":0,"byteLength":73908,"target":34962},{"buffer":0,"byteOffset":73908,"byteLength":49272,"target":34962},{"buffer":0,"byteOffset":123180,"byteLength":106092,"target":34963},{"buffer":0,"byteOffset":229272,"byteLength":804,"target":34962},{"buffer":0,"byteOffset":230076,"byteLength":536,"target":34962},{"buffer":0,"byteOffset":230612,"byteLength":1212,"target":34963}],"images":[{"uri":"../textures/tile_0593_material_0.jpg"},{"uri":"../textures/tile_0593_material_1.jpg"}],"materials":[{"name":"DefaultMaterial","pbrMetallicRoughness":{"baseColorFactor":[0.6000000238418579,0.6000000238418579,0.6000000238418579,1.0],"metallicFactor":0.0},"extensions":{"KHR_materials_specular":{"specularFactor":1.0,"specularColorFactor":[0.0,0.0,0.0]},"KHR_materials_ior":{"ior":1.0}}},{"name":"material_0_material","pbrMetallicRoughness":{"baseColorTexture":{"index":0},"metallicFactor":0.0},"extensions":{"KHR_materials_specular":{"specularFactor":1.0,"specularColorFactor":[0.0,0.0,0.0]},"KHR_materials_ior":{"ior":1.0}}},{"name":"material_1_material","pbrMetallicRoughness":{"baseColorTexture":{"index":1},"metallicFactor":0.0},"extensions":{"KHR_materials_specular":{"specularFactor":1.0,"specularColorFactor":[0.0,0.0,0.0]},"KHR_materials_ior":{"ior":1.0}}}],"meshes":[{"name":"defaultobject","primitives":[{"mode":4,"material":1,"indices":2,"attributes":{"POSITION":0,"TEXCOORD_0":1}},{"mode":4,"material":2,"indices":5,"attributes":{"POSITION":3,"TEXCOORD_0":4}}]}],"nodes":[{"name":"tile_0593.obj","children":[1]},{"name":"defaultobject","mesh":0}],"samplers":[{},{}],"scenes":[{"nodes":[0]}],"textures":[{"source":0,"sampler":0},{"source":1,"sampler":1}],"scene":0}
