{"asset":{"version":"2.0","generator":"Open Asset Import Library (assimp v6.0.0)"},"extensionsUsed":["KHR_materials_specular","KHR_materials_volume","KHR_materials_ior","FB_ngon_encoding"],"accessors":[{"bufferView":0,"byteOffset":0,"componentType":5126,"count":13630,"type":"VEC3","max":[0.735842227935791,2.0419468879699707,4.345401287078857],"min":[2.2250738585072014e-308,2.2250738585072014e-308,2.2250738585072014e-308]},{"bufferView":1,"byteOffset":0,"componentType":5126,"count":13630,"type":"VEC2","max":[0.9910488128662109,0.5683393478393555],"min":[2.2250738585072014e-308,2.2250738585072014e-308]},{"bufferView":2,"byteOffset":0,"componentType":5125,"count":60378,"type":"SCALAR","max":[13629],"min":[0]},{"bufferView":3,"byteOffset":0,"componentType":5126,"count":1347,"type":"VEC3","max":[0.7348078489303589,2.0381739139556885,4.329602241516113],"min":[2.2250738585072014e-308,2.2250738585072014e-308,2.2250738585072014e-308]},{"bufferView":4,"byteOffset":0,"componentType":5126,"count":1347,"type":"VEC2","max":[0.8178749084472656,0.801055908203125],"min":[2.2250738585072014e-308,2.2250738585072014e-308]},{"bufferView":5,"byteOffset":0,"componentType":5125,"count":7164,"type":"SCALAR","max":[1346],"min":[0]}],"buffers":[{"byteLength":569708,"uri":"tile_0195.bin"}],"bufferViews":[{"buffer":0,"byteOffset":0,"byteLength":163560,"target":34962},{"buffer":0,"byteOffset":163560,"byteLength":109040,"target":34962},{"buffer":0,"byteOffset":272600,"byteLength":241512,"target":34963},{"buffer":0,"byteOffset":514112,"byteLength":16164,"target":34962},{"buffer":0,"byteOffset":530276,"byteLength":10776,"target":34962},{"buffer":0,"byteOffset":541052,"byteLength":28656,"target":34963}],"images":[{"uri":"../textures/tile_0195_material_0.jpg"},{"uri":"../textures/tile_0195_material_1.jpg"}],"materials":[{"name":"DefaultMaterial","pbrMetallicRoughness":{"baseColorFactor":[0.6000000238418579,0.6000000238418579,0.6000000238418579,1.0],"metallicFactor":0.0},"extensions":{"KHR_materials_specular":{"specularFactor":1.0,"specularColorFactor":[0.0,0.0,0.0]},"KHR_materials_ior":{"ior":1.0}}},{"name":"material_0_material","pbrMetallicRoughness":{"baseColorTexture":{"index":0},"metallicFactor":0.0},"extensions":{"KHR_materials_specular":{"specularFactor":1.0,"specularColorFactor":[0.0,0.0,0.0]},"KHR_materials_ior":{"ior":1.0}}},{"name":"material_1_material","pbrMetallicRoughness":{"baseColorTexture":{"index":1},"metallicFactor":0.0},"extensions":{"KHR_materials_specular":{"specularFactor":1.0,"specularColorFactor":[0.0,0.0,0.0]},"KHR_materials_ior":{"ior":1.0}}}],"meshes":[{"name":"defaultobject","primitives":[{"mode":4,"material":1,"indices":2,"attributes":{"POSITION":0,"TEXCOORD_0":1}},{"mode":4,"material":2,"indices":5,"attributes":{"POSITION":3,"TEXCOORD_0":4}}]}],"nodes":[{"name":"tile_0195.obj","children":[1]},{"name":"defaultobject","mesh":0}],"samplers":[{},{}],"scenes":[{"nodes":[0]}],"textures":[{"source":0,"sampler":0},{"source":1,"sampler":1}],"scene":0}
