{"asset":{"version":"2.0","generator":"Open Asset Import Library (assimp v6.0.0)"},"extensionsUsed":["KHR_materials_specular","KHR_materials_volume","KHR_materials_ior","FB_ngon_encoding"],"accessors":[{"bufferView":0,"byteOffset":0,"componentType":5126,"count":3286,"type":"VEC3","max":[-5.347869396209717,0.1398979127407074,4.159417152404785],"min":[-6.20636510848999,-0.1786598414182663,2.2250738585072014e-308]},{"bufferView":1,"byteOffset":0,"componentType":5126,"count":3286,"type":"VEC2","max":[0.9833157062530518,0.5665378570556641],"min":[2.2250738585072014e-308,2.2250738585072014e-308]},{"bufferView":2,"byteOffset":0,"componentType":5125,"count":14814,"type":"SCALAR","max":[3285],"min":[0]},{"bufferView":3,"byteOffset":0,"componentType":5126,"count":1477,"type":"VEC3","max":[-5.53190279006958,0.14699748158454895,4.1781721115112305],"min":[-6.266565322875977,-0.17917142808437347,2.2250738585072014e-308]},{"bufferView":4,"byteOffset":0,"componentType":5126,"count":1477,"type":"VEC2","max":[0.8846731185913086,0.5631866455078125],"min":[2.2250738585072014e-308,2.2250738585072014e-308]},{"bufferView":5,"byteOffset":0,"componentType":5125,"count":8016,"type":"SCALAR","max":[1476],"min":[0]}],"buffers":[{"byteLength":186580,"uri":"tile_0128.bin"}],"bufferViews":[{"buffer":0,"byteOffset":0,"byteLength":39432,"target":34962},{"buffer":0,"byteOffset":39432,"byteLength":26288,"target":34962},{"buffer":0,"byteOffset":65720,"byteLength":59256,"target":34963},{"buffer":0,"byteOffset":124976,"byteLength":17724,"target":34962},{"buffer":0,"byteOffset":142700,"byteLength":11816,"target":34962},{"buffer":0,"byteOffset":154516,"byteLength":32064,"target":34963}],"images":[{"uri":"../textures/tile_0128_material_0.jpg"},{"uri":"../textures/tile_0128_material_1.jpg"}],"materials":[{"name":"DefaultMaterial","pbrMetallicRoughness":{"baseColorFactor":[0.6000000238418579,0.6000000238418579,0.6000000238418579,1.0],"metallicFactor":0.0},"extensions":{"KHR_materials_specular":{"specularFactor":1.0,"specularColorFactor":[0.0,0.0,0.0]},"KHR_materials_ior":{"ior":1.0}}},{"name":"material_0_material","pbrMetallicRoughness":{"baseColorTexture":{"index":0},"metallicFactor":0.0},"extensions":{"KHR_materials_specular":{"specularFactor":1.0,"specularColorFactor":[0.0,0.0,0.0]},"KHR_materials_ior":{"ior":1.0}}},{"name":"material_1_material","pbrMetallicRoughness":{"baseColorTexture":{"index":1},"metallicFactor":0.0},"extensions":{"KHR_materials_specular":{"specularFactor":1.0,"specularColorFactor":[0.0,0.0,0.0]},"KHR_materials_ior":{"ior":1.0}}}],"meshes":[{"name":"defaultobject","primitives":[{"mode":4,"material":1,"indices":2,"attributes":{"POSITION":0,"TEXCOORD_0":1}},{"mode":4,"material":2,"indices":5,"attributes":{"POSITION":3,"TEXCOORD_0":4}}]}],"nodes":[{"name":"tile_0128.obj","children":[1]},{"name":"defaultobject","mesh":0}],"samplers":[{},{}],"scenes":[{"nodes":[0]}],"textures":[{"source":0,"sampler":0},{"source":1,"sampler":1}],"scene":0}
