{"asset":{"version":"2.0","generator":"Open Asset Import Library (assimp v6.0.0)"},"extensionsUsed":["KHR_materials_specular","KHR_materials_volume","KHR_materials_ior","FB_ngon_encoding"],"accessors":[{"bufferView":0,"byteOffset":0,"componentType":5126,"count":7658,"type":"VEC3","max":[0.37228095531463623,-4.070940971374512,2.950774669647217],"min":[2.2250738585072014e-308,-4.509439468383789,2.2250738585072014e-308]},{"bufferView":1,"byteOffset":0,"componentType":5126,"count":7658,"type":"VEC2","max":[0.9927487373352051,0.7889785766601562],"min":[2.2250738585072014e-308,2.2250738585072014e-308]},{"bufferView":2,"byteOffset":0,"componentType":5125,"count":31785,"type":"SCALAR","max":[7657],"min":[0]},{"bufferView":3,"byteOffset":0,"componentType":5126,"count":5,"type":"VEC3","max":[0.36847418546676636,-4.072891712188721,2.891995906829834],"min":[2.2250738585072014e-308,-4.0790300369262695,2.2250738585072014e-308]},{"bufferView":4,"byteOffset":0,"componentType":5126,"count":5,"type":"VEC2","max":[0.4416501522064209,0.5778501033782959],"min":[2.2250738585072014e-308,2.2250738585072014e-308]},{"bufferView":5,"byteOffset":0,"componentType":5125,"count":9,"type":"SCALAR","max":[4],"min":[0]}],"buffers":[{"byteLength":280436,"uri":"tile_0767.bin"}],"bufferViews":[{"buffer":0,"byteOffset":0,"byteLength":91896,"target":34962},{"buffer":0,"byteOffset":91896,"byteLength":61264,"target":34962},{"buffer":0,"byteOffset":153160,"byteLength":127140,"target":34963},{"buffer":0,"byteOffset":280300,"byteLength":60,"target":34962},{"buffer":0,"byteOffset":280360,"byteLength":40,"target":34962},{"buffer":0,"byteOffset":280400,"byteLength":36,"target":34963}],"images":[{"uri":"../textures/tile_0767_material_0.jpg"},{"uri":"../textures/tile_0767_material_1.jpg"}],"materials":[{"name":"DefaultMaterial","pbrMetallicRoughness":{"baseColorFactor":[0.6000000238418579,0.6000000238418579,0.6000000238418579,1.0],"metallicFactor":0.0},"extensions":{"KHR_materials_specular":{"specularFactor":1.0,"specularColorFactor":[0.0,0.0,0.0]},"KHR_materials_ior":{"ior":1.0}}},{"name":"material_0_material","pbrMetallicRoughness":{"baseColorTexture":{"index":0},"metallicFactor":0.0},"extensions":{"KHR_materials_specular":{"specularFactor":1.0,"specularColorFactor":[0.0,0.0,0.0]},"KHR_materials_ior":{"ior":1.0}}},{"name":"material_1_material","pbrMetallicRoughness":{"baseColorTexture":{"index":1},"metallicFactor":0.0},"extensions":{"KHR_materials_specular":{"specularFactor":1.0,"specularColorFactor":[0.0,0.0,0.0]},"KHR_materials_ior":{"ior":1.0}}}],"meshes":[{"name":"defaultobject","primitives":[{"mode":4,"material":1,"indices":2,"attributes":{"POSITION":0,"TEXCOORD_0":1}},{"mode":4,"material":2,"indices":5,"attributes":{"POSITION":3,"TEXCOORD_0":4}}]}],"nodes":[{"name":"tile_0767.obj","children":[1]},{"name":"defaultobject","mesh":0}],"samplers":[{},{}],"scenes":[{"nodes":[0]}],"textures":[{"source":0,"sampler":0},{"source":1,"sampler":1}],"scene":0}
