{"asset":{"version":"2.0","generator":"Open Asset Import Library (assimp v6.0.0)"},"extensionsUsed":["KHR_materials_specular","KHR_materials_volume","KHR_materials_ior","FB_ngon_encoding"],"accessors":[{"bufferView":0,"byteOffset":0,"componentType":5126,"count":14736,"type":"VEC3","max":[1.2736401557922363,0.09517713636159897,4.089766502380371],"min":[2.2250738585072014e-308,-0.3601778745651245,2.2250738585072014e-308]},{"bufferView":1,"byteOffset":0,"componentType":5126,"count":14736,"type":"VEC2","max":[0.9900007247924805,0.7183923721313477],"min":[2.2250738585072014e-308,2.2250738585072014e-308]},{"bufferView":2,"byteOffset":0,"componentType":5125,"count":65517,"type":"SCALAR","max":[14735],"min":[0]},{"bufferView":3,"byteOffset":0,"componentType":5126,"count":650,"type":"VEC3","max":[0.7736508250236511,0.08250316232442856,4.058674335479736],"min":[2.2250738585072014e-308,-0.19406643509864807,2.2250738585072014e-308]},{"bufferView":4,"byteOffset":0,"componentType":5126,"count":650,"type":"VEC2","max":[0.7933988571166992,0.7522926330566406],"min":[2.2250738585072014e-308,2.2250738585072014e-308]},{"bufferView":5,"byteOffset":0,"componentType":5125,"count":3351,"type":"SCALAR","max":[649],"min":[0]}],"buffers":[{"byteLength":583192,"uri":"tile_0160.bin"}],"bufferViews":[{"buffer":0,"byteOffset":0,"byteLength":176832,"target":34962},{"buffer":0,"byteOffset":176832,"byteLength":117888,"target":34962},{"buffer":0,"byteOffset":294720,"byteLength":262068,"target":34963},{"buffer":0,"byteOffset":556788,"byteLength":7800,"target":34962},{"buffer":0,"byteOffset":564588,"byteLength":5200,"target":34962},{"buffer":0,"byteOffset":569788,"byteLength":13404,"target":34963}],"images":[{"uri":"../textures/tile_0160_material_0.jpg"},{"uri":"../textures/tile_0160_material_1.jpg"}],"materials":[{"name":"DefaultMaterial","pbrMetallicRoughness":{"baseColorFactor":[0.6000000238418579,0.6000000238418579,0.6000000238418579,1.0],"metallicFactor":0.0},"extensions":{"KHR_materials_specular":{"specularFactor":1.0,"specularColorFactor":[0.0,0.0,0.0]},"KHR_materials_ior":{"ior":1.0}}},{"name":"material_0_material","pbrMetallicRoughness":{"baseColorTexture":{"index":0},"metallicFactor":0.0},"extensions":{"KHR_materials_specular":{"specularFactor":1.0,"specularColorFactor":[0.0,0.0,0.0]},"KHR_materials_ior":{"ior":1.0}}},{"name":"material_1_material","pbrMetallicRoughness":{"baseColorTexture":{"index":1},"metallicFactor":0.0},"extensions":{"KHR_materials_specular":{"specularFactor":1.0,"specularColorFactor":[0.0,0.0,0.0]},"KHR_materials_ior":{"ior":1.0}}}],"meshes":[{"name":"defaultobject","primitives":[{"mode":4,"material":1,"indices":2,"attributes":{"POSITION":0,"TEXCOORD_0":1}},{"mode":4,"material":2,"indices":5,"attributes":{"POSITION":3,"TEXCOORD_0":4}}]}],"nodes":[{"name":"tile_0160.obj","children":[1]},{"name":"defaultobject","mesh":0}],"samplers":[{},{}],"scenes":[{"nodes":[0]}],"textures":[{"source":0,"sampler":0},{"source":1,"sampler":1}],"scene":0}
