{"asset":{"version":"2.0","generator":"Open Asset Import Library (assimp v6.0.0)"},"extensionsUsed":["KHR_materials_specular","KHR_materials_volume","KHR_materials_ior","FB_ngon_encoding"],"accessors":[{"bufferView":0,"byteOffset":0,"componentType":5126,"count":4283,"type":"VEC3","max":[3.7342677116394043,0.8982940912246704,4.145102024078369],"min":[2.2250738585072014e-308,2.2250738585072014e-308,2.2250738585072014e-308]},{"bufferView":1,"byteOffset":0,"componentType":5126,"count":4283,"type":"VEC2","max":[0.9921979904174805,0.5194664001464844],"min":[2.2250738585072014e-308,2.2250738585072014e-308]},{"bufferView":2,"byteOffset":0,"componentType":5125,"count":19242,"type":"SCALAR","max":[4282],"min":[0]},{"bufferView":3,"byteOffset":0,"componentType":5126,"count":635,"type":"VEC3","max":[3.7289552688598633,0.8989113569259644,4.135534763336182],"min":[2.2250738585072014e-308,2.2250738585072014e-308,2.2250738585072014e-308]},{"bufferView":4,"byteOffset":0,"componentType":5126,"count":635,"type":"VEC2","max":[0.5316123962402344,0.4972724914550781],"min":[2.2250738585072014e-308,2.2250738585072014e-308]},{"bufferView":5,"byteOffset":0,"componentType":5125,"count":2952,"type":"SCALAR","max":[634],"min":[0]}],"buffers":[{"byteLength":187136,"uri":"tile_0670.bin"}],"bufferViews":[{"buffer":0,"byteOffset":0,"byteLength":51396,"target":34962},{"buffer":0,"byteOffset":51396,"byteLength":34264,"target":34962},{"buffer":0,"byteOffset":85660,"byteLength":76968,"target":34963},{"buffer":0,"byteOffset":162628,"byteLength":7620,"target":34962},{"buffer":0,"byteOffset":170248,"byteLength":5080,"target":34962},{"buffer":0,"byteOffset":175328,"byteLength":11808,"target":34963}],"images":[{"uri":"../textures/tile_0670_material_0.jpg"},{"uri":"../textures/tile_0670_material_1.jpg"}],"materials":[{"name":"DefaultMaterial","pbrMetallicRoughness":{"baseColorFactor":[0.6000000238418579,0.6000000238418579,0.6000000238418579,1.0],"metallicFactor":0.0},"extensions":{"KHR_materials_specular":{"specularFactor":1.0,"specularColorFactor":[0.0,0.0,0.0]},"KHR_materials_ior":{"ior":1.0}}},{"name":"material_0_material","pbrMetallicRoughness":{"baseColorTexture":{"index":0},"metallicFactor":0.0},"extensions":{"KHR_materials_specular":{"specularFactor":1.0,"specularColorFactor":[0.0,0.0,0.0]},"KHR_materials_ior":{"ior":1.0}}},{"name":"material_1_material","pbrMetallicRoughness":{"baseColorTexture":{"index":1},"metallicFactor":0.0},"extensions":{"KHR_materials_specular":{"specularFactor":1.0,"specularColorFactor":[0.0,0.0,0.0]},"KHR_materials_ior":{"ior":1.0}}}],"meshes":[{"name":"defaultobject","primitives":[{"mode":4,"material":1,"indices":2,"attributes":{"POSITION":0,"TEXCOORD_0":1}},{"mode":4,"material":2,"indices":5,"attributes":{"POSITION":3,"TEXCOORD_0":4}}]}],"nodes":[{"name":"tile_0670.obj","children":[1]},{"name":"defaultobject","mesh":0}],"samplers":[{},{}],"scenes":[{"nodes":[0]}],"textures":[{"source":0,"sampler":0},{"source":1,"sampler":1}],"scene":0}
