{"asset":{"version":"2.0","generator":"Open Asset Import Library (assimp v6.0.0)"},"extensionsUsed":["KHR_materials_specular","KHR_materials_volume","KHR_materials_ior","FB_ngon_encoding"],"accessors":[{"bufferView":0,"byteOffset":0,"componentType":5126,"count":4039,"type":"VEC3","max":[2.5642333030700684,1.419083595275879,3.8570520877838135],"min":[2.2250738585072014e-308,2.2250738585072014e-308,2.2250738585072014e-308]},{"bufferView":1,"byteOffset":0,"componentType":5126,"count":4039,"type":"VEC2","max":[0.9847946166992188,0.929412841796875],"min":[2.2250738585072014e-308,2.2250738585072014e-308]},{"bufferView":2,"byteOffset":0,"componentType":5125,"count":17265,"type":"SCALAR","max":[4038],"min":[0]},{"bufferView":3,"byteOffset":0,"componentType":5126,"count":1264,"type":"VEC3","max":[2.5634305477142334,1.4181662797927856,3.7873361110687256],"min":[2.2250738585072014e-308,2.2250738585072014e-308,2.2250738585072014e-308]},{"bufferView":4,"byteOffset":0,"componentType":5126,"count":1264,"type":"VEC2","max":[0.5971512794494629,0.9165611267089844],"min":[2.2250738585072014e-308,2.2250738585072014e-308]},{"bufferView":5,"byteOffset":0,"componentType":5125,"count":6312,"type":"SCALAR","max":[1263],"min":[0]}],"buffers":[{"byteLength":200368,"uri":"tile_0655.bin"}],"bufferViews":[{"buffer":0,"byteOffset":0,"byteLength":48468,"target":34962},{"buffer":0,"byteOffset":48468,"byteLength":32312,"target":34962},{"buffer":0,"byteOffset":80780,"byteLength":69060,"target":34963},{"buffer":0,"byteOffset":149840,"byteLength":15168,"target":34962},{"buffer":0,"byteOffset":165008,"byteLength":10112,"target":34962},{"buffer":0,"byteOffset":175120,"byteLength":25248,"target":34963}],"images":[{"uri":"../textures/tile_0655_material_0.jpg"},{"uri":"../textures/tile_0655_material_1.jpg"}],"materials":[{"name":"DefaultMaterial","pbrMetallicRoughness":{"baseColorFactor":[0.6000000238418579,0.6000000238418579,0.6000000238418579,1.0],"metallicFactor":0.0},"extensions":{"KHR_materials_specular":{"specularFactor":1.0,"specularColorFactor":[0.0,0.0,0.0]},"KHR_materials_ior":{"ior":1.0}}},{"name":"material_0_material","pbrMetallicRoughness":{"baseColorTexture":{"index":0},"metallicFactor":0.0},"extensions":{"KHR_materials_specular":{"specularFactor":1.0,"specularColorFactor":[0.0,0.0,0.0]},"KHR_materials_ior":{"ior":1.0}}},{"name":"material_1_material","pbrMetallicRoughness":{"baseColorTexture":{"index":1},"metallicFactor":0.0},"extensions":{"KHR_materials_specular":{"specularFactor":1.0,"specularColorFactor":[0.0,0.0,0.0]},"KHR_materials_ior":{"ior":1.0}}}],"meshes":[{"name":"defaultobject","primitives":[{"mode":4,"material":1,"indices":2,"attributes":{"POSITION":0,"TEXCOORD_0":1}},{"mode":4,"material":2,"indices":5,"attributes":{"POSITION":3,"TEXCOORD_0":4}}]}],"nodes":[{"name":"tile_0655.obj","children":[1]},{"name":"defaultobject","mesh":0}],"samplers":[{},{}],"scenes":[{"nodes":[0]}],"textures":[{"source":0,"sampler":0},{"source":1,"sampler":1}],"scene":0}
