{"asset":{"version":"2.0","generator":"Open Asset Import Library (assimp v6.0.0)"},"extensionsUsed":["KHR_materials_specular","KHR_materials_volume","KHR_materials_ior","FB_ngon_encoding"],"accessors":[{"bufferView":0,"byteOffset":0,"componentType":5126,"count":3582,"type":"VEC3","max":[-1.6460325717926025,6.554211616516113,5.0549845695495605],"min":[-1.8638168573379517,2.2250738585072014e-308,2.2250738585072014e-308]},{"bufferView":1,"byteOffset":0,"componentType":5126,"count":3582,"type":"VEC2","max":[0.9837250709533691,0.5233154296875],"min":[2.2250738585072014e-308,2.2250738585072014e-308]},{"bufferView":2,"byteOffset":0,"componentType":5125,"count":16764,"type":"SCALAR","max":[3581],"min":[0]},{"bufferView":3,"byteOffset":0,"componentType":5126,"count":1246,"type":"VEC3","max":[-1.6465882062911987,6.528200626373291,5.061675548553467],"min":[-1.8652968406677246,2.2250738585072014e-308,2.2250738585072014e-308]},{"bufferView":4,"byteOffset":0,"componentType":5126,"count":1246,"type":"VEC2","max":[0.8990650177001953,0.5880031585693359],"min":[2.2250738585072014e-308,2.2250738585072014e-308]},{"bufferView":5,"byteOffset":0,"componentType":5125,"count":6309,"type":"SCALAR","max":[1245],"min":[0]}],"buffers":[{"byteLength":188852,"uri":"tile_0539.bin"}],"bufferViews":[{"buffer":0,"byteOffset":0,"byteLength":42984,"target":34962},{"buffer":0,"byteOffset":42984,"byteLength":28656,"target":34962},{"buffer":0,"byteOffset":71640,"byteLength":67056,"target":34963},{"buffer":0,"byteOffset":138696,"byteLength":14952,"target":34962},{"buffer":0,"byteOffset":153648,"byteLength":9968,"target":34962},{"buffer":0,"byteOffset":163616,"byteLength":25236,"target":34963}],"images":[{"uri":"../textures/tile_0539_material_0.jpg"},{"uri":"../textures/tile_0539_material_1.jpg"}],"materials":[{"name":"DefaultMaterial","pbrMetallicRoughness":{"baseColorFactor":[0.6000000238418579,0.6000000238418579,0.6000000238418579,1.0],"metallicFactor":0.0},"extensions":{"KHR_materials_specular":{"specularFactor":1.0,"specularColorFactor":[0.0,0.0,0.0]},"KHR_materials_ior":{"ior":1.0}}},{"name":"material_0_material","pbrMetallicRoughness":{"baseColorTexture":{"index":0},"metallicFactor":0.0},"extensions":{"KHR_materials_specular":{"specularFactor":1.0,"specularColorFactor":[0.0,0.0,0.0]},"KHR_materials_ior":{"ior":1.0}}},{"name":"material_1_material","pbrMetallicRoughness":{"baseColorTexture":{"index":1},"metallicFactor":0.0},"extensions":{"KHR_materials_specular":{"specularFactor":1.0,"specularColorFactor":[0.0,0.0,0.0]},"KHR_materials_ior":{"ior":1.0}}}],"meshes":[{"name":"defaultobject","primitives":[{"mode":4,"material":1,"indices":2,"attributes":{"POSITION":0,"TEXCOORD_0":1}},{"mode":4,"material":2,"indices":5,"attributes":{"POSITION":3,"TEXCOORD_0":4}}]}],"nodes":[{"name":"tile_0539.obj","children":[1]},{"name":"defaultobject","mesh":0}],"samplers":[{},{}],"scenes":[{"nodes":[0]}],"textures":[{"source":0,"sampler":0},{"source":1,"sampler":1}],"scene":0}
