{"asset":{"version":"2.0","generator":"Open Asset Import Library (assimp v6.0.0)"},"extensionsUsed":["KHR_materials_specular","KHR_materials_volume","KHR_materials_ior","FB_ngon_encoding"],"accessors":[{"bufferView":0,"byteOffset":0,"componentType":5126,"count":5299,"type":"VEC3","max":[-2.232738971710205,2.5797996520996094,4.512509822845459],"min":[-2.5283846855163574,2.2250738585072014e-308,2.2250738585072014e-308]},{"bufferView":1,"byteOffset":0,"componentType":5126,"count":5299,"type":"VEC2","max":[0.9954309463500977,0.6352577209472656],"min":[2.2250738585072014e-308,2.2250738585072014e-308]},{"bufferView":2,"byteOffset":0,"componentType":5125,"count":23574,"type":"SCALAR","max":[5298],"min":[0]},{"bufferView":3,"byteOffset":0,"componentType":5126,"count":379,"type":"VEC3","max":[-2.273797035217285,2.577930212020874,4.499660491943359],"min":[-2.4811105728149414,2.2250738585072014e-308,2.2250738585072014e-308]},{"bufferView":4,"byteOffset":0,"componentType":5126,"count":379,"type":"VEC2","max":[0.5236663818359375,0.5411300659179688],"min":[2.2250738585072014e-308,2.2250738585072014e-308]},{"bufferView":5,"byteOffset":0,"componentType":5125,"count":1875,"type":"SCALAR","max":[378],"min":[0]}],"buffers":[{"byteLength":215356,"uri":"tile_0500.bin"}],"bufferViews":[{"buffer":0,"byteOffset":0,"byteLength":63588,"target":34962},{"buffer":0,"byteOffset":63588,"byteLength":42392,"target":34962},{"buffer":0,"byteOffset":105980,"byteLength":94296,"target":34963},{"buffer":0,"byteOffset":200276,"byteLength":4548,"target":34962},{"buffer":0,"byteOffset":204824,"byteLength":3032,"target":34962},{"buffer":0,"byteOffset":207856,"byteLength":7500,"target":34963}],"images":[{"uri":"../textures/tile_0500_material_0.jpg"},{"uri":"../textures/tile_0500_material_1.jpg"}],"materials":[{"name":"DefaultMaterial","pbrMetallicRoughness":{"baseColorFactor":[0.6000000238418579,0.6000000238418579,0.6000000238418579,1.0],"metallicFactor":0.0},"extensions":{"KHR_materials_specular":{"specularFactor":1.0,"specularColorFactor":[0.0,0.0,0.0]},"KHR_materials_ior":{"ior":1.0}}},{"name":"material_0_material","pbrMetallicRoughness":{"baseColorTexture":{"index":0},"metallicFactor":0.0},"extensions":{"KHR_materials_specular":{"specularFactor":1.0,"specularColorFactor":[0.0,0.0,0.0]},"KHR_materials_ior":{"ior":1.0}}},{"name":"material_1_material","pbrMetallicRoughness":{"baseColorTexture":{"index":1},"metallicFactor":0.0},"extensions":{"KHR_materials_specular":{"specularFactor":1.0,"specularColorFactor":[0.0,0.0,0.0]},"KHR_materials_ior":{"ior":1.0}}}],"meshes":[{"name":"defaultobject","primitives":[{"mode":4,"material":1,"indices":2,"attributes":{"POSITION":0,"TEXCOORD_0":1}},{"mode":4,"material":2,"indices":5,"attributes":{"POSITION":3,"TEXCOORD_0":4}}]}],"nodes":[{"name":"tile_0500.obj","children":[1]},{"name":"defaultobject","mesh":0}],"samplers":[{},{}],"scenes":[{"nodes":[0]}],"textures":[{"source":0,"sampler":0},{"source":1,"sampler":1}],"scene":0}
