{"asset":{"version":"2.0","generator":"Open Asset Import Library (assimp v6.0.0)"},"extensionsUsed":["KHR_materials_specular","KHR_materials_volume","KHR_materials_ior","FB_ngon_encoding"],"accessors":[{"bufferView":0,"byteOffset":0,"componentType":5126,"count":3456,"type":"VEC3","max":[-4.407645225524902,-0.16864073276519775,3.953070640563965],"min":[-4.85558557510376,-0.49126097559928894,2.2250738585072014e-308]},{"bufferView":1,"byteOffset":0,"componentType":5126,"count":3456,"type":"VEC2","max":[0.9885114431381226,0.5310859680175781],"min":[2.2250738585072014e-308,2.2250738585072014e-308]},{"bufferView":2,"byteOffset":0,"componentType":5125,"count":16179,"type":"SCALAR","max":[3455],"min":[0]},{"bufferView":3,"byteOffset":0,"componentType":5126,"count":1369,"type":"VEC3","max":[-4.40879487991333,-0.16860583424568176,3.954798698425293],"min":[-4.854344844818115,-0.4920484721660614,2.2250738585072014e-308]},{"bufferView":4,"byteOffset":0,"componentType":5126,"count":1369,"type":"VEC2","max":[0.6925973892211914,0.885101318359375],"min":[2.2250738585072014e-308,2.2250738585072014e-308]},{"bufferView":5,"byteOffset":0,"componentType":5125,"count":7083,"type":"SCALAR","max":[1368],"min":[0]}],"buffers":[{"byteLength":189548,"uri":"tile_0446.bin"}],"bufferViews":[{"buffer":0,"byteOffset":0,"byteLength":41472,"target":34962},{"buffer":0,"byteOffset":41472,"byteLength":27648,"target":34962},{"buffer":0,"byteOffset":69120,"byteLength":64716,"target":34963},{"buffer":0,"byteOffset":133836,"byteLength":16428,"target":34962},{"buffer":0,"byteOffset":150264,"byteLength":10952,"target":34962},{"buffer":0,"byteOffset":161216,"byteLength":28332,"target":34963}],"images":[{"uri":"../textures/tile_0446_material_0.jpg"},{"uri":"../textures/tile_0446_material_1.jpg"}],"materials":[{"name":"DefaultMaterial","pbrMetallicRoughness":{"baseColorFactor":[0.6000000238418579,0.6000000238418579,0.6000000238418579,1.0],"metallicFactor":0.0},"extensions":{"KHR_materials_specular":{"specularFactor":1.0,"specularColorFactor":[0.0,0.0,0.0]},"KHR_materials_ior":{"ior":1.0}}},{"name":"material_0_material","pbrMetallicRoughness":{"baseColorTexture":{"index":0},"metallicFactor":0.0},"extensions":{"KHR_materials_specular":{"specularFactor":1.0,"specularColorFactor":[0.0,0.0,0.0]},"KHR_materials_ior":{"ior":1.0}}},{"name":"material_1_material","pbrMetallicRoughness":{"baseColorTexture":{"index":1},"metallicFactor":0.0},"extensions":{"KHR_materials_specular":{"specularFactor":1.0,"specularColorFactor":[0.0,0.0,0.0]},"KHR_materials_ior":{"ior":1.0}}}],"meshes":[{"name":"defaultobject","primitives":[{"mode":4,"material":1,"indices":2,"attributes":{"POSITION":0,"TEXCOORD_0":1}},{"mode":4,"material":2,"indices":5,"attributes":{"POSITION":3,"TEXCOORD_0":4}}]}],"nodes":[{"name":"tile_0446.obj","children":[1]},{"name":"defaultobject","mesh":0}],"samplers":[{},{}],"scenes":[{"nodes":[0]}],"textures":[{"source":0,"sampler":0},{"source":1,"sampler":1}],"scene":0}
