{"asset":{"version":"2.0","generator":"Open Asset Import Library (assimp v6.0.0)"},"extensionsUsed":["KHR_materials_specular","KHR_materials_volume","KHR_materials_ior","FB_ngon_encoding"],"accessors":[{"bufferView":0,"byteOffset":0,"componentType":5126,"count":5672,"type":"VEC3","max":[-2.518805980682373,2.061720609664917,4.3348870277404785],"min":[-2.8068792819976807,2.2250738585072014e-308,2.2250738585072014e-308]},{"bufferView":1,"byteOffset":0,"componentType":5126,"count":5672,"type":"VEC2","max":[0.9882082939147949,0.6723690032958984],"min":[2.2250738585072014e-308,2.2250738585072014e-308]},{"bufferView":2,"byteOffset":0,"componentType":5125,"count":25353,"type":"SCALAR","max":[5671],"min":[0]},{"bufferView":3,"byteOffset":0,"componentType":5126,"count":26,"type":"VEC3","max":[-2.520817518234253,1.9225447177886963,4.2813239097595215],"min":[-2.5464935302734375,2.2250738585072014e-308,2.2250738585072014e-308]},{"bufferView":4,"byteOffset":0,"componentType":5126,"count":26,"type":"VEC2","max":[0.7260894775390625,0.60382080078125],"min":[2.2250738585072014e-308,2.2250738585072014e-308]},{"bufferView":5,"byteOffset":0,"componentType":5125,"count":93,"type":"SCALAR","max":[25],"min":[0]}],"buffers":[{"byteLength":215744,"uri":"tile_0119.bin"}],"bufferViews":[{"buffer":0,"byteOffset":0,"byteLength":68064,"target":34962},{"buffer":0,"byteOffset":68064,"byteLength":45376,"target":34962},{"buffer":0,"byteOffset":113440,"byteLength":101412,"target":34963},{"buffer":0,"byteOffset":214852,"byteLength":312,"target":34962},{"buffer":0,"byteOffset":215164,"byteLength":208,"target":34962},{"buffer":0,"byteOffset":215372,"byteLength":372,"target":34963}],"images":[{"uri":"../textures/tile_0119_material_0.jpg"},{"uri":"../textures/tile_0119_material_1.jpg"}],"materials":[{"name":"DefaultMaterial","pbrMetallicRoughness":{"baseColorFactor":[0.6000000238418579,0.6000000238418579,0.6000000238418579,1.0],"metallicFactor":0.0},"extensions":{"KHR_materials_specular":{"specularFactor":1.0,"specularColorFactor":[0.0,0.0,0.0]},"KHR_materials_ior":{"ior":1.0}}},{"name":"material_0_material","pbrMetallicRoughness":{"baseColorTexture":{"index":0},"metallicFactor":0.0},"extensions":{"KHR_materials_specular":{"specularFactor":1.0,"specularColorFactor":[0.0,0.0,0.0]},"KHR_materials_ior":{"ior":1.0}}},{"name":"material_1_material","pbrMetallicRoughness":{"baseColorTexture":{"index":1},"metallicFactor":0.0},"extensions":{"KHR_materials_specular":{"specularFactor":1.0,"specularColorFactor":[0.0,0.0,0.0]},"KHR_materials_ior":{"ior":1.0}}}],"meshes":[{"name":"defaultobject","primitives":[{"mode":4,"material":1,"indices":2,"attributes":{"POSITION":0,"TEXCOORD_0":1}},{"mode":4,"material":2,"indices":5,"attributes":{"POSITION":3,"TEXCOORD_0":4}}]}],"nodes":[{"name":"tile_0119.obj","children":[1]},{"name":"defaultobject","mesh":0}],"samplers":[{},{}],"scenes":[{"nodes":[0]}],"textures":[{"source":0,"sampler":0},{"source":1,"sampler":1}],"scene":0}
