{"asset":{"version":"2.0","generator":"Open Asset Import Library (assimp v6.0.0)"},"extensionsUsed":["KHR_materials_specular","KHR_materials_volume","KHR_materials_ior","FB_ngon_encoding"],"accessors":[{"bufferView":0,"byteOffset":0,"componentType":5126,"count":3307,"type":"VEC3","max":[0.647337794303894,-0.5616310834884644,3.4201207160949707],"min":[2.2250738585072014e-308,-0.7823039293289185,2.2250738585072014e-308]},{"bufferView":1,"byteOffset":0,"componentType":5126,"count":3307,"type":"VEC2","max":[0.9849913120269775,0.8494987487792969],"min":[2.2250738585072014e-308,2.2250738585072014e-308]},{"bufferView":2,"byteOffset":0,"componentType":5125,"count":14868,"type":"SCALAR","max":[3306],"min":[0]},{"bufferView":3,"byteOffset":0,"componentType":5126,"count":1591,"type":"VEC3","max":[0.5720646977424622,-0.5621594786643982,3.4108452796936035],"min":[2.2250738585072014e-308,-0.7824585437774658,2.2250738585072014e-308]},{"bufferView":4,"byteOffset":0,"componentType":5126,"count":1591,"type":"VEC2","max":[0.9020729064941406,0.793243408203125],"min":[2.2250738585072014e-308,2.2250738585072014e-308]},{"bufferView":5,"byteOffset":0,"componentType":5125,"count":8037,"type":"SCALAR","max":[1590],"min":[0]}],"buffers":[{"byteLength":189580,"uri":"tile_0630.bin"}],"bufferViews":[{"buffer":0,"byteOffset":0,"byteLength":39684,"target":34962},{"buffer":0,"byteOffset":39684,"byteLength":26456,"target":34962},{"buffer":0,"byteOffset":66140,"byteLength":59472,"target":34963},{"buffer":0,"byteOffset":125612,"byteLength":19092,"target":34962},{"buffer":0,"byteOffset":144704,"byteLength":12728,"target":34962},{"buffer":0,"byteOffset":157432,"byteLength":32148,"target":34963}],"images":[{"uri":"../textures/tile_0630_material_0.jpg"},{"uri":"../textures/tile_0630_material_1.jpg"}],"materials":[{"name":"DefaultMaterial","pbrMetallicRoughness":{"baseColorFactor":[0.6000000238418579,0.6000000238418579,0.6000000238418579,1.0],"metallicFactor":0.0},"extensions":{"KHR_materials_specular":{"specularFactor":1.0,"specularColorFactor":[0.0,0.0,0.0]},"KHR_materials_ior":{"ior":1.0}}},{"name":"material_0_material","pbrMetallicRoughness":{"baseColorTexture":{"index":0},"metallicFactor":0.0},"extensions":{"KHR_materials_specular":{"specularFactor":1.0,"specularColorFactor":[0.0,0.0,0.0]},"KHR_materials_ior":{"ior":1.0}}},{"name":"material_1_material","pbrMetallicRoughness":{"baseColorTexture":{"index":1},"metallicFactor":0.0},"extensions":{"KHR_materials_specular":{"specularFactor":1.0,"specularColorFactor":[0.0,0.0,0.0]},"KHR_materials_ior":{"ior":1.0}}}],"meshes":[{"name":"defaultobject","primitives":[{"mode":4,"material":1,"indices":2,"attributes":{"POSITION":0,"TEXCOORD_0":1}},{"mode":4,"material":2,"indices":5,"attributes":{"POSITION":3,"TEXCOORD_0":4}}]}],"nodes":[{"name":"tile_0630.obj","children":[1]},{"name":"defaultobject","mesh":0}],"samplers":[{},{}],"scenes":[{"nodes":[0]}],"textures":[{"source":0,"sampler":0},{"source":1,"sampler":1}],"scene":0}
