{"asset":{"version":"2.0","generator":"Open Asset Import Library (assimp v6.0.0)"},"extensionsUsed":["KHR_materials_specular","KHR_materials_volume","KHR_materials_ior","FB_ngon_encoding"],"accessors":[{"bufferView":0,"byteOffset":0,"componentType":5126,"count":2175,"type":"VEC3","max":[-2.681774377822876,-1.6481884717941284,2.730717658996582],"min":[-2.9819223880767822,-1.9595746994018555,2.2250738585072014e-308]},{"bufferView":1,"byteOffset":0,"componentType":5126,"count":2175,"type":"VEC2","max":[0.9930448532104492,0.8646240234375],"min":[2.2250738585072014e-308,2.2250738585072014e-308]},{"bufferView":2,"byteOffset":0,"componentType":5125,"count":10152,"type":"SCALAR","max":[2174],"min":[0]},{"bufferView":3,"byteOffset":0,"componentType":5126,"count":3733,"type":"VEC3","max":[-2.6797077655792236,-1.6493905782699585,2.7227060794830322],"min":[-2.9822487831115723,-1.9517942667007446,2.2250738585072014e-308]},{"bufferView":4,"byteOffset":0,"componentType":5126,"count":3733,"type":"VEC2","max":[0.9715652465820312,0.821502685546875],"min":[2.2250738585072014e-308,2.2250738585072014e-308]},{"bufferView":5,"byteOffset":0,"componentType":5125,"count":20724,"type":"SCALAR","max":[3732],"min":[0]}],"buffers":[{"byteLength":241664,"uri":"tile_0326.bin"}],"bufferViews":[{"buffer":0,"byteOffset":0,"byteLength":26100,"target":34962},{"buffer":0,"byteOffset":26100,"byteLength":17400,"target":34962},{"buffer":0,"byteOffset":43500,"byteLength":40608,"target":34963},{"buffer":0,"byteOffset":84108,"byteLength":44796,"target":34962},{"buffer":0,"byteOffset":128904,"byteLength":29864,"target":34962},{"buffer":0,"byteOffset":158768,"byteLength":82896,"target":34963}],"images":[{"uri":"../textures/tile_0326_material_0.jpg"},{"uri":"../textures/tile_0326_material_1.jpg"}],"materials":[{"name":"DefaultMaterial","pbrMetallicRoughness":{"baseColorFactor":[0.6000000238418579,0.6000000238418579,0.6000000238418579,1.0],"metallicFactor":0.0},"extensions":{"KHR_materials_specular":{"specularFactor":1.0,"specularColorFactor":[0.0,0.0,0.0]},"KHR_materials_ior":{"ior":1.0}}},{"name":"material_0_material","pbrMetallicRoughness":{"baseColorTexture":{"index":0},"metallicFactor":0.0},"extensions":{"KHR_materials_specular":{"specularFactor":1.0,"specularColorFactor":[0.0,0.0,0.0]},"KHR_materials_ior":{"ior":1.0}}},{"name":"material_1_material","pbrMetallicRoughness":{"baseColorTexture":{"index":1},"metallicFactor":0.0},"extensions":{"KHR_materials_specular":{"specularFactor":1.0,"specularColorFactor":[0.0,0.0,0.0]},"KHR_materials_ior":{"ior":1.0}}}],"meshes":[{"name":"defaultobject","primitives":[{"mode":4,"material":1,"indices":2,"attributes":{"POSITION":0,"TEXCOORD_0":1}},{"mode":4,"material":2,"indices":5,"attributes":{"POSITION":3,"TEXCOORD_0":4}}]}],"nodes":[{"name":"tile_0326.obj","children":[1]},{"name":"defaultobject","mesh":0}],"samplers":[{},{}],"scenes":[{"nodes":[0]}],"textures":[{"source":0,"sampler":0},{"source":1,"sampler":1}],"scene":0}
