{"asset":{"version":"2.0","generator":"Open Asset Import Library (assimp v6.0.0)"},"extensionsUsed":["KHR_materials_specular","KHR_materials_volume","KHR_materials_ior","FB_ngon_encoding"],"accessors":[{"bufferView":0,"byteOffset":0,"componentType":5126,"count":1232,"type":"VEC3","max":[5.365269184112549,-1.9798766374588013,4.041405200958252],"min":[2.2250738585072014e-308,-2.2101259231567383,2.2250738585072014e-308]},{"bufferView":1,"byteOffset":0,"componentType":5126,"count":1232,"type":"VEC2","max":[0.775390625,0.7765884399414062],"min":[2.2250738585072014e-308,2.2250738585072014e-308]},{"bufferView":2,"byteOffset":0,"componentType":5125,"count":6015,"type":"SCALAR","max":[1231],"min":[0]},{"bufferView":3,"byteOffset":0,"componentType":5126,"count":3735,"type":"VEC3","max":[5.386821269989014,-1.957547903060913,4.033985137939453],"min":[2.2250738585072014e-308,-2.2116823196411133,2.2250738585072014e-308]},{"bufferView":4,"byteOffset":0,"componentType":5126,"count":3735,"type":"VEC2","max":[0.9928722381591797,0.5519428253173828],"min":[2.2250738585072014e-308,2.2250738585072014e-308]},{"bufferView":5,"byteOffset":0,"componentType":5125,"count":20619,"type":"SCALAR","max":[3734],"min":[0]}],"buffers":[{"byteLength":205876,"uri":"tile_0737.bin"}],"bufferViews":[{"buffer":0,"byteOffset":0,"byteLength":14784,"target":34962},{"buffer":0,"byteOffset":14784,"byteLength":9856,"target":34962},{"buffer":0,"byteOffset":24640,"byteLength":24060,"target":34963},{"buffer":0,"byteOffset":48700,"byteLength":44820,"target":34962},{"buffer":0,"byteOffset":93520,"byteLength":29880,"target":34962},{"buffer":0,"byteOffset":123400,"byteLength":82476,"target":34963}],"images":[{"uri":"../textures/tile_0737_material_0.jpg"},{"uri":"../textures/tile_0737_material_1.jpg"}],"materials":[{"name":"DefaultMaterial","pbrMetallicRoughness":{"baseColorFactor":[0.6000000238418579,0.6000000238418579,0.6000000238418579,1.0],"metallicFactor":0.0},"extensions":{"KHR_materials_specular":{"specularFactor":1.0,"specularColorFactor":[0.0,0.0,0.0]},"KHR_materials_ior":{"ior":1.0}}},{"name":"material_0_material","pbrMetallicRoughness":{"baseColorTexture":{"index":0},"metallicFactor":0.0},"extensions":{"KHR_materials_specular":{"specularFactor":1.0,"specularColorFactor":[0.0,0.0,0.0]},"KHR_materials_ior":{"ior":1.0}}},{"name":"material_1_material","pbrMetallicRoughness":{"baseColorTexture":{"index":1},"metallicFactor":0.0},"extensions":{"KHR_materials_specular":{"specularFactor":1.0,"specularColorFactor":[0.0,0.0,0.0]},"KHR_materials_ior":{"ior":1.0}}}],"meshes":[{"name":"defaultobject","primitives":[{"mode":4,"material":1,"indices":2,"attributes":{"POSITION":0,"TEXCOORD_0":1}},{"mode":4,"material":2,"indices":5,"attributes":{"POSITION":3,"TEXCOORD_0":4}}]}],"nodes":[{"name":"tile_0737.obj","children":[1]},{"name":"defaultobject","mesh":0}],"samplers":[{},{}],"scenes":[{"nodes":[0]}],"textures":[{"source":0,"sampler":0},{"source":1,"sampler":1}],"scene":0}
