{"asset":{"version":"2.0","generator":"Open Asset Import Library (assimp v6.0.0)"},"extensionsUsed":["KHR_materials_specular","KHR_materials_volume","KHR_materials_ior","FB_ngon_encoding"],"accessors":[{"bufferView":0,"byteOffset":0,"componentType":5126,"count":867,"type":"VEC3","max":[-5.993581771850586,4.032742500305176,5.086513519287109],"min":[-7.290363311767578,2.2250738585072014e-308,2.2250738585072014e-308]},{"bufferView":1,"byteOffset":0,"componentType":5126,"count":867,"type":"VEC2","max":[0.9910173416137695,0.5695152282714844],"min":[2.2250738585072014e-308,2.2250738585072014e-308]},{"bufferView":2,"byteOffset":0,"componentType":5125,"count":3216,"type":"SCALAR","max":[866],"min":[0]},{"bufferView":3,"byteOffset":0,"componentType":5126,"count":3640,"type":"VEC3","max":[-5.987198829650879,4.12910270690918,5.080349922180176],"min":[-7.202755928039551,2.2250738585072014e-308,2.2250738585072014e-308]},{"bufferView":4,"byteOffset":0,"componentType":5126,"count":3640,"type":"VEC2","max":[0.8105459213256836,0.9538593292236328],"min":[2.2250738585072014e-308,2.2250738585072014e-308]},{"bufferView":5,"byteOffset":0,"componentType":5125,"count":19917,"type":"SCALAR","max":[3639],"min":[0]}],"buffers":[{"byteLength":182672,"uri":"tile_0834.bin"}],"bufferViews":[{"buffer":0,"byteOffset":0,"byteLength":10404,"target":34962},{"buffer":0,"byteOffset":10404,"byteLength":6936,"target":34962},{"buffer":0,"byteOffset":17340,"byteLength":12864,"target":34963},{"buffer":0,"byteOffset":30204,"byteLength":43680,"target":34962},{"buffer":0,"byteOffset":73884,"byteLength":29120,"target":34962},{"buffer":0,"byteOffset":103004,"byteLength":79668,"target":34963}],"images":[{"uri":"../textures/tile_0834_material_0.jpg"},{"uri":"../textures/tile_0834_material_1.jpg"}],"materials":[{"name":"DefaultMaterial","pbrMetallicRoughness":{"baseColorFactor":[0.6000000238418579,0.6000000238418579,0.6000000238418579,1.0],"metallicFactor":0.0},"extensions":{"KHR_materials_specular":{"specularFactor":1.0,"specularColorFactor":[0.0,0.0,0.0]},"KHR_materials_ior":{"ior":1.0}}},{"name":"material_0_material","pbrMetallicRoughness":{"baseColorTexture":{"index":0},"metallicFactor":0.0},"extensions":{"KHR_materials_specular":{"specularFactor":1.0,"specularColorFactor":[0.0,0.0,0.0]},"KHR_materials_ior":{"ior":1.0}}},{"name":"material_1_material","pbrMetallicRoughness":{"baseColorTexture":{"index":1},"metallicFactor":0.0},"extensions":{"KHR_materials_specular":{"specularFactor":1.0,"specularColorFactor":[0.0,0.0,0.0]},"KHR_materials_ior":{"ior":1.0}}}],"meshes":[{"name":"defaultobject","primitives":[{"mode":4,"material":1,"indices":2,"attributes":{"POSITION":0,"TEXCOORD_0":1}},{"mode":4,"material":2,"indices":5,"attributes":{"POSITION":3,"TEXCOORD_0":4}}]}],"nodes":[{"name":"tile_0834.obj","children":[1]},{"name":"defaultobject","mesh":0}],"samplers":[{},{}],"scenes":[{"nodes":[0]}],"textures":[{"source":0,"sampler":0},{"source":1,"sampler":1}],"scene":0}
