{"asset":{"version":"2.0","generator":"Open Asset Import Library (assimp v6.0.0)"},"extensionsUsed":["KHR_materials_specular","KHR_materials_volume","KHR_materials_ior","FB_ngon_encoding"],"accessors":[{"bufferView":0,"byteOffset":0,"componentType":5126,"count":4903,"type":"VEC3","max":[3.350522041320801,1.1400322914123535,3.889643669128418],"min":[2.2250738585072014e-308,2.2250738585072014e-308,2.2250738585072014e-308]},{"bufferView":1,"byteOffset":0,"componentType":5126,"count":4903,"type":"VEC2","max":[0.9942951202392578,0.6444301605224609],"min":[2.2250738585072014e-308,2.2250738585072014e-308]},{"bufferView":2,"byteOffset":0,"componentType":5125,"count":22041,"type":"SCALAR","max":[4902],"min":[0]},{"bufferView":3,"byteOffset":0,"componentType":5126,"count":245,"type":"VEC3","max":[3.3159019947052,0.9013843536376953,3.83331036567688],"min":[2.2250738585072014e-308,2.2250738585072014e-308,2.2250738585072014e-308]},{"bufferView":4,"byteOffset":0,"componentType":5126,"count":245,"type":"VEC2","max":[0.5603055953979492,0.8529509902000427],"min":[2.2250738585072014e-308,2.2250738585072014e-308]},{"bufferView":5,"byteOffset":0,"componentType":5125,"count":1035,"type":"SCALAR","max":[244],"min":[0]}],"buffers":[{"byteLength":195264,"uri":"tile_0651.bin"}],"bufferViews":[{"buffer":0,"byteOffset":0,"byteLength":58836,"target":34962},{"buffer":0,"byteOffset":58836,"byteLength":39224,"target":34962},{"buffer":0,"byteOffset":98060,"byteLength":88164,"target":34963},{"buffer":0,"byteOffset":186224,"byteLength":2940,"target":34962},{"buffer":0,"byteOffset":189164,"byteLength":1960,"target":34962},{"buffer":0,"byteOffset":191124,"byteLength":4140,"target":34963}],"images":[{"uri":"../textures/tile_0651_material_0.jpg"},{"uri":"../textures/tile_0651_material_1.jpg"}],"materials":[{"name":"DefaultMaterial","pbrMetallicRoughness":{"baseColorFactor":[0.6000000238418579,0.6000000238418579,0.6000000238418579,1.0],"metallicFactor":0.0},"extensions":{"KHR_materials_specular":{"specularFactor":1.0,"specularColorFactor":[0.0,0.0,0.0]},"KHR_materials_ior":{"ior":1.0}}},{"name":"material_0_material","pbrMetallicRoughness":{"baseColorTexture":{"index":0},"metallicFactor":0.0},"extensions":{"KHR_materials_specular":{"specularFactor":1.0,"specularColorFactor":[0.0,0.0,0.0]},"KHR_materials_ior":{"ior":1.0}}},{"name":"material_1_material","pbrMetallicRoughness":{"baseColorTexture":{"index":1},"metallicFactor":0.0},"extensions":{"KHR_materials_specular":{"specularFactor":1.0,"specularColorFactor":[0.0,0.0,0.0]},"KHR_materials_ior":{"ior":1.0}}}],"meshes":[{"name":"defaultobject","primitives":[{"mode":4,"material":1,"indices":2,"attributes":{"POSITION":0,"TEXCOORD_0":1}},{"mode":4,"material":2,"indices":5,"attributes":{"POSITION":3,"TEXCOORD_0":4}}]}],"nodes":[{"name":"tile_0651.obj","children":[1]},{"name":"defaultobject","mesh":0}],"samplers":[{},{}],"scenes":[{"nodes":[0]}],"textures":[{"source":0,"sampler":0},{"source":1,"sampler":1}],"scene":0}
