{"asset":{"version":"2.0","generator":"Open Asset Import Library (assimp v6.0.0)"},"extensionsUsed":["KHR_materials_specular","KHR_materials_volume","KHR_materials_ior","FB_ngon_encoding"],"accessors":[{"bufferView":0,"byteOffset":0,"componentType":5126,"count":4243,"type":"VEC3","max":[2.3903329372406006,-3.948641777038574,3.3256921768188477],"min":[2.2250738585072014e-308,-4.332540035247803,2.2250738585072014e-308]},{"bufferView":1,"byteOffset":0,"componentType":5126,"count":4243,"type":"VEC2","max":[0.9959907531738281,0.5898323059082031],"min":[2.2250738585072014e-308,2.2250738585072014e-308]},{"bufferView":2,"byteOffset":0,"componentType":5125,"count":18522,"type":"SCALAR","max":[4242],"min":[0]},{"bufferView":3,"byteOffset":0,"componentType":5126,"count":1202,"type":"VEC3","max":[2.369190216064453,-3.9481966495513916,3.316986083984375],"min":[2.2250738585072014e-308,-4.253057479858398,2.2250738585072014e-308]},{"bufferView":4,"byteOffset":0,"componentType":5126,"count":1202,"type":"VEC2","max":[0.5394043922424316,0.5507736206054688],"min":[2.2250738585072014e-308,2.2250738585072014e-308]},{"bufferView":5,"byteOffset":0,"componentType":5125,"count":6360,"type":"SCALAR","max":[1201],"min":[0]}],"buffers":[{"byteLength":208428,"uri":"tile_0789.bin"}],"bufferViews":[{"buffer":0,"byteOffset":0,"byteLength":50916,"target":34962},{"buffer":0,"byteOffset":50916,"byteLength":33944,"target":34962},{"buffer":0,"byteOffset":84860,"byteLength":74088,"target":34963},{"buffer":0,"byteOffset":158948,"byteLength":14424,"target":34962},{"buffer":0,"byteOffset":173372,"byteLength":9616,"target":34962},{"buffer":0,"byteOffset":182988,"byteLength":25440,"target":34963}],"images":[{"uri":"../textures/tile_0789_material_0.jpg"},{"uri":"../textures/tile_0789_material_1.jpg"}],"materials":[{"name":"DefaultMaterial","pbrMetallicRoughness":{"baseColorFactor":[0.6000000238418579,0.6000000238418579,0.6000000238418579,1.0],"metallicFactor":0.0},"extensions":{"KHR_materials_specular":{"specularFactor":1.0,"specularColorFactor":[0.0,0.0,0.0]},"KHR_materials_ior":{"ior":1.0}}},{"name":"material_0_material","pbrMetallicRoughness":{"baseColorTexture":{"index":0},"metallicFactor":0.0},"extensions":{"KHR_materials_specular":{"specularFactor":1.0,"specularColorFactor":[0.0,0.0,0.0]},"KHR_materials_ior":{"ior":1.0}}},{"name":"material_1_material","pbrMetallicRoughness":{"baseColorTexture":{"index":1},"metallicFactor":0.0},"extensions":{"KHR_materials_specular":{"specularFactor":1.0,"specularColorFactor":[0.0,0.0,0.0]},"KHR_materials_ior":{"ior":1.0}}}],"meshes":[{"name":"defaultobject","primitives":[{"mode":4,"material":1,"indices":2,"attributes":{"POSITION":0,"TEXCOORD_0":1}},{"mode":4,"material":2,"indices":5,"attributes":{"POSITION":3,"TEXCOORD_0":4}}]}],"nodes":[{"name":"tile_0789.obj","children":[1]},{"name":"defaultobject","mesh":0}],"samplers":[{},{}],"scenes":[{"nodes":[0]}],"textures":[{"source":0,"sampler":0},{"source":1,"sampler":1}],"scene":0}
