{"asset":{"version":"2.0","generator":"Open Asset Import Library (assimp v6.0.0)"},"extensionsUsed":["KHR_materials_specular","KHR_materials_volume","KHR_materials_ior","FB_ngon_encoding"],"accessors":[{"bufferView":0,"byteOffset":0,"componentType":5126,"count":5397,"type":"VEC3","max":[-1.9608160257339478,2.030482769012451,4.385100364685059],"min":[-2.2428290843963623,2.2250738585072014e-308,2.2250738585072014e-308]},{"bufferView":1,"byteOffset":0,"componentType":5126,"count":5397,"type":"VEC2","max":[0.9840361475944519,0.6288909912109375],"min":[2.2250738585072014e-308,2.2250738585072014e-308]},{"bufferView":2,"byteOffset":0,"componentType":5125,"count":23826,"type":"SCALAR","max":[5396],"min":[0]},{"bufferView":3,"byteOffset":0,"componentType":5126,"count":9,"type":"VEC3","max":[-1.9679008722305298,2.029134750366211,4.3850860595703125],"min":[-1.9937177896499634,2.2250738585072014e-308,2.2250738585072014e-308]},{"bufferView":4,"byteOffset":0,"componentType":5126,"count":9,"type":"VEC2","max":[0.6325759887695312,0.4802550673484802],"min":[2.2250738585072014e-308,2.2250738585072014e-308]},{"bufferView":5,"byteOffset":0,"componentType":5125,"count":18,"type":"SCALAR","max":[8],"min":[0]}],"buffers":[{"byteLength":203496,"uri":"tile_0574.bin"}],"bufferViews":[{"buffer":0,"byteOffset":0,"byteLength":64764,"target":34962},{"buffer":0,"byteOffset":64764,"byteLength":43176,"target":34962},{"buffer":0,"byteOffset":107940,"byteLength":95304,"target":34963},{"buffer":0,"byteOffset":203244,"byteLength":108,"target":34962},{"buffer":0,"byteOffset":203352,"byteLength":72,"target":34962},{"buffer":0,"byteOffset":203424,"byteLength":72,"target":34963}],"images":[{"uri":"../textures/tile_0574_material_0.jpg"},{"uri":"../textures/tile_0574_material_1.jpg"}],"materials":[{"name":"DefaultMaterial","pbrMetallicRoughness":{"baseColorFactor":[0.6000000238418579,0.6000000238418579,0.6000000238418579,1.0],"metallicFactor":0.0},"extensions":{"KHR_materials_specular":{"specularFactor":1.0,"specularColorFactor":[0.0,0.0,0.0]},"KHR_materials_ior":{"ior":1.0}}},{"name":"material_0_material","pbrMetallicRoughness":{"baseColorTexture":{"index":0},"metallicFactor":0.0},"extensions":{"KHR_materials_specular":{"specularFactor":1.0,"specularColorFactor":[0.0,0.0,0.0]},"KHR_materials_ior":{"ior":1.0}}},{"name":"material_1_material","pbrMetallicRoughness":{"baseColorTexture":{"index":1},"metallicFactor":0.0},"extensions":{"KHR_materials_specular":{"specularFactor":1.0,"specularColorFactor":[0.0,0.0,0.0]},"KHR_materials_ior":{"ior":1.0}}}],"meshes":[{"name":"defaultobject","primitives":[{"mode":4,"material":1,"indices":2,"attributes":{"POSITION":0,"TEXCOORD_0":1}},{"mode":4,"material":2,"indices":5,"attributes":{"POSITION":3,"TEXCOORD_0":4}}]}],"nodes":[{"name":"tile_0574.obj","children":[1]},{"name":"defaultobject","mesh":0}],"samplers":[{},{}],"scenes":[{"nodes":[0]}],"textures":[{"source":0,"sampler":0},{"source":1,"sampler":1}],"scene":0}
