{"asset":{"version":"2.0","generator":"Open Asset Import Library (assimp v6.0.0)"},"extensionsUsed":["KHR_materials_specular","KHR_materials_volume","KHR_materials_ior","FB_ngon_encoding"],"accessors":[{"bufferView":0,"byteOffset":0,"componentType":5126,"count":4064,"type":"VEC3","max":[-2.7988359928131104,0.7418928742408752,4.201225280761719],"min":[-3.1544227600097656,2.2250738585072014e-308,2.2250738585072014e-308]},{"bufferView":1,"byteOffset":0,"componentType":5126,"count":4064,"type":"VEC2","max":[0.9911680221557617,0.9290695190429688],"min":[2.2250738585072014e-308,2.2250738585072014e-308]},{"bufferView":2,"byteOffset":0,"componentType":5125,"count":17718,"type":"SCALAR","max":[4063],"min":[0]},{"bufferView":3,"byteOffset":0,"componentType":5126,"count":1225,"type":"VEC3","max":[-2.7976748943328857,0.7396423816680908,4.20147180557251],"min":[-2.961638927459717,2.2250738585072014e-308,2.2250738585072014e-308]},{"bufferView":4,"byteOffset":0,"componentType":5126,"count":1225,"type":"VEC2","max":[0.9733781814575195,0.769378662109375],"min":[2.2250738585072014e-308,2.2250738585072014e-308]},{"bufferView":5,"byteOffset":0,"componentType":5125,"count":6198,"type":"SCALAR","max":[1224],"min":[0]}],"buffers":[{"byteLength":201444,"uri":"tile_0134.bin"}],"bufferViews":[{"buffer":0,"byteOffset":0,"byteLength":48768,"target":34962},{"buffer":0,"byteOffset":48768,"byteLength":32512,"target":34962},{"buffer":0,"byteOffset":81280,"byteLength":70872,"target":34963},{"buffer":0,"byteOffset":152152,"byteLength":14700,"target":34962},{"buffer":0,"byteOffset":166852,"byteLength":9800,"target":34962},{"buffer":0,"byteOffset":176652,"byteLength":24792,"target":34963}],"images":[{"uri":"../textures/tile_0134_material_0.jpg"},{"uri":"../textures/tile_0134_material_1.jpg"}],"materials":[{"name":"DefaultMaterial","pbrMetallicRoughness":{"baseColorFactor":[0.6000000238418579,0.6000000238418579,0.6000000238418579,1.0],"metallicFactor":0.0},"extensions":{"KHR_materials_specular":{"specularFactor":1.0,"specularColorFactor":[0.0,0.0,0.0]},"KHR_materials_ior":{"ior":1.0}}},{"name":"material_0_material","pbrMetallicRoughness":{"baseColorTexture":{"index":0},"metallicFactor":0.0},"extensions":{"KHR_materials_specular":{"specularFactor":1.0,"specularColorFactor":[0.0,0.0,0.0]},"KHR_materials_ior":{"ior":1.0}}},{"name":"material_1_material","pbrMetallicRoughness":{"baseColorTexture":{"index":1},"metallicFactor":0.0},"extensions":{"KHR_materials_specular":{"specularFactor":1.0,"specularColorFactor":[0.0,0.0,0.0]},"KHR_materials_ior":{"ior":1.0}}}],"meshes":[{"name":"defaultobject","primitives":[{"mode":4,"material":1,"indices":2,"attributes":{"POSITION":0,"TEXCOORD_0":1}},{"mode":4,"material":2,"indices":5,"attributes":{"POSITION":3,"TEXCOORD_0":4}}]}],"nodes":[{"name":"tile_0134.obj","children":[1]},{"name":"defaultobject","mesh":0}],"samplers":[{},{}],"scenes":[{"nodes":[0]}],"textures":[{"source":0,"sampler":0},{"source":1,"sampler":1}],"scene":0}
