{"asset":{"version":"2.0","generator":"Open Asset Import Library (assimp v6.0.0)"},"extensionsUsed":["KHR_materials_specular","KHR_materials_volume","KHR_materials_ior","FB_ngon_encoding"],"accessors":[{"bufferView":0,"byteOffset":0,"componentType":5126,"count":2995,"type":"VEC3","max":[-2.3348162174224854,-1.429997444152832,2.7112984657287598],"min":[-2.645779609680176,-1.6558500528335571,2.2250738585072014e-308]},{"bufferView":1,"byteOffset":0,"componentType":5126,"count":2995,"type":"VEC2","max":[0.9941534996032715,0.7801094055175781],"min":[2.2250738585072014e-308,2.2250738585072014e-308]},{"bufferView":2,"byteOffset":0,"componentType":5125,"count":14376,"type":"SCALAR","max":[2994],"min":[0]},{"bufferView":3,"byteOffset":0,"componentType":5126,"count":1275,"type":"VEC3","max":[-2.333583116531372,-1.4304382801055908,2.7112984657287598],"min":[-2.6515073776245117,-1.6556172370910645,2.2250738585072014e-308]},{"bufferView":4,"byteOffset":0,"componentType":5126,"count":1275,"type":"VEC2","max":[0.7024850845336914,0.8034934997558594],"min":[2.2250738585072014e-308,2.2250738585072014e-308]},{"bufferView":5,"byteOffset":0,"componentType":5125,"count":6624,"type":"SCALAR","max":[1274],"min":[0]}],"buffers":[{"byteLength":169400,"uri":"tile_0070.bin"}],"bufferViews":[{"buffer":0,"byteOffset":0,"byteLength":35940,"target":34962},{"buffer":0,"byteOffset":35940,"byteLength":23960,"target":34962},{"buffer":0,"byteOffset":59900,"byteLength":57504,"target":34963},{"buffer":0,"byteOffset":117404,"byteLength":15300,"target":34962},{"buffer":0,"byteOffset":132704,"byteLength":10200,"target":34962},{"buffer":0,"byteOffset":142904,"byteLength":26496,"target":34963}],"images":[{"uri":"../textures/tile_0070_material_0.jpg"},{"uri":"../textures/tile_0070_material_1.jpg"}],"materials":[{"name":"DefaultMaterial","pbrMetallicRoughness":{"baseColorFactor":[0.6000000238418579,0.6000000238418579,0.6000000238418579,1.0],"metallicFactor":0.0},"extensions":{"KHR_materials_specular":{"specularFactor":1.0,"specularColorFactor":[0.0,0.0,0.0]},"KHR_materials_ior":{"ior":1.0}}},{"name":"material_0_material","pbrMetallicRoughness":{"baseColorTexture":{"index":0},"metallicFactor":0.0},"extensions":{"KHR_materials_specular":{"specularFactor":1.0,"specularColorFactor":[0.0,0.0,0.0]},"KHR_materials_ior":{"ior":1.0}}},{"name":"material_1_material","pbrMetallicRoughness":{"baseColorTexture":{"index":1},"metallicFactor":0.0},"extensions":{"KHR_materials_specular":{"specularFactor":1.0,"specularColorFactor":[0.0,0.0,0.0]},"KHR_materials_ior":{"ior":1.0}}}],"meshes":[{"name":"defaultobject","primitives":[{"mode":4,"material":1,"indices":2,"attributes":{"POSITION":0,"TEXCOORD_0":1}},{"mode":4,"material":2,"indices":5,"attributes":{"POSITION":3,"TEXCOORD_0":4}}]}],"nodes":[{"name":"tile_0070.obj","children":[1]},{"name":"defaultobject","mesh":0}],"samplers":[{},{}],"scenes":[{"nodes":[0]}],"textures":[{"source":0,"sampler":0},{"source":1,"sampler":1}],"scene":0}
