{"asset":{"version":"2.0","generator":"Open Asset Import Library (assimp v6.0.0)"},"extensionsUsed":["KHR_materials_specular","KHR_materials_volume","KHR_materials_ior","FB_ngon_encoding"],"accessors":[{"bufferView":0,"byteOffset":0,"componentType":5126,"count":4829,"type":"VEC3","max":[-0.41912326216697693,-0.02824169024825096,4.068525791168213],"min":[-0.7786950469017029,-0.1913556456565857,2.2250738585072014e-308]},{"bufferView":1,"byteOffset":0,"componentType":5126,"count":4829,"type":"VEC2","max":[0.9953885078430176,0.659698486328125],"min":[2.2250738585072014e-308,2.2250738585072014e-308]},{"bufferView":2,"byteOffset":0,"componentType":5125,"count":22314,"type":"SCALAR","max":[4828],"min":[0]},{"bufferView":3,"byteOffset":0,"componentType":5126,"count":133,"type":"VEC3","max":[-0.38122519850730896,-0.003295527072623372,4.075341701507568],"min":[-0.7794461250305176,-0.11753898859024048,2.2250738585072014e-308]},{"bufferView":4,"byteOffset":0,"componentType":5126,"count":133,"type":"VEC2","max":[0.5957355499267578,0.8251953125],"min":[2.2250738585072014e-308,2.2250738585072014e-308]},{"bufferView":5,"byteOffset":0,"componentType":5125,"count":546,"type":"SCALAR","max":[132],"min":[0]}],"buffers":[{"byteLength":190680,"uri":"tile_0470.bin"}],"bufferViews":[{"buffer":0,"byteOffset":0,"byteLength":57948,"target":34962},{"buffer":0,"byteOffset":57948,"byteLength":38632,"target":34962},{"buffer":0,"byteOffset":96580,"byteLength":89256,"target":34963},{"buffer":0,"byteOffset":185836,"byteLength":1596,"target":34962},{"buffer":0,"byteOffset":187432,"byteLength":1064,"target":34962},{"buffer":0,"byteOffset":188496,"byteLength":2184,"target":34963}],"images":[{"uri":"../textures/tile_0470_material_0.jpg"},{"uri":"../textures/tile_0470_material_1.jpg"}],"materials":[{"name":"DefaultMaterial","pbrMetallicRoughness":{"baseColorFactor":[0.6000000238418579,0.6000000238418579,0.6000000238418579,1.0],"metallicFactor":0.0},"extensions":{"KHR_materials_specular":{"specularFactor":1.0,"specularColorFactor":[0.0,0.0,0.0]},"KHR_materials_ior":{"ior":1.0}}},{"name":"material_0_material","pbrMetallicRoughness":{"baseColorTexture":{"index":0},"metallicFactor":0.0},"extensions":{"KHR_materials_specular":{"specularFactor":1.0,"specularColorFactor":[0.0,0.0,0.0]},"KHR_materials_ior":{"ior":1.0}}},{"name":"material_1_material","pbrMetallicRoughness":{"baseColorTexture":{"index":1},"metallicFactor":0.0},"extensions":{"KHR_materials_specular":{"specularFactor":1.0,"specularColorFactor":[0.0,0.0,0.0]},"KHR_materials_ior":{"ior":1.0}}}],"meshes":[{"name":"defaultobject","primitives":[{"mode":4,"material":1,"indices":2,"attributes":{"POSITION":0,"TEXCOORD_0":1}},{"mode":4,"material":2,"indices":5,"attributes":{"POSITION":3,"TEXCOORD_0":4}}]}],"nodes":[{"name":"tile_0470.obj","children":[1]},{"name":"defaultobject","mesh":0}],"samplers":[{},{}],"scenes":[{"nodes":[0]}],"textures":[{"source":0,"sampler":0},{"source":1,"sampler":1}],"scene":0}
