{"asset":{"version":"2.0","generator":"Open Asset Import Library (assimp v6.0.0)"},"extensionsUsed":["KHR_materials_specular","KHR_materials_volume","KHR_materials_ior","FB_ngon_encoding"],"accessors":[{"bufferView":0,"byteOffset":0,"componentType":5126,"count":3415,"type":"VEC3","max":[5.5549635887146,2.03332781791687,4.394430160522461],"min":[2.2250738585072014e-308,2.2250738585072014e-308,2.2250738585072014e-308]},{"bufferView":1,"byteOffset":0,"componentType":5126,"count":3415,"type":"VEC2","max":[0.9869556427001953,0.5415973663330078],"min":[2.2250738585072014e-308,2.2250738585072014e-308]},{"bufferView":2,"byteOffset":0,"componentType":5125,"count":15552,"type":"SCALAR","max":[3414],"min":[0]},{"bufferView":3,"byteOffset":0,"componentType":5126,"count":1071,"type":"VEC3","max":[5.5549635887146,1.999626636505127,4.377002239227295],"min":[2.2250738585072014e-308,2.2250738585072014e-308,2.2250738585072014e-308]},{"bufferView":4,"byteOffset":0,"componentType":5126,"count":1071,"type":"VEC2","max":[0.5675797462463379,0.9053955078125],"min":[2.2250738585072014e-308,2.2250738585072014e-308]},{"bufferView":5,"byteOffset":0,"componentType":5125,"count":5325,"type":"SCALAR","max":[1070],"min":[0]}],"buffers":[{"byteLength":173228,"uri":"tile_0674.bin"}],"bufferViews":[{"buffer":0,"byteOffset":0,"byteLength":40980,"target":34962},{"buffer":0,"byteOffset":40980,"byteLength":27320,"target":34962},{"buffer":0,"byteOffset":68300,"byteLength":62208,"target":34963},{"buffer":0,"byteOffset":130508,"byteLength":12852,"target":34962},{"buffer":0,"byteOffset":143360,"byteLength":8568,"target":34962},{"buffer":0,"byteOffset":151928,"byteLength":21300,"target":34963}],"images":[{"uri":"../textures/tile_0674_material_0.jpg"},{"uri":"../textures/tile_0674_material_1.jpg"}],"materials":[{"name":"DefaultMaterial","pbrMetallicRoughness":{"baseColorFactor":[0.6000000238418579,0.6000000238418579,0.6000000238418579,1.0],"metallicFactor":0.0},"extensions":{"KHR_materials_specular":{"specularFactor":1.0,"specularColorFactor":[0.0,0.0,0.0]},"KHR_materials_ior":{"ior":1.0}}},{"name":"material_0_material","pbrMetallicRoughness":{"baseColorTexture":{"index":0},"metallicFactor":0.0},"extensions":{"KHR_materials_specular":{"specularFactor":1.0,"specularColorFactor":[0.0,0.0,0.0]},"KHR_materials_ior":{"ior":1.0}}},{"name":"material_1_material","pbrMetallicRoughness":{"baseColorTexture":{"index":1},"metallicFactor":0.0},"extensions":{"KHR_materials_specular":{"specularFactor":1.0,"specularColorFactor":[0.0,0.0,0.0]},"KHR_materials_ior":{"ior":1.0}}}],"meshes":[{"name":"defaultobject","primitives":[{"mode":4,"material":1,"indices":2,"attributes":{"POSITION":0,"TEXCOORD_0":1}},{"mode":4,"material":2,"indices":5,"attributes":{"POSITION":3,"TEXCOORD_0":4}}]}],"nodes":[{"name":"tile_0674.obj","children":[1]},{"name":"defaultobject","mesh":0}],"samplers":[{},{}],"scenes":[{"nodes":[0]}],"textures":[{"source":0,"sampler":0},{"source":1,"sampler":1}],"scene":0}
