{"asset":{"version":"2.0","generator":"Open Asset Import Library (assimp v6.0.0)"},"extensionsUsed":["KHR_materials_specular","KHR_materials_volume","KHR_materials_ior","FB_ngon_encoding"],"accessors":[{"bufferView":0,"byteOffset":0,"componentType":5126,"count":2623,"type":"VEC3","max":[-0.1893492192029953,-0.3228471577167511,2.8109865188598633],"min":[-0.4214057922363281,-0.5400334000587463,2.2250738585072014e-308]},{"bufferView":1,"byteOffset":0,"componentType":5126,"count":2623,"type":"VEC2","max":[0.9924602508544922,0.7946434020996094],"min":[2.2250738585072014e-308,2.2250738585072014e-308]},{"bufferView":2,"byteOffset":0,"componentType":5125,"count":11433,"type":"SCALAR","max":[2622],"min":[0]},{"bufferView":3,"byteOffset":0,"componentType":5126,"count":1697,"type":"VEC3","max":[-0.19024629890918732,-0.32331836223602295,2.802999496459961],"min":[-0.42407771944999695,-0.5367743968963623,2.2250738585072014e-308]},{"bufferView":4,"byteOffset":0,"componentType":5126,"count":1697,"type":"VEC2","max":[0.7815823554992676,0.662445068359375],"min":[2.2250738585072014e-308,2.2250738585072014e-308]},{"bufferView":5,"byteOffset":0,"componentType":5125,"count":8796,"type":"SCALAR","max":[1696],"min":[0]}],"buffers":[{"byteLength":167316,"uri":"tile_0159.bin"}],"bufferViews":[{"buffer":0,"byteOffset":0,"byteLength":31476,"target":34962},{"buffer":0,"byteOffset":31476,"byteLength":20984,"target":34962},{"buffer":0,"byteOffset":52460,"byteLength":45732,"target":34963},{"buffer":0,"byteOffset":98192,"byteLength":20364,"target":34962},{"buffer":0,"byteOffset":118556,"byteLength":13576,"target":34962},{"buffer":0,"byteOffset":132132,"byteLength":35184,"target":34963}],"images":[{"uri":"../textures/tile_0159_material_0.jpg"},{"uri":"../textures/tile_0159_material_1.jpg"}],"materials":[{"name":"DefaultMaterial","pbrMetallicRoughness":{"baseColorFactor":[0.6000000238418579,0.6000000238418579,0.6000000238418579,1.0],"metallicFactor":0.0},"extensions":{"KHR_materials_specular":{"specularFactor":1.0,"specularColorFactor":[0.0,0.0,0.0]},"KHR_materials_ior":{"ior":1.0}}},{"name":"material_0_material","pbrMetallicRoughness":{"baseColorTexture":{"index":0},"metallicFactor":0.0},"extensions":{"KHR_materials_specular":{"specularFactor":1.0,"specularColorFactor":[0.0,0.0,0.0]},"KHR_materials_ior":{"ior":1.0}}},{"name":"material_1_material","pbrMetallicRoughness":{"baseColorTexture":{"index":1},"metallicFactor":0.0},"extensions":{"KHR_materials_specular":{"specularFactor":1.0,"specularColorFactor":[0.0,0.0,0.0]},"KHR_materials_ior":{"ior":1.0}}}],"meshes":[{"name":"defaultobject","primitives":[{"mode":4,"material":1,"indices":2,"attributes":{"POSITION":0,"TEXCOORD_0":1}},{"mode":4,"material":2,"indices":5,"attributes":{"POSITION":3,"TEXCOORD_0":4}}]}],"nodes":[{"name":"tile_0159.obj","children":[1]},{"name":"defaultobject","mesh":0}],"samplers":[{},{}],"scenes":[{"nodes":[0]}],"textures":[{"source":0,"sampler":0},{"source":1,"sampler":1}],"scene":0}
