{"asset":{"version":"2.0","generator":"Open Asset Import Library (assimp v6.0.0)"},"extensionsUsed":["KHR_materials_specular","KHR_materials_volume","KHR_materials_ior","FB_ngon_encoding"],"accessors":[{"bufferView":0,"byteOffset":0,"componentType":5126,"count":3326,"type":"VEC3","max":[-0.7786990404129028,-4.429717540740967,2.5185329914093018],"min":[-0.9492008686065674,-4.820345401763916,2.2250738585072014e-308]},{"bufferView":1,"byteOffset":0,"componentType":5126,"count":3326,"type":"VEC2","max":[0.9882144927978516,0.8196029663085938],"min":[2.2250738585072014e-308,2.2250738585072014e-308]},{"bufferView":2,"byteOffset":0,"componentType":5125,"count":15009,"type":"SCALAR","max":[3325],"min":[0]},{"bufferView":3,"byteOffset":0,"componentType":5126,"count":1172,"type":"VEC3","max":[-0.778897762298584,-4.428319931030273,2.5206830501556396],"min":[-0.949103593826294,-4.7760396003723145,2.2250738585072014e-308]},{"bufferView":4,"byteOffset":0,"componentType":5126,"count":1172,"type":"VEC2","max":[0.49666786193847656,0.7526016235351562],"min":[2.2250738585072014e-308,2.2250738585072014e-308]},{"bufferView":5,"byteOffset":0,"componentType":5125,"count":5973,"type":"SCALAR","max":[1171],"min":[0]}],"buffers":[{"byteLength":173888,"uri":"tile_0352.bin"}],"bufferViews":[{"buffer":0,"byteOffset":0,"byteLength":39912,"target":34962},{"buffer":0,"byteOffset":39912,"byteLength":26608,"target":34962},{"buffer":0,"byteOffset":66520,"byteLength":60036,"target":34963},{"buffer":0,"byteOffset":126556,"byteLength":14064,"target":34962},{"buffer":0,"byteOffset":140620,"byteLength":9376,"target":34962},{"buffer":0,"byteOffset":149996,"byteLength":23892,"target":34963}],"images":[{"uri":"../textures/tile_0352_material_0.jpg"},{"uri":"../textures/tile_0352_material_1.jpg"}],"materials":[{"name":"DefaultMaterial","pbrMetallicRoughness":{"baseColorFactor":[0.6000000238418579,0.6000000238418579,0.6000000238418579,1.0],"metallicFactor":0.0},"extensions":{"KHR_materials_specular":{"specularFactor":1.0,"specularColorFactor":[0.0,0.0,0.0]},"KHR_materials_ior":{"ior":1.0}}},{"name":"material_0_material","pbrMetallicRoughness":{"baseColorTexture":{"index":0},"metallicFactor":0.0},"extensions":{"KHR_materials_specular":{"specularFactor":1.0,"specularColorFactor":[0.0,0.0,0.0]},"KHR_materials_ior":{"ior":1.0}}},{"name":"material_1_material","pbrMetallicRoughness":{"baseColorTexture":{"index":1},"metallicFactor":0.0},"extensions":{"KHR_materials_specular":{"specularFactor":1.0,"specularColorFactor":[0.0,0.0,0.0]},"KHR_materials_ior":{"ior":1.0}}}],"meshes":[{"name":"defaultobject","primitives":[{"mode":4,"material":1,"indices":2,"attributes":{"POSITION":0,"TEXCOORD_0":1}},{"mode":4,"material":2,"indices":5,"attributes":{"POSITION":3,"TEXCOORD_0":4}}]}],"nodes":[{"name":"tile_0352.obj","children":[1]},{"name":"defaultobject","mesh":0}],"samplers":[{},{}],"scenes":[{"nodes":[0]}],"textures":[{"source":0,"sampler":0},{"source":1,"sampler":1}],"scene":0}
