{"asset":{"version":"2.0","generator":"Open Asset Import Library (assimp v6.0.0)"},"extensionsUsed":["KHR_materials_specular","KHR_materials_volume","KHR_materials_ior","FB_ngon_encoding"],"accessors":[{"bufferView":0,"byteOffset":0,"componentType":5126,"count":4045,"type":"VEC3","max":[-2.0968594551086426,-0.2220516949892044,4.1451096534729],"min":[-2.444725513458252,-0.3724398612976074,2.2250738585072014e-308]},{"bufferView":1,"byteOffset":0,"componentType":5126,"count":4045,"type":"VEC2","max":[0.9952421188354492,0.5474033355712891],"min":[2.2250738585072014e-308,2.2250738585072014e-308]},{"bufferView":2,"byteOffset":0,"componentType":5125,"count":18714,"type":"SCALAR","max":[4044],"min":[0]},{"bufferView":3,"byteOffset":0,"componentType":5126,"count":818,"type":"VEC3","max":[-2.0831079483032227,-0.22525666654109955,4.139501571655273],"min":[-2.444725513458252,-0.3711511492729187,2.2250738585072014e-308]},{"bufferView":4,"byteOffset":0,"componentType":5126,"count":818,"type":"VEC2","max":[0.8986234664916992,0.8331871032714844],"min":[2.2250738585072014e-308,2.2250738585072014e-308]},{"bufferView":5,"byteOffset":0,"componentType":5125,"count":3717,"type":"SCALAR","max":[817],"min":[0]}],"buffers":[{"byteLength":186984,"uri":"tile_0412.bin"}],"bufferViews":[{"buffer":0,"byteOffset":0,"byteLength":48540,"target":34962},{"buffer":0,"byteOffset":48540,"byteLength":32360,"target":34962},{"buffer":0,"byteOffset":80900,"byteLength":74856,"target":34963},{"buffer":0,"byteOffset":155756,"byteLength":9816,"target":34962},{"buffer":0,"byteOffset":165572,"byteLength":6544,"target":34962},{"buffer":0,"byteOffset":172116,"byteLength":14868,"target":34963}],"images":[{"uri":"../textures/tile_0412_material_0.jpg"},{"uri":"../textures/tile_0412_material_1.jpg"}],"materials":[{"name":"DefaultMaterial","pbrMetallicRoughness":{"baseColorFactor":[0.6000000238418579,0.6000000238418579,0.6000000238418579,1.0],"metallicFactor":0.0},"extensions":{"KHR_materials_specular":{"specularFactor":1.0,"specularColorFactor":[0.0,0.0,0.0]},"KHR_materials_ior":{"ior":1.0}}},{"name":"material_0_material","pbrMetallicRoughness":{"baseColorTexture":{"index":0},"metallicFactor":0.0},"extensions":{"KHR_materials_specular":{"specularFactor":1.0,"specularColorFactor":[0.0,0.0,0.0]},"KHR_materials_ior":{"ior":1.0}}},{"name":"material_1_material","pbrMetallicRoughness":{"baseColorTexture":{"index":1},"metallicFactor":0.0},"extensions":{"KHR_materials_specular":{"specularFactor":1.0,"specularColorFactor":[0.0,0.0,0.0]},"KHR_materials_ior":{"ior":1.0}}}],"meshes":[{"name":"defaultobject","primitives":[{"mode":4,"material":1,"indices":2,"attributes":{"POSITION":0,"TEXCOORD_0":1}},{"mode":4,"material":2,"indices":5,"attributes":{"POSITION":3,"TEXCOORD_0":4}}]}],"nodes":[{"name":"tile_0412.obj","children":[1]},{"name":"defaultobject","mesh":0}],"samplers":[{},{}],"scenes":[{"nodes":[0]}],"textures":[{"source":0,"sampler":0},{"source":1,"sampler":1}],"scene":0}
