{"asset":{"version":"2.0","generator":"Open Asset Import Library (assimp v6.0.0)"},"extensionsUsed":["KHR_materials_specular","KHR_materials_volume","KHR_materials_ior","FB_ngon_encoding"],"accessors":[{"bufferView":0,"byteOffset":0,"componentType":5126,"count":2913,"type":"VEC3","max":[-0.027103241533041,-1.9446446895599365,2.617887496948242],"min":[-0.22637267410755157,-2.2094616889953613,2.2250738585072014e-308]},{"bufferView":1,"byteOffset":0,"componentType":5126,"count":2913,"type":"VEC2","max":[0.991999626159668,0.77227783203125],"min":[2.2250738585072014e-308,2.2250738585072014e-308]},{"bufferView":2,"byteOffset":0,"componentType":5125,"count":13170,"type":"SCALAR","max":[2912],"min":[0]},{"bufferView":3,"byteOffset":0,"componentType":5126,"count":1098,"type":"VEC3","max":[-0.08288141340017319,-1.9460105895996094,2.612316131591797],"min":[-0.22638939321041107,-2.208139419555664,2.2250738585072014e-308]},{"bufferView":4,"byteOffset":0,"componentType":5126,"count":1098,"type":"VEC2","max":[0.8904752731323242,0.9170913696289062],"min":[2.2250738585072014e-308,2.2250738585072014e-308]},{"bufferView":5,"byteOffset":0,"componentType":5125,"count":5757,"type":"SCALAR","max":[1097],"min":[0]}],"buffers":[{"byteLength":155928,"uri":"tile_0396.bin"}],"bufferViews":[{"buffer":0,"byteOffset":0,"byteLength":34956,"target":34962},{"buffer":0,"byteOffset":34956,"byteLength":23304,"target":34962},{"buffer":0,"byteOffset":58260,"byteLength":52680,"target":34963},{"buffer":0,"byteOffset":110940,"byteLength":13176,"target":34962},{"buffer":0,"byteOffset":124116,"byteLength":8784,"target":34962},{"buffer":0,"byteOffset":132900,"byteLength":23028,"target":34963}],"images":[{"uri":"../textures/tile_0396_material_0.jpg"},{"uri":"../textures/tile_0396_material_1.jpg"}],"materials":[{"name":"DefaultMaterial","pbrMetallicRoughness":{"baseColorFactor":[0.6000000238418579,0.6000000238418579,0.6000000238418579,1.0],"metallicFactor":0.0},"extensions":{"KHR_materials_specular":{"specularFactor":1.0,"specularColorFactor":[0.0,0.0,0.0]},"KHR_materials_ior":{"ior":1.0}}},{"name":"material_0_material","pbrMetallicRoughness":{"baseColorTexture":{"index":0},"metallicFactor":0.0},"extensions":{"KHR_materials_specular":{"specularFactor":1.0,"specularColorFactor":[0.0,0.0,0.0]},"KHR_materials_ior":{"ior":1.0}}},{"name":"material_1_material","pbrMetallicRoughness":{"baseColorTexture":{"index":1},"metallicFactor":0.0},"extensions":{"KHR_materials_specular":{"specularFactor":1.0,"specularColorFactor":[0.0,0.0,0.0]},"KHR_materials_ior":{"ior":1.0}}}],"meshes":[{"name":"defaultobject","primitives":[{"mode":4,"material":1,"indices":2,"attributes":{"POSITION":0,"TEXCOORD_0":1}},{"mode":4,"material":2,"indices":5,"attributes":{"POSITION":3,"TEXCOORD_0":4}}]}],"nodes":[{"name":"tile_0396.obj","children":[1]},{"name":"defaultobject","mesh":0}],"samplers":[{},{}],"scenes":[{"nodes":[0]}],"textures":[{"source":0,"sampler":0},{"source":1,"sampler":1}],"scene":0}
