{"asset":{"version":"2.0","generator":"Open Asset Import Library (assimp v6.0.0)"},"extensionsUsed":["KHR_materials_specular","KHR_materials_volume","KHR_materials_ior","FB_ngon_encoding"],"accessors":[{"bufferView":0,"byteOffset":0,"componentType":5126,"count":1916,"type":"VEC3","max":[-0.40964531898498535,4.038144111633301,4.674342155456543],"min":[-0.8626629710197449,2.2250738585072014e-308,2.2250738585072014e-308]},{"bufferView":1,"byteOffset":0,"componentType":5126,"count":1916,"type":"VEC2","max":[0.972386360168457,0.9474105834960938],"min":[2.2250738585072014e-308,2.2250738585072014e-308]},{"bufferView":2,"byteOffset":0,"componentType":5125,"count":8598,"type":"SCALAR","max":[1915],"min":[0]},{"bufferView":3,"byteOffset":0,"componentType":5126,"count":907,"type":"VEC3","max":[-0.410825252532959,4.052663326263428,4.67647123336792],"min":[-0.8596248030662537,2.2250738585072014e-308,2.2250738585072014e-308]},{"bufferView":4,"byteOffset":0,"componentType":5126,"count":907,"type":"VEC2","max":[0.858879566192627,0.5715522766113281],"min":[2.2250738585072014e-308,2.2250738585072014e-308]},{"bufferView":5,"byteOffset":0,"componentType":5125,"count":4491,"type":"SCALAR","max":[906],"min":[0]}],"buffers":[{"byteLength":108816,"uri":"tile_0503.bin"}],"bufferViews":[{"buffer":0,"byteOffset":0,"byteLength":22992,"target":34962},{"buffer":0,"byteOffset":22992,"byteLength":15328,"target":34962},{"buffer":0,"byteOffset":38320,"byteLength":34392,"target":34963},{"buffer":0,"byteOffset":72712,"byteLength":10884,"target":34962},{"buffer":0,"byteOffset":83596,"byteLength":7256,"target":34962},{"buffer":0,"byteOffset":90852,"byteLength":17964,"target":34963}],"images":[{"uri":"../textures/tile_0503_material_0.jpg"},{"uri":"../textures/tile_0503_material_1.jpg"}],"materials":[{"name":"DefaultMaterial","pbrMetallicRoughness":{"baseColorFactor":[0.6000000238418579,0.6000000238418579,0.6000000238418579,1.0],"metallicFactor":0.0},"extensions":{"KHR_materials_specular":{"specularFactor":1.0,"specularColorFactor":[0.0,0.0,0.0]},"KHR_materials_ior":{"ior":1.0}}},{"name":"material_0_material","pbrMetallicRoughness":{"baseColorTexture":{"index":0},"metallicFactor":0.0},"extensions":{"KHR_materials_specular":{"specularFactor":1.0,"specularColorFactor":[0.0,0.0,0.0]},"KHR_materials_ior":{"ior":1.0}}},{"name":"material_1_material","pbrMetallicRoughness":{"baseColorTexture":{"index":1},"metallicFactor":0.0},"extensions":{"KHR_materials_specular":{"specularFactor":1.0,"specularColorFactor":[0.0,0.0,0.0]},"KHR_materials_ior":{"ior":1.0}}}],"meshes":[{"name":"defaultobject","primitives":[{"mode":4,"material":1,"indices":2,"attributes":{"POSITION":0,"TEXCOORD_0":1}},{"mode":4,"material":2,"indices":5,"attributes":{"POSITION":3,"TEXCOORD_0":4}}]}],"nodes":[{"name":"tile_0503.obj","children":[1]},{"name":"defaultobject","mesh":0}],"samplers":[{},{}],"scenes":[{"nodes":[0]}],"textures":[{"source":0,"sampler":0},{"source":1,"sampler":1}],"scene":0}
