{"asset":{"version":"2.0","generator":"Open Asset Import Library (assimp v6.0.0)"},"extensionsUsed":["KHR_materials_specular","KHR_materials_volume","KHR_materials_ior","FB_ngon_encoding"],"accessors":[{"bufferView":0,"byteOffset":0,"componentType":5126,"count":4096,"type":"VEC3","max":[1.5580897331237793,0.722312331199646,4.100136756896973],"min":[2.2250738585072014e-308,2.2250738585072014e-308,2.2250738585072014e-308]},{"bufferView":1,"byteOffset":0,"componentType":5126,"count":4096,"type":"VEC2","max":[0.9909639358520508,0.769622802734375],"min":[2.2250738585072014e-308,2.2250738585072014e-308]},{"bufferView":2,"byteOffset":0,"componentType":5125,"count":18267,"type":"SCALAR","max":[4095],"min":[0]},{"bufferView":3,"byteOffset":0,"componentType":5126,"count":282,"type":"VEC3","max":[1.3241522312164307,0.5755702257156372,4.087037086486816],"min":[2.2250738585072014e-308,2.2250738585072014e-308,2.2250738585072014e-308]},{"bufferView":4,"byteOffset":0,"componentType":5126,"count":282,"type":"VEC2","max":[0.7427520751953125,0.6875648498535156],"min":[2.2250738585072014e-308,2.2250738585072014e-308]},{"bufferView":5,"byteOffset":0,"componentType":5125,"count":1401,"type":"SCALAR","max":[281],"min":[0]}],"buffers":[{"byteLength":166232,"uri":"tile_0711.bin"}],"bufferViews":[{"buffer":0,"byteOffset":0,"byteLength":49152,"target":34962},{"buffer":0,"byteOffset":49152,"byteLength":32768,"target":34962},{"buffer":0,"byteOffset":81920,"byteLength":73068,"target":34963},{"buffer":0,"byteOffset":154988,"byteLength":3384,"target":34962},{"buffer":0,"byteOffset":158372,"byteLength":2256,"target":34962},{"buffer":0,"byteOffset":160628,"byteLength":5604,"target":34963}],"images":[{"uri":"../textures/tile_0711_material_0.jpg"},{"uri":"../textures/tile_0711_material_1.jpg"}],"materials":[{"name":"DefaultMaterial","pbrMetallicRoughness":{"baseColorFactor":[0.6000000238418579,0.6000000238418579,0.6000000238418579,1.0],"metallicFactor":0.0},"extensions":{"KHR_materials_specular":{"specularFactor":1.0,"specularColorFactor":[0.0,0.0,0.0]},"KHR_materials_ior":{"ior":1.0}}},{"name":"material_0_material","pbrMetallicRoughness":{"baseColorTexture":{"index":0},"metallicFactor":0.0},"extensions":{"KHR_materials_specular":{"specularFactor":1.0,"specularColorFactor":[0.0,0.0,0.0]},"KHR_materials_ior":{"ior":1.0}}},{"name":"material_1_material","pbrMetallicRoughness":{"baseColorTexture":{"index":1},"metallicFactor":0.0},"extensions":{"KHR_materials_specular":{"specularFactor":1.0,"specularColorFactor":[0.0,0.0,0.0]},"KHR_materials_ior":{"ior":1.0}}}],"meshes":[{"name":"defaultobject","primitives":[{"mode":4,"material":1,"indices":2,"attributes":{"POSITION":0,"TEXCOORD_0":1}},{"mode":4,"material":2,"indices":5,"attributes":{"POSITION":3,"TEXCOORD_0":4}}]}],"nodes":[{"name":"tile_0711.obj","children":[1]},{"name":"defaultobject","mesh":0}],"samplers":[{},{}],"scenes":[{"nodes":[0]}],"textures":[{"source":0,"sampler":0},{"source":1,"sampler":1}],"scene":0}
