{"asset":{"version":"2.0","generator":"Open Asset Import Library (assimp v6.0.0)"},"extensionsUsed":["KHR_materials_specular","KHR_materials_volume","KHR_materials_ior","FB_ngon_encoding"],"accessors":[{"bufferView":0,"byteOffset":0,"componentType":5126,"count":1092,"type":"VEC3","max":[-0.8488894701004028,3.321547031402588,4.580935478210449],"min":[-1.1341012716293335,2.2250738585072014e-308,2.2250738585072014e-308]},{"bufferView":1,"byteOffset":0,"componentType":5126,"count":1092,"type":"VEC2","max":[0.9849362373352051,0.70819091796875],"min":[2.2250738585072014e-308,2.2250738585072014e-308]},{"bufferView":2,"byteOffset":0,"componentType":5125,"count":5025,"type":"SCALAR","max":[1091],"min":[0]},{"bufferView":3,"byteOffset":0,"componentType":5126,"count":1611,"type":"VEC3","max":[-0.8415680527687073,3.323101043701172,4.588222980499268],"min":[-1.1505653858184814,2.2250738585072014e-308,2.2250738585072014e-308]},{"bufferView":4,"byteOffset":0,"componentType":5126,"count":1611,"type":"VEC2","max":[0.7858710289001465,0.6806516647338867],"min":[2.2250738585072014e-308,2.2250738585072014e-308]},{"bufferView":5,"byteOffset":0,"componentType":5125,"count":8061,"type":"SCALAR","max":[1610],"min":[0]}],"buffers":[{"byteLength":106404,"uri":"tile_0506.bin"}],"bufferViews":[{"buffer":0,"byteOffset":0,"byteLength":13104,"target":34962},{"buffer":0,"byteOffset":13104,"byteLength":8736,"target":34962},{"buffer":0,"byteOffset":21840,"byteLength":20100,"target":34963},{"buffer":0,"byteOffset":41940,"byteLength":19332,"target":34962},{"buffer":0,"byteOffset":61272,"byteLength":12888,"target":34962},{"buffer":0,"byteOffset":74160,"byteLength":32244,"target":34963}],"images":[{"uri":"../textures/tile_0506_material_0.jpg"},{"uri":"../textures/tile_0506_material_1.jpg"}],"materials":[{"name":"DefaultMaterial","pbrMetallicRoughness":{"baseColorFactor":[0.6000000238418579,0.6000000238418579,0.6000000238418579,1.0],"metallicFactor":0.0},"extensions":{"KHR_materials_specular":{"specularFactor":1.0,"specularColorFactor":[0.0,0.0,0.0]},"KHR_materials_ior":{"ior":1.0}}},{"name":"material_0_material","pbrMetallicRoughness":{"baseColorTexture":{"index":0},"metallicFactor":0.0},"extensions":{"KHR_materials_specular":{"specularFactor":1.0,"specularColorFactor":[0.0,0.0,0.0]},"KHR_materials_ior":{"ior":1.0}}},{"name":"material_1_material","pbrMetallicRoughness":{"baseColorTexture":{"index":1},"metallicFactor":0.0},"extensions":{"KHR_materials_specular":{"specularFactor":1.0,"specularColorFactor":[0.0,0.0,0.0]},"KHR_materials_ior":{"ior":1.0}}}],"meshes":[{"name":"defaultobject","primitives":[{"mode":4,"material":1,"indices":2,"attributes":{"POSITION":0,"TEXCOORD_0":1}},{"mode":4,"material":2,"indices":5,"attributes":{"POSITION":3,"TEXCOORD_0":4}}]}],"nodes":[{"name":"tile_0506.obj","children":[1]},{"name":"defaultobject","mesh":0}],"samplers":[{},{}],"scenes":[{"nodes":[0]}],"textures":[{"source":0,"sampler":0},{"source":1,"sampler":1}],"scene":0}
