{"asset":{"version":"2.0","generator":"Open Asset Import Library (assimp v6.0.0)"},"extensionsUsed":["KHR_materials_specular","KHR_materials_volume","KHR_materials_ior","FB_ngon_encoding"],"accessors":[{"bufferView":0,"byteOffset":0,"componentType":5126,"count":2906,"type":"VEC3","max":[-2.9733150005340576,-2.3810369968414307,2.574202299118042],"min":[-3.3013296127319336,-2.763831853866577,2.2250738585072014e-308]},{"bufferView":1,"byteOffset":0,"componentType":5126,"count":2906,"type":"VEC2","max":[0.9536933898925781,0.4988555908203125],"min":[2.2250738585072014e-308,2.2250738585072014e-308]},{"bufferView":2,"byteOffset":0,"componentType":5125,"count":14478,"type":"SCALAR","max":[2905],"min":[0]},{"bufferView":3,"byteOffset":0,"componentType":5126,"count":1680,"type":"VEC3","max":[-2.9735682010650635,-2.381757974624634,2.5811643600463867],"min":[-3.29864764213562,-2.7615818977355957,2.2250738585072014e-308]},{"bufferView":4,"byteOffset":0,"componentType":5126,"count":1680,"type":"VEC2","max":[0.642754077911377,0.8299179077148438],"min":[2.2250738585072014e-308,2.2250738585072014e-308]},{"bufferView":5,"byteOffset":0,"componentType":5125,"count":8355,"type":"SCALAR","max":[1679],"min":[0]}],"buffers":[{"byteLength":183052,"uri":"tile_0380.bin"}],"bufferViews":[{"buffer":0,"byteOffset":0,"byteLength":34872,"target":34962},{"buffer":0,"byteOffset":34872,"byteLength":23248,"target":34962},{"buffer":0,"byteOffset":58120,"byteLength":57912,"target":34963},{"buffer":0,"byteOffset":116032,"byteLength":20160,"target":34962},{"buffer":0,"byteOffset":136192,"byteLength":13440,"target":34962},{"buffer":0,"byteOffset":149632,"byteLength":33420,"target":34963}],"images":[{"uri":"../textures/tile_0380_material_0.jpg"},{"uri":"../textures/tile_0380_material_1.jpg"}],"materials":[{"name":"DefaultMaterial","pbrMetallicRoughness":{"baseColorFactor":[0.6000000238418579,0.6000000238418579,0.6000000238418579,1.0],"metallicFactor":0.0},"extensions":{"KHR_materials_specular":{"specularFactor":1.0,"specularColorFactor":[0.0,0.0,0.0]},"KHR_materials_ior":{"ior":1.0}}},{"name":"material_0_material","pbrMetallicRoughness":{"baseColorTexture":{"index":0},"metallicFactor":0.0},"extensions":{"KHR_materials_specular":{"specularFactor":1.0,"specularColorFactor":[0.0,0.0,0.0]},"KHR_materials_ior":{"ior":1.0}}},{"name":"material_1_material","pbrMetallicRoughness":{"baseColorTexture":{"index":1},"metallicFactor":0.0},"extensions":{"KHR_materials_specular":{"specularFactor":1.0,"specularColorFactor":[0.0,0.0,0.0]},"KHR_materials_ior":{"ior":1.0}}}],"meshes":[{"name":"defaultobject","primitives":[{"mode":4,"material":1,"indices":2,"attributes":{"POSITION":0,"TEXCOORD_0":1}},{"mode":4,"material":2,"indices":5,"attributes":{"POSITION":3,"TEXCOORD_0":4}}]}],"nodes":[{"name":"tile_0380.obj","children":[1]},{"name":"defaultobject","mesh":0}],"samplers":[{},{}],"scenes":[{"nodes":[0]}],"textures":[{"source":0,"sampler":0},{"source":1,"sampler":1}],"scene":0}
