{"asset":{"version":"2.0","generator":"Open Asset Import Library (assimp v6.0.0)"},"extensionsUsed":["KHR_materials_specular","KHR_materials_volume","KHR_materials_ior","FB_ngon_encoding"],"accessors":[{"bufferView":0,"byteOffset":0,"componentType":5126,"count":3056,"type":"VEC3","max":[5.2112321853637695,-2.180959463119507,3.9915785789489746],"min":[2.2250738585072014e-308,-2.410597324371338,2.2250738585072014e-308]},{"bufferView":1,"byteOffset":0,"componentType":5126,"count":3056,"type":"VEC2","max":[0.990288257598877,0.6707019805908203],"min":[2.2250738585072014e-308,2.2250738585072014e-308]},{"bufferView":2,"byteOffset":0,"componentType":5125,"count":13323,"type":"SCALAR","max":[3055],"min":[0]},{"bufferView":3,"byteOffset":0,"componentType":5126,"count":4370,"type":"VEC3","max":[5.215811729431152,-2.1666107177734375,4.030730724334717],"min":[2.2250738585072014e-308,-2.4117143154144287,2.2250738585072014e-308]},{"bufferView":4,"byteOffset":0,"componentType":5126,"count":4370,"type":"VEC2","max":[0.94085693359375,0.6516523361206055],"min":[2.2250738585072014e-308,2.2250738585072014e-308]},{"bufferView":5,"byteOffset":0,"componentType":5125,"count":23376,"type":"SCALAR","max":[4369],"min":[0]}],"buffers":[{"byteLength":295316,"uri":"tile_0736.bin"}],"bufferViews":[{"buffer":0,"byteOffset":0,"byteLength":36672,"target":34962},{"buffer":0,"byteOffset":36672,"byteLength":24448,"target":34962},{"buffer":0,"byteOffset":61120,"byteLength":53292,"target":34963},{"buffer":0,"byteOffset":114412,"byteLength":52440,"target":34962},{"buffer":0,"byteOffset":166852,"byteLength":34960,"target":34962},{"buffer":0,"byteOffset":201812,"byteLength":93504,"target":34963}],"images":[{"uri":"../textures/tile_0736_material_0.jpg"},{"uri":"../textures/tile_0736_material_1.jpg"}],"materials":[{"name":"DefaultMaterial","pbrMetallicRoughness":{"baseColorFactor":[0.6000000238418579,0.6000000238418579,0.6000000238418579,1.0],"metallicFactor":0.0},"extensions":{"KHR_materials_specular":{"specularFactor":1.0,"specularColorFactor":[0.0,0.0,0.0]},"KHR_materials_ior":{"ior":1.0}}},{"name":"material_0_material","pbrMetallicRoughness":{"baseColorTexture":{"index":0},"metallicFactor":0.0},"extensions":{"KHR_materials_specular":{"specularFactor":1.0,"specularColorFactor":[0.0,0.0,0.0]},"KHR_materials_ior":{"ior":1.0}}},{"name":"material_1_material","pbrMetallicRoughness":{"baseColorTexture":{"index":1},"metallicFactor":0.0},"extensions":{"KHR_materials_specular":{"specularFactor":1.0,"specularColorFactor":[0.0,0.0,0.0]},"KHR_materials_ior":{"ior":1.0}}}],"meshes":[{"name":"defaultobject","primitives":[{"mode":4,"material":1,"indices":2,"attributes":{"POSITION":0,"TEXCOORD_0":1}},{"mode":4,"material":2,"indices":5,"attributes":{"POSITION":3,"TEXCOORD_0":4}}]}],"nodes":[{"name":"tile_0736.obj","children":[1]},{"name":"defaultobject","mesh":0}],"samplers":[{},{}],"scenes":[{"nodes":[0]}],"textures":[{"source":0,"sampler":0},{"source":1,"sampler":1}],"scene":0}
