{"asset":{"version":"2.0","generator":"Open Asset Import Library (assimp v6.0.0)"},"extensionsUsed":["KHR_materials_specular","KHR_materials_volume","KHR_materials_ior","FB_ngon_encoding"],"accessors":[{"bufferView":0,"byteOffset":0,"componentType":5126,"count":4309,"type":"VEC3","max":[2.9038591384887695,-3.362799644470215,3.725754499435425],"min":[2.2250738585072014e-308,-3.6373941898345947,2.2250738585072014e-308]},{"bufferView":1,"byteOffset":0,"componentType":5126,"count":4309,"type":"VEC2","max":[0.9949021339416504,0.5380363464355469],"min":[2.2250738585072014e-308,2.2250738585072014e-308]},{"bufferView":2,"byteOffset":0,"componentType":5125,"count":19092,"type":"SCALAR","max":[4308],"min":[0]},{"bufferView":3,"byteOffset":0,"componentType":5126,"count":1145,"type":"VEC3","max":[2.9052467346191406,-3.360334634780884,3.7243309020996094],"min":[2.2250738585072014e-308,-3.636401891708374,2.2250738585072014e-308]},{"bufferView":4,"byteOffset":0,"componentType":5126,"count":1145,"type":"VEC2","max":[0.9187865257263184,0.6072158813476562],"min":[2.2250738585072014e-308,2.2250738585072014e-308]},{"bufferView":5,"byteOffset":0,"componentType":5125,"count":5589,"type":"SCALAR","max":[1144],"min":[0]}],"buffers":[{"byteLength":207804,"uri":"tile_0750.bin"}],"bufferViews":[{"buffer":0,"byteOffset":0,"byteLength":51708,"target":34962},{"buffer":0,"byteOffset":51708,"byteLength":34472,"target":34962},{"buffer":0,"byteOffset":86180,"byteLength":76368,"target":34963},{"buffer":0,"byteOffset":162548,"byteLength":13740,"target":34962},{"buffer":0,"byteOffset":176288,"byteLength":9160,"target":34962},{"buffer":0,"byteOffset":185448,"byteLength":22356,"target":34963}],"images":[{"uri":"../textures/tile_0750_material_0.jpg"},{"uri":"../textures/tile_0750_material_1.jpg"}],"materials":[{"name":"DefaultMaterial","pbrMetallicRoughness":{"baseColorFactor":[0.6000000238418579,0.6000000238418579,0.6000000238418579,1.0],"metallicFactor":0.0},"extensions":{"KHR_materials_specular":{"specularFactor":1.0,"specularColorFactor":[0.0,0.0,0.0]},"KHR_materials_ior":{"ior":1.0}}},{"name":"material_0_material","pbrMetallicRoughness":{"baseColorTexture":{"index":0},"metallicFactor":0.0},"extensions":{"KHR_materials_specular":{"specularFactor":1.0,"specularColorFactor":[0.0,0.0,0.0]},"KHR_materials_ior":{"ior":1.0}}},{"name":"material_1_material","pbrMetallicRoughness":{"baseColorTexture":{"index":1},"metallicFactor":0.0},"extensions":{"KHR_materials_specular":{"specularFactor":1.0,"specularColorFactor":[0.0,0.0,0.0]},"KHR_materials_ior":{"ior":1.0}}}],"meshes":[{"name":"defaultobject","primitives":[{"mode":4,"material":1,"indices":2,"attributes":{"POSITION":0,"TEXCOORD_0":1}},{"mode":4,"material":2,"indices":5,"attributes":{"POSITION":3,"TEXCOORD_0":4}}]}],"nodes":[{"name":"tile_0750.obj","children":[1]},{"name":"defaultobject","mesh":0}],"samplers":[{},{}],"scenes":[{"nodes":[0]}],"textures":[{"source":0,"sampler":0},{"source":1,"sampler":1}],"scene":0}
