{"asset":{"version":"2.0","generator":"Open Asset Import Library (assimp v6.0.0)"},"extensionsUsed":["KHR_materials_specular","KHR_materials_volume","KHR_materials_ior","FB_ngon_encoding"],"accessors":[{"bufferView":0,"byteOffset":0,"componentType":5126,"count":1767,"type":"VEC3","max":[5.530330657958984,2.6171774864196777,4.45076847076416],"min":[2.2250738585072014e-308,2.2250738585072014e-308,2.2250738585072014e-308]},{"bufferView":1,"byteOffset":0,"componentType":5126,"count":1767,"type":"VEC2","max":[0.9616775512695312,0.89874267578125],"min":[2.2250738585072014e-308,2.2250738585072014e-308]},{"bufferView":2,"byteOffset":0,"componentType":5125,"count":8364,"type":"SCALAR","max":[1766],"min":[0]},{"bufferView":3,"byteOffset":0,"componentType":5126,"count":2586,"type":"VEC3","max":[4.794022083282471,2.633023500442505,4.149826526641846],"min":[2.2250738585072014e-308,2.2250738585072014e-308,2.2250738585072014e-308]},{"bufferView":4,"byteOffset":0,"componentType":5126,"count":2586,"type":"VEC2","max":[0.6151344776153564,0.6141204833984375],"min":[2.2250738585072014e-308,2.2250738585072014e-308]},{"bufferView":5,"byteOffset":0,"componentType":5125,"count":13920,"type":"SCALAR","max":[2585],"min":[0]}],"buffers":[{"byteLength":176196,"uri":"tile_0668.bin"}],"bufferViews":[{"buffer":0,"byteOffset":0,"byteLength":21204,"target":34962},{"buffer":0,"byteOffset":21204,"byteLength":14136,"target":34962},{"buffer":0,"byteOffset":35340,"byteLength":33456,"target":34963},{"buffer":0,"byteOffset":68796,"byteLength":31032,"target":34962},{"buffer":0,"byteOffset":99828,"byteLength":20688,"target":34962},{"buffer":0,"byteOffset":120516,"byteLength":55680,"target":34963}],"images":[{"uri":"../textures/tile_0668_material_0.jpg"},{"uri":"../textures/tile_0668_material_1.jpg"}],"materials":[{"name":"DefaultMaterial","pbrMetallicRoughness":{"baseColorFactor":[0.6000000238418579,0.6000000238418579,0.6000000238418579,1.0],"metallicFactor":0.0},"extensions":{"KHR_materials_specular":{"specularFactor":1.0,"specularColorFactor":[0.0,0.0,0.0]},"KHR_materials_ior":{"ior":1.0}}},{"name":"material_0_material","pbrMetallicRoughness":{"baseColorTexture":{"index":0},"metallicFactor":0.0},"extensions":{"KHR_materials_specular":{"specularFactor":1.0,"specularColorFactor":[0.0,0.0,0.0]},"KHR_materials_ior":{"ior":1.0}}},{"name":"material_1_material","pbrMetallicRoughness":{"baseColorTexture":{"index":1},"metallicFactor":0.0},"extensions":{"KHR_materials_specular":{"specularFactor":1.0,"specularColorFactor":[0.0,0.0,0.0]},"KHR_materials_ior":{"ior":1.0}}}],"meshes":[{"name":"defaultobject","primitives":[{"mode":4,"material":1,"indices":2,"attributes":{"POSITION":0,"TEXCOORD_0":1}},{"mode":4,"material":2,"indices":5,"attributes":{"POSITION":3,"TEXCOORD_0":4}}]}],"nodes":[{"name":"tile_0668.obj","children":[1]},{"name":"defaultobject","mesh":0}],"samplers":[{},{}],"scenes":[{"nodes":[0]}],"textures":[{"source":0,"sampler":0},{"source":1,"sampler":1}],"scene":0}
