{"asset":{"version":"2.0","generator":"Open Asset Import Library (assimp v6.0.0)"},"extensionsUsed":["KHR_materials_specular","KHR_materials_volume","KHR_materials_ior","FB_ngon_encoding"],"accessors":[{"bufferView":0,"byteOffset":0,"componentType":5126,"count":5512,"type":"VEC3","max":[3.4105870723724365,-3.0893802642822266,3.723616361618042],"min":[2.2250738585072014e-308,-3.3712971210479736,2.2250738585072014e-308]},{"bufferView":1,"byteOffset":0,"componentType":5126,"count":5512,"type":"VEC2","max":[0.9941873550415039,0.7028598785400391],"min":[2.2250738585072014e-308,2.2250738585072014e-308]},{"bufferView":2,"byteOffset":0,"componentType":5125,"count":24537,"type":"SCALAR","max":[5511],"min":[0]},{"bufferView":3,"byteOffset":0,"componentType":5126,"count":41,"type":"VEC3","max":[3.319427728652954,-3.090550661087036,3.5946638584136963],"min":[2.2250738585072014e-308,-3.2287535667419434,2.2250738585072014e-308]},{"bufferView":4,"byteOffset":0,"componentType":5126,"count":41,"type":"VEC2","max":[0.44353488087654114,0.4819489121437073],"min":[2.2250738585072014e-308,2.2250738585072014e-308]},{"bufferView":5,"byteOffset":0,"componentType":5125,"count":147,"type":"SCALAR","max":[40],"min":[0]}],"buffers":[{"byteLength":209796,"uri":"tile_0741.bin"}],"bufferViews":[{"buffer":0,"byteOffset":0,"byteLength":66144,"target":34962},{"buffer":0,"byteOffset":66144,"byteLength":44096,"target":34962},{"buffer":0,"byteOffset":110240,"byteLength":98148,"target":34963},{"buffer":0,"byteOffset":208388,"byteLength":492,"target":34962},{"buffer":0,"byteOffset":208880,"byteLength":328,"target":34962},{"buffer":0,"byteOffset":209208,"byteLength":588,"target":34963}],"images":[{"uri":"../textures/tile_0741_material_0.jpg"},{"uri":"../textures/tile_0741_material_1.jpg"}],"materials":[{"name":"DefaultMaterial","pbrMetallicRoughness":{"baseColorFactor":[0.6000000238418579,0.6000000238418579,0.6000000238418579,1.0],"metallicFactor":0.0},"extensions":{"KHR_materials_specular":{"specularFactor":1.0,"specularColorFactor":[0.0,0.0,0.0]},"KHR_materials_ior":{"ior":1.0}}},{"name":"material_0_material","pbrMetallicRoughness":{"baseColorTexture":{"index":0},"metallicFactor":0.0},"extensions":{"KHR_materials_specular":{"specularFactor":1.0,"specularColorFactor":[0.0,0.0,0.0]},"KHR_materials_ior":{"ior":1.0}}},{"name":"material_1_material","pbrMetallicRoughness":{"baseColorTexture":{"index":1},"metallicFactor":0.0},"extensions":{"KHR_materials_specular":{"specularFactor":1.0,"specularColorFactor":[0.0,0.0,0.0]},"KHR_materials_ior":{"ior":1.0}}}],"meshes":[{"name":"defaultobject","primitives":[{"mode":4,"material":1,"indices":2,"attributes":{"POSITION":0,"TEXCOORD_0":1}},{"mode":4,"material":2,"indices":5,"attributes":{"POSITION":3,"TEXCOORD_0":4}}]}],"nodes":[{"name":"tile_0741.obj","children":[1]},{"name":"defaultobject","mesh":0}],"samplers":[{},{}],"scenes":[{"nodes":[0]}],"textures":[{"source":0,"sampler":0},{"source":1,"sampler":1}],"scene":0}
