{"asset":{"version":"2.0","generator":"Open Asset Import Library (assimp v6.0.0)"},"extensionsUsed":["KHR_materials_specular","KHR_materials_volume","KHR_materials_ior","FB_ngon_encoding"],"accessors":[{"bufferView":0,"byteOffset":0,"componentType":5126,"count":5502,"type":"VEC3","max":[0.8449094295501709,-3.346282720565796,2.768249750137329],"min":[2.2250738585072014e-308,-3.688917636871338,2.2250738585072014e-308]},{"bufferView":1,"byteOffset":0,"componentType":5126,"count":5502,"type":"VEC2","max":[0.9943826198577881,0.6168975830078125],"min":[2.2250738585072014e-308,2.2250738585072014e-308]},{"bufferView":2,"byteOffset":0,"componentType":5125,"count":23907,"type":"SCALAR","max":[5501],"min":[0]},{"bufferView":3,"byteOffset":0,"componentType":5126,"count":710,"type":"VEC3","max":[0.8438320755958557,-3.4868345260620117,2.7304322719573975],"min":[2.2250738585072014e-308,-3.690164566040039,2.2250738585072014e-308]},{"bufferView":4,"byteOffset":0,"componentType":5126,"count":710,"type":"VEC2","max":[0.5161342620849609,0.8446388244628906],"min":[2.2250738585072014e-308,2.2250738585072014e-308]},{"bufferView":5,"byteOffset":0,"componentType":5125,"count":3411,"type":"SCALAR","max":[709],"min":[0]}],"buffers":[{"byteLength":233512,"uri":"tile_0814.bin"}],"bufferViews":[{"buffer":0,"byteOffset":0,"byteLength":66024,"target":34962},{"buffer":0,"byteOffset":66024,"byteLength":44016,"target":34962},{"buffer":0,"byteOffset":110040,"byteLength":95628,"target":34963},{"buffer":0,"byteOffset":205668,"byteLength":8520,"target":34962},{"buffer":0,"byteOffset":214188,"byteLength":5680,"target":34962},{"buffer":0,"byteOffset":219868,"byteLength":13644,"target":34963}],"images":[{"uri":"../textures/tile_0814_material_0.jpg"},{"uri":"../textures/tile_0814_material_1.jpg"}],"materials":[{"name":"DefaultMaterial","pbrMetallicRoughness":{"baseColorFactor":[0.6000000238418579,0.6000000238418579,0.6000000238418579,1.0],"metallicFactor":0.0},"extensions":{"KHR_materials_specular":{"specularFactor":1.0,"specularColorFactor":[0.0,0.0,0.0]},"KHR_materials_ior":{"ior":1.0}}},{"name":"material_0_material","pbrMetallicRoughness":{"baseColorTexture":{"index":0},"metallicFactor":0.0},"extensions":{"KHR_materials_specular":{"specularFactor":1.0,"specularColorFactor":[0.0,0.0,0.0]},"KHR_materials_ior":{"ior":1.0}}},{"name":"material_1_material","pbrMetallicRoughness":{"baseColorTexture":{"index":1},"metallicFactor":0.0},"extensions":{"KHR_materials_specular":{"specularFactor":1.0,"specularColorFactor":[0.0,0.0,0.0]},"KHR_materials_ior":{"ior":1.0}}}],"meshes":[{"name":"defaultobject","primitives":[{"mode":4,"material":1,"indices":2,"attributes":{"POSITION":0,"TEXCOORD_0":1}},{"mode":4,"material":2,"indices":5,"attributes":{"POSITION":3,"TEXCOORD_0":4}}]}],"nodes":[{"name":"tile_0814.obj","children":[1]},{"name":"defaultobject","mesh":0}],"samplers":[{},{}],"scenes":[{"nodes":[0]}],"textures":[{"source":0,"sampler":0},{"source":1,"sampler":1}],"scene":0}
