{"asset":{"version":"2.0","generator":"Open Asset Import Library (assimp v6.0.0)"},"extensionsUsed":["KHR_materials_specular","KHR_materials_volume","KHR_materials_ior","FB_ngon_encoding"],"accessors":[{"bufferView":0,"byteOffset":0,"componentType":5126,"count":1773,"type":"VEC3","max":[4.4535722732543945,-3.304381847381592,3.516240358352661],"min":[2.2250738585072014e-308,-3.6354334354400635,2.2250738585072014e-308]},{"bufferView":1,"byteOffset":0,"componentType":5126,"count":1773,"type":"VEC2","max":[0.987091064453125,0.942901611328125],"min":[2.2250738585072014e-308,2.2250738585072014e-308]},{"bufferView":2,"byteOffset":0,"componentType":5125,"count":8175,"type":"SCALAR","max":[1772],"min":[0]},{"bufferView":3,"byteOffset":0,"componentType":5126,"count":1995,"type":"VEC3","max":[4.385492324829102,-3.304381847381592,3.522787570953369],"min":[2.2250738585072014e-308,-3.6435177326202393,2.2250738585072014e-308]},{"bufferView":4,"byteOffset":0,"componentType":5126,"count":1995,"type":"VEC2","max":[0.6796703338623047,0.9396629333496094],"min":[2.2250738585072014e-308,2.2250738585072014e-308]},{"bufferView":5,"byteOffset":0,"componentType":5125,"count":10350,"type":"SCALAR","max":[1994],"min":[0]}],"buffers":[{"byteLength":149460,"uri":"tile_0788.bin"}],"bufferViews":[{"buffer":0,"byteOffset":0,"byteLength":21276,"target":34962},{"buffer":0,"byteOffset":21276,"byteLength":14184,"target":34962},{"buffer":0,"byteOffset":35460,"byteLength":32700,"target":34963},{"buffer":0,"byteOffset":68160,"byteLength":23940,"target":34962},{"buffer":0,"byteOffset":92100,"byteLength":15960,"target":34962},{"buffer":0,"byteOffset":108060,"byteLength":41400,"target":34963}],"images":[{"uri":"../textures/tile_0788_material_0.jpg"},{"uri":"../textures/tile_0788_material_1.jpg"}],"materials":[{"name":"DefaultMaterial","pbrMetallicRoughness":{"baseColorFactor":[0.6000000238418579,0.6000000238418579,0.6000000238418579,1.0],"metallicFactor":0.0},"extensions":{"KHR_materials_specular":{"specularFactor":1.0,"specularColorFactor":[0.0,0.0,0.0]},"KHR_materials_ior":{"ior":1.0}}},{"name":"material_0_material","pbrMetallicRoughness":{"baseColorTexture":{"index":0},"metallicFactor":0.0},"extensions":{"KHR_materials_specular":{"specularFactor":1.0,"specularColorFactor":[0.0,0.0,0.0]},"KHR_materials_ior":{"ior":1.0}}},{"name":"material_1_material","pbrMetallicRoughness":{"baseColorTexture":{"index":1},"metallicFactor":0.0},"extensions":{"KHR_materials_specular":{"specularFactor":1.0,"specularColorFactor":[0.0,0.0,0.0]},"KHR_materials_ior":{"ior":1.0}}}],"meshes":[{"name":"defaultobject","primitives":[{"mode":4,"material":1,"indices":2,"attributes":{"POSITION":0,"TEXCOORD_0":1}},{"mode":4,"material":2,"indices":5,"attributes":{"POSITION":3,"TEXCOORD_0":4}}]}],"nodes":[{"name":"tile_0788.obj","children":[1]},{"name":"defaultobject","mesh":0}],"samplers":[{},{}],"scenes":[{"nodes":[0]}],"textures":[{"source":0,"sampler":0},{"source":1,"sampler":1}],"scene":0}
