{"asset":{"version":"2.0","generator":"Open Asset Import Library (assimp v6.0.0)"},"extensionsUsed":["KHR_materials_specular","KHR_materials_volume","KHR_materials_ior","FB_ngon_encoding"],"accessors":[{"bufferView":0,"byteOffset":0,"componentType":5126,"count":2991,"type":"VEC3","max":[-4.728421688079834,-1.354315161705017,4.159983158111572],"min":[-6.747936248779297,-1.6900255680084229,2.2250738585072014e-308]},{"bufferView":1,"byteOffset":0,"componentType":5126,"count":2991,"type":"VEC2","max":[0.9517364501953125,0.5578689575195312],"min":[2.2250738585072014e-308,2.2250738585072014e-308]},{"bufferView":2,"byteOffset":0,"componentType":5125,"count":15201,"type":"SCALAR","max":[2990],"min":[0]},{"bufferView":3,"byteOffset":0,"componentType":5126,"count":1721,"type":"VEC3","max":[-4.725619316101074,-1.345784068107605,4.1620330810546875],"min":[-7.0400919914245605,-1.6822338104248047,2.2250738585072014e-308]},{"bufferView":4,"byteOffset":0,"componentType":5126,"count":1721,"type":"VEC2","max":[0.6411607265472412,0.7385406494140625],"min":[2.2250738585072014e-308,2.2250738585072014e-308]},{"bufferView":5,"byteOffset":0,"componentType":5125,"count":9177,"type":"SCALAR","max":[1720],"min":[0]}],"buffers":[{"byteLength":191752,"uri":"tile_0072.bin"}],"bufferViews":[{"buffer":0,"byteOffset":0,"byteLength":35892,"target":34962},{"buffer":0,"byteOffset":35892,"byteLength":23928,"target":34962},{"buffer":0,"byteOffset":59820,"byteLength":60804,"target":34963},{"buffer":0,"byteOffset":120624,"byteLength":20652,"target":34962},{"buffer":0,"byteOffset":141276,"byteLength":13768,"target":34962},{"buffer":0,"byteOffset":155044,"byteLength":36708,"target":34963}],"images":[{"uri":"../textures/tile_0072_material_0.jpg"},{"uri":"../textures/tile_0072_material_1.jpg"}],"materials":[{"name":"DefaultMaterial","pbrMetallicRoughness":{"baseColorFactor":[0.6000000238418579,0.6000000238418579,0.6000000238418579,1.0],"metallicFactor":0.0},"extensions":{"KHR_materials_specular":{"specularFactor":1.0,"specularColorFactor":[0.0,0.0,0.0]},"KHR_materials_ior":{"ior":1.0}}},{"name":"material_0_material","pbrMetallicRoughness":{"baseColorTexture":{"index":0},"metallicFactor":0.0},"extensions":{"KHR_materials_specular":{"specularFactor":1.0,"specularColorFactor":[0.0,0.0,0.0]},"KHR_materials_ior":{"ior":1.0}}},{"name":"material_1_material","pbrMetallicRoughness":{"baseColorTexture":{"index":1},"metallicFactor":0.0},"extensions":{"KHR_materials_specular":{"specularFactor":1.0,"specularColorFactor":[0.0,0.0,0.0]},"KHR_materials_ior":{"ior":1.0}}}],"meshes":[{"name":"defaultobject","primitives":[{"mode":4,"material":1,"indices":2,"attributes":{"POSITION":0,"TEXCOORD_0":1}},{"mode":4,"material":2,"indices":5,"attributes":{"POSITION":3,"TEXCOORD_0":4}}]}],"nodes":[{"name":"tile_0072.obj","children":[1]},{"name":"defaultobject","mesh":0}],"samplers":[{},{}],"scenes":[{"nodes":[0]}],"textures":[{"source":0,"sampler":0},{"source":1,"sampler":1}],"scene":0}
