{"asset":{"version":"2.0","generator":"Open Asset Import Library (assimp v6.0.0)"},"extensionsUsed":["KHR_materials_specular","KHR_materials_volume","KHR_materials_ior","FB_ngon_encoding"],"accessors":[{"bufferView":0,"byteOffset":0,"componentType":5126,"count":6153,"type":"VEC3","max":[1.0460995435714722,-4.434807300567627,2.7982935905456543],"min":[2.2250738585072014e-308,-4.814202308654785,2.2250738585072014e-308]},{"bufferView":1,"byteOffset":0,"componentType":5126,"count":6153,"type":"VEC2","max":[0.9934811592102051,0.7457275390625],"min":[2.2250738585072014e-308,2.2250738585072014e-308]},{"bufferView":2,"byteOffset":0,"componentType":5125,"count":27690,"type":"SCALAR","max":[6152],"min":[0]},{"bufferView":3,"byteOffset":0,"componentType":5126,"count":1343,"type":"VEC3","max":[1.0434989929199219,-4.435384273529053,2.7373340129852295],"min":[2.2250738585072014e-308,-4.792297840118408,2.2250738585072014e-308]},{"bufferView":4,"byteOffset":0,"componentType":5126,"count":1343,"type":"VEC2","max":[0.731877326965332,0.6223850250244141],"min":[2.2250738585072014e-308,2.2250738585072014e-308]},{"bufferView":5,"byteOffset":0,"componentType":5125,"count":6855,"type":"SCALAR","max":[1342],"min":[0]}],"buffers":[{"byteLength":288100,"uri":"tile_0793.bin"}],"bufferViews":[{"buffer":0,"byteOffset":0,"byteLength":73836,"target":34962},{"buffer":0,"byteOffset":73836,"byteLength":49224,"target":34962},{"buffer":0,"byteOffset":123060,"byteLength":110760,"target":34963},{"buffer":0,"byteOffset":233820,"byteLength":16116,"target":34962},{"buffer":0,"byteOffset":249936,"byteLength":10744,"target":34962},{"buffer":0,"byteOffset":260680,"byteLength":27420,"target":34963}],"images":[{"uri":"../textures/tile_0793_material_0.jpg"},{"uri":"../textures/tile_0793_material_1.jpg"}],"materials":[{"name":"DefaultMaterial","pbrMetallicRoughness":{"baseColorFactor":[0.6000000238418579,0.6000000238418579,0.6000000238418579,1.0],"metallicFactor":0.0},"extensions":{"KHR_materials_specular":{"specularFactor":1.0,"specularColorFactor":[0.0,0.0,0.0]},"KHR_materials_ior":{"ior":1.0}}},{"name":"material_0_material","pbrMetallicRoughness":{"baseColorTexture":{"index":0},"metallicFactor":0.0},"extensions":{"KHR_materials_specular":{"specularFactor":1.0,"specularColorFactor":[0.0,0.0,0.0]},"KHR_materials_ior":{"ior":1.0}}},{"name":"material_1_material","pbrMetallicRoughness":{"baseColorTexture":{"index":1},"metallicFactor":0.0},"extensions":{"KHR_materials_specular":{"specularFactor":1.0,"specularColorFactor":[0.0,0.0,0.0]},"KHR_materials_ior":{"ior":1.0}}}],"meshes":[{"name":"defaultobject","primitives":[{"mode":4,"material":1,"indices":2,"attributes":{"POSITION":0,"TEXCOORD_0":1}},{"mode":4,"material":2,"indices":5,"attributes":{"POSITION":3,"TEXCOORD_0":4}}]}],"nodes":[{"name":"tile_0793.obj","children":[1]},{"name":"defaultobject","mesh":0}],"samplers":[{},{}],"scenes":[{"nodes":[0]}],"textures":[{"source":0,"sampler":0},{"source":1,"sampler":1}],"scene":0}
