{"asset":{"version":"2.0","generator":"Open Asset Import Library (assimp v6.0.0)"},"extensionsUsed":["KHR_materials_specular","KHR_materials_volume","KHR_materials_ior","FB_ngon_encoding"],"accessors":[{"bufferView":0,"byteOffset":0,"componentType":5126,"count":4627,"type":"VEC3","max":[1.6234339475631714,1.773603081703186,4.020811080932617],"min":[2.2250738585072014e-308,2.2250738585072014e-308,2.2250738585072014e-308]},{"bufferView":1,"byteOffset":0,"componentType":5126,"count":4627,"type":"VEC2","max":[0.9917178153991699,0.4919586181640625],"min":[2.2250738585072014e-308,2.2250738585072014e-308]},{"bufferView":2,"byteOffset":0,"componentType":5125,"count":20565,"type":"SCALAR","max":[4626],"min":[0]},{"bufferView":3,"byteOffset":0,"componentType":5126,"count":223,"type":"VEC3","max":[1.621584177017212,1.5124119520187378,3.9617326259613037],"min":[2.2250738585072014e-308,2.2250738585072014e-308,2.2250738585072014e-308]},{"bufferView":4,"byteOffset":0,"componentType":5126,"count":223,"type":"VEC2","max":[0.8668889999389648,0.855224609375],"min":[2.2250738585072014e-308,2.2250738585072014e-308]},{"bufferView":5,"byteOffset":0,"componentType":5125,"count":987,"type":"SCALAR","max":[222],"min":[0]}],"buffers":[{"byteLength":183208,"uri":"tile_0601.bin"}],"bufferViews":[{"buffer":0,"byteOffset":0,"byteLength":55524,"target":34962},{"buffer":0,"byteOffset":55524,"byteLength":37016,"target":34962},{"buffer":0,"byteOffset":92540,"byteLength":82260,"target":34963},{"buffer":0,"byteOffset":174800,"byteLength":2676,"target":34962},{"buffer":0,"byteOffset":177476,"byteLength":1784,"target":34962},{"buffer":0,"byteOffset":179260,"byteLength":3948,"target":34963}],"images":[{"uri":"../textures/tile_0601_material_0.jpg"},{"uri":"../textures/tile_0601_material_1.jpg"}],"materials":[{"name":"DefaultMaterial","pbrMetallicRoughness":{"baseColorFactor":[0.6000000238418579,0.6000000238418579,0.6000000238418579,1.0],"metallicFactor":0.0},"extensions":{"KHR_materials_specular":{"specularFactor":1.0,"specularColorFactor":[0.0,0.0,0.0]},"KHR_materials_ior":{"ior":1.0}}},{"name":"material_0_material","pbrMetallicRoughness":{"baseColorTexture":{"index":0},"metallicFactor":0.0},"extensions":{"KHR_materials_specular":{"specularFactor":1.0,"specularColorFactor":[0.0,0.0,0.0]},"KHR_materials_ior":{"ior":1.0}}},{"name":"material_1_material","pbrMetallicRoughness":{"baseColorTexture":{"index":1},"metallicFactor":0.0},"extensions":{"KHR_materials_specular":{"specularFactor":1.0,"specularColorFactor":[0.0,0.0,0.0]},"KHR_materials_ior":{"ior":1.0}}}],"meshes":[{"name":"defaultobject","primitives":[{"mode":4,"material":1,"indices":2,"attributes":{"POSITION":0,"TEXCOORD_0":1}},{"mode":4,"material":2,"indices":5,"attributes":{"POSITION":3,"TEXCOORD_0":4}}]}],"nodes":[{"name":"tile_0601.obj","children":[1]},{"name":"defaultobject","mesh":0}],"samplers":[{},{}],"scenes":[{"nodes":[0]}],"textures":[{"source":0,"sampler":0},{"source":1,"sampler":1}],"scene":0}
