{"asset":{"version":"2.0","generator":"Open Asset Import Library (assimp v6.0.0)"},"extensionsUsed":["KHR_materials_specular","KHR_materials_volume","KHR_materials_ior","FB_ngon_encoding"],"accessors":[{"bufferView":0,"byteOffset":0,"componentType":5126,"count":4506,"type":"VEC3","max":[-0.15231068432331085,5.862117290496826,4.841174602508545],"min":[-0.4412018060684204,2.2250738585072014e-308,2.2250738585072014e-308]},{"bufferView":1,"byteOffset":0,"componentType":5126,"count":4506,"type":"VEC2","max":[0.9948873519897461,0.6203517913818359],"min":[2.2250738585072014e-308,2.2250738585072014e-308]},{"bufferView":2,"byteOffset":0,"componentType":5125,"count":21333,"type":"SCALAR","max":[4505],"min":[0]},{"bufferView":3,"byteOffset":0,"componentType":5126,"count":477,"type":"VEC3","max":[-0.15509101748466492,5.821092128753662,4.830893039703369],"min":[-0.3049769401550293,2.2250738585072014e-308,2.2250738585072014e-308]},{"bufferView":4,"byteOffset":0,"componentType":5126,"count":477,"type":"VEC2","max":[0.5239171981811523,0.7833213806152344],"min":[2.2250738585072014e-308,2.2250738585072014e-308]},{"bufferView":5,"byteOffset":0,"componentType":5125,"count":2523,"type":"SCALAR","max":[476],"min":[0]}],"buffers":[{"byteLength":195084,"uri":"tile_0557.bin"}],"bufferViews":[{"buffer":0,"byteOffset":0,"byteLength":54072,"target":34962},{"buffer":0,"byteOffset":54072,"byteLength":36048,"target":34962},{"buffer":0,"byteOffset":90120,"byteLength":85332,"target":34963},{"buffer":0,"byteOffset":175452,"byteLength":5724,"target":34962},{"buffer":0,"byteOffset":181176,"byteLength":3816,"target":34962},{"buffer":0,"byteOffset":184992,"byteLength":10092,"target":34963}],"images":[{"uri":"../textures/tile_0557_material_0.jpg"},{"uri":"../textures/tile_0557_material_1.jpg"}],"materials":[{"name":"DefaultMaterial","pbrMetallicRoughness":{"baseColorFactor":[0.6000000238418579,0.6000000238418579,0.6000000238418579,1.0],"metallicFactor":0.0},"extensions":{"KHR_materials_specular":{"specularFactor":1.0,"specularColorFactor":[0.0,0.0,0.0]},"KHR_materials_ior":{"ior":1.0}}},{"name":"material_0_material","pbrMetallicRoughness":{"baseColorTexture":{"index":0},"metallicFactor":0.0},"extensions":{"KHR_materials_specular":{"specularFactor":1.0,"specularColorFactor":[0.0,0.0,0.0]},"KHR_materials_ior":{"ior":1.0}}},{"name":"material_1_material","pbrMetallicRoughness":{"baseColorTexture":{"index":1},"metallicFactor":0.0},"extensions":{"KHR_materials_specular":{"specularFactor":1.0,"specularColorFactor":[0.0,0.0,0.0]},"KHR_materials_ior":{"ior":1.0}}}],"meshes":[{"name":"defaultobject","primitives":[{"mode":4,"material":1,"indices":2,"attributes":{"POSITION":0,"TEXCOORD_0":1}},{"mode":4,"material":2,"indices":5,"attributes":{"POSITION":3,"TEXCOORD_0":4}}]}],"nodes":[{"name":"tile_0557.obj","children":[1]},{"name":"defaultobject","mesh":0}],"samplers":[{},{}],"scenes":[{"nodes":[0]}],"textures":[{"source":0,"sampler":0},{"source":1,"sampler":1}],"scene":0}
