{"asset":{"version":"2.0","generator":"Open Asset Import Library (assimp v6.0.0)"},"extensionsUsed":["KHR_materials_specular","KHR_materials_volume","KHR_materials_ior","FB_ngon_encoding"],"accessors":[{"bufferView":0,"byteOffset":0,"componentType":5126,"count":5119,"type":"VEC3","max":[-2.49666166305542,4.040741920471191,4.70635461807251],"min":[-2.8076364994049072,2.2250738585072014e-308,2.2250738585072014e-308]},{"bufferView":1,"byteOffset":0,"componentType":5126,"count":5119,"type":"VEC2","max":[0.9960641860961914,0.6366462707519531],"min":[2.2250738585072014e-308,2.2250738585072014e-308]},{"bufferView":2,"byteOffset":0,"componentType":5125,"count":23952,"type":"SCALAR","max":[5118],"min":[0]},{"bufferView":3,"byteOffset":0,"componentType":5126,"count":395,"type":"VEC3","max":[-2.6072940826416016,4.038359642028809,4.690552234649658],"min":[-2.8064444065093994,2.2250738585072014e-308,2.2250738585072014e-308]},{"bufferView":4,"byteOffset":0,"componentType":5126,"count":395,"type":"VEC2","max":[0.7659778594970703,0.5166015625],"min":[2.2250738585072014e-308,2.2250738585072014e-308]},{"bufferView":5,"byteOffset":0,"componentType":5125,"count":1914,"type":"SCALAR","max":[394],"min":[0]}],"buffers":[{"byteLength":213744,"uri":"tile_0511.bin"}],"bufferViews":[{"buffer":0,"byteOffset":0,"byteLength":61428,"target":34962},{"buffer":0,"byteOffset":61428,"byteLength":40952,"target":34962},{"buffer":0,"byteOffset":102380,"byteLength":95808,"target":34963},{"buffer":0,"byteOffset":198188,"byteLength":4740,"target":34962},{"buffer":0,"byteOffset":202928,"byteLength":3160,"target":34962},{"buffer":0,"byteOffset":206088,"byteLength":7656,"target":34963}],"images":[{"uri":"../textures/tile_0511_material_0.jpg"},{"uri":"../textures/tile_0511_material_1.jpg"}],"materials":[{"name":"DefaultMaterial","pbrMetallicRoughness":{"baseColorFactor":[0.6000000238418579,0.6000000238418579,0.6000000238418579,1.0],"metallicFactor":0.0},"extensions":{"KHR_materials_specular":{"specularFactor":1.0,"specularColorFactor":[0.0,0.0,0.0]},"KHR_materials_ior":{"ior":1.0}}},{"name":"material_0_material","pbrMetallicRoughness":{"baseColorTexture":{"index":0},"metallicFactor":0.0},"extensions":{"KHR_materials_specular":{"specularFactor":1.0,"specularColorFactor":[0.0,0.0,0.0]},"KHR_materials_ior":{"ior":1.0}}},{"name":"material_1_material","pbrMetallicRoughness":{"baseColorTexture":{"index":1},"metallicFactor":0.0},"extensions":{"KHR_materials_specular":{"specularFactor":1.0,"specularColorFactor":[0.0,0.0,0.0]},"KHR_materials_ior":{"ior":1.0}}}],"meshes":[{"name":"defaultobject","primitives":[{"mode":4,"material":1,"indices":2,"attributes":{"POSITION":0,"TEXCOORD_0":1}},{"mode":4,"material":2,"indices":5,"attributes":{"POSITION":3,"TEXCOORD_0":4}}]}],"nodes":[{"name":"tile_0511.obj","children":[1]},{"name":"defaultobject","mesh":0}],"samplers":[{},{}],"scenes":[{"nodes":[0]}],"textures":[{"source":0,"sampler":0},{"source":1,"sampler":1}],"scene":0}
