{"asset":{"version":"2.0","generator":"Open Asset Import Library (assimp v6.0.0)"},"extensionsUsed":["KHR_materials_specular","KHR_materials_volume","KHR_materials_ior","FB_ngon_encoding"],"accessors":[{"bufferView":0,"byteOffset":0,"componentType":5126,"count":3398,"type":"VEC3","max":[4.91347074508667,-1.6800421476364136,4.069891929626465],"min":[2.2250738585072014e-308,-2.0124053955078125,2.2250738585072014e-308]},{"bufferView":1,"byteOffset":0,"componentType":5126,"count":3398,"type":"VEC2","max":[0.9863970279693604,0.49805450439453125],"min":[2.2250738585072014e-308,2.2250738585072014e-308]},{"bufferView":2,"byteOffset":0,"componentType":5125,"count":16074,"type":"SCALAR","max":[3397],"min":[0]},{"bufferView":3,"byteOffset":0,"componentType":5126,"count":2066,"type":"VEC3","max":[4.913534641265869,-1.6746494770050049,4.088735103607178],"min":[2.2250738585072014e-308,-2.0053272247314453,2.2250738585072014e-308]},{"bufferView":4,"byteOffset":0,"componentType":5126,"count":2066,"type":"VEC2","max":[0.7549200057983398,0.7241706848144531],"min":[2.2250738585072014e-308,2.2250738585072014e-308]},{"bufferView":5,"byteOffset":0,"componentType":5125,"count":10560,"type":"SCALAR","max":[2065],"min":[0]}],"buffers":[{"byteLength":215816,"uri":"tile_0738.bin"}],"bufferViews":[{"buffer":0,"byteOffset":0,"byteLength":40776,"target":34962},{"buffer":0,"byteOffset":40776,"byteLength":27184,"target":34962},{"buffer":0,"byteOffset":67960,"byteLength":64296,"target":34963},{"buffer":0,"byteOffset":132256,"byteLength":24792,"target":34962},{"buffer":0,"byteOffset":157048,"byteLength":16528,"target":34962},{"buffer":0,"byteOffset":173576,"byteLength":42240,"target":34963}],"images":[{"uri":"../textures/tile_0738_material_0.jpg"},{"uri":"../textures/tile_0738_material_1.jpg"}],"materials":[{"name":"DefaultMaterial","pbrMetallicRoughness":{"baseColorFactor":[0.6000000238418579,0.6000000238418579,0.6000000238418579,1.0],"metallicFactor":0.0},"extensions":{"KHR_materials_specular":{"specularFactor":1.0,"specularColorFactor":[0.0,0.0,0.0]},"KHR_materials_ior":{"ior":1.0}}},{"name":"material_0_material","pbrMetallicRoughness":{"baseColorTexture":{"index":0},"metallicFactor":0.0},"extensions":{"KHR_materials_specular":{"specularFactor":1.0,"specularColorFactor":[0.0,0.0,0.0]},"KHR_materials_ior":{"ior":1.0}}},{"name":"material_1_material","pbrMetallicRoughness":{"baseColorTexture":{"index":1},"metallicFactor":0.0},"extensions":{"KHR_materials_specular":{"specularFactor":1.0,"specularColorFactor":[0.0,0.0,0.0]},"KHR_materials_ior":{"ior":1.0}}}],"meshes":[{"name":"defaultobject","primitives":[{"mode":4,"material":1,"indices":2,"attributes":{"POSITION":0,"TEXCOORD_0":1}},{"mode":4,"material":2,"indices":5,"attributes":{"POSITION":3,"TEXCOORD_0":4}}]}],"nodes":[{"name":"tile_0738.obj","children":[1]},{"name":"defaultobject","mesh":0}],"samplers":[{},{}],"scenes":[{"nodes":[0]}],"textures":[{"source":0,"sampler":0},{"source":1,"sampler":1}],"scene":0}
