{"asset":{"version":"2.0","generator":"Open Asset Import Library (assimp v6.0.0)"},"extensionsUsed":["KHR_materials_specular","KHR_materials_volume","KHR_materials_ior","FB_ngon_encoding"],"accessors":[{"bufferView":0,"byteOffset":0,"componentType":5126,"count":4185,"type":"VEC3","max":[4.168124198913574,0.8990899920463562,4.1583027839660645],"min":[2.2250738585072014e-308,2.2250738585072014e-308,2.2250738585072014e-308]},{"bufferView":1,"byteOffset":0,"componentType":5126,"count":4185,"type":"VEC2","max":[0.9900648593902588,0.9756240844726562],"min":[2.2250738585072014e-308,2.2250738585072014e-308]},{"bufferView":2,"byteOffset":0,"componentType":5125,"count":17910,"type":"SCALAR","max":[4184],"min":[0]},{"bufferView":3,"byteOffset":0,"componentType":5126,"count":502,"type":"VEC3","max":[4.047171592712402,0.7559546828269958,4.146393299102783],"min":[2.2250738585072014e-308,2.2250738585072014e-308,2.2250738585072014e-308]},{"bufferView":4,"byteOffset":0,"componentType":5126,"count":502,"type":"VEC2","max":[0.5293483734130859,0.6978912353515625],"min":[2.2250738585072014e-308,2.2250738585072014e-308]},{"bufferView":5,"byteOffset":0,"componentType":5125,"count":2310,"type":"SCALAR","max":[501],"min":[0]}],"buffers":[{"byteLength":174620,"uri":"tile_0209.bin"}],"bufferViews":[{"buffer":0,"byteOffset":0,"byteLength":50220,"target":34962},{"buffer":0,"byteOffset":50220,"byteLength":33480,"target":34962},{"buffer":0,"byteOffset":83700,"byteLength":71640,"target":34963},{"buffer":0,"byteOffset":155340,"byteLength":6024,"target":34962},{"buffer":0,"byteOffset":161364,"byteLength":4016,"target":34962},{"buffer":0,"byteOffset":165380,"byteLength":9240,"target":34963}],"images":[{"uri":"../textures/tile_0209_material_0.jpg"},{"uri":"../textures/tile_0209_material_1.jpg"}],"materials":[{"name":"DefaultMaterial","pbrMetallicRoughness":{"baseColorFactor":[0.6000000238418579,0.6000000238418579,0.6000000238418579,1.0],"metallicFactor":0.0},"extensions":{"KHR_materials_specular":{"specularFactor":1.0,"specularColorFactor":[0.0,0.0,0.0]},"KHR_materials_ior":{"ior":1.0}}},{"name":"material_0_material","pbrMetallicRoughness":{"baseColorTexture":{"index":0},"metallicFactor":0.0},"extensions":{"KHR_materials_specular":{"specularFactor":1.0,"specularColorFactor":[0.0,0.0,0.0]},"KHR_materials_ior":{"ior":1.0}}},{"name":"material_1_material","pbrMetallicRoughness":{"baseColorTexture":{"index":1},"metallicFactor":0.0},"extensions":{"KHR_materials_specular":{"specularFactor":1.0,"specularColorFactor":[0.0,0.0,0.0]},"KHR_materials_ior":{"ior":1.0}}}],"meshes":[{"name":"defaultobject","primitives":[{"mode":4,"material":1,"indices":2,"attributes":{"POSITION":0,"TEXCOORD_0":1}},{"mode":4,"material":2,"indices":5,"attributes":{"POSITION":3,"TEXCOORD_0":4}}]}],"nodes":[{"name":"tile_0209.obj","children":[1]},{"name":"defaultobject","mesh":0}],"samplers":[{},{}],"scenes":[{"nodes":[0]}],"textures":[{"source":0,"sampler":0},{"source":1,"sampler":1}],"scene":0}
