{"asset":{"version":"2.0","generator":"Open Asset Import Library (assimp v6.0.0)"},"extensionsUsed":["KHR_materials_specular","KHR_materials_volume","KHR_materials_ior","FB_ngon_encoding"],"accessors":[{"bufferView":0,"byteOffset":0,"componentType":5126,"count":830,"type":"VEC3","max":[-6.467255592346191,0.7868451476097107,4.6318464279174805],"min":[-8.001495361328125,2.2250738585072014e-308,2.2250738585072014e-308]},{"bufferView":1,"byteOffset":0,"componentType":5126,"count":830,"type":"VEC2","max":[0.57421875,0.5451164245605469],"min":[2.2250738585072014e-308,2.2250738585072014e-308]},{"bufferView":2,"byteOffset":0,"componentType":5125,"count":4050,"type":"SCALAR","max":[829],"min":[0]},{"bufferView":3,"byteOffset":0,"componentType":5126,"count":3099,"type":"VEC3","max":[-6.4135308265686035,0.7587299346923828,4.624746799468994],"min":[-7.987737655639648,2.2250738585072014e-308,2.2250738585072014e-308]},{"bufferView":4,"byteOffset":0,"componentType":5126,"count":3099,"type":"VEC2","max":[0.6853375434875488,0.5166378021240234],"min":[2.2250738585072014e-308,2.2250738585072014e-308]},{"bufferView":5,"byteOffset":0,"componentType":5125,"count":16803,"type":"SCALAR","max":[3098],"min":[0]}],"buffers":[{"byteLength":161992,"uri":"tile_0585.bin"}],"bufferViews":[{"buffer":0,"byteOffset":0,"byteLength":9960,"target":34962},{"buffer":0,"byteOffset":9960,"byteLength":6640,"target":34962},{"buffer":0,"byteOffset":16600,"byteLength":16200,"target":34963},{"buffer":0,"byteOffset":32800,"byteLength":37188,"target":34962},{"buffer":0,"byteOffset":69988,"byteLength":24792,"target":34962},{"buffer":0,"byteOffset":94780,"byteLength":67212,"target":34963}],"images":[{"uri":"../textures/tile_0585_material_0.jpg"},{"uri":"../textures/tile_0585_material_1.jpg"}],"materials":[{"name":"DefaultMaterial","pbrMetallicRoughness":{"baseColorFactor":[0.6000000238418579,0.6000000238418579,0.6000000238418579,1.0],"metallicFactor":0.0},"extensions":{"KHR_materials_specular":{"specularFactor":1.0,"specularColorFactor":[0.0,0.0,0.0]},"KHR_materials_ior":{"ior":1.0}}},{"name":"material_0_material","pbrMetallicRoughness":{"baseColorTexture":{"index":0},"metallicFactor":0.0},"extensions":{"KHR_materials_specular":{"specularFactor":1.0,"specularColorFactor":[0.0,0.0,0.0]},"KHR_materials_ior":{"ior":1.0}}},{"name":"material_1_material","pbrMetallicRoughness":{"baseColorTexture":{"index":1},"metallicFactor":0.0},"extensions":{"KHR_materials_specular":{"specularFactor":1.0,"specularColorFactor":[0.0,0.0,0.0]},"KHR_materials_ior":{"ior":1.0}}}],"meshes":[{"name":"defaultobject","primitives":[{"mode":4,"material":1,"indices":2,"attributes":{"POSITION":0,"TEXCOORD_0":1}},{"mode":4,"material":2,"indices":5,"attributes":{"POSITION":3,"TEXCOORD_0":4}}]}],"nodes":[{"name":"tile_0585.obj","children":[1]},{"name":"defaultobject","mesh":0}],"samplers":[{},{}],"scenes":[{"nodes":[0]}],"textures":[{"source":0,"sampler":0},{"source":1,"sampler":1}],"scene":0}
