{"asset":{"version":"2.0","generator":"Open Asset Import Library (assimp v6.0.0)"},"extensionsUsed":["KHR_materials_specular","KHR_materials_volume","KHR_materials_ior","FB_ngon_encoding"],"accessors":[{"bufferView":0,"byteOffset":0,"componentType":5126,"count":3914,"type":"VEC3","max":[1.8649624586105347,-2.6958136558532715,2.9925501346588135],"min":[2.2250738585072014e-308,-2.890644073486328,2.2250738585072014e-308]},{"bufferView":1,"byteOffset":0,"componentType":5126,"count":3914,"type":"VEC2","max":[0.9838595390319824,0.9347305297851562],"min":[2.2250738585072014e-308,2.2250738585072014e-308]},{"bufferView":2,"byteOffset":0,"componentType":5125,"count":17418,"type":"SCALAR","max":[3913],"min":[0]},{"bufferView":3,"byteOffset":0,"componentType":5126,"count":795,"type":"VEC3","max":[1.666657567024231,-2.6951873302459717,2.7564868927001953],"min":[2.2250738585072014e-308,-2.8286044597625732,2.2250738585072014e-308]},{"bufferView":4,"byteOffset":0,"componentType":5126,"count":795,"type":"VEC2","max":[0.5894718170166016,0.9284439086914062],"min":[2.2250738585072014e-308,2.2250738585072014e-308]},{"bufferView":5,"byteOffset":0,"componentType":5125,"count":4251,"type":"SCALAR","max":[794],"min":[0]}],"buffers":[{"byteLength":180856,"uri":"tile_0266.bin"}],"bufferViews":[{"buffer":0,"byteOffset":0,"byteLength":46968,"target":34962},{"buffer":0,"byteOffset":46968,"byteLength":31312,"target":34962},{"buffer":0,"byteOffset":78280,"byteLength":69672,"target":34963},{"buffer":0,"byteOffset":147952,"byteLength":9540,"target":34962},{"buffer":0,"byteOffset":157492,"byteLength":6360,"target":34962},{"buffer":0,"byteOffset":163852,"byteLength":17004,"target":34963}],"images":[{"uri":"../textures/tile_0266_material_0.jpg"},{"uri":"../textures/tile_0266_material_1.jpg"}],"materials":[{"name":"DefaultMaterial","pbrMetallicRoughness":{"baseColorFactor":[0.6000000238418579,0.6000000238418579,0.6000000238418579,1.0],"metallicFactor":0.0},"extensions":{"KHR_materials_specular":{"specularFactor":1.0,"specularColorFactor":[0.0,0.0,0.0]},"KHR_materials_ior":{"ior":1.0}}},{"name":"material_0_material","pbrMetallicRoughness":{"baseColorTexture":{"index":0},"metallicFactor":0.0},"extensions":{"KHR_materials_specular":{"specularFactor":1.0,"specularColorFactor":[0.0,0.0,0.0]},"KHR_materials_ior":{"ior":1.0}}},{"name":"material_1_material","pbrMetallicRoughness":{"baseColorTexture":{"index":1},"metallicFactor":0.0},"extensions":{"KHR_materials_specular":{"specularFactor":1.0,"specularColorFactor":[0.0,0.0,0.0]},"KHR_materials_ior":{"ior":1.0}}}],"meshes":[{"name":"defaultobject","primitives":[{"mode":4,"material":1,"indices":2,"attributes":{"POSITION":0,"TEXCOORD_0":1}},{"mode":4,"material":2,"indices":5,"attributes":{"POSITION":3,"TEXCOORD_0":4}}]}],"nodes":[{"name":"tile_0266.obj","children":[1]},{"name":"defaultobject","mesh":0}],"samplers":[{},{}],"scenes":[{"nodes":[0]}],"textures":[{"source":0,"sampler":0},{"source":1,"sampler":1}],"scene":0}
