{"asset":{"version":"2.0","generator":"Open Asset Import Library (assimp v6.0.0)"},"extensionsUsed":["KHR_materials_specular","KHR_materials_volume","KHR_materials_ior","FB_ngon_encoding"],"accessors":[{"bufferView":0,"byteOffset":0,"componentType":5126,"count":4789,"type":"VEC3","max":[0.7944934368133545,-4.440417766571045,2.6396238803863525],"min":[2.2250738585072014e-308,-4.81369161605835,2.2250738585072014e-308]},{"bufferView":1,"byteOffset":0,"componentType":5126,"count":4789,"type":"VEC2","max":[0.9911270141601562,0.5812587738037109],"min":[2.2250738585072014e-308,2.2250738585072014e-308]},{"bufferView":2,"byteOffset":0,"componentType":5125,"count":22476,"type":"SCALAR","max":[4788],"min":[0]},{"bufferView":3,"byteOffset":0,"componentType":5126,"count":743,"type":"VEC3","max":[0.7482396364212036,-4.612781524658203,2.6025164127349854],"min":[2.2250738585072014e-308,-4.813329696655273,2.2250738585072014e-308]},{"bufferView":4,"byteOffset":0,"componentType":5126,"count":743,"type":"VEC2","max":[0.7889404296875,0.814666748046875],"min":[2.2250738585072014e-308,2.2250738585072014e-308]},{"bufferView":5,"byteOffset":0,"componentType":5125,"count":3756,"type":"SCALAR","max":[742],"min":[0]}],"buffers":[{"byteLength":215568,"uri":"tile_0820.bin"}],"bufferViews":[{"buffer":0,"byteOffset":0,"byteLength":57468,"target":34962},{"buffer":0,"byteOffset":57468,"byteLength":38312,"target":34962},{"buffer":0,"byteOffset":95780,"byteLength":89904,"target":34963},{"buffer":0,"byteOffset":185684,"byteLength":8916,"target":34962},{"buffer":0,"byteOffset":194600,"byteLength":5944,"target":34962},{"buffer":0,"byteOffset":200544,"byteLength":15024,"target":34963}],"images":[{"uri":"../textures/tile_0820_material_0.jpg"},{"uri":"../textures/tile_0820_material_1.jpg"}],"materials":[{"name":"DefaultMaterial","pbrMetallicRoughness":{"baseColorFactor":[0.6000000238418579,0.6000000238418579,0.6000000238418579,1.0],"metallicFactor":0.0},"extensions":{"KHR_materials_specular":{"specularFactor":1.0,"specularColorFactor":[0.0,0.0,0.0]},"KHR_materials_ior":{"ior":1.0}}},{"name":"material_0_material","pbrMetallicRoughness":{"baseColorTexture":{"index":0},"metallicFactor":0.0},"extensions":{"KHR_materials_specular":{"specularFactor":1.0,"specularColorFactor":[0.0,0.0,0.0]},"KHR_materials_ior":{"ior":1.0}}},{"name":"material_1_material","pbrMetallicRoughness":{"baseColorTexture":{"index":1},"metallicFactor":0.0},"extensions":{"KHR_materials_specular":{"specularFactor":1.0,"specularColorFactor":[0.0,0.0,0.0]},"KHR_materials_ior":{"ior":1.0}}}],"meshes":[{"name":"defaultobject","primitives":[{"mode":4,"material":1,"indices":2,"attributes":{"POSITION":0,"TEXCOORD_0":1}},{"mode":4,"material":2,"indices":5,"attributes":{"POSITION":3,"TEXCOORD_0":4}}]}],"nodes":[{"name":"tile_0820.obj","children":[1]},{"name":"defaultobject","mesh":0}],"samplers":[{},{}],"scenes":[{"nodes":[0]}],"textures":[{"source":0,"sampler":0},{"source":1,"sampler":1}],"scene":0}
