{"asset":{"version":"2.0","generator":"Open Asset Import Library (assimp v6.0.0)"},"extensionsUsed":["KHR_materials_specular","KHR_materials_volume","KHR_materials_ior","FB_ngon_encoding"],"accessors":[{"bufferView":0,"byteOffset":0,"componentType":5126,"count":4407,"type":"VEC3","max":[-0.7387757897377014,5.946657657623291,4.922143936157227],"min":[-1.0886460542678833,2.2250738585072014e-308,2.2250738585072014e-308]},{"bufferView":1,"byteOffset":0,"componentType":5126,"count":4407,"type":"VEC2","max":[0.9917498826980591,0.6148109436035156],"min":[2.2250738585072014e-308,2.2250738585072014e-308]},{"bufferView":2,"byteOffset":0,"componentType":5125,"count":21141,"type":"SCALAR","max":[4406],"min":[0]},{"bufferView":3,"byteOffset":0,"componentType":5126,"count":595,"type":"VEC3","max":[-0.7378654479980469,5.944940567016602,4.920166969299316],"min":[-0.9986538887023926,2.2250738585072014e-308,2.2250738585072014e-308]},{"bufferView":4,"byteOffset":0,"componentType":5126,"count":595,"type":"VEC2","max":[0.6344976425170898,0.509613037109375],"min":[2.2250738585072014e-308,2.2250738585072014e-308]},{"bufferView":5,"byteOffset":0,"componentType":5125,"count":2919,"type":"SCALAR","max":[594],"min":[0]}],"buffers":[{"byteLength":196280,"uri":"tile_0545.bin"}],"bufferViews":[{"buffer":0,"byteOffset":0,"byteLength":52884,"target":34962},{"buffer":0,"byteOffset":52884,"byteLength":35256,"target":34962},{"buffer":0,"byteOffset":88140,"byteLength":84564,"target":34963},{"buffer":0,"byteOffset":172704,"byteLength":7140,"target":34962},{"buffer":0,"byteOffset":179844,"byteLength":4760,"target":34962},{"buffer":0,"byteOffset":184604,"byteLength":11676,"target":34963}],"images":[{"uri":"../textures/tile_0545_material_0.jpg"},{"uri":"../textures/tile_0545_material_1.jpg"}],"materials":[{"name":"DefaultMaterial","pbrMetallicRoughness":{"baseColorFactor":[0.6000000238418579,0.6000000238418579,0.6000000238418579,1.0],"metallicFactor":0.0},"extensions":{"KHR_materials_specular":{"specularFactor":1.0,"specularColorFactor":[0.0,0.0,0.0]},"KHR_materials_ior":{"ior":1.0}}},{"name":"material_0_material","pbrMetallicRoughness":{"baseColorTexture":{"index":0},"metallicFactor":0.0},"extensions":{"KHR_materials_specular":{"specularFactor":1.0,"specularColorFactor":[0.0,0.0,0.0]},"KHR_materials_ior":{"ior":1.0}}},{"name":"material_1_material","pbrMetallicRoughness":{"baseColorTexture":{"index":1},"metallicFactor":0.0},"extensions":{"KHR_materials_specular":{"specularFactor":1.0,"specularColorFactor":[0.0,0.0,0.0]},"KHR_materials_ior":{"ior":1.0}}}],"meshes":[{"name":"defaultobject","primitives":[{"mode":4,"material":1,"indices":2,"attributes":{"POSITION":0,"TEXCOORD_0":1}},{"mode":4,"material":2,"indices":5,"attributes":{"POSITION":3,"TEXCOORD_0":4}}]}],"nodes":[{"name":"tile_0545.obj","children":[1]},{"name":"defaultobject","mesh":0}],"samplers":[{},{}],"scenes":[{"nodes":[0]}],"textures":[{"source":0,"sampler":0},{"source":1,"sampler":1}],"scene":0}
