{"asset":{"version":"2.0","generator":"Open Asset Import Library (assimp v6.0.0)"},"extensionsUsed":["KHR_materials_specular","KHR_materials_volume","KHR_materials_ior","FB_ngon_encoding"],"accessors":[{"bufferView":0,"byteOffset":0,"componentType":5126,"count":3957,"type":"VEC3","max":[-0.41936206817626953,-1.4446572065353394,2.466982841491699],"min":[-0.5933608412742615,-1.7401247024536133,2.2250738585072014e-308]},{"bufferView":1,"byteOffset":0,"componentType":5126,"count":3957,"type":"VEC2","max":[0.9960150718688965,0.5526809692382812],"min":[2.2250738585072014e-308,2.2250738585072014e-308]},{"bufferView":2,"byteOffset":0,"componentType":5125,"count":18498,"type":"SCALAR","max":[3956],"min":[0]},{"bufferView":3,"byteOffset":0,"componentType":5126,"count":84,"type":"VEC3","max":[-0.4178082346916199,-1.4504135847091675,2.4364328384399414],"min":[-0.44064727425575256,-1.5525156259536743,2.2250738585072014e-308]},{"bufferView":4,"byteOffset":0,"componentType":5126,"count":84,"type":"VEC2","max":[0.5523796081542969,0.50054931640625],"min":[2.2250738585072014e-308,2.2250738585072014e-308]},{"bufferView":5,"byteOffset":0,"componentType":5125,"count":321,"type":"SCALAR","max":[83],"min":[0]}],"buffers":[{"byteLength":156096,"uri":"tile_0035.bin"}],"bufferViews":[{"buffer":0,"byteOffset":0,"byteLength":47484,"target":34962},{"buffer":0,"byteOffset":47484,"byteLength":31656,"target":34962},{"buffer":0,"byteOffset":79140,"byteLength":73992,"target":34963},{"buffer":0,"byteOffset":153132,"byteLength":1008,"target":34962},{"buffer":0,"byteOffset":154140,"byteLength":672,"target":34962},{"buffer":0,"byteOffset":154812,"byteLength":1284,"target":34963}],"images":[{"uri":"../textures/tile_0035_material_0.jpg"},{"uri":"../textures/tile_0035_material_1.jpg"}],"materials":[{"name":"DefaultMaterial","pbrMetallicRoughness":{"baseColorFactor":[0.6000000238418579,0.6000000238418579,0.6000000238418579,1.0],"metallicFactor":0.0},"extensions":{"KHR_materials_specular":{"specularFactor":1.0,"specularColorFactor":[0.0,0.0,0.0]},"KHR_materials_ior":{"ior":1.0}}},{"name":"material_0_material","pbrMetallicRoughness":{"baseColorTexture":{"index":0},"metallicFactor":0.0},"extensions":{"KHR_materials_specular":{"specularFactor":1.0,"specularColorFactor":[0.0,0.0,0.0]},"KHR_materials_ior":{"ior":1.0}}},{"name":"material_1_material","pbrMetallicRoughness":{"baseColorTexture":{"index":1},"metallicFactor":0.0},"extensions":{"KHR_materials_specular":{"specularFactor":1.0,"specularColorFactor":[0.0,0.0,0.0]},"KHR_materials_ior":{"ior":1.0}}}],"meshes":[{"name":"defaultobject","primitives":[{"mode":4,"material":1,"indices":2,"attributes":{"POSITION":0,"TEXCOORD_0":1}},{"mode":4,"material":2,"indices":5,"attributes":{"POSITION":3,"TEXCOORD_0":4}}]}],"nodes":[{"name":"tile_0035.obj","children":[1]},{"name":"defaultobject","mesh":0}],"samplers":[{},{}],"scenes":[{"nodes":[0]}],"textures":[{"source":0,"sampler":0},{"source":1,"sampler":1}],"scene":0}
