{"asset":{"version":"2.0","generator":"Open Asset Import Library (assimp v6.0.0)"},"extensionsUsed":["KHR_materials_specular","KHR_materials_volume","KHR_materials_ior","FB_ngon_encoding"],"accessors":[{"bufferView":0,"byteOffset":0,"componentType":5126,"count":3197,"type":"VEC3","max":[-1.1051472425460815,-5.254233360290527,2.426821708679199],"min":[-1.2451452016830444,-5.868084907531738,2.2250738585072014e-308]},{"bufferView":1,"byteOffset":0,"componentType":5126,"count":3197,"type":"VEC2","max":[0.9799423217773438,0.8528518676757812],"min":[2.2250738585072014e-308,2.2250738585072014e-308]},{"bufferView":2,"byteOffset":0,"componentType":5125,"count":14886,"type":"SCALAR","max":[3196],"min":[0]},{"bufferView":3,"byteOffset":0,"componentType":5126,"count":1228,"type":"VEC3","max":[-1.1072614192962646,-5.299755573272705,2.417342185974121],"min":[-1.2471847534179688,-5.867373466491699,2.2250738585072014e-308]},{"bufferView":4,"byteOffset":0,"componentType":5126,"count":1228,"type":"VEC2","max":[0.9045085906982422,0.5977325439453125],"min":[2.2250738585072014e-308,2.2250738585072014e-308]},{"bufferView":5,"byteOffset":0,"componentType":5125,"count":6036,"type":"SCALAR","max":[1227],"min":[0]}],"buffers":[{"byteLength":172188,"uri":"tile_0351.bin"}],"bufferViews":[{"buffer":0,"byteOffset":0,"byteLength":38364,"target":34962},{"buffer":0,"byteOffset":38364,"byteLength":25576,"target":34962},{"buffer":0,"byteOffset":63940,"byteLength":59544,"target":34963},{"buffer":0,"byteOffset":123484,"byteLength":14736,"target":34962},{"buffer":0,"byteOffset":138220,"byteLength":9824,"target":34962},{"buffer":0,"byteOffset":148044,"byteLength":24144,"target":34963}],"images":[{"uri":"../textures/tile_0351_material_0.jpg"},{"uri":"../textures/tile_0351_material_1.jpg"}],"materials":[{"name":"DefaultMaterial","pbrMetallicRoughness":{"baseColorFactor":[0.6000000238418579,0.6000000238418579,0.6000000238418579,1.0],"metallicFactor":0.0},"extensions":{"KHR_materials_specular":{"specularFactor":1.0,"specularColorFactor":[0.0,0.0,0.0]},"KHR_materials_ior":{"ior":1.0}}},{"name":"material_0_material","pbrMetallicRoughness":{"baseColorTexture":{"index":0},"metallicFactor":0.0},"extensions":{"KHR_materials_specular":{"specularFactor":1.0,"specularColorFactor":[0.0,0.0,0.0]},"KHR_materials_ior":{"ior":1.0}}},{"name":"material_1_material","pbrMetallicRoughness":{"baseColorTexture":{"index":1},"metallicFactor":0.0},"extensions":{"KHR_materials_specular":{"specularFactor":1.0,"specularColorFactor":[0.0,0.0,0.0]},"KHR_materials_ior":{"ior":1.0}}}],"meshes":[{"name":"defaultobject","primitives":[{"mode":4,"material":1,"indices":2,"attributes":{"POSITION":0,"TEXCOORD_0":1}},{"mode":4,"material":2,"indices":5,"attributes":{"POSITION":3,"TEXCOORD_0":4}}]}],"nodes":[{"name":"tile_0351.obj","children":[1]},{"name":"defaultobject","mesh":0}],"samplers":[{},{}],"scenes":[{"nodes":[0]}],"textures":[{"source":0,"sampler":0},{"source":1,"sampler":1}],"scene":0}
