{"asset":{"version":"2.0","generator":"Open Asset Import Library (assimp v6.0.0)"},"extensionsUsed":["KHR_materials_specular","KHR_materials_volume","KHR_materials_ior","FB_ngon_encoding"],"accessors":[{"bufferView":0,"byteOffset":0,"componentType":5126,"count":3223,"type":"VEC3","max":[-0.41826221346855164,-1.229128122329712,2.758561849594116],"min":[-0.5961230397224426,-1.4498097896575928,2.2250738585072014e-308]},{"bufferView":1,"byteOffset":0,"componentType":5126,"count":3223,"type":"VEC2","max":[0.9916224479675293,0.8611869812011719],"min":[2.2250738585072014e-308,2.2250738585072014e-308]},{"bufferView":2,"byteOffset":0,"componentType":5125,"count":14460,"type":"SCALAR","max":[3222],"min":[0]},{"bufferView":3,"byteOffset":0,"componentType":5126,"count":849,"type":"VEC3","max":[-0.41957998275756836,-1.2310372591018677,2.7513620853424072],"min":[-0.5932759046554565,-1.3688174486160278,2.2250738585072014e-308]},{"bufferView":4,"byteOffset":0,"componentType":5126,"count":849,"type":"VEC2","max":[0.6362342834472656,0.9412765502929688],"min":[2.2250738585072014e-308,2.2250738585072014e-308]},{"bufferView":5,"byteOffset":0,"componentType":5125,"count":4389,"type":"SCALAR","max":[848],"min":[0]}],"buffers":[{"byteLength":156836,"uri":"tile_0367.bin"}],"bufferViews":[{"buffer":0,"byteOffset":0,"byteLength":38676,"target":34962},{"buffer":0,"byteOffset":38676,"byteLength":25784,"target":34962},{"buffer":0,"byteOffset":64460,"byteLength":57840,"target":34963},{"buffer":0,"byteOffset":122300,"byteLength":10188,"target":34962},{"buffer":0,"byteOffset":132488,"byteLength":6792,"target":34962},{"buffer":0,"byteOffset":139280,"byteLength":17556,"target":34963}],"images":[{"uri":"../textures/tile_0367_material_0.jpg"},{"uri":"../textures/tile_0367_material_1.jpg"}],"materials":[{"name":"DefaultMaterial","pbrMetallicRoughness":{"baseColorFactor":[0.6000000238418579,0.6000000238418579,0.6000000238418579,1.0],"metallicFactor":0.0},"extensions":{"KHR_materials_specular":{"specularFactor":1.0,"specularColorFactor":[0.0,0.0,0.0]},"KHR_materials_ior":{"ior":1.0}}},{"name":"material_0_material","pbrMetallicRoughness":{"baseColorTexture":{"index":0},"metallicFactor":0.0},"extensions":{"KHR_materials_specular":{"specularFactor":1.0,"specularColorFactor":[0.0,0.0,0.0]},"KHR_materials_ior":{"ior":1.0}}},{"name":"material_1_material","pbrMetallicRoughness":{"baseColorTexture":{"index":1},"metallicFactor":0.0},"extensions":{"KHR_materials_specular":{"specularFactor":1.0,"specularColorFactor":[0.0,0.0,0.0]},"KHR_materials_ior":{"ior":1.0}}}],"meshes":[{"name":"defaultobject","primitives":[{"mode":4,"material":1,"indices":2,"attributes":{"POSITION":0,"TEXCOORD_0":1}},{"mode":4,"material":2,"indices":5,"attributes":{"POSITION":3,"TEXCOORD_0":4}}]}],"nodes":[{"name":"tile_0367.obj","children":[1]},{"name":"defaultobject","mesh":0}],"samplers":[{},{}],"scenes":[{"nodes":[0]}],"textures":[{"source":0,"sampler":0},{"source":1,"sampler":1}],"scene":0}
