{"asset":{"version":"2.0","generator":"Open Asset Import Library (assimp v6.0.0)"},"extensionsUsed":["KHR_materials_specular","KHR_materials_volume","KHR_materials_ior","FB_ngon_encoding"],"accessors":[{"bufferView":0,"byteOffset":0,"componentType":5126,"count":12365,"type":"VEC3","max":[2.890308380126953,2.027066469192505,3.898324728012085],"min":[2.2250738585072014e-308,2.2250738585072014e-308,2.2250738585072014e-308]},{"bufferView":1,"byteOffset":0,"componentType":5126,"count":12365,"type":"VEC2","max":[0.9923598766326904,0.9529304504394531],"min":[2.2250738585072014e-308,2.2250738585072014e-308]},{"bufferView":2,"byteOffset":0,"componentType":5125,"count":57945,"type":"SCALAR","max":[12364],"min":[0]},{"bufferView":3,"byteOffset":0,"componentType":5126,"count":1728,"type":"VEC3","max":[2.761181354522705,2.0258491039276123,3.9025845527648926],"min":[2.2250738585072014e-308,2.2250738585072014e-308,2.2250738585072014e-308]},{"bufferView":4,"byteOffset":0,"componentType":5126,"count":1728,"type":"VEC2","max":[0.7144851684570312,0.7995643615722656],"min":[2.2250738585072014e-308,2.2250738585072014e-308]},{"bufferView":5,"byteOffset":0,"componentType":5125,"count":8967,"type":"SCALAR","max":[1727],"min":[0]}],"buffers":[{"byteLength":549508,"uri":"tile_0658.bin"}],"bufferViews":[{"buffer":0,"byteOffset":0,"byteLength":148380,"target":34962},{"buffer":0,"byteOffset":148380,"byteLength":98920,"target":34962},{"buffer":0,"byteOffset":247300,"byteLength":231780,"target":34963},{"buffer":0,"byteOffset":479080,"byteLength":20736,"target":34962},{"buffer":0,"byteOffset":499816,"byteLength":13824,"target":34962},{"buffer":0,"byteOffset":513640,"byteLength":35868,"target":34963}],"images":[{"uri":"../textures/tile_0658_material_0.jpg"},{"uri":"../textures/tile_0658_material_1.jpg"}],"materials":[{"name":"DefaultMaterial","pbrMetallicRoughness":{"baseColorFactor":[0.6000000238418579,0.6000000238418579,0.6000000238418579,1.0],"metallicFactor":0.0},"extensions":{"KHR_materials_specular":{"specularFactor":1.0,"specularColorFactor":[0.0,0.0,0.0]},"KHR_materials_ior":{"ior":1.0}}},{"name":"material_0_material","pbrMetallicRoughness":{"baseColorTexture":{"index":0},"metallicFactor":0.0},"extensions":{"KHR_materials_specular":{"specularFactor":1.0,"specularColorFactor":[0.0,0.0,0.0]},"KHR_materials_ior":{"ior":1.0}}},{"name":"material_1_material","pbrMetallicRoughness":{"baseColorTexture":{"index":1},"metallicFactor":0.0},"extensions":{"KHR_materials_specular":{"specularFactor":1.0,"specularColorFactor":[0.0,0.0,0.0]},"KHR_materials_ior":{"ior":1.0}}}],"meshes":[{"name":"defaultobject","primitives":[{"mode":4,"material":1,"indices":2,"attributes":{"POSITION":0,"TEXCOORD_0":1}},{"mode":4,"material":2,"indices":5,"attributes":{"POSITION":3,"TEXCOORD_0":4}}]}],"nodes":[{"name":"tile_0658.obj","children":[1]},{"name":"defaultobject","mesh":0}],"samplers":[{},{}],"scenes":[{"nodes":[0]}],"textures":[{"source":0,"sampler":0},{"source":1,"sampler":1}],"scene":0}
