{"asset":{"version":"2.0","generator":"Open Asset Import Library (assimp v6.0.0)"},"extensionsUsed":["KHR_materials_specular","KHR_materials_volume","KHR_materials_ior","FB_ngon_encoding"],"accessors":[{"bufferView":0,"byteOffset":0,"componentType":5126,"count":2838,"type":"VEC3","max":[-2.1629109382629395,5.394144058227539,5.010576248168945],"min":[-2.4949729442596436,2.2250738585072014e-308,2.2250738585072014e-308]},{"bufferView":1,"byteOffset":0,"componentType":5126,"count":2838,"type":"VEC2","max":[0.9672355651855469,0.5328330993652344],"min":[2.2250738585072014e-308,2.2250738585072014e-308]},{"bufferView":2,"byteOffset":0,"componentType":5125,"count":12969,"type":"SCALAR","max":[2837],"min":[0]},{"bufferView":3,"byteOffset":0,"componentType":5126,"count":1265,"type":"VEC3","max":[-2.1569793224334717,5.393893718719482,4.949554443359375],"min":[-2.481952428817749,2.2250738585072014e-308,2.2250738585072014e-308]},{"bufferView":4,"byteOffset":0,"componentType":5126,"count":1265,"type":"VEC2","max":[0.5163002014160156,0.5687141418457031],"min":[2.2250738585072014e-308,2.2250738585072014e-308]},{"bufferView":5,"byteOffset":0,"componentType":5125,"count":6504,"type":"SCALAR","max":[1264],"min":[0]}],"buffers":[{"byteLength":159952,"uri":"tile_0106.bin"}],"bufferViews":[{"buffer":0,"byteOffset":0,"byteLength":34056,"target":34962},{"buffer":0,"byteOffset":34056,"byteLength":22704,"target":34962},{"buffer":0,"byteOffset":56760,"byteLength":51876,"target":34963},{"buffer":0,"byteOffset":108636,"byteLength":15180,"target":34962},{"buffer":0,"byteOffset":123816,"byteLength":10120,"target":34962},{"buffer":0,"byteOffset":133936,"byteLength":26016,"target":34963}],"images":[{"uri":"../textures/tile_0106_material_0.jpg"},{"uri":"../textures/tile_0106_material_1.jpg"}],"materials":[{"name":"DefaultMaterial","pbrMetallicRoughness":{"baseColorFactor":[0.6000000238418579,0.6000000238418579,0.6000000238418579,1.0],"metallicFactor":0.0},"extensions":{"KHR_materials_specular":{"specularFactor":1.0,"specularColorFactor":[0.0,0.0,0.0]},"KHR_materials_ior":{"ior":1.0}}},{"name":"material_0_material","pbrMetallicRoughness":{"baseColorTexture":{"index":0},"metallicFactor":0.0},"extensions":{"KHR_materials_specular":{"specularFactor":1.0,"specularColorFactor":[0.0,0.0,0.0]},"KHR_materials_ior":{"ior":1.0}}},{"name":"material_1_material","pbrMetallicRoughness":{"baseColorTexture":{"index":1},"metallicFactor":0.0},"extensions":{"KHR_materials_specular":{"specularFactor":1.0,"specularColorFactor":[0.0,0.0,0.0]},"KHR_materials_ior":{"ior":1.0}}}],"meshes":[{"name":"defaultobject","primitives":[{"mode":4,"material":1,"indices":2,"attributes":{"POSITION":0,"TEXCOORD_0":1}},{"mode":4,"material":2,"indices":5,"attributes":{"POSITION":3,"TEXCOORD_0":4}}]}],"nodes":[{"name":"tile_0106.obj","children":[1]},{"name":"defaultobject","mesh":0}],"samplers":[{},{}],"scenes":[{"nodes":[0]}],"textures":[{"source":0,"sampler":0},{"source":1,"sampler":1}],"scene":0}
