{"asset":{"version":"2.0","generator":"Open Asset Import Library (assimp v6.0.0)"},"extensionsUsed":["KHR_materials_specular","KHR_materials_volume","KHR_materials_ior","FB_ngon_encoding"],"accessors":[{"bufferView":0,"byteOffset":0,"componentType":5126,"count":4271,"type":"VEC3","max":[1.5543441772460938,-4.324183940887451,3.0140559673309326],"min":[2.2250738585072014e-308,-4.906046390533447,2.2250738585072014e-308]},{"bufferView":1,"byteOffset":0,"componentType":5126,"count":4271,"type":"VEC2","max":[0.9847817420959473,0.5787506103515625],"min":[2.2250738585072014e-308,2.2250738585072014e-308]},{"bufferView":2,"byteOffset":0,"componentType":5125,"count":19722,"type":"SCALAR","max":[4270],"min":[0]},{"bufferView":3,"byteOffset":0,"componentType":5126,"count":63,"type":"VEC3","max":[1.451882004737854,-4.582866668701172,2.837653875350952],"min":[2.2250738585072014e-308,-4.6211771965026855,2.2250738585072014e-308]},{"bufferView":4,"byteOffset":0,"componentType":5126,"count":63,"type":"VEC2","max":[0.4718608856201172,0.5074920654296875],"min":[2.2250738585072014e-308,2.2250738585072014e-308]},{"bufferView":5,"byteOffset":0,"componentType":5125,"count":300,"type":"SCALAR","max":[62],"min":[0]}],"buffers":[{"byteLength":166768,"uri":"tile_0761.bin"}],"bufferViews":[{"buffer":0,"byteOffset":0,"byteLength":51252,"target":34962},{"buffer":0,"byteOffset":51252,"byteLength":34168,"target":34962},{"buffer":0,"byteOffset":85420,"byteLength":78888,"target":34963},{"buffer":0,"byteOffset":164308,"byteLength":756,"target":34962},{"buffer":0,"byteOffset":165064,"byteLength":504,"target":34962},{"buffer":0,"byteOffset":165568,"byteLength":1200,"target":34963}],"images":[{"uri":"../textures/tile_0761_material_0.jpg"},{"uri":"../textures/tile_0761_material_1.jpg"}],"materials":[{"name":"DefaultMaterial","pbrMetallicRoughness":{"baseColorFactor":[0.6000000238418579,0.6000000238418579,0.6000000238418579,1.0],"metallicFactor":0.0},"extensions":{"KHR_materials_specular":{"specularFactor":1.0,"specularColorFactor":[0.0,0.0,0.0]},"KHR_materials_ior":{"ior":1.0}}},{"name":"material_0_material","pbrMetallicRoughness":{"baseColorTexture":{"index":0},"metallicFactor":0.0},"extensions":{"KHR_materials_specular":{"specularFactor":1.0,"specularColorFactor":[0.0,0.0,0.0]},"KHR_materials_ior":{"ior":1.0}}},{"name":"material_1_material","pbrMetallicRoughness":{"baseColorTexture":{"index":1},"metallicFactor":0.0},"extensions":{"KHR_materials_specular":{"specularFactor":1.0,"specularColorFactor":[0.0,0.0,0.0]},"KHR_materials_ior":{"ior":1.0}}}],"meshes":[{"name":"defaultobject","primitives":[{"mode":4,"material":1,"indices":2,"attributes":{"POSITION":0,"TEXCOORD_0":1}},{"mode":4,"material":2,"indices":5,"attributes":{"POSITION":3,"TEXCOORD_0":4}}]}],"nodes":[{"name":"tile_0761.obj","children":[1]},{"name":"defaultobject","mesh":0}],"samplers":[{},{}],"scenes":[{"nodes":[0]}],"textures":[{"source":0,"sampler":0},{"source":1,"sampler":1}],"scene":0}
