{"asset":{"version":"2.0","generator":"Open Asset Import Library (assimp v6.0.0)"},"extensionsUsed":["KHR_materials_specular","KHR_materials_volume","KHR_materials_ior","FB_ngon_encoding"],"accessors":[{"bufferView":0,"byteOffset":0,"componentType":5126,"count":4840,"type":"VEC3","max":[-3.496487617492676,3.2116689682006836,4.630167484283447],"min":[-3.890207290649414,2.2250738585072014e-308,2.2250738585072014e-308]},{"bufferView":1,"byteOffset":0,"componentType":5126,"count":4840,"type":"VEC2","max":[0.9887955784797668,0.6328105926513672],"min":[2.2250738585072014e-308,2.2250738585072014e-308]},{"bufferView":2,"byteOffset":0,"componentType":5125,"count":21243,"type":"SCALAR","max":[4839],"min":[0]},{"bufferView":3,"byteOffset":0,"componentType":5126,"count":329,"type":"VEC3","max":[-3.697113275527954,2.958293914794922,4.555580139160156],"min":[-3.8882791996002197,2.2250738585072014e-308,2.2250738585072014e-308]},{"bufferView":4,"byteOffset":0,"componentType":5126,"count":329,"type":"VEC2","max":[0.9543647766113281,0.6432723999023438],"min":[2.2250738585072014e-308,2.2250738585072014e-308]},{"bufferView":5,"byteOffset":0,"componentType":5125,"count":1497,"type":"SCALAR","max":[328],"min":[0]}],"buffers":[{"byteLength":194340,"uri":"tile_0096.bin"}],"bufferViews":[{"buffer":0,"byteOffset":0,"byteLength":58080,"target":34962},{"buffer":0,"byteOffset":58080,"byteLength":38720,"target":34962},{"buffer":0,"byteOffset":96800,"byteLength":84972,"target":34963},{"buffer":0,"byteOffset":181772,"byteLength":3948,"target":34962},{"buffer":0,"byteOffset":185720,"byteLength":2632,"target":34962},{"buffer":0,"byteOffset":188352,"byteLength":5988,"target":34963}],"images":[{"uri":"../textures/tile_0096_material_0.jpg"},{"uri":"../textures/tile_0096_material_1.jpg"}],"materials":[{"name":"DefaultMaterial","pbrMetallicRoughness":{"baseColorFactor":[0.6000000238418579,0.6000000238418579,0.6000000238418579,1.0],"metallicFactor":0.0},"extensions":{"KHR_materials_specular":{"specularFactor":1.0,"specularColorFactor":[0.0,0.0,0.0]},"KHR_materials_ior":{"ior":1.0}}},{"name":"material_0_material","pbrMetallicRoughness":{"baseColorTexture":{"index":0},"metallicFactor":0.0},"extensions":{"KHR_materials_specular":{"specularFactor":1.0,"specularColorFactor":[0.0,0.0,0.0]},"KHR_materials_ior":{"ior":1.0}}},{"name":"material_1_material","pbrMetallicRoughness":{"baseColorTexture":{"index":1},"metallicFactor":0.0},"extensions":{"KHR_materials_specular":{"specularFactor":1.0,"specularColorFactor":[0.0,0.0,0.0]},"KHR_materials_ior":{"ior":1.0}}}],"meshes":[{"name":"defaultobject","primitives":[{"mode":4,"material":1,"indices":2,"attributes":{"POSITION":0,"TEXCOORD_0":1}},{"mode":4,"material":2,"indices":5,"attributes":{"POSITION":3,"TEXCOORD_0":4}}]}],"nodes":[{"name":"tile_0096.obj","children":[1]},{"name":"defaultobject","mesh":0}],"samplers":[{},{}],"scenes":[{"nodes":[0]}],"textures":[{"source":0,"sampler":0},{"source":1,"sampler":1}],"scene":0}
