{"asset":{"version":"2.0","generator":"Open Asset Import Library (assimp v6.0.0)"},"extensionsUsed":["KHR_materials_specular","KHR_materials_volume","KHR_materials_ior","FB_ngon_encoding"],"accessors":[{"bufferView":0,"byteOffset":0,"componentType":5126,"count":4417,"type":"VEC3","max":[3.4060933589935303,-2.688239336013794,3.9120662212371826],"min":[2.2250738585072014e-308,-2.901766777038574,2.2250738585072014e-308]},{"bufferView":1,"byteOffset":0,"componentType":5126,"count":4417,"type":"VEC2","max":[0.9852209091186523,0.9764938354492188],"min":[2.2250738585072014e-308,2.2250738585072014e-308]},{"bufferView":2,"byteOffset":0,"componentType":5125,"count":18780,"type":"SCALAR","max":[4416],"min":[0]},{"bufferView":3,"byteOffset":0,"componentType":5126,"count":334,"type":"VEC3","max":[3.2132723331451416,-2.697728157043457,3.8540797233581543],"min":[2.2250738585072014e-308,-2.899367094039917,2.2250738585072014e-308]},{"bufferView":4,"byteOffset":0,"componentType":5126,"count":334,"type":"VEC2","max":[0.9278640747070312,0.610626220703125],"min":[2.2250738585072014e-308,2.2250738585072014e-308]},{"bufferView":5,"byteOffset":0,"componentType":5125,"count":1623,"type":"SCALAR","max":[333],"min":[0]}],"buffers":[{"byteLength":176632,"uri":"tile_0731.bin"}],"bufferViews":[{"buffer":0,"byteOffset":0,"byteLength":53004,"target":34962},{"buffer":0,"byteOffset":53004,"byteLength":35336,"target":34962},{"buffer":0,"byteOffset":88340,"byteLength":75120,"target":34963},{"buffer":0,"byteOffset":163460,"byteLength":4008,"target":34962},{"buffer":0,"byteOffset":167468,"byteLength":2672,"target":34962},{"buffer":0,"byteOffset":170140,"byteLength":6492,"target":34963}],"images":[{"uri":"../textures/tile_0731_material_0.jpg"},{"uri":"../textures/tile_0731_material_1.jpg"}],"materials":[{"name":"DefaultMaterial","pbrMetallicRoughness":{"baseColorFactor":[0.6000000238418579,0.6000000238418579,0.6000000238418579,1.0],"metallicFactor":0.0},"extensions":{"KHR_materials_specular":{"specularFactor":1.0,"specularColorFactor":[0.0,0.0,0.0]},"KHR_materials_ior":{"ior":1.0}}},{"name":"material_0_material","pbrMetallicRoughness":{"baseColorTexture":{"index":0},"metallicFactor":0.0},"extensions":{"KHR_materials_specular":{"specularFactor":1.0,"specularColorFactor":[0.0,0.0,0.0]},"KHR_materials_ior":{"ior":1.0}}},{"name":"material_1_material","pbrMetallicRoughness":{"baseColorTexture":{"index":1},"metallicFactor":0.0},"extensions":{"KHR_materials_specular":{"specularFactor":1.0,"specularColorFactor":[0.0,0.0,0.0]},"KHR_materials_ior":{"ior":1.0}}}],"meshes":[{"name":"defaultobject","primitives":[{"mode":4,"material":1,"indices":2,"attributes":{"POSITION":0,"TEXCOORD_0":1}},{"mode":4,"material":2,"indices":5,"attributes":{"POSITION":3,"TEXCOORD_0":4}}]}],"nodes":[{"name":"tile_0731.obj","children":[1]},{"name":"defaultobject","mesh":0}],"samplers":[{},{}],"scenes":[{"nodes":[0]}],"textures":[{"source":0,"sampler":0},{"source":1,"sampler":1}],"scene":0}
