{"asset":{"version":"2.0","generator":"Open Asset Import Library (assimp v6.0.0)"},"extensionsUsed":["KHR_materials_specular","KHR_materials_volume","KHR_materials_ior","FB_ngon_encoding"],"accessors":[{"bufferView":0,"byteOffset":0,"componentType":5126,"count":4726,"type":"VEC3","max":[-1.29525887966156,-0.34651219844818115,2.570228099822998],"min":[-1.560265064239502,-0.5667014718055725,2.2250738585072014e-308]},{"bufferView":1,"byteOffset":0,"componentType":5126,"count":4726,"type":"VEC2","max":[0.9922881126403809,0.7028923034667969],"min":[2.2250738585072014e-308,2.2250738585072014e-308]},{"bufferView":2,"byteOffset":0,"componentType":5125,"count":22116,"type":"SCALAR","max":[4725],"min":[0]},{"bufferView":3,"byteOffset":0,"componentType":5126,"count":1046,"type":"VEC3","max":[-1.2952697277069092,-0.4521898925304413,2.39613676071167],"min":[-1.5581488609313965,-0.5656338334083557,2.2250738585072014e-308]},{"bufferView":4,"byteOffset":0,"componentType":5126,"count":1046,"type":"VEC2","max":[0.6676015853881836,0.8285865783691406],"min":[2.2250738585072014e-308,2.2250738585072014e-308]},{"bufferView":5,"byteOffset":0,"componentType":5125,"count":5439,"type":"SCALAR","max":[1045],"min":[0]}],"buffers":[{"byteLength":225660,"uri":"tile_0333.bin"}],"bufferViews":[{"buffer":0,"byteOffset":0,"byteLength":56712,"target":34962},{"buffer":0,"byteOffset":56712,"byteLength":37808,"target":34962},{"buffer":0,"byteOffset":94520,"byteLength":88464,"target":34963},{"buffer":0,"byteOffset":182984,"byteLength":12552,"target":34962},{"buffer":0,"byteOffset":195536,"byteLength":8368,"target":34962},{"buffer":0,"byteOffset":203904,"byteLength":21756,"target":34963}],"images":[{"uri":"../textures/tile_0333_material_0.jpg"},{"uri":"../textures/tile_0333_material_1.jpg"}],"materials":[{"name":"DefaultMaterial","pbrMetallicRoughness":{"baseColorFactor":[0.6000000238418579,0.6000000238418579,0.6000000238418579,1.0],"metallicFactor":0.0},"extensions":{"KHR_materials_specular":{"specularFactor":1.0,"specularColorFactor":[0.0,0.0,0.0]},"KHR_materials_ior":{"ior":1.0}}},{"name":"material_0_material","pbrMetallicRoughness":{"baseColorTexture":{"index":0},"metallicFactor":0.0},"extensions":{"KHR_materials_specular":{"specularFactor":1.0,"specularColorFactor":[0.0,0.0,0.0]},"KHR_materials_ior":{"ior":1.0}}},{"name":"material_1_material","pbrMetallicRoughness":{"baseColorTexture":{"index":1},"metallicFactor":0.0},"extensions":{"KHR_materials_specular":{"specularFactor":1.0,"specularColorFactor":[0.0,0.0,0.0]},"KHR_materials_ior":{"ior":1.0}}}],"meshes":[{"name":"defaultobject","primitives":[{"mode":4,"material":1,"indices":2,"attributes":{"POSITION":0,"TEXCOORD_0":1}},{"mode":4,"material":2,"indices":5,"attributes":{"POSITION":3,"TEXCOORD_0":4}}]}],"nodes":[{"name":"tile_0333.obj","children":[1]},{"name":"defaultobject","mesh":0}],"samplers":[{},{}],"scenes":[{"nodes":[0]}],"textures":[{"source":0,"sampler":0},{"source":1,"sampler":1}],"scene":0}
