{"asset":{"version":"2.0","generator":"Open Asset Import Library (assimp v6.0.0)"},"extensionsUsed":["KHR_materials_specular","KHR_materials_volume","KHR_materials_ior","FB_ngon_encoding"],"accessors":[{"bufferView":0,"byteOffset":0,"componentType":5126,"count":5380,"type":"VEC3","max":[1.66206693649292,-1.6802765130996704,2.872835397720337],"min":[2.2250738585072014e-308,-1.9463025331497192,2.2250738585072014e-308]},{"bufferView":1,"byteOffset":0,"componentType":5126,"count":5380,"type":"VEC2","max":[0.9888439178466797,0.5312366485595703],"min":[2.2250738585072014e-308,2.2250738585072014e-308]},{"bufferView":2,"byteOffset":0,"componentType":5125,"count":24663,"type":"SCALAR","max":[5379],"min":[0]},{"bufferView":3,"byteOffset":0,"componentType":5126,"count":7,"type":"VEC3","max":[1.66206693649292,-1.9222691059112549,2.9093549251556396],"min":[2.2250738585072014e-308,-1.9463025331497192,2.2250738585072014e-308]},{"bufferView":4,"byteOffset":0,"componentType":5126,"count":7,"type":"VEC2","max":[0.6163329482078552,0.6295928359031677],"min":[2.2250738585072014e-308,2.2250738585072014e-308]},{"bufferView":5,"byteOffset":0,"componentType":5125,"count":15,"type":"SCALAR","max":[6],"min":[0]}],"buffers":[{"byteLength":206452,"uri":"tile_0734.bin"}],"bufferViews":[{"buffer":0,"byteOffset":0,"byteLength":64560,"target":34962},{"buffer":0,"byteOffset":64560,"byteLength":43040,"target":34962},{"buffer":0,"byteOffset":107600,"byteLength":98652,"target":34963},{"buffer":0,"byteOffset":206252,"byteLength":84,"target":34962},{"buffer":0,"byteOffset":206336,"byteLength":56,"target":34962},{"buffer":0,"byteOffset":206392,"byteLength":60,"target":34963}],"images":[{"uri":"../textures/tile_0734_material_0.jpg"},{"uri":"../textures/tile_0734_material_1.jpg"}],"materials":[{"name":"DefaultMaterial","pbrMetallicRoughness":{"baseColorFactor":[0.6000000238418579,0.6000000238418579,0.6000000238418579,1.0],"metallicFactor":0.0},"extensions":{"KHR_materials_specular":{"specularFactor":1.0,"specularColorFactor":[0.0,0.0,0.0]},"KHR_materials_ior":{"ior":1.0}}},{"name":"material_0_material","pbrMetallicRoughness":{"baseColorTexture":{"index":0},"metallicFactor":0.0},"extensions":{"KHR_materials_specular":{"specularFactor":1.0,"specularColorFactor":[0.0,0.0,0.0]},"KHR_materials_ior":{"ior":1.0}}},{"name":"material_1_material","pbrMetallicRoughness":{"baseColorTexture":{"index":1},"metallicFactor":0.0},"extensions":{"KHR_materials_specular":{"specularFactor":1.0,"specularColorFactor":[0.0,0.0,0.0]},"KHR_materials_ior":{"ior":1.0}}}],"meshes":[{"name":"defaultobject","primitives":[{"mode":4,"material":1,"indices":2,"attributes":{"POSITION":0,"TEXCOORD_0":1}},{"mode":4,"material":2,"indices":5,"attributes":{"POSITION":3,"TEXCOORD_0":4}}]}],"nodes":[{"name":"tile_0734.obj","children":[1]},{"name":"defaultobject","mesh":0}],"samplers":[{},{}],"scenes":[{"nodes":[0]}],"textures":[{"source":0,"sampler":0},{"source":1,"sampler":1}],"scene":0}
