{"asset":{"version":"2.0","generator":"Open Asset Import Library (assimp v6.0.0)"},"extensionsUsed":["KHR_materials_specular","KHR_materials_volume","KHR_materials_ior","FB_ngon_encoding"],"accessors":[{"bufferView":0,"byteOffset":0,"componentType":5126,"count":3064,"type":"VEC3","max":[-0.027957385405898094,-1.7232413291931152,2.7620718479156494],"min":[-0.2263181209564209,-1.9506844282150269,2.2250738585072014e-308]},{"bufferView":1,"byteOffset":0,"componentType":5126,"count":3064,"type":"VEC2","max":[0.993854284286499,0.781005859375],"min":[2.2250738585072014e-308,2.2250738585072014e-308]},{"bufferView":2,"byteOffset":0,"componentType":5125,"count":13683,"type":"SCALAR","max":[3063],"min":[0]},{"bufferView":3,"byteOffset":0,"componentType":5126,"count":1316,"type":"VEC3","max":[-0.027254512533545494,-1.7235848903656006,2.754301071166992],"min":[-0.22663834691047668,-1.9495670795440674,2.2250738585072014e-308]},{"bufferView":4,"byteOffset":0,"componentType":5126,"count":1316,"type":"VEC2","max":[0.6242952346801758,0.8887977600097656],"min":[2.2250738585072014e-308,2.2250738585072014e-308]},{"bufferView":5,"byteOffset":0,"componentType":5125,"count":6591,"type":"SCALAR","max":[1315],"min":[0]}],"buffers":[{"byteLength":168696,"uri":"tile_0059.bin"}],"bufferViews":[{"buffer":0,"byteOffset":0,"byteLength":36768,"target":34962},{"buffer":0,"byteOffset":36768,"byteLength":24512,"target":34962},{"buffer":0,"byteOffset":61280,"byteLength":54732,"target":34963},{"buffer":0,"byteOffset":116012,"byteLength":15792,"target":34962},{"buffer":0,"byteOffset":131804,"byteLength":10528,"target":34962},{"buffer":0,"byteOffset":142332,"byteLength":26364,"target":34963}],"images":[{"uri":"../textures/tile_0059_material_0.jpg"},{"uri":"../textures/tile_0059_material_1.jpg"}],"materials":[{"name":"DefaultMaterial","pbrMetallicRoughness":{"baseColorFactor":[0.6000000238418579,0.6000000238418579,0.6000000238418579,1.0],"metallicFactor":0.0},"extensions":{"KHR_materials_specular":{"specularFactor":1.0,"specularColorFactor":[0.0,0.0,0.0]},"KHR_materials_ior":{"ior":1.0}}},{"name":"material_0_material","pbrMetallicRoughness":{"baseColorTexture":{"index":0},"metallicFactor":0.0},"extensions":{"KHR_materials_specular":{"specularFactor":1.0,"specularColorFactor":[0.0,0.0,0.0]},"KHR_materials_ior":{"ior":1.0}}},{"name":"material_1_material","pbrMetallicRoughness":{"baseColorTexture":{"index":1},"metallicFactor":0.0},"extensions":{"KHR_materials_specular":{"specularFactor":1.0,"specularColorFactor":[0.0,0.0,0.0]},"KHR_materials_ior":{"ior":1.0}}}],"meshes":[{"name":"defaultobject","primitives":[{"mode":4,"material":1,"indices":2,"attributes":{"POSITION":0,"TEXCOORD_0":1}},{"mode":4,"material":2,"indices":5,"attributes":{"POSITION":3,"TEXCOORD_0":4}}]}],"nodes":[{"name":"tile_0059.obj","children":[1]},{"name":"defaultobject","mesh":0}],"samplers":[{},{}],"scenes":[{"nodes":[0]}],"textures":[{"source":0,"sampler":0},{"source":1,"sampler":1}],"scene":0}
