{"asset":{"version":"2.0","generator":"Open Asset Import Library (assimp v6.0.0)"},"extensionsUsed":["KHR_materials_specular","KHR_materials_volume","KHR_materials_ior","FB_ngon_encoding"],"accessors":[{"bufferView":0,"byteOffset":0,"componentType":5126,"count":4956,"type":"VEC3","max":[-0.22595639526844025,-2.6988000869750977,2.396164655685425],"min":[-0.4250876307487488,-3.024231195449829,2.2250738585072014e-308]},{"bufferView":1,"byteOffset":0,"componentType":5126,"count":4956,"type":"VEC2","max":[0.9850845336914062,0.9674301147460938],"min":[2.2250738585072014e-308,2.2250738585072014e-308]},{"bufferView":2,"byteOffset":0,"componentType":5125,"count":21603,"type":"SCALAR","max":[4955],"min":[0]},{"bufferView":3,"byteOffset":0,"componentType":5126,"count":1273,"type":"VEC3","max":[-0.2268396019935608,-2.6986756324768066,2.3665263652801514],"min":[-0.4245378375053406,-2.9676053524017334,2.2250738585072014e-308]},{"bufferView":4,"byteOffset":0,"componentType":5126,"count":1273,"type":"VEC2","max":[0.5857048034667969,0.7969436645507812],"min":[2.2250738585072014e-308,2.2250738585072014e-308]},{"bufferView":5,"byteOffset":0,"componentType":5125,"count":6444,"type":"SCALAR","max":[1272],"min":[0]}],"buffers":[{"byteLength":236768,"uri":"tile_0337.bin"}],"bufferViews":[{"buffer":0,"byteOffset":0,"byteLength":59472,"target":34962},{"buffer":0,"byteOffset":59472,"byteLength":39648,"target":34962},{"buffer":0,"byteOffset":99120,"byteLength":86412,"target":34963},{"buffer":0,"byteOffset":185532,"byteLength":15276,"target":34962},{"buffer":0,"byteOffset":200808,"byteLength":10184,"target":34962},{"buffer":0,"byteOffset":210992,"byteLength":25776,"target":34963}],"images":[{"uri":"../textures/tile_0337_material_0.jpg"},{"uri":"../textures/tile_0337_material_1.jpg"}],"materials":[{"name":"DefaultMaterial","pbrMetallicRoughness":{"baseColorFactor":[0.6000000238418579,0.6000000238418579,0.6000000238418579,1.0],"metallicFactor":0.0},"extensions":{"KHR_materials_specular":{"specularFactor":1.0,"specularColorFactor":[0.0,0.0,0.0]},"KHR_materials_ior":{"ior":1.0}}},{"name":"material_0_material","pbrMetallicRoughness":{"baseColorTexture":{"index":0},"metallicFactor":0.0},"extensions":{"KHR_materials_specular":{"specularFactor":1.0,"specularColorFactor":[0.0,0.0,0.0]},"KHR_materials_ior":{"ior":1.0}}},{"name":"material_1_material","pbrMetallicRoughness":{"baseColorTexture":{"index":1},"metallicFactor":0.0},"extensions":{"KHR_materials_specular":{"specularFactor":1.0,"specularColorFactor":[0.0,0.0,0.0]},"KHR_materials_ior":{"ior":1.0}}}],"meshes":[{"name":"defaultobject","primitives":[{"mode":4,"material":1,"indices":2,"attributes":{"POSITION":0,"TEXCOORD_0":1}},{"mode":4,"material":2,"indices":5,"attributes":{"POSITION":3,"TEXCOORD_0":4}}]}],"nodes":[{"name":"tile_0337.obj","children":[1]},{"name":"defaultobject","mesh":0}],"samplers":[{},{}],"scenes":[{"nodes":[0]}],"textures":[{"source":0,"sampler":0},{"source":1,"sampler":1}],"scene":0}
