{"asset":{"version":"2.0","generator":"Open Asset Import Library (assimp v6.0.0)"},"extensionsUsed":["KHR_materials_specular","KHR_materials_volume","KHR_materials_ior","FB_ngon_encoding"],"accessors":[{"bufferView":0,"byteOffset":0,"componentType":5126,"count":3978,"type":"VEC3","max":[-0.7271150350570679,-0.9658477902412415,2.695575475692749],"min":[-0.9107866883277893,-1.2340872287750244,2.2250738585072014e-308]},{"bufferView":1,"byteOffset":0,"componentType":5126,"count":3978,"type":"VEC2","max":[0.9906301498413086,0.9403419494628906],"min":[2.2250738585072014e-308,2.2250738585072014e-308]},{"bufferView":2,"byteOffset":0,"componentType":5125,"count":18141,"type":"SCALAR","max":[3977],"min":[0]},{"bufferView":3,"byteOffset":0,"componentType":5126,"count":550,"type":"VEC3","max":[-0.7127264738082886,-0.9550217986106873,2.695399761199951],"min":[-0.9084659218788147,-1.2346476316452026,2.2250738585072014e-308]},{"bufferView":4,"byteOffset":0,"componentType":5126,"count":550,"type":"VEC2","max":[0.7690725326538086,0.6107864379882812],"min":[2.2250738585072014e-308,2.2250738585072014e-308]},{"bufferView":5,"byteOffset":0,"componentType":5125,"count":2643,"type":"SCALAR","max":[549],"min":[0]}],"buffers":[{"byteLength":173696,"uri":"tile_0365.bin"}],"bufferViews":[{"buffer":0,"byteOffset":0,"byteLength":47736,"target":34962},{"buffer":0,"byteOffset":47736,"byteLength":31824,"target":34962},{"buffer":0,"byteOffset":79560,"byteLength":72564,"target":34963},{"buffer":0,"byteOffset":152124,"byteLength":6600,"target":34962},{"buffer":0,"byteOffset":158724,"byteLength":4400,"target":34962},{"buffer":0,"byteOffset":163124,"byteLength":10572,"target":34963}],"images":[{"uri":"../textures/tile_0365_material_0.jpg"},{"uri":"../textures/tile_0365_material_1.jpg"}],"materials":[{"name":"DefaultMaterial","pbrMetallicRoughness":{"baseColorFactor":[0.6000000238418579,0.6000000238418579,0.6000000238418579,1.0],"metallicFactor":0.0},"extensions":{"KHR_materials_specular":{"specularFactor":1.0,"specularColorFactor":[0.0,0.0,0.0]},"KHR_materials_ior":{"ior":1.0}}},{"name":"material_0_material","pbrMetallicRoughness":{"baseColorTexture":{"index":0},"metallicFactor":0.0},"extensions":{"KHR_materials_specular":{"specularFactor":1.0,"specularColorFactor":[0.0,0.0,0.0]},"KHR_materials_ior":{"ior":1.0}}},{"name":"material_1_material","pbrMetallicRoughness":{"baseColorTexture":{"index":1},"metallicFactor":0.0},"extensions":{"KHR_materials_specular":{"specularFactor":1.0,"specularColorFactor":[0.0,0.0,0.0]},"KHR_materials_ior":{"ior":1.0}}}],"meshes":[{"name":"defaultobject","primitives":[{"mode":4,"material":1,"indices":2,"attributes":{"POSITION":0,"TEXCOORD_0":1}},{"mode":4,"material":2,"indices":5,"attributes":{"POSITION":3,"TEXCOORD_0":4}}]}],"nodes":[{"name":"tile_0365.obj","children":[1]},{"name":"defaultobject","mesh":0}],"samplers":[{},{}],"scenes":[{"nodes":[0]}],"textures":[{"source":0,"sampler":0},{"source":1,"sampler":1}],"scene":0}
