{"asset":{"version":"2.0","generator":"Open Asset Import Library (assimp v6.0.0)"},"extensionsUsed":["KHR_materials_specular","KHR_materials_volume","KHR_materials_ior","FB_ngon_encoding"],"accessors":[{"bufferView":0,"byteOffset":0,"componentType":5126,"count":6082,"type":"VEC3","max":[-4.285534381866455,1.9592225551605225,4.437910079956055],"min":[-4.8880085945129395,2.2250738585072014e-308,2.2250738585072014e-308]},{"bufferView":1,"byteOffset":0,"componentType":5126,"count":6082,"type":"VEC2","max":[0.9853768348693848,0.7499313354492188],"min":[2.2250738585072014e-308,2.2250738585072014e-308]},{"bufferView":2,"byteOffset":0,"componentType":5125,"count":27549,"type":"SCALAR","max":[6081],"min":[0]},{"bufferView":3,"byteOffset":0,"componentType":5126,"count":193,"type":"VEC3","max":[-4.786417007446289,1.7781800031661987,4.325882434844971],"min":[-4.88607931137085,2.2250738585072014e-308,2.2250738585072014e-308]},{"bufferView":4,"byteOffset":0,"componentType":5126,"count":193,"type":"VEC2","max":[0.9149856567382812,0.5125732421875],"min":[2.2250738585072014e-308,2.2250738585072014e-308]},{"bufferView":5,"byteOffset":0,"componentType":5125,"count":924,"type":"SCALAR","max":[192],"min":[0]}],"buffers":[{"byteLength":239392,"uri":"tile_0117.bin"}],"bufferViews":[{"buffer":0,"byteOffset":0,"byteLength":72984,"target":34962},{"buffer":0,"byteOffset":72984,"byteLength":48656,"target":34962},{"buffer":0,"byteOffset":121640,"byteLength":110196,"target":34963},{"buffer":0,"byteOffset":231836,"byteLength":2316,"target":34962},{"buffer":0,"byteOffset":234152,"byteLength":1544,"target":34962},{"buffer":0,"byteOffset":235696,"byteLength":3696,"target":34963}],"images":[{"uri":"../textures/tile_0117_material_0.jpg"},{"uri":"../textures/tile_0117_material_1.jpg"}],"materials":[{"name":"DefaultMaterial","pbrMetallicRoughness":{"baseColorFactor":[0.6000000238418579,0.6000000238418579,0.6000000238418579,1.0],"metallicFactor":0.0},"extensions":{"KHR_materials_specular":{"specularFactor":1.0,"specularColorFactor":[0.0,0.0,0.0]},"KHR_materials_ior":{"ior":1.0}}},{"name":"material_0_material","pbrMetallicRoughness":{"baseColorTexture":{"index":0},"metallicFactor":0.0},"extensions":{"KHR_materials_specular":{"specularFactor":1.0,"specularColorFactor":[0.0,0.0,0.0]},"KHR_materials_ior":{"ior":1.0}}},{"name":"material_1_material","pbrMetallicRoughness":{"baseColorTexture":{"index":1},"metallicFactor":0.0},"extensions":{"KHR_materials_specular":{"specularFactor":1.0,"specularColorFactor":[0.0,0.0,0.0]},"KHR_materials_ior":{"ior":1.0}}}],"meshes":[{"name":"defaultobject","primitives":[{"mode":4,"material":1,"indices":2,"attributes":{"POSITION":0,"TEXCOORD_0":1}},{"mode":4,"material":2,"indices":5,"attributes":{"POSITION":3,"TEXCOORD_0":4}}]}],"nodes":[{"name":"tile_0117.obj","children":[1]},{"name":"defaultobject","mesh":0}],"samplers":[{},{}],"scenes":[{"nodes":[0]}],"textures":[{"source":0,"sampler":0},{"source":1,"sampler":1}],"scene":0}
