{"asset":{"version":"2.0","generator":"Open Asset Import Library (assimp v6.0.0)"},"extensionsUsed":["KHR_materials_specular","KHR_materials_volume","KHR_materials_ior","FB_ngon_encoding"],"accessors":[{"bufferView":0,"byteOffset":0,"componentType":5126,"count":11447,"type":"VEC3","max":[-1.7657370567321777,-4.057722091674805,2.487621307373047],"min":[-2.0024025440216064,-5.056283950805664,2.2250738585072014e-308]},{"bufferView":1,"byteOffset":0,"componentType":5126,"count":11447,"type":"VEC2","max":[0.9952459931373596,0.5682716369628906],"min":[2.2250738585072014e-308,2.2250738585072014e-308]},{"bufferView":2,"byteOffset":0,"componentType":5125,"count":52347,"type":"SCALAR","max":[11446],"min":[0]},{"bufferView":3,"byteOffset":0,"componentType":5126,"count":2298,"type":"VEC3","max":[-1.7668755054473877,-4.488972187042236,2.4047060012817383],"min":[-2.002720594406128,-5.05203914642334,2.2250738585072014e-308]},{"bufferView":4,"byteOffset":0,"componentType":5126,"count":2298,"type":"VEC2","max":[0.808225154876709,0.884246826171875],"min":[2.2250738585072014e-308,2.2250738585072014e-308]},{"bufferView":5,"byteOffset":0,"componentType":5125,"count":11319,"type":"SCALAR","max":[2297],"min":[0]}],"buffers":[{"byteLength":529564,"uri":"tile_0000.bin"}],"bufferViews":[{"buffer":0,"byteOffset":0,"byteLength":137364,"target":34962},{"buffer":0,"byteOffset":137364,"byteLength":91576,"target":34962},{"buffer":0,"byteOffset":228940,"byteLength":209388,"target":34963},{"buffer":0,"byteOffset":438328,"byteLength":27576,"target":34962},{"buffer":0,"byteOffset":465904,"byteLength":18384,"target":34962},{"buffer":0,"byteOffset":484288,"byteLength":45276,"target":34963}],"images":[{"uri":"../textures/tile_0000_material_0.jpg"},{"uri":"../textures/tile_0000_material_1.jpg"}],"materials":[{"name":"DefaultMaterial","pbrMetallicRoughness":{"baseColorFactor":[0.6000000238418579,0.6000000238418579,0.6000000238418579,1.0],"metallicFactor":0.0},"extensions":{"KHR_materials_specular":{"specularFactor":1.0,"specularColorFactor":[0.0,0.0,0.0]},"KHR_materials_ior":{"ior":1.0}}},{"name":"material_0_material","pbrMetallicRoughness":{"baseColorTexture":{"index":0},"metallicFactor":0.0},"extensions":{"KHR_materials_specular":{"specularFactor":1.0,"specularColorFactor":[0.0,0.0,0.0]},"KHR_materials_ior":{"ior":1.0}}},{"name":"material_1_material","pbrMetallicRoughness":{"baseColorTexture":{"index":1},"metallicFactor":0.0},"extensions":{"KHR_materials_specular":{"specularFactor":1.0,"specularColorFactor":[0.0,0.0,0.0]},"KHR_materials_ior":{"ior":1.0}}}],"meshes":[{"name":"defaultobject","primitives":[{"mode":4,"material":1,"indices":2,"attributes":{"POSITION":0,"TEXCOORD_0":1}},{"mode":4,"material":2,"indices":5,"attributes":{"POSITION":3,"TEXCOORD_0":4}}]}],"nodes":[{"name":"tile_0000.obj","children":[1]},{"name":"defaultobject","mesh":0}],"samplers":[{},{}],"scenes":[{"nodes":[0]}],"textures":[{"source":0,"sampler":0},{"source":1,"sampler":1}],"scene":0}
