{"asset":{"version":"2.0","generator":"Open Asset Import Library (assimp v6.0.0)"},"extensionsUsed":["KHR_materials_specular","KHR_materials_volume","KHR_materials_ior","FB_ngon_encoding"],"accessors":[{"bufferView":0,"byteOffset":0,"componentType":5126,"count":6163,"type":"VEC3","max":[1.1004031896591187,-3.3452675342559814,2.8970797061920166],"min":[2.2250738585072014e-308,-3.709625005722046,2.2250738585072014e-308]},{"bufferView":1,"byteOffset":0,"componentType":5126,"count":6163,"type":"VEC2","max":[0.9913530349731445,0.7124252319335938],"min":[2.2250738585072014e-308,2.2250738585072014e-308]},{"bufferView":2,"byteOffset":0,"componentType":5125,"count":27186,"type":"SCALAR","max":[6162],"min":[0]},{"bufferView":3,"byteOffset":0,"componentType":5126,"count":506,"type":"VEC3","max":[1.0844589471817017,-3.400207042694092,2.7260613441467285],"min":[2.2250738585072014e-308,-3.6553738117218018,2.2250738585072014e-308]},{"bufferView":4,"byteOffset":0,"componentType":5126,"count":506,"type":"VEC2","max":[0.7720012664794922,0.9428329467773438],"min":[2.2250738585072014e-308,2.2250738585072014e-308]},{"bufferView":5,"byteOffset":0,"componentType":5125,"count":2499,"type":"SCALAR","max":[505],"min":[0]}],"buffers":[{"byteLength":252120,"uri":"tile_0779.bin"}],"bufferViews":[{"buffer":0,"byteOffset":0,"byteLength":73956,"target":34962},{"buffer":0,"byteOffset":73956,"byteLength":49304,"target":34962},{"buffer":0,"byteOffset":123260,"byteLength":108744,"target":34963},{"buffer":0,"byteOffset":232004,"byteLength":6072,"target":34962},{"buffer":0,"byteOffset":238076,"byteLength":4048,"target":34962},{"buffer":0,"byteOffset":242124,"byteLength":9996,"target":34963}],"images":[{"uri":"../textures/tile_0779_material_0.jpg"},{"uri":"../textures/tile_0779_material_1.jpg"}],"materials":[{"name":"DefaultMaterial","pbrMetallicRoughness":{"baseColorFactor":[0.6000000238418579,0.6000000238418579,0.6000000238418579,1.0],"metallicFactor":0.0},"extensions":{"KHR_materials_specular":{"specularFactor":1.0,"specularColorFactor":[0.0,0.0,0.0]},"KHR_materials_ior":{"ior":1.0}}},{"name":"material_0_material","pbrMetallicRoughness":{"baseColorTexture":{"index":0},"metallicFactor":0.0},"extensions":{"KHR_materials_specular":{"specularFactor":1.0,"specularColorFactor":[0.0,0.0,0.0]},"KHR_materials_ior":{"ior":1.0}}},{"name":"material_1_material","pbrMetallicRoughness":{"baseColorTexture":{"index":1},"metallicFactor":0.0},"extensions":{"KHR_materials_specular":{"specularFactor":1.0,"specularColorFactor":[0.0,0.0,0.0]},"KHR_materials_ior":{"ior":1.0}}}],"meshes":[{"name":"defaultobject","primitives":[{"mode":4,"material":1,"indices":2,"attributes":{"POSITION":0,"TEXCOORD_0":1}},{"mode":4,"material":2,"indices":5,"attributes":{"POSITION":3,"TEXCOORD_0":4}}]}],"nodes":[{"name":"tile_0779.obj","children":[1]},{"name":"defaultobject","mesh":0}],"samplers":[{},{}],"scenes":[{"nodes":[0]}],"textures":[{"source":0,"sampler":0},{"source":1,"sampler":1}],"scene":0}
