{"asset":{"version":"2.0","generator":"Open Asset Import Library (assimp v6.0.0)"},"extensionsUsed":["KHR_materials_specular","KHR_materials_volume","KHR_materials_ior","FB_ngon_encoding"],"accessors":[{"bufferView":0,"byteOffset":0,"componentType":5126,"count":7858,"type":"VEC3","max":[4.418297290802002,-4.096687316894531,3.7384560108184814],"min":[2.2250738585072014e-308,-5.763687610626221,2.2250738585072014e-308]},{"bufferView":1,"byteOffset":0,"componentType":5126,"count":7858,"type":"VEC2","max":[0.9954056739807129,0.7790431976318359],"min":[2.2250738585072014e-308,2.2250738585072014e-308]},{"bufferView":2,"byteOffset":0,"componentType":5125,"count":34899,"type":"SCALAR","max":[7857],"min":[0]},{"bufferView":3,"byteOffset":0,"componentType":5126,"count":4942,"type":"VEC3","max":[4.3036112785339355,-4.121764659881592,3.7384560108184814],"min":[2.2250738585072014e-308,-5.763687610626221,2.2250738585072014e-308]},{"bufferView":4,"byteOffset":0,"componentType":5126,"count":4942,"type":"VEC2","max":[0.9183177947998047,0.7836990356445312],"min":[2.2250738585072014e-308,2.2250738585072014e-308]},{"bufferView":5,"byteOffset":0,"componentType":5125,"count":25590,"type":"SCALAR","max":[4941],"min":[0]}],"buffers":[{"byteLength":497956,"uri":"tile_0747.bin"}],"bufferViews":[{"buffer":0,"byteOffset":0,"byteLength":94296,"target":34962},{"buffer":0,"byteOffset":94296,"byteLength":62864,"target":34962},{"buffer":0,"byteOffset":157160,"byteLength":139596,"target":34963},{"buffer":0,"byteOffset":296756,"byteLength":59304,"target":34962},{"buffer":0,"byteOffset":356060,"byteLength":39536,"target":34962},{"buffer":0,"byteOffset":395596,"byteLength":102360,"target":34963}],"images":[{"uri":"../textures/tile_0747_material_0.jpg"},{"uri":"../textures/tile_0747_material_1.jpg"}],"materials":[{"name":"DefaultMaterial","pbrMetallicRoughness":{"baseColorFactor":[0.6000000238418579,0.6000000238418579,0.6000000238418579,1.0],"metallicFactor":0.0},"extensions":{"KHR_materials_specular":{"specularFactor":1.0,"specularColorFactor":[0.0,0.0,0.0]},"KHR_materials_ior":{"ior":1.0}}},{"name":"material_0_material","pbrMetallicRoughness":{"baseColorTexture":{"index":0},"metallicFactor":0.0},"extensions":{"KHR_materials_specular":{"specularFactor":1.0,"specularColorFactor":[0.0,0.0,0.0]},"KHR_materials_ior":{"ior":1.0}}},{"name":"material_1_material","pbrMetallicRoughness":{"baseColorTexture":{"index":1},"metallicFactor":0.0},"extensions":{"KHR_materials_specular":{"specularFactor":1.0,"specularColorFactor":[0.0,0.0,0.0]},"KHR_materials_ior":{"ior":1.0}}}],"meshes":[{"name":"defaultobject","primitives":[{"mode":4,"material":1,"indices":2,"attributes":{"POSITION":0,"TEXCOORD_0":1}},{"mode":4,"material":2,"indices":5,"attributes":{"POSITION":3,"TEXCOORD_0":4}}]}],"nodes":[{"name":"tile_0747.obj","children":[1]},{"name":"defaultobject","mesh":0}],"samplers":[{},{}],"scenes":[{"nodes":[0]}],"textures":[{"source":0,"sampler":0},{"source":1,"sampler":1}],"scene":0}
