{"asset":{"version":"2.0","generator":"Open Asset Import Library (assimp v6.0.0)"},"extensionsUsed":["KHR_materials_specular","KHR_materials_volume","KHR_materials_ior","FB_ngon_encoding"],"accessors":[{"bufferView":0,"byteOffset":0,"componentType":5126,"count":3565,"type":"VEC3","max":[2.5639586448669434,0.5658682584762573,4.10306978225708],"min":[2.2250738585072014e-308,2.2250738585072014e-308,2.2250738585072014e-308]},{"bufferView":1,"byteOffset":0,"componentType":5126,"count":3565,"type":"VEC2","max":[0.9941282272338867,0.8667716979980469],"min":[2.2250738585072014e-308,2.2250738585072014e-308]},{"bufferView":2,"byteOffset":0,"componentType":5125,"count":14361,"type":"SCALAR","max":[3564],"min":[0]},{"bufferView":3,"byteOffset":0,"componentType":5126,"count":1628,"type":"VEC3","max":[2.564429759979248,0.56424880027771,4.096967697143555],"min":[2.2250738585072014e-308,2.2250738585072014e-308,2.2250738585072014e-308]},{"bufferView":4,"byteOffset":0,"componentType":5126,"count":1628,"type":"VEC2","max":[0.9147577285766602,0.5588569641113281],"min":[2.2250738585072014e-308,2.2250738585072014e-308]},{"bufferView":5,"byteOffset":0,"componentType":5125,"count":8064,"type":"SCALAR","max":[1627],"min":[0]}],"buffers":[{"byteLength":193560,"uri":"tile_0222.bin"}],"bufferViews":[{"buffer":0,"byteOffset":0,"byteLength":42780,"target":34962},{"buffer":0,"byteOffset":42780,"byteLength":28520,"target":34962},{"buffer":0,"byteOffset":71300,"byteLength":57444,"target":34963},{"buffer":0,"byteOffset":128744,"byteLength":19536,"target":34962},{"buffer":0,"byteOffset":148280,"byteLength":13024,"target":34962},{"buffer":0,"byteOffset":161304,"byteLength":32256,"target":34963}],"images":[{"uri":"../textures/tile_0222_material_0.jpg"},{"uri":"../textures/tile_0222_material_1.jpg"}],"materials":[{"name":"DefaultMaterial","pbrMetallicRoughness":{"baseColorFactor":[0.6000000238418579,0.6000000238418579,0.6000000238418579,1.0],"metallicFactor":0.0},"extensions":{"KHR_materials_specular":{"specularFactor":1.0,"specularColorFactor":[0.0,0.0,0.0]},"KHR_materials_ior":{"ior":1.0}}},{"name":"material_0_material","pbrMetallicRoughness":{"baseColorTexture":{"index":0},"metallicFactor":0.0},"extensions":{"KHR_materials_specular":{"specularFactor":1.0,"specularColorFactor":[0.0,0.0,0.0]},"KHR_materials_ior":{"ior":1.0}}},{"name":"material_1_material","pbrMetallicRoughness":{"baseColorTexture":{"index":1},"metallicFactor":0.0},"extensions":{"KHR_materials_specular":{"specularFactor":1.0,"specularColorFactor":[0.0,0.0,0.0]},"KHR_materials_ior":{"ior":1.0}}}],"meshes":[{"name":"defaultobject","primitives":[{"mode":4,"material":1,"indices":2,"attributes":{"POSITION":0,"TEXCOORD_0":1}},{"mode":4,"material":2,"indices":5,"attributes":{"POSITION":3,"TEXCOORD_0":4}}]}],"nodes":[{"name":"tile_0222.obj","children":[1]},{"name":"defaultobject","mesh":0}],"samplers":[{},{}],"scenes":[{"nodes":[0]}],"textures":[{"source":0,"sampler":0},{"source":1,"sampler":1}],"scene":0}
