{"asset":{"version":"2.0","generator":"Open Asset Import Library (assimp v6.0.0)"},"extensionsUsed":["KHR_materials_specular","KHR_materials_volume","KHR_materials_ior","FB_ngon_encoding"],"accessors":[{"bufferView":0,"byteOffset":0,"componentType":5126,"count":6819,"type":"VEC3","max":[4.0712738037109375,-1.6792231798171997,4.015935897827148],"min":[2.2250738585072014e-308,-1.908499836921692,2.2250738585072014e-308]},{"bufferView":1,"byteOffset":0,"componentType":5126,"count":6819,"type":"VEC2","max":[0.9954128265380859,0.620758056640625],"min":[2.2250738585072014e-308,2.2250738585072014e-308]},{"bufferView":2,"byteOffset":0,"componentType":5125,"count":29841,"type":"SCALAR","max":[6818],"min":[0]},{"bufferView":3,"byteOffset":0,"componentType":5126,"count":212,"type":"VEC3","max":[4.074372291564941,-1.6817262172698975,4.013604164123535],"min":[2.2250738585072014e-308,-1.9166955947875977,2.2250738585072014e-308]},{"bufferView":4,"byteOffset":0,"componentType":5126,"count":212,"type":"VEC2","max":[0.8344230651855469,0.802940309047699],"min":[2.2250738585072014e-308,2.2250738585072014e-308]},{"bufferView":5,"byteOffset":0,"componentType":5125,"count":963,"type":"SCALAR","max":[211],"min":[0]}],"buffers":[{"byteLength":263836,"uri":"tile_0248.bin"}],"bufferViews":[{"buffer":0,"byteOffset":0,"byteLength":81828,"target":34962},{"buffer":0,"byteOffset":81828,"byteLength":54552,"target":34962},{"buffer":0,"byteOffset":136380,"byteLength":119364,"target":34963},{"buffer":0,"byteOffset":255744,"byteLength":2544,"target":34962},{"buffer":0,"byteOffset":258288,"byteLength":1696,"target":34962},{"buffer":0,"byteOffset":259984,"byteLength":3852,"target":34963}],"images":[{"uri":"../textures/tile_0248_material_0.jpg"},{"uri":"../textures/tile_0248_material_1.jpg"}],"materials":[{"name":"DefaultMaterial","pbrMetallicRoughness":{"baseColorFactor":[0.6000000238418579,0.6000000238418579,0.6000000238418579,1.0],"metallicFactor":0.0},"extensions":{"KHR_materials_specular":{"specularFactor":1.0,"specularColorFactor":[0.0,0.0,0.0]},"KHR_materials_ior":{"ior":1.0}}},{"name":"material_0_material","pbrMetallicRoughness":{"baseColorTexture":{"index":0},"metallicFactor":0.0},"extensions":{"KHR_materials_specular":{"specularFactor":1.0,"specularColorFactor":[0.0,0.0,0.0]},"KHR_materials_ior":{"ior":1.0}}},{"name":"material_1_material","pbrMetallicRoughness":{"baseColorTexture":{"index":1},"metallicFactor":0.0},"extensions":{"KHR_materials_specular":{"specularFactor":1.0,"specularColorFactor":[0.0,0.0,0.0]},"KHR_materials_ior":{"ior":1.0}}}],"meshes":[{"name":"defaultobject","primitives":[{"mode":4,"material":1,"indices":2,"attributes":{"POSITION":0,"TEXCOORD_0":1}},{"mode":4,"material":2,"indices":5,"attributes":{"POSITION":3,"TEXCOORD_0":4}}]}],"nodes":[{"name":"tile_0248.obj","children":[1]},{"name":"defaultobject","mesh":0}],"samplers":[{},{}],"scenes":[{"nodes":[0]}],"textures":[{"source":0,"sampler":0},{"source":1,"sampler":1}],"scene":0}
