{"asset":{"version":"2.0","generator":"Open Asset Import Library (assimp v6.0.0)"},"extensionsUsed":["KHR_materials_specular","KHR_materials_volume","KHR_materials_ior","FB_ngon_encoding"],"accessors":[{"bufferView":0,"byteOffset":0,"componentType":5126,"count":2350,"type":"VEC3","max":[-2.974552869796753,-1.006181001663208,3.7451963424682617],"min":[-3.586824893951416,-1.1938174962997437,2.2250738585072014e-308]},{"bufferView":1,"byteOffset":0,"componentType":5126,"count":2350,"type":"VEC2","max":[0.9824800491333008,0.6180343627929688],"min":[2.2250738585072014e-308,2.2250738585072014e-308]},{"bufferView":2,"byteOffset":0,"componentType":5125,"count":11085,"type":"SCALAR","max":[2349],"min":[0]},{"bufferView":3,"byteOffset":0,"componentType":5126,"count":2904,"type":"VEC3","max":[-2.9752817153930664,-0.9681268930435181,3.779630422592163],"min":[-3.591198205947876,-1.1937817335128784,2.2250738585072014e-308]},{"bufferView":4,"byteOffset":0,"componentType":5126,"count":2904,"type":"VEC2","max":[0.9881191253662109,0.6935291290283203],"min":[2.2250738585072014e-308,2.2250738585072014e-308]},{"bufferView":5,"byteOffset":0,"componentType":5125,"count":15078,"type":"SCALAR","max":[2903],"min":[0]}],"buffers":[{"byteLength":209732,"uri":"tile_0414.bin"}],"bufferViews":[{"buffer":0,"byteOffset":0,"byteLength":28200,"target":34962},{"buffer":0,"byteOffset":28200,"byteLength":18800,"target":34962},{"buffer":0,"byteOffset":47000,"byteLength":44340,"target":34963},{"buffer":0,"byteOffset":91340,"byteLength":34848,"target":34962},{"buffer":0,"byteOffset":126188,"byteLength":23232,"target":34962},{"buffer":0,"byteOffset":149420,"byteLength":60312,"target":34963}],"images":[{"uri":"../textures/tile_0414_material_0.jpg"},{"uri":"../textures/tile_0414_material_1.jpg"}],"materials":[{"name":"DefaultMaterial","pbrMetallicRoughness":{"baseColorFactor":[0.6000000238418579,0.6000000238418579,0.6000000238418579,1.0],"metallicFactor":0.0},"extensions":{"KHR_materials_specular":{"specularFactor":1.0,"specularColorFactor":[0.0,0.0,0.0]},"KHR_materials_ior":{"ior":1.0}}},{"name":"material_0_material","pbrMetallicRoughness":{"baseColorTexture":{"index":0},"metallicFactor":0.0},"extensions":{"KHR_materials_specular":{"specularFactor":1.0,"specularColorFactor":[0.0,0.0,0.0]},"KHR_materials_ior":{"ior":1.0}}},{"name":"material_1_material","pbrMetallicRoughness":{"baseColorTexture":{"index":1},"metallicFactor":0.0},"extensions":{"KHR_materials_specular":{"specularFactor":1.0,"specularColorFactor":[0.0,0.0,0.0]},"KHR_materials_ior":{"ior":1.0}}}],"meshes":[{"name":"defaultobject","primitives":[{"mode":4,"material":1,"indices":2,"attributes":{"POSITION":0,"TEXCOORD_0":1}},{"mode":4,"material":2,"indices":5,"attributes":{"POSITION":3,"TEXCOORD_0":4}}]}],"nodes":[{"name":"tile_0414.obj","children":[1]},{"name":"defaultobject","mesh":0}],"samplers":[{},{}],"scenes":[{"nodes":[0]}],"textures":[{"source":0,"sampler":0},{"source":1,"sampler":1}],"scene":0}
