{"asset":{"version":"2.0","generator":"Open Asset Import Library (assimp v6.0.0)"},"extensionsUsed":["KHR_materials_specular","KHR_materials_volume","KHR_materials_ior","FB_ngon_encoding"],"accessors":[{"bufferView":0,"byteOffset":0,"componentType":5126,"count":2245,"type":"VEC3","max":[-2.7978274822235107,0.08098050206899643,4.188085556030273],"min":[-3.1376230716705322,-0.28575894236564636,2.2250738585072014e-308]},{"bufferView":1,"byteOffset":0,"componentType":5126,"count":2245,"type":"VEC2","max":[0.9858684539794922,0.5854911804199219],"min":[2.2250738585072014e-308,2.2250738585072014e-308]},{"bufferView":2,"byteOffset":0,"componentType":5125,"count":9333,"type":"SCALAR","max":[2244],"min":[0]},{"bufferView":3,"byteOffset":0,"componentType":5126,"count":2035,"type":"VEC3","max":[-2.7974331378936768,0.07900457829236984,4.185185432434082],"min":[-3.1387887001037598,-0.28629058599472046,2.2250738585072014e-308]},{"bufferView":4,"byteOffset":0,"componentType":5126,"count":2035,"type":"VEC2","max":[0.8470520973205566,0.9357223510742188],"min":[2.2250738585072014e-308,2.2250738585072014e-308]},{"bufferView":5,"byteOffset":0,"componentType":5125,"count":10416,"type":"SCALAR","max":[2034],"min":[0]}],"buffers":[{"byteLength":164596,"uri":"tile_0454.bin"}],"bufferViews":[{"buffer":0,"byteOffset":0,"byteLength":26940,"target":34962},{"buffer":0,"byteOffset":26940,"byteLength":17960,"target":34962},{"buffer":0,"byteOffset":44900,"byteLength":37332,"target":34963},{"buffer":0,"byteOffset":82232,"byteLength":24420,"target":34962},{"buffer":0,"byteOffset":106652,"byteLength":16280,"target":34962},{"buffer":0,"byteOffset":122932,"byteLength":41664,"target":34963}],"images":[{"uri":"../textures/tile_0454_material_0.jpg"},{"uri":"../textures/tile_0454_material_1.jpg"}],"materials":[{"name":"DefaultMaterial","pbrMetallicRoughness":{"baseColorFactor":[0.6000000238418579,0.6000000238418579,0.6000000238418579,1.0],"metallicFactor":0.0},"extensions":{"KHR_materials_specular":{"specularFactor":1.0,"specularColorFactor":[0.0,0.0,0.0]},"KHR_materials_ior":{"ior":1.0}}},{"name":"material_0_material","pbrMetallicRoughness":{"baseColorTexture":{"index":0},"metallicFactor":0.0},"extensions":{"KHR_materials_specular":{"specularFactor":1.0,"specularColorFactor":[0.0,0.0,0.0]},"KHR_materials_ior":{"ior":1.0}}},{"name":"material_1_material","pbrMetallicRoughness":{"baseColorTexture":{"index":1},"metallicFactor":0.0},"extensions":{"KHR_materials_specular":{"specularFactor":1.0,"specularColorFactor":[0.0,0.0,0.0]},"KHR_materials_ior":{"ior":1.0}}}],"meshes":[{"name":"defaultobject","primitives":[{"mode":4,"material":1,"indices":2,"attributes":{"POSITION":0,"TEXCOORD_0":1}},{"mode":4,"material":2,"indices":5,"attributes":{"POSITION":3,"TEXCOORD_0":4}}]}],"nodes":[{"name":"tile_0454.obj","children":[1]},{"name":"defaultobject","mesh":0}],"samplers":[{},{}],"scenes":[{"nodes":[0]}],"textures":[{"source":0,"sampler":0},{"source":1,"sampler":1}],"scene":0}
