{"asset":{"version":"2.0","generator":"Open Asset Import Library (assimp v6.0.0)"},"extensionsUsed":["KHR_materials_specular","KHR_materials_volume","KHR_materials_ior","FB_ngon_encoding"],"accessors":[{"bufferView":0,"byteOffset":0,"componentType":5126,"count":3155,"type":"VEC3","max":[-2.9744417667388916,-1.4444499015808105,3.2783496379852295],"min":[-3.5672404766082764,-1.6634823083877563,2.2250738585072014e-308]},{"bufferView":1,"byteOffset":0,"componentType":5126,"count":3155,"type":"VEC2","max":[0.9950857162475586,0.51171875],"min":[2.2250738585072014e-308,2.2250738585072014e-308]},{"bufferView":2,"byteOffset":0,"componentType":5125,"count":15330,"type":"SCALAR","max":[3154],"min":[0]},{"bufferView":3,"byteOffset":0,"componentType":5126,"count":3276,"type":"VEC3","max":[-2.975529670715332,-1.4457281827926636,3.2368834018707275],"min":[-3.5659048557281494,-1.6597025394439697,2.2250738585072014e-308]},{"bufferView":4,"byteOffset":0,"componentType":5126,"count":3276,"type":"VEC2","max":[0.7987709045410156,0.6297779083251953],"min":[2.2250738585072014e-308,2.2250738585072014e-308]},{"bufferView":5,"byteOffset":0,"componentType":5125,"count":17133,"type":"SCALAR","max":[3275],"min":[0]}],"buffers":[{"byteLength":258472,"uri":"tile_0403.bin"}],"bufferViews":[{"buffer":0,"byteOffset":0,"byteLength":37860,"target":34962},{"buffer":0,"byteOffset":37860,"byteLength":25240,"target":34962},{"buffer":0,"byteOffset":63100,"byteLength":61320,"target":34963},{"buffer":0,"byteOffset":124420,"byteLength":39312,"target":34962},{"buffer":0,"byteOffset":163732,"byteLength":26208,"target":34962},{"buffer":0,"byteOffset":189940,"byteLength":68532,"target":34963}],"images":[{"uri":"../textures/tile_0403_material_0.jpg"},{"uri":"../textures/tile_0403_material_1.jpg"}],"materials":[{"name":"DefaultMaterial","pbrMetallicRoughness":{"baseColorFactor":[0.6000000238418579,0.6000000238418579,0.6000000238418579,1.0],"metallicFactor":0.0},"extensions":{"KHR_materials_specular":{"specularFactor":1.0,"specularColorFactor":[0.0,0.0,0.0]},"KHR_materials_ior":{"ior":1.0}}},{"name":"material_0_material","pbrMetallicRoughness":{"baseColorTexture":{"index":0},"metallicFactor":0.0},"extensions":{"KHR_materials_specular":{"specularFactor":1.0,"specularColorFactor":[0.0,0.0,0.0]},"KHR_materials_ior":{"ior":1.0}}},{"name":"material_1_material","pbrMetallicRoughness":{"baseColorTexture":{"index":1},"metallicFactor":0.0},"extensions":{"KHR_materials_specular":{"specularFactor":1.0,"specularColorFactor":[0.0,0.0,0.0]},"KHR_materials_ior":{"ior":1.0}}}],"meshes":[{"name":"defaultobject","primitives":[{"mode":4,"material":1,"indices":2,"attributes":{"POSITION":0,"TEXCOORD_0":1}},{"mode":4,"material":2,"indices":5,"attributes":{"POSITION":3,"TEXCOORD_0":4}}]}],"nodes":[{"name":"tile_0403.obj","children":[1]},{"name":"defaultobject","mesh":0}],"samplers":[{},{}],"scenes":[{"nodes":[0]}],"textures":[{"source":0,"sampler":0},{"source":1,"sampler":1}],"scene":0}
