{"asset":{"version":"2.0","generator":"Open Asset Import Library (assimp v6.0.0)"},"extensionsUsed":["KHR_materials_specular","KHR_materials_volume","KHR_materials_ior","FB_ngon_encoding"],"accessors":[{"bufferView":0,"byteOffset":0,"componentType":5126,"count":2115,"type":"VEC3","max":[-3.8722686767578125,-1.814979076385498,3.3647592067718506],"min":[-4.419247627258301,-2.054173469543457,2.2250738585072014e-308]},{"bufferView":1,"byteOffset":0,"componentType":5126,"count":2115,"type":"VEC2","max":[0.9846668243408203,0.8531455993652344],"min":[2.2250738585072014e-308,2.2250738585072014e-308]},{"bufferView":2,"byteOffset":0,"componentType":5125,"count":10323,"type":"SCALAR","max":[2114],"min":[0]},{"bufferView":3,"byteOffset":0,"componentType":5126,"count":1329,"type":"VEC3","max":[-3.8183882236480713,-1.7958320379257202,3.367868185043335],"min":[-4.418948173522949,-2.0606563091278076,2.2250738585072014e-308]},{"bufferView":4,"byteOffset":0,"componentType":5126,"count":1329,"type":"VEC2","max":[0.8829984664916992,0.8988265991210938],"min":[2.2250738585072014e-308,2.2250738585072014e-308]},{"bufferView":5,"byteOffset":0,"componentType":5125,"count":7053,"type":"SCALAR","max":[1328],"min":[0]}],"buffers":[{"byteLength":138384,"uri":"tile_0422.bin"}],"bufferViews":[{"buffer":0,"byteOffset":0,"byteLength":25380,"target":34962},{"buffer":0,"byteOffset":25380,"byteLength":16920,"target":34962},{"buffer":0,"byteOffset":42300,"byteLength":41292,"target":34963},{"buffer":0,"byteOffset":83592,"byteLength":15948,"target":34962},{"buffer":0,"byteOffset":99540,"byteLength":10632,"target":34962},{"buffer":0,"byteOffset":110172,"byteLength":28212,"target":34963}],"images":[{"uri":"../textures/tile_0422_material_0.jpg"},{"uri":"../textures/tile_0422_material_1.jpg"}],"materials":[{"name":"DefaultMaterial","pbrMetallicRoughness":{"baseColorFactor":[0.6000000238418579,0.6000000238418579,0.6000000238418579,1.0],"metallicFactor":0.0},"extensions":{"KHR_materials_specular":{"specularFactor":1.0,"specularColorFactor":[0.0,0.0,0.0]},"KHR_materials_ior":{"ior":1.0}}},{"name":"material_0_material","pbrMetallicRoughness":{"baseColorTexture":{"index":0},"metallicFactor":0.0},"extensions":{"KHR_materials_specular":{"specularFactor":1.0,"specularColorFactor":[0.0,0.0,0.0]},"KHR_materials_ior":{"ior":1.0}}},{"name":"material_1_material","pbrMetallicRoughness":{"baseColorTexture":{"index":1},"metallicFactor":0.0},"extensions":{"KHR_materials_specular":{"specularFactor":1.0,"specularColorFactor":[0.0,0.0,0.0]},"KHR_materials_ior":{"ior":1.0}}}],"meshes":[{"name":"defaultobject","primitives":[{"mode":4,"material":1,"indices":2,"attributes":{"POSITION":0,"TEXCOORD_0":1}},{"mode":4,"material":2,"indices":5,"attributes":{"POSITION":3,"TEXCOORD_0":4}}]}],"nodes":[{"name":"tile_0422.obj","children":[1]},{"name":"defaultobject","mesh":0}],"samplers":[{},{}],"scenes":[{"nodes":[0]}],"textures":[{"source":0,"sampler":0},{"source":1,"sampler":1}],"scene":0}
