{"asset":{"version":"2.0","generator":"Open Asset Import Library (assimp v6.0.0)"},"extensionsUsed":["KHR_materials_specular","KHR_materials_volume","KHR_materials_ior","FB_ngon_encoding"],"accessors":[{"bufferView":0,"byteOffset":0,"componentType":5126,"count":5354,"type":"VEC3","max":[1.157914638519287,-0.7750831842422485,3.414402961730957],"min":[2.2250738585072014e-308,-1.0062813758850098,2.2250738585072014e-308]},{"bufferView":1,"byteOffset":0,"componentType":5126,"count":5354,"type":"VEC2","max":[0.9799902439117432,0.6708793640136719],"min":[2.2250738585072014e-308,2.2250738585072014e-308]},{"bufferView":2,"byteOffset":0,"componentType":5125,"count":23817,"type":"SCALAR","max":[5353],"min":[0]},{"bufferView":3,"byteOffset":0,"componentType":5126,"count":132,"type":"VEC3","max":[1.0008790493011475,-0.8475884795188904,3.2129063606262207],"min":[2.2250738585072014e-308,-0.9285166263580322,2.2250738585072014e-308]},{"bufferView":4,"byteOffset":0,"componentType":5126,"count":132,"type":"VEC2","max":[0.5877695083618164,0.8048934936523438],"min":[2.2250738585072014e-308,2.2250738585072014e-308]},{"bufferView":5,"byteOffset":0,"componentType":5125,"count":597,"type":"SCALAR","max":[131],"min":[0]}],"buffers":[{"byteLength":207376,"uri":"tile_0622.bin"}],"bufferViews":[{"buffer":0,"byteOffset":0,"byteLength":64248,"target":34962},{"buffer":0,"byteOffset":64248,"byteLength":42832,"target":34962},{"buffer":0,"byteOffset":107080,"byteLength":95268,"target":34963},{"buffer":0,"byteOffset":202348,"byteLength":1584,"target":34962},{"buffer":0,"byteOffset":203932,"byteLength":1056,"target":34962},{"buffer":0,"byteOffset":204988,"byteLength":2388,"target":34963}],"images":[{"uri":"../textures/tile_0622_material_0.jpg"},{"uri":"../textures/tile_0622_material_1.jpg"}],"materials":[{"name":"DefaultMaterial","pbrMetallicRoughness":{"baseColorFactor":[0.6000000238418579,0.6000000238418579,0.6000000238418579,1.0],"metallicFactor":0.0},"extensions":{"KHR_materials_specular":{"specularFactor":1.0,"specularColorFactor":[0.0,0.0,0.0]},"KHR_materials_ior":{"ior":1.0}}},{"name":"material_0_material","pbrMetallicRoughness":{"baseColorTexture":{"index":0},"metallicFactor":0.0},"extensions":{"KHR_materials_specular":{"specularFactor":1.0,"specularColorFactor":[0.0,0.0,0.0]},"KHR_materials_ior":{"ior":1.0}}},{"name":"material_1_material","pbrMetallicRoughness":{"baseColorTexture":{"index":1},"metallicFactor":0.0},"extensions":{"KHR_materials_specular":{"specularFactor":1.0,"specularColorFactor":[0.0,0.0,0.0]},"KHR_materials_ior":{"ior":1.0}}}],"meshes":[{"name":"defaultobject","primitives":[{"mode":4,"material":1,"indices":2,"attributes":{"POSITION":0,"TEXCOORD_0":1}},{"mode":4,"material":2,"indices":5,"attributes":{"POSITION":3,"TEXCOORD_0":4}}]}],"nodes":[{"name":"tile_0622.obj","children":[1]},{"name":"defaultobject","mesh":0}],"samplers":[{},{}],"scenes":[{"nodes":[0]}],"textures":[{"source":0,"sampler":0},{"source":1,"sampler":1}],"scene":0}
