{"asset":{"version":"2.0","generator":"Open Asset Import Library (assimp v6.0.0)"},"extensionsUsed":["KHR_materials_specular","KHR_materials_volume","KHR_materials_ior","FB_ngon_encoding"],"accessors":[{"bufferView":0,"byteOffset":0,"componentType":5126,"count":4003,"type":"VEC3","max":[-0.65215003490448,0.15040980279445648,4.141622066497803],"min":[-0.9637260437011719,-0.042229197919368744,2.2250738585072014e-308]},{"bufferView":1,"byteOffset":0,"componentType":5126,"count":4003,"type":"VEC2","max":[0.9825015068054199,0.5450973510742188],"min":[2.2250738585072014e-308,2.2250738585072014e-308]},{"bufferView":2,"byteOffset":0,"componentType":5125,"count":18081,"type":"SCALAR","max":[4002],"min":[0]},{"bufferView":3,"byteOffset":0,"componentType":5126,"count":2000,"type":"VEC3","max":[-0.65215003490448,0.1483909785747528,4.13491153717041],"min":[-0.9593684673309326,-0.03836536034941673,2.2250738585072014e-308]},{"bufferView":4,"byteOffset":0,"componentType":5126,"count":2000,"type":"VEC2","max":[0.5857963562011719,0.9313507080078125],"min":[2.2250738585072014e-308,2.2250738585072014e-308]},{"bufferView":5,"byteOffset":0,"componentType":5125,"count":10176,"type":"SCALAR","max":[1999],"min":[0]}],"buffers":[{"byteLength":233088,"uri":"tile_0081.bin"}],"bufferViews":[{"buffer":0,"byteOffset":0,"byteLength":48036,"target":34962},{"buffer":0,"byteOffset":48036,"byteLength":32024,"target":34962},{"buffer":0,"byteOffset":80060,"byteLength":72324,"target":34963},{"buffer":0,"byteOffset":152384,"byteLength":24000,"target":34962},{"buffer":0,"byteOffset":176384,"byteLength":16000,"target":34962},{"buffer":0,"byteOffset":192384,"byteLength":40704,"target":34963}],"images":[{"uri":"../textures/tile_0081_material_0.jpg"},{"uri":"../textures/tile_0081_material_1.jpg"}],"materials":[{"name":"DefaultMaterial","pbrMetallicRoughness":{"baseColorFactor":[0.6000000238418579,0.6000000238418579,0.6000000238418579,1.0],"metallicFactor":0.0},"extensions":{"KHR_materials_specular":{"specularFactor":1.0,"specularColorFactor":[0.0,0.0,0.0]},"KHR_materials_ior":{"ior":1.0}}},{"name":"material_0_material","pbrMetallicRoughness":{"baseColorTexture":{"index":0},"metallicFactor":0.0},"extensions":{"KHR_materials_specular":{"specularFactor":1.0,"specularColorFactor":[0.0,0.0,0.0]},"KHR_materials_ior":{"ior":1.0}}},{"name":"material_1_material","pbrMetallicRoughness":{"baseColorTexture":{"index":1},"metallicFactor":0.0},"extensions":{"KHR_materials_specular":{"specularFactor":1.0,"specularColorFactor":[0.0,0.0,0.0]},"KHR_materials_ior":{"ior":1.0}}}],"meshes":[{"name":"defaultobject","primitives":[{"mode":4,"material":1,"indices":2,"attributes":{"POSITION":0,"TEXCOORD_0":1}},{"mode":4,"material":2,"indices":5,"attributes":{"POSITION":3,"TEXCOORD_0":4}}]}],"nodes":[{"name":"tile_0081.obj","children":[1]},{"name":"defaultobject","mesh":0}],"samplers":[{},{}],"scenes":[{"nodes":[0]}],"textures":[{"source":0,"sampler":0},{"source":1,"sampler":1}],"scene":0}
