{"asset":{"version":"2.0","generator":"Open Asset Import Library (assimp v6.0.0)"},"extensionsUsed":["KHR_materials_specular","KHR_materials_volume","KHR_materials_ior","FB_ngon_encoding"],"accessors":[{"bufferView":0,"byteOffset":0,"componentType":5126,"count":5038,"type":"VEC3","max":[-0.24179817736148834,-4.542115688323975,2.635586977005005],"min":[-0.42782726883888245,-4.972476482391357,2.2250738585072014e-308]},{"bufferView":1,"byteOffset":0,"componentType":5126,"count":5038,"type":"VEC2","max":[0.990143895149231,0.6195621490478516],"min":[2.2250738585072014e-308,2.2250738585072014e-308]},{"bufferView":2,"byteOffset":0,"componentType":5125,"count":22746,"type":"SCALAR","max":[5037],"min":[0]},{"bufferView":3,"byteOffset":0,"componentType":5126,"count":525,"type":"VEC3","max":[-0.24189725518226624,-4.591477394104004,2.550593614578247],"min":[-0.4251779019832611,-4.972728252410889,2.2250738585072014e-308]},{"bufferView":4,"byteOffset":0,"componentType":5126,"count":525,"type":"VEC2","max":[0.8215065002441406,0.5467681884765625],"min":[2.2250738585072014e-308,2.2250738585072014e-308]},{"bufferView":5,"byteOffset":0,"componentType":5125,"count":2409,"type":"SCALAR","max":[524],"min":[0]}],"buffers":[{"byteLength":211880,"uri":"tile_0354.bin"}],"bufferViews":[{"buffer":0,"byteOffset":0,"byteLength":60456,"target":34962},{"buffer":0,"byteOffset":60456,"byteLength":40304,"target":34962},{"buffer":0,"byteOffset":100760,"byteLength":90984,"target":34963},{"buffer":0,"byteOffset":191744,"byteLength":6300,"target":34962},{"buffer":0,"byteOffset":198044,"byteLength":4200,"target":34962},{"buffer":0,"byteOffset":202244,"byteLength":9636,"target":34963}],"images":[{"uri":"../textures/tile_0354_material_0.jpg"},{"uri":"../textures/tile_0354_material_1.jpg"}],"materials":[{"name":"DefaultMaterial","pbrMetallicRoughness":{"baseColorFactor":[0.6000000238418579,0.6000000238418579,0.6000000238418579,1.0],"metallicFactor":0.0},"extensions":{"KHR_materials_specular":{"specularFactor":1.0,"specularColorFactor":[0.0,0.0,0.0]},"KHR_materials_ior":{"ior":1.0}}},{"name":"material_0_material","pbrMetallicRoughness":{"baseColorTexture":{"index":0},"metallicFactor":0.0},"extensions":{"KHR_materials_specular":{"specularFactor":1.0,"specularColorFactor":[0.0,0.0,0.0]},"KHR_materials_ior":{"ior":1.0}}},{"name":"material_1_material","pbrMetallicRoughness":{"baseColorTexture":{"index":1},"metallicFactor":0.0},"extensions":{"KHR_materials_specular":{"specularFactor":1.0,"specularColorFactor":[0.0,0.0,0.0]},"KHR_materials_ior":{"ior":1.0}}}],"meshes":[{"name":"defaultobject","primitives":[{"mode":4,"material":1,"indices":2,"attributes":{"POSITION":0,"TEXCOORD_0":1}},{"mode":4,"material":2,"indices":5,"attributes":{"POSITION":3,"TEXCOORD_0":4}}]}],"nodes":[{"name":"tile_0354.obj","children":[1]},{"name":"defaultobject","mesh":0}],"samplers":[{},{}],"scenes":[{"nodes":[0]}],"textures":[{"source":0,"sampler":0},{"source":1,"sampler":1}],"scene":0}
