{"asset":{"version":"2.0","generator":"Open Asset Import Library (assimp v6.0.0)"},"extensionsUsed":["KHR_materials_specular","KHR_materials_volume","KHR_materials_ior","FB_ngon_encoding"],"accessors":[{"bufferView":0,"byteOffset":0,"componentType":5126,"count":2062,"type":"VEC3","max":[2.2997043132781982,5.534244537353516,4.812155723571777],"min":[2.2250738585072014e-308,2.2250738585072014e-308,2.2250738585072014e-308]},{"bufferView":1,"byteOffset":0,"componentType":5126,"count":2062,"type":"VEC2","max":[0.985661506652832,0.6461181640625],"min":[2.2250738585072014e-308,2.2250738585072014e-308]},{"bufferView":2,"byteOffset":0,"componentType":5125,"count":8844,"type":"SCALAR","max":[2061],"min":[0]},{"bufferView":3,"byteOffset":0,"componentType":5126,"count":2461,"type":"VEC3","max":[2.3280341625213623,5.713949203491211,4.854913234710693],"min":[2.2250738585072014e-308,2.2250738585072014e-308,2.2250738585072014e-308]},{"bufferView":4,"byteOffset":0,"componentType":5126,"count":2461,"type":"VEC2","max":[0.8039172291755676,0.7152175903320312],"min":[2.2250738585072014e-308,2.2250738585072014e-308]},{"bufferView":5,"byteOffset":0,"componentType":5125,"count":13233,"type":"SCALAR","max":[2460],"min":[0]}],"buffers":[{"byteLength":178768,"uri":"tile_0700.bin"}],"bufferViews":[{"buffer":0,"byteOffset":0,"byteLength":24744,"target":34962},{"buffer":0,"byteOffset":24744,"byteLength":16496,"target":34962},{"buffer":0,"byteOffset":41240,"byteLength":35376,"target":34963},{"buffer":0,"byteOffset":76616,"byteLength":29532,"target":34962},{"buffer":0,"byteOffset":106148,"byteLength":19688,"target":34962},{"buffer":0,"byteOffset":125836,"byteLength":52932,"target":34963}],"images":[{"uri":"../textures/tile_0700_material_0.jpg"},{"uri":"../textures/tile_0700_material_1.jpg"}],"materials":[{"name":"DefaultMaterial","pbrMetallicRoughness":{"baseColorFactor":[0.6000000238418579,0.6000000238418579,0.6000000238418579,1.0],"metallicFactor":0.0},"extensions":{"KHR_materials_specular":{"specularFactor":1.0,"specularColorFactor":[0.0,0.0,0.0]},"KHR_materials_ior":{"ior":1.0}}},{"name":"material_0_material","pbrMetallicRoughness":{"baseColorTexture":{"index":0},"metallicFactor":0.0},"extensions":{"KHR_materials_specular":{"specularFactor":1.0,"specularColorFactor":[0.0,0.0,0.0]},"KHR_materials_ior":{"ior":1.0}}},{"name":"material_1_material","pbrMetallicRoughness":{"baseColorTexture":{"index":1},"metallicFactor":0.0},"extensions":{"KHR_materials_specular":{"specularFactor":1.0,"specularColorFactor":[0.0,0.0,0.0]},"KHR_materials_ior":{"ior":1.0}}}],"meshes":[{"name":"defaultobject","primitives":[{"mode":4,"material":1,"indices":2,"attributes":{"POSITION":0,"TEXCOORD_0":1}},{"mode":4,"material":2,"indices":5,"attributes":{"POSITION":3,"TEXCOORD_0":4}}]}],"nodes":[{"name":"tile_0700.obj","children":[1]},{"name":"defaultobject","mesh":0}],"samplers":[{},{}],"scenes":[{"nodes":[0]}],"textures":[{"source":0,"sampler":0},{"source":1,"sampler":1}],"scene":0}
