{"asset":{"version":"2.0","generator":"Open Asset Import Library (assimp v6.0.0)"},"extensionsUsed":["KHR_materials_specular","KHR_materials_volume","KHR_materials_ior","FB_ngon_encoding"],"accessors":[{"bufferView":0,"byteOffset":0,"componentType":5126,"count":6118,"type":"VEC3","max":[-0.3917210102081299,0.15082767605781555,4.1248250007629395],"min":[-0.6875573396682739,-0.04080774262547493,2.2250738585072014e-308]},{"bufferView":1,"byteOffset":0,"componentType":5126,"count":6118,"type":"VEC2","max":[0.9915590286254883,0.7928600311279297],"min":[2.2250738585072014e-308,2.2250738585072014e-308]},{"bufferView":2,"byteOffset":0,"componentType":5125,"count":27183,"type":"SCALAR","max":[6117],"min":[0]},{"bufferView":3,"byteOffset":0,"componentType":5126,"count":541,"type":"VEC3","max":[-0.43634307384490967,0.1484765112400055,4.1225504875183105],"min":[-0.6941363215446472,-0.06593073159456253,2.2250738585072014e-308]},{"bufferView":4,"byteOffset":0,"componentType":5126,"count":541,"type":"VEC2","max":[0.7090206146240234,0.5306663513183594],"min":[2.2250738585072014e-308,2.2250738585072014e-308]},{"bufferView":5,"byteOffset":0,"componentType":5125,"count":2490,"type":"SCALAR","max":[540],"min":[0]}],"buffers":[{"byteLength":251872,"uri":"tile_0466.bin"}],"bufferViews":[{"buffer":0,"byteOffset":0,"byteLength":73416,"target":34962},{"buffer":0,"byteOffset":73416,"byteLength":48944,"target":34962},{"buffer":0,"byteOffset":122360,"byteLength":108732,"target":34963},{"buffer":0,"byteOffset":231092,"byteLength":6492,"target":34962},{"buffer":0,"byteOffset":237584,"byteLength":4328,"target":34962},{"buffer":0,"byteOffset":241912,"byteLength":9960,"target":34963}],"images":[{"uri":"../textures/tile_0466_material_0.jpg"},{"uri":"../textures/tile_0466_material_1.jpg"}],"materials":[{"name":"DefaultMaterial","pbrMetallicRoughness":{"baseColorFactor":[0.6000000238418579,0.6000000238418579,0.6000000238418579,1.0],"metallicFactor":0.0},"extensions":{"KHR_materials_specular":{"specularFactor":1.0,"specularColorFactor":[0.0,0.0,0.0]},"KHR_materials_ior":{"ior":1.0}}},{"name":"material_0_material","pbrMetallicRoughness":{"baseColorTexture":{"index":0},"metallicFactor":0.0},"extensions":{"KHR_materials_specular":{"specularFactor":1.0,"specularColorFactor":[0.0,0.0,0.0]},"KHR_materials_ior":{"ior":1.0}}},{"name":"material_1_material","pbrMetallicRoughness":{"baseColorTexture":{"index":1},"metallicFactor":0.0},"extensions":{"KHR_materials_specular":{"specularFactor":1.0,"specularColorFactor":[0.0,0.0,0.0]},"KHR_materials_ior":{"ior":1.0}}}],"meshes":[{"name":"defaultobject","primitives":[{"mode":4,"material":1,"indices":2,"attributes":{"POSITION":0,"TEXCOORD_0":1}},{"mode":4,"material":2,"indices":5,"attributes":{"POSITION":3,"TEXCOORD_0":4}}]}],"nodes":[{"name":"tile_0466.obj","children":[1]},{"name":"defaultobject","mesh":0}],"samplers":[{},{}],"scenes":[{"nodes":[0]}],"textures":[{"source":0,"sampler":0},{"source":1,"sampler":1}],"scene":0}
