{"asset":{"version":"2.0","generator":"Open Asset Import Library (assimp v6.0.0)"},"extensionsUsed":["KHR_materials_specular","KHR_materials_volume","KHR_materials_ior","FB_ngon_encoding"],"accessors":[{"bufferView":0,"byteOffset":0,"componentType":5126,"count":5992,"type":"VEC3","max":[-1.0365171432495117,-0.01204678975045681,4.126192092895508],"min":[-1.2954246997833252,-0.1858527660369873,2.2250738585072014e-308]},{"bufferView":1,"byteOffset":0,"componentType":5126,"count":5992,"type":"VEC2","max":[0.9881293773651123,0.8004608154296875],"min":[2.2250738585072014e-308,2.2250738585072014e-308]},{"bufferView":2,"byteOffset":0,"componentType":5125,"count":27294,"type":"SCALAR","max":[5991],"min":[0]},{"bufferView":3,"byteOffset":0,"componentType":5126,"count":921,"type":"VEC3","max":[-1.0333361625671387,-0.00827221293002367,4.129298686981201],"min":[-1.2936420440673828,-0.17994432151317596,2.2250738585072014e-308]},{"bufferView":4,"byteOffset":0,"componentType":5126,"count":921,"type":"VEC2","max":[0.7612928152084351,0.7025833129882812],"min":[2.2250738585072014e-308,2.2250738585072014e-308]},{"bufferView":5,"byteOffset":0,"componentType":5125,"count":4071,"type":"SCALAR","max":[920],"min":[0]}],"buffers":[{"byteLength":263720,"uri":"tile_0462.bin"}],"bufferViews":[{"buffer":0,"byteOffset":0,"byteLength":71904,"target":34962},{"buffer":0,"byteOffset":71904,"byteLength":47936,"target":34962},{"buffer":0,"byteOffset":119840,"byteLength":109176,"target":34963},{"buffer":0,"byteOffset":229016,"byteLength":11052,"target":34962},{"buffer":0,"byteOffset":240068,"byteLength":7368,"target":34962},{"buffer":0,"byteOffset":247436,"byteLength":16284,"target":34963}],"images":[{"uri":"../textures/tile_0462_material_0.jpg"},{"uri":"../textures/tile_0462_material_1.jpg"}],"materials":[{"name":"DefaultMaterial","pbrMetallicRoughness":{"baseColorFactor":[0.6000000238418579,0.6000000238418579,0.6000000238418579,1.0],"metallicFactor":0.0},"extensions":{"KHR_materials_specular":{"specularFactor":1.0,"specularColorFactor":[0.0,0.0,0.0]},"KHR_materials_ior":{"ior":1.0}}},{"name":"material_0_material","pbrMetallicRoughness":{"baseColorTexture":{"index":0},"metallicFactor":0.0},"extensions":{"KHR_materials_specular":{"specularFactor":1.0,"specularColorFactor":[0.0,0.0,0.0]},"KHR_materials_ior":{"ior":1.0}}},{"name":"material_1_material","pbrMetallicRoughness":{"baseColorTexture":{"index":1},"metallicFactor":0.0},"extensions":{"KHR_materials_specular":{"specularFactor":1.0,"specularColorFactor":[0.0,0.0,0.0]},"KHR_materials_ior":{"ior":1.0}}}],"meshes":[{"name":"defaultobject","primitives":[{"mode":4,"material":1,"indices":2,"attributes":{"POSITION":0,"TEXCOORD_0":1}},{"mode":4,"material":2,"indices":5,"attributes":{"POSITION":3,"TEXCOORD_0":4}}]}],"nodes":[{"name":"tile_0462.obj","children":[1]},{"name":"defaultobject","mesh":0}],"samplers":[{},{}],"scenes":[{"nodes":[0]}],"textures":[{"source":0,"sampler":0},{"source":1,"sampler":1}],"scene":0}
