{"asset":{"version":"2.0","generator":"Open Asset Import Library (assimp v6.0.0)"},"extensionsUsed":["KHR_materials_specular","KHR_materials_volume","KHR_materials_ior","FB_ngon_encoding"],"accessors":[{"bufferView":0,"byteOffset":0,"componentType":5126,"count":4436,"type":"VEC3","max":[-0.7600459456443787,-0.5663347244262695,2.773663282394409],"min":[-1.0590548515319824,-0.7890960574150085,2.2250738585072014e-308]},{"bufferView":1,"byteOffset":0,"componentType":5126,"count":4436,"type":"VEC2","max":[0.9690978527069092,0.6163749694824219],"min":[2.2250738585072014e-308,2.2250738585072014e-308]},{"bufferView":2,"byteOffset":0,"componentType":5125,"count":21105,"type":"SCALAR","max":[4435],"min":[0]},{"bufferView":3,"byteOffset":0,"componentType":5126,"count":1701,"type":"VEC3","max":[-0.758754312992096,-0.5673280358314514,2.77982759475708],"min":[-1.0803650617599487,-0.7890960574150085,2.2250738585072014e-308]},{"bufferView":4,"byteOffset":0,"componentType":5126,"count":1701,"type":"VEC2","max":[0.6382737159729004,0.6403961181640625],"min":[2.2250738585072014e-308,2.2250738585072014e-308]},{"bufferView":5,"byteOffset":0,"componentType":5125,"count":8484,"type":"SCALAR","max":[1700],"min":[0]}],"buffers":[{"byteLength":241096,"uri":"tile_0334.bin"}],"bufferViews":[{"buffer":0,"byteOffset":0,"byteLength":53232,"target":34962},{"buffer":0,"byteOffset":53232,"byteLength":35488,"target":34962},{"buffer":0,"byteOffset":88720,"byteLength":84420,"target":34963},{"buffer":0,"byteOffset":173140,"byteLength":20412,"target":34962},{"buffer":0,"byteOffset":193552,"byteLength":13608,"target":34962},{"buffer":0,"byteOffset":207160,"byteLength":33936,"target":34963}],"images":[{"uri":"../textures/tile_0334_material_0.jpg"},{"uri":"../textures/tile_0334_material_1.jpg"}],"materials":[{"name":"DefaultMaterial","pbrMetallicRoughness":{"baseColorFactor":[0.6000000238418579,0.6000000238418579,0.6000000238418579,1.0],"metallicFactor":0.0},"extensions":{"KHR_materials_specular":{"specularFactor":1.0,"specularColorFactor":[0.0,0.0,0.0]},"KHR_materials_ior":{"ior":1.0}}},{"name":"material_0_material","pbrMetallicRoughness":{"baseColorTexture":{"index":0},"metallicFactor":0.0},"extensions":{"KHR_materials_specular":{"specularFactor":1.0,"specularColorFactor":[0.0,0.0,0.0]},"KHR_materials_ior":{"ior":1.0}}},{"name":"material_1_material","pbrMetallicRoughness":{"baseColorTexture":{"index":1},"metallicFactor":0.0},"extensions":{"KHR_materials_specular":{"specularFactor":1.0,"specularColorFactor":[0.0,0.0,0.0]},"KHR_materials_ior":{"ior":1.0}}}],"meshes":[{"name":"defaultobject","primitives":[{"mode":4,"material":1,"indices":2,"attributes":{"POSITION":0,"TEXCOORD_0":1}},{"mode":4,"material":2,"indices":5,"attributes":{"POSITION":3,"TEXCOORD_0":4}}]}],"nodes":[{"name":"tile_0334.obj","children":[1]},{"name":"defaultobject","mesh":0}],"samplers":[{},{}],"scenes":[{"nodes":[0]}],"textures":[{"source":0,"sampler":0},{"source":1,"sampler":1}],"scene":0}
