{"asset":{"version":"2.0","generator":"Open Asset Import Library (assimp v6.0.0)"},"extensionsUsed":["KHR_materials_specular","KHR_materials_volume","KHR_materials_ior","FB_ngon_encoding"],"accessors":[{"bufferView":0,"byteOffset":0,"componentType":5126,"count":3356,"type":"VEC3","max":[0.5162261724472046,2.9704694747924805,4.502936363220215],"min":[2.2250738585072014e-308,2.2250738585072014e-308,2.2250738585072014e-308]},{"bufferView":1,"byteOffset":0,"componentType":5126,"count":3356,"type":"VEC2","max":[0.9946737289428711,0.6521720886230469],"min":[2.2250738585072014e-308,2.2250738585072014e-308]},{"bufferView":2,"byteOffset":0,"componentType":5125,"count":14811,"type":"SCALAR","max":[3355],"min":[0]},{"bufferView":3,"byteOffset":0,"componentType":5126,"count":273,"type":"VEC3","max":[0.5011634230613708,2.9707181453704834,4.503376483917236],"min":[2.2250738585072014e-308,2.2250738585072014e-308,2.2250738585072014e-308]},{"bufferView":4,"byteOffset":0,"componentType":5126,"count":273,"type":"VEC2","max":[0.5242366790771484,0.6181564331054688],"min":[2.2250738585072014e-308,2.2250738585072014e-308]},{"bufferView":5,"byteOffset":0,"componentType":5125,"count":1317,"type":"SCALAR","max":[272],"min":[0]}],"buffers":[{"byteLength":137092,"uri":"tile_0692.bin"}],"bufferViews":[{"buffer":0,"byteOffset":0,"byteLength":40272,"target":34962},{"buffer":0,"byteOffset":40272,"byteLength":26848,"target":34962},{"buffer":0,"byteOffset":67120,"byteLength":59244,"target":34963},{"buffer":0,"byteOffset":126364,"byteLength":3276,"target":34962},{"buffer":0,"byteOffset":129640,"byteLength":2184,"target":34962},{"buffer":0,"byteOffset":131824,"byteLength":5268,"target":34963}],"images":[{"uri":"../textures/tile_0692_material_0.jpg"},{"uri":"../textures/tile_0692_material_1.jpg"}],"materials":[{"name":"DefaultMaterial","pbrMetallicRoughness":{"baseColorFactor":[0.6000000238418579,0.6000000238418579,0.6000000238418579,1.0],"metallicFactor":0.0},"extensions":{"KHR_materials_specular":{"specularFactor":1.0,"specularColorFactor":[0.0,0.0,0.0]},"KHR_materials_ior":{"ior":1.0}}},{"name":"material_0_material","pbrMetallicRoughness":{"baseColorTexture":{"index":0},"metallicFactor":0.0},"extensions":{"KHR_materials_specular":{"specularFactor":1.0,"specularColorFactor":[0.0,0.0,0.0]},"KHR_materials_ior":{"ior":1.0}}},{"name":"material_1_material","pbrMetallicRoughness":{"baseColorTexture":{"index":1},"metallicFactor":0.0},"extensions":{"KHR_materials_specular":{"specularFactor":1.0,"specularColorFactor":[0.0,0.0,0.0]},"KHR_materials_ior":{"ior":1.0}}}],"meshes":[{"name":"defaultobject","primitives":[{"mode":4,"material":1,"indices":2,"attributes":{"POSITION":0,"TEXCOORD_0":1}},{"mode":4,"material":2,"indices":5,"attributes":{"POSITION":3,"TEXCOORD_0":4}}]}],"nodes":[{"name":"tile_0692.obj","children":[1]},{"name":"defaultobject","mesh":0}],"samplers":[{},{}],"scenes":[{"nodes":[0]}],"textures":[{"source":0,"sampler":0},{"source":1,"sampler":1}],"scene":0}
