{"asset":{"version":"2.0","generator":"Open Asset Import Library (assimp v6.0.0)"},"extensionsUsed":["KHR_materials_specular","KHR_materials_volume","KHR_materials_ior","FB_ngon_encoding"],"accessors":[{"bufferView":0,"byteOffset":0,"componentType":5126,"count":5352,"type":"VEC3","max":[-2.232947587966919,3.368988037109375,4.641139507293701],"min":[-2.5283737182617188,2.2250738585072014e-308,2.2250738585072014e-308]},{"bufferView":1,"byteOffset":0,"componentType":5126,"count":5352,"type":"VEC2","max":[0.9944370985031128,0.6052017211914062],"min":[2.2250738585072014e-308,2.2250738585072014e-308]},{"bufferView":2,"byteOffset":0,"componentType":5125,"count":23985,"type":"SCALAR","max":[5351],"min":[0]},{"bufferView":3,"byteOffset":0,"componentType":5126,"count":398,"type":"VEC3","max":[-2.233917713165283,3.3570921421051025,4.643152236938477],"min":[-2.5125226974487305,2.2250738585072014e-308,2.2250738585072014e-308]},{"bufferView":4,"byteOffset":0,"componentType":5126,"count":398,"type":"VEC2","max":[0.7882633209228516,0.9231719970703125],"min":[2.2250738585072014e-308,2.2250738585072014e-308]},{"bufferView":5,"byteOffset":0,"componentType":5125,"count":1881,"type":"SCALAR","max":[397],"min":[0]}],"buffers":[{"byteLength":218464,"uri":"tile_0099.bin"}],"bufferViews":[{"buffer":0,"byteOffset":0,"byteLength":64224,"target":34962},{"buffer":0,"byteOffset":64224,"byteLength":42816,"target":34962},{"buffer":0,"byteOffset":107040,"byteLength":95940,"target":34963},{"buffer":0,"byteOffset":202980,"byteLength":4776,"target":34962},{"buffer":0,"byteOffset":207756,"byteLength":3184,"target":34962},{"buffer":0,"byteOffset":210940,"byteLength":7524,"target":34963}],"images":[{"uri":"../textures/tile_0099_material_0.jpg"},{"uri":"../textures/tile_0099_material_1.jpg"}],"materials":[{"name":"DefaultMaterial","pbrMetallicRoughness":{"baseColorFactor":[0.6000000238418579,0.6000000238418579,0.6000000238418579,1.0],"metallicFactor":0.0},"extensions":{"KHR_materials_specular":{"specularFactor":1.0,"specularColorFactor":[0.0,0.0,0.0]},"KHR_materials_ior":{"ior":1.0}}},{"name":"material_0_material","pbrMetallicRoughness":{"baseColorTexture":{"index":0},"metallicFactor":0.0},"extensions":{"KHR_materials_specular":{"specularFactor":1.0,"specularColorFactor":[0.0,0.0,0.0]},"KHR_materials_ior":{"ior":1.0}}},{"name":"material_1_material","pbrMetallicRoughness":{"baseColorTexture":{"index":1},"metallicFactor":0.0},"extensions":{"KHR_materials_specular":{"specularFactor":1.0,"specularColorFactor":[0.0,0.0,0.0]},"KHR_materials_ior":{"ior":1.0}}}],"meshes":[{"name":"defaultobject","primitives":[{"mode":4,"material":1,"indices":2,"attributes":{"POSITION":0,"TEXCOORD_0":1}},{"mode":4,"material":2,"indices":5,"attributes":{"POSITION":3,"TEXCOORD_0":4}}]}],"nodes":[{"name":"tile_0099.obj","children":[1]},{"name":"defaultobject","mesh":0}],"samplers":[{},{}],"scenes":[{"nodes":[0]}],"textures":[{"source":0,"sampler":0},{"source":1,"sampler":1}],"scene":0}
