{"asset":{"version":"2.0","generator":"Open Asset Import Library (assimp v6.0.0)"},"extensionsUsed":["KHR_materials_specular","KHR_materials_volume","KHR_materials_ior","FB_ngon_encoding"],"accessors":[{"bufferView":0,"byteOffset":0,"componentType":5126,"count":15880,"type":"VEC3","max":[1.8598921298980713,-0.35058513283729553,3.759828805923462],"min":[2.2250738585072014e-308,-0.7828145623207092,2.2250738585072014e-308]},{"bufferView":1,"byteOffset":0,"componentType":5126,"count":15880,"type":"VEC2","max":[0.9955706596374512,0.7302150726318359],"min":[2.2250738585072014e-308,2.2250738585072014e-308]},{"bufferView":2,"byteOffset":0,"componentType":5125,"count":68361,"type":"SCALAR","max":[15879],"min":[0]},{"bufferView":3,"byteOffset":0,"componentType":5126,"count":114,"type":"VEC3","max":[1.5270702838897705,-0.7540085911750793,3.3492305278778076],"min":[2.2250738585072014e-308,-0.7828729152679443,2.2250738585072014e-308]},{"bufferView":4,"byteOffset":0,"componentType":5126,"count":114,"type":"VEC2","max":[0.5444507598876953,0.679244875907898],"min":[2.2250738585072014e-308,2.2250738585072014e-308]},{"bufferView":5,"byteOffset":0,"componentType":5125,"count":507,"type":"SCALAR","max":[113],"min":[0]}],"buffers":[{"byteLength":595352,"uri":"tile_0166.bin"}],"bufferViews":[{"buffer":0,"byteOffset":0,"byteLength":190560,"target":34962},{"buffer":0,"byteOffset":190560,"byteLength":127040,"target":34962},{"buffer":0,"byteOffset":317600,"byteLength":273444,"target":34963},{"buffer":0,"byteOffset":591044,"byteLength":1368,"target":34962},{"buffer":0,"byteOffset":592412,"byteLength":912,"target":34962},{"buffer":0,"byteOffset":593324,"byteLength":2028,"target":34963}],"images":[{"uri":"../textures/tile_0166_material_0.jpg"},{"uri":"../textures/tile_0166_material_1.jpg"}],"materials":[{"name":"DefaultMaterial","pbrMetallicRoughness":{"baseColorFactor":[0.6000000238418579,0.6000000238418579,0.6000000238418579,1.0],"metallicFactor":0.0},"extensions":{"KHR_materials_specular":{"specularFactor":1.0,"specularColorFactor":[0.0,0.0,0.0]},"KHR_materials_ior":{"ior":1.0}}},{"name":"material_0_material","pbrMetallicRoughness":{"baseColorTexture":{"index":0},"metallicFactor":0.0},"extensions":{"KHR_materials_specular":{"specularFactor":1.0,"specularColorFactor":[0.0,0.0,0.0]},"KHR_materials_ior":{"ior":1.0}}},{"name":"material_1_material","pbrMetallicRoughness":{"baseColorTexture":{"index":1},"metallicFactor":0.0},"extensions":{"KHR_materials_specular":{"specularFactor":1.0,"specularColorFactor":[0.0,0.0,0.0]},"KHR_materials_ior":{"ior":1.0}}}],"meshes":[{"name":"defaultobject","primitives":[{"mode":4,"material":1,"indices":2,"attributes":{"POSITION":0,"TEXCOORD_0":1}},{"mode":4,"material":2,"indices":5,"attributes":{"POSITION":3,"TEXCOORD_0":4}}]}],"nodes":[{"name":"tile_0166.obj","children":[1]},{"name":"defaultobject","mesh":0}],"samplers":[{},{}],"scenes":[{"nodes":[0]}],"textures":[{"source":0,"sampler":0},{"source":1,"sampler":1}],"scene":0}
