{"asset":{"version":"2.0","generator":"Open Asset Import Library (assimp v6.0.0)"},"extensionsUsed":["KHR_materials_specular","KHR_materials_volume","KHR_materials_ior","FB_ngon_encoding"],"accessors":[{"bufferView":0,"byteOffset":0,"componentType":5126,"count":1005,"type":"VEC3","max":[-3.453462839126587,7.103994846343994,5.095298767089844],"min":[-3.8854167461395264,2.2250738585072014e-308,2.2250738585072014e-308]},{"bufferView":1,"byteOffset":0,"componentType":5126,"count":1005,"type":"VEC2","max":[0.8662109375,0.5502433776855469],"min":[2.2250738585072014e-308,2.2250738585072014e-308]},{"bufferView":2,"byteOffset":0,"componentType":5125,"count":4611,"type":"SCALAR","max":[1004],"min":[0]},{"bufferView":3,"byteOffset":0,"componentType":5126,"count":4164,"type":"VEC3","max":[-3.4476864337921143,7.03687047958374,5.1556172370910645],"min":[-3.913264036178589,2.2250738585072014e-308,2.2250738585072014e-308]},{"bufferView":4,"byteOffset":0,"componentType":5126,"count":4164,"type":"VEC2","max":[0.8083205223083496,0.651214599609375],"min":[2.2250738585072014e-308,2.2250738585072014e-308]},{"bufferView":5,"byteOffset":0,"componentType":5125,"count":22560,"type":"SCALAR","max":[4163],"min":[0]}],"buffers":[{"byteLength":212064,"uri":"tile_0533.bin"}],"bufferViews":[{"buffer":0,"byteOffset":0,"byteLength":12060,"target":34962},{"buffer":0,"byteOffset":12060,"byteLength":8040,"target":34962},{"buffer":0,"byteOffset":20100,"byteLength":18444,"target":34963},{"buffer":0,"byteOffset":38544,"byteLength":49968,"target":34962},{"buffer":0,"byteOffset":88512,"byteLength":33312,"target":34962},{"buffer":0,"byteOffset":121824,"byteLength":90240,"target":34963}],"images":[{"uri":"../textures/tile_0533_material_0.jpg"},{"uri":"../textures/tile_0533_material_1.jpg"}],"materials":[{"name":"DefaultMaterial","pbrMetallicRoughness":{"baseColorFactor":[0.6000000238418579,0.6000000238418579,0.6000000238418579,1.0],"metallicFactor":0.0},"extensions":{"KHR_materials_specular":{"specularFactor":1.0,"specularColorFactor":[0.0,0.0,0.0]},"KHR_materials_ior":{"ior":1.0}}},{"name":"material_0_material","pbrMetallicRoughness":{"baseColorTexture":{"index":0},"metallicFactor":0.0},"extensions":{"KHR_materials_specular":{"specularFactor":1.0,"specularColorFactor":[0.0,0.0,0.0]},"KHR_materials_ior":{"ior":1.0}}},{"name":"material_1_material","pbrMetallicRoughness":{"baseColorTexture":{"index":1},"metallicFactor":0.0},"extensions":{"KHR_materials_specular":{"specularFactor":1.0,"specularColorFactor":[0.0,0.0,0.0]},"KHR_materials_ior":{"ior":1.0}}}],"meshes":[{"name":"defaultobject","primitives":[{"mode":4,"material":1,"indices":2,"attributes":{"POSITION":0,"TEXCOORD_0":1}},{"mode":4,"material":2,"indices":5,"attributes":{"POSITION":3,"TEXCOORD_0":4}}]}],"nodes":[{"name":"tile_0533.obj","children":[1]},{"name":"defaultobject","mesh":0}],"samplers":[{},{}],"scenes":[{"nodes":[0]}],"textures":[{"source":0,"sampler":0},{"source":1,"sampler":1}],"scene":0}
