{"asset":{"version":"2.0","generator":"Open Asset Import Library (assimp v6.0.0)"},"extensionsUsed":["KHR_materials_specular","KHR_materials_volume","KHR_materials_ior","FB_ngon_encoding"],"accessors":[{"bufferView":0,"byteOffset":0,"componentType":5126,"count":3015,"type":"VEC3","max":[-2.957144021987915,-0.7631125450134277,4.044130325317383],"min":[-3.591830015182495,-1.027890682220459,2.2250738585072014e-308]},{"bufferView":1,"byteOffset":0,"componentType":5126,"count":3015,"type":"VEC2","max":[0.9874696731567383,0.9058990478515625],"min":[2.2250738585072014e-308,2.2250738585072014e-308]},{"bufferView":2,"byteOffset":0,"componentType":5125,"count":14142,"type":"SCALAR","max":[3014],"min":[0]},{"bufferView":3,"byteOffset":0,"componentType":5126,"count":2207,"type":"VEC3","max":[-2.9748892784118652,-0.6962234377861023,4.007045269012451],"min":[-3.591142416000366,-1.0530816316604614,2.2250738585072014e-308]},{"bufferView":4,"byteOffset":0,"componentType":5126,"count":2207,"type":"VEC2","max":[0.8583080768585205,0.8292808532714844],"min":[2.2250738585072014e-308,2.2250738585072014e-308]},{"bufferView":5,"byteOffset":0,"componentType":5125,"count":11166,"type":"SCALAR","max":[2206],"min":[0]}],"buffers":[{"byteLength":205672,"uri":"tile_0092.bin"}],"bufferViews":[{"buffer":0,"byteOffset":0,"byteLength":36180,"target":34962},{"buffer":0,"byteOffset":36180,"byteLength":24120,"target":34962},{"buffer":0,"byteOffset":60300,"byteLength":56568,"target":34963},{"buffer":0,"byteOffset":116868,"byteLength":26484,"target":34962},{"buffer":0,"byteOffset":143352,"byteLength":17656,"target":34962},{"buffer":0,"byteOffset":161008,"byteLength":44664,"target":34963}],"images":[{"uri":"../textures/tile_0092_material_0.jpg"},{"uri":"../textures/tile_0092_material_1.jpg"}],"materials":[{"name":"DefaultMaterial","pbrMetallicRoughness":{"baseColorFactor":[0.6000000238418579,0.6000000238418579,0.6000000238418579,1.0],"metallicFactor":0.0},"extensions":{"KHR_materials_specular":{"specularFactor":1.0,"specularColorFactor":[0.0,0.0,0.0]},"KHR_materials_ior":{"ior":1.0}}},{"name":"material_0_material","pbrMetallicRoughness":{"baseColorTexture":{"index":0},"metallicFactor":0.0},"extensions":{"KHR_materials_specular":{"specularFactor":1.0,"specularColorFactor":[0.0,0.0,0.0]},"KHR_materials_ior":{"ior":1.0}}},{"name":"material_1_material","pbrMetallicRoughness":{"baseColorTexture":{"index":1},"metallicFactor":0.0},"extensions":{"KHR_materials_specular":{"specularFactor":1.0,"specularColorFactor":[0.0,0.0,0.0]},"KHR_materials_ior":{"ior":1.0}}}],"meshes":[{"name":"defaultobject","primitives":[{"mode":4,"material":1,"indices":2,"attributes":{"POSITION":0,"TEXCOORD_0":1}},{"mode":4,"material":2,"indices":5,"attributes":{"POSITION":3,"TEXCOORD_0":4}}]}],"nodes":[{"name":"tile_0092.obj","children":[1]},{"name":"defaultobject","mesh":0}],"samplers":[{},{}],"scenes":[{"nodes":[0]}],"textures":[{"source":0,"sampler":0},{"source":1,"sampler":1}],"scene":0}
