{"asset":{"version":"2.0","generator":"Open Asset Import Library (assimp v6.0.0)"},"extensionsUsed":["KHR_materials_specular","KHR_materials_volume","KHR_materials_ior","FB_ngon_encoding"],"accessors":[{"bufferView":0,"byteOffset":0,"componentType":5126,"count":1224,"type":"VEC3","max":[-3.2905125617980957,-2.380244493484497,3.154498815536499],"min":[-3.8392982482910156,-2.7854812145233154,2.2250738585072014e-308]},{"bufferView":1,"byteOffset":0,"componentType":5126,"count":1224,"type":"VEC2","max":[0.7646484375,0.6388015747070312],"min":[2.2250738585072014e-308,2.2250738585072014e-308]},{"bufferView":2,"byteOffset":0,"componentType":5125,"count":5493,"type":"SCALAR","max":[1223],"min":[0]},{"bufferView":3,"byteOffset":0,"componentType":5126,"count":1800,"type":"VEC3","max":[-3.2924585342407227,-2.341843843460083,3.1575186252593994],"min":[-3.8389194011688232,-2.784165143966675,2.2250738585072014e-308]},{"bufferView":4,"byteOffset":0,"componentType":5126,"count":1800,"type":"VEC2","max":[0.848198413848877,0.5437278747558594],"min":[2.2250738585072014e-308,2.2250738585072014e-308]},{"bufferView":5,"byteOffset":0,"componentType":5125,"count":9354,"type":"SCALAR","max":[1799],"min":[0]}],"buffers":[{"byteLength":119868,"uri":"tile_0417.bin"}],"bufferViews":[{"buffer":0,"byteOffset":0,"byteLength":14688,"target":34962},{"buffer":0,"byteOffset":14688,"byteLength":9792,"target":34962},{"buffer":0,"byteOffset":24480,"byteLength":21972,"target":34963},{"buffer":0,"byteOffset":46452,"byteLength":21600,"target":34962},{"buffer":0,"byteOffset":68052,"byteLength":14400,"target":34962},{"buffer":0,"byteOffset":82452,"byteLength":37416,"target":34963}],"images":[{"uri":"../textures/tile_0417_material_0.jpg"},{"uri":"../textures/tile_0417_material_1.jpg"}],"materials":[{"name":"DefaultMaterial","pbrMetallicRoughness":{"baseColorFactor":[0.6000000238418579,0.6000000238418579,0.6000000238418579,1.0],"metallicFactor":0.0},"extensions":{"KHR_materials_specular":{"specularFactor":1.0,"specularColorFactor":[0.0,0.0,0.0]},"KHR_materials_ior":{"ior":1.0}}},{"name":"material_0_material","pbrMetallicRoughness":{"baseColorTexture":{"index":0},"metallicFactor":0.0},"extensions":{"KHR_materials_specular":{"specularFactor":1.0,"specularColorFactor":[0.0,0.0,0.0]},"KHR_materials_ior":{"ior":1.0}}},{"name":"material_1_material","pbrMetallicRoughness":{"baseColorTexture":{"index":1},"metallicFactor":0.0},"extensions":{"KHR_materials_specular":{"specularFactor":1.0,"specularColorFactor":[0.0,0.0,0.0]},"KHR_materials_ior":{"ior":1.0}}}],"meshes":[{"name":"defaultobject","primitives":[{"mode":4,"material":1,"indices":2,"attributes":{"POSITION":0,"TEXCOORD_0":1}},{"mode":4,"material":2,"indices":5,"attributes":{"POSITION":3,"TEXCOORD_0":4}}]}],"nodes":[{"name":"tile_0417.obj","children":[1]},{"name":"defaultobject","mesh":0}],"samplers":[{},{}],"scenes":[{"nodes":[0]}],"textures":[{"source":0,"sampler":0},{"source":1,"sampler":1}],"scene":0}
