{"asset":{"version":"2.0","generator":"Open Asset Import Library (assimp v6.0.0)"},"extensionsUsed":["KHR_materials_specular","KHR_materials_volume","KHR_materials_ior","FB_ngon_encoding"],"accessors":[{"bufferView":0,"byteOffset":0,"componentType":5126,"count":7743,"type":"VEC3","max":[4.957169055938721,-0.7717775106430054,3.9820210933685303],"min":[2.2250738585072014e-308,-0.998128354549408,2.2250738585072014e-308]},{"bufferView":1,"byteOffset":0,"componentType":5126,"count":7743,"type":"VEC2","max":[0.9959492683410645,0.8395900726318359],"min":[2.2250738585072014e-308,2.2250738585072014e-308]},{"bufferView":2,"byteOffset":0,"componentType":5125,"count":34362,"type":"SCALAR","max":[7742],"min":[0]},{"bufferView":3,"byteOffset":0,"componentType":5126,"count":55,"type":"VEC3","max":[4.805544376373291,-0.7755358219146729,3.9104561805725098],"min":[2.2250738585072014e-308,-0.8295648694038391,2.2250738585072014e-308]},{"bufferView":4,"byteOffset":0,"componentType":5126,"count":55,"type":"VEC2","max":[0.6226882338523865,0.5658493041992188],"min":[2.2250738585072014e-308,2.2250738585072014e-308]},{"bufferView":5,"byteOffset":0,"componentType":5125,"count":210,"type":"SCALAR","max":[54],"min":[0]}],"buffers":[{"byteLength":294248,"uri":"tile_0173.bin"}],"bufferViews":[{"buffer":0,"byteOffset":0,"byteLength":92916,"target":34962},{"buffer":0,"byteOffset":92916,"byteLength":61944,"target":34962},{"buffer":0,"byteOffset":154860,"byteLength":137448,"target":34963},{"buffer":0,"byteOffset":292308,"byteLength":660,"target":34962},{"buffer":0,"byteOffset":292968,"byteLength":440,"target":34962},{"buffer":0,"byteOffset":293408,"byteLength":840,"target":34963}],"images":[{"uri":"../textures/tile_0173_material_0.jpg"},{"uri":"../textures/tile_0173_material_1.jpg"}],"materials":[{"name":"DefaultMaterial","pbrMetallicRoughness":{"baseColorFactor":[0.6000000238418579,0.6000000238418579,0.6000000238418579,1.0],"metallicFactor":0.0},"extensions":{"KHR_materials_specular":{"specularFactor":1.0,"specularColorFactor":[0.0,0.0,0.0]},"KHR_materials_ior":{"ior":1.0}}},{"name":"material_0_material","pbrMetallicRoughness":{"baseColorTexture":{"index":0},"metallicFactor":0.0},"extensions":{"KHR_materials_specular":{"specularFactor":1.0,"specularColorFactor":[0.0,0.0,0.0]},"KHR_materials_ior":{"ior":1.0}}},{"name":"material_1_material","pbrMetallicRoughness":{"baseColorTexture":{"index":1},"metallicFactor":0.0},"extensions":{"KHR_materials_specular":{"specularFactor":1.0,"specularColorFactor":[0.0,0.0,0.0]},"KHR_materials_ior":{"ior":1.0}}}],"meshes":[{"name":"defaultobject","primitives":[{"mode":4,"material":1,"indices":2,"attributes":{"POSITION":0,"TEXCOORD_0":1}},{"mode":4,"material":2,"indices":5,"attributes":{"POSITION":3,"TEXCOORD_0":4}}]}],"nodes":[{"name":"tile_0173.obj","children":[1]},{"name":"defaultobject","mesh":0}],"samplers":[{},{}],"scenes":[{"nodes":[0]}],"textures":[{"source":0,"sampler":0},{"source":1,"sampler":1}],"scene":0}
