{"asset":{"version":"2.0","generator":"Open Asset Import Library (assimp v6.0.0)"},"extensionsUsed":["KHR_materials_specular","KHR_materials_volume","KHR_materials_ior","FB_ngon_encoding"],"accessors":[{"bufferView":0,"byteOffset":0,"componentType":5126,"count":2287,"type":"VEC3","max":[-1.3678383827209473,-5.232681751251221,2.465461254119873],"min":[-1.5633245706558228,-5.942965507507324,2.2250738585072014e-308]},{"bufferView":1,"byteOffset":0,"componentType":5126,"count":2287,"type":"VEC2","max":[0.9888448715209961,0.7724723815917969],"min":[2.2250738585072014e-308,2.2250738585072014e-308]},{"bufferView":2,"byteOffset":0,"componentType":5125,"count":11094,"type":"SCALAR","max":[2286],"min":[0]},{"bufferView":3,"byteOffset":0,"componentType":5126,"count":2967,"type":"VEC3","max":[-1.361821174621582,-5.253668308258057,2.4672491550445557],"min":[-1.5737462043762207,-5.943246364593506,2.2250738585072014e-308]},{"bufferView":4,"byteOffset":0,"componentType":5126,"count":2967,"type":"VEC2","max":[0.8849067687988281,0.5063018798828125],"min":[2.2250738585072014e-308,2.2250738585072014e-308]},{"bufferView":5,"byteOffset":0,"componentType":5125,"count":14874,"type":"SCALAR","max":[2966],"min":[0]}],"buffers":[{"byteLength":208952,"uri":"tile_0388.bin"}],"bufferViews":[{"buffer":0,"byteOffset":0,"byteLength":27444,"target":34962},{"buffer":0,"byteOffset":27444,"byteLength":18296,"target":34962},{"buffer":0,"byteOffset":45740,"byteLength":44376,"target":34963},{"buffer":0,"byteOffset":90116,"byteLength":35604,"target":34962},{"buffer":0,"byteOffset":125720,"byteLength":23736,"target":34962},{"buffer":0,"byteOffset":149456,"byteLength":59496,"target":34963}],"images":[{"uri":"../textures/tile_0388_material_0.jpg"},{"uri":"../textures/tile_0388_material_1.jpg"}],"materials":[{"name":"DefaultMaterial","pbrMetallicRoughness":{"baseColorFactor":[0.6000000238418579,0.6000000238418579,0.6000000238418579,1.0],"metallicFactor":0.0},"extensions":{"KHR_materials_specular":{"specularFactor":1.0,"specularColorFactor":[0.0,0.0,0.0]},"KHR_materials_ior":{"ior":1.0}}},{"name":"material_0_material","pbrMetallicRoughness":{"baseColorTexture":{"index":0},"metallicFactor":0.0},"extensions":{"KHR_materials_specular":{"specularFactor":1.0,"specularColorFactor":[0.0,0.0,0.0]},"KHR_materials_ior":{"ior":1.0}}},{"name":"material_1_material","pbrMetallicRoughness":{"baseColorTexture":{"index":1},"metallicFactor":0.0},"extensions":{"KHR_materials_specular":{"specularFactor":1.0,"specularColorFactor":[0.0,0.0,0.0]},"KHR_materials_ior":{"ior":1.0}}}],"meshes":[{"name":"defaultobject","primitives":[{"mode":4,"material":1,"indices":2,"attributes":{"POSITION":0,"TEXCOORD_0":1}},{"mode":4,"material":2,"indices":5,"attributes":{"POSITION":3,"TEXCOORD_0":4}}]}],"nodes":[{"name":"tile_0388.obj","children":[1]},{"name":"defaultobject","mesh":0}],"samplers":[{},{}],"scenes":[{"nodes":[0]}],"textures":[{"source":0,"sampler":0},{"source":1,"sampler":1}],"scene":0}
