{"asset":{"version":"2.0","generator":"Open Asset Import Library (assimp v6.0.0)"},"extensionsUsed":["KHR_materials_specular","KHR_materials_volume","KHR_materials_ior","FB_ngon_encoding"],"accessors":[{"bufferView":0,"byteOffset":0,"componentType":5126,"count":14344,"type":"VEC3","max":[2.5501880645751953,-0.33175259828567505,4.058711528778076],"min":[2.2250738585072014e-308,-0.7892575263977051,2.2250738585072014e-308]},{"bufferView":1,"byteOffset":0,"componentType":5126,"count":14344,"type":"VEC2","max":[0.9956502914428711,0.7627391815185547],"min":[2.2250738585072014e-308,2.2250738585072014e-308]},{"bufferView":2,"byteOffset":0,"componentType":5125,"count":63207,"type":"SCALAR","max":[14343],"min":[0]},{"bufferView":3,"byteOffset":0,"componentType":5126,"count":1572,"type":"VEC3","max":[2.543720245361328,-0.3264892101287842,4.0163798332214355],"min":[2.2250738585072014e-308,-0.7829378247261047,2.2250738585072014e-308]},{"bufferView":4,"byteOffset":0,"componentType":5126,"count":1572,"type":"VEC2","max":[0.7596945762634277,0.945953369140625],"min":[2.2250738585072014e-308,2.2250738585072014e-308]},{"bufferView":5,"byteOffset":0,"componentType":5125,"count":7572,"type":"SCALAR","max":[1571],"min":[0]}],"buffers":[{"byteLength":601436,"uri":"tile_0619.bin"}],"bufferViews":[{"buffer":0,"byteOffset":0,"byteLength":172128,"target":34962},{"buffer":0,"byteOffset":172128,"byteLength":114752,"target":34962},{"buffer":0,"byteOffset":286880,"byteLength":252828,"target":34963},{"buffer":0,"byteOffset":539708,"byteLength":18864,"target":34962},{"buffer":0,"byteOffset":558572,"byteLength":12576,"target":34962},{"buffer":0,"byteOffset":571148,"byteLength":30288,"target":34963}],"images":[{"uri":"../textures/tile_0619_material_0.jpg"},{"uri":"../textures/tile_0619_material_1.jpg"}],"materials":[{"name":"DefaultMaterial","pbrMetallicRoughness":{"baseColorFactor":[0.6000000238418579,0.6000000238418579,0.6000000238418579,1.0],"metallicFactor":0.0},"extensions":{"KHR_materials_specular":{"specularFactor":1.0,"specularColorFactor":[0.0,0.0,0.0]},"KHR_materials_ior":{"ior":1.0}}},{"name":"material_0_material","pbrMetallicRoughness":{"baseColorTexture":{"index":0},"metallicFactor":0.0},"extensions":{"KHR_materials_specular":{"specularFactor":1.0,"specularColorFactor":[0.0,0.0,0.0]},"KHR_materials_ior":{"ior":1.0}}},{"name":"material_1_material","pbrMetallicRoughness":{"baseColorTexture":{"index":1},"metallicFactor":0.0},"extensions":{"KHR_materials_specular":{"specularFactor":1.0,"specularColorFactor":[0.0,0.0,0.0]},"KHR_materials_ior":{"ior":1.0}}}],"meshes":[{"name":"defaultobject","primitives":[{"mode":4,"material":1,"indices":2,"attributes":{"POSITION":0,"TEXCOORD_0":1}},{"mode":4,"material":2,"indices":5,"attributes":{"POSITION":3,"TEXCOORD_0":4}}]}],"nodes":[{"name":"tile_0619.obj","children":[1]},{"name":"defaultobject","mesh":0}],"samplers":[{},{}],"scenes":[{"nodes":[0]}],"textures":[{"source":0,"sampler":0},{"source":1,"sampler":1}],"scene":0}
