{"asset":{"version":"2.0","generator":"Open Asset Import Library (assimp v6.0.0)"},"extensionsUsed":["KHR_materials_specular","KHR_materials_volume","KHR_materials_ior","FB_ngon_encoding"],"accessors":[{"bufferView":0,"byteOffset":0,"componentType":5126,"count":12808,"type":"VEC3","max":[1.3825889825820923,3.8166677951812744,4.5767107009887695],"min":[2.2250738585072014e-308,2.2250738585072014e-308,2.2250738585072014e-308]},{"bufferView":1,"byteOffset":0,"componentType":5126,"count":12808,"type":"VEC2","max":[0.9893078804016113,0.6561679840087891],"min":[2.2250738585072014e-308,2.2250738585072014e-308]},{"bufferView":2,"byteOffset":0,"componentType":5125,"count":60948,"type":"SCALAR","max":[12807],"min":[0]},{"bufferView":3,"byteOffset":0,"componentType":5126,"count":2026,"type":"VEC3","max":[1.3816086053848267,3.6719348430633545,4.563026428222656],"min":[2.2250738585072014e-308,2.2250738585072014e-308,2.2250738585072014e-308]},{"bufferView":4,"byteOffset":0,"componentType":5126,"count":2026,"type":"VEC2","max":[0.9057612419128418,0.5388031005859375],"min":[2.2250738585072014e-308,2.2250738585072014e-308]},{"bufferView":5,"byteOffset":0,"componentType":5125,"count":10179,"type":"SCALAR","max":[2025],"min":[0]}],"buffers":[{"byteLength":581188,"uri":"tile_0691.bin"}],"bufferViews":[{"buffer":0,"byteOffset":0,"byteLength":153696,"target":34962},{"buffer":0,"byteOffset":153696,"byteLength":102464,"target":34962},{"buffer":0,"byteOffset":256160,"byteLength":243792,"target":34963},{"buffer":0,"byteOffset":499952,"byteLength":24312,"target":34962},{"buffer":0,"byteOffset":524264,"byteLength":16208,"target":34962},{"buffer":0,"byteOffset":540472,"byteLength":40716,"target":34963}],"images":[{"uri":"../textures/tile_0691_material_0.jpg"},{"uri":"../textures/tile_0691_material_1.jpg"}],"materials":[{"name":"DefaultMaterial","pbrMetallicRoughness":{"baseColorFactor":[0.6000000238418579,0.6000000238418579,0.6000000238418579,1.0],"metallicFactor":0.0},"extensions":{"KHR_materials_specular":{"specularFactor":1.0,"specularColorFactor":[0.0,0.0,0.0]},"KHR_materials_ior":{"ior":1.0}}},{"name":"material_0_material","pbrMetallicRoughness":{"baseColorTexture":{"index":0},"metallicFactor":0.0},"extensions":{"KHR_materials_specular":{"specularFactor":1.0,"specularColorFactor":[0.0,0.0,0.0]},"KHR_materials_ior":{"ior":1.0}}},{"name":"material_1_material","pbrMetallicRoughness":{"baseColorTexture":{"index":1},"metallicFactor":0.0},"extensions":{"KHR_materials_specular":{"specularFactor":1.0,"specularColorFactor":[0.0,0.0,0.0]},"KHR_materials_ior":{"ior":1.0}}}],"meshes":[{"name":"defaultobject","primitives":[{"mode":4,"material":1,"indices":2,"attributes":{"POSITION":0,"TEXCOORD_0":1}},{"mode":4,"material":2,"indices":5,"attributes":{"POSITION":3,"TEXCOORD_0":4}}]}],"nodes":[{"name":"tile_0691.obj","children":[1]},{"name":"defaultobject","mesh":0}],"samplers":[{},{}],"scenes":[{"nodes":[0]}],"textures":[{"source":0,"sampler":0},{"source":1,"sampler":1}],"scene":0}
