{"asset":{"version":"2.0","generator":"Open Asset Import Library (assimp v6.0.0)"},"extensionsUsed":["KHR_materials_specular","KHR_materials_volume","KHR_materials_ior","FB_ngon_encoding"],"accessors":[{"bufferView":0,"byteOffset":0,"componentType":5126,"count":3602,"type":"VEC3","max":[-1.8465497493743896,-0.3608517646789551,2.9050302505493164],"min":[-2.1084237098693848,-0.5510503649711609,2.2250738585072014e-308]},{"bufferView":1,"byteOffset":0,"componentType":5126,"count":3602,"type":"VEC2","max":[0.9910118579864502,0.5583171844482422],"min":[2.2250738585072014e-308,2.2250738585072014e-308]},{"bufferView":2,"byteOffset":0,"componentType":5125,"count":16752,"type":"SCALAR","max":[3601],"min":[0]},{"bufferView":3,"byteOffset":0,"componentType":5126,"count":1736,"type":"VEC3","max":[-1.8744786977767944,-0.3633755147457123,2.907834768295288],"min":[-2.1127443313598633,-0.5501376390457153,2.2250738585072014e-308]},{"bufferView":4,"byteOffset":0,"componentType":5126,"count":1736,"type":"VEC2","max":[0.8601131439208984,0.9655609130859375],"min":[2.2250738585072014e-308,2.2250738585072014e-308]},{"bufferView":5,"byteOffset":0,"componentType":5125,"count":8973,"type":"SCALAR","max":[1735],"min":[0]}],"buffers":[{"byteLength":209660,"uri":"tile_0370.bin"}],"bufferViews":[{"buffer":0,"byteOffset":0,"byteLength":43224,"target":34962},{"buffer":0,"byteOffset":43224,"byteLength":28816,"target":34962},{"buffer":0,"byteOffset":72040,"byteLength":67008,"target":34963},{"buffer":0,"byteOffset":139048,"byteLength":20832,"target":34962},{"buffer":0,"byteOffset":159880,"byteLength":13888,"target":34962},{"buffer":0,"byteOffset":173768,"byteLength":35892,"target":34963}],"images":[{"uri":"../textures/tile_0370_material_0.jpg"},{"uri":"../textures/tile_0370_material_1.jpg"}],"materials":[{"name":"DefaultMaterial","pbrMetallicRoughness":{"baseColorFactor":[0.6000000238418579,0.6000000238418579,0.6000000238418579,1.0],"metallicFactor":0.0},"extensions":{"KHR_materials_specular":{"specularFactor":1.0,"specularColorFactor":[0.0,0.0,0.0]},"KHR_materials_ior":{"ior":1.0}}},{"name":"material_0_material","pbrMetallicRoughness":{"baseColorTexture":{"index":0},"metallicFactor":0.0},"extensions":{"KHR_materials_specular":{"specularFactor":1.0,"specularColorFactor":[0.0,0.0,0.0]},"KHR_materials_ior":{"ior":1.0}}},{"name":"material_1_material","pbrMetallicRoughness":{"baseColorTexture":{"index":1},"metallicFactor":0.0},"extensions":{"KHR_materials_specular":{"specularFactor":1.0,"specularColorFactor":[0.0,0.0,0.0]},"KHR_materials_ior":{"ior":1.0}}}],"meshes":[{"name":"defaultobject","primitives":[{"mode":4,"material":1,"indices":2,"attributes":{"POSITION":0,"TEXCOORD_0":1}},{"mode":4,"material":2,"indices":5,"attributes":{"POSITION":3,"TEXCOORD_0":4}}]}],"nodes":[{"name":"tile_0370.obj","children":[1]},{"name":"defaultobject","mesh":0}],"samplers":[{},{}],"scenes":[{"nodes":[0]}],"textures":[{"source":0,"sampler":0},{"source":1,"sampler":1}],"scene":0}
