{"asset":{"version":"2.0","generator":"Open Asset Import Library (assimp v6.0.0)"},"extensionsUsed":["KHR_materials_specular","KHR_materials_volume","KHR_materials_ior","FB_ngon_encoding"],"accessors":[{"bufferView":0,"byteOffset":0,"componentType":5126,"count":6132,"type":"VEC3","max":[1.9499107599258423,-2.444122552871704,3.4117236137390137],"min":[2.2250738585072014e-308,-2.7071950435638428,2.2250738585072014e-308]},{"bufferView":1,"byteOffset":0,"componentType":5126,"count":6132,"type":"VEC2","max":[0.9886293411254883,0.6678810119628906],"min":[2.2250738585072014e-308,2.2250738585072014e-308]},{"bufferView":2,"byteOffset":0,"componentType":5125,"count":26652,"type":"SCALAR","max":[6131],"min":[0]},{"bufferView":3,"byteOffset":0,"componentType":5126,"count":1128,"type":"VEC3","max":[1.9476425647735596,-2.443641185760498,3.4063820838928223],"min":[2.2250738585072014e-308,-2.708533525466919,2.2250738585072014e-308]},{"bufferView":4,"byteOffset":0,"componentType":5126,"count":1128,"type":"VEC2","max":[0.6920890808105469,0.522369384765625],"min":[2.2250738585072014e-308,2.2250738585072014e-308]},{"bufferView":5,"byteOffset":0,"componentType":5125,"count":5757,"type":"SCALAR","max":[1127],"min":[0]}],"buffers":[{"byteLength":274836,"uri":"tile_0257.bin"}],"bufferViews":[{"buffer":0,"byteOffset":0,"byteLength":73584,"target":34962},{"buffer":0,"byteOffset":73584,"byteLength":49056,"target":34962},{"buffer":0,"byteOffset":122640,"byteLength":106608,"target":34963},{"buffer":0,"byteOffset":229248,"byteLength":13536,"target":34962},{"buffer":0,"byteOffset":242784,"byteLength":9024,"target":34962},{"buffer":0,"byteOffset":251808,"byteLength":23028,"target":34963}],"images":[{"uri":"../textures/tile_0257_material_0.jpg"},{"uri":"../textures/tile_0257_material_1.jpg"}],"materials":[{"name":"DefaultMaterial","pbrMetallicRoughness":{"baseColorFactor":[0.6000000238418579,0.6000000238418579,0.6000000238418579,1.0],"metallicFactor":0.0},"extensions":{"KHR_materials_specular":{"specularFactor":1.0,"specularColorFactor":[0.0,0.0,0.0]},"KHR_materials_ior":{"ior":1.0}}},{"name":"material_0_material","pbrMetallicRoughness":{"baseColorTexture":{"index":0},"metallicFactor":0.0},"extensions":{"KHR_materials_specular":{"specularFactor":1.0,"specularColorFactor":[0.0,0.0,0.0]},"KHR_materials_ior":{"ior":1.0}}},{"name":"material_1_material","pbrMetallicRoughness":{"baseColorTexture":{"index":1},"metallicFactor":0.0},"extensions":{"KHR_materials_specular":{"specularFactor":1.0,"specularColorFactor":[0.0,0.0,0.0]},"KHR_materials_ior":{"ior":1.0}}}],"meshes":[{"name":"defaultobject","primitives":[{"mode":4,"material":1,"indices":2,"attributes":{"POSITION":0,"TEXCOORD_0":1}},{"mode":4,"material":2,"indices":5,"attributes":{"POSITION":3,"TEXCOORD_0":4}}]}],"nodes":[{"name":"tile_0257.obj","children":[1]},{"name":"defaultobject","mesh":0}],"samplers":[{},{}],"scenes":[{"nodes":[0]}],"textures":[{"source":0,"sampler":0},{"source":1,"sampler":1}],"scene":0}
