{"asset":{"version":"2.0","generator":"Open Asset Import Library (assimp v6.0.0)"},"extensionsUsed":["KHR_materials_specular","KHR_materials_volume","KHR_materials_ior","FB_ngon_encoding"],"accessors":[{"bufferView":0,"byteOffset":0,"componentType":5126,"count":4040,"type":"VEC3","max":[2.942521810531616,-4.1383161544799805,3.548689603805542],"min":[2.2250738585072014e-308,-4.556958198547363,2.2250738585072014e-308]},{"bufferView":1,"byteOffset":0,"componentType":5126,"count":4040,"type":"VEC2","max":[0.9776520729064941,0.5745887756347656],"min":[2.2250738585072014e-308,2.2250738585072014e-308]},{"bufferView":2,"byteOffset":0,"componentType":5125,"count":18309,"type":"SCALAR","max":[4039],"min":[0]},{"bufferView":3,"byteOffset":0,"componentType":5126,"count":845,"type":"VEC3","max":[2.9386072158813477,-4.14765739440918,3.5452802181243896],"min":[2.2250738585072014e-308,-4.554202079772949,2.2250738585072014e-308]},{"bufferView":4,"byteOffset":0,"componentType":5126,"count":845,"type":"VEC2","max":[0.49666404724121094,0.5358619689941406],"min":[2.2250738585072014e-308,2.2250738585072014e-308]},{"bufferView":5,"byteOffset":0,"componentType":5125,"count":4197,"type":"SCALAR","max":[844],"min":[0]}],"buffers":[{"byteLength":187724,"uri":"tile_0751.bin"}],"bufferViews":[{"buffer":0,"byteOffset":0,"byteLength":48480,"target":34962},{"buffer":0,"byteOffset":48480,"byteLength":32320,"target":34962},{"buffer":0,"byteOffset":80800,"byteLength":73236,"target":34963},{"buffer":0,"byteOffset":154036,"byteLength":10140,"target":34962},{"buffer":0,"byteOffset":164176,"byteLength":6760,"target":34962},{"buffer":0,"byteOffset":170936,"byteLength":16788,"target":34963}],"images":[{"uri":"../textures/tile_0751_material_0.jpg"},{"uri":"../textures/tile_0751_material_1.jpg"}],"materials":[{"name":"DefaultMaterial","pbrMetallicRoughness":{"baseColorFactor":[0.6000000238418579,0.6000000238418579,0.6000000238418579,1.0],"metallicFactor":0.0},"extensions":{"KHR_materials_specular":{"specularFactor":1.0,"specularColorFactor":[0.0,0.0,0.0]},"KHR_materials_ior":{"ior":1.0}}},{"name":"material_0_material","pbrMetallicRoughness":{"baseColorTexture":{"index":0},"metallicFactor":0.0},"extensions":{"KHR_materials_specular":{"specularFactor":1.0,"specularColorFactor":[0.0,0.0,0.0]},"KHR_materials_ior":{"ior":1.0}}},{"name":"material_1_material","pbrMetallicRoughness":{"baseColorTexture":{"index":1},"metallicFactor":0.0},"extensions":{"KHR_materials_specular":{"specularFactor":1.0,"specularColorFactor":[0.0,0.0,0.0]},"KHR_materials_ior":{"ior":1.0}}}],"meshes":[{"name":"defaultobject","primitives":[{"mode":4,"material":1,"indices":2,"attributes":{"POSITION":0,"TEXCOORD_0":1}},{"mode":4,"material":2,"indices":5,"attributes":{"POSITION":3,"TEXCOORD_0":4}}]}],"nodes":[{"name":"tile_0751.obj","children":[1]},{"name":"defaultobject","mesh":0}],"samplers":[{},{}],"scenes":[{"nodes":[0]}],"textures":[{"source":0,"sampler":0},{"source":1,"sampler":1}],"scene":0}
