{"asset":{"version":"2.0","generator":"Open Asset Import Library (assimp v6.0.0)"},"extensionsUsed":["KHR_materials_specular","KHR_materials_volume","KHR_materials_ior","FB_ngon_encoding"],"accessors":[{"bufferView":0,"byteOffset":0,"componentType":5126,"count":6101,"type":"VEC3","max":[1.0726308822631836,2.114025592803955,4.291858673095703],"min":[2.2250738585072014e-308,2.2250738585072014e-308,2.2250738585072014e-308]},{"bufferView":1,"byteOffset":0,"componentType":5126,"count":6101,"type":"VEC2","max":[0.9929966926574707,0.5271320343017578],"min":[2.2250738585072014e-308,2.2250738585072014e-308]},{"bufferView":2,"byteOffset":0,"componentType":5125,"count":26676,"type":"SCALAR","max":[6100],"min":[0]},{"bufferView":3,"byteOffset":0,"componentType":5126,"count":73,"type":"VEC3","max":[0.7790727615356445,2.1130242347717285,4.295555591583252],"min":[2.2250738585072014e-308,2.2250738585072014e-308,2.2250738585072014e-308]},{"bufferView":4,"byteOffset":0,"componentType":5126,"count":73,"type":"VEC2","max":[0.4542999267578125,0.4984589219093323],"min":[2.2250738585072014e-308,2.2250738585072014e-308]},{"bufferView":5,"byteOffset":0,"componentType":5125,"count":330,"type":"SCALAR","max":[72],"min":[0]}],"buffers":[{"byteLength":231504,"uri":"tile_0685.bin"}],"bufferViews":[{"buffer":0,"byteOffset":0,"byteLength":73212,"target":34962},{"buffer":0,"byteOffset":73212,"byteLength":48808,"target":34962},{"buffer":0,"byteOffset":122020,"byteLength":106704,"target":34963},{"buffer":0,"byteOffset":228724,"byteLength":876,"target":34962},{"buffer":0,"byteOffset":229600,"byteLength":584,"target":34962},{"buffer":0,"byteOffset":230184,"byteLength":1320,"target":34963}],"images":[{"uri":"../textures/tile_0685_material_0.jpg"},{"uri":"../textures/tile_0685_material_1.jpg"}],"materials":[{"name":"DefaultMaterial","pbrMetallicRoughness":{"baseColorFactor":[0.6000000238418579,0.6000000238418579,0.6000000238418579,1.0],"metallicFactor":0.0},"extensions":{"KHR_materials_specular":{"specularFactor":1.0,"specularColorFactor":[0.0,0.0,0.0]},"KHR_materials_ior":{"ior":1.0}}},{"name":"material_0_material","pbrMetallicRoughness":{"baseColorTexture":{"index":0},"metallicFactor":0.0},"extensions":{"KHR_materials_specular":{"specularFactor":1.0,"specularColorFactor":[0.0,0.0,0.0]},"KHR_materials_ior":{"ior":1.0}}},{"name":"material_1_material","pbrMetallicRoughness":{"baseColorTexture":{"index":1},"metallicFactor":0.0},"extensions":{"KHR_materials_specular":{"specularFactor":1.0,"specularColorFactor":[0.0,0.0,0.0]},"KHR_materials_ior":{"ior":1.0}}}],"meshes":[{"name":"defaultobject","primitives":[{"mode":4,"material":1,"indices":2,"attributes":{"POSITION":0,"TEXCOORD_0":1}},{"mode":4,"material":2,"indices":5,"attributes":{"POSITION":3,"TEXCOORD_0":4}}]}],"nodes":[{"name":"tile_0685.obj","children":[1]},{"name":"defaultobject","mesh":0}],"samplers":[{},{}],"scenes":[{"nodes":[0]}],"textures":[{"source":0,"sampler":0},{"source":1,"sampler":1}],"scene":0}
